<svg width="390" height="809" viewBox="0 0 390 809" fill="none" xmlns="http://www.w3.org/2000/svg">
<g clip-path="url(#clip0_3_24745)">
<path d="M390 -8.99999C390 -20.0457 381.046 -29 370 -29L19.9998 -28.9999C8.95416 -28.9999 -0.000151022 -20.0456 -0.000149091 -8.99993L-9.56423e-06 789C-7.63294e-06 800.046 8.95431 809 20 809L370 809C381.046 809 390 800.046 390 789L390 -8.99999Z" fill="url(#paint0_linear_3_24745)"/>
<path d="M390 -8.99999C390 -20.0457 381.046 -29 370 -29L19.9998 -28.9999C8.95416 -28.9999 -0.000151022 -20.0456 -0.000149091 -8.99993L-9.56423e-06 789C-7.63294e-06 800.046 8.95431 809 20 809L370 809C381.046 809 390 800.046 390 789L390 -8.99999Z" fill="url(#paint1_linear_3_24745)" fill-opacity="0.2"/>
<path d="M390 -8.99999C390 -20.0457 381.046 -29 370 -29L19.9998 -28.9999C8.95416 -28.9999 -0.000151022 -20.0456 -0.000149091 -8.99993L-9.56423e-06 789C-7.63294e-06 800.046 8.95431 809 20 809L370 809C381.046 809 390 800.046 390 789L390 -8.99999Z" fill="url(#paint2_linear_3_24745)" fill-opacity="0.2"/>
<path d="M198.277 543.926C198.277 543.926 190.101 565.689 173.093 560.335C151.733 553.61 133.786 525.657 104.534 521.03C75.2828 516.403 60.8542 521.296 48.1561 541.297C35.458 561.298 31.9691 580.021 40.523 609.229C49.077 638.438 66.4625 643.981 82.3717 658.13C100.057 673.859 134.52 663.495 158.035 666.172C186.336 669.393 203.019 690.371 231.498 689.927C252.734 689.596 265.609 689.397 287.09 686.904C308.232 684.448 310.354 683.866 319.551 676.346C328.748 668.826 327.484 654.79 327.484 654.79C327.484 654.79 324.483 627.984 289.794 616.16C255.105 604.338 222.214 625.85 182.357 612.815C176.999 611.063 170.674 607.82 170.688 600.573C170.702 593.328 175.973 586.057 182.412 583.832C213.904 572.945 248.797 574.092 280.125 562.742C297.841 556.323 315.138 561.08 334.082 540.493C334.082 540.493 361.168 514.542 355.893 480.394C351.983 455.074 333.755 465.724 284.54 451.168C235.326 436.611 224.585 421.301 145.558 425.811C121.187 427.202 81.5285 430.446 61.5187 443.69C41.509 456.933 42.2982 471.409 45.1226 481.698C47.8743 491.723 59.949 501.689 69.9983 504.35C102.041 512.835 118.818 485.258 167.966 497.22C212.201 507.986 198.277 543.926 198.277 543.926Z" fill="white" fill-opacity="0.48"/>
<path d="M251.142 628.177C244.179 631.928 226.192 639.165 226.192 639.165C226.192 639.165 212.408 633.805 206.486 633.656C200.565 633.503 201.658 636.742 203.37 639.564C205.532 643.126 210.471 646.789 214.925 650.405C219.375 654.02 225.137 656.787 230.868 656.666C243.395 656.398 268.675 649.288 268.675 649.288C268.675 649.288 310.259 654.486 332.609 653.495C338.858 653.217 345.248 650.354 349.871 646.144C355.136 641.347 359.015 634.685 360.82 627.798C363.628 617.081 367.381 604.986 363.364 594.663C358.072 581.055 342.466 573.843 334.965 561.317C328.958 551.289 327.399 541.742 323.337 528.387C321.602 522.682 313.787 504.403 309.15 512.879C302.103 525.764 309.797 549.149 304.114 583.257" fill="#FFC6B2"/>
<path d="M251.142 628.177C244.179 631.928 226.192 639.165 226.192 639.165C226.192 639.165 212.408 633.805 206.486 633.656C200.565 633.503 201.658 636.742 203.37 639.564C205.532 643.126 210.471 646.789 214.925 650.405C219.375 654.02 225.137 656.787 230.868 656.666C243.395 656.398 268.675 649.288 268.675 649.288C268.675 649.288 310.259 654.486 332.609 653.495C338.858 653.217 345.248 650.354 349.871 646.144C355.136 641.347 359.015 634.685 360.82 627.798C363.628 617.081 367.381 604.986 363.364 594.663C358.072 581.055 342.466 573.843 334.965 561.317C328.958 551.289 327.399 541.742 323.337 528.387C321.602 522.682 313.787 504.403 309.15 512.879C302.103 525.764 309.797 549.149 304.114 583.257" stroke="#294064" stroke-miterlimit="10" stroke-linecap="round"/>
<path d="M312.688 596.254C309.597 589.3 305.441 582.727 303.413 575.392C301.758 569.407 302.333 563.02 301.792 556.834C294.177 555.475 286.684 552.916 278.951 552.758C272.994 552.637 266.931 553.864 261.37 556.01C256.588 557.858 252.04 560.752 248.54 564.502C245.359 567.911 242.945 572.282 241.939 576.835C239.691 587.004 239.337 597.526 238.94 607.934C238.751 612.883 241.884 617.479 245.201 620.715C249.549 624.959 253.616 629.842 259.043 632.571C263.652 634.888 269.159 636.046 274.267 635.335C283.317 634.076 291.944 630.466 300.325 626.822C303.742 625.336 306.637 622.75 309.271 620.111C312.564 616.813 315.614 613.183 317.961 609.155C321.061 603.831 323.777 598.193 325.488 592.277C326.878 587.483 328.226 582.272 327.151 577.399C325.778 571.17 321.892 565.727 318.451 560.357C317.63 559.074 316.114 558.178 314.623 557.854C309.302 556.696 303.776 555.188 298.389 555.994C291.785 556.982 285.901 560.722 279.656 563.086" fill="#FFC6B2"/>
<path d="M312.688 596.254C309.597 589.3 305.441 582.727 303.413 575.392C301.758 569.407 302.333 563.02 301.792 556.834C294.177 555.475 286.684 552.916 278.951 552.758C272.994 552.637 266.931 553.864 261.37 556.01C256.588 557.858 252.04 560.752 248.54 564.502C245.359 567.911 242.945 572.282 241.939 576.835C239.691 587.004 239.337 597.526 238.94 607.934C238.751 612.883 241.884 617.479 245.201 620.715C249.549 624.959 253.616 629.842 259.043 632.571C263.652 634.888 269.159 636.046 274.267 635.335C283.317 634.076 291.944 630.466 300.325 626.822C303.742 625.336 306.637 622.75 309.271 620.111C312.564 616.813 315.614 613.183 317.961 609.155C321.061 603.831 323.777 598.193 325.488 592.277C326.878 587.483 328.226 582.272 327.151 577.399C325.778 571.17 321.892 565.727 318.451 560.357C317.63 559.074 316.114 558.178 314.623 557.854C309.302 556.696 303.776 555.188 298.389 555.994C291.785 556.982 285.901 560.722 279.656 563.086" stroke="#FFC6B2" stroke-miterlimit="10" stroke-linecap="round"/>
<path d="M280.365 604.097C280.365 596.783 286.292 590.854 293.607 590.854C300.922 590.854 306.852 596.783 306.852 604.097C306.852 611.412 300.922 617.342 293.607 617.342C286.292 617.342 280.365 611.412 280.365 604.097Z" fill="#B3A9EC" stroke="#294064" stroke-miterlimit="10"/>
<path d="M285.947 603.82C285.947 599.678 289.306 596.318 293.448 596.318C297.592 596.318 300.951 599.678 300.951 603.82C300.951 607.964 297.592 611.321 293.448 611.321C289.306 611.321 285.947 607.964 285.947 603.82Z" fill="#FFC6B2" stroke="#294064" stroke-miterlimit="10"/>
<path d="M292.478 497.645C285.253 497.507 274.826 499.074 263.57 502.282C243.558 507.985 228.502 516.706 229.942 521.757C230.453 523.549 232.469 526.385 236.082 528.947C235.291 535.875 245.169 555.16 258.381 571.07C266.158 580.433 275.432 586.084 281.967 589.262L285.553 595.439L296.11 592.403L295.429 585.055C299.117 578.798 303.643 569.12 304.981 557.22C307.219 537.362 305.129 516.563 300.958 510.347C302.635 506.32 302.913 502.879 302.408 501.104C301.777 498.894 298.097 497.753 292.478 497.645Z" fill="#B3A9EC" stroke="#294064" stroke-miterlimit="10"/>
<path d="M297.352 593.942C297.423 593.26 297.176 593.06 296.903 592.557C296.304 591.463 295.538 591.523 294.139 591.723C291.761 592.062 289.257 593.338 287.106 594.333C286.546 594.593 285.693 594.132 285.255 594.597C283.629 596.328 287.74 596.319 288.426 595.405" fill="#B3A9EC"/>
<path d="M297.352 593.942C297.423 593.26 297.176 593.06 296.903 592.557C296.304 591.463 295.538 591.523 294.139 591.723C291.761 592.062 289.257 593.338 287.106 594.333C286.546 594.593 285.693 594.132 285.255 594.597C283.629 596.328 287.74 596.319 288.426 595.405" stroke="#B3A9EC" stroke-miterlimit="10" stroke-linecap="round"/>
<path d="M306.289 555.695C302.318 567.773 302.2 578.503 305.102 590.536" stroke="#294064" stroke-miterlimit="10" stroke-linecap="round"/>
<path d="M255.67 599.499C255.67 599.499 252.84 602.696 249.035 605.299" stroke="#294064" stroke-miterlimit="10" stroke-linecap="round"/>
<path d="M302.26 548.826C302.26 548.826 273.085 551.842 249.557 553.097C259.918 572.626 263.791 572.186 272.201 579.57C276.488 583.334 283.653 589.494 289.419 586.726C295.182 583.958 297.294 575.347 299.119 569.342C300.875 563.567 302.26 548.826 302.26 548.826Z" fill="#FF7CAB" fill-opacity="0.78" stroke="#294064" stroke-miterlimit="10" stroke-linecap="round"/>
<path d="M270.474 581.808L300.818 573.155C301.635 572.922 302.589 573.768 302.954 575.044C303.317 576.32 302.952 577.543 302.137 577.775L271.791 586.428C270.976 586.661 270.019 585.815 269.657 584.539C269.292 583.263 269.657 582.04 270.474 581.808Z" fill="#B3A9EC" stroke="#294064" stroke-miterlimit="10"/>
<path d="M263.115 575.395L303.135 563.984C304.208 563.677 305.375 564.463 305.738 565.739C306.103 567.015 305.525 568.298 304.452 568.604L264.432 580.015C263.359 580.322 262.192 579.536 261.83 578.26C261.465 576.984 262.042 575.701 263.115 575.395Z" fill="#B3A9EC" stroke="#294064" stroke-miterlimit="10"/>
<path d="M233.73 526.473L301.528 507.14C303.348 506.621 305.119 507.235 305.484 508.51C305.847 509.786 304.667 511.241 302.845 511.76L235.048 531.093C233.227 531.612 231.457 530.999 231.093 529.723C230.729 528.447 231.91 526.992 233.73 526.473Z" fill="#B3A9EC" stroke="#294064" stroke-miterlimit="10"/>
<path d="M268.202 554.928C262.738 553.404 268.13 564.822 260.136 562.691C255.793 561.534 257.337 564.87 252.62 562.129C249.128 560.099 242.793 548.225 242.793 548.225C242.793 548.225 234.492 544.853 231.567 541.77C219.673 529.233 213.035 525.699 213.035 525.699C213.035 525.699 204.811 520.647 204.147 524.506C203.484 528.365 210.005 539.355 210.005 539.355C210.005 539.355 219.721 557.563 226.633 561.934C238.26 569.287 243.473 568.561 256.487 573.02" fill="#FFC6B2"/>
<path d="M268.202 554.928C262.738 553.404 268.13 564.822 260.136 562.691C255.793 561.534 257.337 564.87 252.62 562.129C249.128 560.099 242.793 548.225 242.793 548.225C242.793 548.225 234.492 544.853 231.567 541.77C219.673 529.233 213.035 525.699 213.035 525.699C213.035 525.699 204.811 520.647 204.147 524.506C203.484 528.365 210.005 539.355 210.005 539.355C210.005 539.355 219.721 557.563 226.633 561.934C238.26 569.287 243.473 568.561 256.487 573.02" stroke="#294064" stroke-miterlimit="10" stroke-linecap="round"/>
<path d="M255.675 611.412C248.012 604.441 237.655 600.274 230.921 590.683C228.109 586.677 229.655 583.982 231.981 580.788C235.35 576.164 235.822 576.062 237.667 573.718C241.245 569.172 243.707 566.649 247.135 562.682C250.886 558.342 258.111 549.658 258.111 549.658C258.111 549.658 263.882 543.357 268.038 543.779C271.743 544.155 269.312 553.158 269.312 553.158C269.312 553.158 267.866 559.535 265.498 564.521C263.13 569.507 260.535 573.433 260.535 573.433L256.881 579.137" fill="#FFC6B2"/>
<path d="M255.675 611.412C248.012 604.441 237.655 600.274 230.921 590.683C228.109 586.677 229.655 583.982 231.981 580.788C235.35 576.164 235.822 576.062 237.667 573.718C241.245 569.172 243.707 566.649 247.135 562.682C250.886 558.342 258.111 549.658 258.111 549.658C258.111 549.658 263.882 543.357 268.038 543.779C271.743 544.155 269.312 553.158 269.312 553.158C269.312 553.158 267.866 559.535 265.498 564.521C263.13 569.507 260.535 573.433 260.535 573.433L256.881 579.137" stroke="#294064" stroke-miterlimit="10" stroke-linecap="round"/>
<path d="M257.871 631.585C247.953 625.594 239.545 621.039 230.062 614.381C228.432 613.238 225.546 610.428 225.008 608.512C223.93 604.672 225.985 600.15 228.586 597.516C231.727 594.337 235.284 591.532 239.077 589.169C244.882 585.555 253.021 581.429 259.101 577.129C262.373 574.816 264.459 572.658 267.202 573.09C272.315 573.897 267.463 583.901 265.698 586.899C261.851 593.435 255.042 600.17 255.042 600.17C255.042 600.17 261.825 603.645 266.228 606.46" fill="#FFC6B2"/>
<path d="M257.871 631.585C247.953 625.594 239.545 621.039 230.062 614.381C228.432 613.238 225.546 610.428 225.008 608.512C223.93 604.672 225.985 600.15 228.586 597.516C231.727 594.337 235.284 591.532 239.077 589.169C244.882 585.555 253.021 581.429 259.101 577.129C262.373 574.816 264.459 572.658 267.202 573.09C272.315 573.897 267.463 583.901 265.698 586.899C261.851 593.435 255.042 600.17 255.042 600.17C255.042 600.17 261.825 603.645 266.228 606.46" stroke="#294064" stroke-miterlimit="10" stroke-linecap="round"/>
<path d="M144.618 526.392C141.486 526.623 133.418 534.982 122.395 539.78C98.6337 550.123 61.6882 556.014 37.6259 573.5C28.0983 580.424 21.9355 595.187 21.1447 604.695C20.2836 615.045 23.2977 628.271 29.3129 636.27C37.7202 647.448 42.6864 649.807 53.9391 653.859C65.7579 658.117 74.1916 658.49 83.863 658.569C100.018 658.7 116.905 653.328 132.356 648.608C143.137 645.315 149.411 642.758 158.145 635.632C164.185 630.702 176.526 616.8 170.894 615.736C164.503 614.528 154.372 622.923 141.695 628.268C135.467 630.895 120.537 631.801 113.78 631.611C119.549 608.436 124.299 587.372 132.093 564.798C134.76 557.074 143.147 549.699 146.343 542.178C147.968 538.356 151.617 525.877 144.618 526.392Z" fill="#FFC6B2" stroke="#294064" stroke-miterlimit="10" stroke-linecap="round"/>
<path d="M160.476 527.27C163.136 528.502 164.292 531.658 163.06 534.318L152.947 556.132C151.714 558.792 148.558 559.949 145.898 558.716C143.239 557.483 142.082 554.327 143.315 551.667L153.428 529.853C154.661 527.193 157.816 526.036 160.476 527.27Z" fill="#FFD4E4" stroke="#294064" stroke-miterlimit="10"/>
<path d="M147.487 467.102C151.921 456.743 155.32 450.06 159.02 447.821C167.039 442.971 174.939 454.127 187.028 459.731C199.23 465.388 217.302 465.569 220.146 476.047C221.42 480.741 218.001 488.459 212.458 498.006C191.096 534.797 154.049 541.313 154.049 541.313C154.049 541.313 133.332 500.172 147.487 467.102Z" fill="#FFD4E4" stroke="#294064" stroke-miterlimit="10"/>
<path d="M160.789 443.449L222.294 471.961C223.75 472.636 224.288 474.571 223.494 476.283C222.701 477.995 220.877 478.835 219.42 478.16L157.915 449.648C156.458 448.973 155.921 447.038 156.715 445.326C157.508 443.614 159.332 442.774 160.789 443.449Z" fill="#FFD4E4" stroke="#294064" stroke-miterlimit="10"/>
<path d="M157.176 533.856C156.453 532.707 152.315 533.818 152.315 533.818L149.621 539.654C149.621 539.654 151.18 542.452 152.781 543.447C153.746 544.047 157.497 544.517 157.497 544.517L160.611 538.176C160.611 538.176 160.915 534.289 160.29 534.443" fill="#FFD4E4"/>
<path d="M157.176 533.856C156.453 532.707 152.315 533.818 152.315 533.818L149.621 539.654C149.621 539.654 151.18 542.452 152.781 543.447C153.746 544.047 157.497 544.517 157.497 544.517L160.611 538.176C160.611 538.176 160.915 534.289 160.29 534.443" stroke="#F6DFE0" stroke-miterlimit="10" stroke-linecap="round"/>
<path d="M147.272 496.572C147.272 496.572 155.288 514.807 171.779 509.692C184.76 505.665 192.368 503.735 202.095 505.954C195.751 513.677 189.586 518.546 181.612 524.573C176.392 528.519 164.601 534.712 158.194 533.374C153.45 532.383 150.74 521.702 148.567 510.879C146.395 500.055 147.272 496.572 147.272 496.572Z" fill="#FF7CAB" fill-opacity="0.482048" stroke="#294064" stroke-miterlimit="10" stroke-linecap="round"/>
<path d="M106.146 637.601C113.575 635.46 115.792 634.16 119.601 632.041C124.048 629.569 127.597 626.809 131.459 623.542C140.238 616.121 147.119 609.615 153.605 600.131C156.382 596.07 157.168 591.921 157.291 587.096C157.328 585.642 156.082 580.195 153.78 580.296C152.181 580.366 144.862 581.633 143.576 582.461C137.051 586.667 137.356 594.153 130.764 598.272C126.62 600.863 122.101 603.202 117.682 605.256C115.515 606.264 112.489 607.168 110.646 608.567" fill="#FFC6B2"/>
<path d="M106.146 637.601C113.575 635.46 115.792 634.16 119.601 632.041C124.048 629.569 127.597 626.809 131.459 623.542C140.238 616.121 147.119 609.615 153.605 600.131C156.382 596.07 157.168 591.921 157.291 587.096C157.328 585.642 156.082 580.195 153.78 580.296C152.181 580.366 144.862 581.633 143.576 582.461C137.051 586.667 137.356 594.153 130.764 598.272C126.62 600.863 122.101 603.202 117.682 605.256C115.515 606.264 112.489 607.168 110.646 608.567" stroke="#294064" stroke-miterlimit="10" stroke-linecap="round"/>
<path d="M97.7427 618.462C104.953 616.012 111.096 612.438 117.746 608.791C117.746 608.791 133.701 600.039 143.887 590.875C144.292 590.51 150.837 584.941 151.239 584.567C156.826 579.373 162.454 575.168 163.91 567.664C164.289 565.711 164.528 561.424 161.598 558.291C158.667 555.158 154.565 553.583 152.921 554.236C148.68 555.922 144.443 559.21 140.146 560.77C135.556 562.437 134.795 570.583 130.259 572.452C126.465 574.015 122.119 575.139 118.524 577.195C114.914 579.26 111.272 581.597 107.508 583.423" fill="#FFC6B2"/>
<path d="M97.7427 618.462C104.953 616.012 111.096 612.438 117.746 608.791C117.746 608.791 133.701 600.039 143.887 590.875C144.292 590.51 150.837 584.941 151.239 584.567C156.826 579.373 162.454 575.168 163.91 567.664C164.289 565.711 164.528 561.424 161.598 558.291C158.667 555.158 154.565 553.583 152.921 554.236C148.68 555.922 144.443 559.21 140.146 560.77C135.556 562.437 134.795 570.583 130.259 572.452C126.465 574.015 122.119 575.139 118.524 577.195C114.914 579.26 111.272 581.597 107.508 583.423" stroke="#294064" stroke-miterlimit="10" stroke-linecap="round"/>
<path d="M95.3922 595.158C95.3922 595.158 99.8741 592.67 102.134 591.462C106.253 589.261 110.377 587.079 114.474 584.839C127.925 577.484 137.056 571.526 151.133 564.535C153.207 563.505 160.693 559.951 162.741 558.996C166.995 557.012 169.759 556.013 174.971 553.308C179.406 551.006 185.06 548.309 187.602 544.409C190.623 539.777 184.978 535.996 177.241 537.028C168.937 538.135 162.404 540.681 155.191 542.126C148.35 543.497 145.165 544.547 138.459 546.321C127.336 549.264 116.327 552.324 105.31 555.637C94.3642 558.929 82.2318 561.686 72.1914 567.267" fill="#FFC6B2"/>
<path d="M95.3922 595.158C95.3922 595.158 99.8741 592.67 102.134 591.462C106.253 589.261 110.377 587.079 114.474 584.839C127.925 577.484 137.056 571.526 151.133 564.535C153.207 563.505 160.693 559.951 162.741 558.996C166.995 557.012 169.759 556.013 174.971 553.308C179.406 551.006 185.06 548.309 187.602 544.409C190.623 539.777 184.978 535.996 177.241 537.028C168.937 538.135 162.404 540.681 155.191 542.126C148.35 543.497 145.165 544.547 138.459 546.321C127.336 549.264 116.327 552.324 105.31 555.637C94.3642 558.929 82.2318 561.686 72.1914 567.267" stroke="#294064" stroke-miterlimit="10" stroke-linecap="round"/>
<path d="M99.4521 593.016L104.015 590.566C104.015 590.566 108.015 594.118 110.689 599.097C113.362 604.08 114.71 610.489 114.71 610.489L110.147 612.939C110.147 612.939 108.603 606.705 105.929 601.724C103.255 596.743 99.4521 593.016 99.4521 593.016Z" fill="#CFE8FF" stroke="#294064" stroke-miterlimit="10"/>
<path d="M118.608 596.905C118.71 595.951 117.89 594.99 116.772 595.194C116.772 595.194 114.044 595.598 112.363 594.785C111.556 594.395 110.749 593.606 110.172 592.874C109.601 592.15 109.299 591.583 109.299 591.583C108.586 590.246 106.578 590.605 106.376 592.107C106.376 592.107 105.916 594.829 104.623 596.177C104.003 596.824 103.003 597.345 102.128 597.669C101.263 597.988 100.633 598.099 100.633 598.099C99.1417 598.365 98.8651 600.385 100.23 601.042C100.23 601.042 102.673 602.32 103.556 603.966C103.98 604.756 104.168 605.865 104.205 606.798C104.241 607.719 104.15 608.354 104.15 608.354C103.941 609.855 105.778 610.744 106.825 609.647C106.825 609.647 108.798 607.719 110.636 607.388C111.518 607.228 112.631 607.393 113.529 607.646C114.416 607.895 114.994 608.176 114.994 608.176C116.357 608.838 117.769 607.369 117.05 606.035C117.05 606.035 115.824 603.565 116.077 601.714C116.199 600.827 116.698 599.817 117.216 599.041C117.728 598.275 118.176 597.814 118.176 597.814C118.439 597.541 118.573 597.222 118.608 596.905Z" fill="#CFE8FF" stroke="#294064" stroke-miterlimit="10"/>
<path d="M100.906 599.632C100.906 599.632 103.996 599.084 105.75 597.254C107.504 595.425 107.923 592.315 107.923 592.315C107.923 592.315 109.4 595.085 111.682 596.188C113.964 597.291 117.052 596.728 117.052 596.728C117.052 596.728 114.874 598.989 114.53 601.5C114.186 604.011 115.676 606.773 115.676 606.773C115.676 606.773 112.853 605.4 110.359 605.85C107.864 606.299 105.697 608.568 105.697 608.568C105.697 608.568 106.13 605.461 104.932 603.226C103.734 600.993 100.906 599.632 100.906 599.632Z" fill="#FF7CAB" stroke="#294064" stroke-miterlimit="10"/>
<path d="M129.857 535.704C129.69 537.682 132.204 536.296 133.072 535.791C136.513 533.784 140.012 531.565 143.026 528.975C143.524 528.547 146.589 526.271 146.419 525.509C146.087 524.026 141.385 526.639 140.747 527.039C137.61 529.002 136.866 529.528 133.917 531.754C133.171 532.316 129.979 534.264 129.857 535.704Z" fill="#74B55D" stroke="#294064" stroke-miterlimit="10" stroke-linecap="round"/>
<path d="M189.031 538.797C185.263 535.754 179.035 538.242 175.602 540.508C172.885 542.301 171.367 545.845 174.523 548.026C177.575 550.136 186.244 546.069 188.202 543.985C189.484 542.621 190.781 540.211 189.031 538.797Z" fill="#74B55D" stroke="#294064" stroke-miterlimit="10" stroke-linecap="round"/>
<path d="M166.997 625.91C158.309 626.106 169.994 615.802 172.737 615.188C176.03 614.451 172.864 619.809 172.734 620.043C171.558 622.148 169.555 625.852 166.997 625.91Z" fill="#74B55D" stroke="#294064" stroke-miterlimit="10" stroke-linecap="round"/>
<path d="M257.067 552.68C256.941 553.131 257.113 553.208 257.48 553.487C258.152 553.999 259.184 553.362 259.711 552.979C262.589 550.881 264.814 548.304 267.064 545.592C267.369 545.228 268.997 543.366 268.301 542.787C267.603 542.209 265.295 543.529 264.689 543.957C262.144 545.754 257.901 549.653 257.067 552.68Z" fill="#FF7CAB" stroke="#294064" stroke-miterlimit="10" stroke-linecap="round"/>
<path d="M268.265 572.182C268.101 572.091 266.576 572.391 266.197 572.535C265.211 572.912 264.392 573.299 263.488 573.82C261.093 575.205 254.979 577.879 258.019 581.213C258.831 582.104 260.919 581.328 261.707 580.909C263.572 579.918 272.226 574.393 268.265 572.182Z" fill="#FF7CAB" stroke="#294064" stroke-miterlimit="10" stroke-linecap="round"/>
<path d="M108.248 596.238C108.151 596.528 107.886 597.029 107.402 597.61M104.985 599.621C105.441 599.352 105.843 599.07 106.194 598.788" stroke="white" stroke-linecap="round"/>
<path d="M56.6553 442.908C56.6553 430.763 66.5547 420.918 78.7663 420.918C90.9782 420.918 100.878 430.763 100.878 442.908C100.878 455.053 90.9782 464.899 78.7663 464.899C66.5547 464.899 56.6553 455.053 56.6553 442.908Z" fill="white" fill-opacity="0.29"/>
<path d="M61.434 450.157C60.3583 447.715 59.9885 445.186 60.0442 442.787M60.2408 440.37C60.4437 438.899 60.7833 437.512 61.1846 436.269" stroke="white" stroke-linecap="round"/>
<path d="M312.433 465.718C312.433 458.683 318.167 452.98 325.24 452.98C332.314 452.98 338.048 458.683 338.048 465.718C338.048 472.752 332.314 478.455 325.24 478.455C318.167 478.455 312.433 472.752 312.433 465.718Z" fill="white" fill-opacity="0.29"/>
<path d="M315.332 470.551C314.587 468.894 314.331 467.178 314.369 465.55M314.506 463.91C314.646 462.912 314.882 461.971 315.16 461.127" stroke="white" stroke-linecap="round"/>
<path d="M228.338 685.588C228.338 674.97 236.994 666.362 247.67 666.362C258.347 666.362 267.003 674.97 267.003 685.588C267.003 696.207 258.347 704.815 247.67 704.815C236.994 704.815 228.338 696.207 228.338 685.588Z" fill="white" fill-opacity="0.4"/>
<path d="M232.715 692.886C231.59 690.384 231.203 687.794 231.262 685.336M231.467 682.861C231.68 681.354 232.035 679.934 232.454 678.66" stroke="white" stroke-linecap="round"/>
<path d="M233.762 422.578L233.824 422.854L234.091 422.943L243.68 426.157L234.091 429.371L233.824 429.461L233.762 429.736L231.238 441.024L228.713 429.736L228.651 429.461L228.384 429.371L218.795 426.157L228.384 422.943L228.651 422.854L228.713 422.578L231.238 411.291L233.762 422.578Z" fill="#FFD771" stroke="#2E4166"/>
<path d="M269.017 446.495L269.078 446.77L269.346 446.86L287.657 452.983L269.346 459.106L269.078 459.195L269.017 459.471L264.102 481.387L259.188 459.471L259.126 459.195L258.858 459.106L240.547 452.983L258.858 446.86L259.126 446.77L259.188 446.495L264.102 424.578L269.017 446.495Z" fill="#FFD771" stroke="#2E4166"/>
<path d="M159.679 667.452L159.739 667.745L160.025 667.831L167.16 669.984L160.025 672.137L159.739 672.223L159.679 672.517L158.016 680.75L156.354 672.517L156.294 672.223L156.008 672.137L148.873 669.984L156.008 667.831L156.294 667.745L156.354 667.452L158.016 659.219L159.679 667.452Z" fill="#FFD771" stroke="#2E4166"/>
<path d="M140.429 685.887L140.488 686.18L140.775 686.266L154.109 690.285L140.775 694.304L140.488 694.39L140.429 694.683L137.235 710.478L134.041 694.683L133.982 694.39L133.695 694.304L120.36 690.285L133.695 686.266L133.982 686.18L134.041 685.887L137.235 670.092L140.429 685.887Z" fill="#FFD771" stroke="#2E4166"/>
<path d="M246.436 483.259L246.495 483.553L246.781 483.639L252.469 485.362L246.781 487.084L246.495 487.171L246.436 487.464L245.132 493.943L243.828 487.464L243.769 487.171L243.483 487.084L237.795 485.362L243.483 483.639L243.769 483.553L243.828 483.259L245.132 476.78L246.436 483.259Z" fill="#FFD771" stroke="#2E4166"/>
<path d="M11.6875 774.149C10.8849 774.149 10.2013 773.931 9.63672 773.494C9.07209 773.054 8.64063 772.416 8.34233 771.582C8.04403 770.744 7.89489 769.732 7.89489 768.545C7.89489 767.366 8.04403 766.36 8.34233 765.525C8.64418 764.687 9.07741 764.048 9.64205 763.608C10.2102 763.164 10.892 762.942 11.6875 762.942C12.483 762.942 13.163 763.164 13.7276 763.608C14.2958 764.048 14.729 764.687 15.0273 765.525C15.3292 766.36 15.4801 767.366 15.4801 768.545C15.4801 769.732 15.331 770.744 15.0327 771.582C14.7344 772.416 14.3029 773.054 13.7383 773.494C13.1737 773.931 12.4901 774.149 11.6875 774.149ZM11.6875 772.977C12.483 772.977 13.1009 772.594 13.5412 771.827C13.9815 771.06 14.2017 769.966 14.2017 768.545C14.2017 767.601 14.1005 766.797 13.8981 766.132C13.6992 765.468 13.4116 764.962 13.0352 764.614C12.6623 764.266 12.2131 764.092 11.6875 764.092C10.8991 764.092 10.283 764.481 9.83913 765.259C9.39524 766.033 9.1733 767.129 9.1733 768.545C9.1733 769.49 9.27273 770.293 9.47159 770.953C9.67045 771.614 9.95632 772.116 10.3292 772.461C10.7056 772.805 11.1584 772.977 11.6875 772.977ZM22.2131 767.96V769.131H17.4403V767.96H22.2131ZM27.9619 774.149C27.1594 774.149 26.4758 773.931 25.9111 773.494C25.3465 773.054 24.915 772.416 24.6167 771.582C24.3184 770.744 24.1693 769.732 24.1693 768.545C24.1693 767.366 24.3184 766.36 24.6167 765.525C24.9186 764.687 25.3518 764.048 25.9165 763.608C26.4846 763.164 27.1665 762.942 27.9619 762.942C28.7574 762.942 29.4374 763.164 30.002 763.608C30.5702 764.048 31.0035 764.687 31.3018 765.525C31.6036 766.36 31.7545 767.366 31.7545 768.545C31.7545 769.732 31.6054 770.744 31.3071 771.582C31.0088 772.416 30.5773 773.054 30.0127 773.494C29.4481 773.931 28.7645 774.149 27.9619 774.149ZM27.9619 772.977C28.7574 772.977 29.3753 772.594 29.8156 771.827C30.2559 771.06 30.4761 769.966 30.4761 768.545C30.4761 767.601 30.3749 766.797 30.1725 766.132C29.9736 765.468 29.686 764.962 29.3096 764.614C28.9367 764.266 28.4875 764.092 27.9619 764.092C27.1736 764.092 26.5574 764.481 26.1135 765.259C25.6697 766.033 25.4477 767.129 25.4477 768.545C25.4477 769.49 25.5471 770.293 25.746 770.953C25.9449 771.614 26.2307 772.116 26.6036 772.461C26.98 772.805 27.4328 772.977 27.9619 772.977ZM33.7787 774V773.041L37.3795 769.099C37.8021 768.638 38.1501 768.237 38.4236 767.896C38.697 767.551 38.8994 767.228 39.0308 766.926C39.1657 766.621 39.2332 766.301 39.2332 765.967C39.2332 765.584 39.1409 765.252 38.9562 764.971C38.7751 764.691 38.5265 764.474 38.2105 764.321C37.8944 764.169 37.5393 764.092 37.1452 764.092C36.7261 764.092 36.3604 764.179 36.0479 764.353C35.7389 764.524 35.4992 764.763 35.3287 765.072C35.1618 765.381 35.0784 765.744 35.0784 766.159H33.8213C33.8213 765.52 33.9687 764.959 34.2634 764.476C34.5581 763.993 34.9594 763.616 35.4672 763.347C35.9786 763.077 36.5521 762.942 37.1878 762.942C37.827 762.942 38.3934 763.077 38.887 763.347C39.3806 763.616 39.7677 763.98 40.0482 764.439C40.3287 764.897 40.469 765.406 40.469 765.967C40.469 766.369 40.3962 766.761 40.2506 767.145C40.1086 767.525 39.86 767.949 39.5049 768.418C39.1533 768.883 38.665 769.451 38.04 770.122L35.5898 772.743V772.828H40.6608V774H33.7787ZM47.5695 767.96V769.131H42.7968V767.96H47.5695ZM53.5953 763.091V774H52.2743V764.476H52.2104L49.5471 766.244V764.902L52.2743 763.091H53.5953Z" fill="black"/>
</g>
<defs>
<linearGradient id="paint0_linear_3_24745" x1="295" y1="-100.5" x2="636.184" y2="591.468" gradientUnits="userSpaceOnUse">
<stop stop-color="#494B94"/>
<stop offset="0.901042" stop-color="#7072DA"/>
</linearGradient>
<linearGradient id="paint1_linear_3_24745" x1="390" y1="390" x2="195" y2="849.5" gradientUnits="userSpaceOnUse">
<stop stop-color="#D759DA"/>
<stop offset="1" stop-color="#8E35FF"/>
</linearGradient>
<linearGradient id="paint2_linear_3_24745" x1="380.5" y1="809" x2="-53" y2="565" gradientUnits="userSpaceOnUse">
<stop stop-color="#FF005B" stop-opacity="0.39"/>
<stop offset="1" stop-color="#FF7CAB" stop-opacity="0.4"/>
</linearGradient>
<clipPath id="clip0_3_24745">
<path d="M0 0H390V789C390 800.046 381.046 809 370 809H20C8.9543 809 0 800.046 0 789V0Z" fill="white"/>
</clipPath>
</defs>
</svg>
