<svg width="390" height="809" viewBox="0 0 390 809" fill="none" xmlns="http://www.w3.org/2000/svg">
<g clip-path="url(#clip0_3_25561)">
<path d="M-3.49691e-06 -5.99998C-1.56562e-06 -17.0457 8.9543 -26 20 -26L373 -25.9999C384.046 -25.9999 393 -17.0456 393 -5.99993L393 793C393 804.046 384.046 813 373 813L19.9999 813C8.95416 813 -0.00014513 804.046 -0.000143198 793L-3.49691e-06 -5.99998Z" fill="url(#paint0_linear_3_25561)"/>
<mask id="mask0_3_25561" style="mask-type:luminance" maskUnits="userSpaceOnUse" x="-6" y="349" width="380" height="380">
<path d="M374 349H-6V729H374V349Z" fill="white"/>
</mask>
<g mask="url(#mask0_3_25561)">
<path d="M32.4769 669.997C32.4769 649.952 105.07 633.702 194.617 633.702C284.163 633.702 356.757 649.952 356.757 669.997C356.757 690.043 284.163 706.293 194.617 706.293C105.07 706.293 32.4769 690.043 32.4769 669.997Z" fill="#B3A9EC" stroke="#B3A9EC" stroke-width="0.690711" stroke-miterlimit="10" stroke-linecap="round"/>
<path d="M75.7778 661.346C75.7778 646.435 129.777 634.347 196.389 634.347C263 634.347 317 646.435 317 661.346C317 676.258 263 688.345 196.389 688.345C129.777 688.345 75.7778 676.258 75.7778 661.346Z" fill="#8F68A4"/>
<path d="M65.9111 535.148C65.9111 482.364 108.701 439.574 161.485 439.574C214.27 439.574 257.059 482.364 257.059 535.148C257.059 587.932 214.27 630.721 161.485 630.721C108.701 630.721 65.9111 587.932 65.9111 535.148Z" fill="white" fill-opacity="0.5"/>
<path d="M248.874 454.497C248.874 435.979 263.885 420.966 282.405 420.966C300.924 420.966 315.935 435.979 315.935 454.497C315.935 473.016 300.924 488.028 282.405 488.028C263.885 488.028 248.874 473.016 248.874 454.497Z" fill="#FFCA92"/>
<path d="M45.6864 593.366C45.6864 586.234 51.4695 580.45 58.6034 580.45C65.7373 580.45 71.5205 586.234 71.5205 593.366C71.5205 600.5 65.7373 606.284 58.6034 606.284C51.4695 606.284 45.6864 600.5 45.6864 593.366Z" fill="white" fill-opacity="0.8"/>
<path d="M266.344 630.587C278.994 625.781 287.27 620.029 300.271 617.122C313.272 614.212 316.204 616.591 319.054 617.932C322.307 619.461 326.661 626.746 323.618 633.385C320.575 640.022 314.445 642.002 306.346 645.221C294.024 650.123 279.902 647.295 266.68 648.331" fill="#FAA42B"/>
<path d="M247.737 621.608C259.244 608.162 263.907 595.546 276.756 583.378C281.072 579.292 285.728 574.518 293.745 572.744C301.764 570.97 306.266 572.83 308.83 576.283C313.37 582.395 310.782 589.252 309.257 592.414C304.568 602.129 299.091 606.239 290.956 613.325C281.176 621.844 268.368 626.076 257.074 632.45" fill="#FAA42B"/>
<path d="M237.766 623.566C236.66 622.607 237.103 620.703 237.007 619.245C236.87 617.158 236.84 615.065 236.816 612.972C236.747 607.056 238.348 599.538 242.44 595.026C243.529 593.823 244.624 592.508 246.084 591.801C253.995 587.969 255.942 598.052 255.472 603.709C255.22 606.761 255.263 606.771 254.543 609.76C253.756 613.02 252.613 616.278 250.882 619.171C248.008 623.969 244.876 628.522 239.528 630.734" fill="#FAA42B"/>
<path d="M159.552 589.55C158.539 586.491 154.588 586.639 152.178 586.448C148.758 586.175 143.367 589.677 141.757 592.549C134.923 604.743 136.414 624.613 142.88 636.652" fill="#FAA42B"/>
<path d="M159.552 589.55C158.539 586.491 154.588 586.639 152.178 586.448C148.758 586.175 143.367 589.677 141.757 592.549C134.923 604.743 136.414 624.613 142.88 636.652" stroke="#FFCA00" stroke-width="0.46518" stroke-miterlimit="10" stroke-linecap="round"/>
<path d="M137.382 623.391C137.382 623.391 136.03 607.003 130.671 597.45C128.542 593.655 123.542 586.283 116.211 585.651C113.048 585.378 107.473 586.638 103.727 591.62C98.4199 598.678 101.842 605.491 104.313 610.805C108.949 620.775 119.122 624.432 127.208 631.883C130.403 634.826 135.037 635.65 138.951 637.535" fill="#FAA42B"/>
<path d="M119.827 628.366C118.723 627.998 117.868 627.108 116.858 626.529C115.195 625.573 113.492 624.686 111.769 623.842C108.995 622.482 105.726 621.71 102.721 621.155C97.8436 620.257 92.6156 619.845 88.3017 622.569C80.7403 627.345 78.7494 638.907 87.0294 644.341C93.941 648.876 101.256 649.006 109.224 649.006C114.98 649.006 120.345 649.371 125.906 647.876" fill="#FAA42B"/>
<path d="M119.827 628.366C118.723 627.998 117.868 627.108 116.858 626.529C115.195 625.573 113.492 624.686 111.769 623.842C108.995 622.482 105.726 621.71 102.721 621.155C97.8436 620.257 92.6156 619.845 88.3017 622.569C80.7403 627.345 78.7494 638.907 87.0294 644.341C93.941 648.876 101.256 649.006 109.224 649.006C114.98 649.006 120.345 649.371 125.906 647.876" stroke="#FFCA00" stroke-width="0.46518" stroke-miterlimit="10" stroke-linecap="round"/>
<path d="M289.8 640.46C289.8 640.46 306.099 641.288 316 636.226C325.899 631.165 329.352 625.637 329.398 620.215C329.457 613.016 327.136 609.389 320.187 607.728C313.3 606.084 304.271 609.895 302.846 610.344C292.921 613.476 289.003 620.29 288.336 622.012C286.65 626.376 288.602 627.316 291.53 627.246C291.53 627.246 295.979 627.296 302.288 621.132C309.309 614.276 320.588 602.95 313.074 593.296C309.19 588.309 305.999 587.233 298.341 588.147C290.385 589.097 282.712 593.274 276.649 598.516C271.609 602.874 262.558 615.091 266.46 615.712C271.771 616.558 283.672 598.453 287.869 587.387C291.674 577.356 297.846 563.282 292.975 555.27C288.106 547.258 274.606 552.11 268.392 555.335C262.059 558.621 260.018 566.887 255.832 572.665C259.714 567.053 264.92 566.937 267.479 560.61C269.297 556.12 272.112 544.919 271.361 540.135C270.576 535.14 268.513 530.436 265.028 526.773C261.712 523.287 254.456 520.825 249.7 521.566C243.193 522.579 236.762 526.592 232.863 531.9C226.744 540.232 224.989 551.014 221.05 560.571" fill="#FFC6B2" fill-opacity="0.01"/>
<path d="M289.8 640.46C289.8 640.46 306.099 641.288 316 636.226C325.899 631.165 329.352 625.637 329.398 620.215C329.457 613.016 327.136 609.389 320.187 607.728C313.3 606.084 304.271 609.895 302.846 610.344C292.921 613.476 289.003 620.29 288.336 622.012C286.65 626.376 288.602 627.316 291.53 627.246C291.53 627.246 295.979 627.296 302.288 621.132C309.309 614.276 320.588 602.95 313.074 593.296C309.19 588.309 305.999 587.233 298.341 588.147C290.385 589.097 282.712 593.274 276.649 598.516C271.609 602.874 262.558 615.091 266.46 615.712C271.771 616.558 283.672 598.453 287.869 587.387C291.674 577.356 297.846 563.282 292.975 555.27C288.106 547.258 274.606 552.11 268.392 555.335C262.059 558.621 260.018 566.887 255.832 572.665C259.714 567.053 264.92 566.937 267.479 560.61C269.297 556.12 272.112 544.919 271.361 540.135C270.576 535.14 268.513 530.436 265.028 526.773C261.712 523.287 254.456 520.825 249.7 521.566C243.193 522.579 236.762 526.592 232.863 531.9C226.744 540.232 224.989 551.014 221.05 560.571" stroke="#2E4166" stroke-width="0.3" stroke-miterlimit="10" stroke-linecap="round"/>
<path d="M140.429 551.84C140.429 551.84 133.991 535.65 116.061 534.247C103.719 533.281 94.1474 541.739 90.9135 551.345C86.8326 563.469 89.362 580.522 95.493 591.75C100.216 600.396 117.527 611.501 121.236 606.866C124.267 603.077 111.86 597.739 105.91 595.481C101.129 593.668 95.5375 594.015 90.5702 595.232C86.2457 596.29 81.6979 598.446 79.0851 602.051C76.0686 606.213 74.0952 611.805 74.8757 616.886C76.7572 629.13 80.2304 631.919 86.1796 636.617C86.1796 636.617 94.7502 641.036 95.593 641.498C101.493 644.729 102.062 641.502 108.602 643.515" fill="#FFC6B2" fill-opacity="0.01"/>
<path d="M140.429 551.84C140.429 551.84 133.991 535.65 116.061 534.247C103.719 533.281 94.1474 541.739 90.9135 551.345C86.8326 563.469 89.362 580.522 95.493 591.75C100.216 600.396 117.527 611.501 121.236 606.866C124.267 603.077 111.86 597.739 105.91 595.481C101.129 593.668 95.5375 594.015 90.5702 595.232C86.2457 596.29 81.6979 598.446 79.0851 602.051C76.0686 606.213 74.0952 611.805 74.8757 616.886C76.7572 629.13 80.2304 631.919 86.1796 636.617C86.1796 636.617 94.7502 641.036 95.593 641.498C101.493 644.729 102.062 641.502 108.602 643.515" stroke="#2E4166" stroke-width="0.3" stroke-miterlimit="10" stroke-linecap="round"/>
<path d="M322.921 542.001C322.921 536.915 327.044 532.792 332.131 532.792C337.217 532.792 341.34 536.915 341.34 542.001C341.34 547.089 337.217 551.211 332.131 551.211C327.044 551.211 322.921 547.089 322.921 542.001Z" fill="white" fill-opacity="0.5"/>
<path d="M62.3899 453.913C62.3899 445.311 69.3635 438.337 77.966 438.337C86.5685 438.337 93.5423 445.311 93.5423 453.913C93.5423 462.516 86.5685 469.489 77.966 469.489C69.3635 469.489 62.3899 462.516 62.3899 453.913Z" fill="white" fill-opacity="0.5"/>
<path d="M298.673 604.588C298.673 595.212 306.275 587.61 315.651 587.61C325.028 587.61 332.628 595.212 332.628 604.588C332.628 613.965 325.028 621.565 315.651 621.565C306.275 621.565 298.673 613.965 298.673 604.588Z" fill="#FFC6B2" fill-opacity="0.01" stroke="white" stroke-width="0.966773" stroke-miterlimit="10" stroke-linecap="round"/>
<path d="M164.461 590.492L167.671 614.665L223.818 615.379L227.154 582.955L164.461 590.492Z" fill="#FFC6B2" stroke="#2E4166" stroke-width="0.580064" stroke-miterlimit="10" stroke-linecap="round"/>
<path d="M167.395 611.237C162.842 610.834 167.714 617.074 162.541 617.468C138.2 619.321 120.216 619.191 100.049 626.682C90.8206 630.111 83.7722 637.752 81.7253 644.734C79.6783 651.718 82.9269 660.288 94.0187 667.736C105.11 675.188 125.385 677.687 136.807 677.05C165.399 675.46 157.976 669.653 181.519 669.564C198.626 669.497 216.04 674.88 233.116 676.657C248.414 678.249 263.377 676.345 278.636 674.915C288.672 673.974 301.59 668.235 306.887 659.665C310.342 654.072 308.368 642.526 304.425 637.269C299.458 630.647 281.241 622.234 261.226 620.399C239.261 618.384 242.965 618.455 226.321 618.202C224.219 618.171 228.184 610.823 224.749 611.64C217.808 613.283 209.104 613.441 194.888 613.187C180.673 612.933 175.798 611.975 167.395 611.237Z" fill="#369ADC" stroke="#2E4166" stroke-width="0.580064" stroke-miterlimit="10" stroke-linecap="round"/>
<path d="M203.714 641.697C198.478 643.407 195.498 648.816 190.327 649.662C186.128 650.349 178.252 648.69 174.317 647.452C168.835 645.73 160.822 643.745 160.822 643.745L158.696 679.45C158.696 679.45 192.442 669.616 208.431 669.196C213.847 669.055 221.427 666.512 226.728 667.317C227.407 667.423 228.071 667.545 228.73 667.666C228.687 667.528 228.63 667.4 228.592 667.257C228.307 666.111 228.242 664.845 228.342 663.456C228.489 661.459 228.982 659.29 229.58 657.483C229.587 657.459 229.73 656.945 229.76 656.837C229.81 656.65 229.863 656.557 229.912 656.407C229.927 656.269 229.966 656.149 229.99 656.017C228.834 655.408 224.794 654.42 223.711 653.759C216.749 649.506 214.728 645.198 210.008 642.318C208.624 641.472 206.384 640.823 203.714 641.697Z" fill="#FFC6B2" stroke="#2E4166" stroke-width="0.580064" stroke-miterlimit="10" stroke-linecap="round"/>
<path d="M224.128 617.403C215.914 619.402 202.829 619.047 202.829 619.047" stroke="#2E4166" stroke-width="0.580064" stroke-miterlimit="10" stroke-linecap="round"/>
<path d="M168.27 616.938C168.27 616.938 178.068 618.508 181.849 618.185" stroke="#2E4166" stroke-width="0.580064" stroke-miterlimit="10" stroke-linecap="round"/>
<path d="M239.929 645.547L232.455 646.633" stroke="#2E4166" stroke-width="0.580064" stroke-miterlimit="10" stroke-linecap="round"/>
<path d="M239.979 649.333L232.598 650.14" stroke="#2E4166" stroke-width="0.580064" stroke-miterlimit="10" stroke-linecap="round"/>
<path d="M239.851 653.089L232.478 653.472" stroke="#2E4166" stroke-width="0.580064" stroke-miterlimit="10" stroke-linecap="round"/>
<path d="M239.834 656.935L232.568 656.95" stroke="#2E4166" stroke-width="0.580064" stroke-miterlimit="10" stroke-linecap="round"/>
<path d="M239.846 660.738L232.39 660.676" stroke="#2E4166" stroke-width="0.580064" stroke-miterlimit="10" stroke-linecap="round"/>
<path d="M239.903 664.113L232.487 664.042" stroke="#2E4166" stroke-width="0.580064" stroke-miterlimit="10" stroke-linecap="round"/>
<path d="M239.944 667.564L232.455 667.386" stroke="#2E4166" stroke-width="0.580064" stroke-miterlimit="10" stroke-linecap="round"/>
<path d="M240.058 671.12L232.402 670.947" stroke="#2E4166" stroke-width="0.580064" stroke-miterlimit="10" stroke-linecap="round"/>
<path d="M240.159 674.942L232.257 674.5" stroke="#2E4166" stroke-width="0.580064" stroke-miterlimit="10" stroke-linecap="round"/>
<path d="M153.873 645.083L160.596 646.192" stroke="#2E4166" stroke-width="0.580064" stroke-miterlimit="10" stroke-linecap="round"/>
<path d="M153.725 648.396L160.681 649.038" stroke="#2E4166" stroke-width="0.580064" stroke-miterlimit="10" stroke-linecap="round"/>
<path d="M153.439 652.055L160.844 652.346" stroke="#2E4166" stroke-width="0.580064" stroke-miterlimit="10" stroke-linecap="round"/>
<path d="M153.282 655.263L160.814 655.441" stroke="#2E4166" stroke-width="0.580064" stroke-miterlimit="10" stroke-linecap="round"/>
<path d="M153.116 658.734L160.843 658.792" stroke="#2E4166" stroke-width="0.580064" stroke-miterlimit="10" stroke-linecap="round"/>
<path d="M152.733 662.859L156.802 662.828" stroke="#2E4166" stroke-width="0.580064" stroke-miterlimit="10" stroke-linecap="round"/>
<path d="M191.806 461.098C177.261 461.098 164.836 470.481 162.627 482.19C158.337 480.469 155.343 482.615 154.914 485.628C154.227 492.859 160.456 492.946 163.656 492.085C166.548 501.026 175.301 507.937 186.23 509.717C186.23 512.803 185.369 516.458 184.941 517.905C182.796 520.488 184.512 526.326 191.375 526.952C196.094 527.383 202.104 520.057 199.959 517.905C198.242 516.183 198.098 511.623 198.241 509.559C208.768 507.565 217.138 500.79 219.955 492.085C221.582 492.802 224.828 493.818 227.407 490.366C228.694 488.645 229.056 485.495 228.268 483.909C226.549 480.465 222.18 481.186 220.859 482.19C219.558 469.778 207.05 461.098 191.806 461.098Z" fill="#FEC5B1" stroke="#2E4166" stroke-width="0.580064" stroke-miterlimit="10" stroke-linecap="round"/>
<path d="M191.806 461.098C177.402 461.098 165.077 470.299 162.695 481.85C162.672 481.963 162.649 482.077 162.627 482.19C162.519 482.147 162.417 482.104 162.31 482.065C158.193 480.576 155.332 482.69 154.914 485.628C154.227 492.859 160.456 492.946 163.656 492.085C166.548 501.026 175.301 507.937 186.23 509.717C186.23 512.803 185.369 516.458 184.941 517.905C182.796 520.488 184.512 526.326 191.375 526.952C196.094 527.383 202.104 520.057 199.959 517.905C198.242 516.183 198.098 511.623 198.241 509.559C208.639 507.589 216.936 500.963 219.853 492.413C219.89 492.306 219.92 492.193 219.955 492.085C220.053 492.128 220.161 492.177 220.271 492.221C221.976 492.913 224.983 493.608 227.407 490.366C228.694 488.645 229.056 485.495 228.268 483.909C226.67 480.706 222.785 481.096 221.187 481.975C221.067 482.041 220.951 482.12 220.859 482.19C220.846 482.061 220.84 481.932 220.825 481.805C219.308 469.598 206.893 461.098 191.806 461.098ZM191.806 461.437C206.948 461.437 219.254 470.048 220.532 482.224L220.588 482.823L221.074 482.45C221.653 482.009 222.981 481.594 224.388 481.715C225.774 481.832 227.169 482.466 227.961 484.056C228.314 484.765 228.427 485.875 228.279 487.041C228.13 488.203 227.735 489.362 227.136 490.163C225.904 491.81 224.54 492.366 223.302 492.447C222.046 492.531 220.887 492.12 220.091 491.769L219.751 491.622L219.638 491.984C216.868 500.549 208.601 507.256 198.172 509.231L197.912 509.276L197.901 509.536C197.829 510.587 197.823 512.271 198.059 513.913C198.179 514.735 198.363 515.558 198.625 516.288C198.886 517.015 199.233 517.674 199.71 518.154C200.107 518.55 200.179 519.235 199.858 520.178C199.541 521.105 198.873 522.175 197.981 523.175C197.09 524.173 196.003 525.082 194.847 525.72C193.689 526.359 192.498 526.712 191.409 526.613C188.076 526.309 186.033 524.753 185.076 523.005C184.107 521.239 184.237 519.291 185.2 518.131L185.247 518.074L185.269 518.007C185.701 516.546 186.57 512.849 186.57 509.717V509.423L186.286 509.378C175.459 507.614 166.819 500.781 163.973 491.984L163.871 491.678L163.566 491.757C162.002 492.177 159.728 492.35 157.956 491.577C157.08 491.193 156.338 490.588 155.841 489.654C155.344 488.717 155.076 487.429 155.242 485.673C155.444 484.269 156.247 483.071 157.481 482.427C158.716 481.783 160.43 481.663 162.503 482.495L162.887 482.653L162.966 482.246C165.138 470.73 177.388 461.437 191.806 461.437Z" fill="#2E4166"/>
<path d="M223.811 483.705C223.055 483.806 222.245 484.187 221.651 484.565C218.192 488.45 225.538 491.906 225.97 486.725C226.187 484.134 225.07 483.536 223.811 483.705Z" fill="#EDB09B" stroke="#FFC6B2" stroke-width="0.386709" stroke-miterlimit="10" stroke-linecap="round"/>
<path d="M160.501 483.703C159.59 483.568 158.442 484.022 157.662 484.483C154.26 488.04 161.489 491.207 161.914 486.462C162.085 484.565 161.412 483.838 160.501 483.703Z" fill="#EDB09B" stroke="#EDB09B" stroke-width="0.386709" stroke-miterlimit="10" stroke-linecap="round"/>
<path d="M224.297 484.212C223.957 484.17 223.614 484.188 223.28 484.234C222.4 484.355 221.517 484.692 221.007 484.947C220.831 485.034 220.76 485.248 220.847 485.422C220.935 485.596 221.148 485.668 221.322 485.58C221.76 485.362 222.495 485.069 223.234 484.947C223.486 485.128 223.827 485.434 224.117 485.829C224.449 486.283 224.694 486.832 224.694 487.424C224.694 487.618 224.861 487.774 225.056 487.774C225.25 487.774 225.406 487.618 225.406 487.424C225.406 486.634 225.082 485.94 224.694 485.411C224.558 485.228 224.406 485.061 224.263 484.913C224.492 484.947 224.692 485.023 224.852 485.128C225.013 485.237 225.241 485.188 225.349 485.026C225.458 484.863 225.41 484.648 225.247 484.54C224.967 484.353 224.636 484.253 224.297 484.212Z" fill="#2E4166"/>
<path d="M158.375 484.212C158.035 484.253 157.706 484.353 157.425 484.54C157.263 484.648 157.214 484.863 157.323 485.026C157.431 485.188 157.658 485.237 157.82 485.128C157.98 485.023 158.169 484.947 158.397 484.913C158.254 485.061 158.112 485.228 157.979 485.411C157.591 485.94 157.266 486.634 157.266 487.424C157.266 487.618 157.422 487.774 157.617 487.774C157.812 487.774 157.967 487.618 157.967 487.424C157.967 486.832 158.223 486.283 158.556 485.829C158.845 485.434 159.187 485.128 159.438 484.947C160.176 485.069 160.911 485.362 161.349 485.58C161.523 485.668 161.736 485.596 161.824 485.422C161.911 485.248 161.84 485.034 161.666 484.947C161.155 484.692 160.271 484.355 159.392 484.234C159.058 484.188 158.714 484.17 158.375 484.212Z" fill="#2E4166"/>
<path d="M190.075 482.759C189.882 482.739 189.709 482.882 189.691 483.075C189.681 483.162 189.666 483.265 189.657 483.369C189.583 484.139 189.466 485.318 189.204 486.366C189.054 486.964 188.869 487.495 188.627 487.859C188.388 488.222 188.147 488.368 187.882 488.368C186.533 488.368 185.319 488.515 184.85 489.386C184.36 490.294 184.417 491.578 185.54 492.7C186.217 493.376 187.82 493.738 189.26 493.378C189.449 493.331 189.57 493.149 189.522 492.96C189.473 492.771 189.281 492.651 189.091 492.7C187.763 493.031 186.542 492.705 186.117 492.281C185.078 491.243 185.308 490.244 185.573 489.748C185.861 489.216 186.636 489.081 187.882 489.081C188.481 489.081 188.909 488.709 189.216 488.244C189.522 487.781 189.739 487.173 189.895 486.547C190.171 485.442 190.284 484.189 190.359 483.426C190.368 483.323 190.383 483.227 190.392 483.143C190.41 482.949 190.269 482.778 190.075 482.759Z" fill="#2E4166"/>
<path d="M182.022 482.764C181.545 482.763 181.155 483.529 181.152 484.483C181.15 485.437 181.534 486.211 182.011 486.213C182.489 486.215 182.879 485.448 182.883 484.494C182.885 483.539 182.501 482.765 182.022 482.764Z" fill="#2E4166" stroke="#2E4166" stroke-width="0.386709" stroke-miterlimit="10" stroke-linecap="round"/>
<path d="M198.636 482.782C198.163 482.728 197.693 483.452 197.584 484.4C197.476 485.347 197.766 486.155 198.241 486.209C198.714 486.263 199.194 485.54 199.304 484.592C199.411 483.644 199.111 482.837 198.636 482.782Z" fill="#2E4166" stroke="#2E4166" stroke-width="0.386709" stroke-miterlimit="10" stroke-linecap="round"/>
<path d="M196.34 477.975C195.888 477.954 195.483 477.971 195.175 478.009C194.982 478.032 194.845 478.211 194.871 478.405C194.893 478.599 195.073 478.735 195.266 478.71C195.804 478.644 196.719 478.645 197.652 478.868C198.587 479.092 199.515 479.524 200.14 480.305C200.263 480.456 200.474 480.483 200.626 480.361C200.781 480.24 200.805 480.016 200.682 479.864C199.925 478.917 198.834 478.423 197.81 478.179C197.298 478.056 196.793 477.996 196.34 477.975Z" fill="#2E4166"/>
<path d="M184.104 478.066C183.679 478.054 183.202 478.09 182.69 478.213C181.666 478.458 180.575 478.951 179.818 479.898C179.695 480.049 179.721 480.273 179.873 480.395C180.026 480.517 180.25 480.492 180.373 480.339C180.998 479.558 181.924 479.114 182.859 478.891C183.794 478.669 184.674 478.825 185.212 478.891C185.406 478.916 185.731 478.723 185.755 478.529C185.779 478.335 185.406 478.192 185.212 478.167C184.905 478.129 184.529 478.077 184.104 478.066Z" fill="#2E4166"/>
<path d="M204.733 487.854C202.584 487.854 200.842 488.44 200.842 489.155C200.842 489.871 202.584 490.444 204.733 490.444C206.882 490.444 208.622 489.871 208.622 489.155C208.622 488.44 206.882 487.854 204.733 487.854Z" fill="#EDA6BF" stroke="#EDA6BF" stroke-width="0.386709" stroke-miterlimit="10" stroke-linecap="round"/>
<path d="M174.479 487.854C172.33 487.854 170.589 488.44 170.589 489.155C170.589 489.871 172.33 490.444 174.479 490.444C176.628 490.444 178.37 489.871 178.37 489.155C178.37 488.44 176.628 487.854 174.479 487.854Z" fill="#EDA6BF" stroke="#EDA6BF" stroke-width="0.386709" stroke-miterlimit="10" stroke-linecap="round"/>
<path d="M186.468 445.375C172.096 445.812 167.412 455.518 166.868 460.315C163.299 459.464 154.822 459.694 149.451 467.417C142.737 477.07 151.259 483.258 156.158 482.164C160.078 481.291 162.873 483.988 163.781 485.444C164.143 482.166 167.083 475.616 175.938 475.616C184.794 475.616 193.429 470.148 196.634 467.417C207.085 464.212 213.925 474.939 216.042 480.706C215.619 482.952 215.799 487.238 218.994 484.325C222.187 481.41 225.301 482.11 226.57 483.081L227.113 482.538C228.08 479.199 229.032 470.546 225.111 462.678C221.193 454.81 209.689 452.358 204.427 452.115C204.427 449.687 200.838 444.938 186.468 445.375Z" fill="#434343" stroke="#2E4166" stroke-width="0.386709" stroke-miterlimit="10" stroke-linecap="round"/>
<path d="M186.456 445.217C172.17 445.651 167.372 455.198 166.721 460.123C163.009 459.315 154.637 459.659 149.304 467.327C147.612 469.761 146.874 471.995 146.805 473.954C146.735 475.916 147.335 477.592 148.309 478.931C150.248 481.595 153.678 482.908 156.203 482.346C160.021 481.494 162.755 484.12 163.644 485.547L163.905 485.965L163.95 485.479C164.128 483.871 164.94 481.447 166.8 479.428C168.655 477.415 171.557 475.798 175.938 475.798C180.398 475.798 184.803 474.424 188.48 472.71C192.138 471.007 195.093 468.963 196.713 467.587C201.849 466.026 206.1 467.864 209.345 470.833C212.587 473.798 214.813 477.877 215.871 480.74C215.769 481.303 215.706 481.986 215.713 482.651C215.721 483.331 215.8 484.007 216.006 484.529C216.214 485.049 216.561 485.457 217.116 485.49C217.648 485.521 218.302 485.195 219.107 484.461C222.241 481.6 225.265 482.309 226.469 483.228L226.581 483.319L227.26 482.629L227.271 482.595C228.249 479.228 229.214 470.539 225.269 462.622C223.284 458.635 219.381 456.024 215.34 454.389C211.375 452.787 207.25 452.11 204.595 451.969C204.521 450.683 203.539 448.93 200.92 447.535C198.19 446.081 193.657 444.999 186.456 445.217ZM186.467 445.556C193.637 445.338 198.103 446.424 200.762 447.841C203.423 449.259 204.258 450.995 204.258 452.127V452.297H204.426C207.041 452.418 211.212 453.087 215.216 454.706C219.222 456.326 223.031 458.889 224.965 462.769C228.842 470.555 227.922 479.117 226.967 482.459L226.547 482.866C225.146 481.895 222.037 481.33 218.88 484.212C218.088 484.934 217.524 485.173 217.138 485.151C216.775 485.13 216.509 484.87 216.324 484.404C216.138 483.939 216.06 483.303 216.053 482.64C216.045 481.98 216.107 481.301 216.21 480.751L216.222 480.706L216.199 480.661C215.134 477.76 212.88 473.61 209.572 470.584C206.258 467.552 201.877 465.646 196.578 467.27L196.544 467.282L196.52 467.304C194.928 468.661 191.984 470.693 188.334 472.394C184.682 474.095 180.331 475.459 175.938 475.459C171.463 475.459 168.471 477.118 166.551 479.202C164.798 481.104 163.952 483.354 163.678 485.004C162.551 483.476 159.83 481.191 156.124 482.018C153.749 482.547 150.463 481.31 148.592 478.738C147.66 477.457 147.077 475.847 147.144 473.966C147.211 472.084 147.923 469.923 149.587 467.531C154.905 459.885 163.308 459.656 166.834 460.496L167.015 460.541L167.037 460.349C167.574 455.622 172.194 445.99 186.467 445.556Z" fill="#434343"/>
<path d="M186.82 509.671V512.252C190.457 512.423 193.52 510.6 194.593 509.671C192.32 510.185 188.462 509.885 186.82 509.671Z" fill="#EDB09B" stroke="#EDB09B" stroke-width="0.493018" stroke-miterlimit="10" stroke-linecap="round"/>
<path d="M195.108 495.874C194.932 495.811 194.741 495.902 194.678 496.078C194.012 497.927 192.462 498.61 190.709 498.702C188.941 498.794 187.031 498.27 185.81 497.752C185.638 497.679 185.443 497.76 185.371 497.933C185.296 498.105 185.378 498.301 185.551 498.374C186.829 498.918 188.839 499.48 190.742 499.38C192.657 499.281 194.529 498.503 195.322 496.304C195.387 496.127 195.284 495.938 195.108 495.874Z" fill="#2E4166"/>
<path d="M279.549 632.89C270.654 630.296 260.146 630.502 251.425 633.966C247.815 635.4 245.343 637.936 241.801 640.486C238.717 642.703 238.968 642.215 231.609 644.334" fill="#FFC6B2" fill-opacity="0.01"/>
<path d="M279.549 632.89C270.654 630.296 260.146 630.502 251.425 633.966C247.815 635.4 245.343 637.936 241.801 640.486C238.717 642.703 238.968 642.215 231.609 644.334" stroke="#2E4166" stroke-width="0.580064" stroke-miterlimit="10" stroke-linecap="round"/>
<path d="M240.044 641.724C240.259 649.71 239.879 654.422 240.053 663.629C240.23 672.836 240.747 678.551 240.747 678.551" fill="#FFC6B2" fill-opacity="0.01"/>
<path d="M240.044 641.724C240.259 649.71 239.879 654.422 240.053 663.629C240.23 672.836 240.747 678.551 240.747 678.551" stroke="#2E4166" stroke-width="0.580064" stroke-miterlimit="10" stroke-linecap="round"/>
<path d="M161.145 643.564C158.843 642.964 156.385 642.794 154.239 641.767C152.78 641.07 151.893 639.533 150.622 638.532C147.699 636.231 144.264 634.947 140.796 633.639C130.273 629.672 119.389 629.707 108.308 629.241" fill="#FFC6B2" fill-opacity="0.01"/>
<path d="M161.145 643.564C158.843 642.964 156.385 642.794 154.239 641.767C152.78 641.07 151.893 639.533 150.622 638.532C147.699 636.231 144.264 634.947 140.796 633.639C130.273 629.672 119.389 629.707 108.308 629.241" stroke="#2E4166" stroke-width="0.580064" stroke-miterlimit="10" stroke-linecap="round"/>
<path d="M153.771 641.611C153.771 641.611 153.382 649.987 153.246 653.412C153.075 657.711 152.703 661.454 152.621 665.758" fill="#FFC6B2" fill-opacity="0.01"/>
<path d="M153.771 641.611C153.771 641.611 153.382 649.987 153.246 653.412C153.075 657.711 152.703 661.454 152.621 665.758" stroke="#2E4166" stroke-width="0.580064" stroke-miterlimit="10" stroke-linecap="round"/>
<path d="M185.302 517.539C183.736 517.594 181.447 517.776 181.447 517.776C181.447 517.776 179.881 528.697 182.477 531.427C186.328 535.478 195.405 537.172 200.764 537.139C206.471 537.104 213.901 532.313 213.667 525.899C213.596 523.941 212.238 522.226 211.21 520.557C210.906 520.063 210.459 519.667 210.021 519.288C207.05 516.719 202.916 517.644 199.146 517.385" fill="#FFC6B2"/>
<path d="M185.302 517.539C183.736 517.594 181.447 517.776 181.447 517.776C181.447 517.776 179.881 528.697 182.477 531.427C186.328 535.478 195.405 537.172 200.764 537.139C206.471 537.104 213.901 532.313 213.667 525.899C213.596 523.941 212.238 522.226 211.21 520.557C210.906 520.063 210.459 519.667 210.021 519.288C207.05 516.719 202.916 517.644 199.146 517.385" stroke="#2E4166" stroke-width="0.580064" stroke-miterlimit="10" stroke-linecap="round"/>
<path d="M148.667 619.814C148.667 619.814 162.949 636.111 192.915 635.235C227.284 634.229 238.107 619.823 238.107 619.823C238.107 619.823 236.14 560.307 230.778 530.995C229.581 524.456 221.308 521.048 215.099 518.669C209.29 516.443 202.172 517.251 202.172 517.251C202.172 517.251 209.303 529.483 193.871 530.344C176.143 531.333 182.413 517.511 182.413 517.511C182.413 517.511 172.932 518.027 168.925 520.894C164.952 523.736 161.019 528.897 159.861 533.643C153.097 561.374 148.667 619.814 148.667 619.814Z" fill="white" stroke="#2E4166" stroke-width="0.580064" stroke-miterlimit="10" stroke-linecap="round"/>
<path d="M176.425 518.255C152.104 523.615 142.296 533.286 134.564 542.865C130.905 547.398 125.94 557.266 125.94 557.266C125.94 557.266 128.767 559.937 130.399 560.975C136.767 565.023 154.038 566.773 154.038 566.773" fill="white"/>
<path d="M176.425 518.255C152.104 523.615 142.296 533.286 134.564 542.865C130.905 547.398 125.94 557.266 125.94 557.266C125.94 557.266 128.767 559.937 130.399 560.975C136.767 565.023 154.038 566.773 154.038 566.773" stroke="#2E4166" stroke-width="0.580064" stroke-miterlimit="10" stroke-linecap="round"/>
<path d="M211.771 517.625C226.345 520.586 234.222 524.571 244.533 532.301C250.984 537.137 263.82 551.487 266.01 560.395C248.37 565.481 252.903 560.054 235.265 565.14" fill="white"/>
<path d="M211.771 517.625C226.345 520.586 234.222 524.571 244.533 532.301C250.984 537.137 263.82 551.487 266.01 560.395C248.37 565.481 252.903 560.054 235.265 565.14" stroke="#2E4166" stroke-width="0.580064" stroke-miterlimit="10" stroke-linecap="round"/>
<path d="M222.271 592.514L215.304 591.044C214.628 590.902 214.454 590.371 214.916 589.857L219.671 584.558C220.133 584.044 220.679 584.159 220.894 584.814L223.106 591.584C223.319 592.239 222.946 592.655 222.271 592.514Z" fill="#FFC6B2" fill-opacity="0.01" stroke="#E0DAFF" stroke-width="0.607253" stroke-miterlimit="10" stroke-linecap="round"/>
<path d="M213.496 602.785C213.496 602.002 214.131 601.367 214.912 601.367C215.695 601.367 216.329 602.002 216.329 602.785C216.329 603.566 215.695 604.2 214.912 604.2C214.131 604.2 213.496 603.566 213.496 602.785Z" fill="#5D569A" stroke="#5D569A" stroke-width="0.607253" stroke-miterlimit="10" stroke-linecap="round"/>
<path d="M164.464 624.548C164.464 623.765 165.098 623.131 165.88 623.131C166.663 623.131 167.297 623.765 167.297 624.548C167.297 625.331 166.663 625.964 165.88 625.964C165.098 625.964 164.464 625.331 164.464 624.548Z" fill="#5D569A" stroke="#5D569A" stroke-width="0.607253" stroke-miterlimit="10" stroke-linecap="round"/>
<path d="M152.803 558.837C152.803 558.054 153.438 557.419 154.22 557.419C155.003 557.419 155.637 558.054 155.637 558.837C155.637 559.618 155.003 560.253 154.22 560.253C153.438 560.253 152.803 559.618 152.803 558.837Z" fill="#5D569A" stroke="#5D569A" stroke-width="0.607253" stroke-miterlimit="10" stroke-linecap="round"/>
<path d="M173.588 524.687C173.588 523.905 174.222 523.271 175.004 523.271C175.787 523.271 176.421 523.905 176.421 524.687C176.421 525.47 175.787 526.104 175.004 526.104C174.222 526.104 173.588 525.47 173.588 524.687Z" fill="#5D569A" stroke="#5D569A" stroke-width="0.607253" stroke-miterlimit="10" stroke-linecap="round"/>
<path d="M256.404 552.442C256.404 551.659 257.038 551.024 257.821 551.024C258.602 551.024 259.237 551.659 259.237 552.442C259.237 553.223 258.602 553.858 257.821 553.858C257.038 553.858 256.404 553.223 256.404 552.442Z" fill="#5D569A" stroke="#5D569A" stroke-width="0.607253" stroke-miterlimit="10" stroke-linecap="round"/>
<path d="M209.012 556.333C209.012 555.55 209.646 554.916 210.427 554.916C211.21 554.916 211.845 555.55 211.845 556.333C211.845 557.114 211.21 557.749 210.427 557.749C209.646 557.749 209.012 557.114 209.012 556.333Z" fill="#E0DAFF" stroke="#E0DAFF" stroke-width="0.607253" stroke-miterlimit="10" stroke-linecap="round"/>
<path d="M210.128 624.959C210.128 624.178 210.763 623.543 211.546 623.543C212.327 623.543 212.962 624.178 212.962 624.959C212.962 625.742 212.327 626.377 211.546 626.377C210.763 626.377 210.128 625.742 210.128 624.959Z" fill="#E0DAFF" stroke="#E0DAFF" stroke-width="0.607253" stroke-miterlimit="10" stroke-linecap="round"/>
<path d="M178.886 603.752C178.886 602.969 179.52 602.334 180.304 602.334C181.085 602.334 181.719 602.969 181.719 603.752C181.719 604.535 181.085 605.168 180.304 605.168C179.52 605.168 178.886 604.535 178.886 603.752Z" fill="#E0DAFF" stroke="#E0DAFF" stroke-width="0.607253" stroke-miterlimit="10" stroke-linecap="round"/>
<path d="M165.678 559.549C165.678 558.766 166.312 558.132 167.095 558.132C167.877 558.132 168.511 558.766 168.511 559.549C168.511 560.332 167.877 560.967 167.095 560.967C166.312 560.967 165.678 560.332 165.678 559.549Z" fill="#E0DAFF" stroke="#E0DAFF" stroke-width="0.607253" stroke-miterlimit="10" stroke-linecap="round"/>
<path d="M208.501 521.021C208.501 520.239 209.136 519.604 209.919 519.604C210.7 519.604 211.334 520.239 211.334 521.021C211.334 521.804 210.7 522.438 209.919 522.438C209.136 522.438 208.501 521.804 208.501 521.021Z" fill="#E0DAFF" stroke="#E0DAFF" stroke-width="0.607253" stroke-miterlimit="10" stroke-linecap="round"/>
<path d="M200.096 578.697C200.096 577.914 200.729 577.279 201.512 577.279C202.295 577.279 202.929 577.914 202.929 578.697C202.929 579.48 202.295 580.113 201.512 580.113C200.729 580.113 200.096 579.48 200.096 578.697Z" fill="#FF7CAB" stroke="#FF7CAB" stroke-width="0.607253" stroke-miterlimit="10" stroke-linecap="round"/>
<path d="M232.743 617.597C232.743 616.816 233.377 616.181 234.161 616.181C234.942 616.181 235.576 616.816 235.576 617.597C235.576 618.38 234.942 619.014 234.161 619.014C233.377 619.014 232.743 618.38 232.743 617.597Z" fill="#FF7CAB" stroke="#FF7CAB" stroke-width="0.607253" stroke-miterlimit="10" stroke-linecap="round"/>
<path d="M150.243 612.911C150.243 612.13 150.877 611.496 151.66 611.496C152.442 611.496 153.077 612.13 153.077 612.911C153.077 613.694 152.442 614.329 151.66 614.329C150.877 614.329 150.243 613.694 150.243 612.911Z" fill="#FF7CAB" stroke="#FF7CAB" stroke-width="0.607253" stroke-miterlimit="10" stroke-linecap="round"/>
<path d="M235.676 556.408C235.676 555.625 236.309 554.991 237.092 554.991C237.875 554.991 238.51 555.625 238.51 556.408C238.51 557.189 237.875 557.824 237.092 557.824C236.309 557.824 235.676 557.189 235.676 556.408Z" fill="#FF7CAB" stroke="#FF7CAB" stroke-width="0.607253" stroke-miterlimit="10" stroke-linecap="round"/>
<path d="M184.651 541.157C184.651 540.376 185.285 539.742 186.067 539.742C186.85 539.742 187.484 540.376 187.484 541.157C187.484 541.94 186.85 542.575 186.067 542.575C185.285 542.575 184.651 541.94 184.651 541.157Z" fill="#FF7CAB" stroke="#FF7CAB" stroke-width="0.607253" stroke-miterlimit="10" stroke-linecap="round"/>
<path d="M144.769 540.175C144.769 539.394 145.404 538.759 146.186 538.759C146.968 538.759 147.603 539.394 147.603 540.175C147.603 540.958 146.968 541.593 146.186 541.593C145.404 541.593 144.769 540.958 144.769 540.175Z" fill="#FF7CAB" stroke="#FF7CAB" stroke-width="0.607253" stroke-miterlimit="10" stroke-linecap="round"/>
<path d="M130.956 561.73C130.956 561.73 123.879 574.362 122.318 582.59C120.934 589.885 121.424 599.246 128.757 601.267C136.091 603.289 144.667 600.636 152.037 596.496C159.11 592.524 166.185 587.41 172.129 581.888" fill="#FFC6B2"/>
<path d="M130.956 561.73C130.956 561.73 123.879 574.362 122.318 582.59C120.934 589.885 121.424 599.246 128.757 601.267C136.091 603.289 144.667 600.636 152.037 596.496C159.11 592.524 166.185 587.41 172.129 581.888" stroke="#2E4166" stroke-width="0.580064" stroke-miterlimit="10"/>
<path d="M263.173 564.954C263.173 564.954 273.914 588.93 267.65 596.49C257.018 609.326 238.862 598.464 212.255 581.559" fill="#FFC6B2"/>
<path d="M263.173 564.954C263.173 564.954 273.914 588.93 267.65 596.49C257.018 609.326 238.862 598.464 212.255 581.559" stroke="#2E4166" stroke-width="0.580064" stroke-miterlimit="10"/>
<path d="M163.92 543.018C162.093 546.228 160.432 550.785 159.432 554.032C158.261 557.83 157.601 561.364 156.97 565.289" fill="#FFC6B2" fill-opacity="0.01"/>
<path d="M163.92 543.018C162.093 546.228 160.432 550.785 159.432 554.032C158.261 557.83 157.601 561.364 156.97 565.289" stroke="#2E4166" stroke-width="0.580064" stroke-miterlimit="10" stroke-linecap="round"/>
<path d="M225.681 542.343C225.681 542.343 229.512 549.238 231.63 554.51C233.747 559.779 234.147 563.425 234.147 563.425" fill="#FFC6B2" fill-opacity="0.01"/>
<path d="M225.681 542.343C225.681 542.343 229.512 549.238 231.63 554.51C233.747 559.779 234.147 563.425 234.147 563.425" stroke="#2E4166" stroke-width="0.580064" stroke-miterlimit="10" stroke-linecap="round"/>
<path d="M157.569 565.058C157.569 565.058 149.895 559.519 141.595 557.347C133.296 555.174 124.371 556.367 124.371 556.367C124.371 556.367 122.344 559.809 121.715 563.44C121.086 567.071 121.854 570.89 121.854 570.89C121.854 570.89 127.202 569.439 136.065 570.951C148.221 573.023 154.295 578.451 154.295 578.451L157.569 565.058Z" fill="white" stroke="#2E4166" stroke-width="0.580064" stroke-miterlimit="10" stroke-linecap="round"/>
<path d="M266.179 556.443C266.179 556.443 268.199 559.116 269.35 562.334C270.5 565.551 269.908 570.029 269.908 570.029C269.908 570.029 261.032 569.806 251.153 571.691C241.273 573.576 235.059 579.979 235.059 579.979L232.281 563.798C232.281 563.798 237.923 560.137 247.475 558.079C257.026 556.022 266.179 556.443 266.179 556.443Z" fill="white" stroke="#2E4166" stroke-width="0.580064" stroke-miterlimit="10" stroke-linecap="round"/>
<path d="M136.795 577.742C153.728 571.021 183.541 578.473 185.141 569.156C185.677 566.026 188.191 548.39 190.026 542.946C191.527 538.493 195.559 538.244 195.507 540.502C195.411 544.746 200.656 573.307 194.613 579.989C184.608 591.053 158.19 597.181 137.873 601.698" fill="#FFC6B2"/>
<path d="M136.795 577.742C153.728 571.021 183.541 578.473 185.141 569.156C185.677 566.026 188.191 548.39 190.026 542.946C191.527 538.493 195.559 538.244 195.507 540.502C195.411 544.746 200.656 573.307 194.613 579.989C184.608 591.053 158.19 597.181 137.873 601.698" stroke="#2E4166" stroke-width="0.580064" stroke-miterlimit="10" stroke-linecap="round"/>
<path d="M254.663 577.634C237.73 570.914 211.98 576.135 208.321 568.296C206.948 565.355 203.202 548.583 201.727 543.03C200.298 537.647 196.326 538.018 195.951 539.705C195.222 542.996 196.212 560.597 196.212 560.597C196.212 560.597 194.591 567.089 196.272 573.953C200.074 589.476 230.908 594.946 245.635 599.913" fill="#FFC6B2"/>
<path d="M254.663 577.634C237.73 570.914 211.98 576.135 208.321 568.296C206.948 565.355 203.202 548.583 201.727 543.03C200.298 537.647 196.326 538.018 195.951 539.705C195.222 542.996 196.212 560.597 196.212 560.597C196.212 560.597 194.591 567.089 196.272 573.953C200.074 589.476 230.908 594.946 245.635 599.913" stroke="#2E4166" stroke-width="0.580064" stroke-miterlimit="10" stroke-linecap="round"/>
<path d="M197.209 543.28C197.168 543.759 197.001 546.546 198.218 546.498" stroke="#2E4166" stroke-width="0.580064" stroke-miterlimit="10" stroke-linecap="round"/>
<path d="M195.376 541.117C195.268 539.976 193.099 539.705 192.181 541.624C191.615 542.805 189.195 550.73 188.806 559.442" fill="#FFC6B2"/>
<path d="M195.376 541.117C195.268 539.976 193.099 539.705 192.181 541.624C191.615 542.805 189.195 550.73 188.806 559.442" stroke="#2E4166" stroke-width="0.580064" stroke-miterlimit="10" stroke-linecap="round"/>
<path d="M195.492 543.372C194.615 542.118 193.036 543.829 192.568 545.2C191.878 547.226 191.674 549.681 191.522 551.824C191.473 552.512 191.045 560.533 191.045 560.533" fill="#FFC6B2"/>
<path d="M195.492 543.372C194.615 542.118 193.036 543.829 192.568 545.2C191.878 547.226 191.674 549.681 191.522 551.824C191.473 552.512 191.045 560.533 191.045 560.533" stroke="#2E4166" stroke-width="0.580064" stroke-miterlimit="10" stroke-linecap="round"/>
<path d="M196.14 540.92C197.222 538.749 198.665 539.607 199.517 540.891C200.584 542.497 201.467 546.661 201.467 546.661C201.467 546.661 203.53 555.985 203.582 556.69" fill="#FFC6B2"/>
<path d="M196.14 540.92C197.222 538.749 198.665 539.607 199.517 540.891C200.584 542.497 201.467 546.661 201.467 546.661C201.467 546.661 203.53 555.985 203.582 556.69" stroke="#2E4166" stroke-width="0.580064" stroke-miterlimit="10" stroke-linecap="round"/>
<path d="M195.778 544.504C196.333 542.687 197.917 542.448 198.661 544.378C199.639 546.911 201.628 557.746 201.786 560.452" fill="#FFC6B2"/>
<path d="M195.778 544.504C196.333 542.687 197.917 542.448 198.661 544.378C199.639 546.911 201.628 557.746 201.786 560.452" stroke="#2E4166" stroke-width="0.580064" stroke-miterlimit="10" stroke-linecap="round"/>
<path d="M103.798 633.939C110.434 631.895 118.537 628.735 132.841 629.765C148.585 630.9 155.577 637.279 161.302 642.747C161.302 642.747 166.576 642.545 169.76 646.98C172.944 651.414 173.366 655.11 174.038 660.486C174.807 666.631 174.11 671.796 172.208 675.925C170.882 678.803 165.682 678.882 165.682 678.882C151.954 686.458 136.305 686.293 123.708 684.388C112.217 682.649 104.582 680.82 96.499 675.624C90.2585 671.615 85.9816 666.918 83.6294 663.298C81.9534 660.719 80.7344 656.76 80.4672 652.424C80.1857 647.857 82.0495 641.905 85.1724 637.862" fill="#369ADC"/>
<path d="M103.798 633.939C110.434 631.895 118.537 628.735 132.841 629.765C148.585 630.9 155.577 637.279 161.302 642.747C161.302 642.747 166.576 642.545 169.76 646.98C172.944 651.414 173.366 655.11 174.038 660.486C174.807 666.631 174.11 671.796 172.208 675.925C170.882 678.803 165.682 678.882 165.682 678.882C151.954 686.458 136.305 686.293 123.708 684.388C112.217 682.649 104.582 680.82 96.499 675.624C90.2585 671.615 85.9816 666.918 83.6294 663.298C81.9534 660.719 80.7344 656.76 80.4672 652.424C80.1857 647.857 82.0495 641.905 85.1724 637.862" stroke="#2E4166" stroke-width="0.580064" stroke-miterlimit="10" stroke-linecap="round"/>
<path d="M161.951 645.24C163.852 648.646 164.783 652.422 165.349 655.398C166.02 658.929 166.199 664.407 165.79 668.366" stroke="#2E4166" stroke-width="0.580064" stroke-miterlimit="10" stroke-linecap="round"/>
<path d="M231.964 677.882L232.057 644.253C232.057 644.253 225.592 645.845 218.05 647.994C213.981 649.153 205.113 649.324 200.916 648.463C195.005 647.25 192.503 638.961 183.953 642.036C179.036 643.806 178.91 646.246 171.944 651.562C166.201 655.944 153.999 664.884 149.05 668.558C138.096 676.689 141.317 678.01 141.845 678.429C143.92 680.078 149.962 675.636 149.962 675.636C149.962 675.636 172.3 673.415 179.543 672.042C184.844 671.039 193.878 671.877 193.878 671.877L231.964 677.882Z" fill="#FFC6B2" stroke="#2E4166" stroke-width="0.580064" stroke-miterlimit="10" stroke-linecap="round"/>
<path d="M286.065 633.564C279.428 631.52 271.325 628.36 257.022 629.39C241.278 630.525 234.285 636.904 228.561 642.372C228.561 642.372 223.287 642.17 220.103 646.605C216.919 651.039 216.496 654.735 215.825 660.111C215.057 666.256 215.752 671.421 217.654 675.55C218.981 678.428 224.182 678.507 224.182 678.507C237.909 686.083 253.558 685.918 266.154 684.013C277.645 682.274 285.28 680.445 293.365 675.249C299.605 671.24 303.882 666.543 306.234 662.923C307.91 660.344 309.129 656.385 309.396 652.049C309.678 647.482 307.813 641.53 304.691 637.487" fill="#369ADC"/>
<path d="M286.065 633.564C279.428 631.52 271.325 628.36 257.022 629.39C241.278 630.525 234.285 636.904 228.561 642.372C228.561 642.372 223.287 642.17 220.103 646.605C216.919 651.039 216.496 654.735 215.825 660.111C215.057 666.256 215.752 671.421 217.654 675.55C218.981 678.428 224.182 678.507 224.182 678.507C237.909 686.083 253.558 685.918 266.154 684.013C277.645 682.274 285.28 680.445 293.365 675.249C299.605 671.24 303.882 666.543 306.234 662.923C307.91 660.344 309.129 656.385 309.396 652.049C309.678 647.482 307.813 641.53 304.691 637.487" stroke="#2E4166" stroke-width="0.580064" stroke-miterlimit="10" stroke-linecap="round"/>
<path d="M227.911 644.873C226.011 648.279 225.08 652.055 224.514 655.031C223.842 658.562 223.664 664.04 224.074 667.999" stroke="#2E4166" stroke-width="0.580064" stroke-miterlimit="10" stroke-linecap="round"/>
</g>
<path d="M20.6875 780.149C19.8849 780.149 19.2013 779.931 18.6367 779.494C18.0721 779.054 17.6406 778.416 17.3423 777.582C17.044 776.744 16.8949 775.732 16.8949 774.545C16.8949 773.366 17.044 772.36 17.3423 771.525C17.6442 770.687 18.0774 770.048 18.642 769.608C19.2102 769.164 19.892 768.942 20.6875 768.942C21.483 768.942 22.163 769.164 22.7276 769.608C23.2958 770.048 23.729 770.687 24.0273 771.525C24.3292 772.36 24.4801 773.366 24.4801 774.545C24.4801 775.732 24.331 776.744 24.0327 777.582C23.7344 778.416 23.3029 779.054 22.7383 779.494C22.1737 779.931 21.4901 780.149 20.6875 780.149ZM20.6875 778.977C21.483 778.977 22.1009 778.594 22.5412 777.827C22.9815 777.06 23.2017 775.966 23.2017 774.545C23.2017 773.601 23.1005 772.797 22.8981 772.132C22.6992 771.468 22.4116 770.962 22.0352 770.614C21.6623 770.266 21.2131 770.092 20.6875 770.092C19.8991 770.092 19.283 770.481 18.8391 771.259C18.3952 772.033 18.1733 773.129 18.1733 774.545C18.1733 775.49 18.2727 776.293 18.4716 776.953C18.6705 777.614 18.9563 778.116 19.3292 778.461C19.7056 778.805 20.1584 778.977 20.6875 778.977ZM31.2131 773.96V775.131H26.4403V773.96H31.2131ZM36.9619 780.149C36.1594 780.149 35.4758 779.931 34.9111 779.494C34.3465 779.054 33.915 778.416 33.6167 777.582C33.3184 776.744 33.1693 775.732 33.1693 774.545C33.1693 773.366 33.3184 772.36 33.6167 771.525C33.9186 770.687 34.3518 770.048 34.9165 769.608C35.4846 769.164 36.1665 768.942 36.9619 768.942C37.7574 768.942 38.4374 769.164 39.002 769.608C39.5702 770.048 40.0035 770.687 40.3018 771.525C40.6036 772.36 40.7545 773.366 40.7545 774.545C40.7545 775.732 40.6054 776.744 40.3071 777.582C40.0088 778.416 39.5773 779.054 39.0127 779.494C38.4481 779.931 37.7645 780.149 36.9619 780.149ZM36.9619 778.977C37.7574 778.977 38.3753 778.594 38.8156 777.827C39.2559 777.06 39.4761 775.966 39.4761 774.545C39.4761 773.601 39.3749 772.797 39.1725 772.132C38.9736 771.468 38.686 770.962 38.3096 770.614C37.9367 770.266 37.4875 770.092 36.9619 770.092C36.1736 770.092 35.5574 770.481 35.1135 771.259C34.6697 772.033 34.4477 773.129 34.4477 774.545C34.4477 775.49 34.5471 776.293 34.746 776.953C34.9449 777.614 35.2307 778.116 35.6036 778.461C35.98 778.805 36.4328 778.977 36.9619 778.977ZM46.4648 780.149C45.7616 780.149 45.1349 780.028 44.5844 779.787C44.0376 779.545 43.6025 779.21 43.2794 778.78C42.9598 778.347 42.7858 777.844 42.7574 777.273H44.0997C44.1281 777.624 44.2488 777.928 44.4619 778.184C44.675 778.436 44.9537 778.631 45.2982 778.77C45.6427 778.908 46.0244 778.977 46.4434 778.977C46.9122 778.977 47.3277 778.896 47.6899 778.732C48.0521 778.569 48.3362 778.342 48.5422 778.05C48.7481 777.759 48.8511 777.422 48.8511 777.038C48.8511 776.637 48.7517 776.284 48.5528 775.978C48.354 775.669 48.0628 775.428 47.6792 775.254C47.2957 775.08 46.827 774.993 46.273 774.993H45.3994V773.821H46.273C46.7062 773.821 47.0862 773.743 47.4129 773.587C47.7432 773.43 48.0006 773.21 48.1853 772.926C48.3735 772.642 48.4676 772.308 48.4676 771.925C48.4676 771.555 48.3859 771.234 48.2226 770.961C48.0592 770.687 47.8284 770.474 47.5301 770.321C47.2354 770.169 46.8873 770.092 46.4861 770.092C46.1096 770.092 45.7545 770.162 45.4207 770.3C45.0905 770.435 44.8206 770.632 44.6111 770.891C44.4015 771.147 44.2879 771.456 44.2702 771.818H42.9917C43.0131 771.246 43.1853 770.746 43.5084 770.316C43.8316 769.883 44.2542 769.545 44.7762 769.304C45.3018 769.062 45.8788 768.942 46.5074 768.942C47.1821 768.942 47.7609 769.078 48.2439 769.352C48.7268 769.622 49.0979 769.979 49.3572 770.423C49.6164 770.866 49.746 771.346 49.746 771.861C49.746 772.475 49.5844 772.999 49.2613 773.432C48.9417 773.865 48.5067 774.165 47.9562 774.332V774.418C48.6452 774.531 49.1831 774.824 49.5702 775.297C49.9573 775.765 50.1508 776.346 50.1508 777.038C50.1508 777.631 49.9893 778.164 49.6661 778.636C49.3465 779.105 48.9097 779.474 48.3557 779.744C47.8018 780.014 47.1714 780.149 46.4648 780.149ZM57.0383 773.96V775.131H52.2655V773.96H57.0383ZM62.7392 780.149C62.036 780.149 61.4093 780.028 60.8588 779.787C60.312 779.545 59.877 779.21 59.5538 778.78C59.2342 778.347 59.0602 777.844 59.0318 777.273H60.3741C60.4025 777.624 60.5233 777.928 60.7363 778.184C60.9494 778.436 61.2282 778.631 61.5726 778.77C61.9171 778.908 62.2988 778.977 62.7179 778.977C63.1866 778.977 63.6021 778.896 63.9643 778.732C64.3265 778.569 64.6106 778.342 64.8166 778.05C65.0225 777.759 65.1255 777.422 65.1255 777.038C65.1255 776.637 65.0261 776.284 64.8272 775.978C64.6284 775.669 64.3372 775.428 63.9537 775.254C63.5701 775.08 63.1014 774.993 62.5474 774.993H61.6738V773.821H62.5474C62.9806 773.821 63.3606 773.743 63.6873 773.587C64.0176 773.43 64.275 773.21 64.4597 772.926C64.6479 772.642 64.742 772.308 64.742 771.925C64.742 771.555 64.6603 771.234 64.497 770.961C64.3336 770.687 64.1028 770.474 63.8045 770.321C63.5098 770.169 63.1618 770.092 62.7605 770.092C62.3841 770.092 62.0289 770.162 61.6951 770.3C61.3649 770.435 61.095 770.632 60.8855 770.891C60.676 771.147 60.5623 771.456 60.5446 771.818H59.2662C59.2875 771.246 59.4597 770.746 59.7828 770.316C60.106 769.883 60.5286 769.545 61.0506 769.304C61.5762 769.062 62.1532 768.942 62.7818 768.942C63.4565 768.942 64.0353 769.078 64.5183 769.352C65.0012 769.622 65.3723 769.979 65.6316 770.423C65.8908 770.866 66.0204 771.346 66.0204 771.861C66.0204 772.475 65.8588 772.999 65.5357 773.432C65.2161 773.865 64.7811 774.165 64.2306 774.332V774.418C64.9196 774.531 65.4576 774.824 65.8446 775.297C66.2317 775.765 66.4252 776.346 66.4252 777.038C66.4252 777.631 66.2637 778.164 65.9405 778.636C65.6209 779.105 65.1841 779.474 64.6301 779.744C64.0762 780.014 63.4458 780.149 62.7392 780.149Z" fill="black"/>
</g>
<defs>
<linearGradient id="paint0_linear_3_25561" x1="393" y1="740.019" x2="711.84" y2="-463.573" gradientUnits="userSpaceOnUse">
<stop stop-color="#FFC670"/>
<stop offset="0.536458" stop-color="#FC803B"/>
<stop offset="0.796875" stop-color="#FF7A00"/>
</linearGradient>
<clipPath id="clip0_3_25561">
<path d="M0 0H390V789C390 800.046 381.046 809 370 809H20C8.9543 809 0 800.046 0 789V0Z" fill="white"/>
</clipPath>
</defs>
</svg>
