<svg width="390" height="809" viewBox="0 0 390 809" fill="none" xmlns="http://www.w3.org/2000/svg">
<g clip-path="url(#clip0_3_25262)">
<path d="M390 -9C390 -20.0457 381.046 -29 370 -29L19.9998 -28.9999C8.95416 -28.9999 -0.000151022 -20.0456 -0.000149091 -8.99993L-9.56426e-06 789C-7.63297e-06 800.046 8.95428 809 20 809L370 809C381.046 809 390 800.046 390 789L390 -9Z" fill="url(#paint0_linear_3_25262)"/>
<path d="M390 -9C390 -20.0457 381.046 -29 370 -29L19.9998 -28.9999C8.95416 -28.9999 -0.000151022 -20.0456 -0.000149091 -8.99993L-9.56426e-06 789C-7.63297e-06 800.046 8.95428 809 20 809L370 809C381.046 809 390 800.046 390 789L390 -9Z" fill="url(#paint1_linear_3_25262)" fill-opacity="0.2"/>
<path d="M390 -9C390 -20.0457 381.046 -29 370 -29L19.9998 -28.9999C8.95416 -28.9999 -0.000151022 -20.0456 -0.000149091 -8.99993L-9.56426e-06 789C-7.63297e-06 800.046 8.95428 809 20 809L370 809C381.046 809 390 800.046 390 789L390 -9Z" fill="url(#paint2_linear_3_25262)" fill-opacity="0.2"/>
<path d="M197.031 533.63C197.031 533.63 189.027 554.935 172.377 549.693C151.465 543.11 133.896 515.745 105.259 511.215C76.6227 506.685 62.4975 511.476 50.0664 531.056C37.6353 550.637 34.2197 568.966 42.5938 597.56C50.9679 626.154 67.9878 631.581 83.5625 645.432C100.876 660.831 134.614 650.684 157.635 653.306C185.341 656.459 201.673 676.996 229.554 676.561C250.343 676.236 262.947 676.043 283.976 673.601C304.674 671.198 306.751 670.627 315.755 663.265C324.759 655.903 323.522 642.163 323.522 642.163C323.522 642.163 320.583 615.92 286.624 604.345C252.664 592.772 220.465 613.831 181.445 601.071C176.2 599.355 170.009 596.181 170.022 589.086C170.036 581.993 175.196 574.875 181.5 572.696C212.33 562.038 246.488 563.162 277.158 552.05C294.501 545.766 311.435 550.424 329.98 530.269C329.98 530.269 356.497 504.864 351.333 471.434C347.505 446.646 329.661 457.072 281.48 442.822C233.301 428.572 222.786 413.583 145.42 417.998C121.561 419.36 82.7371 422.536 63.1481 435.501C43.559 448.466 44.3316 462.637 47.0967 472.711C49.7905 482.524 61.6113 492.281 71.4493 494.886C102.818 503.192 119.242 476.195 167.357 487.906C210.662 498.446 197.031 533.63 197.031 533.63Z" fill="white" fill-opacity="0.4"/>
<path d="M206.689 369.203C201.963 359.607 185.199 369.652 180.608 374.958C176.175 380.081 173.995 388.461 174.408 395.111C174.634 398.756 176.913 403.752 172.018 410.195C166.088 418.002 161.175 417.408 159.093 426.04C156.534 436.647 164.35 441.435 164.35 441.435C164.35 441.435 151.037 449.804 150.234 461.773C148.841 482.526 166.323 489.38 166.323 489.38C166.323 489.38 181.208 484.734 191.546 489.889C202.204 495.203 204.804 495.951 216.519 498.535C222.605 499.878 237.603 505.782 246.797 502.435C255.992 499.088 261.287 490.503 261.287 490.503C261.287 490.503 267.713 494.577 270.293 495.242C280.287 497.82 275.084 462.584 279.002 454.517" fill="#2F2F2F"/>
<path d="M206.689 369.203C201.963 359.607 185.199 369.652 180.608 374.958C176.175 380.081 173.995 388.461 174.408 395.111C174.634 398.756 176.913 403.752 172.018 410.195C166.088 418.002 161.175 417.408 159.093 426.04C156.534 436.647 164.35 441.435 164.35 441.435C164.35 441.435 151.037 449.804 150.234 461.773C148.841 482.526 166.323 489.38 166.323 489.38C166.323 489.38 181.208 484.734 191.546 489.889C202.204 495.203 204.804 495.951 216.519 498.535C222.605 499.878 237.603 505.782 246.797 502.435C255.992 499.088 261.287 490.503 261.287 490.503C261.287 490.503 267.713 494.577 270.293 495.242C280.287 497.82 275.084 462.584 279.002 454.517" stroke="#2E4166" stroke-miterlimit="10" stroke-linecap="round"/>
<path d="M193.324 436.986C193.507 436.772 189.356 437.305 188.761 437.409C187.061 437.705 184.611 438.632 183.185 439.69C179.131 442.696 174.445 446.71 172.063 451.451C166.947 461.632 165.548 473.543 164.661 484.869C164.286 489.646 163.281 494.736 164.834 499.381C165.849 502.416 169.295 504.907 171.69 506.682" fill="#FFC6B2"/>
<path d="M193.324 436.986C193.507 436.772 189.356 437.305 188.761 437.409C187.061 437.705 184.611 438.632 183.185 439.69C179.131 442.696 174.445 446.71 172.063 451.451C166.947 461.632 165.548 473.543 164.661 484.869C164.286 489.646 163.281 494.736 164.834 499.381C165.849 502.416 169.295 504.907 171.69 506.682" stroke="#2E4166" stroke-miterlimit="10" stroke-linecap="round"/>
<path d="M194.676 436.481C194.676 436.481 187.497 436.401 179.714 441.346C172.375 446.008 166.27 456.017 163.89 463.871C161.046 473.256 158.826 477.593 159.035 487.535C159.217 496.223 161.586 504.073 164.046 512.399C165.949 518.837 167.984 525.008 170.876 531.109" fill="#B3A9EC" fill-opacity="0.558598"/>
<path d="M194.676 436.481C194.676 436.481 187.497 436.401 179.714 441.346C172.375 446.008 166.27 456.017 163.89 463.871C161.046 473.256 158.826 477.593 159.035 487.535C159.217 496.223 161.586 504.073 164.046 512.399C165.949 518.837 167.984 525.008 170.876 531.109" stroke="#2E4166" stroke-miterlimit="10" stroke-linecap="round"/>
<path d="M207.023 433.669C197.21 433.669 193.07 436.984 193.07 436.984C193.07 436.984 181.776 447.974 176.341 458.866C170.905 469.757 174.336 476.976 172.37 486.664C170.404 496.351 171.002 488.09 171.343 493.58C171.81 501.096 166.788 493.437 169.749 500.134C176.781 516.035 184.516 531.66 193.839 545.865C196.463 549.866 200.802 552.149 204.906 553.707C209.084 555.296 211.259 556.581 215.576 555.632C219.15 554.846 226.718 552.683 240.569 547.906C251.67 544.076 234.08 519.143 236.395 505.448C239.62 486.372 247.526 478.196 249.328 458.866C249.916 452.558 246.454 440.219 239.524 435.262C232.594 430.305 218.406 433.432 218.406 433.432C218.406 433.432 213.054 435.296 207.023 433.669Z" fill="#B3A9EC" stroke="#2E4166" stroke-miterlimit="10" stroke-linecap="round"/>
<path d="M179.412 535.642C179.412 535.642 119.182 522.622 98.0404 534.076C88.0284 539.501 83.3657 554.149 88.8698 562.572C114.483 601.761 111.594 599.874 111.594 599.874C111.594 599.874 120.968 622.492 121.94 625.074C127.934 640.998 126.631 635.739 127.108 646.128C127.586 656.517 118.578 667.524 123.849 666.631C136.348 664.513 137.232 646.62 145.998 638.785C154.469 631.213 138.056 625.307 138.056 625.307C138.056 625.307 140.067 599.171 137.904 590.996C130.67 563.649 119.265 558.483 119.265 558.483C119.265 558.483 167.838 576.681 195.691 580.658" fill="#FFC6B2"/>
<path d="M179.412 535.642C179.412 535.642 119.182 522.622 98.0404 534.076C88.0284 539.501 83.3657 554.149 88.8698 562.572C114.483 601.761 111.594 599.874 111.594 599.874C111.594 599.874 120.968 622.492 121.94 625.074C127.934 640.998 126.631 635.739 127.108 646.128C127.586 656.517 118.578 667.524 123.849 666.631C136.348 664.513 137.232 646.62 145.998 638.785C154.469 631.213 138.056 625.307 138.056 625.307C138.056 625.307 140.067 599.171 137.904 590.996C130.67 563.649 119.265 558.483 119.265 558.483C119.265 558.483 167.838 576.681 195.691 580.658" stroke="#2E4166" stroke-miterlimit="10" stroke-linecap="round"/>
<path d="M206.711 592.757C193.967 593.841 182.291 589.535 165.595 584.017C148.899 578.5 139.927 570.686 139.927 570.686C139.927 570.686 154.552 545.206 153.628 532.407C175.194 533.183 158.722 533.067 180.288 533.844" fill="#E3CBA0"/>
<path d="M206.711 592.757C193.967 593.841 182.291 589.535 165.595 584.017C148.899 578.5 139.927 570.686 139.927 570.686C139.927 570.686 154.552 545.206 153.628 532.407C175.194 533.183 158.722 533.067 180.288 533.844" stroke="#2E4166" stroke-miterlimit="10" stroke-linecap="round"/>
<path d="M222.435 579.132C230.835 565.717 219.071 542.672 219.071 542.672C219.071 542.672 171.736 462.944 132.222 473.904C116.483 478.269 113.113 507.331 111.935 530.324C110.819 552.079 111.92 553.063 107.292 574.145C102.663 595.224 93.8392 614.978 93.8392 614.978C99.6694 620.485 114.295 602.476 118.215 598.377C122.136 594.279 130.198 591.401 131.295 588.994C134.751 581.408 126.395 578.308 126.901 574.83C128.534 563.63 133.151 553.6 133.151 553.6C133.151 553.6 148.991 530.328 145.287 515.509L167.981 553.763C167.981 553.763 184.702 580.424 199.528 584.821C214.353 589.218 214.035 592.546 222.435 579.132Z" fill="#FFC6B2" stroke="#2E4166" stroke-miterlimit="10" stroke-linecap="round"/>
<path d="M241.679 547.587C241.679 547.587 230.144 547.416 223.312 545.956C218.07 544.834 211.051 533.747 206.086 535.559C201.209 537.34 199.094 548.011 194.944 550.819C186.668 556.422 183.334 546.731 175.204 552.483C172.927 554.094 174.817 558.902 174.45 561.395C174.105 563.732 176.169 566.879 177.439 568.976C179.495 572.367 176.151 568.425 179.602 570.872C182.759 573.109 181.416 583.72 182.443 587.562C184.37 594.764 196.109 594.58 201.419 594.153C207.612 593.654 215.864 592.448 220.934 589.393C228.184 585.021 233.193 579.792 236.722 572.869C240.621 565.221 241.679 547.587 241.679 547.587Z" fill="#F6E2BD" stroke="#2E4166" stroke-miterlimit="10" stroke-linecap="round"/>
<path d="M220.22 544.271C220.22 544.271 211.15 527.633 207.89 523.545C199.076 512.491 193.268 506.958 193.268 506.958C193.268 506.958 187.644 518.511 179.08 527.4C170.517 536.289 159.015 542.515 159.015 542.515L167.491 558.544C167.491 558.544 173.033 568.707 179.923 578.744C181.65 581.26 184.061 584.864 189.875 588.197C195.689 591.53 203.223 592.065 203.223 592.065" fill="#F6E2BD"/>
<path d="M220.22 544.271C220.22 544.271 211.15 527.633 207.89 523.545C199.076 512.491 193.268 506.958 193.268 506.958C193.268 506.958 187.644 518.511 179.08 527.4C170.517 536.289 159.015 542.515 159.015 542.515L167.491 558.544C167.491 558.544 173.033 568.707 179.923 578.744C181.65 581.26 184.061 584.864 189.875 588.197C195.689 591.53 203.223 592.065 203.223 592.065" stroke="#2E4166" stroke-miterlimit="10" stroke-linecap="round"/>
<path d="M232.646 448.436C226.852 448.964 223.197 447.903 208.393 460.812C195.241 472.279 197.556 478.321 173.902 488.49C148.467 499.426 136.281 509.213 121.932 517.933C118.286 520.148 116.375 519.921 114.486 523.449C113.295 525.676 114.62 528.368 114.686 530.827C118.586 530.96 122.429 530.439 126.092 529.245C144.358 523.293 164.533 515.981 181.568 507.658C198.918 499.181 213.163 491.196 229.253 480.968C233.041 478.56 236.59 475.573 238.85 471.972C240.939 468.644 243.733 463.955 242.857 460.236C242.178 457.351 240.973 447.677 232.646 448.436Z" fill="#FFC6B2" stroke="#2E4166" stroke-miterlimit="10" stroke-linecap="round"/>
<path d="M115.622 521.39C115.622 521.39 104.545 526.132 101.371 528.283C97.9426 530.608 93.1991 536.12 90.1437 541.389C87.3515 546.206 86.0063 551.396 86.9729 553.367C89.0295 557.563 91.7772 547.293 93.0151 545.259C94.4123 542.962 97.5521 539.638 99.0372 537.937" fill="#FFC6B2"/>
<path d="M115.622 521.39C115.622 521.39 104.545 526.132 101.371 528.283C97.9426 530.608 93.1991 536.12 90.1437 541.389C87.3515 546.206 86.0063 551.396 86.9729 553.367C89.0295 557.563 91.7772 547.293 93.0151 545.259C94.4123 542.962 97.5521 539.638 99.0372 537.937" stroke="#2E4166" stroke-miterlimit="10" stroke-linecap="round"/>
<path d="M99.1487 537.996C92.9943 545.012 88.4235 557.82 91.3678 558.527C94.3924 559.252 97.3099 548.77 101.373 543.078" fill="#FFC6B2"/>
<path d="M99.1487 537.996C92.9943 545.012 88.4235 557.82 91.3678 558.527C94.3924 559.252 97.3099 548.77 101.373 543.078" stroke="#2E4166" stroke-miterlimit="10" stroke-linecap="round"/>
<path d="M102.287 540.723C97.5542 546.431 93.2726 557.755 95.4696 559.097C98.7058 561.072 101.079 550.79 102.824 547.175" fill="#FFC6B2"/>
<path d="M102.287 540.723C97.5542 546.431 93.2726 557.755 95.4696 559.096C98.7058 561.072 101.079 550.79 102.824 547.175" stroke="#2E4166" stroke-miterlimit="10" stroke-linecap="round"/>
<path d="M105.804 542.373C102.763 546.439 97.7122 555.379 101.137 557.399C102.977 558.484 103.722 555.501 103.722 555.501C103.722 555.501 107.336 547.689 110.19 544.027C113.382 539.931 114.202 540.083 118.659 537.853C121.101 536.631 126.395 530.891 126.395 530.891" fill="#FFC6B2"/>
<path d="M105.804 542.373C102.763 546.439 97.7122 555.379 101.137 557.399C102.977 558.484 103.722 555.501 103.722 555.501C103.722 555.501 107.336 547.689 110.19 544.027C113.382 539.931 114.202 540.083 118.659 537.853C121.101 536.631 126.395 530.891 126.395 530.891" stroke="#2E4166" stroke-miterlimit="10" stroke-linecap="round"/>
<path d="M116.14 524.255C111.486 524.255 107.327 526.731 104.747 530.601C103.131 533.025 103.79 537.741 106.346 539.446C108.033 540.57 109.748 539.544 111.543 539.246C114.013 538.835 116.013 536.859 118.089 535.548C120.414 534.08 123.283 533.181 125.217 531.246C126.399 530.064 129.05 525.819 129.05 525.819" fill="#FFC6B2"/>
<path d="M116.14 524.255C111.486 524.255 107.327 526.731 104.747 530.601C103.131 533.025 103.79 537.741 106.346 539.446C108.033 540.57 109.748 539.544 111.543 539.246C114.013 538.835 116.013 536.859 118.089 535.548C120.414 534.08 123.283 533.181 125.217 531.246C126.399 530.064 129.05 525.819 129.05 525.819" stroke="#FFC6B2" stroke-miterlimit="10" stroke-linecap="round"/>
<path d="M150.086 578.183C149.287 575.787 147.974 573.532 146.988 571.211C144.107 564.435 140.466 556.423 134.423 551.849C123.602 543.661 116.093 555.473 116.093 565.361" stroke="#2E4166" stroke-miterlimit="10" stroke-linecap="round"/>
<path d="M170.574 569.192C171.177 565.504 165.739 559.102 163.43 556.123C158.583 549.865 148.268 542.45 141.024 539.55C138.33 538.473 135.494 537.565 132.686 536.875C131.849 536.67 130.409 536.495 129.705 535.985" stroke="#2E4166" stroke-miterlimit="10" stroke-linecap="round"/>
<path d="M202.423 488.428C202.778 487.484 201.571 490.259 201.224 491.206C200.443 493.338 199.661 495.471 198.965 497.632C197.063 503.544 195.07 509.488 193.852 515.59C190.157 534.11 188.552 553.188 190.52 571.988" stroke="#2E4166" stroke-miterlimit="10" stroke-linecap="round"/>
<path d="M185.445 524.763C186.85 525.396 191.526 531.047 191.204 533.076" stroke="#2E4166" stroke-miterlimit="10" stroke-linecap="round"/>
<path d="M190.209 543.511C191.568 540.022 194.866 537.545 197.832 535.466" stroke="#2E4166" stroke-miterlimit="10" stroke-linecap="round"/>
<path d="M192.563 524.029C193.764 520.947 198.045 519.232 200.72 517.755" stroke="#2E4166" stroke-miterlimit="10" stroke-linecap="round"/>
<path d="M193.908 514.787C193.718 512.115 191.821 508.902 190.206 506.816" stroke="#2E4166" stroke-miterlimit="10" stroke-linecap="round"/>
<path d="M196.959 504.604C196.575 504.54 197.241 503.863 198.258 502.996C199.239 502.159 200.936 500.886 202.16 500.512" stroke="#2E4166" stroke-miterlimit="10" stroke-linecap="round"/>
<path d="M198.413 498.682C198.716 496.885 198.943 493.498 197.415 492.061" stroke="#2E4166" stroke-miterlimit="10" stroke-linecap="round"/>
<path d="M215.42 517.995C215.999 517.127 217.141 516.659 218.088 516.343C221.458 515.22 221.768 519.856 221.264 522.124C220.012 527.76 217.666 533.044 216.5 538.703C214.7 547.445 214.468 556.416 214.468 565.319" stroke="#2E4166" stroke-miterlimit="10" stroke-linecap="round"/>
<path d="M226.898 517.818C226.674 517.146 225.113 517.287 224.615 517.418C222.658 517.933 222.153 519.327 221.591 521.013" stroke="#2E4166" stroke-miterlimit="10" stroke-linecap="round"/>
<path d="M226.213 526.037C226.213 525.247 226.567 524.71 226.213 523.868C224.536 519.886 219.656 521.801 218.109 524.895C215.898 529.318 216.08 534.49 215.712 539.275C215.576 541.043 215.938 543.166 215.37 544.869" stroke="#2E4166" stroke-miterlimit="10" stroke-linecap="round"/>
<path d="M249.054 547.727C249.458 546.102 247.302 549.878 246.67 550.582C244.989 552.458 242.596 554.088 240.394 555.226C231.709 559.719 222.902 564.703 216.469 572.228" stroke="#2E4166" stroke-miterlimit="10" stroke-linecap="round"/>
<path d="M232.837 572.419C232.803 572.421 232.757 572.335 232.79 572.33C233.774 572.146 234.759 571.961 235.752 571.838C238.345 571.511 238.107 571.64 240.497 571.691C244.503 571.775 248.22 571.693 252.238 572.421C266.439 574.994 277.959 580.851 288.558 590.577" stroke="#2E4166" stroke-miterlimit="10" stroke-linecap="round"/>
<path d="M211.939 561.395C210.995 560.922 208.673 562.183 207.728 562.657C202.397 565.323 199.864 569.403 198.042 574.87" stroke="#2E4166" stroke-miterlimit="10" stroke-linecap="round"/>
<path d="M238.797 573.048L142.353 573.062C142.224 573.062 142.103 573.09 141.977 573.104L139.225 573.109C136.941 573.109 135.094 575.289 135.096 577.972C135.097 580.23 136.415 582.117 138.191 582.66C136.055 588.429 135.825 598.081 136.234 611.598C137.406 650.334 167.123 683.017 181.495 696.621L181.513 723.212C181.516 727.382 184.899 730.757 189.07 730.755C192.728 730.753 195.776 728.152 196.469 724.697C196.568 724.212 196.618 723.713 196.619 723.198V723.179L196.615 696.595C210.975 682.982 240.675 650.276 241.818 611.535C242.217 598.011 241.981 588.356 239.838 582.59C241.615 582.047 242.932 580.167 242.932 577.907C242.931 575.224 241.081 573.046 238.797 573.048Z" fill="#FFAAC9" stroke="#294064" stroke-miterlimit="10" stroke-linecap="round"/>
<path d="M139.991 572.954H238.17C240.969 572.954 243.239 575.224 243.239 578.025C243.239 580.824 240.969 583.094 238.17 583.094H139.991C137.191 583.094 134.922 580.824 134.922 578.025C134.922 575.224 137.191 572.954 139.991 572.954Z" fill="#FFAAC9" stroke="#294064" stroke-miterlimit="10"/>
<path d="M214.345 663.615C217.85 667.924 229.859 638.326 229.859 638.326C229.859 638.326 235.528 620.422 234.023 611.626C232.518 602.832 220.696 600.947 215.946 605.048C211.196 609.151 217.874 615.708 217.474 630.349C217.074 644.99 210.841 659.307 214.345 663.615Z" fill="white" fill-opacity="0.500022" stroke="white" stroke-opacity="0.489288" stroke-miterlimit="10" stroke-linecap="round"/>
<path d="M125.61 514.312C125.61 514.312 120.321 517.777 117.711 519.562C114.045 522.071 121.015 527.937 122.934 529.526C122.936 529.528 125.3 531.356 126.061 531.381C127.348 531.424 128.327 530.156 129.49 529.604C130.711 529.024 134.998 527.713 134.998 527.713C134.998 527.713 131.252 524.869 128.905 521.519C126.558 518.168 125.61 514.312 125.61 514.312Z" fill="#B3A9EC" stroke="#2E4166" stroke-miterlimit="10" stroke-linecap="round"/>
<path d="M233.581 440.087C228.375 438.161 223.305 439.525 217.781 443C212.257 446.476 208.073 449.727 204.776 453.318C199.011 459.596 193.727 466.363 187.909 472.584C185.827 474.81 183.705 477.124 181.109 478.622C177.982 480.427 174.447 481.307 171.021 482.329C162.818 484.778 154.44 486.533 146.249 489.026C141.069 490.603 135.925 492.976 131.724 496.56C129.882 498.132 128.408 500.196 127.181 502.34C120.022 514.849 132.547 530.055 144.282 531.834C148.479 532.47 151.805 530.423 155.418 528.309C161.184 524.936 166.451 520.586 172.423 517.646C184.229 511.833 196.616 507.45 208.621 502.114C223.114 495.671 237.227 485.108 242.735 468.862C244.899 462.479 247.105 457.05 244.536 450.179C241.986 443.362 238.786 442.013 233.581 440.087Z" fill="#B3A9EC" fill-opacity="0.560811" stroke="#294064" stroke-miterlimit="10" stroke-linecap="round"/>
<path d="M201.023 415.145C202.192 421.112 205.263 434.87 205.263 434.87C205.263 434.87 198.297 440.153 195.018 444.033C192.795 446.665 191.516 450.156 199.557 447.411C207.598 444.667 227.871 432.367 227.871 432.367C227.871 432.367 222.546 429.056 221.167 426.416C218.54 421.39 218.118 414.772 215.939 409.537" fill="#FFC6B2"/>
<path d="M201.023 415.145C202.192 421.112 205.263 434.87 205.263 434.87C205.263 434.87 198.297 440.153 195.018 444.033C192.795 446.665 191.516 450.156 199.557 447.411C207.598 444.667 227.871 432.367 227.871 432.367C227.871 432.367 222.546 429.056 221.167 426.416C218.54 421.39 218.118 414.772 215.939 409.537" stroke="#2E4166" stroke-miterlimit="10" stroke-linecap="round"/>
<path d="M213.254 375.381C213.254 375.381 197.514 368.819 191.788 375.321C182.149 386.267 185.962 389.049 186.147 393.01C186.261 395.45 180.088 400.319 180.088 400.319C178.886 402.34 183.816 403.563 184.389 404.909C185.995 408.684 185.787 410.635 188.052 414.027C190.01 416.959 193.534 420.328 199.045 420.296C208.134 420.243 217.695 416.351 217.695 416.351C217.695 416.351 220.81 412.238 225.322 409.812C228.18 408.275 224.578 406.974 226.58 404.419C228.385 402.114 228.186 401.147 228.287 398.221C228.555 390.439 231.381 392.268 228.128 385.193C226.422 381.482 213.254 375.381 213.254 375.381Z" fill="#FFC6B2" stroke="#2E4166" stroke-miterlimit="10" stroke-linecap="round"/>
<path d="M189.686 387.542C189.923 386.763 190.817 386.243 191.679 385.95C194.787 384.893 199.048 386.804 199.048 386.804" stroke="#2E4166" stroke-miterlimit="10" stroke-linecap="round"/>
<path d="M190.264 392.073C190.264 392.073 190.972 393.079 192.586 392.871C194.199 392.664 195.522 392.12 196.718 391.243" stroke="#2E4166" stroke-miterlimit="10" stroke-linecap="round"/>
<path d="M187.466 407.395C187.466 407.395 187.913 407.828 190.225 407.543C192.537 407.259 193.305 405.984 193.305 405.984" stroke="#2E4166" stroke-miterlimit="10" stroke-linecap="round"/>
<path d="M196.584 399.587C196.388 398.773 197.943 397.7 200.057 397.191C202.171 396.682 204.043 396.929 204.239 397.743C204.435 398.557 202.88 399.629 200.767 400.138C198.653 400.647 196.78 400.4 196.584 399.587Z" fill="#FF7CAB" stroke="#FF7CAB" stroke-miterlimit="10"/>
<path d="M176.993 400.54C178.531 402.261 181.047 402.654 181.047 402.654C181.047 402.654 181.716 404.779 182.198 407.107C183.043 411.189 185.384 414.886 188.879 417.591C193.221 420.952 200.877 420.833 206.345 420.345C210.364 419.987 210.621 419.472 214.542 420.6C217.719 421.514 221.309 425.677 223.615 427.938C226.427 430.692 229.106 432.785 231.993 435.472C230.134 428.437 231.033 423.828 231.181 416.369C231.21 414.939 222.307 414.325 222.795 411.651C224.155 404.199 228.899 396.697 221.468 390.305C218.177 387.474 214.237 385.36 210.878 382.6C209.198 381.219 208.187 379.2 206.408 377.932C204.687 376.706 207.623 373.338 205.753 372.324C204.128 371.443 190.006 371.772 188.19 373.03C179.384 381.308 184.743 387.056 181.686 393.226C178.629 399.396 175.251 398.592 176.993 400.54Z" fill="#FFC6B2" stroke="#2E4166" stroke-miterlimit="10" stroke-linecap="round"/>
<path d="M189.502 392.189C189.046 392.126 188.784 391.333 188.916 390.419C189.049 389.506 189.526 388.817 189.982 388.88C190.438 388.944 190.701 389.736 190.568 390.65C190.436 391.564 189.959 392.253 189.502 392.189Z" fill="#294064" stroke="#2E4166" stroke-miterlimit="10" stroke-linecap="round"/>
<path d="M186.929 385.379C189.112 383.876 192.85 385.997 194.214 387.722" stroke="#2E4166" stroke-miterlimit="10" stroke-linecap="round"/>
<path d="M213.229 400.679C209.177 400.861 205.692 397.928 205.445 394.13C205.198 390.332 208.283 387.106 212.335 386.924C216.387 386.743 219.872 389.676 220.119 393.474C220.239 395.325 219.568 397.04 218.38 398.333C217.129 399.693 215.306 400.587 213.229 400.679Z" fill="#FFC6B2" stroke="#2E4166" stroke-miterlimit="10" stroke-linecap="round"/>
<path d="M212.581 396.598C210.828 396.676 209.313 395.305 209.198 393.535C209.083 391.765 210.411 390.267 212.164 390.188C213.917 390.11 215.431 391.481 215.546 393.251C215.661 395.021 214.334 396.52 212.581 396.598Z" fill="#E4AC98" stroke="#E4AC98" stroke-miterlimit="10"/>
<path d="M196.951 397.737C194.433 397.887 192.305 397.224 192.199 396.255C192.093 395.287 194.049 394.38 196.567 394.23C199.085 394.079 201.213 394.742 201.319 395.711C201.425 396.679 199.47 397.586 196.951 397.737Z" fill="#FF92B9"/>
<path d="M213.972 389.242C213.545 388.851 212.301 389.387 211.86 389.585C209.795 390.511 209.182 392.057 208.248 393.879" stroke="#294064" stroke-miterlimit="10" stroke-linecap="round"/>
<path d="M211.828 389.968C213.896 390.234 215.495 391.775 216.161 393.546" stroke="#294064" stroke-miterlimit="10" stroke-linecap="round"/>
<path d="M213.917 415.257C212.102 415.257 209.914 416.488 208.486 417.461C207.044 418.445 204.815 420.289 204.235 422.027C203.818 423.278 205.206 424.795 205.889 425.648C208.229 428.573 211.675 431.804 215.413 432.653C219.611 433.607 226.212 431.155 225.803 426.041C225.479 421.992 220.336 418.497 216.908 417.461C213.57 416.452 210.208 418.323 207.226 419.665C206.403 420.036 205.072 421.771 204.157 421.161" fill="#FFC6B2"/>
<path d="M213.917 415.257C212.102 415.257 209.914 416.488 208.486 417.461C207.044 418.445 204.815 420.289 204.235 422.027C203.818 423.278 205.206 424.795 205.889 425.648C208.229 428.573 211.675 431.804 215.413 432.653C219.611 433.607 226.212 431.155 225.803 426.041C225.479 421.992 220.336 418.497 216.908 417.461C213.57 416.452 210.208 418.323 207.226 419.665C206.403 420.036 205.072 421.771 204.157 421.161" stroke="#FFC6B2" stroke-miterlimit="10" stroke-linecap="round"/>
<path d="M204.34 393.738C198.236 386.874 183.852 374.907 185.406 367.858C186.959 360.808 193.385 362.908 201.858 361.031C209.33 359.375 218.109 359.366 225.937 362.89C233.766 366.413 238.671 372.695 241.99 381.055C242.795 383.083 242.666 384.857 248.412 384.519C256.552 384.04 272.66 390.18 272.407 406.233C271.731 410.457 270.277 413.533 271.9 415.02C273.522 416.507 286.685 415.949 294.627 428.369C300.981 438.305 297.951 449.717 295.303 452.956C294.768 453.885 294.205 455.879 296.233 456.42C298.767 457.096 302.316 462.996 301.049 470.107C299.781 477.218 293.952 483.71 285.841 484.048C277.729 484.386 285.841 494.53 272.998 497.452C271.265 497.85 269.32 498.214 267.136 498.544C252.803 500.712 257.644 506.76 236.666 508.148C236.666 508.148 236.264 504.782 237.98 497.707C240.63 486.78 245.196 471.059 239.749 466.245C238.36 465.017 221.377 458.223 218.076 444.771C214.776 431.32 220.541 424.28 220.541 424.28C220.541 424.28 217.059 421.249 215.57 415.653C214.081 410.058 214.136 398.418 214.136 398.418C214.136 398.418 210.444 400.601 204.34 393.738Z" fill="#2F2F2F"/>
<path d="M201.858 361.031C209.33 359.375 218.109 359.366 225.937 362.89C233.766 366.413 238.671 372.695 241.99 381.055C242.795 383.083 242.666 384.857 248.412 384.519C256.552 384.04 272.66 390.18 272.407 406.233C271.731 410.457 270.277 413.533 271.9 415.02C273.522 416.507 286.685 415.949 294.627 428.369C300.981 438.305 297.951 449.717 295.303 452.956C294.768 453.885 294.205 455.879 296.233 456.42C298.767 457.096 302.316 462.996 301.049 470.107C299.781 477.218 293.952 483.71 285.841 484.048C277.729 484.386 285.841 494.53 272.998 497.452C271.265 497.85 269.32 498.214 267.136 498.544C252.803 500.712 257.644 506.76 236.666 508.148C236.666 508.148 236.264 504.782 237.98 497.707C240.63 486.78 245.196 471.059 239.749 466.245C238.36 465.017 221.377 458.223 218.076 444.771C214.776 431.32 220.541 424.28 220.541 424.28C220.541 424.28 217.059 421.249 215.57 415.653C214.081 410.058 214.136 398.418 214.136 398.418C214.136 398.418 210.444 400.601 204.34 393.738C198.236 386.874 183.852 374.907 185.406 367.858C186.959 360.808 193.385 362.908 201.858 361.031ZM201.858 361.031C206.336 357.989 217.961 353.731 228.641 361.031C239.32 368.331 242.328 377.253 242.497 380.801" stroke="#2E4166" stroke-miterlimit="10" stroke-linecap="round"/>
<path d="M148.777 543.558C148.364 542.494 147.127 541.979 146.278 541.214C144.471 539.59 143.021 538.254 140.883 537.062C138.806 535.907 136.747 535.498 134.479 535.032C132.86 534.7 122.777 532.668 127.931 537.363C128.204 537.612 128.521 537.808 128.82 538.027C129.145 538.263 129.895 538.669 130.06 538.76C134.406 541.134 138.864 542.156 143.686 542.921C144.139 542.993 148.794 543.6 148.777 543.558Z" fill="#5D569A" stroke="#2E4166" stroke-miterlimit="10" stroke-linecap="round"/>
<path d="M152.793 546.162C152.072 546.013 152.883 544.172 152.512 543.374C152.045 542.367 151.187 541.45 150.636 540.491C148.856 537.394 148.466 533.386 148.621 529.902C148.713 527.851 149.099 525.772 149.498 523.759C149.553 523.482 149.565 522.829 149.809 522.971C150.845 523.572 151.487 525.797 151.954 526.866C153.715 530.9 154.588 535.918 154.162 540.317C154.075 541.222 153.801 546.369 152.793 546.162Z" fill="#5D569A" stroke="#2E4166" stroke-miterlimit="10" stroke-linecap="round"/>
<path d="M157.574 550.215C157.639 550.089 157.569 550.226 157.276 550.142C156.88 550.031 156.494 549.888 156.099 549.774C155.785 549.683 155.466 549.606 155.149 549.524C153.782 549.179 152.353 548.797 150.953 548.673C146.752 548.297 143.224 549.116 139.227 550.443C138.678 550.625 136.736 550.994 136.405 551.442C136.058 551.913 137.549 551.698 138.111 551.862C138.834 552.074 139.547 552.319 140.271 552.526C141.44 552.862 142.272 553.011 143.47 553.165C147.988 553.744 151.716 554 155.631 551.512C156.074 551.232 157.303 550.735 157.574 550.215Z" fill="#5D569A" stroke="#2E4166" stroke-miterlimit="10" stroke-linecap="round"/>
<path d="M162.339 553.946C159.582 551.389 161.419 546.344 161.613 543.393C161.618 543.319 161.786 539.762 162.036 539.666C163.64 539.06 164.579 542.878 164.811 543.694C165.476 546.039 165.736 548.95 164.921 551.301C164.728 551.858 163.15 554.699 162.339 553.946Z" fill="#5D569A" stroke="#2E4166" stroke-miterlimit="10" stroke-linecap="round"/>
<path d="M166.318 560.193C166.027 559.383 163.421 559.374 162.425 558.882C156.97 556.197 152.877 555.838 147.213 558.189C146.625 558.434 144.63 558.807 144.291 559.444C144.092 559.817 145.054 559.815 145.462 559.924C146.772 560.274 148.032 560.664 149.381 560.834C152.134 561.179 154.74 561.525 157.534 561.424C159.174 561.366 160.803 560.909 162.437 560.781C162.812 560.753 166.471 560.62 166.318 560.193Z" fill="#5D569A" stroke="#2E4166" stroke-miterlimit="10" stroke-linecap="round"/>
<path d="M167.162 565.562C164.743 563.024 158.277 565.051 155.322 565.674C155.234 565.692 150.239 567.46 151.07 567.656C155.219 568.636 159.951 570.637 164.038 568.447C164.79 568.043 167.856 566.292 167.162 565.562Z" fill="#5D569A" stroke="#2E4166" stroke-miterlimit="10" stroke-linecap="round"/>
<path d="M156.517 530.862C154.362 530.16 154.612 524.66 154.636 522.843C154.639 522.555 154.512 519.794 154.822 519.877C156.139 520.226 157.347 522.697 158.054 523.75C160.052 526.726 161.551 529.98 162.017 533.548C162.095 534.148 162.605 536.429 162.11 537.131C161.61 537.842 160.022 536.511 159.725 536.217C157.806 534.324 156.25 532.207 155.784 529.522" fill="#5D569A"/>
<path d="M156.517 530.862C154.362 530.16 154.612 524.66 154.636 522.843C154.639 522.555 154.512 519.794 154.822 519.877C156.139 520.226 157.347 522.697 158.054 523.75C160.052 526.726 161.551 529.98 162.017 533.548C162.095 534.148 162.605 536.429 162.11 537.131C161.61 537.842 160.022 536.511 159.725 536.217C157.806 534.324 156.25 532.207 155.784 529.522" stroke="#2E4166" stroke-miterlimit="10" stroke-linecap="round"/>
<path d="M206.609 559.302C205.156 558.651 203.815 558.651 202.428 557.692C196.273 553.438 200.121 545.003 200.142 538.922C200.15 536.639 199.821 534.924 199.173 532.782C199.057 532.4 198.665 531.137 199.278 531.049C200.89 530.816 202.825 532.326 204.208 533.039C212.008 537.063 213.741 542.279 214.238 550.844C214.383 553.34 213.877 558.669 211.22 559.924" fill="#5D569A"/>
<path d="M206.609 559.302C205.156 558.651 203.815 558.651 202.428 557.692C196.273 553.438 200.121 545.003 200.142 538.922C200.15 536.639 199.821 534.924 199.173 532.782C199.057 532.4 198.665 531.137 199.278 531.049C200.89 530.816 202.825 532.326 204.208 533.039C212.008 537.063 213.741 542.279 214.238 550.844C214.383 553.34 213.877 558.669 211.22 559.924" stroke="#2E4166" stroke-miterlimit="10" stroke-linecap="round"/>
<path d="M219.013 571.538C219.767 571.916 217.177 571.239 217.044 571.22C215.378 570.987 213.565 571.479 212.065 572.132C207.679 574.041 206.77 578.992 204.531 582.617C204.022 583.441 203.55 584.243 202.937 584.987C202.714 585.26 202.062 585.517 202.266 585.803C202.981 586.809 205.319 585.428 206.102 585.129C209.587 583.807 212.854 582.477 215.427 579.653C216.881 578.057 217.775 575.363 218.417 573.362C218.612 572.753 218.442 571.251 219.013 571.538Z" fill="#5D569A" stroke="#2E4166" stroke-miterlimit="10" stroke-linecap="round"/>
<path d="M224.31 580.315C223.184 579.601 220.772 580.147 219.583 580.485C217.96 580.945 215.562 581.665 214.137 582.526C212.094 583.758 210.811 586.517 209.037 588.133C207.918 589.155 206.798 590.051 205.375 590.59C205.276 590.629 205.095 590.576 205.072 590.678C204.905 591.406 206.886 591.693 208.177 591.991C210.225 592.467 212.314 592.302 214.362 591.968C222.188 590.692 224.966 586.792 226.281 579.454" fill="#5D569A"/>
<path d="M224.31 580.315C223.184 579.601 220.772 580.147 219.583 580.485C217.96 580.945 215.562 581.665 214.137 582.526C212.094 583.758 210.811 586.517 209.037 588.133C207.918 589.155 206.798 590.051 205.375 590.59C205.276 590.629 205.095 590.576 205.072 590.678C204.905 591.406 206.886 591.693 208.177 591.991C210.225 592.467 212.314 592.302 214.362 591.968C222.188 590.692 224.966 586.792 226.281 579.454" stroke="#2E4166" stroke-miterlimit="10" stroke-linecap="round"/>
<path d="M227.706 581.076C227.358 580.664 227.4 582.114 227.273 582.639C227.013 583.71 226.759 584.783 226.513 585.858C225.336 591.02 225.055 596.152 227.433 601.082C228.14 602.547 229.112 603.912 230.047 605.239C230.312 605.615 230.588 605.985 230.843 606.368C230.874 606.412 231.251 606.844 231.256 606.818C231.522 605.65 231.503 604.462 231.938 603.275C232.456 601.857 234.092 601.038 234.666 599.625C235.969 596.415 235.489 593.007 234.108 589.884C233.511 588.533 232.85 586.863 231.904 585.706C230.836 584.403 228.827 582.406 227.706 581.076Z" fill="#5D569A" stroke="#2E4166" stroke-miterlimit="10" stroke-linecap="round"/>
<path d="M231.235 584.848C232.722 584.556 235.542 587.038 236.433 587.819C239.523 590.53 240.189 594.78 243.611 597.325C245.569 598.778 247.21 599.673 249.47 600.562C250.036 600.786 250.638 600.907 251.227 601.061C251.343 601.089 251.632 601.238 251.579 601.131C251.037 600.04 249.355 599.571 248.858 597.915C248.405 596.405 248.567 594.997 248.477 593.466C248.237 589.403 245.99 584.827 242.244 583.108C240.999 582.536 239.432 581.65 237.983 581.955C235.88 582.399 233.985 582.588 231.915 583.245" fill="#5D569A"/>
<path d="M231.235 584.848C232.722 584.556 235.542 587.038 236.433 587.819C239.523 590.53 240.189 594.78 243.611 597.325C245.569 598.778 247.21 599.673 249.47 600.562C250.036 600.786 250.638 600.907 251.227 601.061C251.343 601.089 251.632 601.238 251.579 601.131C251.037 600.04 249.355 599.571 248.858 597.915C248.405 596.405 248.567 594.997 248.477 593.466C248.237 589.403 245.99 584.827 242.244 583.108C240.999 582.536 239.432 581.65 237.983 581.955C235.88 582.399 233.985 582.588 231.915 583.245" stroke="#2E4166" stroke-miterlimit="10" stroke-linecap="round"/>
<path d="M257.05 573.616C257.271 569.166 267.574 564.319 271.822 564.615C271.866 564.62 270.912 565.938 270.747 566.094C269.863 566.936 268.937 567.692 267.959 568.417C265.314 570.383 262.622 571.781 259.529 572.926C258.727 573.224 257.006 574.498 257.05 573.616Z" fill="#5D569A" stroke="#2E4166" stroke-miterlimit="10" stroke-linecap="round"/>
<path d="M269.581 577.976C268.795 578.121 270.728 576.985 271.379 576.61C272.874 575.749 274.351 574.851 275.89 574.072C277.822 573.092 280.261 572.553 282.4 572.283C285.05 571.949 286.487 571.653 289.151 572.161C289.508 572.229 290.312 572.362 290.116 572.67C289.391 573.801 286.653 574.202 285.358 574.618C283.205 575.306 281.017 576.061 278.799 576.526C275.762 577.16 272.608 577.417 269.581 577.976Z" fill="#5D569A" stroke="#2E4166" stroke-miterlimit="10" stroke-linecap="round"/>
<path d="M279.825 583.52C278.948 582.878 282.013 583.644 283.063 583.928C284.558 584.332 285.955 584.971 287.308 585.71C290.574 587.499 293.002 589.692 295.477 592.479C295.848 592.894 297.177 595.467 295.323 594.947C288.978 593.167 284.878 587.222 279.825 583.52Z" fill="#5D569A" stroke="#2E4166" stroke-miterlimit="10" stroke-linecap="round"/>
<path d="M271.272 579.043C271.869 584.774 274.25 590.002 277.166 594.963C277.497 595.525 280.749 599.861 280.723 597.051C280.665 590.438 272.751 586.113 271.703 580.032" fill="#5D569A"/>
<path d="M271.272 579.043C271.869 584.774 274.25 590.002 277.166 594.963C277.497 595.525 280.749 599.861 280.723 597.051C280.665 590.438 272.751 586.113 271.703 580.032" stroke="#2E4166" stroke-miterlimit="10" stroke-linecap="round"/>
<path d="M261.72 574.839C260.278 575.779 261.326 579.095 261.615 580.656C262.2 583.802 263.318 587.451 265.531 589.855C267.141 591.605 269.263 592.482 270.222 590.119C270.357 589.785 270.453 589.396 270.364 589.048C269.916 587.292 268.484 585.288 267.568 583.76C266.761 582.419 265.674 581.323 264.671 580.14C263.686 578.981 262.597 577.768 262.103 576.294C261.848 575.538 262.301 574.458 261.72 574.839Z" fill="#5D569A" stroke="#2E4166" stroke-miterlimit="10" stroke-linecap="round"/>
<path d="M252.84 574.796C251.849 578.316 254.086 581.405 256.114 584.029C257.27 585.524 257.454 585.692 257.996 587.679C258.018 587.763 258.01 587.91 257.927 587.926C256.312 588.204 255.022 586.928 254.084 585.785C250.858 581.852 251.132 576.975 253.097 572.382" fill="#5D569A"/>
<path d="M252.84 574.796C251.849 578.316 254.086 581.405 256.114 584.029C257.27 585.524 257.454 585.692 257.996 587.679C258.018 587.763 258.01 587.91 257.927 587.926C256.312 588.204 255.022 586.928 254.084 585.785C250.858 581.852 251.132 576.975 253.097 572.382" stroke="#2E4166" stroke-miterlimit="10" stroke-linecap="round"/>
<path d="M243.182 563.138C243.443 561.838 245.585 558.892 246.371 557.92C251.294 551.825 260.987 555.237 267.444 556.058C270.238 556.413 273.133 556.441 275.939 556.128C276.188 556.103 278.204 555.536 278.078 556.431C277.621 559.704 272.274 561.216 269.639 562.309C267.889 563.037 266.217 563.69 264.402 564.292C260.857 565.468 257.301 565.953 253.605 566.293C248.499 566.765 243.923 565.262 239.768 562.44" fill="#5D569A"/>
<path d="M243.182 563.138C243.443 561.838 245.585 558.892 246.371 557.92C251.294 551.825 260.987 555.237 267.444 556.058C270.238 556.413 273.133 556.441 275.939 556.128C276.188 556.103 278.204 555.536 278.078 556.431C277.621 559.704 272.274 561.216 269.639 562.309C267.889 563.037 266.217 563.69 264.402 564.292C260.857 565.468 257.301 565.953 253.605 566.293C248.499 566.765 243.923 565.262 239.768 562.44" stroke="#2E4166" stroke-miterlimit="10" stroke-linecap="round"/>
<path d="M227.502 561.039C226.157 558.214 227.868 555.226 229.183 552.756C231.436 548.527 234.639 544.872 236.972 540.669C237.313 540.055 240.661 534.333 241.953 535.251C242.611 535.717 241.663 536.836 241.483 537.622C241.082 539.386 240.716 541.387 240.599 543.199C240.349 547.085 241.337 550.729 241.731 554.547C242.286 559.921 240.995 564.486 237.505 568.519" fill="#5D569A"/>
<path d="M227.502 561.039C226.157 558.214 227.868 555.226 229.183 552.756C231.436 548.527 234.639 544.872 236.972 540.669C237.313 540.055 240.661 534.333 241.953 535.251C242.611 535.717 241.663 536.836 241.483 537.622C241.082 539.386 240.716 541.387 240.599 543.199C240.349 547.085 241.337 550.729 241.731 554.547C242.286 559.921 240.995 564.486 237.505 568.519" stroke="#2E4166" stroke-miterlimit="10" stroke-linecap="round"/>
<path d="M200.269 561.795C198.096 555.253 194.588 553.433 188.218 553.333C186.625 553.307 185.355 553.258 183.906 552.491C183.557 552.307 182.736 551.663 182.806 552.05C183.785 557.464 195.575 565.777 200.051 560.034" fill="#5D569A"/>
<path d="M200.269 561.795C198.096 555.253 194.588 553.433 188.218 553.333C186.625 553.307 185.355 553.258 183.906 552.491C183.557 552.307 182.736 551.663 182.806 552.05C183.785 557.464 195.575 565.777 200.051 560.034" stroke="#2E4166" stroke-miterlimit="10" stroke-linecap="round"/>
<path d="M175.79 593.061C173.301 593.441 169.063 599.295 169.172 602.143C169.26 604.474 169.816 606.608 170.278 608.88C170.593 610.426 170.882 611.639 170.578 613.179C170.552 613.312 170.033 614.415 170.368 614.445C171.84 614.58 173.545 612.101 174.484 611.257C178.789 607.387 181.252 601.994 178.839 596.328C178.262 594.973 177.271 592.834 175.79 593.061Z" fill="#5D569A" stroke="#2E4166" stroke-miterlimit="10" stroke-linecap="round"/>
<path d="M166.898 586.086C166.404 584.15 163.095 585.052 161.709 585.306C158.51 585.894 156.237 588.885 153.534 590.501C152.743 590.972 151.865 591.28 151.029 591.665C150.845 591.749 148.165 591.854 148.801 592.715C149.495 593.652 151.363 594.417 152.402 594.991C156.969 597.513 163.797 598.364 167.79 594.219C169.868 592.064 169.865 588.992 169.914 586.237" fill="#5D569A"/>
<path d="M166.898 586.086C166.404 584.15 163.095 585.052 161.709 585.306C158.51 585.894 156.237 588.885 153.534 590.501C152.743 590.972 151.865 591.28 151.029 591.665C150.845 591.749 148.165 591.854 148.801 592.715C149.495 593.652 151.363 594.417 152.402 594.991C156.969 597.513 163.797 598.364 167.79 594.219C169.868 592.064 169.865 588.992 169.914 586.237" stroke="#2E4166" stroke-miterlimit="10" stroke-linecap="round"/>
<path d="M145.429 567.582C143.864 565.879 143.036 563.059 141.214 561.207C137.448 557.382 131.697 556.589 126.937 554.681C125.074 553.932 123.152 553.239 121.306 552.537C121.213 552.502 120.865 552.509 120.804 552.67C120.31 553.969 123.028 556.801 124.152 557.424C126.259 558.59 128.772 558.746 130.647 560.346C132.501 561.928 133.787 564.118 135.43 565.905C137.252 567.885 139.499 569.464 141.803 570.843C143.684 571.969 145.621 572.627 147.78 572.923" fill="#5D569A"/>
<path d="M145.429 567.582C143.864 565.879 143.036 563.059 141.214 561.207C137.448 557.382 131.697 556.589 126.937 554.681C125.074 553.932 123.152 553.239 121.306 552.537C121.213 552.502 120.865 552.509 120.804 552.67C120.31 553.969 123.028 556.801 124.152 557.424C126.259 558.59 128.772 558.746 130.647 560.346C132.501 561.928 133.787 564.118 135.43 565.905C137.252 567.885 139.499 569.464 141.803 570.843C143.684 571.969 145.621 572.627 147.78 572.923" stroke="#2E4166" stroke-miterlimit="10" stroke-linecap="round"/>
<path d="M211.437 558.206C212.82 557.053 212.452 550.424 210.985 548.906C209.826 547.705 209.272 549.82 208.586 549.893C207.98 549.956 207.381 549.361 206.768 549.342C206.356 549.33 205.764 549.326 205.498 549.701C205.409 549.827 205.234 550.695 204.973 550.665C204.095 550.562 203.693 550.494 202.933 551.273C201.949 552.283 203.819 555.197 204.408 556.179C205.242 557.571 207.692 561.376 209.899 559.815C210.499 559.391 210.872 558.677 211.437 558.206Z" fill="#FAE9D5" stroke="#2E4166" stroke-miterlimit="10" stroke-linecap="round"/>
<path d="M150.284 565.871C151.759 564.84 151.954 558.201 150.621 556.564C149.568 555.269 148.836 557.331 148.148 557.343C147.538 557.355 146.991 556.711 146.382 556.641C145.973 556.594 145.383 556.541 145.086 556.893C144.986 557.01 144.739 557.861 144.481 557.807C143.615 557.632 143.221 557.53 142.398 558.241C141.332 559.165 142.948 562.225 143.451 563.254C144.165 564.712 146.284 568.712 148.615 567.343C149.249 566.969 149.681 566.291 150.284 565.871Z" fill="#F27E0F" stroke="#2E4166" stroke-miterlimit="10" stroke-linecap="round"/>
<path d="M207.792 560.317C207.822 559.118 202.504 558.22 201.996 558.134C201.075 557.977 197.141 557.019 197.207 559.085C197.219 559.454 198.632 560.291 198.534 560.368C197.073 561.525 196.933 561.742 198.367 562.6C198.376 562.607 196.916 563.627 197.406 564.292C199.824 567.573 207.678 564.725 207.792 560.317Z" fill="#FAE9D5" stroke="#2E4166" stroke-miterlimit="10" stroke-linecap="round"/>
<path d="M146.473 567.663C146.605 566.471 141.382 565.125 140.883 564.997C139.978 564.764 136.14 563.476 136.031 565.538C136.011 565.909 137.348 566.861 137.244 566.931C135.69 567.959 135.532 568.162 136.889 569.142C136.897 569.147 135.356 570.04 135.788 570.745C137.92 574.22 145.987 572.046 146.473 567.663Z" fill="#F27E0F" stroke="#2E4166" stroke-miterlimit="10" stroke-linecap="round"/>
<path d="M210.294 564.177C210.267 564.128 208.195 563.54 207.68 563.624C206.561 563.811 205.124 564.881 204.306 565.623C203.754 566.122 200.355 570.23 201.188 571.174C201.943 572.028 202.624 571.492 203.398 571.116C203.407 571.111 203.781 570.948 203.848 571.069C204.172 571.65 203.935 572.935 205.052 572.819C205.25 572.798 205.682 572.392 205.748 572.406C205.961 572.453 205.683 574.277 206.832 573.544C209.35 571.942 211.848 567.02 210.294 564.177Z" fill="#FAE9D5" stroke="#2E4166" stroke-miterlimit="10" stroke-linecap="round"/>
<path d="M148.639 571.722C148.617 571.671 146.602 570.908 146.081 570.95C144.951 571.039 143.429 571.986 142.551 572.655C141.958 573.108 138.223 576.912 138.974 577.922C139.654 578.839 140.377 578.36 141.181 578.05C141.189 578.048 141.576 577.917 141.633 578.043C141.906 578.65 141.561 579.909 142.685 579.888C142.883 579.886 143.349 579.515 143.413 579.536C143.621 579.601 143.19 581.393 144.397 580.761C147.042 579.377 149.947 574.684 148.639 571.722Z" fill="#F27E0F" stroke="#2E4166" stroke-miterlimit="10" stroke-linecap="round"/>
<path d="M211.115 562.828C210.912 562.569 210.721 563.028 210.658 563.229C210.538 563.609 210.619 564.029 210.656 564.426C210.73 565.235 210.867 565.613 211.225 566.301C211.795 567.397 215.598 572.545 217.134 571.185C217.477 570.882 217.549 570.01 217.421 569.597C217.348 569.359 216.881 568.836 217.119 568.911C217.642 569.077 218.441 569.31 218.675 568.51C218.805 568.064 217.776 567.264 218.234 567.192C218.99 567.071 218.607 567.866 219.604 567.32C220.888 566.616 218.142 564.258 217.619 563.817C216.39 562.786 215.016 562.203 213.434 562.247C212.769 562.266 211.442 563.245 211.115 562.828Z" fill="#FAE9D5" stroke="#2E4166" stroke-miterlimit="10" stroke-linecap="round"/>
<path d="M149.571 570.45C149.391 570.172 149.162 570.615 149.082 570.809C148.93 571.177 148.976 571.602 148.979 572.001C148.984 572.815 149.088 573.204 149.387 573.92C149.862 575.059 153.215 580.512 154.861 579.285C155.228 579.012 155.374 578.149 155.282 577.727C155.229 577.482 154.808 576.925 155.039 577.018C155.546 577.228 156.323 577.526 156.623 576.75C156.791 576.318 155.833 575.432 156.295 575.399C157.059 575.343 156.61 576.104 157.65 575.642C158.989 575.052 156.453 572.467 155.968 571.984C154.831 570.853 153.511 570.156 151.931 570.065C151.266 570.027 149.861 570.89 149.571 570.45Z" fill="#F27E0F" stroke="#2E4166" stroke-miterlimit="10" stroke-linecap="round"/>
<path d="M212.195 561.812C213.061 562.621 214.808 561.982 215.59 561.816C217.356 561.445 220.147 560.867 221.206 559.218C222.045 557.912 219.756 558.005 219.215 557.893C219.045 557.858 219.418 557.611 219.519 557.468C219.794 557.086 219.935 557.039 219.76 556.463C219.56 555.805 218.868 556.237 218.548 556.288C218.276 556.332 218.883 555.845 218.995 555.593C219.213 555.103 218.994 554.947 218.619 554.627C215.953 552.351 208.86 558.693 212.195 561.812Z" fill="#FAE9D5" stroke="#2E4166" stroke-miterlimit="10" stroke-linecap="round"/>
<path d="M150.733 569.526C151.527 570.405 153.322 569.915 154.116 569.82C155.906 569.598 158.736 569.258 159.931 567.704C160.878 566.473 158.589 566.375 158.059 566.216C157.893 566.165 158.286 565.953 158.399 565.82C158.705 565.463 158.849 565.428 158.723 564.84C158.58 564.166 157.854 564.537 157.531 564.562C157.256 564.583 157.902 564.147 158.035 563.907C158.293 563.436 158.088 563.261 157.742 562.911C155.278 560.42 147.674 566.137 150.733 569.526Z" fill="#F27E0F" stroke="#2E4166" stroke-miterlimit="10" stroke-linecap="round"/>
<path d="M171.191 532.166C170.66 531.324 172.047 529.826 172.041 529.196C172.022 527.095 171.149 525.587 170.053 523.865C168.415 521.293 163.303 521.421 161.525 523.827C158.746 527.59 161.725 535.887 166.362 537.037C168.437 537.553 172.198 533.762 171.191 532.166Z" fill="#FAE9D5" stroke="#2E4166" stroke-miterlimit="10" stroke-linecap="round"/>
<path d="M217.54 377.682C217.604 376.69 219.606 376.291 219.972 375.776C221.188 374.064 221.366 372.33 221.489 370.294C221.672 367.249 217.458 364.354 214.607 365.259C210.148 366.675 207.692 375.142 210.772 378.794C212.15 380.428 217.419 379.566 217.54 377.682Z" fill="#FAE9D5" stroke="#2E4166" stroke-miterlimit="10" stroke-linecap="round"/>
<path d="M177.391 536.155C176.865 536.033 176.184 536.786 175.577 536.924C173.445 537.399 171.411 536.639 170.667 534.341C169.298 530.112 171.272 525.164 175.631 523.627C176.07 523.472 178.095 522.553 178.877 522.972C182.693 525.017 182.816 529.716 180.492 533.078C179.98 533.818 178.57 536.429 177.391 536.155Z" fill="#FAE9D5" stroke="#2E4166" stroke-miterlimit="10" stroke-linecap="round"/>
<path d="M220.925 383.936C220.571 383.528 219.577 383.739 219.006 383.493C216.999 382.629 215.8 380.818 216.545 378.521C217.918 374.293 222.42 371.445 226.851 372.758C227.298 372.891 229.477 373.335 229.864 374.133C231.754 378.028 229.096 381.905 225.241 383.264C224.393 383.562 221.719 384.85 220.925 383.936Z" fill="#FAE9D5" stroke="#2E4166" stroke-miterlimit="10" stroke-linecap="round"/>
<path d="M166.6 535.685C166.577 535.161 164.883 533.841 164.537 533.404C163.559 532.17 162.264 531.418 160.842 530.767C156.802 528.917 153.225 531.262 153.324 535.556C153.505 543.45 167.031 545.227 166.6 535.685Z" fill="#FAE9D5" stroke="#2E4166" stroke-miterlimit="10" stroke-linecap="round"/>
<path d="M212.463 377.222C212.751 376.784 212.155 374.721 212.131 374.164C212.063 372.591 211.456 371.223 210.686 369.86C208.5 365.992 204.228 365.792 201.788 369.327C197.304 375.825 207.213 385.201 212.463 377.222Z" fill="#FAE9D5" stroke="#2E4166" stroke-miterlimit="10" stroke-linecap="round"/>
<path d="M164.831 546.152C165.001 546.439 163.4 546.171 162.015 545.665C159.703 544.818 155.245 541.793 158.466 539.167C161.577 536.631 164.396 539.083 167.651 539.563C168.795 539.733 170.831 539.794 171.321 541.124C172.163 543.409 169.548 545.378 167.647 545.989C167.096 546.166 164.73 545.98 164.831 546.152Z" fill="#FAE9D5" stroke="#2E4166" stroke-miterlimit="10" stroke-linecap="round"/>
<path d="M204.888 384.66C204.858 384.992 203.718 383.836 202.894 382.612C201.519 380.571 199.683 375.506 203.832 375.27C207.839 375.041 208.683 378.681 211.037 380.98C211.864 381.789 213.478 383.032 213.093 384.397C212.434 386.742 209.161 386.802 207.263 386.181C206.714 386.002 204.907 384.461 204.888 384.66Z" fill="#FAE9D5" stroke="#2E4166" stroke-miterlimit="10" stroke-linecap="round"/>
<path d="M177.569 533.083C177.438 533.14 173.731 534.301 172.983 534.688C169.226 536.634 167.51 542.085 171.488 544.77C174.961 547.112 182.185 540.205 182.538 536.734C182.882 533.348 180.372 531.861 177.569 533.083Z" fill="#FAE9D5" stroke="#2E4166" stroke-miterlimit="10" stroke-linecap="round"/>
<path d="M222.871 381.552C222.732 381.522 219.049 380.286 218.216 380.161C214.033 379.532 209.444 382.939 211.09 387.447C212.528 391.382 222.431 390.027 224.752 387.424C227.018 384.884 225.859 382.207 222.871 381.552Z" fill="#FAE9D5" stroke="#2E4166" stroke-miterlimit="10" stroke-linecap="round"/>
<path d="M224.744 526.398C224.058 526.829 223.973 527.85 223.816 528.645C223.471 530.4 224.141 532.518 224.053 534.32C223.995 535.519 223.895 536.692 223.627 537.865C223.576 538.087 223.32 538.625 223.536 538.546C224.688 538.126 226.459 535.079 226.734 535.028C227.124 534.957 228.248 537.133 229.208 537.063C230.525 536.965 230.665 533.761 230.727 533.768C232.252 533.942 233.721 535.126 235.55 534.326C235.899 534.174 236.434 534.089 236.519 533.717C236.542 533.617 235.767 533.523 235.047 533.03C234.325 532.535 234.361 532.535 233.677 531.759C231.692 529.507 229.234 524.086 225.443 525.855" fill="#FAE9D5"/>
<path d="M224.744 526.398C224.058 526.829 223.973 527.85 223.816 528.645C223.471 530.4 224.141 532.518 224.053 534.32C223.995 535.519 223.895 536.692 223.627 537.865C223.576 538.087 223.32 538.625 223.536 538.546C224.688 538.126 226.459 535.079 226.734 535.028C227.124 534.957 228.248 537.133 229.208 537.063C230.525 536.965 230.665 533.761 230.727 533.768C232.252 533.942 233.721 535.126 235.55 534.326C235.899 534.174 236.434 534.089 236.519 533.717C236.542 533.617 235.767 533.523 235.047 533.03C234.325 532.535 234.361 532.535 233.677 531.759C231.692 529.507 229.234 524.086 225.443 525.855" stroke="#2E4166" stroke-miterlimit="10" stroke-linecap="round"/>
<path d="M226.794 518.102C226.034 519.08 227.519 520.209 228.196 520.693C229.846 521.875 231.98 522.318 233.756 523.339C234.743 523.906 235.694 524.696 236.421 525.579C236.727 525.951 237.302 527.067 237.434 526.606C237.759 525.477 237.118 523.66 236.67 522.665C236.637 522.592 235.775 521.356 235.775 521.355C235.819 521.3 238.647 520.669 239.289 520.26C239.555 520.091 240.105 519.761 239.89 519.531C239.476 519.09 236.466 517.98 236.459 517.925C236.449 517.849 236.613 517.921 236.686 517.896C237.152 517.741 237.608 517.597 237.944 517.2C238.297 516.784 240.323 513.589 239.29 513.225C239.118 513.165 239.255 513.619 239.124 513.746C236.787 516.006 232.986 514.303 230.15 514.835C228.846 515.08 227.791 516.065 226.968 517.042" fill="#FAE9D5"/>
<path d="M226.794 518.102C226.034 519.08 227.519 520.209 228.196 520.693C229.846 521.875 231.98 522.318 233.756 523.339C234.743 523.906 235.694 524.696 236.421 525.579C236.727 525.951 237.302 527.067 237.434 526.606C237.759 525.477 237.118 523.66 236.67 522.665C236.637 522.592 235.775 521.356 235.775 521.355C235.819 521.3 238.647 520.669 239.289 520.26C239.555 520.091 240.105 519.761 239.89 519.531C239.476 519.09 236.466 517.98 236.459 517.925C236.449 517.849 236.613 517.921 236.686 517.896C237.152 517.741 237.608 517.597 237.944 517.2C238.297 516.784 240.323 513.589 239.29 513.225C239.118 513.165 239.255 513.619 239.124 513.746C236.787 516.006 232.986 514.303 230.15 514.835C228.846 515.08 227.791 516.065 226.968 517.042" stroke="#2E4166" stroke-miterlimit="10" stroke-linecap="round"/>
<path d="M213.618 517.463C212.86 517.477 210.336 520.252 209.717 520.756C208.682 521.6 207.549 522.308 206.373 522.935C205.901 523.187 204.565 523.484 204.6 523.695C204.77 524.717 209.003 524.23 209.514 524.303C209.961 524.366 209.253 525.171 209.21 525.62C209.155 526.201 208.851 527.895 209.362 528.407C209.704 528.749 211.511 526.734 211.845 526.279C211.93 526.163 212.048 525.873 212.149 525.975C212.305 526.13 212.144 526.42 212.2 526.633C212.443 527.566 213.243 528.726 214.125 529.166C214.55 529.379 215.042 529.421 215.493 529.572C215.686 529.636 215.959 530.008 216.05 529.825C216.092 529.742 215.14 527.341 215.29 526.684C216.01 523.532 221.103 517.331 213.618 517.463Z" fill="#FAE9D5" stroke="#2E4166" stroke-miterlimit="10" stroke-linecap="round"/>
<path d="M114.235 565.602C112.775 564.114 110.534 567.78 108.948 569.068C105.187 572.124 104.608 575.13 104.919 579.791C105.031 581.461 103.38 588.715 105.159 588.51C107.484 588.239 108.694 584.988 109.735 583.143C111.637 579.774 112.704 575.58 113.059 571.72C113.228 569.889 115.569 566.957 114.235 565.602Z" fill="#FAE9D5" stroke="#2E4166" stroke-miterlimit="10" stroke-linecap="round"/>
<path d="M115.567 565.143C112.871 564.797 112.597 572.226 112.465 574.006C111.977 580.584 111.02 586.369 115.942 591.477C117.079 592.657 118.521 594.385 120.109 594.987C120.442 595.113 120.554 593.226 120.566 593.191C120.809 592.459 121.142 591.747 121.575 591.108C122.868 589.2 124.482 587.612 125.063 585.298C126.328 580.264 123.247 579.175 120.831 575.373C120.129 574.265 119.671 572.933 119.223 571.727C118.427 569.584 118.391 565.502 115.567 565.143Z" fill="#FAE9D5" stroke="#2E4166" stroke-miterlimit="10" stroke-linecap="round"/>
<path d="M117.638 564.625C117.24 565.457 117.393 566.416 117.505 567.319C117.903 570.512 118.987 572.978 120.551 575.728C123.092 580.192 127.069 581.116 131.487 583.049C132.55 583.516 133.664 584.314 134.769 584.762C135.06 584.881 134.34 584.302 134.131 584.066C133.68 583.556 133.159 582.84 132.772 582.319C131.705 580.885 131.284 578.688 130.704 577.02C129.316 573.024 127.2 570.545 124.066 567.774C122.962 566.799 121.193 564.919 119.654 564.685C118.989 564.585 117.928 564.018 117.638 564.625Z" fill="#FAE9D5" stroke="#2E4166" stroke-miterlimit="10" stroke-linecap="round"/>
<path d="M118.762 564.688C122.047 564.182 125.135 566.29 128.051 567.951C130.662 569.437 130.412 570.967 132.029 573.255C132.776 574.312 133.466 575.324 134.489 576.136C135.404 576.861 137.115 577.183 137.453 578.473C138.032 580.68 133.352 578.905 132.736 578.417C130.645 576.756 129.303 574.156 127.768 572.021C126.715 570.559 124.901 569.246 123.477 568.21C122.206 567.286 117.213 564.926 118.762 564.688Z" fill="#FAE9D5" stroke="#2E4166" stroke-miterlimit="10" stroke-linecap="round"/>
<path d="M176.126 562.268C175.816 561.774 175.673 561.195 175.452 560.656C175.116 559.835 174.776 559.014 174.437 558.193C172.433 553.36 174.945 548.212 175.448 543.314C175.665 541.191 175.519 538.964 175.438 536.827C175.421 536.382 175.381 535.936 175.326 535.493C175.294 535.238 175.034 534.565 175.232 534.728C175.657 535.077 176.166 536.288 176.411 536.603C177.609 538.136 178.939 539.337 179.945 541.068C181.569 543.857 181.198 548.973 180.432 551.856C179.81 554.195 178.835 556.434 178.12 558.737C177.856 559.59 177.085 560.148 176.888 561.013" fill="#5D569A"/>
<path d="M176.126 562.268C175.816 561.774 175.673 561.195 175.452 560.656C175.116 559.835 174.776 559.014 174.437 558.193C172.433 553.36 174.945 548.212 175.448 543.314C175.665 541.191 175.519 538.964 175.438 536.827C175.421 536.382 175.381 535.936 175.326 535.493C175.294 535.238 175.034 534.565 175.232 534.728C175.657 535.077 176.166 536.288 176.411 536.603C177.609 538.136 178.939 539.337 179.945 541.068C181.569 543.857 181.198 548.973 180.432 551.856C179.81 554.195 178.835 556.434 178.12 558.737C177.856 559.59 177.085 560.148 176.888 561.013" stroke="#2E4166" stroke-miterlimit="10" stroke-linecap="round"/>
<path d="M167.406 557.767C166.279 552.507 168.807 548.444 170.164 543.508C170.441 542.503 170.053 541.273 170.425 540.27C170.535 539.977 170.882 540.716 171.038 540.989C171.21 541.292 171.328 541.623 171.461 541.945C172.837 545.264 171.725 551.919 170.495 555.231C169.625 557.573 168.11 561.664 167.29 556.701" fill="#5D569A"/>
<path d="M167.406 557.767C166.279 552.507 168.807 548.444 170.164 543.508C170.441 542.503 170.053 541.273 170.425 540.27C170.535 539.977 170.882 540.716 171.038 540.989C171.21 541.292 171.328 541.623 171.461 541.945C172.837 545.264 171.725 551.919 170.495 555.231C169.625 557.573 168.11 561.664 167.29 556.701" stroke="#2E4166" stroke-miterlimit="10" stroke-linecap="round"/>
<path d="M216.168 517.13C215.367 517.159 214.277 516.575 213.584 517.512C213.315 517.876 213.663 518.083 213.941 518.362C214.415 518.837 214.998 518.373 215.346 518.706C215.457 518.813 215.371 519.735 215.469 519.948C215.568 520.163 215.762 520.355 215.96 520.48C216.378 520.743 216.368 519.907 216.542 519.889C216.669 519.876 217.087 520.541 217.425 520.531C218.532 520.5 217.123 517.095 216.168 517.13Z" fill="#5D569A" stroke="#2E4166" stroke-miterlimit="10" stroke-linecap="round"/>
<path d="M226.6 517.275C226.516 517.695 226.226 518.262 226.222 518.833C226.217 519.443 226.902 522.487 228.101 521.104C228.627 520.497 228.03 519.745 227.98 519.172C227.972 519.087 228.152 519.173 228.237 519.167C228.529 519.147 228.89 518.917 228.998 518.638C229.308 517.839 228.695 518.041 228.412 517.581C228.308 517.411 228.755 517.359 228.867 517.196C229.103 516.854 229.297 516.352 229.32 515.93C229.384 514.746 228.047 515.192 227.478 515.738C226.972 516.224 226.736 516.601 226.6 517.275Z" fill="#5D569A" stroke="#2E4166" stroke-miterlimit="10" stroke-linecap="round"/>
<path d="M225.869 524.865C224.939 525.586 223.97 525.849 223.4 527.034C223.322 527.196 222.894 528.346 223.584 528.149C224.188 527.976 224.853 526.917 225.454 526.919C225.653 526.919 226.427 528.414 226.903 527.766C227.076 527.531 226.91 527.281 226.798 527.078C226.737 526.968 226.529 526.683 226.645 526.731C227.152 526.94 228.146 527.094 228.461 526.395C228.945 525.316 226.429 524.431 225.869 524.865Z" fill="#5D569A" stroke="#2E4166" stroke-miterlimit="10" stroke-linecap="round"/>
<path d="M167.603 539.226C167.168 538.923 166.369 537.614 165.998 537.313C164.938 536.457 163.504 534.999 162.356 534.356C162.039 534.179 161.517 533.969 161.273 534.238C160.457 535.138 162.798 536.404 163.186 535.464C163.539 534.609 162.145 534.192 161.692 534.162" fill="#5D569A"/>
<path d="M167.603 539.226C167.168 538.923 166.369 537.614 165.998 537.313C164.938 536.457 163.504 534.999 162.356 534.356C162.039 534.179 161.517 533.969 161.273 534.238C160.457 535.138 162.798 536.404 163.186 535.464C163.539 534.609 162.145 534.192 161.692 534.162" stroke="#2E4166" stroke-miterlimit="10" stroke-linecap="round"/>
<path d="M211.196 380.678C211.021 380.179 211.143 378.649 211.019 378.189C210.663 376.874 210.357 374.851 209.805 373.657C209.653 373.328 209.353 372.851 208.998 372.926C207.809 373.176 208.962 375.573 209.827 375.041C210.615 374.556 209.73 373.4 209.381 373.11" fill="#5D569A"/>
<path d="M211.196 380.678C211.021 380.179 211.143 378.649 211.019 378.189C210.663 376.874 210.357 374.851 209.805 373.657C209.653 373.328 209.353 372.851 208.998 372.926C207.809 373.176 208.962 375.573 209.827 375.041C210.615 374.556 209.73 373.4 209.381 373.11" stroke="#2E4166" stroke-miterlimit="10" stroke-linecap="round"/>
<path d="M168.36 539.284C168.035 538.85 168.093 538.232 167.956 537.705C167.55 536.141 167.411 536.34 167.242 534.847C167.119 533.765 167.528 532.257 166.905 531.251C166.099 529.95 165.754 532.519 167.185 532.144C168.056 531.916 167.452 530.101 166.563 530.881" fill="#5D569A"/>
<path d="M168.36 539.284C168.035 538.85 168.093 538.232 167.956 537.705C167.55 536.141 167.411 536.34 167.242 534.847C167.119 533.765 167.528 532.257 166.905 531.251C166.099 529.95 165.754 532.519 167.185 532.144C168.056 531.916 167.452 530.101 166.563 530.881" stroke="#2E4166" stroke-miterlimit="10" stroke-linecap="round"/>
<path d="M211.071 381.787C211.062 381.244 211.472 380.778 211.67 380.272C212.259 378.767 212.029 378.847 212.769 377.538C213.305 376.59 214.52 375.609 214.606 374.428C214.717 372.902 212.931 374.78 214.309 375.316C215.148 375.642 215.724 373.818 214.546 373.928" fill="#5D569A"/>
<path d="M211.071 381.787C211.062 381.244 211.472 380.778 211.67 380.272C212.259 378.767 212.029 378.847 212.769 377.538C213.305 376.59 214.52 375.609 214.606 374.428C214.717 372.902 212.931 374.78 214.309 375.316C215.148 375.642 215.724 373.818 214.546 373.928" stroke="#2E4166" stroke-miterlimit="10" stroke-linecap="round"/>
<path d="M211.775 381.171C211.767 380.628 212.176 380.161 212.375 379.656C212.963 378.151 212.734 378.23 213.473 376.921C214.009 375.974 215.225 374.992 215.311 373.812C215.421 372.286 213.635 374.163 215.013 374.699C215.853 375.026 216.428 373.202 215.251 373.311" fill="#5D569A"/>
<path d="M211.775 381.171C211.767 380.628 212.176 380.161 212.375 379.656C212.963 378.151 212.734 378.23 213.473 376.921C214.009 375.974 215.225 374.992 215.311 373.812C215.421 372.286 213.635 374.163 215.013 374.7C215.853 375.026 216.428 373.202 215.251 373.311" stroke="#2E4166" stroke-miterlimit="10" stroke-linecap="round"/>
<path d="M168.851 539.391C168.492 537.408 169.682 534.736 170.613 533.057C170.845 532.639 171.064 532.215 171.289 531.794C171.453 531.487 171.889 530.543 171.792 530.877C171.393 532.241 172.704 532.315 173.421 531.408C174.459 530.094 172.133 529.4 171.49 531.168" fill="#5D569A"/>
<path d="M168.851 539.391C168.492 537.408 169.682 534.736 170.613 533.057C170.845 532.639 171.064 532.215 171.289 531.794C171.453 531.487 171.889 530.543 171.792 530.877C171.393 532.241 172.704 532.315 173.421 531.408C174.459 530.094 172.133 529.4 171.49 531.168" stroke="#2E4166" stroke-miterlimit="10" stroke-linecap="round"/>
<path d="M212.11 381.545C212.983 379.728 215.514 378.263 217.254 377.45C217.687 377.247 218.113 377.033 218.542 376.824C218.855 376.671 219.762 376.163 219.487 376.376C218.364 377.247 219.383 378.076 220.495 377.762C222.106 377.307 220.63 375.38 219.072 376.434" fill="#5D569A"/>
<path d="M212.11 381.545C212.983 379.728 215.514 378.263 217.254 377.45C217.687 377.247 218.113 377.033 218.542 376.824C218.855 376.671 219.762 376.163 219.487 376.376C218.364 377.247 219.383 378.076 220.495 377.762C222.106 377.307 220.63 375.38 219.072 376.434" stroke="#2E4166" stroke-miterlimit="10" stroke-linecap="round"/>
<path d="M115.931 563.283C115.791 563.225 114.291 564.158 114.14 564.265C114.015 564.356 111.535 566.966 111.834 567.255C113.15 568.536 113.607 566.623 114.677 566.429C115.692 566.243 115.946 568.016 116.761 568.03C117.967 568.051 117.608 566.947 117.849 566.583C117.876 566.541 119.311 567.157 119.798 566.791C120.158 566.52 118.71 565.559 119.158 565.601C119.796 565.662 122.022 566.765 122.403 565.685C122.477 565.473 121.173 564.755 121.027 564.671C120.038 564.106 118.81 563.553 117.674 563.393C117.273 563.334 116.214 563.402 115.931 563.283Z" fill="#5D569A" stroke="#2E4166" stroke-miterlimit="10" stroke-linecap="round"/>
<path d="M177.627 573.101C178.47 571.795 177.287 569.346 176.855 567.79C176.248 565.605 175.356 564.655 173.765 562.771C171.951 560.62 168.027 563.365 166.427 564.217C164.953 565.003 162.623 565.087 161.696 566.825C161.352 567.471 161.662 568.439 161.407 569.143C160.739 570.979 158.378 572.336 159.186 574.646C161.255 580.559 169.17 580.657 173.862 578.7C176.638 577.545 176.328 575.114 177.627 573.101Z" fill="#FFC042" stroke="#2E4166" stroke-miterlimit="10" stroke-linecap="round"/>
<path d="M174.973 578.699C174.125 578.699 172.736 578.186 171.931 578.12C168.156 577.815 163.274 578.151 160.345 580.824C156.31 584.509 160.547 584.582 160.828 587.39C160.924 588.351 160.696 589.333 160.731 590.287C160.818 592.615 163.618 595.456 165.462 596.561C170.601 599.645 176.814 589.981 177.435 585.846C177.679 584.213 177.459 582.149 176.759 580.63C176.475 580.017 175.675 579.45 175.214 578.99C174.913 578.69 175.157 578.699 174.973 578.699Z" fill="#FFC042" stroke="#2E4166" stroke-miterlimit="10" stroke-linecap="round"/>
<path d="M178.69 581.645C177.653 582.674 177.582 584.257 176.952 585.554C175.263 589.034 171.998 593.382 173.38 597.527C174.157 599.86 175.889 598.01 177.339 598.493C179.644 599.262 180.169 600.718 182.938 600.52C184.588 600.403 184.117 597.987 185.449 597.721C186.741 597.462 188.093 597.735 189.408 597.431C191.542 596.939 194.179 594.777 195.49 592.99C196.707 591.33 194.368 588.244 193.463 586.811C190.386 581.939 183.934 576.441 178.69 581.645Z" fill="#FFC042" stroke="#2E4166" stroke-miterlimit="10" stroke-linecap="round"/>
<path d="M178.337 571.395C177.774 570.951 177.725 569.986 177.543 569.386C176.912 567.31 175.036 564.124 176.199 562.036C178.352 558.169 179.182 561.799 181.95 561.922C183.553 561.992 184.455 559.846 186.089 559.737C187.406 559.646 188.329 561.866 188.681 561.883C190.872 561.98 191.665 561.74 192.916 564.22C195.947 570.231 188.717 575.463 183.573 575.845C180.735 576.057 180.085 572.775 178.337 571.395Z" fill="#FFC042" stroke="#2E4166" stroke-miterlimit="10" stroke-linecap="round"/>
<path d="M183.586 576.49C183.681 576.259 187.026 574.503 187.59 574.255C189.549 573.399 191.421 572.168 193.487 571.599C193.854 571.496 194.859 571.23 195.322 571.246C197.825 571.333 198.468 572.249 198.205 574.717C198.179 574.955 198.032 575.715 198.224 575.946C198.939 576.809 200.102 576.879 200.737 577.973C201.495 579.282 200.144 580.224 199.982 581.37C199.83 582.449 200.511 583.424 199.779 584.502C196.267 589.68 189.547 585.437 185.948 582.617C184.222 581.265 182.668 578.743 183.586 576.49Z" fill="#FFC042" stroke="#2E4166" stroke-miterlimit="10" stroke-linecap="round"/>
<path d="M240.109 571.075C241.158 569.521 243.188 568.164 244.396 566.54C244.875 565.896 244.827 564.994 245.043 564.219C246.211 560.035 243.347 557.278 239.291 557.196C234.31 557.096 231.614 562.89 231.619 567.144C231.619 567.83 232.478 573.132 233.317 571.891" fill="#F27E0F"/>
<path d="M240.109 571.075C241.158 569.521 243.188 568.164 244.396 566.54C244.875 565.896 244.827 564.994 245.043 564.219C246.211 560.035 243.347 557.278 239.291 557.196C234.31 557.096 231.614 562.89 231.619 567.144C231.619 567.83 232.478 573.132 233.317 571.891" stroke="#2E4166" stroke-miterlimit="10" stroke-linecap="round"/>
<path d="M241.895 578.867C242.983 579.602 244.594 579.632 245.844 579.656C257.073 579.875 256.99 564.273 246.163 566.927C244.928 567.23 243.765 567.573 242.669 568.247C240.701 569.456 239.189 571.282 237.528 572.856" fill="#F27E0F"/>
<path d="M241.895 578.867C242.983 579.602 244.594 579.632 245.844 579.656C257.073 579.875 256.99 564.273 246.163 566.927C244.928 567.23 243.765 567.573 242.669 568.247C240.701 569.456 239.189 571.282 237.528 572.856" stroke="#2E4166" stroke-miterlimit="10" stroke-linecap="round"/>
<path d="M230.576 572.377C225.169 570.87 219.937 563.98 222.849 558.239C224.276 555.424 230.515 558.451 231.836 560.014C232.813 561.171 233.833 562.823 234.523 564.204C235.644 566.447 235.449 569.085 235.714 571.518" fill="#F27E0F"/>
<path d="M230.576 572.377C225.169 570.87 219.937 563.98 222.849 558.239C224.276 555.424 230.515 558.451 231.836 560.014C232.813 561.171 233.833 562.823 234.523 564.204C235.644 566.447 235.449 569.085 235.714 571.518" stroke="#2E4166" stroke-miterlimit="10" stroke-linecap="round"/>
<path d="M233.162 577.129C233.166 577.006 232.169 573.19 231.563 572.051C230.157 569.413 223.573 565.38 220.683 567.631C218.463 569.36 219.436 573.157 220.07 575.249C221.762 580.829 227.072 586.975 232.529 580.871C232.928 580.423 233.14 577.687 233.162 577.129Z" fill="#F27E0F" stroke="#2E4166" stroke-miterlimit="10" stroke-linecap="round"/>
<path d="M248.245 580.484C248.14 579.616 244.474 576.145 243.37 575.751C238.108 573.876 228.696 575.361 229.236 582.69C229.655 588.37 241.545 587.966 244.953 585.426C245.906 584.717 248.377 581.578 248.245 580.484Z" fill="#F27E0F" stroke="#2E4166" stroke-miterlimit="10" stroke-linecap="round"/>
<path d="M249.014 548.192C247.437 547.922 246.822 545.58 246.267 544.183C244.071 538.659 246.892 535.574 247.361 530.241C247.452 529.209 247.156 523.637 248.481 523.729C250.747 523.887 251.227 526.919 251.553 528.616C252.468 533.367 251.177 537.722 250.325 542.377C250.118 543.509 250.055 548.372 249.014 548.192Z" fill="#FFC042" stroke="#2E4166" stroke-miterlimit="10" stroke-linecap="round"/>
<path d="M249.893 548.116C248.422 544.627 252.017 540.596 253.673 537.182C254.754 534.952 256.668 533.356 258.176 531.471C259.735 529.522 261.157 527.477 262.678 525.521C263.028 525.072 263.425 523.98 263.886 524.315C265.578 525.544 265.246 527.879 265.333 529.702C265.634 536.041 262.109 540.421 257.613 544.338C255.592 546.099 251.135 551.062 249.893 548.116Z" fill="#FFC042" stroke="#2E4166" stroke-miterlimit="10" stroke-linecap="round"/>
<path d="M264.985 536.514C262.767 537.022 267.089 535.564 268.439 535.842C270.569 536.283 272.255 538.247 274.502 538.468C275.075 538.524 278.052 537.85 277.879 538.942C276.433 548.053 266.858 549.445 259.343 551.15C257.177 551.642 252.886 553.028 250.955 551.195C250.524 550.786 249.165 548.239 249.436 547.481C250.442 544.668 256.758 540.297 259.522 538.767C260.322 538.324 265.433 536.411 264.985 536.514Z" fill="#FFC042" stroke="#2E4166" stroke-miterlimit="10" stroke-linecap="round"/>
<path d="M251.539 551.705C252.695 552.389 253.153 554.201 254.644 554.71C257.506 555.682 259.944 555.755 262.888 555.151C264.854 554.747 266.641 553.987 268.692 554.15C270.753 554.313 274.947 556.916 275.887 554.031C276.711 551.509 271.157 550.336 269.855 550.105C266.886 549.58 263.726 549.94 260.752 550.355C258.578 550.658 256.389 551.495 254.167 551.311C252.97 551.213 250.18 551.384 249.986 549.62" fill="#FFC042"/>
<path d="M251.539 551.705C252.695 552.389 253.153 554.201 254.644 554.71C257.506 555.682 259.944 555.755 262.888 555.151C264.854 554.747 266.641 553.987 268.692 554.15C270.753 554.313 274.947 556.916 275.887 554.031C276.711 551.509 271.157 550.336 269.855 550.105C266.886 549.58 263.726 549.94 260.752 550.355C258.578 550.658 256.389 551.495 254.167 551.311C252.97 551.213 250.18 551.384 249.986 549.62" stroke="#2E4166" stroke-miterlimit="10" stroke-linecap="round"/>
<path d="M200.671 531.504C201.337 529.185 199.327 527.147 197.273 528.651C196.725 529.053 196.302 530.478 196.767 531.006C196.972 531.237 197.158 531.487 197.383 531.698C197.441 531.752 197.653 531.857 197.577 531.835C196.803 531.604 196.685 531.248 195.672 531.267C194.496 531.288 192.7 532.314 193.222 533.707C194.008 535.803 195.751 535.537 197.36 534.666C197.597 534.538 196.981 535.06 196.858 535.3C196.613 535.776 196.497 536.354 196.541 536.888C196.629 537.97 198.185 538.017 198.911 537.87C200.418 537.562 199.352 535.733 199.556 535.047C199.652 534.724 200.08 535.559 200.416 535.577C200.804 535.598 201.656 535.563 202.061 535.441C204.135 534.82 203.502 532.634 202.098 531.772C201.678 531.515 200.559 531.893 200.671 531.504Z" fill="#F27E0F" stroke="#2E4166" stroke-miterlimit="10" stroke-linecap="round"/>
<path d="M186.781 523.898C187.747 522.152 188.255 520.333 185.807 520.708C184.889 520.85 183.84 522.978 184.571 523.78C184.663 523.881 184.575 523.496 184.515 523.373C184.29 522.916 184.011 522.862 183.488 522.763C182.605 522.598 181.156 522.792 180.834 523.792C180.586 524.566 181.791 525.927 182.482 526.167C182.708 526.246 183.694 525.951 183.916 526.092C183.961 526.121 183.817 526.139 183.777 526.176C183.405 526.515 183.27 527.096 183.233 527.573C183.193 528.074 183.631 528.939 184.251 528.848C185.029 528.733 185.669 528.249 185.989 527.552C186.154 527.191 185.741 526.272 186.126 526.368C186.373 526.43 186.48 526.842 186.876 526.83C187.781 526.803 189.744 526.041 188.557 524.812C188.012 524.247 186.428 524.537 186.781 523.898Z" fill="#FFC042" stroke="#2E4166" stroke-miterlimit="10" stroke-linecap="round"/>
<path d="M200.823 516.003C198.031 513.471 194.813 517.051 197.667 518.702C198.162 518.988 198.709 519.239 199.278 519.293C199.611 519.324 199.899 519.043 200.219 518.944C200.433 518.877 199.982 519.339 199.95 519.561C199.887 519.987 199.818 520.423 199.869 520.851C199.962 521.621 200.255 523.306 201.481 523.187C203.401 523.002 204.081 520.481 203.092 518.997C203.046 518.927 203.16 519.16 203.227 519.212C203.509 519.433 203.784 519.813 204.14 519.776C205.195 519.668 206.57 519.242 206.718 518.004C206.927 516.268 204.213 516.57 203.28 517.037C203.148 517.103 203.579 516.953 203.683 516.849C203.913 516.619 204.098 516.349 204.301 516.097C204.713 515.586 204.713 514.197 204.247 513.76C202.729 512.334 202.025 517.093 200.823 516.003Z" fill="#FFC042" stroke="#2E4166" stroke-miterlimit="10" stroke-linecap="round"/>
<path d="M191.452 504.135C191.368 503.783 192.082 502.457 192.07 502.351C191.853 500.406 189.611 501.853 189.255 502.697C189.075 503.123 189.348 505.318 189.801 505.128C189.816 505.122 188.76 504.618 188.446 504.698C187.399 504.963 186.174 505.497 185.6 506.518C184.568 508.355 188.682 509.182 188.972 507.675C189.061 507.212 188.694 508.579 188.624 509.045C188.543 509.581 188.778 511.29 189.738 511.163C191.674 510.907 191.297 508.169 190.922 506.993C190.812 506.649 191.357 507.657 191.709 507.737C192.504 507.916 193.319 507.503 193.665 506.803C195.035 504.035 191.645 504.949 191.452 504.135Z" fill="#F27E0F" stroke="#2E4166" stroke-miterlimit="10" stroke-linecap="round"/>
<path d="M203.856 497.921C203.339 498.336 202.676 497.8 202.172 498.591C201.566 499.545 201.684 500.063 202.372 500.94C202.413 500.993 202.472 501.043 202.539 501.052C203.561 501.177 204.68 500.741 204.887 499.617C204.978 499.122 204.172 497.667 203.856 497.921Z" fill="#FFC042" stroke="#2E4166" stroke-miterlimit="10" stroke-linecap="round"/>
<path d="M197.428 489.505C195.713 489.102 195.017 492.612 196.836 492.539C198.267 492.482 199.025 490.964 198.015 489.788C197.828 489.571 197.045 489.463 196.843 489.416" fill="#F27E0F"/>
<path d="M197.428 489.505C195.713 489.102 195.017 492.612 196.836 492.539C198.267 492.482 199.025 490.964 198.015 489.788C197.828 489.571 197.045 489.463 196.843 489.416" stroke="#2E4166" stroke-miterlimit="10" stroke-linecap="round"/>
<path d="M203.75 485.34C203.619 485.344 202.933 485.088 202.273 486.113C201.674 487.046 201.717 488.206 202.96 488.501C204.996 488.986 206.013 485.282 203.75 485.34Z" fill="#F27E0F" stroke="#2E4166" stroke-miterlimit="10" stroke-linecap="round"/>
<path d="M201.583 501.524C199.928 500.985 198.769 503.486 200.611 504.085C202.201 504.603 203.122 502.024 201.583 501.524Z" fill="#FFC042" stroke="#2E4166" stroke-miterlimit="10" stroke-linecap="round"/>
<path d="M200.056 499.235C200.213 499.284 199.63 499.066 199.421 499.13C199.337 499.156 198.755 499.512 198.696 499.576C198.05 500.263 198.226 501.375 199.159 501.721C200.026 502.041 200.906 501.233 200.956 500.386C200.983 499.937 200.64 499.543 200.296 499.313C200.226 499.267 199.975 499.211 200.056 499.235Z" fill="#F27E0F" stroke="#2E4166" stroke-miterlimit="10" stroke-linecap="round"/>
<path d="M197.989 494.374C197.783 494.085 197.617 494.08 197.471 494.105C196.83 494.213 196.598 494.342 196.262 494.873C195.688 495.778 196.338 496.472 197.119 496.893C198.243 497.499 198.702 495.373 197.989 494.374Z" fill="#F27E0F" stroke="#2E4166" stroke-miterlimit="10" stroke-linecap="round"/>
<path d="M199.786 492.067C199.73 492.072 199.297 491.921 198.854 492.256C198.719 492.358 198.638 492.519 198.546 492.661C198.153 493.263 198.363 494.187 199.045 494.54C200.852 495.472 201.969 491.891 199.786 492.067Z" fill="#FFC042" stroke="#2E4166" stroke-miterlimit="10" stroke-linecap="round"/>
<path d="M203.023 488.79C202.457 488.753 202.216 489.232 202.114 489.529C201.696 490.739 202.49 491.529 203.646 491.416C205.152 491.267 204.423 488.882 203.023 488.79Z" fill="#FFC042" stroke="#2E4166" stroke-miterlimit="10" stroke-linecap="round"/>
<path d="M183.816 535.064C183.28 534.084 183.894 532.676 185.249 532.947C186.866 533.27 185.514 535.146 185.314 535.748C185.18 536.148 186.131 535.52 186.551 535.487C187.008 535.452 187.99 536.227 188.375 536.53C189.505 537.416 188.631 538.72 187.659 539.07C187.162 539.25 186.568 538.573 186.096 538.809C185.333 539.191 185.705 541.955 183.816 541.414C183.584 541.349 182.558 540.295 182.513 540.047C182.451 539.704 182.861 539.005 182.513 539.005C182.28 539.005 182.163 539.518 181.797 539.394C180.653 539.014 180.875 537.034 181.276 536.269C181.678 535.5 182.351 535.183 183.164 534.966C183.414 534.9 183.966 535.34 183.816 535.064Z" fill="#FFC042" stroke="#2E4166" stroke-miterlimit="10" stroke-linecap="round"/>
<path d="M199.366 507.434C198.54 506.861 198.332 505.689 197.642 506.773C197.228 507.423 197.386 507.662 197.781 508.34C197.914 508.567 198.546 508.663 198.374 508.862C197.529 509.837 195.671 510.975 197.747 512.067C198.636 512.535 199.888 511.279 199.593 510.395C199.522 510.183 199.558 510.882 199.697 511.057C199.791 511.174 199.972 511.183 200.115 511.231C200.816 511.465 201.653 511.09 201.926 510.395C202.125 509.889 200.881 509.141 200.881 509.141C200.881 509.141 202.347 508.11 201.996 507.574C201.371 506.617 200.125 507.961 199.366 507.434Z" fill="#FFC042" stroke="#2E4166" stroke-miterlimit="10" stroke-linecap="round"/>
<path d="M191.482 515.53C190.851 515.849 190.451 512.999 189.644 514.363C189.219 515.081 189.264 515.46 189.685 516.213C189.79 516.4 190.475 516.417 190.27 516.482C189.421 516.752 188.595 516.798 188.475 517.883C188.419 518.385 189.306 519.574 189.879 519.268C190.633 518.867 190.437 518.6 190.896 518.233C191.12 518.054 190.792 518.821 190.883 519.092C191.09 519.708 191.868 519.977 192.463 519.636C192.98 519.34 193.477 518.279 193.254 517.674C193.168 517.44 192.375 517.429 192.597 517.314C193.053 517.078 193.299 517.268 193.794 516.873C195.553 515.464 193.91 514.306 191.482 515.53Z" fill="#F27E0F" stroke="#2E4166" stroke-miterlimit="10" stroke-linecap="round"/>
<path d="M196.38 522.753C196.431 521.111 193.217 522.952 195.469 524.888C195.843 525.21 194.456 525.061 194.067 525.365C193.943 525.462 192.719 526.721 193.574 527.111C194.435 527.504 195.196 527.257 195.94 526.707C196.179 526.531 196.114 525.761 196.361 525.925C197.123 526.43 197.809 527.412 198.786 526.176C199.283 525.548 198.216 524.834 197.767 524.661C197.467 524.546 198.48 524.987 198.726 524.779C199.133 524.433 199.027 523.411 198.756 523.022C198.155 522.158 196.377 522.837 196.38 522.753Z" fill="#FFC042" stroke="#2E4166" stroke-miterlimit="10" stroke-linecap="round"/>
<path d="M191.537 543.725C192.112 543.886 192.236 541.166 193.134 541.644C193.997 542.102 193.423 543.431 193.05 543.914C192.85 544.173 192.052 544.595 192.378 544.628C193.603 544.751 195.235 545.306 194.647 546.981C194.418 547.634 193.077 547.483 192.756 547.401C192.334 547.294 192.254 546.37 191.832 546.477C191.758 546.496 191.758 546.613 191.748 546.687C191.668 547.24 191.471 549.584 190.319 549.083C189.745 548.833 187.87 547.527 188.974 546.645C189.263 546.414 189.775 546.431 189.94 546.1C189.953 546.074 189.884 546.1 189.856 546.1C189.38 546.1 189.326 546.109 188.596 545.89C188.046 545.722 187.612 545.521 187.587 544.88C187.523 543.207 190.408 543.405 191.537 543.725Z" fill="#FFC042" stroke="#2E4166" stroke-miterlimit="10" stroke-linecap="round"/>
<path d="M231.402 571.56C230.872 570.268 231.794 572.01 232.2 570.79C232.459 570.013 232.301 569.192 232.421 569.192C232.737 569.192 232.699 570.03 232.806 570.184C233.805 571.611 234.998 569.974 235.614 569.358C235.744 569.227 235.585 569.727 235.559 569.908C235.511 570.242 235.325 570.844 235.724 571.009C237.056 571.565 237.841 570.576 238.862 569.964C239.076 569.836 238.543 570.352 238.422 570.569C238.231 570.911 238.257 571.632 238.532 571.945C239.388 572.924 240.433 571.94 241.34 572.166C241.417 572.185 240.742 572.81 240.349 573.543C239.892 574.392 240.729 574.613 241.229 574.863C241.444 574.97 240.753 574.919 240.514 574.919C240.211 574.919 239.94 574.951 239.633 574.975C238.635 575.045 237.532 574.795 236.55 574.975C235.734 575.122 234.898 575.437 234.127 575.744C233.806 575.873 233.448 575.94 233.136 576.076C233.038 576.118 232.909 576.337 232.861 576.239C232.778 576.073 232.979 575.432 232.861 575.138C232.392 573.967 231.859 572.672 231.402 571.56Z" fill="#E4DBC1" stroke="#2E4166" stroke-miterlimit="10" stroke-linecap="round"/>
<path d="M177.717 569.903C177.243 569.469 177.902 570.846 177.916 571.132C177.943 571.737 177.679 572.397 177.323 572.875C176.626 573.81 175.593 574.036 174.438 574.123C174.141 574.144 173.548 574.209 173.548 574.209C173.548 574.209 173.814 574.267 173.949 574.284C174.608 574.368 176.33 574.615 176.102 575.742C175.873 576.88 174.759 577.988 173.904 578.685C173.549 578.974 173.15 579.152 172.762 579.397C172.669 579.455 172.382 579.607 172.485 579.572C174.659 578.851 176.548 579.049 175.816 582.06C175.747 582.343 175.08 583.495 175.161 583.737C175.194 583.84 175.314 583.588 175.374 583.5C175.576 583.21 175.797 582.944 176.078 582.725C176.778 582.177 177.665 581.683 178.586 581.976C180.018 582.434 180.28 583.971 181.05 585.002C181.11 585.083 181.082 584.801 181.076 584.701C181.05 584.274 180.936 583.854 180.865 583.434C180.748 582.744 180.757 581.731 181.358 581.267C182.173 580.635 183.763 580.796 184.63 581.06C184.831 581.12 185.956 581.589 186.033 581.512C186.057 581.489 184.775 580.351 184.769 580.346C184.334 579.938 183.582 579.173 183.506 578.55C183.359 577.356 186.578 576.294 187.209 575.485C187.324 575.338 186.839 575.539 186.657 575.585C186.363 575.66 186.075 575.763 185.779 575.835C185 576.026 184.185 576.136 183.687 575.317C183.244 574.589 183.31 574.127 183.477 573.299C183.546 572.957 183.923 572.147 183.592 572.259C182.976 572.462 182.912 574.046 182.334 574.512C180.402 576.07 178.66 570.766 177.717 569.903Z" fill="#E4DBC1" stroke="#2E4166" stroke-miterlimit="10" stroke-linecap="round"/>
<path d="M164.643 538.703C164.445 538.591 165.095 538.178 165.041 537.518C165.003 537.056 164.072 536.217 164.098 536.014C164.121 535.841 164.408 536.179 164.555 536.275C165.024 536.578 165.328 536.681 165.856 536.552C166.596 536.375 166.692 534.899 166.498 534.34C166.443 534.184 166.606 534.66 166.707 534.791C166.877 535.01 167.289 535.235 167.558 535.279C168.243 535.392 168.911 534.937 169.107 534.32C169.214 533.983 169.148 532.936 169.265 533.271C169.501 533.947 169.457 535.034 170.555 535.019C171.044 535.012 171.486 534.758 171.733 534.346C171.841 534.166 172.098 533.591 172.007 533.78C171.567 534.691 172.707 535.144 173.032 534.469C173.046 534.44 172.678 534.615 172.629 534.662C172.323 534.953 172.038 535.259 171.734 535.55C171.119 536.137 170.539 536.683 170.009 537.355C169.586 537.889 169.568 539.116 169.039 539.524C168.965 539.582 168.883 539.461 168.85 539.433C167.764 538.528 165.777 539.349 164.643 538.703Z" fill="#F27B0F" stroke="#2E4166" stroke-miterlimit="10" stroke-linecap="round"/>
<path d="M209.106 378.521C209.012 378.313 209.78 378.361 210.124 377.794C210.365 377.398 210.102 376.173 210.243 376.024C210.362 375.897 210.397 376.339 210.46 376.502C210.662 377.023 210.847 377.284 211.35 377.492C212.054 377.782 212.998 376.643 213.168 376.077C213.215 375.918 213.068 376.399 213.073 376.564C213.081 376.842 213.284 377.265 213.475 377.459C213.963 377.952 214.772 377.976 215.293 377.591C215.578 377.381 216.138 376.495 216.036 376.834C215.83 377.521 215.157 378.375 216.055 379.007C216.455 379.288 216.962 379.342 217.404 379.154C217.597 379.071 218.142 378.756 217.958 378.855C217.066 379.335 217.724 380.37 218.384 380.015C218.412 380 218.011 379.925 217.943 379.935C217.525 379.991 217.115 380.072 216.699 380.129C215.855 380.243 215.065 380.346 214.242 380.578C213.586 380.763 212.852 381.746 212.183 381.766C212.09 381.769 212.094 381.623 212.083 381.581C211.735 380.211 209.646 379.709 209.106 378.521Z" fill="#F27B0F" stroke="#2E4166" stroke-miterlimit="10" stroke-linecap="round"/>
<path d="M209.051 557.658C209.276 557.432 209.194 557.781 208.987 558.423C208.635 559.517 207.784 559.05 207.063 559.522C206.965 559.585 207.3 559.526 207.414 559.554C207.625 559.603 207.949 559.685 208.112 559.836C208.324 560.035 207.951 560.525 207.859 560.653C207.45 561.21 206.648 561.53 206.053 561.842C205.934 561.905 205.663 561.901 205.697 562.029C205.697 562.031 206.202 561.896 206.222 561.891C206.486 561.845 207.023 561.957 207.205 562.195C207.899 563.104 207.498 564.145 207.026 564.952C206.899 565.171 207.373 564.583 207.575 564.434C207.844 564.236 208.389 563.89 208.769 563.995C209.269 564.135 209.583 564.616 209.848 565.022C209.934 565.152 209.929 565.467 210.08 565.428C210.158 565.407 210.055 565.267 210.048 565.187C210.018 564.861 209.959 564.441 210.116 564.14C210.51 563.387 211.279 563.319 212.052 563.445C212.319 563.489 212.59 563.503 212.857 563.545C212.964 563.561 213.207 563.69 213.179 563.585C213.102 563.293 211.086 562.78 211.581 562.01C211.722 561.793 213.573 560.336 213.49 560.263C213.384 560.168 212.359 560.643 212.165 560.674C210.682 560.891 211.307 559.228 211.679 558.589C211.783 558.411 211.49 558.955 211.386 559.132C211.213 559.428 210.96 559.687 210.588 559.654C209.952 559.596 208.564 558.152 209.051 557.658Z" fill="#F27B0F" stroke="#2E4166" stroke-miterlimit="10" stroke-linecap="round"/>
<path d="M147.553 564.912C147.777 564.684 147.696 565.034 147.489 565.675C147.136 566.771 146.286 566.303 145.565 566.774C145.466 566.839 145.802 566.778 145.916 566.806C146.126 566.855 146.45 566.939 146.614 567.091C146.826 567.287 146.453 567.779 146.361 567.905C145.952 568.463 145.15 568.784 144.555 569.097C144.436 569.158 144.165 569.153 144.199 569.284C144.199 569.284 144.704 569.148 144.723 569.146C144.988 569.099 145.525 569.209 145.707 569.447C146.4 570.357 146 571.397 145.528 572.206C145.401 572.423 145.875 571.838 146.077 571.688C146.345 571.488 146.891 571.143 147.271 571.25C147.771 571.388 148.085 571.868 148.35 572.274C148.435 572.405 148.431 572.719 148.582 572.68C148.66 572.661 148.557 572.521 148.549 572.44C148.52 572.113 148.461 571.695 148.617 571.395C149.011 570.639 149.781 570.571 150.554 570.697C150.82 570.741 151.091 570.758 151.359 570.797C151.466 570.814 151.708 570.942 151.681 570.837C151.604 570.545 149.588 570.032 150.083 569.263C150.224 569.046 152.075 567.588 151.992 567.516C151.885 567.42 150.861 567.898 150.666 567.926C149.184 568.145 149.808 566.48 150.181 565.841C150.285 565.664 149.992 566.207 149.888 566.387C149.715 566.68 149.462 566.942 149.09 566.907C148.453 566.848 147.066 565.405 147.553 564.912Z" fill="#F9CA19" stroke="#2E4166" stroke-miterlimit="10" stroke-linecap="round"/>
<path d="M247.715 547.909C247.703 547.893 247.723 547.991 247.724 547.97C247.74 547.186 247.685 546.4 247.764 545.619C247.83 544.97 247.929 544.446 248.329 543.981C248.446 543.844 249.4 546.451 249.504 546.75C249.517 546.79 249.564 546.871 249.591 546.841C250.154 546.188 250.266 545.654 251.076 545.103C251.175 545.038 251.36 544.877 251.413 544.984C251.83 545.838 250.362 547.522 250.089 548.313C250.059 548.401 250.269 548.262 250.355 548.227C250.816 548.035 250.922 547.97 251.454 547.954C252.066 547.937 252.675 548.327 252.984 548.835C253.528 549.736 250.972 549.871 250.939 549.964C250.929 549.995 253.085 550.867 253.158 550.907C253.42 551.049 255.743 552.969 254.651 553.608C253.101 554.517 249.494 551.266 248.674 550.191C248.15 549.502 248.222 548.555 247.715 547.909Z" fill="#5D569A" stroke="#2E4166" stroke-miterlimit="10" stroke-linecap="round"/>
<path d="M233.827 575.891C233.744 573.517 233.134 571.189 232.666 568.861C232.533 568.196 232.345 567.543 232.106 566.911C231.917 566.409 231.831 565.612 231.304 565.518C230.507 565.381 229.424 566.778 230.388 567.3C231.698 568.012 232.526 567.137 231.62 566.099" fill="#5D569A"/>
<path d="M233.827 575.891C233.744 573.517 233.134 571.189 232.666 568.861C232.533 568.196 232.345 567.543 232.106 566.911C231.917 566.409 231.831 565.612 231.304 565.518C230.507 565.381 229.424 566.778 230.388 567.3C231.698 568.012 232.526 567.137 231.62 566.099" stroke="#2E4166" stroke-miterlimit="10" stroke-linecap="round"/>
<path d="M235.704 574.411C235.762 572.069 236.368 569.954 237.057 567.722C237.113 567.54 237.759 566.007 237.57 565.657C237.303 565.167 236.782 567.414 238.077 567.402C239.712 567.388 238.736 565.345 237.708 565.125" fill="#5D569A"/>
<path d="M235.704 574.411C235.762 572.069 236.368 569.954 237.057 567.722C237.113 567.54 237.759 566.007 237.57 565.657C237.303 565.167 236.782 567.414 238.077 567.402C239.712 567.388 238.736 565.345 237.708 565.125" stroke="#2E4166" stroke-miterlimit="10" stroke-linecap="round"/>
<path d="M237.056 574.945C236.956 575.413 237.861 574.42 238.213 574.093C238.734 573.613 239.226 573.102 239.767 572.642C240.639 571.905 241.814 571.572 242.834 571.077C243.063 570.965 243.517 570.734 243.517 570.734C243.517 570.734 243.111 571.758 243.425 572.08C243.879 572.547 244.743 572.505 245.029 571.887C245.767 570.287 243.762 570.615 242.832 570.856" fill="#5D569A"/>
<path d="M237.056 574.945C236.956 575.413 237.861 574.42 238.213 574.093C238.734 573.613 239.226 573.102 239.767 572.642C240.639 571.905 241.814 571.572 242.834 571.077C243.063 570.965 243.517 570.734 243.517 570.734C243.517 570.734 243.111 571.758 243.425 572.08C243.879 572.547 244.743 572.505 245.029 571.887C245.767 570.287 243.762 570.615 242.832 570.856" stroke="#2E4166" stroke-miterlimit="10" stroke-linecap="round"/>
<path d="M251.031 542.106C251.585 538.544 252.883 535.34 254.395 532.125C254.622 531.643 254.637 531.012 255.038 530.661C255.249 530.478 255.556 531.115 255.808 530.993C256.282 530.765 256.566 530.255 256.639 529.744C256.766 528.845 255.054 528.728 255.163 530.654" fill="#5D569A"/>
<path d="M251.031 542.106C251.585 538.544 252.883 535.34 254.395 532.125C254.622 531.643 254.637 531.012 255.038 530.661C255.249 530.478 255.556 531.115 255.808 530.993C256.282 530.765 256.566 530.255 256.639 529.744C256.766 528.845 255.054 528.728 255.163 530.654" stroke="#2E4166" stroke-miterlimit="10" stroke-linecap="round"/>
<path d="M176.895 574.686C176.895 574.686 176.893 575.413 177.164 575.528C177.513 575.679 177.97 575.504 178.276 575.28C178.643 575.01 178.186 573.802 176.895 574.686Z" fill="#5D569A" stroke="#2E4166" stroke-miterlimit="10" stroke-linecap="round"/>
<path d="M176.145 578.462C175.69 579.171 177.558 579.661 177.735 578.835C178.077 577.242 176.68 577.627 176.145 578.462Z" fill="#5D569A" stroke="#2E4166" stroke-miterlimit="10" stroke-linecap="round"/>
<path d="M178.453 579.881C178.307 580.166 178.851 580.627 179.154 580.529C180.461 580.112 179.762 577.353 178.453 579.881Z" fill="#5D569A" stroke="#2E4166" stroke-miterlimit="10" stroke-linecap="round"/>
<path d="M180.567 578.022C180.734 577.908 181.826 579.487 182.237 578.213C182.311 577.982 182.165 577.728 182.063 577.509C181.596 576.506 180.408 578.132 180.567 578.022Z" fill="#5D569A" stroke="#2E4166" stroke-miterlimit="10" stroke-linecap="round"/>
<path d="M179.763 574.904C179.619 575.149 179.751 575.483 179.833 575.753C179.973 576.217 181.019 575.954 181.08 575.926C182.119 575.455 180.416 573.794 179.763 574.904Z" fill="#5D569A" stroke="#2E4166" stroke-miterlimit="10" stroke-linecap="round"/>
<path d="M189.775 405.893C190.479 405.978 192.057 405.471 192.733 402.767" stroke="#2E4166" stroke-linecap="round"/>
<rect x="179.461" y="696.529" width="18.7706" height="2.21061" rx="1.10531" fill="#DC89A7" stroke="#2E4166"/>
<rect x="179.461" y="702.613" width="18.7706" height="2.21061" rx="1.10531" fill="#DC89A7" stroke="#2E4166"/>
<path d="M20.6875 780.149C19.8849 780.149 19.2013 779.931 18.6367 779.494C18.0721 779.054 17.6406 778.416 17.3423 777.582C17.044 776.744 16.8949 775.732 16.8949 774.545C16.8949 773.366 17.044 772.36 17.3423 771.525C17.6442 770.687 18.0774 770.048 18.642 769.608C19.2102 769.164 19.892 768.942 20.6875 768.942C21.483 768.942 22.163 769.164 22.7276 769.608C23.2958 770.048 23.729 770.687 24.0273 771.525C24.3292 772.36 24.4801 773.366 24.4801 774.545C24.4801 775.732 24.331 776.744 24.0327 777.582C23.7344 778.416 23.3029 779.054 22.7383 779.494C22.1737 779.931 21.4901 780.149 20.6875 780.149ZM20.6875 778.977C21.483 778.977 22.1009 778.594 22.5412 777.827C22.9815 777.06 23.2017 775.966 23.2017 774.545C23.2017 773.601 23.1005 772.797 22.8981 772.132C22.6992 771.468 22.4116 770.962 22.0352 770.614C21.6623 770.266 21.2131 770.092 20.6875 770.092C19.8991 770.092 19.283 770.481 18.8391 771.259C18.3952 772.033 18.1733 773.129 18.1733 774.545C18.1733 775.49 18.2727 776.293 18.4716 776.953C18.6705 777.614 18.9563 778.116 19.3292 778.461C19.7056 778.805 20.1584 778.977 20.6875 778.977ZM31.2131 773.96V775.131H26.4403V773.96H31.2131ZM36.9619 780.149C36.1594 780.149 35.4758 779.931 34.9111 779.494C34.3465 779.054 33.915 778.416 33.6167 777.582C33.3184 776.744 33.1693 775.732 33.1693 774.545C33.1693 773.366 33.3184 772.36 33.6167 771.525C33.9186 770.687 34.3518 770.048 34.9165 769.608C35.4846 769.164 36.1665 768.942 36.9619 768.942C37.7574 768.942 38.4374 769.164 39.002 769.608C39.5702 770.048 40.0035 770.687 40.3018 771.525C40.6036 772.36 40.7545 773.366 40.7545 774.545C40.7545 775.732 40.6054 776.744 40.3071 777.582C40.0088 778.416 39.5773 779.054 39.0127 779.494C38.4481 779.931 37.7645 780.149 36.9619 780.149ZM36.9619 778.977C37.7574 778.977 38.3753 778.594 38.8156 777.827C39.2559 777.06 39.4761 775.966 39.4761 774.545C39.4761 773.601 39.3749 772.797 39.1725 772.132C38.9736 771.468 38.686 770.962 38.3096 770.614C37.9367 770.266 37.4875 770.092 36.9619 770.092C36.1736 770.092 35.5574 770.481 35.1135 771.259C34.6697 772.033 34.4477 773.129 34.4477 774.545C34.4477 775.49 34.5471 776.293 34.746 776.953C34.9449 777.614 35.2307 778.116 35.6036 778.461C35.98 778.805 36.4328 778.977 36.9619 778.977ZM46.4648 780.149C45.7616 780.149 45.1349 780.028 44.5844 779.787C44.0376 779.545 43.6025 779.21 43.2794 778.78C42.9598 778.347 42.7858 777.844 42.7574 777.273H44.0997C44.1281 777.624 44.2488 777.928 44.4619 778.184C44.675 778.436 44.9537 778.631 45.2982 778.77C45.6427 778.908 46.0244 778.977 46.4434 778.977C46.9122 778.977 47.3277 778.896 47.6899 778.732C48.0521 778.569 48.3362 778.342 48.5422 778.05C48.7481 777.759 48.8511 777.422 48.8511 777.038C48.8511 776.637 48.7517 776.284 48.5528 775.978C48.354 775.669 48.0628 775.428 47.6792 775.254C47.2957 775.08 46.827 774.993 46.273 774.993H45.3994V773.821H46.273C46.7062 773.821 47.0862 773.743 47.4129 773.587C47.7432 773.43 48.0006 773.21 48.1853 772.926C48.3735 772.642 48.4676 772.308 48.4676 771.925C48.4676 771.555 48.3859 771.234 48.2226 770.961C48.0592 770.687 47.8284 770.474 47.5301 770.321C47.2354 770.169 46.8873 770.092 46.4861 770.092C46.1096 770.092 45.7545 770.162 45.4207 770.3C45.0905 770.435 44.8206 770.632 44.6111 770.891C44.4015 771.147 44.2879 771.456 44.2702 771.818H42.9917C43.0131 771.246 43.1853 770.746 43.5084 770.316C43.8316 769.883 44.2542 769.545 44.7762 769.304C45.3018 769.062 45.8788 768.942 46.5074 768.942C47.1821 768.942 47.7609 769.078 48.2439 769.352C48.7268 769.622 49.0979 769.979 49.3572 770.423C49.6164 770.866 49.746 771.346 49.746 771.861C49.746 772.475 49.5844 772.999 49.2613 773.432C48.9417 773.865 48.5067 774.165 47.9562 774.332V774.418C48.6452 774.531 49.1831 774.824 49.5702 775.297C49.9573 775.765 50.1508 776.346 50.1508 777.038C50.1508 777.631 49.9893 778.164 49.6661 778.636C49.3465 779.105 48.9097 779.474 48.3557 779.744C47.8018 780.014 47.1714 780.149 46.4648 780.149ZM57.0383 773.96V775.131H52.2655V773.96H57.0383ZM58.7162 780V779.041L62.317 775.099C62.7396 774.638 63.0876 774.237 63.3611 773.896C63.6345 773.551 63.8369 773.228 63.9683 772.926C64.1032 772.621 64.1707 772.301 64.1707 771.967C64.1707 771.584 64.0784 771.252 63.8937 770.971C63.7126 770.691 63.464 770.474 63.148 770.321C62.8319 770.169 62.4768 770.092 62.0827 770.092C61.6636 770.092 61.2979 770.179 60.9854 770.353C60.6764 770.524 60.4367 770.763 60.2662 771.072C60.0993 771.381 60.0159 771.744 60.0159 772.159H58.7588C58.7588 771.52 58.9062 770.959 59.2009 770.476C59.4956 769.993 59.8969 769.616 60.4047 769.347C60.9161 769.077 61.4896 768.942 62.1253 768.942C62.7645 768.942 63.3309 769.077 63.8245 769.347C64.3181 769.616 64.7052 769.98 64.9857 770.439C65.2662 770.897 65.4065 771.406 65.4065 771.967C65.4065 772.369 65.3337 772.761 65.1881 773.145C65.0461 773.525 64.7975 773.949 64.4424 774.418C64.0908 774.883 63.6025 775.451 62.9775 776.122L60.5273 778.743V778.828H65.5983V780H58.7162Z" fill="black"/>
</g>
<defs>
<linearGradient id="paint0_linear_3_25262" x1="295" y1="-100.5" x2="636.184" y2="591.468" gradientUnits="userSpaceOnUse">
<stop stop-color="#494B94"/>
<stop offset="0.901042" stop-color="#7072DA"/>
</linearGradient>
<linearGradient id="paint1_linear_3_25262" x1="390" y1="390" x2="195" y2="849.5" gradientUnits="userSpaceOnUse">
<stop stop-color="#D759DA"/>
<stop offset="1" stop-color="#8E35FF"/>
</linearGradient>
<linearGradient id="paint2_linear_3_25262" x1="380.5" y1="809" x2="-53" y2="565" gradientUnits="userSpaceOnUse">
<stop stop-color="#FF005B" stop-opacity="0.39"/>
<stop offset="1" stop-color="#FF7CAB" stop-opacity="0.4"/>
</linearGradient>
<clipPath id="clip0_3_25262">
<path d="M0 0H390V789C390 800.046 381.046 809 370 809H20C8.9543 809 0 800.046 0 789V0Z" fill="white"/>
</clipPath>
</defs>
</svg>
