<svg width="390" height="809" viewBox="0 0 390 809" fill="none" xmlns="http://www.w3.org/2000/svg">
<g clip-path="url(#clip0_3_24346)">
<path d="M-3.49691e-06 -5.99998C-1.56562e-06 -17.0457 8.9543 -26 20 -26L373 -25.9999C384.046 -25.9999 393 -17.0456 393 -5.99993L393 793C393 804.046 384.046 813 373 813L19.9999 813C8.95416 813 -0.00014513 804.046 -0.000143198 793L-3.49691e-06 -5.99998Z" fill="url(#paint0_linear_3_24346)"/>
<path d="M156.196 388.553H24.9759H-23.0667C-12.0718 385.128 12.9294 378.28 24.9759 378.28C40.034 378.28 39.5559 356.3 62.0236 357.017C84.4912 357.734 77.3207 379.474 108.154 378.28C132.821 377.324 150.46 384.73 156.196 388.553Z" fill="white"/>
<path d="M235.933 466.553H367.154H415.197C404.202 463.128 379.201 456.28 367.154 456.28C352.096 456.28 352.574 434.3 330.106 435.017C307.639 435.734 314.809 457.474 283.976 456.28C259.309 455.324 241.67 462.73 235.933 466.553Z" fill="white"/>
<path d="M458.802 596.807H330.079C345.87 573.443 367.404 575.589 397.551 582.502C427.698 589.416 414.778 582.502 433.919 582.502C449.231 582.502 456.888 592.039 458.802 596.807Z" fill="white"/>
<path d="M169.523 739.212H1.42896C1.42896 726.274 10.9933 726.035 20.0795 718.608C27.3484 712.667 42.237 716.133 48.7727 718.608C85.8347 704.234 88.704 726.754 114.767 726.035C135.617 725.46 159.959 734.58 169.523 739.212Z" fill="white"/>
<path d="M311.51 803.118C367.485 785.162 411.345 804.149 427.11 816.839H155.842H40.2422H18.323C22.6789 802.319 48.0606 797.524 60.2069 796.942C69.9782 790.311 82.6585 785.007 97.6232 785.007C127.556 785.007 148.908 806.228 155.842 816.839C158.262 809.579 174.941 793.049 222.298 785.007C269.654 776.965 301.505 793.73 311.51 803.118Z" fill="#3C6124"/>
<path d="M298.806 807.764C303.103 805.998 307.34 804.456 311.51 803.118M311.51 803.118C367.485 785.162 411.345 804.149 427.11 816.839H155.842M311.51 803.118C301.505 793.73 269.654 776.965 222.298 785.007C174.941 793.049 158.262 809.579 155.842 816.839M155.842 816.839C148.908 806.228 127.556 785.007 97.6232 785.007C82.6585 785.007 69.9782 790.311 60.2069 796.942M155.842 816.839H40.2422M40.2422 816.839H18.323C22.6789 802.319 48.0606 797.524 60.2069 796.942M40.2422 816.839C43.5701 811.533 50.4333 803.574 60.2069 796.942" stroke="#2E4166" stroke-linecap="round"/>
<path d="M311.51 803.118C367.484 785.162 411.344 804.149 427.109 816.839H155.841H40.2415C43.5693 811.533 43.4519 811.743 53.2255 805.111C62.9967 798.481 80.005 796.942 94.9698 796.942C124.903 796.942 148.907 806.228 155.841 816.839C158.261 809.579 174.94 793.049 222.297 785.007C269.654 776.965 301.504 793.73 311.51 803.118Z" fill="#5A8240"/>
<path d="M298.805 807.764C303.103 805.998 307.34 804.456 311.51 803.118M311.51 803.118C367.484 785.162 411.344 804.149 427.109 816.839H155.841M311.51 803.118C301.504 793.73 269.654 776.965 222.297 785.007C174.94 793.049 158.261 809.579 155.841 816.839M155.841 816.839C148.907 806.228 124.903 796.942 94.9698 796.942C80.005 796.942 62.9967 798.481 53.2255 805.111C43.4519 811.743 43.5693 811.533 40.2415 816.839H155.841Z" stroke="#2E4166" stroke-linecap="round"/>
<path d="M311.51 803.118C367.484 785.162 411.344 804.149 427.109 816.839H155.841C158.261 809.579 174.94 793.049 222.297 785.007C269.654 776.965 301.504 793.73 311.51 803.118Z" fill="#5A8240"/>
<path d="M298.805 807.764C303.103 805.998 307.34 804.456 311.51 803.118M311.51 803.118C367.484 785.162 411.344 804.149 427.109 816.839H155.841C158.261 809.579 174.94 793.049 222.297 785.007C269.654 776.965 301.504 793.73 311.51 803.118Z" stroke="#2E4166" stroke-linecap="round"/>
<path d="M322.819 816.835C378.793 798.879 411.344 804.145 427.109 816.835H322.819C322.819 816.835 322.819 816.835 322.818 816.835C322.373 816.978 321.799 816.967 321.122 816.835H155.841C158.261 809.575 168.797 809.381 216.154 801.339C263.51 793.298 312.812 807.447 322.818 816.835H322.819Z" fill="#3C6124"/>
<path d="M298.805 807.76C303.103 805.994 318.649 818.173 322.818 816.835M322.818 816.835C378.793 798.879 411.344 804.145 427.109 816.835H155.841C158.261 809.575 168.797 809.381 216.154 801.339C263.511 793.298 312.813 807.447 322.818 816.835Z" stroke="#2E4166" stroke-linecap="round"/>
<path d="M123.069 544.815C122.105 546.561 119.802 546.035 118.992 548.543C118.238 546.39 121.004 543.458 123.069 544.815Z" fill="#294064" stroke="#2E4166" stroke-miterlimit="10" stroke-linecap="round"/>
<path d="M119.513 542.497C118.549 544.242 116.246 543.716 115.436 546.224C114.682 544.071 117.448 541.139 119.513 542.497Z" fill="#294064" stroke="#2E4166" stroke-miterlimit="10" stroke-linecap="round"/>
<path d="M115.524 528.285C112.333 527.4 114.524 528.593 111.43 527.399C110.501 527.04 109.578 526.661 108.67 526.248C107.611 525.766 106.543 525.293 105.538 524.706C104.229 523.94 98.947 520.274 102.725 519.067C105.147 518.292 108.636 520.232 110.865 520.94C117.635 523.091 123.816 526.76 129.328 531.209C132.667 533.904 136.252 539.739 130.766 542.673C127.024 544.673 123.168 543.675 119.391 542.404C111.396 539.713 104.37 535.383 96.9053 531.548C94.1404 530.127 90.3474 528.054 88.9431 525.134C88.232 523.655 87.3856 519.582 91.9733 520.019" fill="#E14438"/>
<path d="M115.524 528.285C112.333 527.4 114.524 528.593 111.43 527.399C110.501 527.04 109.578 526.661 108.67 526.248C107.611 525.766 106.543 525.293 105.538 524.706C104.229 523.94 98.947 520.274 102.725 519.067C105.147 518.292 108.636 520.232 110.865 520.94C117.635 523.091 123.816 526.76 129.328 531.209C132.667 533.904 136.252 539.739 130.766 542.673C127.024 544.673 123.168 543.675 119.391 542.404C111.396 539.713 104.37 535.383 96.9053 531.548C94.1404 530.127 90.3474 528.054 88.9431 525.134C88.232 523.655 87.3856 519.582 91.9733 520.019" stroke="#294064" stroke-miterlimit="10" stroke-linecap="round"/>
<mask id="mask0_3_24346" style="mask-type:luminance" maskUnits="userSpaceOnUse" x="88" y="518" width="46" height="26">
<path d="M115.524 528.288C112.333 527.403 114.524 528.596 111.43 527.402C110.501 527.043 109.578 526.664 108.67 526.251C107.611 525.769 106.543 525.296 105.538 524.709C104.229 523.943 98.947 520.277 102.725 519.07C105.147 518.295 108.636 520.235 110.865 520.943C117.635 523.093 123.816 526.763 129.328 531.212C132.667 533.907 136.252 539.742 130.766 542.676C127.024 544.676 123.168 543.677 119.391 542.407C111.396 539.716 104.37 535.386 96.9053 531.551C94.1404 530.13 90.3474 528.057 88.9431 525.137C88.232 523.658 87.3856 519.585 91.9733 520.022" fill="white"/>
</mask>
<g mask="url(#mask0_3_24346)">
<path d="M115.642 532.92C108.652 532.408 101.015 530.797 95.0885 527.006C93.1498 525.765 90.6413 522.703 91.2109 520.055C91.8319 517.167 97.4396 518.669 98.9022 519.841" fill="#E14438"/>
<path d="M115.642 532.92C108.652 532.408 101.015 530.797 95.0885 527.006C93.1498 525.765 90.6413 522.703 91.2109 520.055C91.8319 517.167 97.4396 518.669 98.9022 519.841" stroke="#294064" stroke-miterlimit="10" stroke-linecap="round"/>
<path d="M116.931 530.433C110.838 529.998 108.609 529.128 103.456 526.111C98.3038 523.094 98.0338 519.37 100.095 518.148C102.157 516.926 108.026 519.795 111.702 521.223" fill="#E14438"/>
<path d="M116.931 530.433C110.838 529.998 108.609 529.128 103.456 526.111C98.3038 523.094 98.0338 519.37 100.095 518.148C102.157 516.926 108.026 519.795 111.702 521.223" stroke="#294064" stroke-miterlimit="10" stroke-linecap="round"/>
<path d="M108.825 534.9L106.201 533.923C106.201 533.923 99.8508 531.546 100.688 528.775C101.365 526.536 104.807 527.02 106.476 527.128C109.21 527.305 111.769 528.194 114.427 528.816C116.094 529.206 117.815 529.436 119.434 530.016C121.079 530.605 122.282 531.768 123.963 532.161" fill="#E14438"/>
<path d="M108.825 534.9L106.201 533.923C106.201 533.923 99.8508 531.546 100.688 528.775C101.365 526.536 104.807 527.02 106.476 527.128C109.21 527.305 111.769 528.194 114.427 528.816C116.094 529.206 117.815 529.436 119.434 530.016C121.079 530.605 122.282 531.768 123.963 532.161" stroke="#294064" stroke-miterlimit="10" stroke-linecap="round"/>
<path d="M113.058 531.613C113.058 531.613 110.864 530.622 109.864 529.751C107.927 528.063 107.856 525.38 110.083 524.657C112.31 523.935 116.122 525.655 118.771 526.861" fill="#E14438"/>
<path d="M113.058 531.613C113.058 531.613 110.864 530.622 109.864 529.751C107.927 528.063 107.856 525.38 110.083 524.657C112.31 523.935 116.122 525.655 118.771 526.861" stroke="#294064" stroke-miterlimit="10" stroke-linecap="round"/>
<path d="M126.567 532.233C124.55 531.214 123.07 529.865 120.881 528.995C119.565 528.472 115.019 526.828 115.349 529.557C115.357 529.622 115.407 529.675 115.446 529.728C116.661 531.362 122.017 533.424 124.027 533.879" fill="#E14438"/>
<path d="M126.567 532.233C124.55 531.214 123.07 529.865 120.881 528.995C119.565 528.472 115.019 526.828 115.349 529.557C115.357 529.622 115.407 529.675 115.446 529.728C116.661 531.362 122.017 533.424 124.027 533.879" stroke="#FE6F64" stroke-miterlimit="10" stroke-linecap="round"/>
</g>
<path d="M148.792 542.126C148.792 542.126 147.837 543.396 147.806 545.232C150.24 542.996 152.016 542.18 153.104 539.36C156.22 531.283 149.714 524.109 142.046 522.791C134.466 521.489 125.421 523.046 118.132 524.364C109.373 525.947 101.985 529.339 94.0732 533.287C88.1095 536.264 81.2657 540.43 76.9776 543.5C72.2942 546.854 74.774 548.383 77.7807 547.86C80.5607 547.375 84.0242 550.105 86.9385 548.99C97.2413 545.05 105.236 541.471 115.491 537.407C120.512 535.417 127.749 540.983 134.294 537.063C137.537 535.121 138.205 540.312 141.543 542.087C144.692 543.763 148.792 542.126 148.792 542.126Z" fill="#E14438" stroke="#294064" stroke-miterlimit="10" stroke-linecap="round"/>
<mask id="mask1_3_24346" style="mask-type:luminance" maskUnits="userSpaceOnUse" x="74" y="522" width="80" height="28">
<path d="M148.793 542.126C148.793 542.126 147.838 543.396 147.807 545.232C150.241 542.996 152.017 542.18 153.105 539.36C156.221 531.283 149.715 524.109 142.047 522.791C134.467 521.489 125.422 523.046 118.133 524.364C109.374 525.947 101.986 529.339 94.0742 533.287C88.1105 536.264 81.2667 540.43 76.9786 543.5C72.2952 546.854 74.775 548.383 77.7817 547.86C80.5616 547.375 84.0252 550.105 86.9394 548.99C97.2423 545.05 105.237 541.471 115.492 537.407C120.513 535.417 127.75 540.983 134.295 537.063C137.538 535.121 138.206 540.312 141.543 542.087C144.693 543.763 148.793 542.126 148.793 542.126Z" fill="white"/>
</mask>
<g mask="url(#mask1_3_24346)">
<path d="M91.8513 537.778C91.8513 537.778 89.9956 538.172 84.1854 541.91C80.5075 544.277 75.2865 548.107 79.1862 550.539" fill="#E14438"/>
<path d="M91.8513 537.778C91.8513 537.778 89.9956 538.172 84.1854 541.91C80.5075 544.277 75.2865 548.107 79.1862 550.539" stroke="#294064" stroke-miterlimit="10" stroke-linecap="round"/>
<path d="M95.5394 540.101C95.5394 540.101 89.3155 543.023 83.1147 547.225C82.2301 547.824 81.3545 548.445 80.5565 549.156C79.2511 550.319 78.3221 552.065 81.0566 552.811C84.3093 553.699 87.8657 550.723 90.8174 548.987C94.5359 546.8 103.019 542.505 103.019 542.505" fill="#E14438"/>
<path d="M95.5394 540.101C95.5394 540.101 89.3155 543.023 83.1147 547.225C82.2301 547.824 81.3545 548.445 80.5565 549.156C79.2511 550.319 78.3221 552.065 81.0566 552.811C84.3093 553.699 87.8657 550.723 90.8174 548.987C94.5359 546.8 103.019 542.505 103.019 542.505" stroke="#294064" stroke-miterlimit="10" stroke-linecap="round"/>
</g>
<path d="M154.214 534.879C156.075 531.72 155.824 527.722 154.892 524.309C154.756 523.81 152.514 518.789 151.371 520.831C150.692 522.043 152.033 525.277 152.266 526.109C150.815 523.847 151.108 524.061 149.236 522.113C144.394 517.073 143.576 520.857 146.161 526.093C147.892 529.599 150.492 533.363 154.214 534.879Z" fill="#FFD432" stroke="#294064" stroke-miterlimit="10" stroke-linecap="round"/>
<path d="M119.072 527.638C116.216 525.962 118.027 527.678 115.344 525.729C114.538 525.143 113.743 524.539 112.973 523.907C112.074 523.169 111.163 522.437 110.343 521.611C109.274 520.534 105.113 515.634 109.074 515.438C111.614 515.313 114.487 518.084 116.459 519.341C122.448 523.161 127.478 528.297 131.66 534.013C134.193 537.476 136.158 544.037 130.102 545.461C125.971 546.432 122.502 544.476 119.179 542.276C112.144 537.62 106.468 531.628 100.241 526.003C97.9339 523.919 94.8018 520.94 94.1956 517.757C93.8888 516.145 94.1183 511.991 98.4393 513.594" fill="#FE6F64"/>
<path d="M119.072 527.638C116.216 525.962 118.027 527.678 115.344 525.729C114.538 525.143 113.743 524.539 112.973 523.907C112.074 523.169 111.163 522.437 110.343 521.611C109.274 520.534 105.113 515.634 109.074 515.438C111.614 515.313 114.487 518.084 116.459 519.341C122.448 523.161 127.478 528.297 131.66 534.013C134.193 537.476 136.158 544.037 130.102 545.461C125.971 546.432 122.502 544.476 119.179 542.276C112.144 537.62 106.468 531.628 100.241 526.003C97.9339 523.919 94.8018 520.94 94.1956 517.757C93.8888 516.145 94.1183 511.991 98.4393 513.594" stroke="#294064" stroke-miterlimit="10" stroke-linecap="round"/>
<path d="M117.994 532.145C111.371 529.852 104.405 526.33 99.653 521.143C98.0983 519.446 96.462 515.841 97.6931 513.429C99.0359 510.799 104.069 513.692 105.181 515.201" fill="#FE6F64"/>
<path d="M117.994 532.145C111.371 529.852 104.405 526.33 99.653 521.143C98.0983 519.446 96.462 515.841 97.6931 513.429C99.0359 510.799 104.069 513.692 105.181 515.201" stroke="#294064" stroke-miterlimit="10" stroke-linecap="round"/>
<path d="M119.88 530.074C114.104 528.086 112.173 526.672 107.97 522.432C103.766 518.191 104.463 514.523 106.77 513.872C109.076 513.222 114.011 517.504 117.195 519.829" fill="#FE6F64"/>
<path d="M119.88 530.074C114.104 528.086 112.173 526.672 107.97 522.432C103.766 518.191 104.463 514.523 106.77 513.872C109.076 513.222 114.011 517.504 117.195 519.829" stroke="#294064" stroke-miterlimit="10" stroke-linecap="round"/>
<path d="M110.898 532.305L108.613 530.686C108.613 530.686 103.087 526.756 104.609 524.294C105.839 522.304 109.041 523.656 110.626 524.19C113.223 525.064 115.466 526.582 117.875 527.866C119.386 528.672 120.99 529.336 122.405 530.313C123.843 531.306 124.707 532.739 126.23 533.551" fill="#FE6F64"/>
<path d="M110.898 532.305L108.613 530.686C108.613 530.686 103.087 526.756 104.609 524.294C105.839 522.304 109.041 523.656 110.626 524.19C113.223 525.064 115.466 526.582 117.875 527.866C119.386 528.672 120.99 529.336 122.405 530.313C123.843 531.306 124.707 532.739 126.23 533.551" stroke="#294064" stroke-miterlimit="10" stroke-linecap="round"/>
<path d="M115.834 530.216C115.834 530.216 113.969 528.694 113.226 527.595C111.788 525.466 112.41 522.854 114.748 522.729C117.086 522.604 120.327 525.246 122.577 527.093" fill="#FE6F64"/>
<path d="M115.834 530.216C115.834 530.216 113.969 528.694 113.226 527.595C111.788 525.466 112.41 522.854 114.748 522.729C117.086 522.604 120.327 525.246 122.577 527.093" stroke="#294064" stroke-miterlimit="10" stroke-linecap="round"/>
<path d="M128.729 534.291C127.042 532.788 125.958 531.104 124.066 529.699C122.93 528.856 118.96 526.098 118.576 528.82C118.567 528.885 118.602 528.949 118.626 529.01C119.38 530.902 124.026 534.272 125.851 535.229" fill="#FE6F64"/>
<path d="M128.729 534.291C127.042 532.788 125.958 531.104 124.066 529.699C122.93 528.856 118.96 526.098 118.576 528.82C118.567 528.885 118.602 528.949 118.626 529.01C119.38 530.902 124.026 534.272 125.851 535.229" stroke="#FE6F64" stroke-miterlimit="10" stroke-linecap="round"/>
<path d="M329.808 435.206C330.149 433.507 330.093 433.303 330.093 434.638L329.808 435.206Z" fill="#FE6F64"/>
<path d="M329.808 435.206C330.149 433.507 330.093 433.303 330.093 434.638" stroke="#FE6F64" stroke-miterlimit="10" stroke-linecap="round"/>
<path d="M147.043 534.96C147.043 534.317 147.247 533.796 147.499 533.796C147.75 533.796 147.954 534.317 147.954 534.96C147.954 535.602 147.75 536.123 147.499 536.123C147.247 536.123 147.043 535.602 147.043 534.96Z" fill="#294064" stroke="#294064" stroke-miterlimit="10"/>
<path d="M147.496 542.578C147.496 542.578 148.951 542.351 150.842 540.608C152.466 539.111 153.471 537.421 153.339 539.68C153.216 541.785 151.335 544.899 147.793 547.082C147.22 545.029 147.496 542.578 147.496 542.578Z" fill="#294064" stroke="#294064" stroke-miterlimit="10" stroke-linecap="round"/>
<path d="M182.888 631.476C185.145 630.459 176.118 629.039 173.642 628.991C171.885 628.956 167.786 628.537 166.032 628.654C159.548 629.086 153.202 628.508 147.299 631.845C145.504 632.859 145.725 636.732 145.543 638.43C144.807 645.301 144.655 652.386 144.446 659.285C144.183 667.937 144.885 676.558 144.885 685.189C144.885 695.781 144.003 706.428 144.665 717.02C145.022 722.73 146.423 728.731 147.299 734.362C148.315 740.892 139.095 766.662 144.721 771.163C151.152 776.307 168.245 762.957 176.011 763.141C184.612 763.348 195.056 765.528 203.651 764.032C214.661 762.119 226.023 779.512 228.136 770.756C231.85 755.362 220.078 710.31 221.058 694.628C221.404 689.11 221.951 683.671 222.376 678.164C222.465 677.01 222.063 675.154 222.814 674.213C223.286 673.624 233.45 675.908 233.791 675.969C237.281 676.584 241.324 676.9 244.329 678.822C248.285 681.354 248.408 682.046 250.916 684.969C254.487 689.139 258.036 678.367 258.379 677.286C258.924 675.557 259.357 673.387 259.694 671.578C260.091 669.461 260.881 665.258 260.136 663.017C256.179 651.151 244.404 649.335 234.888 644.577C224.886 639.575 219.168 634.274 207.708 631.592C202.121 630.284 193.563 629.649 187.911 629.649C186.109 629.649 182.533 631.636 182.888 631.476Z" fill="#ECA991" stroke="#2E4166" stroke-miterlimit="10" stroke-linecap="round"/>
<path d="M230.368 756.81C230.368 756.81 202.537 759.708 179.847 759.164C157.156 758.619 139.606 754.635 139.606 754.635C139.606 754.635 139.421 764.207 138.744 769.065C136.736 783.473 136.233 799.554 135.532 814.09C138.953 815.291 145.268 816.006 148.845 816.556C155.301 817.55 161.887 817.874 168.408 817.547C187.919 816.564 219.268 815.124 238.736 813.49C238.435 786.425 230.368 756.81 230.368 756.81Z" fill="#CFE8FF" stroke="#2E4166" stroke-miterlimit="10" stroke-linecap="round"/>
<path d="M206.879 773.49C212.721 781.987 228.737 789.302 228.737 789.302" stroke="#2E4166" stroke-miterlimit="10" stroke-linecap="round"/>
<path d="M160.299 771.15C159.608 773.192 145.657 792.048 141.898 792.567" stroke="#2E4166" stroke-miterlimit="10" stroke-linecap="round"/>
<path d="M179.532 760.887C177.386 776.018 176.905 783.08 176.969 798.343" stroke="#2E4166" stroke-miterlimit="10" stroke-linecap="round"/>
<path d="M182.894 763.87C181.57 766.187 184.829 767.497 186.086 765.961C187.632 764.071 184.067 761.818 182.894 763.87Z" stroke="#2E4166" stroke-miterlimit="10" stroke-linecap="round"/>
<path d="M382.719 711.54C382.719 711.54 386.662 726.271 388.817 754.984C390.97 783.694 388.708 793.294 391.339 826.388" stroke="#2E4166" stroke-miterlimit="10" stroke-linecap="round"/>
<path d="M307.083 574.21C302.729 574.29 298.354 575.34 294.858 575.44C286.411 575.683 283.273 573.915 277.024 579.602C268.644 587.226 263.867 606.182 265.539 609.881C267.215 613.58 275.214 596.908 283.717 594.401C288.732 592.923 291.242 599.273 298.507 599.628C300.272 599.714 301.761 599.677 303.078 599.541C296.316 611.24 286.774 620.299 279.381 631.442C267.491 649.358 257.646 670.683 267.642 691.72C274.475 706.098 302.559 710.748 317.093 707.645C324.52 712.506 332.151 717.067 340.076 721.048C345.479 723.762 350.77 725.841 356.76 726.676C360.066 727.137 367.013 724.809 367.013 724.809C367.013 724.809 374.65 728.953 381.228 728.84C387.804 728.727 393.322 724.355 393.322 724.355C393.322 724.355 398.948 728.415 404.463 727.688C409.98 726.961 415.389 721.449 415.389 721.449C415.389 721.449 424.994 723.619 429.367 720.873C433.739 718.127 432.874 710.463 432.874 710.463C432.874 710.463 448.586 711.691 456.287 710.429C459.822 709.849 471.438 706.598 465.624 705.097C458.487 703.255 443.565 697.56 433.966 691.179C420.546 682.26 410.611 668.745 397.292 659.679C391.844 655.973 385.101 654.054 378.539 653.458C369.855 652.669 360.244 651.668 352.468 655.613C337.736 663.085 327.631 677.628 313.628 686.389C310.38 688.42 304.723 687.43 301.037 686.389C300.959 686.367 300.895 686.334 300.819 686.31C299.409 685.228 297.731 684.461 296.525 683.16C292.038 678.327 288.749 670.04 289.667 663.362C291.563 649.549 296.891 635.323 304.558 623.772C306.778 620.427 309.515 616.641 311.787 613.345C314.035 610.087 318.252 603.503 318.252 603.503C318.252 603.503 323.825 593.846 322.937 586.854C322.046 579.863 317.855 576.943 314.691 575.536C312.298 574.471 309.696 574.162 307.083 574.21Z" fill="url(#paint1_linear_3_24346)" stroke="#294064" stroke-miterlimit="10" stroke-linecap="round"/>
<path d="M332.109 679.917C336.398 685.919 346.64 693.254 354.029 694.701C356.042 695.094 357.463 694.805 359.404 694.111C360.124 693.854 361.45 693.074 361.45 693.074C361.45 693.074 374.013 707.502 381.477 700.08C387.706 706.408 397.931 713.82 406.545 707.883" fill="url(#paint2_linear_3_24346)"/>
<path d="M332.109 679.917C336.398 685.919 346.64 693.254 354.029 694.701C356.042 695.094 357.463 694.805 359.404 694.111C360.124 693.854 361.45 693.074 361.45 693.074C361.45 693.074 374.013 707.502 381.477 700.08C387.706 706.408 397.931 713.82 406.545 707.883" stroke="#294064" stroke-miterlimit="10" stroke-linecap="round"/>
<path d="M370.009 681.678C381.993 691.879 394.43 702.206 408.643 709.226C413.133 711.443 421.554 714.321 423.098 707.549" fill="url(#paint3_linear_3_24346)"/>
<path d="M370.009 681.678C381.993 691.879 394.43 702.206 408.643 709.226C413.133 711.443 421.554 714.321 423.098 707.549" stroke="#294064" stroke-miterlimit="10" stroke-linecap="round"/>
<path d="M375.479 676.296C381.393 681.706 387.851 686.51 394.363 691.184C399.902 695.161 405.551 698.99 411.275 702.7C415.972 705.742 428.543 712.718 429.888 702.783" fill="url(#paint4_linear_3_24346)"/>
<path d="M375.479 676.296C381.393 681.706 387.851 686.51 394.363 691.184C399.902 695.161 405.551 698.99 411.275 702.7C415.972 705.742 428.543 712.718 429.888 702.783" stroke="#294064" stroke-miterlimit="10" stroke-linecap="round"/>
<path d="M381.7 672.121C381.7 672.121 388.212 678.06 391.635 680.831C400.386 687.916 409.86 693.851 419.84 699.057C425.299 701.905 432.022 705.622 434.658 698.09" fill="url(#paint5_linear_3_24346)"/>
<path d="M381.7 672.121C381.7 672.121 388.212 678.06 391.635 680.831C400.386 687.916 409.86 693.851 419.84 699.057C425.299 701.905 432.022 705.622 434.658 698.09" stroke="#294064" stroke-miterlimit="10" stroke-linecap="round"/>
<path d="M326.883 706.962C329.686 711.489 334.986 715.749 340.52 716.118C344.525 716.385 348.009 712.755 346.331 708.941" fill="url(#paint6_linear_3_24346)"/>
<path d="M326.883 706.962C329.686 711.489 334.986 715.749 340.52 716.118C344.525 716.385 348.009 712.755 346.331 708.941" stroke="#294064" stroke-miterlimit="10" stroke-linecap="round"/>
<path d="M336.435 700.285C340.936 705.299 353.688 718.048 357.572 704.927L336.435 700.285Z" fill="url(#paint7_linear_3_24346)"/>
<path d="M336.435 700.285C340.936 705.299 353.688 718.048 357.572 704.927" stroke="#294064" stroke-miterlimit="10" stroke-linecap="round"/>
<path d="M347.28 697.383C347.28 697.383 349.626 699.563 350.818 700.63C353.493 703.021 365.62 709.296 365.047 700.881" fill="url(#paint8_linear_3_24346)"/>
<path d="M347.28 697.383C347.28 697.383 349.626 699.563 350.818 700.63C353.493 703.021 365.62 709.296 365.047 700.881" stroke="#294064" stroke-miterlimit="10" stroke-linecap="round"/>
<path d="M357.002 711.332C358.432 712.569 359.814 713.862 361.289 715.043C365.896 718.73 380.614 729.695 385.637 720.68" fill="url(#paint9_linear_3_24346)"/>
<path d="M357.002 711.332C358.432 712.569 359.814 713.862 361.289 715.043C365.896 718.73 380.614 729.695 385.637 720.68" stroke="#294064" stroke-miterlimit="10" stroke-linecap="round"/>
<path d="M365.196 707.733C367.717 710.962 371.261 713.251 374.508 715.749C378.124 718.534 386.018 724.97 390.636 720.924C391.356 720.293 392.356 719.682 392.496 718.735" fill="url(#paint10_linear_3_24346)"/>
<path d="M365.196 707.733C367.717 710.962 371.261 713.251 374.508 715.749C378.124 718.534 386.018 724.97 390.636 720.924C391.356 720.293 392.356 719.682 392.496 718.735" stroke="#294064" stroke-miterlimit="10" stroke-linecap="round"/>
<path d="M372.153 705.806C375.457 708.915 379.369 711.313 383.141 713.832C386.525 716.09 396.555 723.018 399.861 716.711" fill="url(#paint11_linear_3_24346)"/>
<path d="M372.153 705.806C375.457 708.915 379.369 711.313 383.141 713.832C386.525 716.09 396.555 723.018 399.861 716.711" stroke="#294064" stroke-miterlimit="10" stroke-linecap="round"/>
<path d="M271.699 601.726C274.067 598.174 276.906 593.526 280.561 591.089C285.601 587.73 291.795 587.06 297.753 587.06" stroke="#294064" stroke-miterlimit="10" stroke-linecap="round"/>
<path d="M270.49 589.586C270.281 593.715 274.246 597.843 273.472 602.21C273.207 603.711 266.863 612.401 265.615 609.094C264.023 604.881 267 597.067 268.53 593.453C269.197 591.877 270.582 587.763 270.49 589.586Z" fill="#294064" stroke="#294064" stroke-miterlimit="10" stroke-linecap="round"/>
<path d="M304.656 583.298C304.656 582.061 305.167 581.06 305.801 581.06C306.432 581.06 306.945 582.061 306.945 583.298C306.945 584.533 306.432 585.535 305.801 585.535C305.167 585.535 304.656 584.533 304.656 583.298Z" fill="#294064" stroke="#294064" stroke-miterlimit="10"/>
<path d="M382.719 711.536C382.719 711.536 386.662 726.267 388.817 754.98C390.97 783.69 388.708 793.289 391.339 826.383" stroke="#2E4166" stroke-miterlimit="10" stroke-linecap="round"/>
<path d="M277.023 579.6C283.272 573.912 286.411 575.68 294.857 575.438C296.917 576.726 301.037 580.814 301.037 586.852C301.037 592.889 299.35 597.883 298.507 599.626C291.241 599.271 288.731 592.92 283.716 594.399C275.214 596.905 267.214 613.578 265.539 609.878C263.866 606.179 268.644 587.223 277.023 579.6Z" fill="#F86382"/>
<path d="M307.082 574.207C302.729 574.287 298.353 575.337 294.857 575.438M294.857 575.438C286.411 575.68 283.272 573.912 277.023 579.6C268.644 587.223 263.866 606.179 265.539 609.878C267.214 613.578 275.214 596.905 283.716 594.399C288.731 592.92 291.241 599.271 298.507 599.626M294.857 575.438C296.917 576.726 301.037 580.814 301.037 586.852C301.037 592.889 299.35 597.883 298.507 599.626M298.507 599.626C300.271 599.712 301.76 599.674 303.078 599.538" stroke="#294064" stroke-miterlimit="10" stroke-linecap="round"/>
<path d="M332.11 679.917C336.399 685.919 346.641 693.254 354.029 694.701C356.042 695.094 357.463 694.805 359.404 694.111C360.124 693.854 361.451 693.074 361.451 693.074C361.451 693.074 374.013 707.502 381.477 700.08C387.706 706.408 397.932 713.82 406.546 707.883" fill="#FF7CAB"/>
<path d="M332.11 679.917C336.399 685.919 346.641 693.254 354.029 694.701C356.042 695.094 357.463 694.805 359.404 694.111C360.124 693.854 361.451 693.074 361.451 693.074C361.451 693.074 374.013 707.502 381.477 700.08C387.706 706.408 397.932 713.82 406.546 707.883" stroke="#294064" stroke-miterlimit="10" stroke-linecap="round"/>
<path d="M370.009 681.675C381.993 691.877 394.43 702.203 408.642 709.224C413.132 711.441 421.554 714.318 423.098 707.547" fill="#FF7CAB"/>
<path d="M370.009 681.675C381.993 691.877 394.43 702.203 408.642 709.224C413.132 711.441 421.554 714.318 423.098 707.547" stroke="#294064" stroke-miterlimit="10" stroke-linecap="round"/>
<path d="M375.479 676.294C381.393 681.703 387.852 686.508 394.363 691.181C399.903 695.159 405.552 698.988 411.276 702.697C415.972 705.739 428.543 712.715 429.889 702.78" fill="#FF7CAB"/>
<path d="M375.479 676.294C381.393 681.703 387.852 686.508 394.363 691.181C399.903 695.159 405.552 698.988 411.276 702.697C415.972 705.739 428.543 712.715 429.889 702.78" stroke="#294064" stroke-miterlimit="10" stroke-linecap="round"/>
<path d="M381.699 672.119C381.699 672.119 388.211 678.058 391.634 680.829C400.385 687.914 409.859 693.848 419.839 699.054C425.298 701.902 432.021 705.619 434.657 698.088" fill="#FF7CAB"/>
<path d="M381.699 672.119C381.699 672.119 388.211 678.058 391.634 680.829C400.385 687.914 409.859 693.848 419.839 699.054C425.298 701.902 432.021 705.619 434.657 698.088" stroke="#294064" stroke-miterlimit="10" stroke-linecap="round"/>
<path d="M326.882 706.96C329.686 711.487 334.985 715.747 340.519 716.116C344.524 716.383 348.008 712.753 346.33 708.939" fill="#FF7CAB"/>
<path d="M326.882 706.96C329.686 711.487 334.985 715.747 340.519 716.116C344.524 716.383 348.008 712.753 346.33 708.939" stroke="#294064" stroke-miterlimit="10" stroke-linecap="round"/>
<path d="M336.434 700.281C340.935 705.294 353.687 718.043 357.571 704.922L336.434 700.281Z" fill="#FF7CAB"/>
<path d="M336.434 700.281C340.935 705.294 353.687 718.043 357.571 704.922" stroke="#294064" stroke-miterlimit="10" stroke-linecap="round"/>
<path d="M347.28 697.378C347.28 697.378 349.625 699.558 350.817 700.626C353.492 703.017 365.619 709.292 365.047 700.876" fill="#FF7CAB"/>
<path d="M347.28 697.378C347.28 697.378 349.625 699.558 350.817 700.626C353.492 703.017 365.619 709.292 365.047 700.876" stroke="#294064" stroke-miterlimit="10" stroke-linecap="round"/>
<path d="M357.002 711.329C358.432 712.566 359.814 713.86 361.288 715.041C365.895 718.727 380.613 729.693 385.637 720.677" fill="#FF7CAB"/>
<path d="M357.002 711.329C358.432 712.566 359.814 713.86 361.288 715.041C365.895 718.727 380.613 729.693 385.637 720.677" stroke="#294064" stroke-miterlimit="10" stroke-linecap="round"/>
<path d="M365.195 707.731C367.716 710.959 371.259 713.248 374.507 715.747C378.123 718.532 386.016 724.967 390.635 720.921C391.355 720.291 392.355 719.68 392.495 718.732" fill="#FF7CAB"/>
<path d="M365.195 707.731C367.716 710.959 371.259 713.248 374.507 715.747C378.123 718.532 386.016 724.967 390.635 720.921C391.355 720.291 392.355 719.68 392.495 718.732" stroke="#294064" stroke-miterlimit="10" stroke-linecap="round"/>
<path d="M372.152 705.802C375.456 708.911 379.368 711.309 383.14 713.827C386.524 716.085 396.554 723.013 399.86 716.707" fill="#FF7CAB"/>
<path d="M372.152 705.802C375.456 708.911 379.368 711.309 383.14 713.827C386.524 716.085 396.554 723.013 399.86 716.707" stroke="#294064" stroke-miterlimit="10" stroke-linecap="round"/>
<path d="M271.698 601.726C274.066 598.174 276.906 593.526 280.561 591.089C285.601 587.73 291.794 587.06 297.753 587.06" stroke="#294064" stroke-miterlimit="10" stroke-linecap="round"/>
<path d="M270.49 589.583C270.28 593.713 274.245 597.84 273.472 602.207C273.206 603.708 266.862 612.399 265.614 609.092C264.023 604.878 266.999 597.065 268.529 593.451C269.197 591.875 270.582 587.761 270.49 589.583Z" fill="#294064" stroke="#294064" stroke-miterlimit="10" stroke-linecap="round"/>
<path d="M304.656 583.293C304.656 582.057 305.167 581.055 305.801 581.055C306.432 581.055 306.946 582.057 306.946 583.293C306.946 584.529 306.432 585.531 305.801 585.531C305.167 585.531 304.656 584.529 304.656 583.293Z" fill="#294064" stroke="#294064" stroke-miterlimit="10"/>
<path d="M322.139 538.531C318.989 536.956 316.289 539.213 315.253 542.116C314.114 545.309 317.015 552.241 318.934 554.758C327.366 565.827 341.526 568.625 354.686 568.625" fill="#158B56"/>
<path d="M322.139 538.531C318.989 536.956 316.289 539.213 315.253 542.116C314.114 545.309 317.015 552.241 318.934 554.758C327.366 565.827 341.526 568.625 354.686 568.625" stroke="#2E4166" stroke-miterlimit="10" stroke-linecap="round"/>
<path d="M356.863 568.653C356.413 568.429 357.475 569.447 357.793 569.836C358.312 570.473 358.801 571.134 359.312 571.779C360.406 573.161 361.521 574.527 362.607 575.917C364.338 578.137 365.994 580.416 367.675 582.675C373.572 590.596 379.533 598.818 386.933 605.395C389.641 607.803 392.88 610.609 396.393 608.267" fill="#158B56"/>
<path d="M356.863 568.653C356.413 568.429 357.475 569.447 357.793 569.836C358.312 570.473 358.801 571.134 359.312 571.779C360.406 573.161 361.521 574.527 362.607 575.917C364.338 578.137 365.994 580.416 367.675 582.675C373.572 590.596 379.533 598.818 386.933 605.395C389.641 607.803 392.88 610.609 396.393 608.267" stroke="#2E4166" stroke-miterlimit="10" stroke-linecap="round"/>
<path d="M362.607 575.915C361.521 574.525 360.406 573.159 359.312 571.777C360.573 571.129 363.71 571.05 366.167 575.915C366.766 577.101 368.329 579.109 370.483 581.595C368.798 582.36 366.904 581.276 366.167 580.638C364.994 579.053 363.819 577.47 362.607 575.915Z" fill="#11633E"/>
<path d="M356.863 568.652C356.413 568.427 357.475 569.445 357.793 569.834C358.312 570.471 358.801 571.132 359.312 571.777M359.312 571.777C360.406 573.159 361.521 574.525 362.607 575.915C363.819 577.47 364.994 579.053 366.167 580.638M359.312 571.777C360.573 571.129 363.71 571.05 366.167 575.915C366.766 577.101 368.329 579.109 370.483 581.595C368.798 582.36 366.904 581.276 366.167 580.638M367.675 582.673C367.171 581.996 366.669 581.317 366.167 580.638" stroke="#2E4166" stroke-miterlimit="10" stroke-linecap="round"/>
<path d="M361.761 570.847C361.761 570.847 361.51 572.133 362.197 573.073C364.173 575.78 369.448 581.996 369.448 581.996C369.448 581.996 383.694 599.784 391.915 606.998C394.252 609.048 401.911 614.689 403.128 608.596" fill="#158B56"/>
<path d="M361.761 570.847C361.761 570.847 361.51 572.133 362.197 573.073C364.173 575.78 369.448 581.996 369.448 581.996C369.448 581.996 383.694 599.784 391.915 606.998C394.252 609.048 401.911 614.689 403.128 608.596" stroke="#2E4166" stroke-miterlimit="10" stroke-linecap="round"/>
<path d="M362.197 573.075C361.51 572.135 361.761 570.849 361.761 570.849C361.761 566.495 370.283 576.468 374.544 581.998C372.198 582.99 370.169 582.412 369.448 581.998C369.448 581.998 364.173 575.783 362.197 573.075Z" fill="#11633E" stroke="#2E4166" stroke-miterlimit="10" stroke-linecap="round"/>
<path d="M365.511 573.011C375.141 583.485 387.078 594.424 396.899 604.718C398.959 606.877 403.38 610.213 404.684 609.143C407.359 606.948 402.877 601.638 400.361 598.928C391.256 589.115 381.441 579.982 371.981 570.509" fill="#158B56"/>
<path d="M365.511 573.011C375.141 583.485 387.078 594.424 396.899 604.718C398.959 606.877 403.38 610.213 404.684 609.143C407.359 606.948 402.877 601.638 400.361 598.928C391.256 589.115 381.441 579.982 371.981 570.509" stroke="#2E4166" stroke-miterlimit="10" stroke-linecap="round"/>
<path d="M373.61 581.455C370.803 578.621 368.075 575.799 365.511 573.011L371.981 570.509C375.656 574.189 379.384 577.818 383.103 581.455C382.245 584.359 376.417 582.665 373.61 581.455Z" fill="#11633E" stroke="#2E4166" stroke-miterlimit="10" stroke-linecap="round"/>
<path d="M378.802 574.101C374.108 569.199 372.151 561.956 362.942 548.393C353.73 534.831 349.419 530.345 342.79 519.056C338.482 511.715 331.61 507.191 324.638 510.775C319 513.672 318.037 515.981 317.442 519.746C316.281 527.118 316.973 534.462 319.665 541.423C322.119 547.779 324.63 553.483 329.706 558.027C336.77 564.351 347.252 570.109 356.121 573.468C361.272 575.42 389.536 585.305 378.802 574.101Z" fill="#66C34F" stroke="#2E4166" stroke-miterlimit="10" stroke-linecap="round"/>
<path d="M378.802 574.102C374.108 569.2 372.151 561.956 362.942 548.394C353.73 534.831 349.419 530.345 342.79 519.056C338.482 511.716 335.871 504.648 324.004 507.72C318.366 510.617 318.037 515.981 317.442 519.747C316.281 527.118 316.973 534.462 319.665 541.423C322.119 547.779 324.63 553.483 329.706 558.028C336.77 564.352 347.252 570.11 356.121 573.469C361.272 575.42 389.536 585.305 378.802 574.102Z" fill="#66C34F" stroke="#2E4166" stroke-miterlimit="10" stroke-linecap="round"/>
<path d="M317.443 519.747C318.037 515.982 318.367 510.617 324.004 507.72C326.198 507.152 328.076 506.93 329.706 506.993C329.74 506.993 329.775 506.994 329.811 506.998C334.138 507.198 336.712 509.417 338.852 512.466C338.891 514.588 335.485 514.839 333.777 514.7C333.107 518.497 322.608 519.647 317.443 519.747Z" fill="#EFE65D"/>
<path d="M333.777 514.7C334.594 510.069 331.25 507.128 329.811 506.998C329.776 506.996 329.741 506.995 329.706 506.993C329.74 506.993 329.774 506.994 329.811 506.998C334.137 507.198 336.711 509.417 338.852 512.466C338.891 514.588 335.485 514.839 333.777 514.7Z" fill="#FBB13A"/>
<path d="M350.265 530.134C346.085 529.133 344.932 528.406 340.663 528.939C322.108 531.257 330.881 547.368 338.585 554.47C347.238 562.445 358.589 569.109 371.193 572.736C373 573.256 377.984 574.409 379.542 573.148C381.097 571.887 380.167 568.142 377.417 567.69" fill="#66C34F"/>
<path d="M350.265 530.134C346.085 529.133 344.932 528.406 340.663 528.939C322.108 531.257 330.881 547.368 338.585 554.47C347.238 562.445 358.589 569.109 371.193 572.736C373 573.256 377.984 574.409 379.542 573.148C381.097 571.887 380.167 568.142 377.417 567.69" stroke="#2E4166" stroke-miterlimit="10" stroke-linecap="round"/>
<path d="M345.426 552.756C345.426 552.756 353.278 561.907 361.928 566.552C371.589 571.74 378.88 572.882 381.893 570.887C385.006 568.828 377.713 566.537 377.046 562.814" fill="#56A0F9"/>
<path d="M345.426 552.756C345.426 552.756 353.278 561.907 361.928 566.552C371.589 571.74 378.88 572.882 381.893 570.887C385.006 568.828 377.713 566.537 377.046 562.814" stroke="#2E4166" stroke-miterlimit="10" stroke-linecap="round"/>
<path d="M350.672 550.072L356.511 556.403C356.511 556.403 361.498 561.822 370.503 566.635C377.618 570.438 387.874 571.053 383.758 567.179C378.36 562.1 376.841 561.444 374.376 558.148C367.239 548.597 363.79 533.247 348.341 529.622" fill="#66C34F"/>
<path d="M350.672 550.072L356.511 556.403C356.511 556.403 361.498 561.822 370.503 566.635C377.618 570.438 387.874 571.053 383.758 567.179C378.36 562.1 376.841 561.444 374.376 558.148C367.239 548.597 363.79 533.247 348.341 529.622" stroke="#2E4166" stroke-miterlimit="10" stroke-linecap="round"/>
<path d="M370.504 566.633C361.499 561.82 356.512 556.401 356.512 556.401C360.592 557.026 368.558 556.043 367.774 547.108C369.959 550.999 371.955 554.906 374.377 558.146C376.842 561.442 378.361 562.098 383.759 567.177C387.874 571.051 377.618 570.436 370.504 566.633Z" fill="#56A0F9"/>
<path d="M350.673 550.07L356.512 556.401M356.512 556.401C356.512 556.401 361.499 561.82 370.504 566.633C377.618 570.436 387.874 571.051 383.759 567.177C378.361 562.098 376.842 561.442 374.377 558.146C371.955 554.906 369.959 550.999 367.774 547.108C368.558 556.043 360.592 557.026 356.512 556.401Z" stroke="#2E4166" stroke-miterlimit="10" stroke-linecap="round"/>
<path d="M342.731 548.689C342.731 548.689 342.201 551.578 344.702 555.25C346.897 558.47 349.056 559.885 352.8 561.094C354.71 561.71 358.058 561.496 358.658 558.787" fill="#66C34F"/>
<path d="M342.731 548.689C342.731 548.689 342.201 551.578 344.702 555.25C346.897 558.47 349.056 559.885 352.8 561.094C354.71 561.71 358.058 561.496 358.658 558.787" stroke="#2E4166" stroke-miterlimit="10" stroke-linecap="round"/>
<path d="M347.78 547.487C349.363 551.801 354.28 554.744 354.28 554.744C354.28 554.744 362.724 560.471 365.84 555.392" fill="#66C34F"/>
<path d="M347.78 547.487C349.363 551.801 354.28 554.744 354.28 554.744C354.28 554.744 362.724 560.471 365.84 555.392" stroke="#2E4166" stroke-miterlimit="10" stroke-linecap="round"/>
<path d="M352.831 545.511C358.661 553.949 365.181 556.966 368.01 555.048C371.003 553.017 365.033 542.481 365.033 542.481" fill="#66C34F"/>
<path d="M352.831 545.511C358.661 553.949 365.181 556.966 368.01 555.048C371.003 553.017 365.033 542.481 365.033 542.481" stroke="#2E4166" stroke-miterlimit="10" stroke-linecap="round"/>
<path d="M328.117 517.561C327.6 514.774 326.176 511.862 323.998 511.335C322.798 511.045 319.963 510.702 315.901 513.951C312.307 516.825 311.112 522.702 311.408 524.771C311.704 526.839 314.781 522.063 317.082 522.225C321.912 522.565 329.407 524.522 328.117 517.561Z" fill="#E14438" stroke="#2E4166" stroke-miterlimit="10" stroke-linecap="round"/>
<path d="M332.084 514.547C332.084 513.691 332.397 512.998 332.78 512.998C333.165 512.998 333.475 513.691 333.475 514.547C333.475 515.402 333.165 516.095 332.78 516.095C332.397 516.095 332.084 515.402 332.084 514.547Z" fill="#294064" stroke="#2E4166" stroke-miterlimit="10"/>
<path d="M270.343 706.627C274.799 704.707 278.658 690.543 278.658 690.543C278.658 690.543 281.065 677.383 281.45 668.491C281.836 659.598 280.082 656.185 277.558 655.449C273.492 654.264 269.103 653.278 264.753 653.714C260.902 654.099 256.884 656.652 253.592 658.478C249.51 660.743 244.506 662.604 240.834 665.532C238.91 667.066 237.257 668.899 235.426 670.532" fill="#DBB3C2"/>
<path d="M270.343 706.627C274.799 704.707 278.658 690.543 278.658 690.543C278.658 690.543 281.065 677.383 281.45 668.491C281.836 659.598 280.082 656.185 277.558 655.449C273.492 654.264 269.103 653.278 264.753 653.714C260.902 654.099 256.884 656.652 253.592 658.478C249.51 660.743 244.506 662.604 240.834 665.532C238.91 667.066 237.257 668.899 235.426 670.532" stroke="#2E4166" stroke-miterlimit="10" stroke-linecap="round"/>
<path d="M161.97 634.189C161.97 634.189 171.808 646.71 185.672 647.066C199.536 647.422 217.429 635.612 217.429 635.612C217.429 635.612 229.098 673.301 228.863 691.09C228.743 700.004 231.829 728.675 231.829 728.675C231.829 728.675 205.609 731.616 182.246 730.523C158.881 729.43 138.37 724.304 138.37 724.304L161.97 634.189Z" fill="#FF7CAB" stroke="#2E4166" stroke-miterlimit="10" stroke-linecap="round"/>
<path d="M164.997 669.542C163.079 675.636 172.812 679.295 172.809 670.219C172.808 668.787 172.234 667.396 171.696 666.068C171.319 665.138 170.628 664.37 170.093 663.521C173.915 668.037 181.514 657.423 175.388 656.434C173.459 656.122 171.498 656.074 169.553 655.894C174.057 651.652 172.118 648.53 165.991 649.022C162.83 649.276 161.073 651.466 159.642 653.983" stroke="#FED4E4" stroke-miterlimit="10" stroke-linecap="round"/>
<path d="M206.355 661.412C205.241 659.394 204.077 657.049 201.949 655.897C199.059 654.333 194.396 657.521 195.843 660.974C196.61 662.811 198.149 663.54 199.755 664.533C196.122 662.427 189.87 672.559 195.443 671.919C196.303 671.821 197.141 671.596 197.99 671.435C196.784 673.536 194.636 680.371 200.235 679.221C202.994 678.654 204.764 675.68 207.048 674.269" stroke="#FED4E4" stroke-miterlimit="10" stroke-linecap="round"/>
<path d="M185.219 682.092C182.917 672.994 174.226 680.653 178.468 685.063C180.282 686.948 179.39 686.179 181.304 687.186C179.207 686.109 175.513 689.382 174.301 690.594C166.77 698.128 176.448 704.327 181.938 697.592C182.602 696.778 183.153 695.88 183.761 695.024C185.221 696.979 185.923 702.666 189.544 701.37C192.897 700.17 193.776 691.513 190.415 691.168C196.108 693.719 201.488 684.067 193.947 685.016C193.036 685.13 192.155 685.404 191.26 685.598C195.466 680.569 187.428 673.731 185.219 682.092Z" stroke="#FED4E4" stroke-miterlimit="10" stroke-linecap="round"/>
<path d="M199.302 717.288C198.571 717.714 198.61 717.76 197.677 717.953C196.918 718.109 196.253 718.149 195.485 718.041C192.001 717.551 197.091 713.818 196.946 712.941C196.753 711.777 195.851 710.767 195.809 709.587C195.636 704.868 199.601 705.714 202.005 708.437" stroke="#FED4E4" stroke-miterlimit="10" stroke-linecap="round"/>
<path d="M161.786 702.244C165.721 700.43 165.428 706.03 165.192 707.7C172.571 706.598 171.485 711.507 165.992 711.78C166.656 713.357 168.708 713.458 168.787 715.515C168.923 719.048 162.389 717.861 160.773 716.904C159.396 716.09 159.358 713.965 158.673 712.635" stroke="#FED4E4" stroke-miterlimit="10" stroke-linecap="round"/>
<path d="M328.89 592.128C314.376 610.842 307.851 636.738 290.022 652.953C287.403 655.334 283.497 655.643 279.057 655.126C269.588 654.024 257.702 649.163 250.763 652.62C244.464 655.757 254.024 667.25 253.438 673.721C253.167 676.714 245.628 676.894 248.825 677.724C251.738 678.48 256.077 678.874 260.254 679.762C271.655 682.185 285.502 684.972 293.638 683.614C306.614 681.447 313.879 671.933 317.886 666.311C332.325 646.05 334.489 633.244 343.452 610.553C345.435 605.532 344.284 601.451 340.291 597.524C337.357 594.639 331.378 588.92 328.89 592.128Z" fill="#ECA991" stroke="#2E4166" stroke-miterlimit="10" stroke-linecap="round"/>
<path d="M326.49 595.385C326.49 595.385 325.836 589.024 326.384 586.141C326.853 583.661 327.355 580.649 328.12 578.219C329.734 573.085 334.135 569.45 338.731 566.33C342.263 563.931 346.139 561.94 350.232 560.469C350.983 560.2 356.543 558.26 357.436 559.939C358.411 561.766 355.912 563.601 355.912 563.601C355.912 563.601 349.397 567.596 346.292 569.726C345.689 570.138 341.364 572.845 341.194 573.563C341.068 574.097 345.516 575.788 345.927 576.338C348.719 580.076 351.891 584.255 352.187 588.905C352.449 593.057 349.769 597.613 347.652 601.133C346.189 603.566 343.712 609.878 343.712 609.878" fill="#ECA991"/>
<path d="M326.49 595.385C326.49 595.385 325.836 589.024 326.384 586.141C326.853 583.661 327.355 580.649 328.12 578.219C329.734 573.085 334.135 569.45 338.731 566.33C342.263 563.931 346.139 561.94 350.232 560.469C350.983 560.2 356.543 558.26 357.436 559.939C358.411 561.766 355.912 563.601 355.912 563.601C355.912 563.601 349.397 567.596 346.292 569.726C345.689 570.138 341.364 572.845 341.194 573.563C341.068 574.097 345.516 575.788 345.927 576.338C348.719 580.076 351.891 584.255 352.187 588.905C352.449 593.057 349.769 597.613 347.652 601.133C346.189 603.566 343.712 609.878 343.712 609.878" stroke="#2E4166" stroke-miterlimit="10" stroke-linecap="round"/>
<path d="M350.436 581.276C350.252 581.164 352.15 581.239 352.737 581.597C353.96 582.344 354.526 583.466 354.951 584.722C356.034 587.926 355.775 593.233 352.301 595.155C348.127 597.462 349.894 590.673 350.21 589.836C350.291 589.62 350.883 587.933 350.95 587.951" fill="#ECA991"/>
<path d="M350.436 581.276C350.252 581.164 352.15 581.239 352.737 581.597C353.96 582.344 354.526 583.466 354.951 584.722C356.034 587.926 355.775 593.233 352.301 595.155C348.127 597.462 349.894 590.673 350.21 589.836C350.291 589.62 350.883 587.933 350.95 587.951" stroke="#2E4166" stroke-miterlimit="10" stroke-linecap="round"/>
<path d="M345.008 575.717C344.637 575.28 345.474 575.289 345.745 575.188C347.032 574.713 349.699 574.914 350.674 575.71C351.964 576.764 352.664 579.925 352.321 584.517C351.98 589.109 351.33 591.375 349.305 594.079C347.08 597.051 343.595 590.773 344.159 588.953" fill="#ECA991"/>
<path d="M345.008 575.717C344.637 575.28 345.474 575.289 345.745 575.188C347.032 574.713 349.699 574.914 350.674 575.71C351.964 576.764 352.664 579.925 352.321 584.517C351.98 589.109 351.33 591.375 349.305 594.079C347.08 597.051 343.595 590.773 344.159 588.953" stroke="#2E4166" stroke-miterlimit="10" stroke-linecap="round"/>
<path d="M341.221 573.651C343.315 573.285 344.365 573.263 346.61 574.632C347.844 575.385 348.869 577.514 348.958 578.721C349.185 581.791 348.763 590.922 345.133 592.584C343.028 593.548 342.251 588.808 342.251 588.808L342.606 583.08C342.606 583.08 343.525 579.604 339.3 580.341" fill="#ECA991"/>
<path d="M341.221 573.651C343.315 573.285 344.365 573.263 346.61 574.632C347.844 575.385 348.869 577.514 348.958 578.721C349.185 581.791 348.763 590.922 345.133 592.584C343.028 593.548 342.251 588.808 342.251 588.808L342.606 583.08C342.606 583.08 343.525 579.604 339.3 580.341" stroke="#2E4166" stroke-miterlimit="10" stroke-linecap="round"/>
<path d="M329.097 581.173C329.097 581.173 332.618 575.791 333.919 574.044C338.373 568.062 340.037 572.514 339.506 576.104C339.074 579.02 336.279 583.289 334.849 586.189C334.224 587.464 335.273 586.89 337.404 589.76C339.811 593.004 340.182 595.554 338.49 599.531" fill="#ECA991"/>
<path d="M329.097 581.173C329.097 581.173 332.618 575.791 333.919 574.044C338.373 568.062 340.037 572.514 339.506 576.104C339.074 579.02 336.279 583.289 334.849 586.189C334.224 587.464 335.273 586.89 337.404 589.76C339.811 593.004 340.182 595.554 338.49 599.531" stroke="#2E4166" stroke-miterlimit="10" stroke-linecap="round"/>
<path d="M339.247 565.948C338.574 565.941 338.451 567.756 338.49 568.192C338.627 569.709 340.576 571.535 342.159 571.025" stroke="#2E4166" stroke-miterlimit="10" stroke-linecap="round"/>
<path d="M343.232 563.262C341.478 564.981 344.751 568.909 346.105 567.581" stroke="#2E4166" stroke-miterlimit="10" stroke-linecap="round"/>
<path d="M117.31 623.881C102.749 621.243 86.0082 617.281 86.0082 617.281C86.0082 617.281 94.2906 593.827 100.394 569.048C92.269 566.176 92.269 566.176 84.1441 563.304C77.3913 573.789 70.8672 581.212 63.9049 598.69C56.599 617.031 51.1239 629.393 62.236 638.978C70.5433 646.143 107.524 652.459 117.818 653.871C133.063 655.963 120.232 649.405 135.536 647.757" fill="#ECA991"/>
<path d="M117.31 623.881C102.749 621.243 86.0082 617.281 86.0082 617.281C86.0082 617.281 94.2906 593.827 100.394 569.048C92.269 566.176 92.269 566.176 84.1441 563.304C77.3913 573.789 70.8672 581.212 63.9049 598.69C56.599 617.031 51.1239 629.393 62.236 638.978C70.5433 646.143 107.524 652.459 117.818 653.871C133.063 655.963 120.232 649.405 135.536 647.757" stroke="#2E4166" stroke-miterlimit="10" stroke-linecap="round"/>
<path d="M82.9045 566.732C82.9045 566.732 89.9754 554.668 95.6283 549.125C97.9386 546.859 100.872 544.901 103.464 542.979C104.636 542.11 105.692 541.505 106.874 540.703C106.995 540.621 107.117 540.56 107.238 540.478C110.493 538.283 113.96 536.154 117.797 534.736C119.779 534.003 118.724 536.408 121.853 536.804C122.646 536.904 125.223 537.58 125.341 538.818C126.056 546.339 126.493 546.985 121.46 552.077C120.955 552.588 119.391 554.481 118.925 554.967C115.786 558.233 112.265 561.889 108.244 564.284C106.214 565.492 104.675 565.867 102.692 567.144C100.697 568.429 99.4104 572.549 99.4104 572.549" fill="#ECA991"/>
<path d="M82.9045 566.732C82.9045 566.732 89.9754 554.668 95.6283 549.125C97.9386 546.859 100.872 544.901 103.464 542.979C104.636 542.11 105.692 541.505 106.874 540.703C106.995 540.621 107.117 540.56 107.238 540.478C110.493 538.283 113.96 536.154 117.797 534.736C119.779 534.003 118.724 536.408 121.853 536.804C122.646 536.904 125.223 537.58 125.341 538.818C126.056 546.339 126.493 546.985 121.46 552.077C120.955 552.588 119.391 554.481 118.925 554.967C115.786 558.233 112.265 561.889 108.244 564.284C106.214 565.492 104.675 565.867 102.692 567.144C100.697 568.429 99.4104 572.549 99.4104 572.549" stroke="#2E4166" stroke-miterlimit="10" stroke-linecap="round"/>
<path d="M105.78 540.552C109.889 537.012 114.967 541.415 120.308 544.951C126.149 548.818 129.111 550.654 129.111 550.654C129.111 550.654 133.248 552.737 132.26 554.891C131.537 556.467 127.932 555.573 127.932 555.573C127.932 555.573 124.964 554.711 122.455 553.507C119.944 552.302 115.253 549.356 113.273 548.245C106.42 544.399 111.998 547.738 110.179 545.996" fill="#ECA991"/>
<path d="M105.78 540.552C109.889 537.012 114.967 541.415 120.308 544.951C126.149 548.818 129.111 550.654 129.111 550.654C129.111 550.654 133.248 552.737 132.26 554.891C131.537 556.467 127.932 555.573 127.932 555.573C127.932 555.573 124.964 554.711 122.455 553.507C119.944 552.302 115.253 549.356 113.273 548.245C106.42 544.399 111.998 547.738 110.179 545.996" stroke="#2E4166" stroke-miterlimit="10" stroke-linecap="round"/>
<path d="M102.294 543.169C103.259 540.722 107.103 540.174 109.272 541.512C110.998 542.576 113.498 545.764 114.601 548.957C115.965 552.907 113.691 556.967 110.073 556.407" fill="#ECA991"/>
<path d="M102.294 543.169C103.259 540.722 107.103 540.174 109.272 541.512C110.998 542.576 113.498 545.764 114.601 548.957C115.965 552.907 113.691 556.967 110.073 556.407" stroke="#2E4166" stroke-miterlimit="10" stroke-linecap="round"/>
<path d="M98.498 545.663C99.5764 541.752 104.646 543.322 106.915 544.73C109.851 546.551 111.029 550.47 110.699 553.804C110.451 556.312 108.873 559.423 105.524 558.374" fill="#ECA991"/>
<path d="M98.498 545.663C99.5764 541.752 104.646 543.322 106.915 544.73C109.851 546.551 111.029 550.47 110.699 553.804C110.451 556.312 108.873 559.423 105.524 558.374" stroke="#2E4166" stroke-miterlimit="10" stroke-linecap="round"/>
<path d="M92.9832 552.081C92.9634 548.559 97.5419 543.645 101.266 546.873C104.481 549.66 107.005 553.464 106.014 557.315C104.192 564.393 88.8579 561.435 99.5082 557.225C100.541 556.817 100.109 555.319 100.109 555.319C100.109 555.319 99.179 553.571 98.0392 552.355" fill="#ECA991"/>
<path d="M92.9832 552.081C92.9634 548.559 97.5419 543.645 101.266 546.873C104.481 549.66 107.005 553.464 106.014 557.315C104.192 564.393 88.8579 561.435 99.5082 557.225C100.541 556.817 100.109 555.319 100.109 555.319C100.109 555.319 99.179 553.571 98.0392 552.355" stroke="#2E4166" stroke-miterlimit="10" stroke-linecap="round"/>
<path d="M173.474 628.944L106.592 621.291C106.592 621.291 103.319 641.19 102.916 650.311C102.407 661.811 105.469 678.234 105.469 678.234C105.469 678.234 126.105 678.039 136.821 673.836C131.095 696.268 110.038 760.537 110.038 760.537C110.038 760.537 116.989 758.898 127.454 761.154C137.918 763.41 151.896 769.564 151.896 769.564C151.896 769.564 162.121 731.124 162.271 699.71C162.411 670.552 173.474 628.944 173.474 628.944Z" fill="#FFD4E4" stroke="#2E4166" stroke-miterlimit="10" stroke-linecap="round"/>
<path d="M244.006 697.217C251.741 703.794 269.759 706.628 269.759 706.628C269.759 706.628 262.038 697.103 265.928 680.272C266.621 677.271 268.226 672.058 270.463 667.703C274.095 660.633 278.717 654.573 278.717 654.573C278.717 654.573 257.803 644.723 241.909 639.26C226.016 633.798 208.279 631.643 208.279 631.643C208.279 631.643 200.402 709.303 194.748 770.78C215.413 769.507 225.756 763.143 246.421 761.87C248.468 733.878 241.957 725.208 244.006 697.217Z" fill="#FFD4E4" stroke="#2E4166" stroke-miterlimit="10" stroke-linecap="round"/>
<path d="M208.578 631.797C217.041 640.858 217.494 641.911 225.96 650.971C217.957 660.16 217.957 660.16 209.957 669.349C213.649 674.82 221.034 685.762 221.034 685.762C221.034 685.762 206.112 717.768 198.107 733.553" stroke="#2E4166" stroke-miterlimit="10" stroke-linecap="round"/>
<path d="M172.808 629.077C160.41 641.286 157.65 641.409 145.252 653.618C150.867 661.763 150.867 661.763 156.481 669.908C152.311 674.717 143.973 684.336 143.973 684.336C143.973 684.336 154.333 716.19 159.069 732.444" stroke="#2E4166" stroke-miterlimit="10" stroke-linecap="round"/>
<path d="M143.107 591.288C143.085 591.046 149.313 586.204 149.071 586.226C147.915 586.331 140.223 592.209 139.875 593.317C138.882 596.479 141.202 604.475 144.248 608.373C151.79 618.026 158.877 620.069 168.56 620.626C174.514 620.969 175.608 620.576 180.724 619.972C182.826 619.724 181.956 620.513 184.076 620.741C186.81 621.035 188.393 619.88 191.079 620.312C200.924 621.892 205.601 623.179 217.75 617.642C223.854 614.86 234.657 606.954 233.571 597.204C233.082 592.843 234.476 589.984 234.04 587.903" fill="#2F2F2F"/>
<path d="M143.107 591.288C143.085 591.046 149.313 586.204 149.071 586.226C147.915 586.331 140.223 592.209 139.875 593.317C138.882 596.479 141.202 604.475 144.248 608.373C151.79 618.026 158.877 620.069 168.56 620.626C174.514 620.969 175.608 620.576 180.724 619.972C182.826 619.724 181.956 620.513 184.076 620.741C186.81 621.035 188.393 619.88 191.079 620.312C200.924 621.892 205.601 623.179 217.75 617.642C223.854 614.86 234.657 606.954 233.571 597.204C233.082 592.843 234.476 589.984 234.04 587.903" stroke="#2E4166" stroke-miterlimit="10" stroke-linecap="round"/>
<path d="M181.955 553.752C181.151 553.752 179.056 552.469 178.565 552.178C173.16 548.975 171.032 541.707 171.543 535.832C171.86 532.183 174.722 527.404 177.472 525.397C183.732 520.829 192.395 519.623 199.391 525.178C205.461 529.999 206.564 535.328 205.684 542.976C205.589 543.802 204.14 549.848 198.45 552.966C192.76 556.084 191.549 558.732 182.924 555.446C181.606 554.945 179.909 554.869 179.049 553.752C178.719 553.322 178.706 552.682 178.323 552.299" fill="#2F2F2F"/>
<path d="M181.955 553.752C181.151 553.752 179.056 552.469 178.565 552.178C173.16 548.975 171.032 541.707 171.543 535.832C171.86 532.183 174.722 527.404 177.472 525.397C183.732 520.829 192.395 519.623 199.391 525.178C205.461 529.999 206.564 535.328 205.684 542.976C205.589 543.802 204.14 549.848 198.45 552.966C192.76 556.084 191.549 558.732 182.924 555.446C181.606 554.945 179.909 554.869 179.049 553.752C178.719 553.322 178.706 552.682 178.323 552.299" stroke="#2E4166" stroke-miterlimit="10" stroke-linecap="round"/>
<path d="M181.472 553.584C179.473 551.585 172.453 551.572 169.893 551.572C157.235 551.572 146.19 555.528 142.221 568.425C141.031 572.293 139.949 579.303 144.341 581.255C145.254 581.661 147.271 582.536 148.31 582.016" fill="#2F2F2F"/>
<path d="M181.472 553.584C179.473 551.585 172.453 551.572 169.893 551.572C157.235 551.572 146.19 555.528 142.221 568.425C141.031 572.293 139.949 579.303 144.341 581.255C145.254 581.661 147.271 582.536 148.31 582.016" stroke="#2E4166" stroke-miterlimit="10" stroke-linecap="round"/>
<path d="M173.749 587.318C157.284 587.441 143.792 588.891 140.186 592.822C140.167 592.843 140.157 592.869 140.137 592.89C140.478 593.035 140.775 593.21 141.032 593.431C141.197 593.573 141.337 593.714 141.474 593.873C141.637 594.063 141.792 594.263 141.975 594.522C142.124 594.733 142.702 595.595 142.83 595.78C142.879 595.85 142.913 595.893 142.958 595.957C143.191 595.878 143.43 595.785 143.646 595.731C144.069 595.625 144.42 595.56 144.776 595.554C145.133 595.548 145.49 595.605 145.916 595.751C147.322 596.232 148.13 597.254 148.717 598.64C149.029 599.375 149.257 600.174 149.513 601.274C149.575 601.54 149.796 602.531 149.847 602.748C149.862 602.81 149.873 602.83 149.887 602.886C149.987 602.93 150.079 602.954 150.181 603.003C151.553 603.674 152.338 604.423 153.759 606.099C153.783 606.127 153.774 606.13 153.798 606.158C154.591 607.094 154.946 607.443 155.302 607.672C161.864 611.881 166.138 614.915 169.562 617.981C169.596 617.969 169.626 617.953 169.66 617.942C170.112 617.791 170.473 617.672 170.918 617.549C171.62 617.355 172.325 617.205 173.071 617.097C173.632 617.015 174.196 616.964 174.771 616.949C175.346 616.935 175.926 616.951 176.53 617.018C178.446 617.232 180.337 617.878 182.073 619.141C182.324 619.324 182.527 619.565 182.761 619.77C182.792 619.782 182.818 619.786 182.849 619.799C184.824 620.631 186.473 621.895 187.763 623.485C188.836 623.677 189.89 623.964 190.957 624.438C192.179 624.981 193.39 625.325 194.477 625.5C194.91 623.84 195.784 622.342 196.954 621.116C196.875 620.171 197.057 619.228 197.671 618.414C198.193 617.717 198.699 617.456 199.419 617.205C199.71 617.104 200.033 617.014 200.41 616.93C200.991 616.801 201.731 616.677 202.664 616.536C203.415 616.423 204.241 616.305 205.395 616.153C206.916 615.953 206.592 615.977 207.31 615.878C208.237 615.488 209.022 615.21 210.672 614.699C210.728 614.682 210.725 614.676 210.781 614.659C213.473 613.826 214.601 613.357 215.684 612.507C217.753 610.883 219.526 609.151 221.835 606.61C222.201 606.209 224.186 603.98 224.312 603.839C224.541 603.582 224.776 603.197 225.228 602.286C225.267 602.206 225.264 602.201 225.306 602.119C226.141 600.437 226.624 599.649 227.557 598.787C228.537 597.88 229.662 597.125 231.349 596.154C231.385 596.133 231.502 596.068 231.575 596.026C232.343 595.147 233.205 594.284 234.73 592.93C234.825 592.846 234.822 592.846 234.917 592.763C235.551 592.201 235.816 591.922 236.165 591.583C236.176 591.559 236.199 591.499 236.204 591.485C236.31 591.232 236.428 591.079 236.528 590.876C220.219 589.137 194.636 587.162 173.749 587.318Z" fill="#2F2F2F"/>
<path d="M173.753 586.912C166.687 586.964 160.157 587.262 154.717 587.894C151.091 588.316 147.935 588.889 145.419 589.644C142.918 590.394 140.992 591.336 139.886 592.543C139.831 592.603 139.793 592.67 139.739 592.73C140.046 592.812 140.299 592.928 140.525 593.064C141.486 592.038 143.216 591.152 145.655 590.42C148.107 589.685 151.213 589.119 154.815 588.7C162.017 587.863 171.161 587.614 180.967 587.747C200.213 588.007 221.864 589.718 236.328 591.256C236.456 590.964 236.601 590.722 236.741 590.489C222.26 588.941 200.386 587.194 180.977 586.931C178.522 586.898 176.109 586.894 173.753 586.912Z" fill="#2E4166"/>
<path d="M140.25 592.573C140.085 592.605 139.909 592.682 139.739 592.73C140.113 592.83 140.401 592.985 140.663 593.163C140.706 593.084 140.74 592.993 140.722 592.897C140.679 592.678 140.469 592.531 140.25 592.573Z" fill="#2E4166"/>
<path d="M205.869 549.468C200.123 549.225 195.641 549.973 192.318 551.099C190.102 551.849 188.403 552.77 187.178 553.684C185.963 554.589 185.187 555.509 184.888 556.278C184.807 556.487 184.905 556.728 185.114 556.809C185.323 556.89 185.563 556.781 185.644 556.573C185.865 556.006 186.501 555.196 187.659 554.332C188.807 553.476 190.437 552.593 192.583 551.866C196.875 550.412 203.225 549.588 211.923 550.863C220.523 552.123 226.607 557.69 230.195 564.023C231.988 567.188 233.152 570.539 233.694 573.615C234.236 576.696 234.146 579.474 233.468 581.516C233.395 581.729 233.51 581.957 233.722 582.027C233.934 582.098 234.163 581.984 234.233 581.772C234.97 579.56 235.046 576.639 234.49 573.477C233.931 570.309 232.731 566.875 230.891 563.629C227.216 557.141 220.95 551.373 212.043 550.067C209.84 549.744 207.785 549.548 205.869 549.468Z" fill="#2E4166"/>
<path d="M185.955 557.933C166.798 557.933 150.986 568.201 147.666 581.599C147.548 582.07 147.525 582.217 147.44 582.699L147.223 583.889L146.673 582.817C146.314 582.11 145.769 581.17 144.737 580.498C143.713 579.831 142.159 579.392 139.744 579.771C137.419 580.135 136.234 581.51 135.666 583.102C135.091 584.711 135.155 586.539 135.4 587.741C135.75 588.772 136.551 590.213 137.808 591.21C139.054 592.199 140.76 592.762 142.987 592.026H142.997L143.007 592.016C143.763 591.812 145.524 591.029 146.476 589.579L147.076 588.675L147.214 589.746C147.273 590.194 147.343 590.641 147.43 591.083C149.808 603.177 162.248 614.178 178.348 616.537L178.712 616.586L178.702 616.949C178.697 617.094 178.706 617.335 178.702 617.49C179.864 617.843 180.999 618.36 182.073 619.141C182.324 619.324 182.527 619.566 182.761 619.77C182.792 619.783 182.818 619.787 182.849 619.8C184.824 620.631 186.473 621.896 187.764 623.485C188.837 623.677 189.89 623.964 190.958 624.439C192.179 624.981 193.39 625.325 194.477 625.5C194.745 624.467 195.195 623.496 195.764 622.61C195.745 622.427 195.7 622.253 195.686 622.07C195.532 620.212 195.599 618.327 195.706 616.9L195.725 616.596L196.029 616.537C202.968 615.159 209.139 611.969 213.975 607.82C218.853 603.632 222.377 598.468 223.96 593.195C224.156 592.541 224.315 591.871 224.452 591.2L224.619 590.385L225.158 591.024C225.815 591.792 227.051 592.822 228.607 593.382C230.154 593.938 232.005 594.034 233.934 592.96C235.861 591.886 236.749 590.252 237.079 588.626C237.414 586.996 237.176 585.379 236.864 584.4C236.473 583.488 235.599 582.266 234.25 581.54C232.915 580.822 231.081 580.574 228.696 581.697H228.677L228.668 581.707C228.288 581.854 227.66 582.182 227.046 582.699C226.432 583.216 225.854 583.897 225.552 584.724L225.041 586.139L224.776 584.655C224.698 584.214 224.645 583.839 224.597 583.495C224.592 583.45 224.586 583.411 224.578 583.368C224.527 582.987 224.474 582.639 224.393 582.257C221.433 568.54 205.425 557.933 185.955 557.933Z" fill="#ECA991" stroke="#2E4166" stroke-miterlimit="10"/>
<path d="M201.251 551.068C195.53 551.03 190.965 552.84 185.674 555.727C180.409 551.293 162.805 549.724 150.854 562.606C148.986 564.834 145.341 572.337 145.341 580.601C145.745 581.006 146.466 582.729 146.962 583.432C148.104 582.014 151.437 580.802 152.682 580.316C154.238 579.709 180.694 582.742 185.674 564.208C187.957 570.69 198.302 583.35 221.459 582.134L224.692 585.859C225.418 583.023 228.088 580.197 233.348 580.7C233.348 574.42 231.128 559.133 213.202 553.299C208.536 551.781 204.686 551.091 201.251 551.068Z" fill="#2F2F2F" stroke="#2E4166" stroke-miterlimit="10" stroke-linecap="round"/>
<path fill-rule="evenodd" clip-rule="evenodd" d="M196.432 579.34C195.253 578.871 194.117 578.704 193.416 578.802C193.195 578.833 192.99 578.679 192.96 578.457C192.929 578.236 193.082 578.031 193.304 578C194.192 577.876 195.477 578.088 196.733 578.588C197.993 579.091 199.285 579.908 200.159 581.052C200.296 581.229 200.263 581.483 200.084 581.619C199.908 581.755 199.654 581.721 199.517 581.544C198.755 580.549 197.604 579.807 196.432 579.34ZM176.609 579.29C177.78 578.691 179.019 578.4 180 578.4C180.223 578.4 180.405 578.581 180.405 578.805C180.405 579.029 180.223 579.21 180 579.21C179.162 579.21 178.048 579.464 176.977 580.011C175.91 580.557 174.913 581.381 174.279 582.5C174.169 582.694 173.922 582.763 173.727 582.652C173.533 582.542 173.465 582.295 173.575 582.1C174.304 580.814 175.435 579.89 176.609 579.29ZM187.249 584.234C187.472 584.249 187.642 584.441 187.627 584.664C187.619 584.798 187.61 584.944 187.602 585.1C187.555 585.956 187.491 587.11 187.248 588.131C186.968 589.305 186.393 590.537 185.097 590.748C184.154 590.902 183.15 591.072 182.412 591.463C182.052 591.654 181.781 591.885 181.613 592.168C181.448 592.447 181.359 592.81 181.423 593.308C181.5 593.903 181.708 594.303 181.982 594.575C182.26 594.851 182.64 595.028 183.107 595.118C184.058 595.3 185.286 595.106 186.465 594.776C186.68 594.715 186.903 594.841 186.964 595.056C187.024 595.271 186.899 595.495 186.683 595.555C185.476 595.893 184.097 596.132 182.955 595.913C182.375 595.801 181.835 595.569 181.413 595.151C180.988 594.729 180.715 594.152 180.62 593.41C180.537 592.76 180.646 592.21 180.917 591.755C181.183 591.306 181.586 590.984 182.033 590.747C182.908 590.284 184.052 590.098 184.959 589.95L184.967 589.949C185.721 589.826 186.185 589.094 186.46 587.943C186.685 587 186.744 585.934 186.793 585.074C186.802 584.912 186.81 584.758 186.819 584.613C186.834 584.39 187.026 584.22 187.249 584.234ZM178.756 599.842C180.291 600.371 181.746 601.456 182.202 603.05C182.263 603.265 182.138 603.489 181.924 603.55C181.708 603.612 181.485 603.487 181.423 603.272C181.069 602.031 179.893 601.091 178.492 600.608C177.085 600.122 175.603 600.152 174.733 600.673C174.542 600.788 174.293 600.725 174.178 600.533C174.063 600.342 174.125 600.093 174.317 599.978C175.472 599.286 177.229 599.315 178.756 599.842Z" fill="#2E4166"/>
<path d="M194.98 586.092C194.98 587.21 195.525 588.117 196.195 588.117C196.865 588.117 197.41 587.21 197.41 586.092C197.41 584.974 196.865 584.068 196.195 584.068C195.525 584.068 194.98 584.974 194.98 586.092Z" fill="#2E4166"/>
<path d="M175.546 586.092C175.546 587.21 176.089 588.117 176.761 588.117C177.431 588.117 177.975 587.21 177.975 586.092C177.975 584.974 177.431 584.068 176.761 584.068C176.089 584.068 175.546 584.974 175.546 586.092Z" fill="#2E4166"/>
<path d="M201.458 591.761C201.458 592.879 203.451 593.785 205.911 593.785C208.371 593.785 210.365 592.879 210.365 591.761C210.365 590.643 208.371 589.737 205.911 589.737C203.451 589.737 201.458 590.643 201.458 591.761Z" fill="#FF629C"/>
<path d="M164.21 591.761C164.21 592.879 166.385 593.785 169.069 593.785C171.751 593.785 173.927 592.879 173.927 591.761C173.927 590.643 171.751 589.737 169.069 589.737C166.385 589.737 164.21 590.643 164.21 591.761Z" fill="#FF629C"/>
<path d="M141.694 582.626C139.682 582.626 138.058 584.07 138.058 585.859C138.058 587.648 139.682 589.103 141.694 589.103C143.706 589.103 145.34 587.648 145.34 585.859C145.34 584.07 143.706 582.626 141.694 582.626Z" fill="#CE8A71"/>
<path d="M141.144 582.629C140.546 582.651 139.891 582.75 139.169 582.934C138.952 582.989 138.819 583.209 138.874 583.425C138.929 583.642 139.149 583.775 139.365 583.72C139.97 583.566 140.524 583.475 141.016 583.445C140.941 583.495 140.862 583.548 140.791 583.602C140.223 584.034 139.68 584.677 139.68 585.46C139.68 585.683 139.859 585.863 140.083 585.863C140.306 585.863 140.486 585.683 140.486 585.46C140.486 585.064 140.777 584.635 141.282 584.251C141.742 583.9 142.289 583.664 142.668 583.582C144.484 584.031 145.213 585.443 145.351 586.334C145.385 586.555 145.591 586.702 145.812 586.668C146.034 586.634 146.181 586.427 146.147 586.207C145.969 585.052 145.036 583.282 142.766 582.767C142.283 582.657 141.742 582.607 141.144 582.629Z" fill="#2E4166"/>
<path d="M231.011 584.072C228.997 584.072 227.364 585.337 227.364 586.902C227.364 588.467 228.997 589.733 231.011 589.733C233.021 589.733 234.657 588.467 234.657 586.902C234.657 585.337 233.021 584.072 231.011 584.072Z" fill="#CE8A71"/>
<path d="M231.393 583.668C230.871 583.651 230.402 583.684 229.977 583.766C227.995 584.152 227.138 585.499 226.97 586.429C226.931 586.65 227.076 586.852 227.294 586.891C227.515 586.931 227.727 586.787 227.766 586.567C227.875 585.962 228.467 584.918 230.056 584.582C230.354 584.645 230.793 584.867 231.217 585.171C231.435 585.329 231.642 585.498 231.795 585.653C231.96 585.815 232.044 585.933 232.072 585.997C232.164 586.201 232.398 586.295 232.602 586.203C232.806 586.112 232.901 585.867 232.809 585.663C232.717 585.461 232.549 585.265 232.365 585.083C232.175 584.893 231.938 584.691 231.689 584.513C231.678 584.505 231.67 584.502 231.658 584.493C232.052 584.522 232.474 584.577 232.946 584.68C233.163 584.728 233.378 584.594 233.429 584.375C233.473 584.157 233.342 583.941 233.122 583.894C232.491 583.756 231.915 583.684 231.393 583.668Z" fill="#2E4166"/>
<path d="M228.336 589.91C227.219 589.91 226.312 590.816 226.312 591.934C226.312 593.052 227.219 593.959 228.336 593.959C229.456 593.959 230.361 593.052 230.361 591.934C230.361 590.816 229.456 589.91 228.336 589.91Z" fill="#FFFB90"/>
<path d="M143.315 589.91C142.197 589.91 141.291 590.816 141.291 591.934C141.291 593.052 142.197 593.959 143.315 593.959C144.434 593.959 145.34 593.052 145.34 591.934C145.34 590.816 144.434 589.91 143.315 589.91Z" fill="#FFFB90"/>
<path d="M195.538 616.634C193.378 617.039 188.339 617.685 185.425 617.037C186.504 618.926 189.952 622.55 195.133 621.902C194.809 619.311 195.267 617.309 195.538 616.634Z" fill="#E4AC98"/>
<path d="M178.61 616.953L176.56 637.979C176.56 637.979 181.927 640.38 187.002 640.479C192.077 640.577 196.861 638.373 196.861 638.373C196.861 638.373 196.102 623.061 195.948 616.828" fill="#ECA991"/>
<path d="M178.61 616.953L176.56 637.979C176.56 637.979 181.927 640.38 187.002 640.479C192.077 640.577 196.861 638.373 196.861 638.373C196.861 638.373 196.102 623.061 195.948 616.828" stroke="#2E4166" stroke-miterlimit="10" stroke-linecap="round"/>
<path d="M199.969 633.672C199.045 632.924 198.062 631.013 198.062 631.013C198.062 631.013 191.964 630.504 190.881 630.97C188.496 631.995 184.424 631.356 181.882 630.696C180.636 630.372 176.564 630.141 176.564 630.141C176.564 630.141 173.636 638.568 176.812 640.434C181.77 643.347 190.3 644.988 195.479 642.043C197.635 640.818 198.397 639.062 199.799 637.331" fill="#ECA991"/>
<path d="M199.969 633.672C199.045 632.924 198.062 631.013 198.062 631.013C198.062 631.013 191.964 630.504 190.881 630.97C188.496 631.995 184.424 631.356 181.882 630.696C180.636 630.372 176.564 630.141 176.564 630.141C176.564 630.141 173.636 638.568 176.812 640.434C181.77 643.347 190.3 644.988 195.479 642.043C197.635 640.818 198.397 639.062 199.799 637.331" stroke="#ECA991" stroke-miterlimit="10" stroke-linecap="round"/>
<path d="M183.032 747.574C181.979 746.696 181.389 744.911 182.383 743.72" stroke="#294064" stroke-miterlimit="10" stroke-linecap="round"/>
<path d="M111.983 620.428C111.094 621.471 111.042 624.074 110.796 625.236C110.069 628.669 109.441 632.038 108.937 635.503C107.505 645.366 107.628 655.484 108.233 665.408C108.48 669.456 109.519 673.407 109.841 677.432" stroke="#2E4166" stroke-miterlimit="10" stroke-linecap="round"/>
<path d="M186.282 602.999C184.495 602.137 183.253 599.659 181.446 599.235C178.563 598.558 175.522 599.231 172.561 599.283C170.473 599.319 171.14 603.304 171.857 604.126C174.172 606.779 183.368 609.76 186.12 606.455" fill="#ECA991"/>
<path d="M186.282 602.999C184.495 602.137 183.253 599.659 181.446 599.235C178.563 598.558 175.522 599.231 172.561 599.283C170.473 599.319 171.14 603.304 171.857 604.126C174.172 606.779 183.368 609.76 186.12 606.455" stroke="#ECA991" stroke-miterlimit="10" stroke-linecap="round"/>
<path d="M179.299 616.988L191.67 617.683C191.523 619.399 178.721 622.987 178.721 622.987L179.299 616.988Z" fill="#CE8A71"/>
<path d="M186.09 601.986C188.913 602.87 191.59 600.902 193.463 599.048C193.765 598.749 194.765 597.554 194.765 597.554" stroke="#294064" stroke-miterlimit="10" stroke-linecap="round"/>
<path d="M274.084 652.311C274.084 652.311 268.002 661.623 266.425 664.876C260.109 677.88 258.383 691.05 262.571 704.943" stroke="#294064" stroke-miterlimit="10" stroke-linecap="round"/>
<path d="M98.0207 618.905C97.5543 618.728 96.4045 620.055 96.1077 620.419C94.6705 622.182 94.0395 623.859 94.2637 626.06" stroke="#E14438" stroke-miterlimit="10" stroke-linecap="round"/>
<path d="M99.303 620.268C97.1893 621.22 96.1176 623.97 96.336 626.111" stroke="#E14438" stroke-miterlimit="10" stroke-linecap="round"/>
<path d="M107.207 621.576C106.052 622.568 105.773 625.803 106.117 627.175" stroke="#E14438" stroke-miterlimit="10" stroke-linecap="round"/>
<path d="M108.977 622.395C108.056 623.41 108.059 626.009 108.386 627.31" stroke="#E14438" stroke-miterlimit="10" stroke-linecap="round"/>
<path d="M151.641 623.421C151.641 623.421 125.222 601.172 114.423 588.335C110.097 583.194 110.466 575.442 107.571 569.378C106.105 566.307 104.194 563.231 101.468 561.195C98.7988 559.201 94.654 558.013 91.3259 558.167C88.1932 558.312 82.829 559.809 80.7301 562.139C78.6713 564.424 80.3313 567.602 80.4665 570.675C80.6659 575.217 84.1461 579.147 84.6116 583.669C85.4685 592 83.7287 600.443 84.3879 608.792C84.5641 611.022 85.3529 613.519 87.0811 614.94C90.3301 617.611 94.4875 619.021 98.471 620.372C102.414 621.708 106.562 622.427 110.692 622.943C124.087 624.619 151.641 623.421 151.641 623.421Z" fill="#2F2F2F" stroke="#2E4166" stroke-miterlimit="10" stroke-linecap="round"/>
<path d="M129.138 626.123C125.27 622.643 125.27 622.643 121.401 619.163C127.074 624.532 135.004 632.397 139.368 628.179C140.561 627.026 133.539 622.638 127.71 617.095C133.038 621.513 143.604 632.012 146.383 628.037C147.479 626.468 139.29 620.576 135.364 617.264C138.78 620.096 142.005 623.174 145.611 625.76C148.617 627.915 157.539 630.446 154.754 625.912C151.969 621.379 140.983 614.271 134.473 607.625C129.277 602.32 125.075 596.091 119.824 590.841C118.105 589.122 115.942 587.828 113.71 586.865C108.278 584.52 104.901 590.914 103.613 594.935C100.405 604.942 108.995 617.861 116.798 623.393C121.355 626.624 124.223 628.231 129.138 626.123Z" fill="#2F2F2F" stroke="#2E4166" stroke-miterlimit="10" stroke-linecap="round"/>
<path d="M237.919 356.672C238.259 356.843 238.603 357.014 238.943 357.185L237.919 356.672Z" fill="#2F2F2F"/>
<path d="M237.919 356.672C238.259 356.843 238.603 357.014 238.943 357.185" stroke="#2E4166" stroke-miterlimit="10" stroke-linecap="round"/>
<path d="M79.7577 562.366C79.7577 562.366 85.407 558.78 91.125 560.457C96.8427 562.133 100.653 566.053 102.533 570.978C105.11 577.728 104.843 585.573 102.864 592.522C101.573 597.051 100.183 601.432 93.8544 602.957C88.4382 604.262 84.4484 598.706 84.4484 598.706C84.4484 598.706 84.7907 592.349 83.757 587.818C83.1597 585.201 76.3461 582.679 74.2365 576.593C71.1852 567.791 79.7577 562.366 79.7577 562.366Z" fill="white" stroke="#2E4166" stroke-miterlimit="10" stroke-linecap="round"/>
<path d="M82.1584 583.615C86.9198 583.791 95.1633 575.766 94.2221 570.593C93.897 568.807 91.8673 567.257 90.6186 566.187C86.5986 562.742 82.5024 561.143 77.2677 562.166C74.2862 562.748 71.4213 564.224 68.5715 565.224C57.653 569.059 48.4377 574.971 41.4807 584.293C38.8652 587.798 36.2062 592.553 35.5762 596.966C35.4361 597.948 35.1135 601.2 36.6471 601.419C37.6363 601.56 39.532 599.613 40.2591 599.068C42.7604 597.191 45.4455 594.9 48.1716 593.371C56.5252 588.686 65.0597 585.113 74.6804 584.117C77.1279 583.864 79.7071 583.524 82.1584 583.615Z" fill="#FFD432" stroke="#2E4166" stroke-miterlimit="10" stroke-linecap="round"/>
<path d="M41.3909 597.693C40.6638 598.239 38.092 601.119 37.1027 600.977C38.2782 595.339 46.1216 583.442 69.9116 579.198C86.1801 576.295 92.3177 573.518 93.9252 571.938C93.2971 576.993 86.2464 583.397 82.1977 583.247C79.7463 583.156 77.2456 583.552 74.7982 583.805C65.1775 584.801 57.6026 587.777 49.249 592.461C46.5229 593.99 43.8922 595.817 41.3909 597.693Z" fill="#FF8D50"/>
<path d="M51.8463 573.896C44.8327 578.19 33.5355 591.723 35.2821 599.411C35.5624 600.646 36.2247 601.25 36.2247 601.25C36.2247 601.25 41.907 593.568 46.2004 590.389C52.8121 585.494 59.398 582.814 59.398 582.814C59.398 582.814 54.7399 574.684 51.8463 573.896Z" fill="#E14438" stroke="#2E4166" stroke-miterlimit="10" stroke-linecap="round"/>
<path d="M36.4209 601.188C49.1073 581.886 72.0563 578.484 93.3456 574.411" stroke="#2E4166" stroke-miterlimit="10" stroke-linecap="round"/>
<path d="M96.6821 570.373C96.6821 569.379 97.0211 568.573 97.4394 568.573C97.8574 568.573 98.1964 569.379 98.1964 570.373C98.1964 571.367 97.8574 572.173 97.4394 572.173C97.0211 572.173 96.6821 571.367 96.6821 570.373Z" fill="#294064" stroke="#2E4166" stroke-miterlimit="10"/>
<path d="M390.204 673.58C389.442 673.568 388.674 673.846 388.085 674.418C387.979 674.52 386.968 675.458 386.705 675.753C386.465 676.025 386.253 676.306 386.069 676.626C385.82 677.054 385.68 677.378 385.248 678.441C385.119 678.76 378.881 694.118 376.731 699.671C376.354 700.646 376.125 701.414 375.651 703.1C375.648 703.11 375.112 704.956 374.883 705.604C367.196 727.151 363.817 751.674 363.005 782.715C362.977 783.807 362.952 784.636 362.901 786.658C362.622 797.916 362.441 802.953 361.985 809.18C361.754 812.338 361.469 815.337 361.12 818.238C360.977 819.425 360.927 820.383 360.868 822.538C360.852 823.167 360.846 823.426 360.832 823.761C360.743 826.428 360.525 828.036 360.014 829.337C359.411 830.868 360.165 832.599 361.698 833.202C363.228 833.805 364.959 833.048 365.562 831.518C366.389 829.416 366.679 827.271 366.794 823.971C366.805 823.616 366.81 823.345 366.827 822.706C366.88 820.737 366.925 819.886 367.037 818.945C367.397 815.946 367.69 812.855 367.927 809.607C368.394 803.252 368.581 798.162 368.86 786.806C368.91 784.787 368.938 783.96 368.966 782.871C369.762 752.408 373.057 728.445 380.493 707.602C380.786 706.784 380.978 706.133 381.375 704.732C381.378 704.722 382.003 702.567 382.291 701.826C384.421 696.317 386.194 691.901 390.204 682.062C390.26 681.925 390.642 681.012 390.771 680.692C391.064 679.975 391.164 679.76 391.218 679.662C391.245 679.632 391.273 679.595 391.407 679.47C391.558 679.332 392.069 678.858 392.228 678.703C393.409 677.558 393.435 675.67 392.29 674.488C391.717 673.897 390.966 673.593 390.204 673.58Z" fill="#5C9239" stroke="#294064" stroke-miterlimit="10" stroke-linecap="round"/>
<path d="M388.084 674.418C388.673 673.846 389.441 673.568 390.203 673.58C390.966 673.593 391.717 673.897 392.289 674.488C393.434 675.67 393.409 677.558 392.228 678.703C392.069 678.858 391.558 679.332 391.407 679.47C391.273 679.595 391.245 679.632 391.217 679.662C391.164 679.76 391.063 679.975 390.77 680.692C390.642 681.012 390.259 681.925 390.203 682.062C387.143 689.571 385.386 693.921 383.778 698.009C380.329 697.897 379.297 694.891 379.212 693.402C381.843 686.825 385.154 678.673 385.247 678.441C385.68 677.378 385.82 677.054 386.068 676.626C386.252 676.306 386.465 676.025 386.705 675.753C386.967 675.458 387.978 674.52 388.084 674.418Z" fill="#3C6124"/>
<path d="M374.882 705.604C375.111 704.956 375.647 703.11 375.65 703.1C376.125 701.414 376.354 700.646 376.731 699.671C377.32 698.148 378.218 695.887 379.212 693.402M380.492 707.602C380.785 706.784 380.978 706.133 381.374 704.732C381.377 704.722 382.003 702.567 382.29 701.826C382.795 700.521 383.279 699.278 383.778 698.009M379.212 693.402C381.843 686.825 385.154 678.673 385.247 678.441C385.68 677.378 385.82 677.054 386.068 676.626C386.252 676.306 386.465 676.025 386.705 675.753C386.967 675.458 387.978 674.52 388.084 674.418C388.673 673.846 389.441 673.568 390.203 673.58C390.966 673.593 391.717 673.897 392.289 674.488C393.434 675.67 393.409 677.558 392.228 678.703C392.069 678.858 391.558 679.332 391.407 679.47C391.273 679.595 391.245 679.632 391.217 679.662C391.164 679.76 391.063 679.975 390.77 680.692C390.642 681.012 390.259 681.925 390.203 682.062C387.143 689.571 385.386 693.921 383.778 698.009M379.212 693.402C379.297 694.891 380.329 697.897 383.778 698.009" stroke="#294064" stroke-miterlimit="10" stroke-linecap="round"/>
<path d="M270.949 747.201C269.905 747.182 268.992 747.529 268.199 748.118C267.749 748.452 267.436 748.776 266.978 749.296C266.97 749.304 266.64 749.665 266.601 749.706C266.593 749.715 266.585 749.723 266.576 749.732C265.303 751.016 264.141 752.504 262.667 754.626C262.31 755.143 261.034 757.011 260.757 757.41C257.672 761.853 254.625 768.875 252.78 775.203C248.033 791.498 245.305 806.819 244.822 821.579C244.811 822.006 244.71 824.606 244.693 825.184C244.584 828.94 244.73 831.589 245.347 834.267C245.715 835.87 247.312 836.878 248.915 836.509C250.518 836.141 251.526 834.535 251.157 832.932C250.68 830.855 250.557 828.649 250.652 825.36C250.669 824.807 250.761 822.213 250.775 821.772C251.238 807.551 253.88 792.716 258.495 776.87C260.174 771.109 262.983 764.651 265.652 760.806C265.948 760.378 267.224 758.516 267.562 758.03C268.397 756.829 269.086 755.939 269.743 755.151C270.282 755.082 270.812 754.92 271.262 754.548C271.228 754.576 271.485 754.367 271.611 754.261C271.837 754.074 272.049 753.892 272.256 753.702C272.387 753.585 272.507 753.468 272.624 753.353C273.163 752.825 273.54 752.373 273.819 751.784C274.833 749.639 273.403 747.248 270.949 747.201Z" fill="#A1B700" stroke="#294064" stroke-miterlimit="10" stroke-linecap="round"/>
<path d="M268.199 748.118C268.992 747.529 269.905 747.182 270.949 747.201C273.404 747.248 274.834 749.639 273.82 751.784C273.541 752.373 273.164 752.825 272.625 753.353L272.622 753.356C272.506 753.469 272.387 753.586 272.256 753.702C272.05 753.892 271.837 754.074 271.611 754.261C271.486 754.367 271.229 754.576 271.262 754.548C270.813 754.92 270.282 755.082 269.743 755.151C269.087 755.939 268.397 756.829 267.562 758.03C267.225 758.516 265.949 760.378 265.653 760.806C264.2 762.897 262.707 765.762 261.377 768.868C259.41 763.007 260.557 758.186 261.377 756.508C261.852 755.815 262.442 754.952 262.668 754.626C264.142 752.504 265.304 751.016 266.577 749.732L266.602 749.706C266.641 749.665 266.971 749.304 266.979 749.296C267.437 748.776 267.75 748.452 268.199 748.118Z" fill="#3C6124"/>
<path d="M252.78 775.203C254.626 768.875 257.672 761.853 260.758 757.41C260.86 757.263 261.098 756.915 261.377 756.508M258.496 776.87C259.261 774.243 260.262 771.471 261.377 768.868M261.377 756.508C261.852 755.815 262.442 754.952 262.668 754.626C264.142 752.504 265.304 751.016 266.577 749.732C266.585 749.723 266.594 749.715 266.602 749.706C266.641 749.665 266.971 749.304 266.979 749.296C267.437 748.776 267.75 748.452 268.199 748.118C268.992 747.529 269.905 747.182 270.949 747.201C273.404 747.248 274.834 749.639 273.82 751.784C273.541 752.373 273.164 752.825 272.625 753.353C272.508 753.468 272.388 753.585 272.256 753.702C272.05 753.892 271.837 754.074 271.611 754.261C271.486 754.367 271.229 754.576 271.262 754.548C270.813 754.92 270.282 755.082 269.743 755.151C269.087 755.939 268.397 756.829 267.562 758.03C267.225 758.516 265.949 760.378 265.653 760.806C264.2 762.897 262.707 765.762 261.377 768.868M261.377 756.508C260.557 758.186 259.41 763.007 261.377 768.868" stroke="#294064" stroke-miterlimit="10" stroke-linecap="round"/>
<path d="M68.492 708.632C68.1589 708.654 68.1569 708.659 67.4798 708.877C65.4814 709.737 65.208 712.04 66.3017 713.449C66.5695 713.794 66.7988 713.968 67.0783 714.147C67.1757 714.209 67.2651 714.265 67.3575 714.313C67.6339 714.457 67.9855 714.597 68.5967 714.836C68.6241 714.847 69.1392 715.049 69.3995 715.15C70.6577 716 71.6995 716.726 73.9805 718.327C74.0042 718.343 74.32 718.561 74.4342 718.641C75.3651 719.294 76.0199 719.769 76.6593 720.255C76.7157 720.298 79.7403 722.667 79.6348 722.585C87.1088 728.446 92.6964 734.402 102.627 746.372C114.836 761.086 124.361 778.228 134.66 802.225C135.357 803.85 135.762 804.752 137.33 808.175C139.565 813.059 140.645 815.591 141.658 818.507C142.948 822.223 143.696 825.571 143.892 828.838C143.99 830.483 145.399 831.731 147.042 831.63C148.684 831.532 149.932 830.125 149.834 828.48C149.603 824.619 148.744 820.749 147.286 816.552C146.192 813.402 145.06 810.747 142.749 805.698C141.204 802.323 140.801 801.44 140.131 799.879C129.626 775.4 119.857 757.803 107.217 742.567C97.0306 730.29 91.2174 724.095 83.3172 717.899C83.4593 718.011 80.9977 716.072 80.4551 715.657C80.3918 715.608 80.3253 715.556 80.263 715.508C79.5586 714.973 78.8446 714.457 77.8547 713.763C77.7408 713.683 73.8805 710.987 72.4972 710.055C72.2007 709.875 72.2085 709.871 72.1133 709.828C72.0379 709.793 72.0303 709.788 71.9823 709.767C71.9427 709.749 71.2879 709.491 70.9874 709.374C70.9844 709.373 70.9818 709.367 70.9788 709.365C70.6736 709.127 70.3204 708.94 69.923 708.833C69.4732 708.712 69.2305 708.655 68.9022 708.632C68.7469 708.623 68.7452 708.625 68.492 708.632Z" fill="#5C9239" stroke="#294064" stroke-miterlimit="10" stroke-linecap="round"/>
<path d="M304.851 729.799C301.972 729.847 298.993 730.82 295.986 733.027C292.668 735.46 295.807 740.838 291.97 741.954C285.975 743.698 286.632 736.359 279.274 737.678C261.993 740.777 261.973 761.392 267.197 774.432C276.244 797.007 299.568 808.277 320.488 817.475C326.513 820.127 335.231 823.637 341.77 819.789C344.197 818.357 342.357 812.382 341.997 810.634C340.645 804.1 339.833 797.954 338.568 791.403C337.247 784.565 337.593 777.47 336.289 770.626C335.384 765.874 333.762 761.264 331.97 756.771C327.993 746.797 317.321 729.589 304.851 729.799ZM310.949 741.989C311.315 741.934 311.695 741.952 312.075 742.05C313.172 742.33 314.01 742.678 315.043 743.254C316.414 744.02 316.908 745.748 316.14 747.119C315.375 748.491 313.638 748.985 312.267 748.219C311.65 747.874 311.271 747.709 310.67 747.556C309.148 747.167 308.221 745.623 308.612 744.1C308.903 742.959 309.852 742.154 310.949 741.989ZM289.022 760.722C289.376 760.73 289.734 760.781 290.094 760.862C292.981 761.526 294.779 764.399 294.118 767.284C294.123 767.259 294.118 767.284 294.109 767.345C294.087 767.482 293.891 768.99 293.802 769.545C293.654 770.484 293.487 771.279 293.255 772.031C292.78 773.555 292.127 774.773 290.784 775.8C289.603 776.708 288.368 777.277 286.693 777.241C283.94 777.182 281.999 775.356 281.335 773.106C280.88 771.567 281.005 770.263 281.413 768.532C281.868 766.588 282.781 764.092 283.524 763.053C284.574 761.585 286.227 760.814 287.905 760.82C288.268 760.75 288.645 760.714 289.022 760.722ZM320.731 765.444C321.096 765.388 321.476 765.399 321.856 765.497C323.35 765.876 324.863 766.711 326.081 767.764C327.267 768.792 327.404 770.59 326.377 771.779C325.349 772.966 323.551 773.094 322.364 772.067C321.783 771.564 321.043 771.162 320.451 771.011C318.93 770.623 318.014 769.079 318.402 767.555C318.692 766.413 319.636 765.611 320.731 765.444Z" fill="#A1B700" stroke="#294064" stroke-miterlimit="10" stroke-linecap="round"/>
<path d="M465.51 578.363C463.494 578.429 460.154 580.062 454.698 584.681C441.895 595.521 426.594 606.149 411.664 621.434C406.233 626.991 403.055 630.279 395.974 640.631C388.893 650.982 383.331 662.838 383.331 662.838C383.331 662.838 380.452 668.107 378.95 683.518C377.928 694.003 398.802 692.92 409.491 695.883C414.534 697.28 420.786 697.703 425.153 694.818C431.053 690.92 434.46 687.312 438.531 681.529C436.102 679.454 431.464 674.118 430.076 671.241C428.227 667.415 426.379 663.707 426.935 660.508C427.487 657.31 431.229 657.63 432.29 658.449C437.04 662.116 442.099 670.779 442.099 670.779C442.099 670.779 450.965 657.87 457.359 642.943C455.12 641.859 451.375 641.346 449.437 637.777C447.499 634.209 446.561 627.302 449.839 627.263C453.115 627.223 453.827 629.903 460.894 635.334C461.592 621.523 466.344 610.513 466.068 596.688C465.998 593.191 467.961 585.676 467.961 585.676C467.961 585.676 469.944 578.219 465.51 578.363ZM456.993 605.902C457.711 606.028 458.384 606.428 458.836 607.071C459.738 608.357 459.422 610.13 458.138 611.033C455.739 612.715 453.556 613.855 451.113 614.584C449.608 615.034 448.019 614.179 447.569 612.673C447.12 611.168 447.985 609.58 449.49 609.131C451.286 608.595 452.942 607.73 454.874 606.373C455.516 605.922 456.276 605.776 456.993 605.902ZM410.066 678.178C411.276 678.149 412.582 678.215 413.688 678.309C414.456 678.228 415.16 678.187 415.774 678.204C416.637 678.229 417.379 678.355 418.069 678.658C419.289 679.197 420.174 680.275 420.258 681.721C420.331 682.996 419.747 684.057 418.826 684.801C418.276 685.247 417.62 685.563 416.854 685.822C415.746 686.196 414.344 686.45 412.744 686.598C409.757 686.877 406.579 686.778 405.214 686.223C403.759 685.631 403.061 683.97 403.653 682.515C403.683 682.44 403.748 682.394 403.784 682.323C403.697 681.226 404.127 680.197 404.945 679.496C405.484 679.032 406.096 678.757 406.811 678.562C407.696 678.321 408.782 678.209 410.066 678.178Z" fill="#5C9239" stroke="#294064" stroke-miterlimit="10" stroke-linecap="round"/>
<path d="M-29.5445 654.617C-35.2488 654.531 -40.9649 654.689 -46.6561 654.8C-49.4291 654.855 -52.6854 654.791 -52.6854 654.791C-52.6854 654.791 -64.7947 653.829 -57.8512 660.437C-50.4708 667.461 -39.4269 688.929 -30.7575 698.656C-9.00244 723.067 18.7526 728.978 18.7526 728.978C18.7526 728.978 19.8774 720.212 23.4124 716.134C25.0994 714.188 27.4368 711.853 30.0004 712.103C32.8843 712.383 36.6284 713.172 36.8588 717.443C37.0891 721.714 29.1451 732.137 29.1451 732.137C29.1451 732.137 30.1895 732.918 36.8937 733.612C42.9188 734.235 47.7131 733.568 53.3767 732.443C63.9613 730.34 76.9975 728.636 84.4406 723.341C87.3188 721.294 84.9152 715.208 83.3761 711.588C81.3613 706.849 77.3259 703.257 74.1703 699.188C54.9758 674.437 34.0651 668.22 19.1542 662.88C5.05994 657.833 22.0034 665.718 19.9918 672.723C18.9023 676.517 17.309 677.546 16.1525 678.063C14.0424 679.007 12.3947 676.174 11.5366 674.773C9.54404 671.522 11.041 665.359 7.95021 663.125C2.08451 658.885 -5.36552 656.982 -12.5207 655.891C-18.1476 655.033 -23.8402 654.703 -29.5445 654.617ZM-2.65172 699.555C0.724403 699.371 3.60406 701.964 3.78807 705.34C3.80091 705.576 3.82744 706.046 3.84029 706.282C4.02429 709.659 1.44006 712.547 -1.93607 712.731C-5.31219 712.915 -8.2005 710.322 -8.38451 706.946C-8.39735 706.709 -8.42388 706.239 -8.437 706.003C-8.62073 702.627 -6.02784 699.739 -2.65172 699.555Z" fill="#5C9239" stroke="#294064" stroke-miterlimit="10" stroke-linecap="round"/>
<path d="M294.447 747.267C295.39 749.593 296.406 751.884 297.467 754.152C298.387 756.12 299.342 758.072 300.312 760.016C301.173 761.742 302.046 763.461 302.919 765.182C304.06 767.431 305.201 769.682 306.312 771.948C309.205 777.855 312.051 783.68 315.132 789.335C317.047 792.852 319.054 796.302 321.22 799.666C323.886 803.807 326.793 807.815 330.068 811.651" fill="#5C9239"/>
<path d="M294.447 747.267C295.39 749.593 296.406 751.884 297.467 754.152M330.068 811.651C326.793 807.815 323.886 803.807 321.22 799.666M302.919 765.182C304.06 767.431 305.201 769.682 306.312 771.948C309.205 777.855 312.051 783.68 315.132 789.335M302.919 765.182C300.709 774.07 293.747 792.686 283.584 796.036M302.919 765.182C302.046 763.461 301.173 761.742 300.312 760.016M297.467 754.152C289.302 749.592 271.381 743.207 265.015 754.152M297.467 754.152C298.387 756.12 299.342 758.072 300.312 760.016M300.312 760.016C308.837 757.317 327.925 755.521 336.078 769.929M315.132 789.335C312.431 795.757 308.65 809.83 315.132 814.744M315.132 789.335C317.047 792.852 319.054 796.302 321.22 799.666M321.22 799.666C326.592 799.852 338.2 802.207 341.663 810.137" stroke="#294064" stroke-miterlimit="10" stroke-linecap="round"/>
<path d="M384.238 683.887C388.603 670.906 394.806 658.976 402.295 647.906C405.282 643.492 408.472 639.215 411.833 635.061C415.44 630.603 419.242 626.289 423.197 622.102C428.367 616.628 433.798 611.373 439.392 606.302C444.533 601.642 449.813 597.138 455.156 592.764" fill="#5C9239"/>
<path d="M384.238 683.887C388.603 670.906 394.806 658.976 402.295 647.906M455.156 592.764C449.813 597.138 444.533 601.642 439.392 606.302M402.295 647.906C411.496 656.515 429.898 677.392 429.898 692.024M402.295 647.906C405.282 643.492 408.472 639.215 411.833 635.061M423.197 622.102C430.922 629.772 446.819 648.185 448.606 660.471M423.197 622.102C428.367 616.628 433.798 611.373 439.392 606.302M423.197 622.102C419.242 626.289 415.44 630.603 411.833 635.061M439.392 606.302C439.578 603.554 440.369 597.529 442.045 595.411M411.833 635.061C408.035 635.713 399.853 637.519 397.508 639.529" stroke="#294064" stroke-miterlimit="10" stroke-linecap="round"/>
<path d="M77.1655 718.851C69.4837 714.102 62.4084 708.192 54.1207 704.604C53.4048 704.294 52.6878 703.986 51.9697 703.681C46.1208 701.199 40.1981 698.88 34.2389 696.645C31.0827 695.46 27.9163 694.299 24.7452 693.149C14.869 689.568 4.9472 686.093 -4.85279 682.358C-12.109 679.593 -19.2985 676.685 -26.3532 673.485C-31.0341 671.362 -35.6556 669.111 -40.198 666.687" fill="#5C9239"/>
<path d="M77.1655 718.851C69.4837 714.102 62.4084 708.192 54.1207 704.604C53.4048 704.294 52.6878 703.986 51.9697 703.681M-40.198 666.687C-35.6556 669.111 -31.0341 671.362 -26.3532 673.485M24.7452 693.149C17.9972 698.777 3.18891 712.211 -2.06053 720.923M24.7452 693.149C27.9163 694.299 31.0827 695.46 34.2389 696.645M24.7452 693.149C14.869 689.568 4.9472 686.093 -4.85279 682.358M51.9697 703.681C52.947 710.871 52.0255 727.01 40.5214 734.047M51.9697 703.681C46.1208 701.199 40.1981 698.88 34.2389 696.645M34.2389 696.645C38.2411 692.358 44.6819 681.078 38.4272 670.244M-4.85279 682.358C-14.998 683.486 -34.5345 688.142 -31.5189 697.747M-4.85279 682.358C-12.109 679.593 -19.2985 676.685 -26.3532 673.485M-26.3532 673.485C-28.0286 668.03 -28.7266 656.729 -18.116 655.166" stroke="#294064" stroke-miterlimit="10" stroke-linecap="round"/>
<path d="M11.6875 774.149C10.8849 774.149 10.2013 773.931 9.63672 773.494C9.07209 773.054 8.64063 772.416 8.34233 771.582C8.04403 770.744 7.89489 769.732 7.89489 768.545C7.89489 767.366 8.04403 766.36 8.34233 765.525C8.64418 764.687 9.07741 764.048 9.64205 763.608C10.2102 763.164 10.892 762.942 11.6875 762.942C12.483 762.942 13.163 763.164 13.7276 763.608C14.2958 764.048 14.729 764.687 15.0273 765.525C15.3292 766.36 15.4801 767.366 15.4801 768.545C15.4801 769.732 15.331 770.744 15.0327 771.582C14.7344 772.416 14.3029 773.054 13.7383 773.494C13.1737 773.931 12.4901 774.149 11.6875 774.149ZM11.6875 772.977C12.483 772.977 13.1009 772.594 13.5412 771.827C13.9815 771.06 14.2017 769.966 14.2017 768.545C14.2017 767.601 14.1005 766.797 13.8981 766.132C13.6992 765.468 13.4116 764.962 13.0352 764.614C12.6623 764.266 12.2131 764.092 11.6875 764.092C10.8991 764.092 10.283 764.481 9.83913 765.259C9.39524 766.033 9.1733 767.129 9.1733 768.545C9.1733 769.49 9.27273 770.293 9.47159 770.953C9.67045 771.614 9.95632 772.116 10.3292 772.461C10.7056 772.805 11.1584 772.977 11.6875 772.977ZM22.2131 767.96V769.131H17.4403V767.96H22.2131ZM27.9619 774.149C27.1594 774.149 26.4758 773.931 25.9111 773.494C25.3465 773.054 24.915 772.416 24.6167 771.582C24.3184 770.744 24.1693 769.732 24.1693 768.545C24.1693 767.366 24.3184 766.36 24.6167 765.525C24.9186 764.687 25.3518 764.048 25.9165 763.608C26.4846 763.164 27.1665 762.942 27.9619 762.942C28.7574 762.942 29.4374 763.164 30.002 763.608C30.5702 764.048 31.0035 764.687 31.3018 765.525C31.6036 766.36 31.7545 767.366 31.7545 768.545C31.7545 769.732 31.6054 770.744 31.3071 771.582C31.0088 772.416 30.5773 773.054 30.0127 773.494C29.4481 773.931 28.7645 774.149 27.9619 774.149ZM27.9619 772.977C28.7574 772.977 29.3753 772.594 29.8156 771.827C30.2559 771.06 30.4761 769.966 30.4761 768.545C30.4761 767.601 30.3749 766.797 30.1725 766.132C29.9736 765.468 29.686 764.962 29.3096 764.614C28.9367 764.266 28.4875 764.092 27.9619 764.092C27.1736 764.092 26.5574 764.481 26.1135 765.259C25.6697 766.033 25.4477 767.129 25.4477 768.545C25.4477 769.49 25.5471 770.293 25.746 770.953C25.9449 771.614 26.2307 772.116 26.6036 772.461C26.98 772.805 27.4328 772.977 27.9619 772.977ZM37.6139 763.091V774H36.2929V764.476H36.229L33.5656 766.244V764.902L36.2929 763.091H37.6139ZM45.4601 767.96V769.131H40.6874V767.96H45.4601ZM51.486 763.091V774H50.165V764.476H50.101L47.4377 766.244V764.902L50.165 763.091H51.486Z" fill="black"/>
</g>
<defs>
<linearGradient id="paint0_linear_3_24346" x1="393" y1="740.019" x2="711.84" y2="-463.573" gradientUnits="userSpaceOnUse">
<stop stop-color="#FFC670"/>
<stop offset="0.536458" stop-color="#FC803B"/>
<stop offset="0.796875" stop-color="#FF7A00"/>
</linearGradient>
<linearGradient id="paint1_linear_3_24346" x1="365.372" y1="574.205" x2="365.372" y2="728.842" gradientUnits="userSpaceOnUse">
<stop offset="0.619792" stop-color="#FFC0D7"/>
<stop offset="1" stop-color="#FE8F83"/>
</linearGradient>
<linearGradient id="paint2_linear_3_24346" x1="369.327" y1="679.917" x2="369.327" y2="710.061" gradientUnits="userSpaceOnUse">
<stop stop-color="#FFACCA"/>
<stop offset="1" stop-color="#FFACCA"/>
</linearGradient>
<linearGradient id="paint3_linear_3_24346" x1="396.554" y1="681.678" x2="396.554" y2="711.773" gradientUnits="userSpaceOnUse">
<stop stop-color="#FFACCA"/>
<stop offset="1" stop-color="#FFACCA"/>
</linearGradient>
<linearGradient id="paint4_linear_3_24346" x1="402.684" y1="676.296" x2="402.684" y2="707.927" gradientUnits="userSpaceOnUse">
<stop stop-color="#FFACCA"/>
<stop offset="1" stop-color="#FFACCA"/>
</linearGradient>
<linearGradient id="paint5_linear_3_24346" x1="408.179" y1="672.121" x2="408.179" y2="702.531" gradientUnits="userSpaceOnUse">
<stop stop-color="#FFACCA"/>
<stop offset="1" stop-color="#FFACCA"/>
</linearGradient>
<linearGradient id="paint6_linear_3_24346" x1="336.823" y1="706.962" x2="336.823" y2="716.132" gradientUnits="userSpaceOnUse">
<stop stop-color="#FFACCA"/>
<stop offset="1" stop-color="#FFACCA"/>
</linearGradient>
<linearGradient id="paint7_linear_3_24346" x1="347.004" y1="700.285" x2="347.004" y2="710.677" gradientUnits="userSpaceOnUse">
<stop stop-color="#FFACCA"/>
<stop offset="1" stop-color="#FFACCA"/>
</linearGradient>
<linearGradient id="paint8_linear_3_24346" x1="356.173" y1="697.383" x2="356.173" y2="705.13" gradientUnits="userSpaceOnUse">
<stop stop-color="#FFACCA"/>
<stop offset="1" stop-color="#FFACCA"/>
</linearGradient>
<linearGradient id="paint9_linear_3_24346" x1="371.32" y1="711.332" x2="371.32" y2="724.152" gradientUnits="userSpaceOnUse">
<stop stop-color="#FFACCA"/>
<stop offset="1" stop-color="#FFACCA"/>
</linearGradient>
<linearGradient id="paint10_linear_3_24346" x1="378.846" y1="707.733" x2="378.846" y2="722.224" gradientUnits="userSpaceOnUse">
<stop stop-color="#FFACCA"/>
<stop offset="1" stop-color="#FFACCA"/>
</linearGradient>
<linearGradient id="paint11_linear_3_24346" x1="386.007" y1="705.806" x2="386.007" y2="719.297" gradientUnits="userSpaceOnUse">
<stop stop-color="#FFACCA"/>
<stop offset="1" stop-color="#FFACCA"/>
</linearGradient>
<clipPath id="clip0_3_24346">
<path d="M0 0H390V789C390 800.046 381.046 809 370 809H20C8.9543 809 0 800.046 0 789V0Z" fill="white"/>
</clipPath>
</defs>
</svg>
