<svg width="390" height="809" viewBox="0 0 390 809" fill="none" xmlns="http://www.w3.org/2000/svg">
<g clip-path="url(#clip0_3_25463)">
<path d="M0 -55C0 -66.0457 8.95431 -75 20 -75L370 -75C381.046 -75 390 -66.0457 390 -55V-1L390 789C390 800.046 381.046 809 370 809H20C8.95431 809 0 800.046 0 789L0 -1L0 -55Z" fill="url(#paint0_linear_3_25463)"/>
<path d="M0 -55C0 -66.0457 8.95431 -75 20 -75L370 -75C381.046 -75 390 -66.0457 390 -55V-1L390 789C390 800.046 381.046 809 370 809H20C8.95431 809 0 800.046 0 789L0 -1L0 -55Z" fill="url(#paint1_linear_3_25463)" fill-opacity="0.5"/>
<path d="M346.104 374.993C346.104 374.993 345.579 363.041 343.083 360.508C340.583 357.979 332.642 357.193 332.642 357.193C332.642 357.193 340.671 357.325 343.167 354.792C345.667 352.262 345.498 339 345.498 339C345.498 339 345.946 352.266 348.442 354.799C350.942 357.329 358.649 357.511 358.649 357.511C358.649 357.511 351.026 357.904 348.527 360.437C346.03 362.966 346.104 374.993 346.104 374.993Z" fill="#FDFB90" stroke="#FDFB90" stroke-miterlimit="10"/>
<path d="M51.1285 405.843C51.1285 405.843 50.6662 395.6 48.4694 393.428C46.2695 391.26 39.282 390.586 39.282 390.586C39.282 390.586 46.3471 390.7 48.5439 388.529C50.7438 386.36 50.5948 374.993 50.5948 374.993C50.5948 374.993 50.9889 386.363 53.1856 388.535C55.3855 390.703 62.1682 390.859 62.1682 390.859C62.1682 390.859 55.46 391.196 53.2601 393.367C51.0633 395.535 51.1285 405.843 51.1285 405.843Z" fill="#FDFB90" stroke="#FDFB90" stroke-miterlimit="10"/>
<path d="M295.187 418.853C327.359 429.245 301.168 463.369 278.707 476.498C214.299 526.499 110.589 530.099 104.64 530.2C98.6904 530.301 40.9453 533.504 34.207 511.722C32.0473 504.741 34.9738 498.916 42.46 494.349C49.4894 490.061 62.3314 486.603 85.5991 483.27C133.647 476.387 159.717 467.67 198.604 447.337C216.709 437.87 232.445 428.962 247.094 423.114C263.911 416.4 279.295 413.719 295.187 418.853Z" fill="#1B1C1D" stroke="black"/>
<path d="M186.786 494.369C160.886 493.147 131.443 493.686 112.244 494.564C108.191 493.76 102.555 493.524 96.6306 494.604C97.4604 495.869 98.2032 497.16 98.8419 498.535C100.271 501.61 101.24 504.797 102.105 508.554C102.537 510.428 102.878 512.151 103.288 514.407C103.31 514.532 103.374 514.887 103.449 515.302C103.642 515.89 103.822 516.39 104.002 516.863C104.037 516.917 104.084 516.975 104.108 517.012C104.312 517.33 104.491 517.627 104.711 518.005C104.962 518.438 105.205 518.886 105.474 519.436C105.788 520.086 105.789 520.088 106.246 521.196C106.813 522.662 106.806 522.659 107.52 526.041C107.674 527.209 107.682 527.209 107.757 528.739C107.761 530.5 107.761 530.497 107.474 532.833C107.288 533.779 107.175 534.235 107.036 534.778C108.767 535.076 110.509 535.501 112.275 536.221C113.224 536.609 114.072 537.113 114.934 537.596C115.502 537.589 115.659 537.609 116.624 537.585C117.891 537.555 118.547 537.532 119.358 537.523C127.161 537.424 132.961 538.061 139.425 540.637C141.362 541.407 143.146 542.327 144.799 543.403C144.878 543.39 144.947 543.386 145.032 543.373C145.442 543.315 145.968 543.23 146.62 543.142C147.759 542.989 154.029 542.204 155.193 542.063C155.828 541.986 157.217 541.821 157.433 541.799C198.618 537.654 166.312 540.045 174.612 547.021C176.452 548.567 178.018 550.371 179.293 552.344C179.548 552.318 179.724 552.318 179.99 552.286C180.026 552.254 180.048 552.211 180.084 552.179C184.26 548.387 188.624 546.672 193.404 545.79C197.528 545.031 201.574 545.022 206.454 545.396C208.397 545.544 210.282 545.747 212.539 546.022C212.764 546.05 213.366 546.129 214.058 546.213C216.076 546.011 218.153 545.698 220.445 545.215C220.93 544.754 221.284 544.392 222.035 543.785C223.954 542.406 223.959 542.406 225.39 541.617C227.684 540.53 227.68 540.538 229.038 540.084C230.993 539.526 230.993 539.524 231.943 539.346C232.68 539.217 232.692 539.224 233.153 539.161C233.551 539.11 233.882 539.069 234.214 539.039C234.402 539.024 234.557 539.011 234.721 539.001C235.036 538.893 235.351 538.788 235.4 538.769C238.967 537.525 240.987 536.931 243.965 536.419C246.864 528.703 248.814 515.37 240.123 504.766C235.051 498.579 212.686 495.59 186.786 494.369ZM174.158 553.89C173.866 553.939 173.584 553.997 173.281 554.051C173.402 554.07 173.52 554.064 173.64 554.085C174.003 554.152 174.337 554.263 174.693 554.336C174.51 554.203 174.345 554.008 174.158 553.89Z" fill="#571905"/>
<path d="M186.806 493.84C160.913 492.619 131.503 493.16 112.292 494.038C108.146 493.223 102.384 492.986 96.3445 494.114C96.5571 494.423 96.8854 494.335 97.083 494.65C102.864 493.624 108.187 493.865 112.141 494.65C131.328 493.771 160.747 493.23 186.626 494.45C199.567 495.061 211.734 496.552 221.164 498.22C225.879 499.053 229.936 500.045 233.11 501.199C236.302 502.36 238.526 503.663 239.699 505.095C244.667 511.158 246.106 518.15 245.865 524.455C245.685 529.109 244.587 533.35 243.353 536.552C243.678 536.49 243.938 536.409 244.29 536.351C244.398 536.333 244.487 536.329 244.593 536.312C245.767 533.095 246.756 528.986 246.93 524.505C247.177 518.015 245.706 510.743 240.535 504.432C239.172 502.771 236.712 501.385 233.474 500.207C230.218 499.023 226.105 498.029 221.358 497.189C211.861 495.51 199.764 494.452 186.806 493.84Z" fill="#2E4166"/>
<path d="M240.056 504.446C239.77 504.374 239.484 504.552 239.41 504.835C239.338 505.118 239.503 505.4 239.789 505.472C243.213 506.334 247.975 510.571 248.693 519.344C249.053 523.756 248.597 528.253 247.712 532.119C247.376 533.588 246.935 534.838 246.499 536.071C246.881 536.024 247.28 535.964 247.664 535.928C248.05 534.778 248.452 533.665 248.753 532.353C249.656 528.398 250.124 523.784 249.751 519.251C249.007 510.137 244.02 505.444 240.056 504.446Z" fill="#2E4166"/>
<path d="M173.262 544.343C173.129 545.143 173.433 546.031 174.613 547.022C176.452 548.568 178.018 550.372 179.294 552.345C179.548 552.319 179.724 552.319 179.99 552.287C180.026 552.254 180.048 552.212 180.084 552.179C182.368 550.106 184.717 548.703 187.151 547.667C186.52 547.262 185.955 546.953 185.518 546.756C183.562 545.542 178.474 544.806 173.262 544.343ZM174.158 553.891C173.867 553.94 173.584 553.998 173.282 554.052C173.402 554.071 173.521 554.064 173.64 554.086C174.003 554.152 174.337 554.264 174.694 554.337C174.51 554.204 174.345 554.009 174.158 553.891Z" fill="#FF7CAB"/>
<path d="M243.677 536.268C243.677 536.268 256.062 534.696 262.21 540.679C268.358 546.664 270.055 554.511 269.838 560.299C269.558 567.721 263.9 573.949 263.9 573.949C263.9 573.949 268.156 575.416 270.51 578.388C274.012 582.81 276.192 588.727 275.988 594.337C275.699 602.278 274.573 611.361 269.102 617.183C262.733 623.962 252.903 627.771 243.603 628.804C222.719 631.127 201.449 629.49 180.582 627.029C170.889 625.883 160.05 624.466 152.732 618.079C146.139 612.326 143.634 602.607 142.688 593.964C140.883 577.464 143.996 560.797 144.65 544.215" fill="#571905"/>
<path d="M243.677 536.268C243.677 536.268 256.062 534.696 262.21 540.679C268.358 546.664 270.055 554.511 269.838 560.299C269.558 567.721 263.9 573.949 263.9 573.949C263.9 573.949 268.156 575.416 270.51 578.388C274.012 582.81 276.192 588.727 275.988 594.337C275.699 602.278 274.573 611.361 269.102 617.183C262.733 623.962 252.903 627.771 243.603 628.804C222.719 631.127 201.449 629.49 180.582 627.029C170.889 625.883 160.05 624.466 152.732 618.079C146.139 612.326 143.634 602.607 142.688 593.964C140.883 577.464 143.996 560.797 144.65 544.215" stroke="#2E4166" stroke-miterlimit="10" stroke-linecap="round"/>
<path d="M142.011 541.808C142.979 542.299 143.91 542.827 144.8 543.406C144.879 543.393 144.948 543.389 145.033 543.376C145.236 543.348 145.559 543.307 145.819 543.266C144.6 542.735 143.34 542.243 142.011 541.808ZM173.411 543.811C172.991 544.74 173.163 545.806 174.613 547.024C176.453 548.57 178.019 550.373 179.294 552.346C179.548 552.321 179.725 552.321 179.991 552.288C180.027 552.256 180.048 552.213 180.084 552.181C182.553 549.94 185.096 548.482 187.743 547.433C186.995 546.934 186.301 546.526 185.778 546.288C184.816 545.7 183.239 545.239 181.404 544.866C179.529 544.484 177.311 544.174 175.007 543.935C174.475 543.882 173.949 543.858 173.411 543.811ZM174.159 553.893C173.867 553.942 173.584 554 173.282 554.053C173.402 554.073 173.521 554.066 173.641 554.088C174.004 554.154 174.338 554.266 174.694 554.339C174.511 554.206 174.346 554.011 174.159 553.893Z" fill="#2E4166"/>
<path fill-rule="evenodd" clip-rule="evenodd" d="M181.32 449.997C182.848 451.275 183.794 452.54 184.127 453.566C184.217 453.844 184.063 454.142 183.782 454.231C183.5 454.32 183.198 454.167 183.108 453.889C182.863 453.132 182.086 452.023 180.629 450.804C179.185 449.597 177.11 448.314 174.339 447.195C168.798 444.958 160.485 443.379 148.909 444.346C137.468 445.302 129.001 452.075 123.759 460.043C121.138 464.027 119.332 468.297 118.371 472.263C117.407 476.237 117.299 479.866 118.031 482.582C118.108 482.865 117.938 483.154 117.652 483.229C117.367 483.305 117.074 483.137 116.998 482.855C116.205 479.912 116.342 476.093 117.33 472.016C118.322 467.932 120.176 463.55 122.862 459.467C128.234 451.302 136.966 444.283 148.819 443.293C160.534 442.313 169.02 443.905 174.743 446.216C177.604 447.371 179.778 448.708 181.32 449.997Z" fill="#2E4166"/>
<path d="M97.0904 494.268C92.1819 495.232 84.3254 498.725 79.544 504.714C72.6154 513.392 71.5031 518.602 71.0178 530.341C70.5325 542.082 77.6026 551.672 77.6026 551.672C77.6026 551.672 53.7719 561.535 49.8015 577.778C45.831 594.023 52.8553 607.199 61.7206 616.647C69.7706 625.228 81.3331 623.338 93.1534 623.986C120.845 625.506 148.736 624.657 176.328 621.88C190.083 620.497 203.799 617.036 216.475 611.578C226.123 607.422 233.637 599.53 242.219 593.506" fill="#571905"/>
<path d="M97.0904 494.268C92.1819 495.232 84.3254 498.725 79.544 504.714C72.6154 513.392 71.5031 518.602 71.0178 530.341C70.5325 542.082 77.6026 551.672 77.6026 551.672C77.6026 551.672 53.7719 561.535 49.8015 577.778C45.831 594.023 52.8553 607.199 61.7206 616.647C69.7706 625.228 81.3331 623.338 93.1534 623.986C120.845 625.506 148.736 624.657 176.328 621.88C190.083 620.497 203.799 617.036 216.475 611.578C226.123 607.422 233.637 599.53 242.219 593.506" stroke="#2E4166" stroke-miterlimit="10" stroke-linecap="round"/>
<path d="M112.281 525.279C118.181 512.436 130.287 514.215 135.602 516.71C158.561 514.576 208.602 511.59 225.09 516.71C245.699 523.109 231.056 550.661 237.781 552.722C244.506 554.783 242.987 563.894 206.867 583.636C170.746 603.378 99.8065 579.84 99.4811 568.559C99.2207 559.534 107.906 552.867 112.281 550.661C109.822 547.551 106.38 538.122 112.281 525.279Z" fill="#481809"/>
<path d="M182.574 455.627C156.899 454.071 134.934 466.627 129.923 484.272C129.783 484.763 129.69 485.201 129.589 485.693C129.577 485.75 129.561 485.819 129.549 485.877C129.459 486.321 129.364 486.802 129.225 487.37L128.76 489.283L128.199 487.394C127.867 486.292 127.157 485.366 126.391 484.643C125.623 483.92 124.828 483.427 124.342 483.206L124.314 483.204L124.3 483.189C121.245 481.535 118.806 481.717 116.989 482.546C115.152 483.384 113.896 484.907 113.306 486.063C112.813 487.315 112.369 489.399 112.677 491.55C112.983 493.696 114.031 495.894 116.485 497.448C118.942 499.004 121.388 499.043 123.47 498.442C125.57 497.835 127.282 496.581 128.208 495.631L128.978 494.85L129.128 495.93C129.253 496.815 129.41 497.688 129.615 498.557C132.924 512.493 146.4 526.501 164.559 531.224L164.958 531.319L164.961 531.733C164.985 533.6 164.908 536.052 164.558 538.46C164.427 539.369 164.215 540.264 163.988 541.139C172.686 552.061 167.032 540.65 174.613 547.021C176.36 548.49 177.841 550.201 179.081 552.061C179.867 551.859 180.548 551.567 181.237 551.278C182.496 550.255 183.778 549.404 185.08 548.698C185.327 548.37 185.519 548.046 185.616 547.731C186.833 543.787 187.275 536.939 187.372 533.148L187.388 532.663L187.866 532.635C209.288 530.847 226.582 517.5 230.696 501.925C230.846 501.355 230.977 500.787 231.091 500.207L231.365 498.81L232.084 500.039C233.222 502.005 235.481 503.176 236.462 503.502L236.475 503.503L236.49 503.503C239.369 504.64 241.666 504.054 243.389 502.865C245.129 501.665 246.291 499.836 246.836 498.52C247.257 496.973 247.493 494.597 246.864 492.454C246.244 490.334 244.79 488.452 241.753 487.791C238.599 487.104 236.523 487.559 235.119 488.345C233.703 489.139 232.901 490.312 232.371 491.205L231.55 492.569L231.373 491.002C231.299 490.367 231.277 490.156 231.161 489.533C227.865 471.803 207.836 457.157 182.574 455.627Z" fill="#FFC6B2" stroke="#2E4166" stroke-miterlimit="10"/>
<path d="M133.807 484.35C164.243 487.784 178.918 472.108 182.452 463.841C187.521 488.399 222.65 486.551 224.653 487.468C226.255 488.201 230.551 490.05 231.942 491.989C232.652 491.113 233.74 488.92 234.307 488.424C234.975 477.651 230.781 467.59 228.498 464.536C213.78 446.789 190.439 447.42 183.137 452.78C172.348 446.083 163.766 443.133 147.033 447.417C122.923 453.59 118.757 473.337 118.25 481.523C125.231 481.288 128.512 485.192 129.241 488.947L133.807 484.35Z" fill="#571905" stroke="#2E4166" stroke-miterlimit="10" stroke-linecap="round"/>
<path d="M171.269 481.204C170.107 480.971 168.399 481.147 166.704 481.698C165 482.253 163.235 483.203 161.988 484.625C161.795 484.845 161.819 485.193 162.042 485.385C162.265 485.576 162.603 485.551 162.796 485.33C163.881 484.095 165.45 483.218 167.032 482.703C168.623 482.185 170.143 482.049 171.061 482.233C171.35 482.292 171.634 482.115 171.693 481.829C171.751 481.543 171.559 481.262 171.269 481.204ZM188.79 482.779C188.495 482.761 188.228 482.995 188.21 483.287C188.192 483.578 188.429 483.828 188.724 483.846C189.829 483.913 191.277 484.326 192.644 485.126C194.008 485.922 195.251 487.074 195.997 488.583C196.127 488.846 196.452 488.955 196.718 488.827C196.984 488.699 197.079 488.39 196.95 488.127C196.091 486.391 194.676 485.092 193.177 484.216C191.682 483.341 190.083 482.857 188.79 482.779ZM178.751 489.809C178.456 489.809 178.211 490.055 178.212 490.347C178.213 490.522 178.222 490.714 178.22 490.918C178.214 492.038 178.198 493.536 178.436 494.886C178.711 496.439 179.367 498.092 181.059 498.471C182.289 498.746 183.598 499.056 184.54 499.624C184.999 499.902 185.349 500.215 185.548 500.599C185.743 500.974 185.825 501.462 185.7 502.107C185.552 502.876 185.248 503.379 184.864 503.712C184.474 504.049 183.961 504.253 183.338 504.333C182.069 504.495 180.463 504.134 178.935 503.61C178.656 503.514 178.348 503.664 178.25 503.94C178.154 504.215 178.305 504.52 178.584 504.616C180.148 505.153 181.951 505.578 183.475 505.384C184.249 505.285 184.975 505.022 185.565 504.511C186.16 503.996 186.572 503.258 186.757 502.299C186.919 501.457 186.821 500.742 186.501 500.128C186.186 499.521 185.672 499.06 185.101 498.716C183.985 498.041 182.495 497.709 181.31 497.444L181.296 497.443C180.312 497.223 179.756 496.23 179.487 494.707C179.266 493.46 179.282 492.065 179.287 490.94C179.289 490.729 179.295 490.531 179.295 490.341C179.294 490.049 179.047 489.808 178.751 489.809Z" fill="#2E4166"/>
<path d="M193.842 491.539C193.745 493.137 192.894 494.385 191.939 494.326C190.986 494.267 190.292 492.924 190.389 491.326C190.487 489.729 191.339 488.481 192.292 488.54C193.246 488.598 193.94 489.941 193.842 491.539Z" fill="#2E4166"/>
<path d="M169.545 491.539C169.448 493.137 168.597 494.385 167.643 494.326C166.689 494.267 165.995 492.924 166.092 491.326C166.19 489.729 167.042 488.481 167.995 488.54C168.949 488.598 169.643 489.941 169.545 491.539Z" fill="#2E4166"/>
<path d="M151.522 495.425C148.279 495.228 145.565 496.242 145.475 497.699C145.384 499.157 147.952 500.505 151.195 500.701C154.439 500.898 157.139 499.869 157.229 498.411C157.319 496.954 154.766 495.621 151.522 495.425Z" fill="#FF92B9"/>
<path d="M204.987 498.218C201.45 498.004 198.498 499.003 198.408 500.46C198.317 501.918 201.123 503.28 204.66 503.494C208.199 503.709 211.136 502.694 211.226 501.237C211.317 499.78 208.526 498.432 204.987 498.218Z" fill="#FF92B9"/>
<path d="M243.491 495.867C243.348 498.199 241.079 499.959 238.425 499.798C235.772 499.637 233.738 497.617 233.882 495.285C234.027 492.953 236.295 491.193 238.948 491.354C241.601 491.515 243.636 493.535 243.491 495.867Z" fill="#E3A58E"/>
<path fill-rule="evenodd" clip-rule="evenodd" d="M239.786 492.482C240.435 492.561 241.149 492.715 241.934 492.963C242.214 493.052 242.516 492.899 242.607 492.621C242.696 492.343 242.542 492.045 242.26 491.956C240.385 491.363 238.821 491.248 237.528 491.457C234.492 491.948 233.122 494.178 232.794 495.669C232.731 495.955 232.914 496.236 233.203 496.299C233.491 496.361 233.776 496.18 233.839 495.894C234.092 494.743 235.159 492.958 237.593 492.519C238.086 492.655 238.786 493.011 239.366 493.505C240.001 494.046 240.355 494.631 240.322 495.147C240.305 495.438 240.528 495.689 240.823 495.707C241.118 495.725 241.372 495.503 241.39 495.212C241.453 494.191 240.778 493.312 240.064 492.704C239.975 492.627 239.882 492.554 239.786 492.482Z" fill="#2E4166"/>
<path d="M116.023 489.508C115.896 491.548 117.945 493.333 120.599 493.493C123.252 493.654 125.506 492.13 125.633 490.09C125.759 488.05 123.71 486.266 121.057 486.105C118.403 485.944 116.149 487.468 116.023 489.508Z" fill="#E3A58E"/>
<path fill-rule="evenodd" clip-rule="evenodd" d="M120.172 486.607C119.652 486.612 119.08 486.658 118.451 486.754C118.16 486.799 117.886 486.601 117.84 486.312C117.796 486.024 117.996 485.754 118.288 485.709C119.976 485.452 121.346 485.52 122.448 485.802C125.032 486.463 126.051 488.276 126.196 489.502C126.231 489.792 126.021 490.055 125.728 490.089C125.435 490.123 125.169 489.916 125.134 489.626C125.039 488.828 124.342 487.416 122.273 486.851C121.874 486.909 121.278 487.168 120.695 487.531C120.393 487.719 120.117 487.922 119.899 488.11C119.672 488.309 119.547 488.46 119.505 488.541C119.367 488.799 119.043 488.899 118.783 488.763C118.521 488.627 118.421 488.307 118.558 488.049C118.694 487.794 118.937 487.54 119.193 487.317C119.459 487.085 119.782 486.849 120.125 486.637C120.14 486.627 120.157 486.617 120.172 486.607Z" fill="#2E4166"/>
<path d="M124.111 493.938C122.637 493.849 121.363 494.95 121.272 496.407C121.182 497.865 122.31 499.125 123.784 499.215C125.259 499.304 126.52 498.188 126.61 496.73C126.7 495.273 125.586 494.027 124.111 493.938Z" fill="#FFFB90"/>
<path d="M236.228 500.729C234.755 500.64 233.48 501.741 233.39 503.198C233.3 504.656 234.427 505.916 235.903 506.006C237.376 506.095 238.636 504.979 238.727 503.522C238.818 502.064 237.703 500.819 236.228 500.729Z" fill="#FFFB90"/>
<path d="M165.199 531.392C165.5 532.293 165.943 534.926 165.307 538.278C172.088 539.537 176.928 535.102 178.504 532.726C174.607 533.337 168.014 532.091 165.199 531.392Z" fill="#E3A58E"/>
<path d="M168.022 508.266C169.628 510.792 172.175 512.217 174.928 512.329" stroke="#2E4166" stroke-miterlimit="10" stroke-linecap="round"/>
<path d="M263.985 593.741C247.569 552.708 212.291 550.585 189.95 547.535C159.331 543.358 119.027 542.47 93.584 559.819C67.5095 577.6 58.0694 599.298 49.8604 629.541C41.9038 658.852 49.853 681.333 56.6938 706.958C63.5348 732.583 112.723 712 112.723 712L275.539 714.133C275.539 714.133 280.403 634.773 263.985 593.741Z" fill="#FF9603" stroke="#2E4166" stroke-miterlimit="10" stroke-linecap="round"/>
<path d="M164.136 538.282C164.136 538.282 160.897 539.264 158.797 540.973C156.698 542.68 155.738 545.112 155.738 545.112C155.738 545.112 159.382 550.349 165.73 552.279C172.079 554.207 178.309 555.678 184.361 554.977C188.985 554.441 192.983 551.895 195.769 548.402C195.769 548.402 195.197 545.638 193.032 543.613C190.867 541.589 187.109 540.306 187.109 540.306C187.109 540.306 180.565 543.604 174.821 543.098C169.078 542.592 164.136 538.282 164.136 538.282Z" fill="#FF9603" stroke="#2E4166" stroke-miterlimit="10" stroke-linecap="round"/>
<path d="M135.876 735.102C135.99 738.398 181.345 739.56 181.345 739.56C181.345 739.56 254.057 743.866 294.301 742.822C329.869 741.9 351.552 739.708 324.96 731.735C292.527 722.014 273.532 720.407 225.714 718.068C213.339 717.463 184.884 720.613 162.782 724.731C140.68 728.846 135.762 731.808 135.876 735.102Z" fill="#BAA197"/>
<path d="M379.235 423.006C373.976 419 368.42 415.787 362.841 413.541C351.181 408.848 340.072 408.669 332.576 413.818C328.583 416.561 325.759 419.821 324.032 423.47C322.575 426.547 321.959 429.754 322.034 432.939C322.072 434.591 322.297 436.147 322.645 437.579C322.876 438.532 323.132 439.301 323.362 439.868C324.975 443.833 330.198 448.497 334.197 447.578C338.196 446.66 343.376 443.442 341.763 439.477C341.809 439.589 341.833 439.653 341.842 439.677C341.822 439.621 341.794 439.529 341.764 439.407C341.657 438.964 341.581 438.434 341.567 437.842C341.538 436.61 341.777 435.345 342.379 434.073C343.195 432.348 344.642 430.691 346.905 429.135C349.985 427.02 354.136 426.333 361.098 429.135C369.178 432.388 375.191 436.578 382.008 444.979C392.261 457.613 397.437 471.215 397.341 484.171C397.247 496.732 392.175 508.208 382.796 516.867C378.088 521.212 372.377 524.054 365.299 525.81C359.471 527.257 353.335 527.913 343.734 528.363C344.36 528.334 334.966 528.74 332.407 528.887C322.029 529.482 314.966 530.61 308.637 533.174C300.492 536.473 294.64 541.997 291.19 550.241C289.703 553.797 291.778 558.286 295.824 560.265C299.871 562.244 304.36 560.966 305.847 557.411C308.031 552.195 311.48 548.937 316.586 546.868C321.151 545.019 326.858 544.107 335.74 543.597C338.169 543.459 347.427 543.065 346.905 543.089C357.427 542.594 364.393 541.838 371.382 540.104C380.541 537.831 388.212 534.025 394.567 528.158C406.375 517.257 412.832 502.634 412.952 486.555C413.075 470.045 406.538 452.854 393.86 437.231C389.462 431.811 384.495 427.012 379.235 423.006Z" fill="#1B1C1D" stroke="#1B1C1D" stroke-miterlimit="10" stroke-linecap="round"/>
<path d="M263.688 606.809C263.688 606.809 256.785 628.926 267.87 646.281C278.958 663.635 292.623 669.249 305.18 688.748C313.551 701.746 319.368 731.866 324.214 729.665C329.06 727.465 327.086 704.3 325.071 687.905C324.019 679.354 318.762 664.075 315.627 656.039C307.416 634.986 299.214 613.757 287.998 594.109C284.952 588.771 278.413 586.335 273.623 582.447" fill="black"/>
<path d="M263.688 606.809C263.688 606.809 256.785 628.926 267.87 646.281C278.958 663.635 292.623 669.249 305.18 688.748C313.551 701.746 319.368 731.866 324.214 729.665C329.06 727.465 327.086 704.3 325.071 687.905C324.019 679.354 318.762 664.075 315.627 656.039C307.416 634.986 299.214 613.757 287.998 594.109C284.952 588.771 278.413 586.335 273.623 582.447" stroke="#1B1C1D" stroke-miterlimit="10" stroke-linecap="round"/>
<path d="M167.64 626.98C167.64 626.98 186.406 653.098 178 662.414C172.279 668.755 159.063 651.854 149.356 652.45C139.649 653.044 140.612 668.408 140.612 668.408C140.612 668.408 143.434 700.469 152.18 699.169C157.653 698.354 148.385 676.96 153.887 673.969C159.56 670.885 160.054 678.335 175.78 690.67C192.948 704.136 229.431 684.119 242.653 659.238C257.311 631.655 256.222 628.275 272.966 609.416C277.437 604.379 287.284 642.371 291.479 677.123C294.985 706.145 292.623 733.01 298.111 729.72C308.531 723.477 324.047 638.485 324.047 638.485C324.047 638.485 332.195 611.756 325.244 578.395C320.051 553.467 299.242 540.887 277.923 542.487C256.604 544.087 244.937 551.379 234.372 570.486C223.67 589.839 224.617 596.332 215.712 604.512C206.806 612.689 198.751 603.199 198.751 603.199" fill="#1B1C1D"/>
<path d="M167.64 626.98C167.64 626.98 186.406 653.098 178 662.414C172.279 668.755 159.063 651.854 149.356 652.45C139.649 653.044 140.612 668.408 140.612 668.408C140.612 668.408 143.434 700.469 152.18 699.169C157.653 698.354 148.385 676.96 153.887 673.969C159.56 670.885 160.054 678.335 175.78 690.67C192.948 704.136 229.431 684.119 242.653 659.238C257.311 631.655 256.222 628.275 272.966 609.416C277.437 604.379 287.284 642.371 291.479 677.123C294.985 706.145 292.623 733.01 298.111 729.72C308.531 723.477 324.047 638.485 324.047 638.485C324.047 638.485 332.195 611.756 325.244 578.395C320.051 553.467 299.242 540.887 277.923 542.487C256.604 544.087 244.937 551.379 234.372 570.486C223.67 589.839 224.617 596.332 215.712 604.512C206.806 612.689 198.751 603.199 198.751 603.199" stroke="#1B1C1D" stroke-miterlimit="10" stroke-linecap="round"/>
<path d="M291.479 677.123C287.284 642.371 277.437 604.379 272.965 609.416C263.375 620.219 259.635 625.942 255.435 634.045C252.303 640.088 248.914 647.454 242.652 659.238C231.81 679.641 205.326 696.774 186.677 694.854C183.523 694.529 180.592 693.659 178 692.168C181.991 692.258 188.63 686.125 191.45 683.048L186.677 694.854C205.326 696.774 231.81 679.641 242.652 659.238C248.914 647.454 252.303 640.088 255.435 634.045C258.412 620.785 267.077 594.264 277.923 594.264C291.479 594.264 294.319 641.497 291.479 677.123Z" fill="black"/>
<path d="M177.891 624.502C174.073 627.933 169.466 627.584 167.64 626.98C167.64 626.98 169.158 629.092 171.136 632.329C177.29 633.509 182.664 620.213 177.891 624.502Z" fill="black"/>
<path d="M178 662.414C184.015 655.747 176.116 640.476 171.136 632.329M175.78 690.67C176.488 691.226 177.229 691.724 178 692.168M291.479 677.123C287.284 642.371 277.437 604.379 272.965 609.416C263.375 620.219 259.635 625.942 255.435 634.045M291.479 677.123C294.985 706.145 292.622 733.01 298.111 729.72C308.531 723.477 324.046 638.485 324.046 638.485C324.046 638.485 332.195 611.756 325.244 578.395C320.05 553.467 299.241 540.887 277.923 542.487C256.604 544.087 244.937 551.379 234.372 570.486C223.67 589.839 224.617 596.332 215.712 604.512C206.806 612.689 198.751 603.199 198.751 603.199M291.479 677.123C294.319 641.497 291.479 594.264 277.923 594.264C267.077 594.264 258.412 620.785 255.435 634.045M171.136 632.329C169.158 629.092 167.64 626.98 167.64 626.98C169.466 627.584 174.073 627.933 177.891 624.502C182.664 620.213 177.29 633.509 171.136 632.329ZM255.435 634.045C252.303 640.088 248.914 647.454 242.652 659.238C231.81 679.641 205.326 696.774 186.677 694.854M186.677 694.854L191.45 683.048C188.63 686.125 181.991 692.258 178 692.168M186.677 694.854C183.523 694.529 180.592 693.659 178 692.168" stroke="#1B1C1D" stroke-miterlimit="10" stroke-linecap="round"/>
<path d="M200.282 635.059C200.282 635.059 204.483 646.95 197.211 670.06C189.938 693.171 176.376 712.165 171.191 727.503C167.883 737.289 196.898 717.027 208.615 706.137C218.2 697.227 224.889 686.362 232.648 675.858C235.915 671.434 237.599 666.058 240.074 661.158" fill="#1B1C1D"/>
<path d="M200.282 635.059C200.282 635.059 204.483 646.95 197.211 670.06C189.938 693.171 176.376 712.165 171.191 727.503C167.883 737.289 196.898 717.027 208.615 706.137C218.2 697.227 224.889 686.362 232.648 675.858C235.915 671.434 237.599 666.058 240.074 661.158" stroke="#1B1C1D" stroke-miterlimit="10" stroke-linecap="round"/>
<path d="M173.457 559.896C165.592 554.702 170.812 581.14 170.812 581.14L157.017 588.393C157.017 588.393 137.37 575.689 134.203 579.825C131.035 583.96 146.142 604.681 146.142 604.681C146.142 604.681 149.371 615.09 155.055 621.217C160.787 627.398 172.309 627.872 172.309 627.872C184.365 627.962 193.814 619.107 193.814 619.107C193.814 619.107 201.419 611.972 202.27 601.914C203.936 582.242 181.321 565.09 173.457 559.896Z" fill="#1B1C1D" stroke="#1B1C1D" stroke-miterlimit="10" stroke-linecap="round"/>
<path d="M177.963 608.312C176.574 608.569 174.709 609.992 173.949 610.671C174.817 612.601 179.156 613.03 178.397 611.85C177.637 610.671 179.698 607.99 177.963 608.312Z" fill="black" stroke="#1B1C1D" stroke-miterlimit="10" stroke-linecap="round"/>
<path d="M175.97 604.338C175.536 603.543 175.669 601.581 175.846 600.768C176.634 597.139 178.566 594.527 181.287 591.994C182.117 591.22 183.059 590.399 184.018 589.773C184.094 589.723 184.145 589.631 184.23 589.7C185.279 590.525 185.685 591.853 186.114 593.056C187.382 596.612 186.329 599.884 183.407 602.295C181.815 603.605 179.889 603.974 177.911 604.298C177.599 604.349 176.218 604.795 175.97 604.338Z" fill="#FDFB90" stroke="#1B1C1D" stroke-miterlimit="10" stroke-linecap="round"/>
<path d="M179.555 594.31C180.042 593.727 181.703 594.289 183.264 595.565C184.826 596.841 185.697 598.346 185.209 598.929C184.936 599.258 184.291 599.223 183.503 598.904C182.887 598.655 182.184 598.232 181.5 597.675C179.939 596.399 179.068 594.891 179.555 594.31Z" fill="black"/>
<path d="M171.009 607.51C170.62 606.691 168.949 605.627 168.182 605.282C164.766 603.742 161.493 603.719 157.814 604.366C156.691 604.563 155.462 604.821 154.382 605.209C154.296 605.239 154.191 605.226 154.195 605.333C154.241 606.659 155.076 607.772 155.797 608.831C157.928 611.956 161.214 613.073 164.913 612.192C166.927 611.711 168.375 610.403 169.817 609.026C170.045 608.81 171.23 607.98 171.009 607.51Z" fill="#FDFB90" stroke="#1B1C1D" stroke-miterlimit="10" stroke-linecap="round"/>
<path d="M162.136 604.601C162.623 604.018 164.284 604.58 165.845 605.856C167.407 607.132 168.278 608.637 167.79 609.22C167.517 609.549 166.872 609.514 166.084 609.195C165.468 608.946 164.765 608.523 164.081 607.966C162.52 606.69 161.649 605.182 162.136 604.601Z" fill="black"/>
<path d="M124.196 506.81C124.196 506.81 123.872 499.636 122.335 498.116C120.798 496.597 115.911 496.126 115.911 496.126C115.911 496.126 120.852 496.205 122.389 494.685C123.926 493.165 123.822 485.205 123.822 485.205C123.822 485.205 124.097 493.169 125.634 494.688C127.171 496.208 131.914 496.317 131.914 496.317C131.914 496.317 127.223 496.553 125.686 498.072C124.149 499.592 124.196 506.81 124.196 506.81Z" fill="#FDFB90" stroke="#FDFB90" stroke-miterlimit="10"/>
<path d="M236.217 513.791C236.217 513.791 235.894 506.616 234.357 505.097C232.82 503.577 227.934 503.107 227.934 503.107C227.934 503.107 232.874 503.185 234.411 501.665C235.948 500.146 235.844 492.185 235.844 492.185C235.844 492.185 236.119 500.149 237.655 501.669C239.193 503.188 243.936 503.297 243.936 503.297C243.936 503.297 239.246 503.533 237.707 505.053C236.171 506.573 236.217 513.791 236.217 513.791Z" fill="#FDFB90" stroke="#FDFB90" stroke-miterlimit="10"/>
<path d="M201.433 728.781C205.331 736.678 214.078 739.74 222.886 740.926C230.267 741.919 237.015 730.939 237.015 730.939C237.015 730.939 248.186 739.157 260.297 740.248C279.193 741.951 285.486 733.9 285.486 733.9C285.486 733.9 299.371 718.385 295.561 703.763C291.752 689.144 285.734 683.296 270.411 673.873C255.089 664.448 238.976 663.403 228.821 665.951C216.419 669.06 208.315 678.426 201.929 690.832C195.544 703.238 205.428 715.781 205.428 715.781C205.428 715.781 199.228 724.312 201.433 728.781Z" fill="white" stroke="#2E4166" stroke-miterlimit="10" stroke-linecap="round"/>
<path d="M234.23 700.149C235.119 695.511 238.461 692.239 241.695 692.844C244.929 693.449 246.829 697.699 245.942 702.339C245.053 706.977 241.71 710.246 238.477 709.641C235.243 709.039 233.342 704.786 234.23 700.149Z" fill="#474A4E" stroke="#1B1C1D" stroke-miterlimit="10"/>
<path d="M227.942 711.196C228.926 708.397 229.848 704.977 227.969 702.333C224.871 697.971 219.227 703.356 218.337 706.517C217.648 708.966 223.976 706.276 223.976 706.276C223.976 706.276 226.813 714.404 227.942 711.196Z" fill="#1B1C1D" stroke="#1B1C1D" stroke-miterlimit="10" stroke-linecap="round"/>
<path d="M214.071 689.713C216.722 685.852 221.049 684.19 223.735 685.997C226.421 687.803 226.448 692.401 223.797 696.259C221.145 700.12 216.818 701.786 214.132 699.976C211.447 698.169 211.419 693.574 214.071 689.713Z" fill="#474A4E" stroke="#1B1C1D" stroke-miterlimit="10"/>
<path d="M241.605 693.092C238.823 691.571 235.106 695.719 234.228 700.288C233.349 704.857 235.228 709.047 238.424 709.64C239.505 709.841 241.605 709.64 241.605 708.894C239.02 709.618 237.928 706.545 237.928 700.82C237.928 696.239 240.379 693.759 241.605 693.092Z" fill="black" stroke="#1B1C1D" stroke-miterlimit="10"/>
<path d="M227.942 711.196C228.926 708.397 229.848 704.977 227.969 702.333C224.871 697.971 219.227 703.356 218.337 706.517C217.648 708.966 223.976 706.276 223.976 706.276C223.976 706.276 226.813 714.404 227.942 711.196Z" fill="#1B1C1D" stroke="#1B1C1D" stroke-miterlimit="10" stroke-linecap="round"/>
<path d="M213.974 689.713C216.496 685.852 220.61 684.19 223.164 685.997C221.388 686.427 217.665 688.025 216.986 690.972C216.211 694.331 215.319 700.405 216.992 700.675C217.177 700.654 217.364 700.623 217.552 700.582C217.34 700.672 217.154 700.701 216.992 700.675C215.91 700.797 214.885 700.58 214.033 699.976C211.479 698.169 211.453 693.574 213.974 689.713Z" fill="black" stroke="#1B1C1D" stroke-miterlimit="10"/>
<path d="M207.465 717.783C207.465 717.783 213.538 720.595 214.587 721.116C220.148 723.88 232.605 728.259 232.605 728.259" stroke="#2E4166" stroke-miterlimit="10" stroke-linecap="round"/>
<path d="M213.295 716.847C212.054 719.785 211.246 721.741 210.763 724.895" stroke="#2E4166" stroke-miterlimit="10" stroke-linecap="round"/>
<path d="M219.372 719.332C218.198 722.113 217.474 724.245 217.02 727.213" stroke="#2E4166" stroke-miterlimit="10" stroke-linecap="round"/>
<path d="M226.317 722.604C225.254 725.124 224.956 727.262 223.915 729.729" stroke="#2E4166" stroke-miterlimit="10" stroke-linecap="round"/>
<path d="M276.298 678.215C276.298 678.215 288.575 698.594 279.04 716.424C267.753 737.533 246.044 734.612 246.044 734.612C246.044 734.612 265.753 742.654 276.932 738.3C286.104 734.73 290.818 726.54 293.951 718.98C297.259 710.992 295.461 702.866 292.072 694.908C288.801 687.224 276.298 678.215 276.298 678.215Z" fill="#E3E3E3" stroke="#E3E3E3" stroke-miterlimit="10" stroke-linecap="round"/>
<path d="M293.127 714.528C293.299 715.481 293.379 717.127 293.127 719.171M289.873 728.629C291.302 726.224 292.172 723.832 292.676 721.687" stroke="#2E4166" stroke-linecap="round"/>
<path opacity="0.556202" d="M240.917 567.112C218.02 567.112 199.481 585.455 199.481 608.073C199.481 630.708 218.035 649.04 240.917 649.04C263.815 649.04 282.353 630.691 282.353 608.073C282.353 585.439 263.798 567.112 240.917 567.112Z" stroke="#FDFB90" stroke-miterlimit="10"/>
<path opacity="0.556202" d="M216.625 608.077C216.625 594.813 227.5 584.062 240.916 584.062C254.331 584.062 265.209 594.813 265.209 608.077C265.209 621.339 254.331 632.089 240.916 632.089C227.5 632.089 216.625 621.339 216.625 608.077Z" fill="#FDFB90" stroke="#FDFB90" stroke-miterlimit="10"/>
<path d="M237.485 622.234C232.206 620.023 232.659 614.974 233.14 610.214C233.541 606.253 233.598 606.87 234.016 606.679C235.002 606.229 236.365 613.445 237.317 609.041C238.238 604.781 235.925 604.595 236.29 600.715C236.656 596.834 238.78 593.521 238.78 593.521C238.78 593.521 250.307 601.723 250.841 608.972C251.088 612.307 250.127 615.082 249.053 617.076C247.554 619.862 242.796 624.455 237.485 622.234Z" fill="#FFD432"/>
<path d="M240.673 601.084C242.692 600.119 246.111 605.56 247.191 608.905C248.224 612.107 247.445 616.943 245.13 618.907C242.816 620.872 239.351 621.753 237.354 619.958C235.356 618.163 234.847 615.341 235.286 613.542C235.726 611.743 237.266 614.316 239.231 613.109C243.515 610.475 238.653 602.047 240.673 601.084Z" fill="#FDFB90" stroke="#FDFB90" stroke-miterlimit="10" stroke-linecap="round"/>
<path d="M237.541 671.231C239.564 671.091 239.267 665.267 241.751 664.962C243.004 664.808 244.466 665.393 245.655 667.235C247.445 670.01 249.143 671.149 250.239 671.357C253.929 672.065 248.989 667.064 251.102 666.474C252.673 666.034 254.074 669.444 256.727 670.649C260.372 672.305 263.106 670.688 261.372 668.348C259.637 666.009 250.664 665.134 248.996 660.489C245.277 650.139 245.789 626.03 245.789 626.03C245.789 626.03 243.777 624.514 241.863 624.66C239.95 624.806 238.095 626.249 238.095 626.249L238.163 637.774C238.163 637.774 238.895 650.652 234.949 658.13C229.594 668.28 216.585 666.581 218.437 670.334C219.493 672.474 228.066 665.537 232.024 666.405C235.983 667.276 235.518 671.372 237.541 671.231Z" fill="#FFFED1" stroke="#2E4166" stroke-miterlimit="10" stroke-linecap="round"/>
<path d="M241.965 625.724C242.07 625.598 241.327 624.397 241.249 624.225C240.838 623.325 240.225 622.278 240.279 621.212C240.367 619.456 242.132 619.351 242.85 618.197C242.908 618.105 243.049 617.356 243.111 617.339C243.549 617.208 243.894 617.609 244.019 618.034C244.255 618.842 241.663 620.127 241.211 620.871C240.58 621.911 241.921 624.116 242.244 625.18C242.285 625.313 242.324 625.533 242.207 625.643C242.174 625.675 241.954 625.737 241.965 625.724Z" fill="#2E4166" stroke="#2E4166" stroke-miterlimit="10" stroke-linecap="round"/>
<path d="M267.495 585.274C267.495 585.274 267.171 578.101 265.636 576.58C264.097 575.062 259.212 574.59 259.212 574.59C259.212 574.59 264.152 574.67 265.688 573.149C267.226 571.631 267.122 563.67 267.122 563.67C267.122 563.67 267.397 571.633 268.933 573.154C270.471 574.672 275.213 574.781 275.213 574.781C275.213 574.781 270.523 575.017 268.985 576.538C267.449 578.056 267.495 585.274 267.495 585.274Z" fill="#FDFB90" stroke="#FDFB90" stroke-miterlimit="10"/>
<path d="M220.543 654.149C220.543 654.149 220.219 646.975 218.682 645.455C217.145 643.937 212.258 643.465 212.258 643.465C212.258 643.465 217.198 643.544 218.736 642.024C220.273 640.505 220.169 632.545 220.169 632.545C220.169 632.545 220.444 640.508 221.981 642.028C223.518 643.546 228.261 643.656 228.261 643.656C228.261 643.656 223.57 643.892 222.033 645.412C220.496 646.93 220.543 654.149 220.543 654.149Z" fill="#FDFB90" stroke="#FDFB90" stroke-miterlimit="10"/>
<path d="M212.927 573.483C212.927 573.483 212.715 568.778 211.707 567.78C210.698 566.783 207.492 566.474 207.492 566.474C207.492 566.474 210.733 566.526 211.742 565.529C212.75 564.532 212.682 559.31 212.682 559.31C212.682 559.31 212.862 564.534 213.871 565.531C214.879 566.528 217.99 566.601 217.99 566.601C217.99 566.601 214.913 566.755 213.905 567.753C212.896 568.748 212.927 573.483 212.927 573.483Z" fill="#FDFB90" stroke="#FDFB90" stroke-miterlimit="10"/>
<path d="M170.097 564.706C167.767 568.632 162.603 571.012 158.707 573.187C152.854 576.455 142.722 572.641 137.103 576.327C133.589 578.633 132.493 600.674 132.493 600.674C132.493 600.674 121.512 602.447 115.061 599.871C108.609 597.297 104.543 584.388 104.543 584.388C104.543 584.388 113.241 562.942 117.899 557.59C121.088 553.928 123.349 551.48 129.905 549.643C144.518 545.546 160.527 552.067 175.081 557.097C183.662 560.063 186.936 561.115 192.153 564.293C197.37 567.471 195.774 568.785 195.774 568.785C195.774 568.785 194.682 570.405 186.629 568.159C179.897 566.281 173.217 564.464 168.682 564.421" fill="#FFC6B2"/>
<path d="M170.097 564.706C167.767 568.632 162.603 571.012 158.707 573.187C152.854 576.455 142.722 572.641 137.103 576.327C133.589 578.633 132.493 600.674 132.493 600.674C132.493 600.674 121.512 602.447 115.061 599.871C108.609 597.297 104.543 584.388 104.543 584.388C104.543 584.388 113.241 562.942 117.899 557.59C121.088 553.928 123.349 551.48 129.905 549.643C144.518 545.546 160.527 552.067 175.081 557.097C183.662 560.063 186.936 561.115 192.153 564.293C197.37 567.471 195.774 568.785 195.774 568.785C195.774 568.785 194.682 570.405 186.629 568.159C179.897 566.281 173.217 564.464 168.682 564.421" stroke="#2E4166" stroke-miterlimit="10" stroke-linecap="round"/>
<path d="M168.448 562.063C179.667 566.457 185.212 573.208 185.212 573.208C185.212 573.208 196.074 587.185 190.654 585.741C187.368 584.866 185.141 581.666 178.993 576.958C178.024 576.217 176.748 575.334 175.37 574.422C171.068 571.573 165.776 568.439 165.776 568.439" fill="#FFC6B2"/>
<path d="M168.448 562.063C179.667 566.457 185.212 573.208 185.212 573.208C185.212 573.208 196.074 587.185 190.654 585.741C187.368 584.866 185.141 581.666 178.993 576.958C178.024 576.217 176.748 575.334 175.37 574.422C171.068 571.573 165.776 568.439 165.776 568.439" stroke="#2E4166" stroke-miterlimit="10" stroke-linecap="round"/>
<path d="M166.653 567.219C170.788 570.138 172.957 572.018 176.332 575.864C179.748 579.753 184.413 588.058 182.336 589.62C180.425 591.056 173.274 580.864 167.682 577.2C164.6 575.182 163.277 573.637 159.868 572.322" fill="#FFC6B2"/>
<path d="M166.653 567.219C170.788 570.138 172.957 572.018 176.332 575.864C179.748 579.753 184.413 588.058 182.336 589.62C180.425 591.056 173.274 580.864 167.682 577.2C164.6 575.182 163.277 573.637 159.868 572.322" stroke="#2E4166" stroke-miterlimit="10" stroke-linecap="round"/>
<path d="M159.959 572.339C164.811 574.895 170.644 581.656 170.644 581.656C170.644 581.656 173.72 585.123 175.381 587.351C177.737 590.509 176.733 593.273 173.035 590.675C167.202 586.578 161.819 581.501 155.315 578.735C149.403 576.223 142.621 577.591 136.28 576.954C134.549 576.779 132.896 576.102 131.204 575.677" fill="#FFC6B2"/>
<path d="M159.959 572.339C164.811 574.895 170.644 581.656 170.644 581.656C170.644 581.656 173.72 585.123 175.381 587.351C177.737 590.509 176.733 593.273 173.035 590.675C167.202 586.578 161.819 581.501 155.315 578.735C149.403 576.223 142.621 577.591 136.28 576.954C134.549 576.779 132.896 576.102 131.204 575.677" stroke="#2E4166" stroke-miterlimit="10" stroke-linecap="round"/>
<path d="M132.661 600.909C134.396 593.939 134.033 588.471 134.033 588.471C127.409 581.437 112.364 578.893 106.049 578.714C106.049 578.714 102.035 582.965 100.771 589.221C86.5507 595.977 49.731 630.697 50.9459 681.652C52.4644 745.344 103.229 721.218 112.232 712.104C143.471 680.193 139.458 625.027 132.661 600.909Z" fill="#FF9603"/>
<path d="M166.654 567.224C170.788 570.143 172.957 572.023 176.332 575.869C179.749 579.758 184.413 588.064 182.336 589.625C180.425 591.061 173.274 580.87 167.682 577.206C164.6 575.187 163.278 573.642 159.868 572.328" fill="#FFC6B2"/>
<path d="M166.654 567.224C170.788 570.143 172.957 572.023 176.332 575.869C179.749 579.758 184.413 588.064 182.336 589.625C180.425 591.061 173.274 580.87 167.682 577.206C164.6 575.187 163.278 573.642 159.868 572.328" stroke="#2E4166" stroke-miterlimit="10" stroke-linecap="round"/>
<path d="M100.772 589.226C102.036 582.97 106.049 578.719 106.049 578.719C112.364 578.898 127.409 581.442 134.034 588.476C134.034 588.476 134.397 593.944 132.662 600.914C139.459 625.032 143.472 680.198 112.232 712.109C103.229 721.223 52.4651 745.349 50.9465 681.656M100.772 589.226C103.351 588.868 110.968 589.633 117.042 593.837M100.772 589.226C94.6613 592.129 84.378 600.195 74.7327 612.494C72.0953 616.212 66.6903 626.734 66.1697 639.087" stroke="#2E4166" stroke-miterlimit="10" stroke-linecap="round"/>
<path d="M82.8217 485.149C130.869 478.266 156.94 469.549 195.827 449.215C212.065 440.724 226.399 432.683 239.751 426.895C241.412 426.251 242.942 425.61 244.317 424.992C242.807 425.595 241.286 426.23 239.751 426.895C232.17 429.839 221.883 432.86 211.371 434.064C205.074 434.786 198.695 434.855 192.771 433.864C186.231 432.77 180.244 430.385 175.527 426.16C174.938 425.632 174.356 425.107 173.783 424.586C160.002 412.059 150.721 401.644 133.713 395.745C124.911 392.691 114.039 390.848 99.4035 390.547C97.4075 389.845 90.9859 389.881 81.2665 395.635C71.5472 401.39 62.1547 408.83 58.6734 411.831C59.6702 412.121 63.8502 412.221 72.5949 410.308C77.9298 409.14 82.5387 406.978 86.6576 406.211C90.978 405.406 94.7592 406.136 98.2739 411.159C103.152 418.131 110.231 427.479 113.183 439.772C113.677 441.828 114.055 443.966 114.288 446.189C114.623 449.382 114.659 452.75 114.308 456.301C114.071 458.323 112.656 461.738 109.127 465.03C106.225 467.738 101.894 470.363 95.6125 472.063C78.2129 476.771 49.4157 489.125 39.6826 496.228C46.712 491.94 59.554 488.482 82.8217 485.149Z" fill="#333537" stroke="#2E4166"/>
<path d="M175.527 426.162C180.243 430.386 186.231 432.772 192.77 433.865C189.93 435.625 186.437 437.674 182.467 439.866C162.584 450.845 130.754 465.401 109.127 465.032C112.656 461.739 114.071 458.324 114.308 456.302C114.659 452.751 114.623 449.383 114.288 446.19C122.096 448.665 147.725 437.573 165.137 428.988C168.354 427.402 171.291 425.901 173.783 424.588C174.356 425.109 174.937 425.634 175.527 426.162Z" fill="#FF9603"/>
<path d="M175.527 426.162C180.243 430.386 186.231 432.772 192.77 433.865C189.93 435.625 186.437 437.674 182.467 439.866C177.777 439.266 173.426 437.583 170.088 434.25C168.425 432.589 166.773 430.821 165.137 428.988C168.354 427.402 171.291 425.901 173.783 424.588C174.356 425.109 174.937 425.634 175.527 426.162Z" fill="#C18127"/>
<path d="M192.771 433.862C198.695 434.852 205.073 434.783 211.371 434.062C204.972 437.188 192.882 441.194 182.467 439.862C186.437 437.67 189.93 435.621 192.771 433.862Z" fill="#1B1C1D"/>
<path d="M133.713 395.742C150.72 401.642 160.002 412.057 173.783 424.584C171.291 425.897 168.354 427.398 165.137 428.984C153.559 416.018 142.746 399.848 133.713 395.742Z" fill="#1B1C1D"/>
<path d="M113.183 439.77C110.231 427.477 103.152 418.129 98.2738 411.157C94.7591 406.134 90.9778 405.403 86.6575 406.208C91.7799 404.895 103.933 405.067 111.567 416.263C119.2 427.459 115.825 436.6 113.183 439.77Z" fill="#1B1C1D"/>
<path d="M117.779 557.395C120.967 553.733 123.229 551.285 129.784 549.448C144.398 545.351 160.406 551.872 174.96 556.902C183.542 559.868 186.815 560.92 192.032 564.098C197.25 567.276 195.653 568.59 195.653 568.59C195.653 568.59 194.561 570.21 186.508 567.964C182.482 566.841 178.473 565.739 174.932 565.026C181.726 568.915 185.092 573.013 185.092 573.013C185.092 573.013 195.954 586.99 190.534 585.546C187.247 584.671 185.021 581.472 178.872 576.763C177.904 576.022 176.628 575.139 175.25 574.227C174.965 574.038 174.677 573.849 174.385 573.659C174.964 574.271 175.565 574.934 176.21 575.669C179.627 579.559 184.292 587.864 182.214 589.425C180.303 590.861 173.153 580.67 167.561 577.006C164.478 574.987 163.248 573.459 159.839 572.144C164.691 574.7 170.524 581.462 170.524 581.462C170.524 581.462 173.599 584.928 175.261 587.156C177.616 590.314 176.613 593.078 172.915 590.48C167.081 586.384 161.699 581.306 155.194 578.54C149.344 576.054 142.642 577.368 136.357 576.778C135.561 577.913 134.907 580.098 134.377 582.699L135.408 584.936C134.721 584.9 133.282 584.657 133.021 583.97C132.696 583.113 133.672 581.611 132.479 581.611C131.286 581.611 131.394 583.358 130.201 582.699C129.008 582.04 128.9 581.504 128.9 580.754C128.9 580.228 128.9 579.486 128.676 579.13C128.534 579.063 128.392 578.996 128.249 578.931C127.959 578.898 127.403 579.252 127.056 580.11C126.405 580.11 125.343 579.789 125.343 577.859C124.823 577.651 124.018 577.966 123.368 577.859C122.717 577.751 123.151 579.252 122.283 579.252C121.415 579.252 120.981 578.395 120.981 577.001C120.981 575.607 118.486 575.178 119.029 576.465C119.571 577.751 117.727 577.644 117.402 577.644C117.076 577.644 116.642 576.786 116.1 575.714C115.558 574.642 114.039 575.607 113.931 575.928C113.822 576.25 113.388 576.465 112.737 576.143C112.087 575.821 112.521 574.213 112.087 574.106C111.653 573.998 110.676 574.642 109.917 575.178C109.158 575.714 106.663 574.427 107.422 574.427C108.03 574.427 108.905 573.47 109.266 572.992C112.04 566.913 115.425 560.1 117.779 557.395Z" fill="#F4F4F4" fill-opacity="0.81"/>
<path d="M109.266 572.992C112.04 566.913 115.425 560.1 117.779 557.395C120.967 553.733 123.229 551.285 129.784 549.448C144.398 545.351 160.406 551.872 174.96 556.902C183.542 559.868 186.815 560.92 192.032 564.098C197.25 567.276 195.653 568.59 195.653 568.59C195.653 568.59 194.561 570.21 186.508 567.964C182.482 566.841 178.473 565.739 174.932 565.026M109.266 572.992C108.905 573.47 108.03 574.427 107.422 574.427C106.663 574.427 109.158 575.714 109.917 575.178C110.676 574.642 111.653 573.998 112.087 574.106C112.521 574.213 112.087 575.821 112.737 576.143C113.388 576.465 113.822 576.25 113.931 575.928C114.039 575.607 115.558 574.642 116.1 575.714C116.642 576.786 117.076 577.644 117.402 577.644C117.727 577.644 119.571 577.751 119.029 576.465C118.486 575.178 120.981 575.607 120.981 577.001C120.981 578.395 121.415 579.252 122.283 579.252C123.151 579.252 122.717 577.751 123.368 577.859C124.018 577.966 124.823 577.651 125.343 577.859C125.343 579.789 126.405 580.11 127.056 580.11C127.403 579.252 127.959 578.898 128.249 578.931M109.266 572.992C110.702 573.311 112.54 573.764 114.581 574.326M134.377 582.699C134.907 580.098 135.561 577.913 136.357 576.778M134.377 582.699L135.408 584.936C134.721 584.9 133.282 584.657 133.021 583.97C132.696 583.113 133.672 581.611 132.479 581.611C131.286 581.611 131.394 583.358 130.201 582.699C129.008 582.04 128.9 581.504 128.9 580.754C128.9 580.003 128.9 578.814 128.249 578.931M134.377 582.699C132.918 581.451 130.686 580.045 128.249 578.931M168.328 561.868C170.805 562.839 173.006 563.924 174.932 565.026M136.159 576.759C136.225 576.765 136.291 576.772 136.357 576.778M136.159 576.759C134.571 576.589 131.221 576.036 130.527 575.178M136.159 576.759C134.788 576.864 132.023 577.369 131.937 578.54M174.385 573.659C174.964 574.271 175.565 574.934 176.21 575.669C179.627 579.559 184.292 587.864 182.214 589.425C180.303 590.861 173.153 580.67 167.561 577.006C164.478 574.987 163.248 573.459 159.839 572.144C164.691 574.7 170.524 581.462 170.524 581.462C170.524 581.462 173.599 584.928 175.261 587.156C177.616 590.314 176.613 593.078 172.915 590.48C167.081 586.384 161.699 581.306 155.194 578.54C149.344 576.054 142.642 577.368 136.357 576.778M174.385 573.659C174.677 573.849 174.965 574.038 175.25 574.227C176.628 575.139 177.904 576.022 178.872 576.763C185.021 581.472 187.247 584.671 190.534 585.546C195.954 586.99 185.092 573.013 185.092 573.013C185.092 573.013 181.726 568.915 174.932 565.026M174.385 573.659C172.049 571.188 170.069 569.544 166.992 567.35" stroke="#2E4166" stroke-miterlimit="10" stroke-linecap="round"/>
<path d="M129.626 549.448C144.239 545.351 160.248 551.872 174.802 556.902C183.384 559.868 186.657 560.92 191.874 564.098C197.091 567.276 195.495 568.59 195.495 568.59C195.495 568.59 194.403 570.21 186.35 567.964C182.323 566.841 178.315 565.739 174.774 565.026C181.567 568.915 184.933 573.013 184.933 573.013C184.933 573.013 195.795 586.99 190.376 585.546C187.089 584.671 184.863 581.472 178.714 576.763C177.746 576.022 176.47 575.139 175.092 574.227C174.807 574.038 174.518 573.849 174.227 573.659C174.806 574.271 175.407 574.934 176.052 575.669C179.469 579.559 184.134 587.864 182.056 589.425C182.056 587.053 179.797 584.936 177.411 581.611C175.502 578.952 174.493 575.202 174.227 573.659C174.518 573.849 174.807 574.038 175.092 574.227C176.47 575.139 177.746 576.022 178.714 576.763C184.863 581.472 187.089 584.671 190.376 585.546C190.376 580.613 182.056 575.928 182.056 573.659C182.056 571.843 172.798 565.042 168.169 561.868C170.647 562.839 172.848 563.924 174.774 565.026C178.315 565.739 182.323 566.841 186.35 567.964C194.403 570.21 195.495 568.59 195.495 568.59C190.583 564.166 159.681 554.59 147.256 552.339C137.316 550.537 131.361 549.661 129.626 549.448Z" fill="white" fill-opacity="0.65"/>
<path d="M109.266 572.992C112.04 566.913 115.425 560.1 117.779 557.395C120.967 553.733 123.229 551.285 129.784 549.448C144.398 545.351 160.406 551.872 174.96 556.902C183.542 559.868 186.815 560.92 192.032 564.098C197.25 567.276 195.653 568.59 195.653 568.59C195.653 568.59 194.561 570.21 186.508 567.964C182.482 566.841 178.473 565.739 174.932 565.026M109.266 572.992C108.905 573.47 108.03 574.427 107.422 574.427C106.663 574.427 109.158 575.714 109.917 575.178C110.676 574.642 111.653 573.998 112.087 574.106C112.521 574.213 112.087 575.821 112.737 576.143C113.388 576.465 113.822 576.25 113.931 575.928C114.039 575.607 115.558 574.642 116.1 575.714C116.642 576.786 117.076 577.644 117.402 577.644C117.727 577.644 119.571 577.751 119.029 576.465C118.486 575.178 120.981 575.607 120.981 577.001C120.981 578.395 121.415 579.252 122.283 579.252C123.151 579.252 122.717 577.751 123.368 577.859C124.018 577.966 124.823 577.651 125.343 577.859C125.343 579.789 126.405 580.11 127.056 580.11C127.403 579.252 127.959 578.898 128.249 578.931M109.266 572.992C110.702 573.311 112.54 573.764 114.581 574.326M134.377 582.699C134.907 580.098 135.561 577.913 136.357 576.778M134.377 582.699L135.408 584.936C134.721 584.9 133.282 584.657 133.021 583.97C132.696 583.113 133.672 581.611 132.479 581.611C131.286 581.611 131.394 583.358 130.201 582.699C129.008 582.04 128.9 581.504 128.9 580.754C128.9 580.003 128.9 578.814 128.249 578.931M134.377 582.699C132.918 581.451 130.686 580.045 128.249 578.931M168.328 561.868C170.805 562.839 173.006 563.924 174.932 565.026M136.159 576.759C136.225 576.765 136.291 576.772 136.357 576.778M136.159 576.759C134.571 576.589 131.221 576.036 130.527 575.178M136.159 576.759C134.788 576.864 132.023 577.369 131.937 578.54M174.385 573.659C174.964 574.271 175.565 574.934 176.21 575.669C179.627 579.559 184.292 587.864 182.214 589.425C180.303 590.861 173.153 580.67 167.561 577.006C164.478 574.987 163.248 573.459 159.839 572.144C164.691 574.7 170.524 581.462 170.524 581.462C170.524 581.462 173.599 584.928 175.261 587.156C177.616 590.314 176.613 593.078 172.915 590.48C167.081 586.384 161.699 581.306 155.194 578.54C149.344 576.054 142.642 577.368 136.357 576.778M174.385 573.659C174.677 573.849 174.965 574.038 175.25 574.227C176.628 575.139 177.904 576.022 178.872 576.763C185.021 581.472 187.247 584.671 190.534 585.546C195.954 586.99 185.092 573.013 185.092 573.013C185.092 573.013 181.726 568.915 174.932 565.026M174.385 573.659C172.049 571.188 170.069 569.544 166.992 567.35" stroke="#2E4166" stroke-miterlimit="10" stroke-linecap="round"/>
<path d="M62.8465 765.879C62.8465 765.879 62.3842 755.294 60.1874 753.05C57.9875 750.81 51 750.114 51 750.114C51 750.114 58.0651 750.231 60.2619 747.987C62.4618 745.747 62.3128 734 62.3128 734C62.3128 734 62.7069 745.75 64.9037 747.993C67.1035 750.234 73.8863 750.395 73.8863 750.395C73.8863 750.395 67.178 750.743 64.9781 752.987C62.7813 755.227 62.8465 765.879 62.8465 765.879Z" fill="#FDFB90" stroke="#FDFB90" stroke-miterlimit="10"/>
<path d="M20.6875 780.149C19.8849 780.149 19.2013 779.931 18.6367 779.494C18.0721 779.054 17.6406 778.416 17.3423 777.582C17.044 776.744 16.8949 775.732 16.8949 774.545C16.8949 773.366 17.044 772.36 17.3423 771.525C17.6442 770.687 18.0774 770.048 18.642 769.608C19.2102 769.164 19.892 768.942 20.6875 768.942C21.483 768.942 22.163 769.164 22.7276 769.608C23.2958 770.048 23.729 770.687 24.0273 771.525C24.3292 772.36 24.4801 773.366 24.4801 774.545C24.4801 775.732 24.331 776.744 24.0327 777.582C23.7344 778.416 23.3029 779.054 22.7383 779.494C22.1737 779.931 21.4901 780.149 20.6875 780.149ZM20.6875 778.977C21.483 778.977 22.1009 778.594 22.5412 777.827C22.9815 777.06 23.2017 775.966 23.2017 774.545C23.2017 773.601 23.1005 772.797 22.8981 772.132C22.6992 771.468 22.4116 770.962 22.0352 770.614C21.6623 770.266 21.2131 770.092 20.6875 770.092C19.8991 770.092 19.283 770.481 18.8391 771.259C18.3952 772.033 18.1733 773.129 18.1733 774.545C18.1733 775.49 18.2727 776.293 18.4716 776.953C18.6705 777.614 18.9563 778.116 19.3292 778.461C19.7056 778.805 20.1584 778.977 20.6875 778.977ZM31.2131 773.96V775.131H26.4403V773.96H31.2131ZM36.9619 780.149C36.1594 780.149 35.4758 779.931 34.9111 779.494C34.3465 779.054 33.915 778.416 33.6167 777.582C33.3184 776.744 33.1693 775.732 33.1693 774.545C33.1693 773.366 33.3184 772.36 33.6167 771.525C33.9186 770.687 34.3518 770.048 34.9165 769.608C35.4846 769.164 36.1665 768.942 36.9619 768.942C37.7574 768.942 38.4374 769.164 39.002 769.608C39.5702 770.048 40.0035 770.687 40.3018 771.525C40.6036 772.36 40.7545 773.366 40.7545 774.545C40.7545 775.732 40.6054 776.744 40.3071 777.582C40.0088 778.416 39.5773 779.054 39.0127 779.494C38.4481 779.931 37.7645 780.149 36.9619 780.149ZM36.9619 778.977C37.7574 778.977 38.3753 778.594 38.8156 777.827C39.2559 777.06 39.4761 775.966 39.4761 774.545C39.4761 773.601 39.3749 772.797 39.1725 772.132C38.9736 771.468 38.686 770.962 38.3096 770.614C37.9367 770.266 37.4875 770.092 36.9619 770.092C36.1736 770.092 35.5574 770.481 35.1135 771.259C34.6697 772.033 34.4477 773.129 34.4477 774.545C34.4477 775.49 34.5471 776.293 34.746 776.953C34.9449 777.614 35.2307 778.116 35.6036 778.461C35.98 778.805 36.4328 778.977 36.9619 778.977ZM46.4648 780.149C45.7616 780.149 45.1349 780.028 44.5844 779.787C44.0376 779.545 43.6025 779.21 43.2794 778.78C42.9598 778.347 42.7858 777.844 42.7574 777.273H44.0997C44.1281 777.624 44.2488 777.928 44.4619 778.184C44.675 778.436 44.9537 778.631 45.2982 778.77C45.6427 778.908 46.0244 778.977 46.4434 778.977C46.9122 778.977 47.3277 778.896 47.6899 778.732C48.0521 778.569 48.3362 778.342 48.5422 778.05C48.7481 777.759 48.8511 777.422 48.8511 777.038C48.8511 776.637 48.7517 776.284 48.5528 775.978C48.354 775.669 48.0628 775.428 47.6792 775.254C47.2957 775.08 46.827 774.993 46.273 774.993H45.3994V773.821H46.273C46.7062 773.821 47.0862 773.743 47.4129 773.587C47.7432 773.43 48.0006 773.21 48.1853 772.926C48.3735 772.642 48.4676 772.308 48.4676 771.925C48.4676 771.555 48.3859 771.234 48.2226 770.961C48.0592 770.687 47.8284 770.474 47.5301 770.321C47.2354 770.169 46.8873 770.092 46.4861 770.092C46.1096 770.092 45.7545 770.162 45.4207 770.3C45.0905 770.435 44.8206 770.632 44.6111 770.891C44.4015 771.147 44.2879 771.456 44.2702 771.818H42.9917C43.0131 771.246 43.1853 770.746 43.5084 770.316C43.8316 769.883 44.2542 769.545 44.7762 769.304C45.3018 769.062 45.8788 768.942 46.5074 768.942C47.1821 768.942 47.7609 769.078 48.2439 769.352C48.7268 769.622 49.0979 769.979 49.3572 770.423C49.6164 770.866 49.746 771.346 49.746 771.861C49.746 772.475 49.5844 772.999 49.2613 773.432C48.9417 773.865 48.5067 774.165 47.9562 774.332V774.418C48.6452 774.531 49.1831 774.824 49.5702 775.297C49.9573 775.765 50.1508 776.346 50.1508 777.038C50.1508 777.631 49.9893 778.164 49.6661 778.636C49.3465 779.105 48.9097 779.474 48.3557 779.744C47.8018 780.014 47.1714 780.149 46.4648 780.149ZM57.0383 773.96V775.131H52.2655V773.96H57.0383ZM63.0641 769.091V780H61.7431V770.476H61.6792L59.0158 772.244V770.902L61.7431 769.091H63.0641Z" fill="black"/>
</g>
<defs>
<linearGradient id="paint0_linear_3_25463" x1="104.5" y1="-75" x2="-238.08" y2="583.793" gradientUnits="userSpaceOnUse">
<stop stop-color="#203D69"/>
<stop offset="0.901042" stop-color="#234B81"/>
</linearGradient>
<linearGradient id="paint1_linear_3_25463" x1="-123" y1="-3" x2="334.5" y2="809" gradientUnits="userSpaceOnUse">
<stop stop-color="#1A427D"/>
<stop offset="0.6537" stop-color="#6B61AE"/>
<stop offset="1" stop-color="#214984"/>
</linearGradient>
<clipPath id="clip0_3_25463">
<path d="M0 0H390V789C390 800.046 381.046 809 370 809H20C8.9543 809 0 800.046 0 789V0Z" fill="white"/>
</clipPath>
</defs>
</svg>
