<svg width="144" height="144" viewBox="0 0 144 144" fill="none" xmlns="http://www.w3.org/2000/svg">
<g clip-path="url(#clip0_5469_11717)">
<rect width="144" height="144" rx="16" fill="white"/>
<mask id="mask0_5469_11717" style="mask-type:luminance" maskUnits="userSpaceOnUse" x="-51" y="-16" width="234" height="236">
<path d="M182.273 -15.4849H-50.6523V219.572H182.273V-15.4849Z" fill="white"/>
</mask>
<g mask="url(#mask0_5469_11717)">
<path d="M-50.6523 -15.4849H182.273V219.572H-50.6523V-15.4849Z" fill="#A12F40"/>
</g>
<mask id="mask1_5469_11717" style="mask-type:luminance" maskUnits="userSpaceOnUse" x="-11" y="-8" width="164" height="162">
<path d="M152.131 -7.81836H-10.8906V153.042H152.131V-7.81836Z" fill="white"/>
</mask>
<g mask="url(#mask1_5469_11717)">
<path d="M-10.8906 -7.81836H152.131V153.042H-10.8906V-7.81836Z" fill="#50A1B7"/>
</g>
<path d="M169.43 76.8244C175.915 62.1859 144.528 43.5821 135.318 60.2096C133.432 63.6136 134.832 66.8242 136.567 68.0304C139.388 69.992 143.376 68.0609 142.452 64.2036C140.01 54.0177 125.303 51.0943 114.684 60.3095C82.6849 88.0803 59.9264 144.271 12.5961 125.567C2.54981 120.75 -13.7823 104.826 -21.0121 96.8055" stroke="white" stroke-width="0.35" stroke-miterlimit="10" stroke-linecap="round" stroke-linejoin="round" stroke-dasharray="3 3"/>
<path d="M88.1524 55.3599L134.375 82.5876C140.584 86.245 140.582 95.2262 134.371 98.8808L83.9969 128.522C81.2592 130.133 77.8631 130.132 75.1261 128.52L32.8672 103.624L32.8717 88.3585L88.1524 55.3599Z" fill="#FFECDD" stroke="#294064" stroke-width="0.35" stroke-miterlimit="10" stroke-linejoin="round"/>
<path d="M87.8874 59.9209L126.231 82.652C134.228 86.9158 138.153 96.6177 131.942 100.272L94.0585 122.589L85.9433 127.45C88.9804 117.371 85.9433 113.193 69.143 104.307C60.2054 99.5791 50.6056 93.9715 40.4609 88.1362L87.8874 59.9209Z" stroke="#294064" stroke-width="0.35" stroke-miterlimit="10" stroke-linejoin="round"/>
<path d="M79.75 76.1351L92.1799 68.3774" stroke="#294064" stroke-width="0.35" stroke-miterlimit="10" stroke-linecap="round" stroke-linejoin="round"/>
<path d="M93.4922 67.4496L97.0117 65.2153" stroke="#294064" stroke-width="0.35" stroke-miterlimit="10" stroke-linecap="round" stroke-linejoin="round"/>
<path d="M81.9844 77.985L88.5815 74.0137" stroke="#294064" stroke-width="0.35" stroke-miterlimit="10" stroke-linecap="round" stroke-linejoin="round"/>
<path d="M89.9141 73.1229L94.2198 70.4146" stroke="#294064" stroke-width="0.35" stroke-miterlimit="10" stroke-linecap="round" stroke-linejoin="round"/>
<path d="M95.4844 69.6192L99.8255 66.8965" stroke="#294064" stroke-width="0.35" stroke-miterlimit="10" stroke-linecap="round" stroke-linejoin="round"/>
<path d="M84.5781 79.7248L90.1363 76.3638" stroke="#294064" stroke-width="0.35" stroke-miterlimit="10" stroke-linecap="round" stroke-linejoin="round"/>
<path d="M91.5352 75.4175L102.423 68.5522" stroke="#294064" stroke-width="0.35" stroke-miterlimit="10" stroke-linecap="round" stroke-linejoin="round"/>
<path d="M87.5391 81.0556L100.659 73.0186" stroke="#294064" stroke-width="0.35" stroke-miterlimit="10" stroke-linecap="round" stroke-linejoin="round"/>
<path d="M90.2344 82.6913L94.2161 80.3149" stroke="#294064" stroke-width="0.35" stroke-miterlimit="10" stroke-linecap="round" stroke-linejoin="round"/>
<path d="M95.7109 79.2949L108.201 71.9067" stroke="#294064" stroke-width="0.35" stroke-miterlimit="10" stroke-linecap="round" stroke-linejoin="round"/>
<path d="M93.125 84.4377L98.7639 81.0918" stroke="#294064" stroke-width="0.35" stroke-miterlimit="10" stroke-linecap="round" stroke-linejoin="round"/>
<path d="M100.328 80.1967L103.178 78.4756" stroke="#294064" stroke-width="0.35" stroke-miterlimit="10" stroke-linecap="round" stroke-linejoin="round"/>
<path d="M104.898 77.3289L111.179 73.6484" stroke="#294064" stroke-width="0.35" stroke-miterlimit="10" stroke-linecap="round" stroke-linejoin="round"/>
<path d="M95.9844 86.0878L108.139 79.0054" stroke="#294064" stroke-width="0.35" stroke-miterlimit="10" stroke-linecap="round" stroke-linejoin="round"/>
<path d="M110.082 77.6664L114.047 75.3608" stroke="#294064" stroke-width="0.35" stroke-miterlimit="10" stroke-linecap="round" stroke-linejoin="round"/>
<path d="M99.0117 87.6888L105.184 84.0347" stroke="#294064" stroke-width="0.35" stroke-miterlimit="10" stroke-linecap="round" stroke-linejoin="round"/>
<path d="M106.926 82.9157L116.79 77.0684" stroke="#294064" stroke-width="0.35" stroke-miterlimit="10" stroke-linecap="round" stroke-linejoin="round"/>
<path d="M101.871 89.6291L104.498 88.0342" stroke="#294064" stroke-width="0.35" stroke-miterlimit="10" stroke-linecap="round" stroke-linejoin="round"/>
<path d="M106.312 87.0768L114.591 82.1567" stroke="#294064" stroke-width="0.35" stroke-miterlimit="10" stroke-linecap="round" stroke-linejoin="round"/>
<path d="M116.062 81.2855L120.002 78.8916" stroke="#294064" stroke-width="0.35" stroke-miterlimit="10" stroke-linecap="round" stroke-linejoin="round"/>
<path d="M71.6992 105.38L87.5335 96.1025" stroke="#294064" stroke-width="0.35" stroke-miterlimit="10" stroke-linecap="round" stroke-linejoin="round"/>
<path d="M89.8828 94.3931L94.5075 91.667" stroke="#294064" stroke-width="0.35" stroke-miterlimit="10" stroke-linecap="round" stroke-linejoin="round"/>
<path d="M74.7617 107.247L83.4304 102.402" stroke="#294064" stroke-width="0.35" stroke-miterlimit="10" stroke-linecap="round" stroke-linejoin="round"/>
<path d="M85.1836 101.315L90.8414 98.0107" stroke="#294064" stroke-width="0.35" stroke-miterlimit="10" stroke-linecap="round" stroke-linejoin="round"/>
<path d="M92.5 97.0402L98.2045 93.7183" stroke="#294064" stroke-width="0.35" stroke-miterlimit="10" stroke-linecap="round" stroke-linejoin="round"/>
<path d="M78.168 109.37L85.4715 105.27" stroke="#294064" stroke-width="0.35" stroke-miterlimit="10" stroke-linecap="round" stroke-linejoin="round"/>
<path d="M87.3086 104.115L101.616 95.7388" stroke="#294064" stroke-width="0.35" stroke-miterlimit="10" stroke-linecap="round" stroke-linejoin="round"/>
<path d="M81.2734 111.714L98.178 101.878" stroke="#294064" stroke-width="0.35" stroke-miterlimit="10" stroke-linecap="round" stroke-linejoin="round"/>
<path d="M84.1914 114.199L89.1972 111.352" stroke="#294064" stroke-width="0.35" stroke-miterlimit="10" stroke-linecap="round" stroke-linejoin="round"/>
<path d="M91.3516 110.35L107.525 101.055" stroke="#294064" stroke-width="0.35" stroke-miterlimit="10" stroke-linecap="round" stroke-linejoin="round"/>
<path d="M86.2305 117.651L93.7683 113.375" stroke="#294064" stroke-width="0.35" stroke-miterlimit="10" stroke-linecap="round" stroke-linejoin="round"/>
<path d="M96.3281 111.996L100.073 109.896" stroke="#294064" stroke-width="0.35" stroke-miterlimit="10" stroke-linecap="round" stroke-linejoin="round"/>
<path d="M102.234 108.61L110.131 104.053" stroke="#294064" stroke-width="0.35" stroke-miterlimit="10" stroke-linecap="round" stroke-linejoin="round"/>
<path d="M87.1602 121.897L103.067 112.805" stroke="#294064" stroke-width="0.35" stroke-miterlimit="10" stroke-linecap="round" stroke-linejoin="round"/>
<path d="M105.301 111.234L110.659 108.173" stroke="#294064" stroke-width="0.35" stroke-miterlimit="10" stroke-linecap="round" stroke-linejoin="round"/>
<path d="M104.266 91.3772L122.626 80.5122L126.235 82.6517C134.232 86.9155 138.157 96.6174 131.946 100.272L115.424 110.008C115.424 110.008 122.539 98.8693 104.266 91.3772Z" fill="#455A82" stroke="#294064" stroke-width="0.35" stroke-miterlimit="10" stroke-linejoin="round"/>
<path d="M52.0312 82.9984L79.985 66.1387L86.001 69.4689L57.4144 86.4345L52.0312 82.9984Z" fill="#F57450"/>
<path d="M43.6406 88.092L50.4124 84.0288L57.1751 88.092L50.4124 91.6361L43.6406 88.092Z" fill="#F4CC85"/>
<path d="M51.9102 92.3879L78.6168 77.3496L95.9991 87.4935L70.1961 102.702L51.9102 92.3879Z" fill="#F4CC85"/>
<path d="M84.2085 64.0686C84.5405 62.6595 86.3651 61.8837 88.2837 62.3359C90.2024 62.788 91.4886 64.2969 91.1566 65.706C90.8246 67.1151 89 67.8907 87.0812 67.4387C85.1626 66.9865 83.8764 65.4777 84.2085 64.0686Z" fill="#C6C157"/>
<path d="M32.8633 88.3643L76.4786 113.977C80.1988 116.162 82.447 120.187 82.3562 124.5C82.2794 128.147 78.3094 130.365 75.164 128.519L32.8633 103.694V88.3643Z" fill="#E8C8AE" stroke="#294064" stroke-width="0.35" stroke-miterlimit="10" stroke-linejoin="round"/>
<path d="M33.0921 101.649C33.0921 101.649 50.7293 112.458 61.5334 118.45C70.8157 123.599 78.1981 129.572 80.0967 124.869C80.8982 122.883 79.8248 118.586 74.0012 115.106C61.9326 107.896 32.8984 91.2466 32.8984 91.2466" stroke="#294064" stroke-width="0.35" stroke-miterlimit="10" stroke-linecap="round" stroke-linejoin="round"/>
<path d="M33.3568 99.892C33.3568 99.892 54.4365 112.458 67.3224 119.834C73.1004 123.142 77.744 126.356 78.234 123.114C78.5681 120.903 76.2209 118.374 65.8196 112.248C54.1893 105.398 32.8008 93.9243 32.8008 93.9243" stroke="#294064" stroke-width="0.35" stroke-miterlimit="10" stroke-linecap="round" stroke-linejoin="round"/>
<path d="M32.9141 97.1582L71.7321 119.187" stroke="#294064" stroke-width="0.35" stroke-miterlimit="10" stroke-linecap="round" stroke-linejoin="round"/>
</g>
<defs>
<clipPath id="clip0_5469_11717">
<rect width="144" height="144" rx="16" fill="white"/>
</clipPath>
</defs>
</svg>
