<svg width="414" height="861" viewBox="0 0 414 861" fill="none" xmlns="http://www.w3.org/2000/svg">
<g clip-path="url(#clip0_5304_23232)">
<path d="M0 0H414V841C414 852.046 405.046 861 394 861H20C8.95432 861 0 852.046 0 841V0Z" fill="#50A1B7"/>
<ellipse cx="208" cy="693.5" rx="177" ry="27.5" fill="#368AA1"/>
<path d="M209.491 536.3C206.957 527.505 208.755 516.06 211.753 507.747C235.578 441.686 258.183 518.823 258.473 546.737C258.53 552.165 258.453 557.6 258.481 563.029C258.494 565.563 260.657 571.855 258.439 570.63C255.88 569.215 258.33 547.505 258.529 545.381C259.602 533.975 268.659 484.61 284.105 483.099C299.963 481.549 298.833 520.635 298.318 528.556C295.732 568.305 285.745 617.689 260.15 649.377" fill="#8BD5D6"/>
<path d="M209.491 536.3C206.957 527.505 208.755 516.06 211.753 507.747C235.578 441.686 258.183 518.823 258.473 546.737C258.53 552.165 258.453 557.6 258.481 563.029C258.494 565.563 260.657 571.855 258.439 570.63C255.88 569.215 258.33 547.505 258.529 545.381C259.602 533.975 268.659 484.61 284.105 483.099C299.963 481.549 298.833 520.635 298.318 528.556C295.732 568.305 285.745 617.689 260.15 649.377" stroke="#294064" stroke-miterlimit="10" stroke-linecap="round" stroke-linejoin="round"/>
<path d="M81.0427 694.854C72.3861 688.103 43.1883 626.216 40.0878 612.467C39.3908 609.377 34.9377 596.16 43.7553 593.713C51.9765 591.431 62.6167 603.758 66.3507 608.427C83.3282 629.651 117.553 690.034 117.732 694.292L81.0427 694.854Z" fill="#455A82" stroke="#294064" stroke-miterlimit="10" stroke-linecap="round" stroke-linejoin="round"/>
<path d="M123.406 694.636C116.761 680.627 109.679 662.606 104.716 650.093C93.2929 621.288 80.0918 593.432 72.1934 563.337C70.1588 555.586 61.9449 524.013 75.0051 520.725C91.3997 516.597 109.669 550.6 115.93 560.423C134.923 590.226 144.645 624.254 155.257 657.663C158.841 668.947 166.547 684.057 167.05 696.039L123.406 694.636Z" fill="#8BD5D6" stroke="#294064" stroke-miterlimit="10" stroke-linecap="round" stroke-linejoin="round"/>
<path d="M281.156 585.007C338.094 455.306 351.441 514.379 322.134 627.036C330.827 610.907 346.975 596.623 355.495 603.408C375.058 618.987 341.275 701.632 297.51 697.624" fill="#455A82"/>
<path d="M281.156 585.007C338.094 455.306 351.441 514.379 322.134 627.036C330.827 610.907 346.975 596.623 355.495 603.408C375.058 618.987 341.275 701.632 297.51 697.624" stroke="#294064" stroke-miterlimit="10" stroke-linecap="round" stroke-linejoin="round"/>
<path d="M104.305 581.541C109.294 576.031 116.623 562.707 116.623 562.707" stroke="#294064" stroke-miterlimit="10" stroke-linecap="round" stroke-linejoin="round"/>
<path d="M109.586 591.376C114.226 585.643 119.549 578.661 122.544 571.848" stroke="#294064" stroke-miterlimit="10" stroke-linecap="round" stroke-linejoin="round"/>
<path d="M120.945 617.791C126.565 611.638 130.979 604.064 134.383 596.406" stroke="#294064" stroke-miterlimit="10" stroke-linecap="round" stroke-linejoin="round"/>
<path d="M115.084 606.621L86.0703 603.587" stroke="#294064" stroke-miterlimit="10" stroke-linecap="round" stroke-linejoin="round"/>
<path d="M132.159 646.196L101.375 640.739" stroke="#294064" stroke-miterlimit="10" stroke-linecap="round" stroke-linejoin="round"/>
<path d="M67.0436 609.651C67.0436 613.903 66.3702 618.421 66.0166 622.665C65.9149 623.883 65.1907 630.206 65.2955 629.785" stroke="#294064" stroke-miterlimit="10" stroke-linecap="round" stroke-linejoin="round"/>
<path d="M75.6045 622.094C75.6045 628.411 73.4175 635.314 72.1797 641.502" stroke="#294064" stroke-miterlimit="10" stroke-linecap="round" stroke-linejoin="round"/>
<path d="M77.386 651.542C72.095 651.024 67.4626 650.12 62.3208 648.703C60.0771 648.085 54.0977 646.389 54.0977 646.389" stroke="#294064" stroke-miterlimit="10" stroke-linecap="round" stroke-linejoin="round"/>
<path d="M54.1932 613.57C51.4577 613.903 39.7531 611.569 40.3165 611.696" stroke="#294064" stroke-miterlimit="10" stroke-linecap="round" stroke-linejoin="round"/>
<path d="M323.492 542.355C327.99 541.985 336.923 538.688 336.923 538.688" stroke="#294064" stroke-miterlimit="10" stroke-linecap="round" stroke-linejoin="round"/>
<path d="M320.836 551.4C324.935 552.163 332.148 549.589 336.237 548.415" stroke="#294064" stroke-miterlimit="10" stroke-linecap="round" stroke-linejoin="round"/>
<path d="M312.258 582.372L325.043 579.231" stroke="#294064" stroke-miterlimit="10" stroke-linecap="round" stroke-linejoin="round"/>
<path d="M317.044 561.233L301.559 543.694" stroke="#294064" stroke-miterlimit="10" stroke-linecap="round" stroke-linejoin="round"/>
<path d="M313.866 574.554L296.961 553.623" stroke="#294064" stroke-miterlimit="10" stroke-linecap="round" stroke-linejoin="round"/>
<path d="M42.5234 594.412C42.5234 594.412 81.7831 652.503 99.434 693.892" stroke="#294064" stroke-miterlimit="10" stroke-linecap="round" stroke-linejoin="round"/>
<path d="M77.6445 525.846C102.012 578.497 133.33 638.851 150.825 694.812" stroke="#294064" stroke-miterlimit="10" stroke-linecap="round" stroke-linejoin="round"/>
<path d="M330.606 513.799C321.902 545.283 314.825 577.357 303.203 607.884" stroke="#294064" stroke-miterlimit="10" stroke-linecap="round" stroke-linejoin="round"/>
<path d="M305.715 501.23C305.715 501.23 291.706 541.484 285.656 560.824" stroke="#294064" stroke-miterlimit="10" stroke-linecap="round" stroke-linejoin="round"/>
<path d="M241.175 468.471C241.175 468.471 233.379 503.442 231.113 517.658" stroke="#294064" stroke-miterlimit="10" stroke-linecap="round" stroke-linejoin="round"/>
<path d="M96.4141 493.885C114.978 519.855 132.758 546.21 150.211 573.16" stroke="#294064" stroke-miterlimit="10" stroke-linecap="round" stroke-linejoin="round"/>
<path d="M56.043 541.058C83.4368 588.199 101.859 644.042 122.694 694.428" stroke="#294064" stroke-miterlimit="10" stroke-linecap="round" stroke-linejoin="round"/>
<path d="M312.227 631.238C321.893 616.737 328.198 601.852 340.896 589.153" stroke="#294064" stroke-miterlimit="10" stroke-linecap="round" stroke-linejoin="round"/>
<path d="M245.378 400.119C242.439 393.694 246.711 362.492 261.266 364.057C270.737 365.075 271.251 385.049 268.524 392.376C268.445 392.589 268.423 393.011 268.199 392.975C267.916 392.93 270.542 384.21 270.647 383.907C271.934 380.188 276.476 368.674 282.518 370.527C289.054 372.531 286.665 393.096 281.893 395.706C278.664 397.472 282.343 374.457 293.304 383.287C303.723 391.68 289.637 415.849 284.555 422.83" stroke="white" stroke-miterlimit="10" stroke-linecap="round" stroke-linejoin="round"/>
<path d="M64.4336 464.044C59.1802 460.64 53.3937 443.989 60.9654 440.339C65.2833 438.257 75.7494 448.9 74.6345 453.211C74.3491 454.314 72.5523 453.525 70.7978 450.587C68.561 446.84 68.4593 437.982 73.4221 436.921C82.706 434.937 89.6939 454.031 91.406 459.372" stroke="white" stroke-miterlimit="10" stroke-linecap="round" stroke-linejoin="round"/>
<path d="M231.504 475.583C231.504 470.208 235.861 465.85 241.236 465.85C246.61 465.85 250.968 470.208 250.968 475.583C250.968 480.959 246.61 485.316 241.236 485.316C235.861 485.316 231.504 480.959 231.504 475.583Z" fill="#368AA1" stroke="#294064" stroke-miterlimit="10" stroke-linejoin="round"/>
<path d="M293.762 514.788C293.762 510.545 297.201 507.105 301.444 507.105C305.686 507.105 309.126 510.545 309.126 514.788C309.126 519.032 305.686 522.471 301.444 522.471C297.201 522.471 293.762 519.032 293.762 514.788Z" fill="#455A82" stroke="#294064" stroke-miterlimit="10" stroke-linejoin="round"/>
<path d="M54.3398 548.253C54.3398 544.01 57.779 540.57 62.0217 540.57C66.2645 540.57 69.7036 544.01 69.7036 548.253C69.7036 552.497 66.2645 555.937 62.0217 555.937C57.779 555.937 54.3398 552.497 54.3398 548.253Z" fill="#455A82" stroke="#294064" stroke-miterlimit="10" stroke-linejoin="round"/>
<path d="M118.771 445.442C108.894 439.832 104.884 456.5 104.884 456.5C104.884 456.5 98.45 442.994 87.1352 447.611C81.5821 449.876 81.8278 463.128 81.8278 463.128C60.7865 451.51 53.7769 467.441 64.2505 480.65C50.9558 479.649 41.8107 486.25 44.361 495.892C47.2223 506.71 80.0669 514.074 101.277 501.795C122.025 489.783 132.288 453.12 118.771 445.442Z" fill="#8789D9" stroke="#294064" stroke-miterlimit="10" stroke-linecap="round" stroke-linejoin="round"/>
<path d="M27.7376 494.136C27.7376 494.136 25.8018 513.687 21.8601 524.69C5.74895 569.661 62.335 559.888 76.3091 536.944C93.1044 509.367 64.2431 503.909 46.1564 499.661C42.6672 498.841 27.7376 494.136 27.7376 494.136Z" fill="#F57450" stroke="#294064" stroke-miterlimit="10" stroke-linecap="round" stroke-linejoin="round"/>
<path d="M197.721 405.095C203.195 397.69 219.524 403.996 225.519 419.101C229.747 387.113 259.513 376.363 260.116 416.199C282.165 402.231 308.229 404.969 291.902 434.818C352.814 429.834 300.529 484.194 241.857 477.096C231.442 475.836 181.883 426.52 197.721 405.095Z" fill="#F4CC85" stroke="#294064" stroke-miterlimit="10" stroke-linecap="round" stroke-linejoin="round"/>
<path d="M300.424 516.277C275.179 507.471 268.891 488.75 281.041 472.485C291.962 457.866 317.23 453.313 330.24 440.737C335.933 466.579 361.628 529.714 300.424 516.277Z" fill="#F57450" stroke="#294064" stroke-miterlimit="10" stroke-linecap="round" stroke-linejoin="round"/>
<path d="M342.417 550.051C330.513 553.316 313.571 570.986 334.856 595.986C351.168 615.146 376.246 611.052 381.576 583.775C385.631 563.028 379.697 560.624 390.371 541.52C384.716 542.749 360.874 544.988 342.417 550.051Z" fill="#8789D9" stroke="#294064" stroke-miterlimit="10" stroke-linecap="round" stroke-linejoin="round"/>
<path d="M52.2422 576.536C52.2422 567.076 59.9099 559.408 69.3685 559.408C78.8266 559.408 86.4942 567.076 86.4942 576.536C86.4942 585.996 78.8266 593.665 69.3685 593.665C59.9099 593.665 52.2422 585.996 52.2422 576.536Z" fill="#8789D9" stroke="#294064" stroke-miterlimit="10" stroke-linecap="round" stroke-linejoin="round"/>
<path d="M52.3516 576.113C52.3516 566.653 60.0192 558.984 69.4778 558.984C77.8257 558.984 84.7791 564.958 86.2964 572.865C86.4981 573.917 52.3516 576.113 52.3516 576.113Z" fill="#B6B7F4" stroke="#294064" stroke-miterlimit="10" stroke-linecap="round" stroke-linejoin="round"/>
<path d="M197.817 484.514C209.833 457 181.82 379.103 148.15 399.657C139.988 404.641 131.904 418.874 131.904 418.874C129.104 419.506 103.617 405.603 96.2839 413.252C88.2446 421.638 103.753 441.284 115.26 455.489C129.881 473.536 130.68 493.111 134.836 512.152C146.378 565.03 107.998 737.5 184.218 689.216C201.931 710.655 223.58 693.129 223.58 693.129C219.998 704 347.082 718 334.511 662.604C315.924 580.697 253.485 511.27 197.817 484.514Z" fill="#FFECDD" stroke="#294064" stroke-miterlimit="10" stroke-linecap="round" stroke-linejoin="round"/>
<path d="M94.7907 402.317C100.838 405.853 109.091 383.846 105.409 382.407C100.882 380.639 102.619 394.613 102.619 394.613L102.924 395.649C102.924 395.649 100.675 391.511 98.2902 391.009C95.4154 390.405 90.9021 394.352 94.2729 396.598C100.874 400.997 110.675 392.156 114.168 388.064" stroke="#294064" stroke-miterlimit="10" stroke-linecap="round" stroke-linejoin="round"/>
<path d="M101.397 400.325C103.295 396.669 106.324 394.478 108.161 395.432C109.999 396.387 109.95 400.124 108.052 403.78C106.154 407.437 103.126 409.627 101.288 408.673C99.4508 407.719 99.4995 403.981 101.397 400.325Z" fill="#294064" stroke="#294064" stroke-miterlimit="10" stroke-linejoin="round"/>
<path d="M143.301 421.418C143.301 419.238 144.216 417.471 145.345 417.471C146.475 417.471 147.39 419.238 147.39 421.418C147.39 423.598 146.475 425.365 145.345 425.365C144.216 425.365 143.301 423.598 143.301 421.418Z" fill="#294064" stroke="#294064" stroke-miterlimit="10" stroke-linejoin="round"/>
<path d="M100.375 423.39C106.016 430.846 111.616 438.37 117.665 445.507" stroke="#294064" stroke-miterlimit="10" stroke-linecap="round" stroke-linejoin="round"/>
<path d="M194.704 486.386C181.611 498.422 161.802 458.098 156.176 450.943" stroke="#294064" stroke-miterlimit="10" stroke-linecap="round" stroke-linejoin="round"/>
<path d="M184.016 689.253L180.344 597.475" stroke="#294064" stroke-miterlimit="10" stroke-linecap="round" stroke-linejoin="round"/>
<path d="M157.016 578.896C165.087 588.459 177.061 596.184 188.754 600.405" stroke="#294064" stroke-miterlimit="10" stroke-linecap="round" stroke-linejoin="round"/>
<path d="M255.527 574.188C223.615 602.08 250.885 640.993 266.841 669.086C247.697 661.116 223.74 665.574 223.367 692.04" stroke="#294064" stroke-miterlimit="10" stroke-linecap="round" stroke-linejoin="round"/>
<path d="M382.21 705C382.21 705 397.764 696.577 393.807 694.5C389.85 692.422 366.383 696.69 366.383 696.69C384.653 689.366 412.072 671.7 405.358 656.918C395.242 642.358 355.327 674.565 344.027 700.251C362.722 685.915 372.219 671.165 384.109 650.267C442.503 547.634 304.51 640.956 343.191 699.662" stroke="white" stroke-miterlimit="10" stroke-linecap="round" stroke-linejoin="round"/>
<path d="M31.2628 702.755C18.0573 681.769 -0.724663 650.009 13.7667 640.77C31.0674 630.046 55.4522 675.43 61.8227 687.899C61.8227 687.899 58.4037 669.218 68.0238 669.716C74.7708 670.065 81.5304 682.366 88.5712 700.617" stroke="white" stroke-miterlimit="10" stroke-linecap="round" stroke-linejoin="round"/>
<path d="M329.406 583.884C337.168 556.945 360.197 547.608 386.066 544.456" stroke="#FFECDD" stroke-miterlimit="10" stroke-linecap="round" stroke-linejoin="round"/>
<path d="M337.191 594.868C343.044 571.453 370.444 559.803 385.694 544.551" stroke="#FFECDD" stroke-miterlimit="10" stroke-linecap="round" stroke-linejoin="round"/>
<path d="M386.23 544.833C374.214 562.729 372.264 593.143 354.5 605.491" stroke="#FFECDD" stroke-miterlimit="10" stroke-linecap="round" stroke-linejoin="round"/>
<path d="M286.202 505.681C278.78 478.93 312.142 460.109 328.707 445.153" stroke="#FFECDD" stroke-miterlimit="10" stroke-linecap="round" stroke-linejoin="round"/>
<path d="M299.791 513.939C296.734 502.92 319.278 454.199 328.16 446.18" stroke="#FFECDD" stroke-miterlimit="10" stroke-linecap="round" stroke-linejoin="round"/>
<path d="M329.026 445.545C321.417 454.36 328.363 485.05 328.769 497.459C329.082 507.053 324.441 515.04 324.441 515.04" stroke="#FFECDD" stroke-miterlimit="10" stroke-linecap="round" stroke-linejoin="round"/>
<path d="M45.905 553.212C29.8923 550.919 30.7227 511.01 29.9766 497.484" stroke="#FFECDD" stroke-miterlimit="10" stroke-linecap="round" stroke-linejoin="round"/>
<path d="M29.4531 497.423C35.934 510.505 61.8284 536.782 61.8262 547.281" stroke="#FFECDD" stroke-miterlimit="10" stroke-linecap="round" stroke-linejoin="round"/>
<path d="M29.9453 497.181C43.5509 509.365 74.255 511.715 75.4849 534.009" stroke="#FFECDD" stroke-miterlimit="10" stroke-linecap="round" stroke-linejoin="round"/>
<path d="M97.4718 500.802C92.7885 502.2 71.3581 502.742 78.5471 492.112C81.1741 488.227 88.9592 488.446 88.9709 488.38C89.378 486.101 83.6513 480.744 88.2387 478.204C92.0209 476.111 94.6119 482.74 97.6094 482.845C97.9239 482.856 97.1854 482.341 97.1303 482.031C96.5464 478.752 96.5067 473.615 100.62 472.401C113.243 468.677 109.755 497.136 97.4718 500.802Z" fill="#B6B7F4"/>
<path d="M237.31 466.636C235.43 465.331 233.719 463.862 231.993 462.36C228.728 459.519 218.987 447.767 225.244 443.967C234.61 438.279 242.369 454.065 244.988 453.728C244.988 453.728 250.006 441.763 257.898 444.762C263.866 447.03 258.445 457.049 259.675 456.732C263.851 455.654 273.29 449.551 275.385 457.671C278.052 468.012 257.059 472.373 250.881 471.974C244.985 471.592 237.733 466.929 237.31 466.636Z" fill="white"/>
</g>
<defs>
<clipPath id="clip0_5304_23232">
<path d="M0 0H414V841C414 852.046 405.046 861 394 861H20C8.95432 861 0 852.046 0 841V0Z" fill="white"/>
</clipPath>
</defs>
</svg>
