<svg width="414" height="861" viewBox="0 0 414 861" fill="none" xmlns="http://www.w3.org/2000/svg">
<g clip-path="url(#clip0_5304_23862)">
<path d="M0 0H414V841C414 852.046 405.046 861 394 861H20C8.95432 861 0 852.046 0 841V0Z" fill="#50A1B7"/>
<path d="M342.726 445.337C330.26 452.545 300.975 462.174 286.011 458.662C275.353 456.162 264.577 448.059 254.055 451.081C238.95 455.42 234.258 475.934 219.374 477.205C206.565 478.3 215.984 461.993 217.558 459.189C225.575 444.911 243.609 435.569 256.551 427.421" fill="#F5EBC5"/>
<path d="M342.726 445.337C330.26 452.545 300.975 462.174 286.011 458.662C275.353 456.162 264.577 448.059 254.055 451.081C238.95 455.42 234.258 475.934 219.374 477.205C206.565 478.3 215.984 461.993 217.558 459.189C225.575 444.911 243.609 435.569 256.551 427.421" stroke="#294064" stroke-miterlimit="10" stroke-linecap="round" stroke-linejoin="round"/>
<path d="M290.403 441.422C264.974 441.081 236.341 445.301 236.341 445.301C236.341 445.301 221.32 487.06 207.692 481.581C197.322 477.413 206.379 454.569 214.085 444.473C220.689 435.82 220.757 447.678 227.79 439.37C234.609 431.316 235.843 430.358 242.172 424.309" fill="#F5EBC5"/>
<path d="M290.403 441.422C264.974 441.081 236.341 445.301 236.341 445.301C236.341 445.301 221.32 487.06 207.692 481.581C197.322 477.413 206.379 454.569 214.085 444.473C220.689 435.82 220.757 447.678 227.79 439.37C234.609 431.316 235.843 430.358 242.172 424.309" stroke="#294064" stroke-miterlimit="10" stroke-linecap="round" stroke-linejoin="round"/>
<path d="M247.229 428.037C236.569 439.514 227.907 443.215 227.907 443.215C227.907 443.215 212.881 476.744 199.375 471.015C190.513 467.255 206.238 437.919 213.03 428.764C222.775 415.627 233.943 401.069 250.287 401.713C295.179 403.479 377.115 435.918 420.291 448.337" fill="#FDF8E5"/>
<path d="M247.229 428.037C236.569 439.514 227.907 443.215 227.907 443.215C227.907 443.215 212.881 476.744 199.375 471.015C190.513 467.255 206.238 437.919 213.03 428.764C222.775 415.627 233.943 401.069 250.287 401.713C295.179 403.479 377.115 435.918 420.291 448.337" stroke="#294064" stroke-miterlimit="10" stroke-linecap="round" stroke-linejoin="round"/>
<path d="M426.241 436.522C375.276 428.938 310.585 405.613 269.658 411.73C255.152 413.898 231.711 416.762 222.932 421.372C214.153 425.982 224.188 433.613 228.128 434.672C239.72 437.786 252.468 433.989 264.053 437.129C307.542 448.917 381.451 488.657 423.39 505.125C440.381 511.797 424.251 497.253 440.124 506.268" fill="#FDF8E5"/>
<path d="M426.241 436.522C375.276 428.938 310.585 405.613 269.658 411.73C255.152 413.898 231.711 416.762 222.932 421.372C214.153 425.982 224.188 433.613 228.128 434.672C239.72 437.786 252.468 433.989 264.053 437.129C307.542 448.917 381.451 488.657 423.39 505.125C440.381 511.797 424.251 497.253 440.124 506.268" stroke="#294064" stroke-miterlimit="10" stroke-linecap="round" stroke-linejoin="round"/>
<path d="M273.815 407.074C270.997 405.995 266.586 407.539 263.146 410.006C261.625 411.098 268.03 409.87 268.69 411.324C269.938 414.073 257.5 417.877 258.973 419.525C262.897 423.915 318.84 414.882 318.84 414.882C318.84 414.882 309.358 414.219 289.263 408.125C283.394 406.345 276.633 409.459 276.153 409.554" fill="#FDF8E5"/>
<path d="M101.41 445.995C110.354 452.524 120.644 457.778 131.457 460.16C143.292 462.768 151.863 452.345 163.486 457.217C168.988 459.524 184.074 480.376 192.479 475.02C201.653 469.173 191.065 451.858 185.892 446.931C172.254 433.945 146.318 422.744 127.265 423.21" fill="#EDA287"/>
<path d="M101.41 445.995C110.354 452.524 120.644 457.778 131.457 460.16C143.292 462.768 151.863 452.345 163.486 457.217C168.988 459.524 184.074 480.376 192.479 475.02C201.653 469.173 191.065 451.858 185.892 446.931C172.254 433.945 146.318 422.744 127.265 423.21" stroke="#294064" stroke-miterlimit="10" stroke-linecap="round" stroke-linejoin="round"/>
<path d="M150.602 436.93C157.955 443.555 176.134 453.603 176.134 453.603C176.134 453.603 184.94 466.889 193.383 473.709C203.536 481.91 213.486 477.709 204.627 462.855C195.243 447.121 177.407 433.379 154.801 417.894" fill="#EDA287"/>
<path d="M150.602 436.93C157.955 443.555 176.134 453.603 176.134 453.603C176.134 453.603 184.94 466.889 193.383 473.709C203.536 481.91 213.486 477.709 204.627 462.855C195.243 447.121 177.407 433.379 154.801 417.894" stroke="#294064" stroke-miterlimit="10" stroke-linecap="round" stroke-linejoin="round"/>
<path d="M139.5 426.211C177.206 424.561 189.646 472.906 206.242 470.921C216.285 469.72 206.397 450.675 200.738 444.944C187.202 431.236 179.845 424.288 163.611 414.196" fill="#F4AD94"/>
<path d="M139.5 426.211C177.206 424.561 189.646 472.906 206.242 470.921C216.285 469.72 206.397 450.675 200.738 444.944C187.202 431.236 179.845 424.288 163.611 414.196" stroke="#294064" stroke-miterlimit="10" stroke-linecap="round" stroke-linejoin="round"/>
<path d="M172.896 421.998C178.277 426.813 187.032 432.739 188.977 440.317C190.913 447.869 193.388 462.206 200.115 463.236C211.5 464.98 205.43 440.988 204.643 437.964C201.336 425.255 191.207 412.168 176.526 406.599C154.357 398.189 137.763 423.735 95.5312 405.624" fill="#F4AD94"/>
<path d="M172.896 421.998C178.277 426.813 187.032 432.739 188.977 440.317C190.913 447.869 193.388 462.206 200.115 463.236C211.5 464.98 205.43 440.988 204.643 437.964C201.336 425.255 191.207 412.168 176.526 406.599C154.357 398.189 137.763 423.735 95.5312 405.624" stroke="#294064" stroke-miterlimit="10" stroke-linecap="round" stroke-linejoin="round"/>
<path d="M111.238 438.363C141.465 443.641 160.297 416.397 164.324 414.735C168.04 413.2 195.521 424.714 196.74 410.204C197.252 404.113 170.978 396.627 159.678 396.363C144.899 396.017 131.572 413.131 116.534 409.58C73.3366 399.381 -22.3516 370.509 -22.3516 370.509C-22.3516 370.509 -19.56 407.033 -16.0549 428.99C-13.3173 446.139 -19.3817 451.846 -8.31698 452.106C26.0461 452.916 78.8249 447.252 102.112 445.422" fill="#F4AD94"/>
<path d="M111.238 438.363C141.465 443.641 160.297 416.397 164.324 414.735C168.04 413.2 195.521 424.714 196.74 410.204C197.252 404.113 170.978 396.627 159.678 396.363C144.899 396.017 131.572 413.131 116.534 409.58C73.3366 399.381 -22.3516 370.509 -22.3516 370.509C-22.3516 370.509 -19.56 407.033 -16.0549 428.99C-13.3173 446.139 -19.3817 451.846 -8.31698 452.106C26.0461 452.916 78.8249 447.252 102.112 445.422" stroke="#294064" stroke-miterlimit="10" stroke-linecap="round" stroke-linejoin="round"/>
<path d="M291.135 477.667C291.135 477.667 279.729 464.593 276.106 472.041C272.484 479.49 281.865 498.696 284.472 510.119C289.864 533.737 270.717 555.662 278.404 578.019C288 605.927 313.351 626.803 337.146 644.26C365.544 665.093 450.153 707.761 469.69 721.692C474.147 724.87 476.871 684.193 482.306 684.848C496.091 655.589 420.928 664.912 434.713 635.654C400.059 614.611 363.059 597.019 330.752 572.526C320.102 564.452 312.77 552.014 307.945 539.55C303.21 527.321 304.568 513.541 302.881 500.536" fill="#FEAD90"/>
<path d="M291.135 477.667C291.135 477.667 279.729 464.593 276.106 472.041C272.484 479.49 281.865 498.696 284.472 510.119C289.864 533.737 270.717 555.662 278.404 578.019C288 605.927 313.351 626.803 337.146 644.26C365.544 665.093 450.153 707.761 469.69 721.692C474.147 724.87 476.871 684.193 482.306 684.848C496.091 655.589 420.928 664.912 434.713 635.654C400.059 614.611 363.059 597.019 330.752 572.526C320.102 564.452 312.77 552.014 307.945 539.55C303.21 527.321 304.568 513.541 302.881 500.536" stroke="#294064" stroke-miterlimit="10" stroke-linecap="round" stroke-linejoin="round"/>
<path d="M297.02 469.162C297.02 469.162 277.047 452.857 273.77 459.472C269.253 468.59 286.475 480.104 287.146 482.746C288.479 487.994 288.407 525.129 294.556 536.639C310.01 516.626 311.023 477.644 287.93 462.852" fill="#FEAD90"/>
<path d="M297.02 469.162C297.02 469.162 277.047 452.857 273.77 459.472C269.253 468.59 286.475 480.104 287.146 482.746C288.479 487.994 288.407 525.129 294.556 536.639C310.01 516.626 311.023 477.644 287.93 462.852" stroke="#294064" stroke-miterlimit="10" stroke-linecap="round" stroke-linejoin="round"/>
<path d="M346.546 580.539C309.496 545.025 327.586 498.162 307.699 467.515C296.523 450.293 276.211 437.123 280.978 455.472C283.165 463.888 295.276 479.874 295.276 479.874C295.276 479.874 306.208 532.925 326.277 560.833C331.938 568.705 345.494 580.14 352.1 584.646C376.748 601.46 425.471 599.788 450.459 616.09C451.874 617.013 430.485 634.839 431.3 636.318C431.801 637.231 431.182 638.53 430.536 639.348C426.999 643.832 423.658 648.74 418.949 651.974C402.359 663.367 381.239 661.421 364.095 652.731C329.62 635.255 310.522 603.232 293.899 569.98" fill="#FFC6B2"/>
<path d="M346.546 580.539C309.496 545.025 327.586 498.162 307.699 467.515C296.523 450.293 276.211 437.123 280.978 455.472C283.165 463.888 295.276 479.874 295.276 479.874C295.276 479.874 306.208 532.925 326.277 560.833C331.938 568.705 345.494 580.14 352.1 584.646C376.748 601.46 425.471 599.788 450.459 616.09C451.874 617.013 430.485 634.839 431.3 636.318C431.801 637.231 431.182 638.53 430.536 639.348C426.999 643.832 423.658 648.74 418.949 651.974C402.359 663.367 381.239 661.421 364.095 652.731C329.62 635.255 310.522 603.232 293.899 569.98" stroke="#294064" stroke-miterlimit="10" stroke-linecap="round" stroke-linejoin="round"/>
<path d="M313.939 532.188C303.145 521.556 308.694 471.474 290.743 478.494C280.884 482.349 290.602 514.566 288.649 524.717C286.838 534.133 281.443 527.764 279.462 537.145C274.537 560.469 289.811 576.784 302.621 594.624" fill="#FFC6B2"/>
<path d="M313.939 532.188C303.145 521.556 308.694 471.474 290.743 478.494C280.884 482.349 290.602 514.566 288.649 524.717C286.838 534.133 281.443 527.764 279.462 537.145C274.537 560.469 289.811 576.784 302.621 594.624" stroke="#294064" stroke-miterlimit="10" stroke-linecap="round" stroke-linejoin="round"/>
<path d="M298.848 540.955C298.575 541.112 297.984 541.114 298.031 541.425C299.614 551.791 303.858 563.92 301.571 574.743C300.595 579.36 296.301 583.835 297.155 588.849C298.878 598.967 306.874 608.046 313.398 615.52C330.566 635.188 346.019 649.018 370.246 659.422C381.144 664.102 395.919 674.064 407.296 666.306C413.922 661.788 411.759 649.988 406.42 645.414C389.423 630.849 385.381 617.457 369.469 601.059C360.89 592.219 355.444 590.928 343.21 577.984C337.488 571.93 332.025 564.638 328.193 556.224C320.579 539.504 322.621 527.542 303.178 542.814" fill="#FFC6B2"/>
<path d="M122.339 529.801C107.835 502.773 120.559 479.646 139.85 466.397C144.135 463.454 157.204 457.981 154.588 449.456C152.544 442.798 137.969 446.686 134.6 448.558C120.819 456.21 111.117 465.746 105.233 480.564C101.356 490.329 97.9211 500.277 93.6836 509.891" fill="#FFCEC3"/>
<path d="M122.339 529.801C107.835 502.773 120.559 479.646 139.85 466.397C144.135 463.454 157.204 457.981 154.588 449.456C152.544 442.798 137.969 446.686 134.6 448.558C120.819 456.21 111.117 465.746 105.233 480.564C101.356 490.329 97.9211 500.277 93.6836 509.891" stroke="#294064" stroke-miterlimit="10" stroke-linecap="round" stroke-linejoin="round"/>
<path d="M113.617 502.522C120.054 486.75 125.616 467.587 131.352 464.195C137.991 460.269 159.118 445.907 158.239 439.04C156.844 428.141 140.533 437.961 132.75 443.242C120.028 451.873 115.022 462.133 107.641 475.008" fill="#FFCEC3"/>
<path d="M113.617 502.522C120.054 486.75 125.616 467.587 131.352 464.195C137.991 460.269 159.118 445.907 158.239 439.04C156.844 428.141 140.533 437.961 132.75 443.242C120.028 451.873 115.022 462.133 107.641 475.008" stroke="#294064" stroke-miterlimit="10" stroke-linecap="round" stroke-linejoin="round"/>
<path d="M112.546 502.057C113.649 488.213 119.488 466.189 119.488 466.189C119.488 466.189 159.098 438.43 150.281 428.595C142.478 419.892 105.394 446.259 99.8209 455.176C89.7607 471.274 91.2493 524.861 72.5031 545.682C52.2638 568.162 -23.825 585.257 -23.825 585.257C-23.825 585.257 -22.0329 632.104 -28.2734 655.939C37.5784 607.661 37.5784 607.661 103.43 559.384" fill="#FFE0D9"/>
<path d="M112.546 502.057C113.649 488.213 119.488 466.189 119.488 466.189C119.488 466.189 159.098 438.43 150.281 428.595C142.478 419.892 105.394 446.259 99.8209 455.176C89.7607 471.274 91.2493 524.861 72.5031 545.682C52.2638 568.162 -23.825 585.257 -23.825 585.257C-23.825 585.257 -22.0329 632.104 -28.2734 655.939C37.5784 607.661 37.5784 607.661 103.43 559.384" stroke="#294064" stroke-miterlimit="10" stroke-linecap="round" stroke-linejoin="round"/>
<path d="M98.4036 520.905C98.4036 520.905 113.402 502.391 114.237 499.52C116.507 491.712 127.449 450.521 143.41 461.751C151.265 467.276 137.243 494.96 137.052 499.944C136.626 511.062 148.34 525.372 140.939 544.758C134.462 561.725 124.339 577.559 97.7821 593.957C82.5472 603.364 4.91625 684.312 -44.4179 716.061C-64.7859 729.168 -83.1319 731.582 -108 734.82" fill="#FFE0D9"/>
<path d="M98.4036 520.905C98.4036 520.905 113.402 502.391 114.237 499.52C116.507 491.712 127.449 450.521 143.41 461.751C151.265 467.276 137.243 494.96 137.052 499.944C136.626 511.062 148.34 525.372 140.939 544.758C134.462 561.725 124.339 577.559 97.7821 593.957C82.5472 603.364 4.91625 684.312 -44.4179 716.061C-64.7859 729.168 -83.1319 731.582 -108 734.82" stroke="#294064" stroke-miterlimit="10" stroke-linecap="round" stroke-linejoin="round"/>
<path d="M68.3373 542.97L53.8828 554.808C53.8828 554.808 69.7018 563.706 79.1337 575.212C88.5656 586.716 91.6253 600.849 91.6253 600.849C91.6253 600.849 100.558 597.15 105.664 589.964C105.664 589.964 100.63 576.104 91.2981 564.355C81.9667 552.606 68.3373 542.97 68.3373 542.97ZM78.8661 561.5C79.3253 561.663 79.8581 561.985 80.3531 562.452C81.3432 563.384 81.8057 564.484 81.3941 564.92C80.9824 565.357 79.8263 564.961 78.8363 564.029C77.8463 563.096 77.3836 561.997 77.7954 561.56C78.0011 561.341 78.4068 561.338 78.8661 561.5ZM85.2903 569.857C85.7647 569.49 86.836 570.062 87.6697 571.136C88.5033 572.211 88.7983 573.356 88.3239 573.724C87.8496 574.092 86.7783 573.519 85.9445 572.445C85.1109 571.37 84.8159 570.226 85.2903 569.857ZM91.7443 579.435C92.2645 579.135 93.2365 579.862 93.9154 581.04C94.5944 582.219 94.733 583.418 94.2129 583.717C93.6927 584.017 92.7207 583.29 92.0417 582.112C91.3627 580.933 91.2241 579.734 91.7443 579.435Z" fill="#C94E63" stroke="#294064" stroke-miterlimit="10" stroke-linejoin="round"/>
<path d="M53.2554 538.881C59.9937 533.096 74.2908 532.161 74.2908 532.161C74.2908 532.161 77.1949 535.892 78.1137 536.929C80.4467 539.561 76.4469 548.294 67.7474 555.763C61.2616 561.33 54.6409 564.539 49.6501 563.611C47.9466 563.295 45.0933 559.832 44.1085 558.619C41.8452 555.828 44.556 546.349 53.2554 538.881Z" fill="#455A82" stroke="#294064" stroke-miterlimit="10" stroke-linejoin="round"/>
<path d="M55.3711 552.926L61.0513 560.893L56.3656 563.222L51.0156 556.147L55.3711 552.926Z" fill="white"/>
<path d="M59.2224 550.414L65.0963 558.173L62.9587 559.61L57.2461 551.875L59.2224 550.414Z" fill="white"/>
<path d="M73.0664 535.349L78.152 542.97L75.5971 547.111L68.7109 538.569L73.0664 535.349Z" fill="white"/>
<path d="M47.7578 563.208C47.7939 563.178 47.8298 563.15 47.8658 563.121L47.7578 563.208Z" fill="white"/>
<path d="M53.2554 538.881C59.9937 533.096 74.2908 532.161 74.2908 532.161C74.2908 532.161 77.1949 535.892 78.1137 536.929C80.4467 539.561 76.4469 548.294 67.7474 555.763C61.2616 561.33 54.6409 564.539 49.6501 563.611C47.9466 563.295 45.0933 559.832 44.1085 558.619C41.8452 555.828 44.556 546.349 53.2554 538.881Z" stroke="#294064" stroke-miterlimit="10" stroke-linejoin="round"/>
<path d="M53.2437 538.805C59.982 533.02 74.2791 532.085 74.2791 532.085C74.2791 532.085 77.1833 535.816 78.102 536.853C80.435 539.485 76.4351 548.218 67.7357 555.687C61.25 561.254 54.6293 564.463 49.6384 563.535C47.9349 563.218 45.0817 559.756 44.0967 558.542C41.8335 555.752 44.5443 546.273 53.2437 538.805Z" stroke="#294064" stroke-miterlimit="10" stroke-linejoin="round"/>
<path d="M53.3487 538.611C61.7905 531.365 71.3436 528.647 74.6862 532.54C78.0289 536.435 73.8953 545.466 65.4536 552.712C57.0119 559.959 47.4587 562.677 44.1161 558.783C40.7734 554.889 44.907 545.858 53.3487 538.611Z" fill="#FEDA8C" stroke="#294064" stroke-miterlimit="10" stroke-linejoin="round"/>
<path d="M54.6355 539.492C62.016 533.156 70.2 530.584 72.9149 533.746C75.6299 536.909 71.8478 544.609 64.4673 550.945C57.0869 557.28 48.903 559.852 46.188 556.69C43.473 553.527 47.2551 545.828 54.6355 539.492Z" fill="white" stroke="#294064" stroke-miterlimit="10" stroke-linejoin="round"/>
<path d="M65.6768 539.155C65.8394 539.02 66.0813 539.041 66.2171 539.203C66.3529 539.366 66.3312 539.608 66.1687 539.744L59.3874 545.409C59.2248 545.545 58.9828 545.523 58.847 545.36C58.7112 545.197 58.7329 544.956 58.8955 544.82L65.6768 539.155Z" fill="#434343" stroke="#294064" stroke-miterlimit="10" stroke-linejoin="round"/>
<path d="M57.186 546.484C56.7581 545.972 57.0478 545.025 57.8329 544.37C58.6181 543.714 59.6014 543.599 60.0293 544.111C60.4571 544.624 60.1675 545.571 59.3823 546.225C58.5971 546.881 57.6138 546.997 57.186 546.484Z" fill="#2956A9" stroke="#294064" stroke-miterlimit="10" stroke-linejoin="round"/>
<path d="M52.4794 543.819C50.1785 545.935 48.5133 548.792 47.6055 551.772" stroke="#294064" stroke-miterlimit="10" stroke-linecap="round" stroke-linejoin="round"/>
<path d="M62.7969 550.23C65.6949 548.125 68.5265 544.623 70.132 542.103" stroke="#294064" stroke-miterlimit="10" stroke-linecap="round" stroke-linejoin="round"/>
<path d="M70.9492 540.72C70.9492 540.72 72.3528 538.246 72.3224 536.466" stroke="#294064" stroke-miterlimit="10" stroke-linecap="round" stroke-linejoin="round"/>
<path d="M268.706 694.421C258.704 645.407 299.585 616.722 302.636 594.762C303.526 588.359 300.526 525.332 290.576 526.9C283.401 528.032 282.264 544.95 282.541 557.196C282.695 564.034 227.773 674.474 227.773 674.474" fill="#E29F64"/>
<path d="M268.706 694.421C258.704 645.407 299.585 616.722 302.636 594.762C303.526 588.359 300.526 525.332 290.576 526.9C283.401 528.032 282.264 544.95 282.541 557.196C282.695 564.034 227.773 674.474 227.773 674.474" stroke="#294064" stroke-miterlimit="10" stroke-linecap="round" stroke-linejoin="round"/>
<path d="M266.986 679.08C266.548 657.574 290.301 624.273 291.362 612.023C293.537 586.88 289.32 537.55 288.17 530.188C285.911 515.724 273.297 523.112 272.955 534.714C272.234 559.143 273.553 585.544 268.758 609.845" fill="#EAAA72"/>
<path d="M266.986 679.08C266.548 657.574 290.301 624.273 291.362 612.023C293.537 586.88 289.32 537.55 288.17 530.188C285.911 515.724 273.297 523.112 272.955 534.714C272.234 559.143 273.553 585.544 268.758 609.845" stroke="#294064" stroke-miterlimit="10" stroke-linecap="round" stroke-linejoin="round"/>
<path d="M274.316 618.63C274.316 618.63 282.5 584.017 282.394 572.858C282.294 562.332 279.762 528.539 272.121 528.381C257.966 528.09 264.503 571.709 264.503 571.709L232.066 683.702" fill="#EAAA72"/>
<path d="M274.316 618.63C274.316 618.63 282.5 584.017 282.394 572.858C282.294 562.332 279.762 528.539 272.121 528.381C257.966 528.09 264.503 571.709 264.503 571.709L232.066 683.702" stroke="#294064" stroke-miterlimit="10" stroke-linecap="round" stroke-linejoin="round"/>
<path d="M255.479 646.852C250.694 633.209 257.404 608.269 257.404 608.269C257.404 608.269 265.87 570.713 259.012 567.486C246.296 561.5 236.738 588.647 235.721 601.533C233.941 624.113 230.355 627.778 222.51 639.225C215.138 649.981 206.922 674.992 208.208 692.569C209.718 713.188 217.552 773.275 226.64 817.343C235.804 861.775 255.767 942.781 264.766 987.246C265.635 991.536 317.747 1038.27 322.097 1038.76C343.279 1041.13 338.394 1007.44 359.31 1003.34C365.364 1002.15 392.976 1000.13 393.871 994.026C395.318 984.173 389.324 954.156 389.324 954.156C389.324 954.156 312.985 795.91 290.507 750.814C274.27 718.234 266.621 691.988 266.823 676.642" fill="#EAAA72"/>
<path d="M255.479 646.852C250.694 633.209 257.404 608.269 257.404 608.269C257.404 608.269 265.87 570.713 259.012 567.486C246.296 561.5 236.738 588.647 235.721 601.533C233.941 624.113 230.355 627.778 222.51 639.225C215.138 649.981 206.922 674.992 208.208 692.569C209.718 713.188 217.552 773.275 226.64 817.343C235.804 861.775 255.767 942.781 264.766 987.246C265.635 991.536 317.747 1038.27 322.097 1038.76C343.279 1041.13 338.394 1007.44 359.31 1003.34C365.364 1002.15 392.976 1000.13 393.871 994.026C395.318 984.173 389.324 954.156 389.324 954.156C389.324 954.156 312.985 795.91 290.507 750.814C274.27 718.234 266.621 691.988 266.823 676.642" stroke="#294064" stroke-miterlimit="10" stroke-linecap="round" stroke-linejoin="round"/>
<path d="M270.074 621.877C267.555 622.014 263.48 629.297 261.578 632.469C259.82 635.401 258.048 638.455 256.685 641.633C256.106 642.985 256.015 644.858 255.49 646.565C254.964 648.27 251.494 640.707 251.336 641.616C250.865 644.317 254.101 653.941 254.772 656.807C255.126 658.32 263.689 682.044 266.137 680.212C266.137 680.212 266.666 670.403 268.769 663.753C269.826 660.41 268.422 657.383 269.198 653.966C270.606 647.76 271.702 639.69 274.068 633.9" fill="#EAAA72"/>
<path d="M246.489 607.448C246.489 607.448 245.281 596.306 241.761 598.178C236.721 600.858 243.796 622.007 243.796 622.007C243.796 622.007 257.167 604.645 254.23 600.118C251.544 595.977 246.489 607.448 246.489 607.448Z" stroke="#455A82" stroke-miterlimit="10" stroke-linecap="round" stroke-linejoin="round"/>
<path d="M80.125 939.354C85.1531 914.174 158.013 692.7 157.461 675.271C156.556 646.746 129.972 610.997 126.522 588.776C124.883 578.222 124.838 532.719 136.412 530.192C147.503 527.77 141.131 571.227 150.247 590.495C162.495 616.382 180.21 637.021 186.106 664.627C188.349 675.131 186.548 690.114 184.447 699.591C170.091 764.358 152.354 828.375 139.214 893.399C129.417 941.883 127.346 991.72 125.394 1041.15" fill="#FFB9AA"/>
<path d="M80.125 939.354C85.1531 914.174 158.013 692.7 157.461 675.271C156.556 646.746 129.972 610.997 126.522 588.776C124.883 578.222 124.838 532.719 136.412 530.192C147.503 527.77 141.131 571.227 150.247 590.495C162.495 616.382 180.21 637.021 186.106 664.627C188.349 675.131 186.548 690.114 184.447 699.591C170.091 764.358 152.354 828.375 139.214 893.399C129.417 941.883 127.346 991.72 125.394 1041.15" stroke="#294064" stroke-miterlimit="10" stroke-linecap="round" stroke-linejoin="round"/>
<path d="M148.255 626.044C145.147 611.986 133.198 588.183 133.135 579.676C133.053 568.574 136.151 526.801 145.738 528.442C156.145 530.224 150.783 568.155 150.783 568.155C150.783 568.155 176.292 650.485 186.2 701.919C189.356 718.303 192.303 734.953 192.01 751.635C191.158 800.172 187.91 848.705 182.777 896.977C179.832 924.677 170.565 952.148 156.965 976.456C151.802 973.422 145.791 971.507 141.477 967.354C130.11 956.409 110.525 924.249 114.788 907.177C130.624 843.761 152.591 781.996 168.81 718.679C175.861 691.152 169.264 659.349 166.501 632.535" fill="#FFB9AA"/>
<path d="M148.255 626.044C145.147 611.986 133.198 588.183 133.135 579.676C133.053 568.574 136.151 526.801 145.738 528.442C156.145 530.224 150.783 568.155 150.783 568.155C150.783 568.155 176.292 650.485 186.2 701.919C189.356 718.303 192.303 734.953 192.01 751.635C191.158 800.172 187.91 848.705 182.777 896.977C179.832 924.677 170.565 952.148 156.965 976.456C151.802 973.422 145.791 971.507 141.477 967.354C130.11 956.409 110.525 924.249 114.788 907.177C130.624 843.761 152.591 781.996 168.81 718.679C175.861 691.152 169.264 659.349 166.501 632.535" stroke="#294064" stroke-miterlimit="10" stroke-linecap="round" stroke-linejoin="round"/>
<path d="M164.362 635.987C165.358 623.301 139.415 582.002 146.954 573.041C159.348 558.31 171.049 594.807 180.807 609.428C185.917 617.085 194.448 626.211 200.119 633.129C225.28 663.823 198.896 694.393 197.518 717.962C196.083 742.483 190.826 889.861 187.362 938.56C185.38 966.433 167.088 949.78 158.612 976.716C153.918 991.636 141.048 944.061 129.914 952.518" fill="#FFB9AA"/>
<path d="M164.362 635.987C165.358 623.301 139.415 582.002 146.954 573.041C159.348 558.31 171.049 594.807 180.807 609.428C185.917 617.085 194.448 626.211 200.119 633.129C225.28 663.823 198.896 694.393 197.518 717.962C196.083 742.483 190.826 889.861 187.362 938.56C185.38 966.433 167.088 949.78 158.612 976.716C153.918 991.636 141.048 944.061 129.914 952.518" stroke="#294064" stroke-miterlimit="10" stroke-linecap="round" stroke-linejoin="round"/>
<path d="M165.186 769.455C163.654 767.446 159.357 765.652 157.823 767.659C146.393 782.614 138.388 799.91 129.309 816.397C113.389 845.305 107.722 882.489 107.604 915.196C107.575 923.351 107.499 968.506 127.866 957.265C142.548 949.161 143.607 927.552 149.583 911.882C151.753 906.188 153.429 900.3 154.822 894.368C158.995 876.59 160.56 859.345 162.676 841.389C165.58 816.723 178.011 786.276 165.186 769.455Z" fill="#FFB9AA"/>
<path d="M202.509 700.439C202.509 700.439 193.067 706.361 179.655 700.662C171.832 697.339 161.379 689.564 156.781 683.973C156.781 683.973 158.137 675.615 157.235 675.662C140.935 676.512 148.405 690.677 148.053 693.564C147.368 699.179 143.718 707.163 142.299 712.488C126.226 772.807 96.9374 850.55 77.3078 920.662C74.5206 930.617 55.8732 992.827 60.2257 1002.14C63.1838 1008.47 111.143 926.119 116.661 926.703C139.062 929.076 168.509 948.844 187.445 934.026C189.177 932.67 212.586 838.791 196.885 774.072C196.06 770.672 196.249 762.547 198.55 759.497C200.232 757.266 204.641 755.503 204.676 752.213C204.717 748.352 198.034 745.616 198.567 741.245C198.814 739.212 204.32 739.137 203.912 736.817C202.602 729.373 202.509 700.439 202.509 700.439Z" fill="#455A82" stroke="#294064" stroke-miterlimit="10" stroke-linecap="round" stroke-linejoin="round"/>
<path d="M256.753 562.899C249.275 563.219 243.513 582.847 253.671 584.43C262.631 585.826 263.12 562.627 256.753 562.899Z" fill="#402A22" stroke="#294064" stroke-miterlimit="10" stroke-linecap="round" stroke-linejoin="round"/>
<path d="M272.952 524.269C267.747 523.438 271.633 543.687 276.713 542.941C279.882 542.474 275.709 524.709 272.952 524.269Z" fill="#402A22" stroke="#294064" stroke-miterlimit="10" stroke-linecap="round" stroke-linejoin="round"/>
<path d="M282.089 519.107C280.272 520.695 283.063 539.207 287.593 534.773C289.549 532.858 285.862 515.81 282.089 519.107Z" fill="#402A22" stroke="#294064" stroke-miterlimit="10" stroke-linecap="round" stroke-linejoin="round"/>
<path d="M290.456 524.192C289.179 525.91 293.452 539.038 295.923 535.728C298.006 532.94 293.165 520.548 290.456 524.192Z" fill="#402A22" stroke="#294064" stroke-miterlimit="10" stroke-linecap="round" stroke-linejoin="round"/>
<path d="M297.821 481.346C291.449 472.76 285.428 485.681 290.571 492.507C292.5 495.068 298.097 493.48 299.534 491.314C301.38 488.531 299.101 483.073 297.821 481.346Z" fill="#C94E63" stroke="#294064" stroke-miterlimit="10" stroke-linecap="round" stroke-linejoin="round"/>
<path d="M283.298 446.539C279.735 448.634 292.212 455.399 293.259 454.504C296.765 451.51 284.819 445.645 283.298 446.539Z" fill="#C94E63" stroke="#294064" stroke-miterlimit="10" stroke-linecap="round" stroke-linejoin="round"/>
<path d="M195.74 408.619C194.901 406.352 184.34 399.26 183.239 404.362C182.146 409.437 197.484 413.338 195.74 408.619Z" fill="#FEDA8C" stroke="#294064" stroke-miterlimit="10" stroke-linecap="round" stroke-linejoin="round"/>
<path d="M205.528 460.746C206.102 459.835 206.743 456.476 206.829 455.402C206.969 453.628 207.363 447.279 205.047 447.956C202.177 448.795 201.936 466.459 205.528 460.746Z" fill="#FEDA8C" stroke="#294064" stroke-miterlimit="10" stroke-linecap="round" stroke-linejoin="round"/>
<path d="M148.983 572.188C145.659 575.772 147.662 585.691 152.546 586.98C154.756 587.562 158.291 586.225 160.717 582.699C162.955 579.446 154.427 566.316 148.983 572.188Z" fill="#ED6B33" stroke="#294064" stroke-miterlimit="10" stroke-linecap="round" stroke-linejoin="round"/>
<path d="M138.412 542.105C142.608 547.355 146.418 532.125 144.457 529.131C142.98 526.879 136.137 539.259 138.412 542.105Z" fill="#ED6B33" stroke="#294064" stroke-miterlimit="10" stroke-linecap="round" stroke-linejoin="round"/>
<path d="M219.695 425.23C222.964 432.364 241.251 426.755 233.851 419.106" stroke="#294064" stroke-miterlimit="10" stroke-linecap="round" stroke-linejoin="round"/>
<path d="M139.319 460.335C133.016 461.006 129.288 470.61 130.398 472.922C134.967 482.446 146.752 473.801 142.929 464.291" stroke="#294064" stroke-miterlimit="10" stroke-linecap="round" stroke-linejoin="round"/>
<path d="M135.051 430.111C136.266 435.118 146.174 430.68 147.758 428.628" stroke="#294064" stroke-miterlimit="10" stroke-linecap="round" stroke-linejoin="round"/>
<path d="M416.02 587.473C408.258 587.002 400.487 586.657 392.734 586.062C384.416 585.422 375.706 580.98 367.818 583.698C358.061 587.059 359.627 598.802 356.497 606.773C349.373 624.917 342.24 640.044 348.951 659.669C353.096 671.788 364.264 674.05 374.026 680.577C400.075 697.992 426.969 722.798 459.929 707.18" fill="#FF7CAB"/>
<path d="M416.02 587.473C408.258 587.002 400.487 586.657 392.734 586.062C384.416 585.422 375.706 580.98 367.818 583.698C358.061 587.059 359.627 598.802 356.497 606.773C349.373 624.917 342.24 640.044 348.951 659.669C353.096 671.788 364.264 674.05 374.026 680.577C400.075 697.992 426.969 722.798 459.929 707.18" stroke="#294064" stroke-miterlimit="10" stroke-linecap="round"/>
<path d="M353.929 660.132C349.087 653.632 340.303 649.805 336.103 647.338C324.732 640.662 311.934 641.163 313.886 625.831L317.373 628.686C321.124 623.872 328.285 616.734 332.519 598.562C333.604 593.906 338.725 574.693 343.32 572.066C344.581 571.346 348.674 580.846 350.502 581.685C366.092 588.847 375.651 585.738 376.967 590.847C377.663 593.553 387.123 613.373 366.336 649.023" fill="#FF7CAB"/>
<path d="M353.929 660.132C349.087 653.632 340.303 649.805 336.103 647.338C324.732 640.662 311.934 641.163 313.886 625.831L317.373 628.686C321.124 623.872 328.285 616.734 332.519 598.562C333.604 593.906 338.725 574.693 343.32 572.066C344.581 571.346 348.674 580.846 350.502 581.685C366.092 588.847 375.651 585.738 376.967 590.847C377.663 593.553 387.123 613.373 366.336 649.023" stroke="#294064" stroke-miterlimit="10" stroke-linecap="round"/>
<path d="M328.082 462.228C328.082 462.228 326.602 470.938 328.923 476.737C331.469 483.101 338.949 492.956 346.443 476.607C353.938 460.258 362.202 424.285 359.058 412.961C354.316 395.888 339.418 417.971 339.418 417.971L347.148 419.57C347.148 419.57 349.396 414.378 351.515 413.948C353.635 413.519 352.634 421.21 352.2 424.307C349.475 443.729 343.969 464.051 338.766 474.13C334.717 481.975 334.828 465.188 334.828 465.188L328.082 462.228Z" fill="#455A82" stroke="#294064" stroke-miterlimit="10" stroke-linecap="round"/>
<path d="M322.422 459.971C322.422 459.971 324.229 469.42 328.223 474.221C332.607 479.491 342.759 486.562 344.852 468.699C346.944 450.837 343.724 414.067 337.242 404.262C327.472 389.482 319.875 414.182 319.875 414.182L327.012 415.479C327.012 415.479 328.487 408.588 330.372 407.526C332.256 406.465 333.673 414.09 334.215 417.17C337.607 436.487 338.629 457.517 336.785 468.709C335.349 477.42 329.957 462.941 329.957 462.941L322.422 459.971Z" fill="#8789D9" stroke="#294064" stroke-miterlimit="10" stroke-linecap="round"/>
<path d="M78.9225 402.522C82.2814 397.816 61.537 392.452 59.9843 392.089C45.4472 388.686 18.7435 379.863 -11 369.491C-14.9255 368.121 -88.1553 369.581 -90.2996 374.349C-95.7731 386.522 -11.3474 398.961 -11.9391 411.915C-12.3583 421.095 -13.4297 429.975 -13.0504 439.198C-12.9971 440.493 -12.8006 456.917 -10.3303 457.828C-6.3731 459.29 -11.1379 458.584 -7.08938 457.874C5.94985 455.586 28.2796 454.536 41.4928 452.564C45.3493 451.989 61.5855 454.605 62.5257 448.638" fill="#FFBF4F"/>
<path d="M78.9225 402.522C82.2814 397.816 61.537 392.452 59.9843 392.089C45.4472 388.686 18.7435 379.863 -11 369.491C-14.9255 368.121 -88.1553 369.581 -90.2996 374.349C-95.7731 386.522 -11.3474 398.961 -11.9391 411.915C-12.3583 421.095 -13.4297 429.975 -13.0504 439.198C-12.9971 440.493 -12.8006 456.917 -10.3303 457.828C-6.3731 459.29 -11.1379 458.584 -7.08938 457.874C5.94986 455.586 28.2796 454.536 41.4928 452.564C45.3493 451.989 61.5855 454.605 62.5257 448.638" stroke="#294064" stroke-miterlimit="10" stroke-linecap="round"/>
<path d="M61.1712 440.599C61.1712 440.599 47.7026 438.409 38.8052 439.171C22.1497 440.599 -1.16797 440.599 -1.16797 440.599" stroke="white"/>
<path d="M63.0746 426.799C63.0746 426.799 53.5572 424.42 40.2328 424.419C33.7684 424.419 29.9388 425.65 23.5773 426.799C11.6396 428.955 -9.25781 424.419 -9.25781 424.419" stroke="white"/>
<path d="M65.4542 416.329C65.4542 416.329 55.0175 412.541 48.3229 411.571C41.1501 410.531 31.777 410.143 24.5293 410.143C13.1931 410.143 -6.40234 406.336 -6.40234 406.336" stroke="white"/>
<path d="M69.7364 405.86C69.7364 405.86 52.4322 399.371 41.1841 398.246C22.1493 396.343 1.21094 386.35 1.21094 386.35" stroke="white"/>
<path d="M104.46 404.64C105.806 402.908 88.7863 400.212 86.4651 399.664C83.934 399.066 78.6696 397.209 76.0677 397.694C68.4944 399.104 62.7733 426.982 61.9749 433.206C61.7731 434.781 60.7018 449.566 61.7015 450.484C62.1244 450.872 72.6276 449.709 77.4773 449.301C82.9106 448.844 95.5991 449.088 95.7595 448.529C96.3383 446.512 94.8004 434.757 95.9176 426.795C96.621 421.784 100.492 409.74 104.46 404.64Z" fill="#F4CC85" stroke="#294064" stroke-miterlimit="10" stroke-linecap="round"/>
<path d="M217.082 762.8C218.648 763.541 224.251 777.198 225.297 779.502C225.637 780.251 227.426 785.124 228.926 783.67C230.409 782.235 222.244 766.764 220.822 764.487C219.685 762.667 218.308 761 216.758 759.514" stroke="#455A82" stroke-miterlimit="10" stroke-linecap="round" stroke-linejoin="round"/>
<path d="M216.852 758.431C216.852 758.431 221.725 764.032 222.77 764.973C225.769 767.68 227.031 772.114 230.323 774.755C231.123 775.397 237.557 776.324 236.371 774.737C234.625 772.399 231.201 771.371 228.981 769.548C227.358 768.216 226.134 766.485 224.467 765.179C222.373 763.539 216.852 758.431 216.852 758.431Z" stroke="#455A82" stroke-miterlimit="10" stroke-linecap="round" stroke-linejoin="round"/>
<path d="M237.633 768.093C231.661 776.803 255.558 784.662 262.181 785.605C264.799 785.978 270.046 785.471 271.289 782.575C273.432 777.584 256.942 777.47 253.421 775.959C251.135 774.978 238.68 766.566 237.633 768.093Z" stroke="#455A82" stroke-miterlimit="10" stroke-linecap="round" stroke-linejoin="round"/>
<path d="M217.234 757.925C217.234 757.925 219.477 760.073 221.137 761.643C222.01 762.468 233.914 774.339 236.339 770.096C241.029 761.889 227.34 761.691 223.968 758.806C222.689 757.711 217.234 757.925 217.234 757.925Z" stroke="#455A82" stroke-miterlimit="10" stroke-linecap="round" stroke-linejoin="round"/>
<path d="M222.273 758.209C221.232 758.581 222.119 760.836 222.432 761.55C225.314 768.103 230.129 761.731 225.668 759.618" stroke="#455A82" stroke-miterlimit="10" stroke-linecap="round" stroke-linejoin="round"/>
<path d="M227.304 763.596C226.882 763.396 230.005 765.697 232.05 765.942C234.908 766.284 235.602 763.903 235.602 763.903" stroke="#455A82" stroke-miterlimit="10" stroke-linecap="round" stroke-linejoin="round"/>
<path d="M225.969 759.583C231.267 762.987 240.078 757.853 245.204 756.503C254.716 753.999 273.775 761.953 274.678 772.752C275.102 777.817 267.178 775.871 267.78 778.632" stroke="#455A82" stroke-miterlimit="10" stroke-linecap="round" stroke-linejoin="round"/>
<path d="M267.461 762.819C263.577 766.837 242.716 766.88 237.312 765.18" stroke="#455A82" stroke-miterlimit="10" stroke-linecap="round" stroke-linejoin="round"/>
<path d="M236.922 764.542C244.285 764.172 251.374 763.303 256.307 757.304" stroke="#455A82" stroke-miterlimit="10" stroke-linecap="round" stroke-linejoin="round"/>
<path d="M236.457 764.166C238.002 765.658 250.783 759.002 252.001 756.46" stroke="#455A82" stroke-miterlimit="10" stroke-linecap="round" stroke-linejoin="round"/>
<path d="M236.207 764.206C239.183 763.158 248.381 760.843 243.914 756.525" stroke="#455A82" stroke-miterlimit="10" stroke-linecap="round" stroke-linejoin="round"/>
<path d="M224.147 758.875C227.126 759.899 230.718 760.054 231.788 760.025C236.051 759.908 246.176 756.602 245.7 750.78C245.629 749.906 245.867 748.356 245.189 747.688C244.278 746.791 243.102 746.995 241.993 746.967C241.452 746.953 240.927 746.882 240.457 746.601C238.761 745.588 237.587 744.401 236.324 743.348C235.038 742.277 233.66 741.345 231.549 740.88C230.332 740.611 229.215 741.811 227.93 741.691C227.215 741.625 225.639 741.217 224.951 741.763C223.235 743.12 224.871 746.47 223.849 748.585C222.135 752.133 218.036 754.06 217.094 757.909" stroke="#455A82" stroke-miterlimit="10" stroke-linecap="round" stroke-linejoin="round"/>
<path d="M220.504 753.482C223.237 755.64 226.266 759.613 229.585 754.97C230.907 753.121 228.024 749.876 226.637 749.316C225.27 748.763 224.117 748.579 224.117 748.579" stroke="#455A82" stroke-miterlimit="10" stroke-linecap="round" stroke-linejoin="round"/>
<path d="M228.348 756.466C234.501 756.659 242.134 751.249 241.794 747.088" stroke="#455A82" stroke-miterlimit="10" stroke-linecap="round" stroke-linejoin="round"/>
<path d="M229.266 751.681C231.414 750.611 237.957 746.901 236.526 743.546" stroke="#455A82" stroke-miterlimit="10" stroke-linecap="round" stroke-linejoin="round"/>
<path d="M224.359 748.47C226.823 746.703 227.7 744.318 228.027 741.499" stroke="#455A82" stroke-miterlimit="10" stroke-linecap="round" stroke-linejoin="round"/>
<path d="M242.493 756.667C249.645 753.457 260.648 757.228 267.268 751.752C270.704 748.911 267.712 747.318 268.123 744.363C268.487 741.742 270.824 738.872 269.882 736.143C267.449 729.101 254.688 724.881 247.607 724.262C241.629 723.74 240.749 728.165 234.632 729.711C233.839 729.911 229.827 730.422 229.827 730.422C229.827 730.422 234.024 731.449 233.553 734.179C233.081 736.91 230.725 739.014 228.117 741.414" stroke="#455A82" stroke-miterlimit="10" stroke-linecap="round" stroke-linejoin="round"/>
<path d="M245.758 752.459C249.576 752.143 266.172 749.668 268.085 744.266" stroke="#455A82" stroke-miterlimit="10" stroke-linecap="round" stroke-linejoin="round"/>
<path d="M232.238 740.865C245.405 742.643 253.908 735.399 257.29 726.499" stroke="#455A82" stroke-miterlimit="10" stroke-linecap="round" stroke-linejoin="round"/>
<path d="M230.438 740.698C238.169 737.975 248.037 732.979 251.717 725.204" stroke="#455A82" stroke-miterlimit="10" stroke-linecap="round" stroke-linejoin="round"/>
<path d="M228.438 741.275C235.45 736.557 241.02 731.737 245.437 724.519" stroke="#455A82" stroke-miterlimit="10" stroke-linecap="round" stroke-linejoin="round"/>
<path d="M219.85 753.481C221.599 752.273 221.917 740.456 214.355 744.21" stroke="#455A82" stroke-miterlimit="10" stroke-linecap="round" stroke-linejoin="round"/>
<path d="M220.75 746.795C221.327 745.642 224.018 743.241 224.018 743.241" stroke="#455A82" stroke-miterlimit="10" stroke-linecap="round" stroke-linejoin="round"/>
<path d="M222.476 744.529C221.811 741.896 216.727 740.82 216.727 743.377" stroke="#455A82" stroke-miterlimit="10" stroke-linecap="round" stroke-linejoin="round"/>
<path d="M224.393 742.041C222.429 738.112 215.647 738.974 216.647 743.333" stroke="#455A82" stroke-miterlimit="10" stroke-linecap="round" stroke-linejoin="round"/>
<path d="M222.859 740.23C226.971 737.622 230.39 733.253 229.183 728.548" stroke="#455A82" stroke-miterlimit="10" stroke-linecap="round" stroke-linejoin="round"/>
<path d="M222.02 739.726C223.923 738.603 228.299 732.171 227.18 729.268C226.937 728.636 225.561 728.27 225.007 727.843C224.257 727.264 223.726 726.09 222.614 726.047C219.243 725.917 216.411 732.19 216.646 735.066C216.735 736.153 217.114 737.169 217.189 738.244C217.231 738.858 216.902 740.608 217.237 740.091" stroke="#455A82" stroke-miterlimit="10" stroke-linecap="round" stroke-linejoin="round"/>
<path d="M220.402 739.388C222.712 736.827 222.214 734.01 222.07 732.823" stroke="#455A82" stroke-miterlimit="10" stroke-linecap="round" stroke-linejoin="round"/>
<path d="M225.297 727.93C245.408 728.627 239.351 726.041 246.522 716.029C247.808 714.233 251.898 712.48 251.898 712.48C233.506 713.546 228.589 706.475 225.297 727.93Z" stroke="#455A82" stroke-miterlimit="10" stroke-linecap="round" stroke-linejoin="round"/>
<path d="M242.379 725.007C242.335 725.158 246.537 724.06 247.375 723.779C250.881 722.604 253.74 720.9 257.495 721.071C260.821 721.223 263.988 723.104 266.605 725.087C268.652 726.639 270.087 728.545 270.155 728.435C271.675 725.96 266.163 722.142 265.059 721.118C264.901 720.97 265.089 719.239 263.63 717.92C261.216 715.736 257.708 715.197 255.5 715.364C253.612 715.508 251.648 717.811 250.228 717.288C248.557 716.671 245.396 717.49 243.458 721.199" stroke="#455A82" stroke-miterlimit="10" stroke-linecap="round" stroke-linejoin="round"/>
<path d="M265.58 721.582C259.38 716.895 254.266 720.787 252.621 721.827" stroke="#455A82" stroke-miterlimit="10" stroke-linecap="round" stroke-linejoin="round"/>
<path d="M251.53 717.208C249.179 718.288 245.442 720.67 242.176 724.913" stroke="#455A82" stroke-miterlimit="10" stroke-linecap="round" stroke-linejoin="round"/>
<path d="M217.034 740.767C217.034 740.767 216.252 738.027 216.051 736.942C215.222 732.479 212.751 721.355 216.6 718.552C220.479 715.727 222.069 722.338 223.598 724.257C224.335 725.181 225.856 728.382 225.12 727.458" stroke="#455A82" stroke-miterlimit="10" stroke-linecap="round" stroke-linejoin="round"/>
<path d="M214.487 727.349C213.979 726.234 213.27 725.519 211.98 725.373" stroke="#455A82" stroke-miterlimit="10" stroke-linecap="round" stroke-linejoin="round"/>
<path d="M226.8 720.023C226.539 720.069 223.464 717.653 222.561 716.632C218.215 711.713 219.164 708.241 217.104 702.508C216.358 700.432 212.297 697.123 212.297 697.123C212.297 697.123 215.419 697.354 218.594 699.441C218.848 699.608 219.663 698.356 222.168 699.551C224.673 700.747 226.996 703.839 227.963 705.39C229.924 708.534 229.573 713.508 227.74 716.68C227.395 717.277 226.8 720.023 226.8 720.023Z" stroke="#455A82" stroke-miterlimit="10" stroke-linecap="round" stroke-linejoin="round"/>
<path d="M218.344 699.243C223.054 703.841 227.106 711.862 226.731 719.677" stroke="#455A82" stroke-miterlimit="10" stroke-linecap="round" stroke-linejoin="round"/>
<path d="M229.46 714.575C229.46 714.575 232.051 707.394 231.008 704.423C230.018 701.604 223.392 692.862 220.524 692.394C219.163 692.172 218.295 693.912 216.5 693.619C215.01 693.377 213.985 691.227 212.259 692.078C209.848 693.269 210.011 695.011 208.691 696.839" stroke="#455A82" stroke-miterlimit="10" stroke-linecap="round" stroke-linejoin="round"/>
<path d="M218.621 708.375C219.27 712.963 218.187 715.565 217.238 718.094" stroke="#455A82" stroke-miterlimit="10" stroke-linecap="round" stroke-linejoin="round"/>
<path d="M217.617 693.71C217.617 693.71 219.272 697.338 218.671 698.94" stroke="#455A82" stroke-miterlimit="10" stroke-linecap="round" stroke-linejoin="round"/>
<path d="M246.23 712.394C256.762 705.914 261.952 708.348 271.903 713.813C260.34 712.35 258.349 709.168 246.23 712.394Z" stroke="#455A82" stroke-miterlimit="10" stroke-linecap="round" stroke-linejoin="round"/>
<path d="M247.891 711.863C257.58 709.562 266.437 712.515 270.867 719.599C264.508 718.237 265.7 713.152 257.786 711.385" stroke="#455A82" stroke-miterlimit="10" stroke-linecap="round" stroke-linejoin="round"/>
<path d="M229.973 713.445C233.755 708.498 233.963 702.02 237.028 696.716C241.706 688.621 253.253 691.91 260.201 688.52C259.553 719.276 249.077 703.293 229.973 713.445Z" stroke="#455A82" stroke-miterlimit="10" stroke-linecap="round" stroke-linejoin="round"/>
<path d="M260.107 688.692C252.522 702.867 242.44 704.515 230.613 713.069" stroke="#455A82" stroke-miterlimit="10" stroke-linecap="round" stroke-linejoin="round"/>
<path d="M243.23 691.871C254.684 686.77 242.433 678.934 253.503 671.996C254.502 671.368 257.584 669.094 257.584 669.094C257.584 669.094 256.907 671.692 257.08 673.55C257.333 676.28 259.928 680.426 258.08 683.062C255.82 686.287 251.335 684.784 248.6 686.81" stroke="#455A82" stroke-miterlimit="10" stroke-linecap="round" stroke-linejoin="round"/>
<path d="M248.602 686.764C256.312 680.68 252.926 673.807 257.447 669.492" stroke="#455A82" stroke-miterlimit="10" stroke-linecap="round" stroke-linejoin="round"/>
<path d="M250.54 674.163C250.381 674.245 250.31 672.811 250.298 672.713C250.044 670.652 250.75 669.749 252 668.033C255.068 663.822 254.224 660.769 252.739 656.301C252.642 656.01 252.458 652.853 252.378 652.828C252.35 652.819 249.615 656.015 249.48 656.18C245.203 661.46 247.699 665.361 250.379 670.54" stroke="#455A82" stroke-miterlimit="10" stroke-linecap="round" stroke-linejoin="round"/>
<path d="M252.359 653.067C250.67 656.121 248.686 665.843 250.525 669.397" stroke="#455A82" stroke-miterlimit="10" stroke-linecap="round" stroke-linejoin="round"/>
<path d="M240.356 693.019C237.911 676.468 249.714 671.99 232.25 662.193C238.32 668.49 230.781 684.425 240.356 693.019Z" stroke="#455A82" stroke-miterlimit="10" stroke-linecap="round" stroke-linejoin="round"/>
<path d="M230.777 712.112C236.714 697.041 225.604 699.804 220.196 688.98C217.09 682.767 218.318 674.52 217.625 667.819C230.419 675.655 242.38 684.702 231.618 701.116" stroke="#455A82" stroke-miterlimit="10" stroke-linecap="round" stroke-linejoin="round"/>
<path d="M218.219 668.529C221.115 678.995 232.476 688.798 231.675 700.338" stroke="#455A82" stroke-miterlimit="10" stroke-linecap="round" stroke-linejoin="round"/>
<path d="M223.625 679.54C224.295 676.136 226.065 673.558 226.066 673.563" stroke="#455A82" stroke-miterlimit="10" stroke-linecap="round" stroke-linejoin="round"/>
<path d="M225.191 681.989C225.624 680.673 227.23 676.424 228.512 675.626" stroke="#455A82" stroke-miterlimit="10" stroke-linecap="round" stroke-linejoin="round"/>
<path d="M228.559 688.061C228.613 686.253 232.387 679.215 232.224 679.574" stroke="#455A82" stroke-miterlimit="10" stroke-linecap="round" stroke-linejoin="round"/>
<path d="M218.566 682.775C222.539 683.577 219.947 682.987 226.423 684.496" stroke="#455A82" stroke-miterlimit="10" stroke-linecap="round" stroke-linejoin="round"/>
<path d="M220.277 689.079C222.337 689.378 229.739 690.647 229.734 690.647" stroke="#455A82" stroke-miterlimit="10" stroke-linecap="round" stroke-linejoin="round"/>
<path d="M222.406 692.252C222.705 692.653 230.102 693.84 230.724 693.633" stroke="#455A82" stroke-miterlimit="10" stroke-linecap="round" stroke-linejoin="round"/>
<path d="M254.156 678.097C254.156 678.097 257.367 677.51 257.94 677.772" stroke="#455A82" stroke-miterlimit="10" stroke-linecap="round" stroke-linejoin="round"/>
<path d="M253.715 679.946C253.715 679.946 258.634 679.562 258.485 679.643" stroke="#455A82" stroke-miterlimit="10" stroke-linecap="round" stroke-linejoin="round"/>
<path d="M252.44 681.61C251.407 679.879 250.254 677.807 249.586 675.925" stroke="#455A82" stroke-miterlimit="10" stroke-linecap="round" stroke-linejoin="round"/>
<path d="M253.526 659.446C253.526 659.446 250.702 662.098 249.965 662.469" stroke="#455A82" stroke-miterlimit="10" stroke-linecap="round" stroke-linejoin="round"/>
<path d="M254.024 662.215C254.025 662.883 249.713 665.57 249.955 665.81" stroke="#455A82" stroke-miterlimit="10" stroke-linecap="round" stroke-linejoin="round"/>
<path d="M249.62 663.849C249.62 663.849 247.648 661.458 247.258 661.149" stroke="#455A82" stroke-miterlimit="10" stroke-linecap="round" stroke-linejoin="round"/>
<path d="M250.57 700.357C252.45 701.213 256.59 702.471 258.643 701.982" stroke="#455A82" stroke-miterlimit="10" stroke-linecap="round" stroke-linejoin="round"/>
<path d="M248.266 702.463C251.253 703.689 253.996 704.844 257.261 704.877" stroke="#455A82" stroke-miterlimit="10" stroke-linecap="round" stroke-linejoin="round"/>
<path d="M241.895 706.33C245.065 707.812 247.471 708.332 250.928 708.852" stroke="#455A82" stroke-miterlimit="10" stroke-linecap="round" stroke-linejoin="round"/>
<path d="M245.622 703.29C243.576 699.892 245.392 694.962 245.386 691.556" stroke="#455A82" stroke-miterlimit="10" stroke-linecap="round" stroke-linejoin="round"/>
<path d="M237.5 708.195C237.222 704.598 237.874 698.617 238.354 695.034" stroke="#455A82" stroke-miterlimit="10" stroke-linecap="round" stroke-linejoin="round"/>
<path d="M250.874 712.667C237.842 715.073 235.089 719.14 225.719 727.845" stroke="#455A82" stroke-miterlimit="10" stroke-linecap="round" stroke-linejoin="round"/>
<path d="M238.236 712.221C237.633 713.89 236.69 716.468 236.16 718.162" stroke="#455A82" stroke-miterlimit="10" stroke-linecap="round" stroke-linejoin="round"/>
<path d="M232.836 712.805C232.017 714.6 231.425 719.748 231.744 721.719" stroke="#455A82" stroke-miterlimit="10" stroke-linecap="round" stroke-linejoin="round"/>
<path d="M233.981 720.128C233.949 719.929 241.717 718.095 244.1 719.816" stroke="#455A82" stroke-miterlimit="10" stroke-linecap="round" stroke-linejoin="round"/>
<path d="M229.082 724.821C232.385 722.035 237.819 724.658 241.18 725.206" stroke="#455A82" stroke-miterlimit="10" stroke-linecap="round" stroke-linejoin="round"/>
<path d="M325.435 617.886C325.104 619.605 319.538 636.779 316.902 632.495" stroke="#294064" stroke-miterlimit="10" stroke-linecap="round" stroke-linejoin="round"/>
<path d="M348.275 586.195C348.827 585.422 351.351 590.106 351.567 590.552C353.547 594.627 354.152 599.805 351.56 603.745C348.846 607.868 346.742 588.342 348.275 586.195Z" stroke="#294064" stroke-miterlimit="10" stroke-linecap="round" stroke-linejoin="round"/>
<path d="M362.699 667.374C368.954 665.509 377.719 644.822 379.093 638.938" stroke="#294064" stroke-miterlimit="10" stroke-linecap="round" stroke-linejoin="round"/>
<path d="M380.324 633.774C381.747 631.567 382.203 626.843 382.641 623.973" stroke="#294064" stroke-miterlimit="10" stroke-linecap="round" stroke-linejoin="round"/>
<path d="M325.356 618.639C325.342 618.61 324.997 617.559 325.439 618.224C327.484 621.29 326.241 626.449 331.667 625.614C333.363 625.353 335.269 623.798 337.066 624.451C338.645 625.026 340.448 628.426 342.38 629.433C351.098 633.983 360.358 637.676 369.119 642.056" stroke="#294064" stroke-miterlimit="10" stroke-linecap="round" stroke-linejoin="round"/>
<path d="M330.84 605.601C331.222 607.515 333.764 611.199 335.158 612.244C337.135 613.727 338.789 611.075 340.555 611.664C348.078 614.171 355.987 616.186 363.641 618.805C366.881 619.913 369.956 621.838 373.024 623.372C374.243 623.982 377.918 625.035 376.595 625.365" stroke="#294064" stroke-miterlimit="10" stroke-linecap="round" stroke-linejoin="round"/>
<path d="M335.074 590.571C335.553 592.008 337.995 592.678 339.143 593.478C347.357 599.192 345.768 591.857 352.429 593.394C354.465 593.864 354.653 596.885 356.914 597.962C364.079 601.374 371.659 603.799 378.587 607.262" stroke="#294064" stroke-miterlimit="10" stroke-linecap="round" stroke-linejoin="round"/>
<path d="M320.148 631.956C325.583 642.278 325.384 633.939 330.808 637.376C339.199 642.692 347.721 648.15 356.447 652.897" stroke="#294064" stroke-miterlimit="10" stroke-linecap="round" stroke-linejoin="round"/>
<path d="M45.5728 450.511C39.7792 447.8 32.0642 447.19 25.8828 446.766" stroke="#294064" stroke-miterlimit="10" stroke-linecap="round" stroke-linejoin="round"/>
<path d="M150.418 693.104C155.912 706.415 180.455 718.944 193.405 720.348" stroke="#294064" stroke-miterlimit="10" stroke-linecap="round" stroke-linejoin="round"/>
<path d="M151.301 702.035C154.179 709.01 165.233 715.768 171.234 718.888" stroke="#294064" stroke-miterlimit="10" stroke-linecap="round" stroke-linejoin="round"/>
<path d="M157.345 684.81C154.506 681.528 152.099 681.561 155.223 677.969" stroke="#294064" stroke-miterlimit="10" stroke-linecap="round" stroke-linejoin="round"/>
<path d="M196.707 753.167C198.024 753.126 184.295 756.484 181.012 756.414C177.379 756.338 172.97 754.685 170.766 751.608C170.204 750.824 170.232 750.352 171.041 750.035C175.437 748.312 190.688 753.353 196.707 753.167Z" stroke="#294064" stroke-miterlimit="10" stroke-linecap="round" stroke-linejoin="round"/>
<path d="M180.055 740.486C185.734 737.887 192.122 737.164 198.076 735.405" stroke="#294064" stroke-miterlimit="10" stroke-linecap="round" stroke-linejoin="round"/>
<path d="M294.25 510.62C296.478 510.612 298.579 510.101 300.766 509.926" stroke="#294064" stroke-miterlimit="10" stroke-linecap="round" stroke-linejoin="round"/>
<path d="M295.602 512.856C297.098 512.922 298.562 512.698 300.045 512.524" stroke="#294064" stroke-miterlimit="10" stroke-linecap="round" stroke-linejoin="round"/>
<path d="M253.867 416.138C254.765 417.463 255.052 419.389 255.225 420.952" stroke="#294064" stroke-miterlimit="10" stroke-linecap="round" stroke-linejoin="round"/>
<path d="M124.004 490.535C125.285 491.573 129.113 492.262 130.891 492.713" stroke="#294064" stroke-miterlimit="10" stroke-linecap="round" stroke-linejoin="round"/>
<path d="M122.387 493.982C125.158 495.023 128.169 495.833 131.007 496.73" stroke="#294064" stroke-miterlimit="10" stroke-linecap="round" stroke-linejoin="round"/>
<path d="M163.938 609.451C166.266 609.222 168.675 607.625 170.73 606.58" stroke="#294064" stroke-miterlimit="10" stroke-linecap="round" stroke-linejoin="round"/>
<path d="M291.887 493.244C292.817 491.628 295.623 488.56 299.478 491.185" stroke="#294064" stroke-miterlimit="10" stroke-linecap="round" stroke-linejoin="round"/>
<path d="M235.002 423.063C231.839 422.929 230.176 419.308 230.176 419.308" stroke="#294064" stroke-miterlimit="10" stroke-linecap="round" stroke-linejoin="round"/>
<path d="M130.605 473.183C136.198 470.813 138.813 475.635 138.622 476.233" stroke="#294064" stroke-miterlimit="10" stroke-linecap="round" stroke-linejoin="round"/>
<path d="M153.285 586.846C153.372 582.774 157.469 581.248 160.478 582.514" stroke="#294064" stroke-miterlimit="10" stroke-linecap="round" stroke-linejoin="round"/>
<path d="M78.0508 410.603C78.0508 406.967 80.9994 404.017 84.6367 404.017C88.2741 404.017 91.2228 406.967 91.2228 410.603C91.2228 414.241 88.2741 417.189 84.6367 417.189C80.9994 417.189 78.0508 414.241 78.0508 410.603Z" fill="white" stroke="#294064" stroke-miterlimit="10" stroke-linecap="round" stroke-linejoin="round"/>
<path d="M81.6236 406.619C79.121 408.254 79.0603 412.492 81.2391 414.373" stroke="#294064" stroke-miterlimit="10" stroke-linecap="round" stroke-linejoin="round"/>
<path d="M88.4023 414.086C89.2568 413.019 89.6882 411.993 89.7598 410.789" stroke="#294064" stroke-miterlimit="10" stroke-linecap="round" stroke-linejoin="round"/>
<path d="M83.0859 406.85C83.0859 406.154 83.6503 405.589 84.3466 405.589C85.0428 405.589 85.6073 406.154 85.6073 406.85C85.6073 407.546 85.0428 408.111 84.3466 408.111C83.6503 408.111 83.0859 407.546 83.0859 406.85Z" stroke="#294064" stroke-width="1.29747" stroke-miterlimit="10" stroke-linecap="round" stroke-linejoin="round"/>
<path d="M83.2617 414.251C83.2617 413.555 83.8262 412.99 84.5224 412.99C85.2187 412.99 85.7831 413.555 85.7831 414.251C85.7831 414.948 85.2187 415.512 84.5224 415.512C83.8262 415.512 83.2617 414.948 83.2617 414.251Z" stroke="#294064" stroke-width="1.29747" stroke-miterlimit="10" stroke-linecap="round" stroke-linejoin="round"/>
<path d="M84.4268 406.931C83.9591 406.944 83.5813 407.356 83.5941 407.823L83.7428 413.355C83.7555 413.824 84.1375 414.171 84.6053 414.159C85.0731 414.145 85.4508 413.764 85.4381 413.296L85.2894 407.764C85.2767 407.296 84.8946 406.919 84.4268 406.931Z" fill="white" stroke="#294064" stroke-miterlimit="10" stroke-linecap="round" stroke-linejoin="round"/>
<path d="M258.488 565.577C259.992 567.464 259.882 572.374 259.455 573.992" stroke="white" stroke-miterlimit="10" stroke-linecap="round" stroke-linejoin="round"/>
<path d="M259.118 575.772C259.039 577.09 257.745 579.695 257.086 580.837" stroke="white" stroke-miterlimit="10" stroke-linecap="round" stroke-linejoin="round"/>
<path d="M290.5 484.267C289.792 486.196 290.365 489.634 291.578 490.922" stroke="white" stroke-miterlimit="10" stroke-linecap="round" stroke-linejoin="round"/>
<path d="M272.645 532.61C272.979 536.906 275.554 540.766 275.554 540.766" stroke="white" stroke-miterlimit="10" stroke-linecap="round" stroke-linejoin="round"/>
<path d="M185.695 404.017C188.181 404.358 190.208 405.568 191.978 406.751" stroke="white" stroke-miterlimit="10" stroke-linecap="round" stroke-linejoin="round"/>
<path d="M150.355 573.498C148.602 575.155 148.995 579.888 150.042 581.739" stroke="white" stroke-miterlimit="10" stroke-linecap="round" stroke-linejoin="round"/>
<path d="M150.699 582.996C150.699 582.996 151.403 584.591 152.587 585.369" stroke="white" stroke-miterlimit="10" stroke-linecap="round" stroke-linejoin="round"/>
<path d="M347.149 419.465C348.597 415.338 346.619 412.308 344.773 411.67C343.623 412.681 341.609 415.413 341.609 415.413L342.346 418.221C342.346 418.221 344.664 418.851 347.149 419.465Z" fill="#294064"/>
<path d="M330.221 463.541C330.274 463.521 332.941 468.813 333.381 469.491C333.764 470.081 335.054 471.613 334.934 470.92C334.739 469.807 335.272 466.098 334.679 465.259C334.263 464.669 332.239 463.722 331.575 463.62C331.425 463.597 329.718 463.736 330.221 463.541Z" fill="#294064"/>
<g style="mix-blend-mode:multiply">
<path d="M331.274 416.339C332.334 421.486 332.416 431.007 331.703 440.487C330.973 450.178 328.207 461.792 328.207 461.792L337.195 465.932C337.195 465.932 338.599 439.99 334.279 416.917C334.279 416.917 332.073 416.147 331.274 416.339Z" fill="#B3A9EC" fill-opacity="0.5"/>
<path d="M347.736 419.991C348.911 427.617 348.402 438.771 345.742 452.904C347.269 450.167 352.506 428.976 352.213 421.027L347.736 419.991Z" fill="#B3A9EC" fill-opacity="0.5"/>
<path d="M332.263 598.017C329.711 609.633 319.338 620.636 313.309 624.765C315.29 626.752 317.089 628.433 317.089 628.433C323.23 623.902 331.428 605.04 332.245 599.502L332.263 598.017Z" fill="#B3A9EC" fill-opacity="0.5"/>
<path d="M176.208 698.779C168.772 692.642 160.113 683.779 157.958 673.975C158.043 681.83 157.047 684.144 157.047 684.144C157.047 684.144 160.891 689.75 170.479 695.361L176.208 698.779Z" fill="#B3A9EC" fill-opacity="0.5"/>
<path d="M95.9258 432.241C102.243 413.631 105.495 411.747 108.78 407.87C106.507 407.047 103.597 406.714 103.597 406.714C98.7643 411.132 95.9335 425.241 95.9258 432.241Z" fill="#B3A9EC" fill-opacity="0.5"/>
<path d="M346.604 582.392C347.656 587.691 347.984 628.475 354.041 630.273C358.468 631.587 360.035 621.016 358.29 614.855C353.95 599.534 354.05 599.913 352.75 591.208C351.526 583.013 345.59 577.274 346.604 582.392Z" fill="#B3A9EC" fill-opacity="0.5"/>
<path d="M375.066 643.042C375.066 643.042 366.711 664.362 360.488 665.743C350.46 667.969 365.788 654.265 366.648 653.338C369.71 650.035 375.066 643.042 375.066 643.042Z" fill="#B3A9EC" fill-opacity="0.5"/>
<path d="M197.634 753.987C197.634 753.987 166.31 762.366 157.751 754.651C152.067 749.527 169.51 747.588 171.468 747.729C175.876 748.048 180.238 748.608 184.523 749.658C188.993 750.752 197.634 753.987 197.634 753.987Z" fill="#B3A9EC" fill-opacity="0.5"/>
<path d="M197.387 728.068C184.202 736.123 171.136 730.677 163.223 723.949C174.775 727.807 183.823 729.102 197.387 728.068Z" fill="#B3A9EC" fill-opacity="0.5"/>
<path d="M151.969 696.138C156.887 707.01 177.415 721.969 193.01 720.358C193.015 720.337 197.087 712.009 197.087 712.009C197.087 712.009 192.886 713.62 183.632 712.313C171.483 710.598 161.845 703.611 151.969 696.138Z" fill="#B3A9EC" fill-opacity="0.5"/>
<path d="M46.4068 447.575C36.5346 444.654 32.0871 443.899 14.8125 444.549C18.5914 443.139 20.8497 436.2 25.0311 436.529C29.4096 436.875 41.4126 441.505 46.4068 447.575Z" fill="#B3A9EC" fill-opacity="0.5"/>
<path d="M62.1133 560.466C65.9128 560.979 75.1418 556.676 78.763 551.611L75.1195 548.336C71.2388 553.314 62.1133 560.466 62.1133 560.466Z" fill="#B3A9EC" fill-opacity="0.5"/>
</g>
</g>
<defs>
<clipPath id="clip0_5304_23862">
<path d="M0 0H414V841C414 852.046 405.046 861 394 861H20C8.95432 861 0 852.046 0 841V0Z" fill="white"/>
</clipPath>
</defs>
</svg>
