<svg width="414" height="861" viewBox="0 0 414 861" fill="none" xmlns="http://www.w3.org/2000/svg">
<g clip-path="url(#clip0_5304_23660)">
<path d="M0 0H414V841C414 852.046 405.046 861 394 861H20C8.95432 861 0 852.046 0 841V0Z" fill="#50A1B7"/>
<path d="M459 514.964C449.467 561.54 359.924 560.639 354.642 517.945C352.705 502.294 369.952 499.884 379.358 513.473C394.665 535.585 374 565.421 350.206 560.498C307 551.558 287.881 490.341 259 443C207.144 358 76 329.366 -14 406C-72.8438 456.105 -37 481.259 -103 517.945" stroke="white" stroke-width="0.968575" stroke-miterlimit="10" stroke-linecap="round" stroke-dasharray="9.69 9.69"/>
<path d="M30.3359 614.992C30.3359 536.018 94.3417 471.996 173.296 471.996C252.251 471.996 316.256 536.018 316.256 614.992C316.256 693.967 252.251 757.988 173.296 757.988C94.3417 757.988 30.3359 693.967 30.3359 614.992Z" fill="#FFF2D7" fill-opacity="0.65" stroke="#2E4166" stroke-width="0.745811" stroke-miterlimit="10"/>
<path d="M237.752 703.38C242.314 701.471 244.616 698.607 261.881 695.039C264.856 694.424 265.606 699.509 265.162 700.445C263.437 704.075 260.705 706.591 257.71 709.183C250.01 715.843 248.419 708.905 239.178 712.871C237.203 713.718 225.816 724.833 223.938 726.087" fill="#FFC6B2"/>
<path d="M237.752 703.38C242.314 701.471 244.616 698.607 261.881 695.039C264.856 694.424 265.606 699.509 265.162 700.445C263.437 704.075 260.705 706.591 257.71 709.183C250.01 715.843 248.419 708.905 239.178 712.871C237.203 713.718 225.816 724.833 223.938 726.087" stroke="#294064" stroke-width="0.745811" stroke-miterlimit="10" stroke-linecap="round" stroke-linejoin="round"/>
<path d="M120.638 701.85C120.638 701.85 142.35 719.351 171.805 716.735C201.26 714.12 227.953 685.564 245.564 694.55C257.378 700.579 245.062 719.025 245.062 719.025C245.062 719.025 235.315 737.645 212.295 745.761C189.275 753.876 169.456 753.715 151.863 752.135C141.026 751.16 127.137 747.192 113.49 740.663C99.357 733.902 90.2383 719.803 90.2383 719.803" fill="#566598"/>
<path d="M120.638 701.85C120.638 701.85 142.35 719.351 171.805 716.735C201.26 714.12 227.953 685.564 245.564 694.55C257.378 700.579 245.062 719.025 245.062 719.025C245.062 719.025 235.315 737.645 212.295 745.761C189.275 753.876 169.456 753.715 151.863 752.135C141.026 751.16 127.137 747.192 113.49 740.663C99.357 733.902 90.2383 719.803 90.2383 719.803" stroke="#294064" stroke-width="0.745811" stroke-miterlimit="10" stroke-linecap="round" stroke-linejoin="round"/>
<path d="M202.332 720.706C213.279 726.496 220.877 732.424 220.877 732.424C220.877 732.424 238.777 721.384 243.915 716.58C225.897 712.73 222.02 710.214 215.679 702.896" fill="#FFC6B2"/>
<path d="M202.332 720.706C213.279 726.496 220.877 732.424 220.877 732.424C220.877 732.424 238.777 721.384 243.915 716.58C225.897 712.73 222.02 710.214 215.679 702.896" stroke="#294064" stroke-width="0.745811" stroke-miterlimit="10" stroke-linecap="round" stroke-linejoin="round"/>
<path d="M249.648 712.08C255.257 717.29 258.148 723.928 262.312 724.147C270.503 724.575 272.841 710.681 279.316 706.653C290.587 699.643 295.633 688.534 294.412 684.491C293.167 680.367 285.142 688.395 279.4 690.203C268.816 693.538 255.766 696.419 255.766 696.419C255.766 696.419 257.041 703.709 249.648 712.08Z" fill="white" stroke="#294064" stroke-width="0.745811" stroke-miterlimit="10" stroke-linecap="round" stroke-linejoin="round"/>
<path d="M219.328 731.11C224.172 737.5 226.48 742.954 230.673 743.882C238.923 745.709 242.057 735.791 248.929 731.893C252.934 729.62 255.42 731.599 262.099 725.707C268.776 719.817 277.175 711.658 275.641 708.328C273.742 704.21 260.617 711.365 254.488 712.288C243.195 713.988 230.218 713.084 230.218 713.084C230.218 713.084 228.206 723.61 219.328 731.11Z" fill="white" stroke="#294064" stroke-width="0.745811" stroke-miterlimit="10" stroke-linecap="round" stroke-linejoin="round"/>
<path d="M223.055 736.278C234.487 740.317 239.405 737.898 244.098 735.741C242.189 739.767 237.097 744.701 232.044 744.288C230.736 744.182 228.791 743.356 227.828 742.463C225.733 740.521 224.8 738.541 223.055 736.278Z" fill="#F4CC85" stroke="#294064" stroke-width="0.745811" stroke-miterlimit="10" stroke-linecap="round" stroke-linejoin="round"/>
<path d="M259.142 727.786C266.444 723.208 274.333 714.461 275.726 709.711C277.118 704.961 267.659 708.219 264.445 709.266C255.916 712.045 259.094 721.518 259.142 727.786Z" fill="#F4CC85" stroke="#294064" stroke-width="0.745811" stroke-miterlimit="10" stroke-linecap="round" stroke-linejoin="round"/>
<path d="M281.703 689.535C281.872 694.387 282.764 697.348 284.593 701.913C289.001 698.229 292.387 694.194 294.271 688.679C296.371 682.526 292.489 681.985 288.143 685.22C286.526 686.424 285.541 686.919 281.703 689.535Z" fill="#F4CC85" stroke="#294064" stroke-width="0.745811" stroke-miterlimit="10" stroke-linecap="round" stroke-linejoin="round"/>
<path d="M221.52 729.329C222.857 730.231 224.139 731.296 225.517 732.119" stroke="#294064" stroke-width="0.745811" stroke-miterlimit="10" stroke-linecap="round" stroke-linejoin="round"/>
<path d="M223.898 726.702C225.104 727.209 226.177 728.05 227.362 728.61" stroke="#294064" stroke-width="0.745811" stroke-miterlimit="10" stroke-linecap="round" stroke-linejoin="round"/>
<path d="M225.805 724.125C227.07 724.495 228.82 725.379 229.933 726.114" stroke="#294064" stroke-width="0.745811" stroke-miterlimit="10" stroke-linecap="round" stroke-linejoin="round"/>
<path d="M227.73 721.125C229.277 721.717 230.792 722.426 232.285 723.13" stroke="#294064" stroke-width="0.745811" stroke-miterlimit="10" stroke-linecap="round" stroke-linejoin="round"/>
<path d="M228.887 718.28C230.761 718.506 232.5 719.71 234.371 719.934" stroke="#294064" stroke-width="0.745811" stroke-miterlimit="10" stroke-linecap="round" stroke-linejoin="round"/>
<path d="M229.922 715.277C231.922 715.518 234.067 716.27 236.029 716.758" stroke="#294064" stroke-width="0.745811" stroke-miterlimit="10" stroke-linecap="round" stroke-linejoin="round"/>
<path d="M251.992 709.555C252.889 709.555 254.233 710.293 255.058 710.706" stroke="#294064" stroke-width="0.745811" stroke-miterlimit="10" stroke-linecap="round" stroke-linejoin="round"/>
<path d="M253.605 706.679C255.345 707.115 257.045 707.802 258.816 708.097" stroke="#294064" stroke-width="0.745811" stroke-miterlimit="10" stroke-linecap="round" stroke-linejoin="round"/>
<path d="M255.289 703.847C257.295 703.847 259.401 704.33 261.381 704.614" stroke="#294064" stroke-width="0.745811" stroke-miterlimit="10" stroke-linecap="round" stroke-linejoin="round"/>
<path d="M255.938 700.243C257.934 700.243 260.266 700.289 262.22 699.898" stroke="#294064" stroke-width="0.745811" stroke-miterlimit="10" stroke-linecap="round" stroke-linejoin="round"/>
<path d="M204.074 723.751C205.128 724.138 214.914 728.515 214.969 728.489C217.396 727.366 225.264 712.954 225.346 710.261C225.366 709.563 220.835 707.846 215.186 697.996C213.261 694.639 214.782 703.656 211.759 701.241" fill="#566598"/>
<path d="M204.074 723.751C205.128 724.138 214.914 728.515 214.969 728.489C217.396 727.366 225.264 712.954 225.346 710.261C225.366 709.563 220.835 707.846 215.186 697.996C213.261 694.639 214.782 703.656 211.759 701.241" stroke="#294064" stroke-width="0.745811" stroke-miterlimit="10" stroke-linecap="round" stroke-linejoin="round"/>
<path d="M114.434 705.038C133.825 690.114 137.441 656.783 164.708 656.443C177.717 656.279 189.292 668.535 199.47 677.006C213.873 688.993 218.059 690.798 220.73 697.803C224.348 707.293 218.504 709.744 216.053 715.369C213.093 722.163 210.098 728.462 199.664 726.732C187.478 724.712 187.432 715.962 170.234 703.898C169.887 703.656 168.257 705.082 167.902 704.84C167.616 704.645 166.888 699.913 166.598 699.721C166.44 700.074 166.051 704.015 165.897 704.375C165.77 704.682 163.414 703.445 163.289 703.754C157.505 718.057 156.747 733.733 141.82 743.213C131.59 749.709 116.17 748.027 104.484 739C99.9548 735.502 97.5506 730.285 93.0273 723.721" fill="#6976A3"/>
<path d="M114.434 705.038C133.825 690.114 137.441 656.783 164.708 656.443C177.717 656.279 189.292 668.535 199.47 677.006C213.873 688.993 218.059 690.798 220.73 697.803C224.348 707.293 218.504 709.744 216.053 715.369C213.093 722.163 210.098 728.462 199.664 726.732C187.478 724.712 187.432 715.962 170.234 703.898C169.887 703.656 168.257 705.082 167.902 704.84C167.616 704.645 166.888 699.913 166.598 699.721C166.44 700.074 166.051 704.015 165.897 704.375C165.77 704.682 163.414 703.445 163.289 703.754C157.505 718.057 156.747 733.733 141.82 743.213C131.59 749.709 116.17 748.027 104.484 739C99.9548 735.502 97.5506 730.285 93.0273 723.721" stroke="#294064" stroke-width="0.745811" stroke-miterlimit="10" stroke-linecap="round" stroke-linejoin="round"/>
<path d="M74.1992 644.564C78.6039 648.798 83.5736 652.257 89.7972 653.924C100.787 656.872 107.87 651.686 118.437 658.428C121.102 660.129 123.397 662.555 124.64 665.502C127.798 672.991 126.576 686.056 120.599 691.965C110.426 702.021 88.0894 705.386 76.7554 695.646" fill="#F57450"/>
<path d="M74.1992 644.564C78.6039 648.798 83.5736 652.257 89.7972 653.924C100.787 656.872 107.87 651.686 118.437 658.428C121.102 660.129 123.397 662.555 124.64 665.502C127.798 672.991 126.576 686.056 120.599 691.965C110.426 702.021 88.0894 705.386 76.7554 695.646" stroke="#294064" stroke-width="0.745811" stroke-miterlimit="10" stroke-linecap="round" stroke-linejoin="round"/>
<path d="M103.111 695.336C98.673 683.257 105.221 681.698 97.9544 667.297C93.9349 659.33 87.4761 659.947 81.8044 655.462C75.7586 650.676 77.3404 643.139 68.9886 641.333C58.694 639.104 44.0722 646.022 43.1781 659.021C42.4798 669.176 45.0019 675.827 49.1947 684.939C52.3152 691.72 60.5676 703.187 70.1573 713.215C82.1952 725.805 97.7562 736.236 107.864 741.119C107.864 741.119 105.869 731.961 109.574 721.603C112.139 714.433 116.985 711.259 121.773 704.48C122.312 703.716 121.426 701.971 121.913 701.224C122.484 700.348 124.416 700.474 124.884 699.639C125.799 698.012 123.738 696.435 124.082 695.077C124.47 693.537 127.163 692.265 126.485 691.275C124.06 687.737 105.623 688.839 105.734 684.915" fill="#F57450"/>
<path d="M103.111 695.336C98.673 683.257 105.221 681.698 97.9544 667.297C93.9349 659.33 87.4761 659.947 81.8044 655.462C75.7586 650.676 77.3404 643.139 68.9886 641.333C58.694 639.104 44.0722 646.022 43.1781 659.021C42.4798 669.176 45.0019 675.827 49.1947 684.939C52.3152 691.72 60.5676 703.187 70.1573 713.215C82.1952 725.805 97.7562 736.236 107.864 741.119C107.864 741.119 105.869 731.961 109.574 721.603C112.139 714.433 116.985 711.259 121.773 704.48C122.312 703.716 121.426 701.971 121.913 701.224C122.484 700.348 124.416 700.474 124.884 699.639C125.799 698.012 123.738 696.435 124.082 695.077C124.47 693.537 127.163 692.265 126.485 691.275C124.06 687.737 105.623 688.839 105.734 684.915" stroke="#294064" stroke-width="0.745811" stroke-miterlimit="10" stroke-linecap="round" stroke-linejoin="round"/>
<path d="M43.1939 604.422C42.5639 601.268 33.0177 599.394 31.0017 607.894C29.1211 615.823 32.4505 622.593 32.7984 627.816C33.1803 633.547 32.5424 633.958 33.0977 641.417C34.6197 661.864 42.9825 674.044 44.1261 669.619C44.576 667.88 42.4691 662.107 47.6082 655.49C50.9925 651.133 56.4769 650.773 59.3844 651.335C67.8628 652.973 73.3547 667.168 77.9391 664.082C82.2697 661.165 68.7944 650.449 64.6224 648.048C60.1792 645.491 57.3341 643.942 55.311 642.894C51.3722 640.85 46.3611 629.569 45.6359 625.653C45.1982 623.29 45.6359 621.066 46.1992 618.779" fill="#2F2F2F"/>
<path d="M43.1939 604.422C42.5639 601.268 33.0177 599.394 31.0017 607.894C29.1211 615.823 32.4505 622.593 32.7984 627.816C33.1803 633.547 32.5424 633.958 33.0977 641.417C34.6197 661.864 42.9825 674.044 44.1261 669.619C44.576 667.88 42.4691 662.107 47.6082 655.49C50.9925 651.133 56.4769 650.773 59.3844 651.335C67.8628 652.973 73.3547 667.168 77.9391 664.082C82.2697 661.165 68.7944 650.449 64.6224 648.048C60.1792 645.491 57.3341 643.942 55.311 642.894C51.3722 640.85 46.3611 629.569 45.6359 625.653C45.1982 623.29 45.6359 621.066 46.1992 618.779" stroke="#294064" stroke-width="0.745811" stroke-miterlimit="10" stroke-linecap="round" stroke-linejoin="round"/>
<path d="M43.1436 600.741C38.0565 597.443 36.8107 607.227 37.5386 610.639C38.2171 613.819 42.448 615.334 45.1435 616.032" fill="#F57450"/>
<path d="M43.1436 600.741C38.0565 597.443 36.8107 607.227 37.5386 610.639C38.2171 613.819 42.448 615.334 45.1435 616.032" stroke="#294064" stroke-width="0.745811" stroke-miterlimit="10" stroke-linecap="round" stroke-linejoin="round"/>
<path d="M78.4323 595.171C79.2881 595.263 80.1568 595.413 80.944 595.648C90.3072 598.448 92.7337 605.937 92.6392 610.346C92.4707 618.34 90.4906 616.72 91.0426 625.064C91.4705 631.495 87.2158 637.418 79.7845 638.819C72.7033 640.153 70.6565 637.398 68.8468 637.341C68.6209 635.951 67.9615 634.621 66.8242 633.617C65.8888 632.792 65.1584 631.725 63.664 629.051C63.6342 628.998 63.5312 628.812 63.5136 628.781C63.1604 628.147 62.9564 627.78 62.721 627.375C62.3556 626.743 61.9766 626.106 61.5126 625.334C61.3891 625.128 60.7417 624.057 60.703 623.993C60.2117 623.18 59.8652 622.59 59.5229 622.008C59.0537 620.964 58.6101 619.943 58.188 618.935C57.9553 618.379 57.7064 617.694 57.375 616.769L73.383 595.139C73.383 595.139 75.8614 594.895 78.4323 595.171Z" fill="#2F2F2F" stroke="#2E4166" stroke-width="0.745811" stroke-miterlimit="10" stroke-linecap="round"/>
<path d="M67.7436 599.829C71.2037 598.928 75.6658 598.109 76.653 598.472C85.4884 601.726 81.869 608.157 85.2994 612.126C88.7317 616.094 91.0674 614.858 90.1542 616.627C89.3485 618.19 87.5666 618.961 87.5666 618.961C87.5666 618.961 87.4796 620.657 87.5685 622.466C87.7241 625.638 86.7016 628.808 84.64 631.47C82.0783 634.777 76.4104 636.15 72.2854 636.834C69.2532 637.336 68.9643 637.006 66.2878 638.586C64.1193 639.867 59.3655 635.439 58.4956 633.558C56.0718 628.32 51.1442 623.691 55.4057 617.559C57.2928 614.843 59.7957 612.533 61.7469 609.856C62.7227 608.517 63.0818 606.835 64.1521 605.561C65.1875 604.328 62.3802 602.404 63.5658 601.299C63.9522 600.939 65.6672 600.37 67.7436 599.829Z" fill="#FFB9AA" stroke="#2E4166" stroke-width="0.745811" stroke-miterlimit="10" stroke-linecap="round"/>
<path d="M84.3294 622.763C82.2789 623.633 80.0117 623.362 80.0117 623.362" stroke="#2E4166" stroke-width="0.745811" stroke-miterlimit="10" stroke-linecap="round"/>
<path d="M79.9387 607.339C78.042 606.646 75.6896 608.924 75.0117 610.456" stroke="#2E4166" stroke-width="0.745811" stroke-miterlimit="10" stroke-linecap="round"/>
<path d="M63.4611 623.645C66.4841 623.005 68.4938 620.178 67.953 617.329C67.4103 614.48 64.5204 612.689 61.4976 613.328C58.4749 613.967 56.4641 616.795 57.0063 619.644C57.2706 621.032 58.0922 622.169 59.2153 622.896C60.3967 623.661 61.9114 623.972 63.4611 623.645Z" fill="#FFB9AA" stroke="#2E4166" stroke-width="0.745811" stroke-miterlimit="10" stroke-linecap="round"/>
<path d="M63.1623 620.509C64.47 620.232 65.3243 618.932 65.0725 617.604C64.8199 616.277 63.555 615.425 62.2474 615.701C60.9397 615.978 60.0846 617.278 60.3372 618.606C60.5899 619.933 61.8548 620.785 63.1623 620.509Z" fill="#F09885" stroke="#F09885" stroke-width="0.745811" stroke-miterlimit="10"/>
<path d="M73.6889 618.826C75.2726 618.894 76.6044 618.455 76.6618 617.844C76.7174 617.234 75.4782 616.684 73.8926 616.616C72.3071 616.548 70.9772 616.988 70.9198 617.599C70.8642 618.209 72.1034 618.759 73.6889 618.826Z" fill="#FF7CAB"/>
<path d="M59.2812 618.367C59.2812 618.367 60.0044 616.538 61.574 616.129C63.2427 615.694 64.5808 616.546 65.1865 617.351" stroke="#294064" stroke-width="0.745811" stroke-miterlimit="10" stroke-linecap="round"/>
<path d="M63.957 622.316C63.9894 622.7 63.9924 622.847 64.1962 623.344C64.9115 625.088 66.5939 624.445 67.8331 623.78C68.6462 623.342 69.4779 621.444 69.426 620.543C69.4001 620.089 69.1093 619.785 68.8444 619.46C68.5684 619.122 68.4388 618.663 67.9516 618.597C66.5161 618.403 64.7578 621.436 65.0026 622.591" fill="#FFB9AA"/>
<path d="M63.957 622.316C63.9894 622.7 63.9924 622.847 64.1962 623.344C64.9115 625.088 66.5939 624.445 67.8331 623.78C68.6462 623.342 69.4779 621.444 69.426 620.543C69.4001 620.089 69.1093 619.785 68.8444 619.46C68.5684 619.122 68.4388 618.663 67.9516 618.597C66.5161 618.403 64.7578 621.436 65.0026 622.591" stroke="#FFB9AA" stroke-width="0.745811" stroke-miterlimit="10" stroke-linecap="round"/>
<path d="M72.4979 636.963C72.4979 636.963 68.8304 639.229 71.1346 647.287C71.7607 649.479 77.4194 654.596 78.4048 656.653C71.6218 652.756 64.8643 647.556 55.3242 642.6C55.3242 642.6 55.4504 638.159 56.9477 630.099" fill="#FFB9AA"/>
<path d="M72.4979 636.963C72.4979 636.963 68.8304 639.229 71.1346 647.287C71.7607 649.479 77.4194 654.596 78.4048 656.653C71.6218 652.756 64.8643 647.556 55.3242 642.6C55.3242 642.6 55.4504 638.159 56.9477 630.099" stroke="#294064" stroke-width="0.745811" stroke-miterlimit="10" stroke-linecap="round" stroke-linejoin="round"/>
<path d="M72.3823 634.183C73.0139 636.038 69.6724 638.094 69.6724 638.094C69.6724 638.094 68.8519 639.563 68.3907 639.337C66.8255 638.566 65.1481 634.996 65.0329 633.484C64.9797 632.788 65.3252 632.037 65.4196 631.341" fill="#FFB9AA"/>
<path d="M72.4035 589.728C68.673 589.435 64.4809 591.762 59.7702 592.496C57.6061 592.834 55.0173 592.97 53.0667 592.998C41.3283 593.167 40.1414 601.981 39.6452 608.338C39.3451 612.184 40.6952 615.648 40.6185 617.062C40.936 617.391 38.1852 628.455 41.7703 633.359C46.2085 639.432 49.6346 637.422 53.1575 637.778C55.7199 638.037 55.5423 640.888 55.5423 640.888C55.5423 640.888 60.5176 634.493 61.431 631.134C62.0917 628.703 62.3277 624.84 59.2105 622.376C57.3943 620.94 56.4113 618.328 57.8459 615.495C59.8347 611.566 67.6394 611.294 68.1395 617.719C68.2636 619.323 69.4676 610.27 70.8828 608.626C75.9098 602.791 83.6634 601.779 78.6382 593.999C76.7193 591.025 74.6429 589.904 72.4035 589.728Z" fill="#2F2F2F" stroke="#2E4166" stroke-width="0.745811" stroke-miterlimit="10" stroke-linecap="round"/>
<path d="M61.8546 616.44C61.8546 616.44 61.2534 618.798 62.4779 620.007" stroke="#294064" stroke-width="0.745811" stroke-miterlimit="10" stroke-linecap="round" stroke-linejoin="round"/>
<path d="M71.5741 636.374C72.1863 636.115 70.0743 639.354 68.929 639.323C67.3648 639.281 64.2363 638.326 63.2134 637.424C62.9961 637.232 62.2181 637.077 62.4723 636.914C63.9018 635.994 69.2307 637.362 71.5741 636.374Z" fill="#F09885"/>
<path d="M78.2852 595.365C81.8026 592.565 89.0746 595.599 91.3714 599.843C94.0535 604.8 93.8424 609.494 93.4275 614.555C93.1959 617.373 93.7183 621.078 94.8037 623.712C95.515 625.439 96.806 628.01 97.345 629.746C99.1751 635.656 96.7615 639.784 90.5175 640.203C87.8169 640.384 85.8758 639.602 85.8758 639.602C85.8758 639.602 89.2135 639.113 90.7676 638.38C92.9199 637.364 94.0053 635.66 94.2443 632.505C94.5684 628.23 93.0107 623.663 92.1623 619.648C91.3159 615.644 91.2566 613.101 91.4511 608.378C91.5622 605.694 90.9713 601.725 87.2149 599.078C80.3541 594.242 78.2852 595.365 78.2852 595.365Z" fill="#2F2F2F" stroke="#294064" stroke-width="0.745811" stroke-miterlimit="10" stroke-linecap="round" stroke-linejoin="round"/>
<path d="M58.6367 639.294C58.6367 639.294 68.333 635.281 64.15 627.509C62.5678 624.57 62.0701 625.059 60.1219 623.653C65.5638 623.937 70.0908 629.782 68.2719 634.781C67.2235 637.658 64.835 638.644 62.2714 639.274C60.1985 639.783 58.6367 639.294 58.6367 639.294Z" fill="#2F2F2F" stroke="#294064" stroke-width="0.745811" stroke-miterlimit="10" stroke-linecap="round" stroke-linejoin="round"/>
<path d="M77.4102 613.483C77.4102 613.483 80.3923 614.543 81.3277 611.619" stroke="#294064" stroke-width="0.745811" stroke-miterlimit="10" stroke-linecap="round" stroke-linejoin="round"/>
<path d="M97.2445 659.784C97.2445 659.784 90.3152 655.478 87.3237 655C84.0656 654.48 78.3532 654.509 78.2717 656.527C78.1457 659.595 83.534 657.34 88.3573 659.958" fill="#FFC6B2"/>
<path d="M97.2445 659.784C97.2445 659.784 90.3152 655.478 87.3237 655C84.0656 654.48 78.3532 654.509 78.2717 656.527C78.1457 659.595 83.534 657.34 88.3573 659.958" stroke="#294064" stroke-width="0.745811" stroke-miterlimit="10" stroke-linecap="round" stroke-linejoin="round"/>
<path d="M100.454 660.849C96.9703 659.811 93.0361 657.579 90.0002 657.733C86.7217 657.901 77.4326 660.806 77.616 663.002C77.8938 666.363 83.2617 662.778 88.9092 662.555" fill="#FFC6B2"/>
<path d="M100.454 660.849C96.9703 659.811 93.0361 657.579 90.0002 657.733C86.7217 657.901 77.4326 660.806 77.616 663.002C77.8938 666.363 83.2617 662.778 88.9092 662.555" stroke="#294064" stroke-width="0.745811" stroke-miterlimit="10" stroke-linecap="round" stroke-linejoin="round"/>
<path d="M110.602 680.024C108.54 673.803 103.796 662.141 99.9734 660.215C97.6895 659.064 94.5999 658.894 91.0788 659.711C87.6854 660.5 81.384 664.339 81.9989 666.277C83.1103 669.771 89.8341 664.78 93.2219 664.383C93.9498 664.298 94.9352 664.678 96.0947 665.278C93.5219 666.936 91.677 667.461 89.358 669.46C88.23 670.429 87.7169 671.461 88.2096 672.556C88.5541 673.321 89.8544 673.341 90.738 673.039C93.7071 672.026 99.1028 668.743 100.138 671.705C103.065 680.085 105.547 679.494 110.602 680.024Z" fill="#FFC6B2" stroke="#294064" stroke-width="0.745811" stroke-miterlimit="10" stroke-linecap="round" stroke-linejoin="round"/>
<path d="M90.4597 668.871C92.9547 669.266 90.1078 672.899 88.6167 672.28C87.2571 671.717 90.0022 668.799 90.4597 668.871Z" fill="#F57450" stroke="#294064" stroke-width="0.745811" stroke-miterlimit="10" stroke-linecap="round"/>
<path d="M85.3265 662.943C85.6765 662.952 85.897 662.974 86.1766 663.245C87.5621 664.581 84.4503 666.285 83.3167 666.042C81.0218 665.551 84.1725 662.908 85.3265 662.943Z" fill="#F57450" stroke="#294064" stroke-width="0.745811" stroke-miterlimit="10" stroke-linecap="round"/>
<path d="M81.0597 660.727C82.4489 661.131 79.7538 663.325 78.761 663.31C77.8775 663.297 78.4017 662.515 78.6184 662.065C78.974 661.317 80.3947 660.533 81.0597 660.727Z" fill="#F57450" stroke="#294064" stroke-width="0.745811" stroke-miterlimit="10" stroke-linecap="round"/>
<path d="M81.9253 655.046C82.3698 655.176 81.3344 655.961 81.1307 656.113C80.7639 656.391 78.8413 657.193 78.5894 656.528C78.0429 655.092 81.0473 654.794 81.9253 655.046Z" fill="#F57450" stroke="#294064" stroke-width="0.745811" stroke-miterlimit="10" stroke-linecap="round"/>
<path d="M95.4219 665.728C97.2556 664.653 99.532 664.696 99.532 664.696" stroke="#294064" stroke-width="0.745811" stroke-miterlimit="10" stroke-linecap="round"/>
<path d="M107.957 674.469C105.605 673.518 102.198 671.378 100.637 669.286C98.4753 666.391 100.363 658.194 104.699 658.311C107.438 658.385 110.243 663.008 111.754 665.114C112.417 666.04 112.995 667.102 112.619 668.221" fill="#FFC6B2"/>
<path d="M107.957 674.469C105.605 673.518 102.198 671.378 100.637 669.286C98.4753 666.391 100.363 658.194 104.699 658.311C107.438 658.385 110.243 663.008 111.754 665.114C112.417 666.04 112.995 667.102 112.619 668.221" stroke="#294064" stroke-width="0.745811" stroke-miterlimit="10" stroke-linecap="round" stroke-linejoin="round"/>
<path d="M104.105 667.284C100.76 658.682 98.0721 654.56 96.7496 649.409C95.9401 646.257 97.509 643.508 99.9985 646.078C102.488 648.647 103.725 653.465 106.307 657.55C106.224 653.692 105.922 650.054 105.831 646.198C105.779 644.056 106.163 642.044 107.845 642.091C109.382 642.131 110.232 644.303 110.488 646.513C111.032 651.186 111.264 652.79 111.76 656.381C111.76 656.381 112.955 654.548 114.531 655.199C116.541 656.029 116.071 658.189 116.071 658.189C116.071 658.189 117.43 655.493 119.721 656.848C121.522 657.909 121.963 662.41 122.005 664.079C122.055 665.991 121.959 667.94 121.485 669.791C120.922 671.984 120.055 674.123 118.923 676.083C117.156 679.151 113.987 681.28 110.945 683.092" fill="#FFC6B2"/>
<path d="M104.105 667.284C100.76 658.682 98.0721 654.56 96.7496 649.409C95.9401 646.257 97.509 643.508 99.9985 646.078C102.488 648.647 103.725 653.465 106.307 657.55C106.224 653.692 105.922 650.054 105.831 646.198C105.779 644.056 106.163 642.044 107.845 642.091C109.382 642.131 110.232 644.303 110.488 646.513C111.032 651.186 111.264 652.79 111.76 656.381C111.76 656.381 112.955 654.548 114.531 655.199C116.541 656.029 116.071 658.189 116.071 658.189C116.071 658.189 117.43 655.493 119.721 656.848C121.522 657.909 121.963 662.41 122.005 664.079C122.055 665.991 121.959 667.94 121.485 669.791C120.922 671.984 120.055 674.123 118.923 676.083C117.156 679.151 113.987 681.28 110.945 683.092" stroke="#294064" stroke-width="0.745811" stroke-miterlimit="10" stroke-linecap="round" stroke-linejoin="round"/>
<path d="M97.3656 645.814C96.1635 646.051 97.6416 650.092 98.9771 650.058C101.441 649.999 99.9439 645.854 98.3769 645.428C98.0602 645.343 97.6064 645.767 97.3656 645.814Z" fill="#F57450" stroke="#294064" stroke-width="0.745811" stroke-miterlimit="10" stroke-linecap="round" stroke-linejoin="round"/>
<path d="M107.002 642.724C105.687 643.923 107.677 647.797 109.257 645.961C110.385 644.653 108.718 641.16 107.002 642.724Z" fill="#F57450" stroke="#294064" stroke-width="0.745811" stroke-miterlimit="10" stroke-linecap="round" stroke-linejoin="round"/>
<path d="M70.1914 712.655C75.1147 716.599 86.6877 725.669 98.5052 723.136C110.456 720.574 121.901 694.887 121.901 694.887C126.002 689.336 127.138 682.148 127.052 678.503C126.734 664.969 108.921 666.535 101.75 674.15C95.7749 680.491 99.2109 683.901 89.5624 692.321C74.0571 683.454 78.9897 674.863 70.6026 661.212" fill="#F57450"/>
<path d="M70.1914 712.655C75.1147 716.599 86.6877 725.669 98.5052 723.136C110.456 720.574 121.901 694.887 121.901 694.887C126.002 689.336 127.138 682.148 127.052 678.503C126.734 664.969 108.921 666.535 101.75 674.15C95.7749 680.491 99.2109 683.901 89.5624 692.321C74.0571 683.454 78.9897 674.863 70.6026 661.212" stroke="#294064" stroke-width="0.745811" stroke-miterlimit="10" stroke-linecap="round" stroke-linejoin="round"/>
<path d="M163.479 700.562C163.335 701.238 160.388 698.62 159.818 698.116C158.112 696.614 152.529 690.992 153.688 688.46C154.22 687.3 156.78 690.088 157.219 690.55C158.777 692.186 163.861 698.783 163.479 700.562Z" stroke="#294064" stroke-width="0.745811" stroke-miterlimit="10" stroke-linecap="round" stroke-linejoin="round"/>
<path d="M169.522 701.5C168.309 701.815 170.126 689.895 170.984 689.534C172.001 689.104 171.99 693.106 171.96 693.68C171.823 696.317 171.649 700.947 169.522 701.5Z" stroke="#294064" stroke-width="0.745811" stroke-miterlimit="10" stroke-linecap="round" stroke-linejoin="round"/>
<path d="M161.527 682.222C164.239 685.287 165.152 691.043 165.86 694.841" stroke="#294064" stroke-width="0.745811" stroke-miterlimit="10" stroke-linecap="round" stroke-linejoin="round"/>
<path d="M211.387 723.558C212.646 723.96 213.843 724.614 215.03 725.188C215.373 725.353 216.862 726.1 216.616 726.065" stroke="#294064" stroke-width="0.745811" stroke-miterlimit="10" stroke-linecap="round" stroke-linejoin="round"/>
<path d="M213.355 721.26C214.517 721.427 215.888 722.385 216.956 722.922C217.303 723.096 218.349 723.741 218.323 723.728" stroke="#294064" stroke-width="0.745811" stroke-miterlimit="10" stroke-linecap="round" stroke-linejoin="round"/>
<path d="M214.676 718.67C215.867 719.268 217.104 719.746 218.265 720.406C218.629 720.613 219.012 720.83 219.399 720.99C219.401 720.99 220.118 721.141 219.899 721.214" stroke="#294064" stroke-width="0.745811" stroke-miterlimit="10" stroke-linecap="round" stroke-linejoin="round"/>
<path d="M215.973 715.781C217.275 716.435 218.616 717.018 219.925 717.646C220.288 717.821 221.748 718.534 221.446 718.436" stroke="#294064" stroke-width="0.745811" stroke-miterlimit="10" stroke-linecap="round" stroke-linejoin="round"/>
<path d="M217.822 712.699C217.744 712.688 218.528 713.058 218.674 713.127C219.602 713.562 218.531 712.966 219.817 713.635C220.654 714.07 221.704 714.433 222.477 714.97" stroke="#294064" stroke-width="0.745811" stroke-miterlimit="10" stroke-linecap="round" stroke-linejoin="round"/>
<path d="M219.738 709.74C221.102 710.686 222.793 711.563 224.326 712.191" stroke="#294064" stroke-width="0.745811" stroke-miterlimit="10" stroke-linecap="round" stroke-linejoin="round"/>
<path d="M113.75 731.546C119.748 734.255 127.862 730.305 132.641 726.273C136.301 723.183 138.819 716.67 138.819 716.67" stroke="#294064" stroke-width="0.745811" stroke-miterlimit="10" stroke-linecap="round" stroke-linejoin="round"/>
<path d="M140.633 711.715C141.998 708.688 142.654 705.423 144.158 702.427C145.326 700.097 147.886 697.078 148.303 694.453C148.824 691.185 145.63 687.735 147.431 684.272C148.114 682.961 151.007 684.478 152.03 682.703C153.378 680.356 153.708 675.939 155.881 674.169C157.544 672.815 159.068 676.274 160.245 676.08C161.795 675.824 165.544 667.889 168.33 669.884C169.971 671.06 167.472 674.657 168.65 675.5C171.456 677.512 176.172 678.87 179.379 680.408C184.554 682.888 188.508 688.065 193.81 690.573C202.569 694.716 208.5 703.378 213.973 710.926" stroke="#294064" stroke-width="0.745811" stroke-miterlimit="10" stroke-linecap="round" stroke-linejoin="round"/>
<path d="M153.801 734.026C160.045 736.062 167.926 733.604 174.431 733.532C175.013 733.526 179.129 734.247 179.77 733.858C180.735 733.268 179.959 730.576 181.659 730.843C183.22 731.088 184.284 735.508 185.693 735.39C187.243 735.26 186.545 732.303 187.808 732.014C188.277 731.907 190.068 733.767 190.822 733.904C191.27 733.985 193.189 733.098 193.915 732.991C198.62 732.287 203.406 731.949 207.987 730.901" stroke="#294064" stroke-width="0.745811" stroke-miterlimit="10" stroke-linecap="round" stroke-linejoin="round"/>
<path d="M88.3319 691.853C82.8918 691.885 77.2868 691.608 72.9766 695.968" stroke="#294064" stroke-width="0.745811" stroke-miterlimit="10" stroke-linecap="round" stroke-linejoin="round"/>
<path d="M99.7227 677.394C103.503 675.124 106.887 673.601 111.07 672.206" stroke="#294064" stroke-width="0.745811" stroke-miterlimit="10" stroke-linecap="round" stroke-linejoin="round"/>
<path d="M115.664 671.713C119.204 671.004 122.816 671.487 125.79 673.522" stroke="#294064" stroke-width="0.745811" stroke-miterlimit="10" stroke-linecap="round" stroke-linejoin="round"/>
<path d="M122.517 693.972C118.392 696.317 113.906 700.403 110.629 703.695" stroke="#294064" stroke-width="0.745811" stroke-miterlimit="10" stroke-linecap="round" stroke-linejoin="round"/>
<path d="M202.848 721.903C202.433 722.165 203.4 721.073 203.779 720.762C204.637 720.056 205.661 719.284 206.576 718.648C209.164 716.851 212.392 716.002 214.821 714.09" stroke="#294064" stroke-width="0.745811" stroke-miterlimit="10" stroke-linecap="round" stroke-linejoin="round"/>
<path d="M236.57 714.572C236.644 718.522 233.847 723.693 231.645 726.752" stroke="#294064" stroke-width="0.745811" stroke-miterlimit="10" stroke-linecap="round" stroke-linejoin="round"/>
<path d="M262.135 696.522C262.202 700.031 261.88 703.649 260.566 706.942" stroke="#294064" stroke-width="0.745811" stroke-miterlimit="10" stroke-linecap="round" stroke-linejoin="round"/>
<path d="M249.504 708.442C250.797 701.783 243.545 696.382 237.883 695.682" stroke="#294064" stroke-width="0.745811" stroke-miterlimit="10" stroke-linecap="round" stroke-linejoin="round"/>
<path d="M89.5461 691.895C89.5646 691.795 89.2405 692.592 89.1942 692.71C88.9793 693.255 88.6737 693.737 88.394 694.25C87.9105 695.143 85.6582 697.974 86.8529 699.035C87.4994 699.61 88.3162 697.95 88.5292 697.511C89.5072 695.497 89.1701 693.766 89.5461 691.895Z" stroke="#2E4166" stroke-width="0.745811" stroke-miterlimit="10" stroke-linecap="round"/>
<path d="M75.2031 665.172C76.2589 667.57 76.4404 671.071 75.7847 673.619" stroke="#2E4166" stroke-width="0.745811" stroke-miterlimit="10" stroke-linecap="round"/>
<path opacity="0.875969" d="M173.298 481.01C98.7461 481.01 38.3086 541.461 38.3086 616.033C38.3086 690.606 98.7461 751.057 173.298 751.057C247.852 751.057 308.288 690.606 308.288 616.033C308.288 541.461 247.852 481.01 173.298 481.01ZM173.298 487.761C244.123 487.761 301.533 545.191 301.534 616.033C301.534 686.876 244.123 744.3 173.298 744.3C102.475 744.3 45.0579 686.876 45.0579 616.033C45.0579 545.191 102.475 487.761 173.298 487.761Z" fill="url(#paint0_linear_5304_23660)" fill-opacity="0.52"/>
<g style="mix-blend-mode:overlay">
<path d="M158.582 508.55C137.27 517.235 105.864 547.789 96.54 573.199C92.8188 583.342 100.593 596.399 107.233 603.796C113.748 559.885 129.638 544.203 158.582 508.55Z" fill="url(#paint1_radial_5304_23660)"/>
<path d="M161.479 495.87C132.489 498.052 110.242 511.116 89.3964 529.514C77.24 540.242 66.8247 559.12 62.4661 574.738C60.5108 581.744 69.8142 586.252 78.5847 586.282C83.108 565.512 110.899 522.299 161.479 495.87Z" fill="url(#paint2_radial_5304_23660)"/>
<path d="M205.488 503.472C220.192 515.709 232.039 528.35 245.912 545.565C261.753 565.217 264.27 572.382 269.29 582.247C272.565 572.721 277.831 556.198 271.185 547.867C246.386 516.782 219.264 506.221 205.488 503.472Z" fill="url(#paint3_radial_5304_23660)"/>
<path d="M282.202 603.613C259.664 606.154 248.286 578.312 237.715 602.076C232.61 613.554 235.255 635.687 199.136 677.323C186.527 691.86 215.16 677.027 220.379 677.075C230.354 677.169 187.142 704.721 195.046 713.437C207.478 727.147 242.206 695.293 259.453 675.728C273.467 659.831 298.854 601.735 282.202 603.613Z" fill="url(#paint4_radial_5304_23660)"/>
<path d="M197.64 598.75C194.159 600.879 189.516 610.135 195.389 612.895C201.142 615.596 209.296 607.654 207.301 601.778C206.616 599.761 202.804 595.59 197.64 598.75Z" fill="white"/>
<path d="M214.579 594.853C210.546 596.484 212.347 600.276 215.147 600.553C220.425 601.077 221.664 591.99 214.579 594.853Z" fill="white"/>
<path d="M187.23 563.504C179.377 564.984 184.135 576.666 190.307 572.738C193.137 570.936 192.765 562.461 187.23 563.504Z" fill="white"/>
<path d="M176.631 495.903C169.442 496.393 170.157 505.651 179.367 502.515C182.766 501.357 182.493 495.503 176.631 495.903Z" fill="white"/>
<path d="M188.623 497.882C184.763 498.752 187.651 504.154 191.898 502.287C195.352 500.77 192.239 497.067 188.623 497.882Z" fill="white"/>
<path d="M114.402 691.865C110.788 692.74 107.617 695.035 106.111 698.615C99.6096 714.059 117.149 717.772 124.204 704.747C127.194 699.224 122.744 689.847 114.402 691.865Z" fill="white"/>
<path d="M118.841 644.741C117.102 647.885 120.401 653.232 123.512 649.342C125.391 646.994 122.697 637.764 118.841 644.741Z" fill="white"/>
</g>
<path d="M210.298 612.178C216.064 583.913 233.77 563.658 249.847 566.937C265.924 570.217 274.282 595.789 268.516 624.054C262.75 652.32 245.045 672.575 228.967 669.296C212.89 666.016 204.533 640.444 210.298 612.178Z" stroke="#2E4166" stroke-width="0.745811" stroke-miterlimit="10" stroke-linecap="round"/>
<path d="M217.287 612.922C222.17 588.982 237.167 571.826 250.784 574.604C264.4 577.381 271.479 599.04 266.596 622.98C261.713 646.92 246.715 664.076 233.1 661.299C219.483 658.521 212.403 636.861 217.287 612.922Z" stroke="#2E4166" stroke-width="0.745811" stroke-miterlimit="10" stroke-linecap="round"/>
<path d="M236.297 584.27L240.131 593.195" stroke="#2E4166" stroke-width="0.745811" stroke-miterlimit="10" stroke-linecap="round"/>
<path d="M247.628 592.021L250.266 578.07" stroke="#2E4166" stroke-width="0.745811" stroke-miterlimit="10" stroke-linecap="round"/>
<path d="M227.927 616.076L220.535 611.867" stroke="#2E4166" stroke-width="0.745811" stroke-miterlimit="10" stroke-linecap="round"/>
<path d="M227.194 625.531L195.674 629.304" stroke="#2E4166" stroke-width="0.745811" stroke-miterlimit="10" stroke-linecap="round"/>
<path d="M231.232 644.034L226.635 647.971" stroke="#2E4166" stroke-width="0.745811" stroke-miterlimit="10" stroke-linecap="round"/>
<path d="M238.486 650.243L226.443 676.321" stroke="#2E4166" stroke-width="0.745811" stroke-miterlimit="10" stroke-linecap="round"/>
<path d="M243.809 588.237L237.23 556.195" stroke="#2E4166" stroke-width="0.745811" stroke-miterlimit="10" stroke-linecap="round"/>
<path d="M344.791 610.714C378.995 637.256 422.382 649.632 422.382 649.632C421.613 655.497 489.646 693.303 488.031 698.544C482.818 715.434 469.853 802.635 458.811 814.415C455.425 818.027 384.417 729.391 379.813 732.09C368.665 738.626 354.948 741.777 343.531 738.129C312.445 728.195 307.8 703.578 289.935 686.303" fill="#F4CC85"/>
<path d="M344.791 610.714C378.995 637.256 422.382 649.632 422.382 649.632C421.613 655.497 489.646 693.303 488.031 698.544C482.818 715.434 469.853 802.635 458.811 814.415C455.425 818.027 384.417 729.391 379.813 732.09C368.665 738.626 354.948 741.777 343.531 738.129C312.445 728.195 307.8 703.578 289.935 686.303" stroke="#294064" stroke-width="0.745811" stroke-miterlimit="10" stroke-linecap="round" stroke-linejoin="round"/>
<path d="M286.305 682.617C266.716 690.077 278.38 719.796 301.351 732.465C310.507 737.513 322.273 740.651 329.461 733.807C343.332 720.598 313.472 698.391 313.472 698.391" fill="#F4CC85"/>
<path d="M286.305 682.617C266.716 690.077 278.38 719.796 301.351 732.465C310.507 737.513 322.273 740.651 329.461 733.807C343.332 720.598 313.472 698.391 313.472 698.391" stroke="#294064" stroke-width="0.745811" stroke-miterlimit="10" stroke-linecap="round" stroke-linejoin="round"/>
<path d="M365.695 632.021C350.128 628.294 334.98 621.634 318.993 620.838C291.683 619.478 267.209 613.315 267.209 613.315C267.209 613.315 262.761 588.852 244.693 593.487C230.5 597.128 228.607 625.192 238.784 638.042C251.779 654.449 293.079 654.691 293.079 654.691C287.43 653.663 261.947 668.552 292.508 697.191C304.573 708.496 324.456 719.916 339.426 721.763C361.468 724.484 360.06 703.098 346.302 691.206C336.981 683.151 326.533 678.614 326.533 678.614" fill="#F4CC85"/>
<path d="M365.695 632.021C350.128 628.294 334.98 621.634 318.993 620.838C291.683 619.478 267.209 613.315 267.209 613.315C267.209 613.315 262.761 588.852 244.693 593.487C230.5 597.128 228.607 625.192 238.784 638.042C251.779 654.449 293.079 654.691 293.079 654.691C287.43 653.663 261.947 668.552 292.508 697.191C304.573 708.496 324.456 719.916 339.426 721.763C361.468 724.484 360.06 703.098 346.302 691.206C336.981 683.151 326.533 678.614 326.533 678.614" stroke="#294064" stroke-width="0.745811" stroke-miterlimit="10" stroke-linecap="round" stroke-linejoin="round"/>
<path d="M422.563 649.696C422.32 637.138 411.554 617.115 398.029 606.545C378.784 591.505 351.55 579.183 332.046 594.761C309.42 612.833 324.003 633.962 310.578 671.466C302.878 692.98 324.423 695.627 337.806 683.172C351.371 670.549 352.037 653.407 352.037 653.407C352.037 653.407 362.752 667.42 379.24 665.291" fill="#F4CC85"/>
<path d="M422.563 649.696C422.32 637.138 411.554 617.115 398.029 606.545C378.784 591.505 351.55 579.183 332.046 594.761C309.42 612.833 324.003 633.962 310.578 671.466C302.878 692.98 324.423 695.627 337.806 683.172C351.371 670.549 352.037 653.407 352.037 653.407C352.037 653.407 362.752 667.42 379.24 665.291" stroke="#294064" stroke-width="0.745811" stroke-miterlimit="10" stroke-linecap="round" stroke-linejoin="round"/>
<path d="M310.837 684.182C314.99 690.061 326.34 669.389 322.988 661.919C321.063 657.63 317.479 656.034 316.828 657.491C313.064 665.937 307.816 679.904 310.837 684.182Z" fill="#FF7CAB" stroke="#294064" stroke-width="0.745811" stroke-miterlimit="10" stroke-linecap="round" stroke-linejoin="round"/>
<path d="M346.486 720.761C348.871 720.431 353.736 718.392 353.076 713.358C351.938 704.687 338.251 695.141 331.223 702.765C322.754 711.951 336.971 722.076 346.486 720.761Z" fill="#FF7CAB" stroke="#294064" stroke-width="0.745811" stroke-miterlimit="10" stroke-linecap="round" stroke-linejoin="round"/>
<path d="M346.49 720.76C348.875 720.43 353.74 718.391 353.08 713.357C351.942 704.686 338.255 695.14 331.227 702.764C322.758 711.95 336.975 722.075 346.49 720.76Z" fill="#FF7CAB" stroke="#294064" stroke-width="0.745811" stroke-miterlimit="10" stroke-linecap="round" stroke-linejoin="round"/>
<path d="M325.962 735.383C327.373 734.642 329.086 733.159 329.361 731.032C330.365 723.314 314.563 715.229 308.975 720.474C299.094 729.751 317.754 739.695 325.962 735.383Z" fill="#FF7CAB" stroke="#294064" stroke-width="0.745811" stroke-miterlimit="10" stroke-linecap="round" stroke-linejoin="round"/>
<path d="M312.081 683.557C310.831 682.268 311.027 679.269 311.67 676.561L312.081 683.557Z" fill="#F4CC85"/>
<path d="M312.081 683.557C310.831 682.268 311.027 679.269 311.67 676.561" stroke="white" stroke-width="0.745811" stroke-miterlimit="10" stroke-linecap="round" stroke-linejoin="round"/>
<path d="M311.966 675.355C312.019 674.218 312.782 672.013 312.782 672.013L311.966 675.355Z" fill="#F4CC85"/>
<path d="M311.966 675.355C312.019 674.218 312.782 672.013 312.782 672.013" stroke="white" stroke-width="0.745811" stroke-miterlimit="10" stroke-linecap="round" stroke-linejoin="round"/>
<path d="M349.352 718.303C346.573 720.093 341.935 719.339 339.133 718.024" stroke="white" stroke-width="0.745811" stroke-miterlimit="10" stroke-linecap="round" stroke-linejoin="round"/>
<path d="M337.737 717.409C337.737 717.409 335.655 716.3 334.746 715.461L337.737 717.409Z" fill="#F4CC85"/>
<path d="M337.737 717.409C337.737 717.409 335.655 716.3 334.746 715.461" stroke="white" stroke-width="0.745811" stroke-miterlimit="10" stroke-linecap="round" stroke-linejoin="round"/>
<path d="M322.245 734.667C318.296 734.825 314.959 733.494 311.781 731.172L322.245 734.667Z" fill="#F4CC85"/>
<path d="M322.245 734.667C318.296 734.825 314.959 733.494 311.781 731.172" stroke="white" stroke-width="0.745811" stroke-miterlimit="10" stroke-linecap="round" stroke-linejoin="round"/>
<path d="M268.868 613.538C269.263 613.703 266.55 612.883 266.001 612.652C263.745 611.705 261.665 610.379 260.055 608.505" fill="#F4CC85"/>
<path d="M268.868 613.538C269.263 613.703 266.55 612.883 266.001 612.652C263.745 611.705 261.665 610.379 260.055 608.505" stroke="#294064" stroke-width="0.745811" stroke-miterlimit="10" stroke-linecap="round" stroke-linejoin="round"/>
<path d="M347.809 640.975C350.13 644.522 351.931 649.81 352.039 654.092L347.809 640.975Z" fill="#F4CC85"/>
<path d="M347.809 640.975C350.13 644.522 351.931 649.81 352.039 654.092" stroke="#294064" stroke-width="0.745811" stroke-miterlimit="10" stroke-linecap="round" stroke-linejoin="round"/>
<path d="M353.646 642.543C355.207 645.881 354.437 650.868 352.196 653.699L353.646 642.543Z" fill="#F4CC85"/>
<path d="M353.646 642.543C355.207 645.881 354.437 650.868 352.196 653.699" stroke="#294064" stroke-width="0.745811" stroke-miterlimit="10" stroke-linecap="round" stroke-linejoin="round"/>
<g style="mix-blend-mode:multiply">
<path d="M233.821 607.136C232.13 611.269 232.298 622.579 234.113 628.985C236.711 638.149 241.246 641.724 246.886 644.694C262.92 653.138 280.848 653.965 293.258 654.641C293.258 654.641 281.552 654.794 278.248 667.851C276.164 676.1 283.34 688.315 290.094 694.696C304.563 708.369 318.007 718.253 339.203 721.899C339.203 721.899 320.928 717.362 318.626 704.661C317.091 696.2 325.813 696.395 330.336 688.358C321.645 689.11 318.34 685.122 316.538 681.901C312.074 673.935 315.407 658.785 316.499 646.966C317.59 635.138 317.921 626.387 318.304 620.733L310.54 620.342C310.54 620.342 292.246 639.783 274.35 638.303C249.356 636.235 237.616 613.183 233.821 607.136Z" fill="#FF8ABE" fill-opacity="0.5"/>
</g>
<g style="mix-blend-mode:multiply">
<path d="M364.444 722.319C361.442 719.847 361.752 714.772 361.452 715.155C356.568 721.393 351.753 720.729 349.165 721.232C334.204 724.139 317.856 715.548 304.479 706.906C297.013 702.085 281.873 685.184 281.873 685.184C281.873 685.184 270.026 693.462 280.504 711.434C288.649 725.408 300.474 735.047 317.597 737.662C321.679 738.286 325.126 736.85 328.272 734.738C329.37 733.999 330.916 732.442 330.916 732.442C330.916 732.442 340.416 738.383 348.431 739.244C362.578 740.765 370.123 737.181 377.478 733.699C380.109 732.451 383.266 730.133 385.842 728.265C386.261 727.96 375.69 731.58 364.444 722.319Z" fill="#FF8ABE" fill-opacity="0.5"/>
</g>
<path d="M-97 864.028C-97 799.947 -45.0627 748 18.9999 748C83.0626 748 135 799.947 135 864.028C135 928.107 83.0626 980.055 18.9999 980.055C-45.0627 980.055 -97 928.107 -97 864.028Z" fill="#FFECDD" fill-opacity="0.5" stroke="#2E4166" stroke-width="0.659016" stroke-miterlimit="10"/>
<path opacity="0.875969" d="M19.2505 755.373C-40.6323 755.373 -89.1758 803.928 -89.1758 863.826C-89.1758 923.723 -40.6323 972.28 19.2505 972.279C79.1333 972.279 127.677 923.723 127.677 863.826C127.677 803.928 79.1333 755.373 19.2505 755.373ZM19.2505 760.795C76.1378 760.795 122.249 806.925 122.249 863.826C122.249 920.727 76.1378 966.853 19.2505 966.853C-37.6368 966.853 -83.7532 920.728 -83.7532 863.826C-83.7532 806.925 -37.6368 760.795 19.2505 760.795Z" fill="url(#paint5_linear_5304_23660)"/>
<g style="mix-blend-mode:overlay">
<path d="M7.44125 777.497C-9.67646 784.473 -34.8988 809.015 -42.3875 829.425C-45.3777 837.572 -39.1371 848.059 -33.7995 854.001C-28.568 818.731 -15.8055 806.135 7.44125 777.497Z" fill="url(#paint6_radial_5304_23660)"/>
<path d="M9.77145 767.31C-13.5125 769.063 -31.3844 779.556 -48.125 794.333C-57.8921 802.951 -66.2571 818.114 -69.7571 830.658C-71.3292 836.285 -63.8565 839.907 -56.8087 839.931C-53.1759 823.248 -30.8532 788.539 9.77145 767.31Z" fill="url(#paint7_radial_5304_23660)"/>
<path d="M45.1211 773.417C56.933 783.247 66.4451 793.4 77.5879 807.227C90.3133 823.012 92.3369 828.767 96.368 836.691C98.997 829.039 103.225 815.768 97.8869 809.076C77.9702 784.108 56.1841 775.625 45.1211 773.417Z" fill="url(#paint8_radial_5304_23660)"/>
<path d="M106.735 853.85C88.6347 855.892 79.4943 833.529 71.0019 852.616C66.9017 861.836 69.0261 879.612 40.0168 913.057C29.8885 924.732 52.8856 912.817 57.0813 912.857C65.0905 912.933 30.3825 935.063 36.7292 942.064C46.7141 953.076 74.6081 927.489 88.4647 911.775C99.719 899.006 120.114 852.342 106.735 853.85Z" fill="url(#paint9_radial_5304_23660)"/>
<path d="M38.8159 849.945C36.0169 851.655 32.2885 859.091 37.0048 861.306C41.6255 863.476 48.1741 857.097 46.5754 852.378C46.0231 850.757 42.9638 847.408 38.8159 849.945Z" fill="white"/>
<path d="M52.4295 846.814C49.1897 848.124 50.6343 851.169 52.8862 851.392C57.1245 851.813 58.1177 844.514 52.4295 846.814Z" fill="white"/>
<path d="M30.4503 821.64C24.1407 822.828 27.9647 832.211 32.92 829.056C35.1984 827.609 34.8957 820.802 30.4503 821.64Z" fill="white"/>
<path d="M21.9337 767.337C16.1606 767.732 16.7342 775.168 24.1326 772.648C26.8625 771.719 26.6394 767.016 21.9337 767.337Z" fill="white"/>
<path d="M31.5695 768.929C28.4731 769.627 30.7887 773.966 34.2038 772.467C36.9762 771.249 34.4747 768.274 31.5695 768.929Z" fill="white"/>
</g>
<path d="M329 387C329 346.131 362.125 313 402.983 313C443.841 313 476.965 346.131 476.965 387C476.965 427.869 443.841 461 402.983 461C362.125 461 329 427.869 329 387Z" fill="#FFECDD" fill-opacity="0.5" stroke="#2E4166" stroke-width="0.659016" stroke-miterlimit="10"/>
<path opacity="0.875969" d="M403.141 317.702C364.948 317.702 333.988 348.67 333.988 386.872C333.988 425.073 364.948 456.041 403.141 456.041C441.333 456.041 472.293 425.073 472.293 386.872C472.293 348.67 441.333 317.702 403.141 317.702ZM403.141 321.16C439.422 321.16 468.831 350.581 468.831 386.872C468.831 423.162 439.422 452.58 403.141 452.58C366.859 452.58 337.447 423.163 337.447 386.872C337.447 350.581 366.859 321.16 403.141 321.16Z" fill="url(#paint10_linear_5304_23660)"/>
<g style="mix-blend-mode:overlay">
<path d="M395.611 331.813C384.694 336.262 368.607 351.914 363.831 364.931C361.924 370.127 365.904 376.816 369.308 380.606C372.645 358.111 380.785 350.077 395.611 331.813Z" fill="url(#paint11_radial_5304_23660)"/>
<path d="M397.099 325.316C382.249 326.433 370.851 333.126 360.174 342.551C353.944 348.047 348.609 357.717 346.377 365.718C345.375 369.307 350.14 371.617 354.635 371.632C356.952 360.992 371.189 338.855 397.099 325.316Z" fill="url(#paint12_radial_5304_23660)"/>
<path d="M458.943 380.509C447.399 381.812 441.569 367.549 436.153 379.722C433.538 385.602 434.893 396.94 416.391 418.27C409.931 425.716 424.599 418.118 427.275 418.143C432.383 418.191 410.247 432.306 414.294 436.77C420.663 443.793 438.453 427.475 447.29 417.452C454.468 409.309 467.475 379.548 458.943 380.509Z" fill="url(#paint13_radial_5304_23660)"/>
<path d="M415.626 378.019C413.841 379.11 411.463 383.852 414.471 385.265C417.418 386.649 421.594 382.58 420.575 379.57C420.222 378.537 418.271 376.4 415.626 378.019Z" fill="white"/>
<path d="M410.287 359.966C406.263 360.724 408.702 366.708 411.862 364.696C413.315 363.773 413.122 359.431 410.287 359.966Z" fill="white"/>
<path d="M404.855 325.333C401.173 325.585 401.539 330.327 406.257 328.72C407.999 328.128 407.856 325.128 404.855 325.333Z" fill="white"/>
<path d="M411.004 326.348C409.03 326.793 410.506 329.561 412.684 328.605C414.453 327.828 412.857 325.931 411.004 326.348Z" fill="white"/>
<path d="M372.982 425.721C371.133 426.169 369.507 427.346 368.735 429.179C365.405 437.091 374.391 438.993 378.002 432.32C379.537 429.491 377.257 424.687 372.982 425.721Z" fill="white"/>
<path d="M375.257 401.58C374.37 403.191 376.056 405.931 377.652 403.937C378.614 402.734 377.235 398.006 375.257 401.58Z" fill="white"/>
</g>
<path d="M35 439.01C35 415.808 53.8049 397 77 397C100.195 397 119 415.808 119 439.01C119 462.211 100.195 481.02 77 481.02C53.8049 481.02 35 462.211 35 439.01Z" fill="#FFECDD" fill-opacity="0.5" stroke="#2E4166" stroke-width="0.659016" stroke-miterlimit="10"/>
<path opacity="0.875969" d="M77.0898 399.669C55.4081 399.669 37.832 417.25 37.832 438.937C37.832 460.624 55.4081 478.205 77.0898 478.205C98.7715 478.205 116.348 460.624 116.348 438.937C116.348 417.25 98.7715 399.669 77.0898 399.669ZM77.0898 401.633C97.687 401.633 114.382 418.335 114.382 438.937C114.382 459.539 97.687 476.24 77.0898 476.24C56.4927 476.24 39.7954 459.539 39.7954 438.937C39.7954 418.335 56.4927 401.633 77.0898 401.633Z" fill="url(#paint14_linear_5304_23660)"/>
<g style="mix-blend-mode:overlay">
<path d="M72.8148 407.68C66.617 410.206 57.4848 419.092 54.7734 426.482C53.6907 429.431 55.9502 433.228 57.8828 435.38C59.777 422.61 64.3979 418.049 72.8148 407.68Z" fill="url(#paint15_radial_5304_23660)"/>
<path d="M73.6566 403.992C65.2262 404.626 58.7554 408.425 52.6941 413.776C49.1577 416.896 46.129 422.386 44.8618 426.928C44.2926 428.965 46.9982 430.277 49.55 430.286C50.8653 424.245 58.9477 411.678 73.6566 403.992Z" fill="url(#paint16_radial_5304_23660)"/>
<path d="M86.457 406.203C90.7338 409.762 94.1778 413.438 98.2122 418.444C102.82 424.16 103.552 426.244 105.012 429.112C105.964 426.342 107.495 421.537 105.562 419.114C98.3507 410.074 90.4626 407.003 86.457 406.203Z" fill="url(#paint17_radial_5304_23660)"/>
<path d="M108.766 435.325C102.212 436.064 98.9031 427.968 95.8282 434.878C94.3436 438.216 95.1128 444.653 84.6095 456.762C80.9423 460.989 89.2688 456.675 90.788 456.69C93.6879 456.717 81.1212 464.73 83.4191 467.264C87.0344 471.252 97.1339 461.988 102.151 456.298C106.226 451.675 113.61 434.779 108.766 435.325Z" fill="url(#paint18_radial_5304_23660)"/>
<path d="M84.1738 433.911C83.1604 434.53 81.8105 437.223 83.5181 438.025C85.1911 438.81 87.5622 436.501 86.9833 434.792C86.7833 434.205 85.6757 432.992 84.1738 433.911Z" fill="white"/>
<path d="M89.1024 432.778C87.9294 433.252 88.4524 434.355 89.2678 434.435C90.8023 434.588 91.162 431.945 89.1024 432.778Z" fill="white"/>
<path d="M81.1433 423.663C78.8588 424.093 80.2433 427.49 82.0375 426.348C82.8625 425.824 82.7529 423.359 81.1433 423.663Z" fill="white"/>
<path d="M78.0586 404.002C75.9683 404.145 76.176 406.837 78.8547 405.925C79.8431 405.588 79.7623 403.885 78.0586 404.002Z" fill="white"/>
<path d="M81.5493 404.578C80.4282 404.831 81.2666 406.402 82.5031 405.859C83.5069 405.418 82.6011 404.341 81.5493 404.578Z" fill="white"/>
<path d="M59.9647 460.992C58.9147 461.246 57.9917 461.914 57.5532 462.955C55.6629 467.447 60.7646 468.526 62.8145 464.738C63.6856 463.132 62.3915 460.405 59.9647 460.992Z" fill="white"/>
<path d="M61.2565 447.287C60.7527 448.202 61.7103 449.757 62.616 448.625C63.1621 447.942 62.3795 445.258 61.2565 447.287Z" fill="white"/>
</g>
</g>
<defs>
<linearGradient id="paint0_linear_5304_23660" x1="173.298" y1="481.01" x2="173.298" y2="751.057" gradientUnits="userSpaceOnUse">
<stop offset="0.01" stop-color="white" stop-opacity="0.1"/>
<stop offset="0.31" stop-color="#EDE35B"/>
<stop offset="0.605" stop-color="#ED6B33"/>
</linearGradient>
<radialGradient id="paint1_radial_5304_23660" cx="0" cy="0" r="1" gradientUnits="userSpaceOnUse" gradientTransform="translate(99.9519 537.331) rotate(17.2315) scale(63.1871 63.2002)">
<stop stop-color="white"/>
<stop offset="0.204167" stop-color="#FF7CAB"/>
<stop offset="0.485417" stop-color="#FFD432"/>
<stop offset="0.74375" stop-color="#B3A9EC"/>
<stop offset="1" stop-color="#B3A9EC"/>
</radialGradient>
<radialGradient id="paint2_radial_5304_23660" cx="0" cy="0" r="1" gradientUnits="userSpaceOnUse" gradientTransform="translate(82.4356 518.3) rotate(18.098) scale(80.6304 80.6468)">
<stop stop-color="white"/>
<stop offset="0.204167" stop-color="#FF7CAB"/>
<stop offset="0.485417" stop-color="#FFD432"/>
<stop offset="0.74375" stop-color="#B3A9EC"/>
<stop offset="1" stop-color="#369ADC"/>
</radialGradient>
<radialGradient id="paint3_radial_5304_23660" cx="0" cy="0" r="1" gradientUnits="userSpaceOnUse" gradientTransform="translate(228.566 538.54) rotate(5.68847) scale(78.8664 78.8858)">
<stop stop-color="white"/>
<stop offset="0.204167" stop-color="#FF7CAB"/>
<stop offset="0.485417" stop-color="#FFD432"/>
<stop offset="0.74375" stop-color="#B3A9EC"/>
<stop offset="1" stop-color="#B3A9EC"/>
</radialGradient>
<radialGradient id="paint4_radial_5304_23660" cx="0" cy="0" r="1" gradientUnits="userSpaceOnUse" gradientTransform="translate(225.964 647.007) rotate(10.5353) scale(65.9126 65.928)">
<stop stop-color="white"/>
<stop offset="0.204167" stop-color="#FF7CAB"/>
<stop offset="0.485417" stop-color="#FFD432"/>
<stop offset="0.74375" stop-color="#B3A9EC"/>
<stop offset="1" stop-color="#B3A9EC"/>
</radialGradient>
<linearGradient id="paint5_linear_5304_23660" x1="19.2506" y1="755.373" x2="19.2506" y2="972.279" gradientUnits="userSpaceOnUse">
<stop offset="0.01" stop-color="white" stop-opacity="0.28"/>
<stop offset="0.345" stop-color="#EDE35B"/>
<stop offset="0.705" stop-color="#ED6B33" stop-opacity="0.58"/>
</linearGradient>
<radialGradient id="paint6_radial_5304_23660" cx="0" cy="0" r="1" gradientUnits="userSpaceOnUse" gradientTransform="translate(-39.6523 800.615) rotate(17.2316) scale(50.7529 50.7635)">
<stop stop-color="white"/>
<stop offset="0.204167" stop-color="#FF7CAB"/>
<stop offset="0.485417" stop-color="#FFD432"/>
<stop offset="0.74375" stop-color="#B3A9EC"/>
<stop offset="1" stop-color="#B3A9EC"/>
</radialGradient>
<radialGradient id="paint7_radial_5304_23660" cx="0" cy="0" r="1" gradientUnits="userSpaceOnUse" gradientTransform="translate(-53.7176 785.326) rotate(18.098) scale(64.7636 64.7767)">
<stop stop-color="white"/>
<stop offset="0.204167" stop-color="#FF7CAB"/>
<stop offset="0.485417" stop-color="#FFD432"/>
<stop offset="0.74375" stop-color="#B3A9EC"/>
<stop offset="1" stop-color="#369ADC"/>
</radialGradient>
<radialGradient id="paint8_radial_5304_23660" cx="0" cy="0" r="1" gradientUnits="userSpaceOnUse" gradientTransform="translate(63.6569 801.585) rotate(5.6885) scale(63.3468 63.3625)">
<stop stop-color="white"/>
<stop offset="0.204167" stop-color="#FF7CAB"/>
<stop offset="0.485417" stop-color="#FFD432"/>
<stop offset="0.74375" stop-color="#B3A9EC"/>
<stop offset="1" stop-color="#B3A9EC"/>
</radialGradient>
<radialGradient id="paint9_radial_5304_23660" cx="0" cy="0" r="1" gradientUnits="userSpaceOnUse" gradientTransform="translate(61.564 888.706) rotate(10.5353) scale(52.942 52.9545)">
<stop stop-color="white"/>
<stop offset="0.204167" stop-color="#FF7CAB"/>
<stop offset="0.485417" stop-color="#FFD432"/>
<stop offset="0.74375" stop-color="#B3A9EC"/>
<stop offset="1" stop-color="#B3A9EC"/>
</radialGradient>
<linearGradient id="paint10_linear_5304_23660" x1="403.141" y1="317.702" x2="403.141" y2="456.041" gradientUnits="userSpaceOnUse">
<stop offset="0.01" stop-color="white" stop-opacity="0.28"/>
<stop offset="0.345" stop-color="#EDE35B"/>
<stop offset="0.705" stop-color="#ED6B33" stop-opacity="0.58"/>
</linearGradient>
<radialGradient id="paint11_radial_5304_23660" cx="0" cy="0" r="1" gradientUnits="userSpaceOnUse" gradientTransform="translate(365.576 346.557) rotate(17.2316) scale(32.3693 32.376)">
<stop stop-color="white"/>
<stop offset="0.204167" stop-color="#FF7CAB"/>
<stop offset="0.485417" stop-color="#FFD432"/>
<stop offset="0.74375" stop-color="#B3A9EC"/>
<stop offset="1" stop-color="#B3A9EC"/>
</radialGradient>
<radialGradient id="paint12_radial_5304_23660" cx="0" cy="0" r="1" gradientUnits="userSpaceOnUse" gradientTransform="translate(356.607 336.806) rotate(18.098) scale(41.305 41.3134)">
<stop stop-color="white"/>
<stop offset="0.204167" stop-color="#FF7CAB"/>
<stop offset="0.485417" stop-color="#FFD432"/>
<stop offset="0.74375" stop-color="#B3A9EC"/>
<stop offset="1" stop-color="#369ADC"/>
</radialGradient>
<radialGradient id="paint13_radial_5304_23660" cx="0" cy="0" r="1" gradientUnits="userSpaceOnUse" gradientTransform="translate(430.133 402.74) rotate(10.5353) scale(33.7654 33.7734)">
<stop stop-color="white"/>
<stop offset="0.204167" stop-color="#FF7CAB"/>
<stop offset="0.485417" stop-color="#FFD432"/>
<stop offset="0.74375" stop-color="#B3A9EC"/>
<stop offset="1" stop-color="#B3A9EC"/>
</radialGradient>
<linearGradient id="paint14_linear_5304_23660" x1="77.0898" y1="399.669" x2="77.0898" y2="478.205" gradientUnits="userSpaceOnUse">
<stop offset="0.01" stop-color="white" stop-opacity="0.28"/>
<stop offset="0.345" stop-color="#EDE35B"/>
<stop offset="0.705" stop-color="#ED6B33" stop-opacity="0.58"/>
</linearGradient>
<radialGradient id="paint15_radial_5304_23660" cx="0" cy="0" r="1" gradientUnits="userSpaceOnUse" gradientTransform="translate(55.7637 416.05) rotate(17.2316) scale(18.3761 18.3799)">
<stop stop-color="white"/>
<stop offset="0.204167" stop-color="#FF7CAB"/>
<stop offset="0.485417" stop-color="#FFD432"/>
<stop offset="0.74375" stop-color="#B3A9EC"/>
<stop offset="1" stop-color="#B3A9EC"/>
</radialGradient>
<radialGradient id="paint16_radial_5304_23660" cx="0" cy="0" r="1" gradientUnits="userSpaceOnUse" gradientTransform="translate(50.6692 410.515) rotate(18.098) scale(23.4489 23.4536)">
<stop stop-color="white"/>
<stop offset="0.204167" stop-color="#FF7CAB"/>
<stop offset="0.485417" stop-color="#FFD432"/>
<stop offset="0.74375" stop-color="#B3A9EC"/>
<stop offset="1" stop-color="#369ADC"/>
</radialGradient>
<radialGradient id="paint17_radial_5304_23660" cx="0" cy="0" r="1" gradientUnits="userSpaceOnUse" gradientTransform="translate(93.1683 416.402) rotate(5.6885) scale(22.9359 22.9416)">
<stop stop-color="white"/>
<stop offset="0.204167" stop-color="#FF7CAB"/>
<stop offset="0.485417" stop-color="#FFD432"/>
<stop offset="0.74375" stop-color="#B3A9EC"/>
<stop offset="1" stop-color="#B3A9EC"/>
</radialGradient>
<radialGradient id="paint18_radial_5304_23660" cx="0" cy="0" r="1" gradientUnits="userSpaceOnUse" gradientTransform="translate(92.411 447.945) rotate(10.5353) scale(19.1687 19.1732)">
<stop stop-color="white"/>
<stop offset="0.204167" stop-color="#FF7CAB"/>
<stop offset="0.485417" stop-color="#FFD432"/>
<stop offset="0.74375" stop-color="#B3A9EC"/>
<stop offset="1" stop-color="#B3A9EC"/>
</radialGradient>
<clipPath id="clip0_5304_23660">
<path d="M0 0H414V841C414 852.046 405.046 861 394 861H20C8.95432 861 0 852.046 0 841V0Z" fill="white"/>
</clipPath>
</defs>
</svg>
