<svg width="414" height="861" viewBox="0 0 414 861" fill="none" xmlns="http://www.w3.org/2000/svg">
<g clip-path="url(#clip0_5304_23565)">
<path d="M0 0H414V841C414 852.046 405.046 861 394 861H20C8.95432 861 0 852.046 0 841V0Z" fill="#50A1B7"/>
<path d="M174.351 461.81C173.747 461.811 173.257 462.3 173.258 462.904L173.347 525.393C173.347 525.997 173.836 526.487 174.44 526.487C175.044 526.486 175.534 525.997 175.534 525.393L175.445 462.904C175.444 462.3 174.955 461.809 174.351 461.81Z" fill="#F4CC85" stroke="#294064" stroke-miterlimit="10" stroke-linecap="round"/>
<path d="M160.154 428.315C159.55 428.324 159.065 428.825 159.074 429.429L159.245 440.315C159.255 440.919 159.755 441.404 160.359 441.395C160.963 441.386 161.441 440.885 161.432 440.281L161.261 429.395C161.252 428.791 160.758 428.305 160.154 428.315Z" fill="#F4CC85" stroke="#294064" stroke-miterlimit="10" stroke-linecap="round"/>
<path d="M161.972 469.011C161.368 469.012 160.878 469.507 160.879 470.111L160.968 525.603C160.969 526.207 161.457 526.69 162.061 526.689C162.665 526.688 163.155 526.2 163.155 525.596L163.066 470.104C163.065 469.501 162.576 469.01 161.972 469.011Z" fill="#F4CC85" stroke="#294064" stroke-miterlimit="10" stroke-linecap="round"/>
<path d="M156.403 429.593C155.799 429.597 155.312 430.089 155.316 430.693L155.398 441.217C155.403 441.821 155.895 442.302 156.499 442.297C157.103 442.293 157.59 441.801 157.585 441.197L157.503 430.673C157.499 430.069 157.007 429.588 156.403 429.593Z" fill="#F4CC85" stroke="#294064" stroke-miterlimit="10" stroke-linecap="round"/>
<path d="M157.62 471.321C157.016 471.318 156.522 471.81 156.519 472.414L156.273 522.425C156.271 523.029 156.763 523.522 157.367 523.525C157.971 523.528 158.457 523.042 158.46 522.439L158.706 472.421C158.709 471.817 158.224 471.324 157.62 471.321Z" fill="#F4CC85" stroke="#294064" stroke-miterlimit="10" stroke-linecap="round"/>
<path d="M238.252 463.926C237.649 463.934 237.165 464.43 237.172 465.034L237.944 524.058C237.953 524.662 238.449 525.146 239.053 525.138C239.656 525.13 240.139 524.635 240.131 524.031L239.359 465.006C239.352 464.402 238.856 463.918 238.252 463.926Z" fill="#F4CC85" stroke="#294064" stroke-miterlimit="10" stroke-linecap="round"/>
<path d="M244.609 424.953C244.006 424.961 243.523 425.456 243.531 426.06L243.693 438.067C243.702 438.671 244.198 439.148 244.802 439.14C245.405 439.132 245.889 438.637 245.88 438.033L245.718 426.032C245.709 425.429 245.213 424.945 244.609 424.953Z" fill="#F4CC85" stroke="#294064" stroke-miterlimit="10" stroke-linecap="round"/>
<path d="M245.182 466.236C244.578 466.243 244.095 466.739 244.102 467.343L244.696 518.953C244.703 519.557 245.193 520.04 245.796 520.033C246.4 520.026 246.89 519.536 246.883 518.933L246.288 467.316C246.282 466.712 245.785 466.229 245.182 466.236Z" fill="#F4CC85" stroke="#294064" stroke-miterlimit="10" stroke-linecap="round"/>
<path d="M249.954 427.939C249.351 427.943 248.863 428.436 248.867 429.039L248.928 439.324C248.933 439.928 249.425 440.415 250.028 440.411C250.634 440.407 251.12 439.915 251.115 439.311L251.054 429.026C251.05 428.422 250.558 427.936 249.954 427.939Z" fill="#F4CC85" stroke="#294064" stroke-miterlimit="10" stroke-linecap="round"/>
<path d="M250.774 470.296C250.171 470.31 249.694 470.813 249.707 471.416L251.019 527.072C251.035 527.676 251.538 528.152 252.141 528.138C252.745 528.124 253.222 527.628 253.206 527.024L251.894 471.362C251.881 470.758 251.378 470.282 250.774 470.296Z" fill="#F4CC85" stroke="#294064" stroke-miterlimit="10" stroke-linecap="round"/>
<g style="mix-blend-mode:multiply">
<path d="M237.668 464.005L237.716 472.177L238.928 473.839L239.019 462.061" fill="#8BD5D6"/>
<path d="M174.913 462.992L174.902 469.908L173.829 472.707L173.555 462.657" fill="#8BD5D6"/>
<path d="M162.609 468.263L162.557 478.659L161.415 480.577C161.415 480.577 161.367 470.551 161.328 467.236" fill="#8BD5D6"/>
<path d="M158.222 472.834L158.142 482.866L156.97 485.813L156.953 470.52" fill="#8BD5D6"/>
<path d="M160.779 428.951L160.766 434.63L159.638 437.17L159.359 428.014" fill="#8BD5D6"/>
<path d="M157.063 428.157L157.162 435.839L155.898 438.843L155.641 429.324" fill="#8BD5D6"/>
<path d="M244.668 467.109L244.692 475.551L245.864 477.239L245.934 467.354C245.934 467.354 246.665 466.02 246.654 464.384" fill="#8BD5D6"/>
<path d="M250.098 470.807L250.38 480.262L251.663 482.072L251.613 467.504" fill="#8BD5D6"/>
<path d="M243.941 425.522L243.963 430.238L245.291 432.59L245.227 422.216" fill="#8BD5D6"/>
<path d="M249.405 427.235L249.383 432.724L250.544 434.276L250.73 423.446" fill="#8BD5D6"/>
</g>
<path d="M287.262 361.077C285.729 361.03 284.288 361.123 282.947 361.351C272.829 363.079 278.841 372.904 278.841 372.904C278.841 372.904 247.746 360.546 231.007 365.471C218.897 369.035 226.205 379.757 226.205 379.757C226.205 379.757 210.93 379.311 208.936 388.276C207.453 394.941 216.618 399.829 216.618 399.829C216.618 399.829 201.551 403.929 209.856 413.42C217.101 421.698 238.395 420.594 255.809 431.685C273.225 442.776 279.516 457.783 279.516 457.783C279.516 457.783 268.635 446.41 248.426 439.154C230.238 432.625 211.663 436.766 211.241 445.379C210.499 460.552 234.922 463.561 244.323 467.855C279.84 484.751 296.394 522.333 293.921 558.438C290.49 608.499 257.084 633.926 252.076 644.001C246.549 655.114 250.687 674.483 246.65 681.186C239.934 692.33 180.402 698.088 168.95 682.761C165.312 677.89 176.198 657.997 171.08 650.496C167.502 645.254 139.23 654.137 127.348 634.28C119.824 621.706 123.039 619.176 116.786 612.694C113.164 608.939 116.508 603.712 116.82 601.724C117.169 599.498 107.823 597.893 108.708 594.224C110.882 585.212 107.181 582.331 107.181 582.331C107.181 582.331 92.3177 575.955 93.3566 571.014C94.2342 566.842 101.901 560.743 110.731 546.5C118.904 533.317 108.493 512.166 145.455 481.598C160.619 469.057 191.548 459.023 192.879 448.095C194.387 435.706 173.881 435.341 155.695 441.87C135.486 449.126 123.754 462.485 123.754 462.485C123.754 462.485 131.589 444.68 148.311 434.4C161.033 426.58 188.084 424.415 194.264 416.135C202.172 405.54 187.502 402.545 187.502 402.545C187.502 402.545 196.674 397.657 195.191 390.992C193.197 382.027 177.915 382.479 177.915 382.479C177.915 382.479 185.223 371.751 173.112 368.186C156.375 363.261 125.279 375.62 125.279 375.62C125.279 375.62 131.291 365.795 121.172 364.067C119.832 363.838 118.39 363.751 116.858 363.799C93.8701 364.509 50.7268 396.427 31.5605 463.583C20.9639 500.713 22.3653 537.394 25.873 559.291C31.9041 596.944 51.9236 647.493 92.1418 683.506C124.96 712.891 165.048 723.939 203.265 723.027C241.483 723.939 288.769 710.459 321.712 681.214C348.632 657.316 374.986 626.812 383.847 579.263C391.057 540.58 388.148 492.551 375.381 457.589C351.422 391.989 310.25 361.788 287.262 361.077Z" fill="#FFECDD" stroke="#2E4166" stroke-miterlimit="10" stroke-linecap="round"/>
<path d="M187.983 402.406C187.983 402.406 163.601 402.303 136.31 415.616C116.763 425.151 105.152 445.208 105.152 445.208" stroke="#2E4166" stroke-miterlimit="10" stroke-linecap="round"/>
<path d="M178.539 382.492C178.539 382.492 151.356 382.691 122.302 398.373C98.7032 411.11 87.707 431.909 87.707 431.909" stroke="#2E4166" stroke-miterlimit="10" stroke-linecap="round"/>
<path d="M125.633 375.509C125.633 375.509 107.266 382.698 92.6206 395.514C77.9127 408.384 71.1055 421.714 71.1055 421.714" stroke="#2E4166" stroke-miterlimit="10" stroke-linecap="round"/>
<path d="M216.98 399.714C216.98 399.714 241.362 399.61 268.654 412.924C288.202 422.459 299.812 442.515 299.812 442.515" stroke="#2E4166" stroke-miterlimit="10" stroke-linecap="round"/>
<path d="M226.426 379.8C226.426 379.8 253.611 379.998 282.663 395.681C306.261 408.418 317.259 429.217 317.259 429.217" stroke="#2E4166" stroke-miterlimit="10" stroke-linecap="round"/>
<path d="M278.887 372.817C278.887 372.817 297.7 380.006 312.346 392.822C327.052 405.692 333.86 419.021 333.86 419.021" stroke="#2E4166" stroke-miterlimit="10" stroke-linecap="round"/>
<path d="M212.129 444.773C211.414 449.433 215.611 453.904 223.245 455.385C231.505 456.987 237.757 450.691 233.814 445.12C230.363 440.248 213.315 437.048 212.129 444.773Z" fill="#F4CC85" stroke="#2E4166" stroke-miterlimit="10" stroke-linecap="round"/>
<path d="M211.146 401.295C206.904 403.562 206.908 407.693 210.409 410.364C214.783 413.702 226.067 414.815 226.885 407.157C227.604 400.427 215.452 398.995 211.146 401.295Z" fill="#F4CC85" stroke="#2E4166" stroke-miterlimit="10" stroke-linecap="round"/>
<path d="M210.906 383.802C207.374 386.459 210.119 391.699 216.251 393.083C224.009 394.832 230.135 391.628 229.418 386.005C228.6 379.582 216.268 379.769 210.906 383.802Z" fill="#F4CC85" stroke="#2E4166" stroke-miterlimit="10" stroke-linecap="round"/>
<path d="M226.974 366.624C222.167 369.857 224.746 374.29 228.977 375.493C237.904 378.03 244.508 373.983 242.993 368.01C241.676 362.822 230.392 364.324 226.974 366.624Z" fill="#F4CC85" stroke="#2E4166" stroke-miterlimit="10" stroke-linecap="round"/>
<path d="M282.991 360.294C279.448 360.773 275.641 364.106 281.428 368.343C285.042 370.991 295.133 372.406 296.145 366.819C296.884 362.741 288.99 359.483 282.991 360.294Z" fill="#F4CC85" stroke="#2E4166" stroke-miterlimit="10" stroke-linecap="round"/>
<path d="M192.696 444.202C193.786 448.789 189.965 453.585 182.474 455.679C174.371 457.944 167.63 452.175 171.11 446.304C174.154 441.168 190.889 436.598 192.696 444.202Z" fill="#F4CC85" stroke="#2E4166" stroke-miterlimit="10" stroke-linecap="round"/>
<path d="M192.95 404.298C197.193 406.565 197.187 410.697 193.688 413.367C189.313 416.706 178.028 417.818 177.21 410.16C176.491 403.43 188.645 401.998 192.95 404.298Z" fill="#F4CC85" stroke="#2E4166" stroke-miterlimit="10" stroke-linecap="round"/>
<path d="M193.186 386.806C196.718 389.463 193.975 394.703 187.841 396.086C180.082 397.836 173.957 394.631 174.674 389.008C175.494 382.585 187.825 382.773 193.186 386.806Z" fill="#F4CC85" stroke="#2E4166" stroke-miterlimit="10" stroke-linecap="round"/>
<path d="M177.123 369.627C181.93 372.861 179.351 377.293 175.12 378.496C166.192 381.033 159.588 376.986 161.104 371.013C162.42 365.825 173.705 367.328 177.123 369.627Z" fill="#F4CC85" stroke="#2E4166" stroke-miterlimit="10" stroke-linecap="round"/>
<path d="M121.101 363.297C124.644 363.776 128.45 367.108 122.666 371.346C119.051 373.994 108.96 375.409 107.947 369.822C107.207 365.744 115.102 362.486 121.101 363.297Z" fill="#F4CC85" stroke="#2E4166" stroke-miterlimit="10" stroke-linecap="round"/>
<path d="M214.039 444.414C216.125 442.819 218.209 442.139 220.751 442.131" stroke="white" stroke-miterlimit="10" stroke-linecap="round"/>
<path d="M223.352 442.407C223.931 442.57 224.513 442.539 225.094 442.703" stroke="white" stroke-miterlimit="10" stroke-linecap="round"/>
<path d="M211.656 385.909C212.531 384.16 217.545 383.085 219.341 383.085" stroke="white" stroke-miterlimit="10" stroke-linecap="round"/>
<path d="M221.711 383.209C222.68 383.209 223.53 383.266 224.493 383.458" stroke="white" stroke-miterlimit="10" stroke-linecap="round"/>
<path d="M289.312 362.545C291.578 363.188 292.899 364.061 294.423 365.97" stroke="white" stroke-miterlimit="10" stroke-linecap="round"/>
<path d="M194.142 407.771C191.963 405.295 189.038 405.158 185.906 405.349" stroke="white" stroke-miterlimit="10" stroke-linecap="round"/>
<path d="M183.509 405.849C182.362 406.152 181.277 406.581 180.277 407.236" stroke="white" stroke-miterlimit="10" stroke-linecap="round"/>
<path d="M190.398 443.976C188.848 441.899 185.123 442.038 182.816 442.452" stroke="white" stroke-miterlimit="10" stroke-linecap="round"/>
<path d="M180.332 442.898C179.154 443.109 177.985 443.738 176.875 444.203" stroke="white" stroke-miterlimit="10" stroke-linecap="round"/>
<path d="M177.888 372.886C176.796 370.472 173.356 370.081 171.105 369.795" stroke="white" stroke-miterlimit="10" stroke-linecap="round"/>
<path d="M168.584 369.494C167.528 369.32 166.311 369.583 165.27 369.773" stroke="white" stroke-miterlimit="10" stroke-linecap="round"/>
<path d="M114.871 365.56C113.043 365.711 111.279 366.481 110.363 368.135" stroke="white" stroke-miterlimit="10" stroke-linecap="round"/>
<path d="M235.323 435.987C233.755 436.738 232.826 437.242 231.358 438.442C228.05 441.147 225.738 444.644 224.907 449.007C224.017 453.681 225.349 457.997 228.091 461.787C228.839 462.82 229.639 463.736 230.442 464.527C230.694 464.774 230.923 464.978 231.14 465.169L231.918 525.26C231.927 525.864 232.421 526.347 233.025 526.34C233.628 526.332 234.114 525.836 234.105 525.233L233.313 464.131L232.902 463.803C232.865 463.774 232.782 463.708 232.664 463.604C232.458 463.425 232.231 463.215 231.979 462.969C231.26 462.259 230.54 461.431 229.869 460.502C227.45 457.16 226.296 453.427 227.059 449.417C227.787 445.598 229.804 442.536 232.738 440.137C234.061 439.055 235.487 438.179 236.906 437.499C237.403 437.262 237.858 437.067 238.267 436.911C238.409 436.857 238.531 436.81 238.636 436.774C238.695 436.754 238.739 436.745 238.752 436.74C239.329 436.562 235.874 435.723 235.323 435.987Z" fill="#044982" stroke="#294064" stroke-miterlimit="10" stroke-linecap="round"/>
<path d="M162.327 439.429C162.08 439.971 162.323 440.605 162.874 440.848C162.884 440.852 162.917 440.866 162.963 440.888C163.046 440.928 163.145 440.978 163.256 441.036C163.581 441.204 163.942 441.409 164.336 441.654C165.469 442.357 166.607 443.222 167.665 444.256C169.979 446.519 171.584 449.249 172.188 452.483C172.907 456.329 172.222 460.198 170.63 463.816C170.227 464.734 169.796 465.561 169.366 466.283C169.217 466.534 169.079 466.751 168.956 466.935C168.885 467.042 168.841 467.107 168.819 467.137L168.607 467.426L169.229 533.28C169.235 533.874 169.726 534.354 170.33 534.349C170.934 534.343 171.422 533.861 171.416 533.267L170.801 468.064C170.933 467.868 171.055 467.697 171.252 467.365C171.726 466.571 172.199 465.671 172.64 464.67C174.389 460.691 175.148 456.41 174.341 452.093C173.65 448.395 171.814 445.284 169.202 442.73C168.024 441.577 166.767 440.615 165.505 439.833C165.061 439.557 164.649 439.327 164.275 439.133C164.044 439.014 163.769 438.885 163.769 438.885C163.769 438.885 162.513 439.023 162.327 439.429Z" fill="#044982" stroke="#294064" stroke-miterlimit="10" stroke-linecap="round"/>
<path d="M169.092 404.296C169.128 404.317 169.482 404.778 169.605 404.86C169.818 405.001 170.062 405.171 170.322 405.372C171.071 405.952 171.816 406.648 172.516 407.457C174.146 409.341 175.031 410.806 175.577 414.031C176.224 417.851 175.26 420.118 173.794 422.901C173.377 423.692 172.933 424.402 172.488 425.02C172.334 425.234 172.191 425.417 172.065 425.573C171.992 425.663 171.942 425.72 171.921 425.744L171.655 426.052L171.559 437.972L173.746 437.697L173.835 426.844C173.968 426.679 174.072 426.557 174.258 426.298C174.76 425.601 175.261 424.805 175.728 423.92C177.389 420.766 178.218 417.32 177.744 413.744C177.351 410.787 176.062 408.215 174.17 406.028C173.369 405.103 172.513 404.307 171.655 403.643C171.352 403.409 168.571 403.992 169.092 404.296Z" fill="#044982" stroke="#294064" stroke-miterlimit="10" stroke-linecap="round"/>
<path d="M153.483 385.851C153.217 386.393 153.463 386.887 154.005 387.153C157.559 388.9 159.981 391.927 161.044 395.62C162.027 399.039 161.518 403.513 160.074 406.401C159.804 406.942 162.465 406.162 162.566 405.929C163.979 402.66 164.206 398.687 163.148 395.012C161.92 390.741 159.376 387.375 155.252 385.349C155.117 385.282 153.683 385.445 153.483 385.851Z" fill="#044982" stroke="#294064" stroke-miterlimit="10" stroke-linecap="round"/>
<path d="M133.637 372.265C133.428 372.831 133.619 373.317 134.186 373.526C138.137 374.986 140.566 377.393 141.799 380.504C142.788 382.999 142.926 385.685 142.557 388.123C142.519 388.38 142.475 388.605 142.434 388.8C142.411 388.911 142.394 388.982 142.387 389.012C142.235 389.597 144.639 388.966 144.717 388.452C145.138 385.663 144.988 382.605 143.835 379.697C142.376 376.014 140.109 373.345 135.571 371.667C135.429 371.615 133.794 371.84 133.637 372.265Z" fill="#044982" stroke="#294064" stroke-miterlimit="10" stroke-linecap="round"/>
<path d="M238.781 402.215C237.619 402.84 236.46 403.64 235.376 404.627C233.795 406.068 232.507 407.792 231.632 409.821C230.6 412.216 230.486 414.625 231.146 416.983C231.676 418.87 232.671 420.635 233.996 422.266C234.696 423.126 235.448 423.9 236.196 424.569C236.406 424.755 236.594 424.904 236.778 425.054L236.745 435.876L239.104 436.426L238.958 423.967L238.507 423.646C238.472 423.622 238.398 423.564 238.289 423.475C238.096 423.323 237.884 423.143 237.652 422.936C236.985 422.34 236.318 421.656 235.697 420.892C233.084 417.677 232.115 414.221 233.642 410.682C234.387 408.953 235.485 407.48 236.845 406.24C237.79 405.381 238.8 404.687 239.813 404.142C240.163 403.953 240.486 403.795 240.775 403.671C240.941 403.599 241.055 403.558 241.103 403.541C241.674 403.34 241.871 403.127 241.672 402.557C241.521 402.13 239.187 401.995 238.781 402.215Z" fill="#044982" stroke="#294064" stroke-miterlimit="10" stroke-linecap="round"/>
<path d="M256.562 384.681C254.784 385.108 253.002 385.802 251.336 386.82C249.584 387.89 248.064 389.26 246.84 390.968C246.785 391.043 246.732 391.118 246.682 391.194C245.191 393.358 244.379 395.668 244.331 398.041C244.27 400.894 245.121 403.957 245.121 403.957L247.778 404.782C247.778 404.782 247.185 402.892 247.113 402.47C246.538 399.125 246.212 395.727 248.48 392.438C248.523 392.373 248.569 392.303 248.615 392.239C249.663 390.779 250.966 389.608 252.477 388.686C253.934 387.796 255.506 387.184 257.076 386.806C257.625 386.674 258.135 386.58 258.585 386.519C258.743 386.498 258.874 386.482 258.99 386.472C259.055 386.465 259.097 386.465 259.112 386.465C259.716 386.431 260.053 386.241 260.02 385.637C259.987 385.035 257.188 384.531 256.562 384.681Z" fill="#044982" stroke="#294064" stroke-miterlimit="10" stroke-linecap="round"/>
<path d="M260.145 366.942C257.348 367.245 253.715 369.926 252.138 372.306C252.119 372.337 252.119 372.333 252.097 372.364C249.982 375.597 249.805 379.055 250.765 382.218C250.883 382.608 251.012 382.955 251.141 383.264C251.222 383.458 253.984 384.189 253.984 384.189C253.984 384.189 253.199 382.453 253.142 382.32C253.044 382.083 252.943 381.808 252.849 381.498C252.082 378.968 252.219 376.255 253.895 373.694C253.912 373.669 253.912 373.668 253.929 373.643C255.239 371.667 256.969 370.324 259.04 369.515C261.404 368.592 264.768 369.752 264.781 367.947C264.792 366.571 262.942 366.64 260.145 366.942Z" fill="#044982" stroke="#294064" stroke-miterlimit="10" stroke-linecap="round"/>
<path d="M232.798 469.481L232.75 464.419L231.688 464.99L231.703 467.865L232.798 469.481Z" fill="#294064"/>
<path d="M170.309 467.9L169.137 467.677L169.206 472.946L170.305 471.955L170.309 467.9Z" fill="#294064"/>
<path d="M173.314 426.736L172.197 426.335L172.125 431.424L173.267 430.5L173.314 426.736Z" fill="#294064"/>
<path d="M238.388 424.349L237.329 424.877L237.301 429.113L238.477 430.403L238.388 424.349Z" fill="#294064"/>
<path d="M49.2595 428.084C43.8923 437.013 35.8433 455.938 32.293 474.993" stroke="#2E4166" stroke-miterlimit="10" stroke-linecap="round"/>
<path d="M31.4914 479.581C29.2678 488.238 28.2109 497.284 28.2109 497.284" stroke="#2E4166" stroke-miterlimit="10" stroke-linecap="round"/>
<path d="M378.984 484.054C381.924 498.764 383.754 512.387 383.754 527.42" stroke="#2E4166" stroke-miterlimit="10" stroke-linecap="round"/>
<path d="M383.928 534.397C383.928 534.397 384.311 547.594 382.734 563.202" stroke="#2E4166" stroke-miterlimit="10" stroke-linecap="round"/>
<path d="M328.246 424.58C332.779 421.181 337.267 417.913 341.98 414.77" stroke="#2E4166" stroke-miterlimit="10" stroke-linecap="round"/>
<path d="M80.0195 427.489C85.1053 430.031 90.5398 433.769 94.5945 437.823" stroke="#2E4166" stroke-miterlimit="10" stroke-linecap="round"/>
<path d="M166.876 502.409C148.834 505.201 135.6 519.903 135.789 538.241C136.037 562.244 142.998 581.198 151.047 603.967C154.979 615.091 163.779 627.068 177.624 628.625C191.47 630.18 201.85 619.626 201.85 619.626C201.85 619.626 217.216 634.599 234.532 626.061C248.978 618.937 251.979 603.952 257.617 587.362C265.59 563.896 277.541 529.647 259.791 513.935C235.443 492.384 206.972 516.734 206.972 516.734C206.972 516.734 189.942 498.838 166.876 502.409Z" fill="#F57450" stroke="#294064" stroke-miterlimit="10" stroke-linecap="round" stroke-linejoin="round"/>
<path d="M207.406 518.643C207.278 496.032 224.4 483.431 243.828 474.83C245.22 505.543 221.519 515.908 205.331 523.287C205.521 523.049 205.521 523.049 205.712 522.809" fill="#6CCACB"/>
<path d="M207.406 518.643C207.278 496.032 224.4 483.431 243.828 474.83C245.22 505.543 221.519 515.908 205.331 523.287C205.521 523.049 205.521 523.049 205.712 522.809" stroke="#294064" stroke-miterlimit="10" stroke-linecap="round" stroke-linejoin="round"/>
<path d="M196.84 488.837C196.961 485.219 199.991 482.385 203.609 482.505C207.226 482.626 210.061 485.656 209.94 489.274L208.838 522.358C208.717 525.975 205.687 528.81 202.069 528.689C198.452 528.569 195.617 525.539 195.738 521.921L196.84 488.837Z" fill="#8BD5D6" stroke="#294064" stroke-miterlimit="10" stroke-linecap="round" stroke-linejoin="round"/>
<path d="M171.917 513.109C157.249 512.62 146.454 525.278 149.253 540.207" stroke="white" stroke-miterlimit="10" stroke-linecap="round" stroke-linejoin="round"/>
<path d="M149.902 549.207C149.611 551.881 151.15 555.865 152.161 558.386" stroke="white" stroke-miterlimit="10" stroke-linecap="round" stroke-linejoin="round"/>
<path d="M251.281 579.353C250.291 588.427 246.802 596.613 244.535 605.417" stroke="white" stroke-miterlimit="10" stroke-linecap="round" stroke-linejoin="round"/>
<path d="M150.543 586.115C151.359 594.214 158.898 613.277 165.146 618.188C167.435 619.988 170.635 620.821 173.326 621.844" stroke="#294064" stroke-miterlimit="10" stroke-linecap="round" stroke-linejoin="round"/>
<path d="M200.949 488.05L200.406 507.185" stroke="#294064" stroke-miterlimit="10" stroke-linecap="round" stroke-linejoin="round"/>
<path d="M200.375 511.369L199.958 521.443" stroke="#294064" stroke-miterlimit="10" stroke-linecap="round" stroke-linejoin="round"/>
<path d="M209.085 515.328L243.073 476.434" stroke="#294064" stroke-miterlimit="10" stroke-linecap="round" stroke-linejoin="round"/>
<path d="M222.415 500.555L238.139 498.195" stroke="#294064" stroke-miterlimit="10" stroke-linecap="round" stroke-linejoin="round"/>
</g>
<defs>
<clipPath id="clip0_5304_23565">
<path d="M0 0H414V841C414 852.046 405.046 861 394 861H20C8.95432 861 0 852.046 0 841V0Z" fill="white"/>
</clipPath>
</defs>
</svg>
