<svg width="80" height="109" viewBox="0 0 80 109" fill="none" xmlns="http://www.w3.org/2000/svg">
<g clip-path="url(#clip0_5304_21832)">
<g clip-path="url(#clip1_5304_21832)">
<mask id="mask0_5304_21832" style="mask-type:luminance" maskUnits="userSpaceOnUse" x="0" y="0" width="80" height="109">
<path d="M80 0H0V109H80V0Z" fill="white"/>
</mask>
<g mask="url(#mask0_5304_21832)">
<path d="M0 0H80V109H0V0Z" fill="#50A1B7"/>
</g>
<path d="M94.1386 20.0859C96.9188 9.80858 74.4071 0.759786 70.0372 12.6202C69.1427 15.0483 70.3878 17.0166 71.6501 17.6337C73.7029 18.6373 76.1283 16.9643 75.1302 14.5229C72.4943 8.0757 62.5323 7.64353 56.4868 14.775C38.268 36.2663 29 75.5 -4 68C-11.0903 65.8512 -23.4364 57.039 -29 52.5" stroke="white" stroke-width="0.35" stroke-miterlimit="10" stroke-linecap="round" stroke-linejoin="round" stroke-dasharray="3 3"/>
<path d="M42.0989 15.3774L72.8356 33.483C76.9644 35.9151 76.963 41.8873 72.8331 44.3175L39.3356 64.0281C37.5151 65.0994 35.2568 65.0988 33.4368 64.0266L5.33594 47.4717L5.33893 37.3205L42.0989 15.3774Z" fill="#FFECDD" stroke="#294064" stroke-width="0.35" stroke-miterlimit="10" stroke-linejoin="round"/>
<path d="M41.9259 18.4104L67.4231 33.5259C72.741 36.3612 75.3509 42.8127 71.2209 45.2429L46.0295 60.0826L40.6331 63.3155C42.6527 56.613 40.6331 53.8347 29.4614 47.9255C23.5182 44.7819 17.1346 41.053 10.3887 37.1727L41.9259 18.4104Z" stroke="#294064" stroke-width="0.35" stroke-miterlimit="10" stroke-linejoin="round"/>
<path d="M36.5137 29.1928L44.7792 24.0342" stroke="#294064" stroke-width="0.35" stroke-miterlimit="10" stroke-linecap="round" stroke-linejoin="round"/>
<path d="M45.6523 23.4171L47.9927 21.9314" stroke="#294064" stroke-width="0.35" stroke-miterlimit="10" stroke-linecap="round" stroke-linejoin="round"/>
<path d="M38 30.4228L42.3869 27.782" stroke="#294064" stroke-width="0.35" stroke-miterlimit="10" stroke-linecap="round" stroke-linejoin="round"/>
<path d="M43.2734 27.1897L46.1366 25.3887" stroke="#294064" stroke-width="0.35" stroke-miterlimit="10" stroke-linecap="round" stroke-linejoin="round"/>
<path d="M46.9766 24.8598L49.8633 23.0493" stroke="#294064" stroke-width="0.35" stroke-miterlimit="10" stroke-linecap="round" stroke-linejoin="round"/>
<path d="M39.7246 31.5797L43.4206 29.3447" stroke="#294064" stroke-width="0.35" stroke-miterlimit="10" stroke-linecap="round" stroke-linejoin="round"/>
<path d="M44.3496 28.7156L51.59 24.1504" stroke="#294064" stroke-width="0.35" stroke-miterlimit="10" stroke-linecap="round" stroke-linejoin="round"/>
<path d="M41.6934 32.4648L50.4177 27.1204" stroke="#294064" stroke-width="0.35" stroke-miterlimit="10" stroke-linecap="round" stroke-linejoin="round"/>
<path d="M43.4844 33.5524L46.1321 31.9722" stroke="#294064" stroke-width="0.35" stroke-miterlimit="10" stroke-linecap="round" stroke-linejoin="round"/>
<path d="M47.127 31.2938L55.4322 26.3809" stroke="#294064" stroke-width="0.35" stroke-miterlimit="10" stroke-linecap="round" stroke-linejoin="round"/>
<path d="M45.4082 34.7139L49.1579 32.489" stroke="#294064" stroke-width="0.35" stroke-miterlimit="10" stroke-linecap="round" stroke-linejoin="round"/>
<path d="M50.1973 31.8938L52.0924 30.7493" stroke="#294064" stroke-width="0.35" stroke-miterlimit="10" stroke-linecap="round" stroke-linejoin="round"/>
<path d="M53.2363 29.9865L57.4129 27.5391" stroke="#294064" stroke-width="0.35" stroke-miterlimit="10" stroke-linecap="round" stroke-linejoin="round"/>
<path d="M47.3105 35.8109L55.3928 31.1013" stroke="#294064" stroke-width="0.35" stroke-miterlimit="10" stroke-linecap="round" stroke-linejoin="round"/>
<path d="M56.6836 30.2111L59.3204 28.678" stroke="#294064" stroke-width="0.35" stroke-miterlimit="10" stroke-linecap="round" stroke-linejoin="round"/>
<path d="M49.3223 36.8757L53.4266 34.4458" stroke="#294064" stroke-width="0.35" stroke-miterlimit="10" stroke-linecap="round" stroke-linejoin="round"/>
<path d="M54.584 33.7015L61.1434 29.8132" stroke="#294064" stroke-width="0.35" stroke-miterlimit="10" stroke-linecap="round" stroke-linejoin="round"/>
<path d="M51.2227 38.1658L52.9697 37.1052" stroke="#294064" stroke-width="0.35" stroke-miterlimit="10" stroke-linecap="round" stroke-linejoin="round"/>
<path d="M54.1777 36.4685L59.6825 33.1968" stroke="#294064" stroke-width="0.35" stroke-miterlimit="10" stroke-linecap="round" stroke-linejoin="round"/>
<path d="M60.6602 32.6175L63.2801 31.0256" stroke="#294064" stroke-width="0.35" stroke-miterlimit="10" stroke-linecap="round" stroke-linejoin="round"/>
<path d="M31.1582 48.6395L41.6875 42.4705" stroke="#294064" stroke-width="0.35" stroke-miterlimit="10" stroke-linecap="round" stroke-linejoin="round"/>
<path d="M43.25 41.3338L46.3253 39.521" stroke="#294064" stroke-width="0.35" stroke-miterlimit="10" stroke-linecap="round" stroke-linejoin="round"/>
<path d="M33.1953 49.8815L38.9597 46.6594" stroke="#294064" stroke-width="0.35" stroke-miterlimit="10" stroke-linecap="round" stroke-linejoin="round"/>
<path d="M40.125 45.9367L43.8873 43.7393" stroke="#294064" stroke-width="0.35" stroke-miterlimit="10" stroke-linecap="round" stroke-linejoin="round"/>
<path d="M44.9902 43.094L48.7835 40.885" stroke="#294064" stroke-width="0.35" stroke-miterlimit="10" stroke-linecap="round" stroke-linejoin="round"/>
<path d="M35.4609 51.2931L40.3175 48.5662" stroke="#294064" stroke-width="0.35" stroke-miterlimit="10" stroke-linecap="round" stroke-linejoin="round"/>
<path d="M41.5391 47.7985L51.0532 42.2285" stroke="#294064" stroke-width="0.35" stroke-miterlimit="10" stroke-linecap="round" stroke-linejoin="round"/>
<path d="M37.5254 52.8515L48.7664 46.3108" stroke="#294064" stroke-width="0.35" stroke-miterlimit="10" stroke-linecap="round" stroke-linejoin="round"/>
<path d="M39.4648 54.5043L42.7935 52.6106" stroke="#294064" stroke-width="0.35" stroke-miterlimit="10" stroke-linecap="round" stroke-linejoin="round"/>
<path d="M44.2266 51.9443L54.9816 45.7634" stroke="#294064" stroke-width="0.35" stroke-miterlimit="10" stroke-linecap="round" stroke-linejoin="round"/>
<path d="M40.8223 56.7996L45.8347 53.9563" stroke="#294064" stroke-width="0.35" stroke-miterlimit="10" stroke-linecap="round" stroke-linejoin="round"/>
<path d="M47.5371 53.0388L50.0274 51.6423" stroke="#294064" stroke-width="0.35" stroke-miterlimit="10" stroke-linecap="round" stroke-linejoin="round"/>
<path d="M51.4629 50.7876L56.7138 47.7571" stroke="#294064" stroke-width="0.35" stroke-miterlimit="10" stroke-linecap="round" stroke-linejoin="round"/>
<path d="M41.4395 59.6227L52.0168 53.5769" stroke="#294064" stroke-width="0.35" stroke-miterlimit="10" stroke-linecap="round" stroke-linejoin="round"/>
<path d="M53.502 52.5324L57.0653 50.4971" stroke="#294064" stroke-width="0.35" stroke-miterlimit="10" stroke-linecap="round" stroke-linejoin="round"/>
<path d="M52.8145 39.3282L65.0238 32.1033L67.4235 33.526C72.7414 36.3613 75.3512 42.8128 71.2212 45.243L60.2342 51.7169C60.2342 51.7169 64.9656 44.3102 52.8145 39.3282Z" fill="#455A82" stroke="#294064" stroke-width="0.35" stroke-miterlimit="10" stroke-linejoin="round"/>
<path d="M18.0801 33.7566L36.6685 22.5454L40.669 24.7599L21.6597 36.0415L18.0801 33.7566Z" fill="#F57450"/>
<path d="M12.5 37.1436L17.003 34.4417L21.5 37.1436L17.003 39.5002L12.5 37.1436Z" fill="#F4CC85"/>
<path d="M18 40.0002L35.7591 30.0002L47.3178 36.7456L30.1596 46.8591L18 40.0002Z" fill="#F4CC85"/>
<path d="M39.4781 21.1688C39.6989 20.2318 40.9122 19.7159 42.188 20.0166C43.4639 20.3172 44.3192 21.3206 44.0984 22.2576C43.8776 23.1946 42.6643 23.7104 41.3884 23.4098C40.1126 23.1091 39.2573 22.1058 39.4781 21.1688Z" fill="#C6C157"/>
<path d="M5.33594 37.3247L34.3388 54.3565C36.8126 55.8093 38.3076 58.486 38.2472 61.3542C38.1961 63.7788 35.5562 65.2537 33.4646 64.0263L5.33594 47.5187V37.3247Z" fill="#E8C8AE" stroke="#294064" stroke-width="0.35" stroke-miterlimit="10" stroke-linejoin="round"/>
<path d="M5.48817 46.1582C5.48817 46.1582 17.2164 53.3464 24.4008 57.3309C30.5732 60.7543 35.4823 64.7266 36.7448 61.5988C37.2778 60.2784 36.564 57.4208 32.6915 55.1072C24.6662 50.3125 5.35938 39.2412 5.35938 39.2412" stroke="#294064" stroke-width="0.35" stroke-miterlimit="10" stroke-linecap="round" stroke-linejoin="round"/>
<path d="M5.66269 44.9903C5.66269 44.9903 19.6801 53.3462 28.2488 58.2514C32.091 60.4508 35.1789 62.5879 35.5047 60.4321C35.7269 58.9619 34.1661 57.2803 27.2495 53.2068C19.5157 48.6519 5.29297 41.022 5.29297 41.022" stroke="#294064" stroke-width="0.35" stroke-miterlimit="10" stroke-linecap="round" stroke-linejoin="round"/>
<path d="M5.36914 43.1721L31.182 57.8204" stroke="#294064" stroke-width="0.35" stroke-miterlimit="10" stroke-linecap="round" stroke-linejoin="round"/>
</g>
</g>
<defs>
<clipPath id="clip0_5304_21832">
<rect width="80" height="109" rx="9" fill="white"/>
</clipPath>
<clipPath id="clip1_5304_21832">
<rect width="80" height="109" fill="white"/>
</clipPath>
</defs>
</svg>
