<svg width="414" height="861" viewBox="0 0 414 861" fill="none" xmlns="http://www.w3.org/2000/svg">
<g clip-path="url(#clip0_5304_23316)">
<path d="M0 0H414V841C414 852.046 405.046 861 394 861H20C8.95432 861 0 852.046 0 841V0Z" fill="#50A1B7"/>
<path d="M-67 563C28 563 -42.6702 606.444 -33 608C-24 617 47.9996 618 107 608C220 588.847 301.08 501.998 341 441C366.112 402.629 380.155 364.695 380.947 321.121C381.024 316.854 379.83 298.919 372.824 296.288C339.421 283.747 342.921 349 351.165 376.303C368.613 434.091 427.543 484.899 473 520.695" stroke="white" stroke-miterlimit="10" stroke-linecap="round" stroke-linejoin="round" stroke-dasharray="9.41 9.41"/>
<path d="M341.812 605.128C335.285 613.076 332.288 633.714 348.569 630.163C353.132 629.167 356.514 625.733 358.42 621.532C358.931 620.409 359.05 618.443 360.044 617.662" fill="#FFC6B2"/>
<path d="M341.812 605.128C335.285 613.076 332.288 633.714 348.569 630.163C353.132 629.167 356.514 625.733 358.42 621.532C358.931 620.409 359.05 618.443 360.044 617.662" stroke="#0F3147" stroke-width="0.8287" stroke-miterlimit="10" stroke-linecap="round" stroke-linejoin="round"/>
<path d="M296.504 650.884C296.504 632.908 311.077 618.335 329.053 618.335C347.029 618.335 361.602 632.908 361.602 650.884C361.602 668.86 347.029 683.433 329.053 683.433C311.077 683.433 296.504 668.86 296.504 650.884Z" fill="#F57450" stroke="#0F3147" stroke-width="0.8287" stroke-miterlimit="10" stroke-linejoin="round"/>
<mask id="mask0_5304_23316" style="mask-type:luminance" maskUnits="userSpaceOnUse" x="296" y="618" width="66" height="66">
<path d="M296.504 650.863C296.504 632.886 311.077 618.313 329.053 618.313C347.029 618.313 361.602 632.886 361.602 650.863C361.602 668.839 347.029 683.411 329.053 683.411C311.077 683.411 296.504 668.839 296.504 650.863Z" fill="white"/>
</mask>
<g mask="url(#mask0_5304_23316)">
<path d="M291.551 654.356C301.976 631.768 326.83 627.296 348.273 636.485C354.927 639.337 366.111 649.23 366.111 649.23" stroke="#0F3147" stroke-width="0.8287" stroke-miterlimit="10" stroke-linecap="round" stroke-linejoin="round"/>
<path d="M316.666 617.85C316.666 617.85 306.337 623.627 305.111 640.598C303.296 665.71 332.989 687.217 353.415 677.626" stroke="#0F3147" stroke-width="0.8287" stroke-miterlimit="10" stroke-linecap="round" stroke-linejoin="round"/>
<path d="M341.742 618.746C326.477 623.051 320.716 636.824 324.24 647.783C326.619 655.188 334.432 659.864 339.634 664.458C347.74 671.615 345.602 679.735 340.293 689.73" stroke="#0F3147" stroke-width="0.8287" stroke-miterlimit="10" stroke-linecap="round" stroke-linejoin="round"/>
</g>
<path d="M296.508 650.908C296.508 632.931 311.08 618.358 329.057 618.358C347.033 618.358 361.606 632.931 361.606 650.908C361.606 668.884 347.033 683.456 329.057 683.456C311.08 683.456 296.508 668.884 296.508 650.908Z" stroke="#0F3147" stroke-width="0.8287" stroke-miterlimit="10" stroke-linejoin="round"/>
<path d="M331.113 618.58C331.113 618.58 355.984 630.171 361.929 659.684C368.835 640.7 364.192 629.357 347.112 622.559C344.397 621.478 331.113 618.58 331.113 618.58Z" fill="#0F3147" stroke="#0F3147" stroke-width="0.8287" stroke-miterlimit="10" stroke-linecap="round" stroke-linejoin="round"/>
<path d="M349.061 681.678C347.327 691.136 357.205 685.579 361.589 678.726C372.997 660.897 370.46 640.424 370.46 640.424" fill="#FFC6B2"/>
<path d="M349.061 681.678C347.327 691.136 357.205 685.579 361.589 678.726C372.997 660.897 370.46 640.424 370.46 640.424" stroke="#0F3147" stroke-width="0.8287" stroke-miterlimit="10" stroke-linecap="round" stroke-linejoin="round"/>
<path d="M341.797 612.727C337.208 622.473 342.433 626.906 341.331 631.415C339.721 638.004 336.14 641.687 332.29 649.655C329.501 655.424 335.012 658.69 340.744 653.595C348.354 646.83 353.383 630.442 357.9 636.603C367.408 649.575 350.451 670.058 345.442 679.085C344.89 680.08 345.311 682.863 347.558 683.064C354.693 683.696 363.585 669.205 366.163 664.275C382.364 633.296 352.669 590.554 352.669 590.554" fill="#FFC6B2"/>
<path d="M341.797 612.727C337.208 622.473 342.433 626.906 341.331 631.415C339.721 638.004 336.14 641.687 332.29 649.655C329.501 655.424 335.012 658.69 340.744 653.595C348.354 646.83 353.383 630.442 357.9 636.603C367.408 649.575 350.451 670.058 345.442 679.085C344.89 680.08 345.311 682.863 347.558 683.064C354.693 683.696 363.585 669.205 366.163 664.275C382.364 633.296 352.669 590.554 352.669 590.554" stroke="#0F3147" stroke-width="0.8287" stroke-miterlimit="10" stroke-linecap="round" stroke-linejoin="round"/>
<path d="M328.901 600.623C328.63 606.481 337.013 610.4 341.768 609.945C356.298 608.551 366.668 589.41 351.069 580.934C348.528 579.553 345.455 578.636 342.572 578.502" fill="#FFECDD"/>
<path d="M328.901 600.623C328.63 606.481 337.013 610.4 341.768 609.945C356.298 608.551 366.668 589.41 351.069 580.934C348.528 579.553 345.455 578.636 342.572 578.502" stroke="#0F3147" stroke-width="0.8287" stroke-miterlimit="10" stroke-linecap="round" stroke-linejoin="round"/>
<mask id="mask1_5304_23316" style="mask-type:luminance" maskUnits="userSpaceOnUse" x="328" y="578" width="31" height="32">
<path d="M328.897 600.632C328.626 606.49 337.009 610.409 341.764 609.953C356.294 608.56 366.665 589.419 351.065 580.943C348.524 579.562 345.451 578.645 342.568 578.511" fill="white"/>
</mask>
<g mask="url(#mask1_5304_23316)">
<path d="M333.852 600.548C334.682 604.094 338.684 609.425 342.647 610.199" stroke="#0F3147" stroke-width="0.8287" stroke-miterlimit="10" stroke-linecap="round" stroke-linejoin="round"/>
<path d="M338.763 599.882C338.29 602.304 342.07 605.956 343.678 607.351C344.35 607.934 345.014 608.454 345.78 608.915C345.917 608.996 346.768 609.465 346.618 609.315" stroke="#0F3147" stroke-width="0.8287" stroke-miterlimit="10" stroke-linecap="round" stroke-linejoin="round"/>
<path d="M343.231 598.509C342.974 599.826 348.792 607.02 350.325 607.319" stroke="#0F3147" stroke-width="0.8287" stroke-miterlimit="10" stroke-linecap="round" stroke-linejoin="round"/>
<path d="M346.664 595.355C349.681 597.062 351.86 601.853 353.761 604.675" stroke="#0F3147" stroke-width="0.8287" stroke-miterlimit="10" stroke-linecap="round" stroke-linejoin="round"/>
<path d="M350.586 591.615C352.642 593.389 356.709 599.149 356.722 602.036" stroke="#0F3147" stroke-width="0.8287" stroke-miterlimit="10" stroke-linecap="round" stroke-linejoin="round"/>
<path d="M352.984 587.974C356.052 590.338 358.649 593.692 359.293 597.683" stroke="#0F3147" stroke-width="0.8287" stroke-miterlimit="10" stroke-linecap="round" stroke-linejoin="round"/>
</g>
<path d="M223.923 378.007C223.923 378.007 204.269 369.324 187.145 377.545C168.246 386.616 164.86 397.866 161.34 411.002C171.394 421.167 183.918 441.979 197.236 447.18C209.985 452.16 224.55 445.372 238.207 444.469" fill="#0F3147"/>
<path d="M223.923 378.007C223.923 378.007 204.269 369.324 187.145 377.545C168.246 386.616 164.86 397.866 161.34 411.002C171.394 421.167 183.918 441.979 197.236 447.18C209.985 452.159 224.55 445.372 238.207 444.469" stroke="#0F3147" stroke-width="0.8287" stroke-miterlimit="10" stroke-linecap="round" stroke-linejoin="round"/>
<path d="M285.136 407.184C285.136 407.184 291.743 411.318 293.209 414.688C299.567 429.316 284.563 441.747 284.563 441.747C310.871 448.245 321.452 487.319 290.21 507.614C279.005 514.893 266.104 520.37 252.894 518.862C216.048 514.655 199.378 476.721 182.907 449.306C178.978 442.768 173.725 436.873 171.086 429.718" fill="#0F3147"/>
<path d="M285.136 407.184C285.136 407.184 291.743 411.318 293.209 414.688C299.567 429.316 284.563 441.747 284.563 441.747C310.871 448.245 321.452 487.319 290.21 507.614C279.005 514.893 266.104 520.37 252.894 518.862C216.048 514.655 199.378 476.721 182.907 449.306C178.978 442.768 173.725 436.873 171.086 429.718" stroke="#0F3147" stroke-width="0.8287" stroke-miterlimit="10" stroke-linecap="round" stroke-linejoin="round"/>
<path d="M266.983 364.497C284.805 373.402 295.059 389.954 292.15 403.592C292.049 404.073 292.008 404.234 291.873 404.707C293.2 403.761 295.854 402.222 300.123 405.22C304.387 408.216 302.28 412.912 300.699 414.887C299.063 416.475 294.87 418.756 291.181 415.181C290.532 414.616 289.172 413.019 288.911 411.158C288.654 411.534 288.379 411.902 288.098 412.26C280.419 422.029 264.379 424.883 248.317 419.487C247.131 422.102 244.239 427.933 242.165 430.359C239.568 433.389 226.014 431.668 225.731 420.707C228.267 419.089 231.011 413.486 232.07 410.885C220.291 401.91 213.894 389.344 215.649 378.431C215.756 377.749 215.893 377.072 216.069 376.405C214.068 377.204 209.377 377.824 206.598 373.909C203.818 369.995 206.186 365.982 207.717 364.462C209.347 363.113 213.515 361.509 217.086 365.89C217.717 366.566 218.924 368.399 218.735 370.323C219.33 369.539 219.656 368.986 220.164 368.36C229.13 357.385 248.872 355.448 266.983 364.497Z" fill="#FEC5B1" stroke="#0F3147" stroke-width="0.8287" stroke-miterlimit="10" stroke-linecap="round" stroke-linejoin="round"/>
<path d="M258.214 353.56C262.36 355.694 266.303 358.52 268.794 362.1C276.676 362.643 293.72 368.092 298.819 385.531C299.517 388.455 299.959 396.212 296.14 403.856C295.18 403.61 292.781 403.654 290.856 405.782C290.452 403.942 289.422 400.011 288.496 398.986C287.339 397.705 261.463 388.288 265.424 368.845C260.316 373.785 244.891 380.71 224.035 368.884L218.19 371.933C218.832 368.976 217.884 363.77 210.66 363.252C213.562 357.444 224.608 345.707 243.89 348.599C247.223 349.211 252.884 350.816 258.214 353.56Z" fill="#0F3147" stroke="#0F3147" stroke-width="0.8287" stroke-miterlimit="10" stroke-linecap="round" stroke-linejoin="round"/>
<path d="M250.807 377.608C251.368 377.875 251.85 378.157 252.206 378.402C252.342 378.496 252.377 378.684 252.282 378.822C252.189 378.96 251.999 378.993 251.862 378.899C251.203 378.445 250.05 377.83 248.762 377.481C247.474 377.133 246.09 377.062 244.934 377.627C244.784 377.701 244.604 377.636 244.533 377.487C244.461 377.338 244.519 377.156 244.669 377.083C246.015 376.428 247.565 376.536 248.919 376.903C249.603 377.088 250.244 377.339 250.807 377.608ZM263.208 383.899C264.074 384.332 265.369 385.156 266.472 386.241C267.573 387.321 268.525 388.704 268.604 390.242C268.61 390.408 268.483 390.55 268.32 390.561C268.151 390.569 268.015 390.439 268.005 390.272C267.934 388.955 267.11 387.715 266.048 386.673C264.995 385.638 263.758 384.849 262.938 384.439C262.791 384.365 262.727 384.18 262.801 384.03C262.876 383.881 263.061 383.826 263.208 383.899ZM255.043 385.998C255.199 386.064 255.267 386.24 255.203 386.394C255.147 386.532 255.081 386.672 255.017 386.826C254.66 387.642 254.218 388.668 253.991 389.657C253.71 390.852 253.788 391.817 254.491 392.325C255.268 392.885 256.225 393.579 256.81 394.397C257.103 394.81 257.311 395.271 257.353 395.784C257.387 396.298 257.247 396.83 256.88 397.375C256.46 397.998 255.965 398.388 255.405 398.572C254.851 398.755 254.266 398.726 253.695 398.565C252.562 398.246 251.417 397.404 250.458 396.536C250.331 396.423 250.326 396.232 250.439 396.109C250.551 395.985 250.74 395.975 250.867 396.089C251.808 396.942 252.866 397.705 253.854 397.982C254.343 398.119 254.808 398.137 255.218 398.001C255.627 397.866 256.023 397.574 256.379 397.04C256.679 396.59 256.781 396.188 256.753 395.825C256.727 395.457 256.574 395.098 256.32 394.743C255.801 394.02 254.928 393.387 254.132 392.814C253.095 392.066 253.12 390.731 253.403 389.519C253.647 388.474 254.118 387.391 254.467 386.576C254.535 386.429 254.594 386.288 254.646 386.158C254.716 386.007 254.892 385.934 255.043 385.998ZM242.809 396.123C242.973 396.149 243.085 396.303 243.059 396.469C242.778 398.212 243.46 399.68 244.458 400.827C245.464 401.979 246.765 402.776 247.651 403.157C247.808 403.224 247.873 403.404 247.809 403.558C247.74 403.709 247.567 403.778 247.41 403.711C246.462 403.303 245.079 402.452 244.009 401.223C242.931 399.987 242.15 398.343 242.465 396.369C242.491 396.203 242.644 396.096 242.809 396.123Z" fill="#0F3147" stroke="#0F3147" stroke-width="0.41435" stroke-miterlimit="10" stroke-linecap="round" stroke-linejoin="round"/>
<path d="M246.522 382.344C247.14 382.652 247.221 383.74 246.704 384.774C246.188 385.808 245.269 386.397 244.651 386.088C244.027 385.777 243.942 384.687 244.459 383.652C244.976 382.618 245.899 382.032 246.522 382.344Z" fill="#0F3147" stroke="#0F3147" stroke-width="0.41435" stroke-miterlimit="10" stroke-linecap="round" stroke-linejoin="round"/>
<path d="M264.488 391.326C265.106 391.635 265.196 392.728 264.68 393.762C264.163 394.796 263.235 395.381 262.617 395.072C261.993 394.761 261.913 393.672 262.43 392.639C262.946 391.604 263.865 391.015 264.488 391.326Z" fill="#0F3147" stroke="#0F3147" stroke-width="0.41435" stroke-miterlimit="10" stroke-linecap="round" stroke-linejoin="round"/>
<path d="M234.91 383.102C237.184 384.238 238.613 386 238.097 387.035C237.58 388.069 235.314 387.983 233.039 386.848C230.759 385.708 229.335 383.949 229.852 382.915C230.369 381.881 232.631 381.963 234.91 383.102Z" fill="#FF92B9"/>
<path d="M268.98 400.122C271.462 401.362 273.061 403.208 272.544 404.242C272.028 405.276 269.591 405.107 267.109 403.866C264.632 402.629 263.038 400.784 263.554 399.75C264.071 398.716 266.503 398.884 268.98 400.122Z" fill="#FF92B9"/>
<path d="M296.695 407.413C298.97 408.549 300.231 410.647 299.507 412.095C298.784 413.543 296.349 413.794 294.074 412.657C291.8 411.522 290.544 409.426 291.267 407.978C291.99 406.53 294.42 406.276 296.695 407.413Z" fill="#E4AC98"/>
<path d="M296.963 407.219C297.498 407.512 298.055 407.896 298.632 408.394C298.761 408.504 298.771 408.695 298.663 408.821C298.551 408.945 298.36 408.96 298.236 408.852C297.745 408.429 297.276 408.091 296.829 407.833C296.91 407.924 296.991 408.022 297.063 408.117C297.306 408.43 297.513 408.772 297.627 409.127C297.74 409.484 297.756 409.873 297.574 410.235C297.5 410.384 297.318 410.447 297.171 410.374C297.019 410.298 296.956 410.112 297.03 409.963C297.121 409.781 297.127 409.565 297.046 409.309C296.967 409.05 296.8 408.768 296.585 408.488C296.166 407.946 295.6 407.459 295.226 407.181C293.269 406.727 291.891 407.735 291.329 408.53C291.23 408.664 291.042 408.695 290.906 408.599C290.771 408.503 290.74 408.318 290.839 408.183C291.514 407.226 293.145 406.048 295.429 406.608C295.914 406.727 296.427 406.927 296.963 407.219Z" fill="#0F3147" stroke="#0F3147" stroke-width="0.41435" stroke-miterlimit="10" stroke-linecap="round" stroke-linejoin="round"/>
<path d="M212.814 367.385C214.678 368.317 215.601 370.24 214.878 371.688C214.155 373.136 212.059 373.557 210.195 372.626C208.336 371.697 207.414 369.768 208.137 368.321C208.861 366.873 210.954 366.456 212.814 367.385Z" fill="#E4AC98"/>
<path d="M212.595 366.937C213.079 367.161 213.489 367.405 213.834 367.67C215.448 368.912 215.609 370.5 215.346 371.393C215.299 371.553 215.132 371.641 214.972 371.594C214.812 371.547 214.721 371.383 214.764 371.221C214.959 370.566 214.884 369.264 213.512 368.184C213.179 368.09 212.634 368.098 212.089 368.189C211.807 368.234 211.543 368.299 211.317 368.371C211.089 368.448 210.933 368.525 210.859 368.584C210.73 368.69 210.545 368.671 210.439 368.54C210.332 368.411 210.355 368.221 210.484 368.116C210.644 367.984 210.876 367.88 211.126 367.797C211.383 367.713 211.684 367.641 211.989 367.59C212.139 367.567 212.299 367.549 212.451 367.535C211.982 367.309 211.426 367.104 210.763 366.936C210.6 366.894 210.503 366.731 210.546 366.57C210.588 366.409 210.748 366.311 210.911 366.353C211.551 366.516 212.11 366.715 212.595 366.937Z" fill="#0F3147" stroke="#0F3147" stroke-width="0.41435" stroke-miterlimit="10" stroke-linecap="round" stroke-linejoin="round"/>
<path fill-rule="evenodd" clip-rule="evenodd" d="M265.776 354.64C268.898 357.589 269.854 360.247 269.704 361.854C269.69 362.021 269.54 362.142 269.377 362.128C269.213 362.114 269.091 361.966 269.104 361.8C269.227 360.453 268.418 357.966 265.36 355.078C262.316 352.2 257.062 348.954 248.402 346.105C231.215 340.451 218.434 352.157 214.188 358.742C214.099 358.883 213.909 358.922 213.769 358.832C213.631 358.742 213.591 358.556 213.681 358.415C217.991 351.727 231.021 339.751 248.588 345.53C257.307 348.4 262.645 351.682 265.776 354.64Z" fill="#0F3147" stroke="#0F3147" stroke-width="0.41435" stroke-miterlimit="10" stroke-linecap="round" stroke-linejoin="round"/>
<path d="M247.491 418.305C243.124 416.345 238.985 413.733 235.184 410.869C235.653 414.993 238.852 423.689 243.441 426.448C244.939 424.129 246.499 420.881 247.491 418.305Z" fill="#E4AC98"/>
<path d="M212.75 408.483C217.206 401.33 227.275 403.35 231.036 408.902C239.682 421.666 240.997 436.83 241.456 451.717" fill="#F4CC85"/>
<path d="M212.75 408.483C217.206 401.33 227.275 403.35 231.036 408.902C239.682 421.666 240.997 436.83 241.456 451.717" stroke="#0F3147" stroke-width="0.8287" stroke-miterlimit="10" stroke-linecap="round" stroke-linejoin="round"/>
<path d="M298.795 579.922C298.795 579.922 310.455 598.866 324.531 602.157C339.792 605.725 354.312 594.471 356.614 580.471C358.916 566.472 350.398 555.839 336.913 549.328C336.913 549.328 342.891 505.585 297.375 501.412C281.689 499.974 290.324 474.007 278.8 463.27L198.47 392.453C182.67 381.561 163.234 393.745 159.112 405.731C159.112 405.731 149.585 404.444 140.514 411.632C129.077 420.696 129.064 432.982 129.064 432.982C94.8554 436.252 97.5948 468.151 97.5948 468.151C97.5948 468.151 71.6999 480.242 72.5518 504.348C73.0985 519.817 88.7933 541.465 112.237 529.779C189.4 491.318 184.204 481.915 229.144 466.43" fill="#F4CC85"/>
<path d="M298.795 579.922C298.795 579.922 310.455 598.866 324.531 602.157C339.792 605.725 354.312 594.471 356.614 580.471C358.916 566.472 350.398 555.839 336.913 549.328C336.913 549.328 342.891 505.585 297.375 501.412C281.689 499.974 290.324 474.007 278.8 463.27L198.47 392.453C182.67 381.561 163.234 393.745 159.112 405.731C159.112 405.731 149.585 404.444 140.514 411.632C129.077 420.696 129.064 432.982 129.064 432.982C94.8554 436.252 97.5948 468.151 97.5948 468.151C97.5948 468.151 71.6999 480.242 72.5518 504.348C73.0985 519.817 88.7933 541.465 112.237 529.779C189.4 491.318 184.204 481.915 229.144 466.43" stroke="#0F3147" stroke-width="0.8287" stroke-miterlimit="10" stroke-linecap="round" stroke-linejoin="round"/>
<mask id="mask2_5304_23316" style="mask-type:luminance" maskUnits="userSpaceOnUse" x="72" y="388" width="285" height="215">
<path d="M298.799 579.91C298.799 579.91 310.458 598.855 324.534 602.146C339.796 605.714 354.316 594.459 356.618 580.46C358.92 566.46 350.402 555.827 336.917 549.317C336.917 549.317 342.895 505.574 297.379 501.401C281.693 499.962 290.328 473.996 278.804 463.259L198.474 392.442C182.674 381.55 163.238 393.734 159.116 405.72C159.116 405.72 149.589 404.433 140.518 411.621C129.081 420.685 129.068 432.97 129.068 432.97C94.8593 436.24 97.5987 468.14 97.5987 468.14C97.5987 468.14 71.7038 480.231 72.5557 504.337C73.1024 519.805 88.7972 541.454 112.241 529.768C189.404 491.306 184.208 481.904 229.148 466.419" fill="white"/>
</mask>
<g mask="url(#mask2_5304_23316)">
<path d="M211.367 401.93C190.494 387.712 169.029 400.745 164.895 417.695C147.386 413.952 135.948 428.532 138.391 442.22C138.391 442.22 124.81 440.175 114.33 450.735C103.545 461.603 107.528 473.628 107.528 473.628C107.528 473.628 94.3843 479.618 88.3457 487.279C70.6083 509.783 90.0771 532.373 114.693 520.963C123.942 516.675 146.322 510.325 156.171 507.695C160.503 506.538 154.072 507.698 158.508 507.04" stroke="white" stroke-width="0.8287" stroke-miterlimit="10" stroke-linecap="round" stroke-linejoin="round"/>
<path d="M205.858 394.92C205.858 394.92 191.904 390.091 181.95 392.551C165.125 396.708 161.84 411.204 161.84 411.204C161.84 411.204 152.028 408.321 144.611 414.379C132.263 424.467 133.893 437.484 133.893 437.484C133.893 437.484 123.761 436.588 114.329 443.122C98.8 453.88 103.115 471.532 103.115 471.532C103.115 471.532 92.8716 474.447 84.4668 483.18C74.7745 493.252 72.3853 518.239 87.6346 525.728C107.665 535.565 136.841 513.855 162.039 514.789" stroke="white" stroke-width="0.8287" stroke-miterlimit="10" stroke-linecap="round" stroke-linejoin="round"/>
<path d="M303.496 512.024C303.496 512.024 317.469 516.343 323.574 529.061C331.042 544.616 326.947 555.767 326.947 555.767C326.947 555.767 338.739 558.076 345.736 566.165C356.071 578.109 355.046 589.957 355.046 589.957" stroke="white" stroke-width="0.8287" stroke-miterlimit="10" stroke-linecap="round" stroke-linejoin="round"/>
<path d="M305.301 507.468C339.536 519.093 333.347 552.109 333.347 552.109C333.347 552.109 342.417 554.309 348.206 561.491C362.163 578.808 355.102 595.982 355.102 595.982" stroke="white" stroke-width="0.8287" stroke-miterlimit="10" stroke-linecap="round" stroke-linejoin="round"/>
</g>
<path d="M298.795 579.922C298.795 579.922 310.455 598.867 324.531 602.158C339.792 605.726 354.312 594.471 356.614 580.472C358.916 566.472 350.398 555.839 336.913 549.329C336.913 549.329 342.891 505.586 297.375 501.413C281.689 499.974 290.324 474.008 278.8 463.271L198.47 392.454C182.67 381.561 163.234 393.746 159.112 405.732C159.112 405.732 149.585 404.445 140.514 411.633C129.077 420.697 129.064 432.982 129.064 432.982C94.8554 436.252 97.5948 468.152 97.5948 468.152C97.5948 468.152 71.6999 480.243 72.5518 504.349C73.0985 519.817 88.7933 541.466 112.237 529.78C189.4 491.318 184.204 481.916 229.144 466.431" stroke="#0F3147" stroke-width="0.8287" stroke-miterlimit="10" stroke-linecap="round" stroke-linejoin="round"/>
<path d="M217.855 438.376L221.586 477.574" stroke="#0F3147" stroke-width="0.8287" stroke-miterlimit="10" stroke-linecap="round" stroke-linejoin="round"/>
<path d="M255.453 448.006L258.116 473.339" stroke="#0F3147" stroke-width="0.8287" stroke-miterlimit="10" stroke-linecap="round" stroke-linejoin="round"/>
<path d="M217.641 481.29C219.516 477.54 215.283 481.204 219.899 476.392C220.765 475.491 227.646 467.322 228.12 466.726C245.292 445.05 271.942 451.783 284.16 470.519C288.058 476.497 287.464 493.972 289.654 496.162" fill="#F4CC85"/>
<path d="M294.924 500.174C294.916 499.985 306.78 501.796 308.431 503.565C309.323 504.521 303.546 538.836 303.546 538.836C303.546 538.836 298.52 548.57 298.269 548.399C292.038 544.123 287.866 533.082 281.465 528.691" fill="#FF9477"/>
<path d="M291.316 548.072C314.337 537.254 336.276 552.653 331.526 569.658C327.558 583.863 308.523 596.28 300.53 599.227C297.016 600.522 299.538 595.163 295.599 593.396" fill="#F4CC85"/>
<path d="M192.528 433.407L219.02 470.52C219.02 470.52 205.513 469.192 197.65 467.695C189.401 466.125 181.867 465.712 173.594 466.305" fill="#F4CC85"/>
<path d="M192.528 433.407L219.02 470.52C219.02 470.52 205.513 469.192 197.65 467.695C189.401 466.125 181.867 465.712 173.594 466.305" stroke="#0F3147" stroke-width="0.8287" stroke-miterlimit="10" stroke-linecap="round" stroke-linejoin="round"/>
<path d="M192.16 433.519L176.849 463.217C176.849 463.217 167.458 471.734 162.065 474.297C160.429 475.074 156.8 474.77 155.107 474.168C154.799 474.059 152.867 472.878 153.029 473.686" fill="#0F3147"/>
<path d="M192.16 433.519L176.849 463.217C176.849 463.217 167.458 471.734 162.065 474.297C160.429 475.074 156.8 474.77 155.107 474.168C154.799 474.059 152.867 472.878 153.029 473.686" stroke="#0F3147" stroke-width="0.8287" stroke-miterlimit="10" stroke-linecap="round" stroke-linejoin="round"/>
<path d="M236.746 426.522L240.52 462.751L236.746 426.522Z" fill="#455A82"/>
<path d="M236.746 426.522L240.52 462.751" stroke="#0F3147" stroke-width="0.8287" stroke-miterlimit="10" stroke-linecap="round" stroke-linejoin="round"/>
<path d="M195.005 430.183L162.148 464.884L195.005 430.183Z" fill="#455A82"/>
<path d="M195.005 430.183L162.148 464.884" stroke="#0F3147" stroke-width="0.8287" stroke-miterlimit="10" stroke-linecap="round" stroke-linejoin="round"/>
<path d="M109.305 486.662C113.773 469.374 134.947 451.911 153.829 459.815C160.396 462.564 167.465 470.272 167.465 470.272C176.506 455.122 203.956 458.185 216.785 470.449" fill="#F4CC85"/>
<path d="M109.305 486.662C113.773 469.374 134.947 451.911 153.829 459.815C160.396 462.564 167.465 470.272 167.465 470.272C176.506 455.122 203.956 458.185 216.785 470.449" stroke="#0F3147" stroke-width="0.8287" stroke-miterlimit="10" stroke-linecap="round" stroke-linejoin="round"/>
<path d="M101.801 483.481L110.825 480.997L101.801 483.481Z" fill="#455A82"/>
<path d="M101.801 483.481L110.825 480.997" stroke="#0F3147" stroke-width="0.8287" stroke-miterlimit="10" stroke-linecap="round" stroke-linejoin="round"/>
<path d="M223.75 422.946C223.75 421.94 224.566 421.125 225.571 421.125C226.577 421.125 227.392 421.94 227.392 422.946C227.392 423.952 226.577 424.767 225.571 424.767C224.566 424.767 223.75 423.952 223.75 422.946Z" fill="#0F3147" stroke="#0F3147" stroke-width="0.8287" stroke-miterlimit="10" stroke-linejoin="round"/>
<path d="M240.805 436.107C240.805 435.102 241.62 434.286 242.626 434.286C243.632 434.286 244.447 435.102 244.447 436.107C244.447 437.114 243.632 437.928 242.626 437.928C241.62 437.928 240.805 437.114 240.805 436.107Z" fill="#0F3147" stroke="#0F3147" stroke-width="0.8287" stroke-miterlimit="10" stroke-linejoin="round"/>
<path d="M225.5 422.077C224.867 422.183 224.45 422.799 224.555 423.432L229.445 452.838C229.55 453.471 230.143 453.888 230.775 453.782C231.409 453.676 231.849 453.084 231.743 452.451L226.83 423.045C226.725 422.412 226.132 421.971 225.5 422.077Z" fill="white" stroke="#0F3147" stroke-width="0.8287" stroke-miterlimit="10" stroke-linecap="round" stroke-linejoin="round"/>
<path d="M242.488 435.075C241.858 435.196 241.446 435.8 241.568 436.43L245.392 456.179C245.514 456.809 246.118 457.221 246.747 457.099C247.377 456.977 247.788 456.373 247.667 455.743L243.867 435.994C243.746 435.364 243.118 434.953 242.488 435.075Z" fill="white" stroke="#0F3147" stroke-width="0.8287" stroke-miterlimit="10" stroke-linecap="round" stroke-linejoin="round"/>
<path d="M232.037 450.164C228.148 446.18 227.311 455.063 227.824 457.434C228.026 458.369 231.427 457.778 231.864 457.306C233.236 455.824 233.276 451.432 232.037 450.164Z" fill="#455A82" stroke="#0F3147" stroke-width="0.8287" stroke-miterlimit="10" stroke-linejoin="round"/>
<path d="M247.494 453.297C242.853 452.18 245.054 460.068 246.612 460.076C250.215 460.097 249.726 457.618 248.578 455.125C248.457 454.863 247.653 453.335 247.494 453.297Z" fill="#455A82" stroke="#0F3147" stroke-width="0.8287" stroke-miterlimit="10" stroke-linejoin="round"/>
<path d="M114.727 533.797C134.31 565.567 127.43 535.329 147.014 567.098C224.9 538.105 213.728 532.471 287.199 485.279C281.097 477.159 260.174 460.339 243.588 463.088C194.256 471.264 161.573 516.307 114.727 533.797Z" fill="#FFC6B2" stroke="#0F3147" stroke-width="0.8287" stroke-miterlimit="10" stroke-linecap="round" stroke-linejoin="round"/>
<path d="M143.328 571.22C143.328 571.22 155.416 580.127 170.367 578.218C202.304 574.141 216.84 548.247 226.036 526.366C228.039 521.601 232.41 510.795 228.899 505.53" fill="#455A82"/>
<path d="M143.328 571.22C143.328 571.22 155.416 580.127 170.367 578.218C202.304 574.141 216.84 548.247 226.036 526.366C228.039 521.601 232.41 510.795 228.899 505.53" stroke="#0F3147" stroke-width="0.8287" stroke-miterlimit="10" stroke-linecap="round" stroke-linejoin="round"/>
<path d="M229.201 465.486C189.054 510.913 190.477 547.907 190.477 547.907C172.575 571.868 152.074 582.687 133.121 575.419C114.168 568.152 109.449 531.143 109.449 531.143C174.237 500.148 175.775 481.795 229.201 465.486Z" fill="#455A82" stroke="#0F3147" stroke-width="0.8287" stroke-miterlimit="10" stroke-linecap="round" stroke-linejoin="round"/>
<mask id="mask3_5304_23316" style="mask-type:luminance" maskUnits="userSpaceOnUse" x="109" y="465" width="121" height="113">
<path d="M229.201 465.477C189.054 510.904 190.477 547.899 190.477 547.899C172.575 571.86 152.074 582.679 133.121 575.411C114.168 568.143 109.449 531.135 109.449 531.135C174.237 500.14 175.775 481.787 229.201 465.477Z" fill="white"/>
</mask>
<g mask="url(#mask3_5304_23316)">
<path d="M188.779 560.025C188.779 560.025 197.562 565.157 190.896 544.235C187.055 532.184 181.65 493.213 204.098 473.542C199.205 475.474 192.535 475.1 189.421 479.34C182.51 488.746 178.915 501.059 178.253 512.712C176.666 540.639 188.779 560.025 188.779 560.025Z" fill="#0F3147" stroke="#0F3147" stroke-width="0.8287" stroke-miterlimit="10" stroke-linecap="round" stroke-linejoin="round"/>
</g>
<path d="M122.395 530.816C127.834 538.975 143.65 535.399 150.908 532.099C173.291 521.926 185.347 504.089 211.138 488.643" stroke="#0F3147" stroke-width="0.8287" stroke-miterlimit="10" stroke-linecap="round" stroke-linejoin="round"/>
<path d="M113.445 547.911L109.543 531.323C109.543 531.323 128.396 522.346 134.928 518.133C134.928 518.133 119.716 534.804 113.445 547.911Z" fill="#0F3147" stroke="#0F3147" stroke-width="0.8287" stroke-miterlimit="10" stroke-linecap="round" stroke-linejoin="round"/>
<path d="M183.453 663.888C225.683 596.165 252.169 527.023 252.169 527.023C252.169 527.023 303.648 530.831 317.297 549.52C328.831 565.314 323.601 584.758 306.642 596.686C270.101 622.388 223.723 644.547 183.453 663.888Z" fill="#FFC6B2" stroke="#0F3147" stroke-width="0.8287" stroke-miterlimit="10" stroke-linecap="round" stroke-linejoin="round"/>
<path d="M258.1 570.67C277.984 586.259 280.377 613.433 280.377 613.433C231.602 643.568 191.797 659.598 191.797 659.598" fill="#FF7CAB"/>
<path d="M258.1 570.67C277.984 586.259 280.377 613.433 280.377 613.433C231.602 643.568 191.797 659.598 191.797 659.598" stroke="#0F3147" stroke-width="0.8287" stroke-miterlimit="10" stroke-linecap="round" stroke-linejoin="round"/>
<mask id="mask4_5304_23316" style="mask-type:luminance" maskUnits="userSpaceOnUse" x="191" y="570" width="90" height="90">
<path d="M258.104 570.662C277.988 586.251 280.381 613.425 280.381 613.425C231.606 643.559 191.801 659.59 191.801 659.59" fill="white"/>
</mask>
<g mask="url(#mask4_5304_23316)">
<path d="M274.018 588.064C262.063 596.811 249.963 605.561 237.91 614.171" stroke="#0F3147" stroke-width="0.8287" stroke-miterlimit="10" stroke-linecap="round" stroke-linejoin="round"/>
<path d="M279.39 597.405C276.152 598.485 251.159 616.257 241.59 622.409" stroke="#0F3147" stroke-width="0.8287" stroke-miterlimit="10" stroke-linecap="round" stroke-linejoin="round"/>
<path d="M282.035 608.507C277.976 609.86 248.571 627.038 238.5 633.29" stroke="#0F3147" stroke-width="0.8287" stroke-miterlimit="10" stroke-linecap="round" stroke-linejoin="round"/>
<path d="M255.695 586.084C262.734 598.717 269.996 608.303 269.235 623.442" stroke="white" stroke-width="2.07175" stroke-miterlimit="10" stroke-linecap="round" stroke-linejoin="round"/>
<path d="M249.578 597.037C258.413 605.116 260.831 620.795 260.845 631.697" stroke="white" stroke-width="2.07175" stroke-miterlimit="10" stroke-linecap="round" stroke-linejoin="round"/>
</g>
<path d="M258.1 570.671C277.984 586.259 280.377 613.434 280.377 613.434C231.602 643.568 191.797 659.598 191.797 659.598" stroke="#0F3147" stroke-width="0.8287" stroke-miterlimit="10" stroke-linecap="round" stroke-linejoin="round"/>
<path d="M256.261 594.949C249.61 607.399 241.62 622.896 257.519 626.477C257.519 626.477 235.537 638.905 216.766 647.812C204.729 653.524 220.644 646.295 210.199 651" fill="#C94E63"/>
<path d="M129.552 641.448C129.552 641.448 120.707 646.274 118.653 650.441C116.118 655.585 131.728 695.978 131.728 695.978C131.728 695.978 154.215 678.847 155.776 676.294" fill="#0F3147"/>
<path d="M129.552 641.448C129.552 641.448 120.707 646.274 118.653 650.441C116.118 655.585 131.728 695.978 131.728 695.978C131.728 695.978 154.215 678.847 155.776 676.294" stroke="#0F3147" stroke-width="0.8287" stroke-miterlimit="10" stroke-linecap="round" stroke-linejoin="round"/>
<path d="M174.628 608.509C174.628 608.509 126.806 638.713 126.91 643.749C127.061 651 145.034 703.212 145.034 703.212" fill="#FFECDD"/>
<path d="M174.628 608.509C174.628 608.509 126.806 638.713 126.91 643.749C127.061 651 145.034 703.212 145.034 703.212" stroke="#0F3147" stroke-width="0.8287" stroke-miterlimit="10" stroke-linecap="round" stroke-linejoin="round"/>
<mask id="mask5_5304_23316" style="mask-type:luminance" maskUnits="userSpaceOnUse" x="126" y="608" width="49" height="96">
<path d="M174.632 608.503C174.632 608.503 126.81 638.708 126.914 643.743C127.065 650.994 145.038 703.206 145.038 703.206" fill="white"/>
</mask>
<g mask="url(#mask5_5304_23316)">
<path d="M143.014 623.217C143.014 623.217 147.61 634.641 141.854 649.369C130.333 678.851 122.149 675.188 117.879 646.849C115.419 630.524 119.495 617.378 133.02 607.765" fill="#455A82"/>
<path d="M143.014 623.217C143.014 623.217 147.61 634.641 141.854 649.369C130.333 678.851 122.149 675.188 117.879 646.849C115.419 630.524 119.495 617.378 133.02 607.765" stroke="#0F3147" stroke-width="0.8287" stroke-miterlimit="10" stroke-linecap="round" stroke-linejoin="round"/>
</g>
<path d="M174.628 608.51C174.628 608.51 126.806 638.714 126.91 643.75C127.061 651.001 145.034 703.213 145.034 703.213" stroke="#0F3147" stroke-width="0.8287" stroke-miterlimit="10" stroke-linecap="round" stroke-linejoin="round"/>
<path d="M277.201 556.912C289.508 549.632 298.788 546.67 312.458 544.394C304.387 537.184 286.623 529.772 275.664 529.325" fill="#455A82"/>
<path d="M277.201 556.912C289.508 549.632 298.788 546.67 312.458 544.394C304.387 537.184 286.623 529.772 275.664 529.325" stroke="#0F3147" stroke-width="0.8287" stroke-miterlimit="10" stroke-linecap="round" stroke-linejoin="round"/>
<path d="M225.92 483.371C178.96 524.558 174.139 603.715 146.585 653.112C139.521 665.776 147.224 681.637 148.084 689.449C150.714 713.338 172.569 712.647 172.569 712.647C226.316 630.912 266.256 595.665 294.597 532.019C322.937 468.373 277.955 449.28 230.486 466.149" fill="#FFC6B2"/>
<path d="M225.92 483.371C178.96 524.558 174.139 603.715 146.585 653.112C139.521 665.776 147.224 681.637 148.084 689.449C150.714 713.338 172.569 712.647 172.569 712.647C226.316 630.912 266.256 595.665 294.597 532.019C322.937 468.373 277.955 449.28 230.486 466.149" stroke="#0F3147" stroke-width="0.8287" stroke-miterlimit="10" stroke-linecap="round" stroke-linejoin="round"/>
<path d="M149.414 644.378C165.132 614.802 178.602 559.194 191.994 531.116C243.138 521.282 279.474 561.867 279.474 561.867C252.992 605.915 237.271 624.578 186.533 695.769" fill="#FF7CAB"/>
<path d="M149.414 644.378C165.132 614.802 178.602 559.194 191.994 531.116C243.138 521.282 279.474 561.867 279.474 561.867C252.992 605.915 237.271 624.578 186.533 695.769" stroke="#0F3147" stroke-width="0.8287" stroke-miterlimit="10" stroke-linecap="round" stroke-linejoin="round"/>
<mask id="mask6_5304_23316" style="mask-type:luminance" maskUnits="userSpaceOnUse" x="149" y="529" width="131" height="167">
<path d="M149.422 644.378C165.14 614.801 178.61 559.193 192.001 531.115C243.146 521.281 279.482 561.866 279.482 561.866C252.999 605.914 237.279 624.577 186.541 695.768" fill="white"/>
</mask>
<g mask="url(#mask6_5304_23316)">
<path d="M209.406 524.303C193.398 558.85 179.886 594.525 166.632 630.218C162.776 640.603 160.897 651.671 156.797 661.962" stroke="#0F3147" stroke-width="0.8287" stroke-miterlimit="10" stroke-linecap="round" stroke-linejoin="round"/>
<path d="M227.074 527.128C221.258 548.64 210.614 568.552 201.899 589.061C190.05 616.944 182.128 646.023 169.996 673.64" stroke="#0F3147" stroke-width="0.8287" stroke-miterlimit="10" stroke-linecap="round" stroke-linejoin="round"/>
<path d="M246.318 530.381C240.803 555.631 230.397 573.881 219.584 599.305C206.974 628.952 196.924 662.299 180.852 690.531" stroke="#0F3147" stroke-width="0.8287" stroke-miterlimit="10" stroke-linecap="round" stroke-linejoin="round"/>
<path d="M262.074 542.756C239.379 590.81 217.63 639.57 192.68 686.481" stroke="#0F3147" stroke-width="0.8287" stroke-miterlimit="10" stroke-linecap="round" stroke-linejoin="round"/>
<path d="M274.535 550.884C271.605 563.828 220.922 646.689 204.223 675.782" stroke="#0F3147" stroke-width="0.8287" stroke-miterlimit="10" stroke-linecap="round" stroke-linejoin="round"/>
<path d="M181.602 548.265C218.815 540.705 252.519 550.354 273.584 579.748" stroke="white" stroke-width="2.07175" stroke-miterlimit="10" stroke-linecap="round" stroke-linejoin="round"/>
<path d="M177.766 562.469C212.9 558.81 239.35 561.241 264.777 588.746" stroke="white" stroke-width="2.07175" stroke-miterlimit="10" stroke-linecap="round" stroke-linejoin="round"/>
</g>
<path d="M149.414 644.378C165.132 614.802 178.602 559.194 191.994 531.116C243.138 521.282 279.474 561.867 279.474 561.867C252.992 605.915 237.271 624.578 186.533 695.769" stroke="#0F3147" stroke-width="0.8287" stroke-miterlimit="10" stroke-linecap="round" stroke-linejoin="round"/>
<path d="M104.305 762.435C104.305 762.435 227.856 765.899 351.823 763.137C351.823 763.137 358.028 735.839 345.822 733.383C290.474 722.245 215.246 720.658 158.803 721.928C143.76 722.266 131.289 726.061 118.874 734.563C106.605 742.965 104.305 762.435 104.305 762.435Z" fill="#0F3147" stroke="#0F3147" stroke-width="0.8287" stroke-miterlimit="10" stroke-linecap="round" stroke-linejoin="round"/>
<path d="M258.025 646.797C252.865 647.363 246.57 651.725 243.43 657.592C243.326 657.788 243.242 657.975 243.14 658.173C240.545 663.173 239.031 667.641 236.823 675.962C236.752 676.231 236.473 677.331 236.194 678.381C235.585 678.866 234.746 679.431 234.161 679.93C232.878 681.028 233.501 683.145 235.178 683.343C239.184 683.814 244.023 683.847 249.53 683.512C254.224 683.227 259.224 682.685 264.317 681.963C267.041 681.577 269.636 681.167 271.989 680.754C272.814 680.608 274.952 680.204 274.991 680.197C276.039 679.987 276.725 678.97 276.515 677.922C276.306 676.873 275.289 676.187 274.24 676.396C274.11 676.423 272.12 676.787 271.312 676.93C268.999 677.336 266.464 677.736 263.785 678.115C258.787 678.824 253.893 679.361 249.312 679.64C246.16 679.832 243.328 679.855 240.696 679.785C241.332 679.313 241.707 678.966 242.487 678.405C242.799 678.181 242.982 678.06 243.649 677.583C248.095 674.403 250.146 672.82 252.627 670.467C252.732 670.368 252.716 670.373 252.821 670.274C255.253 667.966 256.455 666.771 257.759 665.263C262.09 660.256 264.435 656.155 264.849 652.993C265.301 649.545 263.393 647.181 260.155 646.797C259.475 646.717 258.761 646.716 258.025 646.797ZM259.695 650.646C260.821 650.779 261.169 651.207 261.002 652.485C260.707 654.731 258.71 658.236 254.829 662.722C253.635 664.103 252.5 665.221 250.159 667.442C250.054 667.541 250.07 667.56 249.965 667.659C247.653 669.853 245.679 671.357 241.373 674.436C241.332 674.467 241.339 674.458 241.3 674.485C243.037 668.221 244.453 664.055 246.577 659.963C246.672 659.781 246.746 659.588 246.843 659.407C249.723 654.023 255.964 650.205 259.695 650.646Z" fill="#FFECDD" stroke="#0F3147" stroke-width="0.8287" stroke-miterlimit="10" stroke-linecap="round" stroke-linejoin="round"/>
<path d="M152.75 634.112C140.201 659.144 125.859 690.041 118.709 717.114C116.062 727.138 122.116 732.471 122.116 732.471L352.344 740.002C352.344 740.002 349.272 717.781 329.023 709.58C308.088 701.103 283.735 700.51 224.452 674.756L192.059 677.939C191.789 653.613 177.623 635.288 152.75 634.112Z" fill="white" stroke="#0F3147" stroke-width="0.8287" stroke-miterlimit="10" stroke-linecap="round" stroke-linejoin="round"/>
<mask id="mask7_5304_23316" style="mask-type:luminance" maskUnits="userSpaceOnUse" x="118" y="634" width="235" height="107">
<path d="M152.75 634.123C140.201 659.154 125.859 690.051 118.709 717.124C116.062 727.148 122.116 732.481 122.116 732.481L352.344 740.013C352.344 740.013 349.272 717.791 329.023 709.591C308.088 701.113 283.735 700.521 224.452 674.766L192.059 677.949C191.789 653.623 177.623 635.298 152.75 634.123Z" fill="white"/>
</mask>
<g mask="url(#mask7_5304_23316)">
<path d="M251.257 697.413L241.521 714.987C241.521 714.987 219.579 717.384 209.039 723.401C197.643 729.905 194.059 738.776 194.059 738.776C194.059 738.776 273.555 739.503 353.052 740.23C351.278 735.718 352.562 726.262 347.732 726.691C312.995 729.77 257.572 717.309 257.572 717.309L266.739 700.609L251.257 697.413Z" fill="#455A82" stroke="#0F3147" stroke-width="0.8287" stroke-miterlimit="10" stroke-linecap="round" stroke-linejoin="round"/>
<path d="M123.589 686.122C134.454 692.973 142.371 702.029 147.358 714.436C159.725 745.199 136.359 765.595 112.581 742.721C104.912 735.345 106.482 730.729 103.816 718.863" fill="#455A82"/>
<path d="M123.589 686.122C134.454 692.973 142.371 702.029 147.358 714.436C159.725 745.199 136.359 765.595 112.581 742.721C104.912 735.345 106.482 730.729 103.816 718.863" stroke="#0F3147" stroke-width="0.8287" stroke-miterlimit="10" stroke-linecap="round" stroke-linejoin="round"/>
<path d="M150.375 635.258C150.388 635.199 156.087 638.664 157.573 639.407C165.869 643.556 169.274 650.15 164.939 658.458C157.661 672.408 130.309 665.147 130.309 665.147" fill="#455A82"/>
<path d="M150.375 635.258C150.388 635.199 156.087 638.664 157.573 639.407C165.869 643.556 169.274 650.15 164.939 658.458C157.661 672.408 130.309 665.147 130.309 665.147" stroke="#0F3147" stroke-width="0.8287" stroke-miterlimit="10" stroke-linecap="round" stroke-linejoin="round"/>
</g>
<path d="M152.75 634.102C140.201 659.133 125.859 690.03 118.709 717.103C116.062 727.127 122.116 732.46 122.116 732.46L352.344 739.992C352.344 739.992 349.272 717.77 329.023 709.57C308.088 701.092 283.735 700.5 224.452 674.745L192.059 677.928C191.789 653.602 177.623 635.277 152.75 634.102Z" stroke="#0F3147" stroke-width="0.8287" stroke-miterlimit="10" stroke-linecap="round" stroke-linejoin="round"/>
<path d="M177.173 664.639L173.354 691.115L149.992 681.746L167.993 697.959L156.43 715.245L174.073 703.085L187.081 729.255L186.553 703.841L214.606 703.204L183.785 689.55L177.173 664.639Z" fill="#8789D9" stroke="#0F3147" stroke-width="0.8287" stroke-miterlimit="10" stroke-linecap="round" stroke-linejoin="round"/>
<path d="M192.531 678.463C199.622 681.759 206.634 685.511 213.855 688.594C220.09 691.257 226.246 694.046 232.444 696.779C247.809 703.554 265.939 711.69 283.144 711.2C288.915 711.036 299.484 708.767 301.271 701.917" fill="white"/>
<path d="M192.531 678.463C199.622 681.759 206.634 685.511 213.855 688.594C220.09 691.257 226.246 694.046 232.444 696.779C247.809 703.554 265.939 711.69 283.144 711.2C288.915 711.036 299.484 708.767 301.271 701.917" stroke="#0F3147" stroke-width="0.8287" stroke-miterlimit="10" stroke-linecap="round" stroke-linejoin="round"/>
<path d="M217.344 697.055C217.344 695.158 218.881 693.622 220.777 693.622C222.673 693.622 224.211 695.158 224.211 697.055C224.211 698.951 222.673 700.489 220.777 700.489C218.881 700.489 217.344 698.951 217.344 697.055Z" fill="#FF7CAB" stroke="#0F3147" stroke-width="0.8287" stroke-miterlimit="10" stroke-linejoin="round"/>
<path d="M235.23 704.397C235.23 702.501 236.767 700.963 238.664 700.963C240.56 700.963 242.098 702.501 242.098 704.397C242.098 706.294 240.56 707.831 238.664 707.831C236.767 707.831 235.23 706.294 235.23 704.397Z" fill="#FF7CAB" stroke="#0F3147" stroke-width="0.8287" stroke-miterlimit="10" stroke-linejoin="round"/>
<path d="M262.648 713.808C262.648 711.912 264.186 710.374 266.082 710.374C267.979 710.374 269.516 711.912 269.516 713.808C269.516 715.704 267.979 717.242 266.082 717.242C264.186 717.242 262.648 715.704 262.648 713.808Z" fill="#FF7CAB" stroke="#0F3147" stroke-width="0.8287" stroke-miterlimit="10" stroke-linejoin="round"/>
<path d="M239.431 677.459C234.782 678.14 230.138 681.158 226.071 685.616C222.677 689.336 219.994 693.783 219.246 696.869C218.994 697.909 219.635 698.941 220.673 699.193C221.713 699.445 222.745 698.829 222.997 697.79C223.573 695.414 225.937 691.482 228.927 688.205C232.446 684.348 236.365 681.814 239.988 681.284C241.045 681.129 241.764 680.139 241.609 679.081C241.454 678.023 240.489 677.305 239.431 677.459Z" fill="#0F3147" stroke="#0F3147" stroke-width="0.8287" stroke-miterlimit="10" stroke-linecap="round" stroke-linejoin="round"/>
<path d="M255.548 684.914C248.395 687.345 239.308 697.054 237.009 703.55C236.653 704.558 237.187 705.686 238.195 706.042C239.202 706.399 240.307 705.865 240.664 704.857C242.584 699.429 250.81 690.623 256.783 688.593C257.795 688.248 258.337 687.137 257.992 686.123C257.648 685.111 256.56 684.569 255.548 684.914Z" fill="#0F3147" stroke="#0F3147" stroke-width="0.8287" stroke-miterlimit="10" stroke-linecap="round" stroke-linejoin="round"/>
<path d="M279.291 692.167C278.799 692.106 278.285 692.224 277.863 692.554C272.184 696.992 267.169 704.866 264.503 712.254C264.141 713.26 264.683 714.36 265.689 714.723C266.695 715.086 267.795 714.567 268.158 713.561C270.597 706.803 275.206 699.534 280.235 695.603C281.077 694.945 281.232 693.735 280.574 692.892C280.244 692.471 279.783 692.227 279.291 692.167Z" fill="#0F3147" stroke="#0F3147" stroke-width="0.8287" stroke-miterlimit="10" stroke-linecap="round" stroke-linejoin="round"/>
<path d="M224.373 674.518C224.373 674.518 236.242 662.193 236.68 654.232C236.926 649.775 214.072 643.431 202.125 647.922C190.652 652.234 188.444 668.842 191.659 678.261L224.373 674.518Z" fill="#0F3147" stroke="#0F3147" stroke-width="0.8287" stroke-miterlimit="10" stroke-linecap="round" stroke-linejoin="round"/>
<path d="M224.375 674.521C224.375 674.521 236.243 662.196 236.682 654.235C236.927 649.778 216.825 646.251 211.697 646.412C199.447 646.796 191.66 678.264 191.66 678.264L224.375 674.521Z" fill="white" stroke="#0F3147" stroke-width="0.8287" stroke-miterlimit="10" stroke-linecap="round" stroke-linejoin="round"/>
<path d="M337.25 645.686C336.343 646.039 329.468 652.672 332.972 654.623C336.48 656.578 343.184 649.766 341.388 648.899C341.028 648.725 337.697 645.513 337.25 645.686Z" fill="#FF7CAB" stroke="#0F3147" stroke-width="0.8287" stroke-miterlimit="10" stroke-linecap="round" stroke-linejoin="round"/>
<path d="M355.651 678.802C353.413 676.404 347.301 677.998 346.457 682.576C349.541 683.638 354.263 680.304 355.651 678.802Z" fill="#FF7CAB" stroke="#0F3147" stroke-width="0.8287" stroke-miterlimit="10" stroke-linecap="round" stroke-linejoin="round"/>
<path d="M357.692 682.91C357.567 680.729 350.459 682.966 350.516 686.09C350.552 688.074 357.771 684.291 357.692 682.91Z" fill="#FF7CAB" stroke="#0F3147" stroke-width="0.8287" stroke-miterlimit="10" stroke-linecap="round" stroke-linejoin="round"/>
<path d="M249.227 476.469C249.227 476.469 258.224 500.585 260.851 505.841" stroke="#0F3147" stroke-width="0.8287" stroke-miterlimit="10" stroke-linecap="round" stroke-linejoin="round"/>
<path d="M304.569 553.357C304.569 553.357 301.474 561.495 301.508 564.271" stroke="#0F3147" stroke-width="0.8287" stroke-miterlimit="10" stroke-linecap="round" stroke-linejoin="round"/>
<path d="M299.527 714.346L303.117 715.075" stroke="#0F3147" stroke-width="0.8287" stroke-miterlimit="10" stroke-linecap="round" stroke-linejoin="round"/>
<path d="M310.238 709.412L312.872 709.837" stroke="#0F3147" stroke-width="0.8287" stroke-miterlimit="10" stroke-linecap="round" stroke-linejoin="round"/>
<path d="M312.41 715.769L314.503 716.223" stroke="#0F3147" stroke-width="0.8287" stroke-miterlimit="10" stroke-linecap="round" stroke-linejoin="round"/>
<path d="M323.543 714.853L326.696 715.804" stroke="#0F3147" stroke-width="0.8287" stroke-miterlimit="10" stroke-linecap="round" stroke-linejoin="round"/>
<path d="M134.661 447.54C129.656 444.351 113.014 442.449 104.606 447.752C87.1272 458.776 85.7146 477.224 90.2092 496.302C93.1698 508.868 103.938 506.174 118.813 511.333" fill="#FFECDD"/>
<path d="M134.661 447.54C129.656 444.351 113.014 442.449 104.606 447.752C87.1272 458.776 85.7146 477.224 90.2092 496.302C93.1698 508.868 103.938 506.174 118.813 511.333" stroke="#294064" stroke-width="0.8287" stroke-miterlimit="10" stroke-linecap="round"/>
<path d="M147.004 451.965C143.494 449.101 140.179 445.979 136.473 443.372C132.11 440.301 126.175 448.214 123.7 449.67C110.467 457.453 95.5395 460.945 90.2389 476.487C80.474 505.12 102.457 521.09 133.574 508.828C155.787 500.075 155.58 482.901 161.92 472.82" fill="#FFECDD"/>
<path d="M147.004 451.965C143.494 449.101 140.179 445.979 136.473 443.372C132.11 440.301 126.175 448.214 123.7 449.67C110.467 457.453 95.5395 460.945 90.2389 476.487C80.474 505.12 102.457 521.09 133.574 508.828C155.787 500.075 155.58 482.901 161.92 472.82" stroke="#294064" stroke-width="0.8287" stroke-miterlimit="10" stroke-linecap="round"/>
<path d="M91.5156 474.398C90.6509 479.193 91.8086 484.409 94.5682 488.383" stroke="#294064" stroke-width="0.8287" stroke-miterlimit="10" stroke-linecap="round"/>
<path d="M98.6059 464.985C96.9054 468.097 98.9082 473.344 99.6362 476.503" stroke="#294064" stroke-width="0.8287" stroke-miterlimit="10" stroke-linecap="round"/>
<path d="M107.559 458.929C107.18 461.028 108.819 464.535 109.99 466.222" stroke="#294064" stroke-width="0.8287" stroke-miterlimit="10" stroke-linecap="round"/>
<path d="M117.898 453.756C118.455 455.654 119.563 457.288 120.119 459.183" stroke="#294064" stroke-width="0.8287" stroke-miterlimit="10" stroke-linecap="round"/>
<path d="M125.75 448.772C127.116 449.519 128.797 450.851 129.937 451.904C130.259 452.201 131.384 453.764 131.13 453.398" stroke="#294064" stroke-width="0.8287" stroke-miterlimit="10" stroke-linecap="round"/>
<path d="M131.032 419.123C115.592 435.043 75.3619 443.944 71.5245 483.784L86.9094 499.191C89.5796 440.201 141.043 442.606 148.258 402.204" fill="#F57450"/>
<path d="M131.032 419.123C115.592 435.043 75.3619 443.944 71.5245 483.784L86.9094 499.191C89.5796 440.201 141.043 442.606 148.258 402.204" stroke="#294064" stroke-width="0.8287" stroke-miterlimit="10" stroke-linecap="round"/>
<path d="M63.6788 480.906C42.3587 510.395 17.9281 503.153 8.13943 544.471C4.49068 559.873 29.5134 591.531 40.5213 602.905C58.7398 621.73 88.6949 639.663 113.039 623.66C134.438 609.592 145.429 542.629 126.111 537.348C96.872 529.354 84.9132 502.538 63.6788 480.906Z" fill="#F57450" stroke="#294064" stroke-width="0.8287" stroke-miterlimit="10" stroke-linecap="round"/>
<path d="M9.73813 539.037C12.7737 553.225 28.7447 566.692 46.2919 588.816C57.3542 602.765 67.1588 523.405 129.868 539.038C99.8893 505.635 89.8495 480.717 67.1588 480.718C42.6086 480.719 3.56727 510.197 9.73813 539.037Z" fill="#FF9477" stroke="#294064" stroke-width="0.8287" stroke-miterlimit="10" stroke-linecap="round"/>
<path d="M196.616 389.649C194.054 385.076 191.612 380.433 188.931 375.928C188.237 374.763 186.876 374.168 185.643 373.446C178.944 369.521 168.214 374.566 162.536 378.223C146.001 388.874 135.94 405.896 131.825 418.429C131.825 418.429 159.873 394.056 175.18 388.827C180.328 387.068 182.465 388.699 186.401 391.519" fill="#FF9477"/>
<path d="M196.616 389.649C194.054 385.076 191.612 380.433 188.931 375.928C188.237 374.763 186.876 374.168 185.643 373.446C178.944 369.521 168.214 374.566 162.536 378.223C146.001 388.874 135.94 405.896 131.825 418.429C131.825 418.429 159.873 394.056 175.18 388.827C180.328 387.068 182.465 388.699 186.401 391.519" stroke="#294064" stroke-width="0.8287" stroke-miterlimit="10" stroke-linecap="round"/>
<path d="M187.911 385.221C185.772 383.614 181.487 390.114 180.753 391.52C177.649 397.462 175.51 408.686 179.533 414.664C182.393 418.913 188.18 419.474 191.722 415.627C194.906 412.168 195.558 406.863 196.42 402.456C196.749 400.77 197.599 398.115 196.777 396.467" fill="#FFC6B2"/>
<path d="M187.911 385.221C185.772 383.614 181.487 390.114 180.753 391.52C177.649 397.462 175.51 408.686 179.533 414.664C182.393 418.913 188.18 419.474 191.722 415.627C194.906 412.168 195.558 406.863 196.42 402.456C196.749 400.77 197.599 398.115 196.777 396.467" stroke="#FFC6B2" stroke-width="0.8287" stroke-miterlimit="10" stroke-linecap="round"/>
<path d="M179.46 420.277C179.46 420.277 168.745 403.96 168.807 393.976C168.847 387.416 174.58 381.459 180.032 377.81C185.711 374.009 195.853 370.63 200.471 371.576C206.545 372.82 201.99 377.206 197.856 379.088C191.235 382.102 189.712 383.136 185.249 385.275" fill="#FFC6B2"/>
<path d="M179.46 420.277C179.46 420.277 168.745 403.96 168.807 393.976C168.847 387.416 174.58 381.459 180.032 377.81C185.711 374.009 195.853 370.63 200.471 371.576C206.545 372.82 201.99 377.206 197.856 379.088C191.235 382.102 189.712 383.136 185.249 385.275" stroke="#294064" stroke-width="0.8287" stroke-miterlimit="10" stroke-linecap="round"/>
<path d="M177.264 391.176C177.264 391.176 182.385 385.644 186.491 383.472C191.684 380.725 194.456 381.8 199.974 384.716C203.528 386.594 201.084 390.542 201.084 390.542" fill="#FFC6B2"/>
<path d="M177.264 391.176C177.264 391.176 182.385 385.644 186.491 383.472C191.684 380.725 194.456 381.8 199.974 384.716C203.528 386.594 201.084 390.542 201.084 390.542" stroke="#294064" stroke-width="0.8287" stroke-miterlimit="10" stroke-linecap="round"/>
<path d="M181.07 396.254C181.07 396.254 187.521 388.513 193.435 388.543C196.416 388.559 202.186 390.3 204.326 392.846C205.842 394.649 204.847 398.519 204.847 398.519" fill="#FFC6B2"/>
<path d="M181.07 396.254C181.07 396.254 187.521 388.513 193.435 388.543C196.416 388.559 202.186 390.3 204.326 392.846C205.842 394.649 204.847 398.519 204.847 398.519" stroke="#294064" stroke-width="0.8287" stroke-miterlimit="10" stroke-linecap="round"/>
<path d="M184.445 401.147C184.445 401.147 189.297 396.387 196.161 395.04C199.045 394.474 204.096 397.094 205.228 398.207C207.483 400.424 207.642 406.228 205.421 407.9C203.252 409.533 199.315 410.451 199.34 406.739" fill="#FFC6B2"/>
<path d="M184.445 401.147C184.445 401.147 189.297 396.387 196.161 395.04C199.045 394.474 204.096 397.094 205.228 398.207C207.483 400.424 207.642 406.228 205.421 407.9C203.252 409.533 199.315 410.451 199.34 406.739" stroke="#294064" stroke-width="0.8287" stroke-miterlimit="10" stroke-linecap="round"/>
<path d="M203.109 401.032C200.61 403.465 198.159 406.83 199.944 409.216C204.603 415.443 206.858 431.099 197.396 431.599C185.728 432.215 179.825 421.229 177.555 417.187" fill="#FFC6B2"/>
<path d="M203.109 401.032C200.61 403.465 198.159 406.83 199.944 409.216C204.603 415.443 206.858 431.099 197.396 431.599C185.728 432.215 179.825 421.229 177.555 417.187" stroke="#294064" stroke-width="0.8287" stroke-miterlimit="10" stroke-linecap="round"/>
<path d="M180.461 421.937C171.836 440.628 141.189 445.832 118.588 461.701C106.753 470.011 100.423 490.798 108.411 497.814C116.149 504.611 129.465 507.169 149.404 495.649C172.786 482.139 198.419 453.421 203.829 424.679" fill="#FFC6B2"/>
<path d="M180.461 421.937C171.836 440.628 141.189 445.832 118.588 461.701C106.753 470.011 100.423 490.798 108.411 497.814C116.149 504.611 129.465 507.169 149.404 495.649C172.786 482.139 198.419 453.421 203.829 424.679" stroke="#294064" stroke-width="0.8287" stroke-miterlimit="10" stroke-linecap="round"/>
<path d="M201.802 371.463C199.508 370.837 194.543 371.357 194.986 373.935C195.533 377.123 200.841 375.835 202.479 374.364C203.425 373.514 203.613 371.957 201.802 371.463Z" fill="#FF7CAB" stroke="#294064" stroke-width="0.8287" stroke-miterlimit="10" stroke-linecap="round"/>
<path d="M202.365 402.202C205.732 425.289 221.123 443.085 219.199 464.247C215.145 485.634 203.312 497.985 182.428 507.188C153.795 519.805 129.934 514.228 112.929 533.228C94.2562 536.054 98.5308 518.939 98.5308 518.939C130.117 491.655 176.47 504.043 197.005 465.902C204.977 451.096 198.164 428.737 197.005 411.1C196.65 405.684 202.365 402.202 202.365 402.202Z" fill="#F57450" stroke="#294064" stroke-width="0.8287" stroke-miterlimit="10" stroke-linecap="round"/>
<path d="M215.352 459.185C215.352 480.707 198.518 497.663 177.356 504.877" stroke="#294064" stroke-width="0.8287" stroke-miterlimit="10" stroke-linecap="round"/>
<path d="M71.863 480.346C72.0357 477.962 73.708 476.268 73.708 476.268C75.3529 475.406 82.4567 474.119 84.1922 473.489C84.3279 473.439 93.1872 470.977 93.1872 470.977C93.1872 470.977 90.3847 478.782 89.8204 480.346C89.7562 480.524 88.1609 488.573 87.8966 488.532C78.5176 481.799 71.7998 481.218 71.863 480.346Z" fill="#294064" stroke="#294064" stroke-width="0.8287" stroke-miterlimit="10" stroke-linecap="round"/>
<path d="M184.015 435.429C181.263 431.662 176.185 430.191 176.185 430.191C180.792 426.455 181.283 422.651 181.283 422.651C187.713 424.874 184.193 433.476 184.015 435.429Z" fill="#E4AC98"/>
<path d="M138.394 549.494C140.095 551.185 137.467 554.708 136.318 556.595C133.83 560.683 130.671 564.381 127.961 568.344C124.332 573.649 122.945 585.004 119.431 586.026C114.628 587.423 95.8735 575.243 84.2119 570.391C79.293 568.345 81.231 562.485 82.62 559.217C86.2433 550.69 89.0136 546.631 93.0724 538.283C93.406 537.597 94.5562 534.831 95.1112 534.284C103.925 535.938 114.154 541.116 123.58 545.115C128.529 547.215 135.366 546.483 138.394 549.494Z" fill="#FFECDD" stroke="#294064" stroke-width="0.8287" stroke-miterlimit="10" stroke-linecap="round"/>
<path d="M136.148 550.224C131.693 554.565 129.371 560.583 126.4 565.799C124.222 569.621 120.706 572.67 119.553 577.014" fill="#FED4E4"/>
<path d="M136.148 550.224C131.693 554.565 129.371 560.583 126.4 565.799C124.222 569.621 120.706 572.67 119.553 577.014" stroke="#294064" stroke-width="0.8287" stroke-miterlimit="10" stroke-linecap="round"/>
<path d="M130.481 556.892C124.038 554.591 118.442 551.46 112.162 548.589C104.172 544.936 96.9073 542.304 91.7636 541.333" stroke="#294064" stroke-width="0.8287" stroke-miterlimit="10" stroke-linecap="round"/>
<path d="M106.594 552.912C106.346 552.796 106.249 552.493 106.383 552.255L111.576 543.036C111.717 542.786 112.026 542.686 112.287 542.805L117.003 544.965C117.251 545.078 117.347 545.38 117.21 545.616L111.881 554.816C111.736 555.065 111.426 555.163 111.166 555.042L106.594 552.912Z" fill="#B6B7F4" stroke="#294064" stroke-width="0.8287" stroke-miterlimit="10" stroke-linecap="round"/>
<path d="M128.39 557.445C139.645 557.588 135.499 562.166 135.075 563.575C132.642 571.671 130.918 573.197 127.597 579.438C125.624 583.144 126.993 590.738 123.94 592.177C121.464 593.345 115.518 591.448 111.41 590.351C103.093 588.13 88.9284 584.777 86.8053 582.26C83.8738 578.784 89.389 559.266 90.1011 556.441C90.8722 553.379 88.6956 545.747 93.3979 545.349C100.008 544.789 123.704 557.385 128.39 557.445Z" fill="white" stroke="#294064" stroke-width="0.828699" stroke-miterlimit="10" stroke-linecap="round"/>
<path d="M94.6411 547.727C94.8565 553.253 93.0525 556.788 91.8111 562.569C90.7496 567.509 88.9938 574.599 88.4945 580.001" fill="#FED4E4"/>
<path d="M94.6411 547.727C94.8565 553.253 93.0525 556.788 91.8111 562.569C90.7496 567.509 88.9938 574.599 88.4945 580.001" stroke="#294064" stroke-width="0.828699" stroke-miterlimit="10" stroke-linecap="round"/>
<path d="M131.547 566.976C119.707 563.757 107.828 560.689 96.2708 556.368L131.547 566.976Z" fill="#FED4E4"/>
<path d="M131.547 566.976C119.707 563.757 107.828 560.689 96.2708 556.368" stroke="#294064" stroke-width="0.828699" stroke-miterlimit="10" stroke-linecap="round"/>
<path d="M111.67 566.6C111.479 566.54 111.369 566.34 111.421 566.146L113.985 556.693C114.035 556.507 114.234 556.402 114.417 556.467L119.11 558.118C119.302 558.185 119.409 558.387 119.358 558.584L116.907 567.872C116.857 568.061 116.66 568.169 116.473 568.111L111.67 566.6Z" fill="#B6B7F4" stroke="#294064" stroke-width="0.828699" stroke-miterlimit="10" stroke-linecap="round"/>
<path d="M132.319 574.799C132.686 564.891 132.091 575.078 129.687 575.272C116.508 574.799 100.396 571.02 82.8402 557.553C79.0211 554.965 54.2253 592.241 57.4166 602.554C63.0993 620.918 98.7123 621.686 106.922 621.686C117.23 621.686 131.828 588.026 132.319 574.799Z" fill="#FF9477" stroke="#294064" stroke-width="0.8287" stroke-miterlimit="10" stroke-linecap="round"/>
<path d="M78.3704 574.191C91.9312 585.404 111.832 592.09 127.338 588.578" stroke="#294064" stroke-width="0.8287" stroke-miterlimit="10" stroke-linecap="round"/>
<path d="M85.7356 562.839C83.2896 566.446 74.4326 574.142 72.5087 582.078C69.3362 589.977 72.5215 602.037 66.0157 609.493" stroke="#294064" stroke-width="0.8287" stroke-miterlimit="10" stroke-linecap="round"/>
<path d="M107.99 618.71C113.248 616.543 116.411 610.412 118.265 606.68" stroke="#294064" stroke-width="0.8287" stroke-miterlimit="10" stroke-linecap="round"/>
<path d="M119.126 604.919C119.126 604.919 121.851 599.305 122.324 597.904" stroke="#294064" stroke-width="0.8287" stroke-miterlimit="10" stroke-linecap="round"/>
<path d="M103.186 579.127C103.899 577.267 105.937 576.318 107.739 577.008C109.542 577.699 110.426 579.767 109.713 581.628C109 583.488 106.96 584.436 105.158 583.745C103.355 583.055 102.473 580.987 103.186 579.127Z" fill="white" stroke="#294064" stroke-width="0.8287" stroke-miterlimit="10"/>
</g>
<defs>
<clipPath id="clip0_5304_23316">
<path d="M0 0H414V841C414 852.046 405.046 861 394 861H20C8.95432 861 0 852.046 0 841V0Z" fill="white"/>
</clipPath>
</defs>
</svg>
