<svg width="414" height="861" viewBox="0 0 414 861" fill="none" xmlns="http://www.w3.org/2000/svg">
<g clip-path="url(#clip0_5304_23032)">
<path d="M0 0H414V841C414 852.046 405.046 861 394 861H20C8.95432 861 0 852.046 0 841V0Z" fill="#50A1B7"/>
<path d="M-90 348.351C-90 348.351 8.77563 320.742 91.0211 372.537C201.034 441.82 209.487 667.924 337.31 746.853C398.733 784.78 522 764.677 522 764.677" stroke="white" stroke-miterlimit="10" stroke-linecap="round" stroke-linejoin="round" stroke-dasharray="10 10"/>
<path d="M-7.64844 482.813L48.9994 526L5.61243 567.952L63.4994 545.5L109.283 609L110.13 529.372L183.264 562.755L128.446 507.466L180.98 462.345L104.922 480.909L86.3736 407L69.877 485.52L-7.64844 482.813Z" fill="#368AA1"/>
<path d="M364.591 370L335.892 403.865L307.286 380.724L321.838 412.905L285 434.577L325.206 432.091L334.194 470.585L344.897 432.68L371.131 459.154L360.716 426.764L403.616 415.345L356.777 409.479L364.591 370Z" fill="#F4CC85"/>
<path d="M323.965 414.461L287.156 424.688L323.068 428.866L321.035 462.798L340.441 437.379L362.513 459.577L358.241 429.965" stroke="#294064" stroke-miterlimit="10" stroke-linecap="round" stroke-linejoin="round"/>
<path d="M368.722 688.245L376.731 630.451L346.314 676.098L297.717 654.123L323.303 692.292L281.258 735.871L336.355 714.648L341.13 758.734L356.997 720.722L406.816 744.734L367.997 706.069L416.961 695.976L368.722 688.245Z" fill="#FFECDD"/>
<path d="M123 506.5L165.5 456.5L98 476L70.6307 431L64 491L4 500.5L46 532.5" stroke="#294064" stroke-miterlimit="10" stroke-linecap="round" stroke-linejoin="round"/>
<path d="M361.863 682.119L361.585 632.894L341.802 677.038L295.686 668.204L332.495 697.536L290.344 734.338L342.839 716.816" stroke="#294064" stroke-miterlimit="10" stroke-linecap="round" stroke-linejoin="round"/>
<path fill-rule="evenodd" clip-rule="evenodd" d="M244.778 458.781C246.574 457.74 248.79 457.739 250.586 458.78L426.106 560.466C429.948 562.692 429.958 568.236 426.124 570.477L305.112 641.189C297.299 645.776 291.736 644.342 284.809 640.603C286.436 644.441 286.316 650.59 283.621 652.136L161.738 723.248C160.079 724.215 158.03 724.222 156.367 723.264L-8.84117 628.142C-12.4418 626.063 -13.2943 617.896 -9.66257 615.871L117.448 551.695C119.087 550.782 121.084 550.792 122.713 551.724L261.819 626.591L121.872 539.91C118.153 537.607 118.232 532.171 122.015 529.977L244.778 458.781Z" fill="#368AA1"/>
<path d="M119.486 542.413C121.124 541.5 123.121 541.51 124.75 542.441L284.676 628.514C288.269 630.568 289.248 640.794 285.659 642.854L163.775 713.966C162.117 714.933 160.068 714.939 158.404 713.982L-6.80406 618.86C-10.4047 616.781 -11.2572 608.613 -7.62546 606.589L119.486 542.413Z" fill="#FCCC78" stroke="#294064" stroke-miterlimit="10" stroke-linejoin="round"/>
<path d="M246.816 449.499C248.612 448.458 250.828 448.457 252.624 449.498L428.144 551.184C431.986 553.41 431.996 558.954 428.162 561.195L307.15 631.907C297.468 637.592 291.241 634.028 281.589 628.292L123.91 530.628C120.191 528.325 120.27 522.889 124.054 520.695L246.816 449.499Z" fill="#FCCC78" stroke="#294064" stroke-miterlimit="10" stroke-linejoin="round"/>
<path d="M248.803 449.403C250.559 448.43 252.697 448.459 254.427 449.476L421.823 547.945C425.543 550.133 425.552 555.508 421.841 557.71L306.409 626.197C297.169 631.706 291.227 628.253 282.016 622.694L126.42 532.064C122.824 529.802 124.554 518.36 128.216 516.204L248.803 449.403Z" fill="#FFECDD" stroke="#294064" stroke-miterlimit="10" stroke-linejoin="round"/>
<path d="M248.806 449.403C250.562 448.43 252.7 448.459 254.43 449.476L421.826 547.945C425.546 550.133 425.11 552.024 421.399 554.226L308.017 622.07C298.778 627.579 294.249 625.689 285.037 620.131L126.355 528.344C122.758 526.081 124.558 518.36 128.219 516.204L248.806 449.403Z" fill="#FFECDD" stroke="#294064" stroke-miterlimit="10" stroke-linejoin="round"/>
<path d="M248.807 449.403C250.561 448.431 252.698 448.458 254.427 449.474L418.669 545.919C422.388 548.107 422.512 549.894 418.801 552.096L308.835 617.576C299.595 623.086 296.822 623.571 287.611 618.013L126.638 525.341C123.041 523.079 124.557 518.361 128.218 516.205L248.807 449.403Z" fill="#FFECDD" stroke="#294064" stroke-miterlimit="10" stroke-linejoin="round"/>
<path d="M235.356 449.495C241.852 445.588 249.957 445.519 256.517 449.316L413.166 539.982C417.488 542.483 417.515 548.712 413.216 551.251L304.662 615.355C300.508 617.808 295.354 617.825 291.185 615.399L126.809 519.774C124.918 518.674 124.898 515.948 126.773 514.82L235.356 449.495Z" fill="white" stroke="#294064" stroke-miterlimit="10" stroke-linejoin="round"/>
<path d="M114.823 535.659C115.576 535.251 116.486 535.253 117.239 535.665L286.93 628.515C288.617 629.484 287.86 635.789 286.177 636.766L169.246 705.034C168.463 705.487 165.38 706.979 162.502 705.249L-4.93006 608.528C-6.6085 607.558 -7.90269 602.173 -6.23088 601.192L114.823 535.659Z" fill="#FFECDD" stroke="#294064" stroke-miterlimit="10" stroke-linejoin="round"/>
<path d="M114.546 533.12C115.303 532.702 116.222 532.7 116.981 533.116L286.665 625.961C288.352 626.931 287.595 633.236 285.912 634.213L168.981 702.481C167.809 703.541 164.323 704.162 162.237 702.696L-3.70233 606.694C-7.0219 605.199 -6.64127 600.095 -4.96955 599.115L114.546 533.12Z" fill="#FFECDD" stroke="#294064" stroke-miterlimit="10" stroke-linejoin="round"/>
<path d="M113.799 531.135C114.562 530.71 115.49 530.709 116.255 531.133L284.694 624.547C288.16 625.371 286.857 630.728 285.174 631.699L168.244 699.618C167.5 700.329 164.318 701.515 161.5 699.833L-4.3012 604.143C-7.19671 601.836 -6.11708 597.95 -4.44526 596.975L113.799 531.135Z" fill="#FFECDD" stroke="#294064" stroke-miterlimit="10" stroke-linejoin="round"/>
<path d="M109.171 529.514C112.986 527.282 117.704 527.262 121.539 529.461L271.349 615.397C278.431 619.559 292.143 624.069 283.961 628.837L170.571 694.786C166.759 697.003 162.052 697.017 158.227 694.822L8.97204 609.15C4.51776 606.371 -10.1504 600.115 -3.73884 595.56L109.171 529.514Z" fill="white" stroke="#294064" stroke-miterlimit="10" stroke-linejoin="round"/>
<path d="M139.993 514.509L149.101 520.264L142.921 524.291L133.09 518.473L139.993 514.509Z" fill="#FFECDD" stroke="#294064" stroke-miterlimit="10" stroke-linejoin="round"/>
<path d="M139.875 514.498L139.95 522.294L139.875 514.498Z" fill="#FFECDD"/>
<path d="M139.875 514.498L139.95 522.294" stroke="#294064" stroke-miterlimit="10" stroke-linecap="round" stroke-linejoin="round"/>
<path d="M156.462 524.147L165.57 529.903L159.389 533.93L149.559 528.112L156.462 524.147Z" fill="#FFECDD" stroke="#294064" stroke-miterlimit="10" stroke-linejoin="round"/>
<path d="M156.34 524.137L156.415 531.934L156.34 524.137Z" fill="#FFECDD"/>
<path d="M156.34 524.137L156.415 531.934" stroke="#294064" stroke-miterlimit="10" stroke-linecap="round" stroke-linejoin="round"/>
<path d="M172.902 533.436L182.011 539.192L175.831 543.218L166 537.401L172.902 533.436Z" fill="#FFECDD" stroke="#294064" stroke-miterlimit="10" stroke-linejoin="round"/>
<path d="M172.785 533.425L172.86 541.222L172.785 533.425Z" fill="#FFECDD"/>
<path d="M172.785 533.425L172.86 541.222" stroke="#294064" stroke-miterlimit="10" stroke-linecap="round" stroke-linejoin="round"/>
<path d="M190.165 543.772L199.273 549.527L193.092 553.555L183.262 547.737L190.165 543.772Z" fill="#FFECDD" stroke="#294064" stroke-miterlimit="10" stroke-linejoin="round"/>
<path d="M190.043 543.763L190.118 551.559L190.043 543.763Z" fill="#FFECDD"/>
<path d="M190.043 543.763L190.118 551.559" stroke="#294064" stroke-miterlimit="10" stroke-linecap="round" stroke-linejoin="round"/>
<path d="M206.735 553.521L215.843 559.277L209.663 563.304L199.832 557.486L206.735 553.521Z" fill="#FFECDD" stroke="#294064" stroke-miterlimit="10" stroke-linejoin="round"/>
<path d="M206.617 553.511L206.692 561.307L206.617 553.511Z" fill="#FFECDD"/>
<path d="M206.617 553.511L206.692 561.307" stroke="#294064" stroke-miterlimit="10" stroke-linecap="round" stroke-linejoin="round"/>
<path d="M224.048 562.887L233.156 568.642L226.976 572.67L217.145 566.851L224.048 562.887Z" fill="#FFECDD" stroke="#294064" stroke-miterlimit="10" stroke-linejoin="round"/>
<path d="M223.93 562.878L224.005 570.673L223.93 562.878Z" fill="#FFECDD"/>
<path d="M223.93 562.878L224.005 570.673" stroke="#294064" stroke-miterlimit="10" stroke-linecap="round" stroke-linejoin="round"/>
<path d="M241 572.319L250.108 578.075L243.928 582.102L234.098 576.284L241 572.319Z" fill="#FFECDD" stroke="#294064" stroke-miterlimit="10" stroke-linejoin="round"/>
<path d="M240.879 572.311L240.954 580.107L240.879 572.311Z" fill="#FFECDD"/>
<path d="M240.879 572.311L240.954 580.107" stroke="#294064" stroke-miterlimit="10" stroke-linecap="round" stroke-linejoin="round"/>
<path d="M257.56 582.278L266.668 588.033L260.488 592.061L250.656 586.242L257.56 582.278Z" fill="#FFECDD" stroke="#294064" stroke-miterlimit="10" stroke-linejoin="round"/>
<path d="M257.441 582.268L257.516 590.064L257.441 582.268Z" fill="#FFECDD"/>
<path d="M257.441 582.268L257.516 590.064" stroke="#294064" stroke-miterlimit="10" stroke-linecap="round" stroke-linejoin="round"/>
<path d="M274.521 591.582L283.629 597.338L277.449 601.364L267.617 595.546L274.521 591.582Z" fill="#FFECDD" stroke="#294064" stroke-miterlimit="10" stroke-linejoin="round"/>
<path d="M274.402 591.573L274.477 599.368L274.402 591.573Z" fill="#FFECDD"/>
<path d="M274.402 591.573L274.477 599.368" stroke="#294064" stroke-miterlimit="10" stroke-linecap="round" stroke-linejoin="round"/>
<path d="M291.156 601.56L300.265 607.316L294.085 611.343L284.254 605.526L291.156 601.56Z" fill="#FFECDD" stroke="#294064" stroke-miterlimit="10" stroke-linejoin="round"/>
<path d="M291.039 601.549L291.114 609.345L291.039 601.549Z" fill="#FFECDD"/>
<path d="M291.039 601.549L291.114 609.345" stroke="#294064" stroke-miterlimit="10" stroke-linecap="round" stroke-linejoin="round"/>
<path d="M116.91 533.326L126.018 539.082L119.838 543.109L110.008 537.291L116.91 533.326Z" fill="#FFECDD" stroke="#294064" stroke-miterlimit="10" stroke-linejoin="round"/>
<path d="M116.793 533.316L116.868 541.112L116.793 533.316Z" fill="#FFECDD"/>
<path d="M116.793 533.316L116.868 541.112" stroke="#294064" stroke-miterlimit="10" stroke-linecap="round" stroke-linejoin="round"/>
<path d="M133.376 542.966L142.484 548.721L136.304 552.749L126.473 546.93L133.376 542.966Z" fill="#FFECDD" stroke="#294064" stroke-miterlimit="10" stroke-linejoin="round"/>
<path d="M133.258 542.956L133.332 550.752L133.258 542.956Z" fill="#FFECDD"/>
<path d="M133.258 542.956L133.332 550.752" stroke="#294064" stroke-miterlimit="10" stroke-linecap="round" stroke-linejoin="round"/>
<path d="M149.821 552.253L158.929 558.009L152.75 562.036L142.918 556.218L149.821 552.253Z" fill="#FFECDD" stroke="#294064" stroke-miterlimit="10" stroke-linejoin="round"/>
<path d="M149.703 552.244L149.778 560.04L149.703 552.244Z" fill="#FFECDD"/>
<path d="M149.703 552.244L149.778 560.04" stroke="#294064" stroke-miterlimit="10" stroke-linecap="round" stroke-linejoin="round"/>
<path d="M167.083 562.59L176.191 568.346L170.011 572.373L160.18 566.556L167.083 562.59Z" fill="#FFECDD" stroke="#294064" stroke-miterlimit="10" stroke-linejoin="round"/>
<path d="M166.961 562.582L167.035 570.377L166.961 562.582Z" fill="#FFECDD"/>
<path d="M166.961 562.582L167.035 570.377" stroke="#294064" stroke-miterlimit="10" stroke-linecap="round" stroke-linejoin="round"/>
<path d="M183.652 572.339L192.761 578.095L186.581 582.122L176.75 576.305L183.652 572.339Z" fill="#FFECDD" stroke="#294064" stroke-miterlimit="10" stroke-linejoin="round"/>
<path d="M183.535 572.329L183.61 580.125L183.535 572.329Z" fill="#FFECDD"/>
<path d="M183.535 572.329L183.61 580.125" stroke="#294064" stroke-miterlimit="10" stroke-linecap="round" stroke-linejoin="round"/>
<path d="M200.966 581.706L210.074 587.461L203.894 591.488L194.062 585.67L200.966 581.706Z" fill="#FFECDD" stroke="#294064" stroke-miterlimit="10" stroke-linejoin="round"/>
<path d="M200.848 581.696L200.922 589.492L200.848 581.696Z" fill="#FFECDD"/>
<path d="M200.848 581.696L200.922 589.492" stroke="#294064" stroke-miterlimit="10" stroke-linecap="round" stroke-linejoin="round"/>
<path d="M217.914 591.138L227.022 596.894L220.842 600.921L211.012 595.103L217.914 591.138Z" fill="#FFECDD" stroke="#294064" stroke-miterlimit="10" stroke-linejoin="round"/>
<path d="M217.797 591.129L217.872 598.925L217.797 591.129Z" fill="#FFECDD"/>
<path d="M217.797 591.129L217.872 598.925" stroke="#294064" stroke-miterlimit="10" stroke-linecap="round" stroke-linejoin="round"/>
<path d="M234.477 601.097L243.585 606.852L237.405 610.879L227.574 605.061L234.477 601.097Z" fill="#FFECDD" stroke="#294064" stroke-miterlimit="10" stroke-linejoin="round"/>
<path d="M234.355 601.086L234.431 608.883L234.355 601.086Z" fill="#FFECDD"/>
<path d="M234.355 601.086L234.431 608.883" stroke="#294064" stroke-miterlimit="10" stroke-linecap="round" stroke-linejoin="round"/>
<path d="M251.434 610.4L260.542 616.156L254.362 620.182L244.531 614.365L251.434 610.4Z" fill="#FFECDD" stroke="#294064" stroke-miterlimit="10" stroke-linejoin="round"/>
<path d="M251.316 610.391L251.392 618.187L251.316 610.391Z" fill="#FFECDD"/>
<path d="M251.316 610.391L251.392 618.187" stroke="#294064" stroke-miterlimit="10" stroke-linecap="round" stroke-linejoin="round"/>
<path d="M268.075 620.379L277.183 626.134L271.003 630.162L261.172 624.344L268.075 620.379Z" fill="#FFECDD" stroke="#294064" stroke-miterlimit="10" stroke-linejoin="round"/>
<path d="M267.957 620.368L268.032 628.164L267.957 620.368Z" fill="#FFECDD"/>
<path d="M267.957 620.368L268.032 628.164" stroke="#294064" stroke-miterlimit="10" stroke-linecap="round" stroke-linejoin="round"/>
<path d="M120.641 541.669C118.372 531.415 138.227 505.187 143.788 523.245" stroke="#294064" stroke-miterlimit="10" stroke-linecap="round" stroke-linejoin="round"/>
<path d="M118.235 542.105C115.125 531.588 135.204 502.285 141.347 523.55" stroke="#294064" stroke-miterlimit="10" stroke-linecap="round" stroke-linejoin="round"/>
<path d="M137.516 551.576C135.247 541.324 155.102 515.094 160.662 533.152" stroke="#294064" stroke-miterlimit="10" stroke-linecap="round" stroke-linejoin="round"/>
<path d="M135.11 552.012C131.999 541.495 152.079 512.192 158.222 533.457" stroke="#294064" stroke-miterlimit="10" stroke-linecap="round" stroke-linejoin="round"/>
<path d="M154.219 560.54C151.95 550.287 171.805 524.057 177.365 542.115" stroke="#294064" stroke-miterlimit="10" stroke-linecap="round" stroke-linejoin="round"/>
<path d="M151.813 560.976C148.703 550.459 168.782 521.156 174.925 542.421" stroke="#294064" stroke-miterlimit="10" stroke-linecap="round" stroke-linejoin="round"/>
<path d="M171.098 571.039C168.829 560.785 188.684 534.556 194.244 552.615" stroke="#294064" stroke-miterlimit="10" stroke-linecap="round" stroke-linejoin="round"/>
<path d="M168.692 571.475C165.582 560.958 185.661 531.655 191.804 552.92" stroke="#294064" stroke-miterlimit="10" stroke-linecap="round" stroke-linejoin="round"/>
<path d="M187.875 580.664C185.607 570.411 205.462 544.182 211.022 562.24" stroke="#294064" stroke-miterlimit="10" stroke-linecap="round" stroke-linejoin="round"/>
<path d="M185.47 581.101C182.359 570.584 202.439 541.28 208.582 562.546" stroke="#294064" stroke-miterlimit="10" stroke-linecap="round" stroke-linejoin="round"/>
<path d="M204.723 589.939C202.454 579.685 222.309 553.456 227.87 571.514" stroke="#294064" stroke-miterlimit="10" stroke-linecap="round" stroke-linejoin="round"/>
<path d="M202.317 590.376C199.207 579.859 219.287 550.555 225.429 571.821" stroke="#294064" stroke-miterlimit="10" stroke-linecap="round" stroke-linejoin="round"/>
<path d="M221.93 599.656C219.661 589.403 239.516 563.173 245.077 581.232" stroke="#294064" stroke-miterlimit="10" stroke-linecap="round" stroke-linejoin="round"/>
<path d="M219.524 600.091C216.414 589.574 236.493 560.271 242.636 581.536" stroke="#294064" stroke-miterlimit="10" stroke-linecap="round" stroke-linejoin="round"/>
<path d="M238.934 608.899C236.664 598.645 256.519 572.416 262.08 590.474" stroke="#294064" stroke-miterlimit="10" stroke-linecap="round" stroke-linejoin="round"/>
<path d="M236.524 609.335C233.414 598.818 253.494 569.515 259.636 590.78" stroke="#294064" stroke-miterlimit="10" stroke-linecap="round" stroke-linejoin="round"/>
<path d="M255.625 618.572C253.357 608.319 273.212 582.089 278.772 600.147" stroke="#294064" stroke-miterlimit="10" stroke-linecap="round" stroke-linejoin="round"/>
<path d="M253.22 619.008C250.109 608.491 270.188 579.188 276.331 600.453" stroke="#294064" stroke-miterlimit="10" stroke-linecap="round" stroke-linejoin="round"/>
<path d="M272.051 628.918C269.782 618.665 289.637 592.436 295.198 610.494" stroke="#294064" stroke-miterlimit="10" stroke-linecap="round" stroke-linejoin="round"/>
<path d="M269.645 629.355C266.535 618.838 286.614 589.534 292.758 610.8" stroke="#294064" stroke-miterlimit="10" stroke-linecap="round" stroke-linejoin="round"/>
<path d="M107.501 547.005L256.806 634.192L164.218 687.361L14.334 600.819L107.501 547.005Z" stroke="#294064" stroke-miterlimit="10" stroke-linecap="round" stroke-linejoin="round"/>
<path d="M21.8555 605.102L114.44 551.328" stroke="#294064" stroke-miterlimit="10" stroke-linecap="round" stroke-linejoin="round"/>
<path d="M57.7422 625.839L150.367 571.736" stroke="#294064" stroke-miterlimit="10" stroke-linecap="round" stroke-linejoin="round"/>
<path d="M93.7617 646.421L185.179 592.65" stroke="#294064" stroke-miterlimit="10" stroke-linecap="round" stroke-linejoin="round"/>
<path d="M128.973 666.677C128.973 666.677 197.489 626.829 220.636 613.385" stroke="#294064" stroke-miterlimit="10" stroke-linecap="round" stroke-linejoin="round"/>
<path d="M38.4238 587.147L186.897 673.394" stroke="#294064" stroke-miterlimit="10" stroke-linecap="round" stroke-linejoin="round"/>
<path d="M60.9688 573.897L211.06 660.488" stroke="#294064" stroke-miterlimit="10" stroke-linecap="round" stroke-linejoin="round"/>
<path d="M84.3164 560.519L234.016 646.984" stroke="#294064" stroke-miterlimit="10" stroke-linecap="round" stroke-linejoin="round"/>
<path d="M114.57 551.533L139.676 618.808" stroke="#294064" stroke-miterlimit="10" stroke-linecap="round" stroke-linejoin="round"/>
<path d="M91.5469 564.996L116.531 632.368" stroke="#294064" stroke-miterlimit="10" stroke-linecap="round" stroke-linejoin="round"/>
<path d="M68.8867 578.753L93.4965 645.991" stroke="#294064" stroke-miterlimit="10" stroke-linecap="round" stroke-linejoin="round"/>
<path d="M40.5977 604.27L115.403 560.682L116.884 561.582L117.73 563.232L120.08 563.524L121.05 565.268L124.232 566.047L49.8338 609.782L48.5634 609.024L47.8888 607.513L45.3518 607.107L44.0563 604.752L42.2204 605.238L40.5977 604.27Z" fill="#F57450" stroke="#294064" stroke-miterlimit="10" stroke-linecap="round" stroke-linejoin="round"/>
<path d="M228.771 504.347C233.479 507.124 252.2 509.899 252.561 499.762C252.734 494.914 250.714 493.984 253.699 489.98C255.959 486.947 263.328 481.029 259.242 476.122C254.185 470.048 216.62 467.177 211.765 480.265C209.447 486.512 217.704 486.89 220.564 490.289C226.002 496.749 220.15 499.265 228.771 504.347Z" fill="#8789D9"/>
<path d="M250.225 458.624L399.531 545.811L306.942 598.98L157.059 512.438L250.225 458.624Z" stroke="#294064" stroke-miterlimit="10" stroke-linecap="round" stroke-linejoin="round"/>
<path d="M164.578 516.72L257.163 462.946" stroke="#294064" stroke-miterlimit="10" stroke-linecap="round" stroke-linejoin="round"/>
<path d="M200.465 537.458L269.428 496.528" stroke="#294064" stroke-miterlimit="10" stroke-linecap="round" stroke-linejoin="round"/>
<path d="M236.484 558.04L305.037 517.466" stroke="#294064" stroke-miterlimit="10" stroke-linecap="round" stroke-linejoin="round"/>
<path d="M271.695 578.296C271.695 578.296 317.395 551.264 340.541 537.82" stroke="#294064" stroke-miterlimit="10" stroke-linecap="round" stroke-linejoin="round"/>
<path d="M181.148 498.766L329.622 585.012" stroke="#294064" stroke-miterlimit="10" stroke-linecap="round" stroke-linejoin="round"/>
<path d="M203.691 485.516L353.783 572.107" stroke="#294064" stroke-miterlimit="10" stroke-linecap="round" stroke-linejoin="round"/>
<path d="M227.039 472.138L376.739 558.602" stroke="#294064" stroke-miterlimit="10" stroke-linecap="round" stroke-linejoin="round"/>
<path d="M234.273 476.614L259.258 543.987" stroke="#294064" stroke-miterlimit="10" stroke-linecap="round" stroke-linejoin="round"/>
<path d="M211.609 490.372L236.22 557.61" stroke="#294064" stroke-miterlimit="10" stroke-linecap="round" stroke-linejoin="round"/>
<path d="M244.875 478.693L260.986 469.028" stroke="#294064" stroke-miterlimit="10" stroke-linecap="round" stroke-linejoin="round"/>
<path d="M252.496 483.339L268.607 473.676" stroke="#294064" stroke-miterlimit="10" stroke-linecap="round" stroke-linejoin="round"/>
<path d="M260.523 487.937L276.634 478.272" stroke="#294064" stroke-miterlimit="10" stroke-linecap="round" stroke-linejoin="round"/>
<path d="M269.379 492.517L285.489 482.854" stroke="#294064" stroke-miterlimit="10" stroke-linecap="round" stroke-linejoin="round"/>
<path d="M276.352 497.324L292.462 487.661" stroke="#294064" stroke-miterlimit="10" stroke-linecap="round" stroke-linejoin="round"/>
<path d="M285.031 502.036L301.142 492.372" stroke="#294064" stroke-miterlimit="10" stroke-linecap="round" stroke-linejoin="round"/>
<path d="M292.941 506.385L309.051 496.72" stroke="#294064" stroke-miterlimit="10" stroke-linecap="round" stroke-linejoin="round"/>
<path d="M301.586 510.863L317.697 501.199" stroke="#294064" stroke-miterlimit="10" stroke-linecap="round" stroke-linejoin="round"/>
<path d="M308.793 515.791L324.903 506.128" stroke="#294064" stroke-miterlimit="10" stroke-linecap="round" stroke-linejoin="round"/>
<path d="M317.195 520.226L333.306 510.563" stroke="#294064" stroke-miterlimit="10" stroke-linecap="round" stroke-linejoin="round"/>
<path d="M325.02 525.699L341.129 516.035" stroke="#294064" stroke-miterlimit="10" stroke-linecap="round" stroke-linejoin="round"/>
<path d="M333.539 529.918L349.65 520.254" stroke="#294064" stroke-miterlimit="10" stroke-linecap="round" stroke-linejoin="round"/>
<path d="M341.328 534.175L357.439 524.511" stroke="#294064" stroke-miterlimit="10" stroke-linecap="round" stroke-linejoin="round"/>
<path d="M349.789 538.567L365.9 528.903" stroke="#294064" stroke-miterlimit="10" stroke-linecap="round" stroke-linejoin="round"/>
<path d="M356.934 543.337L373.044 533.674" stroke="#294064" stroke-miterlimit="10" stroke-linecap="round" stroke-linejoin="round"/>
<path d="M364.336 548.228L380.447 538.564" stroke="#294064" stroke-miterlimit="10" stroke-linecap="round" stroke-linejoin="round"/>
<path d="M372.18 552.803L388.29 543.139" stroke="#294064" stroke-miterlimit="10" stroke-linecap="round" stroke-linejoin="round"/>
<path d="M188.277 503.661L200.498 536.943" stroke="#294064" stroke-miterlimit="10" stroke-linecap="round" stroke-linejoin="round"/>
<path d="M209.93 535.624L269.564 501.037L272.418 502.17L274.165 505.673L277.243 506.097L279.427 507.537L220.877 541.918L218.583 540.598L218.264 538.887L215.067 538.578L214.504 536.746L211.464 536.507L209.93 535.624Z" fill="#F4CC85" stroke="#294064" stroke-miterlimit="10" stroke-linecap="round" stroke-linejoin="round"/>
<path d="M302.038 521.796L340.767 549.306L298.743 573.403L256.012 548.918L302.038 521.796Z" fill="#0F3147" stroke="#294064" stroke-miterlimit="10" stroke-linecap="round" stroke-linejoin="round"/>
<path d="M302.038 521.796L340.52 547.716L299.176 572.099L256.012 548.918L302.038 521.796Z" fill="#455A82" stroke="#294064" stroke-miterlimit="10" stroke-linecap="round" stroke-linejoin="round"/>
<path d="M300.118 509.175C300.118 509.175 312.336 515.64 323.408 518.773C335.025 522.06 344.176 528.948 344.176 528.948L304.81 556.472C304.81 556.472 302.574 555.626 292.699 550.614C281.687 545.024 262.617 534.828 262.617 534.828L300.118 509.175Z" fill="#0F3147" stroke="#294064" stroke-miterlimit="10" stroke-linecap="round" stroke-linejoin="round"/>
<path d="M299.702 507.107C299.702 507.107 311.919 513.572 322.992 516.704C334.609 519.992 343.76 526.879 343.76 526.879L304.393 554.403C304.393 554.403 302.158 553.558 292.283 548.546C281.272 542.957 258.996 534.932 258.996 534.932L299.702 507.107Z" fill="#FF7CAB" stroke="#294064" stroke-miterlimit="10" stroke-linecap="round" stroke-linejoin="round"/>
<path d="M285.146 536.464C285.114 533.355 284.385 528.866 282.102 527.646C280.824 526.964 279.961 529.058 282.629 531.963C284.514 534.017 290.457 537.088 293.373 535.829C297.105 534.217 291.192 526.024 290.527 526.254C290.179 526.374 290.488 527.033 290.676 527.349C291.959 529.512 296.274 532.173 298.456 529.942C299.886 528.482 297.999 525.476 297.024 524.332C296.856 524.135 294.876 522.319 294.882 522.914C294.898 524.398 302.497 527.45 298.562 520.542C298.209 519.921 301.437 523.816 305.177 523.666C307.485 523.573 310.423 521.603 312.004 519.988" stroke="#294064" stroke-miterlimit="10" stroke-linecap="round" stroke-linejoin="round"/>
<path d="M303.119 542.379C305.671 540.926 306.821 532.592 303.175 534.832C300.642 536.388 308.613 542.33 310.79 539.149C312.61 536.49 310.374 527.581 307.548 529.03C307.081 529.269 306.673 530.473 308.422 531.414C310.171 532.354 312.542 532.728 314.543 532.79C318.702 532.919 320.699 530.307 324.389 529.529" stroke="#294064" stroke-miterlimit="10" stroke-linecap="round" stroke-linejoin="round"/>
<path d="M23.415 567.106C23.9871 565.19 25.9778 564.075 27.9108 564.588L169.933 602.263L167.763 611.229L25.5311 573.343C23.5139 572.805 22.3398 570.707 22.937 568.707L23.415 567.106Z" fill="#F57450" stroke="#294064" stroke-miterlimit="10" stroke-linecap="round" stroke-linejoin="round"/>
<path d="M28.8397 567.452C29.4791 565.023 32.2723 565.73 34.2054 566.243L169.933 602.261L167.764 611.227L30.5307 574.673C28.5136 574.135 27.156 573.142 27.7532 571.142L28.8397 567.452Z" fill="#FFECDD" stroke="#294064" stroke-miterlimit="10" stroke-linecap="round" stroke-linejoin="round"/>
<path d="M33.5546 568.905C34.536 566.424 37.4231 567.134 39.3561 567.647L169.933 602.263L167.764 611.23L36.8415 576.231C34.8243 575.693 32.6401 575.124 32.6643 572.442L33.5546 568.905Z" fill="#455A82" stroke="#294064" stroke-miterlimit="10" stroke-linecap="round" stroke-linejoin="round"/>
<path d="M181.106 609.106L169.708 602.143C166.721 602.579 168.331 604.868 168.331 604.868C168.331 604.868 165.76 604.847 165.842 606.424C165.917 607.862 167.658 608.339 167.658 608.339C167.658 608.339 165.638 609.907 167.642 611.238L181.106 609.106Z" fill="#FFECDD" stroke="#294064" stroke-miterlimit="10" stroke-linecap="round" stroke-linejoin="round"/>
<path d="M152.168 662.411C152.988 655.904 164.806 668.291 164.527 670.168C164.482 670.473 162.161 670.893 161.917 670.917C159.725 671.131 148.971 671.518 147.463 668.844C145.294 664.997 153.158 666.468 153.876 665.936C153.876 665.936 151.989 663.827 152.168 662.411Z" fill="#FF7CAB"/>
<path d="M165.691 657.102C173.775 646.338 190.608 644.3 201.23 636.957C207.369 632.713 214.371 626.052 221.596 623.95" stroke="#294064" stroke-miterlimit="10" stroke-linecap="round" stroke-linejoin="round"/>
<path d="M220.725 626.648L222.517 623.54L217.523 623.202" stroke="#294064" stroke-miterlimit="10" stroke-linecap="round" stroke-linejoin="round"/>
<path d="M176.212 609.7L181.025 609.043L176.619 606.565C176.619 606.565 175.589 607.455 176.212 609.7Z" fill="#0F3147" stroke="#294064" stroke-miterlimit="10" stroke-linecap="round" stroke-linejoin="round"/>
<path d="M33.8027 572.852L148.937 603.283" stroke="#294064" stroke-miterlimit="10" stroke-linecap="round" stroke-linejoin="round"/>
<path d="M165.376 603.802L124.227 593.199" stroke="#294064" stroke-miterlimit="10" stroke-linecap="round" stroke-linejoin="round"/>
<path d="M110.989 589.952L70.1484 578.742" stroke="#294064" stroke-miterlimit="10" stroke-linecap="round" stroke-linejoin="round"/>
<path d="M-9.99023 611.324L118.844 685.299" stroke="#294064" stroke-miterlimit="10" stroke-linecap="round" stroke-linejoin="round"/>
<path d="M125.582 688.801L148.319 701.919" stroke="#294064" stroke-miterlimit="10" stroke-linecap="round" stroke-linejoin="round"/>
</g>
<defs>
<clipPath id="clip0_5304_23032">
<path d="M0 0H414V841C414 852.046 405.046 861 394 861H20C8.95432 861 0 852.046 0 841V0Z" fill="white"/>
</clipPath>
</defs>
</svg>
