<svg width="414" height="860" viewBox="0 0 414 860" fill="none" xmlns="http://www.w3.org/2000/svg">
<g clip-path="url(#clip0_120_24891)">
<rect width="414" height="860" fill="#D9CFC3"/>
<path d="M438.183 370.668C355.454 375.371 323.787 415.711 312.806 443.37C302.552 469.2 295.565 497.408 282.796 522.149C259.62 567.054 224.369 618.356 186.241 651.6C162.27 672.5 89.0811 704.885 62.0778 667.513C48.0935 648.16 66.1318 622.388 82.4071 644.068C102.979 671.47 94.9252 714.539 66.9181 738.789C-1.59124 798.109 -111.957 775.15 -111.957 775.15" stroke="#294064" stroke-miterlimit="10" stroke-linejoin="round" stroke-dasharray="10 10"/>
<path d="M329.098 577.029C350.349 592.139 372.647 615.121 351.305 628.915C380.185 654.383 364.643 673.536 343.794 691.743C325.708 707.536 289.848 686.216 275.627 668.938C266.258 657.555 263.267 653.254 258.616 639.174C253.972 625.121 255.608 620.467 255.782 604.518" fill="#2F2F2F"/>
<path d="M329.098 577.029C350.349 592.139 372.647 615.121 351.305 628.915C380.185 654.383 364.643 673.536 343.794 691.743C325.708 707.536 289.848 686.216 275.627 668.938C266.258 657.555 263.267 653.254 258.616 639.174C253.972 625.121 255.608 620.467 255.782 604.518" stroke="#294064" stroke-width="1.11828" stroke-miterlimit="10" stroke-linecap="round" stroke-linejoin="round"/>
<path d="M263.514 539.716C249.461 525.663 229.05 538.121 213.809 543.767C194.306 550.989 177.043 575.571 181.039 597.154C182.466 604.858 191.093 615.507 195.399 621.823C202.895 632.817 206.929 639.796 219.699 644.282C230.054 647.921 242.728 648.013 253.573 648.333" fill="#2F2F2F"/>
<path d="M263.514 539.716C249.461 525.663 229.05 538.121 213.809 543.767C194.306 550.989 177.043 575.571 181.039 597.154C182.466 604.858 191.093 615.507 195.399 621.823C202.895 632.817 206.929 639.796 219.699 644.282C230.054 647.921 242.728 648.013 253.573 648.333" stroke="#294064" stroke-width="1.11828" stroke-miterlimit="10" stroke-linecap="round" stroke-linejoin="round"/>
<path d="M204.483 688.605C192.688 693.148 169.96 705.285 165.242 718.21C156.871 741.143 186.804 747.145 200.711 731.415C209.889 721.034 221.439 709.43 231.019 699.416" fill="#434343"/>
<path d="M204.483 688.605C192.688 693.148 169.96 705.285 165.242 718.21C156.871 741.143 186.804 747.145 200.711 731.415C209.889 721.034 221.439 709.43 231.019 699.416" stroke="#294064" stroke-width="1.11828" stroke-miterlimit="10" stroke-linecap="round" stroke-linejoin="round"/>
<path d="M226.838 716.871C217.674 725.675 205.731 735.933 205.354 749.069C204.671 772.835 232.481 773.937 243.889 761.262C258.137 745.433 265.354 717.985 265.354 717.985" fill="#434343"/>
<path d="M226.838 716.871C217.674 725.675 205.731 735.933 205.354 749.069C204.671 772.835 232.481 773.937 243.889 761.262C258.137 745.433 265.354 717.985 265.354 717.985" stroke="#294064" stroke-width="1.11828" stroke-miterlimit="10" stroke-linecap="round" stroke-linejoin="round"/>
<path d="M203.509 685.969C191.714 690.511 168.987 702.648 164.268 715.573C155.897 738.506 185.83 744.508 199.736 728.778C208.914 718.397 220.465 706.793 230.044 696.78" fill="#FF814F"/>
<path d="M203.509 685.969C191.714 690.511 168.987 702.648 164.268 715.573C155.897 738.506 185.83 744.508 199.736 728.778C208.914 718.397 220.465 706.793 230.044 696.78" stroke="#294064" stroke-width="1.11828" stroke-miterlimit="10" stroke-linecap="round" stroke-linejoin="round"/>
<path d="M225.864 714.234C216.7 723.038 204.757 733.297 204.38 746.432C203.696 770.198 231.506 771.3 242.914 758.626C257.162 742.797 264.379 715.348 264.379 715.348" fill="#FF814F"/>
<path d="M225.864 714.234C216.7 723.038 204.757 733.297 204.38 746.432C203.696 770.198 231.506 771.3 242.914 758.626C257.162 742.797 264.379 715.348 264.379 715.348" stroke="#294064" stroke-width="1.11828" stroke-miterlimit="10" stroke-linecap="round" stroke-linejoin="round"/>
<path d="M225.017 724.436C222.728 724.36 220.375 725.296 218.904 726.925C216.555 729.527 217.34 732.828 221.173 734.582C221.381 734.678 221.668 734.697 221.898 734.772C221.339 735.125 218.712 736.82 217.99 737.229C217.263 737.64 217.012 738.582 217.423 739.309C217.834 740.036 218.744 740.287 219.472 739.876C220.326 739.392 223.416 737.369 223.694 737.197C225.203 736.264 226.597 735.611 228.01 735.055C228.924 734.947 229.833 734.832 230.783 734.646C231.352 734.534 231.853 734.418 232.359 734.298C232.566 734.736 232.797 735.113 233.021 735.527C233.384 736.652 233.694 737.857 233.934 739.214C234.214 740.792 234.303 741.437 234.691 745.012C234.865 746.619 234.969 747.585 235.132 748.51C235.276 749.333 236.074 749.883 236.896 749.739C237.72 749.594 238.27 748.797 238.125 747.974C237.977 747.133 237.851 746.241 237.684 744.697C237.447 742.515 237.368 742.009 237.243 741.105C237.535 741.353 237.8 741.786 238.094 741.987C241.029 743.996 243.995 743.436 245.341 740.128C247.336 735.224 241.718 730.556 234.124 730.706C232.536 728.035 230.363 726.023 227.255 724.845C226.54 724.575 225.78 724.461 225.017 724.436ZM223.505 727.619C224.411 727.381 225.358 727.369 226.183 727.682C228.091 728.403 229.516 729.588 230.689 731.085C229.507 731.326 228.405 731.687 227.317 732.093C227.072 732.119 226.799 732.17 226.561 732.188C224.716 732.327 223.269 732.224 222.433 731.841C220.427 730.923 220.218 730.031 221.173 728.973C221.75 728.335 222.598 727.857 223.505 727.619ZM236.802 733.826C238.332 734.07 239.667 734.568 240.709 735.307C242.333 736.459 242.957 737.959 242.536 738.993C241.978 740.368 241.246 740.491 239.795 739.497C238.446 738.574 237.06 736.695 235.825 734.488C235.761 734.293 235.735 734.047 235.667 733.858C236.023 733.885 236.466 733.773 236.802 733.826Z" fill="white" stroke="#294064" stroke-width="1.11828" stroke-miterlimit="10" stroke-linecap="round" stroke-linejoin="round"/>
<path d="M204.949 710.874C205.944 712.937 206.038 715.467 205.141 717.471C203.71 720.67 200.372 721.285 197.22 718.487C197.049 718.336 196.915 718.081 196.755 717.901C196.657 718.555 196.166 721.642 196.084 722.468C196.001 723.3 195.242 723.91 194.411 723.827C193.579 723.744 192.982 723.014 193.064 722.182C193.162 721.205 193.764 717.561 193.809 717.238C194.054 715.481 194.088 713.94 194.026 712.424C193.756 711.545 193.494 710.666 193.281 709.721C193.154 709.157 193.056 708.651 192.962 708.14C192.478 708.127 192.04 708.068 191.57 708.031C190.395 708.152 189.167 708.356 187.828 708.684C186.272 709.066 185.646 709.244 182.219 710.334C180.679 710.823 179.754 711.118 178.841 711.343C178.031 711.543 177.205 711.036 177.005 710.225C176.804 709.414 177.311 708.588 178.123 708.388C178.951 708.183 179.819 707.939 181.298 707.468C183.39 706.804 183.884 706.672 184.763 706.421C184.418 706.254 183.915 706.187 183.612 705.999C180.59 704.126 179.903 701.185 182.386 698.618C186.067 694.812 192.606 698.067 195.535 705.075C198.62 705.448 201.339 706.624 203.671 708.992C204.207 709.537 204.618 710.186 204.949 710.874ZM202.649 713.543C202.5 712.617 202.128 711.747 201.509 711.117C200.078 709.665 198.419 708.839 196.576 708.37C196.833 709.548 196.948 710.702 197.015 711.861C197.091 712.097 197.155 712.366 197.235 712.591C197.852 714.336 198.531 715.617 199.219 716.228C200.869 717.692 201.769 717.524 202.351 716.222C202.702 715.436 202.797 714.468 202.649 713.543ZM191.6 703.885C190.759 702.584 189.763 701.563 188.667 700.908C186.957 699.888 185.333 699.923 184.556 700.725C183.525 701.792 183.708 702.512 185.202 703.437C186.592 704.299 188.871 704.807 191.389 705.045C191.593 705.025 191.828 704.95 192.029 704.935C191.861 704.621 191.784 704.171 191.6 703.885Z" fill="white" stroke="#294064" stroke-width="1.11828" stroke-miterlimit="10" stroke-linecap="round" stroke-linejoin="round"/>
<path d="M189.421 702.686C193 705.119 197.263 703.305 200.802 702.147C208.416 699.655 205.965 690.392 202.855 685.459C195.22 673.353 185.173 665.854 173.894 657.791C171.047 655.755 168.131 652.434 164.735 651.313C163.281 650.834 163.313 655.595 163.32 655.887C163.44 661.301 163.724 664.889 166.669 669.784C169.616 674.68 173.743 678.949 176.329 684.081" fill="#294064"/>
<path d="M189.421 702.686C193 705.119 197.263 703.305 200.802 702.147C208.416 699.655 205.965 690.392 202.855 685.459C195.22 673.353 185.173 665.854 173.894 657.791C171.047 655.755 168.131 652.434 164.735 651.313C163.281 650.834 163.313 655.595 163.32 655.887C163.44 661.301 163.724 664.889 166.669 669.784C169.616 674.68 173.743 678.949 176.329 684.081" stroke="#294064" stroke-width="1.11828" stroke-miterlimit="10" stroke-linecap="round" stroke-linejoin="round"/>
<path d="M300.387 594.332C267.025 557.318 214.155 551.864 178.593 568.565C143.032 585.266 151.643 619.81 165.312 649.808C183.398 689.505 205.171 712.25 228.745 725.678C247.74 736.497 267.531 743.144 291.526 732.809C321.758 719.787 353.058 652.769 300.387 594.332Z" fill="#315D92" stroke="#294064" stroke-width="1.11828" stroke-miterlimit="10" stroke-linecap="round" stroke-linejoin="round"/>
<path d="M243.322 535.888C240.979 535.039 234.994 535.174 229.104 541.909C223.213 548.645 222.676 556.451 223.154 559.552C223.182 559.732 223.349 559.847 223.53 559.822C223.706 559.793 223.836 559.628 223.807 559.449C223.354 556.507 223.849 548.901 229.592 542.333C235.336 535.765 241.053 535.754 243.103 536.497C243.272 536.559 243.461 536.475 243.524 536.306C243.583 536.135 243.491 535.949 243.322 535.888Z" fill="#2E4166" stroke="#294064" stroke-width="1.11828" stroke-miterlimit="10" stroke-linejoin="round"/>
<path d="M306.872 527.443C287.924 517.166 266.89 518.341 256.602 529.378C256.238 529.767 256.121 529.903 255.786 530.317C255.801 528.552 255.52 525.245 250.213 523.32C244.912 521.398 242.056 526.179 241.286 528.805C240.893 531.24 241.471 536.372 246.928 537.426C247.832 537.651 250.091 537.865 251.902 536.942C251.729 537.404 251.574 537.876 251.43 538.347C247.532 551.215 254.95 567.205 269.696 578.098C268.113 580.772 263.873 590.296 263.873 590.296C240.531 595.515 280.825 615.695 282.625 598.88C282.486 595.627 285.752 589.719 287.4 587.168C302.663 592.043 317.772 589.921 326.357 581.597C326.897 581.079 327.412 580.538 327.894 579.968C328.427 582.237 330.786 586.781 335.981 586.817C341.176 586.853 343.265 582.265 343.662 579.965C343.847 577.683 342.685 572.994 336.585 572.545C335.594 572.405 333.222 572.471 331.632 573.832C331.96 572.819 332.247 572.187 332.486 571.347C336.655 556.59 326.128 537.887 306.872 527.443Z" fill="#FEC5B1" stroke="#294064" stroke-width="1.11828" stroke-miterlimit="10" stroke-linejoin="round"/>
<path d="M322.009 528.431C317.544 526.079 312.594 524.335 307.876 524.348C302.505 517.697 287.103 505.966 268.479 512.262C265.454 513.457 258.302 517.876 253.895 526.002C254.707 526.701 256.158 528.855 255.464 531.882C257.346 531.099 261.47 529.574 262.953 529.759C264.807 529.991 289.204 547.091 303.986 531.52C302.774 539.112 306.2 557.082 329.621 568.238L330.544 575.312C332.767 572.908 337.971 570.521 342.911 576.603C346.26 570.428 349.814 553.356 335.292 538.054C332.682 535.478 327.748 531.455 322.009 528.431Z" fill="#2F2F2F" stroke="#294064" stroke-width="1.11828" stroke-miterlimit="10" stroke-linejoin="round"/>
<path d="M305.289 549.913C304.702 549.582 304.152 549.329 303.715 549.166C303.547 549.103 303.359 549.189 303.295 549.359C303.232 549.527 303.32 549.715 303.488 549.779C304.299 550.081 305.559 550.722 306.668 551.648C307.776 552.573 308.697 553.757 308.912 555.133C308.94 555.312 309.11 555.431 309.286 555.401C309.462 555.372 309.588 555.209 309.56 555.03C309.305 553.43 308.249 552.123 307.083 551.15C306.495 550.659 305.875 550.245 305.289 549.913ZM292.019 542.822C291.097 542.322 289.564 541.684 287.917 541.379C286.277 541.074 284.461 541.087 283.047 541.972C282.897 542.069 282.85 542.27 282.942 542.421C283.039 542.575 283.237 542.615 283.393 542.522C284.604 541.767 286.215 541.729 287.797 542.025C289.368 542.316 290.835 542.923 291.708 543.395C291.864 543.48 292.068 543.421 292.154 543.263C292.24 543.104 292.175 542.907 292.019 542.822ZM295.221 551.362C295.065 551.264 294.867 551.314 294.771 551.466C294.683 551.601 294.599 551.747 294.503 551.899C294.001 552.721 293.365 553.749 292.63 554.564C291.745 555.554 290.841 556.084 289.956 555.775C288.976 555.433 287.767 555.016 286.68 555.004C286.131 555.001 285.593 555.103 285.113 555.384C284.636 555.673 284.251 556.127 283.996 556.79C283.703 557.549 283.665 558.23 283.85 558.84C284.031 559.445 284.419 559.945 284.916 560.352C285.901 561.158 287.358 561.651 288.723 561.962C288.902 562.005 289.074 561.891 289.114 561.714C289.153 561.539 289.045 561.366 288.866 561.324C287.526 561.018 286.192 560.553 285.334 559.849C284.909 559.501 284.605 559.1 284.472 558.652C284.337 558.205 284.35 557.673 284.603 557.027C284.815 556.481 285.11 556.141 285.448 555.941C285.79 555.736 286.204 555.649 286.676 555.653C287.638 555.665 288.741 556.047 289.743 556.396C291.05 556.854 292.218 556.002 293.117 555C293.892 554.135 294.561 553.047 295.066 552.231C295.155 552.079 295.242 551.939 295.325 551.812C295.417 551.657 295.372 551.457 295.221 551.362ZM293.834 568.488C293.708 568.359 293.502 568.355 293.371 568.481C292.001 569.812 290.275 570.117 288.64 569.944C286.994 569.766 285.481 569.106 284.593 568.557C284.437 568.461 284.237 568.514 284.14 568.666C284.049 568.821 284.096 569.018 284.252 569.115C285.202 569.703 286.813 570.402 288.567 570.588C290.333 570.777 292.274 570.45 293.828 568.945C293.959 568.821 293.959 568.617 293.834 568.488Z" fill="#2E4166" stroke="#294064" stroke-width="0.559139" stroke-miterlimit="10" stroke-linejoin="round"/>
<path d="M303.919 553.134C303.331 552.672 302.23 553.096 301.457 554.081C300.685 555.064 300.533 556.235 301.121 556.696C301.713 557.163 302.82 556.742 303.593 555.758C304.365 554.774 304.512 553.6 303.919 553.134Z" fill="#2E4166" stroke="#294064" stroke-width="0.559139" stroke-miterlimit="10" stroke-linejoin="round"/>
<path d="M285.491 545.5C284.884 545.064 283.792 545.527 283.062 546.542C282.331 547.558 282.238 548.741 282.845 549.177C283.457 549.617 284.54 549.146 285.271 548.132C286.001 547.116 286.103 545.94 285.491 545.5Z" fill="#2E4166" stroke="#294064" stroke-width="0.559139" stroke-miterlimit="10" stroke-linejoin="round"/>
<path d="M310.277 567.416C307.858 566.104 305.41 565.93 304.814 567.03C304.218 568.129 305.698 570.087 308.117 571.398C310.541 572.713 312.984 572.884 313.58 571.785C314.176 570.686 312.7 568.731 310.277 567.416Z" fill="#FF92B9"/>
<path d="M274.048 547.765C271.409 546.335 268.78 546.062 268.184 547.161C267.588 548.261 269.249 550.316 271.888 551.747C274.522 553.176 277.146 553.445 277.742 552.346C278.338 551.247 276.682 549.194 274.048 547.765Z" fill="#FF92B9"/>
<path d="M250.393 527.719C247.974 526.407 245.332 526.591 244.497 528.13C243.662 529.669 244.949 531.984 247.368 533.296C249.786 534.607 252.423 534.421 253.258 532.882C254.093 531.343 252.811 529.031 250.393 527.719Z" fill="#E4AC98" stroke="#294064" stroke-width="1.11828" stroke-miterlimit="10" stroke-linejoin="round"/>
<path d="M250.402 527.362C249.811 527.069 249.125 526.813 248.326 526.61C248.148 526.564 247.973 526.673 247.927 526.847C247.887 527.024 247.993 527.203 248.164 527.246C248.845 527.418 249.435 527.625 249.941 527.861C249.81 527.846 249.674 527.835 249.544 527.829C249.116 527.808 248.684 527.836 248.299 527.956C247.912 528.078 247.557 528.304 247.348 528.689C247.263 528.848 247.32 529.048 247.476 529.133C247.638 529.221 247.841 529.162 247.928 529.004C248.033 528.81 248.22 528.671 248.498 528.583C248.777 528.493 249.13 528.467 249.511 528.483C250.252 528.519 251.034 528.718 251.513 528.878C253.129 530.331 253.091 532.178 252.735 533.169C252.676 533.34 252.766 533.526 252.935 533.586C253.105 533.647 253.288 533.559 253.345 533.388C253.775 532.197 253.809 530.019 251.895 528.342C251.489 527.985 250.994 527.654 250.402 527.362Z" fill="#2E4166" stroke="#294064" stroke-width="1.11828" stroke-miterlimit="10" stroke-linejoin="round"/>
<path d="M337.922 577.256C335.939 576.181 333.661 576.555 332.827 578.094C331.992 579.634 332.918 581.752 334.9 582.828C336.876 583.9 339.158 583.521 339.992 581.981C340.827 580.442 339.898 578.328 337.922 577.256Z" fill="#E4AC98" stroke="#294064" stroke-width="1.11828" stroke-miterlimit="10" stroke-linejoin="round"/>
<path d="M338.442 577.17C337.944 576.879 337.473 576.667 337.024 576.525C334.921 575.864 333.413 576.707 332.785 577.494C332.673 577.635 332.698 577.837 332.839 577.95C332.98 578.063 333.182 578.042 333.299 577.903C333.759 577.324 334.96 576.583 336.768 577.129C337.058 577.366 337.389 577.854 337.647 578.395C337.782 578.672 337.887 578.947 337.964 579.192C338.037 579.441 338.066 579.628 338.06 579.73C338.045 579.909 338.178 580.062 338.358 580.076C338.538 580.09 338.693 579.952 338.707 579.772C338.723 579.549 338.672 579.278 338.591 579.005C338.506 578.725 338.383 578.413 338.24 578.112C338.167 577.964 338.084 577.811 338.002 577.667C338.493 577.943 339.019 578.31 339.58 578.793C339.718 578.911 339.922 578.896 340.039 578.759C340.155 578.622 340.142 578.418 340.004 578.3C339.463 577.833 338.94 577.461 338.442 577.17Z" fill="#2E4166" stroke="#294064" stroke-width="1.11828" stroke-miterlimit="10" stroke-linejoin="round"/>
<path d="M331.279 581.895C330.18 581.299 328.809 581.71 328.213 582.809C327.616 583.909 328.02 585.281 329.119 585.877C330.218 586.472 331.594 586.066 332.19 584.966C332.786 583.866 332.378 582.491 331.279 581.895Z" fill="#FFFB90"/>
<path d="M249.322 535.389C248.224 534.793 246.854 535.203 246.257 536.303C245.661 537.402 246.064 538.775 247.163 539.371C248.262 539.967 249.637 539.559 250.234 538.46C250.83 537.36 250.422 535.985 249.322 535.389Z" fill="#FFFB90" stroke="#294064" stroke-width="1.11828" stroke-miterlimit="10" stroke-linejoin="round"/>
<path fill-rule="evenodd" clip-rule="evenodd" d="M316.363 522.398C311.812 521.459 308.861 522.26 307.53 523.389C307.391 523.506 307.376 523.713 307.49 523.849C307.604 523.986 307.811 524.003 307.951 523.888C309.069 522.945 311.775 522.119 316.232 523.038C320.671 523.953 326.807 526.597 334.705 532.508C350.377 544.239 347.926 562.831 344.722 570.679C344.653 570.845 344.736 571.038 344.902 571.106C345.068 571.173 345.258 571.092 345.328 570.926C348.583 562.957 351.119 543.977 335.1 531.987C327.146 526.036 320.928 523.34 316.363 522.398Z" fill="#2E4166" stroke="#294064" stroke-width="0.559139" stroke-miterlimit="10" stroke-linejoin="round"/>
<path d="M189.989 681.603C188.23 681.497 196.297 689.997 197.164 690.761C201.805 694.849 216.715 704.97 222.004 699.153C233.359 686.665 202.599 677.403 198.089 673.35" fill="#FFC6B2"/>
<path d="M178.816 680.959C193.135 698.818 205.417 707.555 221.058 712.343C232.986 715.993 245.822 712.483 241.075 699.713" fill="#FFC6B2"/>
<path d="M178.816 680.959C193.135 698.818 205.417 707.555 221.058 712.343C232.986 715.993 245.822 712.483 241.075 699.713" stroke="#294064" stroke-width="1.11828" stroke-miterlimit="10" stroke-linecap="round" stroke-linejoin="round"/>
<path d="M211.105 699.93C217.99 707.559 240.049 713.031 245.807 702.708C246.951 700.657 246.015 697.023 246.015 697.023" fill="#FFC6B2"/>
<path d="M211.105 699.93C217.99 707.559 240.049 713.031 245.807 702.708C246.951 700.657 246.015 697.023 246.015 697.023" stroke="#294064" stroke-width="1.11828" stroke-miterlimit="10" stroke-linecap="round" stroke-linejoin="round"/>
<path d="M212.919 693.812C219.676 702.223 246.382 706.8 249.037 695.818C250.157 691.184 239.985 685.346 239.985 685.346" fill="#FFC6B2"/>
<path d="M212.919 693.812C219.676 702.223 246.382 706.8 249.037 695.818C250.157 691.184 239.985 685.346 239.985 685.346" stroke="#294064" stroke-width="1.11828" stroke-miterlimit="10" stroke-linecap="round" stroke-linejoin="round"/>
<path d="M215.912 687.52C215.912 687.52 221.355 692.119 231.585 694.259C242.555 696.554 254.369 692.957 249.587 686.939C245.567 681.882 223.58 689.358 213.557 667.695C210.488 661.061 228.129 670.474 230.772 664.559C233.822 657.734 212.238 650.529 204.501 648.037C182.224 640.864 165.542 658.725 174.725 682.861" fill="#FFC6B2"/>
<path d="M215.912 687.52C215.912 687.52 221.355 692.119 231.585 694.259C242.555 696.554 254.369 692.957 249.587 686.939C245.567 681.882 223.58 689.358 213.557 667.695C210.488 661.061 228.129 670.474 230.772 664.559C233.822 657.734 212.238 650.529 204.501 648.037C182.224 640.864 165.542 658.725 174.725 682.861" stroke="#294064" stroke-width="1.11828" stroke-miterlimit="10" stroke-linecap="round" stroke-linejoin="round"/>
<path d="M156.275 590.441C148.06 595.172 149.218 620.307 149.904 628.03C152.435 656.494 169.793 682.259 188.764 702.341C174.148 683.825 184.848 638.196 210.823 635.924" fill="#315D92"/>
<path d="M156.275 590.441C148.06 595.172 149.218 620.307 149.904 628.03C152.435 656.494 169.793 682.259 188.764 702.341C174.148 683.825 184.848 638.196 210.823 635.924" stroke="#294064" stroke-width="1.11828" stroke-miterlimit="10" stroke-linecap="round" stroke-linejoin="round"/>
<path d="M152.928 443.854L225.84 653.678L243.629 658.138L179.568 404.713" fill="#8F8530"/>
<path d="M152.928 443.854L225.84 653.678L243.629 658.138L179.568 404.713" stroke="#294064" stroke-width="1.11828" stroke-miterlimit="10" stroke-linecap="round" stroke-linejoin="round"/>
<path d="M128.615 646.842C127.236 654.776 137.917 674.258 144.564 654.785C149.841 639.328 146.102 622.277 146.102 622.277" fill="#294064"/>
<path d="M128.615 646.842C127.236 654.776 137.917 674.258 144.564 654.785C149.841 639.328 146.102 622.277 146.102 622.277" stroke="#294064" stroke-width="1.11828" stroke-miterlimit="10" stroke-linecap="round" stroke-linejoin="round"/>
<path d="M176.294 603.926C166.458 585.117 164.145 556.184 175.263 537.292C184.97 520.799 203.727 529.819 202.378 547.82C200.624 571.219 183.263 589.555 183.446 613.336" fill="#8F8530"/>
<path d="M176.294 603.926C166.458 585.117 164.145 556.184 175.263 537.292C184.97 520.799 203.727 529.819 202.378 547.82C200.624 571.219 183.263 589.555 183.446 613.336" stroke="#294064" stroke-width="1.11828" stroke-miterlimit="10" stroke-linecap="round" stroke-linejoin="round"/>
<path d="M198.412 637.611C188.217 625.785 183.634 612.309 168.569 606.621C136.657 594.573 122.945 631.082 128.883 651.848C150.151 611.968 174.688 625.276 198.412 637.611Z" fill="#8F8530" stroke="#294064" stroke-width="1.11828" stroke-miterlimit="10" stroke-linecap="round" stroke-linejoin="round"/>
<path d="M116.15 548.105L119.175 585.76C120.895 586.971 122.699 588.14 124.437 589.352L115.835 604.95C124.44 605.439 132.541 603.326 139.184 599.404C190.001 634.086 242.158 666.394 242.158 666.394L245.278 660.281C245.278 660.281 196.813 615.763 154.624 579.71C156.967 570.581 155.041 559.824 146.715 548.894L137.609 565.405C129.819 558.944 122.425 552.913 116.15 548.105Z" fill="#BEAA00" stroke="#294064" stroke-width="1.11828" stroke-miterlimit="10" stroke-linecap="round" stroke-linejoin="round"/>
<path d="M125.816 596.126C103.812 612.678 108.633 636.742 119.99 635.52C133.594 634.056 122.979 609.675 129.446 592.209" fill="#FF6C78"/>
<path d="M125.816 596.126C103.812 612.678 108.633 636.742 119.99 635.52C133.594 634.056 122.979 609.675 129.446 592.209" stroke="#294064" stroke-width="1.11828" stroke-miterlimit="10" stroke-linecap="round" stroke-linejoin="round"/>
<path d="M141.31 580.037C157.016 564.268 171.575 572.729 181.632 562.044C190.703 552.408 181.794 543.556 172.088 546.364C159.902 549.889 149.06 560.469 143.613 572.248" fill="#FF6C78"/>
<path d="M141.31 580.037C157.016 564.268 171.575 572.729 181.632 562.044C190.703 552.408 181.794 543.556 172.088 546.364C159.902 549.889 149.06 560.469 143.613 572.248" stroke="#294064" stroke-width="1.11828" stroke-miterlimit="10" stroke-linecap="round" stroke-linejoin="round"/>
<path d="M102.205 577.286C92.4654 573.339 79.5378 571.273 69.0001 570.439C47.9137 568.768 39.3117 595.88 67.2487 602.416C77.8653 604.9 81.9984 601.454 92.0924 598.935C103.792 596.014 102.606 596.083 111.802 591.489" fill="#FF6C78"/>
<path d="M102.205 577.286C92.4654 573.339 79.5378 571.273 69.0001 570.439C47.9137 568.768 39.3117 595.88 67.2487 602.416C77.8653 604.9 81.9984 601.454 92.0924 598.935C103.792 596.014 102.606 596.083 111.802 591.489" stroke="#294064" stroke-width="1.11828" stroke-miterlimit="10" stroke-linecap="round" stroke-linejoin="round"/>
<path d="M111.524 568.326C111.524 568.326 92.3663 554.023 83.2551 544.165C72.942 533.007 75.1895 509.689 94.0863 514.096C113.013 518.51 120.498 541.651 122.812 558.819" fill="#FF6C78"/>
<path d="M111.524 568.326C111.524 568.326 92.3663 554.023 83.2551 544.165C72.942 533.007 75.1895 509.689 94.0863 514.096C113.013 518.51 120.498 541.651 122.812 558.819" stroke="#294064" stroke-width="1.11828" stroke-miterlimit="10" stroke-linecap="round" stroke-linejoin="round"/>
<path d="M109.315 565.191C101.927 554.182 72.0966 531.65 60.3101 545.739C48.5499 559.796 66.2213 573.633 80.2454 576.112C95.7007 578.845 102.884 577.5 110.491 577.34" fill="#FF6C78"/>
<path d="M109.315 565.191C101.927 554.182 72.0966 531.65 60.3101 545.739C48.5499 559.796 66.2213 573.633 80.2454 576.112C95.7007 578.845 102.884 577.5 110.491 577.34" stroke="#294064" stroke-width="1.11828" stroke-miterlimit="10" stroke-linecap="round" stroke-linejoin="round"/>
<path d="M121.938 556.843C120.158 530.079 91.6343 523.782 97.0027 506.57C100.953 493.905 120.892 499.073 128.214 508.472C138.175 521.259 138.322 535.779 138.948 550.229" fill="#FF6C78"/>
<path d="M121.938 556.843C120.158 530.079 91.6343 523.782 97.0027 506.57C100.953 493.905 120.892 499.073 128.214 508.472C138.175 521.259 138.322 535.779 138.948 550.229" stroke="#294064" stroke-width="1.11828" stroke-miterlimit="10" stroke-linecap="round" stroke-linejoin="round"/>
<path d="M104.167 592.033C95.9846 586.059 95.9252 572.211 104.034 561.102C112.144 549.992 125.352 545.829 133.534 551.802C141.717 557.775 141.776 571.623 133.667 582.732C125.557 593.842 112.35 598.006 104.167 592.033Z" fill="white" stroke="#294064" stroke-width="1.11828" stroke-miterlimit="10" stroke-linejoin="round"/>
<path d="M106.511 592.632C93.3697 585.105 65.0659 588.005 65.2095 600.596C65.4749 623.852 108.146 613.88 122.971 602.092" fill="#F27A84"/>
<path d="M106.511 592.632C93.3697 585.105 65.0659 588.005 65.2095 600.596C65.4749 623.852 108.146 613.88 122.971 602.092" stroke="#294064" stroke-width="1.11828" stroke-miterlimit="10" stroke-linecap="round" stroke-linejoin="round"/>
<path d="M134.965 592.43C131.259 597.247 124.123 602.631 116.778 605.825C87.3074 618.638 72.5287 586.911 104.935 584.32C109.398 583.964 114.539 583.792 118.946 585.049C124.726 586.698 138.655 587.633 134.965 592.43Z" fill="#F27A84" stroke="#294064" stroke-width="1.11828" stroke-miterlimit="10" stroke-linecap="round" stroke-linejoin="round"/>
<path d="M140.345 541.724C136.223 534.779 131.697 529.663 129.348 521.882C120.861 493.772 151.387 500.026 155.688 525.311C158.981 544.672 150.936 564.248 150.936 564.248" fill="#F27A84"/>
<path d="M140.345 541.724C136.223 534.779 131.697 529.663 129.348 521.882C120.861 493.772 151.387 500.026 155.688 525.311C158.981 544.672 150.936 564.248 150.936 564.248" stroke="#294064" stroke-width="1.11828" stroke-miterlimit="10" stroke-linecap="round" stroke-linejoin="round"/>
<path d="M144.034 577.628C144.034 577.628 131.585 567.013 127.002 552.752C123.284 541.185 130.862 523.962 143.95 532.409C159.162 542.225 152.989 566.131 144.034 577.628Z" fill="#F27A84" stroke="#294064" stroke-width="1.11828" stroke-miterlimit="10" stroke-linecap="round" stroke-linejoin="round"/>
<path d="M133.844 593.698C124.969 600.563 105.408 580.97 118.851 566.925C129.256 556.053 144.67 564.455 146.052 574.753C146.052 574.753 144.021 579.955 141.035 584.61C138.048 589.266 133.844 593.698 133.844 593.698Z" fill="#F27A84" stroke="#294064" stroke-width="1.11828" stroke-miterlimit="10" stroke-linecap="round" stroke-linejoin="round"/>
<path d="M229.326 653.283C213.055 644.518 188.914 635.833 165.218 641.134L166.864 655.652C166.864 655.652 178.659 651.245 183.391 650.565C202.305 647.848 215.411 651.426 233.146 657.702" fill="#FCA806"/>
<path d="M229.326 653.283C213.055 644.518 188.914 635.833 165.218 641.134L166.864 655.652C166.864 655.652 178.659 651.245 183.391 650.565C202.305 647.848 215.411 651.426 233.146 657.702" stroke="#294064" stroke-width="1.11828" stroke-miterlimit="10" stroke-linecap="round" stroke-linejoin="round"/>
<path d="M253.143 669.41C265.492 669.33 274.225 659.977 276.568 648.051C276.958 646.062 279.378 634.499 275.929 633.374C275.672 633.29 263.184 642.792 262.652 643.211C259.332 645.828 256.297 648.725 253.355 651.754C249.17 656.061 244.681 660.339 240.897 664.993" fill="#F27A84"/>
<path d="M253.143 669.41C265.492 669.33 274.225 659.977 276.568 648.051C276.958 646.062 279.378 634.499 275.929 633.374C275.672 633.29 263.184 642.792 262.652 643.211C259.332 645.828 256.297 648.725 253.355 651.754C249.17 656.061 244.681 660.339 240.897 664.993" stroke="#294064" stroke-width="1.11828" stroke-miterlimit="10" stroke-linecap="round" stroke-linejoin="round"/>
<path d="M269.026 470.095C264.897 469.237 265.072 466.05 260.997 467.436C223.048 480.34 267.056 525.292 275.247 494.636" fill="#FF814F"/>
<path d="M269.026 470.095C264.897 469.237 265.072 466.05 260.997 467.436C223.048 480.34 267.056 525.292 275.247 494.636" stroke="#294064" stroke-width="1.11828" stroke-miterlimit="10" stroke-linecap="round" stroke-linejoin="round"/>
<path d="M279.799 474.205C249.666 515.872 317.231 547.929 315.471 494.512Z" fill="#FF814F"/>
<path d="M279.799 474.205C249.666 515.872 317.231 547.929 315.471 494.512" stroke="#294064" stroke-width="1.11828" stroke-miterlimit="10" stroke-linecap="round" stroke-linejoin="round"/>
<path d="M284.851 468.285C284.851 468.285 285.938 478.835 288.957 486.433C308.499 535.618 365.853 507.539 334.673 466.324C330.545 460.868 321.034 459.703 315.161 457.273" fill="#FF814F"/>
<path d="M284.851 468.285C284.851 468.285 285.938 478.835 288.957 486.433C308.499 535.618 365.853 507.539 334.673 466.324C330.545 460.868 321.034 459.703 315.161 457.273" stroke="#294064" stroke-width="1.11828" stroke-miterlimit="10" stroke-linecap="round" stroke-linejoin="round"/>
<path d="M274.533 472.207C236.341 486.911 225.254 431.435 256.04 432.946C261.936 433.236 267.794 435.399 273.229 437.506" fill="#FF814F"/>
<path d="M274.533 472.207C236.341 486.911 225.254 431.435 256.04 432.946C261.936 433.236 267.794 435.399 273.229 437.506" stroke="#294064" stroke-width="1.11828" stroke-miterlimit="10" stroke-linecap="round" stroke-linejoin="round"/>
<path d="M278.875 470.487C278.875 470.487 263.413 464.71 254.866 444.71C243.718 418.622 268.597 396.315 289.125 413.708C297.247 420.592 301.115 430.93 301.367 440.996" fill="#FF814F"/>
<path d="M278.875 470.487C278.875 470.487 263.413 464.71 254.866 444.71C243.718 418.622 268.597 396.315 289.125 413.708C297.247 420.592 301.115 430.93 301.367 440.996" stroke="#294064" stroke-width="1.11828" stroke-miterlimit="10" stroke-linecap="round" stroke-linejoin="round"/>
<path d="M280.344 468.893C280.104 457.984 280.544 452.905 286.171 443.044C313.76 394.691 359.413 450.992 325.289 471.54C299.102 487.309 280.637 470.78 280.637 470.78" fill="#FF814F"/>
<path d="M280.344 468.893C280.104 457.984 280.544 452.905 286.171 443.044C313.76 394.691 359.413 450.992 325.289 471.54C299.102 487.309 280.637 470.78 280.637 470.78" stroke="#294064" stroke-width="1.11828" stroke-miterlimit="10" stroke-linecap="round" stroke-linejoin="round"/>
<path d="M237.822 665.935C227.957 617.343 229.259 560.355 246.23 513.692C250.791 501.152 261.687 474.604 270.75 466.861C275.362 462.923 287.953 459.899 290.163 468.832C290.631 470.729 279.658 489.292 278.45 491.487C268.384 509.778 260.43 529.906 252.922 549.703C240.776 581.729 242.378 620.386 247.709 655.778" fill="#BEAA00"/>
<path d="M237.822 665.935C227.957 617.343 229.259 560.355 246.23 513.692C250.791 501.152 261.687 474.604 270.75 466.861C275.362 462.923 287.953 459.899 290.163 468.832C290.631 470.729 279.658 489.292 278.45 491.487C268.384 509.778 260.43 529.906 252.922 549.703C240.776 581.729 242.378 620.386 247.709 655.778" stroke="#294064" stroke-width="1.11828" stroke-miterlimit="10" stroke-linecap="round" stroke-linejoin="round"/>
<path d="M213.611 543.981C211.991 590.778 223.08 633.398 231.801 659.161L236.049 658.9C231.434 632.767 226.445 588.581 231.575 535.059" fill="#BEAA00"/>
<path d="M213.611 543.981C211.991 590.778 223.08 633.398 231.801 659.161L236.049 658.9C231.434 632.767 226.445 588.581 231.575 535.059" stroke="#294064" stroke-width="1.11828" stroke-miterlimit="10" stroke-linecap="round" stroke-linejoin="round"/>
<path d="M237.388 667.247C211.576 647.454 201.726 622.591 201.726 622.591L216.169 613.869C216.169 613.869 224.763 643.338 243.434 665.257" fill="#BEAA00"/>
<path d="M237.388 667.247C211.576 647.454 201.726 622.591 201.726 622.591L216.169 613.869C216.169 613.869 224.763 643.338 243.434 665.257" stroke="#294064" stroke-width="1.11828" stroke-miterlimit="10" stroke-linecap="round" stroke-linejoin="round"/>
<path d="M186.482 608.487C186.482 599.058 194.126 591.414 203.555 591.414C212.984 591.414 220.628 599.058 220.628 608.487C220.628 617.916 212.984 625.559 203.555 625.559C194.126 625.559 186.482 617.916 186.482 608.487Z" fill="#5798E5" stroke="#294064" stroke-width="1.11828" stroke-miterlimit="10" stroke-linejoin="round"/>
<path d="M237.939 666.396C240.209 653.326 234.337 648.299 226.697 627.342C222.56 615.991 228.525 600.779 241.903 606.024C258.722 612.617 259.201 648.47 248.391 660.406" fill="#8F8530"/>
<path d="M237.939 666.396C240.209 653.326 234.337 648.299 226.697 627.342C222.56 615.991 228.525 600.779 241.903 606.024C258.722 612.617 259.201 648.47 248.391 660.406" stroke="#294064" stroke-width="1.11828" stroke-miterlimit="10" stroke-linecap="round" stroke-linejoin="round"/>
<path d="M235.811 666.001C261.975 646.803 290.129 627.928 326.786 639.39C353.274 647.671 382.103 686.936 348.266 699.412C335.374 704.167 318.391 687.499 310.074 680.518C285.493 659.883 268.4 646.92 238.473 667.736" fill="#BEAA00"/>
<path d="M235.811 666.001C261.975 646.803 290.129 627.928 326.786 639.39C353.274 647.671 382.103 686.936 348.266 699.412C335.374 704.167 318.391 687.499 310.074 680.518C285.493 659.883 268.4 646.92 238.473 667.736" stroke="#294064" stroke-width="1.11828" stroke-miterlimit="10" stroke-linecap="round" stroke-linejoin="round"/>
<path d="M239.483 667.174C238.03 667.551 240.615 665.782 242.052 665.35C243.936 664.784 242.35 666.231 244.257 665.748C249.273 664.477 255.018 664.306 260.134 664.74C276.531 666.134 292.566 673.494 304.401 684.896C305.265 685.728 307.15 686.755 307.755 687.789C307.939 688.105 306.659 689.65 306.559 689.793C304.726 692.409 304.69 695.034 302.016 696.6C301.851 696.696 301.311 697.35 301.237 697.293C284.28 684.122 272.501 669.764 248.969 667.727C245.353 667.413 242.971 666.27 239.483 667.174Z" fill="#8F8530" stroke="#294064" stroke-width="1.11828" stroke-miterlimit="10" stroke-linecap="round" stroke-linejoin="round"/>
<path d="M254.32 666.458C253.573 666.636 252.896 667.107 252.461 667.813C251.593 669.225 252.025 671.071 253.438 671.941C265.95 679.639 273.931 693.895 276.031 710.792C278.035 726.917 274.34 743.371 266.137 754.307C265.142 755.634 265.409 757.534 266.735 758.53C268.062 759.524 269.962 759.258 270.958 757.931C280.149 745.678 284.173 727.661 281.986 710.068C279.675 691.475 270.782 675.569 256.589 666.836C255.883 666.402 255.068 666.28 254.32 666.458Z" fill="#FCA806" stroke="#294064" stroke-width="1.11828" stroke-miterlimit="10" stroke-linecap="round" stroke-linejoin="round"/>
<path d="M239.341 668.057C246.267 669.481 253.96 670.881 260.076 679.25C260.077 668.17 252.87 663.215 242.206 665.843" fill="#294064"/>
<path d="M239.341 668.057C246.267 669.481 253.96 670.881 260.076 679.25C260.077 668.17 252.87 663.215 242.206 665.843" stroke="#294064" stroke-width="1.11828" stroke-miterlimit="10" stroke-linecap="round" stroke-linejoin="round"/>
<path d="M248.348 665.606C262.455 662.649 271.149 675.768 274.764 687.42C276.793 693.958 277.773 705.567 270.562 709.533C265.721 712.195 261.052 707.413 260.055 703.029C257.623 692.327 257.936 680.763 254.452 670.31C252.659 664.931 247.933 665.366 243.446 666.207C241.697 666.535 244.717 666.368 248.348 665.606Z" fill="#8F8530" stroke="#294064" stroke-width="1.11828" stroke-miterlimit="10" stroke-linecap="round" stroke-linejoin="round"/>
<path d="M235.177 665.551C264.034 630.063 299.656 596.809 343.757 582.492C346.557 588.561 349.1 594.77 351.123 601.141C303.684 619.169 276.983 635.598 239.796 668.203C239.796 668.203 238.381 667.986 237.318 667.283C236.255 666.58 235.177 665.551 235.177 665.551Z" fill="#8F8530" stroke="#294064" stroke-width="1.11828" stroke-miterlimit="10" stroke-linecap="round" stroke-linejoin="round"/>
<path d="M208.908 510.303C183.871 537.68 225.566 579.896 241.774 541.782C243.509 537.703 246.595 520.667 236.251 510.718" fill="#F6DFE0"/>
<path d="M208.908 510.303C183.871 537.68 225.566 579.896 241.774 541.782C243.509 537.703 246.595 520.667 236.251 510.718" stroke="#294064" stroke-width="1.11828" stroke-miterlimit="10" stroke-linecap="round" stroke-linejoin="round"/>
<path d="M203.52 521.642C203.52 512.553 212.177 505.186 222.859 505.186C233.539 505.186 242.197 512.553 242.197 521.642C242.197 530.731 233.539 538.099 222.859 538.099C212.177 538.099 203.52 530.731 203.52 521.642Z" fill="white" stroke="#294064" stroke-width="1.11828" stroke-miterlimit="10" stroke-linejoin="round"/>
<path d="M219.848 537.87L219.766 520.684L229.125 521.425L224.846 538.015C222.282 538.494 219.848 537.87 219.848 537.87Z" fill="#FF814F" stroke="#294064" stroke-width="1.11828" stroke-miterlimit="10" stroke-linecap="round" stroke-linejoin="round"/>
<path d="M219.687 521.19C219.687 519.308 221.811 517.781 224.432 517.781C227.053 517.781 229.178 519.308 229.178 521.19C229.178 523.072 227.053 524.599 224.432 524.599C221.811 524.599 219.687 523.072 219.687 521.19Z" fill="#FCA806" stroke="#294064" stroke-width="1.11828" stroke-miterlimit="10" stroke-linejoin="round"/>
<path d="M139.345 368.516C136.234 339.053 99.6691 323.217 83.0365 349.683C73.6745 364.579 86.959 385.155 86.959 385.155" fill="#FCA806"/>
<path d="M139.345 368.516C136.234 339.053 99.6691 323.217 83.0365 349.683C73.6745 364.579 86.959 385.155 86.959 385.155" stroke="#294064" stroke-width="1.11828" stroke-miterlimit="10" stroke-linecap="round" stroke-linejoin="round"/>
<path d="M141.957 375.838C141.957 375.838 118.191 353.131 130.899 324.266C141.191 300.886 169.844 308.414 172.574 325.581C174.916 340.301 162.543 342.431 158.742 378.618" fill="#FCA806"/>
<path d="M141.957 375.838C141.957 375.838 118.191 353.131 130.899 324.266C141.191 300.886 169.844 308.414 172.574 325.581C174.916 340.301 162.543 342.431 158.742 378.618" stroke="#294064" stroke-width="1.11828" stroke-miterlimit="10" stroke-linecap="round" stroke-linejoin="round"/>
<path d="M149.618 364.742C149.618 336.731 182.885 297.453 211.775 297.453C228.148 297.453 244.134 313.331 237.816 329.957C233.852 340.39 219.817 346.598 211.204 352.007C202.486 357.484 193.333 362.246 184.213 367.023" fill="#FCA806"/>
<path d="M149.618 364.742C149.618 336.731 182.885 297.453 211.775 297.453C228.148 297.453 244.134 313.331 237.816 329.957C233.852 340.39 219.817 346.598 211.204 352.007C202.486 357.484 193.333 362.246 184.213 367.023" stroke="#294064" stroke-width="1.11828" stroke-miterlimit="10" stroke-linecap="round" stroke-linejoin="round"/>
<path d="M151.519 367.593C170.287 342.583 201.596 312.615 235.534 313.8C256.019 314.515 276.225 339.099 257.971 358.649C245.589 371.908 232.526 373.257 215.006 376.907" fill="#FCA806"/>
<path d="M151.519 367.593C170.287 342.583 201.596 312.615 235.534 313.8C256.019 314.515 276.225 339.099 257.971 358.649C245.589 371.908 232.526 373.257 215.006 376.907" stroke="#294064" stroke-width="1.11828" stroke-miterlimit="10" stroke-linecap="round" stroke-linejoin="round"/>
<path d="M149.854 369.481C170.363 354.822 189.162 345.003 217.218 347.88C255.912 351.846 283.743 389.343 251.236 406.191C231.841 416.243 194.257 393.111 194.257 393.111" fill="#FCA806"/>
<path d="M149.854 369.481C170.363 354.822 189.162 345.003 217.218 347.88C255.912 351.846 283.743 389.343 251.236 406.191C231.841 416.243 194.257 393.111 194.257 393.111" stroke="#294064" stroke-width="1.11828" stroke-miterlimit="10" stroke-linecap="round" stroke-linejoin="round"/>
<path d="M149.47 367.248C178.753 357.63 222.913 378.241 231.937 409.104C235.541 421.433 228.444 436.619 208.907 434.812C197.963 433.8 188.734 427.109 188.734 427.109C188.734 427.109 176.517 414.396 170.343 407.964" fill="#FCA806"/>
<path d="M149.47 367.248C178.753 357.63 222.913 378.241 231.937 409.104C235.541 421.433 228.444 436.619 208.907 434.812C197.963 433.8 188.734 427.109 188.734 427.109C188.734 427.109 176.517 414.396 170.343 407.964" stroke="#294064" stroke-width="1.11828" stroke-miterlimit="10" stroke-linecap="round" stroke-linejoin="round"/>
<path d="M138.039 369.774C137.092 367.444 115.898 363.528 111.924 362.973C90.7633 360.016 65.244 364.267 50.7289 381.749C42.8243 391.269 41.6561 411.464 55.7372 416.383C59.562 417.719 75.0019 412.484 79.398 411.197C88.1058 408.646 96.495 404.985 104.955 401.74" fill="#FCA806"/>
<path d="M138.039 369.774C137.092 367.444 115.898 363.528 111.924 362.973C90.7633 360.016 65.244 364.267 50.7289 381.749C42.8243 391.269 41.6561 411.464 55.7372 416.383C59.562 417.719 75.0019 412.484 79.398 411.197C88.1058 408.646 96.495 404.985 104.955 401.74" stroke="#294064" stroke-width="1.11828" stroke-miterlimit="10" stroke-linecap="round" stroke-linejoin="round"/>
<path d="M140.695 374.788C94.5845 369.581 42.8137 400.854 37.1538 438.286C35.3414 450.272 43.6155 465.855 57.5574 460.866C68.7906 456.847 75.54 445.973 82.1416 436.794" fill="#FCA806"/>
<path d="M140.695 374.788C94.5845 369.581 42.8137 400.854 37.1538 438.286C35.3414 450.272 43.6155 465.855 57.5574 460.866C68.7906 456.847 75.54 445.973 82.1416 436.794" stroke="#294064" stroke-width="1.11828" stroke-miterlimit="10" stroke-linecap="round" stroke-linejoin="round"/>
<path d="M127.379 377.475C127.379 377.475 87.4288 398.539 67.2765 429.437C56.095 446.582 56.8397 468.114 72.0111 478.152C82.3421 484.985 102.161 472.122 108.568 461.125C119.903 441.667 115.749 416.567 120.687 394.596" fill="#FCA806"/>
<path d="M127.379 377.475C127.379 377.475 87.4288 398.539 67.2765 429.437C56.095 446.582 56.8397 468.114 72.0111 478.152C82.3421 484.985 102.161 472.122 108.568 461.125C119.903 441.667 115.749 416.567 120.687 394.596" stroke="#294064" stroke-width="1.11828" stroke-miterlimit="10" stroke-linecap="round" stroke-linejoin="round"/>
<path d="M133.65 376.373C127.443 379.171 122.266 387.279 118.484 392.563C104.713 411.802 95.7757 453.696 114.05 472.392C128.946 487.632 149.314 475.616 154.384 457.384C156.068 451.33 154.708 444.473 154.249 438.28" fill="#FCA806"/>
<path d="M133.65 376.373C127.443 379.171 122.266 387.279 118.484 392.563C104.713 411.802 95.7757 453.696 114.05 472.392C128.946 487.632 149.314 475.616 154.384 457.384C156.068 451.33 154.708 444.473 154.249 438.28" stroke="#294064" stroke-width="1.11828" stroke-miterlimit="10" stroke-linecap="round" stroke-linejoin="round"/>
<path d="M137.666 376.136C137.666 376.136 131.941 415.458 143.707 443.178C148.958 455.548 164.33 468.093 179.585 461.565C198.45 453.493 197.939 436.338 192.903 422.052C182.525 392.607 151.081 369.445 151.081 369.445" fill="#FCA806"/>
<path d="M137.666 376.136C137.666 376.136 131.941 415.458 143.707 443.178C148.958 455.548 164.33 468.093 179.585 461.565C198.45 453.493 197.939 436.338 192.903 422.052C182.525 392.607 151.081 369.445 151.081 369.445" stroke="#294064" stroke-width="1.11828" stroke-miterlimit="10" stroke-linecap="round" stroke-linejoin="round"/>
<path d="M123.417 381.075C120.24 375.218 127.596 365.081 139.847 358.435C152.099 351.789 164.607 351.149 167.786 357.007C170.963 362.866 163.607 373.002 151.355 379.648C139.103 386.294 126.595 386.933 123.417 381.075Z" fill="#D6501B" stroke="#294064" stroke-width="1.11828" stroke-miterlimit="10" stroke-linejoin="round"/>
<path d="M342.82 583.485C311.802 584.397 306.461 549.459 335.669 565.178C341.212 568.16 345.976 572.701 345.976 572.701" fill="white"/>
<path d="M342.82 583.485C311.802 584.397 306.461 549.459 335.669 565.178C341.212 568.16 345.976 572.701 345.976 572.701" stroke="#294064" stroke-width="1.11828" stroke-miterlimit="10" stroke-linecap="round" stroke-linejoin="round"/>
<path d="M344.063 569.552C315.314 554.233 328.298 518.146 344.381 551.768C346.025 555.206 348.032 562.248 348.032 562.248" fill="white"/>
<path d="M344.063 569.552C315.314 554.233 328.298 518.146 344.381 551.768C346.025 555.206 348.032 562.248 348.032 562.248" stroke="#294064" stroke-width="1.11828" stroke-miterlimit="10" stroke-linecap="round" stroke-linejoin="round"/>
<path d="M350.717 560.124C329.681 533.64 361.454 510.392 359.247 547.673C359.047 551.028 357.683 557.142 357.683 557.142" fill="white"/>
<path d="M350.717 560.124C329.681 533.64 361.454 510.392 359.247 547.673C359.047 551.028 357.683 557.142 357.683 557.142" stroke="#294064" stroke-width="1.11828" stroke-miterlimit="10" stroke-linecap="round" stroke-linejoin="round"/>
<path d="M358.585 560.847C357.92 550.734 368.35 533.168 375.29 539.916C381.391 545.848 368.431 565.386 363.986 569.446" fill="white"/>
<path d="M358.585 560.847C357.92 550.734 368.35 533.168 375.29 539.916C381.391 545.848 368.431 565.386 363.986 569.446" stroke="#294064" stroke-width="1.11828" stroke-miterlimit="10" stroke-linecap="round" stroke-linejoin="round"/>
<path d="M366.642 568.1C366.642 568.1 384.504 547.247 388.85 557.405C393.133 567.417 369.157 579.558 369.157 579.558" fill="white"/>
<path d="M366.642 568.1C366.642 568.1 384.504 547.247 388.85 557.405C393.133 567.417 369.157 579.558 369.157 579.558" stroke="#294064" stroke-width="1.11828" stroke-miterlimit="10" stroke-linecap="round" stroke-linejoin="round"/>
<path d="M370.954 580.855C394.554 560.39 407.252 585.897 377.642 590.186C370.949 591.157 365.038 590.809 365.038 590.809" fill="white"/>
<path d="M370.954 580.855C394.554 560.39 407.252 585.897 377.642 590.186C370.949 591.157 365.038 590.809 365.038 590.809" stroke="#294064" stroke-width="1.11828" stroke-miterlimit="10" stroke-linecap="round" stroke-linejoin="round"/>
<path d="M372.664 592.334C399.807 588.27 404.453 618.929 370.818 602.882C367.123 601.119 366.613 601.581 362.822 599.49" fill="white"/>
<path d="M372.664 592.334C399.807 588.27 404.453 618.929 370.818 602.882C367.123 601.119 366.613 601.581 362.822 599.49" stroke="#294064" stroke-width="1.11828" stroke-miterlimit="10" stroke-linecap="round" stroke-linejoin="round"/>
<path d="M371.729 605.207C397.643 613.085 386.73 653.767 366.698 613.698C365.083 610.468 365.68 611.692 364.25 608.385" fill="white"/>
<path d="M371.729 605.207C397.643 613.085 386.73 653.767 366.698 613.698C365.083 610.468 365.68 611.692 364.25 608.385" stroke="#294064" stroke-width="1.11828" stroke-miterlimit="10" stroke-linecap="round" stroke-linejoin="round"/>
<path d="M364.759 612.998C383.404 643.727 353.495 655.594 354.398 621.424C354.605 613.58 355.76 607.5 355.76 607.5" fill="white"/>
<path d="M364.759 612.998C383.404 643.727 353.495 655.594 354.398 621.424C354.605 613.58 355.76 607.5 355.76 607.5" stroke="#294064" stroke-width="1.11828" stroke-miterlimit="10" stroke-linecap="round" stroke-linejoin="round"/>
<path d="M355.032 609.037C356.627 617.074 344.655 642.159 335.203 632.185C326.59 623.097 339.499 604.739 349.694 598.201" fill="white"/>
<path d="M355.032 609.037C356.627 617.074 344.655 642.159 335.203 632.185C326.59 623.097 339.499 604.739 349.694 598.201" stroke="#294064" stroke-width="1.11828" stroke-miterlimit="10" stroke-linecap="round" stroke-linejoin="round"/>
<path d="M346.362 600.145C343.662 603.489 321.616 615.077 318.413 602.674C314.965 589.324 337.978 581.55 347.122 582.498" fill="white"/>
<path d="M346.362 600.145C343.662 603.489 321.616 615.077 318.413 602.674C314.965 589.324 337.978 581.55 347.122 582.498" stroke="#294064" stroke-width="1.11828" stroke-miterlimit="10" stroke-linecap="round" stroke-linejoin="round"/>
<path d="M339.641 587.577C337.857 570.263 344.306 555.415 354.044 554.411C363.783 553.407 373.124 566.629 374.908 583.942C376.692 601.256 370.244 616.105 360.505 617.109C350.767 618.112 341.426 604.891 339.641 587.577Z" fill="#5798E5" stroke="#294064" stroke-width="1.11828" stroke-miterlimit="10" stroke-linejoin="round"/>
<path d="M332.258 710.266C342.225 688.185 308.784 666.67 295.839 690.077C286.827 706.374 312.127 725.168 327.184 715.357" fill="#F27A84"/>
<path d="M332.258 710.266C342.225 688.185 308.784 666.67 295.839 690.077C286.827 706.374 312.127 725.168 327.184 715.357" stroke="#294064" stroke-width="1.11828" stroke-miterlimit="10" stroke-linecap="round" stroke-linejoin="round"/>
<path d="M319.28 715.236C316.237 712.751 316.426 707.485 319.703 703.472C322.979 699.461 328.102 698.223 331.144 700.707C334.188 703.192 333.998 708.459 330.722 712.471C327.446 716.483 322.323 717.721 319.28 715.236Z" fill="#FF6C78" stroke="#294064" stroke-width="1.11828" stroke-miterlimit="10" stroke-linejoin="round"/>
<path d="M158.489 648.336C158.489 644.274 161.782 640.98 165.845 640.98C169.908 640.98 173.202 644.274 173.202 648.336C173.202 652.399 169.908 655.693 165.845 655.693C161.782 655.693 158.489 652.399 158.489 648.336Z" fill="white" stroke="#294064" stroke-width="1.11828" stroke-miterlimit="10" stroke-linejoin="round"/>
<path d="M179.458 519.964C188.165 514.703 201.396 503.421 201.712 492.436" stroke="#294064" stroke-width="1.11828" stroke-miterlimit="10" stroke-linecap="round" stroke-linejoin="round"/>
<path d="M200.849 581.251C206.111 577.742 210.827 572.532 213.676 566.834" stroke="#294064" stroke-width="1.11828" stroke-miterlimit="10" stroke-linecap="round" stroke-linejoin="round"/>
<path d="M177.855 599.795C175.197 591.364 174.761 573.981 178.562 564.83" stroke="#294064" stroke-width="1.11828" stroke-miterlimit="10" stroke-linecap="round" stroke-linejoin="round"/>
<path d="M150.84 590.601C150.72 585.683 150.828 579.857 149.116 575.107" stroke="#8F8530" stroke-width="1.11828" stroke-miterlimit="10" stroke-linecap="round" stroke-linejoin="round"/>
<path d="M149.377 594.185C146.204 592.282 140.318 587.389 140.318 587.389" stroke="#8F8530" stroke-width="1.11828" stroke-miterlimit="10" stroke-linecap="round" stroke-linejoin="round"/>
<path d="M131.581 597.538C136.317 598.146 141.218 598.41 145.742 596.676" stroke="#8F8530" stroke-width="1.11828" stroke-miterlimit="10" stroke-linecap="round" stroke-linejoin="round"/>
<path d="M155.875 609.511C164.537 609.974 172.26 607.999 177.852 601.146" stroke="#8F8530" stroke-width="1.11828" stroke-miterlimit="10" stroke-linecap="round" stroke-linejoin="round"/>
<path d="M179.134 624.962C182.373 625.633 187.665 624.603 191.173 621.521" stroke="#8F8530" stroke-width="1.11828" stroke-miterlimit="10" stroke-linecap="round" stroke-linejoin="round"/>
<path d="M200.237 638.676C204.272 638.935 207.03 637.112 208.107 636.543" stroke="#8F8530" stroke-width="1.11828" stroke-miterlimit="10" stroke-linecap="round" stroke-linejoin="round"/>
<path d="M207.39 625.146C213.383 638.048 224.676 654.552 236.387 663.156" stroke="#294064" stroke-width="1.11828" stroke-miterlimit="10" stroke-linecap="round" stroke-linejoin="round"/>
<path d="M213.504 622.406C216.974 632.61 229.336 654.002 238.202 661.13" stroke="#294064" stroke-width="1.11828" stroke-miterlimit="10" stroke-linecap="round" stroke-linejoin="round"/>
<path d="M191.192 618.656C195.126 617.106 198.969 612.981 197.775 608.374C196.649 604.032 190.886 603.062 187.867 605.1" stroke="#88BEFF" stroke-width="1.11828" stroke-miterlimit="10" stroke-linecap="round" stroke-linejoin="round"/>
<path d="M192.635 596.621C197.874 605.14 203.981 601.758 206.39 592.652" stroke="#88BEFF" stroke-width="1.11828" stroke-miterlimit="10" stroke-linecap="round" stroke-linejoin="round"/>
<path d="M214.156 596.268C208.98 596.927 202.568 603.062 205.04 606.445C208.266 610.86 216.116 605.255 218.838 603.418" stroke="#88BEFF" stroke-width="1.11828" stroke-miterlimit="10" stroke-linecap="round" stroke-linejoin="round"/>
<path d="M219.593 607.365C215.066 607.959 210.675 612.339 215.249 619.499" stroke="#88BEFF" stroke-width="1.11828" stroke-miterlimit="10" stroke-linecap="round" stroke-linejoin="round"/>
<path d="M200.939 624.352C196.989 612.733 209.943 609.4 211.647 622.403" stroke="#88BEFF" stroke-width="1.11828" stroke-miterlimit="10" stroke-linecap="round" stroke-linejoin="round"/>
<path d="M164.155 616.313C148.312 612.037 132.361 620.721 128.121 634.92" stroke="#294064" stroke-width="1.11828" stroke-miterlimit="10" stroke-linecap="round" stroke-linejoin="round"/>
<path d="M239.116 610.496C250.274 628.493 247.584 650.856 247.584 650.856" stroke="#294064" stroke-width="1.11828" stroke-miterlimit="10" stroke-linecap="round" stroke-linejoin="round"/>
<path d="M317.831 599.707C289.476 614.566 258.44 640.698 237.01 666.109" stroke="#294064" stroke-width="1.11828" stroke-miterlimit="10" stroke-linecap="round" stroke-linejoin="round"/>
<path d="M321.234 606.842C288.09 620.646 264.134 642.992 238.264 667.309" stroke="#294064" stroke-width="1.11828" stroke-miterlimit="10" stroke-linecap="round" stroke-linejoin="round"/>
<path d="M258.048 654.036C287.193 636.582 339.878 655.532 355.786 685.213" stroke="#8F8530" stroke-width="1.11828" stroke-miterlimit="10" stroke-linecap="round" stroke-linejoin="round"/>
<path d="M325.164 698.799C323.499 691.425 313.901 683.265 304.037 682.814" stroke="#F6DFE0" stroke-width="1.11828" stroke-miterlimit="10" stroke-linecap="round" stroke-linejoin="round"/>
<path d="M316.09 709.936C309.984 709.944 296.811 702.491 295.865 692.697" stroke="#F6DFE0" stroke-width="1.11828" stroke-miterlimit="10" stroke-linecap="round" stroke-linejoin="round"/>
<path d="M257.552 666.053C269.621 676.302 271.081 697.03 267.521 706.678" stroke="#294064" stroke-width="1.11828" stroke-miterlimit="10" stroke-linecap="round" stroke-linejoin="round"/>
<path d="M217.575 556.77C216.453 577.714 222.038 621.536 231.427 646.405" stroke="#8F8530" stroke-width="1.11828" stroke-miterlimit="10" stroke-linecap="round" stroke-linejoin="round"/>
<path d="M224.976 557.936C224.802 557.893 223.982 594.312 227.607 608.793" stroke="#8F8530" stroke-width="1.11828" stroke-miterlimit="10" stroke-linecap="round" stroke-linejoin="round"/>
<path d="M279.615 464.045C255.057 491.605 232.477 551.026 235.93 604.037" stroke="#8F8530" stroke-width="1.11828" stroke-miterlimit="10" stroke-linecap="round" stroke-linejoin="round"/>
<path d="M287.053 465.311C262.331 493.734 237.422 567.372 240.228 604.529" stroke="#8F8530" stroke-width="1.11828" stroke-miterlimit="10" stroke-linecap="round" stroke-linejoin="round"/>
<path d="M346.437 560.143C348.297 576.335 348.207 609.049 348.207 609.049" stroke="#88BEFF" stroke-width="1.11828" stroke-miterlimit="10" stroke-linecap="round" stroke-linejoin="round"/>
<path d="M350.41 556.732C355.376 574.2 358.428 597.13 354.544 614.879" stroke="#88BEFF" stroke-width="1.11828" stroke-miterlimit="10" stroke-linecap="round" stroke-linejoin="round"/>
<path d="M355.29 555.457C362.045 569 365.735 607.641 361.401 616.033" stroke="#88BEFF" stroke-width="1.11828" stroke-miterlimit="10" stroke-linecap="round" stroke-linejoin="round"/>
<path d="M360.812 557.131C368.272 570.431 374.357 590.864 369.002 610.164" stroke="#88BEFF" stroke-width="1.11828" stroke-miterlimit="10" stroke-linecap="round" stroke-linejoin="round"/>
<path d="M183.518 495.552C185.919 497.113 189.041 495.256 189.882 492.812" stroke="#294064" stroke-width="1.11828" stroke-miterlimit="10" stroke-linecap="round" stroke-linejoin="round"/>
<path d="M318.904 705.074C318.867 705.062 330.711 714.127 332.778 724.875" stroke="#294064" stroke-width="1.11828" stroke-miterlimit="10" stroke-linecap="round" stroke-linejoin="round"/>
<path d="M320.19 702.891C327.159 706.508 333.767 711.895 338.818 717.91" stroke="#294064" stroke-width="1.11828" stroke-miterlimit="10" stroke-linecap="round" stroke-linejoin="round"/>
<path d="M330.573 725.846C330.573 723.88 332.166 722.287 334.133 722.287C336.099 722.287 337.693 723.88 337.693 725.846C337.693 727.813 336.099 729.406 334.133 729.406C332.166 729.406 330.573 727.813 330.573 725.846Z" fill="#FF814F" stroke="#294064" stroke-width="1.11828" stroke-miterlimit="10" stroke-linejoin="round"/>
<path d="M337.308 719.003C337.308 717.038 338.902 715.443 340.867 715.443C342.833 715.443 344.427 717.038 344.427 719.003C344.427 720.97 342.833 722.563 340.867 722.563C338.902 722.563 337.308 720.97 337.308 719.003Z" fill="#FF814F" stroke="#294064" stroke-width="1.11828" stroke-miterlimit="10" stroke-linejoin="round"/>
<path d="M181.406 479.366C179.855 473.273 181.271 467.654 184.569 466.814C187.867 465.976 191.796 470.234 193.347 476.327C194.898 482.42 193.482 488.039 190.184 488.877C186.887 489.717 182.956 485.458 181.406 479.366Z" fill="white" stroke="#294064" stroke-width="1.11828" stroke-miterlimit="10" stroke-linejoin="round"/>
<path d="M172.116 483.438C170.565 477.345 171.982 471.726 175.279 470.887C178.577 470.047 182.507 474.306 184.057 480.399C185.608 486.491 184.192 492.11 180.895 492.95C177.597 493.789 173.667 489.531 172.116 483.438Z" fill="white" stroke="#294064" stroke-width="1.11828" stroke-miterlimit="10" stroke-linejoin="round"/>
<path d="M180.122 486.292C180.456 483.641 181.534 481.593 182.529 481.718C183.525 481.844 184.062 484.094 183.727 486.746C183.394 489.397 182.315 491.445 181.32 491.319C180.324 491.194 179.788 488.943 180.122 486.292Z" fill="#294064" stroke="#294064" stroke-width="1.11828" stroke-miterlimit="10" stroke-linejoin="round"/>
<path d="M189.523 483.036C189.857 480.385 190.935 478.337 191.93 478.462C192.927 478.588 193.463 480.838 193.129 483.49C192.795 486.141 191.717 488.189 190.721 488.063C189.726 487.938 189.189 485.688 189.523 483.036Z" fill="#294064" stroke="#294064" stroke-width="1.11828" stroke-miterlimit="10" stroke-linejoin="round"/>
<path d="M286.521 477.781L288.479 484.945C283.573 487.022 273.036 502.354 273.036 502.354L286.521 477.781Z" fill="#294064"/>
<path d="M202.923 539.448C202.889 539.384 202.856 539.32 202.821 539.256Z" fill="#294064"/>
<path d="M213.524 553.82C212.689 554.067 216.889 557.568 217.282 557.871C219.425 559.519 226.602 562.013 229.349 560.32C229.658 560.129 229.847 556.095 229.637 555.966C229.604 555.945 229.065 556.352 228.999 556.393C227.405 557.376 224.798 557.362 222.95 557.193C220.248 556.946 213.524 553.82 213.524 553.82Z" fill="#294064"/>
<path d="M197.121 570.509C197.354 571.206 200.264 565.538 200.898 564.333C203.092 560.174 205.132 554.561 204.678 549.829C204.479 547.754 204.121 545.092 202.976 543.262C202.752 542.905 202.198 542.264 202.198 542.264C202.198 542.264 202.886 544.612 202.83 545.812C202.719 548.212 202.472 550.523 202.115 552.897C201.402 557.632 196.689 569.584 196.689 569.584C196.689 569.584 196.929 569.932 197.121 570.509Z" fill="#294064"/>
<path d="M168.019 568.823C167.235 570.632 168.166 572.031 168.166 572.031C170.38 573.266 175.484 570.76 178.532 567.575C180.006 566.035 180.72 564.779 181.317 563.342C181.438 563.053 181.625 562.453 181.625 562.453C181.625 562.453 180.327 563.974 179.541 564.578C178.325 565.512 176.407 566.322 174.98 566.88C173.385 567.504 168.629 567.418 168.019 568.823Z" fill="#294064"/>
<path d="M248.22 661.457C248.22 661.457 250.525 660.377 251.309 659.793C255.004 657.036 260.203 653.302 267.591 648.381C274.98 643.46 280.861 640.109 280.861 640.109L269.395 644.433C269.395 644.433 258.746 651.717 254.175 656.019" fill="#294064"/>
<path d="M318.096 601.529C317.123 604.214 321.553 612.136 324.607 611.779C324.607 611.779 330.199 609.884 332.68 608.54C333.59 608.047 342.127 604.724 342.458 603.811C342.758 602.983 335.415 606.495 334.569 606.739C332.875 607.228 332.338 607.449 330.599 607.813C324.78 609.032 322.172 608.699 318.557 604.005" fill="#294064"/>
<path d="M220.299 553.189C213.036 552.367 206.751 543.577 205.063 537.047" stroke="white" stroke-width="1.11828" stroke-miterlimit="10" stroke-linecap="round" stroke-linejoin="round"/>
<path d="M310.538 638.719C318.948 639.365 327.49 641.748 334.743 646.101" stroke="white" stroke-width="1.11828" stroke-miterlimit="10" stroke-linecap="round" stroke-linejoin="round"/>
<path d="M338.14 648.004C341.407 649.964 344.587 651.979 347.19 654.836" stroke="white" stroke-width="1.11828" stroke-miterlimit="10" stroke-linecap="round" stroke-linejoin="round"/>
<path d="M196.169 729.129C191.504 733.852 184.459 735.77 178.084 734.747" stroke="white" stroke-width="1.11828" stroke-miterlimit="10" stroke-linecap="round" stroke-linejoin="round"/>
<path d="M175.133 734.03C173.218 734.103 169.777 732.775 168.627 731.186" stroke="white" stroke-width="1.11828" stroke-miterlimit="10" stroke-linecap="round" stroke-linejoin="round"/>
<path d="M243.752 754.061C239.199 757.901 235.515 762.479 229.012 762.85" stroke="white" stroke-width="1.11828" stroke-miterlimit="10" stroke-linecap="round" stroke-linejoin="round"/>
<path d="M225.818 763.256C223.847 763.732 219.389 763.658 217.69 762.621" stroke="white" stroke-width="1.11828" stroke-miterlimit="10" stroke-linecap="round" stroke-linejoin="round"/>
<path d="M260.746 415.701C253.473 421.624 254.337 435.23 257.868 442.758" stroke="#294064" stroke-width="1.11828" stroke-miterlimit="10" stroke-linecap="round" stroke-linejoin="round"/>
<path d="M259.303 445.639C259.91 448.358 262.562 451.629 264.28 453.739" stroke="#294064" stroke-width="1.11828" stroke-miterlimit="10" stroke-linecap="round" stroke-linejoin="round"/>
<path d="M124.573 377.424C124.721 384.29 133.235 382.094 137.229 381.375" stroke="#294064" stroke-width="1.11828" stroke-miterlimit="10" stroke-linecap="round" stroke-linejoin="round"/>
<path d="M139.773 380.746C142.733 379.689 145.334 378.472 148.053 376.883" stroke="#294064" stroke-width="1.11828" stroke-miterlimit="10" stroke-linecap="round" stroke-linejoin="round"/>
<path d="M149.716 312.281C141.158 312.281 132.838 321.194 131.814 329.386" stroke="#294064" stroke-width="1.11828" stroke-miterlimit="10" stroke-linecap="round" stroke-linejoin="round"/>
<path d="M131.549 332.223C130.318 334.684 130.485 338.136 130.485 340.82" stroke="#294064" stroke-width="1.11828" stroke-miterlimit="10" stroke-linecap="round" stroke-linejoin="round"/>
<path d="M236.338 317.801C247.465 320.455 253.324 323.441 259.305 333.172" stroke="#294064" stroke-width="1.11828" stroke-miterlimit="10" stroke-linecap="round" stroke-linejoin="round"/>
<path d="M231.844 318.11C222.963 317.288 213.758 321.705 205.764 324.818" stroke="#294064" stroke-width="1.11828" stroke-miterlimit="10" stroke-linecap="round" stroke-linejoin="round"/>
<path d="M190.24 372.574C196.688 374.532 204.335 378.338 209.229 382.971" stroke="#294064" stroke-width="1.11828" stroke-miterlimit="10" stroke-linecap="round" stroke-linejoin="round"/>
<path d="M211.652 385.166C214.33 387.703 217.18 389.86 219.778 392.61" stroke="#294064" stroke-width="1.11828" stroke-miterlimit="10" stroke-linecap="round" stroke-linejoin="round"/>
<path d="M97.2252 469.172C93.0886 474.919 79.1516 479.772 72.9443 475.303" stroke="#294064" stroke-width="1.11828" stroke-miterlimit="10" stroke-linecap="round" stroke-linejoin="round"/>
<path d="M99.5957 466.868C101.331 465.401 102.991 463.636 104.313 461.801" stroke="#294064" stroke-width="1.11828" stroke-miterlimit="10" stroke-linecap="round" stroke-linejoin="round"/>
<path d="M104.534 502.492C109.816 500.973 114.866 502.309 119.639 504.653" stroke="#294064" stroke-width="1.11828" stroke-miterlimit="10" stroke-linecap="round" stroke-linejoin="round"/>
<path d="M122.155 506.09C123.735 506.866 126.836 510.191 127.735 511.739" stroke="#294064" stroke-width="1.11828" stroke-miterlimit="10" stroke-linecap="round" stroke-linejoin="round"/>
<path d="M70.1621 555.158L86.4267 562.299" stroke="#294064" stroke-width="1.11828" stroke-miterlimit="10" stroke-linecap="round" stroke-linejoin="round"/>
<path d="M90.1504 563.773C90.1504 563.773 95.9374 566.544 98.883 567.371" stroke="#294064" stroke-width="1.11828" stroke-miterlimit="10" stroke-linecap="round" stroke-linejoin="round"/>
<path d="M125.674 575.285C128.361 576.804 131.026 578.702 133.39 580.671" stroke="#294064" stroke-width="1.11828" stroke-miterlimit="10" stroke-linecap="round" stroke-linejoin="round"/>
<path d="M107.743 606.199C103.385 606.779 95.7209 606.744 91.9248 601.977" stroke="#294064" stroke-width="1.11828" stroke-miterlimit="10" stroke-linecap="round" stroke-linejoin="round"/>
<path d="M110.855 605.244C113.173 604.926 115.594 603.997 117.658 602.955" stroke="#294064" stroke-width="1.11828" stroke-miterlimit="10" stroke-linecap="round" stroke-linejoin="round"/>
<path d="M101.402 584.552C100.383 581.45 100.623 577.937 101.263 574.805" stroke="#294064" stroke-width="1.11828" stroke-miterlimit="10" stroke-linecap="round" stroke-linejoin="round"/>
<path d="M101.745 572.381C102.102 570.636 102.849 568.904 103.651 567.316" stroke="#294064" stroke-width="1.11828" stroke-miterlimit="10" stroke-linecap="round" stroke-linejoin="round"/>
<path d="M374.941 598.086C377.717 598.638 380.505 598.888 383.215 599.731" stroke="#294064" stroke-width="1.11828" stroke-miterlimit="10" stroke-linecap="round" stroke-linejoin="round"/>
<path d="M364.124 558.154C366.669 556.882 368.847 550.957 369.456 548.523" stroke="#294064" stroke-width="1.11828" stroke-miterlimit="10" stroke-linecap="round" stroke-linejoin="round"/>
<path d="M340.029 592.901C340.23 592.764 338.776 593.087 338.546 593.138C337.722 593.32 336.884 593.666 336.094 593.939C333.764 594.743 331.401 595.882 329.369 597.267" stroke="#294064" stroke-width="1.11828" stroke-miterlimit="10" stroke-linecap="round" stroke-linejoin="round"/>
<path d="M162.855 643.327C165.201 642.448 168.19 642.741 169.619 645.041" stroke="#294064" stroke-width="1.11828" stroke-miterlimit="10" stroke-linecap="round" stroke-linejoin="round"/>
<path d="M224.99 657.138C224.939 656.911 224.457 657.801 224.383 657.955C224.027 658.684 224.03 659.398 224.211 660.199C224.654 662.161 227.166 662.665 228.526 663.523" stroke="#294064" stroke-width="1.11828" stroke-miterlimit="10" stroke-linecap="round" stroke-linejoin="round"/>
<path d="M243.699 694.308C240.922 692.728 246.372 688.84 248.577 689.709" stroke="#294064" stroke-width="1.11828" stroke-miterlimit="10" stroke-linecap="round" stroke-linejoin="round"/>
<path d="M243.854 701.047C242.166 701.78 242.038 698.987 242.598 698.189C243.82 696.451 245.424 696.321 247.329 695.797" stroke="#294064" stroke-width="1.11828" stroke-miterlimit="10" stroke-linecap="round" stroke-linejoin="round"/>
<path d="M238.184 707.621C237.324 705.027 239.507 703.171 241.987 702.865" stroke="#294064" stroke-width="1.11828" stroke-miterlimit="10" stroke-linecap="round" stroke-linejoin="round"/>
<path d="M234.974 713.053C232.303 711.711 236.131 709.221 237.217 708.861" stroke="#294064" stroke-width="1.11828" stroke-miterlimit="10" stroke-linecap="round" stroke-linejoin="round"/>
</g>
<defs>
<clipPath id="clip0_120_24891">
<rect width="414" height="860" fill="white"/>
</clipPath>
</defs>
</svg>
