<svg width="415" height="860" viewBox="0 0 415 860" fill="none" xmlns="http://www.w3.org/2000/svg">
<rect width="414" height="860" transform="translate(0.5)" fill="#D9CFC3"/>
<mask id="mask0_120_24661" style="mask-type:luminance" maskUnits="userSpaceOnUse" x="0" y="-75" width="415" height="840">
<path d="M414.5 -75H0.5V765H414.5V-75Z" fill="white"/>
</mask>
<g mask="url(#mask0_120_24661)">
<path d="M428.022 169.165C428.022 169.165 412.661 147.774 383.151 133.331C342.878 113.621 273.678 114.219 251.031 154.364C239.73 174.399 257.471 209.195 277.37 198.054C289.99 190.99 281.417 170.421 261.003 168.386C211.005 163.404 198 214.439 194.527 248.624C190.093 292.279 191.007 339.414 177.908 381.834C144.163 491.123 72.8749 616.571 -70.543 578.924" stroke="#294064" stroke-miterlimit="10" stroke-linecap="round" stroke-linejoin="round" stroke-dasharray="10 10"/>
</g>
<path d="M349.992 398.283C357.191 392.654 370.817 400.538 361.944 411.016C367.932 412.842 369.828 420.547 363.055 422.702C370.445 425.166 371.498 431.237 367.287 437.3C375.513 440.861 371.75 455.887 360.596 451.431C364.318 458.483 356.967 466.659 350.781 458.334C350.781 458.334 351.393 463.971 347.828 466.061C343.389 468.664 339.693 463.512 339.693 463.512C340.548 471.746 334.363 476.899 328.888 469.001C328.879 477.365 322.45 477.657 318.1 472.034C320.166 477.06 316.557 482.875 309.854 479.504C311.671 483.846 308.024 488.334 303.425 484.926C304.637 489.008 301.159 494.507 295.933 490.931C296.645 496.926 295.217 503.172 288.285 501.28C295.115 509.269 285.728 519.161 276.317 509.534C276.317 509.534 273.876 511.905 271.598 511.506C267.093 510.717 268.252 505.011 268.252 505.011C268.252 505.011 267.592 509.809 263.172 510.645C257.846 511.652 256.743 506.042 256.743 506.042C254.262 512.269 247.339 509.829 246.63 504.769C246.486 505.792 246.486 505.792 246.342 506.814C234.485 506.994 235.627 502.734 233.759 491.076" fill="white"/>
<path d="M149.932 489C144.777 491.146 140.128 497.309 144.342 501.659C137.105 508.924 146.361 511.019 146.361 511.019C143.706 516.115 147.634 522.981 155.288 517.565C154.599 522.36 160.278 526.926 166.719 519.901C165.401 526.369 172.253 532.344 179.284 525.5C177.006 533.762 187.127 536.124 188.792 527.953C190.209 534.795 198.129 540.131 199.227 529.948C204.826 535.246 209.027 533.479 208.518 525.66C212.154 529.677 215.993 527.172 216.424 522.5C223.044 527.472 226.006 523.541 227.295 516.374C229.941 528.282 242.151 523.787 238.9 514.44C238.9 514.44 241.353 517.061 243.423 515.246C245.284 513.615 243.785 510.778 243.785 510.778C248.419 515.283 253.455 510.477 250.79 503.958C262.811 504.791 256.176 492.06 254.645 488.979C251.426 482.497 246.472 483.483 239.792 483.049" fill="white"/>
<path d="M108.147 466.572C108.147 466.572 99.3749 471.27 107 475.881C107 475.881 102.868 478.771 105.037 482.254C106.945 485.316 110.545 484.038 110.545 484.038C107.471 488.883 109.151 492.972 115.47 491.306C114.341 496.054 113.934 502.525 120.809 498.834C119.64 505.8 124.129 516.538 129.207 505.547C132.636 515.826 137.722 511.187 137.534 502.599C141.113 505.85 143.125 505.54 146.87 502.005C150.063 507.032 154.536 503.954 154.303 499.057C157.335 504.925 162.472 500.523 162.472 500.523C166.849 504.704 175.158 502.344 175.049 495.043C174.939 487.65 181.813 480.627 175.023 473.747" fill="white"/>
<path d="M181.976 212.59C183.453 203.726 173.441 206.124 173.441 206.124C173.441 206.124 177.018 203.134 174.717 201.233C172.843 199.685 170.854 202.245 170.854 202.245C170.854 202.245 169.948 198.477 166.716 198.107C162.985 197.679 161.285 203.021 161.285 203.021C161.285 203.021 159.619 199.468 156.5 200.253C154.599 200.731 153.613 203.547 153.526 203.279C151.917 198.28 149.388 201.727 149.388 201.727C149.388 201.727 149.069 199.157 147.652 198.263C144.658 196.374 142.025 199.904 142.025 199.904C142.025 199.904 141.008 196.736 138.958 197.941C136.379 199.458 139.043 201.986 139.043 201.986C139.043 201.986 133.323 202.427 134.358 205.772C135.002 207.855 137.491 208.71 137.491 208.71C137.491 208.71 133.311 210.492 134.55 213.239C135.268 214.832 137.75 215.176 137.75 215.176C137.75 215.176 135.806 216.714 135.685 218.696C135.52 221.399 138.784 223.194 138.784 223.194C134.845 220.853 133.353 225.004 133.353 225.004C133.353 225.004 131.435 221.477 128.101 222.731C125.325 223.775 125.653 228.064 125.653 228.064C125.653 228.064 122.998 223.322 118.87 225.521C114.238 227.99 117.578 233.598 116.879 236.394C114.444 246.135 125.106 246.424 131.801 247.764" fill="white"/>
<path d="M211.82 219.738C224.353 196.557 236.517 215.737 236.517 215.737C242.89 211.696 247.116 212.634 249.145 219.811C254.061 217.745 258.884 220.226 255.95 226.467C261.994 223.109 261.178 230.505 259.36 233.941C269.293 228.625 272.278 235.477 269.39 244.201C274.925 240.219 280.566 243.212 274.444 249.22C281.776 247.62 283.182 254.901 279.389 258.995C290.626 259.304 288.249 276.497 279.12 279.362C268.65 282.648 254.088 272.789 245.887 267.741" fill="white"/>
<path d="M297.728 297.761C299.093 292.384 307.123 288.472 310.725 296.249C312.626 291.427 316.305 292.894 318.883 295.897C323.147 287.125 336.036 296.008 327.608 304.981C335.182 307.327 334.089 310.615 329.804 315.878C337.362 316.108 336.874 323.1 331.517 326.842C335.648 327.191 337.884 328.594 335.981 332.77C335.981 332.77 339.958 325.609 343.001 322.939C349.294 317.415 352.103 323.732 352.103 323.732C355.418 321.473 363.407 321.537 361.346 329.941C367.363 330.367 371.389 337.858 363.723 337.78C370.844 338.322 371.172 343.4 365.266 347.344C372.822 347.77 370.904 355.689 366.569 359.054C376.918 359.999 372.113 368.65 365.564 371.848C365.564 371.848 370.415 376.71 367.006 382.028C362.977 388.312 352.426 385.828 352.426 385.828C352.426 385.828 317.08 382.79 312.07 377.867" fill="white"/>
<path d="M90.6752 262.341C86.5486 258.606 83.2333 259.121 82.1786 264.985C76.301 262.99 71.1966 265.087 72.0157 271.441C68.348 268.466 61.128 270.53 62.7105 276.947C63.7868 281.311 68.8612 282.257 68.8612 282.257C60.6855 285.333 57.6975 296.397 67.4011 301.74C62.7369 299.608 56.7096 299.403 57.5357 307.343C43.8549 302.305 48.108 315.407 48.108 315.407C48.108 315.407 40.1065 314.932 40.61 321.448C40.8212 324.18 43.9685 326.459 44.5889 326.677C38.3 329.716 40.986 337.373 44.8608 339.114C40.1082 341.144 41.5559 350.164 50.0564 350.192C43.4863 351.688 44.7216 357.656 48.7005 359.94C34.6345 366.262 40.8726 377.17 48.7269 378.898C48.7269 378.898 45.3903 387.002 53.6855 387.072C48.3943 390.827 51.2833 398.116 57.6094 397.739C51.1069 411.979 68.0417 416.675 79.2337 405.752C89.7089 411.79 89.6741 413.922 100.195 414.1C121.867 414.465 130.363 380.426 128.645 364.072C126.867 347.136 123.691 330.367 121.932 313.43C120.263 297.357 124.712 277.336 110.967 265.609" fill="white"/>
<path d="M59.5 384.25C63.9683 405.757 80.8245 451.995 99.4965 466.943C121.484 484.547 151.451 488.868 178.177 497.76C212.845 509.294 237.326 498.96 267.096 481.183" fill="#FFC6B2"/>
<path d="M59.5 384.25C63.9683 405.757 80.8245 451.995 99.4965 466.943C121.484 484.547 151.451 488.868 178.177 497.76C212.845 509.294 237.326 498.96 267.096 481.183" stroke="#294064" stroke-miterlimit="10" stroke-linecap="round" stroke-linejoin="round"/>
<path d="M164.119 469.785C162.199 476.565 167.334 480.298 173.736 477.992C176.362 490.772 187.38 487.719 191.857 484.377C191.857 484.377 195.591 496.95 206.442 488.008C206.442 488.008 204.596 495.202 209.818 496.964C215.65 498.932 217.527 492.509 217.527 492.509C219.81 496.654 225.114 495.809 226.619 491.481C226.619 491.481 230.785 498.182 237.447 491.323C237.447 491.323 236.481 493.534 238.525 494.152C240.825 494.848 241.229 492.123 241.229 492.123C245.241 501.61 252.722 494.636 252.722 494.636C254.064 497.012 261.617 498.356 265.08 492.439C270 484.031 254.913 473.882 254.913 473.882" fill="white"/>
<path d="M164.119 469.785C162.199 476.565 167.334 480.298 173.736 477.992C176.362 490.772 187.38 487.719 191.857 484.377C191.857 484.377 195.591 496.95 206.442 488.008C206.442 488.008 204.596 495.202 209.818 496.964C215.65 498.932 217.527 492.509 217.527 492.509C219.81 496.654 225.114 495.809 226.619 491.481C226.619 491.481 230.785 498.182 237.447 491.323C237.447 491.323 236.481 493.534 238.525 494.152C240.825 494.848 241.229 492.123 241.229 492.123C245.241 501.61 252.722 494.636 252.722 494.636C254.064 497.012 261.617 498.356 265.08 492.439C270 484.031 254.913 473.882 254.913 473.882" stroke="#294064" stroke-miterlimit="10" stroke-linecap="round" stroke-linejoin="round"/>
<path d="M107.621 440.194C142.474 472.867 192.301 475.633 237.605 484.247C255.741 487.695 275.362 481.852 287.467 467.484C310.745 439.856 331.807 408.344 345.82 374.955C348.7 368.094 352.802 353.6 343.544 346.645C322.696 330.984 297.934 376.802 297.934 376.802C297.934 376.802 245.367 360.153 223.56 355.661C186.848 348.1 154.034 348.633 117.139 352.632" fill="#FFC6B2"/>
<path d="M107.621 440.194C142.474 472.867 192.301 475.633 237.605 484.247C255.741 487.695 275.362 481.852 287.467 467.484C310.745 439.856 331.807 408.344 345.82 374.955C348.7 368.094 352.802 353.6 343.544 346.645C322.696 330.984 297.934 376.802 297.934 376.802C297.934 376.802 245.367 360.153 223.56 355.661C186.848 348.1 154.034 348.633 117.139 352.632" stroke="#294064" stroke-miterlimit="10" stroke-linecap="round" stroke-linejoin="round"/>
<path d="M173.53 425.854C166.396 431.004 171.501 440.507 179.273 436.356C175.84 446.86 185.976 449.904 190.546 446.144C190.546 446.144 192.176 461.872 206.483 457.816C204.025 462.726 207.267 468.385 214.042 465.975C214.653 472.662 222.287 476.246 225.889 468.246C229.427 473.461 238.209 472.945 238.313 465.939C242.263 467.012 258.738 473.93 267.267 460.22C268.071 465.917 273.86 469.015 278.889 462.933C275.78 471.632 287.247 479.598 293.858 467.792C296.974 474.073 306.449 473.409 307.988 464.942C307.988 464.942 310.705 469.178 314.652 466.403C317.546 464.368 315.796 460.64 315.796 460.64C324.402 457.416 321.772 449.993 315.401 450.174C328.308 440.952 318.495 421.728 305.892 418.469" fill="white"/>
<path d="M173.53 425.854C166.396 431.004 171.501 440.507 179.273 436.356C175.84 446.86 185.976 449.904 190.546 446.144C190.546 446.144 192.176 461.872 206.483 457.816C204.025 462.726 207.267 468.385 214.042 465.975C214.653 472.662 222.287 476.246 225.889 468.246C229.427 473.461 238.209 472.945 238.313 465.939C242.263 467.012 258.738 473.93 267.267 460.22C268.071 465.917 273.86 469.015 278.889 462.933C275.78 471.632 287.247 479.598 293.858 467.792C296.974 474.073 306.449 473.409 307.988 464.942C307.988 464.942 310.705 469.178 314.652 466.403C317.546 464.368 315.796 460.64 315.796 460.64C324.402 457.416 321.772 449.993 315.401 450.174C328.308 440.952 318.495 421.728 305.892 418.469" stroke="#294064" stroke-miterlimit="10" stroke-linecap="round" stroke-linejoin="round"/>
<path d="M157.449 419.567C185.75 439.217 258.403 453.884 294.874 440.542C320.886 431.026 384.054 383.631 352.435 360.058C335.592 347.503 306.388 388.754 306.388 388.754C306.388 388.754 238.63 386.187 211.194 383.722" fill="#FFC6B2"/>
<path d="M157.449 419.567C185.75 439.217 258.403 453.884 294.874 440.542C320.886 431.026 384.054 383.631 352.435 360.058C335.592 347.503 306.388 388.754 306.388 388.754C306.388 388.754 238.63 386.187 211.194 383.722" stroke="#294064" stroke-miterlimit="10" stroke-linecap="round" stroke-linejoin="round"/>
<path d="M62.1463 400.044C61.2809 403.993 66.5867 410.087 72.3631 404.212C75.2469 410.318 77.7905 412.04 83.7412 408.923C82.3249 415.083 85.6593 419.726 92.7669 417.353C91.2855 426.358 100.083 428.689 103.814 420.744C103.814 420.744 109.243 432.746 118.257 427.953C123.42 425.208 122.306 418.164 122.306 418.164C130.549 420.412 135.086 415.877 128.017 409.473C135.426 406.406 132.574 398.551 127.84 397.672C137.343 390.696 129.722 383.122 123.407 381.217C136.961 372.442 116.509 362.986 108.077 357.066C84.9094 340.797 66.4438 331.31 51.7422 355.804" fill="white"/>
<path d="M62.1463 400.044C61.2809 403.993 66.5867 410.087 72.3631 404.212C75.2469 410.318 77.7905 412.04 83.7412 408.923C82.3249 415.083 85.6593 419.726 92.7669 417.353C91.2855 426.358 100.083 428.689 103.814 420.744C103.814 420.744 109.243 432.746 118.257 427.953C123.42 425.208 122.306 418.164 122.306 418.164C130.549 420.412 135.086 415.877 128.017 409.473C135.426 406.406 132.574 398.551 127.84 397.672C137.343 390.696 129.722 383.122 123.407 381.217C136.961 372.442 116.509 362.986 108.077 357.066C84.9094 340.797 66.4438 331.31 51.7422 355.804" stroke="#294064" stroke-miterlimit="10" stroke-linecap="round" stroke-linejoin="round"/>
<path d="M136.227 382.308C131.097 389.702 137.447 393.32 140.995 391.804C140.995 391.804 138.909 399.376 146.827 399.219C142.35 405.415 145.453 416.125 155.264 414.338C149.894 421.785 159.298 433.357 163.746 420.342C168.439 424.441 171.721 419.179 170.202 416.599C170.202 416.599 175.543 418.759 174.498 408.698C174.498 408.698 182.298 410.532 181.13 402.479C181.13 402.479 186.053 406.419 189.498 403.743C192.534 401.385 190.855 396.771 190.855 396.771C190.855 396.771 194.789 383.398 187.643 374.876C176.119 361.134 157.315 362.122 141.472 363.905" fill="white"/>
<path d="M136.227 382.308C131.097 389.702 137.447 393.32 140.995 391.804C140.995 391.804 138.909 399.376 146.827 399.219C142.35 405.415 145.453 416.125 155.264 414.338C149.894 421.785 159.298 433.357 163.746 420.342C168.439 424.441 171.721 419.179 170.202 416.599C170.202 416.599 175.543 418.759 174.498 408.698C174.498 408.698 182.298 410.532 181.13 402.479C181.13 402.479 186.053 406.419 189.498 403.743C192.534 401.385 190.855 396.771 190.855 396.771C190.855 396.771 194.789 383.398 187.643 374.876C176.119 361.134 157.315 362.122 141.472 363.905" stroke="#294064" stroke-miterlimit="10" stroke-linecap="round" stroke-linejoin="round"/>
<path d="M193.666 396.458C199.245 411.027 208.059 403.216 215.078 404.708C219.504 405.65 219.962 412.59 224.459 413.252C227.512 413.701 229.148 409.733 231.341 410.158C236.221 411.102 241.159 419.601 245.065 413.496C250.411 420.014 261.757 421.36 259.489 411.814C280.178 390.59 245.324 377.401 229.189 375.008" fill="white"/>
<path d="M193.666 396.458C199.245 411.027 208.059 403.216 215.078 404.708C219.504 405.65 219.962 412.59 224.459 413.252C227.512 413.701 229.148 409.733 231.341 410.158C236.221 411.102 241.159 419.601 245.065 413.496C250.411 420.014 261.757 421.36 259.489 411.814C280.178 390.59 245.324 377.401 229.189 375.008" stroke="#294064" stroke-miterlimit="10" stroke-linecap="round" stroke-linejoin="round"/>
<path d="M264.704 395.997C274.801 391.873 277.371 416.013 285.383 411.345C288.118 409.752 287.439 405.418 287.748 403.716C288.671 398.633 292.768 406.355 296.227 405.561C301.452 404.363 300.577 395.141 303.371 396.066C305.053 396.623 303.653 399.79 305.215 401.092C306.949 402.538 308.666 399.809 309.232 400.018C309.798 400.228 309.084 404.597 311.061 404.941C312.521 405.195 312.777 402.569 313.494 401.701C317.58 407.368 322.652 409.553 326.504 408.271C329.686 407.212 329.894 403.13 325.176 395.964C323.714 393.743 328.251 392.929 329.344 390.505C331.846 384.955 319.657 374.655 309.172 369.916" fill="white"/>
<path d="M264.704 395.997C274.801 391.873 277.371 416.013 285.383 411.345C288.118 409.752 287.439 405.418 287.748 403.716C288.671 398.633 292.768 406.355 296.227 405.561C301.452 404.363 300.577 395.141 303.371 396.066C305.053 396.623 303.653 399.79 305.215 401.092C306.949 402.538 308.666 399.809 309.232 400.018C309.798 400.228 309.084 404.597 311.061 404.941C312.521 405.195 312.777 402.569 313.494 401.701C317.58 407.368 322.652 409.553 326.504 408.271C329.686 407.212 329.894 403.13 325.176 395.964C323.714 393.743 328.251 392.929 329.344 390.505C331.846 384.955 319.657 374.655 309.172 369.916" stroke="#294064" stroke-miterlimit="10" stroke-linecap="round" stroke-linejoin="round"/>
<path d="M134.541 250.17C128.265 207.894 64.6609 237.623 95.7734 278.269C101.307 285.499 109.901 286.517 117.583 291.085" fill="#FFC6B2"/>
<path d="M134.541 250.17C128.265 207.894 64.6609 237.623 95.7734 278.269C101.307 285.499 109.901 286.517 117.583 291.085" stroke="#294064" stroke-miterlimit="10" stroke-linecap="round" stroke-linejoin="round"/>
<path d="M119.309 268.747C119.309 268.747 114.024 266.974 112.833 262.879C111.38 257.883 116.798 256.026 116.798 256.026C112.992 253.313 113.847 250.072 117.551 247.939C114.838 245.091 117.849 239.099 122.904 243.047C125.019 236.174 131.531 237.67 133.783 243.559C133.783 243.559 134.028 240.243 136.909 239.655C139.904 239.042 155.362 244.123 133.862 255.32" fill="white"/>
<path d="M119.309 268.747C119.309 268.747 114.024 266.974 112.833 262.879C111.38 257.883 116.798 256.026 116.798 256.026C112.992 253.313 113.847 250.072 117.551 247.939C114.838 245.091 117.849 239.099 122.904 243.047C125.019 236.174 131.531 237.67 133.783 243.559C133.783 243.559 134.028 240.243 136.909 239.655C139.904 239.042 155.362 244.123 133.862 255.32" stroke="#294064" stroke-miterlimit="10" stroke-linecap="round" stroke-linejoin="round"/>
<path d="M135.852 258.618C136.852 221.678 172.506 219.073 203.191 199.563C221.985 187.615 235.766 220.036 218.588 240.919C206.541 255.565 190.204 253.016 173.617 262.212" fill="#FFC6B2"/>
<path d="M135.852 258.618C136.852 221.678 172.506 219.073 203.191 199.563C221.985 187.615 235.766 220.036 218.588 240.919C206.541 255.565 190.204 253.016 173.617 262.212" stroke="#294064" stroke-miterlimit="10" stroke-linecap="round" stroke-linejoin="round"/>
<path d="M205.233 242.846C204.776 236.277 211.367 233.554 216.335 237.343C216.335 237.343 219.042 226.492 230.145 231.32C231.076 223.512 241.015 227.36 238.159 232.652C243.797 231.036 244.725 234.095 244.835 238.954C250.603 234.255 255.938 240.608 251.889 246.625C251.889 246.625 255.778 245.393 258.052 247.546C264.282 253.448 256.113 264.562 256.113 264.562C256.113 264.562 250.968 269.027 245.717 268.511" fill="white"/>
<path d="M205.233 242.846C204.776 236.277 211.367 233.554 216.335 237.343C216.335 237.343 219.042 226.492 230.145 231.32C231.076 223.512 241.015 227.36 238.159 232.652C243.797 231.036 244.725 234.095 244.835 238.954C250.603 234.255 255.938 240.608 251.889 246.625C251.889 246.625 255.778 245.393 258.052 247.546C264.282 253.448 256.113 264.562 256.113 264.562C256.113 264.562 250.968 269.027 245.717 268.511" stroke="#294064" stroke-miterlimit="10" stroke-linecap="round" stroke-linejoin="round"/>
<path d="M280.8 290.366C279.354 244.231 185.985 234.003 168.321 237.996C149.026 242.358 136.382 252.036 119.702 264.613C99.8304 279.597 81.6997 294.47 89.25 306.864C103.487 330.233 151.357 293.656 151.357 293.656" fill="#FFC6B2"/>
<path d="M280.8 290.366C279.354 244.231 185.985 234.003 168.321 237.996C149.026 242.358 136.382 252.036 119.702 264.613C99.8304 279.597 81.6997 294.47 89.25 306.864C103.487 330.233 151.357 293.656 151.357 293.656" stroke="#294064" stroke-miterlimit="10" stroke-linecap="round" stroke-linejoin="round"/>
<path d="M116.456 298.982C112.208 294.386 114.284 288.987 118.537 287.562C115.752 283.487 119.068 278.032 124.004 278.881C121.326 273.381 127.095 267.743 133.073 269.784C134.399 261.512 143.289 264.022 142.08 271.009C145.783 268.817 151.268 266.926 154.601 273.358C159.97 266.716 167.603 277.991 154.181 285.819" fill="white"/>
<path d="M116.456 298.982C112.208 294.386 114.284 288.987 118.537 287.562C115.752 283.487 119.068 278.032 124.004 278.881C121.326 273.381 127.095 267.743 133.073 269.784C134.399 261.512 143.289 264.022 142.08 271.009C145.783 268.817 151.268 266.926 154.601 273.358C159.97 266.716 167.603 277.991 154.181 285.819" stroke="#294064" stroke-miterlimit="10" stroke-linecap="round" stroke-linejoin="round"/>
<path d="M216.169 271.904C212.808 267.212 212.852 260.795 220.108 263.84C215.723 259.423 221.639 254.12 226.501 257.694C226.501 257.694 225.416 254.007 228.878 252.594C231.758 251.419 234.573 254.475 234.573 254.475C237.397 247.228 245.289 252.138 241.32 257.831C241.32 257.831 245.923 255.727 247.131 258.842C247.947 260.944 245.327 262.645 245.327 262.645C245.327 262.645 249.838 262.038 249.88 265.205C249.906 267.181 247.051 268.102 247.051 268.102C247.051 268.102 250.339 267.076 252.384 268.819C254.004 270.201 253.593 272.336 253.593 272.336C256.76 269.299 260.07 270.861 260.826 273.276C260.826 273.276 266.801 265.304 271.111 273.92C276.093 269.754 280.496 271.935 278.423 278.866C286.204 274.642 285.318 286.486 280.396 289.896C267.728 298.672 237.747 291.853 224.39 283.971" fill="white"/>
<path d="M216.169 271.904C212.808 267.212 212.852 260.795 220.108 263.84C215.723 259.423 221.639 254.12 226.501 257.694C226.501 257.694 225.416 254.007 228.878 252.594C231.758 251.419 234.573 254.475 234.573 254.475C237.397 247.228 245.289 252.138 241.32 257.831C241.32 257.831 245.923 255.727 247.131 258.842C247.947 260.944 245.327 262.645 245.327 262.645C245.327 262.645 249.838 262.038 249.88 265.205C249.906 267.181 247.051 268.102 247.051 268.102C247.051 268.102 250.339 267.076 252.384 268.819C254.004 270.201 253.593 272.336 253.593 272.336C256.76 269.299 260.07 270.861 260.826 273.276C260.826 273.276 266.801 265.304 271.111 273.92C276.093 269.754 280.496 271.935 278.423 278.866C286.204 274.642 285.318 286.486 280.396 289.896C267.728 298.672 237.747 291.853 224.39 283.971" stroke="#294064" stroke-miterlimit="10" stroke-linecap="round" stroke-linejoin="round"/>
<path d="M313.511 354.945C318.484 343.351 309.283 299.198 287.08 287.525C260.809 273.714 216.203 267.322 200.489 266.902C174.901 266.217 111.997 295.719 87.4122 318.931C62.8277 342.143 88.1159 365.545 104.185 355.732C118.175 347.189 155.686 341.632 155.686 341.632" fill="#FFC6B2"/>
<path d="M313.511 354.945C318.484 343.351 309.283 299.198 287.08 287.525C260.809 273.714 216.203 267.322 200.489 266.902C174.901 266.217 111.997 295.719 87.4122 318.931C62.8277 342.143 88.1159 365.545 104.185 355.732C118.175 347.189 155.686 341.632 155.686 341.632" stroke="#294064" stroke-miterlimit="10" stroke-linecap="round" stroke-linejoin="round"/>
<path d="M121.092 343.942C113.313 337.657 119.857 329.645 125.727 327.834C122.751 319.886 130.494 317.236 134.616 318.268C134.616 318.268 136.79 307.192 144.857 315.274C146.101 306.569 153.417 307.877 156.517 314.644C158.008 310.579 162.764 310.05 164.074 314.959C167.284 311.708 171.672 312.444 173.533 316.535C177.91 314.181 180.943 314.728 182.126 319.863" fill="white"/>
<path d="M121.092 343.942C113.313 337.657 119.857 329.645 125.727 327.834C122.751 319.886 130.494 317.236 134.616 318.268C134.616 318.268 136.79 307.192 144.857 315.274C146.101 306.569 153.417 307.877 156.517 314.644C158.008 310.579 162.764 310.05 164.074 314.959C167.284 311.708 171.672 312.444 173.533 316.535C177.91 314.181 180.943 314.728 182.126 319.863" stroke="#294064" stroke-miterlimit="10" stroke-linecap="round" stroke-linejoin="round"/>
<path d="M195.591 310.233C188.912 305.268 188.917 295.597 199.252 298.079C197.545 293.289 204.199 286.755 208.34 293.719C213.437 285.099 219.706 289.04 219.855 298.417C222.426 293.561 225.466 295.663 227.054 299.972C231.944 295.049 238.866 302.456 237.816 308.185C236.07 317.719 214.378 315.25 209.141 315.118" fill="white"/>
<path d="M195.591 310.233C188.912 305.268 188.917 295.597 199.252 298.079C197.545 293.289 204.199 286.755 208.34 293.719C213.437 285.099 219.706 289.04 219.855 298.417C222.426 293.561 225.466 295.663 227.054 299.972C231.944 295.049 238.866 302.456 237.816 308.185C236.07 317.719 214.378 315.25 209.141 315.118" stroke="#294064" stroke-miterlimit="10" stroke-linecap="round" stroke-linejoin="round"/>
<path d="M315.838 355.097C282.381 278.958 199.048 297.543 123.269 339.977C100.841 352.536 84.2577 373.442 103.45 388.657C121.366 402.86 182.529 361.359 182.529 361.359C182.529 361.359 200.203 361.422 202.816 361.499" fill="#FFC6B2"/>
<path d="M315.838 355.097C282.381 278.958 199.048 297.543 123.269 339.977C100.841 352.536 84.2577 373.442 103.45 388.657C121.366 402.86 182.529 361.359 182.529 361.359C182.529 361.359 200.203 361.422 202.816 361.499" stroke="#294064" stroke-miterlimit="10" stroke-linecap="round" stroke-linejoin="round"/>
<path d="M160.633 388.762C154.658 393.263 149.266 388.413 152.471 382.814C143.584 385.477 139.896 378.414 144.171 372.024C134.432 368.128 134.955 353.901 146.523 353.901C146.892 339.068 160.08 347.538 160.08 347.538C162.017 343.039 171.126 335.977 173.775 349.751C178.886 344.739 183.004 349.805 181.545 354.807C187.312 349.69 195.532 361.365 189.13 366.628" fill="white"/>
<path d="M160.633 388.762C154.658 393.263 149.266 388.413 152.471 382.814C143.584 385.477 139.896 378.414 144.171 372.024C134.432 368.128 134.955 353.901 146.523 353.901C146.892 339.068 160.08 347.538 160.08 347.538C162.017 343.039 171.126 335.977 173.775 349.751C178.886 344.739 183.004 349.805 181.545 354.807C187.312 349.69 195.532 361.365 189.13 366.628" stroke="#294064" stroke-miterlimit="10" stroke-linecap="round" stroke-linejoin="round"/>
<path d="M197.846 355.961C189.341 344.769 200.751 342.144 200.751 342.144C199.096 336.708 202.623 334.535 206.492 335.765C201.634 327.257 210.616 326.13 216.659 328.034C219.582 322.77 229.367 318.641 230.426 327.439C234.835 327.608 237.795 329.861 235.75 334.535C239.338 330.405 241.634 334.26 241.422 338.409C244.436 336.064 245.746 339.638 246.103 342.247C255.292 340.187 249.996 356.901 247.508 360.266" fill="white"/>
<path d="M197.846 355.961C189.341 344.769 200.751 342.144 200.751 342.144C199.096 336.708 202.623 334.535 206.492 335.765C201.634 327.257 210.616 326.13 216.659 328.034C219.582 322.77 229.367 318.641 230.426 327.439C234.835 327.608 237.795 329.861 235.75 334.535C239.338 330.405 241.634 334.26 241.422 338.409C244.436 336.064 245.746 339.638 246.103 342.247C255.292 340.187 249.996 356.901 247.508 360.266" stroke="#294064" stroke-miterlimit="10" stroke-linecap="round" stroke-linejoin="round"/>
<path d="M261.095 346.899C252.477 341.802 254.949 333.647 262.275 337.011C261.134 331.507 267.871 323.307 271.537 331.393C276.969 326.83 279.115 333.331 279.115 338.26C282.173 334.858 283.653 337.481 284.021 341.075C295.279 338.33 291.038 352.439 279.944 354.837" fill="white"/>
<path d="M261.095 346.899C252.477 341.802 254.949 333.647 262.275 337.011C261.134 331.507 267.871 323.307 271.537 331.393C276.969 326.83 279.115 333.331 279.115 338.26C282.173 334.858 283.653 337.481 284.021 341.075C295.279 338.33 291.038 352.439 279.944 354.837" stroke="#294064" stroke-miterlimit="10" stroke-linecap="round" stroke-linejoin="round"/>
<path d="M320.346 377.358C315.715 397.134 261.992 400.492 228.09 401.005C203.939 401.37 168.337 400.22 169.378 372.015C170.482 342.14 262.16 345.593 283.068 345.016C299.007 344.575 327.619 346.297 320.346 377.358Z" fill="#FFC6B2" stroke="#294064" stroke-miterlimit="10" stroke-linecap="round" stroke-linejoin="round"/>
<path d="M39.3213 399.41C39.3213 399.41 27.5355 404.657 27.0707 404.849C22.4315 406.762 8.26568 414.61 14.0095 419.977C16.6634 422.456 20.4709 419.35 22.2639 417.808C28.5522 412.399 39.3213 399.41 39.3213 399.41Z" fill="white" stroke="#294064" stroke-miterlimit="10" stroke-linecap="round" stroke-linejoin="round"/>
<path d="M30.4575 385.326C30.4575 385.326 6.16029 385.519 8.68379 391.389C10.6856 396.046 30.4575 385.326 30.4575 385.326Z" fill="white" stroke="#294064" stroke-miterlimit="10" stroke-linecap="round" stroke-linejoin="round"/>
<path d="M66.8859 259.845C66.8859 259.845 61.9102 256.397 61.4293 256.099C58.3507 254.193 49.6806 248.367 46.6986 252.84C45.4254 254.75 48.2466 257.151 51.2019 257.834C56.3233 259.016 66.8859 259.845 66.8859 259.845Z" fill="white" stroke="#294064" stroke-miterlimit="10" stroke-linecap="round" stroke-linejoin="round"/>
<path d="M116.826 218.198C116.826 218.198 114.699 213.819 114.113 212.914C111.302 208.574 107.65 204.016 102.963 201.635C101.849 201.069 99.5171 199.982 98.4391 201.305C95.3041 205.15 109.128 213.136 112.028 215.377C112.909 216.058 116.826 218.198 116.826 218.198Z" fill="white" stroke="#294064" stroke-miterlimit="10" stroke-linecap="round" stroke-linejoin="round"/>
<path d="M113.403 201.624C113.403 201.624 107.187 187.083 104.91 184.414C103.918 183.252 102.041 180.988 100.352 183.173C99.4453 184.347 101.288 187.122 101.857 188.026C104.698 192.541 113.403 201.624 113.403 201.624Z" fill="white" stroke="#294064" stroke-miterlimit="10" stroke-linecap="round" stroke-linejoin="round"/>
<path d="M280.674 227.781C286.354 226.745 305.039 226.57 303.969 219.998C300.789 214.193 284.307 224.109 280.674 227.781Z" fill="white" stroke="#294064" stroke-miterlimit="10" stroke-linecap="round" stroke-linejoin="round"/>
<path d="M334.622 277.119C338.268 272.547 346.786 262.376 340.682 260.089C334.933 258.198 333.537 271.475 334.622 277.119Z" fill="white" stroke="#294064" stroke-miterlimit="10" stroke-linecap="round" stroke-linejoin="round"/>
<path d="M346.033 280.386C346.033 280.386 359.948 274.656 358.242 271.96C354.358 265.825 346.033 280.386 346.033 280.386Z" fill="white" stroke="#294064" stroke-miterlimit="10" stroke-linecap="round" stroke-linejoin="round"/>
<path d="M369.695 282.29C369.695 282.29 374.019 281.016 374.155 280.958C375.657 280.319 393.589 274.648 391.105 270.458C389.028 266.956 376.485 276.847 374.288 278.389C373.165 279.178 369.465 282.189 369.695 282.29Z" fill="white" stroke="#294064" stroke-miterlimit="10" stroke-linecap="round" stroke-linejoin="round"/>
<path d="M377.813 353.228C377.813 353.228 391.157 355.83 396.682 355.487C398.402 355.381 400.802 354.635 400.527 352.785C400.179 350.442 395.916 350.325 394.441 350.292C389.203 350.174 377.813 353.228 377.813 353.228Z" fill="white" stroke="#294064" stroke-miterlimit="10" stroke-linecap="round" stroke-linejoin="round"/>
<path d="M378.707 364.424C378.23 364.662 381.905 368.476 383.601 369.894C386.811 372.577 398.427 382.874 400.386 378.975C401.874 376.014 389.24 370.054 386.601 368.577C384.304 367.292 378.878 364.339 378.707 364.424Z" fill="white" stroke="#294064" stroke-miterlimit="10" stroke-linecap="round" stroke-linejoin="round"/>
<path d="M347.514 516.402C348.286 522.666 355.574 543.329 362.378 539.212C367.869 534.769 351.646 521.239 347.514 516.402Z" fill="white" stroke="#294064" stroke-miterlimit="10" stroke-linecap="round" stroke-linejoin="round"/>
<path d="M320.678 505.4C322.081 513.419 326.889 534.058 333.506 530.862C341.933 527.957 325.061 510.35 320.678 505.4Z" fill="white" stroke="#294064" stroke-miterlimit="10" stroke-linecap="round" stroke-linejoin="round"/>
<path d="M136.58 528.848C136.58 528.848 130.434 542.496 130.273 548.279C130.237 549.602 129.94 553.76 132.106 554.014C136.503 554.529 136.617 540.653 136.852 537.425C136.966 535.854 136.58 528.848 136.58 528.848Z" fill="white" stroke="#294064" stroke-miterlimit="10" stroke-linecap="round" stroke-linejoin="round"/>
<path d="M85.8945 426.246C85.8945 426.246 87.2322 433.816 87.6972 436.465C88.2874 439.828 92.0734 453.766 97.7441 450.195C99.6211 449.012 99.4551 445.946 96.2711 440.074C92.9958 434.037 85.8945 426.246 85.8945 426.246Z" fill="white" stroke="#294064" stroke-miterlimit="10" stroke-linecap="round" stroke-linejoin="round"/>
<path d="M134.732 443.098C134.732 443.098 144.106 458.553 147.773 454.886C148.684 453.975 148.358 452.758 146.759 451.185C144.951 449.408 134.732 443.098 134.732 443.098Z" fill="white" stroke="#294064" stroke-miterlimit="10" stroke-linecap="round" stroke-linejoin="round"/>
<path d="M273.86 412.91C273.86 412.91 274.647 419.8 274.749 420.281C275.344 423.072 276.295 433.703 280.328 433.906C283.567 434.069 283.719 430.242 282.579 427.162C280.795 422.344 273.86 412.91 273.86 412.91Z" fill="white" stroke="#294064" stroke-miterlimit="10" stroke-linecap="round" stroke-linejoin="round"/>
<path d="M102.912 523.699C102.912 521.681 104.548 520.045 106.566 520.045C108.584 520.045 110.22 521.681 110.22 523.699C110.22 525.717 108.584 527.353 106.566 527.353C104.548 527.353 102.912 525.717 102.912 523.699Z" fill="white" stroke="#294064" stroke-miterlimit="10" stroke-linejoin="round"/>
<path d="M98.6582 511.213C98.6582 509.195 100.294 507.559 102.312 507.559C104.33 507.559 105.966 509.195 105.966 511.213C105.966 513.231 104.33 514.867 102.312 514.867C100.294 514.867 98.6582 513.231 98.6582 511.213Z" fill="white" stroke="#294064" stroke-miterlimit="10" stroke-linejoin="round"/>
<path d="M76.2324 465.9C76.2324 463.882 77.8684 462.246 79.8865 462.246C81.9046 462.246 83.5406 463.882 83.5406 465.9C83.5406 467.918 81.9046 469.554 79.8865 469.554C77.8684 469.554 76.2324 467.918 76.2324 465.9Z" fill="white" stroke="#294064" stroke-miterlimit="10" stroke-linejoin="round"/>
<path d="M21.6953 316.818C21.6953 314.8 23.3313 313.164 25.3494 313.164C27.3675 313.164 29.0035 314.8 29.0035 316.818C29.0035 318.837 27.3675 320.473 25.3494 320.473C23.3313 320.473 21.6953 318.837 21.6953 316.818Z" fill="white" stroke="#294064" stroke-miterlimit="10" stroke-linejoin="round"/>
<path d="M34.1191 300.814C34.1191 298.796 35.7551 297.16 37.7732 297.16C39.7913 297.16 41.4273 298.796 41.4273 300.814C41.4273 302.832 39.7913 304.468 37.7732 304.468C35.7551 304.468 34.1191 302.832 34.1191 300.814Z" fill="white" stroke="#294064" stroke-miterlimit="10" stroke-linejoin="round"/>
<path d="M17.4844 303.13C17.4844 301.46 18.8376 300.107 20.5068 300.107C22.176 300.107 23.5292 301.46 23.5292 303.13C23.5292 304.799 22.176 306.152 20.5068 306.152C18.8376 306.152 17.4844 304.799 17.4844 303.13Z" fill="white" stroke="#294064" stroke-miterlimit="10" stroke-linejoin="round"/>
<path d="M144.887 187.382C144.887 185.283 146.588 183.582 148.687 183.582C150.785 183.582 152.486 185.283 152.486 187.382C152.486 189.48 150.785 191.181 148.687 191.181C146.588 191.181 144.887 189.48 144.887 187.382Z" fill="white" stroke="#294064" stroke-miterlimit="10" stroke-linejoin="round"/>
<path d="M170.522 184.791C170.522 182.693 172.223 180.992 174.321 180.992C176.42 180.992 178.121 182.693 178.121 184.791C178.121 186.889 176.42 188.59 174.321 188.59C172.223 188.59 170.522 186.889 170.522 184.791Z" fill="white" stroke="#294064" stroke-miterlimit="10" stroke-linejoin="round"/>
<path d="M289.092 195.674C289.092 193.576 290.793 191.875 292.892 191.875C294.99 191.875 296.691 193.576 296.691 195.674C296.691 197.773 294.99 199.474 292.892 199.474C290.793 199.474 289.092 197.773 289.092 195.674Z" fill="white" stroke="#294064" stroke-miterlimit="10" stroke-linejoin="round"/>
<path d="M263.603 211.998C263.603 209.9 265.304 208.199 267.402 208.199C269.5 208.199 271.201 209.9 271.201 211.998C271.201 214.096 269.5 215.797 267.402 215.797C265.304 215.797 263.603 214.096 263.603 211.998Z" fill="white" stroke="#294064" stroke-miterlimit="10" stroke-linejoin="round"/>
<path d="M363.843 307.944C363.843 305.845 365.544 304.145 367.642 304.145C369.74 304.145 371.441 305.845 371.441 307.944C371.441 310.042 369.74 311.743 367.642 311.743C365.544 311.743 363.843 310.042 363.843 307.944Z" fill="white" stroke="#294064" stroke-miterlimit="10" stroke-linejoin="round"/>
<path d="M362.833 320.059C362.833 317.961 364.534 316.26 366.632 316.26C368.731 316.26 370.431 317.961 370.431 320.059C370.431 322.158 368.731 323.859 366.632 323.859C364.534 323.859 362.833 322.158 362.833 320.059Z" fill="white" stroke="#294064" stroke-miterlimit="10" stroke-linejoin="round"/>
<path d="M369.468 423.373C369.468 421.275 371.169 419.574 373.267 419.574C375.365 419.574 377.066 421.275 377.066 423.373C377.066 425.471 375.365 427.172 373.267 427.172C371.169 427.172 369.468 425.471 369.468 423.373Z" fill="white" stroke="#294064" stroke-miterlimit="10" stroke-linejoin="round"/>
<path d="M380.604 444.227C380.604 442.128 382.305 440.428 384.403 440.428C386.502 440.428 388.203 442.128 388.203 444.227C388.203 446.325 386.502 448.026 384.403 448.026C382.305 448.026 380.604 446.325 380.604 444.227Z" fill="white" stroke="#294064" stroke-miterlimit="10" stroke-linejoin="round"/>
<path d="M334.978 484.804C334.978 482.705 336.679 481.004 338.778 481.004C340.876 481.004 342.577 482.705 342.577 484.804C342.577 486.902 340.876 488.603 338.778 488.603C336.679 488.603 334.978 486.902 334.978 484.804Z" fill="white" stroke="#294064" stroke-miterlimit="10" stroke-linejoin="round"/>
<path d="M350.304 490.297C350.304 488.199 352.005 486.498 354.103 486.498C356.201 486.498 357.902 488.199 357.902 490.297C357.902 492.396 356.201 494.097 354.103 494.097C352.005 494.097 350.304 492.396 350.304 490.297Z" fill="white" stroke="#294064" stroke-miterlimit="10" stroke-linejoin="round"/>
<path d="M155.388 447.192C155.388 445.094 157.089 443.393 159.187 443.393C161.286 443.393 162.987 445.094 162.987 447.192C162.987 449.29 161.286 450.991 159.187 450.991C157.089 450.991 155.388 449.29 155.388 447.192Z" fill="white" stroke="#294064" stroke-miterlimit="10" stroke-linejoin="round"/>
<path d="M186 459.373C186 457.275 187.701 455.574 189.799 455.574C191.897 455.574 193.598 457.275 193.598 459.373C193.598 461.472 191.897 463.173 189.799 463.173C187.701 463.173 186 461.472 186 459.373Z" fill="white" stroke="#294064" stroke-miterlimit="10" stroke-linejoin="round"/>
<path d="M132.257 305.865C132.257 303.767 133.958 302.066 136.056 302.066C138.154 302.066 139.855 303.767 139.855 305.865C139.855 307.963 138.154 309.664 136.056 309.664C133.958 309.664 132.257 307.963 132.257 305.865Z" fill="white" stroke="#294064" stroke-miterlimit="10" stroke-linejoin="round"/>
<path d="M203.604 283.32C203.604 281.221 205.305 279.52 207.404 279.52C209.502 279.52 211.203 281.221 211.203 283.32C211.203 285.418 209.502 287.119 207.404 287.119C205.305 287.119 203.604 285.418 203.604 283.32Z" fill="white" stroke="#294064" stroke-miterlimit="10" stroke-linejoin="round"/>
<path d="M243.141 321.617C243.141 319.519 244.841 317.818 246.94 317.818C249.038 317.818 250.739 319.519 250.739 321.617C250.739 323.716 249.038 325.416 246.94 325.416C244.841 325.416 243.141 323.716 243.141 321.617Z" fill="white" stroke="#294064" stroke-miterlimit="10" stroke-linejoin="round"/>
<path d="M316.96 439.915C316.96 437.816 318.661 436.115 320.759 436.115C322.857 436.115 324.558 437.816 324.558 439.915C324.558 442.013 322.857 443.714 320.759 443.714C318.661 443.714 316.96 442.013 316.96 439.915Z" fill="white" stroke="#294064" stroke-miterlimit="10" stroke-linejoin="round"/>
<path d="M55.6445 317.651C55.6445 315.553 57.3455 313.852 59.4437 313.852C61.542 313.852 63.243 315.553 63.243 317.651C63.243 319.75 61.542 321.451 59.4437 321.451C57.3455 321.451 55.6445 319.75 55.6445 317.651Z" fill="white" stroke="#294064" stroke-miterlimit="10" stroke-linejoin="round"/>
<path d="M318.055 306.338C318.055 304.24 319.756 302.539 321.854 302.539C323.952 302.539 325.653 304.24 325.653 306.338C325.653 308.437 323.952 310.138 321.854 310.138C319.756 310.138 318.055 308.437 318.055 306.338Z" fill="white" stroke="#294064" stroke-miterlimit="10" stroke-linejoin="round"/>
<path d="M352.727 436.447C352.727 434.853 354.019 433.561 355.613 433.561C357.208 433.561 358.5 434.853 358.5 436.447C358.5 438.042 357.208 439.333 355.613 439.333C354.019 439.333 352.727 438.042 352.727 436.447Z" fill="white" stroke="#294064" stroke-miterlimit="10" stroke-linejoin="round"/>
<path d="M58.9215 339.502C56.5358 339.904 55.2026 342.745 54.0222 344.857C52.3172 347.907 51.3217 351.439 51.2159 354.93C51.1515 357.054 51.2225 360.461 54.1213 360.549C57.872 360.663 61.7021 358.69 64.8551 356.922C69.7915 354.154 76.8814 343.565 76.8814 343.565L76.3536 338.101C76.3536 338.101 71.7536 332.729 66.7346 332.264C64.9114 332.094 63.2702 332.387 61.7277 333.344" fill="white"/>
<path d="M125.967 486.105C123.987 487.095 124.507 489.295 125.967 490.431C127.191 491.383 129.721 491.156 129.73 491.184C130.171 492.508 129.559 494.356 131.611 495.04C131.821 495.11 132.048 495.114 132.269 495.134C133.583 495.253 134.997 493.911 134.997 493.911C134.997 493.911 136.446 496.478 138.383 495.51C139.064 495.169 139.872 493.352 140.17 493.253C140.272 493.219 144.831 499.269 148.635 496.733" stroke="#294064" stroke-miterlimit="10" stroke-linecap="round" stroke-linejoin="round"/>
<path d="M176.496 513.325C177.536 518.036 181.953 515.787 181.953 515.787C182.042 515.804 183.747 522.323 188.62 519.206C188.737 519.131 190.592 523.387 194.409 522.314C197.291 521.503 195.853 518.705 195.853 518.705C195.853 518.705 199.265 518.626 199.749 516.158C199.942 515.173 198.614 513.057 198.614 513.057C198.614 513.057 200.654 513.827 202.045 513.515C204.729 512.914 205.334 511.121 205.334 511.121C205.334 511.121 206.41 512.484 208.131 511.865C210.768 510.915 211.448 507.453 211.448 507.453" stroke="#294064" stroke-miterlimit="10" stroke-linecap="round" stroke-linejoin="round"/>
<path d="M236.051 497.32C237.533 500.311 239.271 498.852 239.271 498.852C239.271 498.852 237.435 503.729 243.395 504.935C245.459 505.352 246.493 503.188 246.493 503.188C246.493 503.188 248.914 508.19 251.531 505.394" stroke="#294064" stroke-miterlimit="10" stroke-linecap="round" stroke-linejoin="round"/>
<path d="M268.593 490.128C268.593 490.128 269.159 492.035 271.378 491.408C272.88 490.984 273.113 489.785 273.113 489.785C273.113 489.785 274.313 491.768 276.037 491.304C277.079 491.023 278.586 488.714 278.586 488.714C278.586 488.714 280.84 488.978 281.485 488.228C282.13 487.478 281.167 485.713 281.167 485.713C281.167 485.713 287.935 484.546 285.441 480.301" stroke="#294064" stroke-miterlimit="10" stroke-linecap="round" stroke-linejoin="round"/>
<path d="M320.818 457.273C324.123 459.171 327.683 458.395 329.6 456.035C330.972 454.347 330.609 451.402 330.609 451.402C330.609 451.402 333.262 450.788 334.264 449.212C335.265 447.637 334.615 445.1 334.615 445.1C334.615 445.1 337.052 444.173 338.051 442.674C339.998 439.755 338.424 437.525 338.424 437.525C338.424 437.525 343.42 438.3 345.637 434.708C349.37 428.661 344.372 424.359 344.372 424.359" stroke="#294064" stroke-miterlimit="10" stroke-linecap="round" stroke-linejoin="round"/>
<path d="M352.264 426.841C352.264 426.841 354.274 425.323 354.502 424.086C354.73 422.849 353.176 421.894 353.176 421.894C353.176 421.894 355.908 419.013 353.376 416.957" stroke="#294064" stroke-miterlimit="10" stroke-linecap="round" stroke-linejoin="round"/>
<path d="M339.279 453.287C339.279 453.287 341.475 453.933 342.766 452.602C343.685 451.656 343.552 450.192 343.552 450.192C343.552 450.192 346.488 451.084 348.181 448.084C350.158 444.581 347.792 443.025 347.792 443.025" stroke="#294064" stroke-miterlimit="10" stroke-linecap="round" stroke-linejoin="round"/>
<path d="M334.697 337.043C336.957 332 346.182 335.09 346.869 339.221C351.279 338.679 354.047 338.452 352.493 343.684C356.345 344.786 356.914 347.596 354.894 350.909" stroke="#294064" stroke-miterlimit="10" stroke-linecap="round" stroke-linejoin="round"/>
<path d="M253.079 239.803C256.333 236.125 260.18 238.385 261.575 242.99C265.218 242.025 265.819 242.831 265.559 246.489C269.33 247.121 270.677 247.74 271.474 251.593" stroke="#294064" stroke-miterlimit="10" stroke-linecap="round" stroke-linejoin="round"/>
<path d="M139.764 223.014C142.117 220.443 143.469 220.829 146.772 221.654C148.932 217.989 148.809 217.955 153.146 218.262C153.649 212.916 157.281 210.506 162.274 212.878" stroke="#294064" stroke-miterlimit="10" stroke-linecap="round" stroke-linejoin="round"/>
<path d="M67.9902 290.009C70.4319 287.517 71.4866 289.207 73.1264 291.665C75.3473 288.435 75.564 289.149 79.2418 290.391C78.0705 286.518 79.1428 284.065 82.9747 282.872C82.0491 276.166 85.5749 276.419 89.1415 280.952C91.0466 278.359 92.6727 280.019 94.1935 282.057" stroke="#294064" stroke-miterlimit="10" stroke-linecap="round" stroke-linejoin="round"/>
<path d="M78.7565 313.002C77.3212 312.233 76.3925 310.693 76.4594 309.034C76.5409 307.01 80.1153 305.432 80.1153 305.432C80.1153 305.432 79.1825 302.968 79.6019 301.83C80.1737 300.278 82.1581 300.124 82.1581 300.124C82.1581 300.124 80.6112 293.918 86.1038 294.488" stroke="#294064" stroke-miterlimit="10" stroke-linecap="round" stroke-linejoin="round"/>
<path d="M99.1427 404.826C96.7367 405.262 85.5858 395.536 84.8374 391.801C84.8374 391.801 82.9163 394.811 81.5854 394.752C80.2545 394.693 79.5138 391.564 79.5138 391.564C74.7823 392.885 70.4905 392.435 74.3185 386.896C71.3003 384.831 67.43 378.744 68.5425 374.829C64.4433 372.488 60.292 367.212 67.7939 366.483C68.1012 363.067 68.9932 361.49 72.5435 362.02" stroke="#294064" stroke-miterlimit="10" stroke-linecap="round" stroke-linejoin="round"/>
<path d="M68.7656 356.671C65.2758 355.496 66.6325 353.043 67.706 350.24C67.706 350.24 66.1939 350.269 65.9678 349.128C65.7417 347.987 66.8016 345.677 66.8016 345.677C61.4364 345.882 55.4965 338.91 63.231 337.96C61.2093 333.539 61.3999 330.933 66.4083 329.864C66.2939 324.868 66.4282 325.299 71.8934 324.529C70.9414 319.75 74.2316 318.897 77.8325 320.973" stroke="#294064" stroke-miterlimit="10" stroke-linecap="round" stroke-linejoin="round"/>
<path d="M148.556 403.652C147.847 404.732 149.554 405.655 150.427 405.643C150.676 405.64 152.01 404.811 152.085 404.9C152.656 405.59 152.768 406.837 153.781 407.158C154.449 407.37 155.489 406.47 155.77 406.607C155.881 406.662 155.739 406.854 155.707 406.973C155.356 408.3 155.589 410.786 156.855 411.693C159.904 413.877 160.969 410.477 162.372 410.687C165.178 411.107 165.288 413.429 167.538 409.17" stroke="#294064" stroke-miterlimit="10" stroke-linecap="round" stroke-linejoin="round"/>
<path d="M20.1241 221.281C19.8227 220.688 20.0549 219.962 20.645 219.654L54.3542 202.039C54.9685 201.718 55.7265 201.975 56.0191 202.603L66.6827 225.496C66.9499 226.069 66.7322 226.752 66.1822 227.065L33.8392 245.482C33.2359 245.825 32.468 245.595 32.1537 244.976L20.1241 221.281Z" fill="#FFC567" stroke="#294064" stroke-miterlimit="10" stroke-linejoin="round"/>
<path d="M32.6523 245.14C32.6523 245.14 38.0689 222.528 42.3437 219.153C45.7177 216.488 65.9954 225.802 65.9954 225.802" fill="#FFC567"/>
<path d="M32.6523 245.14C32.6523 245.14 38.0689 222.528 42.3437 219.153C45.7177 216.488 65.9954 225.802 65.9954 225.802" stroke="#294064" stroke-miterlimit="10" stroke-linecap="round" stroke-linejoin="round"/>
<path d="M21.0586 220.516C26.5889 223.92 40.7538 230.414 46.7395 231.548C49.4296 232.057 50.7252 225.625 50.7252 225.625" fill="#294064"/>
<path d="M21.0586 220.516C26.5889 223.92 40.7538 230.414 46.7395 231.548C49.4296 232.057 50.7252 225.625 50.7252 225.625" stroke="#294064" stroke-miterlimit="10" stroke-linecap="round" stroke-linejoin="round"/>
<path d="M20.6582 220.292C20.6582 220.292 45.0673 231.658 48.3086 229.804C52.2927 227.526 55.2215 202.111 55.2215 202.111" fill="#FFC567"/>
<path d="M20.6582 220.292C20.6582 220.292 45.0673 231.658 48.3086 229.804C52.2927 227.526 55.2215 202.111 55.2215 202.111" stroke="#294064" stroke-miterlimit="10" stroke-linecap="round" stroke-linejoin="round"/>
<path d="M45.293 201.863C45.293 197.445 48.8746 193.863 53.2926 193.863C57.7107 193.863 61.2922 197.445 61.2922 201.863C61.2922 206.281 57.7107 209.863 53.2926 209.863C48.8746 209.863 45.293 206.281 45.293 201.863Z" fill="#FF814F" stroke="#294064" stroke-miterlimit="10" stroke-linejoin="round"/>
<path d="M52.646 200.161L50.4349 200.987L49.9648 199.729C50.5387 199.485 50.9327 199.293 51.1467 199.154C51.4878 198.933 51.729 198.656 51.8704 198.322C51.9673 198.094 52.0043 197.824 51.9815 197.512C51.966 197.326 51.9429 197.192 51.9122 197.109L53.449 196.535L56.9625 205.937L55.0691 206.645L52.646 200.161Z" fill="white" stroke="#294064" stroke-miterlimit="10" stroke-linejoin="round"/>
<path d="M38.1413 211.292C37.1623 208.081 37.8944 205.013 39.7764 204.439C41.6585 203.866 43.9777 206.003 44.9567 209.214C45.9356 212.425 45.2035 215.493 43.3215 216.067C41.4395 216.641 39.1202 214.503 38.1413 211.292Z" fill="white" stroke="#294064" stroke-miterlimit="10" stroke-linejoin="round"/>
<path d="M32.7955 213.917C31.8166 210.706 32.5487 207.638 34.4307 207.064C36.3128 206.49 38.632 208.628 39.611 211.839C40.5899 215.05 39.8578 218.118 37.9758 218.692C36.0938 219.266 33.7745 217.128 32.7955 213.917Z" fill="white" stroke="#294064" stroke-miterlimit="10" stroke-linejoin="round"/>
<path d="M37.248 214.283C37.248 212.523 37.6589 211.096 38.1657 211.096C38.6725 211.096 39.0834 212.523 39.0834 214.283C39.0834 216.043 38.6725 217.469 38.1657 217.469C37.6589 217.469 37.248 216.043 37.248 214.283Z" fill="#294064" stroke="#294064" stroke-miterlimit="10" stroke-linejoin="round"/>
<path d="M42.8359 212.037C42.8359 210.277 43.2467 208.85 43.7535 208.85C44.2604 208.85 44.6712 210.277 44.6712 212.037C44.6712 213.796 44.2604 215.223 43.7535 215.223C43.2467 215.223 42.8359 213.796 42.8359 212.037Z" fill="#294064" stroke="#294064" stroke-miterlimit="10" stroke-linejoin="round"/>
<path d="M39.7559 224.223C41.195 218.793 46.9997 220.449 46.9997 220.449" stroke="#294064" stroke-miterlimit="10" stroke-linecap="round" stroke-linejoin="round"/>
<path d="M47.4872 218.611C47.0448 219.328 47.0669 221.245 47.7353 221.867" stroke="#294064" stroke-miterlimit="10" stroke-linecap="round" stroke-linejoin="round"/>
<path d="M37.7773 224.166C39.6652 223.685 40.6598 225.385 40.6598 225.385" stroke="#294064" stroke-miterlimit="10" stroke-linecap="round" stroke-linejoin="round"/>
<path d="M12.8787 485.319C12.4582 484.803 12.5311 484.044 13.0424 483.618L42.2459 459.251C42.7781 458.807 43.5732 458.897 43.9926 459.449L59.2712 479.557C59.6541 480.061 59.5863 480.774 59.1153 481.197L31.417 506.058C30.9003 506.521 30.101 506.459 29.6625 505.921L12.8787 485.319Z" fill="#FFC567" stroke="#294064" stroke-miterlimit="10" stroke-linejoin="round"/>
<path d="M30.1846 505.977C30.1846 505.977 30.6792 482.731 34.1404 478.525C36.8723 475.206 58.6644 480.004 58.6644 480.004" fill="#FFC567"/>
<path d="M30.1846 505.977C30.1846 505.977 30.6792 482.731 34.1404 478.525C36.8723 475.206 58.6644 480.004 58.6644 480.004" stroke="#294064" stroke-miterlimit="10" stroke-linecap="round" stroke-linejoin="round"/>
<path d="M13.6299 484.372C19.7566 486.525 34.9771 489.866 41.0669 489.703C43.8039 489.63 43.705 483.07 43.705 483.07" fill="#294064"/>
<path d="M13.6299 484.372C19.7566 486.525 34.9771 489.866 41.0669 489.703C43.8039 489.63 43.705 483.07 43.705 483.07" stroke="#294064" stroke-miterlimit="10" stroke-linecap="round" stroke-linejoin="round"/>
<path d="M13.1904 484.242C13.1904 484.242 39.4555 490.17 42.2297 487.671C45.6396 484.599 43.1085 459.141 43.1085 459.141" fill="#FFC567"/>
<path d="M13.1904 484.242C13.1904 484.242 39.4555 490.17 42.2297 487.671C45.6396 484.599 43.1085 459.141 43.1085 459.141" stroke="#294064" stroke-miterlimit="10" stroke-linecap="round" stroke-linejoin="round"/>
<path d="M33.3538 461.004C32.4163 456.686 35.1562 452.426 39.4737 451.489C43.7911 450.551 48.0511 453.291 48.9887 457.609C49.9262 461.926 47.1863 466.186 42.8688 467.124C38.5514 468.061 34.2914 465.321 33.3538 461.004Z" fill="#FF6C78" stroke="#294064" stroke-miterlimit="10" stroke-linejoin="round"/>
<path d="M40.1776 457.779L38.1922 459.055L37.4658 457.925C37.9749 457.565 38.3192 457.294 38.4989 457.112C38.7853 456.824 38.9621 456.502 39.0295 456.146C39.0757 455.902 39.0546 455.63 38.9661 455.331C38.9115 455.152 38.8605 455.026 38.813 454.952L40.1929 454.064L45.6216 462.508L43.9215 463.6L40.1776 457.779Z" fill="white" stroke="#294064" stroke-miterlimit="10" stroke-linejoin="round"/>
<path d="M28.3663 471.735C26.7283 468.805 26.7926 465.651 28.51 464.691C30.2274 463.731 32.9475 465.328 34.5856 468.258C36.2236 471.188 36.1593 474.342 34.4419 475.302C32.7245 476.262 30.0043 474.665 28.3663 471.735Z" fill="white" stroke="#294064" stroke-miterlimit="10" stroke-linejoin="round"/>
<path d="M23.6994 475.434C22.0613 472.504 22.1257 469.35 23.8431 468.39C25.5605 467.43 28.2806 469.027 29.9186 471.957C31.5567 474.887 31.4923 478.041 29.7749 479.001C28.0575 479.961 25.3374 478.364 23.6994 475.434Z" fill="white" stroke="#294064" stroke-miterlimit="10" stroke-linejoin="round"/>
<path d="M27.6584 472.677C26.7063 471.197 26.2801 469.775 26.7063 469.501C27.1325 469.226 28.2499 470.204 29.2019 471.684C30.154 473.164 30.5802 474.586 30.154 474.86C29.7278 475.134 28.6104 474.157 27.6584 472.677Z" fill="#294064" stroke="#294064" stroke-miterlimit="10" stroke-linejoin="round"/>
<path d="M32.456 469.025C31.5152 467.538 31.0997 466.113 31.528 465.842C31.9563 465.571 33.0662 466.557 34.007 468.044C34.9478 469.531 35.3633 470.957 34.935 471.227C34.5067 471.498 33.3968 470.513 32.456 469.025Z" fill="#294064" stroke="#294064" stroke-miterlimit="10" stroke-linejoin="round"/>
<path d="M33.4476 483.7C32.2257 481.476 36.7776 475.842 39.2251 477.483C39.7626 477.844 39.9867 478.658 39.6218 479.202C38.9731 480.169 37.387 479.724 36.6103 480.746C35.8064 481.805 36.5664 483.548 35.5065 484.558C35.0108 485.03 34.1695 484.9 33.7579 484.393C33.6476 484.257 33.4704 483.742 33.4476 483.7Z" fill="white" stroke="#294064" stroke-miterlimit="10" stroke-linecap="round" stroke-linejoin="round"/>
<path d="M50.5922 521.474C50.1699 521.162 50.0771 520.568 50.3842 520.142L67.9268 495.809C68.2465 495.365 68.8717 495.278 69.3001 495.618L84.9095 507.991C85.3007 508.301 85.3885 508.859 85.1114 509.274L68.8154 533.69C68.5114 534.145 67.8885 534.254 67.4481 533.929L50.5922 521.474Z" fill="#FFC567" stroke="#294064" stroke-miterlimit="10" stroke-linejoin="round"/>
<path d="M67.8582 533.868C67.8582 533.868 63.6858 516.01 65.507 512.12C66.9445 509.049 84.5334 508.449 84.5334 508.449" fill="#FFC567"/>
<path d="M67.8582 533.868C67.8582 533.868 63.6858 516.01 65.507 512.12C66.9445 509.049 84.5334 508.449 84.5334 508.449" stroke="#294064" stroke-miterlimit="10" stroke-linecap="round" stroke-linejoin="round"/>
<path d="M50.9805 520.604C56.0829 521.049 68.3657 520.622 72.9867 519.306C75.0635 518.714 73.7038 513.721 73.7038 513.721" fill="#294064"/>
<path d="M50.9805 520.604C56.0829 521.049 68.3657 520.622 72.9867 519.306C75.0635 518.714 73.7038 513.721 73.7038 513.721" stroke="#294064" stroke-miterlimit="10" stroke-linecap="round" stroke-linejoin="round"/>
<path d="M50.6191 520.589C50.6191 520.589 71.8467 519.976 73.477 517.524C75.481 514.51 68.564 495.555 68.564 495.555" fill="#FFC567"/>
<path d="M50.6191 520.589C50.6191 520.589 71.8467 519.976 73.477 517.524C75.481 514.51 68.564 495.555 68.564 495.555" stroke="#294064" stroke-miterlimit="10" stroke-linecap="round" stroke-linejoin="round"/>
<path d="M61.4759 498.888C59.9145 495.773 61.174 491.982 64.2891 490.42C67.4042 488.859 71.1953 490.118 72.7567 493.233C74.3182 496.349 73.0587 500.14 69.9435 501.701C66.8284 503.263 63.0373 502.003 61.4759 498.888Z" fill="#5798E5" stroke="#294064" stroke-miterlimit="10" stroke-linejoin="round"/>
<path d="M66.0586 495.088L64.7916 496.452L64.0156 495.731C64.334 495.356 64.5441 495.082 64.6458 494.908C64.8082 494.632 64.8802 494.351 64.862 494.066C64.8496 493.871 64.7803 493.667 64.654 493.456C64.5773 493.33 64.5136 493.243 64.4629 493.196L65.3435 492.248L71.1437 497.636L70.0588 498.804L66.0586 495.088Z" fill="white" stroke="#294064" stroke-miterlimit="10" stroke-linejoin="round"/>
<path d="M59.7661 508.065C57.9411 506.147 57.3729 503.725 58.4971 502.655C59.6213 501.585 62.0122 502.273 63.8372 504.191C65.6623 506.109 66.2304 508.531 65.1062 509.601C63.982 510.67 61.5912 509.983 59.7661 508.065Z" fill="white" stroke="#294064" stroke-miterlimit="10" stroke-linejoin="round"/>
<path d="M56.9243 511.803C55.0993 509.885 54.5311 507.463 55.6553 506.393C56.7795 505.323 59.1704 506.011 60.9954 507.929C62.8205 509.847 63.3886 512.269 62.2644 513.339C61.1402 514.408 58.7494 513.721 56.9243 511.803Z" fill="white" stroke="#294064" stroke-miterlimit="10" stroke-linejoin="round"/>
<path d="M59.106 508.616C57.9966 507.782 57.2921 506.847 57.5323 506.528C57.7726 506.208 58.8666 506.625 59.9759 507.459C61.0852 508.293 61.7897 509.229 61.5495 509.548C61.3093 509.868 60.2153 509.45 59.106 508.616Z" fill="#294064" stroke="#294064" stroke-miterlimit="10" stroke-linejoin="round"/>
<path d="M61.7508 504.675C60.5915 503.912 59.8298 503.023 60.0495 502.689C60.2693 502.355 61.3873 502.703 62.5466 503.466C63.706 504.229 64.4677 505.118 64.2479 505.452C64.0282 505.786 62.9102 505.438 61.7508 504.675Z" fill="#294064" stroke="#294064" stroke-miterlimit="10" stroke-linejoin="round"/>
<path d="M65.4734 516.609C64.5692 512.272 69.2473 511.389 69.2473 511.389" stroke="#294064" stroke-miterlimit="10" stroke-linecap="round" stroke-linejoin="round"/>
<path d="M318.689 540.571C319.196 540.031 319.174 539.183 318.64 538.67L294.993 515.955C294.437 515.421 293.547 515.459 293.039 516.039L278.804 532.279C278.34 532.809 278.359 533.606 278.849 534.111L301.177 557.165C301.714 557.719 302.606 557.712 303.134 557.149L318.689 540.571Z" fill="#FFC567" stroke="#294064" stroke-miterlimit="10" stroke-linejoin="round"/>
<path d="M302.469 557.385C302.469 557.385 303.462 537.007 300.69 533.114C298.503 530.041 279.135 532.904 279.135 532.904" fill="#FFC567"/>
<path d="M302.469 557.385C302.469 557.385 303.462 537.007 300.69 533.114C298.503 530.041 279.135 532.904 279.135 532.904" stroke="#294064" stroke-miterlimit="10" stroke-linecap="round" stroke-linejoin="round"/>
<path d="M318.283 539.49C312.789 540.999 299.262 542.99 293.942 542.474C291.551 542.242 292.039 536.506 292.039 536.506" fill="#294064"/>
<path d="M318.283 539.49C312.789 540.999 299.262 542.99 293.942 542.474C291.551 542.242 292.039 536.506 292.039 536.506" stroke="#294064" stroke-miterlimit="10" stroke-linecap="round" stroke-linejoin="round"/>
<path d="M318.676 539.403C318.676 539.403 295.324 542.98 293.049 540.623C290.253 537.725 294.029 515.598 294.029 515.598" fill="#FFC567"/>
<path d="M318.676 539.403C318.676 539.403 295.324 542.98 293.049 540.623C290.253 537.725 294.029 515.598 294.029 515.598" stroke="#294064" stroke-miterlimit="10" stroke-linecap="round" stroke-linejoin="round"/>
<path d="M325.33 540.4C326.415 536.678 324.278 532.782 320.557 531.696C316.836 530.611 312.939 532.748 311.854 536.469C310.768 540.191 312.905 544.087 316.627 545.173C320.348 546.258 324.245 544.121 325.33 540.4Z" fill="#FF6C78" stroke="#294064" stroke-miterlimit="10" stroke-linejoin="round"/>
<path d="M319.516 536.925L317.991 535.523L318.789 534.656C319.208 535.008 319.514 535.24 319.708 535.352C320.016 535.531 320.329 535.61 320.646 535.588C320.863 535.573 321.089 535.495 321.324 535.353C321.464 535.267 321.56 535.195 321.612 535.139L322.671 536.113L319.058 540.044L316.712 542.597L315.406 541.396L319.516 536.925Z" fill="white" stroke="#294064" stroke-miterlimit="10" stroke-linejoin="round"/>
<path d="M306.16 527.526C307.773 525.061 307.91 522.297 306.466 521.352C305.022 520.406 302.543 521.637 300.929 524.101C299.316 526.565 299.179 529.329 300.623 530.275C302.068 531.221 304.546 529.99 306.16 527.526Z" fill="white" stroke="#294064" stroke-miterlimit="10" stroke-linejoin="round"/>
<path d="M310.019 531.049C311.632 528.584 311.77 525.82 310.325 524.875C308.881 523.929 306.402 525.16 304.789 527.624C303.175 530.088 303.038 532.852 304.483 533.798C305.927 534.744 308.406 533.513 310.019 531.049Z" fill="white" stroke="#294064" stroke-miterlimit="10" stroke-linejoin="round"/>
<path d="M307.485 528.096C308.641 527.072 309.338 525.972 309.043 525.639C308.748 525.306 307.572 525.867 306.417 526.891C305.262 527.915 304.564 529.015 304.859 529.348C305.154 529.681 306.33 529.12 307.485 528.096Z" fill="#294064" stroke="#294064" stroke-miterlimit="10" stroke-linejoin="round"/>
<path d="M303.797 524.501C304.929 523.452 305.602 522.336 305.3 522.01C304.997 521.684 303.834 522.27 302.702 523.32C301.57 524.37 300.897 525.485 301.199 525.811C301.501 526.137 302.664 525.551 303.797 524.501Z" fill="#294064" stroke="#294064" stroke-miterlimit="10" stroke-linejoin="round"/>
<path d="M301.624 538.02C301.746 533.093 296.449 533.061 296.449 533.061" stroke="#294064" stroke-miterlimit="10" stroke-linecap="round" stroke-linejoin="round"/>
<path d="M303.304 538.459C301.832 537.59 300.576 538.777 300.576 538.777" stroke="#294064" stroke-miterlimit="10" stroke-linecap="round" stroke-linejoin="round"/>
<path d="M308.885 225.172C309.091 224.46 309.831 224.047 310.545 224.245L342.144 233C342.887 233.206 343.308 233.991 343.069 234.724L336.359 255.251C336.141 255.92 335.445 256.31 334.76 256.146L303.543 248.699C302.792 248.52 302.343 247.749 302.558 247.007L308.885 225.172Z" fill="#FFC567" stroke="#294064" stroke-miterlimit="10" stroke-linejoin="round"/>
<path d="M302.694 247.7C302.694 247.7 319.716 236.453 324.478 236.852C328.237 237.166 335.652 255.286 335.652 255.286" fill="#FFC567"/>
<path d="M302.694 247.7C302.694 247.7 319.716 236.453 324.478 236.852C328.237 237.166 335.652 255.286 335.652 255.286" stroke="#294064" stroke-miterlimit="10" stroke-linecap="round" stroke-linejoin="round"/>
<path d="M310.021 224.971C311.526 230.467 316.712 243.117 319.87 247.43C321.289 249.369 325.973 246.023 325.973 246.023" fill="#294064"/>
<path d="M310.021 224.971C311.526 230.467 316.712 243.117 319.87 247.43C321.289 249.369 325.973 246.023 325.973 246.023" stroke="#294064" stroke-miterlimit="10" stroke-linecap="round" stroke-linejoin="round"/>
<path d="M309.897 224.588C309.897 224.588 318.729 246.5 321.917 247.254C325.836 248.182 342.943 233.648 342.943 233.648" fill="#FFC567"/>
<path d="M309.897 224.588C309.897 224.588 318.729 246.5 321.917 247.254C325.836 248.182 342.943 233.648 342.943 233.648" stroke="#294064" stroke-miterlimit="10" stroke-linecap="round" stroke-linejoin="round"/>
<path d="M336.73 227.538C339.377 224.706 343.819 224.557 346.65 227.204C349.482 229.852 349.631 234.294 346.984 237.125C344.336 239.957 339.895 240.106 337.063 237.458C334.232 234.811 334.082 230.369 336.73 227.538Z" fill="#FF814F" stroke="#294064" stroke-miterlimit="10" stroke-linejoin="round"/>
<path d="M342.463 230.852L340.551 230.057L341.004 228.969C341.518 229.157 341.885 229.27 342.105 229.309C342.456 229.372 342.777 229.338 343.068 229.209C343.267 229.121 343.452 228.97 343.624 228.757C343.726 228.628 343.792 228.528 343.821 228.457L345.15 229.01L341.768 237.141L340.131 236.46L342.463 230.852Z" fill="white" stroke="#294064" stroke-miterlimit="10" stroke-linejoin="round"/>
<path d="M325.753 228.503C326.176 225.588 325.133 223.025 323.425 222.777C321.716 222.529 319.989 224.691 319.566 227.606C319.143 230.521 320.185 233.085 321.894 233.332C323.602 233.58 325.33 231.418 325.753 228.503Z" fill="white" stroke="#294064" stroke-miterlimit="10" stroke-linejoin="round"/>
<path d="M330.738 230.068C331.16 227.153 330.118 224.589 328.41 224.341C326.701 224.094 324.973 226.256 324.551 229.17C324.128 232.085 325.17 234.649 326.879 234.897C328.587 235.145 330.315 232.983 330.738 230.068Z" fill="white" stroke="#294064" stroke-miterlimit="10" stroke-linejoin="round"/>
<path d="M326.925 230.978C326.692 229.452 326.146 228.269 325.706 228.337C325.267 228.404 325.1 229.696 325.333 231.222C325.567 232.748 326.113 233.931 326.552 233.864C326.992 233.796 327.159 232.505 326.925 230.978Z" fill="#294064" stroke="#294064" stroke-miterlimit="10" stroke-linejoin="round"/>
<path d="M321.78 229.772C321.547 228.246 321.001 227.063 320.561 227.13C320.122 227.198 319.955 228.489 320.189 230.016C320.422 231.542 320.968 232.725 321.407 232.657C321.847 232.59 322.014 231.298 321.78 229.772Z" fill="#294064" stroke="#294064" stroke-miterlimit="10" stroke-linejoin="round"/>
<path d="M321.319 238.355C320.888 240.304 323.818 241.719 324.24 239.34C324.564 237.507 321.672 236.755 321.319 238.355Z" fill="white" stroke="#294064" stroke-miterlimit="10" stroke-linecap="round" stroke-linejoin="round"/>
<path d="M313.613 184.173C313.476 183.255 314.103 182.398 315.019 182.25L355.576 175.711C356.529 175.557 357.418 176.231 357.529 177.191L360.613 204.071C360.714 204.947 360.125 205.754 359.26 205.926L319.821 213.754C318.872 213.942 317.959 213.299 317.816 212.342L313.613 184.173Z" fill="#FFC567" stroke="#294064" stroke-miterlimit="10" stroke-linejoin="round"/>
<path d="M318.334 213.06C318.334 213.06 331.841 191.361 337.472 189.327C341.917 187.721 359.827 204.481 359.827 204.481" fill="#FFC567"/>
<path d="M318.334 213.06C318.334 213.06 331.841 191.361 337.472 189.327C341.917 187.721 359.827 204.481 359.827 204.481" stroke="#294064" stroke-miterlimit="10" stroke-linecap="round" stroke-linejoin="round"/>
<path d="M314.801 183.35C319.386 188.822 331.901 200.518 337.749 203.78C340.378 205.246 343.964 198.989 343.964 198.989" fill="#294064"/>
<path d="M314.801 183.35C319.386 188.822 331.901 200.518 337.749 203.78C340.378 205.246 343.964 198.989 343.964 198.989" stroke="#294064" stroke-miterlimit="10" stroke-linecap="round" stroke-linejoin="round"/>
<path d="M314.46 182.979C314.46 182.979 335.966 203.316 339.99 202.509C344.937 201.518 356.824 176.031 356.824 176.031" fill="#FFC567"/>
<path d="M314.46 182.979C314.46 182.979 335.966 203.316 339.99 202.509C344.937 201.518 356.824 176.031 356.824 176.031" stroke="#294064" stroke-miterlimit="10" stroke-linecap="round" stroke-linejoin="round"/>
<path d="M346.556 172.321C348.092 167.713 353.071 165.223 357.679 166.758C362.286 168.294 364.777 173.273 363.241 177.881C361.706 182.488 356.726 184.979 352.119 183.443C347.511 181.908 345.021 176.928 346.556 172.321Z" fill="#5798E5" stroke="#294064" stroke-miterlimit="10" stroke-linejoin="round"/>
<path d="M354.817 173.1L352.224 173.193L352.171 171.718C352.854 171.663 353.331 171.6 353.603 171.529C354.035 171.417 354.383 171.212 354.647 170.913C354.827 170.708 354.96 170.44 355.044 170.107C355.093 169.907 355.115 169.759 355.112 169.663L356.914 169.598L357.311 180.624L355.09 180.704L354.817 173.1Z" fill="white" stroke="#294064" stroke-miterlimit="10" stroke-linejoin="round"/>
<path d="M333.213 179.801C331.804 176.39 329.041 174.295 327.042 175.121C325.043 175.946 324.565 179.38 325.973 182.791C327.382 186.202 330.146 188.297 332.145 187.471C334.144 186.646 334.621 183.212 333.213 179.801Z" fill="white" stroke="#294064" stroke-miterlimit="10" stroke-linejoin="round"/>
<path d="M339.585 178.3C338.176 174.889 335.414 172.794 333.415 173.619C331.416 174.445 330.937 177.879 332.346 181.29C333.755 184.7 336.517 186.796 338.516 185.97C340.515 185.144 340.994 181.71 339.585 178.3Z" fill="white" stroke="#294064" stroke-miterlimit="10" stroke-linejoin="round"/>
<path d="M335.781 181.882C334.553 180.387 333.209 179.462 332.778 179.815C332.347 180.169 332.994 181.667 334.222 183.162C335.449 184.657 336.794 185.582 337.224 185.229C337.655 184.875 337.008 183.377 335.781 181.882Z" fill="#294064" stroke="#294064" stroke-miterlimit="10" stroke-linejoin="round"/>
<path d="M329.745 183.708C328.517 182.214 327.173 181.288 326.742 181.642C326.312 181.996 326.958 183.494 328.186 184.989C329.414 186.484 330.758 187.409 331.188 187.055C331.619 186.702 330.973 185.203 329.745 183.708Z" fill="#294064" stroke="#294064" stroke-miterlimit="10" stroke-linejoin="round"/>
<path d="M333.012 193.715C336.4 188.552 341.878 192.297 341.878 192.297" stroke="#294064" stroke-miterlimit="10" stroke-linecap="round" stroke-linejoin="round"/>
<path d="M51.4163 167.264C51.3552 166.702 51.7581 166.194 52.32 166.127L84.4188 162.259C85.0038 162.189 85.5292 162.621 85.5729 163.209L87.1666 184.617C87.2065 185.153 86.8281 185.631 86.2967 185.714L55.0429 190.63C54.4599 190.722 53.9187 190.308 53.855 189.721L51.4163 167.264Z" fill="#FFC567" stroke="#294064" stroke-miterlimit="10" stroke-linejoin="round"/>
<path d="M54.2021 190.003C54.2021 190.003 65.3091 173.654 69.7229 172.256C73.2067 171.152 86.5283 184.655 86.5283 184.655" fill="#FFC567"/>
<path d="M54.2021 190.003C54.2021 190.003 65.3091 173.654 69.7229 172.256C73.2067 171.152 86.5283 184.655 86.5283 184.655" stroke="#294064" stroke-miterlimit="10" stroke-linecap="round" stroke-linejoin="round"/>
<path d="M52.3896 166.938C55.763 171.306 65.072 180.731 69.4903 183.432C71.476 184.646 74.4403 179.922 74.4403 179.922" fill="#294064"/>
<path d="M52.3896 166.938C55.763 171.306 65.072 180.731 69.4903 183.432C71.476 184.646 74.4403 179.922 74.4403 179.922" stroke="#294064" stroke-miterlimit="10" stroke-linecap="round" stroke-linejoin="round"/>
<path d="M52.1377 166.641C52.1377 166.641 68.1266 183.018 71.2611 182.519C75.1139 181.906 85.0858 162.58 85.0858 162.58" fill="#FFC567"/>
<path d="M52.1377 166.641C52.1377 166.641 68.1266 183.018 71.2611 182.519C75.1139 181.906 85.0858 162.58 85.0858 162.58" stroke="#294064" stroke-miterlimit="10" stroke-linecap="round" stroke-linejoin="round"/>
<path d="M77.2668 159.396C78.5955 155.883 82.5202 154.113 86.0329 155.441C89.5456 156.77 91.3161 160.695 89.9875 164.208C88.6588 167.72 84.7341 169.491 81.2213 168.162C77.7086 166.833 75.9381 162.909 77.2668 159.396Z" fill="#FF6C78" stroke="#294064" stroke-miterlimit="10" stroke-linejoin="round"/>
<path d="M83.6256 160.253L81.6191 160.245L81.6237 159.104C82.1533 159.082 82.5242 159.048 82.7362 159.002C83.0739 158.929 83.3491 158.781 83.5618 158.558C83.7075 158.406 83.8182 158.202 83.8937 157.948C83.9375 157.795 83.9595 157.681 83.9598 157.607L85.3544 157.612L85.3203 166.144L83.6022 166.137L83.6256 160.253Z" fill="white" stroke="#294064" stroke-miterlimit="10" stroke-linejoin="round"/>
<path d="M68.7458 164.744C68.9332 161.896 70.4379 159.677 72.1069 159.787C73.7758 159.897 74.9769 162.294 74.7896 165.141C74.6023 167.988 73.0975 170.208 71.4285 170.098C69.7596 169.988 68.5585 167.591 68.7458 164.744Z" fill="white" stroke="#294064" stroke-miterlimit="10" stroke-linejoin="round"/>
<path d="M63.7058 165.221C63.8932 162.373 65.3979 160.154 67.0669 160.264C68.7358 160.374 69.9369 162.771 69.7496 165.618C69.5622 168.466 68.0575 170.685 66.3885 170.575C64.7196 170.465 63.5185 168.068 63.7058 165.221Z" fill="white" stroke="#294064" stroke-miterlimit="10" stroke-linejoin="round"/>
<path d="M66.9297 167.651C67.6517 166.341 68.5428 165.447 68.9201 165.655C69.2974 165.863 69.0181 167.094 68.2962 168.404C67.5742 169.714 66.6831 170.608 66.3058 170.4C65.9285 170.192 66.2078 168.961 66.9297 167.651Z" fill="#294064" stroke="#294064" stroke-miterlimit="10" stroke-linejoin="round"/>
<path d="M71.8852 167.366C72.6146 166.06 73.5107 165.172 73.8869 165.382C74.263 165.592 73.9767 166.821 73.2473 168.127C72.5179 169.433 71.6217 170.321 71.2456 170.111C70.8695 169.901 71.1558 168.672 71.8852 167.366Z" fill="#294064" stroke="#294064" stroke-miterlimit="10" stroke-linejoin="round"/>
<path d="M70.7665 174.038C69.5607 174.213 67.3269 176.7 69.3097 176.852C72.66 177.108 72.8152 173.74 70.7665 174.038Z" fill="white" stroke="#294064" stroke-miterlimit="10" stroke-linecap="round" stroke-linejoin="round"/>
<path d="M94.8077 323.113C91.8255 321.963 85.1778 326.384 83.1053 330.637C74.2111 348.889 97.4579 357.767 104.424 347.326C104.424 347.326 100.285 340.65 97.8809 334.596C95.4779 328.543 94.8077 323.113 94.8077 323.113Z" fill="#FF814F" stroke="#294064" stroke-miterlimit="10" stroke-linecap="round" stroke-linejoin="round"/>
<path d="M111.157 357.077C107.938 358.748 103.574 363.09 101.729 366.616C96.1744 377.23 105.61 388.672 115.537 385.819C117.928 385.132 122.372 382.987 122.372 382.987C122.372 382.987 115.918 370.864 114.377 366.869C114.078 366.093 111.288 357.009 111.157 357.077Z" fill="#FF814F" stroke="#294064" stroke-miterlimit="10" stroke-linecap="round" stroke-linejoin="round"/>
<path d="M200.977 356.249C191.855 354.812 181.669 361.275 178.139 370.298C175.174 377.874 179.313 387.292 187.612 390.247C192.811 392.098 201.329 393.033 203.063 391.746C206.536 389.168 206.278 383.257 204.946 372.479C204.496 368.838 205.823 357.012 200.977 356.249Z" fill="#FF814F" stroke="#294064" stroke-miterlimit="10" stroke-linecap="round" stroke-linejoin="round"/>
<path d="M361 372.981C356.183 368.83 336.929 405.563 341.366 408.071C342.605 409.224 351.469 400.012 356.378 391.239C361.287 382.467 363.176 373.602 361 372.981Z" fill="#FF814F" stroke="#294064" stroke-miterlimit="10" stroke-linecap="round" stroke-linejoin="round"/>
<path d="M209.342 197.727C206.951 193.428 188.964 203.517 185.637 206.444C183.681 208.166 181.786 209.845 182.168 211.295C182.486 212.506 188.396 210.62 189.049 210.393C191.76 209.452 210.827 200.396 209.342 197.727Z" fill="#FF814F" stroke="#294064" stroke-miterlimit="10" stroke-linecap="round" stroke-linejoin="round"/>
<path d="M102.731 286.547C100.346 284.539 95.6897 289.529 94.4648 291.286C90.897 296.402 89.8552 302.912 97.2367 310.069L106.538 303.951C104.571 300.208 102.74 294.95 102.664 291.123C102.634 289.628 103.653 287.324 102.731 286.547Z" fill="#FF814F" stroke="#294064" stroke-miterlimit="10" stroke-linecap="round" stroke-linejoin="round"/>
<path d="M180.27 377.375C181.054 383.97 187.156 386.1 192.395 387.985" stroke="white" stroke-miterlimit="10" stroke-linecap="round" stroke-linejoin="round"/>
<path d="M195.609 388.848C196.658 389.225 198.544 389.039 199.65 389.046" stroke="white" stroke-miterlimit="10" stroke-linecap="round" stroke-linejoin="round"/>
<path d="M103.58 378.932C102.278 375.374 101.928 371.276 104.321 368.006" stroke="white" stroke-miterlimit="10" stroke-linecap="round" stroke-linejoin="round"/>
<path d="M105.439 366.036C105.615 365.307 106.238 364.564 106.706 364.01" stroke="white" stroke-miterlimit="10" stroke-linecap="round" stroke-linejoin="round"/>
<path d="M85.3902 344.259C82.4501 340.961 82.8561 334.961 85.4375 331.67" stroke="white" stroke-miterlimit="10" stroke-linecap="round" stroke-linejoin="round"/>
<path d="M93.3621 298.185C93.0339 296.952 94.9803 293.585 95.7925 292.867" stroke="white" stroke-miterlimit="10" stroke-linecap="round" stroke-linejoin="round"/>
<path d="M97.3271 290.806C97.6941 290.174 98.2771 289.68 98.8541 289.25" stroke="white" stroke-miterlimit="10" stroke-linecap="round" stroke-linejoin="round"/>
<path d="M206.37 198.523C204.98 200.33 202.102 201.681 200.135 202.762" stroke="white" stroke-miterlimit="10" stroke-linecap="round" stroke-linejoin="round"/>
<path d="M198.144 203.934C197.757 204.096 197.364 204.339 197.003 204.532" stroke="white" stroke-miterlimit="10" stroke-linecap="round" stroke-linejoin="round"/>
<path d="M350.47 396.689C352.671 394.114 354.54 391.296 356.161 388.326" stroke="white" stroke-miterlimit="10" stroke-linecap="round" stroke-linejoin="round"/>
</svg>
