<svg width="414" height="860" viewBox="0 0 414 860" fill="none" xmlns="http://www.w3.org/2000/svg">
<rect width="414" height="860" fill="#D9CFC3"/>
<mask id="mask0_120_24423" style="mask-type:luminance" maskUnits="userSpaceOnUse" x="0" y="-87" width="404" height="853">
<path d="M403.752 -86.9883H0V765.727H403.752V-86.9883Z" fill="white"/>
</mask>
<g mask="url(#mask0_120_24423)">
<path d="M77.6571 273.589C138.288 277.458 174.419 195.888 139.456 165.908C79.76 114.722 55.92 224.938 88.2873 216.231C94.8531 214.465 95.5189 205.545 90.8704 196.492C86.2218 187.438 72.8661 179.136 62.1456 177C33.7742 171.348 -0.866607 186.039 -34.2725 238.198" stroke="#294064" stroke-width="1.02466" stroke-miterlimit="10" stroke-linejoin="round" stroke-dasharray="9.52 9.52"/>
<path d="M329.388 358.302C329.388 358.302 319.935 319.167 343.037 294.631C347.86 289.509 354.41 286.656 358.863 287.377C376.374 290.216 366.671 326.587 358.53 323.406C348.2 319.37 359.91 294.627 363.867 287.324C379.018 259.361 406.477 246.72 436.8 240.07" stroke="#294064" stroke-width="1.02466" stroke-miterlimit="10" stroke-linejoin="round" stroke-dasharray="9.52 9.52"/>
</g>
<mask id="mask1_120_24423" style="mask-type:luminance" maskUnits="userSpaceOnUse" x="0" y="-87" width="414" height="853">
<path d="M414 -86.9883H0V765.727H414V-86.9883Z" fill="white"/>
</mask>
<g mask="url(#mask1_120_24423)">
<path d="M10.167 507.436C10.167 502.029 36.1627 497.645 68.2301 497.645C100.298 497.645 126.294 502.029 126.294 507.436C126.294 512.845 100.298 517.229 68.2301 517.229C36.1627 517.229 10.167 512.845 10.167 507.436Z" fill="#294064"/>
<path d="M113.963 508.169C113.963 499.455 152.427 492.391 199.875 492.391C247.323 492.391 285.787 499.455 285.787 508.169C285.787 516.882 247.323 523.947 199.875 523.947C152.427 523.947 113.963 516.882 113.963 508.169Z" fill="#294064"/>
<path d="M318.237 496.964C318.237 490.766 344.247 485.742 376.332 485.742C408.417 485.742 434.428 490.766 434.428 496.964C434.428 503.161 408.417 508.185 376.332 508.185C344.247 508.185 318.237 503.161 318.237 496.964Z" fill="#294064"/>
</g>
<path d="M150.02 400.516C147.998 414.074 147.998 414.074 145.978 427.633C172.667 433.639 186.56 430.699 186.56 430.699C186.56 430.699 183.756 381.078 182.859 367.73" fill="#8F8530"/>
<path d="M150.02 400.516C147.998 414.074 147.998 414.074 145.978 427.633C172.667 433.639 186.56 430.699 186.56 430.699C186.56 430.699 183.756 381.078 182.859 367.73" stroke="#294064" stroke-width="1.05435" stroke-miterlimit="10" stroke-linecap="round" stroke-linejoin="round"/>
<path d="M241.756 399.935C253.07 409.198 272.213 432.662 272.213 432.662L298.627 410.241C298.627 410.241 265.847 376.576 248.771 364.93" fill="#8F8530"/>
<path d="M241.756 399.935C253.07 409.198 272.213 432.662 272.213 432.662L298.627 410.241C298.627 410.241 265.847 376.576 248.771 364.93" stroke="#294064" stroke-width="1.05435" stroke-miterlimit="10" stroke-linecap="round" stroke-linejoin="round"/>
<path d="M340.067 483.894C343.9 480.729 342.616 480.435 340.407 477C339.037 474.87 337.857 472.195 337.253 469.774C336.482 466.68 336.101 463.865 336.242 460.689C336.252 460.462 336.4 460.126 336.201 460.008C334.816 459.186 327.4 469.415 326.814 470.621C325.453 473.42 324.911 476.785 324.442 479.818" fill="#E4AC98"/>
<path d="M340.067 483.894C343.9 480.729 342.616 480.435 340.407 477C339.037 474.87 337.857 472.195 337.253 469.774C336.482 466.68 336.101 463.865 336.242 460.689C336.252 460.462 336.4 460.126 336.201 460.008C334.816 459.186 327.4 469.415 326.814 470.621C325.453 473.42 324.911 476.785 324.442 479.818" stroke="#294064" stroke-width="1.05435" stroke-miterlimit="10" stroke-linecap="round" stroke-linejoin="round"/>
<path d="M146.469 498.452C146.469 505.749 154.655 499.542 157.279 498.187C166.427 493.46 169.72 479.145 158.913 474.165C156.705 473.148 154.801 472.959 152.373 473.279C149.252 473.691 146.569 475.06 143.926 476.647" fill="#E4AC98"/>
<path d="M146.469 498.452C146.469 505.749 154.655 499.542 157.279 498.187C166.427 493.46 169.72 479.145 158.913 474.165C156.705 473.148 154.801 472.959 152.373 473.279C149.252 473.691 146.569 475.06 143.926 476.647" stroke="#294064" stroke-width="1.05435" stroke-miterlimit="10" stroke-linecap="round" stroke-linejoin="round"/>
<path d="M132.96 461.544C126.568 466.32 116.839 490.758 122.442 497.24C127.576 503.177 143.884 501.898 149.806 502.183C150.413 497.507 149.972 487.748 155.407 485.042C164.768 480.382 182.111 484.596 187.989 474.248C192.54 466.236 187.729 455.657 187.681 447.129" fill="#FFC6B2"/>
<path d="M132.96 461.544C126.568 466.32 116.839 490.758 122.442 497.24C127.576 503.177 143.884 501.898 149.806 502.183C150.413 497.507 149.972 487.748 155.407 485.042C164.768 480.382 182.111 484.596 187.989 474.248C192.54 466.236 187.729 455.657 187.681 447.129" stroke="#294064" stroke-width="1.05435" stroke-miterlimit="10" stroke-linecap="round" stroke-linejoin="round"/>
<path d="M291.417 476.091C294.494 485.047 304.546 502.162 316.472 501.084C320.642 500.707 341.548 485.773 340.518 483.22C339.921 481.74 330.279 471.106 335.488 466.777C341.355 461.903 350.497 463.357 357.932 461.379C372.505 457.503 388.677 434.046 392.499 426.818C397.548 417.269 392.862 404.569 381.901 406.742" fill="#FFC6B2"/>
<path d="M291.417 476.091C294.494 485.047 304.546 502.162 316.472 501.084C320.642 500.707 341.548 485.773 340.518 483.22C339.921 481.74 330.279 471.106 335.488 466.777C341.355 461.903 350.497 463.357 357.932 461.379C372.505 457.503 388.677 434.046 392.499 426.818C397.548 417.269 392.862 404.569 381.901 406.742" stroke="#294064" stroke-width="1.05435" stroke-miterlimit="10" stroke-linecap="round" stroke-linejoin="round"/>
<path d="M185.543 457.466C184.725 446.902 193.063 424.755 187.473 417.584C185.004 414.418 180.731 417.899 179.232 415.98C165.207 398.031 161.906 414.652 153.213 414.677C144.521 414.701 146.643 410.959 145.913 417.619C144.116 434.038 129.356 450.269 129.545 463.504C129.624 469.056 141.813 469.744 151.221 471.57C162.116 473.686 167.022 475.47 167.022 475.47C167.022 475.47 186.901 474.972 185.543 457.466Z" fill="#E35A65" stroke="#294064" stroke-width="1.05435" stroke-miterlimit="10" stroke-linecap="round" stroke-linejoin="round"/>
<path d="M295.926 478.978C309.848 476.987 314.131 460.72 331.096 458.128C351.015 455.086 369.819 449.313 383.887 426.562C387.435 420.824 394.616 406.82 384.424 405.554C373.504 404.198 347.867 419.014 328.573 419.701C311.927 420.293 305.295 405.1 293.244 402.938C290.492 402.443 286.697 407.928 285.435 408.116C282.968 408.483 276.188 406.29 271.964 409.426C267.74 412.563 270.122 418.429 268.539 420.665C266.404 423.679 261.932 425.32 262.736 429.339C263.625 433.775 270.421 443.758 272.753 447.743C278.367 457.343 282.573 480.888 295.926 478.978Z" fill="#E35A65" stroke="#294064" stroke-width="1.05435" stroke-miterlimit="10" stroke-linecap="round" stroke-linejoin="round"/>
<path d="M286.788 354.38C293.935 352.727 308.023 355.956 314.869 351.154C323.516 345.088 327.756 333.036 340.905 335.525C350.881 337.413 343.343 350.135 342.72 354.795C342.227 358.48 348.404 363.481 348.843 367.291C349.493 372.933 344.472 378.244 339.735 380.544C327.257 386.604 303.328 386.754 290.129 384.978C284.611 384.235 278.81 384.306 273.367 383.138C272.667 382.988 267.493 382.182 268.26 381.053" fill="#BEAA00"/>
<path d="M286.788 354.38C293.935 352.727 308.023 355.956 314.869 351.154C323.516 345.088 327.756 333.036 340.905 335.525C350.881 337.413 343.343 350.135 342.72 354.795C342.227 358.48 348.404 363.481 348.843 367.291C349.493 372.933 344.472 378.244 339.735 380.544C327.257 386.604 303.328 386.754 290.129 384.978C284.611 384.235 278.81 384.306 273.367 383.138C272.667 382.988 267.493 382.182 268.26 381.053" stroke="#294064" stroke-width="1.05435" stroke-miterlimit="10" stroke-linecap="round" stroke-linejoin="round"/>
<path d="M343.737 368.65C340.913 370.087 338.141 372.971 337.805 376.157C335.811 395.039 382.249 377.145 356.797 365.309" fill="#BEAA00"/>
<path d="M343.737 368.65C340.913 370.087 338.141 372.971 337.805 376.157C335.811 395.039 382.249 377.145 356.797 365.309" stroke="#294064" stroke-width="1.05435" stroke-miterlimit="10" stroke-linecap="round" stroke-linejoin="round"/>
<path d="M348.024 356.02C338.7 356.012 330.578 370.334 343.417 374.033C359.232 378.588 375.339 360.062 357.45 351.402" fill="#BEAA00"/>
<path d="M348.024 356.02C338.7 356.012 330.578 370.334 343.417 374.033C359.232 378.588 375.339 360.062 357.45 351.402" stroke="#294064" stroke-width="1.05435" stroke-miterlimit="10" stroke-linecap="round" stroke-linejoin="round"/>
<path d="M344.791 337.629C362.574 333.392 367.276 351.571 354.312 358.556C338.43 367.114 326.368 350.119 344.156 341.894" fill="#BEAA00"/>
<path d="M344.791 337.629C362.574 333.392 367.276 351.571 354.312 358.556C338.43 367.114 326.368 350.119 344.156 341.894" stroke="#294064" stroke-width="1.05435" stroke-miterlimit="10" stroke-linecap="round" stroke-linejoin="round"/>
<path d="M331.737 346.172C335.384 351.626 336.99 357.269 334.028 363.367Z" fill="#BEAA00"/>
<path d="M331.737 346.172C335.384 351.626 336.99 357.269 334.028 363.367" stroke="#294064" stroke-width="1.05435" stroke-miterlimit="10" stroke-linecap="round" stroke-linejoin="round"/>
<path d="M244.893 409.39C341.992 359.619 317.24 206.931 238.181 247.83C207.577 263.664 241.51 329.803 211.057 335.356C191.844 338.859 168.916 292.641 127.857 305.234C94.5971 315.435 84.1361 344.615 73.8334 369.743C55.0319 415.599 10.1955 397.555 8.64241 404.491C6.89668 412.288 64.2441 462.699 114.179 439.42C140.035 427.366 156.986 381.747 156.986 381.747C156.986 381.747 190.62 437.211 244.893 409.39Z" fill="#BEAA00" stroke="#294064" stroke-width="1.05435" stroke-miterlimit="10" stroke-linecap="round" stroke-linejoin="round"/>
<path d="M245.788 282.191C240.781 282.191 236.948 285.46 234.477 290.329C232.611 294.005 231.635 298.513 231.978 301.861C232.377 305.755 234.106 308.109 238.191 312.108C238.466 312.377 239.087 312.98 239.237 313.13C241.527 315.409 241.792 315.949 241.466 316.589C240.946 317.61 239.963 318.122 236.773 318.83C236.614 318.865 236.441 318.893 236.131 318.961C233.178 319.61 231.792 319.993 230.087 320.872C227.461 322.228 225.567 324.319 224.584 327.199C223.516 330.323 223.709 332.793 224.753 338.104C224.764 338.159 224.742 338.148 224.753 338.203C225.771 343.381 225.669 344.498 224.517 345.122C223.717 345.556 223.302 345.557 222.051 345.122C221.668 344.989 221.562 344.945 220.431 344.497C217.521 343.342 215.7 342.849 213.172 342.849C210.309 342.849 207.833 343.91 205.777 345.781C204.43 347.008 203.496 348.258 202.064 350.493C201.952 350.667 201.494 351.382 201.388 351.547C198.744 355.67 197.785 356.283 194.602 355.402C193.754 355.167 192.549 353.634 191.462 350.855C190.778 349.109 189.339 343.959 189.199 343.607C188.275 341.261 187.632 340.17 185.654 339.323C184.969 339.029 184.3 339.007 183.629 338.994C162.707 323.267 133.975 320.484 108.909 331.185C95.9281 336.727 82.8195 347.97 78.4877 358.96C77.1425 362.374 76.9197 365.022 77.002 370.723C77.0134 371.508 77 371.845 77.002 372.272C77.02 375.838 76.7429 377.905 75.8541 379.783C75.4874 380.559 75.2198 381.35 74.8749 382.453C74.899 382.376 74.434 383.89 74.301 384.298C74.0943 384.931 73.8962 385.445 73.6932 385.912C72.9637 387.592 72.0328 388.696 70.4856 389.536C69.4397 390.105 68.5362 390.302 66.0288 390.657C61.54 391.293 59.2074 392.075 56.5749 394.643C54.2954 396.868 53.4683 398.814 52.422 402.65C52.3754 402.821 52.3659 402.814 52.3207 402.98C51.879 404.588 51.6006 405.322 51.1727 405.945C48.6608 409.599 42.5362 411.957 30.1537 411.957C27.4494 411.957 16.9395 411.006 16.9395 411.006C16.9395 411.006 23.2146 417.951 30.148 419.509C36.715 420.984 40.7723 420.171 45.0951 419.321C51.4548 418.073 56.3308 415.582 59.3098 411.249C60.499 409.52 61.0723 408.01 61.7745 405.451C61.8233 405.273 61.8287 405.261 61.8758 405.088C62.5015 402.794 62.8037 402.074 63.4965 401.398C64.2012 400.71 64.9112 400.472 67.4468 400.114C71.0897 399.597 72.8387 399.18 75.2464 397.872C78.8513 395.915 81.1789 393.158 82.7082 389.635C83.0428 388.865 83.3284 388.091 83.6198 387.197C83.7828 386.698 84.2739 385.072 84.2275 385.221C84.4521 384.502 84.5987 384.09 84.734 383.803C86.3629 380.359 86.8179 377.087 86.7936 372.238C86.7913 371.774 86.8053 371.405 86.7936 370.591C86.7288 366.104 86.8594 364.276 87.6039 362.388C90.8681 354.105 102.036 344.556 112.826 339.95C134.783 330.574 159.856 333.016 177.888 346.704C178.735 347.346 179.564 347.659 180.387 347.956C180.609 348.821 181.508 352.229 182.312 354.282C184.4 359.618 187.268 363.312 191.901 364.595C196.455 365.855 200.466 365.376 203.785 363.211C206.144 361.673 207.599 359.856 209.694 356.588C209.809 356.409 210.266 355.728 210.37 355.567C212.051 352.945 212.66 352.404 213.172 352.404C214.092 352.404 214.936 352.639 216.751 353.36C218.061 353.879 218.162 353.916 218.743 354.117C222.431 355.4 225.721 355.386 229.277 353.458C232.857 351.517 234.757 348.421 235.152 344.628C235.4 342.248 235.174 340.456 234.376 336.391C234.365 336.336 234.386 336.347 234.376 336.292C233.668 332.692 233.541 331.192 233.869 330.23C234.155 329.392 234.808 329.051 238.292 328.286C238.603 328.217 238.763 328.191 238.934 328.154C244.778 326.857 247.981 325.214 250.211 320.84C251.726 317.866 251.754 314.829 250.447 311.976C249.566 310.051 248.313 308.519 246.227 306.44C246.055 306.27 245.382 305.617 245.112 305.354C242.629 302.922 241.827 301.8 241.736 300.905C241.588 299.454 242.165 296.728 243.255 294.58C243.801 293.503 244.431 292.671 245.012 292.175C245.385 291.853 245.617 291.746 245.788 291.746C248.492 291.746 250.684 289.608 250.684 286.969C250.684 284.33 248.492 282.19 245.788 282.191ZM183.46 348.351C183.665 348.33 183.861 348.422 184.067 348.384C183.966 348.403 183.994 348.401 183.763 348.417C183.668 348.423 183.557 348.351 183.46 348.351Z" fill="#8F8530"/>
<path d="M163.536 373.436C167.618 394.245 157.677 417.705 138.628 430.359C123.357 440.503 102.589 444.303 98.4578 420.166C96.361 407.912 107.572 403.749 115.336 397.178C128.387 386.131 126.208 374.892 126.555 362.941" fill="#BEAA00"/>
<path d="M163.536 373.436C167.618 394.245 157.677 417.705 138.628 430.359C123.357 440.503 102.589 444.303 98.4578 420.166C96.361 407.912 107.572 403.749 115.336 397.178C128.387 386.131 126.208 374.892 126.555 362.941" stroke="#294064" stroke-width="1.05435" stroke-miterlimit="10" stroke-linecap="round" stroke-linejoin="round"/>
<path d="M199.778 393.085C203.151 405.233 200.491 420.529 193.661 431.418C193.241 432.088 184.059 439.309 187.501 443.979C198.282 458.609 227.68 467.203 235.872 445.905C243.198 426.859 238.431 408.676 232.241 390.266" fill="#BEAA00"/>
<path d="M199.778 393.085C203.151 405.233 200.491 420.529 193.661 431.418C193.241 432.088 184.059 439.309 187.501 443.979C198.282 458.609 227.68 467.203 235.872 445.905C243.198 426.859 238.431 408.676 232.241 390.266" stroke="#294064" stroke-width="1.05435" stroke-miterlimit="10" stroke-linecap="round" stroke-linejoin="round"/>
<path d="M238.101 346.367C226.527 364.549 239.474 392.553 260.726 398.357C271.725 401.361 293.347 398.003 293.347 398.003C293.347 398.003 316.428 403.539 322.724 397.079C333.703 385.814 331.518 362.174 313.237 358.728C307.013 357.554 302 364.384 294.662 368.837C286.658 373.694 265.83 369.555 269.305 356.702" fill="#BEAA00"/>
<path d="M238.101 346.367C226.527 364.549 239.474 392.553 260.726 398.357C271.725 401.361 293.347 398.003 293.347 398.003C293.347 398.003 316.428 403.539 322.724 397.079C333.703 385.814 331.518 362.174 313.237 358.728C307.013 357.554 302 364.384 294.662 368.837C286.658 373.694 265.83 369.555 269.305 356.702" stroke="#294064" stroke-width="1.05435" stroke-miterlimit="10" stroke-linecap="round" stroke-linejoin="round"/>
<path d="M293.168 397.871C293.168 397.871 299.134 402.114 306.371 403.246C316.106 404.77 330.931 397.828 328.035 386.109" fill="#BEAA00"/>
<path d="M293.168 397.871C293.168 397.871 299.134 402.114 306.371 403.246C316.106 404.77 330.931 397.828 328.035 386.109" stroke="#294064" stroke-width="1.05435" stroke-miterlimit="10" stroke-linecap="round" stroke-linejoin="round"/>
<path d="M320.492 391.844C326.78 390.433 332.11 383.065 331.188 376.999C330.639 373.394 327.653 370.281 327.653 370.281" fill="#BEAA00"/>
<path d="M320.492 391.844C326.78 390.433 332.11 383.065 331.188 376.999C330.639 373.394 327.653 370.281 327.653 370.281" stroke="#294064" stroke-width="1.05435" stroke-miterlimit="10" stroke-linecap="round" stroke-linejoin="round"/>
<path d="M322.633 378.254C322.633 378.254 329.072 374.696 328.909 368.915C328.662 360.109 320.148 355.106 312.263 358.598" fill="#BEAA00"/>
<path d="M322.633 378.254C322.633 378.254 329.072 374.696 328.909 368.915C328.662 360.109 320.148 355.106 312.263 358.598" stroke="#294064" stroke-width="1.05435" stroke-miterlimit="10" stroke-linecap="round" stroke-linejoin="round"/>
<path d="M313.412 364.143C316.383 352.342 292.693 355.537 291.607 371.31Z" fill="#BEAA00"/>
<path d="M313.412 364.143C316.383 352.342 292.693 355.537 291.607 371.31" stroke="#294064" stroke-width="1.05435" stroke-miterlimit="10" stroke-linecap="round" stroke-linejoin="round"/>
<path d="M39.3584 482.183C40.6566 485.208 53.4349 479.994 59.7824 478.721C76.1585 475.436 62.6102 459.861 50.2319 458.594" fill="#E4AC98"/>
<path d="M39.3584 482.183C40.6566 485.208 53.4349 479.994 59.7824 478.721C76.1585 475.436 62.6102 459.861 50.2319 458.594" stroke="#294064" stroke-width="1.05435" stroke-miterlimit="10" stroke-linecap="round" stroke-linejoin="round"/>
<path d="M183.873 515.542C192.337 511.015 200.486 506.329 207.849 505.255C204.916 486.848 181.079 487.521 168.453 493.072" fill="#E4AC98"/>
<path d="M183.873 515.542C192.337 511.015 200.486 506.329 207.849 505.255C204.916 486.848 181.079 487.521 168.453 493.072" stroke="#294064" stroke-width="1.05435" stroke-miterlimit="10" stroke-linecap="round" stroke-linejoin="round"/>
<path d="M53.0002 426.949C35.6392 438.125 17.8899 462.702 39.3769 482.469C42.1616 485.031 52.1103 469.258 57.095 471.936C60.3204 473.669 59.4517 478.301 59.3507 486.029C59.2061 497.087 85.4147 509.085 91.4777 510.658C104.626 514.069 133.051 515.962 134.449 494.56" fill="#FFD5C9"/>
<path d="M53.0002 426.949C35.6392 438.125 17.8899 462.702 39.3769 482.469C42.1616 485.031 52.1103 469.258 57.095 471.936C60.3204 473.669 59.4517 478.301 59.3507 486.029C59.2061 497.087 85.4147 509.085 91.4777 510.658C104.626 514.069 133.051 515.962 134.449 494.56" stroke="#294064" stroke-width="1.05435" stroke-miterlimit="10" stroke-linecap="round" stroke-linejoin="round"/>
<path d="M161.253 480.238C156.844 485.671 152.301 507.375 152.301 507.375C152.301 507.375 163.521 517.483 184.06 515.518C184 502.323 193.347 495.323 204.765 506.316C208.63 510.038 211.499 513.822 218.232 517.365C225.769 521.33 245.603 521.052 259.507 518.022C283.992 512.686 285.451 505.643 284.134 493.522" fill="#FFD5C9"/>
<path d="M161.253 480.238C156.844 485.671 152.301 507.375 152.301 507.375C152.301 507.375 163.521 517.483 184.06 515.518C184 502.323 193.347 495.323 204.765 506.316C208.63 510.038 211.499 513.822 218.232 517.365C225.769 521.33 245.603 521.052 259.507 518.022C283.992 512.686 285.451 505.643 284.134 493.522" stroke="#294064" stroke-width="1.05435" stroke-miterlimit="10" stroke-linecap="round" stroke-linejoin="round"/>
<path d="M53.7489 425.485C40.3204 436.956 53.8287 447.464 60.4484 462.356C72.9105 490.392 78.2171 498.664 106.256 503.566C114.467 505.001 128.431 505.952 132.694 499.718C141.959 486.167 115.369 480.739 114.623 465.986C113.723 448.175 138.46 440.994 139.777 432.388C140.712 426.277 135.649 425.771 135.574 420.912C135.539 418.582 140.112 411.241 135.309 405.271C130.034 398.714 123.675 400.353 121.654 398.171C105.393 380.62 103.454 398.935 85.5699 410.584C75.2387 417.313 63.0945 417.501 53.7489 425.485Z" fill="#F27A84" stroke="#294064" stroke-width="1.05435" stroke-miterlimit="10" stroke-linecap="round" stroke-linejoin="round"/>
<path d="M242.625 467.219C235.102 455.978 243.562 435.05 240.512 431.048C237.994 427.746 231.722 429.066 229.969 428.235C226.674 426.672 225.093 422.138 220.367 421.553C212.812 420.619 210.975 424.558 207.831 424.824C200.965 425.406 195.873 422.223 191.386 429.133C187.271 435.472 185.432 441.244 181.049 447.407C173.382 458.186 155.515 471.816 159.973 482.378C159.973 482.378 182.349 486.392 193.67 492.879C212.189 503.49 215.309 508.828 240.086 509.174C252.419 509.347 294.204 503.353 281.602 488.318C276.092 481.745 255.07 479.381 248.101 474.775C248.266 470.394 248.182 467.487 242.625 467.219Z" fill="#F27A84" stroke="#294064" stroke-width="1.05435" stroke-miterlimit="10" stroke-linecap="round" stroke-linejoin="round"/>
<path d="M160.797 353.298C160.797 353.298 179.064 352.126 191.236 348.095C212.284 341.127 220.129 330.47 220.129 330.47C201.908 315.104 208.944 281.106 193.677 255.338C168.638 213.076 105.164 209.943 66.5279 240.833C53.1153 251.558 40.3536 268.429 34.3517 284.157C17.7804 327.585 28.8513 376.561 81.2385 387.673C115.27 394.892 167.823 374.09 162.464 333.862" fill="#D6501B"/>
<path d="M160.797 353.298C160.797 353.298 179.064 352.126 191.236 348.095C212.284 341.127 220.129 330.47 220.129 330.47C201.908 315.104 208.944 281.106 193.677 255.338C168.638 213.076 105.164 209.943 66.5279 240.833C53.1153 251.558 40.3536 268.429 34.3517 284.157C17.7804 327.585 28.8513 376.561 81.2385 387.673C115.27 394.892 167.823 374.09 162.464 333.862" stroke="#294064" stroke-width="1.02466" stroke-miterlimit="10" stroke-linecap="round" stroke-linejoin="round"/>
<path d="M161.061 325.073C156.28 285.863 119.439 256.727 89.3792 267.66C66.991 275.801 54.9996 298.897 51.3682 320.611C50.0218 328.661 51.0947 338.139 53.5736 344.954C62.7792 370.262 97.7937 370.657 115.533 348.98C122.815 340.081 128.033 328.671 127.457 317.418C126.427 297.313 100.738 280.759 91.4806 297.044C85.5412 307.492 104.033 314.029 96.9925 320.841C89.7813 327.819 81.268 316.143 80.1205 309.435C75.9377 284.982 107.515 278.711 123.641 304.533" fill="#D6501B"/>
<path d="M161.061 325.073C156.28 285.863 119.439 256.727 89.3792 267.66C66.991 275.801 54.9996 298.897 51.3682 320.611C50.0218 328.661 51.0947 338.139 53.5736 344.954C62.7792 370.262 97.7937 370.657 115.533 348.98C122.815 340.081 128.033 328.671 127.457 317.418C126.427 297.313 100.738 280.759 91.4806 297.044C85.5412 307.492 104.033 314.029 96.9925 320.841C89.7813 327.819 81.268 316.143 80.1205 309.435C75.9377 284.982 107.515 278.711 123.641 304.533" stroke="#294064" stroke-width="1.02466" stroke-miterlimit="10" stroke-linecap="round" stroke-linejoin="round"/>
<path d="M191.007 280.051C189.735 285.774 188.965 291.617 187.7 297.308" stroke="#294064" stroke-width="1.02466" stroke-miterlimit="10" stroke-linecap="round" stroke-linejoin="round"/>
<path d="M212.046 291.402C212.978 296.801 212.286 302.788 212.797 308.309" stroke="#294064" stroke-width="1.02466" stroke-miterlimit="10" stroke-linecap="round" stroke-linejoin="round"/>
<path d="M237.473 291.77C238.308 296.61 239.59 301.274 240.802 306.032" stroke="#294064" stroke-width="1.02466" stroke-miterlimit="10" stroke-linecap="round" stroke-linejoin="round"/>
<path d="M312.399 275.418C314.102 278.871 314.48 282.913 316.184 286.369" stroke="#294064" stroke-width="1.02466" stroke-miterlimit="10" stroke-linecap="round" stroke-linejoin="round"/>
<path d="M325.201 262.039C327.119 264.832 328.654 267.903 330.629 270.639" stroke="#294064" stroke-width="1.02466" stroke-miterlimit="10" stroke-linecap="round" stroke-linejoin="round"/>
<path d="M332.618 246.039C334.754 249.369 338.624 252.363 341.56 254.989" stroke="#294064" stroke-width="1.02466" stroke-miterlimit="10" stroke-linecap="round" stroke-linejoin="round"/>
<path d="M313.548 287.107C313.548 285.579 314.819 284.34 316.385 284.34C317.951 284.34 319.222 285.579 319.222 287.107C319.222 288.637 317.951 289.876 316.385 289.876C314.819 289.876 313.548 288.637 313.548 287.107Z" fill="#FDFB90" stroke="#294064" stroke-width="1.02466" stroke-miterlimit="10" stroke-linejoin="round"/>
<path d="M328.724 272.003C328.724 270.473 329.993 269.234 331.561 269.234C333.127 269.234 334.397 270.473 334.397 272.003C334.397 273.531 333.127 274.77 331.561 274.77C329.993 274.77 328.724 273.531 328.724 272.003Z" fill="#FDFB90" stroke="#294064" stroke-width="1.02466" stroke-miterlimit="10" stroke-linejoin="round"/>
<path d="M339.968 255.913C339.968 254.385 341.238 253.145 342.804 253.145C344.371 253.145 345.641 254.385 345.641 255.913C345.641 257.442 344.371 258.681 342.804 258.681C341.238 258.681 339.968 257.442 339.968 255.913Z" fill="#FDFB90" stroke="#294064" stroke-width="1.02466" stroke-miterlimit="10" stroke-linejoin="round"/>
<path d="M238.237 307.693C238.237 306.165 239.507 304.926 241.073 304.926C242.641 304.926 243.91 306.165 243.91 307.693C243.91 309.223 242.641 310.462 241.073 310.462C239.507 310.462 238.237 309.223 238.237 307.693Z" fill="#FDFB90" stroke="#294064" stroke-width="1.02466" stroke-miterlimit="10" stroke-linejoin="round"/>
<path d="M210.057 310.194C210.057 308.666 211.326 307.426 212.894 307.426C214.46 307.426 215.73 308.666 215.73 310.194C215.73 311.724 214.46 312.963 212.894 312.963C211.326 312.963 210.057 311.724 210.057 310.194Z" fill="#FDFB90" stroke="#294064" stroke-width="1.02466" stroke-miterlimit="10" stroke-linejoin="round"/>
<path d="M184.441 299.3C184.441 297.77 185.711 296.531 187.277 296.531C188.845 296.531 190.114 297.77 190.114 299.3C190.114 300.828 188.845 302.067 187.277 302.067C185.711 302.067 184.441 300.828 184.441 299.3Z" fill="#FDFB90" stroke="#294064" stroke-width="1.02466" stroke-miterlimit="10" stroke-linejoin="round"/>
<path d="M278.714 284.547C263.291 287.825 235.126 275.261 224.643 262.774C218.282 255.197 213.896 236.102 228.018 232.159C248.393 226.469 267.826 234.905 288.038 231.124C296.624 229.518 310.067 222.916 320.229 224.929C343.218 229.482 334.39 260.641 318.713 272.238C308.782 279.586 299.117 282.654 286.835 283.764C284.126 284.009 281.371 283.981 278.714 284.547Z" fill="#FCA806" stroke="#294064" stroke-width="1.02466" stroke-miterlimit="10" stroke-linecap="round" stroke-linejoin="round"/>
<path d="M302.461 264.316C295.586 255.921 297.162 247.1 293.786 237.164C287.558 218.835 271.777 211.793 237.09 226.692" fill="#FCA806"/>
<path d="M302.461 264.316C295.586 255.921 297.162 247.1 293.786 237.164C287.558 218.835 271.777 211.793 237.09 226.692" stroke="#294064" stroke-width="1.02466" stroke-miterlimit="10" stroke-linecap="round" stroke-linejoin="round"/>
<path d="M282.524 230.463C258.708 236.332 219.884 210.287 216.491 244.848C215.609 253.831 220.59 258.438 221.223 261.787" fill="#FCA806"/>
<path d="M282.524 230.463C258.708 236.332 219.884 210.287 216.491 244.848C215.609 253.831 220.59 258.438 221.223 261.787" stroke="#294064" stroke-width="1.02466" stroke-miterlimit="10" stroke-linecap="round" stroke-linejoin="round"/>
<path d="M296.802 252.471C296.624 250.656 295.679 246.82 295.679 246.82C295.679 246.82 289.785 249.879 289.284 250.119C283.279 253.006 276.684 254.953 270.153 256.355C262.448 258.01 249.698 258.711 243.93 257.995C242.828 257.859 239.309 257.644 238.655 258.806C234.832 265.606 255.391 266.828 257.325 266.882C261.679 267.006 265.855 267.057 270.238 266.852C277.462 266.515 284.983 264.095 291.423 260.928" fill="#80A90A"/>
<path d="M296.802 252.471C296.624 250.656 295.679 246.82 295.679 246.82C295.679 246.82 289.785 249.879 289.284 250.119C283.279 253.006 276.684 254.953 270.153 256.355C262.448 258.01 249.698 258.711 243.93 257.995C242.828 257.859 239.309 257.644 238.655 258.806C234.832 265.606 255.391 266.828 257.325 266.882C261.679 267.006 265.855 267.057 270.238 266.852C277.462 266.515 284.983 264.095 291.423 260.928" stroke="#294064" stroke-width="1.02466" stroke-miterlimit="10" stroke-linecap="round" stroke-linejoin="round"/>
<path d="M236.712 262.448C236.712 262.448 235.137 272.168 245.862 273.014C270.139 274.93 295.431 264.889 300.285 261.324C297.901 254.858 296.864 251.582 296.864 251.582C296.864 251.582 287.387 257.734 272.861 260.905C260.982 263.498 236.712 262.448 236.712 262.448Z" fill="#FF5E1E" stroke="#294064" stroke-width="1.02466" stroke-miterlimit="10" stroke-linecap="round" stroke-linejoin="round"/>
<path d="M300.905 281.312C300.905 281.312 278.481 283.752 270.854 278.063C260.371 270.247 246.344 255.167 227.704 251.272C212.639 248.125 185.376 245.15 176.281 255.134C161.265 271.622 193.487 294.285 223.505 295.133C269.276 296.426 300.905 281.312 300.905 281.312Z" fill="#FCA806" stroke="#294064" stroke-width="1.02466" stroke-miterlimit="10" stroke-linecap="round" stroke-linejoin="round"/>
<path d="M268.106 230.688C268.112 216.56 266.725 201.558 256.108 190.5C249.382 183.494 238.945 180.499 239.67 176.1C241.567 164.574 258.946 180.295 263.708 186.272C272.982 197.915 278.13 216.402 275.13 231.185L268.106 230.688Z" fill="#BEAA00" stroke="#294064" stroke-width="1.02466" stroke-miterlimit="10" stroke-linecap="round" stroke-linejoin="round"/>
<path d="M249.249 234.044C245.366 218.682 243.042 209.206 226.594 203.17C225.217 202.664 203.401 197.869 205.415 191.905C208.307 183.342 252.491 194.835 255.585 233.291C255.585 233.291 254.192 234.292 252.609 234.48C251.025 234.668 249.249 234.044 249.249 234.044Z" fill="#BEAA00" stroke="#294064" stroke-width="1.02466" stroke-miterlimit="10" stroke-linecap="round" stroke-linejoin="round"/>
<path d="M274.653 321.051C274.653 321.051 273.956 325.124 270.029 326.991" stroke="#294064" stroke-width="1.02466" stroke-miterlimit="10" stroke-linecap="round" stroke-linejoin="round"/>
<path d="M280.089 321.238C280.089 321.238 280.519 324.855 277.843 328.183" stroke="#294064" stroke-width="1.02466" stroke-miterlimit="10" stroke-linecap="round" stroke-linejoin="round"/>
<path d="M286.086 319.855C286.086 319.855 287.205 323.679 285.509 326.245" stroke="#294064" stroke-width="1.02466" stroke-miterlimit="10" stroke-linecap="round" stroke-linejoin="round"/>
<path d="M297.701 317.93C297.701 317.93 298.47 321.896 301.316 323.418" stroke="#294064" stroke-width="1.02466" stroke-miterlimit="10" stroke-linecap="round" stroke-linejoin="round"/>
<path d="M303.566 317.105C304.948 319.358 307.462 321.195 310.057 321.547" stroke="#294064" stroke-width="1.02466" stroke-miterlimit="10" stroke-linecap="round" stroke-linejoin="round"/>
<path d="M309.458 313.75C311.312 315.304 312.662 316.03 315.112 315.975" stroke="#294064" stroke-width="1.02466" stroke-miterlimit="10" stroke-linecap="round" stroke-linejoin="round"/>
<path d="M291.622 291.543C296.006 289.26 301.63 289.211 305.566 292.188C311.677 296.811 313.054 306.359 309.438 313.419C309.438 313.419 303.948 320.444 289.659 316.425" fill="#BEAA00"/>
<path d="M291.622 291.543C296.006 289.26 301.63 289.211 305.566 292.188C311.677 296.811 313.054 306.359 309.438 313.419C309.438 313.419 303.948 320.444 289.659 316.425" stroke="#294064" stroke-width="1.02466" stroke-miterlimit="10" stroke-linecap="round" stroke-linejoin="round"/>
<path d="M273.367 296.141C286.963 287.103 299.896 307.135 292.865 316.796C292.865 316.796 283.477 323.066 272.118 320.582" fill="#BEAA00"/>
<path d="M273.367 296.141C286.963 287.103 299.896 307.135 292.865 316.796C292.865 316.796 283.477 323.066 272.118 320.582" stroke="#294064" stroke-width="1.02466" stroke-miterlimit="10" stroke-linecap="round" stroke-linejoin="round"/>
<path d="M285.544 335.112C290.485 338.742 294.506 339.265 298.783 334.434Z" fill="#BEAA00"/>
<path d="M285.544 335.112C290.485 338.742 294.506 339.265 298.783 334.434" stroke="#294064" stroke-width="1.02466" stroke-miterlimit="10" stroke-linecap="round" stroke-linejoin="round"/>
<path d="M284.467 332.273C286.795 336.77 284.722 338.943 284.722 338.943Z" fill="#BEAA00"/>
<path d="M284.467 332.273C286.795 336.77 284.722 338.943 284.722 338.943" stroke="#294064" stroke-width="1.02466" stroke-miterlimit="10" stroke-linecap="round" stroke-linejoin="round"/>
<path d="M298.642 330.422C298.642 330.422 297.628 335.808 300.696 337.48Z" fill="#BEAA00"/>
<path d="M298.642 330.422C298.642 330.422 297.628 335.808 300.696 337.48" stroke="#294064" stroke-width="1.02466" stroke-miterlimit="10" stroke-linecap="round" stroke-linejoin="round"/>
<path d="M334.009 421.023C334.019 424.38 334.883 427.683 335.226 431.023" stroke="#294064" stroke-width="1.02466" stroke-miterlimit="10" stroke-linecap="round" stroke-linejoin="round"/>
<path d="M337.716 421.426C337.349 424.362 339.845 428.904 341.313 431.453" stroke="#294064" stroke-width="1.02466" stroke-miterlimit="10" stroke-linecap="round" stroke-linejoin="round"/>
<path d="M271.29 415.551C272.552 416.583 273.425 418.38 274.541 419.601" stroke="#294064" stroke-width="1.02466" stroke-miterlimit="10" stroke-linecap="round" stroke-linejoin="round"/>
<path d="M277.211 422.848C277.842 423.617 278.515 424.344 279.146 425.112" stroke="#294064" stroke-width="1.02466" stroke-miterlimit="10" stroke-linecap="round" stroke-linejoin="round"/>
<path d="M283.027 429.559C283.77 430.238 284.412 431.004 285.148 431.678" stroke="#294064" stroke-width="1.02466" stroke-miterlimit="10" stroke-linecap="round" stroke-linejoin="round"/>
<path d="M289.191 436.145C289.701 436.766 290.874 437.426 291.154 438.164" stroke="#294064" stroke-width="1.02466" stroke-miterlimit="10" stroke-linecap="round" stroke-linejoin="round"/>
<path d="M295.776 442.773C296.408 443.29 296.962 443.882 297.619 444.369" stroke="#294064" stroke-width="1.02466" stroke-miterlimit="10" stroke-linecap="round" stroke-linejoin="round"/>
<path d="M302.573 449.75C303.399 450.272 304.192 450.895 304.896 451.563" stroke="#294064" stroke-width="1.02466" stroke-miterlimit="10" stroke-linecap="round" stroke-linejoin="round"/>
<path d="M309.442 456.086C310.435 456.711 311.219 457.565 312.145 458.268" stroke="#294064" stroke-width="1.02466" stroke-miterlimit="10" stroke-linecap="round" stroke-linejoin="round"/>
<path d="M275.186 410.953C275.68 412.26 277.872 413.67 278.797 414.795" stroke="#294064" stroke-width="1.02466" stroke-miterlimit="10" stroke-linecap="round" stroke-linejoin="round"/>
<path d="M281.362 417.457C281.989 418.221 282.687 418.874 283.399 419.568" stroke="#294064" stroke-width="1.02466" stroke-miterlimit="10" stroke-linecap="round" stroke-linejoin="round"/>
<path d="M285.813 422.047C286.404 423.157 287.867 424.221 288.749 425.159" stroke="#294064" stroke-width="1.02466" stroke-miterlimit="10" stroke-linecap="round" stroke-linejoin="round"/>
<path d="M291.181 427.477C291.96 428.189 293.012 429.101 293.505 430.029" stroke="#294064" stroke-width="1.02466" stroke-miterlimit="10" stroke-linecap="round" stroke-linejoin="round"/>
<path d="M295.396 431.961C296.41 433.195 297.518 434.359 298.526 435.588" stroke="#294064" stroke-width="1.02466" stroke-miterlimit="10" stroke-linecap="round" stroke-linejoin="round"/>
<path d="M301.749 438.398C302.445 439.247 303.569 439.793 304.369 440.572" stroke="#294064" stroke-width="1.02466" stroke-miterlimit="10" stroke-linecap="round" stroke-linejoin="round"/>
<path d="M307.717 443.73C308.29 444.201 308.86 444.643 309.411 445.147" stroke="#294064" stroke-width="1.02466" stroke-miterlimit="10" stroke-linecap="round" stroke-linejoin="round"/>
<path d="M312.425 448.348C312.949 448.679 313.429 449.218 313.878 449.655" stroke="#294064" stroke-width="1.02466" stroke-miterlimit="10" stroke-linecap="round" stroke-linejoin="round"/>
<path d="M317.753 452.621C318.996 453.758 320.274 454.968 321.484 456.147" stroke="#294064" stroke-width="1.02466" stroke-miterlimit="10" stroke-linecap="round" stroke-linejoin="round"/>
<path d="M242.469 466.895C243.923 471.127 241.508 476.801 239.791 478.478" stroke="#294064" stroke-width="1.02466" stroke-miterlimit="10" stroke-linecap="round" stroke-linejoin="round"/>
<path d="M248.072 474.105C248.072 474.105 248.017 477.276 246.36 480.004" stroke="#294064" stroke-width="1.02466" stroke-miterlimit="10" stroke-linecap="round" stroke-linejoin="round"/>
<path d="M214.006 424.582C214.139 426.075 213.435 428.13 213.124 429.602" stroke="#294064" stroke-width="1.02466" stroke-miterlimit="10" stroke-linecap="round" stroke-linejoin="round"/>
<path d="M211.694 433.453C211.447 434.463 211.017 435.442 210.626 436.407" stroke="#294064" stroke-width="1.02466" stroke-miterlimit="10" stroke-linecap="round" stroke-linejoin="round"/>
<path d="M209.208 439.391C208.947 440.035 208.661 440.686 208.496 441.36" stroke="#294064" stroke-width="1.02466" stroke-miterlimit="10" stroke-linecap="round" stroke-linejoin="round"/>
<path d="M206.88 445.141C206.267 446.234 206.172 447.496 205.498 448.556" stroke="#294064" stroke-width="1.02466" stroke-miterlimit="10" stroke-linecap="round" stroke-linejoin="round"/>
<path d="M204.378 451.949C203.999 453.503 203.168 455.046 202.568 456.529" stroke="#294064" stroke-width="1.02466" stroke-miterlimit="10" stroke-linecap="round" stroke-linejoin="round"/>
<path d="M201.152 460.555C200.563 461.604 200.31 462.846 199.858 463.962" stroke="#294064" stroke-width="1.02466" stroke-miterlimit="10" stroke-linecap="round" stroke-linejoin="round"/>
<path d="M198.671 467.531C198.006 469.173 197.553 470.926 196.899 472.541" stroke="#294064" stroke-width="1.02466" stroke-miterlimit="10" stroke-linecap="round" stroke-linejoin="round"/>
<path d="M195.762 476.719C195.454 477.711 195.125 478.733 194.878 479.744" stroke="#294064" stroke-width="1.02466" stroke-miterlimit="10" stroke-linecap="round" stroke-linejoin="round"/>
<path d="M193.423 484.293C193.156 485.934 192.72 487.887 191.828 489.287" stroke="#294064" stroke-width="1.02466" stroke-miterlimit="10" stroke-linecap="round" stroke-linejoin="round"/>
<path d="M221.004 425.281C221.124 426.604 220.727 428.29 220.325 429.59" stroke="#294064" stroke-width="1.02466" stroke-miterlimit="10" stroke-linecap="round" stroke-linejoin="round"/>
<path d="M218.874 434.227C218.961 435.192 218.608 436.252 218.247 437.143" stroke="#294064" stroke-width="1.02466" stroke-miterlimit="10" stroke-linecap="round" stroke-linejoin="round"/>
<path d="M216.719 441.871C216.409 442.639 216.376 443.56 216.054 444.357" stroke="#294064" stroke-width="1.02466" stroke-miterlimit="10" stroke-linecap="round" stroke-linejoin="round"/>
<path d="M214.206 450.504C213.869 451.336 213.612 452.182 213.275 453.013" stroke="#294064" stroke-width="1.02466" stroke-miterlimit="10" stroke-linecap="round" stroke-linejoin="round"/>
<path d="M211.813 458.516C211.462 459.383 211.23 460.388 210.906 461.283" stroke="#294064" stroke-width="1.02466" stroke-miterlimit="10" stroke-linecap="round" stroke-linejoin="round"/>
<path d="M209.827 466.059C209.651 467.141 209.04 468.632 208.637 469.63" stroke="#294064" stroke-width="1.02466" stroke-miterlimit="10" stroke-linecap="round" stroke-linejoin="round"/>
<path d="M206.753 475.344C206.114 476.484 206.004 478.037 205.506 479.268" stroke="#294064" stroke-width="1.02466" stroke-miterlimit="10" stroke-linecap="round" stroke-linejoin="round"/>
<path d="M203.97 484.949C203.577 486.558 203.12 488.192 202.72 489.828" stroke="#294064" stroke-width="1.02466" stroke-miterlimit="10" stroke-linecap="round" stroke-linejoin="round"/>
<path d="M202.147 493.348C202.204 493.98 202.18 493.576 202.167 494.56" stroke="#294064" stroke-width="1.02466" stroke-miterlimit="10" stroke-linecap="round" stroke-linejoin="round"/>
<path d="M163.281 412.676C163.281 412.676 163.058 415.673 162.927 417.17" stroke="#294064" stroke-width="1.02466" stroke-miterlimit="10" stroke-linecap="round" stroke-linejoin="round"/>
<path d="M162.334 420.109C162.396 421.182 162.18 422.333 162.086 423.4" stroke="#294064" stroke-width="1.02466" stroke-miterlimit="10" stroke-linecap="round" stroke-linejoin="round"/>
<path d="M161.673 426.273C161.175 427.4 161.371 429.216 161.098 430.466" stroke="#294064" stroke-width="1.02466" stroke-miterlimit="10" stroke-linecap="round" stroke-linejoin="round"/>
<path d="M160.346 435.207C160.115 436.265 160.108 437.451 160.013 438.531" stroke="#294064" stroke-width="1.02466" stroke-miterlimit="10" stroke-linecap="round" stroke-linejoin="round"/>
<path d="M159.509 442.41C159.42 443.437 159.37 444.472 159.28 445.5" stroke="#294064" stroke-width="1.02466" stroke-miterlimit="10" stroke-linecap="round" stroke-linejoin="round"/>
<path d="M158.86 449.34C158.755 450.537 158.854 451.759 158.748 452.965" stroke="#294064" stroke-width="1.02466" stroke-miterlimit="10" stroke-linecap="round" stroke-linejoin="round"/>
<path d="M158.236 457.324C158.129 458.552 158.147 459.754 158.039 460.983" stroke="#294064" stroke-width="1.02466" stroke-miterlimit="10" stroke-linecap="round" stroke-linejoin="round"/>
<path d="M157.845 465.609C157.818 466.619 157.72 467.689 157.906 468.684" stroke="#294064" stroke-width="1.02466" stroke-miterlimit="10" stroke-linecap="round" stroke-linejoin="round"/>
<path d="M169.887 411.371C169.733 413.13 169.926 414.64 169.567 416.433" stroke="#294064" stroke-width="1.02466" stroke-miterlimit="10" stroke-linecap="round" stroke-linejoin="round"/>
<path d="M169.357 420.293C169.435 421.657 168.917 422.943 168.799 424.284" stroke="#294064" stroke-width="1.02466" stroke-miterlimit="10" stroke-linecap="round" stroke-linejoin="round"/>
<path d="M168.345 429.012C168.403 430.018 168.261 430.949 168.047 431.934" stroke="#294064" stroke-width="1.02466" stroke-miterlimit="10" stroke-linecap="round" stroke-linejoin="round"/>
<path d="M168.084 435.695C167.63 437.324 167.459 439.525 167.557 441.224" stroke="#294064" stroke-width="1.02466" stroke-miterlimit="10" stroke-linecap="round" stroke-linejoin="round"/>
<path d="M167.707 444.746C167.334 445.59 167.539 447.139 167.665 448.054" stroke="#294064" stroke-width="1.02466" stroke-miterlimit="10" stroke-linecap="round" stroke-linejoin="round"/>
<path d="M167.346 451.18C166.711 452.617 167.218 454.401 166.89 455.908" stroke="#294064" stroke-width="1.02466" stroke-miterlimit="10" stroke-linecap="round" stroke-linejoin="round"/>
<path d="M165.665 459.969C165.564 461.125 165.473 462.262 165.28 463.409" stroke="#294064" stroke-width="1.02466" stroke-miterlimit="10" stroke-linecap="round" stroke-linejoin="round"/>
<path d="M126.113 402.895C123.495 404.211 121.09 405.908 118.694 407.568" stroke="#294064" stroke-width="1.02466" stroke-miterlimit="10" stroke-linecap="round" stroke-linejoin="round"/>
<path d="M114.698 410.344C112.936 411.565 111.531 413.126 109.788 414.334" stroke="#294064" stroke-width="1.02466" stroke-miterlimit="10" stroke-linecap="round" stroke-linejoin="round"/>
<path d="M106.799 416.992C105.582 418.119 104.26 419.116 103.007 420.208" stroke="#294064" stroke-width="1.02466" stroke-miterlimit="10" stroke-linecap="round" stroke-linejoin="round"/>
<path d="M100.126 423.027C98.523 424.138 97.0446 425.398 95.4453 426.507" stroke="#294064" stroke-width="1.02466" stroke-miterlimit="10" stroke-linecap="round" stroke-linejoin="round"/>
<path d="M91.8401 429.477C89.8854 430.832 88.2063 432.583 86.291 433.91" stroke="#294064" stroke-width="1.02466" stroke-miterlimit="10" stroke-linecap="round" stroke-linejoin="round"/>
<path d="M82.3632 437.102C81.2505 438.254 79.8709 439.533 78.5488 440.45" stroke="#294064" stroke-width="1.02466" stroke-miterlimit="10" stroke-linecap="round" stroke-linejoin="round"/>
<path d="M74.1585 444.668C72.639 445.721 71.5409 446.829 70.4346 448.305" stroke="#294064" stroke-width="1.02466" stroke-miterlimit="10" stroke-linecap="round" stroke-linejoin="round"/>
<path d="M67.1934 451.605C65.7479 453.103 64.3431 454.613 62.8975 456.11" stroke="#294064" stroke-width="1.02466" stroke-miterlimit="10" stroke-linecap="round" stroke-linejoin="round"/>
<path d="M132.892 408.406C130.421 409.485 128.445 411.537 125.976 412.615" stroke="#294064" stroke-width="1.02466" stroke-miterlimit="10" stroke-linecap="round" stroke-linejoin="round"/>
<path d="M121.612 415.875C120.467 416.669 118.916 417.322 118.074 418.446" stroke="#294064" stroke-width="1.02466" stroke-miterlimit="10" stroke-linecap="round" stroke-linejoin="round"/>
<path d="M112.845 422.656C111.332 423.317 110.437 424.678 109.1 425.605" stroke="#294064" stroke-width="1.02466" stroke-miterlimit="10" stroke-linecap="round" stroke-linejoin="round"/>
<path d="M106.905 427.711C105.203 428.891 103.023 431.396 101.105 431.967" stroke="#294064" stroke-width="1.02466" stroke-miterlimit="10" stroke-linecap="round" stroke-linejoin="round"/>
<path d="M96.1049 436.492C94.2149 437.516 93.1922 439.098 91.5146 440.261" stroke="#294064" stroke-width="1.02466" stroke-miterlimit="10" stroke-linecap="round" stroke-linejoin="round"/>
<path d="M86.9705 444.586C85.1692 445.835 83.6714 447.572 81.9912 448.977" stroke="#294064" stroke-width="1.02466" stroke-miterlimit="10" stroke-linecap="round" stroke-linejoin="round"/>
<path d="M77.9893 453.391C76.7611 454.53 75.8707 455.639 74.7217 456.83" stroke="#294064" stroke-width="1.02466" stroke-miterlimit="10" stroke-linecap="round" stroke-linejoin="round"/>
<path d="M69.3287 462.801C68.1028 464.07 67.2467 465.1 66.2881 466.551" stroke="#294064" stroke-width="1.02466" stroke-miterlimit="10" stroke-linecap="round" stroke-linejoin="round"/>
<path d="M114.534 466.082C111.704 470.328 110.829 471.828 105.837 473.923" stroke="#294064" stroke-width="1.02466" stroke-miterlimit="10" stroke-linecap="round" stroke-linejoin="round"/>
<path d="M115.394 470.582C113.512 473.405 112.648 475.648 109.74 477.907" stroke="#294064" stroke-width="1.02466" stroke-miterlimit="10" stroke-linecap="round" stroke-linejoin="round"/>
<path d="M106.646 479.801C105.886 480.392 105.01 480.887 104.084 481.186" stroke="#294064" stroke-width="1.02466" stroke-miterlimit="10" stroke-linecap="round" stroke-linejoin="round"/>
<path d="M116.833 473.188C116.875 476.75 116.685 480.245 113.49 482.544" stroke="#294064" stroke-width="1.02466" stroke-miterlimit="10" stroke-linecap="round" stroke-linejoin="round"/>
<path d="M246.393 232.961C249.866 236.396 256.093 233.85 258.156 232.625" stroke="#294064" stroke-width="1.02466" stroke-miterlimit="10" stroke-linecap="round" stroke-linejoin="round"/>
<path d="M249.758 407.049C250.646 406.939 252.418 410.947 253.818 410.359C257.132 408.968 262.881 400.938 264.947 400.532C268.773 399.78 283.85 406.438 287.384 399.519C287.579 399.137 286.535 399.314 286.102 399.255C282.962 398.821 279.85 399.945 276.708 399.949C271.533 399.955 261.705 398.734 261.705 398.734C261.705 398.734 260.516 400.368 258.97 401.45C256.994 402.83 254.959 404.166 252.802 405.284C252.077 405.66 249.684 407.059 249.758 407.049Z" fill="#294064"/>
<path d="M159.899 406.165C160.883 405.483 162.31 405.527 163.327 404.755C164.188 404.102 165.798 401.184 166.755 400.951C166.905 400.915 174.52 406.544 175.425 406.986C178.367 408.421 181.219 409.51 184.497 410.002C184.556 410.011 186.076 409.998 186.043 409.871C185.768 408.795 181.201 406.609 180.129 405.805C176.306 402.935 171.976 399.87 168.77 396.294C167.741 395.147 165.781 391.518 164.335 391.048C164.156 390.99 163.668 394.175 163.596 394.459C162.648 398.157 161.252 401.836 160.302 405.542C160.214 405.889 159.634 406.349 159.899 406.165Z" fill="#294064"/>
<path d="M137.562 411.728C137.299 411.486 138.317 412.839 138.359 412.908C138.929 413.848 139.313 414.931 139.343 416.029C139.384 417.505 138.613 418.983 139.066 420.449C139.698 422.491 143.732 426.546 140.889 428.643C139.822 429.43 136.531 424.509 136.195 423.607C134.924 420.196 137.528 417.71 137.436 414.392" fill="#294064"/>
<path d="M222.452 421.892C222.452 421.588 223.85 422.174 223.934 422.205C226.074 422.988 227.153 424.671 228.94 425.761C231.544 427.35 235.121 424.792 237.588 427.441C237.722 427.584 238.957 429.298 238.749 429.433C238.652 429.497 238.029 429.153 237.908 429.121C235.835 428.582 232.179 429.432 230.381 428.379C227.954 426.958 226.628 424.557 224.334 423.065" fill="#294064"/>
<path d="M305.994 354.041C303.957 353.378 302.681 357.318 301.577 357.963C299.392 359.244 296.689 360.015 295.067 362.053C293.361 364.192 291.262 369.728 291.262 369.728C291.262 369.728 289.669 370.34 288.668 370.34C288.618 370.34 289.209 369.428 289.291 369.29C289.594 368.785 289.935 368.296 290.254 367.799C291.265 366.219 292.216 364.643 293.198 363.047C294.547 360.854 297.444 353.875 297.444 353.875C297.444 353.875 303.521 353.985 304.239 353.985" fill="#294064"/>
<path d="M155.283 362.438C148.716 371.231 142.058 380.136 132.271 385.964C131.312 386.535 123.012 390.214 122.706 389.9C122.369 389.556 123.198 384.674 123.519 384.533C128.754 382.24 134.305 380.275 139.521 377.207C143.111 375.095 146.482 370.352 150.074 368.779" fill="#294064"/>
<path d="M237.958 295.273C237.958 295.273 232.606 298.511 231.631 299.015C230.617 299.538 226.405 302.219 224.996 301.709C224.96 301.695 224.806 299.341 224.798 299.291C224.698 298.67 223.709 295.94 224.102 295.436C224.233 295.268 225.545 295.684 225.771 295.708C228.949 296.052 237.958 295.273 237.958 295.273Z" fill="#294064"/>
<path d="M300.866 477.473C304.672 485.94 311.453 493.626 318.31 499.893" stroke="#294064" stroke-width="1.02466" stroke-miterlimit="10" stroke-linecap="round" stroke-linejoin="round"/>
<path d="M308.846 472.336C308.746 474.259 312.214 478.352 313.156 479.76C316.804 485.211 321.058 491.111 326.235 495.314" stroke="#294064" stroke-width="1.02466" stroke-miterlimit="10" stroke-linecap="round" stroke-linejoin="round"/>
<path d="M362.327 448.59C363.333 451.09 365.857 453.562 367.863 455.327" stroke="#294064" stroke-width="1.02466" stroke-miterlimit="10" stroke-linecap="round" stroke-linejoin="round"/>
<path d="M368.384 444.934C369.287 447.181 371.39 449.696 373.229 451.313" stroke="#294064" stroke-width="1.02466" stroke-miterlimit="10" stroke-linecap="round" stroke-linejoin="round"/>
<path d="M380.656 431.781C381.264 433.294 383.843 436.258 385.374 437.052" stroke="#294064" stroke-width="1.02466" stroke-miterlimit="10" stroke-linecap="round" stroke-linejoin="round"/>
<path d="M382.61 429.387C383.348 431.22 386.007 433.744 387.484 435.042" stroke="#294064" stroke-width="1.02466" stroke-miterlimit="10" stroke-linecap="round" stroke-linejoin="round"/>
<path d="M388.042 417.828C388.771 419.643 391.525 422.387 393.063 423.739" stroke="#294064" stroke-width="1.02466" stroke-miterlimit="10" stroke-linecap="round" stroke-linejoin="round"/>
<path d="M165.97 483.918C162.914 489.881 160.948 496.918 159.56 503.426C159.091 505.617 159.145 508.597 158.125 510.586" stroke="#294064" stroke-width="1.02466" stroke-miterlimit="10" stroke-linecap="round" stroke-linejoin="round"/>
<path d="M174.325 486.137C170.827 491.256 168.845 498.368 167.238 504.246C166.651 506.393 166.306 508.603 165.721 510.747C165.558 511.342 165.13 513.322 165.13 513.135" stroke="#294064" stroke-width="1.02466" stroke-miterlimit="10" stroke-linecap="round" stroke-linejoin="round"/>
<path d="M217.593 506.262C217.394 508.489 216.574 510.703 216.459 512.967C216.412 513.915 216.212 514.822 216.175 515.768C216.173 515.797 216.065 516.97 216.183 516.275" stroke="#294064" stroke-width="1.02466" stroke-miterlimit="10" stroke-linecap="round" stroke-linejoin="round"/>
<path d="M225.979 508.441C226.433 511.208 224.701 515.917 224.338 518.854" stroke="#294064" stroke-width="1.02466" stroke-miterlimit="10" stroke-linecap="round" stroke-linejoin="round"/>
<path d="M242.362 509.516C241.855 512.516 242.132 516.622 241.23 519.413" stroke="#294064" stroke-width="1.02466" stroke-miterlimit="10" stroke-linecap="round" stroke-linejoin="round"/>
<path d="M246.332 509.258C245.71 511.945 244.729 516.719 245.187 519.521" stroke="#294064" stroke-width="1.02466" stroke-miterlimit="10" stroke-linecap="round" stroke-linejoin="round"/>
<path d="M267.288 505.707C267.139 508.121 267.035 510.54 266.921 512.951C266.889 513.621 266.758 514.385 266.647 515.043C266.635 515.109 266.433 516.392 266.373 516.08" stroke="#294064" stroke-width="1.02466" stroke-miterlimit="10" stroke-linecap="round" stroke-linejoin="round"/>
<path d="M136.647 469.07C134.942 474.862 133.001 480.678 131.298 486.464" stroke="#294064" stroke-width="1.02466" stroke-miterlimit="10" stroke-linecap="round" stroke-linejoin="round"/>
<path d="M146.287 470.965C145.409 471.799 145.357 473.853 145.075 474.928C143.495 480.957 142.026 487.066 141.197 493.25C140.931 495.239 140.458 497.221 140.31 499.232C140.278 499.666 139.99 501.649 139.899 501.56" stroke="#294064" stroke-width="1.02466" stroke-miterlimit="10" stroke-linecap="round" stroke-linejoin="round"/>
<path d="M49.9297 443.951C50.721 443.712 48.4122 444.851 47.9768 445.104C46.0669 446.213 44.1704 447.445 42.442 448.815C39.6272 451.046 30.326 458.359 29.1465 462.235" stroke="#294064" stroke-width="1.02466" stroke-miterlimit="10" stroke-linecap="round" stroke-linejoin="round"/>
<path d="M53.9493 450.742C51.7112 451.551 49.5686 453.896 47.667 455.33C41.638 459.878 36.8786 465.205 31.7363 470.566" stroke="#294064" stroke-width="1.02466" stroke-miterlimit="10" stroke-linecap="round" stroke-linejoin="round"/>
<path d="M72.9235 486.59C69.9555 488.393 67.2312 492.865 65.8291 495.883" stroke="#294064" stroke-width="1.02466" stroke-miterlimit="10" stroke-linecap="round" stroke-linejoin="round"/>
<path d="M76.4638 491.266C73.8966 493.19 71.8755 496.727 70.4727 499.546" stroke="#294064" stroke-width="1.02466" stroke-miterlimit="10" stroke-linecap="round" stroke-linejoin="round"/>
<path d="M91.0737 499.68C88.6016 501.533 87.3824 505.56 86.0439 508.25" stroke="#294064" stroke-width="1.02466" stroke-miterlimit="10" stroke-linecap="round" stroke-linejoin="round"/>
<path d="M100.451 502.879C99.3194 505.151 96.548 508.449 96.5804 511.169" stroke="#294064" stroke-width="1.02466" stroke-miterlimit="10" stroke-linecap="round" stroke-linejoin="round"/>
<path d="M159.726 390.059C160.29 394.116 159.156 399.375 157.825 403.181" stroke="#294064" stroke-width="1.02466" stroke-miterlimit="10" stroke-linecap="round" stroke-linejoin="round"/>
<path d="M156.657 405.914C156.098 407.035 155.569 408.156 154.947 409.245" stroke="#294064" stroke-width="1.02466" stroke-miterlimit="10" stroke-linecap="round" stroke-linejoin="round"/>
<path d="M232.572 403.836C233.793 409.204 234.96 414.315 235.493 419.834" stroke="#294064" stroke-width="1.02466" stroke-miterlimit="10" stroke-linecap="round" stroke-linejoin="round"/>
<path d="M250.441 389.66C251.312 392.342 256.128 393.183 257.793 391.072" stroke="#294064" stroke-width="1.02466" stroke-miterlimit="10" stroke-linecap="round" stroke-linejoin="round"/>
<path d="M179.228 256.512C177.469 257.776 176.511 260.084 176.444 262.161C176.099 272.812 185.251 277.46 193.103 282.869" stroke="#294064" stroke-width="1.02466" stroke-miterlimit="10" stroke-linecap="round" stroke-linejoin="round"/>
<path d="M195.873 284.699C198.283 286.359 200.945 287.524 203.682 288.596" stroke="#294064" stroke-width="1.02466" stroke-miterlimit="10" stroke-linecap="round" stroke-linejoin="round"/>
<path d="M226.375 291.818C233.007 291.67 239.445 292.17 246.111 291.586" stroke="#294064" stroke-width="1.02466" stroke-miterlimit="10" stroke-linecap="round" stroke-linejoin="round"/>
<path d="M326.051 231.871C327.858 232.804 328.859 238.149 329.046 239.937C329.93 248.401 326.15 256.939 320.921 263.413" stroke="#294064" stroke-width="1.02466" stroke-miterlimit="10" stroke-linecap="round" stroke-linejoin="round"/>
<path d="M47.0303 269.742C49.564 267.286 51.263 263.319 53.3594 260.475C57.7709 254.493 66.7465 246.226 73.4817 242.969" stroke="white" stroke-width="1.02466" stroke-miterlimit="10" stroke-linecap="round" stroke-linejoin="round"/>
<path d="M80.9668 238.562C83.4374 236.167 87.3335 235.024 90.3561 233.449" stroke="white" stroke-width="1.02466" stroke-miterlimit="10" stroke-linecap="round" stroke-linejoin="round"/>
<path d="M98.416 230.192C110.756 226.224 123.266 225.303 136.208 226.319" stroke="white" stroke-width="1.02466" stroke-miterlimit="10" stroke-linecap="round" stroke-linejoin="round"/>
<path d="M150.277 357.547C147.157 359.54 145.288 363.423 142.312 365.723C134.327 371.896 122.656 380.121 111.986 380.135" stroke="white" stroke-width="1.02466" stroke-miterlimit="10" stroke-linecap="round" stroke-linejoin="round"/>
<path d="M104.878 381.344C100.541 381.599 96.5728 381.798 92.1318 381.443" stroke="white" stroke-width="1.02466" stroke-miterlimit="10" stroke-linecap="round" stroke-linejoin="round"/>
<path d="M84.9909 382.188C82.6275 382.327 80.1643 381.57 77.877 381.027" stroke="white" stroke-width="1.02466" stroke-miterlimit="10" stroke-linecap="round" stroke-linejoin="round"/>
<path d="M385.833 410.816C383.926 417.083 382.796 422.845 377.909 427.94" stroke="white" stroke-width="1.02466" stroke-miterlimit="10" stroke-linecap="round" stroke-linejoin="round"/>
<path d="M375.478 431.273C374.044 432.769 372.78 434.382 371.16 435.697" stroke="white" stroke-width="1.02466" stroke-miterlimit="10" stroke-linecap="round" stroke-linejoin="round"/>
<path d="M274.653 487.137C280.593 489.454 280.239 495.204 275.141 498.114" stroke="white" stroke-width="1.02466" stroke-miterlimit="10" stroke-linecap="round" stroke-linejoin="round"/>
<path d="M271.417 499.707C268.169 501.067 264.702 501.904 261.328 502.923" stroke="white" stroke-width="1.02466" stroke-miterlimit="10" stroke-linecap="round" stroke-linejoin="round"/>
<path d="M257.054 503.543C254.48 504.619 251.013 504.834 248.238 504.675" stroke="white" stroke-width="1.02466" stroke-miterlimit="10" stroke-linecap="round" stroke-linejoin="round"/>
<path d="M163.22 479.641C164.002 478.114 163.82 475.582 164.599 473.809C166.055 470.495 170.214 466.647 172.759 464.164" stroke="white" stroke-width="1.02466" stroke-miterlimit="10" stroke-linecap="round" stroke-linejoin="round"/>
<path d="M175.4 459.787C176.462 458.751 177.204 457.36 177.929 456.086" stroke="white" stroke-width="1.02466" stroke-miterlimit="10" stroke-linecap="round" stroke-linejoin="round"/>
<path d="M134.644 463.156C133.053 457.484 137.181 450.643 139.986 445.844" stroke="white" stroke-width="1.02466" stroke-miterlimit="10" stroke-linecap="round" stroke-linejoin="round"/>
<path d="M141.928 441.212C142.59 440.079 142.933 438.709 143.542 437.527" stroke="white" stroke-width="1.02466" stroke-miterlimit="10" stroke-linecap="round" stroke-linejoin="round"/>
<path d="M129.884 496.59C124.753 500.704 113.157 501.897 107.03 500.196" stroke="white" stroke-width="1.02466" stroke-miterlimit="10" stroke-linecap="round" stroke-linejoin="round"/>
<path d="M102.126 498.909C99.709 498.377 97.3047 497.848 94.9131 497.184" stroke="white" stroke-width="1.02466" stroke-miterlimit="10" stroke-linecap="round" stroke-linejoin="round"/>
<path d="M90.5965 495.026C88.3993 494.071 86.4558 493.196 84.8701 491.312" stroke="white" stroke-width="1.02466" stroke-miterlimit="10" stroke-linecap="round" stroke-linejoin="round"/>
</svg>
