<svg width="144" height="144" viewBox="0 0 144 144" fill="none" xmlns="http://www.w3.org/2000/svg">
<path d="M0 0H144V144H0V0Z" fill="#AD00FF"/>
<path d="M87.4396 31.1605C71.0889 31.1605 51.2814 29.2058 39.0135 42.2525C34.2483 47.3203 30.3519 53.0108 28.965 59.8761C27.1775 68.7242 25.0019 79.1391 26.3756 88.2052C27.0132 92.4134 33.6792 101.195 37.5449 102.698C41.7432 104.331 46.9878 104.205 51.4196 104.205C56.864 104.205 62.4669 104.583 67.8837 103.896C82.4262 102.051 96.3253 91.4413 104.252 79.3934C109.277 71.7548 108.804 60.3902 107.459 51.8759C106.578 46.2966 102.918 39.8306 98.1451 36.6485C95.5268 34.903 92.9955 32.4452 90.029 31.3151C88.4409 30.7101 86.3591 30.9512 84.657 30.4648" stroke="white" stroke-width="3" stroke-linecap="round"/>
<path d="M68.6557 51.334C65.5107 51.334 64.5757 54.7105 63.129 57.1699C59.9357 62.5985 58.2207 68.5862 58.2207 74.948C58.2207 81.2945 64.3167 82.4529 69.8924 81.866C74.6116 81.3693 80.4138 76.3548 82.1439 71.9334C84.8313 65.0657 79.6901 59.58 74.8394 55.5853C73.2023 54.237 65.873 52.4588 65.873 55.508" stroke="white" stroke-width="3" stroke-linecap="round"/>
<path d="M71.4389 68.0293C70.189 68.0293 69.5584 68.1235 68.6562 68.725" stroke="white" stroke-width="3" stroke-linecap="round"/>
</svg>
