<svg width="414" height="861" viewBox="0 0 414 861" fill="none" xmlns="http://www.w3.org/2000/svg">
<g clip-path="url(#clip0_5304_21464)">
<path d="M0 0H414V841C414 852.046 405.046 861 394 861H20C8.95432 861 0 852.046 0 841V0Z" fill="#B9A3C5"/>
<path d="M181.632 472.887C170.889 474.287 151.523 483.093 144.781 491.088C137.833 499.326 131.763 506.817 129.618 517.842C125.34 539.824 138.886 560.156 157.444 570.789C180.451 583.972 219.101 599.802 245.418 588.431C250.473 586.247 254.893 582.363 259.246 579.109C276.289 566.369 293.368 550.516 298.846 529.15C301.248 519.779 297.548 508.626 295.635 499.484C293.471 489.144 292.161 477.565 286.664 468.279C283.792 463.425 276.425 459.821 272.043 456.449" fill="#2F2F2F"/>
<path d="M181.632 472.887C170.889 474.287 151.523 483.093 144.781 491.088C137.833 499.326 131.763 506.817 129.618 517.842C125.34 539.824 138.886 560.156 157.444 570.789C180.451 583.972 219.101 599.802 245.418 588.431C250.473 586.247 254.893 582.363 259.246 579.109C276.289 566.369 293.368 550.516 298.846 529.15C301.248 519.779 297.548 508.626 295.635 499.484C293.471 489.144 292.161 477.565 286.664 468.279C283.792 463.425 276.425 459.821 272.043 456.449" stroke="#294064" stroke-miterlimit="10" stroke-linecap="round"/>
<path d="M383.179 504.512C388.606 508.094 394.533 514.516 396.371 521.79C399.125 532.693 395.364 543.686 384.861 548.62C361.759 559.469 337.506 544.121 329.585 521.805C327.98 517.284 326.46 512.725 325.211 508.093C324.269 504.6 324.421 500.963 327.241 498.624" fill="#2F2F2F"/>
<path d="M383.179 504.512C388.606 508.094 394.533 514.516 396.371 521.79C399.125 532.693 395.364 543.686 384.861 548.62C361.759 559.469 337.506 544.121 329.585 521.805C327.98 517.284 326.46 512.725 325.211 508.093C324.269 504.6 324.421 500.963 327.241 498.624" stroke="#294064" stroke-miterlimit="10" stroke-linecap="round"/>
<path d="M376.187 568.565C375.142 578.49 371.854 585.182 363.456 590.402C355.054 595.625 348.124 600.086 337.75 599.573C322.915 598.84 309.329 586.864 304.929 573.404C304.007 570.584 302.254 564.647 303.258 561.756C307.371 549.909 328.174 537.327 340.276 540.912" fill="#2F2F2F"/>
<path d="M376.187 568.565C375.142 578.49 371.854 585.182 363.456 590.402C355.054 595.625 348.124 600.086 337.75 599.573C322.915 598.84 309.329 586.864 304.929 573.404C304.007 570.584 302.254 564.647 303.258 561.756C307.371 549.909 328.174 537.327 340.276 540.912" stroke="#294064" stroke-miterlimit="10" stroke-linecap="round"/>
<path d="M311.502 584.024C319.52 604.602 308.469 618.076 285.858 616.922C275.337 616.385 267.624 609.97 257.964 605.883C255.859 604.992 243.324 595.308 243.324 597.67" fill="#2F2F2F"/>
<path d="M311.502 584.024C319.52 604.602 308.469 618.076 285.858 616.922C275.337 616.385 267.624 609.97 257.964 605.883C255.859 604.992 243.324 595.308 243.324 597.67" stroke="#294064" stroke-miterlimit="10" stroke-linecap="round"/>
<path d="M337.28 383.386C343.455 377.848 341.277 366.507 339.51 360.31C337.968 354.904 336.699 350.325 332.825 346.33C327.3 340.631 319.474 336.861 311.555 337.004C281.001 337.555 279.905 349.574 275.837 364.548C271.455 380.682 293.096 395.58 307.01 395.813C319.75 396.026 328.09 391.63 337.28 383.386Z" fill="#2F2F2F" stroke="#294064" stroke-miterlimit="10" stroke-linecap="round"/>
<path d="M373.753 456.527C377.06 457.699 383.456 463.197 383.841 475.795C384.227 488.393 377.827 497.367 374.535 500.312C374.341 500.482 374.059 500.459 373.883 500.269C373.719 500.08 373.723 499.786 373.914 499.616C377.041 496.821 383.304 488.102 382.93 475.819C382.552 463.535 376.343 458.41 373.448 457.386C373.208 457.301 373.078 457.04 373.162 456.801C373.25 456.562 373.517 456.442 373.753 456.527Z" fill="#2E4166"/>
<path d="M322.947 438.082C348.383 443.198 368.826 449.468 373.231 456.63C383.292 473 375.637 491.647 370.557 498.924C375.126 500.163 379.184 502.098 382.72 504.288C380.901 504.517 379.211 504.969 377.59 505.614C374.768 506.737 372.094 508.474 370 510.428C369.954 510.472 369.928 510.525 369.878 510.569C369.524 510.39 369.18 510.196 368.806 510.032C366.27 508.914 363.593 508.198 360.416 508.162C358.917 508.145 357.509 508.291 356.175 508.565C355.61 508.414 355.606 508.461 354.782 508.226C354.546 508.158 354.447 508.126 354.313 508.088C352.54 507.584 351.155 507.242 349.798 506.92C347.372 501.762 340.976 507.044 334.951 505.879C324.93 503.941 316.913 501.223 314.974 511.244C314.419 514.114 314.377 517.77 314.697 521.132C314.896 523.22 315.236 525.223 315.817 527.207C316.281 528.793 316.887 530.337 317.745 531.897C319.224 534.589 321.249 537.02 324.23 538.998C325.416 539.786 326.631 540.395 327.86 540.912C325.055 541.458 322.284 541.788 319.613 541.823C313.199 541.906 307.034 541.242 295.545 539.439C294.976 539.349 294.52 539.274 293.48 539.11C288.817 538.374 286.715 538.049 284.041 537.673C280.524 537.178 277.647 536.821 271.676 536.093C262.573 534.983 258.809 534.484 254.114 533.708C245.962 532.362 239.321 530.687 233.219 528.42C227.249 524.117 220.941 519.478 213.104 513.566C211.764 512.361 210.043 510.815 208.054 509.024C208.105 509.01 208.137 508.994 208.192 508.98C210.122 508.507 212.826 508.259 215.957 508.306C220.449 508.372 225.326 509.074 228.941 509.97C231.69 518.19 239.947 523.583 248.864 522.411C252.418 521.944 255.856 520.703 259.02 518.257C263.13 515.08 265.749 510.514 266.484 505.513C266.771 503.561 266.735 501.732 266.508 499.977C266.542 499.265 266.547 498.556 266.506 497.859C266.415 496.329 266.161 495.031 265.807 493.806C265.46 492.605 265.081 491.673 264.642 490.769C262.372 486.101 259.003 482.378 254.659 479.851C254.606 479.82 254.551 479.803 254.498 479.772C253.74 479.224 252.942 478.697 251.924 478.18C249.92 477.164 247.816 476.431 244.918 476.202C244.856 476.197 244.792 476.205 244.73 476.201C241.058 474.845 236.744 473.709 232.126 472.881C227.062 471.973 221.679 471.43 216.504 471.354C210.432 471.264 204.668 471.803 199.403 473.093C192.367 474.817 186.23 477.849 181.41 482.731C180.872 483.276 180.383 483.852 179.926 484.444C179.047 483.716 178.106 482.887 177.225 482.168C176.869 481.878 175.56 480.826 174.283 479.799C163.004 466.522 165.031 454.703 167.509 450.408C179.654 418.7 209.954 420.05 223.587 424.69C249.287 426.843 290.245 431.505 322.947 438.082Z" fill="#2F2F2F"/>
<path d="M323.035 437.629C333.945 439.823 343.951 442.236 352.17 444.84C357.654 446.577 362.345 448.401 365.992 450.314C369.634 452.219 372.292 454.244 373.616 456.399C378.715 464.702 379.333 473.568 378.029 481.264C376.789 488.595 373.814 494.891 371.301 498.657C376.282 500.087 380.595 502.325 384.299 504.806C384.062 505.019 383.833 505.247 383.608 505.472C379.855 502.984 375.492 500.744 370.435 499.371C366.281 498.245 361.724 497.676 356.819 497.985C356.571 498.002 356.357 497.817 356.338 497.563C356.323 497.31 356.514 497.086 356.773 497.071C361.659 496.762 366.209 497.298 370.362 498.393C372.842 494.761 375.87 488.484 377.117 481.123C378.391 473.584 377.796 464.939 372.842 456.873C371.652 454.936 369.165 453.01 365.564 451.125C361.972 449.245 357.334 447.441 351.884 445.714C340.983 442.261 326.898 439.14 311.683 436.41C281.261 430.952 246.381 427.066 223.545 425.152L223.488 425.141L223.431 425.131C216.685 422.834 205.802 421.345 195.111 424.359C184.447 427.368 173.959 434.851 167.949 450.564L167.929 450.607L167.9 450.637C165.502 454.807 163.386 466.68 175.093 480.051L175.575 480.603L175.351 480.666C174.217 479.754 173.307 479.022 172.582 478.436C162.736 465.733 164.62 454.525 167.089 450.21C173.219 434.236 183.946 426.558 194.87 423.477C205.739 420.408 216.798 421.905 223.686 424.239C246.539 426.154 281.419 430.042 311.858 435.503C315.664 436.186 319.398 436.898 323.035 437.629Z" fill="#2E4166"/>
<path d="M312.156 390.498C341.966 396.263 363.801 416.353 365.124 437.564C365.17 438.312 365.178 438.565 365.174 439.315C366.734 437.381 369.998 434.035 377.493 436.686C384.98 439.335 383.813 447.092 382.299 450.638C380.548 453.639 375.33 458.707 368.45 454.972C367.268 454.409 364.617 452.622 363.469 449.997C363.248 450.654 362.992 451.307 362.729 451.947C355.46 469.436 333.088 480.199 307.301 478.862C306.632 483.188 304.776 492.931 302.727 497.342C300.158 502.855 279.557 505.885 274.648 489.912C277.707 486.498 279.438 477.147 279.926 472.897C258.958 464.551 244.417 448.729 242.52 431.993C242.398 430.947 242.322 429.898 242.306 428.846C239.696 430.84 233.065 433.673 227.381 429.066C221.697 424.459 223.527 417.599 225.152 414.741C226.991 412.092 232.45 408.029 239.489 412.996C240.692 413.73 243.215 415.924 243.726 418.827C244.277 417.431 244.53 416.487 245.02 415.36C253.681 395.574 281.864 384.639 312.156 390.498Z" fill="#FEC5B1"/>
<path d="M312.156 390.498C341.966 396.263 363.801 416.353 365.124 437.564C365.132 437.698 365.155 437.816 365.158 437.924C365.185 438.416 365.178 438.699 365.174 439.315C365.425 438.998 365.731 438.639 366.089 438.28C367.912 436.442 371.223 434.468 377.493 436.686C384.98 439.335 383.813 447.092 382.299 450.638C380.548 453.639 375.33 458.707 368.45 454.972C367.435 454.491 365.357 453.113 364.06 451.087C363.835 450.742 363.633 450.378 363.469 449.997C363.332 450.395 363.187 450.791 363.042 451.185C362.939 451.438 362.832 451.695 362.729 451.947C355.46 469.436 333.088 480.199 307.301 478.862C306.632 483.188 304.776 492.931 302.727 497.342C300.158 502.855 279.557 505.885 274.648 489.912C277.707 486.498 279.438 477.147 279.926 472.897C258.958 464.551 244.417 448.728 242.52 431.993C242.441 431.313 242.386 430.632 242.351 429.949C242.334 429.582 242.314 429.214 242.306 428.846C242.047 429.047 241.75 429.252 241.41 429.461C238.376 431.331 232.496 433.21 227.381 429.066C221.697 424.459 223.527 417.599 225.152 414.741C226.991 412.092 232.45 408.029 239.489 412.996C240.479 413.6 242.365 415.199 243.29 417.366C243.483 417.828 243.631 418.314 243.726 418.827C243.938 418.273 244.114 417.794 244.271 417.344C244.29 417.292 244.306 417.241 244.325 417.19C244.542 416.566 244.748 415.989 245.02 415.36C253.681 395.574 281.864 384.639 312.156 390.498ZM311.98 391.405C281.901 385.587 254.275 396.506 245.853 415.733C245.62 416.261 245.441 416.751 245.256 417.3C245.227 417.361 245.218 417.422 245.196 417.488C245.03 417.983 244.835 418.533 244.589 419.17L243.378 422.207L242.825 418.982C242.608 417.743 241.954 416.623 241.166 415.697C240.387 414.772 239.526 414.102 239.007 413.785L238.986 413.769L238.955 413.751C235.652 411.419 232.812 411.254 230.631 411.895C228.414 412.542 226.762 414.051 225.927 415.232C225.189 416.548 224.391 418.792 224.439 421.226C224.489 423.649 225.355 426.245 227.954 428.353C230.561 430.467 233.371 430.871 235.865 430.518C238.386 430.162 240.559 429.031 241.764 428.118L243.202 427.008L243.239 428.827C243.252 429.849 243.316 430.869 243.435 431.888C245.279 448.168 259.49 463.763 280.27 472.035L280.924 472.302L280.849 472.993C280.598 475.154 280.046 478.601 279.152 481.948C278.331 485.014 277.186 488.166 275.668 490.109C278.091 497.306 283.952 500.249 289.654 500.766C292.565 501.03 295.406 500.655 297.647 499.889C299.943 499.103 301.404 497.985 301.884 496.956C302.872 494.849 303.834 491.393 304.631 487.863C305.432 484.357 306.054 480.854 306.39 478.709L306.511 477.898L307.35 477.942C332.928 479.267 354.83 468.584 361.878 451.595C362.142 450.974 362.378 450.337 362.599 449.699L363.362 447.458L364.319 449.632C364.815 450.781 365.658 451.78 366.551 452.569C367.443 453.358 368.339 453.9 368.847 454.142L368.869 454.147L368.889 454.162C372.047 455.876 374.755 455.552 376.894 454.499C379.053 453.433 380.655 451.595 381.475 450.22C382.173 448.554 382.779 445.939 382.367 443.475C381.955 441.054 380.582 438.757 377.184 437.555C373.595 436.286 371.139 436.487 369.438 437.14C367.721 437.799 366.638 438.966 365.895 439.89L364.239 441.946L364.255 439.314C364.266 438.582 364.262 438.347 364.216 437.624C362.931 417.001 341.569 397.127 311.98 391.405Z" fill="#2E4166"/>
<path d="M294.808 378.047C301.768 379.48 308.714 382.011 313.837 386.245C325.629 383.811 352.878 384.823 367.512 408.329C369.735 412.335 373.565 423.539 371.093 436.325C369.583 436.358 366.078 437.404 364.125 441.318C362.779 438.782 359.655 433.434 357.878 432.31C355.65 430.904 313.812 427.689 311.655 397.526C306.182 406.871 286.382 423.36 250.921 414.551L243.591 421.422C243.321 416.818 239.796 409.567 228.98 411.766C230.859 402.052 242.261 380.298 271.748 376.638C276.891 376.169 285.859 376.204 294.808 378.047Z" fill="#2F2F2F"/>
<path d="M294.86 377.584C301.795 379.008 308.765 381.515 313.955 385.736C325.951 383.342 353.203 384.47 367.898 408.071L367.905 408.081L367.909 408.09C370.171 412.173 374.035 423.491 371.536 436.401L371.464 436.769L371.09 436.771C369.725 436.801 366.395 437.777 364.53 441.512L364.133 442.314L363.718 441.52C363.054 440.263 361.937 438.306 360.777 436.526C360.194 435.634 359.61 434.795 359.057 434.112C358.496 433.418 358.001 432.921 357.627 432.683C357.612 432.672 357.535 432.643 357.402 432.598C357.268 432.555 357.108 432.505 356.898 432.452C356.479 432.346 355.922 432.23 355.247 432.09C354.957 432.031 354.644 431.961 354.305 431.892C353.088 431.643 351.601 431.344 349.919 430.961C345.632 429.987 340.101 428.507 334.559 426.117C323.826 421.484 312.971 413.393 311.324 398.912C304.885 408.523 285.138 423.421 251.052 415.048L243.194 422.422L243.135 421.441C243.001 419.224 242.086 416.384 239.927 414.372C237.789 412.379 234.362 411.13 229.073 412.206L228.398 412.349L228.53 411.67C230.438 401.805 241.955 379.858 271.676 376.167L271.692 376.17L271.7 376.172C276.308 375.752 283.94 375.733 291.899 377.036C292.883 377.197 293.869 377.38 294.86 377.584ZM294.709 378.491C293.72 378.287 292.734 378.105 291.748 377.943C283.883 376.657 276.326 376.671 271.781 377.082C243.211 380.635 231.794 401.312 229.57 411.175C234.717 410.288 238.252 411.556 240.554 413.697C242.625 415.627 243.64 418.223 243.958 420.439L250.784 414.035L251.03 414.09C286.298 422.851 305.89 406.448 311.258 397.283L312.003 396.001L312.114 397.482C313.176 412.308 323.97 420.543 334.923 425.267C340.391 427.627 345.864 429.096 350.117 430.063C351.791 430.443 353.271 430.742 354.488 430.991C354.82 431.058 355.14 431.129 355.426 431.189C356.113 431.33 356.685 431.448 357.123 431.558C357.341 431.613 357.539 431.667 357.695 431.719C357.844 431.77 357.997 431.833 358.115 431.908C358.634 432.233 359.198 432.831 359.774 433.538C360.346 434.253 360.964 435.117 361.555 436.021C362.524 437.508 363.451 439.115 364.126 440.348C366.067 437.134 369.042 436.054 370.694 435.882C373.005 423.376 369.263 412.449 367.108 408.549C352.619 385.289 325.63 384.269 313.929 386.684L313.714 386.726L313.542 386.585C308.495 382.417 301.631 379.917 294.709 378.491Z" fill="#2E4166"/>
<path d="M293.785 416.367C294.72 416.531 295.543 416.747 296.165 416.96C296.404 417.043 296.531 417.305 296.45 417.546C296.368 417.786 296.103 417.912 295.864 417.83C294.71 417.434 292.766 417.005 290.733 417.02C288.699 417.036 286.639 417.501 285.174 418.805C284.983 418.974 284.693 418.952 284.527 418.763C284.362 418.573 284.37 418.283 284.562 418.115C286.269 416.6 288.588 416.123 290.727 416.107C291.805 416.1 292.85 416.203 293.785 416.367ZM314.566 420.519C316.015 420.799 318.254 421.477 320.319 422.618C322.376 423.753 324.34 425.391 325.087 427.618C325.164 427.858 325.036 428.119 324.801 428.201C324.557 428.281 324.304 428.148 324.219 427.906C323.577 426.003 321.858 424.521 319.872 423.427C317.903 422.339 315.764 421.687 314.392 421.422C314.146 421.374 313.976 421.127 314.024 420.878C314.072 420.628 314.32 420.471 314.566 420.519ZM303.443 426.947C303.7 426.979 303.871 427.21 303.84 427.463C303.814 427.688 303.775 427.921 303.744 428.174C303.555 429.516 303.328 431.204 303.398 432.749C303.476 434.617 303.986 436.002 305.225 436.459C306.596 436.962 308.285 437.589 309.479 438.55C310.079 439.036 310.573 439.627 310.844 440.364C311.105 441.105 311.118 441.943 310.803 442.892C310.443 443.98 309.874 444.755 309.127 445.253C308.39 445.75 307.52 445.946 306.615 445.945C304.823 445.941 302.796 445.175 301.033 444.293C300.8 444.179 300.715 443.901 300.829 443.674C300.943 443.447 301.216 443.355 301.449 443.47C303.18 444.336 305.046 445.023 306.611 445.024C307.384 445.025 308.074 444.861 308.62 444.492C309.165 444.126 309.627 443.536 309.93 442.607C310.187 441.824 310.17 441.191 309.981 440.669C309.793 440.14 309.42 439.676 308.903 439.259C307.845 438.411 306.304 437.84 304.9 437.324C303.07 436.652 302.561 434.682 302.479 432.786C302.408 431.152 302.655 429.371 302.835 428.031C302.874 427.787 302.903 427.557 302.927 427.344C302.966 427.093 303.194 426.915 303.443 426.947ZM289.636 446.822C289.887 446.793 290.115 446.974 290.146 447.227C290.446 449.901 292.051 451.777 293.984 453.051C295.934 454.33 298.171 454.966 299.627 455.161C299.884 455.196 300.054 455.433 300.023 455.686C299.983 455.936 299.758 456.108 299.501 456.073C297.941 455.864 295.562 455.183 293.488 453.817C291.398 452.444 289.578 450.352 289.232 447.324C289.202 447.071 289.384 446.85 289.636 446.822Z" fill="#2E4166"/>
<path d="M272.708 430.951C276.512 431.686 279.332 433.687 278.997 435.417C278.663 437.146 275.301 437.951 271.496 437.215C267.684 436.478 264.872 434.479 265.207 432.749C265.541 431.02 268.895 430.214 272.708 430.951Z" fill="#FF92B9"/>
<path d="M329.696 441.965C333.848 442.768 336.951 444.823 336.616 446.552C336.282 448.282 332.636 449.032 328.484 448.229C324.341 447.428 321.245 445.374 321.579 443.644C321.914 441.915 325.552 441.163 329.696 441.965Z" fill="#FF92B9"/>
<path d="M373.366 441.314C377.168 442.049 379.88 444.612 379.411 447.034C378.946 449.455 375.475 450.823 371.669 450.086C367.866 449.351 365.162 446.79 365.631 444.368C366.096 441.947 369.559 440.578 373.366 441.314Z" fill="#E4AC98"/>
<path d="M373.674 440.929C374.578 441.139 375.554 441.474 376.607 441.969C376.84 442.078 376.931 442.353 376.828 442.583C376.714 442.812 376.435 442.912 376.21 442.804C375.318 442.384 374.49 442.08 373.728 441.885C373.884 441.986 374.044 442.095 374.189 442.206C374.673 442.565 375.12 442.983 375.432 443.457C375.741 443.936 375.924 444.499 375.81 445.105C375.76 445.354 375.52 445.522 375.272 445.474C375.02 445.425 374.849 445.178 374.898 444.929C374.956 444.624 374.876 444.305 374.654 443.962C374.429 443.614 374.071 443.269 373.64 442.945C372.801 442.323 371.771 441.839 371.111 441.585C368.052 441.721 366.439 443.765 365.943 445.161C365.852 445.4 365.588 445.522 365.352 445.437C365.112 445.351 364.99 445.093 365.081 444.854C365.68 443.173 367.591 440.775 371.172 440.661C371.935 440.636 372.766 440.719 373.674 440.929Z" fill="#2E4166"/>
<path d="M233.821 416.934C236.939 417.537 239.084 419.981 238.615 422.403C238.147 424.825 235.244 426.302 232.126 425.699C229.017 425.097 226.873 422.644 227.342 420.223C227.81 417.801 230.712 416.332 233.821 416.934Z" fill="#E4AC98"/>
<path d="M233.338 416.371C234.141 416.5 234.842 416.691 235.458 416.939C238.336 418.1 239.224 420.364 239.204 421.783C239.199 422.037 238.99 422.235 238.736 422.231C238.482 422.228 238.282 422.025 238.278 421.77C238.296 420.728 237.652 418.847 235.196 417.824C234.668 417.822 233.872 418.059 233.109 418.416C232.713 418.597 232.353 418.801 232.051 418.998C231.747 419.205 231.549 419.382 231.465 419.499C231.319 419.707 231.039 419.755 230.83 419.608C230.621 419.462 230.577 419.173 230.723 418.966C230.904 418.708 231.202 418.459 231.535 418.236C231.878 418.006 232.29 417.777 232.715 417.577C232.927 417.482 233.154 417.39 233.373 417.307C232.591 417.167 231.69 417.096 230.649 417.119C230.393 417.125 230.184 416.925 230.18 416.672C230.176 416.418 230.371 416.208 230.627 416.204C231.634 416.179 232.536 416.242 233.338 416.371Z" fill="#2E4166"/>
<path d="M236.906 427.915C238.634 428.25 239.759 429.922 239.424 431.652C239.089 433.382 237.423 434.514 235.694 434.18C233.966 433.845 232.833 432.172 233.168 430.442C233.502 428.713 235.177 427.581 236.906 427.915Z" fill="#FFFB90"/>
<path d="M367.672 450.612C369.399 450.946 370.524 452.618 370.189 454.348C369.853 456.078 368.187 457.211 366.459 456.876C364.731 456.542 363.598 454.868 363.934 453.138C364.27 451.408 365.944 450.278 367.672 450.612Z" fill="#FFFB90"/>
<path fill-rule="evenodd" clip-rule="evenodd" d="M306.347 376.53C312.139 379.578 314.633 383.088 315.071 385.508C315.119 385.759 314.95 385.998 314.703 386.045C314.457 386.091 314.217 385.925 314.168 385.675C313.795 383.649 311.589 380.329 305.917 377.343C300.269 374.368 291.228 371.757 277.347 371.125C249.804 369.872 235.842 392.294 232.309 403.699C232.236 403.941 231.972 404.077 231.732 404.002C231.492 403.926 231.357 403.669 231.43 403.426C235.015 391.843 249.231 368.924 277.385 370.205C291.361 370.843 300.539 373.472 306.347 376.53Z" fill="#2E4166"/>
<path d="M326.105 492.78C356.931 502.234 378.476 542.108 407.138 546.378C422.686 542.267 465.283 551.1 472.309 568.226C477.534 580.961 472.309 585.353 463.087 595.014C434.982 616.093 417.416 600.284 407.138 595.014C362.015 600.687 305.645 542.267 305.645 542.267" fill="#FFC6B2"/>
<path d="M326.105 492.78C356.931 502.234 378.476 542.108 407.138 546.378C422.686 542.267 465.283 551.1 472.309 568.226C477.534 580.961 472.309 585.353 463.087 595.014C434.982 616.093 417.416 600.284 407.138 595.014C362.015 600.687 305.645 542.267 305.645 542.267" stroke="#294064" stroke-miterlimit="10" stroke-linecap="round"/>
<path d="M143.188 742.658C164.05 744.367 184.848 748.272 205.774 747.784C233.283 747.14 261.037 745.305 287.883 739.268C307.574 734.84 326.191 726.067 344.061 716.689C349.927 713.611 356.59 708.969 357.963 702.489C359.405 695.674 355.915 687.874 351.254 682.691C347.787 678.835 341.383 679.415 336.298 678.404C325.142 676.18 313.97 673.385 302.601 673.011C276.768 672.16 250.919 674.163 225.078 674.739" fill="#FFFB90"/>
<path d="M143.188 742.658C164.05 744.367 184.848 748.272 205.774 747.784C233.283 747.14 261.037 745.305 287.883 739.268C307.574 734.84 326.191 726.067 344.061 716.689C349.927 713.611 356.59 708.969 357.963 702.489C359.405 695.674 355.915 687.874 351.254 682.691C347.787 678.835 341.383 679.415 336.298 678.404C325.142 676.18 313.97 673.385 302.601 673.011C276.768 672.16 250.919 674.163 225.078 674.739" stroke="#294064" stroke-miterlimit="10" stroke-linecap="round"/>
<path d="M158.136 728.914C120.146 766.65 82.2638 810.9 58.2689 858.769C47.2193 880.81 58.693 889.243 65.9575 912.806C119.375 836.473 183.601 813.489 233.449 755.269C244.271 742.629 242.816 706.232 242.816 706.232" fill="#FFC6B2"/>
<path d="M158.136 728.914C120.146 766.65 82.2638 810.9 58.2689 858.769C47.2193 880.81 58.693 889.243 65.9575 912.806C119.375 836.473 183.601 813.489 233.449 755.269C244.271 742.629 242.816 706.232 242.816 706.232" stroke="#294064" stroke-miterlimit="10" stroke-linecap="round"/>
<path d="M259.266 708.395C296.318 753.888 348.082 804.9 390.852 845.065C408.942 862.053 438.832 903.537 447.097 885.745C451.143 877.038 447.287 833.013 447.287 833.013C447.287 833.013 422.561 799.553 412.161 783.79C386.275 744.574 368.399 705.736 336.262 671.46" fill="#FFC6B2"/>
<path d="M259.266 708.395C296.318 753.888 348.082 804.9 390.852 845.065C408.942 862.053 438.832 903.537 447.097 885.745C451.143 877.038 447.287 833.013 447.287 833.013C447.287 833.013 422.561 799.553 412.161 783.79C386.275 744.574 368.399 705.736 336.262 671.46" stroke="#294064" stroke-miterlimit="10" stroke-linecap="round"/>
<path d="M326.572 706.62C325.031 707.074 323.363 706.803 321.763 706.952C315.578 707.528 309.351 708.68 303.173 709.408C295.135 710.358 287.356 712.314 279.375 713.485C277.496 713.76 267.235 716.971 266.434 716.609C264.205 715.614 262.231 711.414 260.775 709.328C260.103 708.363 259.116 706.452 257.984 705.945C257.883 705.899 257.556 705.937 257.655 705.888C261.993 703.699 274.227 702.734 279.034 702.059C295.523 699.74 311.919 701.296 328.192 704.194C333.094 705.068 338.178 705.64 342.931 707.158" fill="#294064"/>
<path d="M326.572 706.62C325.031 707.074 323.363 706.803 321.763 706.952C315.578 707.528 309.351 708.68 303.173 709.408C295.135 710.358 287.356 712.314 279.375 713.485C277.496 713.76 267.235 716.971 266.434 716.609C264.205 715.614 262.231 711.414 260.775 709.328C260.103 708.363 259.116 706.452 257.984 705.945C257.883 705.899 257.556 705.937 257.655 705.888C261.993 703.699 274.227 702.734 279.034 702.059C295.523 699.74 311.919 701.296 328.192 704.194C333.094 705.068 338.178 705.64 342.931 707.158" stroke="#294064" stroke-miterlimit="10" stroke-linecap="round"/>
<path d="M243.14 710.956C243.14 710.956 221.959 715.258 197.296 722.852C172.633 730.446 143.544 743.383 143.544 743.383L124.773 726.666C124.773 726.666 237.243 706.387 256.634 702.485" fill="#294064"/>
<path d="M243.14 710.956C243.14 710.956 221.959 715.258 197.296 722.852C172.633 730.446 143.544 743.383 143.544 743.383L124.773 726.666C124.773 726.666 237.243 706.387 256.634 702.485" stroke="#294064" stroke-miterlimit="10" stroke-linecap="round"/>
<path d="M412.555 867.234C415.736 874.195 422.746 879.828 422.746 879.828L438.208 892.727C438.208 892.727 448.704 913.639 457.388 919.002C463.304 922.656 475.005 921.004 481.958 920.905C488.018 920.817 491.992 915.398 497.82 913.719C496.073 908.46 495.589 902.598 492.584 897.941C473.876 868.947 452.865 841.505 433.005 813.289" fill="#FFC6B2"/>
<path d="M412.555 867.234C415.736 874.195 422.746 879.828 422.746 879.828L438.208 892.727C438.208 892.727 448.704 913.639 457.388 919.002C463.304 922.656 475.005 921.004 481.958 920.905C488.018 920.817 491.992 915.398 497.82 913.719C496.073 908.46 495.589 902.598 492.584 897.941C473.876 868.947 452.865 841.505 433.005 813.289" stroke="#294064" stroke-miterlimit="10" stroke-linecap="round"/>
<path d="M58.3852 859.375C58.3852 859.375 48.7614 866.949 41.9889 875.348C30.8654 889.139 41.6361 896.695 42.889 910.639C43.9554 922.511 46.4116 939.888 46.4116 939.888L55.3844 940.468L56.5698 907.923C56.5698 907.923 66.3145 904.2 67.2665 890.745C68.1178 878.712 58.3852 859.375 58.3852 859.375Z" fill="#FFD432" stroke="#294064" stroke-miterlimit="10" stroke-linecap="round"/>
<path d="M57.9011 857.899C57.6086 857.888 57.3111 857.983 57.0788 858.2C56.6139 858.628 56.5792 859.356 57.0075 859.818C57.7024 860.573 59.1174 861.412 61.2861 862.464C61.8383 862.735 62.4428 863.014 63.0977 863.311C63.9414 863.696 67.8774 865.424 68.4495 865.706C77.6656 870.26 91.7473 874.276 99.7837 873.99C100.415 873.967 100.915 873.441 100.892 872.812C100.87 872.179 100.332 871.679 99.7002 871.702C92.1062 871.973 78.3689 868.056 69.4625 863.658C68.8351 863.349 64.8403 861.591 64.0394 861.225C63.4005 860.935 62.8212 860.664 62.2872 860.405C60.3909 859.482 59.1273 858.734 58.6998 858.269C58.4858 858.036 58.1937 857.914 57.9011 857.899Z" fill="#FFD432" stroke="#294064" stroke-miterlimit="10" stroke-linecap="round"/>
<path d="M64.8621 843.951C64.5753 843.894 64.2679 843.943 64.004 844.119C63.4765 844.466 63.3346 845.175 63.6824 845.702C69.4629 854.478 78.216 862.113 89.367 868.887C89.9555 869.242 92.3133 870.737 92.1562 870.638C93.8378 871.694 95.0769 872.4 96.3275 872.972C97.4012 873.468 98.4157 873.822 99.3787 874.021C99.9977 874.15 100.598 873.746 100.725 873.128C100.853 872.51 100.451 871.908 99.8318 871.782C99.0553 871.622 98.2189 871.324 97.2929 870.901C96.1532 870.374 94.9755 869.703 93.3717 868.696C93.5483 868.807 91.171 867.3 90.5589 866.93C79.6734 860.321 71.1579 852.891 65.5894 844.439C65.4155 844.176 65.1489 844.008 64.8621 843.951Z" fill="#FFD432" stroke="#294064" stroke-miterlimit="10" stroke-linecap="round"/>
<path d="M64.9587 842.915C64.6726 842.976 64.4148 843.151 64.2436 843.414C63.9014 843.948 64.046 844.646 64.5773 844.99C70.746 848.96 79.3351 853.232 87.7236 856.382C97.55 860.074 106.463 862.038 113.266 861.699C113.896 861.668 114.381 861.138 114.35 860.509C114.319 859.876 113.777 859.391 113.146 859.422C106.715 859.742 98.0935 857.843 88.5341 854.25C80.2944 851.153 71.8464 846.954 65.8168 843.071C65.5514 842.9 65.2451 842.854 64.9587 842.915Z" fill="#FFD432" stroke="#294064" stroke-miterlimit="10" stroke-linecap="round"/>
<path d="M74.0049 827.86C73.72 827.792 73.416 827.837 73.1467 828.005C72.6078 828.333 72.4354 829.039 72.7653 829.577C76.8394 836.228 82.787 842.094 90.6076 847.609C96.5704 851.816 102.625 855.252 112.419 860.291C112.981 860.581 113.667 860.367 113.956 859.803C114.246 859.242 114.03 858.555 113.468 858.266C103.762 853.269 97.7844 849.871 91.9306 845.74C84.3454 840.389 78.6126 834.741 74.72 828.387C74.5549 828.116 74.2898 827.929 74.0049 827.86Z" fill="#FFD432" stroke="#294064" stroke-miterlimit="10" stroke-linecap="round"/>
<path d="M74.7668 826.704C74.4777 826.749 74.2008 826.902 74.0158 827.157C73.6459 827.669 73.766 828.397 74.2782 828.767C74.3103 828.79 76.1475 830.102 76.8168 830.579C78.7295 831.94 80.6621 833.298 82.502 834.572C82.7068 834.713 82.9093 834.85 83.1099 834.988C85.975 836.959 88.2874 838.485 89.8557 839.419C100.206 845.602 108.565 849.118 120.749 852.52C121.358 852.688 121.998 852.341 122.167 851.735C122.338 851.125 121.978 850.484 121.369 850.316C109.375 846.967 101.195 843.527 91.0239 837.455C89.5086 836.551 87.2363 835.049 84.409 833.103C84.2099 832.966 80.0446 830.064 78.1399 828.706C77.4732 828.233 75.6436 826.929 75.6131 826.906C75.3568 826.723 75.0559 826.658 74.7668 826.704Z" fill="#FFD432" stroke="#294064" stroke-miterlimit="10" stroke-linecap="round"/>
<path d="M81.2886 817.26C81.0094 817.172 80.6985 817.199 80.4182 817.344C79.8579 817.634 79.6383 818.32 79.9296 818.881C87.3215 833.096 104.65 845.979 122.134 852.017C122.731 852.223 123.394 851.91 123.6 851.311C123.806 850.716 123.482 850.064 122.885 849.858C105.911 844 89.0455 831.452 81.956 817.821C81.8103 817.542 81.5677 817.348 81.2886 817.26Z" fill="#FFD432" stroke="#294064" stroke-miterlimit="10" stroke-linecap="round"/>
<path d="M80.4586 793.053C79.5612 792.985 78.8693 793.488 78.3968 794.293C78.0874 794.823 77.8662 795.49 77.6935 796.295C77.4543 797.413 77.3254 798.801 77.3243 799.659C77.3204 801.917 77.5844 805.674 78.039 808.881C78.671 813.336 79.5783 816.528 80.9235 818.012C81.5158 818.664 82.3946 818.477 82.8187 817.894C82.9518 817.711 83.0296 817.512 83.1047 817.261C83.2634 816.734 83.4064 815.85 83.5693 814.58C83.6582 813.893 83.8729 812.013 83.8912 811.887C84.5602 807.314 84.5564 804.015 83.8553 799.419C83.7417 798.675 83.4202 797.317 83.0571 796.238C82.398 794.278 81.7062 793.149 80.4586 793.053ZM80.3156 795.639C80.5017 795.967 80.6993 796.402 80.8877 796.963C81.2077 797.916 81.4968 799.148 81.591 799.766C82.2577 804.137 82.2626 807.203 81.6268 811.551C81.607 811.685 81.4647 812.901 81.3644 813.733C80.2893 810.125 79.605 804.114 79.6127 799.659C79.6138 798.95 79.7195 797.733 79.9224 796.783C80.0307 796.28 80.1771 795.925 80.3156 795.639Z" fill="#FFD432" stroke="#294064" stroke-miterlimit="10" stroke-linecap="round"/>
<path d="M73.2304 798.383C72.965 798.383 72.7056 798.44 72.4436 798.562C70.5317 799.45 70.8478 803.036 72.7419 806.964C74.7862 811.205 77.6101 815.233 80.7391 818.227C81.1956 818.665 81.9229 818.662 82.36 818.204C82.7971 817.746 82.7807 817.022 82.3242 816.583C82.2395 816.503 82.1586 816.404 82.074 816.32C82.0644 816.255 82.1075 816.194 82.0862 816.129C81.7799 815.214 81.0015 812.83 81.0015 812.83C79.9133 809.497 79.4148 808.009 78.7607 806.167C77.0208 801.266 75.089 798.379 73.2304 798.383ZM73.5047 801.018C73.6637 801.163 73.8064 801.266 74.0051 801.529C74.8232 802.616 75.7202 804.454 76.6032 806.941C77.0784 808.28 77.6318 809.958 78.2363 811.793C76.9434 809.973 75.7801 807.99 74.8037 805.965C74.0219 804.34 73.5699 802.853 73.4688 801.708C73.4421 801.407 73.4833 801.228 73.5047 801.018Z" fill="#FFD432" stroke="#294064" stroke-miterlimit="10" stroke-linecap="round"/>
<path d="M453.508 838.006C453.477 838.01 451.818 838.281 451.219 838.388C449.503 838.681 447.783 839.002 446.177 839.341C443.988 839.803 442.188 840.268 440.876 840.71C427.019 845.386 414.616 853.792 407.61 864.201C407.255 864.727 407.396 865.448 407.919 865.799C408.441 866.154 409.151 866.001 409.506 865.478C416.203 855.528 428.186 847.408 441.6 842.88C442.813 842.472 444.545 842.026 446.654 841.58C448.229 841.248 449.911 840.932 451.601 840.638C452.192 840.535 453.828 840.272 453.855 840.268C454.48 840.173 454.903 839.581 454.808 838.96C454.713 838.334 454.133 837.907 453.508 838.006Z" fill="#FFD432" stroke="#294064" stroke-miterlimit="10" stroke-linecap="round"/>
<path d="M445.477 836.15C442.704 836.204 439.482 836.444 437.323 836.688C422.628 838.339 408.291 844.594 399.328 854.053C398.893 854.511 398.916 855.239 399.374 855.674C399.835 856.109 400.56 856.086 400.995 855.624C409.557 846.593 423.379 840.559 437.575 838.965C439.665 838.728 442.819 838.488 445.512 838.439C449.047 838.374 451.622 838.702 451.866 839.06C452.22 839.583 452.926 839.724 453.448 839.369C453.975 839.015 454.112 838.309 453.761 837.783C452.838 836.417 450.111 836.066 445.477 836.15Z" fill="#FFD432" stroke="#294064" stroke-miterlimit="10" stroke-linecap="round"/>
<path d="M442.236 822.388C441.263 822.312 439.711 822.503 437.502 823.14C434.238 824.078 432.445 824.722 429.279 826.095C416.384 831.687 404.824 841.092 398.23 851.947C397.902 852.484 398.085 853.19 398.626 853.518C399.164 853.846 399.858 853.678 400.186 853.137C406.518 842.717 417.704 833.605 430.183 828.193C433.257 826.858 434.962 826.244 438.136 825.333C439.257 825.008 440.199 824.818 440.973 824.722C441.477 824.661 441.835 824.657 442.056 824.677C442.075 824.677 442.083 824.677 442.068 824.677C442.693 824.776 443.281 824.349 443.38 823.723C443.479 823.098 443.052 822.51 442.426 822.411C442.381 822.403 442.316 822.392 442.236 822.388Z" fill="#FFD432" stroke="#294064" stroke-miterlimit="10" stroke-linecap="round"/>
<path d="M430.401 819.019C427.098 819.113 423.834 819.527 419.687 820.243C407.463 822.353 394.75 828.536 383.45 837.043C382.883 837.469 382.845 838.189 383.375 838.644C383.905 839.1 384.801 839.119 385.369 838.693C396.331 830.442 408.631 824.47 420.287 822.455C424.284 821.765 427.408 821.366 430.504 821.279C434.59 821.162 437.751 821.66 439.754 822.869C440.373 823.242 441.251 823.144 441.715 822.643C442.184 822.146 442.062 821.441 441.438 821.064C438.816 819.486 435.068 818.883 430.401 819.019Z" fill="#FFD432" stroke="#294064" stroke-miterlimit="10" stroke-linecap="round"/>
<path d="M430.886 806.086C412.831 811.611 400.166 819.094 387.496 831.383C386.271 832.574 383.614 836.998 383.05 838.578C382.837 839.187 383.32 839.803 384.133 839.962C384.945 840.121 385.773 839.766 385.987 839.161C386.454 837.848 388.954 833.693 389.909 832.767C402.264 820.78 414.507 813.554 432.044 808.189C432.821 807.95 433.207 807.277 432.887 806.699C432.567 806.12 431.663 805.848 430.886 806.086Z" fill="#FFD432" stroke="#294064" stroke-miterlimit="10" stroke-linecap="round"/>
<path d="M160.688 544.313C187.644 554.82 212.647 574.689 241.556 575.834C273.695 577.108 307.723 568.487 334.857 551.214C347.841 542.948 344.012 522.223 348.787 507.591C338.984 496.098 309.239 483.118 280.735 477.443C251.915 471.704 236.943 471.829 211.683 483C201.382 487.556 171.468 507.971 165.695 517.642C161.058 525.41 162.357 535.423 160.688 544.313Z" fill="#FFC6B2" stroke="#FFC6B2" stroke-miterlimit="10" stroke-linecap="round"/>
<path d="M256.441 472.934C270.428 501.53 248.325 519.942 286.24 524.81C324.659 529.742 315.735 486.509 315.735 486.509L329.343 492.489C329.343 492.489 339.299 550.526 327.457 565.017C308.581 588.114 268.76 592.059 239.242 596.358C211.163 600.448 184.717 546.683 156.404 544.799C154.657 506.455 215.038 479.562 215.038 479.562C215.038 479.562 222.836 476.643 229.796 475.068C236.756 473.494 242.877 473.264 242.877 473.264L256.441 472.934Z" fill="#FEDA8C" stroke="#294064" stroke-miterlimit="10" stroke-linecap="round"/>
<path d="M162.593 521.891C131.479 562.283 90.5462 553.73 69.8908 586.485C25.7861 656.425 141.859 741.927 141.859 741.927C141.859 741.927 194.072 717.25 246.596 709.5C299.12 701.754 346.615 711.697 346.615 711.697L358.736 677.287C358.736 677.287 264.108 627.232 215.449 603.391C218.956 593.227 203.773 574.759 207.279 564.594" fill="#FEDA8C"/>
<path d="M162.593 521.891C131.479 562.283 90.5462 553.73 69.8908 586.485C25.7861 656.425 141.859 741.927 141.859 741.927C141.859 741.927 194.072 717.25 246.596 709.5C299.12 701.754 346.615 711.697 346.615 711.697L358.736 677.287C358.736 677.287 264.108 627.232 215.449 603.391C218.956 593.227 203.773 574.759 207.279 564.594" stroke="#294064" stroke-miterlimit="10" stroke-linecap="round"/>
<path d="M248.199 508.329C246.676 478.059 229.808 477.679 221.257 481.198C209.617 485.988 200.462 497.708 196.392 509.619C184.145 545.459 167.01 565.26 175.016 602.278C177.162 612.202 198.712 626.204 198.712 626.204C198.712 626.204 204.295 642.634 210.347 636.299C219.104 627.134 222.941 614.165 227.348 602.278C237.338 575.331 249.722 538.599 248.199 508.329Z" fill="#FFC6B2" stroke="#294064" stroke-miterlimit="10" stroke-linecap="round"/>
<path d="M173.691 594.137C173.724 606.585 178.041 629.168 189.94 633.519C210.596 641.071 225.872 639.74 238.899 633.519C272.372 617.536 288.661 601.233 318.462 579.144C331.559 569.436 338.881 561.209 357.552 550.99C348.753 547.457 339.824 530.263 330.866 533.375C311.615 540.063 320.623 538.354 287.571 555.494C263.913 567.763 228.401 573.146 204.317 585.267" fill="#FFC6B2"/>
<path d="M173.691 594.137C173.724 606.585 178.041 629.168 189.94 633.519C210.596 641.071 225.872 639.74 238.899 633.519C272.372 617.536 288.661 601.233 318.462 579.144C331.559 569.436 338.881 561.209 357.552 550.99C348.753 547.457 339.824 530.263 330.866 533.375C311.615 540.063 320.623 538.354 287.571 555.494C263.913 567.763 228.401 573.146 204.317 585.267" stroke="#294064" stroke-miterlimit="10" stroke-linecap="round"/>
<path d="M318.714 536.573C317.745 531.745 320.377 526.166 322.764 522.217C330.852 508.839 342.758 507.781 357.129 511.687C360.093 512.493 363.8 513.014 366.512 514.533" fill="#FFC6B2"/>
<path d="M318.714 536.573C317.745 531.745 320.377 526.166 322.764 522.217C330.852 508.839 342.758 507.781 357.129 511.687C360.093 512.493 363.8 513.014 366.512 514.533" stroke="#294064" stroke-miterlimit="10" stroke-linecap="round"/>
<path d="M371.299 510.634C365.936 509.441 360.94 508.079 355.379 508.409C338.441 509.413 329.281 523.488 319.028 534.757C316.028 538.054 310.148 544.076 305.172 546.11" fill="#FFC6B2"/>
<path d="M371.299 510.634C365.936 509.441 360.94 508.079 355.379 508.409C338.441 509.413 329.281 523.488 319.028 534.757C316.028 538.054 310.148 544.076 305.172 546.11" stroke="#294064" stroke-miterlimit="10" stroke-linecap="round"/>
<path d="M386.954 519.35C386.954 519.35 387.236 513.263 375.722 510.895C355.737 506.783 340.332 521.54 340.332 521.54" fill="#FFC6B2"/>
<path d="M386.954 519.35C386.954 519.35 387.236 513.263 375.722 510.895C355.737 506.783 340.332 521.54 340.332 521.54" stroke="#294064" stroke-miterlimit="10" stroke-linecap="round"/>
<path d="M396.429 527.979C395.956 523.162 389.273 519.483 386.772 517.932C374.182 510.13 358.247 518.527 347.289 525.652" fill="#FFC6B2"/>
<path d="M396.429 527.979C395.956 523.162 389.273 519.483 386.772 517.932C374.182 510.13 358.247 518.527 347.289 525.652" stroke="#294064" stroke-miterlimit="10" stroke-linecap="round"/>
<path d="M338.469 563.323C342.962 559.05 351.543 559.259 358.241 553.505C364.934 547.75 364.511 541.285 367.833 537.626C370.777 534.381 373.653 533.171 377.624 531.316C386.766 527.048 393.063 537.564 399.413 531.709C402.209 529.131 394.352 523.78 389.153 521.394C377.246 515.927 363.432 526.707 354.133 531.612" fill="#FFC6B2"/>
<path d="M338.469 563.323C342.962 559.05 351.543 559.259 358.241 553.505C364.934 547.75 364.511 541.285 367.833 537.626C370.777 534.381 373.653 533.171 377.624 531.316C386.766 527.048 393.063 537.564 399.413 531.709C402.209 529.131 394.352 523.78 389.153 521.394C377.246 515.927 363.432 526.707 354.133 531.612" stroke="#294064" stroke-miterlimit="10" stroke-linecap="round"/>
<path d="M369.355 561.424C370.637 561.256 371.911 561.021 373.189 560.82C378.726 559.95 384.486 559.988 389.81 558.235C393.288 557.089 395.947 554.227 399.066 552.303C400.218 551.591 401.435 550.988 402.621 550.33" fill="#FFC6B2"/>
<path d="M369.355 561.424C370.637 561.256 371.911 561.021 373.189 560.82C378.726 559.95 384.486 559.988 389.81 558.235C393.288 557.089 395.947 554.227 399.066 552.303C400.218 551.591 401.435 550.988 402.621 550.33" stroke="#294064" stroke-miterlimit="10" stroke-linecap="round"/>
<path d="M332.816 525.161C332.294 524.813 330.167 527.408 328.665 529.132C327.112 530.913 325.544 532.56 323.702 534.095C321.917 535.582 324.896 529.761 321.097 534.961C316.456 541.315 305.031 547.372 305.031 547.372C305.031 547.372 312.924 545.925 313.414 546.187C317.095 548.15 321.843 547.262 325.777 547.45C333.567 547.821 341.945 549.599 349.691 548.172C350.919 547.946 351.968 546.999 352.94 546.367C357.437 543.439 356.934 539.236 352.128 536.351C348.997 534.473 345.526 534.043 342.383 532.47" fill="#FFC6B2"/>
<path d="M332.816 525.161C332.294 524.813 330.167 527.408 328.665 529.132C327.112 530.913 325.544 532.56 323.702 534.095C321.917 535.582 324.896 529.761 321.097 534.961C316.456 541.315 305.031 547.372 305.031 547.372C305.031 547.372 312.924 545.925 313.414 546.187C317.095 548.15 321.843 547.262 325.777 547.45C333.567 547.821 341.945 549.599 349.691 548.172C350.919 547.946 351.968 546.999 352.94 546.367C357.437 543.439 356.934 539.236 352.128 536.351C348.997 534.473 345.526 534.043 342.383 532.47" stroke="#FFC6B2" stroke-miterlimit="10" stroke-linecap="round"/>
<path d="M348.957 574.732C350.158 566.353 360.117 565.548 366.345 561.977C371.505 559.017 376.01 555 381.166 552.03C392.49 545.508 403.364 550.766 414.39 555.425C416.446 556.294 424.737 560.103 435.798 562.519" fill="#FFC6B2"/>
<path d="M348.957 574.732C350.158 566.353 360.117 565.548 366.345 561.977C371.505 559.017 376.01 555 381.166 552.03C392.49 545.508 403.364 550.766 414.39 555.425C416.446 556.294 424.737 560.103 435.798 562.519" stroke="#294064" stroke-miterlimit="10" stroke-linecap="round"/>
<path d="M433.667 600.959C435.863 612.586 406.88 594.867 403.806 596.109C396.429 599.088 398.775 598.018 391.383 600.959C380.593 605.253 365.673 609.478 356.516 600.079C358.743 595.678 364.739 597.768 368.804 597.427C371.939 597.164 375.067 596.729 378.152 596.109C384.709 594.792 384.865 589.847 391.383 588.351" fill="#FFC6B2"/>
<path d="M433.667 600.959C435.863 612.586 406.88 594.867 403.806 596.109C396.429 599.088 398.775 598.018 391.383 600.959C380.593 605.253 365.673 609.478 356.516 600.079C358.743 595.678 364.739 597.768 368.804 597.427C371.939 597.164 375.067 596.729 378.152 596.109C384.709 594.792 384.865 589.847 391.383 588.351" stroke="#294064" stroke-miterlimit="10" stroke-linecap="round"/>
<path d="M396.923 590.279C396.923 590.279 387.579 595.181 384.489 596.177C373.063 599.864 351.727 607.101 341.254 596.292C357.345 592.774 372.59 587.725 388.052 582.089" fill="#FFC6B2"/>
<path d="M396.923 590.279C396.923 590.279 387.579 595.181 384.489 596.177C373.063 599.864 351.727 607.101 341.254 596.292C357.345 592.774 372.59 587.725 388.052 582.089" stroke="#294064" stroke-miterlimit="10" stroke-linecap="round"/>
<path d="M387.785 581.777C377.193 590.741 361.651 594.299 348.356 596.184C342.109 597.07 334.53 596.909 332.387 589.974C348.077 587.942 363.295 583.706 377.792 577.354" fill="#FFC6B2"/>
<path d="M387.785 581.777C377.193 590.741 361.651 594.299 348.356 596.184C342.109 597.07 334.53 596.909 332.387 589.974C348.077 587.942 363.295 583.706 377.792 577.354" stroke="#294064" stroke-miterlimit="10" stroke-linecap="round"/>
<path d="M378.23 577.001C366.796 584.78 348.111 590.013 334.614 590.518C332.747 590.587 321.564 589.332 322.965 585.881C323.455 584.674 325.427 583.751 326.273 583.411C328.841 582.378 331.511 581.616 334.134 580.729C345.624 576.844 360.567 572.174 371.483 564.453" fill="#FFC6B2"/>
<path d="M378.23 577.001C366.796 584.78 348.111 590.013 334.614 590.518C332.747 590.587 321.564 589.332 322.965 585.881C323.455 584.674 325.427 583.751 326.273 583.411C328.841 582.378 331.511 581.616 334.134 580.729C345.624 576.844 360.567 572.174 371.483 564.453" stroke="#294064" stroke-miterlimit="10" stroke-linecap="round"/>
<path d="M409.074 586.98C413.685 588.455 419.475 590.212 424.246 589.116C435.593 586.51 429.952 562.455 429.952 562.455C429.952 562.455 418.3 559.431 412.381 560.244C411.591 560.352 410.768 560.038 410.005 560.257" fill="#FFC6B2"/>
<path d="M409.074 586.98C413.685 588.455 419.475 590.212 424.246 589.116C435.593 586.51 429.952 562.455 429.952 562.455C429.952 562.455 418.3 559.431 412.381 560.244C411.591 560.352 410.768 560.038 410.005 560.257" stroke="#FFC6B2" stroke-miterlimit="10" stroke-linecap="round"/>
<path d="M306.838 478.351C307.246 479.922 306.165 482.125 305.825 483.725C304.987 487.668 303.718 491.509 302.883 495.44" stroke="#294064" stroke-miterlimit="10" stroke-linecap="round"/>
<path d="M305.983 478.143C306.405 478.49 304.916 477.905 304.382 477.784C302.798 477.423 301.259 477.081 299.691 476.73C297.231 476.18 294.709 475.346 292.355 474.462C291.296 474.065 289.608 473.208 288.453 473.263C288.447 473.263 288.763 473.917 288.804 473.979C289.296 474.717 288.805 474.06 289.651 474.871C290.651 475.83 291.602 476.856 292.544 477.883C295.059 480.622 299.371 484.067 303.021 485.15C303.171 485.194 304.59 485.492 304.643 485.399C304.88 484.985 305.592 481.428 305.682 480.78C305.754 480.267 305.606 477.832 305.983 478.143Z" fill="#E4AC98" stroke="#E4AC98" stroke-miterlimit="10" stroke-linecap="round"/>
<path d="M326.293 523.54C325.872 523.141 323.353 525.809 322.925 526.349C322.032 527.475 317.074 536.765 320.614 537.961C322.172 538.487 324.907 534.702 325.721 533.755C326.057 533.363 331.124 527.278 330.966 526.843C330.91 526.688 328.619 525.978 328.171 525.614C325.888 523.763 327.678 520.033 329.596 518.867" fill="#FFC6B2"/>
<path d="M326.293 523.54C325.872 523.141 323.353 525.809 322.925 526.349C322.032 527.475 317.074 536.765 320.614 537.961C322.172 538.487 324.907 534.702 325.721 533.755C326.057 533.363 331.124 527.278 330.966 526.843C330.91 526.688 328.619 525.978 328.171 525.614C325.888 523.763 327.678 520.033 329.596 518.867" stroke="#FFC6B2" stroke-miterlimit="10" stroke-linecap="round"/>
<path d="M393.171 524.077C393.225 523.993 392.988 524.66 392.95 524.929C392.866 525.524 392.935 526.452 393.308 526.964C394.476 528.553 396.211 529.263 397.801 530.292" stroke="#294064" stroke-miterlimit="10" stroke-linecap="round"/>
<path d="M323.445 587.011C326.927 584.909 331.899 584.134 334.229 587.994" stroke="#294064" stroke-miterlimit="10" stroke-linecap="round"/>
<path d="M333.68 592.089C334.04 592.178 336.041 591.66 336.207 591.629C337.694 591.349 339.395 591.22 340.894 591.393C341.664 591.481 342.915 592.114 343.407 592.679C343.655 592.963 343.834 593.265 344.025 593.584C344.052 593.626 344.292 594.145 344.162 593.928" stroke="#294064" stroke-miterlimit="10" stroke-linecap="round"/>
<path d="M354.017 599.426C354.299 598.578 353.971 598.195 353.696 597.483C352.716 594.91 349.161 596.245 347.273 596.404" stroke="#294064" stroke-miterlimit="10" stroke-linecap="round"/>
<path d="M350.062 572.368C350.345 571.491 351.969 570.948 352.778 570.481C355.631 568.828 357.763 567.792 359.437 571.076" stroke="#294064" stroke-miterlimit="10" stroke-linecap="round"/>
<path d="M282.562 426.369C282.562 426.369 284.07 424.47 288.851 425.314C292.22 425.908 292.831 428.183 292.831 428.183" stroke="#294064" stroke-miterlimit="10" stroke-linecap="round"/>
<path d="M313.695 432.82C313.695 432.82 315.931 431.318 319.761 431.974C323.283 432.578 323.906 435.236 323.906 435.236" stroke="#294064" stroke-miterlimit="10" stroke-linecap="round"/>
<path d="M289.731 445.993C290.427 445.903 291.25 449.688 293.714 451.791C296.217 453.926 300.36 454.385 300.714 455.202C301.182 456.279 295.745 458.171 291.227 455.809C286.23 453.196 288.112 446.203 289.731 445.993Z" fill="white" stroke="#294064" stroke-miterlimit="10" stroke-linecap="round"/>
</g>
<defs>
<clipPath id="clip0_5304_21464">
<path d="M0 0H414V841C414 852.046 405.046 861 394 861H20C8.95432 861 0 852.046 0 841V0Z" fill="white"/>
</clipPath>
</defs>
</svg>
