<svg width="414" height="861" viewBox="0 0 414 861" fill="none" xmlns="http://www.w3.org/2000/svg">
<g clip-path="url(#clip0_5304_21562)">
<path d="M0 0H414V841C414 852.046 405.046 861 394 861H20C8.95432 861 0 852.046 0 841V0Z" fill="#B9A3C5"/>
<mask id="mask0_5304_21562" style="mask-type:luminance" maskUnits="userSpaceOnUse" x="0" y="0" width="414" height="896">
<path d="M414 0H0V896H414V0Z" fill="white"/>
</mask>
<g mask="url(#mask0_5304_21562)">
<path d="M203.976 615.283C205.332 570.316 216.09 553.506 221.32 530.042C215.592 531.598 205.374 528.932 200.853 532.778C179.141 551.25 180.369 571.046 168.183 590.717C166.952 575.553 169.513 558.631 160.601 546.301C149.101 530.388 113.797 522.186 113.797 522.186C109.855 489.687 135.251 426.704 118.184 417.291C103.815 409.368 82.3664 478.242 79.6366 517.657C73.6357 604.314 88.2194 645.751 96.7741 666.096C105.697 687.314 120.345 700.669 144.228 699.525C197.112 696.99 203.059 645.717 203.976 615.283Z" fill="#FEDA8C" stroke="#294064" stroke-miterlimit="10" stroke-linecap="round"/>
<path d="M154.755 519.825C166.396 487.631 184.046 507.357 188.133 528.796C191.594 546.955 180.275 574.174 175.83 583.96C170.082 596.616 155.461 607.208 148.532 590.71C142.323 575.925 155.674 549.431 161.174 536.526" fill="#FEDA8C"/>
<path d="M154.755 519.825C166.396 487.631 184.046 507.357 188.133 528.796C191.594 546.955 180.275 574.174 175.83 583.96C170.082 596.616 155.461 607.208 148.532 590.71C142.323 575.925 155.674 549.431 161.174 536.526" stroke="#294064" stroke-miterlimit="10" stroke-linecap="round"/>
<path d="M125.549 522.63C125.549 522.63 134.533 500.324 150.524 499.558C166.553 498.79 167.471 516.055 167.669 525.341C168.487 563.688 152.614 604.427 133.864 598.78C119.753 594.531 137.669 560.937 137.201 519.931" fill="#FEDA8C"/>
<path d="M125.549 522.63C125.549 522.63 134.533 500.324 150.524 499.558C166.553 498.79 167.471 516.055 167.669 525.341C168.487 563.688 152.614 604.427 133.864 598.78C119.753 594.531 137.669 560.937 137.201 519.931" stroke="#294064" stroke-miterlimit="10" stroke-linecap="round"/>
<path d="M107.408 523.303C107.408 523.303 117.767 494.788 133.884 500.549C149.349 506.076 147.953 534.769 145.609 551.771C143.213 569.16 132.911 597.237 121.139 594.191C103.42 589.607 119.784 561.562 113.207 538.801" fill="#FEDA8C"/>
<path d="M107.408 523.303C107.408 523.303 117.767 494.788 133.884 500.549C149.349 506.076 147.953 534.769 145.609 551.771C143.213 569.16 132.911 597.237 121.139 594.191C103.42 589.607 119.784 561.562 113.207 538.801" stroke="#294064" stroke-miterlimit="10" stroke-linecap="round"/>
<path d="M291.409 473.888C286.942 476.189 254.778 391.854 233.844 407.157C221.803 415.959 255.917 469.323 255.244 470.11C254.455 471.036 217.787 399.415 203.016 420.496C193.617 433.909 235.91 486.884 233.505 487.686C232.826 487.912 194.883 428.295 183.952 442.744C174.048 455.835 214.378 509.148 214.378 509.148C214.378 509.148 171.429 462.42 152.335 438.565C137.199 419.655 128.706 400.352 118.155 398.923C95.2195 395.816 119.778 448.189 148.385 483.327C232.343 586.448 304.66 610.064 340.081 587.929C368.55 570.139 370.577 542.484 358.07 517.458C346.018 493.34 342.192 492.545 319.87 451.978C301.599 418.775 298.105 388.945 290.777 385.242C280.982 380.293 269.697 405.232 280.259 436.028C288.221 459.244 293.818 472.647 291.409 473.888Z" fill="#FFFB90" stroke="#294064" stroke-miterlimit="10" stroke-linecap="round"/>
<path d="M132.967 410.875C151.508 411.824 164.682 437.455 142.769 455.791C126.9 469.069 96.8503 465.163 85.6726 449.305C79.2579 440.204 85.8815 432.209 95.0806 433.065C100.51 433.57 127.419 438.876 134.112 430.423C140.69 422.115 132.967 410.875 132.967 410.875Z" fill="#FEDA8C" stroke="#294064" stroke-miterlimit="10" stroke-linecap="round"/>
<path d="M291.13 385.346C291.13 385.346 287.224 389.034 286.695 395.049C286.222 400.423 290.116 411.783 298.971 408.191" fill="#FFC6B2" fill-opacity="0.01"/>
<path d="M291.13 385.346C291.13 385.346 287.224 389.034 286.695 395.049C286.222 400.423 290.116 411.783 298.971 408.191" stroke="#294064" stroke-miterlimit="10" stroke-linecap="round"/>
<path d="M123.402 592.727C121.281 593.942 118.503 592.782 116.682 589.376C114.735 585.736 115.151 578.65 117.798 574.552C125.266 562.992 137.073 574.769 128.808 585.361" fill="#FFC6B2" fill-opacity="0.01"/>
<path d="M123.402 592.727C121.281 593.942 118.503 592.782 116.682 589.376C114.735 585.736 115.151 578.65 117.798 574.552C125.266 562.992 137.073 574.769 128.808 585.361" stroke="#294064" stroke-miterlimit="10" stroke-linecap="round"/>
<path d="M84.6632 440.582C86.0851 435.091 92.0978 435.746 95.4358 436.693C99.0239 437.711 102.501 439.585 105.088 442.226C113.08 450.38 102.216 458.221 93.6788 451.079" fill="#FFC6B2" fill-opacity="0.01"/>
<path d="M84.6632 440.582C86.0851 435.091 92.0978 435.746 95.4358 436.693C99.0239 437.711 102.501 439.585 105.088 442.226C113.08 450.38 102.216 458.221 93.6788 451.079" stroke="#294064" stroke-miterlimit="10" stroke-linecap="round"/>
</g>
</g>
<defs>
<clipPath id="clip0_5304_21562">
<path d="M0 0H414V841C414 852.046 405.046 861 394 861H20C8.95432 861 0 852.046 0 841V0Z" fill="white"/>
</clipPath>
</defs>
</svg>
