<svg width="414" height="861" viewBox="0 0 414 861" fill="none" xmlns="http://www.w3.org/2000/svg">
<g clip-path="url(#clip0_5304_21593)">
<path d="M0 0H414V841C414 852.046 405.046 861 394 861H20C8.95432 861 0 852.046 0 841V0Z" fill="#B9A3C5"/>
<path d="M261.918 448.088C270.168 440.65 283.612 425.678 283.612 425.678C283.612 425.678 278.135 373.682 299.479 369.275C323.156 364.387 319.501 426.281 319.501 426.281L341.547 452.131C341.547 452.131 313.86 472.359 303.486 479.015" fill="#434343"/>
<path d="M261.918 448.088C270.168 440.65 283.612 425.678 283.612 425.678C283.612 425.678 278.135 373.682 299.479 369.275C323.156 364.387 319.501 426.281 319.501 426.281L341.547 452.131C341.547 452.131 313.86 472.359 303.486 479.015" stroke="#294064" stroke-miterlimit="10" stroke-linecap="round"/>
<path d="M255.266 455.83C255.266 448.585 261.139 442.712 268.383 442.712H332.78C340.025 442.712 345.899 448.585 345.899 455.83V494.679C345.899 501.925 340.025 507.797 332.78 507.797H268.383C261.139 507.797 255.266 501.925 255.266 494.679V455.83Z" fill="#DBC05C" stroke="#294064" stroke-miterlimit="10"/>
<path d="M237.629 514.56C237.629 507.304 243.511 501.422 250.767 501.422H348.883C356.139 501.422 362.021 507.304 362.021 514.56V643.393C362.021 650.65 356.139 656.532 348.883 656.532H250.767C243.511 656.532 237.629 650.65 237.629 643.393V514.56Z" fill="#FEDA8C" stroke="#294064" stroke-miterlimit="10"/>
<path d="M269.066 628.766C289.847 615.571 301.99 561.318 303.677 541.424" stroke="white" stroke-miterlimit="10" stroke-linecap="round"/>
<path d="M298.648 571.875C298.648 571.875 306.764 570.869 312.474 568.581C318.26 566.263 325.634 559.788 330.094 551.725" stroke="white" stroke-miterlimit="10" stroke-linecap="round"/>
<path d="M319.595 541.448C319.843 548.493 313.896 557.891 316.004 565.219" stroke="white" stroke-miterlimit="10" stroke-linecap="round"/>
<path d="M269.495 554.519C268.877 554.617 271.23 559.904 273.208 564.38C277.62 574.367 286.119 583.129 292.983 586.018" stroke="white" stroke-miterlimit="10" stroke-linecap="round"/>
<path d="M260.027 570.603C266.626 574.751 271.283 576.287 278.961 574.902" stroke="white" stroke-miterlimit="10" stroke-linecap="round"/>
<path d="M285.336 554.827C285.316 552.911 285.5 559.307 285.481 560.454C285.426 563.52 284.004 574.278 280.68 575.984" stroke="white" stroke-miterlimit="10" stroke-linecap="round"/>
<path d="M322.171 588.594C315.786 602.486 299.218 609.997 284.672 610.939" stroke="white" stroke-miterlimit="10" stroke-linecap="round"/>
<path d="M308.752 583.844C306.145 589.706 305.528 596.929 306.904 603.196" stroke="white" stroke-miterlimit="10" stroke-linecap="round"/>
<path d="M330.015 605.495C322.493 607.276 315.355 606.447 309.855 603.013" stroke="white" stroke-miterlimit="10" stroke-linecap="round"/>
<path d="M256.535 570.647C256.535 568.946 257.915 567.566 259.616 567.566C261.317 567.566 262.697 568.946 262.697 570.647C262.697 572.349 261.317 573.728 259.616 573.728C257.915 573.728 256.535 572.349 256.535 570.647Z" fill="white" stroke="white" stroke-miterlimit="10" stroke-linecap="round"/>
<path d="M266.473 554.187C266.473 552.485 267.852 551.106 269.554 551.106C271.255 551.106 272.634 552.485 272.634 554.187C272.634 555.888 271.255 557.268 269.554 557.268C267.852 557.268 266.473 555.888 266.473 554.187Z" fill="white" stroke="white" stroke-miterlimit="10" stroke-linecap="round"/>
<path d="M281.84 553.227C281.84 551.525 283.219 550.146 284.921 550.146C286.622 550.146 288.002 551.525 288.002 553.227C288.002 554.929 286.622 556.308 284.921 556.308C283.219 556.308 281.84 554.929 281.84 553.227Z" fill="white" stroke="white" stroke-miterlimit="10" stroke-linecap="round"/>
<path d="M300.449 540.691C300.449 538.99 301.829 537.61 303.53 537.61C305.231 537.61 306.611 538.99 306.611 540.691C306.611 542.393 305.231 543.771 303.53 543.771C301.829 543.771 300.449 542.393 300.449 540.691Z" fill="white" stroke="white" stroke-miterlimit="10" stroke-linecap="round"/>
<path d="M316.328 540.508C316.328 538.807 317.708 537.428 319.409 537.428C321.111 537.428 322.49 538.807 322.49 540.508C322.49 542.21 321.111 543.589 319.409 543.589C317.708 543.589 316.328 542.21 316.328 540.508Z" fill="white" stroke="white" stroke-miterlimit="10" stroke-linecap="round"/>
<path d="M327.473 551.04C327.473 549.339 328.852 547.959 330.554 547.959C332.255 547.959 333.635 549.339 333.635 551.04C333.635 552.741 332.255 554.121 330.554 554.121C328.852 554.121 327.473 552.741 327.473 551.04Z" fill="white" stroke="white" stroke-miterlimit="10" stroke-linecap="round"/>
<path d="M305.945 582.94C305.945 581.239 307.325 579.86 309.026 579.86C310.727 579.86 312.107 581.239 312.107 582.94C312.107 584.642 310.727 586.021 309.026 586.021C307.325 586.021 305.945 584.642 305.945 582.94Z" fill="white" stroke="white" stroke-miterlimit="10" stroke-linecap="round"/>
<path d="M320.082 587.144C320.082 585.442 321.461 584.063 323.163 584.063C324.865 584.063 326.243 585.442 326.243 587.144C326.243 588.845 324.865 590.225 323.163 590.225C321.461 590.225 320.082 588.845 320.082 587.144Z" fill="white" stroke="white" stroke-miterlimit="10" stroke-linecap="round"/>
<path d="M327.84 605.244C327.84 603.542 329.219 602.163 330.921 602.163C332.622 602.163 334.002 603.542 334.002 605.244C334.002 606.945 332.622 608.325 330.921 608.325C329.219 608.325 327.84 606.945 327.84 605.244Z" fill="white" stroke="white" stroke-miterlimit="10" stroke-linecap="round"/>
<path d="M287.117 429.702H315.144" stroke="#294064" stroke-miterlimit="10" stroke-linecap="round"/>
<path d="M301.258 446.952V497.028" stroke="#294064" stroke-miterlimit="10" stroke-linecap="round"/>
<path d="M317.797 446.939V497.016" stroke="#294064" stroke-miterlimit="10" stroke-linecap="round"/>
<path d="M334.883 446.66V496.737" stroke="#294064" stroke-miterlimit="10" stroke-linecap="round"/>
<path d="M282.945 446.976V497.053" stroke="#294064" stroke-miterlimit="10" stroke-linecap="round"/>
<path d="M265.234 447.037V497.114" stroke="#294064" stroke-miterlimit="10" stroke-linecap="round"/>
<path d="M347.135 508.635C345.088 507.159 341.116 508.473 339.103 510.126C334.738 513.71 348.176 518.567 349.347 523.887C349.997 526.843 350.037 542.735 351.118 543.62C354.686 546.54 355.746 532.707 355.786 531.13C355.911 526.089 357.471 516.292 353.506 512.237C351.426 510.109 349.277 510.179 347.135 508.635Z" fill="white"/>
<path d="M281.397 715.084C288.664 721.708 304.189 713.728 304.189 713.728L321.837 726.774L339.537 705.578L322.051 691.154C322.051 691.154 324.856 673.377 315.151 667.455" fill="#DBC05C"/>
<path d="M281.397 715.084C288.664 721.708 304.189 713.728 304.189 713.728L321.837 726.774L339.537 705.578L322.051 691.154C322.051 691.154 324.856 673.377 315.151 667.455" stroke="#294064" stroke-miterlimit="10" stroke-linecap="round"/>
<path d="M109.238 608.134C163.957 659.774 283.935 718.896 283.935 718.896L321.488 672.5C321.488 672.5 235.507 563.729 174.952 524.21L109.238 608.134Z" fill="#FEDA8C" stroke="#294064" stroke-miterlimit="10" stroke-linecap="round"/>
<path d="M313.422 737.006C311.346 735.38 310.982 732.38 312.608 730.304L340.729 694.403C342.355 692.328 345.355 691.963 347.43 693.589L355.106 699.601C357.181 701.227 357.545 704.226 355.92 706.302L327.798 742.203C326.173 744.279 323.173 744.644 321.097 743.018L313.422 737.006Z" fill="#A69040" stroke="#294064" stroke-miterlimit="10"/>
<path d="M90.389 602.801C89.747 602.298 89.6344 601.369 90.1373 600.727L161.687 509.383C162.19 508.741 163.119 508.628 163.761 509.131L179.612 521.548C180.254 522.051 180.367 522.979 179.864 523.621L108.314 614.965C107.811 615.607 106.883 615.72 106.241 615.217L90.389 602.801Z" fill="#FEDA8C" stroke="#294064" stroke-miterlimit="10"/>
<path d="M332.332 710.425L342.528 718.411" stroke="#294064" stroke-miterlimit="10" stroke-linecap="round"/>
<path d="M338.805 701.935L349 709.922" stroke="#294064" stroke-miterlimit="10" stroke-linecap="round"/>
<path d="M325.438 719.604L335.634 727.59" stroke="#294064" stroke-miterlimit="10" stroke-linecap="round"/>
<path d="M318.887 728.289L329.083 736.275" stroke="#294064" stroke-miterlimit="10" stroke-linecap="round"/>
<path d="M98.4375 594.985L111.313 605.07" stroke="#294064" stroke-miterlimit="10" stroke-linecap="round"/>
<path d="M106.555 584.921L119.43 595.006" stroke="#294064" stroke-miterlimit="10" stroke-linecap="round"/>
<path d="M114.438 575.032L127.313 585.117" stroke="#294064" stroke-miterlimit="10" stroke-linecap="round"/>
<path d="M122.922 564.196L135.797 574.281" stroke="#294064" stroke-miterlimit="10" stroke-linecap="round"/>
<path d="M132.453 552.475L145.329 562.56" stroke="#294064" stroke-miterlimit="10" stroke-linecap="round"/>
<path d="M141.352 541.104L154.227 551.189" stroke="#294064" stroke-miterlimit="10" stroke-linecap="round"/>
<path d="M150.191 530.031L163.067 540.117" stroke="#294064" stroke-miterlimit="10" stroke-linecap="round"/>
<path d="M158.82 518.804L171.696 528.89" stroke="#294064" stroke-miterlimit="10" stroke-linecap="round"/>
<path d="M166.393 603.676C159.261 632.229 190.971 662.041 221.754 663.237C232.923 663.671 255.139 659.854 257.537 638.499C258.422 630.62 254.387 620.299 251.788 615.694C235.195 586.3 176.926 561.508 166.393 603.676Z" fill="white"/>
<path d="M176.827 608.723C174.55 626.798 190.298 644.937 209.562 651.033C222.575 655.151 248.524 656.767 249.435 636.339C250.245 618.174 228.576 594.609 199.286 589.711C190.256 588.202 178.357 596.57 176.827 608.723Z" fill="white" stroke="#DBC05C" stroke-miterlimit="10" stroke-linecap="round"/>
<path d="M320.945 694.189C319.391 698.203 316.76 702.22 313.424 704.93" stroke="#294064" stroke-miterlimit="10" stroke-linecap="round"/>
</g>
<defs>
<clipPath id="clip0_5304_21593">
<path d="M0 0H414V841C414 852.046 405.046 861 394 861H20C8.95432 861 0 852.046 0 841V0Z" fill="white"/>
</clipPath>
</defs>
</svg>
