<svg width="144" height="144" viewBox="0 0 144 144" fill="none" xmlns="http://www.w3.org/2000/svg">
<g clip-path="url(#clip0_5469_11669)">
<rect width="144" height="144" rx="16" fill="white"/>
<path d="M18.33 18.65L21.72 29H19.725L18.885 26.405H14.745L13.92 29H12.195L15.57 18.65H18.33ZM15.21 24.95H18.405L16.815 20L15.21 24.95ZM29.5373 21.47L27.0323 25.085L29.8823 29H27.6623L25.4423 25.955H24.6923V29H22.8623V21.47H24.6923V24.5H25.4273L27.5273 21.47H29.5373ZM30.1557 22.925V21.47H36.8007V22.925H34.3857V29H32.5707V22.925H30.1557ZM39.8535 21.47V26.9L42.8535 21.47H44.9085V29H43.0785V23.57L40.0935 29H38.0235V21.47H39.8535ZM50.5322 21.47C51.4722 21.47 52.1472 21.64 52.5572 21.98C52.9672 22.31 53.1722 22.765 53.1722 23.345C53.1722 23.745 53.0622 24.1 52.8422 24.41C52.6322 24.71 52.2522 24.925 51.7022 25.055C52.0422 25.115 52.3222 25.205 52.5422 25.325C52.7722 25.445 52.9522 25.585 53.0822 25.745C53.2222 25.905 53.3172 26.085 53.3672 26.285C53.4272 26.475 53.4572 26.675 53.4572 26.885C53.4572 27.615 53.2422 28.15 52.8122 28.49C52.3922 28.83 51.7422 29 50.8622 29H46.8272V21.47H50.5322ZM51.5972 26.54C51.5972 25.93 51.1922 25.625 50.3822 25.625H48.6272V27.8H50.3822C51.1922 27.8 51.5972 27.485 51.5972 26.855V26.54ZM51.3272 23.495C51.3272 23.235 51.2522 23.03 51.1022 22.88C50.9622 22.73 50.6922 22.655 50.2922 22.655H48.6272V24.635H50.3372C50.7172 24.635 50.9772 24.55 51.1172 24.38C51.2572 24.21 51.3272 23.995 51.3272 23.735V23.495ZM56.8164 21.47V24.47H59.8314V21.47H61.6464V29H59.8314V25.925H56.8164V29H54.9864V21.47H56.8164ZM68.715 24.575C68.715 23.855 68.56 23.345 68.25 23.045C67.94 22.735 67.49 22.58 66.9 22.58C66.31 22.58 65.855 22.735 65.535 23.045C65.225 23.345 65.07 23.855 65.07 24.575V25.835C65.07 26.565 65.225 27.09 65.535 27.41C65.855 27.72 66.31 27.875 66.9 27.875C67.49 27.875 67.94 27.72 68.25 27.41C68.56 27.09 68.715 26.565 68.715 25.835V24.575ZM63.21 25.235C63.21 24.495 63.29 23.875 63.45 23.375C63.61 22.865 63.845 22.455 64.155 22.145C64.465 21.835 64.85 21.615 65.31 21.485C65.77 21.345 66.3 21.275 66.9 21.275C67.5 21.275 68.03 21.345 68.49 21.485C68.95 21.615 69.335 21.835 69.645 22.145C69.955 22.455 70.185 22.865 70.335 23.375C70.495 23.875 70.575 24.495 70.575 25.235C70.575 25.975 70.495 26.6 70.335 27.11C70.185 27.61 69.955 28.015 69.645 28.325C69.335 28.635 68.95 28.855 68.49 28.985C68.03 29.115 67.5 29.18 66.9 29.18C66.3 29.18 65.77 29.115 65.31 28.985C64.85 28.855 64.465 28.635 64.155 28.325C63.845 28.015 63.61 27.61 63.45 27.11C63.29 26.6 63.21 25.975 63.21 25.235ZM71.7797 25.25C71.7797 24.54 71.8547 23.935 72.0047 23.435C72.1547 22.925 72.3747 22.51 72.6647 22.19C72.9547 21.87 73.3147 21.64 73.7447 21.5C74.1747 21.35 74.6747 21.275 75.2447 21.275C76.4147 21.275 77.2947 21.565 77.8847 22.145C78.4847 22.725 78.7847 23.67 78.7847 24.98V25.4H73.5647V25.835C73.5647 26.575 73.7097 27.11 73.9997 27.44C74.2997 27.76 74.7147 27.92 75.2447 27.92C76.2247 27.92 76.7697 27.52 76.8797 26.72H78.7097C78.4797 28.36 77.3247 29.18 75.2447 29.18C74.1147 29.18 73.2547 28.88 72.6647 28.28C72.0747 27.67 71.7797 26.66 71.7797 25.25ZM75.2447 22.55C74.7047 22.55 74.2947 22.69 74.0147 22.97C73.7347 23.25 73.5847 23.71 73.5647 24.35H76.9547C76.9347 23.7 76.7797 23.24 76.4897 22.97C76.2097 22.69 75.7947 22.55 75.2447 22.55ZM12.585 43.25C12.585 41.83 12.865 40.815 13.425 40.205C13.995 39.585 14.86 39.275 16.02 39.275C17 39.275 17.775 39.46 18.345 39.83C18.925 40.2 19.255 40.815 19.335 41.675H17.475C17.425 41.285 17.275 41.005 17.025 40.835C16.785 40.665 16.45 40.58 16.02 40.58C15.48 40.58 15.08 40.73 14.82 41.03C14.57 41.32 14.445 41.81 14.445 42.5V43.925C14.445 44.285 14.485 44.59 14.565 44.84C14.645 45.09 14.755 45.295 14.895 45.455C15.035 45.605 15.2 45.715 15.39 45.785C15.58 45.845 15.79 45.875 16.02 45.875C16.5 45.875 16.85 45.78 17.07 45.59C17.3 45.4 17.44 45.125 17.49 44.765H19.365C19.155 46.375 18.04 47.18 16.02 47.18C15.48 47.18 14.995 47.12 14.565 47C14.135 46.87 13.775 46.655 13.485 46.355C13.195 46.055 12.97 45.655 12.81 45.155C12.66 44.645 12.585 44.01 12.585 43.25ZM25.9416 42.575C25.9416 41.855 25.7866 41.345 25.4766 41.045C25.1666 40.735 24.7166 40.58 24.1266 40.58C23.5366 40.58 23.0816 40.735 22.7616 41.045C22.4516 41.345 22.2966 41.855 22.2966 42.575V43.835C22.2966 44.565 22.4516 45.09 22.7616 45.41C23.0816 45.72 23.5366 45.875 24.1266 45.875C24.7166 45.875 25.1666 45.72 25.4766 45.41C25.7866 45.09 25.9416 44.565 25.9416 43.835V42.575ZM20.4366 43.235C20.4366 42.495 20.5166 41.875 20.6766 41.375C20.8366 40.865 21.0716 40.455 21.3816 40.145C21.6916 39.835 22.0766 39.615 22.5366 39.485C22.9966 39.345 23.5266 39.275 24.1266 39.275C24.7266 39.275 25.2566 39.345 25.7166 39.485C26.1766 39.615 26.5616 39.835 26.8716 40.145C27.1816 40.455 27.4116 40.865 27.5616 41.375C27.7216 41.875 27.8016 42.495 27.8016 43.235C27.8016 43.975 27.7216 44.6 27.5616 45.11C27.4116 45.61 27.1816 46.015 26.8716 46.325C26.5616 46.635 26.1766 46.855 25.7166 46.985C25.2566 47.115 24.7266 47.18 24.1266 47.18C23.5266 47.18 22.9966 47.115 22.5366 46.985C22.0766 46.855 21.6916 46.635 21.3816 46.325C21.0716 46.015 20.8366 45.61 20.6766 45.11C20.5166 44.6 20.4366 43.975 20.4366 43.235ZM34.5713 39.47V40.925H31.1963V47H29.3663V39.47H34.5713ZM34.6521 45.395H34.8321C35.0521 45.395 35.2321 45.36 35.3721 45.29C35.5121 45.22 35.6221 45.09 35.7021 44.9C35.7921 44.7 35.8521 44.435 35.8821 44.105C35.9121 43.765 35.9271 43.325 35.9271 42.785V39.47H41.8671V47H40.0521V40.925H37.6071V42.785C37.6071 43.645 37.5621 44.35 37.4721 44.9C37.3921 45.44 37.2521 45.865 37.0521 46.175C36.8521 46.485 36.5821 46.7 36.2421 46.82C35.9121 46.94 35.4971 47 34.9971 47H34.6521V45.395ZM43.45 44.975C43.45 44.605 43.505 44.28 43.615 44C43.725 43.71 43.9 43.47 44.14 43.28C44.38 43.08 44.69 42.925 45.07 42.815C45.46 42.705 45.925 42.63 46.465 42.59L48.52 42.455V42.17C48.52 41.57 48.4 41.15 48.16 40.91C47.93 40.67 47.57 40.55 47.08 40.55C46.65 40.55 46.315 40.63 46.075 40.79C45.845 40.94 45.69 41.205 45.61 41.585H43.705C43.905 40.045 45.02 39.275 47.05 39.275C48.16 39.275 48.985 39.505 49.525 39.965C50.065 40.425 50.335 41.16 50.335 42.17V47H48.58V45.905C48.33 46.315 47.985 46.63 47.545 46.85C47.105 47.07 46.555 47.18 45.895 47.18C45.105 47.18 44.5 46.985 44.08 46.595C43.66 46.205 43.45 45.665 43.45 44.975ZM46.525 45.92C46.805 45.92 47.065 45.885 47.305 45.815C47.555 45.745 47.77 45.63 47.95 45.47C48.13 45.31 48.27 45.11 48.37 44.87C48.47 44.62 48.52 44.32 48.52 43.97V43.535L46.705 43.67C46.225 43.72 45.87 43.82 45.64 43.97C45.42 44.12 45.31 44.37 45.31 44.72V44.93C45.31 45.59 45.715 45.92 46.525 45.92ZM51.7989 43.25C51.7989 41.83 52.0789 40.815 52.6389 40.205C53.2089 39.585 54.0739 39.275 55.2339 39.275C56.2139 39.275 56.9889 39.46 57.5589 39.83C58.1389 40.2 58.4689 40.815 58.5489 41.675H56.6889C56.6389 41.285 56.4889 41.005 56.2389 40.835C55.9989 40.665 55.6639 40.58 55.2339 40.58C54.6939 40.58 54.2939 40.73 54.0339 41.03C53.7839 41.32 53.6589 41.81 53.6589 42.5V43.925C53.6589 44.285 53.6989 44.59 53.7789 44.84C53.8589 45.09 53.9689 45.295 54.1089 45.455C54.2489 45.605 54.4139 45.715 54.6039 45.785C54.7939 45.845 55.0039 45.875 55.2339 45.875C55.7139 45.875 56.0639 45.78 56.2839 45.59C56.5139 45.4 56.6539 45.125 56.7039 44.765H58.5789C58.3689 46.375 57.2539 47.18 55.2339 47.18C54.6939 47.18 54.2089 47.12 53.7789 47C53.3489 46.87 52.9889 46.655 52.6989 46.355C52.4089 46.055 52.1839 45.655 52.0239 45.155C51.8739 44.645 51.7989 44.01 51.7989 43.25ZM61.8554 39.47V44.9L64.8554 39.47H66.9104V47H65.0804V41.57L62.0954 47H60.0254V39.47H61.8554ZM68.4691 43.25C68.4691 42.54 68.5441 41.935 68.6941 41.435C68.8441 40.925 69.0641 40.51 69.3541 40.19C69.6441 39.87 70.0041 39.64 70.4341 39.5C70.8641 39.35 71.3641 39.275 71.9341 39.275C73.1041 39.275 73.9841 39.565 74.5741 40.145C75.1741 40.725 75.4741 41.67 75.4741 42.98V43.4H70.2541V43.835C70.2541 44.575 70.3991 45.11 70.6891 45.44C70.9891 45.76 71.4041 45.92 71.9341 45.92C72.9141 45.92 73.4591 45.52 73.5691 44.72H75.3991C75.1691 46.36 74.0141 47.18 71.9341 47.18C70.8041 47.18 69.9441 46.88 69.3541 46.28C68.7641 45.67 68.4691 44.66 68.4691 43.25ZM71.9341 40.55C71.3941 40.55 70.9841 40.69 70.7041 40.97C70.4241 41.25 70.2741 41.71 70.2541 42.35H73.6441C73.6241 41.7 73.4691 41.24 73.1791 40.97C72.8991 40.69 72.4841 40.55 71.9341 40.55Z" fill="white"/>
<mask id="mask0_5469_11669" style="mask-type:luminance" maskUnits="userSpaceOnUse" x="-11" y="-8" width="155" height="157">
<path d="M143.998 -7.97363H-10.8906V148.332H143.998V-7.97363Z" fill="white"/>
</mask>
<g mask="url(#mask0_5469_11669)">
<path d="M-10.8906 -7.97363H143.998V148.332H-10.8906V-7.97363Z" fill="#A12F40"/>
</g>
<path d="M-34.4036 145.598C-27.3092 82.6851 28.1286 47.3827 54.3763 61.8547C80.6239 76.3268 83.6151 101.711 74.3125 139.693C67.2913 168.36 111.248 187.665 145.506 122.766" stroke="white" stroke-width="0.35" stroke-linecap="round" stroke-linejoin="round" stroke-dasharray="3 3"/>
<path d="M33.533 83.2359C32.736 80.575 34.2469 77.7718 36.9078 76.9748L115.466 53.443C118.127 52.646 120.93 54.1569 121.727 56.8177L135.96 104.333C136.757 106.994 135.246 109.797 132.585 110.594L54.027 134.126C51.3661 134.923 48.5629 133.412 47.7659 130.751L33.533 83.2359Z" fill="#F8F9F9" stroke="#294064" stroke-width="0.245852" stroke-miterlimit="10" stroke-linejoin="round"/>
<path d="M46.1211 74.2148L51.9626 72.465L52.9026 75.6031L47.0611 77.3529L46.1211 74.2148Z" fill="#294064" stroke="#294064" stroke-width="0.245852" stroke-miterlimit="10" stroke-linejoin="round"/>
<path d="M100.41 57.958L106.252 56.2082L107.192 59.3463L101.35 61.0961L100.41 57.958Z" fill="#294064" stroke="#294064" stroke-width="0.245852" stroke-miterlimit="10" stroke-linejoin="round"/>
<path d="M115.226 57.7045C114.942 56.7539 115.482 55.7525 116.432 55.4678C117.383 55.183 118.384 55.7228 118.669 56.6734C118.954 57.6242 118.414 58.6255 117.463 58.9102C116.513 59.195 115.511 58.6553 115.226 57.7045Z" fill="#294064" stroke="#294064" stroke-width="0.245852" stroke-miterlimit="10" stroke-linejoin="round"/>
<path d="M130.109 107.379C129.825 106.428 130.364 105.427 131.315 105.142C132.266 104.857 133.267 105.397 133.552 106.348C133.837 107.298 133.297 108.3 132.346 108.585C131.396 108.87 130.394 108.33 130.109 107.379Z" fill="#294064" stroke="#294064" stroke-width="0.245852" stroke-miterlimit="10" stroke-linejoin="round"/>
<path d="M50.9258 131.102C50.641 130.151 51.1808 129.15 52.1314 128.865C53.0821 128.58 54.0836 129.12 54.3683 130.07C54.6531 131.021 54.1133 132.023 53.1627 132.307C52.212 132.592 51.2105 132.052 50.9258 131.102Z" fill="#294064" stroke="#294064" stroke-width="0.245852" stroke-miterlimit="10" stroke-linejoin="round"/>
<path d="M36.0468 81.4179C35.7621 80.4673 36.3019 79.4659 37.2525 79.1812C38.2032 78.8964 39.2046 79.4361 39.4894 80.3867C39.7742 81.3375 39.2343 82.3389 38.2837 82.6236C37.3331 82.9084 36.3316 82.3687 36.0468 81.4179Z" fill="#294064" stroke="#294064" stroke-width="0.245852" stroke-miterlimit="10" stroke-linejoin="round"/>
<path d="M68.7911 112.915L110.486 100.921L120.913 114.093L67.1545 130.196L68.7911 112.915Z" fill="#DE5C3E" stroke="#294064" stroke-width="0.245852" stroke-miterlimit="10" stroke-linejoin="round"/>
<path d="M102.04 112.207C101.78 111.342 102.272 110.431 103.137 110.171C104.002 109.912 104.914 110.403 105.173 111.269C105.432 112.134 104.941 113.046 104.076 113.305C103.21 113.564 102.299 113.073 102.04 112.207Z" fill="#294064" stroke="#294064" stroke-width="0.245852" stroke-miterlimit="10" stroke-linejoin="round"/>
<path d="M107.739 113.91C107.48 113.045 107.971 112.133 108.836 111.874C109.702 111.615 110.613 112.106 110.872 112.971C111.132 113.837 110.64 114.748 109.775 115.007C108.91 115.267 107.998 114.775 107.739 113.91Z" fill="#294064" stroke="#294064" stroke-width="0.245852" stroke-miterlimit="10" stroke-linejoin="round"/>
<path d="M81.8802 118.237C81.621 117.371 80.7095 116.88 79.8441 117.139C78.9789 117.398 78.4874 118.31 78.7467 119.175C79.0058 120.04 79.9175 120.532 80.7827 120.272C81.648 120.013 82.1394 119.102 81.8802 118.237Z" fill="#294064" stroke="#294064" stroke-width="0.245852" stroke-miterlimit="10" stroke-linejoin="round"/>
<path d="M78.0597 122.797C77.8005 121.931 76.889 121.44 76.0236 121.699C75.1584 121.958 74.6671 122.87 74.9263 123.735C75.1855 124.6 76.097 125.092 76.9622 124.833C77.8275 124.573 78.3189 123.662 78.0597 122.797Z" fill="#294064" stroke="#294064" stroke-width="0.245852" stroke-miterlimit="10" stroke-linejoin="round"/>
<path d="M41.1739 86.0047C40.7089 84.4526 41.5903 82.8174 43.1425 82.3525L113.259 61.3495C114.811 60.8845 116.446 61.7659 116.911 63.318L126.511 95.3643C126.975 96.9165 126.094 98.5518 124.542 99.0168L54.4255 120.02C52.8733 120.485 51.2381 119.603 50.7732 118.051L41.1739 86.0047Z" fill="#FEB25C" stroke="#294064" stroke-width="0.245852" stroke-miterlimit="10" stroke-linejoin="round"/>
<path d="M46.6833 104.401C46.2908 103.09 47.0348 101.71 48.3451 101.318L119.338 80.0523C120.648 79.6598 122.028 80.4038 122.421 81.714L126.641 95.8029C127.033 97.1132 126.289 98.4935 124.979 98.886L53.9866 120.151C52.6764 120.544 51.296 119.8 50.9035 118.49L46.6833 104.401Z" fill="#6499CA" stroke="#294064" stroke-width="0.245852" stroke-miterlimit="10" stroke-linejoin="round"/>
<path d="M44.7695 98.0039L120.507 75.3172L123.614 85.6908L47.8769 108.377L44.7695 98.0039Z" fill="#DE5C3E" stroke="#294064" stroke-width="0.245852" stroke-miterlimit="10" stroke-linejoin="round"/>
<path d="M46.9023 105.122L122.64 82.4354L125.394 91.6307L49.6568 114.317L46.9023 105.122Z" fill="#00B691" stroke="#294064" stroke-width="0.245852" stroke-miterlimit="10" stroke-linejoin="round"/>
<path d="M55.9123 93.5018C55.5293 92.2232 56.2554 90.876 57.5341 90.493L105.661 76.077C106.939 75.694 108.286 76.4201 108.669 77.6988L112.323 89.8951C112.706 91.174 111.98 92.5211 110.701 92.9041L62.5745 107.32C61.2958 107.703 59.9487 106.977 59.5656 105.698L55.9123 93.5018Z" fill="white" stroke="#294064" stroke-width="0.245852" stroke-miterlimit="10" stroke-linejoin="round"/>
<path d="M59.8974 98.9511C58.7934 95.2656 60.8862 91.3829 64.5717 90.2789L99.6694 79.7656C103.355 78.6616 107.238 80.7545 108.342 84.4399C109.446 88.1254 107.353 92.0082 103.667 93.1121L68.5696 103.625C64.8841 104.729 61.0013 102.637 59.8974 98.9511Z" fill="#4987C1" stroke="#294064" stroke-width="0.245852" stroke-miterlimit="10" stroke-linejoin="round"/>
<path d="M72.6836 89.4663L92.4856 83.5347L95.593 93.9085L75.791 99.8401L72.6836 89.4663Z" fill="white" stroke="#294064" stroke-width="0.245852" stroke-miterlimit="10" stroke-linejoin="round"/>
<path d="M96.5847 88.0455C95.7138 85.1383 97.4061 82.0628 100.364 81.1767C103.323 80.2905 106.427 81.9291 107.298 84.8363C108.169 87.7438 106.477 90.819 103.518 91.7052C100.56 92.5913 97.4556 90.9529 96.5847 88.0455Z" fill="white" stroke="#294064" stroke-width="0.245852" stroke-miterlimit="10" stroke-linejoin="round"/>
<path d="M61.3581 98.7643C60.4872 95.8568 62.1794 92.7817 65.1379 91.8954C68.0962 91.0093 71.2005 92.6477 72.0714 95.5551C72.9423 98.4626 71.25 101.538 68.2917 102.424C65.3331 103.31 62.229 101.672 61.3581 98.7643Z" fill="white" stroke="#294064" stroke-width="0.245852" stroke-miterlimit="10" stroke-linejoin="round"/>
<path d="M64.4365 90.4252C60.7236 91.5374 58.6219 95.4527 59.7341 99.1656C60.8463 102.878 64.7513 104.983 68.4642 103.871C72.1771 102.759 74.292 98.8509 73.1798 95.138C72.0676 91.4251 68.1494 89.3131 64.4365 90.4252ZM99.8658 79.8126C96.1529 80.9248 94.0512 84.8401 95.1634 88.553C96.2756 92.2659 100.181 94.3707 103.893 93.2585C107.606 92.1463 109.721 88.2382 108.609 84.5253C107.497 80.8124 103.579 78.7004 99.8658 79.8126ZM64.1188 92.5261L64.5476 93.9577C64.6915 94.4383 65.1965 94.7104 65.677 94.5665C66.1576 94.4225 66.4297 93.9176 66.2858 93.437L65.857 92.0055C66.6262 91.9158 67.3888 91.9913 68.0958 92.2263L67.4237 93.4414C67.1802 93.8802 67.3423 94.428 67.7809 94.6715C68.2196 94.9151 68.7676 94.753 69.0111 94.3143L69.6904 93.0856C70.271 93.544 70.7432 94.1307 71.0892 94.8172L69.5555 95.2766C69.075 95.4205 68.8028 95.9255 68.9467 96.406C69.0907 96.8866 69.5956 97.1587 70.0762 97.0148L71.6099 96.5554C71.6968 97.3058 71.6286 98.0421 71.4046 98.7339L70.1515 97.9727C69.9371 97.8425 69.6882 97.8121 69.4624 97.8672C69.2366 97.9224 69.0363 98.0645 68.9061 98.2788C68.6457 98.7076 68.7835 99.2639 69.2122 99.5243L70.5482 100.339C70.0841 100.934 69.4861 101.428 68.785 101.781L68.2858 100.114C68.1419 99.6333 67.6369 99.3611 67.1564 99.5051C66.6758 99.649 66.4036 100.154 66.5476 100.635L67.0468 102.301C66.3284 102.385 65.6212 102.327 64.9551 102.125L65.6948 100.578C65.9089 100.124 65.7095 99.5863 65.2557 99.3723C65.0289 99.2654 64.7835 99.2557 64.5647 99.3343C64.3459 99.4127 64.1541 99.5744 64.0471 99.8012L63.336 101.296C62.7089 100.825 62.1914 100.215 61.8247 99.4865L63.3278 99.0362C63.8084 98.8923 64.0805 98.3874 63.9366 97.9068C63.7926 97.4262 63.2877 97.1541 62.8071 97.298L61.304 97.7483C61.2123 96.9612 61.2981 96.1892 61.5462 95.4694L63.0285 96.1397C63.4845 96.3484 64.0253 96.1569 64.2339 95.7007C64.4427 95.2444 64.248 94.6935 63.7918 94.4849L62.4262 93.8687C62.8781 93.313 63.4533 92.861 64.1188 92.5261ZM99.548 81.9135L99.9769 83.3451C100.121 83.8256 100.626 84.0978 101.106 83.9538C101.587 83.8099 101.869 83.3019 101.725 82.8213L101.297 81.3897C102.062 81.302 102.821 81.3797 103.525 81.6136L102.853 82.8288C102.61 83.2676 102.772 83.8154 103.21 84.0589C103.649 84.3024 104.197 84.1403 104.44 83.7017L105.12 82.4729C105.7 82.9313 106.173 83.518 106.519 84.2045L104.985 84.6639C104.504 84.8079 104.232 85.3128 104.376 85.7934C104.52 86.2739 105.025 86.5461 105.505 86.4022L107.039 85.9427C107.126 86.6931 107.058 87.4294 106.834 88.1213L105.581 87.36C105.366 87.2298 105.118 87.1994 104.892 87.2545C104.666 87.3097 104.466 87.4518 104.335 87.6662C104.075 88.0949 104.213 88.6512 104.642 88.9116L105.977 89.726C105.515 90.3187 104.922 90.8124 104.225 91.1648L103.725 89.4981C103.581 89.0176 103.066 88.7485 102.586 88.8924C102.105 89.0364 101.833 89.5413 101.977 90.0219L102.476 91.6886C101.758 91.7721 101.05 91.7143 100.384 91.5127L101.124 89.9652C101.338 89.5115 101.139 88.9736 100.685 88.7596C100.458 88.6528 100.213 88.643 99.994 88.7217C99.7752 88.8001 99.5836 88.9617 99.4766 89.1885L98.7653 90.6831C98.1384 90.2127 97.6209 89.6028 97.254 88.8738L98.7571 88.4236C99.2377 88.2796 99.5098 87.7747 99.3659 87.2941C99.2219 86.8136 98.717 86.5414 98.2364 86.6854L96.7333 87.1356C96.6418 86.3485 96.7274 85.5766 96.9757 84.8567L98.4578 85.5271C98.914 85.7357 99.4546 85.5443 99.6634 85.088C99.872 84.6318 99.6773 84.0809 99.2212 83.8722L97.8555 83.2561C98.3076 82.7003 98.8826 82.2483 99.548 81.9135Z" fill="#294064" stroke="#294064" stroke-width="0.245852" stroke-miterlimit="10" stroke-linecap="round" stroke-linejoin="round"/>
<path d="M122.199 62.2642L125.155 72.1316" stroke="#294064" stroke-width="0.245852" stroke-miterlimit="10" stroke-linecap="round" stroke-linejoin="round"/>
<path d="M125.652 73.7729C125.652 73.7729 127.046 78.3791 127.385 79.557" stroke="#294064" stroke-width="0.245852" stroke-miterlimit="10" stroke-linecap="round" stroke-linejoin="round"/>
<path d="M60.148 130.961L71.3982 127.55" stroke="#294064" stroke-width="0.245852" stroke-miterlimit="10" stroke-linecap="round" stroke-linejoin="round"/>
<path d="M116.092 58.5727L117.741 55.8106" stroke="white" stroke-width="0.245852" stroke-miterlimit="10" stroke-linecap="round" stroke-linejoin="round"/>
<path d="M115.562 56.3125L118.389 57.9526" stroke="white" stroke-width="0.245852" stroke-miterlimit="10" stroke-linecap="round" stroke-linejoin="round"/>
<path d="M36.9399 82.2763L38.5885 79.5142" stroke="white" stroke-width="0.245852" stroke-miterlimit="10" stroke-linecap="round" stroke-linejoin="round"/>
<path d="M36.418 80.0259L39.2447 81.666" stroke="white" stroke-width="0.245852" stroke-miterlimit="10" stroke-linecap="round" stroke-linejoin="round"/>
<path d="M51.8266 131.998L53.4752 129.236" stroke="white" stroke-width="0.245852" stroke-miterlimit="10" stroke-linecap="round" stroke-linejoin="round"/>
<path d="M51.2969 129.738L54.1236 131.378" stroke="white" stroke-width="0.245852" stroke-miterlimit="10" stroke-linecap="round" stroke-linejoin="round"/>
<path d="M130.975 108.285L132.624 105.523" stroke="white" stroke-width="0.245852" stroke-miterlimit="10" stroke-linecap="round" stroke-linejoin="round"/>
<path d="M130.445 106.034L133.272 107.674" stroke="white" stroke-width="0.245852" stroke-miterlimit="10" stroke-linecap="round" stroke-linejoin="round"/>
</g>
<defs>
<clipPath id="clip0_5469_11669">
<rect width="144" height="144" rx="16" fill="white"/>
</clipPath>
</defs>
</svg>
