<svg width="80" height="109" viewBox="0 0 80 109" fill="none" xmlns="http://www.w3.org/2000/svg">
<g clip-path="url(#clip0_5194_20204)">
<mask id="mask0_5194_20204" style="mask-type:luminance" maskUnits="userSpaceOnUse" x="0" y="0" width="80" height="109">
<path d="M80 0H0V109H80V0Z" fill="white"/>
</mask>
<g mask="url(#mask0_5194_20204)">
<path d="M0 0H80V109H0V0Z" fill="#A12F40"/>
</g>
<path d="M7.90494 37.5836C7.40515 35.9151 8.35259 34.1573 10.0211 33.6575L59.2812 18.902C60.9497 18.4022 62.7074 19.3496 63.2072 21.0181L72.1319 50.8124C72.6317 52.4809 71.6843 54.2386 70.0158 54.7384L20.7557 69.4939C19.0872 69.9937 17.3294 69.0463 16.8296 67.3778L7.90494 37.5836Z" fill="#F8F9F9" stroke="#294064" stroke-width="0.245852" stroke-miterlimit="10" stroke-linejoin="round"/>
<path d="M15.7988 31.9268L19.4618 30.8295L20.0512 32.7973L16.3882 33.8945L15.7988 31.9268Z" fill="#294064" stroke="#294064" stroke-width="0.245852" stroke-miterlimit="10" stroke-linejoin="round"/>
<path d="M49.8398 21.7324L53.5028 20.6352L54.0922 22.6029L50.4293 23.7001L49.8398 21.7324Z" fill="#294064" stroke="#294064" stroke-width="0.245852" stroke-miterlimit="10" stroke-linejoin="round"/>
<path d="M59.1319 21.5744C58.9533 20.9783 59.2919 20.3504 59.8879 20.1718C60.484 19.9932 61.1119 20.3317 61.2905 20.9278C61.4691 21.524 61.1306 22.1518 60.5345 22.3304C59.9385 22.509 59.3105 22.1706 59.1319 21.5744Z" fill="#294064" stroke="#294064" stroke-width="0.245852" stroke-miterlimit="10" stroke-linejoin="round"/>
<path d="M68.462 52.7229C68.2834 52.1268 68.6219 51.4988 69.218 51.3202C69.8141 51.1417 70.442 51.4802 70.6206 52.0763C70.7991 52.6724 70.4607 53.3004 69.8647 53.479C69.2686 53.6575 68.6405 53.319 68.462 52.7229Z" fill="#294064" stroke="#294064" stroke-width="0.245852" stroke-miterlimit="10" stroke-linejoin="round"/>
<path d="M18.8116 67.5979C18.633 67.0018 18.9715 66.3738 19.5676 66.1952C20.1637 66.0167 20.7917 66.3552 20.9703 66.9513C21.1488 67.5474 20.8103 68.1754 20.2142 68.354C19.6181 68.5325 18.9902 68.194 18.8116 67.5979Z" fill="#294064" stroke="#294064" stroke-width="0.245852" stroke-miterlimit="10" stroke-linejoin="round"/>
<path d="M9.48148 36.4435C9.30293 35.8474 9.64144 35.2195 10.2375 35.0409C10.8336 34.8624 11.4616 35.2008 11.6401 35.7969C11.8187 36.3931 11.4802 37.021 10.8841 37.1995C10.288 37.3781 9.66007 37.0397 9.48148 36.4435Z" fill="#294064" stroke="#294064" stroke-width="0.245852" stroke-miterlimit="10" stroke-linejoin="round"/>
<path d="M30.0141 56.1938L56.159 48.6732L62.6972 56.9325L28.9879 67.03L30.0141 56.1938Z" fill="#DE5C3E" stroke="#294064" stroke-width="0.245852" stroke-miterlimit="10" stroke-linejoin="round"/>
<path d="M50.8626 55.75C50.7001 55.2074 51.0082 54.6358 51.5508 54.4733C52.0934 54.3108 52.665 54.6188 52.8275 55.1614C52.99 55.704 52.682 56.2756 52.1394 56.4382C51.5968 56.6007 51.0251 56.2925 50.8626 55.75Z" fill="#294064" stroke="#294064" stroke-width="0.245852" stroke-miterlimit="10" stroke-linejoin="round"/>
<path d="M54.4349 56.8174C54.2724 56.2748 54.5804 55.7032 55.1231 55.5407C55.6657 55.3781 56.2373 55.6862 56.3998 56.2288C56.5623 56.7713 56.2543 57.343 55.7116 57.5056C55.169 57.6681 54.5974 57.3599 54.4349 56.8174Z" fill="#294064" stroke="#294064" stroke-width="0.245852" stroke-miterlimit="10" stroke-linejoin="round"/>
<path d="M38.2201 59.5306C38.0576 58.988 37.486 58.6799 36.9434 58.8424C36.4009 59.0049 36.0927 59.5765 36.2552 60.1192C36.4177 60.6617 36.9894 60.9697 37.5319 60.8072C38.0745 60.6447 38.3826 60.0731 38.2201 59.5306Z" fill="#294064" stroke="#294064" stroke-width="0.245852" stroke-miterlimit="10" stroke-linejoin="round"/>
<path d="M35.8255 62.39C35.6629 61.8474 35.0914 61.5393 34.5487 61.7018C34.0062 61.8643 33.6982 62.4359 33.8607 62.9785C34.0232 63.521 34.5948 63.8291 35.1373 63.6666C35.6799 63.5041 35.988 62.9325 35.8255 62.39Z" fill="#294064" stroke="#294064" stroke-width="0.245852" stroke-miterlimit="10" stroke-linejoin="round"/>
<path d="M12.6958 39.3198C12.4043 38.3466 12.957 37.3213 13.9303 37.0297L57.8968 23.8598C58.8702 23.5682 59.8955 24.1209 60.187 25.0941L66.2062 45.1888C66.4978 46.1621 65.9452 47.1875 64.9718 47.4791L21.0053 60.649C20.032 60.9405 19.0066 60.3878 18.7151 59.4145L12.6958 39.3198Z" fill="#FEB25C" stroke="#294064" stroke-width="0.245852" stroke-miterlimit="10" stroke-linejoin="round"/>
<path d="M16.1507 50.8548C15.9046 50.0332 16.3711 49.1677 17.1927 48.9216L61.7086 35.5871C62.5302 35.341 63.3957 35.8075 63.6418 36.6291L66.2882 45.4636C66.5343 46.2851 66.0677 47.1507 65.2461 47.3968L20.7302 60.7313C19.9086 60.9774 19.0431 60.5108 18.797 59.6893L16.1507 50.8548Z" fill="#6499CA" stroke="#294064" stroke-width="0.245852" stroke-miterlimit="10" stroke-linejoin="round"/>
<path d="M14.9512 46.8438L62.4423 32.618L64.3908 39.1228L16.8996 53.3485L14.9512 46.8438Z" fill="#DE5C3E" stroke="#294064" stroke-width="0.245852" stroke-miterlimit="10" stroke-linejoin="round"/>
<path d="M16.2891 51.3066L63.7802 37.0809L65.5074 42.8469L18.0162 57.0726L16.2891 51.3066Z" fill="#00B691" stroke="#294064" stroke-width="0.245852" stroke-miterlimit="10" stroke-linejoin="round"/>
<path d="M21.9388 44.0212C21.6986 43.2194 22.1539 42.3746 22.9557 42.1345L53.1334 33.0949C53.9352 32.8547 54.78 33.31 55.0201 34.1118L57.311 41.7595C57.5512 42.5615 57.0959 43.4062 56.2941 43.6464L26.1164 52.6859C25.3146 52.9261 24.4698 52.4708 24.2296 51.6689L21.9388 44.0212Z" fill="white" stroke="#294064" stroke-width="0.245852" stroke-miterlimit="10" stroke-linejoin="round"/>
<path d="M24.437 47.4374C23.7448 45.1264 25.0571 42.6917 27.3681 41.9995L49.3761 35.4071C51.687 34.7149 54.1217 36.0272 54.814 38.3382C55.5062 40.6491 54.1939 43.0838 51.8829 43.7761L29.8749 50.3685C27.564 51.0607 25.1293 49.7484 24.437 47.4374Z" fill="#4987C1" stroke="#294064" stroke-width="0.245852" stroke-miterlimit="10" stroke-linejoin="round"/>
<path d="M32.4551 41.4902L44.8719 37.7708L46.8204 44.2757L34.4036 47.9951L32.4551 41.4902Z" fill="white" stroke="#294064" stroke-width="0.245852" stroke-miterlimit="10" stroke-linejoin="round"/>
<path d="M47.4419 40.5988C46.8958 38.7758 47.957 36.8474 49.812 36.2917C51.6672 35.736 53.6137 36.7635 54.1598 38.5865C54.7059 40.4096 53.6447 42.3379 51.7896 42.8936C49.9346 43.4493 47.988 42.4219 47.4419 40.5988Z" fill="white" stroke="#294064" stroke-width="0.245852" stroke-miterlimit="10" stroke-linejoin="round"/>
<path d="M25.3521 47.3205C24.806 45.4974 25.867 43.5691 27.7222 43.0134C29.5772 42.4577 31.5237 43.4851 32.0698 45.3082C32.6159 47.1313 31.5548 49.0596 29.6997 49.6153C27.8446 50.171 25.8982 49.1436 25.3521 47.3205Z" fill="white" stroke="#294064" stroke-width="0.245852" stroke-miterlimit="10" stroke-linejoin="round"/>
<path d="M27.2827 42.0917C24.9545 42.7891 23.6367 45.2442 24.334 47.5724C25.0314 49.9005 27.4801 51.2204 29.8082 50.523C32.1364 49.8256 33.4626 47.375 32.7652 45.0469C32.0678 42.7187 29.6109 41.3943 27.2827 42.0917ZM49.4987 35.4371C47.1705 36.1344 45.8526 38.5896 46.55 40.9177C47.2474 43.2459 49.696 44.5657 52.0242 43.8683C54.3524 43.1709 55.6786 40.7204 54.9813 38.3922C54.2839 36.064 51.8268 34.7397 49.4987 35.4371ZM27.0834 43.4091L27.3523 44.3068C27.4426 44.6081 27.7592 44.7788 28.0605 44.6885C28.3619 44.5982 28.5325 44.2816 28.4423 43.9803L28.1734 43.0826C28.6557 43.0264 29.1339 43.0737 29.5773 43.2211L29.1558 43.983C29.0031 44.2582 29.1048 44.6017 29.3798 44.7544C29.6549 44.9071 29.9985 44.8054 30.1512 44.5304L30.5771 43.7599C30.9412 44.0474 31.2373 44.4152 31.4543 44.8457L30.4926 45.1338C30.1912 45.224 30.0206 45.5406 30.1108 45.842C30.2011 46.1433 30.5177 46.314 30.8191 46.2237L31.7808 45.9356C31.8352 46.4062 31.7925 46.8679 31.652 47.3017L30.8663 46.8244C30.7319 46.7427 30.5758 46.7236 30.4342 46.7582C30.2926 46.7928 30.167 46.8819 30.0853 47.0163C29.9221 47.2852 30.0084 47.634 30.2773 47.7973L31.115 48.3079C30.824 48.6813 30.449 48.9909 30.0094 49.2121L29.6964 48.167C29.6061 47.8656 29.2895 47.695 28.9882 47.7852C28.6868 47.8755 28.5162 48.1921 28.6064 48.4935L28.9195 49.5386C28.469 49.591 28.0255 49.5547 27.6078 49.4283L28.0717 48.4579C28.2059 48.1734 28.0809 47.8362 27.7964 47.702C27.6542 47.635 27.5003 47.6289 27.3631 47.6782C27.2259 47.7273 27.1056 47.8287 27.0385 47.9709L26.5926 48.9081C26.1994 48.6132 25.8749 48.2307 25.6449 47.7736L26.5875 47.4913C26.8888 47.401 27.0595 47.0844 26.9692 46.783C26.8789 46.4817 26.5623 46.311 26.261 46.4013L25.3185 46.6836C25.261 46.1901 25.3147 45.706 25.4703 45.2547L26.3998 45.675C26.6857 45.8058 27.0249 45.6858 27.1556 45.3997C27.2865 45.1136 27.1645 44.7681 26.8784 44.6374L26.0221 44.251C26.3055 43.9025 26.6661 43.619 27.0834 43.4091ZM49.2994 36.7544L49.5683 37.6521C49.6585 37.9534 49.9752 38.1241 50.2765 38.0338C50.5778 37.9436 50.755 37.625 50.6647 37.3237L50.3958 36.426C50.8759 36.371 51.352 36.4197 51.7933 36.5664L51.3718 37.3284C51.2191 37.6035 51.3207 37.947 51.5958 38.0997C51.8709 38.2524 52.2145 38.1507 52.3671 37.8757L52.7931 37.1052C53.1573 37.3927 53.4534 37.7605 53.6704 38.191L52.7085 38.4791C52.4072 38.5694 52.2365 38.886 52.3268 39.1873C52.4171 39.4887 52.7337 39.6593 53.035 39.569L53.9968 39.2809C54.0512 39.7515 54.0084 40.2132 53.868 40.647L53.0822 40.1697C52.9478 40.0881 52.7918 40.0689 52.6503 40.1035C52.5086 40.1381 52.3829 40.2272 52.3013 40.3617C52.138 40.6305 52.2245 40.9793 52.4934 41.1426L53.331 41.6533C53.0413 42.0249 52.6689 42.3345 52.2319 42.5555L51.9188 41.5104C51.8286 41.209 51.5055 41.0403 51.2041 41.1306C50.9028 41.2209 50.7321 41.5375 50.8224 41.8388L51.1354 42.8839C50.6851 42.9363 50.2415 42.9 49.8238 42.7736L50.2878 41.8033C50.4219 41.5188 50.297 41.1815 50.0125 41.0473C49.8701 40.9803 49.7162 40.9742 49.579 41.0235C49.4418 41.0727 49.3217 41.174 49.2546 41.3163L48.8086 42.2534C48.4155 41.9585 48.091 41.576 47.8609 41.1189L48.8034 40.8366C49.1048 40.7463 49.2754 40.4297 49.1852 40.1284C49.0949 39.827 48.7783 39.6564 48.4769 39.7466L47.5344 40.029C47.477 39.5354 47.5307 39.0514 47.6864 38.6L48.6157 39.0203C48.9018 39.1511 49.2408 39.0311 49.3717 38.745C49.5025 38.4589 49.3804 38.1135 49.0945 37.9827L48.2381 37.5963C48.5216 37.2478 48.8821 36.9644 49.2994 36.7544Z" fill="#294064" stroke="#294064" stroke-width="0.245852" stroke-miterlimit="10" stroke-linecap="round" stroke-linejoin="round"/>
<path d="M63.5039 24.4336L65.3573 30.621" stroke="#294064" stroke-width="0.245852" stroke-miterlimit="10" stroke-linecap="round" stroke-linejoin="round"/>
<path d="M65.668 31.6494C65.668 31.6494 66.5419 34.5377 66.7544 35.2763" stroke="#294064" stroke-width="0.245852" stroke-miterlimit="10" stroke-linecap="round" stroke-linejoin="round"/>
<path d="M24.595 67.509L31.6494 65.3701" stroke="#294064" stroke-width="0.245852" stroke-miterlimit="10" stroke-linecap="round" stroke-linejoin="round"/>
<path d="M59.6742 22.1187L60.7079 20.3867" stroke="white" stroke-width="0.245852" stroke-miterlimit="10" stroke-linecap="round" stroke-linejoin="round"/>
<path d="M59.3418 20.7012L61.1143 21.7296" stroke="white" stroke-width="0.245852" stroke-miterlimit="10" stroke-linecap="round" stroke-linejoin="round"/>
<path d="M10.0414 36.982L11.0751 35.25" stroke="white" stroke-width="0.245852" stroke-miterlimit="10" stroke-linecap="round" stroke-linejoin="round"/>
<path d="M9.71289 35.5703L11.4854 36.5988" stroke="white" stroke-width="0.245852" stroke-miterlimit="10" stroke-linecap="round" stroke-linejoin="round"/>
<path d="M19.3753 68.1597L20.4091 66.4277" stroke="white" stroke-width="0.245852" stroke-miterlimit="10" stroke-linecap="round" stroke-linejoin="round"/>
<path d="M19.0449 66.7422L20.8174 67.7706" stroke="white" stroke-width="0.245852" stroke-miterlimit="10" stroke-linecap="round" stroke-linejoin="round"/>
<path d="M69.0062 53.2906L70.04 51.5586" stroke="white" stroke-width="0.245852" stroke-miterlimit="10" stroke-linecap="round" stroke-linejoin="round"/>
<path d="M68.6738 51.8789L70.4463 52.9073" stroke="white" stroke-width="0.245852" stroke-miterlimit="10" stroke-linecap="round" stroke-linejoin="round"/>
<path d="M-7 37.4267C13.5 3.42957 54.3276 -2.18701 65.5 12.9264C76.6724 28.0397 71.7368 43.2883 56.5 62.5C45 77 65 99.5 101.5 71.4766" stroke="white" stroke-width="0.35" stroke-linecap="round" stroke-linejoin="round" stroke-dasharray="3 3"/>
</g>
<defs>
<clipPath id="clip0_5194_20204">
<rect width="80" height="109" rx="9" fill="white"/>
</clipPath>
</defs>
</svg>
