<svg width="375" height="776" viewBox="0 0 375 776" fill="none" xmlns="http://www.w3.org/2000/svg">
<path d="M0 0H375V718.4C375 742.398 375 754.397 368.889 762.809C366.915 765.526 364.526 767.915 361.809 769.889C353.397 776 341.398 776 317.4 776H57.6C33.6017 776 21.6026 776 13.1909 769.889C10.4742 767.915 8.0852 765.526 6.11146 762.809C0 754.397 0 742.398 0 718.4V0Z" fill="#DADADA" fill-opacity="0.6"/>
<path d="M159.148 356.455H160.909V366.852C160.909 367.78 160.739 368.569 160.398 369.217C160.057 369.866 159.576 370.358 158.956 370.695C158.336 371.031 157.604 371.199 156.762 371.199C155.966 371.199 155.258 371.054 154.638 370.766C154.018 370.472 153.53 370.055 153.175 369.516C152.82 368.976 152.642 368.334 152.642 367.591H154.375C154.375 368.003 154.477 368.363 154.681 368.67C154.889 368.973 155.173 369.21 155.533 369.381C155.893 369.551 156.302 369.636 156.762 369.636C157.268 369.636 157.699 369.53 158.054 369.317C158.409 369.104 158.679 368.791 158.864 368.379C159.053 367.963 159.148 367.454 159.148 366.852V356.455ZM172.394 360.091C172.308 359.371 171.963 358.812 171.357 358.415C170.751 358.017 170.007 357.818 169.127 357.818C168.483 357.818 167.919 357.922 167.436 358.131C166.958 358.339 166.584 358.625 166.314 358.99C166.049 359.355 165.916 359.769 165.916 360.233C165.916 360.621 166.009 360.955 166.193 361.234C166.383 361.509 166.624 361.739 166.918 361.923C167.211 362.103 167.519 362.252 167.841 362.371C168.163 362.484 168.459 362.577 168.729 362.648L170.206 363.045C170.585 363.145 171.006 363.282 171.47 363.457C171.939 363.633 172.387 363.872 172.813 364.175C173.244 364.473 173.599 364.857 173.878 365.325C174.157 365.794 174.297 366.369 174.297 367.051C174.297 367.837 174.091 368.547 173.679 369.182C173.272 369.816 172.675 370.321 171.889 370.695C171.108 371.069 170.159 371.256 169.041 371.256C168 371.256 167.098 371.088 166.335 370.751C165.578 370.415 164.981 369.946 164.546 369.345C164.115 368.744 163.871 368.045 163.814 367.25H165.632C165.68 367.799 165.864 368.254 166.186 368.614C166.513 368.969 166.925 369.234 167.422 369.409C167.924 369.58 168.464 369.665 169.041 369.665C169.714 369.665 170.317 369.556 170.852 369.338C171.387 369.116 171.811 368.808 172.124 368.415C172.436 368.017 172.593 367.553 172.593 367.023C172.593 366.54 172.458 366.147 172.188 365.844C171.918 365.541 171.563 365.295 171.122 365.105C170.682 364.916 170.206 364.75 169.695 364.608L167.905 364.097C166.769 363.77 165.869 363.304 165.206 362.697C164.543 362.091 164.212 361.298 164.212 360.318C164.212 359.504 164.432 358.794 164.872 358.188C165.317 357.577 165.914 357.103 166.662 356.767C167.415 356.426 168.255 356.256 169.183 356.256C170.121 356.256 170.954 356.424 171.683 356.76C172.413 357.091 172.99 357.546 173.416 358.124C173.847 358.701 174.075 359.357 174.098 360.091H172.394ZM189.466 363.727C189.466 365.261 189.189 366.587 188.635 367.705C188.081 368.822 187.321 369.684 186.355 370.29C185.389 370.896 184.286 371.199 183.045 371.199C181.805 371.199 180.702 370.896 179.736 370.29C178.77 369.684 178.01 368.822 177.456 367.705C176.902 366.587 176.625 365.261 176.625 363.727C176.625 362.193 176.902 360.867 177.456 359.75C178.01 358.633 178.77 357.771 179.736 357.165C180.702 356.559 181.805 356.256 183.045 356.256C184.286 356.256 185.389 356.559 186.355 357.165C187.321 357.771 188.081 358.633 188.635 359.75C189.189 360.867 189.466 362.193 189.466 363.727ZM187.761 363.727C187.761 362.468 187.55 361.405 187.129 360.538C186.712 359.672 186.147 359.016 185.432 358.571C184.721 358.126 183.926 357.903 183.045 357.903C182.165 357.903 181.367 358.126 180.652 358.571C179.942 359.016 179.376 359.672 178.954 360.538C178.538 361.405 178.329 362.468 178.329 363.727C178.329 364.987 178.538 366.05 178.954 366.916C179.376 367.783 179.942 368.438 180.652 368.884C181.367 369.329 182.165 369.551 183.045 369.551C183.926 369.551 184.721 369.329 185.432 368.884C186.147 368.438 186.712 367.783 187.129 366.916C187.55 366.05 187.761 364.987 187.761 363.727ZM203.961 356.455V371H202.257L194.331 359.58H194.189V371H192.427V356.455H194.132L202.086 367.903H202.229V356.455H203.961ZM206.889 368.017V366.568L213.281 356.455H214.333V358.699H213.622L208.793 366.341V366.455H217.401V368.017H206.889ZM213.736 371V367.577V366.902V356.455H215.412V371H213.736ZM150.953 395V380.455H155.868C157.009 380.455 157.941 380.661 158.666 381.072C159.395 381.48 159.935 382.031 160.285 382.727C160.636 383.423 160.811 384.2 160.811 385.057C160.811 385.914 160.636 386.693 160.285 387.393C159.94 388.094 159.404 388.653 158.68 389.07C157.956 389.482 157.028 389.688 155.896 389.688H152.373V388.125H155.839C156.62 388.125 157.248 387.99 157.721 387.72C158.195 387.45 158.538 387.086 158.751 386.626C158.969 386.162 159.078 385.639 159.078 385.057C159.078 384.474 158.969 383.954 158.751 383.494C158.538 383.035 158.192 382.675 157.714 382.415C157.236 382.15 156.601 382.017 155.811 382.017H152.714V395H150.953ZM163.421 395V384.091H165.04V385.739H165.154C165.353 385.199 165.712 384.761 166.233 384.425C166.754 384.089 167.341 383.92 167.995 383.92C168.118 383.92 168.272 383.923 168.456 383.928C168.641 383.932 168.781 383.939 168.875 383.949V385.653C168.819 385.639 168.688 385.618 168.485 385.589C168.286 385.556 168.075 385.54 167.853 385.54C167.322 385.54 166.849 385.651 166.432 385.874C166.02 386.091 165.694 386.394 165.452 386.783C165.215 387.166 165.097 387.604 165.097 388.097V395H163.421ZM175.104 395.227C174.053 395.227 173.146 394.995 172.384 394.531C171.626 394.062 171.042 393.409 170.63 392.571C170.222 391.728 170.019 390.748 170.019 389.631C170.019 388.513 170.222 387.528 170.63 386.676C171.042 385.819 171.614 385.152 172.348 384.673C173.087 384.19 173.949 383.949 174.934 383.949C175.502 383.949 176.063 384.044 176.617 384.233C177.171 384.422 177.675 384.73 178.13 385.156C178.584 385.578 178.946 386.136 179.216 386.832C179.486 387.528 179.621 388.385 179.621 389.403V390.114H171.212V388.665H177.917C177.917 388.049 177.793 387.5 177.547 387.017C177.306 386.534 176.96 386.153 176.51 385.874C176.065 385.594 175.54 385.455 174.934 385.455C174.266 385.455 173.688 385.62 173.201 385.952C172.718 386.278 172.346 386.705 172.086 387.23C171.825 387.756 171.695 388.319 171.695 388.92V389.886C171.695 390.71 171.837 391.409 172.121 391.982C172.41 392.55 172.81 392.983 173.321 393.281C173.833 393.575 174.427 393.722 175.104 393.722C175.544 393.722 175.942 393.66 176.297 393.537C176.657 393.409 176.967 393.22 177.228 392.969C177.488 392.713 177.689 392.396 177.831 392.017L179.451 392.472C179.28 393.021 178.994 393.504 178.591 393.92C178.189 394.332 177.692 394.654 177.1 394.886C176.508 395.114 175.843 395.227 175.104 395.227ZM181.979 380.455L186.297 392.699H186.468L190.786 380.455H192.632L187.292 395H185.473L180.132 380.455H181.979ZM193.618 392.017V390.568L200.01 380.455H201.061V382.699H200.351L195.521 390.341V390.455H204.129V392.017H193.618ZM200.464 395V391.577V390.902V380.455H202.141V395H200.464ZM213.069 386.946V388.509H206.706V386.946H213.069ZM220.649 395.199C219.674 395.199 218.812 395.026 218.064 394.68C217.321 394.33 216.741 393.849 216.324 393.239C215.907 392.623 215.701 391.922 215.706 391.136C215.701 390.521 215.822 389.953 216.068 389.432C216.314 388.906 216.651 388.468 217.077 388.118C217.508 387.763 217.988 387.538 218.518 387.443V387.358C217.822 387.178 217.268 386.787 216.857 386.186C216.445 385.58 216.241 384.891 216.246 384.119C216.241 383.381 216.428 382.72 216.807 382.138C217.186 381.555 217.706 381.096 218.369 380.76C219.037 380.424 219.797 380.256 220.649 380.256C221.492 380.256 222.245 380.424 222.908 380.76C223.571 381.096 224.091 381.555 224.47 382.138C224.854 382.72 225.048 383.381 225.053 384.119C225.048 384.891 224.837 385.58 224.42 386.186C224.009 386.787 223.462 387.178 222.78 387.358V387.443C223.305 387.538 223.779 387.763 224.2 388.118C224.622 388.468 224.958 388.906 225.209 389.432C225.46 389.953 225.588 390.521 225.592 391.136C225.588 391.922 225.375 392.623 224.953 393.239C224.536 393.849 223.956 394.33 223.213 394.68C222.474 395.026 221.62 395.199 220.649 395.199ZM220.649 393.636C221.307 393.636 221.875 393.53 222.354 393.317C222.832 393.104 223.201 392.803 223.462 392.415C223.722 392.027 223.855 391.572 223.859 391.051C223.855 390.502 223.713 390.017 223.433 389.595C223.154 389.174 222.773 388.842 222.29 388.601C221.812 388.359 221.265 388.239 220.649 388.239C220.029 388.239 219.475 388.359 218.987 388.601C218.504 388.842 218.123 389.174 217.844 389.595C217.569 390.017 217.434 390.502 217.439 391.051C217.434 391.572 217.56 392.027 217.815 392.415C218.076 392.803 218.447 393.104 218.93 393.317C219.413 393.53 219.986 393.636 220.649 393.636ZM220.649 386.733C221.17 386.733 221.632 386.629 222.034 386.42C222.441 386.212 222.761 385.921 222.993 385.547C223.225 385.173 223.343 384.735 223.348 384.233C223.343 383.741 223.227 383.312 223 382.947C222.773 382.578 222.458 382.294 222.055 382.095C221.653 381.892 221.184 381.79 220.649 381.79C220.105 381.79 219.629 381.892 219.222 382.095C218.814 382.294 218.5 382.578 218.277 382.947C218.054 383.312 217.946 383.741 217.95 384.233C217.946 384.735 218.057 385.173 218.284 385.547C218.516 385.921 218.836 386.212 219.243 386.42C219.65 386.629 220.119 386.733 220.649 386.733ZM160.46 408.091C160.375 407.371 160.029 406.812 159.423 406.415C158.817 406.017 158.074 405.818 157.193 405.818C156.549 405.818 155.986 405.922 155.503 406.131C155.024 406.339 154.65 406.625 154.381 406.99C154.115 407.355 153.983 407.769 153.983 408.233C153.983 408.621 154.075 408.955 154.26 409.234C154.449 409.509 154.691 409.739 154.984 409.923C155.278 410.103 155.586 410.252 155.907 410.371C156.229 410.484 156.525 410.577 156.795 410.648L158.273 411.045C158.651 411.145 159.073 411.282 159.537 411.457C160.006 411.633 160.453 411.872 160.879 412.175C161.31 412.473 161.665 412.857 161.944 413.325C162.224 413.794 162.363 414.369 162.363 415.051C162.363 415.837 162.157 416.547 161.746 417.182C161.338 417.816 160.742 418.321 159.956 418.695C159.175 419.069 158.225 419.256 157.108 419.256C156.066 419.256 155.164 419.088 154.402 418.751C153.644 418.415 153.048 417.946 152.612 417.345C152.181 416.744 151.937 416.045 151.881 415.25H153.699C153.746 415.799 153.931 416.254 154.253 416.614C154.579 416.969 154.991 417.234 155.488 417.409C155.99 417.58 156.53 417.665 157.108 417.665C157.78 417.665 158.384 417.556 158.919 417.338C159.454 417.116 159.878 416.808 160.19 416.415C160.503 416.017 160.659 415.553 160.659 415.023C160.659 414.54 160.524 414.147 160.254 413.844C159.984 413.541 159.629 413.295 159.189 413.105C158.748 412.916 158.273 412.75 157.761 412.608L155.971 412.097C154.835 411.77 153.935 411.304 153.273 410.697C152.61 410.091 152.278 409.298 152.278 408.318C152.278 407.504 152.498 406.794 152.939 406.188C153.384 405.577 153.98 405.103 154.729 404.767C155.481 404.426 156.322 404.256 157.25 404.256C158.187 404.256 159.021 404.424 159.75 404.76C160.479 405.091 161.057 405.546 161.483 406.124C161.914 406.701 162.141 407.357 162.165 408.091H160.46ZM169.464 419.227C168.441 419.227 167.561 418.986 166.822 418.503C166.083 418.02 165.515 417.355 165.117 416.507C164.72 415.66 164.521 414.691 164.521 413.602C164.521 412.494 164.724 411.517 165.132 410.669C165.544 409.817 166.116 409.152 166.85 408.673C167.589 408.19 168.451 407.949 169.436 407.949C170.203 407.949 170.894 408.091 171.509 408.375C172.125 408.659 172.629 409.057 173.022 409.568C173.415 410.08 173.659 410.676 173.754 411.358H172.078C171.95 410.861 171.666 410.42 171.225 410.037C170.79 409.649 170.203 409.455 169.464 409.455C168.811 409.455 168.238 409.625 167.745 409.966C167.258 410.302 166.876 410.778 166.602 411.393C166.332 412.004 166.197 412.722 166.197 413.545C166.197 414.388 166.329 415.122 166.595 415.747C166.865 416.372 167.243 416.857 167.731 417.203C168.223 417.549 168.801 417.722 169.464 417.722C169.9 417.722 170.295 417.646 170.65 417.494C171.005 417.343 171.306 417.125 171.552 416.841C171.798 416.557 171.973 416.216 172.078 415.818H173.754C173.659 416.462 173.425 417.042 173.051 417.558C172.681 418.07 172.191 418.477 171.58 418.78C170.974 419.078 170.269 419.227 169.464 419.227ZM176.204 419V408.091H177.823V409.739H177.937C178.136 409.199 178.496 408.761 179.017 408.425C179.537 408.089 180.124 407.92 180.778 407.92C180.901 407.92 181.055 407.923 181.24 407.928C181.424 407.932 181.564 407.939 181.659 407.949V409.653C181.602 409.639 181.472 409.618 181.268 409.589C181.069 409.556 180.858 409.54 180.636 409.54C180.106 409.54 179.632 409.651 179.215 409.874C178.803 410.091 178.477 410.394 178.235 410.783C177.999 411.166 177.88 411.604 177.88 412.097V419H176.204ZM187.887 419.227C186.836 419.227 185.929 418.995 185.167 418.531C184.41 418.062 183.825 417.409 183.413 416.571C183.006 415.728 182.802 414.748 182.802 413.631C182.802 412.513 183.006 411.528 183.413 410.676C183.825 409.819 184.398 409.152 185.132 408.673C185.87 408.19 186.732 407.949 187.717 407.949C188.285 407.949 188.846 408.044 189.4 408.233C189.954 408.422 190.458 408.73 190.913 409.156C191.367 409.578 191.73 410.136 191.999 410.832C192.269 411.528 192.404 412.385 192.404 413.403V414.114H183.995V412.665H190.7C190.7 412.049 190.577 411.5 190.33 411.017C190.089 410.534 189.743 410.153 189.294 409.874C188.848 409.594 188.323 409.455 187.717 409.455C187.049 409.455 186.472 409.62 185.984 409.952C185.501 410.278 185.129 410.705 184.869 411.23C184.608 411.756 184.478 412.319 184.478 412.92V413.886C184.478 414.71 184.62 415.409 184.904 415.982C185.193 416.55 185.593 416.983 186.105 417.281C186.616 417.575 187.21 417.722 187.887 417.722C188.328 417.722 188.725 417.66 189.08 417.537C189.44 417.409 189.75 417.22 190.011 416.969C190.271 416.713 190.472 416.396 190.615 416.017L192.234 416.472C192.063 417.021 191.777 417.504 191.374 417.92C190.972 418.332 190.475 418.654 189.883 418.886C189.291 419.114 188.626 419.227 187.887 419.227ZM199.528 419.227C198.477 419.227 197.57 418.995 196.808 418.531C196.05 418.062 195.465 417.409 195.053 416.571C194.646 415.728 194.443 414.748 194.443 413.631C194.443 412.513 194.646 411.528 195.053 410.676C195.465 409.819 196.038 409.152 196.772 408.673C197.511 408.19 198.373 407.949 199.357 407.949C199.926 407.949 200.487 408.044 201.041 408.233C201.595 408.422 202.099 408.73 202.553 409.156C203.008 409.578 203.37 410.136 203.64 410.832C203.91 411.528 204.045 412.385 204.045 413.403V414.114H195.636V412.665H202.34C202.34 412.049 202.217 411.5 201.971 411.017C201.73 410.534 201.384 410.153 200.934 409.874C200.489 409.594 199.963 409.455 199.357 409.455C198.69 409.455 198.112 409.62 197.624 409.952C197.142 410.278 196.77 410.705 196.509 411.23C196.249 411.756 196.119 412.319 196.119 412.92V413.886C196.119 414.71 196.261 415.409 196.545 415.982C196.834 416.55 197.234 416.983 197.745 417.281C198.257 417.575 198.851 417.722 199.528 417.722C199.968 417.722 200.366 417.66 200.721 417.537C201.081 417.409 201.391 417.22 201.651 416.969C201.912 416.713 202.113 416.396 202.255 416.017L203.874 416.472C203.704 417.021 203.418 417.504 203.015 417.92C202.613 418.332 202.115 418.654 201.524 418.886C200.932 419.114 200.267 419.227 199.528 419.227ZM208.271 412.438V419H206.595V408.091H208.214V409.795H208.356C208.612 409.241 209 408.796 209.521 408.46C210.042 408.119 210.714 407.949 211.538 407.949C212.276 407.949 212.923 408.1 213.477 408.403C214.031 408.702 214.462 409.156 214.769 409.767C215.077 410.373 215.231 411.14 215.231 412.068V419H213.555V412.182C213.555 411.325 213.332 410.657 212.887 410.179C212.442 409.696 211.831 409.455 211.055 409.455C210.52 409.455 210.042 409.571 209.62 409.803C209.204 410.035 208.874 410.373 208.633 410.818C208.392 411.263 208.271 411.803 208.271 412.438ZM222.578 404.455V419H220.817V406.301H220.732L217.181 408.659V406.869L220.817 404.455H222.578Z" fill="black"/>
</svg>
