<svg width="144" height="144" viewBox="0 0 144 144" fill="none" xmlns="http://www.w3.org/2000/svg">
<rect width="144" height="144" rx="16" fill="#DADADA"/>
<path d="M61.4913 44.0909C61.4061 43.3712 61.0604 42.8125 60.4544 42.4148C59.8483 42.017 59.1049 41.8182 58.2243 41.8182C57.5803 41.8182 57.0169 41.9223 56.5339 42.1307C56.0557 42.339 55.6816 42.6255 55.4118 42.9901C55.1466 43.3546 55.014 43.7689 55.014 44.233C55.014 44.6212 55.1064 44.955 55.291 45.2344C55.4804 45.509 55.7219 45.7386 56.0154 45.9233C56.309 46.1032 56.6168 46.2524 56.9387 46.3707C57.2607 46.4844 57.5566 46.5767 57.8265 46.6477L59.3038 47.0455C59.6826 47.1449 60.104 47.2822 60.568 47.4574C61.0368 47.6326 61.4842 47.8717 61.9103 48.1747C62.3412 48.473 62.6963 48.8565 62.9757 49.3253C63.255 49.794 63.3947 50.3693 63.3947 51.0511C63.3947 51.8371 63.1887 52.5473 62.7768 53.1818C62.3696 53.8163 61.773 54.3205 60.987 54.6946C60.2058 55.0687 59.2565 55.2557 58.139 55.2557C57.0974 55.2557 56.1954 55.0876 55.4331 54.7514C54.6755 54.4152 54.0789 53.9465 53.6433 53.3452C53.2124 52.7438 52.9686 52.0455 52.9118 51.25H54.7299C54.7773 51.7992 54.9619 52.2538 55.2839 52.6136C55.6106 52.9687 56.0225 53.2339 56.5197 53.4091C57.0216 53.5795 57.5614 53.6648 58.139 53.6648C58.8114 53.6648 59.4151 53.5559 59.9501 53.3381C60.4851 53.1155 60.9089 52.8078 61.2214 52.4148C61.5339 52.017 61.6902 51.553 61.6902 51.0227C61.6902 50.5398 61.5552 50.1468 61.2853 49.8438C61.0154 49.5407 60.6603 49.2945 60.22 49.1051C59.7797 48.9157 59.3038 48.75 58.7924 48.608L57.0027 48.0966C55.8663 47.7699 54.9667 47.3035 54.3038 46.6974C53.6409 46.0914 53.3095 45.2983 53.3095 44.3182C53.3095 43.5038 53.5297 42.7936 53.97 42.1875C54.4151 41.5767 55.0117 41.1032 55.7598 40.767C56.5126 40.4261 57.353 40.2557 58.2811 40.2557C59.2186 40.2557 60.0519 40.4238 60.7811 40.7599C61.5102 41.0914 62.0879 41.5459 62.514 42.1236C62.9449 42.7012 63.1722 43.357 63.1958 44.0909H61.4913ZM66.8873 40.4545L71.2054 52.6989H71.3759L75.6941 40.4545H77.5407L72.1998 55H70.3816L65.0407 40.4545H66.8873ZM89.0659 45C88.9096 44.5218 88.7037 44.0933 88.448 43.7145C88.197 43.331 87.8964 43.0043 87.546 42.7344C87.2003 42.4645 86.8074 42.2585 86.367 42.1165C85.9267 41.9744 85.4437 41.9034 84.9181 41.9034C84.0564 41.9034 83.2728 42.1259 82.5673 42.571C81.8618 43.0161 81.3007 43.6719 80.8841 44.5384C80.4674 45.4048 80.2591 46.4678 80.2591 47.7273C80.2591 48.9867 80.4698 50.0497 80.8912 50.9162C81.3126 51.7827 81.8831 52.4384 82.6028 52.8835C83.3225 53.3286 84.1322 53.5511 85.0318 53.5511C85.8651 53.5511 86.599 53.3736 87.2335 53.0185C87.8727 52.6586 88.3699 52.152 88.725 51.4986C89.0848 50.8404 89.2647 50.0663 89.2647 49.1761L89.8045 49.2898H85.4295V47.7273H90.9693V49.2898C90.9693 50.4877 90.7136 51.5294 90.2022 52.4148C89.6956 53.3002 88.9949 53.9867 88.1 54.4744C87.2098 54.9574 86.1871 55.1989 85.0318 55.1989C83.7439 55.1989 82.6123 54.8958 81.6369 54.2898C80.6663 53.6837 79.9087 52.822 79.3642 51.7045C78.8244 50.5871 78.5545 49.2614 78.5545 47.7273C78.5545 46.5767 78.7084 45.5421 79.0162 44.6236C79.3287 43.7003 79.769 42.9143 80.3372 42.2656C80.9054 41.617 81.5777 41.1198 82.3542 40.7741C83.1307 40.4285 83.9854 40.2557 84.9181 40.2557C85.6852 40.2557 86.4002 40.3717 87.063 40.6037C87.7306 40.831 88.3249 41.1553 88.8457 41.5767C89.3713 41.9934 89.8092 42.4929 90.1596 43.0753C90.51 43.6529 90.7515 44.2945 90.8841 45H89.0659ZM63.2873 64.4545V79H61.5259V66.3011H61.4407L57.8896 68.6591V66.8693L61.5259 64.4545H63.2873ZM73.7489 70.946V72.5085H67.3853V70.946H73.7489ZM81.2152 79.1989C80.3819 79.1989 79.6314 79.0331 78.9638 78.7017C78.2962 78.3703 77.7611 77.9157 77.3587 77.3381C76.9562 76.7604 76.736 76.1023 76.6982 75.3636H78.4027C78.469 76.0218 78.7673 76.5663 79.2976 76.9972C79.8326 77.4233 80.4718 77.6364 81.2152 77.6364C81.8118 77.6364 82.3421 77.4967 82.8061 77.2173C83.2749 76.938 83.6418 76.5545 83.907 76.0668C84.1768 75.5743 84.3118 75.018 84.3118 74.3977C84.3118 73.7633 84.1721 73.1974 83.8928 72.7003C83.6181 72.1984 83.2393 71.803 82.7564 71.5142C82.2734 71.2254 81.7218 71.0786 81.1016 71.0739C80.6565 71.0691 80.1996 71.1378 79.7308 71.2798C79.2621 71.4171 78.8762 71.5947 78.5732 71.8125L76.9254 71.6136L77.8061 64.4545H85.3629V66.017H79.2834L78.772 70.3068H78.8572C79.1555 70.0701 79.5296 69.8736 79.9794 69.7173C80.4292 69.5611 80.898 69.483 81.3857 69.483C82.2758 69.483 83.0689 69.696 83.7649 70.1222C84.4657 70.5436 85.0149 71.1212 85.4126 71.8551C85.8151 72.589 86.0163 73.4271 86.0163 74.3693C86.0163 75.2973 85.808 76.1259 85.3913 76.8551C84.9794 77.5795 84.4112 78.1525 83.6868 78.5739C82.9624 78.9905 82.1385 79.1989 81.2152 79.1989ZM51.7887 103V88.4545H56.7035C57.8446 88.4545 58.7773 88.6605 59.5018 89.0724C60.2309 89.4796 60.7707 90.0312 61.1211 90.7273C61.4715 91.4233 61.6467 92.1998 61.6467 93.0568C61.6467 93.9138 61.4715 94.6927 61.1211 95.3935C60.7755 96.0942 60.2404 96.6529 59.516 97.0696C58.7915 97.4815 57.8635 97.6875 56.7319 97.6875H53.2092V96.125H56.6751C57.4563 96.125 58.0837 95.9901 58.5572 95.7202C59.0307 95.4503 59.3739 95.0857 59.587 94.6264C59.8048 94.1624 59.9137 93.6392 59.9137 93.0568C59.9137 92.4744 59.8048 91.9536 59.587 91.4943C59.3739 91.035 59.0283 90.6752 58.5501 90.4148C58.0719 90.1496 57.4374 90.017 56.6467 90.017H53.5501V103H51.7887ZM64.2567 103V92.0909H65.8761V93.7386H65.9897C66.1886 93.1989 66.5484 92.7609 67.0692 92.4247C67.5901 92.0885 68.1772 91.9205 68.8306 91.9205C68.9537 91.9205 69.1076 91.9228 69.2923 91.9276C69.4769 91.9323 69.6166 91.9394 69.7113 91.9489V93.6534C69.6545 93.6392 69.5243 93.6179 69.3207 93.5895C69.1218 93.5563 68.9111 93.5398 68.6886 93.5398C68.1583 93.5398 67.6848 93.651 67.2681 93.8736C66.8562 94.0914 66.5295 94.3944 66.288 94.7827C66.0513 95.1662 65.9329 95.6042 65.9329 96.0966V103H64.2567ZM75.94 103.227C74.8888 103.227 73.9821 102.995 73.2198 102.531C72.4622 102.062 71.8775 101.409 71.4656 100.571C71.0584 99.7282 70.8548 98.7481 70.8548 97.6307C70.8548 96.5133 71.0584 95.5284 71.4656 94.6761C71.8775 93.8191 72.4504 93.1515 73.1843 92.6733C73.9229 92.1903 74.7847 91.9489 75.7695 91.9489C76.3377 91.9489 76.8988 92.0436 77.4528 92.233C78.0067 92.4223 78.511 92.7301 78.9656 93.1562C79.4201 93.5777 79.7823 94.1364 80.0522 94.8324C80.3221 95.5284 80.457 96.3854 80.457 97.4034V98.1136H72.0479V96.6648H78.7525C78.7525 96.0492 78.6294 95.5 78.3832 95.017C78.1417 94.5341 77.796 94.1529 77.3462 93.8736C76.9012 93.5942 76.3756 93.4545 75.7695 93.4545C75.1019 93.4545 74.5243 93.6203 74.0366 93.9517C73.5536 94.2784 73.1819 94.7045 72.9215 95.2301C72.6611 95.7557 72.5309 96.3191 72.5309 96.9205V97.8864C72.5309 98.7102 72.6729 99.4086 72.957 99.9815C73.2459 100.55 73.646 100.983 74.1573 101.281C74.6687 101.575 75.2629 101.722 75.94 101.722C76.3803 101.722 76.7781 101.66 77.1332 101.537C77.493 101.409 77.8031 101.22 78.0636 100.969C78.324 100.713 78.5252 100.396 78.6673 100.017L80.2866 100.472C80.1161 101.021 79.8297 101.504 79.4272 101.92C79.0247 102.332 78.5276 102.654 77.9357 102.886C77.3439 103.114 76.6786 103.227 75.94 103.227ZM82.815 88.4545L87.1332 100.699H87.3036L91.6218 88.4545H93.4684L88.1275 103H86.3093L80.9684 88.4545H82.815Z" fill="black"/>
</svg>
