<svg width="144" height="144" viewBox="0 0 144 144" fill="none" xmlns="http://www.w3.org/2000/svg">
<rect width="144" height="144" rx="16" fill="#FAFF00"/>
<path d="M60.7159 68.0909C60.6307 67.3712 60.285 66.8125 59.679 66.4148C59.0729 66.017 58.3295 65.8182 57.4489 65.8182C56.8049 65.8182 56.2415 65.9223 55.7585 66.1307C55.2803 66.339 54.9063 66.6255 54.6364 66.9901C54.3712 67.3546 54.2386 67.7689 54.2386 68.233C54.2386 68.6212 54.331 68.955 54.5156 69.2344C54.705 69.509 54.9465 69.7386 55.2401 69.9233C55.5336 70.1032 55.8414 70.2524 56.1634 70.3707C56.4853 70.4844 56.7812 70.5767 57.0511 70.6477L58.5284 71.0455C58.9072 71.1449 59.3286 71.2822 59.7926 71.4574C60.2614 71.6326 60.7088 71.8717 61.1349 72.1747C61.5658 72.473 61.9209 72.8565 62.2003 73.3253C62.4796 73.794 62.6193 74.3693 62.6193 75.0511C62.6193 75.8371 62.4134 76.5473 62.0014 77.1818C61.5942 77.8163 60.9976 78.3205 60.2116 78.6946C59.4304 79.0687 58.4811 79.2557 57.3636 79.2557C56.322 79.2557 55.42 79.0876 54.6577 78.7514C53.9001 78.4152 53.3035 77.9465 52.8679 77.3452C52.437 76.7438 52.1932 76.0455 52.1364 75.25H53.9545C54.0019 75.7992 54.1866 76.2538 54.5085 76.6136C54.8352 76.9687 55.2472 77.2339 55.7443 77.4091C56.2462 77.5795 56.786 77.6648 57.3636 77.6648C58.036 77.6648 58.6397 77.5559 59.1747 77.3381C59.7098 77.1155 60.1335 76.8078 60.446 76.4148C60.7585 76.017 60.9148 75.553 60.9148 75.0227C60.9148 74.5398 60.7798 74.1468 60.5099 73.8438C60.2401 73.5407 59.8849 73.2945 59.4446 73.1051C59.0043 72.9157 58.5284 72.75 58.017 72.608L56.2273 72.0966C55.0909 71.7699 54.1913 71.3035 53.5284 70.6974C52.8655 70.0914 52.5341 69.2983 52.5341 68.3182C52.5341 67.5038 52.7543 66.7936 53.1946 66.1875C53.6397 65.5767 54.2363 65.1032 54.9844 64.767C55.7372 64.4261 56.5777 64.2557 57.5057 64.2557C58.4432 64.2557 59.2765 64.4238 60.0057 64.7599C60.7348 65.0914 61.3125 65.5459 61.7386 66.1236C62.1695 66.7012 62.3968 67.357 62.4205 68.0909H60.7159ZM66.1119 64.4545L70.43 76.6989H70.6005L74.9187 64.4545H76.7653L71.4244 79H69.6062L64.2653 64.4545H66.1119ZM88.2905 69C88.1342 68.5218 87.9283 68.0933 87.6726 67.7145C87.4216 67.331 87.121 67.0043 86.7706 66.7344C86.425 66.4645 86.032 66.2585 85.5916 66.1165C85.1513 65.9744 84.6683 65.9034 84.1428 65.9034C83.281 65.9034 82.4974 66.1259 81.7919 66.571C81.0864 67.0161 80.5253 67.6719 80.1087 68.5384C79.692 69.4048 79.4837 70.4678 79.4837 71.7273C79.4837 72.9867 79.6944 74.0497 80.1158 74.9162C80.5372 75.7827 81.1077 76.4384 81.8274 76.8835C82.5471 77.3286 83.3568 77.5511 84.2564 77.5511C85.0897 77.5511 85.8236 77.3736 86.4581 77.0185C87.0973 76.6586 87.5945 76.152 87.9496 75.4986C88.3094 74.8404 88.4893 74.0663 88.4893 73.1761L89.0291 73.2898H84.6541V71.7273H90.1939V73.2898C90.1939 74.4877 89.9382 75.5294 89.4268 76.4148C88.9202 77.3002 88.2195 77.9867 87.3246 78.4744C86.4344 78.9574 85.4117 79.1989 84.2564 79.1989C82.9685 79.1989 81.8369 78.8958 80.8615 78.2898C79.8909 77.6837 79.1333 76.822 78.5888 75.7045C78.049 74.5871 77.7791 73.2614 77.7791 71.7273C77.7791 70.5767 77.933 69.5421 78.2408 68.6236C78.5533 67.7003 78.9936 66.9143 79.5618 66.2656C80.13 65.617 80.8023 65.1198 81.5788 64.7741C82.3554 64.4285 83.21 64.2557 84.1428 64.2557C84.9098 64.2557 85.6248 64.3717 86.2876 64.6037C86.9553 64.831 87.5495 65.1553 88.0703 65.5767C88.5959 65.9934 89.0339 66.4929 89.3842 67.0753C89.7346 67.6529 89.9761 68.2945 90.1087 69H88.2905Z" fill="black"/>
</svg>
