<svg width="390" height="809" viewBox="0 0 390 809" fill="none" xmlns="http://www.w3.org/2000/svg">
<g clip-path="url(#clip0_66_1203)">
<path d="M-3.49691e-06 -5.99998C-1.56562e-06 -17.0457 8.95431 -26 20 -26L373 -25.9999C384.046 -25.9999 393 -17.0456 393 -5.99993L393 793C393 804.046 384.046 813 373 813L19.9999 813C8.95416 813 -0.00014513 804.046 -0.000143198 793L-3.49691e-06 -5.99998Z" fill="url(#paint0_linear_66_1203)"/>
<mask id="mask0_66_1203" style="mask-type:luminance" maskUnits="userSpaceOnUse" x="-6" y="349" width="380" height="380">
<path d="M374 349H-6V729H374V349Z" fill="white"/>
</mask>
<g mask="url(#mask0_66_1203)">
<path d="M32.4771 669.997C32.4771 649.952 105.07 633.702 194.617 633.702C284.164 633.702 356.757 649.952 356.757 669.997C356.757 690.043 284.164 706.294 194.617 706.294C105.07 706.294 32.4771 690.043 32.4771 669.997Z" fill="#B3A9EC" stroke="#B3A9EC" stroke-width="0.690711" stroke-miterlimit="10" stroke-linecap="round"/>
<path d="M75.7778 661.346C75.7778 646.435 129.777 634.347 196.389 634.347C263 634.347 317 646.435 317 661.346C317 676.258 263 688.345 196.389 688.345C129.777 688.345 75.7778 676.258 75.7778 661.346Z" fill="#8F68A4"/>
<path d="M65.9111 535.148C65.9111 482.364 108.701 439.574 161.485 439.574C214.27 439.574 257.059 482.364 257.059 535.148C257.059 587.933 214.27 630.722 161.485 630.722C108.701 630.722 65.9111 587.933 65.9111 535.148Z" fill="white" fill-opacity="0.5"/>
<path d="M248.875 454.497C248.875 435.978 263.885 420.966 282.405 420.966C300.924 420.966 315.935 435.978 315.935 454.497C315.935 473.015 300.924 488.028 282.405 488.028C263.885 488.028 248.875 473.015 248.875 454.497Z" fill="#FFCA92"/>
<path d="M45.6865 593.366C45.6865 586.234 51.4696 580.45 58.6036 580.45C65.7375 580.45 71.5206 586.234 71.5206 593.366C71.5206 600.5 65.7375 606.284 58.6036 606.284C51.4696 606.284 45.6865 600.5 45.6865 593.366Z" fill="white" fill-opacity="0.8"/>
<path d="M266.344 630.587C278.994 625.781 287.27 620.03 300.271 617.122C313.272 614.213 316.204 616.591 319.054 617.933C322.307 619.462 326.661 626.746 323.618 633.385C320.575 640.022 314.445 642.002 306.346 645.221C294.024 650.123 279.902 647.296 266.68 648.331" fill="#FAA42B"/>
<path d="M247.737 621.608C259.244 608.162 263.907 595.546 276.756 583.378C281.072 579.292 285.728 574.518 293.745 572.744C301.764 570.97 306.266 572.83 308.83 576.283C313.37 582.395 310.782 589.252 309.257 592.414C304.568 602.129 299.091 606.239 290.956 613.325C281.176 621.844 268.368 626.076 257.074 632.45" fill="#FAA42B"/>
<path d="M237.766 623.567C236.66 622.608 237.103 620.704 237.007 619.246C236.869 617.158 236.84 615.065 236.816 612.972C236.747 607.057 238.348 599.539 242.439 595.026C243.529 593.824 244.623 592.508 246.084 591.801C253.995 587.97 255.942 598.052 255.472 603.71C255.22 606.762 255.263 606.771 254.543 609.76C253.756 613.02 252.613 616.279 250.882 619.171C248.008 623.97 244.876 628.523 239.528 630.735" fill="#FAA42B"/>
<path d="M159.552 589.55C158.539 586.49 154.587 586.639 152.178 586.448C148.758 586.175 143.367 589.676 141.757 592.548C134.923 604.743 136.414 624.613 142.88 636.651" fill="#FAA42B"/>
<path d="M159.552 589.55C158.539 586.49 154.587 586.639 152.178 586.448C148.758 586.175 143.367 589.676 141.757 592.548C134.923 604.743 136.414 624.613 142.88 636.651" stroke="#FFCA00" stroke-width="0.46518" stroke-miterlimit="10" stroke-linecap="round"/>
<path d="M137.382 623.391C137.382 623.391 136.031 607.004 130.671 597.45C128.542 593.656 123.542 586.284 116.212 585.651C113.048 585.378 107.473 586.638 103.727 591.62C98.4203 598.678 101.842 605.492 104.314 610.806C108.95 620.775 119.122 624.432 127.208 631.884C130.403 634.827 135.037 635.651 138.951 637.536" fill="#FAA42B"/>
<path d="M119.827 628.366C118.723 627.999 117.868 627.108 116.858 626.529C115.195 625.574 113.492 624.687 111.769 623.842C108.995 622.482 105.726 621.711 102.721 621.156C97.8436 620.258 92.6156 619.846 88.3017 622.57C80.7403 627.346 78.7494 638.907 87.0294 644.342C93.941 648.876 101.256 649.006 109.224 649.006C114.98 649.006 120.345 649.372 125.906 647.876" fill="#FAA42B"/>
<path d="M119.827 628.366C118.723 627.999 117.868 627.108 116.858 626.529C115.195 625.574 113.492 624.687 111.769 623.842C108.995 622.482 105.726 621.711 102.721 621.156C97.8436 620.258 92.6156 619.846 88.3017 622.57C80.7403 627.346 78.7494 638.907 87.0294 644.342C93.941 648.876 101.256 649.006 109.224 649.006C114.98 649.006 120.345 649.372 125.906 647.876" stroke="#FFCA00" stroke-width="0.46518" stroke-miterlimit="10" stroke-linecap="round"/>
<path d="M289.8 640.46C289.8 640.46 306.099 641.288 316 636.226C325.899 631.165 329.352 625.637 329.398 620.215C329.457 613.016 327.136 609.389 320.187 607.728C313.3 606.084 304.271 609.895 302.846 610.344C292.921 613.476 289.003 620.29 288.337 622.012C286.65 626.376 288.602 627.316 291.53 627.246C291.53 627.246 295.979 627.296 302.288 621.132C309.309 614.276 320.588 602.95 313.074 593.296C309.19 588.309 305.999 587.233 298.341 588.147C290.385 589.097 282.713 593.274 276.649 598.516C271.609 602.874 262.558 615.091 266.461 615.712C271.771 616.558 283.672 598.453 287.869 587.387C291.675 577.356 297.846 563.282 292.975 555.27C288.106 547.258 274.606 552.11 268.392 555.335C262.059 558.621 260.018 566.887 255.832 572.665C259.714 567.053 264.921 566.937 267.479 560.61C269.298 556.12 272.112 544.919 271.361 540.135C270.576 535.14 268.513 530.436 265.028 526.773C261.712 523.287 254.456 520.825 249.7 521.566C243.193 522.579 236.762 526.592 232.864 531.9C226.744 540.232 224.989 551.014 221.05 560.571" fill="#FFC6B2" fill-opacity="0.01"/>
<path d="M289.8 640.46C289.8 640.46 306.099 641.288 316 636.226C325.899 631.165 329.352 625.637 329.398 620.215C329.457 613.016 327.136 609.389 320.187 607.728C313.3 606.084 304.271 609.895 302.846 610.344C292.921 613.476 289.003 620.29 288.337 622.012C286.65 626.376 288.602 627.316 291.53 627.246C291.53 627.246 295.979 627.296 302.288 621.132C309.309 614.276 320.588 602.95 313.074 593.296C309.19 588.309 305.999 587.233 298.341 588.147C290.385 589.097 282.713 593.274 276.649 598.516C271.609 602.874 262.558 615.091 266.461 615.712C271.771 616.558 283.672 598.453 287.869 587.387C291.675 577.356 297.846 563.282 292.975 555.27C288.106 547.258 274.606 552.11 268.392 555.335C262.059 558.621 260.018 566.887 255.832 572.665C259.714 567.053 264.921 566.937 267.479 560.61C269.298 556.12 272.112 544.919 271.361 540.135C270.576 535.14 268.513 530.436 265.028 526.773C261.712 523.287 254.456 520.825 249.7 521.566C243.193 522.579 236.762 526.592 232.864 531.9C226.744 540.232 224.989 551.014 221.05 560.571" stroke="#2E4166" stroke-width="0.3" stroke-miterlimit="10" stroke-linecap="round"/>
<path d="M140.429 551.84C140.429 551.84 133.991 535.649 116.061 534.246C103.719 533.281 94.1474 541.739 90.9135 551.344C86.8326 563.468 89.362 580.522 95.493 591.749C100.216 600.396 117.527 611.501 121.236 606.866C124.267 603.077 111.86 597.739 105.91 595.48C101.129 593.668 95.5375 594.015 90.5702 595.232C86.2457 596.289 81.6979 598.445 79.0851 602.051C76.0686 606.212 74.0952 611.805 74.8757 616.885C76.7572 629.129 80.2304 631.918 86.1796 636.616C86.1796 636.616 94.7502 641.036 95.593 641.498C101.493 644.728 102.062 641.502 108.602 643.515" fill="#FFC6B2" fill-opacity="0.01"/>
<path d="M140.429 551.84C140.429 551.84 133.991 535.649 116.061 534.246C103.719 533.281 94.1474 541.739 90.9135 551.344C86.8326 563.468 89.362 580.522 95.493 591.749C100.216 600.396 117.527 611.501 121.236 606.866C124.267 603.077 111.86 597.739 105.91 595.48C101.129 593.668 95.5375 594.015 90.5702 595.232C86.2457 596.289 81.6979 598.445 79.0851 602.051C76.0686 606.212 74.0952 611.805 74.8757 616.885C76.7572 629.129 80.2304 631.918 86.1796 636.616C86.1796 636.616 94.7502 641.036 95.593 641.498C101.493 644.728 102.062 641.502 108.602 643.515" stroke="#2E4166" stroke-width="0.3" stroke-miterlimit="10" stroke-linecap="round"/>
<path d="M322.921 542.001C322.921 536.915 327.044 532.792 332.131 532.792C337.217 532.792 341.34 536.915 341.34 542.001C341.34 547.089 337.217 551.211 332.131 551.211C327.044 551.211 322.921 547.089 322.921 542.001Z" fill="white" fill-opacity="0.5"/>
<path d="M62.3901 453.913C62.3901 445.311 69.3637 438.337 77.9662 438.337C86.5688 438.337 93.5425 445.311 93.5425 453.913C93.5425 462.516 86.5688 469.489 77.9662 469.489C69.3637 469.489 62.3901 462.516 62.3901 453.913Z" fill="white" fill-opacity="0.5"/>
<path d="M298.673 604.588C298.673 595.212 306.275 587.61 315.651 587.61C325.028 587.61 332.628 595.212 332.628 604.588C332.628 613.965 325.028 621.565 315.651 621.565C306.275 621.565 298.673 613.965 298.673 604.588Z" fill="#FFC6B2" fill-opacity="0.01" stroke="white" stroke-width="0.966773" stroke-miterlimit="10" stroke-linecap="round"/>
<path d="M164.461 590.491L167.671 614.664L223.818 615.378L227.155 582.954L164.461 590.491Z" fill="#FFC6B2" stroke="#2E4166" stroke-width="0.580064" stroke-miterlimit="10" stroke-linecap="round"/>
<path d="M167.395 611.237C162.841 610.835 167.714 617.075 162.54 617.468C138.2 619.322 120.216 619.192 100.049 626.682C90.8205 630.111 83.7721 637.752 81.7251 644.734C79.6782 651.718 82.9267 660.289 94.0185 667.736C105.11 675.188 125.385 677.687 136.807 677.051C165.398 675.461 157.975 669.653 181.519 669.564C198.626 669.497 216.04 674.88 233.116 676.658C248.414 678.25 263.376 676.346 278.636 674.915C288.672 673.975 301.59 668.236 306.887 659.665C310.342 654.073 308.368 642.526 304.425 637.27C299.458 630.647 281.241 622.235 261.226 620.4C239.261 618.385 242.964 618.455 226.321 618.203C224.219 618.171 228.184 610.824 224.749 611.64C217.808 613.284 209.104 613.442 194.887 613.188C180.673 612.933 175.798 611.976 167.395 611.237Z" fill="#369ADC" stroke="#2E4166" stroke-width="0.580064" stroke-miterlimit="10" stroke-linecap="round"/>
<path d="M203.714 641.697C198.478 643.407 195.498 648.816 190.327 649.662C186.128 650.349 178.252 648.69 174.317 647.452C168.836 645.73 160.823 643.745 160.823 643.745L158.696 679.45C158.696 679.45 192.443 669.616 208.431 669.196C213.847 669.055 221.427 666.512 226.728 667.317C227.407 667.423 228.071 667.545 228.73 667.666C228.687 667.528 228.63 667.4 228.593 667.257C228.307 666.111 228.242 664.845 228.342 663.456C228.489 661.459 228.982 659.29 229.58 657.483C229.587 657.459 229.73 656.945 229.76 656.837C229.81 656.65 229.864 656.557 229.912 656.407C229.927 656.269 229.966 656.149 229.99 656.017C228.834 655.408 224.794 654.42 223.711 653.759C216.749 649.506 214.729 645.198 210.008 642.318C208.624 641.472 206.385 640.823 203.714 641.697Z" fill="#FFC6B2" stroke="#2E4166" stroke-width="0.580064" stroke-miterlimit="10" stroke-linecap="round"/>
<path d="M224.128 617.403C215.914 619.402 202.829 619.047 202.829 619.047" stroke="#2E4166" stroke-width="0.580064" stroke-miterlimit="10" stroke-linecap="round"/>
<path d="M168.271 616.938C168.271 616.938 178.068 618.508 181.85 618.185" stroke="#2E4166" stroke-width="0.580064" stroke-miterlimit="10" stroke-linecap="round"/>
<path d="M239.929 645.547L232.456 646.632" stroke="#2E4166" stroke-width="0.580064" stroke-miterlimit="10" stroke-linecap="round"/>
<path d="M239.979 649.333L232.598 650.14" stroke="#2E4166" stroke-width="0.580064" stroke-miterlimit="10" stroke-linecap="round"/>
<path d="M239.852 653.089L232.478 653.471" stroke="#2E4166" stroke-width="0.580064" stroke-miterlimit="10" stroke-linecap="round"/>
<path d="M239.834 656.936L232.568 656.95" stroke="#2E4166" stroke-width="0.580064" stroke-miterlimit="10" stroke-linecap="round"/>
<path d="M239.846 660.737L232.391 660.676" stroke="#2E4166" stroke-width="0.580064" stroke-miterlimit="10" stroke-linecap="round"/>
<path d="M239.903 664.113L232.487 664.042" stroke="#2E4166" stroke-width="0.580064" stroke-miterlimit="10" stroke-linecap="round"/>
<path d="M239.944 667.564L232.456 667.386" stroke="#2E4166" stroke-width="0.580064" stroke-miterlimit="10" stroke-linecap="round"/>
<path d="M240.058 671.12L232.402 670.947" stroke="#2E4166" stroke-width="0.580064" stroke-miterlimit="10" stroke-linecap="round"/>
<path d="M240.159 674.943L232.257 674.501" stroke="#2E4166" stroke-width="0.580064" stroke-miterlimit="10" stroke-linecap="round"/>
<path d="M153.873 645.082L160.597 646.192" stroke="#2E4166" stroke-width="0.580064" stroke-miterlimit="10" stroke-linecap="round"/>
<path d="M153.726 648.396L160.681 649.038" stroke="#2E4166" stroke-width="0.580064" stroke-miterlimit="10" stroke-linecap="round"/>
<path d="M153.439 652.055L160.844 652.346" stroke="#2E4166" stroke-width="0.580064" stroke-miterlimit="10" stroke-linecap="round"/>
<path d="M153.282 655.264L160.814 655.442" stroke="#2E4166" stroke-width="0.580064" stroke-miterlimit="10" stroke-linecap="round"/>
<path d="M153.116 658.734L160.842 658.792" stroke="#2E4166" stroke-width="0.580064" stroke-miterlimit="10" stroke-linecap="round"/>
<path d="M152.733 662.86L156.802 662.828" stroke="#2E4166" stroke-width="0.580064" stroke-miterlimit="10" stroke-linecap="round"/>
<path d="M191.806 461.098C177.261 461.098 164.836 470.481 162.627 482.19C158.337 480.469 155.343 482.615 154.914 485.628C154.228 492.859 160.456 492.946 163.656 492.085C166.549 501.026 175.301 507.937 186.23 509.717C186.23 512.803 185.37 516.458 184.941 517.905C182.796 520.488 184.512 526.326 191.376 526.952C196.094 527.383 202.104 520.057 199.959 517.905C198.243 516.183 198.098 511.623 198.241 509.559C208.769 507.565 217.139 500.79 219.955 492.085C221.583 492.802 224.828 493.818 227.407 490.366C228.695 488.645 229.057 485.495 228.268 483.909C226.55 480.465 222.18 481.186 220.859 482.19C219.558 469.778 207.051 461.098 191.806 461.098Z" fill="#FEC5B1" stroke="#2E4166" stroke-width="0.580064" stroke-miterlimit="10" stroke-linecap="round"/>
<path d="M191.806 461.098C177.402 461.098 165.077 470.299 162.695 481.85C162.672 481.963 162.649 482.077 162.627 482.19C162.519 482.147 162.417 482.104 162.311 482.065C158.193 480.576 155.332 482.69 154.914 485.628C154.228 492.859 160.456 492.946 163.656 492.085C166.549 501.026 175.301 507.937 186.23 509.717C186.23 512.803 185.37 516.458 184.941 517.905C182.796 520.488 184.512 526.326 191.376 526.952C196.094 527.383 202.104 520.057 199.959 517.905C198.243 516.183 198.098 511.623 198.241 509.559C208.639 507.589 216.937 500.963 219.853 492.413C219.891 492.306 219.92 492.193 219.955 492.085C220.054 492.128 220.161 492.177 220.271 492.221C221.976 492.913 224.984 493.608 227.407 490.366C228.695 488.645 229.057 485.495 228.268 483.909C226.67 480.706 222.785 481.096 221.187 481.975C221.067 482.041 220.952 482.12 220.859 482.19C220.846 482.061 220.84 481.932 220.826 481.805C219.308 469.598 206.893 461.098 191.806 461.098ZM191.806 461.437C206.949 461.437 219.254 470.048 220.533 482.224L220.588 482.823L221.074 482.45C221.653 482.009 222.982 481.594 224.388 481.715C225.774 481.832 227.17 482.466 227.962 484.056C228.314 484.765 228.428 485.875 228.279 487.041C228.131 488.203 227.735 489.362 227.136 490.163C225.904 491.81 224.54 492.366 223.303 492.447C222.047 492.531 220.887 492.12 220.091 491.769L219.751 491.622L219.638 491.984C216.868 500.549 208.602 507.256 198.172 509.231L197.912 509.276L197.901 509.536C197.829 510.587 197.823 512.271 198.059 513.913C198.18 514.735 198.363 515.558 198.625 516.288C198.887 517.015 199.234 517.674 199.71 518.154C200.108 518.55 200.18 519.235 199.859 520.178C199.542 521.105 198.874 522.175 197.981 523.175C197.091 524.173 196.003 525.082 194.847 525.72C193.689 526.359 192.498 526.712 191.409 526.613C188.077 526.309 186.034 524.753 185.076 523.005C184.108 521.239 184.238 519.291 185.201 518.131L185.247 518.074L185.269 518.007C185.702 516.546 186.57 512.849 186.57 509.717V509.423L186.286 509.378C175.459 507.614 166.819 500.781 163.973 491.984L163.871 491.678L163.566 491.757C162.002 492.177 159.728 492.35 157.957 491.577C157.081 491.193 156.338 490.588 155.842 489.654C155.344 488.717 155.077 487.429 155.242 485.673C155.444 484.269 156.247 483.071 157.482 482.427C158.716 481.783 160.43 481.663 162.503 482.495L162.888 482.653L162.967 482.246C165.139 470.73 177.389 461.437 191.806 461.437Z" fill="#2E4166"/>
<path d="M223.811 483.705C223.055 483.806 222.245 484.187 221.651 484.565C218.192 488.45 225.538 491.906 225.97 486.725C226.187 484.134 225.07 483.536 223.811 483.705Z" fill="#EDB09B" stroke="#FFC6B2" stroke-width="0.386709" stroke-miterlimit="10" stroke-linecap="round"/>
<path d="M160.501 483.703C159.59 483.568 158.442 484.022 157.662 484.483C154.259 488.04 161.489 491.207 161.914 486.462C162.084 484.565 161.412 483.838 160.501 483.703Z" fill="#EDB09B" stroke="#EDB09B" stroke-width="0.386709" stroke-miterlimit="10" stroke-linecap="round"/>
<path d="M224.297 484.212C223.957 484.17 223.614 484.188 223.28 484.234C222.4 484.355 221.517 484.692 221.007 484.947C220.831 485.034 220.76 485.248 220.847 485.422C220.935 485.596 221.148 485.668 221.322 485.58C221.76 485.362 222.495 485.069 223.234 484.947C223.486 485.128 223.827 485.434 224.117 485.829C224.449 486.283 224.694 486.832 224.694 487.424C224.694 487.618 224.861 487.774 225.056 487.774C225.25 487.774 225.406 487.618 225.406 487.424C225.406 486.634 225.082 485.94 224.694 485.411C224.558 485.228 224.406 485.061 224.263 484.913C224.492 484.947 224.692 485.023 224.852 485.128C225.013 485.237 225.241 485.188 225.349 485.026C225.458 484.863 225.41 484.648 225.247 484.54C224.967 484.353 224.636 484.253 224.297 484.212Z" fill="#2E4166"/>
<path d="M158.375 484.212C158.035 484.253 157.706 484.353 157.425 484.54C157.263 484.648 157.214 484.863 157.323 485.026C157.431 485.188 157.658 485.237 157.821 485.128C157.98 485.023 158.169 484.947 158.397 484.913C158.254 485.061 158.112 485.228 157.979 485.411C157.591 485.94 157.266 486.634 157.266 487.424C157.266 487.618 157.422 487.774 157.617 487.774C157.812 487.774 157.968 487.618 157.968 487.424C157.968 486.832 158.223 486.283 158.556 485.829C158.845 485.434 159.187 485.128 159.438 484.947C160.176 485.069 160.912 485.362 161.349 485.58C161.524 485.668 161.737 485.596 161.824 485.422C161.911 485.248 161.84 485.034 161.666 484.947C161.155 484.692 160.271 484.355 159.393 484.234C159.058 484.188 158.714 484.17 158.375 484.212Z" fill="#2E4166"/>
<path d="M190.075 482.759C189.882 482.739 189.709 482.882 189.69 483.075C189.681 483.162 189.666 483.265 189.657 483.369C189.583 484.139 189.466 485.318 189.204 486.366C189.054 486.964 188.868 487.495 188.627 487.859C188.388 488.222 188.147 488.368 187.881 488.368C186.532 488.368 185.319 488.515 184.85 489.386C184.36 490.294 184.417 491.578 185.54 492.7C186.217 493.376 187.82 493.738 189.26 493.378C189.449 493.331 189.57 493.149 189.522 492.96C189.473 492.771 189.28 492.651 189.091 492.7C187.763 493.031 186.542 492.705 186.117 492.281C185.078 491.243 185.308 490.244 185.573 489.748C185.861 489.216 186.636 489.081 187.881 489.081C188.481 489.081 188.909 488.709 189.215 488.244C189.522 487.781 189.739 487.173 189.895 486.547C190.171 485.442 190.284 484.189 190.358 483.426C190.368 483.323 190.383 483.227 190.392 483.143C190.41 482.949 190.269 482.778 190.075 482.759Z" fill="#2E4166"/>
<path d="M182.022 482.764C181.545 482.763 181.156 483.529 181.152 484.483C181.15 485.436 181.534 486.211 182.011 486.213C182.49 486.214 182.879 485.448 182.883 484.494C182.885 483.539 182.501 482.765 182.022 482.764Z" fill="#2E4166" stroke="#2E4166" stroke-width="0.386709" stroke-miterlimit="10" stroke-linecap="round"/>
<path d="M198.636 482.782C198.163 482.728 197.693 483.452 197.584 484.4C197.476 485.347 197.766 486.155 198.241 486.209C198.714 486.263 199.195 485.54 199.304 484.592C199.412 483.644 199.111 482.837 198.636 482.782Z" fill="#2E4166" stroke="#2E4166" stroke-width="0.386709" stroke-miterlimit="10" stroke-linecap="round"/>
<path d="M196.34 477.975C195.888 477.954 195.483 477.971 195.175 478.009C194.982 478.032 194.845 478.211 194.871 478.405C194.893 478.599 195.073 478.735 195.266 478.71C195.804 478.644 196.719 478.645 197.652 478.868C198.587 479.092 199.515 479.524 200.14 480.305C200.263 480.456 200.474 480.483 200.626 480.361C200.781 480.24 200.805 480.016 200.682 479.864C199.925 478.917 198.834 478.423 197.81 478.179C197.298 478.056 196.793 477.996 196.34 477.975Z" fill="#2E4166"/>
<path d="M184.104 478.066C183.679 478.054 183.202 478.09 182.69 478.213C181.666 478.458 180.575 478.951 179.818 479.898C179.695 480.049 179.721 480.273 179.873 480.395C180.025 480.517 180.25 480.492 180.372 480.339C180.998 479.558 181.924 479.114 182.859 478.891C183.794 478.669 184.673 478.825 185.211 478.891C185.406 478.916 185.731 478.723 185.755 478.529C185.779 478.335 185.406 478.192 185.211 478.167C184.905 478.129 184.529 478.077 184.104 478.066Z" fill="#2E4166"/>
<path d="M204.733 487.854C202.585 487.854 200.842 488.44 200.842 489.155C200.842 489.871 202.585 490.444 204.733 490.444C206.882 490.444 208.622 489.871 208.622 489.155C208.622 488.44 206.882 487.854 204.733 487.854Z" fill="#EDA6BF" stroke="#EDA6BF" stroke-width="0.386709" stroke-miterlimit="10" stroke-linecap="round"/>
<path d="M174.479 487.854C172.331 487.854 170.589 488.44 170.589 489.155C170.589 489.871 172.331 490.444 174.479 490.444C176.628 490.444 178.37 489.871 178.37 489.155C178.37 488.44 176.628 487.854 174.479 487.854Z" fill="#EDA6BF" stroke="#EDA6BF" stroke-width="0.386709" stroke-miterlimit="10" stroke-linecap="round"/>
<path d="M186.468 445.375C172.096 445.812 167.412 455.518 166.868 460.315C163.299 459.464 154.822 459.694 149.452 467.417C142.738 477.07 151.259 483.258 156.158 482.164C160.078 481.291 162.873 483.988 163.781 485.444C164.144 482.166 167.084 475.616 175.938 475.616C184.794 475.616 193.429 470.148 196.634 467.417C207.086 464.212 213.925 474.939 216.042 480.706C215.619 482.952 215.799 487.238 218.994 484.325C222.187 481.41 225.301 482.11 226.57 483.081L227.114 482.538C228.08 479.199 229.032 470.546 225.111 462.678C221.193 454.81 209.689 452.358 204.427 452.115C204.427 449.687 200.838 444.938 186.468 445.375Z" fill="#434343" stroke="#2E4166" stroke-width="0.386709" stroke-miterlimit="10" stroke-linecap="round"/>
<path d="M186.456 445.217C172.17 445.652 167.372 455.199 166.721 460.123C163.009 459.315 154.637 459.659 149.304 467.327C147.612 469.762 146.874 471.995 146.805 473.955C146.735 475.917 147.335 477.593 148.309 478.931C150.248 481.596 153.678 482.909 156.203 482.346C160.021 481.494 162.755 484.12 163.644 485.547L163.905 485.965L163.95 485.479C164.128 483.872 164.94 481.448 166.8 479.429C168.655 477.416 171.557 475.798 175.938 475.798C180.398 475.798 184.803 474.425 188.48 472.711C192.138 471.007 195.093 468.964 196.713 467.588C201.849 466.026 206.1 467.864 209.345 470.833C212.587 473.798 214.813 477.877 215.871 480.74C215.769 481.304 215.706 481.987 215.713 482.652C215.721 483.332 215.8 484.008 216.006 484.529C216.214 485.05 216.561 485.458 217.116 485.49C217.648 485.521 218.302 485.196 219.107 484.461C222.241 481.601 225.265 482.31 226.469 483.229L226.581 483.319L227.26 482.629L227.271 482.595C228.249 479.228 229.214 470.539 225.269 462.623C223.284 458.635 219.381 456.024 215.34 454.389C211.375 452.787 207.25 452.111 204.595 451.969C204.521 450.683 203.539 448.93 200.92 447.536C198.19 446.081 193.657 444.999 186.456 445.217ZM186.467 445.557C193.637 445.339 198.103 446.425 200.762 447.841C203.423 449.259 204.258 450.996 204.258 452.128V452.297H204.426C207.041 452.418 211.212 453.088 215.216 454.706C219.222 456.326 223.031 458.889 224.965 462.77C228.842 470.556 227.922 479.118 226.967 482.46L226.547 482.867C225.146 481.895 222.037 481.331 218.88 484.212C218.088 484.935 217.524 485.174 217.138 485.151C216.775 485.13 216.509 484.871 216.324 484.405C216.138 483.94 216.06 483.303 216.053 482.64C216.045 481.981 216.107 481.302 216.21 480.752L216.222 480.706L216.199 480.661C215.134 477.76 212.88 473.611 209.572 470.585C206.258 467.553 201.877 465.646 196.578 467.271L196.544 467.282L196.52 467.305C194.928 468.661 191.984 470.693 188.334 472.394C184.682 474.096 180.331 475.459 175.938 475.459C171.463 475.459 168.471 477.119 166.551 479.202C164.798 481.105 163.952 483.355 163.678 485.004C162.551 483.477 159.83 481.192 156.124 482.018C153.749 482.548 150.463 481.31 148.592 478.739C147.66 477.458 147.077 475.847 147.144 473.966C147.211 472.084 147.923 469.923 149.587 467.531C154.905 459.886 163.308 459.656 166.834 460.497L167.015 460.542L167.037 460.35C167.574 455.622 172.194 445.99 186.467 445.557Z" fill="#434343"/>
<path d="M186.82 509.671V512.252C190.457 512.423 193.52 510.6 194.592 509.671C192.319 510.185 188.462 509.885 186.82 509.671Z" fill="#EDB09B" stroke="#EDB09B" stroke-width="0.493018" stroke-miterlimit="10" stroke-linecap="round"/>
<path d="M195.108 495.874C194.932 495.81 194.741 495.901 194.678 496.077C194.012 497.927 192.462 498.61 190.709 498.701C188.941 498.793 187.031 498.27 185.81 497.751C185.638 497.678 185.443 497.759 185.371 497.932C185.296 498.104 185.378 498.3 185.551 498.373C186.829 498.917 188.839 499.479 190.742 499.38C192.657 499.28 194.529 498.502 195.322 496.304C195.387 496.126 195.284 495.937 195.108 495.874Z" fill="#2E4166"/>
<path d="M279.549 632.89C270.654 630.296 260.146 630.502 251.426 633.966C247.815 635.401 245.344 637.937 241.801 640.486C238.718 642.704 238.968 642.216 231.609 644.335" fill="#FFC6B2" fill-opacity="0.01"/>
<path d="M279.549 632.89C270.654 630.296 260.146 630.502 251.426 633.966C247.815 635.401 245.344 637.937 241.801 640.486C238.718 642.704 238.968 642.216 231.609 644.335" stroke="#2E4166" stroke-width="0.580064" stroke-miterlimit="10" stroke-linecap="round"/>
<path d="M240.044 641.724C240.26 649.71 239.879 654.422 240.054 663.629C240.23 672.836 240.748 678.551 240.748 678.551" fill="#FFC6B2" fill-opacity="0.01"/>
<path d="M240.044 641.724C240.26 649.71 239.879 654.422 240.054 663.629C240.23 672.836 240.748 678.551 240.748 678.551" stroke="#2E4166" stroke-width="0.580064" stroke-miterlimit="10" stroke-linecap="round"/>
<path d="M161.145 643.564C158.843 642.964 156.385 642.794 154.238 641.767C152.779 641.07 151.893 639.533 150.622 638.532C147.699 636.231 144.264 634.947 140.796 633.639C130.273 629.672 119.389 629.707 108.308 629.241" fill="#FFC6B2" fill-opacity="0.01"/>
<path d="M161.145 643.564C158.843 642.964 156.385 642.794 154.238 641.767C152.779 641.07 151.893 639.533 150.622 638.532C147.699 636.231 144.264 634.947 140.796 633.639C130.273 629.672 119.389 629.707 108.308 629.241" stroke="#2E4166" stroke-width="0.580064" stroke-miterlimit="10" stroke-linecap="round"/>
<path d="M153.771 641.611C153.771 641.611 153.382 649.987 153.246 653.412C153.076 657.711 152.703 661.454 152.621 665.758" fill="#FFC6B2" fill-opacity="0.01"/>
<path d="M153.771 641.611C153.771 641.611 153.382 649.987 153.246 653.412C153.076 657.711 152.703 661.454 152.621 665.758" stroke="#2E4166" stroke-width="0.580064" stroke-miterlimit="10" stroke-linecap="round"/>
<path d="M185.302 517.54C183.736 517.594 181.447 517.776 181.447 517.776C181.447 517.776 179.881 528.697 182.477 531.427C186.328 535.479 195.405 537.173 200.764 537.139C206.471 537.104 213.901 532.313 213.667 525.9C213.596 523.941 212.238 522.227 211.21 520.558C210.906 520.064 210.459 519.668 210.021 519.288C207.05 516.719 202.916 517.644 199.146 517.386" fill="#FFC6B2"/>
<path d="M185.302 517.54C183.736 517.594 181.447 517.776 181.447 517.776C181.447 517.776 179.881 528.697 182.477 531.427C186.328 535.479 195.405 537.173 200.764 537.139C206.471 537.104 213.901 532.313 213.667 525.9C213.596 523.941 212.238 522.227 211.21 520.558C210.906 520.064 210.459 519.668 210.021 519.288C207.05 516.719 202.916 517.644 199.146 517.386" stroke="#2E4166" stroke-width="0.580064" stroke-miterlimit="10" stroke-linecap="round"/>
<path d="M148.667 619.815C148.667 619.815 162.949 636.111 192.915 635.235C227.284 634.23 238.107 619.824 238.107 619.824C238.107 619.824 236.14 560.308 230.778 530.996C229.581 524.456 221.308 521.049 215.099 518.67C209.29 516.444 202.172 517.251 202.172 517.251C202.172 517.251 209.303 529.484 193.871 530.345C176.143 531.333 182.413 517.512 182.413 517.512C182.413 517.512 172.932 518.028 168.925 520.894C164.951 523.737 161.019 528.897 159.861 533.644C153.097 561.375 148.667 619.815 148.667 619.815Z" fill="white" stroke="#2E4166" stroke-width="0.580064" stroke-miterlimit="10" stroke-linecap="round"/>
<path d="M176.425 518.255C152.104 523.615 142.296 533.286 134.564 542.865C130.905 547.398 125.94 557.266 125.94 557.266C125.94 557.266 128.767 559.937 130.399 560.975C136.767 565.023 154.038 566.773 154.038 566.773" fill="white"/>
<path d="M176.425 518.255C152.104 523.615 142.296 533.286 134.564 542.865C130.905 547.398 125.94 557.266 125.94 557.266C125.94 557.266 128.767 559.937 130.399 560.975C136.767 565.023 154.038 566.773 154.038 566.773" stroke="#2E4166" stroke-width="0.580064" stroke-miterlimit="10" stroke-linecap="round"/>
<path d="M211.771 517.625C226.346 520.585 234.222 524.571 244.533 532.301C250.984 537.136 263.821 551.487 266.01 560.395C248.37 565.48 252.903 560.053 235.265 565.139" fill="white"/>
<path d="M211.771 517.625C226.346 520.585 234.222 524.571 244.533 532.301C250.984 537.136 263.821 551.487 266.01 560.395C248.37 565.48 252.903 560.053 235.265 565.139" stroke="#2E4166" stroke-width="0.580064" stroke-miterlimit="10" stroke-linecap="round"/>
<path d="M222.271 592.514L215.303 591.044C214.628 590.902 214.454 590.371 214.916 589.857L219.671 584.558C220.133 584.044 220.679 584.159 220.894 584.814L223.106 591.584C223.319 592.239 222.946 592.655 222.271 592.514Z" fill="#FFC6B2" fill-opacity="0.01" stroke="#E0DAFF" stroke-width="0.607253" stroke-miterlimit="10" stroke-linecap="round"/>
<path d="M213.496 602.785C213.496 602.002 214.131 601.367 214.912 601.367C215.695 601.367 216.329 602.002 216.329 602.785C216.329 603.566 215.695 604.2 214.912 604.2C214.131 604.2 213.496 603.566 213.496 602.785Z" fill="#5D569A" stroke="#5D569A" stroke-width="0.607253" stroke-miterlimit="10" stroke-linecap="round"/>
<path d="M164.464 624.548C164.464 623.765 165.098 623.131 165.881 623.131C166.663 623.131 167.297 623.765 167.297 624.548C167.297 625.331 166.663 625.964 165.881 625.964C165.098 625.964 164.464 625.331 164.464 624.548Z" fill="#5D569A" stroke="#5D569A" stroke-width="0.607253" stroke-miterlimit="10" stroke-linecap="round"/>
<path d="M152.804 558.838C152.804 558.054 153.438 557.42 154.22 557.42C155.003 557.42 155.637 558.054 155.637 558.838C155.637 559.619 155.003 560.253 154.22 560.253C153.438 560.253 152.804 559.619 152.804 558.838Z" fill="#5D569A" stroke="#5D569A" stroke-width="0.607253" stroke-miterlimit="10" stroke-linecap="round"/>
<path d="M173.588 524.687C173.588 523.905 174.222 523.271 175.005 523.271C175.787 523.271 176.421 523.905 176.421 524.687C176.421 525.47 175.787 526.104 175.005 526.104C174.222 526.104 173.588 525.47 173.588 524.687Z" fill="#5D569A" stroke="#5D569A" stroke-width="0.607253" stroke-miterlimit="10" stroke-linecap="round"/>
<path d="M256.404 552.442C256.404 551.659 257.038 551.024 257.821 551.024C258.603 551.024 259.237 551.659 259.237 552.442C259.237 553.223 258.603 553.858 257.821 553.858C257.038 553.858 256.404 553.223 256.404 552.442Z" fill="#5D569A" stroke="#5D569A" stroke-width="0.607253" stroke-miterlimit="10" stroke-linecap="round"/>
<path d="M209.012 556.334C209.012 555.551 209.646 554.916 210.427 554.916C211.21 554.916 211.845 555.551 211.845 556.334C211.845 557.115 211.21 557.749 210.427 557.749C209.646 557.749 209.012 557.115 209.012 556.334Z" fill="#E0DAFF" stroke="#E0DAFF" stroke-width="0.607253" stroke-miterlimit="10" stroke-linecap="round"/>
<path d="M210.128 624.959C210.128 624.178 210.763 623.543 211.546 623.543C212.327 623.543 212.962 624.178 212.962 624.959C212.962 625.742 212.327 626.376 211.546 626.376C210.763 626.376 210.128 625.742 210.128 624.959Z" fill="#E0DAFF" stroke="#E0DAFF" stroke-width="0.607253" stroke-miterlimit="10" stroke-linecap="round"/>
<path d="M178.886 603.752C178.886 602.969 179.52 602.334 180.304 602.334C181.085 602.334 181.719 602.969 181.719 603.752C181.719 604.535 181.085 605.167 180.304 605.167C179.52 605.167 178.886 604.535 178.886 603.752Z" fill="#E0DAFF" stroke="#E0DAFF" stroke-width="0.607253" stroke-miterlimit="10" stroke-linecap="round"/>
<path d="M165.678 559.549C165.678 558.766 166.313 558.132 167.095 558.132C167.877 558.132 168.512 558.766 168.512 559.549C168.512 560.332 167.877 560.967 167.095 560.967C166.313 560.967 165.678 560.332 165.678 559.549Z" fill="#E0DAFF" stroke="#E0DAFF" stroke-width="0.607253" stroke-miterlimit="10" stroke-linecap="round"/>
<path d="M208.501 521.021C208.501 520.239 209.136 519.604 209.919 519.604C210.7 519.604 211.334 520.239 211.334 521.021C211.334 521.804 210.7 522.438 209.919 522.438C209.136 522.438 208.501 521.804 208.501 521.021Z" fill="#E0DAFF" stroke="#E0DAFF" stroke-width="0.607253" stroke-miterlimit="10" stroke-linecap="round"/>
<path d="M200.096 578.697C200.096 577.914 200.729 577.279 201.512 577.279C202.295 577.279 202.929 577.914 202.929 578.697C202.929 579.48 202.295 580.113 201.512 580.113C200.729 580.113 200.096 579.48 200.096 578.697Z" fill="#FF7CAB" stroke="#FF7CAB" stroke-width="0.607253" stroke-miterlimit="10" stroke-linecap="round"/>
<path d="M232.743 617.597C232.743 616.816 233.378 616.182 234.161 616.182C234.942 616.182 235.576 616.816 235.576 617.597C235.576 618.38 234.942 619.015 234.161 619.015C233.378 619.015 232.743 618.38 232.743 617.597Z" fill="#FF7CAB" stroke="#FF7CAB" stroke-width="0.607253" stroke-miterlimit="10" stroke-linecap="round"/>
<path d="M150.244 612.912C150.244 612.131 150.878 611.496 151.66 611.496C152.443 611.496 153.077 612.131 153.077 612.912C153.077 613.695 152.443 614.329 151.66 614.329C150.878 614.329 150.244 613.695 150.244 612.912Z" fill="#FF7CAB" stroke="#FF7CAB" stroke-width="0.607253" stroke-miterlimit="10" stroke-linecap="round"/>
<path d="M235.677 556.408C235.677 555.625 236.309 554.99 237.092 554.99C237.875 554.99 238.51 555.625 238.51 556.408C238.51 557.189 237.875 557.824 237.092 557.824C236.309 557.824 235.677 557.189 235.677 556.408Z" fill="#FF7CAB" stroke="#FF7CAB" stroke-width="0.607253" stroke-miterlimit="10" stroke-linecap="round"/>
<path d="M184.651 541.157C184.651 540.376 185.285 539.741 186.067 539.741C186.85 539.741 187.484 540.376 187.484 541.157C187.484 541.94 186.85 542.575 186.067 542.575C185.285 542.575 184.651 541.94 184.651 541.157Z" fill="#FF7CAB" stroke="#FF7CAB" stroke-width="0.607253" stroke-miterlimit="10" stroke-linecap="round"/>
<path d="M144.77 540.175C144.77 539.394 145.404 538.76 146.186 538.76C146.969 538.76 147.603 539.394 147.603 540.175C147.603 540.958 146.969 541.593 146.186 541.593C145.404 541.593 144.77 540.958 144.77 540.175Z" fill="#FF7CAB" stroke="#FF7CAB" stroke-width="0.607253" stroke-miterlimit="10" stroke-linecap="round"/>
<path d="M130.956 561.73C130.956 561.73 123.878 574.362 122.318 582.59C120.934 589.885 121.424 599.246 128.757 601.267C136.09 603.289 144.666 600.636 152.037 596.496C159.11 592.524 166.185 587.41 172.128 581.888" fill="#FFC6B2"/>
<path d="M130.956 561.73C130.956 561.73 123.878 574.362 122.318 582.59C120.934 589.885 121.424 599.246 128.757 601.267C136.09 603.289 144.666 600.636 152.037 596.496C159.11 592.524 166.185 587.41 172.128 581.888" stroke="#2E4166" stroke-width="0.580064" stroke-miterlimit="10"/>
<path d="M263.173 564.954C263.173 564.954 273.914 588.93 267.65 596.49C257.018 609.326 238.862 598.464 212.255 581.559" fill="#FFC6B2"/>
<path d="M263.173 564.954C263.173 564.954 273.914 588.93 267.65 596.49C257.018 609.326 238.862 598.464 212.255 581.559" stroke="#2E4166" stroke-width="0.580064" stroke-miterlimit="10"/>
<path d="M163.921 543.018C162.093 546.228 160.432 550.785 159.432 554.032C158.261 557.83 157.601 561.364 156.971 565.289" fill="#FFC6B2" fill-opacity="0.01"/>
<path d="M163.921 543.018C162.093 546.228 160.432 550.785 159.432 554.032C158.261 557.83 157.601 561.364 156.971 565.289" stroke="#2E4166" stroke-width="0.580064" stroke-miterlimit="10" stroke-linecap="round"/>
<path d="M225.681 542.343C225.681 542.343 229.513 549.238 231.63 554.509C233.747 559.779 234.148 563.425 234.148 563.425" fill="#FFC6B2" fill-opacity="0.01"/>
<path d="M225.681 542.343C225.681 542.343 229.513 549.238 231.63 554.509C233.747 559.779 234.148 563.425 234.148 563.425" stroke="#2E4166" stroke-width="0.580064" stroke-miterlimit="10" stroke-linecap="round"/>
<path d="M157.568 565.058C157.568 565.058 149.894 559.519 141.595 557.347C133.296 555.174 124.371 556.367 124.371 556.367C124.371 556.367 122.344 559.809 121.715 563.44C121.086 567.071 121.854 570.89 121.854 570.89C121.854 570.89 127.202 569.439 136.065 570.951C148.221 573.023 154.295 578.451 154.295 578.451L157.568 565.058Z" fill="white" stroke="#2E4166" stroke-width="0.580064" stroke-miterlimit="10" stroke-linecap="round"/>
<path d="M266.179 556.443C266.179 556.443 268.199 559.116 269.35 562.334C270.5 565.551 269.908 570.029 269.908 570.029C269.908 570.029 261.032 569.806 251.153 571.691C241.273 573.576 235.059 579.979 235.059 579.979L232.281 563.798C232.281 563.798 237.924 560.137 247.476 558.079C257.026 556.022 266.179 556.443 266.179 556.443Z" fill="white" stroke="#2E4166" stroke-width="0.580064" stroke-miterlimit="10" stroke-linecap="round"/>
<path d="M136.795 577.742C153.728 571.021 183.541 578.473 185.141 569.156C185.677 566.026 188.191 548.39 190.026 542.946C191.527 538.493 195.559 538.244 195.507 540.502C195.411 544.746 200.656 573.307 194.613 579.989C184.608 591.053 158.19 597.181 137.873 601.698" fill="#FFC6B2"/>
<path d="M136.795 577.742C153.728 571.021 183.541 578.473 185.141 569.156C185.677 566.026 188.191 548.39 190.026 542.946C191.527 538.493 195.559 538.244 195.507 540.502C195.411 544.746 200.656 573.307 194.613 579.989C184.608 591.053 158.19 597.181 137.873 601.698" stroke="#2E4166" stroke-width="0.580064" stroke-miterlimit="10" stroke-linecap="round"/>
<path d="M254.664 577.634C237.731 570.914 211.981 576.135 208.322 568.296C206.948 565.355 203.202 548.583 201.727 543.03C200.298 537.647 196.326 538.018 195.951 539.705C195.222 542.996 196.213 560.597 196.213 560.597C196.213 560.597 194.591 567.089 196.272 573.953C200.074 589.476 230.908 594.946 245.635 599.913" fill="#FFC6B2"/>
<path d="M254.664 577.634C237.731 570.914 211.981 576.135 208.322 568.296C206.948 565.355 203.202 548.583 201.727 543.03C200.298 537.647 196.326 538.018 195.951 539.705C195.222 542.996 196.213 560.597 196.213 560.597C196.213 560.597 194.591 567.089 196.272 573.953C200.074 589.476 230.908 594.946 245.635 599.913" stroke="#2E4166" stroke-width="0.580064" stroke-miterlimit="10" stroke-linecap="round"/>
<path d="M197.209 543.28C197.168 543.759 197.001 546.546 198.219 546.498" stroke="#2E4166" stroke-width="0.580064" stroke-miterlimit="10" stroke-linecap="round"/>
<path d="M195.376 541.117C195.268 539.976 193.099 539.705 192.181 541.624C191.615 542.806 189.195 550.731 188.806 559.442" fill="#FFC6B2"/>
<path d="M195.376 541.117C195.268 539.976 193.099 539.705 192.181 541.624C191.615 542.806 189.195 550.731 188.806 559.442" stroke="#2E4166" stroke-width="0.580064" stroke-miterlimit="10" stroke-linecap="round"/>
<path d="M195.492 543.372C194.615 542.118 193.036 543.829 192.568 545.2C191.878 547.226 191.674 549.681 191.522 551.824C191.474 552.512 191.045 560.533 191.045 560.533" fill="#FFC6B2"/>
<path d="M195.492 543.372C194.615 542.118 193.036 543.829 192.568 545.2C191.878 547.226 191.674 549.681 191.522 551.824C191.474 552.512 191.045 560.533 191.045 560.533" stroke="#2E4166" stroke-width="0.580064" stroke-miterlimit="10" stroke-linecap="round"/>
<path d="M196.14 540.92C197.222 538.749 198.665 539.607 199.517 540.891C200.584 542.497 201.467 546.661 201.467 546.661C201.467 546.661 203.53 555.985 203.582 556.69" fill="#FFC6B2"/>
<path d="M196.14 540.92C197.222 538.749 198.665 539.607 199.517 540.891C200.584 542.497 201.467 546.661 201.467 546.661C201.467 546.661 203.53 555.985 203.582 556.69" stroke="#2E4166" stroke-width="0.580064" stroke-miterlimit="10" stroke-linecap="round"/>
<path d="M195.778 544.504C196.333 542.688 197.918 542.449 198.662 544.378C199.64 546.911 201.629 557.747 201.786 560.452" fill="#FFC6B2"/>
<path d="M195.778 544.504C196.333 542.688 197.918 542.449 198.662 544.378C199.64 546.911 201.629 557.747 201.786 560.452" stroke="#2E4166" stroke-width="0.580064" stroke-miterlimit="10" stroke-linecap="round"/>
<path d="M103.798 633.939C110.434 631.895 118.537 628.735 132.842 629.765C148.585 630.9 155.578 637.279 161.303 642.747C161.303 642.747 166.577 642.545 169.761 646.98C172.945 651.414 173.366 655.11 174.039 660.486C174.807 666.631 174.11 671.796 172.208 675.925C170.882 678.803 165.682 678.882 165.682 678.882C151.955 686.458 136.306 686.293 123.709 684.388C112.217 682.649 104.582 680.82 96.4992 675.624C90.2587 671.615 85.9819 666.918 83.6297 663.298C81.9536 660.719 80.7346 656.76 80.4674 652.424C80.1859 647.857 82.0497 641.905 85.1727 637.862" fill="#369ADC"/>
<path d="M103.798 633.939C110.434 631.895 118.537 628.735 132.842 629.765C148.585 630.9 155.578 637.279 161.303 642.747C161.303 642.747 166.577 642.545 169.761 646.98C172.945 651.414 173.366 655.11 174.039 660.486C174.807 666.631 174.11 671.796 172.208 675.925C170.882 678.803 165.682 678.882 165.682 678.882C151.955 686.458 136.306 686.293 123.709 684.388C112.217 682.649 104.582 680.82 96.4992 675.624C90.2587 671.615 85.9819 666.918 83.6297 663.298C81.9536 660.719 80.7346 656.76 80.4674 652.424C80.1859 647.857 82.0497 641.905 85.1727 637.862" stroke="#2E4166" stroke-width="0.580064" stroke-miterlimit="10" stroke-linecap="round"/>
<path d="M161.952 645.24C163.852 648.647 164.784 652.423 165.349 655.399C166.021 658.93 166.2 664.407 165.79 668.367" stroke="#2E4166" stroke-width="0.580064" stroke-miterlimit="10" stroke-linecap="round"/>
<path d="M231.964 677.882L232.057 644.253C232.057 644.253 225.592 645.845 218.05 647.994C213.981 649.153 205.113 649.324 200.916 648.463C195.005 647.25 192.503 638.961 183.953 642.036C179.036 643.806 178.91 646.246 171.944 651.562C166.201 655.944 153.999 664.884 149.05 668.558C138.096 676.689 141.317 678.01 141.845 678.429C143.92 680.078 149.962 675.636 149.962 675.636C149.962 675.636 172.3 673.415 179.543 672.042C184.844 671.039 193.878 671.877 193.878 671.877L231.964 677.882Z" fill="#FFC6B2" stroke="#2E4166" stroke-width="0.580064" stroke-miterlimit="10" stroke-linecap="round"/>
<path d="M286.065 633.564C279.428 631.52 271.325 628.36 257.022 629.39C241.278 630.525 234.285 636.904 228.561 642.372C228.561 642.372 223.287 642.17 220.103 646.605C216.919 651.039 216.496 654.735 215.825 660.111C215.057 666.256 215.752 671.421 217.654 675.55C218.981 678.428 224.182 678.507 224.182 678.507C237.909 686.083 253.558 685.918 266.154 684.013C277.645 682.274 285.28 680.445 293.365 675.249C299.605 671.24 303.882 666.543 306.234 662.923C307.91 660.344 309.129 656.385 309.396 652.049C309.678 647.482 307.813 641.53 304.691 637.487" fill="#369ADC"/>
<path d="M286.065 633.564C279.428 631.52 271.325 628.36 257.022 629.39C241.278 630.525 234.285 636.904 228.561 642.372C228.561 642.372 223.287 642.17 220.103 646.605C216.919 651.039 216.496 654.735 215.825 660.111C215.057 666.256 215.752 671.421 217.654 675.55C218.981 678.428 224.182 678.507 224.182 678.507C237.909 686.083 253.558 685.918 266.154 684.013C277.645 682.274 285.28 680.445 293.365 675.249C299.605 671.24 303.882 666.543 306.234 662.923C307.91 660.344 309.129 656.385 309.396 652.049C309.678 647.482 307.813 641.53 304.691 637.487" stroke="#2E4166" stroke-width="0.580064" stroke-miterlimit="10" stroke-linecap="round"/>
<path d="M227.911 644.872C226.011 648.279 225.08 652.055 224.514 655.031C223.842 658.562 223.664 664.039 224.074 667.999" stroke="#2E4166" stroke-width="0.580064" stroke-miterlimit="10" stroke-linecap="round"/>
</g>
<path d="M167.648 192.455H169.409V202.852C169.409 203.78 169.239 204.569 168.898 205.217C168.557 205.866 168.076 206.358 167.456 206.695C166.836 207.031 166.104 207.199 165.262 207.199C164.466 207.199 163.758 207.054 163.138 206.766C162.518 206.472 162.03 206.055 161.675 205.516C161.32 204.976 161.142 204.334 161.142 203.591H162.875C162.875 204.003 162.977 204.363 163.181 204.67C163.389 204.973 163.673 205.21 164.033 205.381C164.393 205.551 164.802 205.636 165.262 205.636C165.768 205.636 166.199 205.53 166.554 205.317C166.909 205.104 167.179 204.791 167.364 204.379C167.553 203.963 167.648 203.454 167.648 202.852V192.455ZM180.894 196.091C180.808 195.371 180.463 194.812 179.857 194.415C179.251 194.017 178.507 193.818 177.627 193.818C176.983 193.818 176.419 193.922 175.936 194.131C175.458 194.339 175.084 194.625 174.814 194.99C174.549 195.355 174.416 195.769 174.416 196.233C174.416 196.621 174.509 196.955 174.693 197.234C174.883 197.509 175.124 197.739 175.418 197.923C175.711 198.103 176.019 198.252 176.341 198.371C176.663 198.484 176.959 198.577 177.229 198.648L178.706 199.045C179.085 199.145 179.506 199.282 179.97 199.457C180.439 199.633 180.887 199.872 181.313 200.175C181.744 200.473 182.099 200.857 182.378 201.325C182.657 201.794 182.797 202.369 182.797 203.051C182.797 203.837 182.591 204.547 182.179 205.182C181.772 205.816 181.175 206.321 180.389 206.695C179.608 207.069 178.659 207.256 177.541 207.256C176.5 207.256 175.598 207.088 174.835 206.751C174.078 206.415 173.481 205.946 173.046 205.345C172.615 204.744 172.371 204.045 172.314 203.25H174.132C174.18 203.799 174.364 204.254 174.686 204.614C175.013 204.969 175.425 205.234 175.922 205.409C176.424 205.58 176.964 205.665 177.541 205.665C178.214 205.665 178.817 205.556 179.352 205.338C179.887 205.116 180.311 204.808 180.624 204.415C180.936 204.017 181.093 203.553 181.093 203.023C181.093 202.54 180.958 202.147 180.688 201.844C180.418 201.541 180.063 201.295 179.622 201.105C179.182 200.916 178.706 200.75 178.195 200.608L176.405 200.097C175.269 199.77 174.369 199.304 173.706 198.697C173.043 198.091 172.712 197.298 172.712 196.318C172.712 195.504 172.932 194.794 173.372 194.188C173.817 193.577 174.414 193.103 175.162 192.767C175.915 192.426 176.755 192.256 177.683 192.256C178.621 192.256 179.454 192.424 180.183 192.76C180.913 193.091 181.49 193.546 181.916 194.124C182.347 194.701 182.575 195.357 182.598 196.091H180.894ZM197.966 199.727C197.966 201.261 197.689 202.587 197.135 203.705C196.581 204.822 195.821 205.684 194.855 206.29C193.889 206.896 192.786 207.199 191.545 207.199C190.305 207.199 189.202 206.896 188.236 206.29C187.27 205.684 186.51 204.822 185.956 203.705C185.402 202.587 185.125 201.261 185.125 199.727C185.125 198.193 185.402 196.867 185.956 195.75C186.51 194.633 187.27 193.771 188.236 193.165C189.202 192.559 190.305 192.256 191.545 192.256C192.786 192.256 193.889 192.559 194.855 193.165C195.821 193.771 196.581 194.633 197.135 195.75C197.689 196.867 197.966 198.193 197.966 199.727ZM196.261 199.727C196.261 198.468 196.05 197.405 195.629 196.538C195.212 195.672 194.647 195.016 193.932 194.571C193.221 194.126 192.426 193.903 191.545 193.903C190.665 193.903 189.867 194.126 189.152 194.571C188.442 195.016 187.876 195.672 187.454 196.538C187.038 197.405 186.829 198.468 186.829 199.727C186.829 200.987 187.038 202.05 187.454 202.916C187.876 203.783 188.442 204.438 189.152 204.884C189.867 205.329 190.665 205.551 191.545 205.551C192.426 205.551 193.221 205.329 193.932 204.884C194.647 204.438 195.212 203.783 195.629 202.916C196.05 202.05 196.261 200.987 196.261 199.727ZM212.461 192.455V207H210.757L202.831 195.58H202.689V207H200.927V192.455H202.632L210.586 203.903H210.729V192.455H212.461ZM215.389 204.017V202.568L221.781 192.455H222.833V194.699H222.122L217.293 202.341V202.455H225.901V204.017H215.389ZM222.236 207V203.577V202.902V192.455H223.912V207H222.236ZM169.922 231V216.455H174.836C175.977 216.455 176.91 216.661 177.635 217.072C178.364 217.48 178.904 218.031 179.254 218.727C179.604 219.423 179.779 220.2 179.779 221.057C179.779 221.914 179.604 222.693 179.254 223.393C178.908 224.094 178.373 224.653 177.649 225.07C176.924 225.482 175.996 225.688 174.865 225.688H171.342V224.125H174.808C175.589 224.125 176.217 223.99 176.69 223.72C177.163 223.45 177.507 223.086 177.72 222.626C177.938 222.162 178.047 221.639 178.047 221.057C178.047 220.474 177.938 219.954 177.72 219.494C177.507 219.035 177.161 218.675 176.683 218.415C176.205 218.15 175.57 218.017 174.779 218.017H171.683V231H169.922ZM182.39 231V220.091H184.009V221.739H184.123C184.321 221.199 184.681 220.761 185.202 220.425C185.723 220.089 186.31 219.92 186.963 219.92C187.087 219.92 187.24 219.923 187.425 219.928C187.61 219.932 187.749 219.939 187.844 219.949V221.653C187.787 221.639 187.657 221.618 187.453 221.589C187.255 221.556 187.044 221.54 186.821 221.54C186.291 221.54 185.818 221.651 185.401 221.874C184.989 222.091 184.662 222.394 184.421 222.783C184.184 223.166 184.066 223.604 184.066 224.097V231H182.39ZM194.073 231.227C193.022 231.227 192.115 230.995 191.353 230.531C190.595 230.062 190.01 229.409 189.598 228.571C189.191 227.728 188.988 226.748 188.988 225.631C188.988 224.513 189.191 223.528 189.598 222.676C190.01 221.819 190.583 221.152 191.317 220.673C192.056 220.19 192.917 219.949 193.902 219.949C194.471 219.949 195.032 220.044 195.586 220.233C196.14 220.422 196.644 220.73 197.098 221.156C197.553 221.578 197.915 222.136 198.185 222.832C198.455 223.528 198.59 224.385 198.59 225.403V226.114H190.181V224.665H196.885C196.885 224.049 196.762 223.5 196.516 223.017C196.275 222.534 195.929 222.153 195.479 221.874C195.034 221.594 194.508 221.455 193.902 221.455C193.235 221.455 192.657 221.62 192.169 221.952C191.686 222.278 191.315 222.705 191.054 223.23C190.794 223.756 190.664 224.319 190.664 224.92V225.886C190.664 226.71 190.806 227.409 191.09 227.982C191.379 228.55 191.779 228.983 192.29 229.281C192.801 229.575 193.396 229.722 194.073 229.722C194.513 229.722 194.911 229.66 195.266 229.537C195.626 229.409 195.936 229.22 196.196 228.969C196.457 228.713 196.658 228.396 196.8 228.017L198.419 228.472C198.249 229.021 197.962 229.504 197.56 229.92C197.158 230.332 196.66 230.654 196.069 230.886C195.477 231.114 194.811 231.227 194.073 231.227ZM200.948 216.455L205.266 228.699H205.436L209.755 216.455H211.601L206.26 231H204.442L199.101 216.455H200.948ZM218.526 231.199C217.588 231.199 216.753 231.038 216.019 230.716C215.29 230.394 214.71 229.946 214.279 229.374C213.853 228.796 213.621 228.126 213.583 227.364H215.373C215.41 227.832 215.571 228.237 215.855 228.578C216.14 228.914 216.511 229.175 216.971 229.359C217.43 229.544 217.939 229.636 218.498 229.636C219.123 229.636 219.676 229.527 220.159 229.31C220.642 229.092 221.021 228.789 221.296 228.401C221.57 228.012 221.708 227.562 221.708 227.051C221.708 226.516 221.575 226.045 221.31 225.638C221.045 225.226 220.657 224.904 220.145 224.672C219.634 224.44 219.009 224.324 218.27 224.324H217.105V222.761H218.27C218.848 222.761 219.355 222.657 219.79 222.449C220.23 222.241 220.574 221.947 220.82 221.568C221.071 221.189 221.196 220.744 221.196 220.233C221.196 219.741 221.087 219.312 220.87 218.947C220.652 218.583 220.344 218.299 219.946 218.095C219.553 217.892 219.089 217.79 218.554 217.79C218.052 217.79 217.579 217.882 217.134 218.067C216.694 218.247 216.334 218.509 216.054 218.855C215.775 219.196 215.623 219.608 215.6 220.091H213.895C213.924 219.329 214.153 218.661 214.584 218.088C215.015 217.51 215.578 217.061 216.275 216.739C216.975 216.417 217.745 216.256 218.583 216.256C219.482 216.256 220.254 216.438 220.898 216.803C221.542 217.162 222.037 217.638 222.382 218.23C222.728 218.822 222.901 219.461 222.901 220.148C222.901 220.967 222.685 221.665 222.255 222.243C221.828 222.821 221.248 223.221 220.515 223.443V223.557C221.433 223.708 222.15 224.099 222.667 224.729C223.183 225.354 223.441 226.128 223.441 227.051C223.441 227.842 223.225 228.552 222.794 229.182C222.368 229.807 221.786 230.299 221.047 230.659C220.309 231.019 219.468 231.199 218.526 231.199ZM166.841 244.091C166.756 243.371 166.41 242.812 165.804 242.415C165.198 242.017 164.455 241.818 163.574 241.818C162.93 241.818 162.366 241.922 161.884 242.131C161.405 242.339 161.031 242.625 160.761 242.99C160.496 243.355 160.364 243.769 160.364 244.233C160.364 244.621 160.456 244.955 160.641 245.234C160.83 245.509 161.071 245.739 161.365 245.923C161.659 246.103 161.966 246.252 162.288 246.371C162.61 246.484 162.906 246.577 163.176 246.648L164.653 247.045C165.032 247.145 165.454 247.282 165.918 247.457C166.386 247.633 166.834 247.872 167.26 248.175C167.691 248.473 168.046 248.857 168.325 249.325C168.605 249.794 168.744 250.369 168.744 251.051C168.744 251.837 168.538 252.547 168.126 253.182C167.719 253.816 167.123 254.321 166.337 254.695C165.555 255.069 164.606 255.256 163.489 255.256C162.447 255.256 161.545 255.088 160.783 254.751C160.025 254.415 159.429 253.946 158.993 253.345C158.562 252.744 158.318 252.045 158.261 251.25H160.08C160.127 251.799 160.312 252.254 160.634 252.614C160.96 252.969 161.372 253.234 161.869 253.409C162.371 253.58 162.911 253.665 163.489 253.665C164.161 253.665 164.765 253.556 165.3 253.338C165.835 253.116 166.259 252.808 166.571 252.415C166.884 252.017 167.04 251.553 167.04 251.023C167.04 250.54 166.905 250.147 166.635 249.844C166.365 249.541 166.01 249.295 165.57 249.105C165.129 248.916 164.653 248.75 164.142 248.608L162.352 248.097C161.216 247.77 160.316 247.304 159.653 246.697C158.991 246.091 158.659 245.298 158.659 244.318C158.659 243.504 158.879 242.794 159.32 242.188C159.765 241.577 160.361 241.103 161.109 240.767C161.862 240.426 162.703 240.256 163.631 240.256C164.568 240.256 165.402 240.424 166.131 240.76C166.86 241.091 167.438 241.546 167.864 242.124C168.295 242.701 168.522 243.357 168.545 244.091H166.841ZM175.845 255.227C174.822 255.227 173.941 254.986 173.203 254.503C172.464 254.02 171.896 253.355 171.498 252.507C171.1 251.66 170.902 250.691 170.902 249.602C170.902 248.494 171.105 247.517 171.512 246.669C171.924 245.817 172.497 245.152 173.231 244.673C173.97 244.19 174.832 243.949 175.816 243.949C176.583 243.949 177.275 244.091 177.89 244.375C178.506 244.659 179.01 245.057 179.403 245.568C179.796 246.08 180.04 246.676 180.135 247.358H178.458C178.331 246.861 178.047 246.42 177.606 246.037C177.171 245.649 176.583 245.455 175.845 245.455C175.191 245.455 174.618 245.625 174.126 245.966C173.638 246.302 173.257 246.778 172.983 247.393C172.713 248.004 172.578 248.722 172.578 249.545C172.578 250.388 172.71 251.122 172.975 251.747C173.245 252.372 173.624 252.857 174.112 253.203C174.604 253.549 175.182 253.722 175.845 253.722C176.28 253.722 176.676 253.646 177.031 253.494C177.386 253.343 177.687 253.125 177.933 252.841C178.179 252.557 178.354 252.216 178.458 251.818H180.135C180.04 252.462 179.806 253.042 179.431 253.558C179.062 254.07 178.572 254.477 177.961 254.78C177.355 255.078 176.65 255.227 175.845 255.227ZM182.585 255V244.091H184.204V245.739H184.318C184.517 245.199 184.877 244.761 185.397 244.425C185.918 244.089 186.505 243.92 187.159 243.92C187.282 243.92 187.436 243.923 187.62 243.928C187.805 243.932 187.945 243.939 188.039 243.949V245.653C187.983 245.639 187.852 245.618 187.649 245.589C187.45 245.556 187.239 245.54 187.017 245.54C186.486 245.54 186.013 245.651 185.596 245.874C185.184 246.091 184.858 246.394 184.616 246.783C184.379 247.166 184.261 247.604 184.261 248.097V255H182.585ZM194.268 255.227C193.217 255.227 192.31 254.995 191.548 254.531C190.79 254.062 190.206 253.409 189.794 252.571C189.386 251.728 189.183 250.748 189.183 249.631C189.183 248.513 189.386 247.528 189.794 246.676C190.206 245.819 190.779 245.152 191.512 244.673C192.251 244.19 193.113 243.949 194.098 243.949C194.666 243.949 195.227 244.044 195.781 244.233C196.335 244.422 196.839 244.73 197.294 245.156C197.748 245.578 198.11 246.136 198.38 246.832C198.65 247.528 198.785 248.385 198.785 249.403V250.114H190.376V248.665H197.081C197.081 248.049 196.958 247.5 196.711 247.017C196.47 246.534 196.124 246.153 195.674 245.874C195.229 245.594 194.704 245.455 194.098 245.455C193.43 245.455 192.852 245.62 192.365 245.952C191.882 246.278 191.51 246.705 191.25 247.23C190.989 247.756 190.859 248.319 190.859 248.92V249.886C190.859 250.71 191.001 251.409 191.285 251.982C191.574 252.55 191.974 252.983 192.485 253.281C192.997 253.575 193.591 253.722 194.268 253.722C194.708 253.722 195.106 253.66 195.461 253.537C195.821 253.409 196.131 253.22 196.392 252.969C196.652 252.713 196.853 252.396 196.995 252.017L198.615 252.472C198.444 253.021 198.158 253.504 197.755 253.92C197.353 254.332 196.856 254.654 196.264 254.886C195.672 255.114 195.007 255.227 194.268 255.227ZM205.909 255.227C204.858 255.227 203.951 254.995 203.189 254.531C202.431 254.062 201.846 253.409 201.434 252.571C201.027 251.728 200.824 250.748 200.824 249.631C200.824 248.513 201.027 247.528 201.434 246.676C201.846 245.819 202.419 245.152 203.153 244.673C203.892 244.19 204.753 243.949 205.738 243.949C206.306 243.949 206.868 244.044 207.422 244.233C207.975 244.422 208.48 244.73 208.934 245.156C209.389 245.578 209.751 246.136 210.021 246.832C210.291 247.528 210.426 248.385 210.426 249.403V250.114H202.017V248.665H208.721C208.721 248.049 208.598 247.5 208.352 247.017C208.11 246.534 207.765 246.153 207.315 245.874C206.87 245.594 206.344 245.455 205.738 245.455C205.071 245.455 204.493 245.62 204.005 245.952C203.522 246.278 203.151 246.705 202.89 247.23C202.63 247.756 202.5 248.319 202.5 248.92V249.886C202.5 250.71 202.642 251.409 202.926 251.982C203.215 252.55 203.615 252.983 204.126 253.281C204.637 253.575 205.232 253.722 205.909 253.722C206.349 253.722 206.747 253.66 207.102 253.537C207.462 253.409 207.772 253.22 208.032 252.969C208.293 252.713 208.494 252.396 208.636 252.017L210.255 252.472C210.085 253.021 209.798 253.504 209.396 253.92C208.993 254.332 208.496 254.654 207.904 254.886C207.313 255.114 206.647 255.227 205.909 255.227ZM214.652 248.438V255H212.975V244.091H214.595V245.795H214.737C214.993 245.241 215.381 244.796 215.902 244.46C216.422 244.119 217.095 243.949 217.919 243.949C218.657 243.949 219.304 244.1 219.858 244.403C220.412 244.702 220.842 245.156 221.15 245.767C221.458 246.373 221.612 247.14 221.612 248.068V255H219.936V248.182C219.936 247.325 219.713 246.657 219.268 246.179C218.823 245.696 218.212 245.455 217.436 245.455C216.901 245.455 216.422 245.571 216.001 245.803C215.584 246.035 215.255 246.373 215.014 246.818C214.772 247.263 214.652 247.803 214.652 248.438ZM229.561 255.199C228.624 255.199 227.788 255.038 227.054 254.716C226.325 254.394 225.745 253.946 225.314 253.374C224.888 252.796 224.656 252.126 224.618 251.364H226.408C226.446 251.832 226.607 252.237 226.891 252.578C227.175 252.914 227.546 253.175 228.006 253.359C228.465 253.544 228.974 253.636 229.533 253.636C230.158 253.636 230.712 253.527 231.195 253.31C231.678 253.092 232.056 252.789 232.331 252.401C232.606 252.012 232.743 251.562 232.743 251.051C232.743 250.516 232.61 250.045 232.345 249.638C232.08 249.226 231.692 248.904 231.18 248.672C230.669 248.44 230.044 248.324 229.305 248.324H228.141V246.761H229.305C229.883 246.761 230.39 246.657 230.825 246.449C231.266 246.241 231.609 245.947 231.855 245.568C232.106 245.189 232.232 244.744 232.232 244.233C232.232 243.741 232.123 243.312 231.905 242.947C231.687 242.583 231.379 242.299 230.982 242.095C230.589 241.892 230.125 241.79 229.589 241.79C229.088 241.79 228.614 241.882 228.169 242.067C227.729 242.247 227.369 242.509 227.089 242.855C226.81 243.196 226.659 243.608 226.635 244.091H224.93C224.959 243.329 225.188 242.661 225.619 242.088C226.05 241.51 226.614 241.061 227.31 240.739C228.01 240.417 228.78 240.256 229.618 240.256C230.518 240.256 231.289 240.438 231.933 240.803C232.577 241.162 233.072 241.638 233.418 242.23C233.763 242.822 233.936 243.461 233.936 244.148C233.936 244.967 233.721 245.665 233.29 246.243C232.864 246.821 232.284 247.221 231.55 247.443V247.557C232.468 247.708 233.186 248.099 233.702 248.729C234.218 249.354 234.476 250.128 234.476 251.051C234.476 251.842 234.26 252.552 233.83 253.182C233.403 253.807 232.821 254.299 232.082 254.659C231.344 255.019 230.503 255.199 229.561 255.199Z" fill="black"/>
</g>
<defs>
<linearGradient id="paint0_linear_66_1203" x1="393" y1="740.019" x2="711.84" y2="-463.573" gradientUnits="userSpaceOnUse">
<stop stop-color="#FFC670"/>
<stop offset="0.536458" stop-color="#FC803B"/>
<stop offset="0.796875" stop-color="#FF7A00"/>
</linearGradient>
<clipPath id="clip0_66_1203">
<path d="M0 0H390V789C390 800.046 381.046 809 370 809H20C8.9543 809 0 800.046 0 789V0Z" fill="white"/>
</clipPath>
</defs>
</svg>
