<svg width="390" height="809" viewBox="0 0 390 809" fill="none" xmlns="http://www.w3.org/2000/svg">
<g clip-path="url(#clip0_66_1104)">
<path d="M0 -55C0 -66.0457 8.95431 -75 20 -75L370 -75C381.046 -75 390 -66.0457 390 -55V-1L390 789C390 800.046 381.046 809 370 809H20C8.95431 809 0 800.046 0 789L0 -1L0 -55Z" fill="url(#paint0_linear_66_1104)"/>
<path d="M0 -55C0 -66.0457 8.95431 -75 20 -75L370 -75C381.046 -75 390 -66.0457 390 -55V-1L390 789C390 800.046 381.046 809 370 809H20C8.95431 809 0 800.046 0 789L0 -1L0 -55Z" fill="url(#paint1_linear_66_1104)" fill-opacity="0.5"/>
<path d="M346.104 374.993C346.104 374.993 345.579 363.041 343.082 360.508C340.582 357.979 332.642 357.193 332.642 357.193C332.642 357.193 340.671 357.325 343.167 354.792C345.667 352.262 345.498 339 345.498 339C345.498 339 345.945 352.266 348.442 354.799C350.942 357.329 358.649 357.511 358.649 357.511C358.649 357.511 351.026 357.904 348.526 360.437C346.03 362.966 346.104 374.993 346.104 374.993Z" fill="#FDFB90" stroke="#FDFB90" stroke-miterlimit="10"/>
<path d="M51.1287 405.843C51.1287 405.843 50.6664 395.599 48.4696 393.428C46.2697 391.26 39.2822 390.586 39.2822 390.586C39.2822 390.586 46.3473 390.699 48.5441 388.528C50.744 386.36 50.5951 374.992 50.5951 374.992C50.5951 374.992 50.9891 386.363 53.1859 388.534C55.3858 390.702 62.1685 390.859 62.1685 390.859C62.1685 390.859 55.4602 391.195 53.2604 393.367C51.0636 395.535 51.1287 405.843 51.1287 405.843Z" fill="#FDFB90" stroke="#FDFB90" stroke-miterlimit="10"/>
<path d="M295.187 418.852C327.359 429.245 301.168 463.368 278.707 476.497C214.299 526.498 110.589 530.098 104.64 530.199C98.6904 530.3 40.9453 533.504 34.207 511.722C32.0473 504.74 34.9738 498.915 42.46 494.349C49.4894 490.061 62.3314 486.603 85.5991 483.27C133.647 476.386 159.717 467.67 198.604 447.336C216.709 437.869 232.445 428.961 247.094 423.113C263.911 416.4 279.295 413.719 295.187 418.852Z" fill="#1B1C1D" stroke="black"/>
<path d="M186.786 494.368C160.886 493.147 131.443 493.685 112.244 494.564C108.191 493.759 102.555 493.523 96.6304 494.603C97.4602 495.868 98.203 497.16 98.8417 498.534C100.27 501.61 101.24 504.797 102.105 508.554C102.537 510.428 102.878 512.15 103.288 514.407C103.31 514.531 103.373 514.887 103.449 515.302C103.642 515.89 103.822 516.389 104.002 516.863C104.037 516.916 104.084 516.974 104.108 517.012C104.311 517.329 104.491 517.626 104.711 518.005C104.962 518.437 105.204 518.885 105.474 519.436C105.788 520.086 105.789 520.088 106.246 521.196C106.812 522.661 106.806 522.658 107.52 526.041C107.673 527.209 107.682 527.209 107.757 528.738C107.761 530.499 107.761 530.497 107.474 532.832C107.288 533.778 107.175 534.235 107.036 534.777C108.767 535.076 110.509 535.5 112.275 536.221C113.224 536.609 114.072 537.113 114.934 537.595C115.501 537.589 115.659 537.608 116.624 537.585C117.891 537.555 118.547 537.531 119.357 537.523C127.16 537.424 132.961 538.061 139.425 540.636C141.361 541.406 143.145 542.326 144.799 543.403C144.878 543.39 144.947 543.386 145.032 543.373C145.442 543.315 145.967 543.229 146.62 543.141C147.759 542.989 154.028 542.204 155.193 542.062C155.827 541.985 157.217 541.82 157.433 541.799C198.618 537.653 166.312 540.044 174.612 547.021C176.452 548.567 178.018 550.37 179.293 552.343C179.547 552.318 179.724 552.318 179.99 552.285C180.026 552.253 180.048 552.21 180.083 552.178C184.26 548.387 188.624 546.671 193.404 545.79C197.528 545.031 201.574 545.022 206.454 545.395C208.397 545.543 210.281 545.747 212.539 546.021C212.764 546.049 213.365 546.129 214.057 546.212C216.075 546.011 218.153 545.697 220.444 545.215C220.93 544.754 221.284 544.391 222.035 543.785C223.954 542.406 223.959 542.406 225.39 541.616C227.684 540.529 227.679 540.538 229.037 540.083C230.993 539.525 230.993 539.523 231.942 539.345C232.68 539.217 232.692 539.223 233.152 539.161C233.551 539.109 233.882 539.069 234.214 539.039C234.402 539.024 234.556 539.011 234.721 539C235.036 538.893 235.35 538.788 235.4 538.768C238.967 537.525 240.986 536.931 243.965 536.418C246.863 528.702 248.814 515.37 240.123 504.765C235.051 498.579 212.686 495.59 186.786 494.368ZM174.158 553.89C173.866 553.939 173.583 553.997 173.281 554.05C173.401 554.07 173.52 554.063 173.64 554.085C174.003 554.151 174.337 554.263 174.693 554.336C174.51 554.203 174.345 554.008 174.158 553.89Z" fill="#571905"/>
<path d="M186.805 493.84C160.912 492.618 131.503 493.16 112.292 494.037C108.146 493.223 102.384 492.985 96.3442 494.113C96.5568 494.423 96.8851 494.334 97.0828 494.649C102.864 493.623 108.187 493.864 112.14 494.649C131.328 493.771 160.747 493.229 186.625 494.45C199.567 495.06 211.734 496.552 221.164 498.219C225.879 499.053 229.936 500.044 233.109 501.198C236.302 502.359 238.525 503.662 239.699 505.095C244.667 511.158 246.105 518.149 245.865 524.455C245.684 529.108 244.587 533.35 243.352 536.552C243.678 536.49 243.938 536.408 244.29 536.35C244.398 536.333 244.487 536.329 244.593 536.312C245.767 533.095 246.756 528.986 246.93 524.505C247.177 518.014 245.706 510.742 240.534 504.432C239.172 502.771 236.712 501.385 233.474 500.207C230.218 499.023 226.105 498.028 221.357 497.189C211.861 495.51 199.764 494.451 186.805 493.84Z" fill="#2E4166"/>
<path d="M240.056 504.445C239.77 504.373 239.484 504.551 239.41 504.834C239.338 505.117 239.503 505.399 239.789 505.471C243.213 506.333 247.975 510.57 248.693 519.343C249.053 523.755 248.597 528.252 247.712 532.118C247.376 533.587 246.935 534.837 246.499 536.07C246.881 536.023 247.28 535.963 247.664 535.927C248.05 534.777 248.452 533.664 248.753 532.352C249.656 528.397 250.124 523.783 249.751 519.25C249.007 510.136 244.02 505.443 240.056 504.445Z" fill="#2E4166"/>
<path d="M173.262 544.343C173.129 545.143 173.433 546.031 174.613 547.021C176.452 548.568 178.018 550.371 179.294 552.344C179.548 552.318 179.724 552.318 179.99 552.286C180.026 552.254 180.048 552.211 180.084 552.179C182.368 550.105 184.717 548.703 187.151 547.667C186.52 547.261 185.955 546.953 185.518 546.755C183.562 545.542 178.474 544.806 173.262 544.343ZM174.158 553.89C173.867 553.94 173.584 553.997 173.282 554.051C173.402 554.07 173.521 554.064 173.64 554.085C174.003 554.152 174.337 554.263 174.694 554.336C174.51 554.203 174.345 554.008 174.158 553.89Z" fill="#FF7CAB"/>
<path d="M243.677 536.268C243.677 536.268 256.062 534.696 262.21 540.679C268.358 546.664 270.055 554.511 269.838 560.299C269.558 567.721 263.9 573.949 263.9 573.949C263.9 573.949 268.156 575.416 270.51 578.388C274.012 582.81 276.192 588.727 275.988 594.337C275.699 602.278 274.573 611.361 269.102 617.183C262.733 623.962 252.903 627.771 243.603 628.804C222.719 631.127 201.449 629.49 180.582 627.029C170.889 625.883 160.05 624.466 152.732 618.079C146.139 612.326 143.634 602.607 142.688 593.964C140.883 577.464 143.996 560.797 144.65 544.215" fill="#571905"/>
<path d="M243.677 536.268C243.677 536.268 256.062 534.696 262.21 540.679C268.358 546.664 270.055 554.511 269.838 560.299C269.558 567.721 263.9 573.949 263.9 573.949C263.9 573.949 268.156 575.416 270.51 578.388C274.012 582.81 276.192 588.727 275.988 594.337C275.699 602.278 274.573 611.361 269.102 617.183C262.733 623.962 252.903 627.771 243.603 628.804C222.719 631.127 201.449 629.49 180.582 627.029C170.889 625.883 160.05 624.466 152.732 618.079C146.139 612.326 143.634 602.607 142.688 593.964C140.883 577.464 143.996 560.797 144.65 544.215" stroke="#2E4166" stroke-miterlimit="10" stroke-linecap="round"/>
<path d="M142.011 541.808C142.979 542.299 143.91 542.826 144.8 543.405C144.879 543.392 144.948 543.388 145.033 543.375C145.236 543.347 145.559 543.307 145.819 543.266C144.6 542.734 143.34 542.243 142.011 541.808ZM173.411 543.811C172.991 544.739 173.163 545.805 174.613 547.023C176.453 548.569 178.019 550.373 179.294 552.346C179.548 552.32 179.725 552.32 179.991 552.288C180.027 552.256 180.048 552.213 180.084 552.181C182.553 549.94 185.096 548.481 187.743 547.433C186.995 546.933 186.301 546.526 185.778 546.288C184.816 545.7 183.239 545.239 181.404 544.866C179.529 544.484 177.311 544.173 175.007 543.935C174.475 543.881 173.949 543.858 173.411 543.811ZM174.159 553.892C173.867 553.941 173.584 553.999 173.282 554.053C173.402 554.072 173.521 554.066 173.641 554.087C174.004 554.154 174.338 554.265 174.694 554.338C174.511 554.205 174.346 554.01 174.159 553.892Z" fill="#2E4166"/>
<path fill-rule="evenodd" clip-rule="evenodd" d="M181.32 449.997C182.848 451.274 183.794 452.539 184.127 453.565C184.217 453.843 184.063 454.141 183.782 454.23C183.5 454.32 183.199 454.167 183.108 453.889C182.863 453.131 182.086 452.022 180.629 450.804C179.185 449.596 177.11 448.314 174.339 447.195C168.798 444.957 160.485 443.378 148.909 444.346C137.468 445.302 129.001 452.074 123.759 460.043C121.139 464.026 119.332 468.297 118.371 472.263C117.407 476.236 117.299 479.866 118.031 482.582C118.108 482.864 117.938 483.154 117.652 483.229C117.367 483.304 117.074 483.136 116.998 482.854C116.205 479.912 116.342 476.093 117.33 472.016C118.322 467.931 120.177 463.549 122.863 459.466C128.235 451.301 136.966 444.282 148.819 443.292C160.534 442.313 169.021 443.905 174.743 446.216C177.604 447.371 179.778 448.708 181.32 449.997Z" fill="#2E4166"/>
<path d="M97.0904 494.268C92.1819 495.231 84.3254 498.725 79.544 504.713C72.6154 513.392 71.5031 518.601 71.0178 530.34C70.5325 542.081 77.6026 551.672 77.6026 551.672C77.6026 551.672 53.7719 561.535 49.8015 577.777C45.831 594.022 52.8553 607.198 61.7206 616.647C69.7706 625.227 81.3331 623.338 93.1534 623.986C120.845 625.506 148.736 624.657 176.328 621.88C190.083 620.496 203.799 617.035 216.475 611.577C226.123 607.421 233.637 599.529 242.219 593.505" fill="#571905"/>
<path d="M97.0904 494.268C92.1819 495.231 84.3254 498.725 79.544 504.713C72.6154 513.392 71.5031 518.601 71.0178 530.34C70.5325 542.081 77.6026 551.672 77.6026 551.672C77.6026 551.672 53.7719 561.535 49.8015 577.777C45.831 594.022 52.8553 607.198 61.7206 616.647C69.7706 625.227 81.3331 623.338 93.1534 623.986C120.845 625.506 148.736 624.657 176.328 621.88C190.083 620.496 203.799 617.035 216.475 611.577C226.123 607.421 233.637 599.529 242.219 593.505" stroke="#2E4166" stroke-miterlimit="10" stroke-linecap="round"/>
<path d="M112.281 525.278C118.182 512.435 130.287 514.214 135.602 516.709C158.561 514.575 208.602 511.589 225.09 516.709C245.699 523.108 231.056 550.66 237.781 552.721C244.506 554.782 242.988 563.893 206.867 583.635C170.746 603.377 99.8067 579.839 99.4813 568.558C99.221 559.533 107.906 552.866 112.281 550.66C109.822 547.551 106.38 538.121 112.281 525.278Z" fill="#481809"/>
<path d="M182.575 455.626C156.899 454.071 134.934 466.627 129.923 484.271C129.783 484.763 129.69 485.2 129.589 485.693C129.577 485.75 129.561 485.818 129.549 485.876C129.46 486.32 129.364 486.801 129.226 487.37L128.76 489.283L128.199 487.393C127.867 486.292 127.157 485.365 126.391 484.643C125.623 483.919 124.828 483.427 124.343 483.205L124.314 483.203L124.3 483.188C121.246 481.534 118.806 481.717 116.99 482.546C115.152 483.384 113.896 484.906 113.306 486.063C112.814 487.315 112.37 489.398 112.677 491.549C112.983 493.695 114.031 495.893 116.485 497.447C118.943 499.003 121.388 499.043 123.471 498.441C125.57 497.835 127.282 496.58 128.208 495.631L128.979 494.849L129.128 495.929C129.254 496.814 129.41 497.687 129.615 498.557C132.924 512.493 146.401 526.501 164.56 531.224L164.958 531.318L164.961 531.732C164.985 533.6 164.908 536.051 164.558 538.459C164.427 539.369 164.215 540.263 163.988 541.138C172.686 552.06 167.032 540.649 174.613 547.02C176.361 548.489 177.842 550.201 179.081 552.06C179.868 551.859 180.548 551.567 181.238 551.277C182.497 550.254 183.778 549.403 185.08 548.697C185.327 548.369 185.52 548.046 185.617 547.73C186.833 543.787 187.275 536.939 187.373 533.147L187.388 532.663L187.867 532.635C209.288 530.846 226.583 517.5 230.696 501.924C230.846 501.355 230.977 500.786 231.091 500.207L231.366 498.81L232.084 500.038C233.222 502.004 235.482 503.175 236.462 503.501L236.475 503.502L236.49 503.503C239.369 504.64 241.667 504.054 243.389 502.864C245.129 501.665 246.292 499.835 246.836 498.519C247.257 496.973 247.494 494.597 246.864 492.454C246.244 490.333 244.79 488.452 241.753 487.79C238.599 487.103 236.523 487.558 235.119 488.345C233.703 489.139 232.902 490.312 232.371 491.205L231.55 492.568L231.373 491.002C231.299 490.367 231.278 490.156 231.161 489.533C227.866 471.803 207.837 457.156 182.575 455.626Z" fill="#FFC6B2" stroke="#2E4166" stroke-miterlimit="10"/>
<path d="M133.807 484.35C164.243 487.784 178.918 472.108 182.452 463.841C187.521 488.399 222.65 486.551 224.653 487.467C226.255 488.2 230.551 490.049 231.942 491.989C232.652 491.113 233.74 488.919 234.307 488.424C234.975 477.651 230.781 467.589 228.498 464.536C213.78 446.788 190.439 447.42 183.137 452.779C172.348 446.083 163.766 443.133 147.033 447.417C122.923 453.589 118.757 473.337 118.25 481.522C125.231 481.287 128.512 485.192 129.241 488.946L133.807 484.35Z" fill="#571905" stroke="#2E4166" stroke-miterlimit="10" stroke-linecap="round"/>
<path d="M171.269 481.204C170.107 480.971 168.398 481.147 166.704 481.698C165 482.253 163.235 483.203 161.988 484.625C161.794 484.845 161.819 485.193 162.042 485.385C162.265 485.576 162.603 485.551 162.796 485.33C163.88 484.095 165.45 483.218 167.032 482.703C168.623 482.185 170.143 482.049 171.061 482.233C171.35 482.292 171.634 482.115 171.692 481.829C171.751 481.543 171.559 481.262 171.269 481.204ZM188.789 482.779C188.495 482.761 188.227 482.995 188.209 483.287C188.191 483.578 188.429 483.828 188.723 483.846C189.829 483.913 191.277 484.326 192.644 485.126C194.007 485.922 195.251 487.074 195.997 488.583C196.126 488.846 196.452 488.955 196.718 488.827C196.983 488.699 197.079 488.39 196.949 488.127C196.091 486.391 194.676 485.092 193.177 484.216C191.682 483.341 190.083 482.857 188.789 482.779ZM178.75 489.809C178.456 489.809 178.21 490.055 178.212 490.347C178.213 490.522 178.222 490.714 178.22 490.918C178.213 492.038 178.198 493.536 178.436 494.886C178.71 496.439 179.367 498.092 181.058 498.471C182.289 498.746 183.598 499.056 184.54 499.624C184.999 499.902 185.348 500.215 185.548 500.599C185.743 500.974 185.824 501.462 185.7 502.107C185.551 502.876 185.248 503.379 184.864 503.712C184.474 504.049 183.961 504.253 183.338 504.333C182.068 504.495 180.463 504.134 178.935 503.61C178.656 503.514 178.348 503.664 178.25 503.94C178.154 504.215 178.304 504.52 178.584 504.616C180.148 505.153 181.951 505.578 183.475 505.384C184.248 505.285 184.975 505.022 185.565 504.511C186.16 503.996 186.571 503.258 186.756 502.299C186.919 501.457 186.821 500.742 186.501 500.128C186.186 499.521 185.671 499.06 185.101 498.716C183.984 498.041 182.495 497.709 181.31 497.444L181.295 497.443C180.311 497.223 179.756 496.23 179.487 494.707C179.266 493.46 179.281 492.065 179.287 490.94C179.288 490.729 179.295 490.531 179.295 490.341C179.294 490.049 179.046 489.808 178.75 489.809Z" fill="#2E4166"/>
<path d="M193.842 491.539C193.745 493.137 192.894 494.384 191.94 494.325C190.987 494.267 190.292 492.924 190.39 491.326C190.487 489.728 191.339 488.48 192.292 488.539C193.246 488.598 193.94 489.941 193.842 491.539Z" fill="#2E4166"/>
<path d="M169.545 491.539C169.448 493.137 168.597 494.384 167.643 494.325C166.69 494.267 165.995 492.924 166.093 491.326C166.19 489.728 167.042 488.48 167.995 488.539C168.95 488.598 169.643 489.941 169.545 491.539Z" fill="#2E4166"/>
<path d="M151.522 495.424C148.279 495.227 145.565 496.241 145.475 497.698C145.385 499.156 147.952 500.504 151.195 500.7C154.439 500.897 157.139 499.868 157.229 498.41C157.32 496.953 154.766 495.62 151.522 495.424Z" fill="#FF92B9"/>
<path d="M204.987 498.217C201.45 498.003 198.498 499.003 198.407 500.46C198.317 501.917 201.123 503.28 204.66 503.494C208.199 503.708 211.136 502.694 211.226 501.236C211.317 499.779 208.526 498.432 204.987 498.217Z" fill="#FF92B9"/>
<path d="M243.491 495.866C243.348 498.198 241.078 499.958 238.425 499.797C235.772 499.636 233.737 497.616 233.882 495.284C234.026 492.952 236.295 491.192 238.948 491.353C241.601 491.514 243.636 493.534 243.491 495.866Z" fill="#E3A58E"/>
<path fill-rule="evenodd" clip-rule="evenodd" d="M239.786 492.482C240.435 492.56 241.149 492.714 241.934 492.963C242.214 493.052 242.515 492.899 242.606 492.621C242.695 492.342 242.541 492.045 242.259 491.956C240.385 491.362 238.821 491.248 237.528 491.457C234.492 491.947 233.122 494.178 232.794 495.669C232.731 495.954 232.914 496.236 233.202 496.298C233.491 496.36 233.776 496.179 233.839 495.894C234.092 494.743 235.159 492.958 237.593 492.519C238.085 492.655 238.786 493.011 239.365 493.505C240.001 494.045 240.355 494.631 240.322 495.146C240.305 495.438 240.528 495.689 240.823 495.706C241.118 495.724 241.372 495.502 241.389 495.211C241.452 494.191 240.778 493.311 240.064 492.703C239.975 492.627 239.882 492.553 239.786 492.482Z" fill="#2E4166"/>
<path d="M116.023 489.508C115.897 491.548 117.946 493.332 120.599 493.493C123.252 493.654 125.506 492.13 125.633 490.09C125.759 488.049 123.71 486.265 121.057 486.104C118.404 485.944 116.15 487.467 116.023 489.508Z" fill="#E3A58E"/>
<path fill-rule="evenodd" clip-rule="evenodd" d="M120.173 486.607C119.653 486.612 119.081 486.658 118.451 486.754C118.16 486.799 117.886 486.601 117.841 486.312C117.796 486.024 117.996 485.754 118.289 485.709C119.976 485.452 121.346 485.52 122.448 485.802C125.033 486.463 126.051 488.276 126.197 489.502C126.231 489.792 126.021 490.055 125.728 490.089C125.435 490.123 125.169 489.916 125.134 489.626C125.039 488.828 124.342 487.416 122.273 486.851C121.874 486.909 121.278 487.168 120.695 487.531C120.393 487.719 120.117 487.922 119.9 488.11C119.672 488.309 119.548 488.46 119.505 488.541C119.367 488.799 119.044 488.899 118.783 488.763C118.521 488.627 118.421 488.307 118.558 488.049C118.694 487.794 118.937 487.54 119.193 487.317C119.459 487.085 119.783 486.849 120.125 486.637C120.14 486.627 120.157 486.617 120.173 486.607Z" fill="#2E4166"/>
<path d="M124.111 493.938C122.637 493.848 121.362 494.949 121.272 496.407C121.182 497.864 122.31 499.125 123.784 499.214C125.259 499.303 126.52 498.187 126.61 496.73C126.7 495.272 125.586 494.027 124.111 493.938Z" fill="#FFFB90"/>
<path d="M236.228 500.729C234.755 500.639 233.48 501.74 233.39 503.198C233.3 504.655 234.427 505.916 235.903 506.005C237.376 506.095 238.636 504.979 238.727 503.521C238.818 502.064 237.703 500.818 236.228 500.729Z" fill="#FFFB90"/>
<path d="M165.2 531.392C165.501 532.292 165.944 534.926 165.307 538.278C172.088 539.537 176.928 535.102 178.504 532.725C174.608 533.337 168.015 532.091 165.2 531.392Z" fill="#E3A58E"/>
<path d="M168.022 508.266C169.627 510.791 172.175 512.216 174.927 512.328" stroke="#2E4166" stroke-miterlimit="10" stroke-linecap="round"/>
<path d="M263.985 593.741C247.569 552.707 212.291 550.584 189.95 547.535C159.331 543.357 119.028 542.469 93.5843 559.819C67.5098 577.599 58.0696 599.298 49.8606 629.54C41.9041 658.852 49.8532 681.333 56.694 706.958C63.535 732.583 112.724 711.999 112.724 711.999L275.54 714.133C275.54 714.133 280.403 634.772 263.985 593.741Z" fill="#FF9603" stroke="#2E4166" stroke-miterlimit="10" stroke-linecap="round"/>
<path d="M164.136 538.281C164.136 538.281 160.897 539.263 158.798 540.973C156.698 542.68 155.738 545.112 155.738 545.112C155.738 545.112 159.383 550.349 165.731 552.279C172.079 554.207 178.309 555.678 184.361 554.976C188.986 554.44 192.984 551.895 195.77 548.401C195.77 548.401 195.197 545.637 193.033 543.613C190.867 541.588 187.11 540.306 187.11 540.306C187.11 540.306 180.565 543.604 174.822 543.098C169.078 542.592 164.136 538.281 164.136 538.281Z" fill="#FF9603" stroke="#2E4166" stroke-miterlimit="10" stroke-linecap="round"/>
<path d="M135.876 735.102C135.99 738.398 181.345 739.56 181.345 739.56C181.345 739.56 254.057 743.866 294.301 742.822C329.869 741.9 351.552 739.708 324.959 731.735C292.527 722.014 273.531 720.407 225.714 718.068C213.339 717.463 184.883 720.613 162.782 724.731C140.68 728.846 135.762 731.808 135.876 735.102Z" fill="#BAA197"/>
<path d="M379.235 423.006C373.976 419 368.42 415.787 362.841 413.541C351.181 408.848 340.072 408.669 332.576 413.818C328.583 416.561 325.759 419.821 324.032 423.47C322.575 426.547 321.959 429.754 322.034 432.939C322.072 434.591 322.297 436.147 322.645 437.579C322.876 438.532 323.132 439.301 323.362 439.868C324.975 443.833 330.198 448.497 334.197 447.578C338.196 446.66 343.376 443.442 341.763 439.477C341.809 439.589 341.833 439.653 341.842 439.677C341.822 439.621 341.794 439.529 341.764 439.407C341.657 438.964 341.581 438.434 341.567 437.842C341.538 436.61 341.777 435.345 342.379 434.073C343.195 432.348 344.642 430.691 346.905 429.135C349.985 427.02 354.136 426.333 361.098 429.135C369.178 432.388 375.191 436.578 382.008 444.979C392.261 457.613 397.437 471.215 397.341 484.171C397.247 496.732 392.175 508.208 382.796 516.867C378.088 521.212 372.377 524.054 365.299 525.81C359.471 527.257 353.335 527.913 343.734 528.363C344.36 528.334 334.966 528.74 332.407 528.887C322.029 529.482 314.966 530.61 308.637 533.174C300.492 536.473 294.64 541.997 291.19 550.241C289.703 553.797 291.778 558.286 295.824 560.265C299.871 562.244 304.36 560.966 305.847 557.411C308.031 552.195 311.48 548.937 316.586 546.868C321.151 545.019 326.858 544.107 335.74 543.597C338.169 543.459 347.427 543.065 346.905 543.089C357.427 542.594 364.393 541.838 371.382 540.104C380.541 537.831 388.213 534.025 394.567 528.158C406.375 517.257 412.832 502.634 412.952 486.555C413.075 470.045 406.538 452.854 393.86 437.231C389.462 431.811 384.495 427.012 379.235 423.006Z" fill="#1B1C1D" stroke="#1B1C1D" stroke-miterlimit="10" stroke-linecap="round"/>
<path d="M263.688 606.809C263.688 606.809 256.785 628.926 267.87 646.281C278.958 663.635 292.623 669.249 305.18 688.748C313.551 701.746 319.368 731.866 324.214 729.665C329.06 727.465 327.086 704.3 325.071 687.905C324.019 679.354 318.762 664.075 315.627 656.039C307.416 634.986 299.214 613.757 287.998 594.109C284.952 588.771 278.413 586.335 273.623 582.447" fill="black"/>
<path d="M263.688 606.809C263.688 606.809 256.785 628.926 267.87 646.281C278.958 663.635 292.623 669.249 305.18 688.748C313.551 701.746 319.368 731.866 324.214 729.665C329.06 727.465 327.086 704.3 325.071 687.905C324.019 679.354 318.762 664.075 315.627 656.039C307.416 634.986 299.214 613.757 287.998 594.109C284.952 588.771 278.413 586.335 273.623 582.447" stroke="#1B1C1D" stroke-miterlimit="10" stroke-linecap="round"/>
<path d="M167.64 626.98C167.64 626.98 186.406 653.098 178 662.414C172.279 668.755 159.063 651.854 149.356 652.45C139.649 653.044 140.612 668.408 140.612 668.408C140.612 668.408 143.434 700.469 152.18 699.169C157.653 698.354 148.385 676.96 153.887 673.969C159.56 670.885 160.054 678.335 175.78 690.67C192.948 704.136 229.431 684.119 242.653 659.238C257.311 631.655 256.222 628.275 272.966 609.416C277.437 604.379 287.284 642.371 291.479 677.123C294.985 706.145 292.623 733.01 298.111 729.72C308.531 723.477 324.047 638.485 324.047 638.485C324.047 638.485 332.195 611.756 325.244 578.395C320.051 553.467 299.242 540.887 277.923 542.487C256.604 544.087 244.937 551.379 234.372 570.486C223.67 589.839 224.617 596.332 215.712 604.512C206.806 612.689 198.751 603.199 198.751 603.199" fill="#1B1C1D"/>
<path d="M167.64 626.98C167.64 626.98 186.406 653.098 178 662.414C172.279 668.755 159.063 651.854 149.356 652.45C139.649 653.044 140.612 668.408 140.612 668.408C140.612 668.408 143.434 700.469 152.18 699.169C157.653 698.354 148.385 676.96 153.887 673.969C159.56 670.885 160.054 678.335 175.78 690.67C192.948 704.136 229.431 684.119 242.653 659.238C257.311 631.655 256.222 628.275 272.966 609.416C277.437 604.379 287.284 642.371 291.479 677.123C294.985 706.145 292.623 733.01 298.111 729.72C308.531 723.477 324.047 638.485 324.047 638.485C324.047 638.485 332.195 611.756 325.244 578.395C320.051 553.467 299.242 540.887 277.923 542.487C256.604 544.087 244.937 551.379 234.372 570.486C223.67 589.839 224.617 596.332 215.712 604.512C206.806 612.689 198.751 603.199 198.751 603.199" stroke="#1B1C1D" stroke-miterlimit="10" stroke-linecap="round"/>
<path d="M291.479 677.123C287.284 642.371 277.437 604.379 272.965 609.416C263.375 620.219 259.635 625.942 255.435 634.045C252.303 640.088 248.914 647.454 242.652 659.238C231.81 679.641 205.326 696.774 186.677 694.854C183.523 694.529 180.592 693.659 178 692.168C181.991 692.258 188.63 686.125 191.45 683.048L186.677 694.854C205.326 696.774 231.81 679.641 242.652 659.238C248.914 647.454 252.303 640.088 255.435 634.045C258.412 620.785 267.077 594.264 277.923 594.264C291.479 594.264 294.319 641.497 291.479 677.123Z" fill="black"/>
<path d="M177.891 624.502C174.073 627.933 169.466 627.584 167.64 626.98C167.64 626.98 169.158 629.092 171.136 632.329C177.29 633.509 182.664 620.213 177.891 624.502Z" fill="black"/>
<path d="M178 662.414C184.015 655.747 176.116 640.476 171.136 632.329M175.78 690.67C176.488 691.226 177.229 691.724 178 692.168M291.479 677.123C287.284 642.371 277.437 604.379 272.965 609.416C263.375 620.219 259.635 625.942 255.435 634.045M291.479 677.123C294.985 706.145 292.622 733.01 298.111 729.72C308.531 723.477 324.046 638.485 324.046 638.485C324.046 638.485 332.195 611.756 325.244 578.395C320.05 553.467 299.241 540.887 277.923 542.487C256.604 544.087 244.937 551.379 234.372 570.486C223.67 589.839 224.617 596.332 215.712 604.512C206.806 612.689 198.751 603.199 198.751 603.199M291.479 677.123C294.319 641.497 291.479 594.264 277.923 594.264C267.077 594.264 258.412 620.785 255.435 634.045M171.136 632.329C169.158 629.092 167.64 626.98 167.64 626.98C169.466 627.584 174.073 627.933 177.891 624.502C182.664 620.213 177.29 633.509 171.136 632.329ZM255.435 634.045C252.303 640.088 248.914 647.454 242.652 659.238C231.81 679.641 205.326 696.774 186.677 694.854M186.677 694.854L191.45 683.048C188.63 686.125 181.991 692.258 178 692.168M186.677 694.854C183.523 694.529 180.592 693.659 178 692.168" stroke="#1B1C1D" stroke-miterlimit="10" stroke-linecap="round"/>
<path d="M200.282 635.059C200.282 635.059 204.483 646.95 197.211 670.06C189.938 693.171 176.376 712.165 171.191 727.503C167.883 737.289 196.898 717.027 208.615 706.137C218.2 697.227 224.889 686.362 232.648 675.858C235.915 671.434 237.599 666.058 240.074 661.158" fill="#1B1C1D"/>
<path d="M200.282 635.059C200.282 635.059 204.483 646.95 197.211 670.06C189.938 693.171 176.376 712.165 171.191 727.503C167.883 737.289 196.898 717.027 208.615 706.137C218.2 697.227 224.889 686.362 232.648 675.858C235.915 671.434 237.599 666.058 240.074 661.158" stroke="#1B1C1D" stroke-miterlimit="10" stroke-linecap="round"/>
<path d="M173.457 559.896C165.592 554.702 170.812 581.14 170.812 581.14L157.017 588.392C157.017 588.392 137.37 575.688 134.203 579.825C131.035 583.96 146.142 604.68 146.142 604.68C146.142 604.68 149.371 615.09 155.055 621.217C160.787 627.397 172.309 627.871 172.309 627.871C184.365 627.961 193.814 619.106 193.814 619.106C193.814 619.106 201.419 611.972 202.27 601.914C203.936 582.242 181.321 565.09 173.457 559.896Z" fill="#1B1C1D" stroke="#1B1C1D" stroke-miterlimit="10" stroke-linecap="round"/>
<path d="M177.963 608.312C176.574 608.569 174.709 609.992 173.949 610.671C174.817 612.601 179.156 613.03 178.397 611.85C177.637 610.671 179.698 607.99 177.963 608.312Z" fill="black" stroke="#1B1C1D" stroke-miterlimit="10" stroke-linecap="round"/>
<path d="M175.971 604.338C175.536 603.542 175.67 601.58 175.846 600.767C176.634 597.139 178.566 594.527 181.287 591.994C182.117 591.22 183.059 590.398 184.018 589.772C184.094 589.723 184.145 589.631 184.231 589.699C185.279 590.525 185.685 591.852 186.115 593.056C187.382 596.611 186.329 599.884 183.407 602.294C181.816 603.604 179.889 603.973 177.911 604.297C177.6 604.349 176.218 604.795 175.971 604.338Z" fill="#FDFB90" stroke="#1B1C1D" stroke-miterlimit="10" stroke-linecap="round"/>
<path d="M179.555 594.311C180.042 593.727 181.703 594.289 183.264 595.565C184.826 596.841 185.697 598.347 185.209 598.93C184.936 599.258 184.291 599.224 183.503 598.904C182.887 598.655 182.184 598.233 181.5 597.675C179.939 596.399 179.068 594.892 179.555 594.311Z" fill="black"/>
<path d="M171.009 607.51C170.621 606.691 168.949 605.627 168.183 605.282C164.766 603.742 161.493 603.719 157.814 604.366C156.691 604.563 155.463 604.821 154.382 605.209C154.296 605.239 154.191 605.226 154.195 605.333C154.241 606.659 155.076 607.772 155.798 608.831C157.928 611.956 161.214 613.073 164.913 612.192C166.928 611.711 168.375 610.403 169.818 609.026C170.045 608.81 171.231 607.98 171.009 607.51Z" fill="#FDFB90" stroke="#1B1C1D" stroke-miterlimit="10" stroke-linecap="round"/>
<path d="M162.136 604.601C162.623 604.017 164.284 604.579 165.845 605.855C167.407 607.131 168.278 608.637 167.79 609.22C167.517 609.548 166.872 609.514 166.084 609.194C165.468 608.945 164.765 608.523 164.081 607.965C162.52 606.689 161.649 605.182 162.136 604.601Z" fill="black"/>
<path d="M124.196 506.811C124.196 506.811 123.872 499.637 122.335 498.117C120.798 496.597 115.911 496.127 115.911 496.127C115.911 496.127 120.851 496.205 122.389 494.685C123.926 493.166 123.821 485.205 123.821 485.205C123.821 485.205 124.097 493.169 125.634 494.689C127.171 496.208 131.914 496.317 131.914 496.317C131.914 496.317 127.223 496.553 125.686 498.073C124.149 499.593 124.196 506.811 124.196 506.811Z" fill="#FDFB90" stroke="#FDFB90" stroke-miterlimit="10"/>
<path d="M236.217 513.791C236.217 513.791 235.893 506.617 234.357 505.097C232.82 503.578 227.933 503.107 227.933 503.107C227.933 503.107 232.873 503.186 234.41 501.666C235.948 500.146 235.843 492.186 235.843 492.186C235.843 492.186 236.119 500.149 237.655 501.669C239.193 503.189 243.935 503.298 243.935 503.298C243.935 503.298 239.245 503.534 237.707 505.053C236.171 506.573 236.217 513.791 236.217 513.791Z" fill="#FDFB90" stroke="#FDFB90" stroke-miterlimit="10"/>
<path d="M201.433 728.781C205.33 736.678 214.078 739.74 222.886 740.926C230.267 741.919 237.015 730.939 237.015 730.939C237.015 730.939 248.185 739.157 260.297 740.248C279.193 741.951 285.486 733.9 285.486 733.9C285.486 733.9 299.37 718.385 295.561 703.763C291.751 689.144 285.733 683.296 270.411 673.873C255.088 664.448 238.976 663.403 228.82 665.951C216.418 669.06 208.314 678.426 201.929 690.832C195.544 703.238 205.428 715.781 205.428 715.781C205.428 715.781 199.228 724.312 201.433 728.781Z" fill="white" stroke="#2E4166" stroke-miterlimit="10" stroke-linecap="round"/>
<path d="M234.23 700.149C235.119 695.511 238.461 692.239 241.694 692.844C244.928 693.449 246.829 697.699 245.942 702.339C245.052 706.977 241.709 710.246 238.476 709.641C235.242 709.039 233.341 704.786 234.23 700.149Z" fill="#474A4E" stroke="#1B1C1D" stroke-miterlimit="10"/>
<path d="M227.942 711.196C228.926 708.397 229.848 704.977 227.969 702.333C224.871 697.971 219.227 703.356 218.337 706.517C217.648 708.966 223.976 706.276 223.976 706.276C223.976 706.276 226.813 714.404 227.942 711.196Z" fill="#1B1C1D" stroke="#1B1C1D" stroke-miterlimit="10" stroke-linecap="round"/>
<path d="M214.071 689.713C216.722 685.852 221.049 684.19 223.735 685.997C226.421 687.803 226.448 692.401 223.797 696.259C221.145 700.12 216.818 701.786 214.132 699.976C211.447 698.169 211.419 693.574 214.071 689.713Z" fill="#474A4E" stroke="#1B1C1D" stroke-miterlimit="10"/>
<path d="M241.604 693.092C238.822 691.571 235.106 695.719 234.227 700.288C233.349 704.857 235.228 709.047 238.424 709.64C239.504 709.841 241.604 709.64 241.604 708.894C239.019 709.618 237.928 706.545 237.928 700.82C237.928 696.239 240.379 693.759 241.604 693.092Z" fill="black" stroke="#1B1C1D" stroke-miterlimit="10"/>
<path d="M227.942 711.196C228.926 708.397 229.848 704.977 227.969 702.333C224.871 697.971 219.227 703.356 218.337 706.517C217.648 708.966 223.976 706.276 223.976 706.276C223.976 706.276 226.813 714.404 227.942 711.196Z" fill="#1B1C1D" stroke="#1B1C1D" stroke-miterlimit="10" stroke-linecap="round"/>
<path d="M213.974 689.713C216.496 685.852 220.61 684.19 223.164 685.997C221.388 686.427 217.665 688.025 216.986 690.972C216.211 694.331 215.319 700.405 216.992 700.675C217.177 700.654 217.364 700.623 217.552 700.582C217.34 700.672 217.154 700.701 216.992 700.675C215.91 700.797 214.885 700.58 214.033 699.976C211.479 698.169 211.453 693.574 213.974 689.713Z" fill="black"/>
<path d="M213.974 689.713C216.496 685.852 220.61 684.19 223.164 685.997C221.388 686.427 217.665 688.025 216.986 690.972C216.136 694.656 215.146 701.604 217.552 700.582C216.266 700.86 215.03 700.683 214.033 699.976C211.479 698.169 211.453 693.574 213.974 689.713Z" stroke="#1B1C1D" stroke-miterlimit="10"/>
<path d="M207.465 717.783C207.465 717.783 213.538 720.595 214.587 721.116C220.148 723.88 232.605 728.259 232.605 728.259" stroke="#2E4166" stroke-miterlimit="10" stroke-linecap="round"/>
<path d="M213.295 716.847C212.054 719.785 211.246 721.741 210.763 724.895" stroke="#2E4166" stroke-miterlimit="10" stroke-linecap="round"/>
<path d="M219.372 719.332C218.198 722.113 217.474 724.245 217.02 727.213" stroke="#2E4166" stroke-miterlimit="10" stroke-linecap="round"/>
<path d="M226.317 722.604C225.253 725.124 224.956 727.262 223.915 729.729" stroke="#2E4166" stroke-miterlimit="10" stroke-linecap="round"/>
<path d="M276.298 678.215C276.298 678.215 288.575 698.594 279.04 716.424C267.753 737.533 246.043 734.612 246.043 734.612C246.043 734.612 265.753 742.654 276.931 738.3C286.104 734.73 290.818 726.54 293.95 718.98C297.259 710.992 295.46 702.866 292.072 694.908C288.8 687.224 276.298 678.215 276.298 678.215Z" fill="#E3E3E3" stroke="#E3E3E3" stroke-miterlimit="10" stroke-linecap="round"/>
<path d="M293.127 714.527C293.299 715.481 293.379 717.126 293.127 719.171M289.873 728.628C291.302 726.223 292.172 723.831 292.676 721.686" stroke="#2E4166" stroke-linecap="round"/>
<path opacity="0.556202" d="M240.917 567.112C218.019 567.112 199.481 585.455 199.481 608.073C199.481 630.708 218.035 649.04 240.917 649.04C263.815 649.04 282.352 630.691 282.352 608.073C282.352 585.439 263.797 567.112 240.917 567.112Z" stroke="#FDFB90" stroke-miterlimit="10"/>
<path opacity="0.556202" d="M216.625 608.077C216.625 594.813 227.5 584.062 240.916 584.062C254.331 584.062 265.209 594.813 265.209 608.077C265.209 621.339 254.331 632.089 240.916 632.089C227.5 632.089 216.625 621.339 216.625 608.077Z" fill="#FDFB90" stroke="#FDFB90" stroke-miterlimit="10"/>
<path d="M237.485 622.234C232.206 620.023 232.659 614.974 233.14 610.214C233.541 606.253 233.598 606.87 234.016 606.679C235.002 606.229 236.365 613.445 237.317 609.041C238.238 604.781 235.925 604.595 236.29 600.715C236.656 596.834 238.78 593.521 238.78 593.521C238.78 593.521 250.307 601.723 250.841 608.972C251.088 612.307 250.127 615.082 249.053 617.076C247.554 619.862 242.796 624.455 237.485 622.234Z" fill="#FFD432"/>
<path d="M240.672 601.085C242.692 600.12 246.11 605.56 247.191 608.906C248.223 612.108 247.445 616.944 245.13 618.908C242.816 620.872 239.351 621.754 237.354 619.959C235.356 618.164 234.847 615.342 235.286 613.542C235.726 611.743 237.265 614.316 239.231 613.109C243.515 610.476 238.653 602.048 240.672 601.085Z" fill="#FDFB90" stroke="#FDFB90" stroke-miterlimit="10" stroke-linecap="round"/>
<path d="M237.541 671.23C239.564 671.091 239.267 665.266 241.751 664.962C243.004 664.807 244.466 665.393 245.655 667.235C247.444 670.01 249.143 671.149 250.239 671.357C253.929 672.064 248.989 667.063 251.102 666.473C252.673 666.034 254.074 669.444 256.727 670.649C260.372 672.304 263.105 670.687 261.372 668.348C259.636 666.008 250.664 665.133 248.995 660.488C245.277 650.138 245.789 626.03 245.789 626.03C245.789 626.03 243.776 624.513 241.863 624.659C239.95 624.805 238.094 626.248 238.094 626.248L238.163 637.773C238.163 637.773 238.895 650.651 234.949 658.129C229.594 668.279 216.585 666.581 218.437 670.334C219.493 672.474 228.066 665.536 232.024 666.405C235.982 667.275 235.518 671.372 237.541 671.23Z" fill="#FFFED1" stroke="#2E4166" stroke-miterlimit="10" stroke-linecap="round"/>
<path d="M241.965 625.724C242.07 625.597 241.327 624.396 241.249 624.225C240.838 623.324 240.225 622.278 240.279 621.212C240.367 619.455 242.132 619.35 242.85 618.196C242.908 618.104 243.049 617.356 243.111 617.339C243.549 617.208 243.894 617.609 244.019 618.033C244.255 618.842 241.663 620.127 241.211 620.871C240.58 621.911 241.921 624.115 242.244 625.179C242.285 625.312 242.324 625.533 242.207 625.642C242.174 625.674 241.954 625.737 241.965 625.724Z" fill="#2E4166" stroke="#2E4166" stroke-miterlimit="10" stroke-linecap="round"/>
<path d="M267.495 585.275C267.495 585.275 267.171 578.101 265.636 576.581C264.097 575.063 259.212 574.591 259.212 574.591C259.212 574.591 264.152 574.67 265.688 573.15C267.226 571.631 267.122 563.671 267.122 563.671C267.122 563.671 267.397 571.634 268.933 573.154C270.471 574.672 275.213 574.782 275.213 574.782C275.213 574.782 270.523 575.018 268.985 576.538C267.449 578.056 267.495 585.275 267.495 585.275Z" fill="#FDFB90" stroke="#FDFB90" stroke-miterlimit="10"/>
<path d="M220.542 654.149C220.542 654.149 220.219 646.975 218.682 645.455C217.144 643.937 212.258 643.465 212.258 643.465C212.258 643.465 217.198 643.544 218.735 642.024C220.272 640.505 220.168 632.545 220.168 632.545C220.168 632.545 220.443 640.508 221.98 642.028C223.518 643.546 228.26 643.656 228.26 643.656C228.26 643.656 223.57 643.892 222.033 645.412C220.495 646.93 220.542 654.149 220.542 654.149Z" fill="#FDFB90" stroke="#FDFB90" stroke-miterlimit="10"/>
<path d="M212.927 573.483C212.927 573.483 212.715 568.778 211.706 567.78C210.698 566.783 207.492 566.474 207.492 566.474C207.492 566.474 210.733 566.526 211.741 565.529C212.75 564.532 212.681 559.31 212.681 559.31C212.681 559.31 212.862 564.534 213.87 565.531C214.879 566.528 217.99 566.601 217.99 566.601C217.99 566.601 214.913 566.755 213.905 567.753C212.896 568.748 212.927 573.483 212.927 573.483Z" fill="#FDFB90" stroke="#FDFB90" stroke-miterlimit="10"/>
<path d="M170.097 564.706C167.767 568.632 162.603 571.012 158.707 573.187C152.854 576.455 142.722 572.641 137.103 576.327C133.589 578.633 132.493 600.674 132.493 600.674C132.493 600.674 121.512 602.447 115.061 599.871C108.609 597.297 104.543 584.388 104.543 584.388C104.543 584.388 113.241 562.942 117.899 557.59C121.088 553.928 123.349 551.48 129.905 549.643C144.518 545.546 160.527 552.067 175.081 557.097C183.662 560.063 186.936 561.115 192.153 564.293C197.37 567.471 195.774 568.785 195.774 568.785C195.774 568.785 194.682 570.405 186.629 568.159C179.897 566.281 173.217 564.464 168.682 564.421" fill="#FFC6B2"/>
<path d="M170.097 564.706C167.767 568.632 162.603 571.012 158.707 573.187C152.854 576.455 142.722 572.641 137.103 576.327C133.589 578.633 132.493 600.674 132.493 600.674C132.493 600.674 121.512 602.447 115.061 599.871C108.609 597.297 104.543 584.388 104.543 584.388C104.543 584.388 113.241 562.942 117.899 557.59C121.088 553.928 123.349 551.48 129.905 549.643C144.518 545.546 160.527 552.067 175.081 557.097C183.662 560.063 186.936 561.115 192.153 564.293C197.37 567.471 195.774 568.785 195.774 568.785C195.774 568.785 194.682 570.405 186.629 568.159C179.897 566.281 173.217 564.464 168.682 564.421" stroke="#2E4166" stroke-miterlimit="10" stroke-linecap="round"/>
<path d="M168.448 562.063C179.667 566.457 185.212 573.208 185.212 573.208C185.212 573.208 196.074 587.185 190.654 585.741C187.367 584.866 185.141 581.666 178.992 576.958C178.024 576.217 176.748 575.334 175.37 574.422C171.068 571.573 165.776 568.439 165.776 568.439" fill="#FFC6B2"/>
<path d="M168.448 562.063C179.667 566.457 185.212 573.208 185.212 573.208C185.212 573.208 196.074 587.185 190.654 585.741C187.367 584.866 185.141 581.666 178.992 576.958C178.024 576.217 176.748 575.334 175.37 574.422C171.068 571.573 165.776 568.439 165.776 568.439" stroke="#2E4166" stroke-miterlimit="10" stroke-linecap="round"/>
<path d="M166.654 567.219C170.788 570.138 172.957 572.018 176.332 575.864C179.749 579.753 184.413 588.058 182.336 589.62C180.425 591.056 173.274 580.864 167.682 577.2C164.6 575.182 163.278 573.637 159.868 572.322" fill="#FFC6B2"/>
<path d="M166.654 567.219C170.788 570.138 172.957 572.018 176.332 575.864C179.749 579.753 184.413 588.058 182.336 589.62C180.425 591.056 173.274 580.864 167.682 577.2C164.6 575.182 163.278 573.637 159.868 572.322" stroke="#2E4166" stroke-miterlimit="10" stroke-linecap="round"/>
<path d="M159.96 572.339C164.812 574.895 170.645 581.656 170.645 581.656C170.645 581.656 173.72 585.123 175.381 587.351C177.737 590.509 176.733 593.273 173.036 590.675C167.202 586.578 161.819 581.501 155.315 578.735C149.403 576.223 142.621 577.591 136.28 576.954C134.549 576.779 132.897 576.102 131.205 575.677" fill="#FFC6B2"/>
<path d="M159.96 572.339C164.812 574.895 170.645 581.656 170.645 581.656C170.645 581.656 173.72 585.123 175.381 587.351C177.737 590.509 176.733 593.273 173.036 590.675C167.202 586.578 161.819 581.501 155.315 578.735C149.403 576.223 142.621 577.591 136.28 576.954C134.549 576.779 132.897 576.102 131.205 575.677" stroke="#2E4166" stroke-miterlimit="10" stroke-linecap="round"/>
<path d="M132.661 600.909C134.396 593.939 134.033 588.471 134.033 588.471C127.409 581.437 112.364 578.893 106.049 578.714C106.049 578.714 102.035 582.965 100.771 589.221C86.5507 595.977 49.731 630.697 50.9459 681.652C52.4644 745.344 103.229 721.218 112.232 712.104C143.471 680.193 139.458 625.027 132.661 600.909Z" fill="#FF9603"/>
<path d="M166.654 567.225C170.789 570.144 172.957 572.024 176.333 575.87C179.749 579.759 184.414 588.064 182.336 589.626C180.426 591.061 173.275 580.87 167.683 577.206C164.6 575.188 163.278 573.643 159.869 572.328" fill="#FFC6B2"/>
<path d="M166.654 567.225C170.789 570.144 172.957 572.024 176.333 575.87C179.749 579.759 184.414 588.064 182.336 589.626C180.426 591.061 173.275 580.87 167.683 577.206C164.6 575.188 163.278 573.643 159.869 572.328" stroke="#2E4166" stroke-miterlimit="10" stroke-linecap="round"/>
<path d="M100.772 589.227C102.036 582.971 106.05 578.72 106.05 578.72C112.364 578.899 127.409 581.443 134.034 588.477C134.034 588.477 134.397 593.945 132.662 600.915C139.459 625.033 143.472 680.199 112.233 712.11C103.23 721.224 52.4654 745.35 50.9468 681.657M100.772 589.227C103.351 588.869 110.968 589.634 117.043 593.838M100.772 589.227C94.6615 592.13 84.3783 600.196 74.7329 612.495C72.0955 616.212 66.6906 626.735 66.1699 639.088" stroke="#2E4166" stroke-miterlimit="10" stroke-linecap="round"/>
<path d="M82.8217 485.149C130.869 478.266 156.94 469.549 195.827 449.215C212.065 440.724 226.399 432.683 239.751 426.895C241.412 426.251 242.942 425.61 244.317 424.992C242.807 425.595 241.286 426.23 239.751 426.895C232.17 429.839 221.883 432.86 211.371 434.064C205.074 434.786 198.695 434.855 192.771 433.864C186.231 432.77 180.244 430.385 175.527 426.16C174.938 425.632 174.356 425.107 173.783 424.586C160.002 412.059 150.721 401.644 133.713 395.745C124.911 392.691 114.039 390.848 99.4035 390.547C97.4075 389.845 90.9859 389.881 81.2665 395.635C71.5472 401.39 62.1547 408.83 58.6734 411.831C59.6702 412.121 63.8502 412.221 72.5949 410.308C77.9298 409.14 82.5387 406.978 86.6576 406.211C90.978 405.406 94.7592 406.136 98.2739 411.159C103.152 418.131 110.231 427.479 113.183 439.772C113.677 441.828 114.055 443.966 114.288 446.189C114.623 449.382 114.659 452.75 114.308 456.301C114.071 458.323 112.656 461.738 109.127 465.03C106.225 467.738 101.894 470.363 95.6125 472.063C78.2129 476.771 49.4157 489.125 39.6826 496.228C46.712 491.94 59.554 488.482 82.8217 485.149Z" fill="#333537"/>
<path d="M195.827 449.215C156.94 469.549 130.869 478.266 82.8217 485.149C59.554 488.482 46.712 491.94 39.6826 496.228C49.4157 489.125 78.2129 476.771 95.6125 472.063C101.894 470.363 106.225 467.738 109.127 465.03C112.656 461.738 114.071 458.323 114.308 456.301C114.659 452.75 114.623 449.382 114.288 446.189C114.055 443.966 113.677 441.828 113.183 439.772C110.231 427.479 103.152 418.131 98.2739 411.159C94.7592 406.136 90.978 405.406 86.6576 406.211C82.5387 406.978 77.9298 409.14 72.5948 410.308C63.8502 412.221 59.6702 412.121 58.6734 411.831C62.1547 408.83 71.5472 401.39 81.2665 395.635C90.9858 389.881 97.4075 389.845 99.4035 390.547C114.039 390.848 124.911 392.691 133.713 395.745C150.721 401.644 160.002 412.059 173.783 424.586C174.356 425.107 174.938 425.632 175.527 426.16C180.244 430.385 186.231 432.77 192.771 433.864C198.695 434.855 205.074 434.786 211.371 434.064C224.185 432.596 236.666 428.428 244.317 424.992C229.668 430.841 213.932 439.749 195.827 449.215Z" stroke="#2E4166"/>
<path d="M175.527 426.161C180.243 430.386 186.23 432.771 192.77 433.865C189.929 435.624 186.436 437.673 182.467 439.865C162.584 450.844 130.753 465.4 109.127 465.032C112.656 461.739 114.071 458.324 114.308 456.302C114.658 452.751 114.623 449.383 114.288 446.19C122.096 448.664 147.725 437.572 165.137 428.988C168.354 427.401 171.291 425.901 173.783 424.587C174.356 425.108 174.937 425.633 175.527 426.161Z" fill="#FF9603"/>
<path d="M175.527 426.161C180.243 430.386 186.23 432.771 192.77 433.865C189.929 435.624 186.436 437.673 182.467 439.865C177.777 439.265 173.426 437.583 170.088 434.25C168.424 432.589 166.773 430.82 165.137 428.988C168.354 427.401 171.291 425.901 173.783 424.587C174.356 425.108 174.937 425.633 175.527 426.161Z" fill="#C18127"/>
<path d="M192.77 433.862C198.695 434.852 205.073 434.783 211.371 434.062C204.971 437.188 192.882 441.194 182.467 439.862C186.436 437.67 189.93 435.621 192.77 433.862Z" fill="#1B1C1D"/>
<path d="M133.713 395.742C150.72 401.642 160.002 412.057 173.783 424.584C171.291 425.897 168.354 427.398 165.137 428.984C153.559 416.018 142.746 399.848 133.713 395.742Z" fill="#1B1C1D"/>
<path d="M113.183 439.77C110.231 427.477 103.152 418.129 98.2735 411.157C94.7588 406.134 90.9776 405.403 86.6572 406.208C91.7797 404.895 103.933 405.067 111.566 416.263C119.2 427.459 115.824 436.6 113.183 439.77Z" fill="#1B1C1D"/>
<path d="M117.779 557.396C120.967 553.733 123.229 551.285 129.784 549.448C144.398 545.352 160.406 551.873 174.96 556.903C183.542 559.868 186.815 560.921 192.032 564.099C197.25 567.276 195.653 568.59 195.653 568.59C195.653 568.59 194.561 570.211 186.508 567.964C182.482 566.841 178.473 565.74 174.932 565.027C181.726 568.915 185.092 573.014 185.092 573.014C185.092 573.014 195.954 586.99 190.534 585.547C187.247 584.671 185.021 581.472 178.872 576.764C177.904 576.022 176.628 575.14 175.25 574.227C174.965 574.039 174.677 573.849 174.385 573.659C174.964 574.272 175.565 574.935 176.21 575.67C179.627 579.559 184.292 587.865 182.214 589.426C180.303 590.862 173.153 580.671 167.561 577.007C164.478 574.988 163.248 573.459 159.839 572.145C164.691 574.7 170.524 581.462 170.524 581.462C170.524 581.462 173.599 584.929 175.261 587.156C177.616 590.314 176.613 593.078 172.915 590.481C167.081 586.384 161.699 581.307 155.194 578.54C149.344 576.054 142.642 577.369 136.357 576.778C135.561 577.914 134.907 580.098 134.377 582.7L135.408 584.936C134.721 584.9 133.282 584.657 133.021 583.971C132.696 583.113 133.672 581.612 132.479 581.612C131.286 581.612 131.394 583.359 130.201 582.7C129.008 582.041 128.9 581.505 128.9 580.754C128.9 580.228 128.9 579.487 128.676 579.13C128.534 579.063 128.392 578.997 128.249 578.931C127.959 578.899 127.403 579.253 127.056 580.111C126.405 580.111 125.343 579.789 125.343 577.859C124.823 577.652 124.018 577.966 123.368 577.859C122.717 577.752 123.151 579.253 122.283 579.253C121.415 579.253 120.981 578.395 120.981 577.001C120.981 575.607 118.486 575.178 119.029 576.465C119.571 577.752 117.727 577.645 117.402 577.645C117.076 577.645 116.642 576.787 116.1 575.714C115.558 574.642 114.039 575.607 113.931 575.929C113.822 576.251 113.388 576.465 112.737 576.143C112.087 575.822 112.521 574.213 112.087 574.106C111.653 573.999 110.676 574.642 109.917 575.178C109.158 575.714 106.663 574.428 107.422 574.428C108.03 574.428 108.905 573.471 109.266 572.992C112.04 566.913 115.425 560.1 117.779 557.396Z" fill="#F4F4F4" fill-opacity="0.81"/>
<path d="M109.266 572.992C112.04 566.913 115.425 560.1 117.779 557.396C120.967 553.733 123.229 551.285 129.784 549.448C144.398 545.352 160.406 551.873 174.96 556.903C183.542 559.868 186.815 560.921 192.032 564.099C197.25 567.276 195.653 568.59 195.653 568.59C195.653 568.59 194.561 570.211 186.508 567.964C182.482 566.841 178.473 565.74 174.932 565.027M109.266 572.992C108.905 573.471 108.03 574.428 107.422 574.428C106.663 574.428 109.158 575.714 109.917 575.178C110.676 574.642 111.653 573.999 112.087 574.106C112.521 574.213 112.087 575.822 112.737 576.143C113.388 576.465 113.822 576.251 113.931 575.929C114.039 575.607 115.558 574.642 116.1 575.714C116.642 576.787 117.076 577.645 117.402 577.645C117.727 577.645 119.571 577.752 119.029 576.465C118.486 575.178 120.981 575.607 120.981 577.001C120.981 578.395 121.415 579.253 122.283 579.253C123.151 579.253 122.717 577.752 123.368 577.859C124.018 577.966 124.823 577.652 125.343 577.859C125.343 579.789 126.405 580.111 127.056 580.111C127.403 579.253 127.959 578.899 128.249 578.931M109.266 572.992C110.702 573.311 112.54 573.764 114.581 574.327M134.377 582.7C134.907 580.098 135.561 577.914 136.357 576.778M134.377 582.7L135.408 584.936C134.721 584.9 133.282 584.657 133.021 583.971C132.696 583.113 133.672 581.612 132.479 581.612C131.286 581.612 131.394 583.359 130.201 582.7C129.008 582.041 128.9 581.505 128.9 580.754C128.9 580.004 128.9 578.814 128.249 578.931M134.377 582.7C132.918 581.452 130.686 580.045 128.249 578.931M168.328 561.869C170.805 562.839 173.006 563.924 174.932 565.027M136.159 576.759C136.225 576.766 136.291 576.772 136.357 576.778M136.159 576.759C134.571 576.59 131.221 576.036 130.527 575.178M136.159 576.759C134.788 576.865 132.023 577.369 131.937 578.54M174.385 573.659C174.964 574.272 175.565 574.935 176.21 575.67C179.627 579.559 184.292 587.865 182.214 589.426C180.303 590.862 173.153 580.671 167.561 577.007C164.478 574.988 163.248 573.459 159.839 572.145C164.691 574.7 170.524 581.462 170.524 581.462C170.524 581.462 173.599 584.929 175.261 587.156C177.616 590.314 176.613 593.078 172.915 590.481C167.081 586.384 161.699 581.307 155.194 578.54C149.344 576.054 142.642 577.369 136.357 576.778M174.385 573.659C174.677 573.849 174.965 574.039 175.25 574.227C176.628 575.14 177.904 576.022 178.872 576.764C185.021 581.472 187.247 584.671 190.534 585.547C195.954 586.99 185.092 573.014 185.092 573.014C185.092 573.014 181.726 568.915 174.932 565.027M174.385 573.659C172.049 571.188 170.069 569.545 166.992 567.351" stroke="#2E4166" stroke-miterlimit="10" stroke-linecap="round"/>
<path d="M129.626 549.448C144.24 545.352 160.248 551.873 174.802 556.903C183.384 559.868 186.657 560.921 191.874 564.099C197.092 567.276 195.495 568.59 195.495 568.59C195.495 568.59 194.403 570.211 186.35 567.964C182.324 566.841 178.315 565.74 174.774 565.027C181.568 568.915 184.934 573.014 184.934 573.014C184.934 573.014 195.796 586.99 190.376 585.547C187.089 584.671 184.863 581.472 178.714 576.764C177.746 576.022 176.47 575.14 175.092 574.227C174.807 574.039 174.519 573.849 174.227 573.659C174.806 574.272 175.407 574.935 176.052 575.67C179.469 579.559 184.134 587.865 182.056 589.426C182.056 587.053 179.797 584.936 177.411 581.612C175.502 578.953 174.493 575.202 174.227 573.659C174.519 573.849 174.807 574.039 175.092 574.227C176.47 575.14 177.746 576.022 178.714 576.764C184.863 581.472 187.089 584.671 190.376 585.547C190.376 580.613 182.056 575.929 182.056 573.659C182.056 571.844 172.798 565.042 168.17 561.869C170.647 562.839 172.848 563.924 174.774 565.027C178.315 565.74 182.324 566.841 186.35 567.964C194.403 570.211 195.495 568.59 195.495 568.59C190.583 564.167 159.681 554.591 147.256 552.339C137.317 550.538 131.361 549.661 129.626 549.448Z" fill="white" fill-opacity="0.65"/>
<path d="M109.266 572.992C112.04 566.913 115.425 560.1 117.779 557.396C120.967 553.733 123.229 551.285 129.784 549.448C144.398 545.352 160.406 551.873 174.96 556.903C183.542 559.868 186.815 560.921 192.032 564.099C197.25 567.276 195.653 568.59 195.653 568.59C195.653 568.59 194.561 570.211 186.508 567.964C182.482 566.841 178.473 565.74 174.932 565.027M109.266 572.992C108.905 573.471 108.03 574.428 107.422 574.428C106.663 574.428 109.158 575.714 109.917 575.178C110.676 574.642 111.653 573.999 112.087 574.106C112.521 574.213 112.087 575.822 112.737 576.143C113.388 576.465 113.822 576.251 113.931 575.929C114.039 575.607 115.558 574.642 116.1 575.714C116.642 576.787 117.076 577.645 117.402 577.645C117.727 577.645 119.571 577.752 119.029 576.465C118.486 575.178 120.981 575.607 120.981 577.001C120.981 578.395 121.415 579.253 122.283 579.253C123.151 579.253 122.717 577.752 123.368 577.859C124.018 577.966 124.823 577.652 125.343 577.859C125.343 579.789 126.405 580.111 127.056 580.111C127.403 579.253 127.959 578.899 128.249 578.931M109.266 572.992C110.702 573.311 112.54 573.764 114.581 574.327M134.377 582.7C134.907 580.098 135.561 577.914 136.357 576.778M134.377 582.7L135.408 584.936C134.721 584.9 133.282 584.657 133.021 583.971C132.696 583.113 133.672 581.612 132.479 581.612C131.286 581.612 131.394 583.359 130.201 582.7C129.008 582.041 128.9 581.505 128.9 580.754C128.9 580.004 128.9 578.814 128.249 578.931M134.377 582.7C132.918 581.452 130.686 580.045 128.249 578.931M168.328 561.869C170.805 562.839 173.006 563.924 174.932 565.027M136.159 576.759C136.225 576.766 136.291 576.772 136.357 576.778M136.159 576.759C134.571 576.59 131.221 576.036 130.527 575.178M136.159 576.759C134.788 576.865 132.023 577.369 131.937 578.54M174.385 573.659C174.964 574.272 175.565 574.935 176.21 575.67C179.627 579.559 184.292 587.865 182.214 589.426C180.303 590.862 173.153 580.671 167.561 577.007C164.478 574.988 163.248 573.459 159.839 572.145C164.691 574.7 170.524 581.462 170.524 581.462C170.524 581.462 173.599 584.929 175.261 587.156C177.616 590.314 176.613 593.078 172.915 590.481C167.081 586.384 161.699 581.307 155.194 578.54C149.344 576.054 142.642 577.369 136.357 576.778M174.385 573.659C174.677 573.849 174.965 574.039 175.25 574.227C176.628 575.14 177.904 576.022 178.872 576.764C185.021 581.472 187.247 584.671 190.534 585.547C195.954 586.99 185.092 573.014 185.092 573.014C185.092 573.014 181.726 568.915 174.932 565.027M174.385 573.659C172.049 571.188 170.069 569.545 166.992 567.351" stroke="#2E4166" stroke-miterlimit="10" stroke-linecap="round"/>
<path d="M62.8465 765.879C62.8465 765.879 62.3842 755.294 60.1874 753.05C57.9875 750.81 51 750.114 51 750.114C51 750.114 58.0651 750.231 60.2619 747.987C62.4618 745.747 62.3128 734 62.3128 734C62.3128 734 62.7069 745.75 64.9037 747.993C67.1035 750.234 73.8863 750.395 73.8863 750.395C73.8863 750.395 67.178 750.743 64.9781 752.987C62.7813 755.227 62.8465 765.879 62.8465 765.879Z" fill="#FDFB90" stroke="#FDFB90" stroke-miterlimit="10"/>
<path d="M181.648 175.455H183.409V185.852C183.409 186.78 183.239 187.569 182.898 188.217C182.557 188.866 182.076 189.358 181.456 189.695C180.836 190.031 180.104 190.199 179.262 190.199C178.466 190.199 177.758 190.054 177.138 189.766C176.518 189.472 176.03 189.055 175.675 188.516C175.32 187.976 175.142 187.334 175.142 186.591H176.875C176.875 187.003 176.977 187.363 177.181 187.67C177.389 187.973 177.673 188.21 178.033 188.381C178.393 188.551 178.802 188.636 179.262 188.636C179.768 188.636 180.199 188.53 180.554 188.317C180.909 188.104 181.179 187.791 181.364 187.379C181.553 186.963 181.648 186.454 181.648 185.852V175.455ZM194.894 179.091C194.808 178.371 194.463 177.812 193.857 177.415C193.251 177.017 192.507 176.818 191.627 176.818C190.983 176.818 190.419 176.922 189.936 177.131C189.458 177.339 189.084 177.625 188.814 177.99C188.549 178.355 188.416 178.769 188.416 179.233C188.416 179.621 188.509 179.955 188.693 180.234C188.883 180.509 189.124 180.739 189.418 180.923C189.711 181.103 190.019 181.252 190.341 181.371C190.663 181.484 190.959 181.577 191.229 181.648L192.706 182.045C193.085 182.145 193.506 182.282 193.97 182.457C194.439 182.633 194.887 182.872 195.313 183.175C195.744 183.473 196.099 183.857 196.378 184.325C196.657 184.794 196.797 185.369 196.797 186.051C196.797 186.837 196.591 187.547 196.179 188.182C195.772 188.816 195.175 189.321 194.389 189.695C193.608 190.069 192.659 190.256 191.541 190.256C190.5 190.256 189.598 190.088 188.835 189.751C188.078 189.415 187.481 188.946 187.046 188.345C186.615 187.744 186.371 187.045 186.314 186.25H188.132C188.18 186.799 188.364 187.254 188.686 187.614C189.013 187.969 189.425 188.234 189.922 188.409C190.424 188.58 190.964 188.665 191.541 188.665C192.214 188.665 192.817 188.556 193.352 188.338C193.887 188.116 194.311 187.808 194.624 187.415C194.936 187.017 195.093 186.553 195.093 186.023C195.093 185.54 194.958 185.147 194.688 184.844C194.418 184.541 194.063 184.295 193.622 184.105C193.182 183.916 192.706 183.75 192.195 183.608L190.405 183.097C189.269 182.77 188.369 182.304 187.706 181.697C187.043 181.091 186.712 180.298 186.712 179.318C186.712 178.504 186.932 177.794 187.372 177.188C187.817 176.577 188.414 176.103 189.162 175.767C189.915 175.426 190.755 175.256 191.683 175.256C192.621 175.256 193.454 175.424 194.183 175.76C194.913 176.091 195.49 176.546 195.916 177.124C196.347 177.701 196.575 178.357 196.598 179.091H194.894ZM211.966 182.727C211.966 184.261 211.689 185.587 211.135 186.705C210.581 187.822 209.821 188.684 208.855 189.29C207.889 189.896 206.786 190.199 205.545 190.199C204.305 190.199 203.202 189.896 202.236 189.29C201.27 188.684 200.51 187.822 199.956 186.705C199.402 185.587 199.125 184.261 199.125 182.727C199.125 181.193 199.402 179.867 199.956 178.75C200.51 177.633 201.27 176.771 202.236 176.165C203.202 175.559 204.305 175.256 205.545 175.256C206.786 175.256 207.889 175.559 208.855 176.165C209.821 176.771 210.581 177.633 211.135 178.75C211.689 179.867 211.966 181.193 211.966 182.727ZM210.261 182.727C210.261 181.468 210.05 180.405 209.629 179.538C209.212 178.672 208.647 178.016 207.932 177.571C207.221 177.126 206.426 176.903 205.545 176.903C204.665 176.903 203.867 177.126 203.152 177.571C202.442 178.016 201.876 178.672 201.454 179.538C201.038 180.405 200.829 181.468 200.829 182.727C200.829 183.987 201.038 185.05 201.454 185.916C201.876 186.783 202.442 187.438 203.152 187.884C203.867 188.329 204.665 188.551 205.545 188.551C206.426 188.551 207.221 188.329 207.932 187.884C208.647 187.438 209.212 186.783 209.629 185.916C210.05 185.05 210.261 183.987 210.261 182.727ZM226.461 175.455V190H224.757L216.831 178.58H216.689V190H214.927V175.455H216.632L224.586 186.903H224.729V175.455H226.461ZM229.389 187.017V185.568L235.781 175.455H236.833V177.699H236.122L231.293 185.341V185.455H239.901V187.017H229.389ZM236.236 190V186.577V185.902V175.455H237.912V190H236.236ZM183.922 214V199.455H188.836C189.977 199.455 190.91 199.661 191.635 200.072C192.364 200.48 192.904 201.031 193.254 201.727C193.604 202.423 193.779 203.2 193.779 204.057C193.779 204.914 193.604 205.693 193.254 206.393C192.908 207.094 192.373 207.653 191.649 208.07C190.924 208.482 189.996 208.688 188.865 208.688H185.342V207.125H188.808C189.589 207.125 190.217 206.99 190.69 206.72C191.163 206.45 191.507 206.086 191.72 205.626C191.938 205.162 192.047 204.639 192.047 204.057C192.047 203.474 191.938 202.954 191.72 202.494C191.507 202.035 191.161 201.675 190.683 201.415C190.205 201.15 189.57 201.017 188.779 201.017H185.683V214H183.922ZM196.39 214V203.091H198.009V204.739H198.123C198.321 204.199 198.681 203.761 199.202 203.425C199.723 203.089 200.31 202.92 200.963 202.92C201.087 202.92 201.24 202.923 201.425 202.928C201.61 202.932 201.749 202.939 201.844 202.949V204.653C201.787 204.639 201.657 204.618 201.453 204.589C201.255 204.556 201.044 204.54 200.821 204.54C200.291 204.54 199.818 204.651 199.401 204.874C198.989 205.091 198.662 205.394 198.421 205.783C198.184 206.166 198.066 206.604 198.066 207.097V214H196.39ZM208.073 214.227C207.022 214.227 206.115 213.995 205.353 213.531C204.595 213.062 204.01 212.409 203.598 211.571C203.191 210.728 202.988 209.748 202.988 208.631C202.988 207.513 203.191 206.528 203.598 205.676C204.01 204.819 204.583 204.152 205.317 203.673C206.056 203.19 206.917 202.949 207.902 202.949C208.471 202.949 209.032 203.044 209.586 203.233C210.14 203.422 210.644 203.73 211.098 204.156C211.553 204.578 211.915 205.136 212.185 205.832C212.455 206.528 212.59 207.385 212.59 208.403V209.114H204.181V207.665H210.885C210.885 207.049 210.762 206.5 210.516 206.017C210.275 205.534 209.929 205.153 209.479 204.874C209.034 204.594 208.508 204.455 207.902 204.455C207.235 204.455 206.657 204.62 206.169 204.952C205.686 205.278 205.315 205.705 205.054 206.23C204.794 206.756 204.664 207.319 204.664 207.92V208.886C204.664 209.71 204.806 210.409 205.09 210.982C205.379 211.55 205.779 211.983 206.29 212.281C206.801 212.575 207.396 212.722 208.073 212.722C208.513 212.722 208.911 212.66 209.266 212.537C209.626 212.409 209.936 212.22 210.196 211.969C210.457 211.713 210.658 211.396 210.8 211.017L212.419 211.472C212.249 212.021 211.962 212.504 211.56 212.92C211.158 213.332 210.66 213.654 210.069 213.886C209.477 214.114 208.811 214.227 208.073 214.227ZM214.948 199.455L219.266 211.699H219.436L223.755 199.455H225.601L220.26 214H218.442L213.101 199.455H214.948ZM232.526 214.199C231.588 214.199 230.753 214.038 230.019 213.716C229.29 213.394 228.71 212.946 228.279 212.374C227.853 211.796 227.621 211.126 227.583 210.364H229.373C229.41 210.832 229.571 211.237 229.855 211.578C230.14 211.914 230.511 212.175 230.971 212.359C231.43 212.544 231.939 212.636 232.498 212.636C233.123 212.636 233.676 212.527 234.159 212.31C234.642 212.092 235.021 211.789 235.296 211.401C235.57 211.012 235.708 210.562 235.708 210.051C235.708 209.516 235.575 209.045 235.31 208.638C235.045 208.226 234.657 207.904 234.145 207.672C233.634 207.44 233.009 207.324 232.27 207.324H231.105V205.761H232.27C232.848 205.761 233.355 205.657 233.79 205.449C234.23 205.241 234.574 204.947 234.82 204.568C235.071 204.189 235.196 203.744 235.196 203.233C235.196 202.741 235.087 202.312 234.87 201.947C234.652 201.583 234.344 201.299 233.946 201.095C233.553 200.892 233.089 200.79 232.554 200.79C232.052 200.79 231.579 200.882 231.134 201.067C230.694 201.247 230.334 201.509 230.054 201.855C229.775 202.196 229.623 202.608 229.6 203.091H227.895C227.924 202.329 228.153 201.661 228.584 201.088C229.015 200.51 229.578 200.061 230.275 199.739C230.975 199.417 231.745 199.256 232.583 199.256C233.482 199.256 234.254 199.438 234.898 199.803C235.542 200.162 236.037 200.638 236.382 201.23C236.728 201.822 236.901 202.461 236.901 203.148C236.901 203.967 236.685 204.665 236.255 205.243C235.828 205.821 235.248 206.221 234.515 206.443V206.557C235.433 206.708 236.15 207.099 236.667 207.729C237.183 208.354 237.441 209.128 237.441 210.051C237.441 210.842 237.225 211.552 236.794 212.182C236.368 212.807 235.786 213.299 235.047 213.659C234.309 214.019 233.468 214.199 232.526 214.199ZM182.96 227.091C182.875 226.371 182.529 225.812 181.923 225.415C181.317 225.017 180.574 224.818 179.693 224.818C179.049 224.818 178.486 224.922 178.003 225.131C177.524 225.339 177.15 225.625 176.881 225.99C176.615 226.355 176.483 226.769 176.483 227.233C176.483 227.621 176.575 227.955 176.76 228.234C176.949 228.509 177.191 228.739 177.484 228.923C177.778 229.103 178.086 229.252 178.407 229.371C178.729 229.484 179.025 229.577 179.295 229.648L180.773 230.045C181.151 230.145 181.573 230.282 182.037 230.457C182.506 230.633 182.953 230.872 183.379 231.175C183.81 231.473 184.165 231.857 184.444 232.325C184.724 232.794 184.863 233.369 184.863 234.051C184.863 234.837 184.657 235.547 184.246 236.182C183.838 236.816 183.242 237.321 182.456 237.695C181.675 238.069 180.725 238.256 179.608 238.256C178.566 238.256 177.664 238.088 176.902 237.751C176.144 237.415 175.548 236.946 175.112 236.345C174.681 235.744 174.437 235.045 174.381 234.25H176.199C176.246 234.799 176.431 235.254 176.753 235.614C177.079 235.969 177.491 236.234 177.988 236.409C178.49 236.58 179.03 236.665 179.608 236.665C180.28 236.665 180.884 236.556 181.419 236.338C181.954 236.116 182.378 235.808 182.69 235.415C183.003 235.017 183.159 234.553 183.159 234.023C183.159 233.54 183.024 233.147 182.754 232.844C182.484 232.541 182.129 232.295 181.689 232.105C181.248 231.916 180.773 231.75 180.261 231.608L178.471 231.097C177.335 230.77 176.435 230.304 175.773 229.697C175.11 229.091 174.778 228.298 174.778 227.318C174.778 226.504 174.998 225.794 175.439 225.188C175.884 224.577 176.48 224.103 177.229 223.767C177.981 223.426 178.822 223.256 179.75 223.256C180.687 223.256 181.521 223.424 182.25 223.76C182.979 224.091 183.557 224.546 183.983 225.124C184.414 225.701 184.641 226.357 184.665 227.091H182.96ZM191.964 238.227C190.941 238.227 190.061 237.986 189.322 237.503C188.583 237.02 188.015 236.355 187.617 235.507C187.22 234.66 187.021 233.691 187.021 232.602C187.021 231.494 187.224 230.517 187.632 229.669C188.044 228.817 188.616 228.152 189.35 227.673C190.089 227.19 190.951 226.949 191.936 226.949C192.703 226.949 193.394 227.091 194.009 227.375C194.625 227.659 195.129 228.057 195.522 228.568C195.915 229.08 196.159 229.676 196.254 230.358H194.578C194.45 229.861 194.166 229.42 193.725 229.037C193.29 228.649 192.703 228.455 191.964 228.455C191.311 228.455 190.738 228.625 190.245 228.966C189.758 229.302 189.376 229.778 189.102 230.393C188.832 231.004 188.697 231.722 188.697 232.545C188.697 233.388 188.829 234.122 189.095 234.747C189.365 235.372 189.743 235.857 190.231 236.203C190.723 236.549 191.301 236.722 191.964 236.722C192.4 236.722 192.795 236.646 193.15 236.494C193.505 236.343 193.806 236.125 194.052 235.841C194.298 235.557 194.473 235.216 194.578 234.818H196.254C196.159 235.462 195.925 236.042 195.551 236.558C195.181 237.07 194.691 237.477 194.08 237.78C193.474 238.078 192.769 238.227 191.964 238.227ZM198.704 238V227.091H200.323V228.739H200.437C200.636 228.199 200.996 227.761 201.517 227.425C202.037 227.089 202.624 226.92 203.278 226.92C203.401 226.92 203.555 226.923 203.74 226.928C203.924 226.932 204.064 226.939 204.159 226.949V228.653C204.102 228.639 203.972 228.618 203.768 228.589C203.569 228.556 203.358 228.54 203.136 228.54C202.606 228.54 202.132 228.651 201.715 228.874C201.303 229.091 200.977 229.394 200.735 229.783C200.499 230.166 200.38 230.604 200.38 231.097V238H198.704ZM210.387 238.227C209.336 238.227 208.429 237.995 207.667 237.531C206.91 237.062 206.325 236.409 205.913 235.571C205.506 234.728 205.302 233.748 205.302 232.631C205.302 231.513 205.506 230.528 205.913 229.676C206.325 228.819 206.898 228.152 207.632 227.673C208.37 227.19 209.232 226.949 210.217 226.949C210.785 226.949 211.346 227.044 211.9 227.233C212.454 227.422 212.958 227.73 213.413 228.156C213.867 228.578 214.23 229.136 214.499 229.832C214.769 230.528 214.904 231.385 214.904 232.403V233.114H206.495V231.665H213.2C213.2 231.049 213.077 230.5 212.83 230.017C212.589 229.534 212.243 229.153 211.794 228.874C211.348 228.594 210.823 228.455 210.217 228.455C209.549 228.455 208.972 228.62 208.484 228.952C208.001 229.278 207.629 229.705 207.369 230.23C207.108 230.756 206.978 231.319 206.978 231.92V232.886C206.978 233.71 207.12 234.409 207.404 234.982C207.693 235.55 208.093 235.983 208.605 236.281C209.116 236.575 209.71 236.722 210.387 236.722C210.828 236.722 211.225 236.66 211.58 236.537C211.94 236.409 212.25 236.22 212.511 235.969C212.771 235.713 212.972 235.396 213.115 235.017L214.734 235.472C214.563 236.021 214.277 236.504 213.874 236.92C213.472 237.332 212.975 237.654 212.383 237.886C211.791 238.114 211.126 238.227 210.387 238.227ZM222.028 238.227C220.977 238.227 220.07 237.995 219.308 237.531C218.55 237.062 217.965 236.409 217.553 235.571C217.146 234.728 216.943 233.748 216.943 232.631C216.943 231.513 217.146 230.528 217.553 229.676C217.965 228.819 218.538 228.152 219.272 227.673C220.011 227.19 220.873 226.949 221.857 226.949C222.426 226.949 222.987 227.044 223.541 227.233C224.095 227.422 224.599 227.73 225.053 228.156C225.508 228.578 225.87 229.136 226.14 229.832C226.41 230.528 226.545 231.385 226.545 232.403V233.114H218.136V231.665H224.84C224.84 231.049 224.717 230.5 224.471 230.017C224.23 229.534 223.884 229.153 223.434 228.874C222.989 228.594 222.463 228.455 221.857 228.455C221.19 228.455 220.612 228.62 220.124 228.952C219.642 229.278 219.27 229.705 219.009 230.23C218.749 230.756 218.619 231.319 218.619 231.92V232.886C218.619 233.71 218.761 234.409 219.045 234.982C219.334 235.55 219.734 235.983 220.245 236.281C220.757 236.575 221.351 236.722 222.028 236.722C222.468 236.722 222.866 236.66 223.221 236.537C223.581 236.409 223.891 236.22 224.151 235.969C224.412 235.713 224.613 235.396 224.755 235.017L226.374 235.472C226.204 236.021 225.918 236.504 225.515 236.92C225.113 237.332 224.615 237.654 224.024 237.886C223.432 238.114 222.767 238.227 222.028 238.227ZM230.771 231.438V238H229.095V227.091H230.714V228.795H230.856C231.112 228.241 231.5 227.796 232.021 227.46C232.542 227.119 233.214 226.949 234.038 226.949C234.776 226.949 235.423 227.1 235.977 227.403C236.531 227.702 236.962 228.156 237.269 228.767C237.577 229.373 237.731 230.14 237.731 231.068V238H236.055V231.182C236.055 230.325 235.832 229.657 235.387 229.179C234.942 228.696 234.331 228.455 233.555 228.455C233.02 228.455 232.542 228.571 232.12 228.803C231.704 229.035 231.374 229.373 231.133 229.818C230.892 230.263 230.771 230.803 230.771 231.438ZM245.078 223.455V238H243.317V225.301H243.232L239.681 227.659V225.869L243.317 223.455H245.078Z" fill="white"/>
</g>
<defs>
<linearGradient id="paint0_linear_66_1104" x1="104.5" y1="-75" x2="-238.08" y2="583.793" gradientUnits="userSpaceOnUse">
<stop stop-color="#203D69"/>
<stop offset="0.901042" stop-color="#234B81"/>
</linearGradient>
<linearGradient id="paint1_linear_66_1104" x1="-123" y1="-3" x2="334.5" y2="809" gradientUnits="userSpaceOnUse">
<stop stop-color="#1A427D"/>
<stop offset="0.6537" stop-color="#6B61AE"/>
<stop offset="1" stop-color="#214984"/>
</linearGradient>
<clipPath id="clip0_66_1104">
<path d="M0 0H390V789C390 800.046 381.046 809 370 809H20C8.9543 809 0 800.046 0 789V0Z" fill="white"/>
</clipPath>
</defs>
</svg>
