<svg width="375" height="776" viewBox="0 0 375 776" fill="none" xmlns="http://www.w3.org/2000/svg">
<path d="M0 0H375V718.4C375 742.398 375 754.397 368.889 762.809C366.915 765.526 364.526 767.915 361.809 769.889C353.397 776 341.398 776 317.4 776H57.6C33.6017 776 21.6026 776 13.1909 769.889C10.4742 767.915 8.0852 765.526 6.11146 762.809C0 754.397 0 742.398 0 718.4V0Z" fill="#DADADA" fill-opacity="0.6"/>
<path d="M125.792 384.091C125.707 383.371 125.361 382.812 124.755 382.415C124.149 382.017 123.406 381.818 122.525 381.818C121.881 381.818 121.318 381.922 120.835 382.131C120.356 382.339 119.982 382.625 119.713 382.99C119.447 383.355 119.315 383.769 119.315 384.233C119.315 384.621 119.407 384.955 119.592 385.234C119.781 385.509 120.023 385.739 120.316 385.923C120.61 386.103 120.918 386.252 121.24 386.371C121.561 386.484 121.857 386.577 122.127 386.648L123.605 387.045C123.983 387.145 124.405 387.282 124.869 387.457C125.338 387.633 125.785 387.872 126.211 388.175C126.642 388.473 126.997 388.857 127.276 389.325C127.556 389.794 127.695 390.369 127.695 391.051C127.695 391.837 127.49 392.547 127.078 393.182C126.67 393.816 126.074 394.321 125.288 394.695C124.507 395.069 123.557 395.256 122.44 395.256C121.398 395.256 120.496 395.088 119.734 394.751C118.976 394.415 118.38 393.946 117.944 393.345C117.513 392.744 117.269 392.045 117.213 391.25H119.031C119.078 391.799 119.263 392.254 119.585 392.614C119.911 392.969 120.323 393.234 120.82 393.409C121.322 393.58 121.862 393.665 122.44 393.665C123.112 393.665 123.716 393.556 124.251 393.338C124.786 393.116 125.21 392.808 125.522 392.415C125.835 392.017 125.991 391.553 125.991 391.023C125.991 390.54 125.856 390.147 125.586 389.844C125.316 389.541 124.961 389.295 124.521 389.105C124.08 388.916 123.605 388.75 123.093 388.608L121.303 388.097C120.167 387.77 119.267 387.304 118.605 386.697C117.942 386.091 117.61 385.298 117.61 384.318C117.61 383.504 117.83 382.794 118.271 382.188C118.716 381.577 119.312 381.103 120.061 380.767C120.813 380.426 121.654 380.256 122.582 380.256C123.519 380.256 124.353 380.424 125.082 380.76C125.811 381.091 126.389 381.546 126.815 382.124C127.246 382.701 127.473 383.357 127.497 384.091H125.792ZM131.188 380.455L135.506 392.699H135.677L139.995 380.455H141.841L136.501 395H134.682L129.341 380.455H131.188ZM153.367 385C153.21 384.522 153.004 384.093 152.749 383.714C152.498 383.331 152.197 383.004 151.847 382.734C151.501 382.464 151.108 382.259 150.668 382.116C150.227 381.974 149.744 381.903 149.219 381.903C148.357 381.903 147.574 382.126 146.868 382.571C146.163 383.016 145.602 383.672 145.185 384.538C144.768 385.405 144.56 386.468 144.56 387.727C144.56 388.987 144.771 390.05 145.192 390.916C145.613 391.783 146.184 392.438 146.904 392.884C147.623 393.329 148.433 393.551 149.333 393.551C150.166 393.551 150.9 393.374 151.534 393.018C152.173 392.659 152.671 392.152 153.026 391.499C153.386 390.84 153.566 390.066 153.566 389.176L154.105 389.29H149.73V387.727H155.27V389.29C155.27 390.488 155.014 391.529 154.503 392.415C153.996 393.3 153.296 393.987 152.401 394.474C151.511 394.957 150.488 395.199 149.333 395.199C148.045 395.199 146.913 394.896 145.938 394.29C144.967 393.684 144.209 392.822 143.665 391.705C143.125 390.587 142.855 389.261 142.855 387.727C142.855 386.577 143.009 385.542 143.317 384.624C143.629 383.7 144.07 382.914 144.638 382.266C145.206 381.617 145.878 381.12 146.655 380.774C147.432 380.429 148.286 380.256 149.219 380.256C149.986 380.256 150.701 380.372 151.364 380.604C152.031 380.831 152.626 381.155 153.146 381.577C153.672 381.993 154.11 382.493 154.46 383.075C154.811 383.653 155.052 384.295 155.185 385H153.367ZM165.588 395V396.562H156.497V395H165.588ZM170.02 380.455V395H168.258V382.301H168.173L164.622 384.659V382.869L168.258 380.455H170.02ZM180.481 386.946V388.509H174.118V386.946H180.481ZM188.061 395.199C187.086 395.199 186.224 395.026 185.476 394.68C184.733 394.33 184.153 393.849 183.736 393.239C183.319 392.623 183.113 391.922 183.118 391.136C183.113 390.521 183.234 389.953 183.48 389.432C183.727 388.906 184.063 388.468 184.489 388.118C184.92 387.763 185.4 387.538 185.931 387.443V387.358C185.235 387.178 184.681 386.787 184.269 386.186C183.857 385.58 183.653 384.891 183.658 384.119C183.653 383.381 183.84 382.72 184.219 382.138C184.598 381.555 185.119 381.096 185.781 380.76C186.449 380.424 187.209 380.256 188.061 380.256C188.904 380.256 189.657 380.424 190.32 380.76C190.983 381.096 191.503 381.555 191.882 382.138C192.266 382.72 192.46 383.381 192.465 384.119C192.46 384.891 192.249 385.58 191.833 386.186C191.421 386.787 190.874 387.178 190.192 387.358V387.443C190.718 387.538 191.191 387.763 191.612 388.118C192.034 388.468 192.37 388.906 192.621 389.432C192.872 389.953 193 390.521 193.004 391.136C193 391.922 192.787 392.623 192.365 393.239C191.949 393.849 191.369 394.33 190.625 394.68C189.887 395.026 189.032 395.199 188.061 395.199ZM188.061 393.636C188.719 393.636 189.288 393.53 189.766 393.317C190.244 393.104 190.613 392.803 190.874 392.415C191.134 392.027 191.267 391.572 191.271 391.051C191.267 390.502 191.125 390.017 190.845 389.595C190.566 389.174 190.185 388.842 189.702 388.601C189.224 388.359 188.677 388.239 188.061 388.239C187.441 388.239 186.887 388.359 186.399 388.601C185.916 388.842 185.535 389.174 185.256 389.595C184.981 390.017 184.846 390.502 184.851 391.051C184.846 391.572 184.972 392.027 185.227 392.415C185.488 392.803 185.86 393.104 186.343 393.317C186.825 393.53 187.398 393.636 188.061 393.636ZM188.061 386.733C188.582 386.733 189.044 386.629 189.446 386.42C189.853 386.212 190.173 385.921 190.405 385.547C190.637 385.173 190.755 384.735 190.76 384.233C190.755 383.741 190.639 383.312 190.412 382.947C190.185 382.578 189.87 382.294 189.468 382.095C189.065 381.892 188.596 381.79 188.061 381.79C187.517 381.79 187.041 381.892 186.634 382.095C186.227 382.294 185.912 382.578 185.689 382.947C185.467 383.312 185.358 383.741 185.362 384.233C185.358 384.735 185.469 385.173 185.696 385.547C185.928 385.921 186.248 386.212 186.655 386.42C187.062 386.629 187.531 386.733 188.061 386.733ZM203.283 395V396.562H194.192V395H203.283ZM208.406 385.511C208.027 385.516 207.646 385.613 207.262 385.803C206.883 385.992 206.566 386.243 206.311 386.555C206.06 386.863 205.934 387.206 205.934 387.585H204.286C204.286 387.112 204.4 386.657 204.627 386.222C204.855 385.786 205.16 385.398 205.544 385.057C205.932 384.716 206.372 384.446 206.865 384.247C207.362 384.048 207.875 383.949 208.406 383.949C209.4 383.949 210.243 384.2 210.934 384.702C211.63 385.204 212.158 385.866 212.518 386.69C212.883 387.514 213.065 388.409 213.065 389.375V389.773C213.065 390.734 212.883 391.629 212.518 392.457C212.158 393.281 211.63 393.944 210.934 394.446C210.243 394.948 209.4 395.199 208.406 395.199C207.61 395.199 206.902 395.024 206.282 394.673C205.662 394.318 205.174 393.845 204.819 393.253C204.464 392.661 204.286 392.003 204.286 391.278H205.934C205.934 391.69 206.05 392.076 206.282 392.436C206.519 392.791 206.824 393.08 207.198 393.303C207.577 393.52 207.98 393.632 208.406 393.636C209.04 393.632 209.58 393.433 210.025 393.04C210.47 392.647 210.809 392.154 211.041 391.562C211.273 390.971 211.389 390.374 211.389 389.773V389.375C211.389 388.759 211.273 388.158 211.041 387.571C210.813 386.979 210.477 386.489 210.032 386.101C209.592 385.713 209.05 385.516 208.406 385.511ZM212.07 388.722V390.284H207.298V388.722H212.07ZM215.618 395V384.091H217.294V388.835H218.402L222.323 384.091H224.482L220.078 389.347L224.539 395H222.379L218.8 390.398H217.294V395H215.618ZM226.36 399.091V384.091H227.98V385.824H228.178C228.302 385.634 228.472 385.393 228.69 385.099C228.912 384.801 229.23 384.536 229.642 384.304C230.058 384.067 230.622 383.949 231.332 383.949C232.25 383.949 233.06 384.179 233.761 384.638C234.462 385.097 235.008 385.748 235.401 386.591C235.794 387.434 235.991 388.428 235.991 389.574C235.991 390.729 235.794 391.731 235.401 392.578C235.008 393.421 234.464 394.074 233.768 394.538C233.072 394.998 232.269 395.227 231.36 395.227C230.66 395.227 230.098 395.111 229.677 394.879C229.256 394.643 228.931 394.375 228.704 394.077C228.477 393.774 228.302 393.523 228.178 393.324H228.036V399.091H226.36ZM228.008 389.545C228.008 390.369 228.129 391.096 228.37 391.726C228.612 392.351 228.964 392.841 229.428 393.196C229.892 393.546 230.461 393.722 231.133 393.722C231.834 393.722 232.419 393.537 232.887 393.168C233.361 392.794 233.716 392.292 233.953 391.662C234.194 391.027 234.315 390.322 234.315 389.545C234.315 388.778 234.196 388.087 233.96 387.472C233.728 386.851 233.375 386.361 232.901 386.001C232.433 385.637 231.843 385.455 231.133 385.455C230.451 385.455 229.878 385.627 229.414 385.973C228.95 386.314 228.6 386.792 228.363 387.408C228.126 388.018 228.008 388.731 228.008 389.545ZM241.758 395.256C241.067 395.256 240.439 395.125 239.876 394.865C239.312 394.6 238.865 394.219 238.534 393.722C238.202 393.22 238.036 392.614 238.036 391.903C238.036 391.278 238.16 390.772 238.406 390.384C238.652 389.991 238.981 389.683 239.393 389.46C239.805 389.238 240.259 389.072 240.757 388.963C241.258 388.849 241.763 388.759 242.269 388.693C242.932 388.608 243.47 388.544 243.882 388.501C244.298 388.454 244.601 388.376 244.791 388.267C244.985 388.158 245.082 387.969 245.082 387.699V387.642C245.082 386.941 244.89 386.397 244.507 386.009C244.128 385.62 243.552 385.426 242.781 385.426C241.981 385.426 241.353 385.601 240.899 385.952C240.444 386.302 240.124 386.676 239.94 387.074L238.349 386.506C238.633 385.843 239.012 385.327 239.485 384.957C239.963 384.583 240.484 384.323 241.048 384.176C241.616 384.025 242.175 383.949 242.724 383.949C243.074 383.949 243.477 383.991 243.931 384.077C244.391 384.157 244.833 384.325 245.259 384.581C245.69 384.837 246.048 385.223 246.332 385.739C246.616 386.255 246.758 386.946 246.758 387.812V395H245.082V393.523H244.997C244.883 393.759 244.694 394.013 244.428 394.283C244.163 394.553 243.811 394.782 243.37 394.972C242.93 395.161 242.392 395.256 241.758 395.256ZM242.014 393.75C242.677 393.75 243.235 393.62 243.69 393.359C244.149 393.099 244.495 392.763 244.727 392.351C244.963 391.939 245.082 391.506 245.082 391.051V389.517C245.011 389.602 244.855 389.68 244.613 389.751C244.376 389.818 244.102 389.877 243.789 389.929C243.481 389.976 243.181 390.019 242.887 390.057C242.598 390.09 242.364 390.118 242.184 390.142C241.749 390.199 241.341 390.291 240.963 390.419C240.588 390.542 240.285 390.729 240.053 390.98C239.826 391.226 239.713 391.562 239.713 391.989C239.713 392.571 239.928 393.011 240.359 393.31C240.794 393.603 241.346 393.75 242.014 393.75ZM257.118 388.778V390.341H251.096V388.778H257.118ZM251.493 384.091V395H249.817V384.091H251.493ZM258.397 384.091V395H256.721V384.091H258.397Z" fill="black"/>
</svg>
