<svg width="375" height="776" viewBox="0 0 375 776" fill="none" xmlns="http://www.w3.org/2000/svg">
<path d="M0 0H375V718.4C375 742.398 375 754.397 368.889 762.809C366.915 765.526 364.526 767.915 361.809 769.889C353.397 776 341.398 776 317.4 776H57.6C33.6017 776 21.6026 776 13.1909 769.889C10.4742 767.915 8.0852 765.526 6.11146 762.809C0 754.397 0 742.398 0 718.4V0Z" fill="#DADADA" fill-opacity="0.6"/>
<path d="M128.05 384.091C127.965 383.371 127.619 382.812 127.013 382.415C126.407 382.017 125.664 381.818 124.783 381.818C124.139 381.818 123.575 381.922 123.093 382.131C122.614 382.339 122.24 382.625 121.97 382.99C121.705 383.355 121.573 383.769 121.573 384.233C121.573 384.621 121.665 384.955 121.85 385.234C122.039 385.509 122.28 385.739 122.574 385.923C122.868 386.103 123.175 386.252 123.497 386.371C123.819 386.484 124.115 386.577 124.385 386.648L125.862 387.045C126.241 387.145 126.663 387.282 127.127 387.457C127.595 387.633 128.043 387.872 128.469 388.175C128.9 388.473 129.255 388.857 129.534 389.325C129.814 389.794 129.953 390.369 129.953 391.051C129.953 391.837 129.747 392.547 129.335 393.182C128.928 393.816 128.332 394.321 127.546 394.695C126.764 395.069 125.815 395.256 124.698 395.256C123.656 395.256 122.754 395.088 121.992 394.751C121.234 394.415 120.637 393.946 120.202 393.345C119.771 392.744 119.527 392.045 119.47 391.25H121.289C121.336 391.799 121.521 392.254 121.843 392.614C122.169 392.969 122.581 393.234 123.078 393.409C123.58 393.58 124.12 393.665 124.698 393.665C125.37 393.665 125.974 393.556 126.509 393.338C127.044 393.116 127.468 392.808 127.78 392.415C128.093 392.017 128.249 391.553 128.249 391.023C128.249 390.54 128.114 390.147 127.844 389.844C127.574 389.541 127.219 389.295 126.779 389.105C126.338 388.916 125.862 388.75 125.351 388.608L123.561 388.097C122.425 387.77 121.525 387.304 120.862 386.697C120.2 386.091 119.868 385.298 119.868 384.318C119.868 383.504 120.088 382.794 120.529 382.188C120.974 381.577 121.57 381.103 122.318 380.767C123.071 380.426 123.912 380.256 124.84 380.256C125.777 380.256 126.61 380.424 127.34 380.76C128.069 381.091 128.646 381.546 129.073 382.124C129.503 382.701 129.731 383.357 129.754 384.091H128.05ZM133.446 380.455L137.764 392.699H137.934L142.253 380.455H144.099L138.758 395H136.94L131.599 380.455H133.446ZM155.624 385C155.468 384.522 155.262 384.093 155.007 383.714C154.756 383.331 154.455 383.004 154.105 382.734C153.759 382.464 153.366 382.259 152.926 382.116C152.485 381.974 152.002 381.903 151.477 381.903C150.615 381.903 149.831 382.126 149.126 382.571C148.42 383.016 147.859 383.672 147.443 384.538C147.026 385.405 146.818 386.468 146.818 387.727C146.818 388.987 147.028 390.05 147.45 390.916C147.871 391.783 148.442 392.438 149.161 392.884C149.881 393.329 150.691 393.551 151.59 393.551C152.424 393.551 153.158 393.374 153.792 393.018C154.431 392.659 154.928 392.152 155.284 391.499C155.643 390.84 155.823 390.066 155.823 389.176L156.363 389.29H151.988V387.727H157.528V389.29C157.528 390.488 157.272 391.529 156.761 392.415C156.254 393.3 155.553 393.987 154.659 394.474C153.768 394.957 152.746 395.199 151.59 395.199C150.302 395.199 149.171 394.896 148.195 394.29C147.225 393.684 146.467 392.822 145.923 391.705C145.383 390.587 145.113 389.261 145.113 387.727C145.113 386.577 145.267 385.542 145.575 384.624C145.887 383.7 146.328 382.914 146.896 382.266C147.464 381.617 148.136 381.12 148.913 380.774C149.689 380.429 150.544 380.256 151.477 380.256C152.244 380.256 152.959 380.372 153.622 380.604C154.289 380.831 154.883 381.155 155.404 381.577C155.93 381.993 156.368 382.493 156.718 383.075C157.069 383.653 157.31 384.295 157.443 385H155.624ZM167.846 395V396.562H158.755V395H167.846ZM172.278 380.455V395H170.516V382.301H170.431L166.88 384.659V382.869L170.516 380.455H172.278ZM184.018 395V396.562H174.927V395H184.018ZM188.449 380.455V395H186.688V382.301H186.603L183.052 384.659V382.869L186.688 380.455H188.449ZM198.911 386.946V388.509H192.547V386.946H198.911ZM201.148 395V393.722L205.949 388.466C206.513 387.85 206.977 387.315 207.341 386.861C207.706 386.402 207.976 385.971 208.151 385.568C208.331 385.161 208.421 384.735 208.421 384.29C208.421 383.778 208.298 383.336 208.052 382.962C207.81 382.588 207.479 382.299 207.057 382.095C206.636 381.892 206.162 381.79 205.637 381.79C205.078 381.79 204.59 381.906 204.174 382.138C203.762 382.365 203.442 382.685 203.215 383.097C202.992 383.509 202.881 383.991 202.881 384.545H201.205C201.205 383.693 201.402 382.945 201.795 382.301C202.188 381.657 202.723 381.155 203.4 380.795C204.081 380.436 204.846 380.256 205.694 380.256C206.546 380.256 207.301 380.436 207.959 380.795C208.617 381.155 209.134 381.641 209.508 382.251C209.882 382.862 210.069 383.542 210.069 384.29C210.069 384.825 209.972 385.348 209.778 385.859C209.588 386.366 209.257 386.932 208.783 387.557C208.314 388.177 207.663 388.935 206.83 389.83L203.563 393.324V393.438H210.324V395H201.148ZM220.814 395V396.562H211.724V395H220.814ZM229.857 395V396.562H220.767V395H229.857ZM234.289 380.455V395H232.528V382.301H232.443L228.892 384.659V382.869L232.528 380.455H234.289ZM244.751 386.946V388.509H238.387V386.946H244.751ZM252.352 395.199C251.415 395.199 250.579 395.038 249.845 394.716C249.116 394.394 248.536 393.946 248.105 393.374C247.679 392.796 247.447 392.126 247.409 391.364H249.199C249.237 391.832 249.398 392.237 249.682 392.578C249.966 392.914 250.337 393.175 250.797 393.359C251.256 393.544 251.765 393.636 252.324 393.636C252.949 393.636 253.503 393.527 253.986 393.31C254.469 393.092 254.847 392.789 255.122 392.401C255.397 392.012 255.534 391.562 255.534 391.051C255.534 390.516 255.401 390.045 255.136 389.638C254.871 389.226 254.483 388.904 253.971 388.672C253.46 388.44 252.835 388.324 252.096 388.324H250.932V386.761H252.096C252.674 386.761 253.181 386.657 253.616 386.449C254.057 386.241 254.4 385.947 254.646 385.568C254.897 385.189 255.023 384.744 255.023 384.233C255.023 383.741 254.914 383.312 254.696 382.947C254.478 382.583 254.17 382.299 253.773 382.095C253.38 381.892 252.916 381.79 252.381 381.79C251.879 381.79 251.405 381.882 250.96 382.067C250.52 382.247 250.16 382.509 249.881 382.855C249.601 383.196 249.45 383.608 249.426 384.091H247.721C247.75 383.329 247.979 382.661 248.41 382.088C248.841 381.51 249.405 381.061 250.101 380.739C250.801 380.417 251.571 380.256 252.409 380.256C253.309 380.256 254.08 380.438 254.724 380.803C255.368 381.162 255.863 381.638 256.209 382.23C256.554 382.822 256.727 383.461 256.727 384.148C256.727 384.967 256.512 385.665 256.081 386.243C255.655 386.821 255.075 387.221 254.341 387.443V387.557C255.259 387.708 255.977 388.099 256.493 388.729C257.009 389.354 257.267 390.128 257.267 391.051C257.267 391.842 257.051 392.552 256.621 393.182C256.194 393.807 255.612 394.299 254.873 394.659C254.135 395.019 253.294 395.199 252.352 395.199ZM165.312 409.511C164.933 409.516 164.552 409.613 164.169 409.803C163.79 409.992 163.472 410.243 163.217 410.555C162.966 410.863 162.84 411.206 162.84 411.585H161.193C161.193 411.112 161.306 410.657 161.534 410.222C161.761 409.786 162.066 409.398 162.45 409.057C162.838 408.716 163.278 408.446 163.771 408.247C164.268 408.048 164.782 407.949 165.312 407.949C166.306 407.949 167.149 408.2 167.84 408.702C168.536 409.204 169.064 409.866 169.424 410.69C169.789 411.514 169.971 412.409 169.971 413.375V413.773C169.971 414.734 169.789 415.629 169.424 416.457C169.064 417.281 168.536 417.944 167.84 418.446C167.149 418.948 166.306 419.199 165.312 419.199C164.517 419.199 163.809 419.024 163.188 418.673C162.568 418.318 162.08 417.845 161.725 417.253C161.37 416.661 161.193 416.003 161.193 415.278H162.84C162.84 415.69 162.956 416.076 163.188 416.436C163.425 416.791 163.731 417.08 164.105 417.303C164.483 417.52 164.886 417.632 165.312 417.636C165.946 417.632 166.486 417.433 166.931 417.04C167.376 416.647 167.715 416.154 167.947 415.562C168.179 414.971 168.295 414.374 168.295 413.773V413.375C168.295 412.759 168.179 412.158 167.947 411.571C167.72 410.979 167.383 410.489 166.938 410.101C166.498 409.713 165.956 409.516 165.312 409.511ZM168.977 412.722V414.284H164.204V412.722H168.977ZM172.524 419V408.091H174.2V412.835H175.308L179.229 408.091H181.388L176.985 413.347L181.445 419H179.286L175.706 414.398H174.2V419H172.524ZM183.267 423.091V408.091H184.886V409.824H185.085C185.208 409.634 185.378 409.393 185.596 409.099C185.819 408.801 186.136 408.536 186.548 408.304C186.964 408.067 187.528 407.949 188.238 407.949C189.157 407.949 189.966 408.179 190.667 408.638C191.368 409.097 191.915 409.748 192.308 410.591C192.701 411.434 192.897 412.428 192.897 413.574C192.897 414.729 192.701 415.731 192.308 416.578C191.915 417.421 191.37 418.074 190.674 418.538C189.978 418.998 189.176 419.227 188.267 419.227C187.566 419.227 187.005 419.111 186.583 418.879C186.162 418.643 185.838 418.375 185.61 418.077C185.383 417.774 185.208 417.523 185.085 417.324H184.943V423.091H183.267ZM184.914 413.545C184.914 414.369 185.035 415.096 185.276 415.726C185.518 416.351 185.871 416.841 186.335 417.196C186.799 417.546 187.367 417.722 188.039 417.722C188.74 417.722 189.325 417.537 189.794 417.168C190.267 416.794 190.622 416.292 190.859 415.662C191.1 415.027 191.221 414.322 191.221 413.545C191.221 412.778 191.103 412.087 190.866 411.472C190.634 410.851 190.281 410.361 189.808 410.001C189.339 409.637 188.749 409.455 188.039 409.455C187.357 409.455 186.785 409.627 186.32 409.973C185.856 410.314 185.506 410.792 185.269 411.408C185.033 412.018 184.914 412.731 184.914 413.545ZM198.664 419.256C197.973 419.256 197.346 419.125 196.782 418.865C196.219 418.6 195.771 418.219 195.44 417.722C195.108 417.22 194.943 416.614 194.943 415.903C194.943 415.278 195.066 414.772 195.312 414.384C195.558 413.991 195.887 413.683 196.299 413.46C196.711 413.238 197.166 413.072 197.663 412.963C198.165 412.849 198.669 412.759 199.176 412.693C199.838 412.608 200.376 412.544 200.788 412.501C201.204 412.454 201.508 412.376 201.697 412.267C201.891 412.158 201.988 411.969 201.988 411.699V411.642C201.988 410.941 201.796 410.397 201.413 410.009C201.034 409.62 200.459 409.426 199.687 409.426C198.887 409.426 198.259 409.601 197.805 409.952C197.35 410.302 197.031 410.676 196.846 411.074L195.255 410.506C195.539 409.843 195.918 409.327 196.392 408.957C196.87 408.583 197.391 408.323 197.954 408.176C198.522 408.025 199.081 407.949 199.63 407.949C199.981 407.949 200.383 407.991 200.838 408.077C201.297 408.157 201.74 408.325 202.166 408.581C202.597 408.837 202.954 409.223 203.238 409.739C203.522 410.255 203.664 410.946 203.664 411.812V419H201.988V417.523H201.903C201.789 417.759 201.6 418.013 201.335 418.283C201.07 418.553 200.717 418.782 200.276 418.972C199.836 419.161 199.299 419.256 198.664 419.256ZM198.92 417.75C199.583 417.75 200.142 417.62 200.596 417.359C201.055 417.099 201.401 416.763 201.633 416.351C201.87 415.939 201.988 415.506 201.988 415.051V413.517C201.917 413.602 201.761 413.68 201.519 413.751C201.283 413.818 201.008 413.877 200.695 413.929C200.388 413.976 200.087 414.019 199.794 414.057C199.505 414.09 199.27 414.118 199.09 414.142C198.655 414.199 198.248 414.291 197.869 414.419C197.495 414.542 197.192 414.729 196.96 414.98C196.732 415.226 196.619 415.562 196.619 415.989C196.619 416.571 196.834 417.011 197.265 417.31C197.701 417.603 198.252 417.75 198.92 417.75ZM214.025 412.778V414.341H208.002V412.778H214.025ZM208.4 408.091V419H206.724V408.091H208.4ZM215.303 408.091V419H213.627V408.091H215.303Z" fill="black"/>
</svg>
