<svg width="390" height="809" viewBox="0 0 390 809" fill="none" xmlns="http://www.w3.org/2000/svg">
<g clip-path="url(#clip0_66_459)">
<path d="M390 -8.99999C390 -20.0457 381.046 -29 370 -29L19.9999 -28.9999C8.95416 -28.9999 -0.000151022 -20.0456 -0.000149091 -8.99993L-9.56423e-06 789C-7.63294e-06 800.046 8.9543 809 20 809L370 809C381.046 809 390 800.046 390 789L390 -8.99999Z" fill="url(#paint0_linear_66_459)"/>
<path d="M390 -8.99999C390 -20.0457 381.046 -29 370 -29L19.9999 -28.9999C8.95416 -28.9999 -0.000151022 -20.0456 -0.000149091 -8.99993L-9.56423e-06 789C-7.63294e-06 800.046 8.9543 809 20 809L370 809C381.046 809 390 800.046 390 789L390 -8.99999Z" fill="url(#paint1_linear_66_459)" fill-opacity="0.2"/>
<path d="M390 -8.99999C390 -20.0457 381.046 -29 370 -29L19.9999 -28.9999C8.95416 -28.9999 -0.000151022 -20.0456 -0.000149091 -8.99993L-9.56423e-06 789C-7.63294e-06 800.046 8.9543 809 20 809L370 809C381.046 809 390 800.046 390 789L390 -8.99999Z" fill="url(#paint2_linear_66_459)" fill-opacity="0.2"/>
<path d="M198.277 543.926C198.277 543.926 190.101 565.689 173.093 560.335C151.733 553.61 133.786 525.657 104.534 521.03C75.2828 516.403 60.8542 521.296 48.1561 541.297C35.458 561.298 31.9691 580.021 40.523 609.229C49.077 638.438 66.4625 643.981 82.3717 658.13C100.057 673.859 134.52 663.495 158.035 666.172C186.336 669.393 203.019 690.371 231.498 689.927C252.734 689.596 265.609 689.397 287.09 686.904C308.232 684.448 310.354 683.866 319.551 676.346C328.748 668.826 327.484 654.79 327.484 654.79C327.484 654.79 324.483 627.984 289.794 616.16C255.105 604.338 222.214 625.85 182.357 612.815C176.999 611.063 170.674 607.82 170.688 600.573C170.702 593.328 175.973 586.057 182.412 583.832C213.904 572.945 248.797 574.092 280.125 562.742C297.841 556.323 315.138 561.08 334.082 540.493C334.082 540.493 361.168 514.542 355.893 480.394C351.983 455.074 333.755 465.724 284.54 451.168C235.326 436.611 224.585 421.301 145.558 425.811C121.187 427.202 81.5285 430.446 61.5187 443.69C41.509 456.933 42.2982 471.409 45.1226 481.698C47.8743 491.723 59.949 501.689 69.9983 504.35C102.041 512.835 118.818 485.258 167.966 497.22C212.201 507.986 198.277 543.926 198.277 543.926Z" fill="white" fill-opacity="0.48"/>
<path d="M251.142 628.177C244.179 631.928 226.192 639.165 226.192 639.165C226.192 639.165 212.407 633.805 206.486 633.656C200.565 633.503 201.658 636.742 203.37 639.564C205.532 643.126 210.47 646.789 214.924 650.405C219.375 654.02 225.137 656.787 230.868 656.666C243.395 656.398 268.675 649.288 268.675 649.288C268.675 649.288 310.259 654.486 332.609 653.495C338.858 653.217 345.247 650.354 349.87 646.144C355.136 641.347 359.014 634.685 360.82 627.798C363.628 617.081 367.38 604.986 363.364 594.663C358.072 581.055 342.466 573.843 334.965 561.317C328.958 551.289 327.399 541.742 323.337 528.387C321.602 522.682 313.787 504.403 309.149 512.879C302.103 525.764 309.797 549.149 304.113 583.257" fill="#FFC6B2"/>
<path d="M251.142 628.177C244.179 631.928 226.192 639.165 226.192 639.165C226.192 639.165 212.407 633.805 206.486 633.656C200.565 633.503 201.658 636.742 203.37 639.564C205.532 643.126 210.47 646.789 214.924 650.405C219.375 654.02 225.137 656.787 230.868 656.666C243.395 656.398 268.675 649.288 268.675 649.288C268.675 649.288 310.259 654.486 332.609 653.495C338.858 653.217 345.247 650.354 349.87 646.144C355.136 641.347 359.014 634.685 360.82 627.798C363.628 617.081 367.38 604.986 363.364 594.663C358.072 581.055 342.466 573.843 334.965 561.317C328.958 551.289 327.399 541.742 323.337 528.387C321.602 522.682 313.787 504.403 309.149 512.879C302.103 525.764 309.797 549.149 304.113 583.257" stroke="#294064" stroke-miterlimit="10" stroke-linecap="round"/>
<path d="M312.687 596.254C309.597 589.3 305.44 582.727 303.413 575.392C301.758 569.407 302.333 563.02 301.791 556.834C294.177 555.475 286.683 552.916 278.95 552.758C272.994 552.637 266.931 553.864 261.37 556.01C256.588 557.858 252.04 560.752 248.54 564.502C245.359 567.911 242.945 572.282 241.939 576.835C239.691 587.004 239.337 597.526 238.939 607.934C238.75 612.883 241.884 617.479 245.2 620.715C249.549 624.959 253.616 629.842 259.043 632.571C263.651 634.888 269.159 636.046 274.267 635.335C283.317 634.076 291.944 630.466 300.325 626.822C303.741 625.336 306.636 622.75 309.271 620.111C312.564 616.813 315.614 613.183 317.96 609.155C321.061 603.831 323.777 598.193 325.488 592.277C326.877 587.483 328.226 582.272 327.15 577.399C325.778 571.17 321.892 565.727 318.451 560.357C317.629 559.074 316.114 558.178 314.623 557.854C309.302 556.696 303.775 555.188 298.389 555.994C291.785 556.982 285.9 560.722 279.656 563.086" fill="#FFC6B2"/>
<path d="M312.687 596.254C309.597 589.3 305.44 582.727 303.413 575.392C301.758 569.407 302.333 563.02 301.791 556.834C294.177 555.475 286.683 552.916 278.95 552.758C272.994 552.637 266.931 553.864 261.37 556.01C256.588 557.858 252.04 560.752 248.54 564.502C245.359 567.911 242.945 572.282 241.939 576.835C239.691 587.004 239.337 597.526 238.939 607.934C238.75 612.883 241.884 617.479 245.2 620.715C249.549 624.959 253.616 629.842 259.043 632.571C263.651 634.888 269.159 636.046 274.267 635.335C283.317 634.076 291.944 630.466 300.325 626.822C303.741 625.336 306.636 622.75 309.271 620.111C312.564 616.813 315.614 613.183 317.96 609.155C321.061 603.831 323.777 598.193 325.488 592.277C326.877 587.483 328.226 582.272 327.15 577.399C325.778 571.17 321.892 565.727 318.451 560.357C317.629 559.074 316.114 558.178 314.623 557.854C309.302 556.696 303.775 555.188 298.389 555.994C291.785 556.982 285.9 560.722 279.656 563.086" stroke="#FFC6B2" stroke-miterlimit="10" stroke-linecap="round"/>
<path d="M280.364 604.097C280.364 596.783 286.292 590.854 293.607 590.854C300.922 590.854 306.852 596.783 306.852 604.097C306.852 611.412 300.922 617.342 293.607 617.342C286.292 617.342 280.364 611.412 280.364 604.097Z" fill="#B3A9EC" stroke="#294064" stroke-miterlimit="10"/>
<path d="M285.946 603.82C285.946 599.678 289.305 596.318 293.447 596.318C297.592 596.318 300.95 599.678 300.95 603.82C300.95 607.964 297.592 611.321 293.447 611.321C289.305 611.321 285.946 607.964 285.946 603.82Z" fill="#FFC6B2" stroke="#294064" stroke-miterlimit="10"/>
<path d="M292.478 497.645C285.253 497.507 274.825 499.074 263.569 502.282C243.558 507.985 228.502 516.706 229.942 521.757C230.452 523.549 232.469 526.385 236.081 528.947C235.29 535.875 245.168 555.16 258.381 571.07C266.157 580.433 275.432 586.084 281.966 589.262L285.552 595.439L296.11 592.403L295.429 585.055C299.116 578.798 303.642 569.12 304.981 557.22C307.219 537.362 305.129 516.563 300.958 510.347C302.635 506.32 302.913 502.879 302.408 501.104C301.777 498.894 298.097 497.753 292.478 497.645Z" fill="#B3A9EC" stroke="#294064" stroke-miterlimit="10"/>
<path d="M297.352 593.942C297.422 593.26 297.176 593.06 296.903 592.557C296.303 591.463 295.537 591.523 294.138 591.723C291.76 592.062 289.257 593.338 287.106 594.333C286.546 594.593 285.693 594.132 285.255 594.597C283.629 596.328 287.739 596.319 288.426 595.405" fill="#B3A9EC"/>
<path d="M297.352 593.942C297.422 593.26 297.176 593.06 296.903 592.557C296.303 591.463 295.537 591.523 294.138 591.723C291.76 592.062 289.257 593.338 287.106 594.333C286.546 594.593 285.693 594.132 285.255 594.597C283.629 596.328 287.739 596.319 288.426 595.405" stroke="#B3A9EC" stroke-miterlimit="10" stroke-linecap="round"/>
<path d="M306.289 555.695C302.318 567.773 302.2 578.503 305.102 590.536" stroke="#294064" stroke-miterlimit="10" stroke-linecap="round"/>
<path d="M255.67 599.499C255.67 599.499 252.84 602.696 249.035 605.299" stroke="#294064" stroke-miterlimit="10" stroke-linecap="round"/>
<path d="M302.26 548.826C302.26 548.826 273.086 551.842 249.557 553.097C259.918 572.626 263.792 572.186 272.201 579.57C276.488 583.334 283.653 589.494 289.419 586.726C295.182 583.958 297.294 575.347 299.119 569.342C300.876 563.567 302.26 548.826 302.26 548.826Z" fill="#FF7CAB" fill-opacity="0.78" stroke="#294064" stroke-miterlimit="10" stroke-linecap="round"/>
<path d="M270.473 581.808L300.818 573.155C301.635 572.922 302.589 573.768 302.954 575.044C303.316 576.32 302.952 577.543 302.137 577.775L271.79 586.428C270.976 586.661 270.019 585.815 269.657 584.539C269.292 583.263 269.657 582.04 270.473 581.808Z" fill="#B3A9EC" stroke="#294064" stroke-miterlimit="10"/>
<path d="M263.115 575.395L303.135 563.983C304.208 563.677 305.375 564.463 305.738 565.739C306.103 567.015 305.525 568.297 304.452 568.604L264.432 580.015C263.359 580.321 262.192 579.535 261.83 578.26C261.465 576.984 262.042 575.701 263.115 575.395Z" fill="#B3A9EC" stroke="#294064" stroke-miterlimit="10"/>
<path d="M233.73 526.473L301.528 507.14C303.348 506.621 305.119 507.234 305.484 508.51C305.847 509.786 304.667 511.241 302.845 511.76L235.048 531.093C233.227 531.612 231.457 530.998 231.093 529.723C230.729 528.447 231.91 526.992 233.73 526.473Z" fill="#B3A9EC" stroke="#294064" stroke-miterlimit="10"/>
<path d="M268.202 554.928C262.738 553.404 268.13 564.822 260.136 562.691C255.793 561.534 257.337 564.87 252.62 562.129C249.128 560.099 242.793 548.225 242.793 548.225C242.793 548.225 234.492 544.853 231.567 541.77C219.673 529.233 213.035 525.699 213.035 525.699C213.035 525.699 204.811 520.647 204.147 524.506C203.484 528.365 210.005 539.355 210.005 539.355C210.005 539.355 219.721 557.563 226.633 561.934C238.26 569.287 243.473 568.561 256.487 573.02" fill="#FFC6B2"/>
<path d="M268.202 554.928C262.738 553.404 268.13 564.822 260.136 562.691C255.793 561.534 257.337 564.87 252.62 562.129C249.128 560.099 242.793 548.225 242.793 548.225C242.793 548.225 234.492 544.853 231.567 541.77C219.673 529.233 213.035 525.699 213.035 525.699C213.035 525.699 204.811 520.647 204.147 524.506C203.484 528.365 210.005 539.355 210.005 539.355C210.005 539.355 219.721 557.563 226.633 561.934C238.26 569.287 243.473 568.561 256.487 573.02" stroke="#294064" stroke-miterlimit="10" stroke-linecap="round"/>
<path d="M255.675 611.413C248.012 604.441 237.655 600.275 230.921 590.684C228.109 586.677 229.655 583.983 231.981 580.789C235.35 576.164 235.822 576.062 237.667 573.718C241.245 569.173 243.707 566.65 247.135 562.682C250.886 558.343 258.111 549.659 258.111 549.659C258.111 549.659 263.882 543.357 268.038 543.779C271.743 544.155 269.312 553.158 269.312 553.158C269.312 553.158 267.866 559.536 265.498 564.522C263.13 569.508 260.535 573.433 260.535 573.433L256.881 579.137" fill="#FFC6B2"/>
<path d="M255.675 611.413C248.012 604.441 237.655 600.275 230.921 590.684C228.109 586.677 229.655 583.983 231.981 580.789C235.35 576.164 235.822 576.062 237.667 573.718C241.245 569.173 243.707 566.65 247.135 562.682C250.886 558.343 258.111 549.659 258.111 549.659C258.111 549.659 263.882 543.357 268.038 543.779C271.743 544.155 269.312 553.158 269.312 553.158C269.312 553.158 267.866 559.536 265.498 564.522C263.13 569.508 260.535 573.433 260.535 573.433L256.881 579.137" stroke="#294064" stroke-miterlimit="10" stroke-linecap="round"/>
<path d="M257.871 631.585C247.953 625.594 239.545 621.039 230.062 614.382C228.432 613.239 225.546 610.428 225.008 608.512C223.93 604.672 225.985 600.151 228.586 597.517C231.727 594.338 235.284 591.532 239.077 589.17C244.882 585.556 253.021 581.43 259.101 577.129C262.373 574.816 264.459 572.658 267.202 573.091C272.315 573.897 267.463 583.901 265.698 586.9C261.851 593.436 255.042 600.17 255.042 600.17C255.042 600.17 261.825 603.645 266.228 606.46" fill="#FFC6B2"/>
<path d="M257.871 631.585C247.953 625.594 239.545 621.039 230.062 614.382C228.432 613.239 225.546 610.428 225.008 608.512C223.93 604.672 225.985 600.151 228.586 597.517C231.727 594.338 235.284 591.532 239.077 589.17C244.882 585.556 253.021 581.43 259.101 577.129C262.373 574.816 264.459 572.658 267.202 573.091C272.315 573.897 267.463 583.901 265.698 586.9C261.851 593.436 255.042 600.17 255.042 600.17C255.042 600.17 261.825 603.645 266.228 606.46" stroke="#294064" stroke-miterlimit="10" stroke-linecap="round"/>
<path d="M144.618 526.392C141.486 526.623 133.418 534.982 122.395 539.78C98.6337 550.123 61.6882 556.014 37.6259 573.5C28.0983 580.424 21.9355 595.187 21.1447 604.695C20.2836 615.045 23.2977 628.271 29.3129 636.27C37.7202 647.448 42.6864 649.807 53.9391 653.859C65.7579 658.117 74.1915 658.49 83.863 658.569C100.018 658.7 116.905 653.328 132.356 648.608C143.137 645.315 149.411 642.758 158.145 635.632C164.185 630.702 176.526 616.8 170.894 615.736C164.503 614.528 154.372 622.923 141.695 628.268C135.467 630.895 120.537 631.801 113.78 631.611C119.549 608.436 124.299 587.372 132.093 564.798C134.76 557.074 143.147 549.699 146.343 542.178C147.968 538.356 151.617 525.877 144.618 526.392Z" fill="#FFC6B2" stroke="#294064" stroke-miterlimit="10" stroke-linecap="round"/>
<path d="M160.476 527.27C163.136 528.503 164.292 531.658 163.059 534.318L152.947 556.133C151.713 558.793 148.558 559.949 145.898 558.716C143.238 557.483 142.082 554.328 143.315 551.668L153.427 529.853C154.66 527.194 157.816 526.037 160.476 527.27Z" fill="#FFD4E4" stroke="#294064" stroke-miterlimit="10"/>
<path d="M147.487 467.103C151.921 456.743 155.32 450.061 159.02 447.822C167.039 442.971 174.939 454.128 187.028 459.732C199.23 465.388 217.302 465.569 220.146 476.048C221.42 480.741 218.001 488.46 212.458 498.007C191.096 534.797 154.049 541.313 154.049 541.313C154.049 541.313 133.332 500.172 147.487 467.103Z" fill="#FFD4E4" stroke="#294064" stroke-miterlimit="10"/>
<path d="M160.789 443.449L222.294 471.961C223.751 472.636 224.288 474.571 223.494 476.283C222.701 477.995 220.877 478.835 219.42 478.16L157.915 449.648C156.459 448.973 155.921 447.038 156.715 445.326C157.508 443.614 159.332 442.774 160.789 443.449Z" fill="#FFD4E4" stroke="#294064" stroke-miterlimit="10"/>
<path d="M157.176 533.857C156.453 532.708 152.315 533.818 152.315 533.818L149.621 539.654C149.621 539.654 151.18 542.453 152.781 543.447C153.746 544.047 157.497 544.517 157.497 544.517L160.611 538.176C160.611 538.176 160.915 534.29 160.29 534.443" fill="#FFD4E4"/>
<path d="M157.176 533.857C156.453 532.708 152.315 533.818 152.315 533.818L149.621 539.654C149.621 539.654 151.18 542.453 152.781 543.447C153.746 544.047 157.497 544.517 157.497 544.517L160.611 538.176C160.611 538.176 160.915 534.29 160.29 534.443" stroke="#F6DFE0" stroke-miterlimit="10" stroke-linecap="round"/>
<path d="M147.272 496.572C147.272 496.572 155.288 514.807 171.779 509.692C184.76 505.665 192.368 503.735 202.095 505.954C195.751 513.677 189.586 518.546 181.612 524.573C176.392 528.519 164.601 534.712 158.194 533.374C153.45 532.383 150.74 521.702 148.567 510.879C146.395 500.055 147.272 496.572 147.272 496.572Z" fill="#FF7CAB" fill-opacity="0.482048" stroke="#294064" stroke-miterlimit="10" stroke-linecap="round"/>
<path d="M106.146 637.601C113.575 635.46 115.792 634.16 119.601 632.04C124.048 629.568 127.596 626.809 131.459 623.541C140.237 616.12 147.119 609.615 153.605 600.13C156.382 596.07 157.168 591.921 157.291 587.095C157.328 585.641 156.082 580.195 153.78 580.295C152.181 580.365 144.862 581.633 143.576 582.461C137.051 586.666 137.356 594.152 130.764 598.272C126.62 600.862 122.1 603.202 117.682 605.256C115.514 606.263 112.489 607.167 110.646 608.566" fill="#FFC6B2"/>
<path d="M106.146 637.601C113.575 635.46 115.792 634.16 119.601 632.04C124.048 629.568 127.596 626.809 131.459 623.541C140.237 616.12 147.119 609.615 153.605 600.13C156.382 596.07 157.168 591.921 157.291 587.095C157.328 585.641 156.082 580.195 153.78 580.295C152.181 580.365 144.862 581.633 143.576 582.461C137.051 586.666 137.356 594.152 130.764 598.272C126.62 600.862 122.1 603.202 117.682 605.256C115.514 606.263 112.489 607.167 110.646 608.566" stroke="#294064" stroke-miterlimit="10" stroke-linecap="round"/>
<path d="M97.7427 618.462C104.953 616.011 111.096 612.437 117.746 608.791C117.746 608.791 133.701 600.038 143.887 590.874C144.292 590.51 150.837 584.941 151.239 584.567C156.826 579.373 162.454 575.168 163.91 567.664C164.289 565.71 164.528 561.424 161.598 558.29C158.667 555.157 154.565 553.582 152.921 554.236C148.68 555.921 144.443 559.209 140.146 560.769C135.556 562.436 134.795 570.583 130.259 572.451C126.465 574.015 122.119 575.139 118.524 577.195C114.914 579.259 111.272 581.596 107.508 583.423" fill="#FFC6B2"/>
<path d="M97.7427 618.462C104.953 616.011 111.096 612.437 117.746 608.791C117.746 608.791 133.701 600.038 143.887 590.874C144.292 590.51 150.837 584.941 151.239 584.567C156.826 579.373 162.454 575.168 163.91 567.664C164.289 565.71 164.528 561.424 161.598 558.29C158.667 555.157 154.565 553.582 152.921 554.236C148.68 555.921 144.443 559.209 140.146 560.769C135.556 562.436 134.795 570.583 130.259 572.451C126.465 574.015 122.119 575.139 118.524 577.195C114.914 579.259 111.272 581.596 107.508 583.423" stroke="#294064" stroke-miterlimit="10" stroke-linecap="round"/>
<path d="M95.3922 595.158C95.3922 595.158 99.8741 592.67 102.134 591.462C106.253 589.261 110.377 587.079 114.474 584.839C127.925 577.484 137.056 571.526 151.133 564.535C153.207 563.505 160.693 559.951 162.741 558.996C166.995 557.012 169.759 556.013 174.971 553.308C179.406 551.006 185.06 548.309 187.602 544.409C190.623 539.777 184.978 535.996 177.241 537.028C168.937 538.135 162.404 540.681 155.191 542.126C148.35 543.497 145.165 544.547 138.459 546.321C127.336 549.264 116.327 552.324 105.31 555.637C94.3642 558.929 82.2318 561.686 72.1914 567.267" fill="#FFC6B2"/>
<path d="M95.3922 595.158C95.3922 595.158 99.8741 592.67 102.134 591.462C106.253 589.261 110.377 587.079 114.474 584.839C127.925 577.484 137.056 571.526 151.133 564.535C153.207 563.505 160.693 559.951 162.741 558.996C166.995 557.012 169.759 556.013 174.971 553.308C179.406 551.006 185.06 548.309 187.602 544.409C190.623 539.777 184.978 535.996 177.241 537.028C168.937 538.135 162.404 540.681 155.191 542.126C148.35 543.497 145.165 544.547 138.459 546.321C127.336 549.264 116.327 552.324 105.31 555.637C94.3642 558.929 82.2318 561.686 72.1914 567.267" stroke="#294064" stroke-miterlimit="10" stroke-linecap="round"/>
<path d="M99.4521 593.016L104.015 590.566C104.015 590.566 108.015 594.118 110.689 599.097C113.362 604.08 114.71 610.489 114.71 610.489L110.147 612.939C110.147 612.939 108.603 606.705 105.929 601.724C103.255 596.743 99.4521 593.016 99.4521 593.016Z" fill="#CFE8FF" stroke="#294064" stroke-miterlimit="10"/>
<path d="M118.608 596.905C118.71 595.951 117.89 594.99 116.772 595.194C116.772 595.194 114.045 595.598 112.363 594.785C111.556 594.395 110.749 593.606 110.172 592.874C109.601 592.15 109.299 591.583 109.299 591.583C108.586 590.246 106.578 590.605 106.376 592.107C106.376 592.107 105.916 594.829 104.623 596.177C104.004 596.824 103.004 597.345 102.129 597.669C101.263 597.988 100.634 598.099 100.634 598.099C99.142 598.365 98.8653 600.385 100.231 601.042C100.231 601.042 102.674 602.32 103.556 603.966C103.98 604.756 104.169 605.865 104.205 606.798C104.241 607.719 104.15 608.354 104.15 608.354C103.941 609.855 105.779 610.744 106.825 609.647C106.825 609.647 108.798 607.719 110.636 607.388C111.518 607.228 112.632 607.393 113.529 607.646C114.417 607.895 114.994 608.176 114.994 608.176C116.357 608.838 117.769 607.369 117.05 606.035C117.05 606.035 115.824 603.565 116.078 601.714C116.199 600.827 116.698 599.817 117.216 599.041C117.728 598.275 118.176 597.814 118.176 597.814C118.439 597.541 118.574 597.222 118.608 596.905Z" fill="#CFE8FF" stroke="#294064" stroke-miterlimit="10"/>
<path d="M100.906 599.632C100.906 599.632 103.996 599.084 105.75 597.254C107.504 595.425 107.923 592.315 107.923 592.315C107.923 592.315 109.4 595.085 111.682 596.188C113.964 597.291 117.052 596.728 117.052 596.728C117.052 596.728 114.874 598.989 114.53 601.5C114.186 604.011 115.676 606.773 115.676 606.773C115.676 606.773 112.853 605.4 110.359 605.85C107.864 606.299 105.697 608.568 105.697 608.568C105.697 608.568 106.13 605.461 104.932 603.226C103.734 600.993 100.906 599.632 100.906 599.632Z" fill="#FF7CAB" stroke="#294064" stroke-miterlimit="10"/>
<path d="M129.857 535.704C129.69 537.681 132.204 536.296 133.071 535.79C136.513 533.783 140.012 531.564 143.026 528.974C143.524 528.546 146.589 526.27 146.419 525.509C146.087 524.026 141.385 526.639 140.747 527.038C137.61 529.002 136.866 529.527 133.917 531.753C133.171 532.316 129.979 534.263 129.857 535.704Z" fill="#74B55D" stroke="#294064" stroke-miterlimit="10" stroke-linecap="round"/>
<path d="M189.031 538.797C185.263 535.754 179.035 538.242 175.602 540.508C172.884 542.301 171.367 545.845 174.523 548.026C177.575 550.136 186.244 546.069 188.201 543.985C189.483 542.621 190.781 540.211 189.031 538.797Z" fill="#74B55D" stroke="#294064" stroke-miterlimit="10" stroke-linecap="round"/>
<path d="M166.997 625.91C158.308 626.106 169.993 615.802 172.737 615.188C176.029 614.451 172.864 619.808 172.733 620.043C171.558 622.147 169.555 625.852 166.997 625.91Z" fill="#74B55D" stroke="#294064" stroke-miterlimit="10" stroke-linecap="round"/>
<path d="M257.067 552.679C256.941 553.131 257.113 553.207 257.48 553.486C258.152 553.999 259.184 553.362 259.71 552.979C262.589 550.881 264.814 548.303 267.064 545.592C267.368 545.227 268.997 543.366 268.301 542.787C267.603 542.208 265.295 543.528 264.688 543.956C262.144 545.754 257.9 549.652 257.067 552.679Z" fill="#FF7CAB" stroke="#294064" stroke-miterlimit="10" stroke-linecap="round"/>
<path d="M268.265 572.181C268.101 572.09 266.576 572.39 266.196 572.535C265.21 572.911 264.391 573.298 263.487 573.819C261.093 575.204 254.979 577.878 258.019 581.212C258.831 582.103 260.919 581.327 261.706 580.908C263.572 579.917 272.226 574.392 268.265 572.181Z" fill="#FF7CAB" stroke="#294064" stroke-miterlimit="10" stroke-linecap="round"/>
<path d="M108.248 596.238C108.151 596.528 107.886 597.029 107.402 597.61M104.985 599.621C105.441 599.352 105.843 599.07 106.194 598.788" stroke="white" stroke-linecap="round"/>
<path d="M56.6553 442.908C56.6553 430.763 66.5547 420.918 78.7663 420.918C90.9782 420.918 100.878 430.763 100.878 442.908C100.878 455.053 90.9782 464.899 78.7663 464.899C66.5547 464.899 56.6553 455.053 56.6553 442.908Z" fill="white" fill-opacity="0.29"/>
<path d="M61.4338 450.157C60.3581 447.715 59.9883 445.186 60.044 442.787M60.2406 440.37C60.4435 438.899 60.7831 437.512 61.1843 436.269" stroke="white" stroke-linecap="round"/>
<path d="M312.433 465.717C312.433 458.682 318.167 452.979 325.24 452.979C332.314 452.979 338.048 458.682 338.048 465.717C338.048 472.752 332.314 478.455 325.24 478.455C318.167 478.455 312.433 472.752 312.433 465.717Z" fill="white" fill-opacity="0.29"/>
<path d="M315.332 470.551C314.587 468.894 314.331 467.178 314.369 465.55M314.506 463.91C314.646 462.912 314.882 461.971 315.16 461.127" stroke="white" stroke-linecap="round"/>
<path d="M228.338 685.588C228.338 674.969 236.994 666.361 247.67 666.361C258.347 666.361 267.003 674.969 267.003 685.588C267.003 696.206 258.347 704.814 247.67 704.814C236.994 704.814 228.338 696.206 228.338 685.588Z" fill="white" fill-opacity="0.4"/>
<path d="M232.715 692.885C231.59 690.383 231.204 687.793 231.262 685.336M231.468 682.86C231.68 681.353 232.035 679.933 232.455 678.659" stroke="white" stroke-linecap="round"/>
<path d="M233.762 422.578L233.824 422.854L234.091 422.943L243.68 426.157L234.091 429.371L233.824 429.461L233.762 429.736L231.238 441.024L228.713 429.736L228.651 429.461L228.384 429.371L218.795 426.157L228.384 422.943L228.651 422.854L228.713 422.578L231.238 411.291L233.762 422.578Z" fill="#FFD771" stroke="#2E4166"/>
<path d="M269.017 446.495L269.078 446.77L269.346 446.86L287.657 452.983L269.346 459.106L269.078 459.195L269.017 459.471L264.102 481.387L259.188 459.471L259.126 459.195L258.858 459.106L240.547 452.983L258.858 446.86L259.126 446.77L259.188 446.495L264.102 424.578L269.017 446.495Z" fill="#FFD771" stroke="#2E4166"/>
<path d="M159.679 667.452L159.739 667.745L160.025 667.831L167.16 669.984L160.025 672.137L159.739 672.223L159.679 672.517L158.016 680.75L156.354 672.517L156.294 672.223L156.008 672.137L148.873 669.984L156.008 667.831L156.294 667.745L156.354 667.452L158.016 659.219L159.679 667.452Z" fill="#FFD771" stroke="#2E4166"/>
<path d="M140.429 685.887L140.488 686.181L140.774 686.267L154.109 690.286L140.774 694.304L140.488 694.391L140.429 694.684L137.235 710.478L134.041 694.684L133.981 694.391L133.695 694.304L120.36 690.286L133.695 686.267L133.981 686.181L134.041 685.887L137.235 670.093L140.429 685.887Z" fill="#FFD771" stroke="#2E4166"/>
<path d="M246.436 483.26L246.495 483.553L246.781 483.64L252.469 485.362L246.781 487.084L246.495 487.171L246.436 487.464L245.132 493.944L243.828 487.464L243.769 487.171L243.483 487.084L237.795 485.362L243.483 483.64L243.769 483.553L243.828 483.26L245.132 476.78L246.436 483.26Z" fill="#FFD771" stroke="#2E4166"/>
<path d="M174.648 311.455H176.409V321.852C176.409 322.78 176.239 323.569 175.898 324.217C175.557 324.866 175.076 325.358 174.456 325.695C173.836 326.031 173.104 326.199 172.262 326.199C171.466 326.199 170.758 326.054 170.138 325.766C169.518 325.472 169.03 325.055 168.675 324.516C168.32 323.976 168.142 323.334 168.142 322.591H169.875C169.875 323.003 169.977 323.363 170.181 323.67C170.389 323.973 170.673 324.21 171.033 324.381C171.393 324.551 171.802 324.636 172.262 324.636C172.768 324.636 173.199 324.53 173.554 324.317C173.909 324.104 174.179 323.791 174.364 323.379C174.553 322.963 174.648 322.454 174.648 321.852V311.455ZM187.894 315.091C187.808 314.371 187.463 313.812 186.857 313.415C186.251 313.017 185.507 312.818 184.627 312.818C183.983 312.818 183.419 312.922 182.936 313.131C182.458 313.339 182.084 313.625 181.814 313.99C181.549 314.355 181.416 314.769 181.416 315.233C181.416 315.621 181.509 315.955 181.693 316.234C181.883 316.509 182.124 316.739 182.418 316.923C182.711 317.103 183.019 317.252 183.341 317.371C183.663 317.484 183.959 317.577 184.229 317.648L185.706 318.045C186.085 318.145 186.506 318.282 186.97 318.457C187.439 318.633 187.887 318.872 188.313 319.175C188.744 319.473 189.099 319.857 189.378 320.325C189.657 320.794 189.797 321.369 189.797 322.051C189.797 322.837 189.591 323.547 189.179 324.182C188.772 324.816 188.175 325.321 187.389 325.695C186.608 326.069 185.659 326.256 184.541 326.256C183.5 326.256 182.598 326.088 181.835 325.751C181.078 325.415 180.481 324.946 180.046 324.345C179.615 323.744 179.371 323.045 179.314 322.25H181.132C181.18 322.799 181.364 323.254 181.686 323.614C182.013 323.969 182.425 324.234 182.922 324.409C183.424 324.58 183.964 324.665 184.541 324.665C185.214 324.665 185.817 324.556 186.352 324.338C186.887 324.116 187.311 323.808 187.624 323.415C187.936 323.017 188.093 322.553 188.093 322.023C188.093 321.54 187.958 321.147 187.688 320.844C187.418 320.541 187.063 320.295 186.622 320.105C186.182 319.916 185.706 319.75 185.195 319.608L183.405 319.097C182.269 318.77 181.369 318.304 180.706 317.697C180.043 317.091 179.712 316.298 179.712 315.318C179.712 314.504 179.932 313.794 180.372 313.188C180.817 312.577 181.414 312.103 182.162 311.767C182.915 311.426 183.755 311.256 184.683 311.256C185.621 311.256 186.454 311.424 187.183 311.76C187.913 312.091 188.49 312.546 188.916 313.124C189.347 313.701 189.575 314.357 189.598 315.091H187.894ZM204.966 318.727C204.966 320.261 204.689 321.587 204.135 322.705C203.581 323.822 202.821 324.684 201.855 325.29C200.889 325.896 199.786 326.199 198.545 326.199C197.305 326.199 196.202 325.896 195.236 325.29C194.27 324.684 193.51 323.822 192.956 322.705C192.402 321.587 192.125 320.261 192.125 318.727C192.125 317.193 192.402 315.867 192.956 314.75C193.51 313.633 194.27 312.771 195.236 312.165C196.202 311.559 197.305 311.256 198.545 311.256C199.786 311.256 200.889 311.559 201.855 312.165C202.821 312.771 203.581 313.633 204.135 314.75C204.689 315.867 204.966 317.193 204.966 318.727ZM203.261 318.727C203.261 317.468 203.05 316.405 202.629 315.538C202.212 314.672 201.647 314.016 200.932 313.571C200.221 313.126 199.426 312.903 198.545 312.903C197.665 312.903 196.867 313.126 196.152 313.571C195.442 314.016 194.876 314.672 194.454 315.538C194.038 316.405 193.829 317.468 193.829 318.727C193.829 319.987 194.038 321.05 194.454 321.916C194.876 322.783 195.442 323.438 196.152 323.884C196.867 324.329 197.665 324.551 198.545 324.551C199.426 324.551 200.221 324.329 200.932 323.884C201.647 323.438 202.212 322.783 202.629 321.916C203.05 321.05 203.261 319.987 203.261 318.727ZM219.461 311.455V326H217.757L209.831 314.58H209.689V326H207.927V311.455H209.632L217.586 322.903H217.729V311.455H219.461ZM222.389 323.017V321.568L228.781 311.455H229.833V313.699H229.122L224.293 321.341V321.455H232.901V323.017H222.389ZM229.236 326V322.577V321.902V311.455H230.912V326H229.236ZM177.234 350V335.455H182.149C183.29 335.455 184.223 335.661 184.947 336.072C185.676 336.48 186.216 337.031 186.566 337.727C186.917 338.423 187.092 339.2 187.092 340.057C187.092 340.914 186.917 341.693 186.566 342.393C186.221 343.094 185.686 343.653 184.961 344.07C184.237 344.482 183.309 344.688 182.177 344.688H178.654V343.125H182.12C182.902 343.125 183.529 342.99 184.002 342.72C184.476 342.45 184.819 342.086 185.032 341.626C185.25 341.162 185.359 340.639 185.359 340.057C185.359 339.474 185.25 338.954 185.032 338.494C184.819 338.035 184.474 337.675 183.995 337.415C183.517 337.15 182.883 337.017 182.092 337.017H178.995V350H177.234ZM189.702 350V339.091H191.321V340.739H191.435C191.634 340.199 191.994 339.761 192.515 339.425C193.035 339.089 193.623 338.92 194.276 338.92C194.399 338.92 194.553 338.923 194.738 338.928C194.922 338.932 195.062 338.939 195.157 338.949V340.653C195.1 340.639 194.97 340.618 194.766 340.589C194.567 340.556 194.356 340.54 194.134 340.54C193.604 340.54 193.13 340.651 192.713 340.874C192.301 341.091 191.975 341.394 191.733 341.783C191.497 342.166 191.378 342.604 191.378 343.097V350H189.702ZM201.385 350.227C200.334 350.227 199.427 349.995 198.665 349.531C197.908 349.062 197.323 348.409 196.911 347.571C196.504 346.728 196.3 345.748 196.3 344.631C196.3 343.513 196.504 342.528 196.911 341.676C197.323 340.819 197.896 340.152 198.63 339.673C199.368 339.19 200.23 338.949 201.215 338.949C201.783 338.949 202.344 339.044 202.898 339.233C203.452 339.422 203.956 339.73 204.411 340.156C204.865 340.578 205.228 341.136 205.498 341.832C205.767 342.528 205.902 343.385 205.902 344.403V345.114H197.493V343.665H204.198C204.198 343.049 204.075 342.5 203.828 342.017C203.587 341.534 203.241 341.153 202.792 340.874C202.346 340.594 201.821 340.455 201.215 340.455C200.547 340.455 199.97 340.62 199.482 340.952C198.999 341.278 198.627 341.705 198.367 342.23C198.106 342.756 197.976 343.319 197.976 343.92V344.886C197.976 345.71 198.118 346.409 198.402 346.982C198.691 347.55 199.091 347.983 199.603 348.281C200.114 348.575 200.708 348.722 201.385 348.722C201.826 348.722 202.223 348.66 202.578 348.537C202.938 348.409 203.248 348.22 203.509 347.969C203.769 347.713 203.971 347.396 204.113 347.017L205.732 347.472C205.561 348.021 205.275 348.504 204.873 348.92C204.47 349.332 203.973 349.654 203.381 349.886C202.789 350.114 202.124 350.227 201.385 350.227ZM208.26 335.455L212.578 347.699H212.749L217.067 335.455H218.914L213.573 350H211.755L206.414 335.455H208.26ZM220.924 350V348.722L225.725 343.466C226.288 342.85 226.752 342.315 227.117 341.861C227.481 341.402 227.751 340.971 227.926 340.568C228.106 340.161 228.196 339.735 228.196 339.29C228.196 338.778 228.073 338.336 227.827 337.962C227.586 337.588 227.254 337.299 226.833 337.095C226.411 336.892 225.938 336.79 225.412 336.79C224.854 336.79 224.366 336.906 223.949 337.138C223.537 337.365 223.218 337.685 222.99 338.097C222.768 338.509 222.657 338.991 222.657 339.545H220.98C220.98 338.693 221.177 337.945 221.57 337.301C221.963 336.657 222.498 336.155 223.175 335.795C223.857 335.436 224.622 335.256 225.469 335.256C226.321 335.256 227.077 335.436 227.735 335.795C228.393 336.155 228.909 336.641 229.283 337.251C229.657 337.862 229.844 338.542 229.844 339.29C229.844 339.825 229.747 340.348 229.553 340.859C229.364 341.366 229.032 341.932 228.559 342.557C228.09 343.177 227.439 343.935 226.605 344.83L223.338 348.324V348.438H230.1V350H220.924ZM175.96 363.091C175.875 362.371 175.529 361.812 174.923 361.415C174.317 361.017 173.574 360.818 172.693 360.818C172.049 360.818 171.486 360.922 171.003 361.131C170.524 361.339 170.15 361.625 169.881 361.99C169.615 362.355 169.483 362.769 169.483 363.233C169.483 363.621 169.575 363.955 169.76 364.234C169.949 364.509 170.191 364.739 170.484 364.923C170.778 365.103 171.086 365.252 171.407 365.371C171.729 365.484 172.025 365.577 172.295 365.648L173.773 366.045C174.151 366.145 174.573 366.282 175.037 366.457C175.506 366.633 175.953 366.872 176.379 367.175C176.81 367.473 177.165 367.857 177.444 368.325C177.724 368.794 177.863 369.369 177.863 370.051C177.863 370.837 177.657 371.547 177.246 372.182C176.838 372.816 176.242 373.321 175.456 373.695C174.675 374.069 173.725 374.256 172.608 374.256C171.566 374.256 170.664 374.088 169.902 373.751C169.144 373.415 168.548 372.946 168.112 372.345C167.681 371.744 167.437 371.045 167.381 370.25H169.199C169.246 370.799 169.431 371.254 169.753 371.614C170.079 371.969 170.491 372.234 170.988 372.409C171.49 372.58 172.03 372.665 172.608 372.665C173.28 372.665 173.884 372.556 174.419 372.338C174.954 372.116 175.378 371.808 175.69 371.415C176.003 371.017 176.159 370.553 176.159 370.023C176.159 369.54 176.024 369.147 175.754 368.844C175.484 368.541 175.129 368.295 174.689 368.105C174.248 367.916 173.773 367.75 173.261 367.608L171.471 367.097C170.335 366.77 169.435 366.304 168.773 365.697C168.11 365.091 167.778 364.298 167.778 363.318C167.778 362.504 167.998 361.794 168.439 361.188C168.884 360.577 169.48 360.103 170.229 359.767C170.981 359.426 171.822 359.256 172.75 359.256C173.687 359.256 174.521 359.424 175.25 359.76C175.979 360.091 176.557 360.546 176.983 361.124C177.414 361.701 177.641 362.357 177.665 363.091H175.96ZM184.964 374.227C183.941 374.227 183.061 373.986 182.322 373.503C181.583 373.02 181.015 372.355 180.617 371.507C180.22 370.66 180.021 369.691 180.021 368.602C180.021 367.494 180.224 366.517 180.632 365.669C181.044 364.817 181.616 364.152 182.35 363.673C183.089 363.19 183.951 362.949 184.936 362.949C185.703 362.949 186.394 363.091 187.009 363.375C187.625 363.659 188.129 364.057 188.522 364.568C188.915 365.08 189.159 365.676 189.254 366.358H187.578C187.45 365.861 187.166 365.42 186.725 365.037C186.29 364.649 185.703 364.455 184.964 364.455C184.311 364.455 183.738 364.625 183.245 364.966C182.758 365.302 182.376 365.778 182.102 366.393C181.832 367.004 181.697 367.722 181.697 368.545C181.697 369.388 181.829 370.122 182.095 370.747C182.365 371.372 182.743 371.857 183.231 372.203C183.723 372.549 184.301 372.722 184.964 372.722C185.4 372.722 185.795 372.646 186.15 372.494C186.505 372.343 186.806 372.125 187.052 371.841C187.298 371.557 187.473 371.216 187.578 370.818H189.254C189.159 371.462 188.925 372.042 188.551 372.558C188.181 373.07 187.691 373.477 187.08 373.78C186.474 374.078 185.769 374.227 184.964 374.227ZM191.704 374V363.091H193.323V364.739H193.437C193.636 364.199 193.996 363.761 194.517 363.425C195.037 363.089 195.624 362.92 196.278 362.92C196.401 362.92 196.555 362.923 196.74 362.928C196.924 362.932 197.064 362.939 197.159 362.949V364.653C197.102 364.639 196.972 364.618 196.768 364.589C196.569 364.556 196.358 364.54 196.136 364.54C195.606 364.54 195.132 364.651 194.715 364.874C194.303 365.091 193.977 365.394 193.735 365.783C193.499 366.166 193.38 366.604 193.38 367.097V374H191.704ZM203.387 374.227C202.336 374.227 201.429 373.995 200.667 373.531C199.91 373.062 199.325 372.409 198.913 371.571C198.506 370.728 198.302 369.748 198.302 368.631C198.302 367.513 198.506 366.528 198.913 365.676C199.325 364.819 199.898 364.152 200.632 363.673C201.37 363.19 202.232 362.949 203.217 362.949C203.785 362.949 204.346 363.044 204.9 363.233C205.454 363.422 205.958 363.73 206.413 364.156C206.867 364.578 207.23 365.136 207.499 365.832C207.769 366.528 207.904 367.385 207.904 368.403V369.114H199.495V367.665H206.2C206.2 367.049 206.077 366.5 205.83 366.017C205.589 365.534 205.243 365.153 204.794 364.874C204.348 364.594 203.823 364.455 203.217 364.455C202.549 364.455 201.972 364.62 201.484 364.952C201.001 365.278 200.629 365.705 200.369 366.23C200.108 366.756 199.978 367.319 199.978 367.92V368.886C199.978 369.71 200.12 370.409 200.404 370.982C200.693 371.55 201.093 371.983 201.605 372.281C202.116 372.575 202.71 372.722 203.387 372.722C203.828 372.722 204.225 372.66 204.58 372.537C204.94 372.409 205.25 372.22 205.511 371.969C205.771 371.713 205.972 371.396 206.115 371.017L207.734 371.472C207.563 372.021 207.277 372.504 206.874 372.92C206.472 373.332 205.975 373.654 205.383 373.886C204.791 374.114 204.126 374.227 203.387 374.227ZM215.028 374.227C213.977 374.227 213.07 373.995 212.308 373.531C211.55 373.062 210.965 372.409 210.553 371.571C210.146 370.728 209.943 369.748 209.943 368.631C209.943 367.513 210.146 366.528 210.553 365.676C210.965 364.819 211.538 364.152 212.272 363.673C213.011 363.19 213.873 362.949 214.857 362.949C215.426 362.949 215.987 363.044 216.541 363.233C217.095 363.422 217.599 363.73 218.053 364.156C218.508 364.578 218.87 365.136 219.14 365.832C219.41 366.528 219.545 367.385 219.545 368.403V369.114H211.136V367.665H217.84C217.84 367.049 217.717 366.5 217.471 366.017C217.23 365.534 216.884 365.153 216.434 364.874C215.989 364.594 215.463 364.455 214.857 364.455C214.19 364.455 213.612 364.62 213.124 364.952C212.642 365.278 212.27 365.705 212.009 366.23C211.749 366.756 211.619 367.319 211.619 367.92V368.886C211.619 369.71 211.761 370.409 212.045 370.982C212.334 371.55 212.734 371.983 213.245 372.281C213.757 372.575 214.351 372.722 215.028 372.722C215.468 372.722 215.866 372.66 216.221 372.537C216.581 372.409 216.891 372.22 217.151 371.969C217.412 371.713 217.613 371.396 217.755 371.017L219.374 371.472C219.204 372.021 218.918 372.504 218.515 372.92C218.113 373.332 217.615 373.654 217.024 373.886C216.432 374.114 215.767 374.227 215.028 374.227ZM223.771 367.438V374H222.095V363.091H223.714V364.795H223.856C224.112 364.241 224.5 363.796 225.021 363.46C225.542 363.119 226.214 362.949 227.038 362.949C227.776 362.949 228.423 363.1 228.977 363.403C229.531 363.702 229.962 364.156 230.269 364.767C230.577 365.373 230.731 366.14 230.731 367.068V374H229.055V367.182C229.055 366.325 228.832 365.657 228.387 365.179C227.942 364.696 227.331 364.455 226.555 364.455C226.02 364.455 225.542 364.571 225.12 364.803C224.704 365.035 224.374 365.373 224.133 365.818C223.892 366.263 223.771 366.803 223.771 367.438ZM238.078 359.455V374H236.317V361.301H236.232L232.681 363.659V361.869L236.317 359.455H238.078Z" fill="black"/>
</g>
<defs>
<linearGradient id="paint0_linear_66_459" x1="295" y1="-100.5" x2="636.184" y2="591.468" gradientUnits="userSpaceOnUse">
<stop stop-color="#494B94"/>
<stop offset="0.901042" stop-color="#7072DA"/>
</linearGradient>
<linearGradient id="paint1_linear_66_459" x1="390" y1="390" x2="195" y2="849.5" gradientUnits="userSpaceOnUse">
<stop stop-color="#D759DA"/>
<stop offset="1" stop-color="#8E35FF"/>
</linearGradient>
<linearGradient id="paint2_linear_66_459" x1="380.5" y1="809" x2="-53" y2="565" gradientUnits="userSpaceOnUse">
<stop stop-color="#FF005B" stop-opacity="0.39"/>
<stop offset="1" stop-color="#FF7CAB" stop-opacity="0.4"/>
</linearGradient>
<clipPath id="clip0_66_459">
<path d="M0 0H390V789C390 800.046 381.046 809 370 809H20C8.9543 809 0 800.046 0 789V0Z" fill="white"/>
</clipPath>
</defs>
</svg>
