<svg width="414" height="861" viewBox="0 0 414 861" fill="none" xmlns="http://www.w3.org/2000/svg">
<g clip-path="url(#clip0_1130_1221)">
<path d="M0 0H414V841C414 852.046 405.046 861 394 861H20C8.95432 861 0 852.046 0 841V0Z" fill="#F8D6B7"/>
<path d="M471.764 471.839C523.312 461.177 556.383 410.394 545.631 358.414C534.879 306.433 484.376 272.938 432.828 283.601C381.28 294.263 348.208 345.044 358.96 397.025C369.712 449.006 420.215 482.501 471.764 471.839Z" fill="white" fill-opacity="0.3"/>
<path d="M232.706 738.64C333.488 717.794 398.29 619.194 377.444 518.412C356.598 417.63 257.998 352.828 157.215 373.674C56.4336 394.52 -8.36774 493.12 12.4782 593.902C33.3243 694.684 131.924 759.486 232.706 738.64Z" fill="white" fill-opacity="0.3"/>
<path d="M162.884 476.248C142.22 465.069 119.554 457.022 96.4715 452.645C119.341 518.862 140.93 585.525 161.82 652.394C194.804 648.778 204.015 653.987 208.786 619.404C244.216 628.427 272.432 630.938 306.355 613.105C321.861 604.953 345.168 591.411 338.765 583.156C324.016 564.139 291.7 572.544 267.759 570.092C246.736 567.941 238.341 545.264 233.24 528.091C223.744 496.118 217.111 463.363 209.046 431C188.335 436.94 176.784 459.785 162.884 476.248Z" fill="#C46F44" stroke="#294064" stroke-miterlimit="10" stroke-linecap="round" stroke-linejoin="round"/>
<path d="M167.586 489.694C170.392 497.235 171.805 504.815 174.176 512.465" stroke="#294064" stroke-miterlimit="10" stroke-linecap="round" stroke-linejoin="round"/>
<path d="M179.659 531.663C182.02 538.012 183.23 545.75 186.352 551.741" stroke="#294064" stroke-miterlimit="10" stroke-linecap="round" stroke-linejoin="round"/>
<path d="M194.593 574.786C197.863 583.578 200.863 592.235 203.636 601.181" stroke="#294064" stroke-miterlimit="10" stroke-linecap="round" stroke-linejoin="round"/>
<path d="M159.392 637.926C156.849 637.839 164.473 638.371 167.016 638.282C172.236 638.1 177.9 637.436 183.035 636.476" stroke="#294064" stroke-miterlimit="10" stroke-linecap="round" stroke-linejoin="round"/>
<path d="M225.486 610.015C233.761 615.341 254.946 613.693 264.053 611.718" stroke="#294064" stroke-miterlimit="10" stroke-linecap="round" stroke-linejoin="round"/>
<path d="M277.791 610.431C299.814 605.655 317.088 598.069 337.172 588.804" stroke="#294064" stroke-miterlimit="10" stroke-linecap="round" stroke-linejoin="round"/>
<path d="M250.81 549.805C249.653 549.989 248.541 550.387 247.484 551.046C234.386 559.217 224.772 569.269 217.461 581.872C213.194 589.227 209.802 597.91 206.503 607.936C199.061 602.662 191.4 598.733 183.556 596.415C165.462 591.067 149.014 593.606 135.94 599.762C134.516 600.433 133.499 601.003 132.835 601.403C128.569 603.977 127.163 609.51 129.736 613.776C132.309 618.042 137.886 619.435 142.152 616.861C142.132 616.873 143.143 616.344 143.654 616.104C153.056 611.676 165.145 609.82 178.452 613.753C187.37 616.389 196.209 621.533 204.879 629.727C209.814 634.392 217.935 632.123 219.761 625.583C228.67 593.661 237.458 578.547 257.03 566.337C261.258 563.7 262.525 558.174 259.888 553.947C257.911 550.776 254.282 549.253 250.81 549.805Z" fill="#FFEBCC" stroke="#294064" stroke-miterlimit="10" stroke-linecap="round" stroke-linejoin="round"/>
<path d="M93 600.235C104.606 598.794 112.959 605.949 112.959 605.949C112.959 605.949 91.5882 615.363 96.4506 625.816C99.4663 623.911 114.832 616.543 114.832 616.543C114.832 616.543 113.646 632.646 119.061 640.229C119.997 633.861 122.219 621.179 122.219 621.179C122.219 621.179 132.066 632.857 146.94 631.303C139.226 629.798 131.693 617.825 131.693 617.825C131.693 617.825 150.244 622.166 158.374 615.182C152.606 614.285 137.219 609.719 137.219 609.719C137.219 609.719 148.975 598.154 149.564 589.556C139.269 599.402 133.077 602.744 133.077 602.744C133.077 602.744 140.267 585.149 127.971 574.186C127.151 580.375 125.957 599.174 125.957 599.174C125.957 599.174 112.648 578.415 99.9787 581.602C106.184 584.57 117.885 602.344 117.885 602.344C117.885 602.344 96.8408 591.277 93 600.235Z" fill="#FFD432" stroke="#294064" stroke-miterlimit="10" stroke-linecap="round" stroke-linejoin="round"/>
</g>
<defs>
<clipPath id="clip0_1130_1221">
<path d="M0 0H414V841C414 852.046 405.046 861 394 861H20C8.95432 861 0 852.046 0 841V0Z" fill="white"/>
</clipPath>
</defs>
</svg>
