<svg width="414" height="861" viewBox="0 0 414 861" fill="none" xmlns="http://www.w3.org/2000/svg">
<g clip-path="url(#clip0_1130_1241)">
<path d="M0 0H414V841C414 852.046 405.046 861 394 861H20C8.95432 861 0 852.046 0 841V0Z" fill="#F8D6B7"/>
<path d="M62.1567 329.809C36.8763 284.232 -20.8754 267.95 -66.8356 293.443C-112.796 318.935 -129.56 376.548 -104.279 422.126C-78.9989 467.704 -21.2479 483.985 24.7123 458.493C70.6726 433 87.4372 375.387 62.1567 329.809Z" fill="white" fill-opacity="0.3"/>
<path d="M385.008 484.281C335.582 395.171 223.277 363.001 134.167 412.428C45.0581 461.853 12.8883 574.159 62.3145 663.269C111.74 752.378 224.046 784.548 313.155 735.122C402.265 685.696 434.434 573.39 385.008 484.281Z" fill="white" fill-opacity="0.3"/>
<path d="M270.022 686.42C275.395 681.706 249.506 631.522 249.506 631.522C249.506 631.522 253.458 634.163 259.103 629.463C239.224 569.314 235.65 508.564 202.649 454.944C188.934 432.654 156.292 425.966 123.618 430.872C90.9462 435.78 70.7062 467.657 70.5458 481.785C69.7515 551.629 81.3907 596.645 95.5666 656.067C97.4404 663.92 103.568 642.731 106.86 662.964C108.826 675.047 118.298 731.968 127.671 731.449C156.314 729.873 190.903 706.726 190.903 706.726C190.903 706.726 229.951 721.578 270.022 686.42Z" fill="#FFACC9" stroke="#294064" stroke-miterlimit="10" stroke-linecap="round"/>
<path d="M155.662 428.238C154.681 424.577 144.287 424.875 141.409 424.86C137.741 424.84 134.295 425.995 130.666 426.163C121.074 426.605 109.71 426.222 106.091 437.922C102.113 450.779 104.717 465.566 106.997 478.859C110.643 500.121 116.034 521.485 124.007 541.576C127.033 549.202 131.494 556.135 134.659 563.699C138.673 573.296 144.745 582.53 150.775 590.887C151.829 592.348 155.348 597.985 157.375 597.892C160.68 597.738 158.864 590.913 158.743 589.202C158.101 580.138 158.363 571.438 157.298 562.357C156.21 553.05 157.359 546.444 157.188 537.41C156.739 513.534 156.018 489.781 156.105 465.925C156.149 454.803 154.099 444.235 152.515 433.356C152.183 431.07 147.012 424.482 147.105 426.994" fill="#CA6F8F"/>
<path d="M155.662 428.238C154.68 424.577 144.287 424.875 141.409 424.86C137.741 424.84 134.295 425.995 130.666 426.163C121.074 426.605 109.71 426.222 106.091 437.922C102.113 450.779 104.717 465.566 106.997 478.859C110.643 500.121 116.034 521.485 124.007 541.576C127.033 549.202 131.494 556.135 134.659 563.699C138.673 573.296 144.745 582.53 150.775 590.887C151.829 592.348 155.348 597.985 157.375 597.892C160.68 597.738 158.864 590.913 158.743 589.202C158.101 580.138 158.363 571.438 157.298 562.357C156.21 553.05 157.359 546.444 157.188 537.41C156.739 513.534 156.018 489.781 156.105 465.925C156.149 454.803 154.099 444.235 152.515 433.356C152.183 431.07 147.012 424.482 147.105 426.994" stroke="#2E4166" stroke-miterlimit="10" stroke-linecap="round"/>
<path d="M113.805 380.11C113.052 380.333 112.322 380.64 111.616 381.009C105.287 384.304 102.896 392.19 106.051 402.184C106.552 403.773 108.163 404.668 109.641 404.191C111.113 403.715 111.897 402.049 111.396 400.459C109.085 393.139 110.52 388.351 114.222 386.423C117.501 384.716 121.741 385.777 123.751 388.849C126.26 392.681 126.223 395.694 124.281 401.459C124.173 401.78 123.599 403.464 123.53 403.672C121.2 410.39 120.58 414.49 121.882 419.676C111.75 427.802 72.8282 464.975 73.3798 466.201C73.6083 466.709 191.256 447.283 192.891 445.62C193.622 444.874 140.204 423.106 127.398 418.785C126.315 414.879 126.773 411.811 128.815 405.927C128.885 405.723 129.481 404.028 129.596 403.687C130.741 400.286 131.291 397.887 131.317 395.278C131.352 391.912 130.417 388.702 128.342 385.53C125.103 380.574 119.074 378.551 113.805 380.11ZM125.643 426.46C126.745 426.278 169.637 442.371 168.732 443.189C167.479 444.324 96.4246 455.859 94.6436 455.736C93.3072 455.65 125.392 426.502 125.643 426.46Z" fill="#FFD432" stroke="#294064" stroke-miterlimit="10" stroke-linecap="round"/>
<path d="M161.81 627.297C167.251 655.434 171.981 675.238 186.002 698.325" stroke="#294064" stroke-miterlimit="10" stroke-linecap="round"/>
<path d="M198.067 545.267C206.95 561.814 219.82 600.471 240.556 638.469C251.82 659.121 305.626 622.008 293.386 602.961C284.158 588.599 265.876 555.773 257.172 542.339C245.84 524.861 239.443 509.247 229.6 489.813C203.242 437.787 171.929 432.117 171.929 432.117" fill="#FFACC9"/>
<path d="M198.067 545.267C206.95 561.814 219.82 600.471 240.556 638.469C251.82 659.121 305.626 622.008 293.386 602.961C284.158 588.599 265.876 555.773 257.172 542.339C245.84 524.861 239.443 509.247 229.6 489.813C203.242 437.787 171.929 432.117 171.929 432.117" stroke="#294064" stroke-miterlimit="10" stroke-linecap="round"/>
<path d="M85.7792 449.895C85.7792 449.895 46.7642 494.817 54.0197 540.44C60.7399 582.693 60.0531 638.898 72.5668 665.159C77.2635 675.017 129.786 683.67 123.744 660.432C111.941 615.034 96.6863 561.989 98.3378 532.033" fill="#FFACC9"/>
<path d="M85.7792 449.895C85.7792 449.895 46.7642 494.817 54.0197 540.44C60.7399 582.693 60.0531 638.898 72.5668 665.159C77.2635 675.017 129.786 683.67 123.744 660.432C111.941 615.034 96.6863 561.989 98.3378 532.033" stroke="#294064" stroke-miterlimit="10" stroke-linecap="round"/>
<path d="M107.126 431.574C106.967 428.01 91.8776 436.348 86.1355 441.543C81.341 445.877 71.6881 456.25 72.964 463.263C77.5754 488.604 88.8567 524.736 122.111 570.566C128.601 579.512 138.758 576.929 141.275 581.472C154.575 605.484 166.668 630.901 166.878 628.452C168.648 607.737 109.931 494.831 107.126 431.574Z" fill="#F689AF" stroke="#294064" stroke-miterlimit="10" stroke-linecap="round"/>
<path d="M144.284 424.486C143.552 420.983 160.278 423.613 167.569 426.452C173.654 428.827 186.515 435.123 187.932 442.117C193.054 467.365 195.961 505.01 181.984 559.377C179.253 569.988 168.857 571.137 168.162 576.241C167.14 583.738 174.097 642.001 166.678 641.727C163.06 641.596 158.07 611.658 155.807 572.784C152.798 521.05 150.649 455.169 144.284 424.486Z" fill="#F689AF" stroke="#294064" stroke-miterlimit="10" stroke-linecap="round"/>
<path d="M176.633 659.086C178.156 656.703 179.475 654.3 181.104 651.983" stroke="#2E4166" stroke-miterlimit="10" stroke-linecap="round"/>
<path d="M183.247 671.802C184.792 669.22 186.44 666.697 188.091 664.18" stroke="#2E4166" stroke-miterlimit="10" stroke-linecap="round"/>
<path d="M68.7031 653.315C68.4926 654.759 72.4654 657.787 73.405 658.635C79.3088 663.946 91.1299 665.365 98.5971 664.97C101.738 664.803 104.114 664.61 107.01 664.091" stroke="#2E4166" stroke-miterlimit="10" stroke-linecap="round"/>
<path d="M290.684 368.199C289.835 368.103 288.973 368.101 288.107 368.172C280.367 368.793 274.628 375.685 273.554 387.042C273.384 388.847 274.62 390.427 276.303 390.574C277.981 390.721 279.473 389.384 279.645 387.577C280.43 379.259 283.898 375.068 288.426 374.704C292.437 374.383 296.238 377.244 296.951 381.175C297.841 386.079 296.528 389.084 292.138 394.041C291.894 394.317 290.605 395.762 290.447 395.941C285.264 401.688 282.905 405.535 282.012 411.287C268.411 415.139 213.637 435.908 213.67 437.372C213.684 437.978 339.859 468.365 342.203 467.391C343.252 466.953 298.926 422.49 287.92 412.731C288.489 408.357 290.249 405.475 294.79 400.441C294.946 400.267 296.262 398.82 296.522 398.526C299.11 395.602 300.679 393.431 301.811 390.826C303.273 387.466 303.696 383.853 302.96 379.793C301.813 373.452 296.626 368.869 290.684 368.199ZM282.908 419.682C284.089 419.966 320.268 454.279 319.013 454.714C317.277 455.322 241.156 436.77 239.423 435.892C238.119 435.24 282.638 419.617 282.908 419.682Z" fill="#FFD432" stroke="#294064" stroke-miterlimit="10" stroke-linecap="round"/>
</g>
<defs>
<clipPath id="clip0_1130_1241">
<path d="M0 0H414V841C414 852.046 405.046 861 394 861H20C8.95432 861 0 852.046 0 841V0Z" fill="white"/>
</clipPath>
</defs>
</svg>
