<svg width="414" height="861" viewBox="0 0 414 861" fill="none" xmlns="http://www.w3.org/2000/svg">
<g clip-path="url(#clip0_1130_911)">
<path d="M0 0H414V841C414 852.046 405.046 861 394 861H20C8.95432 861 0 852.046 0 841V0Z" fill="#F8D6B7"/>
<path d="M257.986 411.197C271.901 354.596 329.451 320.088 386.527 334.12C443.603 348.152 478.592 405.41 464.677 462.012C450.761 518.613 393.212 553.122 336.136 539.09C279.06 525.058 244.07 467.799 257.986 411.197Z" fill="white" fill-opacity="0.3"/>
<path d="M-45.1284 672.591C-17.9225 561.929 93.8415 494.274 204.504 521.48C315.165 548.685 382.82 660.45 355.614 771.112C328.408 881.773 216.644 949.428 105.983 922.222C-4.6794 895.016 -72.334 783.252 -45.1284 672.591Z" fill="white" fill-opacity="0.3"/>
<path d="M169.847 377.468C170.017 375.527 171.761 374.093 173.742 374.267L343.919 389.163C345.9 389.337 347.369 391.051 347.199 392.993C347.029 394.934 345.285 396.367 343.304 396.194L173.127 381.297C171.146 381.124 169.677 379.41 169.847 377.468Z" fill="#FFD432" stroke="#294064" stroke-miterlimit="10" stroke-linejoin="round"/>
<path d="M175.774 780.315C187.175 784.01 197.558 784.151 209.456 785.689C196.881 764.076 170.653 742.006 170.653 742.006C170.653 742.006 127.482 716.549 101.204 699.85C99.3136 698.648 95.7866 698.329 93.6022 698.672C83.9612 700.185 86.3911 715.433 86.472 721.109" fill="#B6D93E"/>
<path d="M175.774 780.315C187.175 784.01 197.558 784.151 209.456 785.689C196.881 764.076 170.653 742.006 170.653 742.006C170.653 742.006 127.482 716.549 101.204 699.85C99.3136 698.648 95.7866 698.329 93.6022 698.672C83.9612 700.185 86.3911 715.433 86.472 721.109" stroke="#294064" stroke-miterlimit="10" stroke-linecap="round" stroke-linejoin="round"/>
<path d="M199.717 598.707C199.392 598.809 199.005 598.801 198.741 599.013C191.741 604.611 184.652 610.119 177.981 616.089C162.91 629.577 149.303 645.117 135.239 659.61C126.304 668.817 119.179 679.384 110.314 688.561C101.236 697.957 91.1129 707.974 86.9809 720.712C82.6348 734.11 88.6083 748.714 99.7842 757.125C106.919 762.496 116.798 764.79 124.988 768.249C134.347 772.202 145.794 775.467 155.934 772.288C161.476 770.551 155.899 789.105 161.065 786.648C171.732 781.574 195.213 757.721 204.966 750.313C216.657 741.432 225.087 731.205 234.607 720.147C243.643 709.652 253.545 699.631 261.184 688.036C266.176 680.459 270.021 671.907 274.223 663.868C284.438 644.322 300.917 629.85 299.255 605.818C298.786 599.028 296.813 591.008 290.015 587.576" fill="#FFC6B2"/>
<path d="M150.509 623.908C231.322 503.402 294.786 477.785 294.786 477.785C294.786 477.785 286.531 491.243 281.978 498.334C262.374 528.871 216.312 585.983 235.208 589.542C252.182 592.74 319.768 493.158 343.684 503.483C374.619 516.837 287.232 594.447 287.232 594.447" fill="#FFC6B2"/>
<path d="M150.509 623.908C231.322 503.402 294.786 477.785 294.786 477.785C294.786 477.785 286.531 491.243 281.978 498.334C262.374 528.871 216.312 585.983 235.208 589.542C252.182 592.74 319.768 493.158 343.684 503.483C374.619 516.837 287.232 594.447 287.232 594.447" stroke="#294064" stroke-miterlimit="10" stroke-linecap="round" stroke-linejoin="round"/>
<path d="M284.868 600.582C284.868 600.582 261.288 603.827 252.121 596.39C237.617 584.623 248.485 568.823 261.412 565.749C279.495 561.45 303.495 567.048 318.968 579.47C327.866 586.614 330.312 597.078 326.369 605.716C318.266 623.467 297.908 633.829 297.908 633.829" fill="#FFC6B2"/>
<path d="M284.868 600.582C284.868 600.582 261.288 603.827 252.121 596.39C237.617 584.623 248.485 568.823 261.412 565.749C279.495 561.45 303.495 567.048 318.968 579.47C327.866 586.614 330.312 597.078 326.369 605.716C318.266 623.467 297.908 633.829 297.908 633.829" stroke="#294064" stroke-miterlimit="10" stroke-linecap="round" stroke-linejoin="round"/>
<path d="M297.041 621.4C297.041 621.4 287.416 635.923 275.933 642.247C262.774 649.495 245.179 642.675 246.754 630.855C248.066 621.003 256.005 617.047 264.348 610.45C270.543 605.552 284.021 578.104 305.666 598.421C321.84 613.604 296.522 641.973 289.411 664.537C282.347 686.946 275.781 718.118 257.942 733.722C230.344 757.86 207.613 742.828 168.79 781.292" fill="#FFC6B2"/>
<path d="M297.041 621.4C297.041 621.4 287.416 635.923 275.933 642.247C262.774 649.495 245.179 642.675 246.754 630.855C248.066 621.003 256.005 617.047 264.348 610.45C270.543 605.552 284.021 578.104 305.666 598.421C321.84 613.604 296.522 641.973 289.411 664.537C282.347 686.946 275.781 718.118 257.942 733.722C230.344 757.86 207.613 742.828 168.79 781.292" stroke="#294064" stroke-miterlimit="10" stroke-linecap="round" stroke-linejoin="round"/>
<path d="M263.702 612.818C253.327 613.726 237.95 636.323 255.491 635.917C268.871 635.608 280.334 611.363 263.702 612.818Z" fill="#FD6332" stroke="#294064" stroke-miterlimit="10" stroke-linecap="round" stroke-linejoin="round"/>
<path d="M254.655 570.759C253.015 571.323 247.424 574.842 248.464 579.557C250.828 590.274 272.311 592.542 277.905 583.248C285.05 571.379 263.451 567.729 254.655 570.759Z" fill="#FD6332" stroke="#294064" stroke-miterlimit="10" stroke-linecap="round" stroke-linejoin="round"/>
<path d="M252.716 556.424C251.68 558.557 253.791 561.048 254.557 563.294C254.794 563.991 256.217 564.456 256.744 564.817C261.406 568.022 265.962 570.022 271.519 571.482C279.497 573.579 286.797 574.173 295.073 574.448C299.943 574.609 305.11 575.02 309.566 572.661C313.355 570.654 317.19 568.109 319.617 564.49C322.125 560.75 321.311 556.076 319.601 552.362C315.521 543.5 311.137 540.027 301.472 536.959C295.274 534.992 287.825 533.563 281.32 533.829C274.944 534.09 269.738 535.278 263.922 537.887C260.628 539.365 257.701 541.447 254.137 542.382" fill="white" fill-opacity="0.500772"/>
<path d="M173.754 374.288C171.774 374.114 170.025 375.537 169.855 377.479C169.85 377.543 169.872 377.6 169.87 377.664L169.839 377.661L156.142 534.136C154.636 551.343 167.645 566.534 185.204 568.071L298.967 578.029C316.526 579.566 331.991 566.868 333.498 549.661L347.195 393.186L347.163 393.183C347.172 393.12 347.205 393.067 347.211 393.004C347.381 391.062 345.906 389.357 343.925 389.183L173.754 374.288ZM285.894 541.179C287.368 541.384 288.744 541.846 289.937 542.623C295.231 546.072 294.631 553.933 299.846 557.604C302.813 559.692 305.272 557.442 308.653 556.348C311.534 555.416 313.634 555.55 314.879 556.478C320.923 560.982 313.288 568.013 307.054 570.859C299.353 574.373 281.044 572.246 272.864 570.63C267.274 569.526 260.221 567.111 260.075 560.081C259.89 551.175 275.578 539.739 285.894 541.179Z" fill="#A6D08D" fill-opacity="0.49" stroke="#294064" stroke-miterlimit="10" stroke-linejoin="round"/>
<path d="M256.716 530.997C237.784 529.531 220.595 528.826 210.256 530.048C183.786 533.174 185.875 562.224 210.904 566.501C235.555 570.714 268.926 574.613 294.996 574.737C322.381 574.868 328.421 562.833 329.779 553.333C331.389 542.072 321.428 537.313 313.622 536.501C296.322 534.698 275.648 532.463 256.716 530.997ZM285.898 541.169C287.372 541.374 288.749 541.836 289.941 542.613C295.235 546.061 294.636 553.923 299.85 557.593C302.817 559.682 305.277 557.432 308.658 556.338C311.538 555.405 313.638 555.54 314.883 556.468C320.927 560.972 313.293 568.003 307.058 570.848C299.357 574.363 281.048 572.236 272.868 570.62C267.279 569.516 260.225 567.101 260.079 560.071C259.894 551.165 275.583 539.728 285.898 541.169Z" fill="white" stroke="#294064" stroke-miterlimit="10" stroke-linecap="round" stroke-linejoin="round"/>
<path d="M173.215 535.079C174.342 528.52 190.839 520.363 192.538 529.198C193.569 534.556 187.962 537.46 187.243 544.128C186.761 548.6 190.856 553.109 188.181 556.934C183.107 564.192 172.979 555.599 171.914 550.069C171.656 548.725 170.828 543.121 171.44 540.96C171.998 538.99 172.869 537.096 173.215 535.079Z" fill="#FFD432" stroke="#294064" stroke-miterlimit="10" stroke-linecap="round" stroke-linejoin="round"/>
<path d="M197.464 527.699C194.944 528.226 191.957 532.702 197.104 531.471C200.671 530.617 199.865 527.197 197.464 527.699Z" fill="#FFD432" stroke="#294064" stroke-miterlimit="10" stroke-linecap="round" stroke-linejoin="round"/>
<path d="M265.866 531.522C251.464 530.402 238.708 530.21 227.982 532.137C201.763 536.848 195.059 563.84 210.901 566.501C235.564 570.645 268.923 574.613 294.992 574.738C322.377 574.869 328.418 562.834 329.776 553.334C331.385 542.072 321.424 537.313 313.619 536.501C296.319 534.699 280.268 532.642 265.866 531.522ZM285.895 541.169C287.369 541.375 288.745 541.837 289.937 542.613C295.231 546.062 294.632 553.923 299.847 557.594C302.814 559.682 305.273 557.432 308.654 556.338C311.535 555.406 313.635 555.54 314.88 556.468C320.923 560.972 313.289 568.004 307.055 570.849C299.354 574.364 281.045 572.237 272.865 570.62C267.275 569.516 260.222 567.101 260.076 560.072C259.891 551.165 275.579 539.729 285.895 541.169Z" fill="#FFD432" stroke="#294064" stroke-miterlimit="10" stroke-linecap="round" stroke-linejoin="round"/>
<path d="M279.387 541.707C268.691 541.353 257.207 544.111 251.149 551.168C244.401 559.03 251.728 566.979 261.336 568.707C265.516 569.458 270.092 570.266 274.838 570.933C274.236 570.827 273.384 570.725 272.86 570.622C267.27 569.517 260.216 567.102 260.071 560.073C259.922 552.907 270.047 544.124 279.387 541.707ZM322.18 545.883C321.31 545.942 320.184 546.543 318.739 547.946C315.152 551.432 312.582 554.307 308.793 556.306C311.595 555.427 313.652 555.558 314.875 556.47C320.142 560.395 315.029 566.241 309.498 569.56C310.618 569.173 311.717 568.752 312.792 568.266C319.105 565.409 323.053 559.93 324.386 553.616C325.049 550.477 324.788 545.705 322.18 545.883Z" fill="#CFE8FF" fill-opacity="0.470911" stroke="#294064" stroke-miterlimit="10" stroke-linecap="round" stroke-linejoin="round"/>
<path d="M286.614 559.372C283.949 559.779 281.643 561.852 283.812 563.817C285.954 565.759 294.821 565.574 292.894 561.27C292.193 559.705 289.009 559.006 286.614 559.372Z" fill="white" stroke="#294064" stroke-miterlimit="10" stroke-linecap="round" stroke-linejoin="round"/>
<path d="M244.333 562.127C242.558 560.122 239.607 559.603 236.925 560.032C234.617 560.401 232.991 562.57 235.265 564.689C237.165 566.459 240.789 566.888 243.268 566.077C245.318 565.405 245.594 563.552 244.333 562.127Z" fill="#FAE9D5" stroke="#294064" stroke-miterlimit="10" stroke-linecap="round" stroke-linejoin="round"/>
<path d="M173.812 414.375C171.951 414.212 170.353 415.491 170.018 417.252L169.956 417.247L169.926 417.582L161.694 511.632C161.309 516.022 164.621 519.889 169.101 520.282L322.662 533.724C327.142 534.115 331.091 530.884 331.475 526.494L339.708 432.444L339.737 432.109L339.675 432.103C339.651 430.31 338.284 428.772 336.424 428.609L173.812 414.375Z" fill="#94C988" stroke="#294064" stroke-miterlimit="10" stroke-linejoin="round"/>
<mask id="mask0_1130_911" style="mask-type:luminance" maskUnits="userSpaceOnUse" x="161" y="414" width="179" height="120">
<path d="M173.81 414.374C171.95 414.211 170.352 415.49 170.016 417.252L169.954 417.246L169.925 417.581L161.692 511.631C161.308 516.021 164.62 519.888 169.1 520.281L322.661 533.723C327.141 534.115 331.089 530.883 331.474 526.493L339.706 432.443L339.736 432.108L339.673 432.103C339.65 430.31 338.283 428.771 336.422 428.608L173.81 414.374Z" fill="white"/>
</mask>
<g mask="url(#mask0_1130_911)">
<path d="M271.989 449.186C273.113 446.102 261.177 451.335 255.534 457.812C248.22 466.206 244.717 474.486 237.269 485.091C229.821 495.696 224.414 500.152 225.742 500.232C232.272 500.624 249.603 479.647 257.142 467.027C263.139 456.988 270.939 452.07 271.989 449.186Z" fill="#529842" stroke="#294064" stroke-miterlimit="10" stroke-linecap="round" stroke-linejoin="round"/>
<path d="M167.785 512.377C171.844 513.563 186.148 515.282 206.577 517.15C227.077 519.024 256.881 522.43 267.642 516.063C290.646 502.452 287.955 477.492 306.066 474.878C327.628 471.765 320.674 500.299 337.066 496.683C339.515 476.548 340.152 475.887 342.601 455.752C328.087 452.366 330.853 471.23 312.884 470.704C304.827 470.468 302.528 443.703 280.237 449.818C260.711 455.174 253.463 491.509 229.528 504.831C213.539 513.73 189.163 514.381 177.998 512.652C165.04 510.644 163.915 511.247 167.785 512.377Z" fill="#529842" stroke="#294064" stroke-miterlimit="10" stroke-linecap="round" stroke-linejoin="round"/>
<path d="M302.358 484.216C295.376 488.964 303.112 486.266 309.694 487.925C315.066 489.279 317.074 492.252 318.624 490.924C320.534 489.289 316.077 485.026 313.978 484.074C310.248 482.383 305.756 481.905 302.358 484.216Z" fill="#529842" stroke="#294064" stroke-miterlimit="10" stroke-linecap="round" stroke-linejoin="round"/>
<path d="M338.793 498.101C335.434 501.11 331.98 506.294 327.423 506.223C317.45 506.069 317.675 494.379 304.179 495.145C289.612 495.972 288.491 519.257 274.114 521.669C259.807 524.069 239.531 522.419 212.684 519.532C186.24 516.688 161.063 514.524 166.85 516.028C177.176 518.713 285.473 529.189 314.274 530.316C327.686 530.841 309.293 515.691 323.595 512.583C331.807 510.798 329.103 522.355 339.935 524.077C341.904 514.547 341.904 514.547 343.872 505.017" fill="#529842"/>
<path d="M338.793 498.101C335.434 501.11 331.98 506.294 327.423 506.223C317.45 506.069 317.675 494.379 304.179 495.145C289.612 495.972 288.491 519.257 274.114 521.669C259.807 524.069 239.531 522.419 212.684 519.532C186.24 516.688 161.063 514.524 166.85 516.028C177.176 518.713 285.473 529.189 314.274 530.316C327.686 530.841 309.293 515.691 323.595 512.583C331.807 510.798 329.103 522.355 339.935 524.077C341.904 514.547 341.904 514.547 343.872 505.017" stroke="#294064" stroke-miterlimit="10" stroke-linecap="round" stroke-linejoin="round"/>
<path d="M274.425 447.41C274.885 449.194 279.633 448.503 279.528 446.632C279.437 445.021 273.998 445.755 274.425 447.41Z" fill="#529842" stroke="#294064" stroke-miterlimit="10" stroke-linecap="round" stroke-linejoin="round"/>
</g>
<path d="M169.925 417.593C170.095 415.651 171.839 414.218 173.821 414.391L336.432 428.626C338.413 428.799 339.881 430.513 339.711 432.455C339.541 434.396 337.797 435.83 335.816 435.656L173.205 421.422C171.223 421.249 169.755 419.534 169.925 417.593Z" fill="#83A5D8" stroke="#294064" stroke-miterlimit="10" stroke-linejoin="round"/>
<path d="M186.496 382.471L211.697 384.677L204.473 467.201C203.876 474.02 197.751 479.055 190.792 478.446C183.833 477.837 178.676 471.814 179.273 464.995L186.496 382.471Z" fill="white" stroke="#294064" stroke-miterlimit="10" stroke-linejoin="round"/>
<path d="M176.702 494.362C177.298 487.542 183.424 482.508 190.383 483.117C197.342 483.726 202.499 489.748 201.902 496.568C201.305 503.388 195.18 508.422 188.221 507.813C181.262 507.204 176.105 501.182 176.702 494.362Z" fill="white" stroke="#294064" stroke-miterlimit="10" stroke-linejoin="round"/>
<path d="M72.7487 726.566C72.7487 726.566 90.6512 706.41 99.3025 682.729C106.085 664.164 99.9181 643.345 104.398 624.113C109.258 603.245 117.151 597.442 125.627 581.099C130.537 571.632 129.682 559.519 137.777 549.32C153.05 530.077 152.656 518.155 165.133 512.899C177.611 507.642 188.185 522.284 187.795 532.982C186.835 559.265 168.595 570.66 169.44 584.682C169.784 590.386 193.097 607.504 195.515 630.578C198.041 654.687 185.399 672.934 185.399 672.934" fill="#FFC6B2"/>
<path d="M72.7487 726.566C72.7487 726.566 90.6512 706.41 99.3025 682.729C106.085 664.164 99.9181 643.345 104.398 624.113C109.258 603.245 117.151 597.442 125.627 581.099C130.537 571.632 129.682 559.519 137.777 549.32C153.05 530.077 152.656 518.155 165.133 512.899C177.611 507.642 188.185 522.284 187.795 532.982C186.835 559.265 168.595 570.66 169.44 584.682C169.784 590.386 193.097 607.504 195.515 630.578C198.041 654.687 185.399 672.934 185.399 672.934" stroke="#294064" stroke-miterlimit="10" stroke-linecap="round" stroke-linejoin="round"/>
<path d="M189.514 762.74C189.514 762.74 141.276 744.159 91.9207 699.303C89.8628 712.913 176.633 771.877 176.633 771.877L189.514 762.74Z" fill="#E4AC98"/>
<path d="M232.904 572.951C232.904 572.951 229.112 581.051 230.062 585.154C232.144 594.147 239.902 589.694 244.768 586.559C246.406 598.532 261.719 603.005 270.97 601.792C265.539 606.006 255.586 618.499 242.778 612.39C237.203 609.731 236.274 597.727 236.274 597.727L174.775 591.11L191.798 569.283L232.904 572.951Z" fill="#E4AC98"/>
<path d="M192.097 592.893C180.075 593.756 192.834 603.217 193.899 619.491C188.568 608.298 186.009 604.516 174.417 591.293C179.985 585.137 185.966 576.549 185.966 576.549" fill="#E4AC98"/>
<path d="M250.168 641.416C264.877 651.717 279.077 643.413 288.267 633.73C282.407 643.89 273.426 658.384 258.424 651.592C252.214 648.781 250.028 642.285 250.168 641.416Z" fill="#E4AC98"/>
<path d="M279.787 576.988C285.84 584.899 310.161 590.102 314.014 576.516C314.014 576.516 309.484 578.293 307.014 578.543C302.876 578.961 298.902 578.622 294.92 578.321C291.275 578.045 279.787 576.988 279.787 576.988Z" fill="#E4AC98"/>
<path d="M-43.0838 843.602C19.7733 784.52 89.3376 698.705 89.3376 698.705C89.3376 698.705 144.427 759.941 209.651 785.798L122.908 903.201" fill="#02A456"/>
<path d="M-43.0838 843.602C19.7733 784.52 89.3376 698.705 89.3376 698.705C89.3376 698.705 144.427 759.941 209.651 785.798L122.908 903.201" stroke="#294064" stroke-miterlimit="10" stroke-linecap="round" stroke-linejoin="round"/>
<mask id="mask1_1130_911" style="mask-type:luminance" maskUnits="userSpaceOnUse" x="-44" y="698" width="254" height="206">
<path d="M-43.0848 843.616C19.7724 784.534 89.3366 698.719 89.3366 698.719C89.3366 698.719 144.426 759.955 209.65 785.813L122.907 903.216" fill="white"/>
</mask>
<g mask="url(#mask1_1130_911)">
<path d="M106.016 706.062L-2.20093 833.775" stroke="#B6D93E" stroke-width="5" stroke-miterlimit="10" stroke-linecap="round" stroke-linejoin="round"/>
<path d="M131.33 712.925L-2.99978 875.002" stroke="#B6D93E" stroke-width="5" stroke-miterlimit="10" stroke-linecap="round" stroke-linejoin="round"/>
<path d="M154.289 721.809L24.0001 883.002" stroke="#B6D93E" stroke-width="5" stroke-miterlimit="10" stroke-linecap="round" stroke-linejoin="round"/>
<path d="M176.151 730.596L57 875.001" stroke="#B6D93E" stroke-width="5" stroke-miterlimit="10" stroke-linecap="round" stroke-linejoin="round"/>
<path d="M197.623 739.71L89.4058 867.422" stroke="#B6D93E" stroke-width="5" stroke-miterlimit="10" stroke-linecap="round" stroke-linejoin="round"/>
<path d="M217.026 751.941L108.809 879.656" stroke="#B6D93E" stroke-width="5" stroke-miterlimit="10" stroke-linecap="round" stroke-linejoin="round"/>
</g>
<path d="M88.3509 692.148C85.981 691.843 83.8175 693.478 83.5159 695.8C83.2138 698.122 84.8887 700.249 87.2586 700.553C89.6286 700.857 91.7921 699.222 92.0941 696.9C92.3957 694.578 90.7209 692.451 88.3509 692.148ZM88.0393 694.545C89.0549 694.675 89.7766 695.591 89.6473 696.586C89.5181 697.581 88.5859 698.286 87.5703 698.155C86.5546 698.025 85.8483 697.111 85.9776 696.116C86.1068 695.121 87.0236 694.414 88.0393 694.545Z" fill="#FFD432" stroke="#294064" stroke-miterlimit="10" stroke-linejoin="round"/>
<path d="M89.2957 700.509C86.9257 700.204 84.7622 701.839 84.4607 704.161C84.1586 706.483 85.8339 708.61 88.2039 708.914C90.5738 709.218 92.7369 707.583 93.0389 705.261C93.3405 702.939 91.6656 700.812 89.2957 700.509ZM88.984 702.905C89.9997 703.036 90.7213 703.952 90.5921 704.947C90.4629 705.942 89.5307 706.646 88.515 706.516C87.4994 706.386 86.7931 705.472 86.9224 704.476C87.0516 703.481 87.9684 702.775 88.984 702.905Z" fill="#FFD432" stroke="#294064" stroke-miterlimit="10" stroke-linejoin="round"/>
<path d="M90.9724 709.019C88.6024 708.715 86.4389 710.349 86.1368 712.671C85.8353 714.994 87.5101 717.12 89.8801 717.424C92.2501 717.728 94.4136 716.093 94.7151 713.771C95.0172 711.449 93.3423 709.323 90.9724 709.019ZM90.6607 711.416C91.6764 711.546 92.398 712.463 92.2688 713.458C92.1396 714.453 91.2073 715.157 90.1917 715.027C89.1761 714.897 88.4698 713.982 88.5991 712.987C88.7283 711.992 89.6451 711.286 90.6607 711.416Z" fill="#FFD432" stroke="#294064" stroke-miterlimit="10" stroke-linejoin="round"/>
<path d="M92.5882 717.898C90.2182 717.595 88.0547 719.229 87.7526 721.551C87.4511 723.873 89.1259 726 91.4959 726.304C93.8659 726.607 96.0294 724.973 96.3309 722.651C96.633 720.329 94.9582 718.202 92.5882 717.898ZM92.2766 720.295C93.2922 720.426 94.0139 721.342 93.8846 722.337C93.7553 723.333 92.8231 724.037 91.8075 723.906C90.7919 723.776 90.0856 722.862 90.2148 721.867C90.3441 720.871 91.2609 720.165 92.2766 720.295Z" fill="#FFD432" stroke="#294064" stroke-miterlimit="10" stroke-linejoin="round"/>
<path d="M95.3854 726.075C93.0155 725.77 90.852 727.405 90.5504 729.727C90.2484 732.049 91.9232 734.176 94.2931 734.48C96.6631 734.784 98.8266 733.149 99.1287 730.827C99.4303 728.505 97.7554 726.378 95.3854 726.075ZM95.0738 728.472C96.0895 728.602 96.8111 729.518 96.6819 730.513C96.5526 731.508 95.6204 732.213 94.6048 732.082C93.5892 731.952 92.8829 731.038 93.0121 730.043C93.1414 729.048 94.0582 728.341 95.0738 728.472Z" fill="#FFD432" stroke="#294064" stroke-miterlimit="10" stroke-linejoin="round"/>
<path d="M97.6854 734.61C95.3154 734.306 93.1519 735.94 92.8503 738.263C92.5488 740.585 94.2236 742.711 96.5936 743.015C98.9636 743.319 101.127 741.685 101.429 739.362C101.73 737.041 100.055 734.914 97.6854 734.61ZM97.3742 737.007C98.3899 737.137 99.1115 738.054 98.9823 739.049C98.8531 740.044 97.9208 740.748 96.9052 740.618C95.8891 740.488 95.1833 739.573 95.3125 738.578C95.4418 737.583 96.3586 736.877 97.3742 737.007Z" fill="#FFD432" stroke="#294064" stroke-miterlimit="10" stroke-linejoin="round"/>
<path d="M100.824 743.023C98.4538 742.719 96.2903 744.354 95.9887 746.676C95.6872 748.998 97.362 751.125 99.7319 751.428C102.102 751.732 104.265 750.098 104.567 747.776C104.869 745.454 103.194 743.327 100.824 743.023ZM100.512 745.421C101.528 745.551 102.25 746.467 102.12 747.462C101.991 748.457 101.059 749.162 100.043 749.031C99.0275 748.901 98.3212 747.987 98.4504 746.992C98.5796 745.996 99.4965 745.29 100.512 745.421Z" fill="#FFD432" stroke="#294064" stroke-miterlimit="10" stroke-linejoin="round"/>
<path d="M103.873 751.346C101.503 751.043 99.3393 752.677 99.0377 754.999C98.7357 757.321 100.411 759.447 102.78 759.752C105.15 760.055 107.314 758.421 107.616 756.099C107.918 753.777 106.243 751.65 103.873 751.346ZM103.561 753.743C104.577 753.874 105.298 754.79 105.169 755.785C105.04 756.78 104.108 757.484 103.092 757.354C102.076 757.224 101.37 756.31 101.499 755.314C101.629 754.319 102.546 753.613 103.561 753.743Z" fill="#FFD432" stroke="#294064" stroke-miterlimit="10" stroke-linejoin="round"/>
<path d="M107.454 759.465C105.084 759.161 102.921 760.795 102.619 763.118C102.318 765.44 103.993 767.566 106.363 767.871C108.733 768.174 110.896 766.54 111.198 764.218C111.499 761.896 109.824 759.769 107.454 759.465ZM107.143 761.862C108.159 761.993 108.881 762.909 108.751 763.904C108.622 764.899 107.689 765.603 106.674 765.473C105.658 765.343 104.952 764.429 105.082 763.433C105.211 762.438 106.127 761.732 107.143 761.862Z" fill="#FFD432" stroke="#294064" stroke-miterlimit="10" stroke-linejoin="round"/>
<path d="M112.99 766.322C110.62 766.019 108.457 767.653 108.155 769.975C107.854 772.297 109.529 774.423 111.899 774.728C114.268 775.032 116.432 773.397 116.734 771.075C117.035 768.753 115.36 766.626 112.99 766.322ZM112.679 768.719C113.695 768.85 114.416 769.766 114.287 770.761C114.158 771.756 113.226 772.46 112.21 772.33C111.194 772.2 110.488 771.286 110.618 770.29C110.747 769.295 111.663 768.589 112.679 768.719Z" fill="#FFD432" stroke="#294064" stroke-miterlimit="10" stroke-linejoin="round"/>
<path d="M119.248 772.881C116.878 772.576 114.714 774.211 114.413 776.533C114.111 778.855 115.786 780.982 118.156 781.285C120.526 781.59 122.689 779.955 122.991 777.633C123.293 775.311 121.618 773.184 119.248 772.881ZM118.936 775.278C119.952 775.408 120.674 776.324 120.544 777.319C120.415 778.314 119.483 779.019 118.467 778.888C117.452 778.758 116.745 777.844 116.875 776.849C117.004 775.853 117.921 775.147 118.936 775.278Z" fill="#FFD432" stroke="#294064" stroke-miterlimit="10" stroke-linejoin="round"/>
<path d="M126.435 778.284C124.065 777.98 121.901 779.614 121.6 781.937C121.298 784.259 122.973 786.385 125.343 786.689C127.713 786.993 129.876 785.359 130.178 783.036C130.48 780.714 128.805 778.588 126.435 778.284ZM126.124 780.681C127.139 780.812 127.861 781.728 127.732 782.723C127.602 783.718 126.67 784.422 125.655 784.292C124.638 784.162 123.933 783.248 124.062 782.252C124.191 781.257 125.108 780.551 126.124 780.681Z" fill="#FFD432" stroke="#294064" stroke-miterlimit="10" stroke-linejoin="round"/>
<path d="M134.56 781.945C132.19 781.641 130.026 783.275 129.725 785.597C129.423 787.919 131.098 790.046 133.468 790.35C135.838 790.654 138.001 789.019 138.303 786.697C138.605 784.375 136.93 782.248 134.56 781.945ZM134.248 784.342C135.264 784.472 135.986 785.388 135.856 786.384C135.727 787.379 134.795 788.083 133.779 787.953C132.764 787.823 132.057 786.908 132.187 785.913C132.316 784.918 133.233 784.211 134.248 784.342Z" fill="#FFD432" stroke="#294064" stroke-miterlimit="10" stroke-linejoin="round"/>
<path d="M143.407 782.927C141.037 782.623 138.873 784.258 138.572 786.58C138.27 788.902 139.945 791.028 142.315 791.332C144.685 791.636 146.848 790.002 147.15 787.679C147.451 785.357 145.777 783.231 143.407 782.927ZM143.096 785.324C144.111 785.454 144.833 786.37 144.704 787.366C144.574 788.361 143.642 789.065 142.626 788.935C141.61 788.805 140.905 787.891 141.034 786.895C141.163 785.9 142.08 785.194 143.096 785.324Z" fill="#FFD432" stroke="#294064" stroke-miterlimit="10" stroke-linejoin="round"/>
<path d="M152.4 783.505C150.03 783.201 147.867 784.835 147.565 787.158C147.263 789.48 148.938 791.606 151.308 791.911C153.678 792.214 155.841 790.58 156.143 788.258C156.445 785.936 154.77 783.809 152.4 783.505ZM152.089 785.902C153.104 786.033 153.826 786.949 153.697 787.944C153.567 788.939 152.635 789.643 151.62 789.513C150.604 789.383 149.898 788.469 150.027 787.473C150.156 786.478 151.073 785.772 152.089 785.902Z" fill="#FFD432" stroke="#294064" stroke-miterlimit="10" stroke-linejoin="round"/>
<path d="M161.418 782.054C159.048 781.75 156.885 783.385 156.583 785.707C156.281 788.029 157.956 790.155 160.326 790.459C162.696 790.763 164.859 789.129 165.161 786.807C165.463 784.485 163.788 782.358 161.418 782.054ZM161.106 784.451C162.122 784.581 162.844 785.498 162.714 786.493C162.585 787.488 161.653 788.192 160.637 788.062C159.622 787.932 158.915 787.018 159.045 786.022C159.174 785.027 160.091 784.321 161.106 784.451Z" fill="#FFD432" stroke="#294064" stroke-miterlimit="10" stroke-linejoin="round"/>
<path d="M170.036 778.581C167.666 778.277 165.503 779.911 165.201 782.233C164.899 784.556 166.574 786.682 168.944 786.986C171.314 787.29 173.478 785.656 173.779 783.334C174.081 781.012 172.406 778.885 170.036 778.581ZM169.725 780.978C170.74 781.108 171.462 782.025 171.333 783.02C171.204 784.015 170.271 784.719 169.256 784.589C168.24 784.459 167.534 783.544 167.663 782.549C167.792 781.554 168.709 780.848 169.725 780.978Z" fill="#FFD432" stroke="#294064" stroke-miterlimit="10" stroke-linejoin="round"/>
<path d="M178.049 774.299C175.679 773.995 173.516 775.63 173.214 777.952C172.913 780.274 174.587 782.401 176.957 782.705C179.327 783.008 181.49 781.374 181.792 779.052C182.094 776.73 180.419 774.604 178.049 774.299ZM177.738 776.697C178.754 776.827 179.475 777.743 179.346 778.738C179.216 779.734 178.284 780.438 177.268 780.308C176.253 780.177 175.547 779.263 175.676 778.268C175.805 777.273 176.722 776.566 177.738 776.697Z" fill="#FFD432" stroke="#294064" stroke-miterlimit="10" stroke-linejoin="round"/>
<path d="M185.257 769.365C182.887 769.061 180.724 770.695 180.422 773.017C180.121 775.34 181.796 777.466 184.165 777.77C186.535 778.074 188.699 776.439 189.001 774.117C189.302 771.795 187.627 769.668 185.257 769.365ZM184.946 771.762C185.962 771.892 186.683 772.808 186.554 773.803C186.424 774.799 185.492 775.503 184.477 775.373C183.461 775.242 182.755 774.328 182.884 773.333C183.014 772.338 183.93 771.631 184.946 771.762Z" fill="#FFD432" stroke="#294064" stroke-miterlimit="10" stroke-linejoin="round"/>
<path d="M147.548 537.359C146.836 546.02 155.626 547.988 161.887 541.055C167.195 535.177 172.928 516.16 166.774 513.614C159.393 510.562 148.058 531.166 147.548 537.359Z" fill="#FD6332" stroke="#294064" stroke-miterlimit="10" stroke-linecap="round" stroke-linejoin="round"/>
<path d="M271.298 621.525C267.46 623.034 260.627 617.411 263.465 613.057" stroke="#294064" stroke-miterlimit="10" stroke-linecap="round" stroke-linejoin="round"/>
<path d="M274.924 586.044C271.098 583.237 271.979 577.443 272.877 576.008" stroke="#294064" stroke-miterlimit="10" stroke-linecap="round" stroke-linejoin="round"/>
<path d="M147.668 536.436C153.233 531.249 158.376 538.646 157.103 544.203" stroke="#294064" stroke-miterlimit="10" stroke-linecap="round" stroke-linejoin="round"/>
<path d="M339.489 400.034L338.318 414.03" stroke="#294064" stroke-miterlimit="10" stroke-linecap="round" stroke-linejoin="round"/>
<path d="M337.902 417.54L334.221 454.109" stroke="#294064" stroke-miterlimit="10" stroke-linecap="round" stroke-linejoin="round"/>
<path d="M220.355 387.673L251.888 390.443" stroke="#294064" stroke-miterlimit="10" stroke-linecap="round" stroke-linejoin="round"/>
<path d="M180.137 490.259C176.341 495.668 180.83 501.512 180.83 501.512" stroke="#294064" stroke-miterlimit="10" stroke-linecap="round" stroke-linejoin="round"/>
<path d="M182.574 503.288C184.511 504.942 187.272 506.041 189.871 505.869" stroke="#294064" stroke-miterlimit="10" stroke-linecap="round" stroke-linejoin="round"/>
<path d="M135.298 742.155C136.198 744.467 150.643 765.023 156.015 773.403" stroke="#294064" stroke-miterlimit="10" stroke-linecap="round" stroke-linejoin="round"/>
<path d="M169.879 792.003C173.833 796.581 187.054 811.64 186.458 810.95" stroke="#294064" stroke-miterlimit="10" stroke-linecap="round" stroke-linejoin="round"/>
<path d="M255.194 390.556L277.879 392.557" stroke="#294064" stroke-miterlimit="10" stroke-linecap="round" stroke-linejoin="round"/>
<path d="M293.198 626.623C295.406 626.446 297.379 624.912 298.741 623.334" stroke="#294064" stroke-miterlimit="10" stroke-linecap="round" stroke-linejoin="round"/>
<path d="M250.156 632.683C251.533 634.65 257.455 634.289 258.962 633.263" stroke="white" stroke-miterlimit="10" stroke-linecap="round" stroke-linejoin="round"/>
<path d="M260.981 632.289C262.981 631.085 264.528 629.725 266.022 627.911" stroke="white" stroke-miterlimit="10" stroke-linecap="round" stroke-linejoin="round"/>
<path d="M250.246 578.095C249.903 582.505 257.088 586.447 260.116 586.478" stroke="white" stroke-miterlimit="10" stroke-linecap="round" stroke-linejoin="round"/>
<path d="M262.374 586.736C264.356 587.013 266.849 586.77 266.849 586.77" stroke="white" stroke-miterlimit="10" stroke-linecap="round" stroke-linejoin="round"/>
<path d="M165.923 515.114C166.874 516.059 167.347 517.316 167.432 518.823C167.615 522.046 166.683 525.327 166.683 525.327" stroke="white" stroke-miterlimit="10" stroke-linecap="round" stroke-linejoin="round"/>
<path d="M166.321 527.532C165.901 529.659 163.634 534.91 163.634 534.91" stroke="white" stroke-miterlimit="10" stroke-linecap="round" stroke-linejoin="round"/>
<path d="M172.494 424.496L170.303 449.183" stroke="white" stroke-miterlimit="10" stroke-linecap="round" stroke-linejoin="round"/>
<path d="M169.885 453.489L168.847 469.886" stroke="white" stroke-miterlimit="10" stroke-linecap="round" stroke-linejoin="round"/>
<path d="M291.87 452.627C291.87 452.627 285.066 450.752 279.465 452.974C273.217 455.451 269.955 460.278 266.369 465.751" stroke="white" stroke-miterlimit="10" stroke-linecap="round" stroke-linejoin="round"/>
<path d="M264.584 468.568C260.241 473.872 256.67 481.9 252.26 487.287" stroke="white" stroke-miterlimit="10" stroke-linecap="round" stroke-linejoin="round"/>
<path d="M316.458 503.411C314.297 500.51 310.667 498.233 306.614 497.626" stroke="white" stroke-miterlimit="10" stroke-linecap="round" stroke-linejoin="round"/>
<path d="M302.986 497.933C301.066 498.15 298.768 499.794 297.268 501.233" stroke="white" stroke-miterlimit="10" stroke-linecap="round" stroke-linejoin="round"/>
<g clip-path="url(#clip1_1130_911)">
<path fill-rule="evenodd" clip-rule="evenodd" d="M346.728 20.6667H345.728C345.175 20.6667 344.728 21.1145 344.728 21.6667V30.3334C344.728 30.8857 345.175 31.3334 345.728 31.3334H346.728C347.28 31.3334 347.728 30.8857 347.728 30.3334V21.6667C347.728 21.1145 347.28 20.6667 346.728 20.6667ZM341.061 23.0001H342.061C342.613 23.0001 343.061 23.4478 343.061 24.0001V30.3334C343.061 30.8857 342.613 31.3334 342.061 31.3334H341.061C340.509 31.3334 340.061 30.8857 340.061 30.3334V24.0001C340.061 23.4478 340.509 23.0001 341.061 23.0001ZM337.394 25.3334H336.394C335.842 25.3334 335.394 25.7811 335.394 26.3334V30.3334C335.394 30.8857 335.842 31.3334 336.394 31.3334H337.394C337.947 31.3334 338.394 30.8857 338.394 30.3334V26.3334C338.394 25.7811 337.947 25.3334 337.394 25.3334ZM332.728 27.3334H331.728C331.175 27.3334 330.728 27.7811 330.728 28.3334V30.3334C330.728 30.8857 331.175 31.3334 331.728 31.3334H332.728C333.28 31.3334 333.728 30.8857 333.728 30.3334V28.3334C333.728 27.7811 333.28 27.3334 332.728 27.3334Z" fill="#1D2023"/>
<path fill-rule="evenodd" clip-rule="evenodd" d="M360.364 22.7947C362.58 22.7948 364.711 23.6462 366.317 25.173C366.438 25.2909 366.631 25.2894 366.751 25.1697L367.907 24.003C367.967 23.9423 368.001 23.86 368 23.7744C368 23.6889 367.965 23.607 367.904 23.547C363.689 19.5074 357.039 19.5074 352.824 23.547C352.763 23.607 352.728 23.6888 352.728 23.7744C352.727 23.86 352.761 23.9422 352.821 24.003L353.977 25.1697C354.096 25.2896 354.29 25.2911 354.411 25.173C356.017 23.6461 358.148 22.7947 360.364 22.7947ZM360.364 26.5903C361.582 26.5903 362.756 27.0428 363.658 27.86C363.78 27.976 363.973 27.9735 364.092 27.8543L365.246 26.6877C365.307 26.6265 365.341 26.5434 365.34 26.4572C365.339 26.3709 365.304 26.2886 365.242 26.2287C362.493 23.6723 358.237 23.6723 355.489 26.2287C355.427 26.2886 355.392 26.371 355.391 26.4573C355.39 26.5435 355.424 26.6266 355.485 26.6877L356.639 27.8543C356.758 27.9735 356.951 27.976 357.073 27.86C357.974 27.0433 359.148 26.5908 360.364 26.5903ZM362.677 29.1441C362.679 29.2307 362.645 29.3141 362.583 29.3747L360.586 31.3903C360.527 31.4496 360.448 31.4829 360.364 31.4829C360.281 31.4829 360.201 31.4496 360.143 31.3903L358.145 29.3747C358.083 29.314 358.049 29.2306 358.051 29.1441C358.053 29.0576 358.09 28.9756 358.155 28.9177C359.43 27.8388 361.298 27.8388 362.574 28.9177C362.638 28.9757 362.675 29.0576 362.677 29.1441Z" fill="#1D2023"/>
<g opacity="0.4">
<path fill-rule="evenodd" clip-rule="evenodd" d="M373 24.25C373 22.8499 373 22.1498 373.273 21.615C373.512 21.1446 373.895 20.7622 374.365 20.5225C374.9 20.25 375.6 20.25 377 20.25H391C392.4 20.25 393.1 20.25 393.635 20.5225C394.105 20.7622 394.488 21.1446 394.728 21.615C395 22.1498 395 22.8499 395 24.25V27.8976C395 29.1587 395 29.7892 394.778 30.2805C394.527 30.834 394.084 31.2773 393.531 31.5277C393.039 31.75 392.409 31.75 391.148 31.75H377C375.6 31.75 374.9 31.75 374.365 31.4775C373.895 31.2378 373.512 30.8554 373.273 30.385C373 29.8502 373 29.1501 373 27.75V24.25ZM377 21.25H391C391.717 21.25 392.194 21.2508 392.561 21.2807C392.916 21.3097 393.078 21.361 393.181 21.4135C393.463 21.5573 393.693 21.7868 393.837 22.069C393.889 22.1719 393.94 22.3344 393.969 22.6894C393.999 23.0562 394 23.5334 394 24.25V27.8976C394 28.543 393.999 28.9728 393.975 29.3042C393.951 29.6255 393.909 29.7743 393.867 29.8683C393.716 30.2004 393.45 30.4664 393.118 30.6166C393.024 30.6592 392.876 30.7012 392.554 30.7249C392.223 30.7494 391.793 30.75 391.148 30.75H377C376.283 30.75 375.806 30.7492 375.439 30.7193C375.084 30.6903 374.922 30.639 374.819 30.5865C374.537 30.4427 374.307 30.2132 374.164 29.931C374.111 29.8281 374.06 29.6656 374.031 29.3106C374.001 28.9438 374 28.4666 374 27.75V24.25C374 23.5334 374.001 23.0561 374.031 22.6894C374.06 22.3344 374.111 22.1719 374.164 22.069C374.307 21.7868 374.537 21.5573 374.819 21.4135C374.922 21.361 375.084 21.3097 375.439 21.2807C375.806 21.2508 376.283 21.25 377 21.25Z" fill="#1D2023"/>
<path d="M397.5 26.187C397.5 27.1189 396.863 27.902 396 28.124V24.25C396.863 24.472 397.5 25.2551 397.5 26.187Z" fill="#1D2023"/>
</g>
<path fill-rule="evenodd" clip-rule="evenodd" d="M375 22.75C375 22.4739 375.224 22.25 375.5 22.25H392.5C392.776 22.25 393 22.4739 393 22.75V29.25C393 29.5261 392.776 29.75 392.5 29.75H375.5C375.224 29.75 375 29.5261 375 29.25V22.75Z" fill="#1D2023"/>
</g>
<path d="M29.856 20.1675C27.5635 20.1675 25.9302 21.7349 25.9302 23.8809V23.8955C25.9302 25.9023 27.3511 27.3818 29.3799 27.3818C30.8301 27.3818 31.7529 26.6421 32.1411 25.8071H32.2876C32.251 27.9458 31.5552 29.7109 29.812 29.7109C28.8818 29.7109 28.23 29.2275 27.9517 28.4878L27.9297 28.4146H26.0693L26.084 28.4951C26.4209 30.1138 27.8711 31.2637 29.812 31.2637C32.4707 31.2637 34.0747 29.1543 34.0747 25.5947V25.5801C34.0747 21.7715 32.1118 20.1675 29.856 20.1675ZM29.8486 25.9316C28.6475 25.9316 27.7759 25.0527 27.7759 23.8296V23.8149C27.7759 22.6357 28.7061 21.7056 29.8706 21.7056C31.0425 21.7056 31.958 22.6504 31.958 23.8589V23.8735C31.958 25.0674 31.0425 25.9316 29.8486 25.9316ZM37.1999 24.1519C37.8737 24.1519 38.3645 23.6392 38.3645 22.9946C38.3645 22.3428 37.8737 21.8374 37.1999 21.8374C36.5334 21.8374 36.0354 22.3428 36.0354 22.9946C36.0354 23.6392 36.5334 24.1519 37.1999 24.1519ZM37.1999 29.5864C37.8737 29.5864 38.3645 29.0811 38.3645 28.4292C38.3645 27.7773 37.8737 27.272 37.1999 27.272C36.5334 27.272 36.0354 27.7773 36.0354 28.4292C36.0354 29.0811 36.5334 29.5864 37.1999 29.5864ZM45.4521 31H47.2611V28.9712H48.682V27.4111H47.2611V20.4312H44.5878C43.1522 22.6138 41.6508 25.0454 40.2812 27.4258V28.9712H45.4521V31ZM42.039 27.4551V27.3452C43.0644 25.5508 44.2875 23.5952 45.3715 21.9399H45.4813V27.4551H42.039ZM52.8619 31H54.7516V20.4312H52.8692L50.108 22.3721V24.1519L52.7374 22.2915H52.8619V31Z" fill="#1D2023"/>
<g clip-path="url(#clip2_1130_911)">
<rect opacity="0.2" x="17" y="56" width="91" height="4" fill="white"/>
<rect x="17" y="56" width="36.2" height="4" fill="white"/>
</g>
<g clip-path="url(#clip3_1130_911)">
<rect opacity="0.2" x="111.5" y="56" width="91" height="4" fill="white"/>
</g>
<g clip-path="url(#clip4_1130_911)">
<rect opacity="0.2" x="206" y="56" width="91" height="4" fill="white"/>
</g>
<g clip-path="url(#clip5_1130_911)">
<rect opacity="0.2" x="300.5" y="56" width="91" height="4" fill="white"/>
</g>
<g clip-path="url(#clip6_1130_911)">
<path d="M369.293 88.2929C368.902 88.6834 368.902 89.3166 369.293 89.7071C369.683 90.0976 370.317 90.0976 370.707 89.7071L375 85.4143L379.293 89.7073C379.683 90.0978 380.317 90.0978 380.707 89.7073C381.098 89.3167 381.098 88.6836 380.707 88.293L376.414 84.0001L380.707 79.7071C381.098 79.3166 381.098 78.6834 380.707 78.2929C380.317 77.9024 379.683 77.9024 379.293 78.2929L375 82.5859L370.707 78.293C370.317 77.9025 369.683 77.9025 369.293 78.293C368.902 78.6836 368.902 79.3167 369.293 79.7073L373.586 84.0001L369.293 88.2929Z" fill="white"/>
</g>
<path d="M28.27 142H23.068L33.438 130.202L23.204 118.54H28.916L36.532 127.21L44.114 118.54H49.35L39.252 130.032L49.792 142H44.08L36.158 133.024L28.27 142ZM50.3729 142V138.226H50.8489C53.0929 138.226 53.8069 137.206 53.8069 132.344V124.932H70.3649V142H65.8429V128.264H57.9549V132.446C57.9549 139.96 56.3909 142 51.3249 142H50.3729ZM90.4191 134.452V132.378C90.4191 128.876 88.4131 127.618 84.5371 127.618C80.6271 127.618 78.6211 128.876 78.6211 132.378V134.486C78.6211 137.988 80.6271 139.28 84.5371 139.28C88.4131 139.28 90.4191 137.988 90.4191 134.452ZM74.0651 133.466C74.0651 126.768 77.7371 124.49 84.5371 124.49C91.3371 124.49 94.9751 126.768 94.9751 133.466C94.9751 140.232 91.3371 142.408 84.5371 142.408C77.7371 142.408 74.0651 140.232 74.0651 133.466ZM98.6917 124.932H103.078V127.822C104.472 125.51 106.988 124.49 110.558 124.49C116.27 124.49 119.568 127.04 119.568 133.466C119.568 139.858 116.304 142.408 110.558 142.408C107.09 142.408 104.642 141.49 103.214 139.382V148.8H98.6917V124.932ZM115.012 134.52V132.344C115.012 128.842 112.938 127.618 109.096 127.618C105.288 127.618 103.316 128.808 103.214 132.106V134.52C103.214 137.954 105.254 139.28 109.096 139.28C112.938 139.28 115.012 138.09 115.012 134.52ZM138.63 134.452V132.378C138.63 128.876 136.624 127.618 132.748 127.618C128.838 127.618 126.832 128.876 126.832 132.378V134.486C126.832 137.988 128.838 139.28 132.748 139.28C136.624 139.28 138.63 137.988 138.63 134.452ZM122.276 133.466C122.276 126.768 125.948 124.49 132.748 124.49C139.548 124.49 143.186 126.768 143.186 133.466C143.186 140.232 139.548 142.408 132.748 142.408C125.948 142.408 122.276 140.232 122.276 133.466ZM157.511 142.408C149.997 142.442 145.883 139.994 145.883 133.466C145.883 127.04 149.997 124.49 157.511 124.49V117.18H162.033V124.49C169.547 124.49 173.661 127.04 173.661 133.466C173.661 139.994 169.547 142.408 162.033 142.408V148.8H157.511V142.408ZM157.511 127.652C152.887 127.652 150.439 128.808 150.439 132.446V134.384C150.439 137.852 152.819 139.28 157.511 139.28V127.652ZM169.105 134.384V132.412C169.105 128.808 166.691 127.652 162.033 127.652V139.28C166.691 139.28 169.105 137.852 169.105 134.384ZM177.317 124.932H181.805V137.308L191.597 124.932H196.561V142H192.073V129.624L182.315 142H177.317V124.932ZM199.488 142V138.226H199.964C202.208 138.226 202.922 137.206 202.922 132.344V124.932H219.48V142H214.958V128.264H207.07V132.446C207.07 139.96 205.506 142 200.44 142H199.488Z" fill="#2F2F2F"/>
<path d="M23.22 170.2H25.08L28.86 178.36L32.48 170.2H34.16L28.06 184H26.38L27.98 180.36L23.22 170.2ZM37.5761 175.44H34.3161V174.08H42.5361V175.44H39.2761V184H37.5761V175.44ZM44.3028 174.08H45.9228V175.6C46.6028 174.38 47.7228 173.86 49.2028 173.86C51.9028 173.86 53.3628 175.28 53.3628 179.06C53.3628 182.78 51.9028 184.22 49.2028 184.22C47.7828 184.22 46.6828 183.74 46.0028 182.62V188H44.3028V174.08ZM51.6428 179.78V178.28C51.6428 175.96 50.5628 175.12 48.8228 175.12C47.0828 175.12 46.0428 175.94 46.0028 178.12V179.78C46.0028 181.94 47.1428 182.96 48.8228 182.96C50.5628 182.96 51.6428 182.1 51.6428 179.78ZM62.4705 179.74V178.3C62.4705 176.08 61.4305 175.12 59.6505 175.12C57.8505 175.12 56.8105 176.08 56.8105 178.3V179.74C56.8105 181.96 57.8505 182.96 59.6505 182.96C61.4305 182.96 62.4705 181.96 62.4705 179.74ZM55.0905 179.04C55.0905 175.26 56.7305 173.86 59.6505 173.86C62.5905 173.86 64.1905 175.26 64.1905 179.04C64.1905 182.84 62.5905 184.22 59.6505 184.22C56.7305 184.22 55.0905 182.84 55.0905 179.04ZM76.3053 180.26H74.1253L71.8253 184H70.0453L72.5053 180.04C71.1053 179.68 70.3253 178.66 70.3253 177.16C70.3253 175.22 71.4453 174.08 73.6453 174.08H78.0053V184H76.3053V180.26ZM76.3053 175.32H73.7853C72.7453 175.32 72.0453 175.84 72.0453 176.88V177.5C72.0453 178.44 72.6853 179.02 73.7853 179.02H76.3053V175.32ZM85.2403 174.08H86.9403V178.28H91.5603V174.08H93.2603V184H91.5603V179.64H86.9403V184H85.2403V174.08ZM95.5597 181.36C95.5597 179.5 96.4997 178.56 99.3197 178.34L102.28 178.1V177.76C102.28 175.84 101.54 175.1 99.9397 175.1C98.6797 175.1 97.8997 175.5 97.6197 176.76H95.8797C96.1597 174.8 97.4997 173.86 99.9197 173.86C102.66 173.86 103.98 175.02 103.98 177.76V184H102.36V182.42C101.68 183.56 100.46 184.22 98.7597 184.22C96.6597 184.22 95.5597 183.2 95.5597 181.36ZM99.1597 183C100.8 183 102.28 182.16 102.28 179.88V179.2L99.5197 179.44C97.9397 179.58 97.2797 180 97.2797 181.14V181.42C97.2797 182.44 97.9197 183 99.1597 183ZM112.166 179.9C111.426 180.06 110.766 180.1 109.926 180.1C107.106 180.1 106.086 179.02 106.086 176.56V174.08H107.786V176.46C107.786 178.22 108.426 178.76 110.046 178.76C110.926 178.76 111.466 178.7 112.166 178.56V174.08H113.866V184H112.166V179.9ZM116.705 174.08H118.405V182L123.005 174.08H124.965V184H123.265V176.08L118.665 184H116.705V174.08ZM127.799 174.08H129.499V178.28H134.119V174.08H135.819V184H134.119V179.64H129.499V184H127.799V174.08ZM138.118 181.36C138.118 179.5 139.058 178.56 141.878 178.34L144.838 178.1V177.76C144.838 175.84 144.098 175.1 142.498 175.1C141.238 175.1 140.458 175.5 140.178 176.76H138.438C138.718 174.8 140.058 173.86 142.478 173.86C145.218 173.86 146.538 175.02 146.538 177.76V184H144.918V182.42C144.238 183.56 143.018 184.22 141.318 184.22C139.218 184.22 138.118 183.2 138.118 181.36ZM141.718 183C143.358 183 144.838 182.16 144.838 179.88V179.2L142.078 179.44C140.498 179.58 139.838 180 139.838 181.14V181.42C139.838 182.44 140.478 183 141.718 183ZM149.264 174.08H150.964V178.28H152.924C153.124 175.02 154.684 173.86 157.344 173.86C160.224 173.86 161.804 175.2 161.804 179.04C161.804 182.9 160.224 184.22 157.344 184.22C154.624 184.22 153.064 183.04 152.904 179.6H150.964V184H149.264V174.08ZM160.064 179.7V178.36C160.064 175.92 159.004 175.12 157.344 175.12C155.684 175.12 154.624 175.92 154.624 178.36V179.7C154.624 182.12 155.684 182.96 157.344 182.96C159.004 182.96 160.064 182.12 160.064 179.7ZM167.923 179.08C167.923 175.46 169.323 173.86 172.202 173.86C174.583 173.86 176.043 174.76 176.283 176.82H174.563C174.343 175.54 173.483 175.12 172.202 175.12C170.483 175.12 169.643 176.06 169.643 178.26V179.84C169.643 182.18 170.803 182.96 172.202 182.96C173.643 182.96 174.383 182.36 174.563 181.24H176.303C176.023 183.26 174.563 184.22 172.202 184.22C169.603 184.22 167.923 183.04 167.923 179.08ZM185.244 179.74V178.3C185.244 176.08 184.204 175.12 182.424 175.12C180.624 175.12 179.584 176.08 179.584 178.3V179.74C179.584 181.96 180.624 182.96 182.424 182.96C184.204 182.96 185.244 181.96 185.244 179.74ZM177.864 179.04C177.864 175.26 179.504 173.86 182.424 173.86C185.364 173.86 186.964 175.26 186.964 179.04C186.964 182.84 185.364 184.22 182.424 184.22C179.504 184.22 177.864 182.84 177.864 179.04ZM193.079 179.08C193.079 175.46 194.479 173.86 197.359 173.86C199.739 173.86 201.199 174.76 201.439 176.82H199.719C199.499 175.54 198.639 175.12 197.359 175.12C195.639 175.12 194.799 176.06 194.799 178.26V179.84C194.799 182.18 195.959 182.96 197.359 182.96C198.799 182.96 199.539 182.36 199.719 181.24H201.459C201.179 183.26 199.719 184.22 197.359 184.22C194.759 184.22 193.079 183.04 193.079 179.08ZM205.662 175.44H202.402V174.08H210.622V175.44H207.362V184H205.662V175.44ZM211.614 181.36C211.614 179.5 212.554 178.56 215.374 178.34L218.334 178.1V177.76C218.334 175.84 217.594 175.1 215.994 175.1C214.734 175.1 213.954 175.5 213.674 176.76H211.934C212.214 174.8 213.554 173.86 215.974 173.86C218.714 173.86 220.034 175.02 220.034 177.76V184H218.414V182.42C217.734 183.56 216.514 184.22 214.814 184.22C212.714 184.22 211.614 183.2 211.614 181.36ZM215.214 183C216.854 183 218.334 182.16 218.334 179.88V179.2L215.574 179.44C213.994 179.58 213.334 180 213.334 181.14V181.42C213.334 182.44 213.974 183 215.214 183ZM228.72 174.08H230.58L227.08 178.9L231.04 184H228.96L225.62 179.7H224.46V184H222.76V174.08H224.46V178.34H225.62L228.72 174.08ZM231.771 181.36C231.771 179.5 232.711 178.56 235.531 178.34L238.491 178.1V177.76C238.491 175.84 237.751 175.1 236.151 175.1C234.891 175.1 234.111 175.5 233.831 176.76H232.091C232.371 174.8 233.711 173.86 236.131 173.86C238.871 173.86 240.191 175.02 240.191 177.76V184H238.571V182.42C237.891 183.56 236.671 184.22 234.971 184.22C232.871 184.22 231.771 183.2 231.771 181.36ZM235.371 183C237.011 183 238.491 182.16 238.491 179.88V179.2L235.731 179.44C234.151 179.58 233.491 180 233.491 181.14V181.42C233.491 182.44 234.131 183 235.371 183ZM242.916 174.08H244.616V178.28H249.236V174.08H250.936V184H249.236V179.64H244.616V184H242.916V174.08ZM253.235 181.36C253.235 179.5 254.175 178.56 256.995 178.34L259.955 178.1V177.76C259.955 175.84 259.215 175.1 257.615 175.1C256.355 175.1 255.575 175.5 255.295 176.76H253.555C253.835 174.8 255.175 173.86 257.595 173.86C260.335 173.86 261.655 175.02 261.655 177.76V184H260.035V182.42C259.355 183.56 258.135 184.22 256.435 184.22C254.335 184.22 253.235 183.2 253.235 181.36ZM256.835 183C258.475 183 259.955 182.16 259.955 179.88V179.2L257.195 179.44C255.615 179.58 254.955 180 254.955 181.14V181.42C254.955 182.44 255.595 183 256.835 183ZM268.775 174.08H273.155C275.355 174.08 276.315 175.04 276.315 176.5C276.315 177.5 275.935 178.42 274.635 178.8C276.255 179.16 276.715 180.14 276.715 181.2C276.715 183.16 275.635 184 273.415 184H268.775V174.08ZM274.975 181.32V180.86C274.975 179.92 274.415 179.42 273.115 179.42H270.455V182.82H273.115C274.415 182.82 274.975 182.34 274.975 181.32ZM274.595 176.94V176.58C274.595 175.78 274.235 175.26 272.995 175.26H270.455V178.38H273.075C274.235 178.38 274.595 177.74 274.595 176.94ZM285.771 179.74V178.3C285.771 176.08 284.731 175.12 282.951 175.12C281.151 175.12 280.111 176.08 280.111 178.3V179.74C280.111 181.96 281.151 182.96 282.951 182.96C284.731 182.96 285.771 181.96 285.771 179.74ZM278.391 179.04C278.391 175.26 280.031 173.86 282.951 173.86C285.891 173.86 287.491 175.26 287.491 179.04C287.491 182.84 285.891 184.22 282.951 184.22C280.031 184.22 278.391 182.84 278.391 179.04ZM288.415 186.8V182.64H289.515C290.235 181.42 290.475 179.58 290.475 177V174.08H297.835V182.64H299.355V186.8H297.775V184H289.995V186.8H288.415ZM296.135 175.44H292.015V177C292.015 179.58 291.775 181.44 291.175 182.64H296.135V175.44ZM301.119 184V174.08H302.819V177.56H305.699C307.799 177.56 308.919 178.7 308.919 180.68C308.919 182.82 307.799 184 305.699 184H301.119ZM307.199 180.96V180.4C307.199 179.52 306.699 178.82 305.379 178.82H302.819V182.74H305.379C306.699 182.74 307.199 181.98 307.199 180.96ZM310.199 174.08H311.899V184H310.199V174.08ZM23.86 207.08C23.86 203.46 25.26 201.86 28.14 201.86C30.52 201.86 31.98 202.76 32.22 204.82H30.5C30.28 203.54 29.42 203.12 28.14 203.12C26.42 203.12 25.58 204.06 25.58 206.26V207.84C25.58 210.18 26.74 210.96 28.14 210.96C29.58 210.96 30.32 210.36 30.5 209.24H32.24C31.96 211.26 30.5 212.22 28.14 212.22C25.54 212.22 23.86 211.04 23.86 207.08ZM37.6559 212V210.5H37.8359C39.0159 210.5 39.4359 209.82 39.4359 206.36V202.08H46.5759V212H44.8759V203.44H40.9959V206.36C40.9959 211.16 40.1359 212 37.9559 212H37.6559ZM56.24 207.74V206.3C56.24 204.08 55.2 203.12 53.42 203.12C51.62 203.12 50.58 204.08 50.58 206.3V207.74C50.58 209.96 51.62 210.96 53.42 210.96C55.2 210.96 56.24 209.96 56.24 207.74ZM48.86 207.04C48.86 203.26 50.5 201.86 53.42 201.86C56.36 201.86 57.96 203.26 57.96 207.04C57.96 210.84 56.36 212.22 53.42 212.22C50.5 212.22 48.86 210.84 48.86 207.04ZM70.2678 202.08H71.9678L68.7278 206.9L72.3878 212H70.4678L67.3678 207.7H66.3678V212H64.6478V207.7H63.6278L60.5278 212H58.6678L62.2478 206.98L58.9478 202.08H60.7478L63.6278 206.34H64.6478V202.08H66.3678V206.34H67.3678L70.2678 202.08ZM79.9113 202.08H81.7713L78.2713 206.9L82.2313 212H80.1513L76.8113 207.7H75.6513V212H73.9513V202.08H75.6513V206.34H76.8113L79.9113 202.08ZM90.1463 207.74V206.3C90.1463 204.08 89.1063 203.12 87.3263 203.12C85.5263 203.12 84.4863 204.08 84.4863 206.3V207.74C84.4863 209.96 85.5263 210.96 87.3263 210.96C89.1063 210.96 90.1463 209.96 90.1463 207.74ZM82.7663 207.04C82.7663 203.26 84.4062 201.86 87.3263 201.86C90.2663 201.86 91.8663 203.26 91.8663 207.04C91.8663 210.84 90.2663 212.22 87.3263 212.22C84.4062 212.22 82.7663 210.84 82.7663 207.04ZM94.1466 202.08H95.8466V210L100.447 202.08H102.407V212H100.707V204.08L96.1066 212H94.1466V202.08ZM95.3266 197.34H96.8266C96.8266 198.76 97.2666 199.4 98.2466 199.4C99.2266 199.4 99.6866 198.76 99.6866 197.34H101.187C101.187 199.36 100.227 200.48 98.2466 200.48C96.3066 200.48 95.3266 199.4 95.3266 197.34ZM119.975 202.08H121.675L118.435 206.9L122.095 212H120.175L117.075 207.7H116.075V212H114.355V207.7H113.335L110.235 212H108.375L111.955 206.98L108.655 202.08H110.455L113.335 206.34H114.355V202.08H116.075V206.34H117.075L119.975 202.08ZM123.658 202.08H125.358V210L129.958 202.08H131.918V212H130.218V204.08L125.618 212H123.658V202.08ZM133.532 214.8V210.64H134.632C135.352 209.42 135.592 207.58 135.592 205V202.08H142.952V210.64H144.472V214.8H142.892V212H135.112V214.8H133.532ZM141.252 203.44H137.132V205C137.132 207.58 136.892 209.44 136.292 210.64H141.252V203.44ZM152.196 202.08H154.056L150.556 206.9L154.516 212H152.436L149.096 207.7H147.936V212H146.236V202.08H147.936V206.34H149.096L152.196 202.08ZM162.431 207.74V206.3C162.431 204.08 161.391 203.12 159.611 203.12C157.811 203.12 156.771 204.08 156.771 206.3V207.74C156.771 209.96 157.811 210.96 159.611 210.96C161.391 210.96 162.431 209.96 162.431 207.74ZM155.051 207.04C155.051 203.26 156.691 201.86 159.611 201.86C162.551 201.86 164.151 203.26 164.151 207.04C164.151 210.84 162.551 212.22 159.611 212.22C156.691 212.22 155.051 210.84 155.051 207.04ZM166.432 202.08H172.752V203.44H168.132V212H166.432V202.08ZM181.006 207.74V206.3C181.006 204.08 179.966 203.12 178.186 203.12C176.386 203.12 175.346 204.08 175.346 206.3V207.74C175.346 209.96 176.386 210.96 178.186 210.96C179.966 210.96 181.006 209.96 181.006 207.74ZM173.626 207.04C173.626 203.26 175.266 201.86 178.186 201.86C181.126 201.86 182.726 203.26 182.726 207.04C182.726 210.84 181.126 212.22 178.186 212.22C175.266 212.22 173.626 210.84 173.626 207.04ZM195.44 212L192.68 208.06L189.92 212H188.24L191.76 206.98L188.36 202.08H190.24L192.84 205.78L195.42 202.08H197.1L193.72 206.88L197.32 212H195.44ZM197.871 212V210.5H198.051C199.231 210.5 199.651 209.82 199.651 206.36V202.08H206.791V212H205.091V203.44H201.211V206.36C201.211 211.16 200.351 212 198.171 212H197.871ZM216.455 207.74V206.3C216.455 204.08 215.415 203.12 213.635 203.12C211.835 203.12 210.795 204.08 210.795 206.3V207.74C210.795 209.96 211.835 210.96 213.635 210.96C215.415 210.96 216.455 209.96 216.455 207.74ZM209.075 207.04C209.075 203.26 210.715 201.86 213.635 201.86C216.575 201.86 218.175 203.26 218.175 207.04C218.175 210.84 216.575 212.22 213.635 212.22C210.715 212.22 209.075 210.84 209.075 207.04ZM220.455 202.08H222.075V203.6C222.755 202.38 223.875 201.86 225.355 201.86C228.055 201.86 229.515 203.28 229.515 207.06C229.515 210.78 228.055 212.22 225.355 212.22C223.935 212.22 222.835 211.74 222.155 210.62V216H220.455V202.08ZM227.795 207.78V206.28C227.795 203.96 226.715 203.12 224.975 203.12C223.235 203.12 222.195 203.94 222.155 206.12V207.78C222.155 209.94 223.295 210.96 224.975 210.96C226.715 210.96 227.795 210.1 227.795 207.78ZM238.623 207.74V206.3C238.623 204.08 237.583 203.12 235.803 203.12C234.003 203.12 232.963 204.08 232.963 206.3V207.74C232.963 209.96 234.003 210.96 235.803 210.96C237.583 210.96 238.623 209.96 238.623 207.74ZM231.243 207.04C231.243 203.26 232.883 201.86 235.803 201.86C238.743 201.86 240.343 203.26 240.343 207.04C240.343 210.84 238.743 212.22 235.803 212.22C232.883 212.22 231.243 210.84 231.243 207.04ZM247.403 212.22C244.063 212.24 242.043 210.86 242.043 207.04C242.043 203.22 244.063 201.86 247.403 201.86V197.4H249.103V201.86C252.443 201.86 254.463 203.22 254.463 207.04C254.463 210.86 252.443 212.22 249.103 212.22V216H247.403V212.22ZM247.403 203.12C245.103 203.12 243.763 203.98 243.763 206.36V207.62C243.763 209.98 245.023 210.96 247.403 210.96V203.12ZM252.743 207.62V206.34C252.743 203.98 251.463 203.12 249.103 203.12V210.96C251.443 210.96 252.743 209.98 252.743 207.62ZM256.725 202.08H258.425V210L263.025 202.08H264.985V212H263.285V204.08L258.685 212H256.725V202.08ZM266.718 212V210.5H266.898C268.078 210.5 268.498 209.82 268.498 206.36V202.08H275.638V212H273.938V203.44H270.058V206.36C270.058 211.16 269.198 212 267.018 212H266.718ZM277.383 212V210.5H277.563C278.743 210.5 279.163 209.82 279.163 206.36V202.08H286.303V212H284.603V203.44H280.723V206.36C280.723 211.16 279.863 212 277.683 212H277.383ZM288.607 209.36C288.607 207.5 289.547 206.56 292.367 206.34L295.327 206.1V205.76C295.327 203.84 294.587 203.1 292.987 203.1C291.727 203.1 290.947 203.5 290.667 204.76H288.927C289.207 202.8 290.547 201.86 292.967 201.86C295.707 201.86 297.027 203.02 297.027 205.76V212H295.407V210.42C294.727 211.56 293.507 212.22 291.807 212.22C289.707 212.22 288.607 211.2 288.607 209.36ZM292.207 211C293.847 211 295.327 210.16 295.327 207.88V207.2L292.567 207.44C290.987 207.58 290.327 208 290.327 209.14V209.42C290.327 210.44 290.967 211 292.207 211ZM299.352 211.14C299.352 210.42 299.752 210.06 300.452 210.06C301.192 210.06 301.592 210.42 301.592 211.14C301.592 211.86 301.192 212.22 300.452 212.22C299.752 212.22 299.352 211.86 299.352 211.14ZM34.2 233.86V232.2C34.2 228.88 32.82 227.44 30 227.44C27.18 227.44 25.8 228.88 25.8 232.2V233.86C25.8 237.18 27.18 238.76 30 238.76C32.82 238.76 34.2 237.18 34.2 233.86ZM23.98 233.06C23.98 227.92 26 225.98 30 225.98C34.02 225.98 36.02 227.92 36.02 233.06C36.02 238.2 34.02 240.22 30 240.22C26 240.22 23.98 238.2 23.98 233.06ZM38.4044 230.08H40.1044V234.28H44.7244V230.08H46.4244V240H44.7244V235.64H40.1044V240H38.4044V230.08ZM52.4006 230.08H54.1806L57.1006 238.04L60.0406 230.08H61.6006L57.4406 241.38C56.6806 243.42 55.9606 244 54.1206 244H53.0806V242.66H53.9206C55.1406 242.66 55.5406 242.34 56.0206 241.02L56.2606 240.36L52.4006 230.08ZM61.8552 240V238.5H62.0352C63.2152 238.5 63.6352 237.82 63.6352 234.36V230.08H70.7752V240H69.0752V231.44H65.1952V234.36C65.1952 239.16 64.3352 240 62.1552 240H61.8552ZM72.4592 230.08H74.2392L77.1592 238.04L80.0992 230.08H81.6592L77.4992 241.38C76.7392 243.42 76.0192 244 74.1792 244H73.1392V242.66H73.9792C75.1992 242.66 75.5992 242.34 76.0792 241.02L76.3192 240.36L72.4592 230.08ZM88.8258 235.9C88.0858 236.06 87.4258 236.1 86.5858 236.1C83.7658 236.1 82.7458 235.02 82.7458 232.56V230.08H84.4458V232.46C84.4458 234.22 85.0858 234.76 86.7058 234.76C87.5858 234.76 88.1258 234.7 88.8258 234.56V230.08H90.5258V240H88.8258V235.9ZM93.3653 230.08H95.0653V238.64H98.7253V230.08H100.425V238.64H104.085V230.08H105.785V240H93.3653V230.08ZM108.079 237.36C108.079 235.5 109.019 234.56 111.839 234.34L114.799 234.1V233.76C114.799 231.84 114.059 231.1 112.459 231.1C111.199 231.1 110.419 231.5 110.139 232.76H108.399C108.679 230.8 110.019 229.86 112.439 229.86C115.179 229.86 116.499 231.02 116.499 233.76V240H114.879V238.42C114.199 239.56 112.979 240.22 111.279 240.22C109.179 240.22 108.079 239.2 108.079 237.36ZM111.679 239C113.319 239 114.799 238.16 114.799 235.88V235.2L112.039 235.44C110.459 235.58 109.799 236 109.799 237.14V237.42C109.799 238.44 110.439 239 111.679 239ZM118.685 235.06C118.685 231.32 120.185 229.86 122.985 229.86C125.805 229.86 127.325 231.32 127.325 234.64V235.12H120.365V235.74C120.365 237.96 121.305 238.98 122.985 238.98C124.505 238.98 125.285 238.36 125.485 237.22H127.185C126.865 239.14 125.485 240.22 122.985 240.22C120.185 240.22 118.685 238.76 118.685 235.06ZM122.985 231.1C121.285 231.1 120.405 231.94 120.365 234.04H125.625C125.545 231.92 124.665 231.1 122.985 231.1ZM131.502 231.44H128.242V230.08H136.462V231.44H133.202V240H131.502V231.44ZM148.134 230.08H149.994L146.494 234.9L150.454 240H148.374L145.034 235.7H143.874V240H142.174V230.08H143.874V234.34H145.034L148.134 230.08ZM151.185 237.36C151.185 235.5 152.125 234.56 154.945 234.34L157.905 234.1V233.76C157.905 231.84 157.165 231.1 155.565 231.1C154.305 231.1 153.525 231.5 153.245 232.76H151.505C151.785 230.8 153.125 229.86 155.545 229.86C158.285 229.86 159.605 231.02 159.605 233.76V240H157.985V238.42C157.305 239.56 156.085 240.22 154.385 240.22C152.285 240.22 151.185 239.2 151.185 237.36ZM154.785 239C156.425 239 157.905 238.16 157.905 235.88V235.2L155.145 235.44C153.565 235.58 152.905 236 152.905 237.14V237.42C152.905 238.44 153.545 239 154.785 239ZM167.791 235.9C167.051 236.06 166.391 236.1 165.551 236.1C162.731 236.1 161.711 235.02 161.711 232.56V230.08H163.411V232.46C163.411 234.22 164.051 234.76 165.671 234.76C166.551 234.76 167.091 234.7 167.791 234.56V230.08H169.491V240H167.791V235.9ZM171.79 235.06C171.79 231.32 173.29 229.86 176.09 229.86C178.91 229.86 180.43 231.32 180.43 234.64V235.12H173.47V235.74C173.47 237.96 174.41 238.98 176.09 238.98C177.61 238.98 178.39 238.36 178.59 237.22H180.29C179.97 239.14 178.59 240.22 176.09 240.22C173.29 240.22 171.79 238.76 171.79 235.06ZM176.09 231.1C174.39 231.1 173.51 231.94 173.47 234.04H178.73C178.65 231.92 177.77 231.1 176.09 231.1ZM182.083 235.08C182.083 231.46 183.483 229.86 186.363 229.86C188.743 229.86 190.203 230.76 190.443 232.82H188.723C188.503 231.54 187.643 231.12 186.363 231.12C184.643 231.12 183.803 232.06 183.803 234.26V235.84C183.803 238.18 184.963 238.96 186.363 238.96C187.803 238.96 188.543 238.36 188.723 237.24H190.463C190.183 239.26 188.723 240.22 186.363 240.22C183.763 240.22 182.083 239.04 182.083 235.08ZM194.666 231.44H191.406V230.08H199.626V231.44H196.366V240H194.666V231.44ZM201.393 230.08H205.773C207.973 230.08 208.933 231.04 208.933 232.5C208.933 233.5 208.553 234.42 207.253 234.8C208.873 235.16 209.333 236.14 209.333 237.2C209.333 239.16 208.253 240 206.033 240H201.393V230.08ZM207.593 237.32V236.86C207.593 235.92 207.033 235.42 205.733 235.42H203.073V238.82H205.733C207.033 238.82 207.593 238.34 207.593 237.32ZM207.213 232.94V232.58C207.213 231.78 206.853 231.26 205.613 231.26H203.073V234.38H205.693C206.853 234.38 207.213 233.74 207.213 232.94ZM218.388 235.74V234.3C218.388 232.08 217.348 231.12 215.568 231.12C213.768 231.12 212.728 232.08 212.728 234.3V235.74C212.728 237.96 213.768 238.96 215.568 238.96C217.348 238.96 218.388 237.96 218.388 235.74ZM211.008 235.04C211.008 231.26 212.648 229.86 215.568 229.86C218.508 229.86 220.108 231.26 220.108 235.04C220.108 238.84 218.508 240.22 215.568 240.22C212.648 240.22 211.008 238.84 211.008 235.04ZM232.743 230.08H234.603L231.103 234.9L235.063 240H232.983L229.643 235.7H228.483V240H226.783V230.08H228.483V234.34H229.643L232.743 230.08ZM242.978 235.74V234.3C242.978 232.08 241.938 231.12 240.158 231.12C238.358 231.12 237.318 232.08 237.318 234.3V235.74C237.318 237.96 238.358 238.96 240.158 238.96C241.938 238.96 242.978 237.96 242.978 235.74ZM235.598 235.04C235.598 231.26 237.238 229.86 240.158 229.86C243.098 229.86 244.698 231.26 244.698 235.04C244.698 238.84 243.098 240.22 240.158 240.22C237.238 240.22 235.598 238.84 235.598 235.04ZM257.006 230.08H258.706L255.466 234.9L259.126 240H257.206L254.106 235.7H253.106V240H251.386V235.7H250.366L247.266 240H245.406L248.986 234.98L245.686 230.08H247.486L250.366 234.34H251.386V230.08H253.106V234.34H254.106L257.006 230.08ZM260.69 230.08H262.39V238L266.99 230.08H268.95V240H267.25V232.08L262.65 240H260.69V230.08ZM271.583 241.74C272.283 241.74 272.503 241.34 272.503 240.54V240.22H272.443C271.783 240.22 271.383 239.84 271.383 239.14C271.383 238.4 271.783 238.06 272.483 238.06C273.183 238.06 273.623 238.38 273.623 239.16V240.4C273.623 242.06 273.043 242.76 271.583 242.76V241.74ZM24.42 258.08H32.32V268H30.62V259.44H26.12V268H24.42V258.08ZM41.9627 263.74V262.3C41.9627 260.08 40.9227 259.12 39.1427 259.12C37.3427 259.12 36.3027 260.08 36.3027 262.3V263.74C36.3027 265.96 37.3427 266.96 39.1427 266.96C40.9227 266.96 41.9627 265.96 41.9627 263.74ZM34.5827 263.04C34.5827 259.26 36.2227 257.86 39.1427 257.86C42.0827 257.86 43.6827 259.26 43.6827 263.04C43.6827 266.84 42.0827 268.22 39.1427 268.22C36.2227 268.22 34.5827 266.84 34.5827 263.04ZM44.6063 270.8V266.64H45.7063C46.4263 265.42 46.6663 263.58 46.6663 261V258.08H54.0263V266.64H55.5463V270.8H53.9663V268H46.1863V270.8H44.6063ZM52.3263 259.44H48.2063V261C48.2063 263.58 47.9663 265.44 47.3663 266.64H52.3263V259.44ZM56.0906 270.8V266.64H57.1906C57.9106 265.42 58.1506 263.58 58.1506 261V258.08H65.5106V266.64H67.0306V270.8H65.4506V268H57.6706V270.8H56.0906ZM63.8106 259.44H59.6906V261C59.6906 263.58 59.4506 265.44 58.8506 266.64H63.8106V259.44ZM68.1769 263.06C68.1769 259.32 69.6769 257.86 72.4769 257.86C75.2969 257.86 76.8169 259.32 76.8169 262.64V263.12H69.8569V263.74C69.8569 265.96 70.7969 266.98 72.4769 266.98C73.9969 266.98 74.7769 266.36 74.9769 265.22H76.6769C76.3569 267.14 74.9769 268.22 72.4769 268.22C69.6769 268.22 68.1769 266.76 68.1769 263.06ZM72.4769 259.1C70.7769 259.1 69.8969 259.94 69.8569 262.04H75.1169C75.0369 259.92 74.1569 259.1 72.4769 259.1ZM79.0294 258.08H80.6494V259.6C81.3294 258.38 82.4494 257.86 83.9294 257.86C86.6294 257.86 88.0894 259.28 88.0894 263.06C88.0894 266.78 86.6294 268.22 83.9294 268.22C82.5094 268.22 81.4094 267.74 80.7294 266.62V272H79.0294V258.08ZM86.3694 263.78V262.28C86.3694 259.96 85.2894 259.12 83.5494 259.12C81.8094 259.12 80.7694 259.94 80.7294 262.12V263.78C80.7294 265.94 81.8694 266.96 83.5494 266.96C85.2894 266.96 86.3694 266.1 86.3694 263.78ZM100.405 258.08H102.105L98.8645 262.9L102.525 268H100.605L97.5045 263.7H96.5045V268H94.7845V263.7H93.7645L90.6645 268H88.8045L92.3845 262.98L89.0845 258.08H90.8845L93.7645 262.34H94.7845V258.08H96.5045V262.34H97.5045L100.405 258.08ZM104.088 258.08H105.788V266L110.388 258.08H112.348V268H110.648V260.08L106.048 268H104.088V258.08ZM115.182 258.08H119.562C121.762 258.08 122.722 259.04 122.722 260.5C122.722 261.5 122.342 262.42 121.042 262.8C122.662 263.16 123.122 264.14 123.122 265.2C123.122 267.16 122.042 268 119.822 268H115.182V258.08ZM121.382 265.32V264.86C121.382 263.92 120.822 263.42 119.522 263.42H116.862V266.82H119.522C120.822 266.82 121.382 266.34 121.382 265.32ZM121.002 260.94V260.58C121.002 259.78 120.642 259.26 119.402 259.26H116.862V262.38H119.482C120.642 262.38 121.002 261.74 121.002 260.94ZM124.818 265.36C124.818 263.5 125.758 262.56 128.578 262.34L131.538 262.1V261.76C131.538 259.84 130.798 259.1 129.198 259.1C127.938 259.1 127.158 259.5 126.877 260.76H125.138C125.418 258.8 126.758 257.86 129.178 257.86C131.918 257.86 133.238 259.02 133.238 261.76V268H131.618V266.42C130.938 267.56 129.718 268.22 128.018 268.22C125.918 268.22 124.818 267.2 124.818 265.36ZM128.418 267C130.058 267 131.538 266.16 131.538 263.88V263.2L128.778 263.44C127.198 263.58 126.538 264 126.538 265.14V265.42C126.538 266.44 127.178 267 128.418 267ZM135.423 263.06C135.423 259.32 136.923 257.86 139.723 257.86C142.543 257.86 144.063 259.32 144.063 262.64V263.12H137.103V263.74C137.103 265.96 138.043 266.98 139.723 266.98C141.243 266.98 142.023 266.36 142.223 265.22H143.923C143.603 267.14 142.223 268.22 139.723 268.22C136.923 268.22 135.423 266.76 135.423 263.06ZM139.723 259.1C138.023 259.1 137.143 259.94 137.103 262.04H142.363C142.283 259.92 141.403 259.1 139.723 259.1ZM148.24 259.44H144.98V258.08H153.2V259.44H149.94V268H148.24V259.44ZM158.112 265.2H159.852C159.992 266.46 160.752 267.04 162.232 267.04C163.792 267.04 164.552 266.56 164.552 265.32V264.98C164.552 263.94 163.812 263.4 162.472 263.4H161.232V262.2H162.392C163.672 262.2 164.292 261.7 164.292 260.78V260.38C164.292 259.4 163.592 259.04 162.232 259.04C160.812 259.04 160.192 259.54 160.012 260.62H158.272C158.492 258.66 159.892 257.86 162.212 257.86C164.572 257.86 166.012 258.66 166.012 260.46C166.012 261.5 165.512 262.32 164.232 262.7C165.672 263.08 166.292 264.02 166.292 265.1C166.292 267.36 164.812 268.22 162.232 268.22C159.872 268.22 158.332 267.36 158.112 265.2ZM167.282 270.8V266.64H168.382C169.102 265.42 169.342 263.58 169.342 261V258.08H176.702V266.64H178.222V270.8H176.642V268H168.862V270.8H167.282ZM175.002 259.44H170.882V261C170.882 263.58 170.642 265.44 170.042 266.64H175.002V259.44ZM186.728 263.74V262.3C186.728 260.08 185.688 259.12 183.908 259.12C182.108 259.12 181.068 260.08 181.068 262.3V263.74C181.068 265.96 182.108 266.96 183.908 266.96C185.688 266.96 186.728 265.96 186.728 263.74ZM179.348 263.04C179.348 259.26 180.988 257.86 183.908 257.86C186.848 257.86 188.448 259.26 188.448 263.04C188.448 266.84 186.848 268.22 183.908 268.22C180.988 268.22 179.348 266.84 179.348 263.04ZM190.729 258.08H192.349V259.6C193.029 258.38 194.149 257.86 195.629 257.86C198.329 257.86 199.789 259.28 199.789 263.06C199.789 266.78 198.329 268.22 195.629 268.22C194.209 268.22 193.109 267.74 192.429 266.62V272H190.729V258.08ZM198.069 263.78V262.28C198.069 259.96 196.989 259.12 195.249 259.12C193.509 259.12 192.469 259.94 192.429 262.12V263.78C192.429 265.94 193.569 266.96 195.249 266.96C196.989 266.96 198.069 266.1 198.069 263.78ZM208.896 263.74V262.3C208.896 260.08 207.856 259.12 206.076 259.12C204.276 259.12 203.236 260.08 203.236 262.3V263.74C203.236 265.96 204.276 266.96 206.076 266.96C207.856 266.96 208.896 265.96 208.896 263.74ZM201.516 263.04C201.516 259.26 203.156 257.86 206.076 257.86C209.016 257.86 210.616 259.26 210.616 263.04C210.616 266.84 209.016 268.22 206.076 268.22C203.156 268.22 201.516 266.84 201.516 263.04ZM212.897 258.08H217.277C219.477 258.08 220.437 259.04 220.437 260.5C220.437 261.5 220.057 262.42 218.757 262.8C220.377 263.16 220.837 264.14 220.837 265.2C220.837 267.16 219.757 268 217.537 268H212.897V258.08ZM219.097 265.32V264.86C219.097 263.92 218.537 263.42 217.237 263.42H214.577V266.82H217.237C218.537 266.82 219.097 266.34 219.097 265.32ZM218.717 260.94V260.58C218.717 259.78 218.357 259.26 217.117 259.26H214.577V262.38H217.197C218.357 262.38 218.717 261.74 218.717 260.94ZM221.815 258.08H223.595L226.515 266.04L229.455 258.08H231.015L226.855 269.38C226.095 271.42 225.375 272 223.535 272H222.495V270.66H223.335C224.555 270.66 224.955 270.34 225.435 269.02L225.675 268.36L221.815 258.08ZM232.701 258.08H234.401V262.28H236.361C236.561 259.02 238.121 257.86 240.781 257.86C243.661 257.86 245.241 259.2 245.241 263.04C245.241 266.9 243.661 268.22 240.781 268.22C238.061 268.22 236.501 267.04 236.341 263.6H234.401V268H232.701V258.08ZM243.501 263.7V262.36C243.501 259.92 242.441 259.12 240.781 259.12C239.121 259.12 238.061 259.92 238.061 262.36V263.7C238.061 266.12 239.121 266.96 240.781 266.96C242.441 266.96 243.501 266.12 243.501 263.7ZM256.4 266.78L253.44 259.42V268H251.92V258.08H254.44L257.34 265.32L260.26 258.08H262.74V268H261.06V259.42L258.1 266.78H256.4ZM265.572 258.08H267.272V266L271.872 258.08H273.832V268H272.132V260.08L267.532 268H265.572V258.08ZM282.626 258.08H284.486L280.986 262.9L284.946 268H282.866L279.526 263.7H278.366V268H276.666V258.08H278.366V262.34H279.526L282.626 258.08ZM286.393 258.08H288.013V259.6C288.693 258.38 289.813 257.86 291.293 257.86C293.993 257.86 295.453 259.28 295.453 263.06C295.453 266.78 293.993 268.22 291.293 268.22C289.873 268.22 288.773 267.74 288.093 266.62V272H286.393V258.08ZM293.733 263.78V262.28C293.733 259.96 292.653 259.12 290.913 259.12C289.173 259.12 288.133 259.94 288.093 262.12V263.78C288.093 265.94 289.233 266.96 290.913 266.96C292.653 266.96 293.733 266.1 293.733 263.78ZM304.56 263.74V262.3C304.56 260.08 303.52 259.12 301.74 259.12C299.94 259.12 298.9 260.08 298.9 262.3V263.74C298.9 265.96 299.94 266.96 301.74 266.96C303.52 266.96 304.56 265.96 304.56 263.74ZM297.18 263.04C297.18 259.26 298.82 257.86 301.74 257.86C304.68 257.86 306.28 259.26 306.28 263.04C306.28 266.84 304.68 268.22 301.74 268.22C298.82 268.22 297.18 266.84 297.18 263.04ZM313.341 268.22C310.001 268.24 307.981 266.86 307.981 263.04C307.981 259.22 310.001 257.86 313.341 257.86V253.4H315.041V257.86C318.381 257.86 320.401 259.22 320.401 263.04C320.401 266.86 318.381 268.22 315.041 268.22V272H313.341V268.22ZM313.341 259.12C311.041 259.12 309.701 259.98 309.701 262.36V263.62C309.701 265.98 310.961 266.96 313.341 266.96V259.12ZM318.681 263.62V262.34C318.681 259.98 317.401 259.12 315.041 259.12V266.96C317.381 266.96 318.681 265.98 318.681 263.62ZM321.445 268V266.5H321.625C322.805 266.5 323.225 265.82 323.225 262.36V258.08H330.365V268H328.665V259.44H324.785V262.36C324.785 267.16 323.925 268 321.745 268H321.445ZM340.029 263.74V262.3C340.029 260.08 338.989 259.12 337.209 259.12C335.409 259.12 334.369 260.08 334.369 262.3V263.74C334.369 265.96 335.409 266.96 337.209 266.96C338.989 266.96 340.029 265.96 340.029 263.74ZM332.649 263.04C332.649 259.26 334.289 257.86 337.209 257.86C340.149 257.86 341.749 259.26 341.749 263.04C341.749 266.84 340.149 268.22 337.209 268.22C334.289 268.22 332.649 266.84 332.649 263.04ZM344.029 258.08H345.649V259.6C346.329 258.38 347.449 257.86 348.929 257.86C351.629 257.86 353.089 259.28 353.089 263.06C353.089 266.78 351.629 268.22 348.929 268.22C347.509 268.22 346.409 267.74 345.729 266.62V272H344.029V258.08ZM351.369 263.78V262.28C351.369 259.96 350.289 259.12 348.549 259.12C346.809 259.12 345.769 259.94 345.729 262.12V263.78C345.729 265.94 346.869 266.96 348.549 266.96C350.289 266.96 351.369 266.1 351.369 263.78ZM354.1 258.08H355.88L358.8 266.04L361.74 258.08H363.3L359.14 269.38C358.38 271.42 357.66 272 355.82 272H354.78V270.66H355.62C356.84 270.66 357.24 270.34 357.72 269.02L357.96 268.36L354.1 258.08ZM30.38 286.08H32.24L28.74 290.9L32.7 296H30.62L27.28 291.7H26.12V296H24.42V286.08H26.12V290.34H27.28L30.38 286.08ZM34.1466 286.08H35.8466V294L40.4466 286.08H42.4066V296H40.7066V288.08L36.1066 296H34.1466V286.08ZM45.2403 286.08H46.9403V294.64H50.6003V286.08H52.3003V294.64H55.9603V286.08H57.6603V296H45.2403V286.08ZM59.9542 291.06C59.9542 287.32 61.4542 285.86 64.2542 285.86C67.0742 285.86 68.5942 287.32 68.5942 290.64V291.12H61.6342V291.74C61.6342 293.96 62.5742 294.98 64.2542 294.98C65.7742 294.98 66.5542 294.36 66.7542 293.22H68.4542C68.1342 295.14 66.7542 296.22 64.2542 296.22C61.4542 296.22 59.9542 294.76 59.9542 291.06ZM64.2542 287.1C62.5542 287.1 61.6742 287.94 61.6342 290.04H66.8942C66.8142 287.92 65.9342 287.1 64.2542 287.1ZM76.2672 291.9C75.5272 292.06 74.8672 292.1 74.0272 292.1C71.2072 292.1 70.1872 291.02 70.1872 288.56V286.08H71.8872V288.46C71.8872 290.22 72.5272 290.76 74.1472 290.76C75.0272 290.76 75.5672 290.7 76.2672 290.56V286.08H77.9672V296H76.2672V291.9ZM80.8067 286.08H82.5067V290.28H87.1267V286.08H88.8267V296H87.1267V291.64H82.5067V296H80.8067V286.08ZM91.6661 286.08H93.3661V294L97.9661 286.08H99.9261V296H98.2261V288.08L93.6261 296H91.6661V286.08ZM108.72 286.08H110.58L107.08 290.9L111.04 296H108.96L105.62 291.7H104.46V296H102.76V286.08H104.46V290.34H105.62L108.72 286.08ZM111.771 293.36C111.771 291.5 112.711 290.56 115.531 290.34L118.491 290.1V289.76C118.491 287.84 117.751 287.1 116.151 287.1C114.891 287.1 114.111 287.5 113.831 288.76H112.091C112.371 286.8 113.711 285.86 116.131 285.86C118.871 285.86 120.191 287.02 120.191 289.76V296H118.571V294.42C117.891 295.56 116.671 296.22 114.971 296.22C112.871 296.22 111.771 295.2 111.771 293.36ZM115.371 295C117.011 295 118.491 294.16 118.491 291.88V291.2L115.731 291.44C114.151 291.58 113.491 292 113.491 293.14V293.42C113.491 294.44 114.131 295 115.371 295ZM127.311 286.08H129.011V294L133.611 286.08H135.571V296H133.871V288.08L129.271 296H127.311V286.08ZM142.799 286.08H144.419V287.6C145.099 286.38 146.219 285.86 147.699 285.86C150.399 285.86 151.859 287.28 151.859 291.06C151.859 294.78 150.399 296.22 147.699 296.22C146.279 296.22 145.179 295.74 144.499 294.62V300H142.799V286.08ZM150.139 291.78V290.28C150.139 287.96 149.059 287.12 147.319 287.12C145.579 287.12 144.539 287.94 144.499 290.12V291.78C144.499 293.94 145.639 294.96 147.319 294.96C149.059 294.96 150.139 294.1 150.139 291.78ZM153.607 293.36C153.607 291.5 154.547 290.56 157.367 290.34L160.327 290.1V289.76C160.327 287.84 159.587 287.1 157.987 287.1C156.727 287.1 155.947 287.5 155.667 288.76H153.927C154.207 286.8 155.547 285.86 157.967 285.86C160.707 285.86 162.027 287.02 162.027 289.76V296H160.407V294.42C159.727 295.56 158.507 296.22 156.807 296.22C154.707 296.22 153.607 295.2 153.607 293.36ZM157.207 295C158.847 295 160.327 294.16 160.327 291.88V291.2L157.567 291.44C155.987 291.58 155.327 292 155.327 293.14V293.42C155.327 294.44 155.967 295 157.207 295ZM164.472 290.74C164.472 283.52 165.612 281.7 170.132 281.5C171.612 281.46 172.412 281.4 172.892 281.32V282.8C172.432 282.88 171.652 282.92 170.192 282.98C167.092 283.1 166.152 283.96 165.932 288.04C166.572 286.8 167.752 286.12 169.432 286.12C172.152 286.12 173.572 287.6 173.572 291.08C173.572 294.58 172.012 296.22 169.012 296.22C166.052 296.22 164.472 294.6 164.472 290.74ZM171.832 291.72V290.48C171.832 288.2 170.732 287.38 169.012 287.38C167.292 287.38 166.192 288.2 166.192 290.48V291.72C166.192 294 167.292 294.96 169.012 294.96C170.792 294.96 171.832 294 171.832 291.72ZM182.666 291.74V290.3C182.666 288.08 181.626 287.12 179.846 287.12C178.046 287.12 177.006 288.08 177.006 290.3V291.74C177.006 293.96 178.046 294.96 179.846 294.96C181.626 294.96 182.666 293.96 182.666 291.74ZM175.286 291.04C175.286 287.26 176.926 285.86 179.846 285.86C182.786 285.86 184.386 287.26 184.386 291.04C184.386 294.84 182.786 296.22 179.846 296.22C176.926 296.22 175.286 294.84 175.286 291.04ZM188.553 287.44H185.293V286.08H193.513V287.44H190.253V296H188.553V287.44ZM194.505 293.36C194.505 291.5 195.445 290.56 198.265 290.34L201.225 290.1V289.76C201.225 287.84 200.485 287.1 198.885 287.1C197.625 287.1 196.845 287.5 196.565 288.76H194.825C195.105 286.8 196.445 285.86 198.865 285.86C201.605 285.86 202.925 287.02 202.925 289.76V296H201.305V294.42C200.625 295.56 199.405 296.22 197.705 296.22C195.605 296.22 194.505 295.2 194.505 293.36ZM198.105 295C199.745 295 201.225 294.16 201.225 291.88V291.2L198.465 291.44C196.885 291.58 196.225 292 196.225 293.14V293.42C196.225 294.44 196.865 295 198.105 295ZM205.11 291.06C205.11 287.32 206.61 285.86 209.41 285.86C212.23 285.86 213.75 287.32 213.75 290.64V291.12H206.79V291.74C206.79 293.96 207.73 294.98 209.41 294.98C210.93 294.98 211.71 294.36 211.91 293.22H213.61C213.29 295.14 211.91 296.22 209.41 296.22C206.61 296.22 205.11 294.76 205.11 291.06ZM209.41 287.1C207.71 287.1 206.83 287.94 206.79 290.04H212.05C211.97 287.92 211.09 287.1 209.41 287.1ZM217.928 287.44H214.668V286.08H222.888V287.44H219.628V296H217.928V287.44ZM234.56 286.08H236.42L232.92 290.9L236.88 296H234.8L231.46 291.7H230.3V296H228.6V286.08H230.3V290.34H231.46L234.56 286.08ZM237.61 293.36C237.61 291.5 238.55 290.56 241.37 290.34L244.33 290.1V289.76C244.33 287.84 243.59 287.1 241.99 287.1C240.73 287.1 239.95 287.5 239.67 288.76H237.93C238.21 286.8 239.55 285.86 241.97 285.86C244.71 285.86 246.03 287.02 246.03 289.76V296H244.41V294.42C243.73 295.56 242.51 296.22 240.81 296.22C238.71 296.22 237.61 295.2 237.61 293.36ZM241.21 295C242.85 295 244.33 294.16 244.33 291.88V291.2L241.57 291.44C239.99 291.58 239.33 292 239.33 293.14V293.42C239.33 294.44 239.97 295 241.21 295ZM254.716 286.08H256.576L253.076 290.9L257.036 296H254.956L251.616 291.7H250.456V296H248.756V286.08H250.456V290.34H251.616L254.716 286.08ZM267.123 294.78L264.163 287.42V296H262.643V286.08H265.163L268.063 293.32L270.983 286.08H273.463V296H271.783V287.42L268.823 294.78H267.123ZM283.115 291.74V290.3C283.115 288.08 282.075 287.12 280.295 287.12C278.495 287.12 277.455 288.08 277.455 290.3V291.74C277.455 293.96 278.495 294.96 280.295 294.96C282.075 294.96 283.115 293.96 283.115 291.74ZM275.735 291.04C275.735 287.26 277.375 285.86 280.295 285.86C283.235 285.86 284.835 287.26 284.835 291.04C284.835 294.84 283.235 296.22 280.295 296.22C277.375 296.22 275.735 294.84 275.735 291.04ZM287.115 286.08H288.815V294.64H292.475V286.08H294.175V294.64H297.835V286.08H299.535V294.64H301.055V298.8H299.475V296H287.115V286.08ZM302.818 286.08H304.518V290.28H309.138V286.08H310.838V296H309.138V291.64H304.518V296H302.818V286.08ZM313.678 296V286.08H315.378V289.56H318.258C320.358 289.56 321.478 290.7 321.478 292.68C321.478 294.82 320.358 296 318.258 296H313.678ZM319.758 292.96V292.4C319.758 291.52 319.258 290.82 317.938 290.82H315.378V294.74H317.938C319.258 294.74 319.758 293.98 319.758 292.96ZM322.758 286.08H324.458V296H322.758V286.08ZM327.272 286.08H328.972V294L333.572 286.08H335.532V296H333.832V288.08L329.232 296H327.272V286.08ZM328.452 281.34H329.952C329.952 282.76 330.392 283.4 331.372 283.4C332.352 283.4 332.812 282.76 332.812 281.34H334.312C334.312 283.36 333.352 284.48 331.372 284.48C329.432 284.48 328.452 283.4 328.452 281.34ZM23.88 321.36C23.88 319.5 24.82 318.56 27.64 318.34L30.6 318.1V317.76C30.6 315.84 29.86 315.1 28.26 315.1C27 315.1 26.22 315.5 25.94 316.76H24.2C24.48 314.8 25.82 313.86 28.24 313.86C30.98 313.86 32.3 315.02 32.3 317.76V324H30.68V322.42C30 323.56 28.78 324.22 27.08 324.22C24.98 324.22 23.88 323.2 23.88 321.36ZM27.48 323C29.12 323 30.6 322.16 30.6 319.88V319.2L27.84 319.44C26.26 319.58 25.6 320 25.6 321.14V321.42C25.6 322.44 26.24 323 27.48 323ZM35.0255 314.08H36.7255V318.28H41.3455V314.08H43.0455V324H41.3455V319.64H36.7255V324H35.0255V314.08ZM48.0448 315.44H44.7848V314.08H53.0048V315.44H49.7448V324H48.0448V315.44ZM54.7716 314.08H56.4716V322L61.0716 314.08H63.0316V324H61.3316V316.08L56.7316 324H54.7716V314.08ZM72.6853 319.74V318.3C72.6853 316.08 71.6453 315.12 69.8653 315.12C68.0653 315.12 67.0253 316.08 67.0253 318.3V319.74C67.0253 321.96 68.0653 322.96 69.8653 322.96C71.6453 322.96 72.6853 321.96 72.6853 319.74ZM65.3053 319.04C65.3053 315.26 66.9453 313.86 69.8653 313.86C72.8053 313.86 74.4053 315.26 74.4053 319.04C74.4053 322.84 72.8053 324.22 69.8653 324.22C66.9453 324.22 65.3053 322.84 65.3053 319.04ZM82.6456 314.08H84.5056L81.0056 318.9L84.9656 324H82.8856L79.5456 319.7H78.3856V324H76.6856V314.08H78.3856V318.34H79.5456L82.6456 314.08ZM85.5006 319.08C85.5006 315.46 86.9006 313.86 89.7806 313.86C92.1606 313.86 93.6206 314.76 93.8606 316.82H92.1406C91.9206 315.54 91.0606 315.12 89.7806 315.12C88.0606 315.12 87.2206 316.06 87.2206 318.26V319.84C87.2206 322.18 88.3806 322.96 89.7806 322.96C91.2206 322.96 91.9606 322.36 92.1406 321.24H93.8806C93.6006 323.26 92.1406 324.22 89.7806 324.22C87.1806 324.22 85.5006 323.04 85.5006 319.08ZM96.002 314.08H97.702V322L102.302 314.08H104.262V324H102.562V316.08L97.962 324H96.002V314.08ZM105.876 326.8V322.64H106.976C107.696 321.42 107.936 319.58 107.936 317V314.08H115.296V322.64H116.816V326.8H115.236V324H107.456V326.8H105.876ZM113.596 315.44H109.476V317C109.476 319.58 109.236 321.44 108.636 322.64H113.596V315.44ZM118.04 321.36C118.04 319.5 118.98 318.56 121.8 318.34L124.76 318.1V317.76C124.76 315.84 124.02 315.1 122.42 315.1C121.16 315.1 120.38 315.5 120.1 316.76H118.36C118.64 314.8 119.98 313.86 122.4 313.86C125.14 313.86 126.46 315.02 126.46 317.76V324H124.84V322.42C124.16 323.56 122.94 324.22 121.24 324.22C119.14 324.22 118.04 323.2 118.04 321.36ZM121.64 323C123.28 323 124.76 322.16 124.76 319.88V319.2L122 319.44C120.42 319.58 119.76 320 119.76 321.14V321.42C119.76 322.44 120.4 323 121.64 323ZM129.186 314.08H130.886V318.28H135.506V314.08H137.206V324H135.506V319.64H130.886V324H129.186V314.08ZM142.205 315.44H138.945V314.08H147.165V315.44H143.905V324H142.205V315.44Z" fill="#2F2F2F"/>
<rect x="22.2308" y="776" width="371.538" height="55.2" rx="10.6154" fill="white"/>
<g clip-path="url(#clip7_1130_911)">
<path d="M145.212 796.148H147.594L150.843 802.898L153.893 796.148H156.058L150.446 808.6H148.28L149.724 805.406L145.212 796.148ZM155.496 805.947H157.733C157.878 806.94 158.491 807.391 159.646 807.391C160.909 807.391 161.487 807.03 161.487 806.092V805.803C161.487 805.009 160.909 804.612 159.863 804.612H158.636V803.168H159.754C160.765 803.168 161.27 802.807 161.27 802.067V801.761C161.27 801.003 160.711 800.75 159.664 800.75C158.527 800.75 158.022 801.165 157.878 802.049H155.64C155.838 800.028 157.354 799.306 159.646 799.306C161.992 799.306 163.508 800.028 163.508 801.725C163.508 802.699 162.967 803.403 161.812 803.728C163.147 804.071 163.725 804.919 163.725 805.929C163.725 808.005 162.299 808.817 159.646 808.817C157.156 808.817 155.73 808.005 155.496 805.947ZM165.626 799.541H167.827V803.15H171.455V799.541H173.638V808.6H171.455V804.901H167.827V808.6H165.626V799.541ZM175.555 806.164C175.555 804.359 176.566 803.475 179.183 803.295L181.655 803.132V802.789C181.655 801.364 181.096 800.84 179.923 800.84C178.894 800.84 178.353 801.165 178.154 802.085H175.862C176.097 800.245 177.414 799.306 179.886 799.306C182.539 799.306 183.839 800.371 183.839 802.789V808.6H181.727V807.283C181.132 808.257 180.085 808.817 178.497 808.817C176.602 808.817 175.555 807.824 175.555 806.164ZM179.255 807.301C180.608 807.301 181.655 806.633 181.655 804.955V804.431L179.471 804.594C178.316 804.702 177.793 805.027 177.793 805.857V806.11C177.793 806.904 178.298 807.301 179.255 807.301ZM187.897 801.291H184.992V799.541H192.986V801.291H190.081V808.6H187.897V801.291ZM194.457 808.6V799.541H196.659V802.428H199.131C201.152 802.428 202.235 803.529 202.235 805.46C202.235 807.499 201.152 808.6 199.131 808.6H194.457ZM199.997 805.677V805.207C199.997 804.504 199.6 803.998 198.626 803.998H196.659V807.03H198.626C199.6 807.03 199.997 806.489 199.997 805.677ZM207.122 803.529C207.122 797.159 208.439 795.643 212.59 795.499C214.123 795.444 214.863 795.39 215.333 795.318V797.213C214.917 797.285 214.16 797.339 212.662 797.375C209.955 797.466 209.161 798.115 208.998 801.309C209.63 800.227 210.677 799.631 212.211 799.631C214.719 799.631 216 800.949 216 804.161C216 807.409 214.502 808.817 211.561 808.817C208.655 808.817 207.122 807.427 207.122 803.529ZM213.744 804.738V803.619C213.744 801.779 212.95 801.201 211.561 801.201C210.171 801.201 209.377 801.779 209.377 803.619V804.738C209.377 806.597 210.171 807.247 211.561 807.247C212.987 807.247 213.744 806.597 213.744 804.738ZM224.033 804.792V803.276C224.033 801.544 223.257 800.876 221.849 800.876C220.441 800.876 219.647 801.544 219.647 803.276V804.792C219.647 806.543 220.441 807.247 221.849 807.247C223.257 807.247 224.033 806.543 224.033 804.792ZM217.41 804.071C217.41 800.515 218.962 799.306 221.849 799.306C224.754 799.306 226.27 800.515 226.27 804.071C226.27 807.644 224.754 808.817 221.849 808.817C218.962 808.817 217.41 807.644 217.41 804.071ZM227.163 808.6V806.669H227.38C228.444 806.669 228.697 806.11 228.697 803.529V799.541H235.843V808.6H233.66V801.291H230.718V803.529C230.718 807.644 229.978 808.6 227.578 808.6H227.163ZM238.163 808.6V799.541H240.364V802.428H242.837C244.858 802.428 245.941 803.529 245.941 805.46C245.941 807.499 244.858 808.6 242.837 808.6H238.163ZM243.703 805.677V805.207C243.703 804.504 243.306 803.998 242.331 803.998H240.364V807.03H242.331C243.306 807.03 243.703 806.489 243.703 805.677ZM247.591 799.541H249.793V806.85H252.68V799.541H254.882V806.85H257.769V799.541H259.971V808.6H247.591V799.541ZM261.856 804.089C261.856 800.66 263.299 799.306 266.024 799.306C268.822 799.306 270.283 800.624 270.283 803.764V804.269H264.003V804.792C264.003 806.561 264.761 807.301 266.024 807.301C267.234 807.301 267.865 806.795 267.991 805.857H270.193C269.922 807.806 268.515 808.817 266.024 808.817C263.299 808.817 261.856 807.481 261.856 804.089ZM266.024 800.84C264.725 800.84 264.039 801.472 264.003 803.006H268.082C268.028 801.454 267.342 800.84 266.024 800.84Z" fill="#1D2023"/>
</g>
</g>
<defs>
<clipPath id="clip0_1130_911">
<path d="M0 0H414V841C414 852.046 405.046 861 394 861H20C8.95432 861 0 852.046 0 841V0Z" fill="white"/>
</clipPath>
<clipPath id="clip1_1130_911">
<rect width="67.2724" height="12" fill="white" transform="translate(330.728 20)"/>
</clipPath>
<clipPath id="clip2_1130_911">
<rect x="17" y="56" width="90.5" height="4" rx="2" fill="white"/>
</clipPath>
<clipPath id="clip3_1130_911">
<rect x="111.5" y="56" width="90.5" height="4" rx="2" fill="white"/>
</clipPath>
<clipPath id="clip4_1130_911">
<rect x="206" y="56" width="90.5" height="4" rx="2" fill="white"/>
</clipPath>
<clipPath id="clip5_1130_911">
<rect x="300.5" y="56" width="90.5" height="4" rx="2" fill="white"/>
</clipPath>
<clipPath id="clip6_1130_911">
<rect width="24" height="24" fill="white" transform="translate(363 72)"/>
</clipPath>
<clipPath id="clip7_1130_911">
<rect width="329.077" height="26" fill="white" transform="translate(43.4615 790.6)"/>
</clipPath>
</defs>
</svg>
