<svg width="414" height="861" viewBox="0 0 414 861" fill="none" xmlns="http://www.w3.org/2000/svg">
<g clip-path="url(#clip0_1130_1264)">
<path d="M0 0H414V841C414 852.046 405.046 861 394 861H20C8.95432 861 0 852.046 0 841V0Z" fill="#F8D6B7"/>
<path d="M257.986 411.197C271.901 354.596 329.451 320.088 386.527 334.12C443.603 348.152 478.592 405.41 464.677 462.012C450.761 518.613 393.212 553.122 336.136 539.09C279.06 525.058 244.07 467.799 257.986 411.197Z" fill="white" fill-opacity="0.3"/>
<path d="M-45.1284 672.591C-17.9225 561.929 93.8415 494.274 204.504 521.48C315.165 548.685 382.82 660.45 355.614 771.112C328.408 881.773 216.644 949.428 105.983 922.222C-4.6794 895.016 -72.334 783.252 -45.1284 672.591Z" fill="white" fill-opacity="0.3"/>
<path d="M169.847 377.468C170.017 375.527 171.761 374.093 173.742 374.267L343.919 389.163C345.9 389.337 347.369 391.051 347.199 392.993C347.029 394.934 345.285 396.367 343.304 396.194L173.127 381.297C171.146 381.124 169.677 379.41 169.847 377.468Z" fill="#FFD432" stroke="#294064" stroke-miterlimit="10" stroke-linejoin="round"/>
<path d="M175.774 780.315C187.175 784.01 197.558 784.151 209.456 785.689C196.881 764.076 170.653 742.006 170.653 742.006C170.653 742.006 127.482 716.549 101.204 699.85C99.3136 698.648 95.7866 698.329 93.6022 698.672C83.9612 700.185 86.3911 715.433 86.472 721.109" fill="#B6D93E"/>
<path d="M175.774 780.315C187.175 784.01 197.558 784.151 209.456 785.689C196.881 764.076 170.653 742.006 170.653 742.006C170.653 742.006 127.482 716.549 101.204 699.85C99.3136 698.648 95.7866 698.329 93.6022 698.672C83.9612 700.185 86.3911 715.433 86.472 721.109" stroke="#294064" stroke-miterlimit="10" stroke-linecap="round" stroke-linejoin="round"/>
<path d="M199.717 598.707C199.392 598.809 199.005 598.801 198.741 599.013C191.741 604.611 184.652 610.119 177.981 616.089C162.91 629.577 149.303 645.117 135.239 659.609C126.304 668.817 119.179 679.383 110.314 688.561C101.236 697.957 91.1129 707.974 86.9809 720.712C82.6348 734.11 88.6083 748.714 99.7842 757.125C106.919 762.496 116.798 764.79 124.988 768.249C134.347 772.202 145.794 775.467 155.934 772.288C161.476 770.551 155.899 789.105 161.065 786.648C171.732 781.574 195.213 757.721 204.966 750.313C216.657 741.432 225.087 731.205 234.607 720.147C243.643 709.652 253.545 699.631 261.184 688.036C266.176 680.458 270.021 671.907 274.223 663.868C284.438 644.322 300.917 629.849 299.255 605.818C298.786 599.028 296.813 591.007 290.015 587.576" fill="#FFC6B2"/>
<path d="M150.509 623.908C231.322 503.402 294.786 477.785 294.786 477.785C294.786 477.785 286.531 491.243 281.978 498.334C262.374 528.871 216.312 585.983 235.208 589.542C252.182 592.74 319.768 493.158 343.684 503.483C374.619 516.837 287.232 594.447 287.232 594.447" fill="#FFC6B2"/>
<path d="M150.509 623.908C231.322 503.402 294.786 477.785 294.786 477.785C294.786 477.785 286.531 491.243 281.978 498.334C262.374 528.871 216.312 585.983 235.208 589.542C252.182 592.74 319.768 493.158 343.684 503.483C374.619 516.837 287.232 594.447 287.232 594.447" stroke="#294064" stroke-miterlimit="10" stroke-linecap="round" stroke-linejoin="round"/>
<path d="M284.868 600.583C284.868 600.583 261.288 603.827 252.121 596.39C237.617 584.624 248.485 568.823 261.412 565.75C279.495 561.45 303.495 567.048 318.968 579.47C327.866 586.614 330.312 597.078 326.369 605.716C318.266 623.467 297.908 633.829 297.908 633.829" fill="#FFC6B2"/>
<path d="M284.868 600.583C284.868 600.583 261.288 603.827 252.121 596.39C237.617 584.624 248.485 568.823 261.412 565.75C279.495 561.45 303.495 567.048 318.968 579.47C327.866 586.614 330.312 597.078 326.369 605.716C318.266 623.467 297.908 633.829 297.908 633.829" stroke="#294064" stroke-miterlimit="10" stroke-linecap="round" stroke-linejoin="round"/>
<path d="M297.041 621.4C297.041 621.4 287.416 635.923 275.933 642.247C262.774 649.495 245.179 642.675 246.754 630.855C248.066 621.003 256.005 617.047 264.348 610.45C270.543 605.552 284.021 578.104 305.666 598.421C321.84 613.604 296.522 641.973 289.411 664.537C282.347 686.946 275.781 718.118 257.942 733.722C230.344 757.86 207.613 742.828 168.79 781.292" fill="#FFC6B2"/>
<path d="M297.041 621.4C297.041 621.4 287.416 635.923 275.933 642.247C262.774 649.495 245.179 642.675 246.754 630.855C248.066 621.003 256.005 617.047 264.348 610.45C270.543 605.552 284.021 578.104 305.666 598.421C321.84 613.604 296.522 641.973 289.411 664.537C282.347 686.946 275.781 718.118 257.942 733.722C230.344 757.86 207.613 742.828 168.79 781.292" stroke="#294064" stroke-miterlimit="10" stroke-linecap="round" stroke-linejoin="round"/>
<path d="M263.702 612.818C253.327 613.726 237.95 636.323 255.491 635.917C268.871 635.608 280.334 611.363 263.702 612.818Z" fill="#FD6332" stroke="#294064" stroke-miterlimit="10" stroke-linecap="round" stroke-linejoin="round"/>
<path d="M254.655 570.759C253.015 571.323 247.424 574.842 248.464 579.557C250.828 590.274 272.311 592.542 277.905 583.248C285.05 571.379 263.451 567.729 254.655 570.759Z" fill="#FD6332" stroke="#294064" stroke-miterlimit="10" stroke-linecap="round" stroke-linejoin="round"/>
<path d="M252.716 556.425C251.68 558.557 253.791 561.048 254.557 563.294C254.794 563.991 256.217 564.456 256.744 564.817C261.406 568.022 265.962 570.022 271.519 571.482C279.497 573.579 286.797 574.173 295.073 574.448C299.943 574.609 305.11 575.02 309.566 572.661C313.355 570.654 317.19 568.109 319.617 564.49C322.125 560.75 321.311 556.076 319.601 552.362C315.521 543.5 311.137 540.027 301.472 536.96C295.274 534.992 287.825 533.563 281.32 533.829C274.944 534.09 269.738 535.278 263.922 537.888C260.628 539.365 257.701 541.448 254.137 542.382" fill="white" fill-opacity="0.500772"/>
<path d="M173.754 374.288C171.774 374.114 170.025 375.537 169.855 377.479C169.85 377.543 169.872 377.6 169.87 377.664L169.839 377.661L156.142 534.136C154.636 551.343 167.645 566.534 185.204 568.071L298.967 578.029C316.526 579.566 331.991 566.868 333.498 549.661L347.195 393.186L347.163 393.183C347.172 393.12 347.205 393.067 347.211 393.004C347.381 391.062 345.906 389.357 343.925 389.183L173.754 374.288ZM285.894 541.179C287.368 541.384 288.744 541.846 289.937 542.623C295.231 546.072 294.631 553.933 299.846 557.604C302.813 559.692 305.272 557.442 308.653 556.348C311.534 555.416 313.634 555.55 314.879 556.478C320.923 560.982 313.288 568.013 307.054 570.859C299.353 574.373 281.044 572.246 272.864 570.63C267.274 569.526 260.221 567.111 260.075 560.081C259.89 551.175 275.578 539.739 285.894 541.179Z" fill="#A6D08D" fill-opacity="0.49" stroke="#294064" stroke-miterlimit="10" stroke-linejoin="round"/>
<path d="M256.716 530.997C237.784 529.531 220.595 528.826 210.256 530.047C183.786 533.174 185.875 562.224 210.904 566.501C235.555 570.713 268.926 574.613 294.996 574.737C322.381 574.868 328.421 562.833 329.779 553.333C331.389 542.072 321.428 537.313 313.622 536.5C296.322 534.698 275.648 532.463 256.716 530.997ZM285.898 541.168C287.372 541.374 288.749 541.836 289.941 542.613C295.235 546.061 294.636 553.923 299.85 557.593C302.817 559.682 305.277 557.431 308.658 556.338C311.538 555.405 313.638 555.54 314.883 556.468C320.927 560.972 313.293 568.003 307.058 570.848C299.357 574.363 281.048 572.236 272.868 570.62C267.279 569.516 260.225 567.101 260.079 560.071C259.894 551.165 275.583 539.728 285.898 541.168Z" fill="white" stroke="#294064" stroke-miterlimit="10" stroke-linecap="round" stroke-linejoin="round"/>
<path d="M173.215 535.079C174.342 528.519 190.839 520.363 192.538 529.198C193.569 534.556 187.962 537.46 187.243 544.128C186.761 548.599 190.856 553.109 188.181 556.934C183.107 564.191 172.979 555.599 171.914 550.069C171.656 548.725 170.828 543.121 171.44 540.96C171.998 538.99 172.869 537.096 173.215 535.079Z" fill="#FFD432" stroke="#294064" stroke-miterlimit="10" stroke-linecap="round" stroke-linejoin="round"/>
<path d="M197.464 527.699C194.944 528.226 191.957 532.702 197.104 531.471C200.671 530.617 199.865 527.197 197.464 527.699Z" fill="#FFD432" stroke="#294064" stroke-miterlimit="10" stroke-linecap="round" stroke-linejoin="round"/>
<path d="M265.866 531.522C251.464 530.402 238.708 530.21 227.982 532.137C201.763 536.848 195.059 563.84 210.901 566.501C235.564 570.645 268.923 574.613 294.992 574.738C322.377 574.869 328.418 562.834 329.776 553.334C331.385 542.072 321.424 537.313 313.619 536.501C296.319 534.699 280.268 532.642 265.866 531.522ZM285.895 541.169C287.369 541.375 288.745 541.837 289.937 542.613C295.231 546.062 294.632 553.923 299.847 557.594C302.814 559.682 305.273 557.432 308.654 556.338C311.535 555.406 313.635 555.54 314.88 556.468C320.923 560.972 313.289 568.004 307.055 570.849C299.354 574.364 281.045 572.237 272.865 570.62C267.275 569.516 260.222 567.101 260.076 560.072C259.891 551.165 275.579 539.729 285.895 541.169Z" fill="#FFD432" stroke="#294064" stroke-miterlimit="10" stroke-linecap="round" stroke-linejoin="round"/>
<path d="M279.387 541.707C268.691 541.353 257.207 544.111 251.149 551.168C244.401 559.03 251.728 566.979 261.336 568.707C265.516 569.458 270.092 570.266 274.838 570.933C274.236 570.827 273.384 570.725 272.86 570.622C267.27 569.517 260.216 567.102 260.071 560.073C259.922 552.907 270.047 544.124 279.387 541.707ZM322.18 545.883C321.31 545.942 320.184 546.543 318.739 547.946C315.152 551.432 312.582 554.307 308.793 556.306C311.595 555.427 313.652 555.558 314.875 556.47C320.142 560.395 315.029 566.241 309.498 569.56C310.618 569.173 311.717 568.752 312.792 568.266C319.105 565.409 323.053 559.93 324.386 553.616C325.049 550.477 324.788 545.705 322.18 545.883Z" fill="#CFE8FF" fill-opacity="0.470911" stroke="#294064" stroke-miterlimit="10" stroke-linecap="round" stroke-linejoin="round"/>
<path d="M286.614 559.372C283.949 559.779 281.643 561.852 283.812 563.817C285.954 565.759 294.821 565.574 292.894 561.27C292.193 559.705 289.009 559.006 286.614 559.372Z" fill="white" stroke="#294064" stroke-miterlimit="10" stroke-linecap="round" stroke-linejoin="round"/>
<path d="M244.333 562.127C242.558 560.122 239.607 559.603 236.925 560.031C234.617 560.401 232.991 562.57 235.265 564.689C237.165 566.459 240.789 566.888 243.268 566.077C245.318 565.405 245.594 563.552 244.333 562.127Z" fill="#FAE9D5" stroke="#294064" stroke-miterlimit="10" stroke-linecap="round" stroke-linejoin="round"/>
<path d="M173.812 414.375C171.951 414.212 170.353 415.491 170.018 417.252L169.956 417.247L169.926 417.582L161.694 511.632C161.309 516.022 164.621 519.889 169.101 520.282L322.662 533.724C327.142 534.115 331.091 530.884 331.475 526.494L339.708 432.444L339.737 432.109L339.675 432.103C339.651 430.31 338.284 428.772 336.424 428.609L173.812 414.375Z" fill="#94C988" stroke="#294064" stroke-miterlimit="10" stroke-linejoin="round"/>
<mask id="mask0_1130_1264" style="mask-type:luminance" maskUnits="userSpaceOnUse" x="161" y="414" width="179" height="120">
<path d="M173.81 414.374C171.95 414.211 170.352 415.49 170.016 417.252L169.954 417.246L169.925 417.581L161.692 511.631C161.308 516.021 164.62 519.888 169.1 520.281L322.661 533.723C327.141 534.115 331.089 530.883 331.474 526.493L339.706 432.443L339.736 432.108L339.673 432.103C339.65 430.31 338.283 428.771 336.422 428.608L173.81 414.374Z" fill="white"/>
</mask>
<g mask="url(#mask0_1130_1264)">
<path d="M271.989 449.186C273.113 446.102 261.177 451.335 255.534 457.812C248.22 466.206 244.717 474.486 237.269 485.091C229.821 495.696 224.414 500.152 225.742 500.232C232.272 500.624 249.603 479.647 257.142 467.027C263.139 456.988 270.939 452.07 271.989 449.186Z" fill="#529842" stroke="#294064" stroke-miterlimit="10" stroke-linecap="round" stroke-linejoin="round"/>
<path d="M167.785 512.377C171.844 513.563 186.148 515.282 206.577 517.15C227.077 519.024 256.881 522.43 267.642 516.063C290.646 502.452 287.955 477.492 306.066 474.878C327.628 471.765 320.674 500.299 337.066 496.683C339.515 476.548 340.152 475.887 342.601 455.752C328.087 452.366 330.853 471.23 312.884 470.704C304.827 470.468 302.528 443.703 280.237 449.818C260.711 455.174 253.463 491.509 229.528 504.831C213.539 513.73 189.163 514.381 177.998 512.652C165.04 510.644 163.915 511.247 167.785 512.377Z" fill="#529842" stroke="#294064" stroke-miterlimit="10" stroke-linecap="round" stroke-linejoin="round"/>
<path d="M302.358 484.216C295.376 488.964 303.112 486.266 309.694 487.925C315.066 489.279 317.074 492.252 318.624 490.924C320.534 489.289 316.077 485.026 313.978 484.074C310.248 482.383 305.756 481.905 302.358 484.216Z" fill="#529842" stroke="#294064" stroke-miterlimit="10" stroke-linecap="round" stroke-linejoin="round"/>
<path d="M338.793 498.101C335.434 501.11 331.98 506.294 327.423 506.223C317.45 506.069 317.675 494.379 304.179 495.145C289.612 495.972 288.491 519.257 274.114 521.669C259.807 524.069 239.531 522.419 212.684 519.532C186.24 516.688 161.063 514.524 166.85 516.028C177.176 518.713 285.473 529.189 314.274 530.316C327.686 530.841 309.293 515.691 323.595 512.583C331.807 510.798 329.103 522.355 339.935 524.077C341.904 514.547 341.904 514.547 343.872 505.017" fill="#529842"/>
<path d="M338.793 498.101C335.434 501.11 331.98 506.294 327.423 506.223C317.45 506.069 317.675 494.379 304.179 495.145C289.612 495.972 288.491 519.257 274.114 521.669C259.807 524.069 239.531 522.419 212.684 519.532C186.24 516.688 161.063 514.524 166.85 516.028C177.176 518.713 285.473 529.189 314.274 530.316C327.686 530.841 309.293 515.691 323.595 512.583C331.807 510.798 329.103 522.355 339.935 524.077C341.904 514.547 341.904 514.547 343.872 505.017" stroke="#294064" stroke-miterlimit="10" stroke-linecap="round" stroke-linejoin="round"/>
<path d="M274.425 447.41C274.885 449.194 279.633 448.503 279.528 446.632C279.437 445.021 273.998 445.755 274.425 447.41Z" fill="#529842" stroke="#294064" stroke-miterlimit="10" stroke-linecap="round" stroke-linejoin="round"/>
</g>
<path d="M169.925 417.593C170.095 415.651 171.839 414.218 173.821 414.391L336.432 428.626C338.413 428.799 339.881 430.513 339.711 432.455C339.541 434.396 337.797 435.83 335.816 435.656L173.205 421.422C171.223 421.249 169.755 419.534 169.925 417.593Z" fill="#83A5D8" stroke="#294064" stroke-miterlimit="10" stroke-linejoin="round"/>
<path d="M186.496 382.471L211.697 384.677L204.473 467.201C203.876 474.02 197.751 479.055 190.792 478.446C183.833 477.837 178.676 471.814 179.273 464.995L186.496 382.471Z" fill="white" stroke="#294064" stroke-miterlimit="10" stroke-linejoin="round"/>
<path d="M176.702 494.362C177.298 487.542 183.424 482.508 190.383 483.117C197.342 483.726 202.499 489.748 201.902 496.568C201.305 503.388 195.18 508.422 188.221 507.813C181.262 507.204 176.105 501.182 176.702 494.362Z" fill="white" stroke="#294064" stroke-miterlimit="10" stroke-linejoin="round"/>
<path d="M72.7487 726.566C72.7487 726.566 90.6512 706.41 99.3025 682.729C106.085 664.164 99.9181 643.345 104.398 624.113C109.258 603.245 117.151 597.442 125.627 581.099C130.537 571.632 129.682 559.519 137.777 549.32C153.05 530.077 152.656 518.155 165.133 512.899C177.611 507.642 188.185 522.284 187.795 532.982C186.835 559.265 168.595 570.66 169.44 584.682C169.784 590.386 193.097 607.504 195.515 630.578C198.041 654.687 185.399 672.934 185.399 672.934" fill="#FFC6B2"/>
<path d="M72.7487 726.566C72.7487 726.566 90.6512 706.41 99.3025 682.729C106.085 664.164 99.9181 643.345 104.398 624.113C109.258 603.245 117.151 597.442 125.627 581.099C130.537 571.632 129.682 559.519 137.777 549.32C153.05 530.077 152.656 518.155 165.133 512.899C177.611 507.642 188.185 522.284 187.795 532.982C186.835 559.265 168.595 570.66 169.44 584.682C169.784 590.386 193.097 607.504 195.515 630.578C198.041 654.687 185.399 672.934 185.399 672.934" stroke="#294064" stroke-miterlimit="10" stroke-linecap="round" stroke-linejoin="round"/>
<path d="M189.514 762.74C189.514 762.74 141.276 744.159 91.9207 699.302C89.8628 712.912 176.633 771.877 176.633 771.877L189.514 762.74Z" fill="#E4AC98"/>
<path d="M232.904 572.951C232.904 572.951 229.112 581.051 230.062 585.154C232.144 594.147 239.902 589.694 244.768 586.559C246.406 598.532 261.719 603.005 270.97 601.792C265.539 606.006 255.586 618.499 242.778 612.39C237.203 609.731 236.274 597.727 236.274 597.727L174.775 591.11L191.798 569.283L232.904 572.951Z" fill="#E4AC98"/>
<path d="M192.097 592.892C180.075 593.756 192.834 603.216 193.899 619.491C188.568 608.298 186.009 604.516 174.417 591.293C179.985 585.136 185.966 576.549 185.966 576.549" fill="#E4AC98"/>
<path d="M250.168 641.416C264.877 651.717 279.077 643.413 288.267 633.729C282.407 643.889 273.426 658.384 258.424 651.592C252.214 648.781 250.028 642.285 250.168 641.416Z" fill="#E4AC98"/>
<path d="M279.787 576.988C285.84 584.898 310.161 590.102 314.014 576.516C314.014 576.516 309.484 578.293 307.014 578.542C302.876 578.961 298.902 578.622 294.92 578.321C291.275 578.045 279.787 576.988 279.787 576.988Z" fill="#E4AC98"/>
<path d="M-43.0838 843.602C19.7733 784.52 89.3376 698.705 89.3376 698.705C89.3376 698.705 144.427 759.941 209.651 785.799L122.908 903.201" fill="#02A456"/>
<path d="M-43.0838 843.602C19.7733 784.52 89.3376 698.705 89.3376 698.705C89.3376 698.705 144.427 759.941 209.651 785.799L122.908 903.201" stroke="#294064" stroke-miterlimit="10" stroke-linecap="round" stroke-linejoin="round"/>
<mask id="mask1_1130_1264" style="mask-type:luminance" maskUnits="userSpaceOnUse" x="-44" y="698" width="254" height="206">
<path d="M-43.0848 843.616C19.7724 784.534 89.3366 698.719 89.3366 698.719C89.3366 698.719 144.426 759.955 209.65 785.813L122.907 903.216" fill="white"/>
</mask>
<g mask="url(#mask1_1130_1264)">
<path d="M106.016 706.062L-2.20093 833.775" stroke="#B6D93E" stroke-width="5" stroke-miterlimit="10" stroke-linecap="round" stroke-linejoin="round"/>
<path d="M131.33 712.925L-2.99978 875.002" stroke="#B6D93E" stroke-width="5" stroke-miterlimit="10" stroke-linecap="round" stroke-linejoin="round"/>
<path d="M154.289 721.809L24.0001 883.002" stroke="#B6D93E" stroke-width="5" stroke-miterlimit="10" stroke-linecap="round" stroke-linejoin="round"/>
<path d="M176.151 730.596L57 875.001" stroke="#B6D93E" stroke-width="5" stroke-miterlimit="10" stroke-linecap="round" stroke-linejoin="round"/>
<path d="M197.623 739.71L89.4058 867.422" stroke="#B6D93E" stroke-width="5" stroke-miterlimit="10" stroke-linecap="round" stroke-linejoin="round"/>
<path d="M217.026 751.941L108.809 879.656" stroke="#B6D93E" stroke-width="5" stroke-miterlimit="10" stroke-linecap="round" stroke-linejoin="round"/>
</g>
<path d="M88.3509 692.148C85.981 691.843 83.8175 693.478 83.5159 695.8C83.2138 698.122 84.8887 700.249 87.2586 700.553C89.6286 700.857 91.7921 699.222 92.0941 696.9C92.3957 694.578 90.7209 692.451 88.3509 692.148ZM88.0393 694.545C89.0549 694.675 89.7766 695.591 89.6473 696.586C89.5181 697.581 88.5859 698.286 87.5703 698.155C86.5546 698.025 85.8483 697.111 85.9776 696.116C86.1068 695.12 87.0236 694.414 88.0393 694.545Z" fill="#FFD432" stroke="#294064" stroke-miterlimit="10" stroke-linejoin="round"/>
<path d="M89.2957 700.508C86.9257 700.204 84.7622 701.838 84.4607 704.161C84.1586 706.483 85.8339 708.609 88.2039 708.914C90.5738 709.217 92.7369 707.583 93.0389 705.261C93.3405 702.939 91.6656 700.812 89.2957 700.508ZM88.984 702.905C89.9997 703.036 90.7213 703.952 90.5921 704.947C90.4629 705.942 89.5307 706.646 88.515 706.516C87.4994 706.386 86.7931 705.472 86.9224 704.476C87.0516 703.481 87.9684 702.775 88.984 702.905Z" fill="#FFD432" stroke="#294064" stroke-miterlimit="10" stroke-linejoin="round"/>
<path d="M90.9724 709.019C88.6024 708.715 86.4389 710.349 86.1368 712.671C85.8353 714.994 87.5101 717.12 89.8801 717.424C92.2501 717.728 94.4136 716.093 94.7151 713.771C95.0172 711.449 93.3423 709.323 90.9724 709.019ZM90.6607 711.416C91.6764 711.546 92.398 712.463 92.2688 713.458C92.1396 714.453 91.2073 715.157 90.1917 715.027C89.1761 714.897 88.4698 713.982 88.5991 712.987C88.7283 711.992 89.6451 711.286 90.6607 711.416Z" fill="#FFD432" stroke="#294064" stroke-miterlimit="10" stroke-linejoin="round"/>
<path d="M92.5882 717.898C90.2182 717.594 88.0547 719.229 87.7526 721.551C87.4511 723.873 89.1259 726 91.4959 726.303C93.8659 726.607 96.0294 724.973 96.3309 722.651C96.633 720.329 94.9582 718.202 92.5882 717.898ZM92.2766 720.295C93.2922 720.425 94.0139 721.342 93.8846 722.337C93.7553 723.332 92.8231 724.037 91.8075 723.906C90.7919 723.776 90.0856 722.862 90.2148 721.867C90.3441 720.871 91.2609 720.165 92.2766 720.295Z" fill="#FFD432" stroke="#294064" stroke-miterlimit="10" stroke-linejoin="round"/>
<path d="M95.3854 726.074C93.0155 725.77 90.852 727.404 90.5504 729.727C90.2484 732.049 91.9232 734.175 94.2931 734.48C96.6631 734.783 98.8266 733.149 99.1287 730.827C99.4303 728.505 97.7554 726.378 95.3854 726.074ZM95.0738 728.471C96.0895 728.602 96.8111 729.518 96.6819 730.513C96.5526 731.508 95.6204 732.212 94.6048 732.082C93.5892 731.952 92.8829 731.038 93.0121 730.042C93.1414 729.047 94.0582 728.341 95.0738 728.471Z" fill="#FFD432" stroke="#294064" stroke-miterlimit="10" stroke-linejoin="round"/>
<path d="M97.6854 734.61C95.3154 734.306 93.1519 735.94 92.8503 738.263C92.5488 740.585 94.2236 742.711 96.5936 743.015C98.9636 743.319 101.127 741.685 101.429 739.362C101.73 737.041 100.055 734.914 97.6854 734.61ZM97.3742 737.007C98.3899 737.137 99.1115 738.054 98.9823 739.049C98.8531 740.044 97.9208 740.748 96.9052 740.618C95.8891 740.488 95.1833 739.573 95.3125 738.578C95.4418 737.583 96.3586 736.877 97.3742 737.007Z" fill="#FFD432" stroke="#294064" stroke-miterlimit="10" stroke-linejoin="round"/>
<path d="M100.824 743.023C98.4538 742.719 96.2903 744.353 95.9887 746.676C95.6872 748.998 97.362 751.124 99.7319 751.428C102.102 751.732 104.265 750.098 104.567 747.775C104.869 745.453 103.194 743.327 100.824 743.023ZM100.512 745.42C101.528 745.551 102.25 746.467 102.12 747.462C101.991 748.457 101.059 749.161 100.043 749.031C99.0275 748.901 98.3212 747.986 98.4504 746.991C98.5796 745.996 99.4965 745.29 100.512 745.42Z" fill="#FFD432" stroke="#294064" stroke-miterlimit="10" stroke-linejoin="round"/>
<path d="M103.873 751.346C101.503 751.042 99.3393 752.677 99.0377 754.999C98.7357 757.321 100.411 759.447 102.78 759.751C105.15 760.055 107.314 758.421 107.616 756.099C107.918 753.777 106.243 751.65 103.873 751.346ZM103.561 753.743C104.577 753.873 105.298 754.79 105.169 755.785C105.04 756.78 104.108 757.484 103.092 757.354C102.076 757.224 101.37 756.31 101.499 755.314C101.629 754.319 102.546 753.613 103.561 753.743Z" fill="#FFD432" stroke="#294064" stroke-miterlimit="10" stroke-linejoin="round"/>
<path d="M107.454 759.465C105.084 759.161 102.921 760.795 102.619 763.117C102.318 765.44 103.993 767.566 106.363 767.87C108.733 768.174 110.896 766.54 111.198 764.218C111.499 761.896 109.824 759.769 107.454 759.465ZM107.143 761.862C108.159 761.992 108.881 762.909 108.751 763.904C108.622 764.899 107.689 765.603 106.674 765.473C105.658 765.343 104.952 764.429 105.082 763.433C105.211 762.438 106.127 761.732 107.143 761.862Z" fill="#FFD432" stroke="#294064" stroke-miterlimit="10" stroke-linejoin="round"/>
<path d="M112.99 766.322C110.62 766.019 108.457 767.653 108.155 769.975C107.854 772.297 109.529 774.423 111.899 774.728C114.268 775.031 116.432 773.397 116.734 771.075C117.035 768.753 115.36 766.626 112.99 766.322ZM112.679 768.719C113.695 768.85 114.416 769.766 114.287 770.761C114.158 771.756 113.226 772.46 112.21 772.33C111.194 772.2 110.488 771.286 110.618 770.29C110.747 769.295 111.663 768.589 112.679 768.719Z" fill="#FFD432" stroke="#294064" stroke-miterlimit="10" stroke-linejoin="round"/>
<path d="M119.248 772.88C116.878 772.576 114.714 774.21 114.413 776.533C114.111 778.855 115.786 780.981 118.156 781.285C120.526 781.589 122.689 779.955 122.991 777.633C123.293 775.311 121.618 773.184 119.248 772.88ZM118.936 775.277C119.952 775.408 120.674 776.324 120.544 777.319C120.415 778.314 119.483 779.018 118.467 778.888C117.452 778.758 116.745 777.843 116.875 776.848C117.004 775.853 117.921 775.147 118.936 775.277Z" fill="#FFD432" stroke="#294064" stroke-miterlimit="10" stroke-linejoin="round"/>
<path d="M126.435 778.284C124.065 777.98 121.901 779.614 121.6 781.937C121.298 784.259 122.973 786.385 125.343 786.689C127.713 786.993 129.876 785.359 130.178 783.036C130.48 780.714 128.805 778.588 126.435 778.284ZM126.124 780.681C127.139 780.812 127.861 781.728 127.732 782.723C127.602 783.718 126.67 784.422 125.655 784.292C124.638 784.162 123.933 783.248 124.062 782.252C124.191 781.257 125.108 780.551 126.124 780.681Z" fill="#FFD432" stroke="#294064" stroke-miterlimit="10" stroke-linejoin="round"/>
<path d="M134.56 781.944C132.19 781.641 130.026 783.275 129.725 785.597C129.423 787.919 131.098 790.046 133.468 790.35C135.838 790.653 138.001 789.019 138.303 786.697C138.605 784.375 136.93 782.248 134.56 781.944ZM134.248 784.342C135.264 784.472 135.986 785.388 135.856 786.383C135.727 787.379 134.795 788.083 133.779 787.953C132.764 787.822 132.057 786.908 132.187 785.913C132.316 784.918 133.233 784.211 134.248 784.342Z" fill="#FFD432" stroke="#294064" stroke-miterlimit="10" stroke-linejoin="round"/>
<path d="M143.407 782.927C141.037 782.623 138.873 784.257 138.572 786.58C138.27 788.902 139.945 791.028 142.315 791.332C144.685 791.636 146.848 790.002 147.15 787.679C147.451 785.357 145.777 783.231 143.407 782.927ZM143.096 785.324C144.111 785.454 144.833 786.37 144.704 787.366C144.574 788.361 143.642 789.065 142.626 788.935C141.61 788.804 140.905 787.89 141.034 786.895C141.163 785.9 142.08 785.194 143.096 785.324Z" fill="#FFD432" stroke="#294064" stroke-miterlimit="10" stroke-linejoin="round"/>
<path d="M152.4 783.505C150.03 783.201 147.867 784.835 147.565 787.158C147.263 789.48 148.938 791.606 151.308 791.911C153.678 792.214 155.841 790.58 156.143 788.258C156.445 785.936 154.77 783.809 152.4 783.505ZM152.089 785.902C153.104 786.033 153.826 786.949 153.697 787.944C153.567 788.939 152.635 789.643 151.62 789.513C150.604 789.383 149.898 788.469 150.027 787.473C150.156 786.478 151.073 785.772 152.089 785.902Z" fill="#FFD432" stroke="#294064" stroke-miterlimit="10" stroke-linejoin="round"/>
<path d="M161.418 782.054C159.048 781.75 156.885 783.385 156.583 785.707C156.281 788.028 157.956 790.155 160.326 790.459C162.696 790.763 164.859 789.129 165.161 786.807C165.463 784.484 163.788 782.358 161.418 782.054ZM161.106 784.451C162.122 784.581 162.844 785.497 162.714 786.493C162.585 787.488 161.653 788.192 160.637 788.062C159.622 787.932 158.915 787.018 159.045 786.022C159.174 785.027 160.091 784.321 161.106 784.451Z" fill="#FFD432" stroke="#294064" stroke-miterlimit="10" stroke-linejoin="round"/>
<path d="M170.036 778.581C167.666 778.277 165.503 779.911 165.201 782.233C164.899 784.555 166.574 786.682 168.944 786.986C171.314 787.29 173.478 785.656 173.779 783.334C174.081 781.011 172.406 778.885 170.036 778.581ZM169.725 780.978C170.74 781.108 171.462 782.025 171.333 783.02C171.204 784.015 170.271 784.719 169.256 784.589C168.24 784.459 167.534 783.544 167.663 782.549C167.792 781.554 168.709 780.847 169.725 780.978Z" fill="#FFD432" stroke="#294064" stroke-miterlimit="10" stroke-linejoin="round"/>
<path d="M178.049 774.299C175.679 773.995 173.516 775.63 173.214 777.952C172.913 780.274 174.587 782.401 176.957 782.704C179.327 783.008 181.49 781.374 181.792 779.052C182.094 776.73 180.419 774.603 178.049 774.299ZM177.738 776.697C178.754 776.827 179.475 777.743 179.346 778.738C179.216 779.733 178.284 780.438 177.268 780.307C176.253 780.177 175.547 779.263 175.676 778.268C175.805 777.272 176.722 776.566 177.738 776.697Z" fill="#FFD432" stroke="#294064" stroke-miterlimit="10" stroke-linejoin="round"/>
<path d="M185.257 769.364C182.887 769.061 180.724 770.695 180.422 773.017C180.121 775.339 181.796 777.466 184.165 777.77C186.535 778.073 188.699 776.439 189.001 774.117C189.302 771.795 187.627 769.668 185.257 769.364ZM184.946 771.761C185.962 771.892 186.683 772.808 186.554 773.803C186.424 774.799 185.492 775.503 184.477 775.373C183.461 775.242 182.755 774.328 182.884 773.333C183.014 772.337 183.93 771.631 184.946 771.761Z" fill="#FFD432" stroke="#294064" stroke-miterlimit="10" stroke-linejoin="round"/>
<path d="M147.548 537.359C146.836 546.02 155.626 547.988 161.887 541.055C167.195 535.177 172.928 516.16 166.774 513.614C159.393 510.562 148.058 531.166 147.548 537.359Z" fill="#FD6332" stroke="#294064" stroke-miterlimit="10" stroke-linecap="round" stroke-linejoin="round"/>
<path d="M271.298 621.525C267.46 623.034 260.627 617.411 263.465 613.057" stroke="#294064" stroke-miterlimit="10" stroke-linecap="round" stroke-linejoin="round"/>
<path d="M274.924 586.044C271.098 583.237 271.979 577.443 272.877 576.008" stroke="#294064" stroke-miterlimit="10" stroke-linecap="round" stroke-linejoin="round"/>
<path d="M147.668 536.436C153.233 531.249 158.376 538.646 157.103 544.203" stroke="#294064" stroke-miterlimit="10" stroke-linecap="round" stroke-linejoin="round"/>
<path d="M339.489 400.034L338.318 414.03" stroke="#294064" stroke-miterlimit="10" stroke-linecap="round" stroke-linejoin="round"/>
<path d="M337.902 417.54L334.221 454.109" stroke="#294064" stroke-miterlimit="10" stroke-linecap="round" stroke-linejoin="round"/>
<path d="M220.355 387.673L251.888 390.443" stroke="#294064" stroke-miterlimit="10" stroke-linecap="round" stroke-linejoin="round"/>
<path d="M180.137 490.259C176.341 495.668 180.83 501.512 180.83 501.512" stroke="#294064" stroke-miterlimit="10" stroke-linecap="round" stroke-linejoin="round"/>
<path d="M182.574 503.288C184.511 504.942 187.272 506.041 189.871 505.869" stroke="#294064" stroke-miterlimit="10" stroke-linecap="round" stroke-linejoin="round"/>
<path d="M135.298 742.155C136.198 744.467 150.643 765.023 156.015 773.403" stroke="#294064" stroke-miterlimit="10" stroke-linecap="round" stroke-linejoin="round"/>
<path d="M169.879 792.003C173.833 796.581 187.054 811.64 186.458 810.951" stroke="#294064" stroke-miterlimit="10" stroke-linecap="round" stroke-linejoin="round"/>
<path d="M255.194 390.556L277.879 392.557" stroke="#294064" stroke-miterlimit="10" stroke-linecap="round" stroke-linejoin="round"/>
<path d="M293.198 626.623C295.406 626.446 297.379 624.912 298.741 623.334" stroke="#294064" stroke-miterlimit="10" stroke-linecap="round" stroke-linejoin="round"/>
<path d="M250.156 632.683C251.533 634.65 257.455 634.289 258.962 633.263" stroke="white" stroke-miterlimit="10" stroke-linecap="round" stroke-linejoin="round"/>
<path d="M260.981 632.289C262.981 631.085 264.528 629.725 266.022 627.911" stroke="white" stroke-miterlimit="10" stroke-linecap="round" stroke-linejoin="round"/>
<path d="M250.246 578.095C249.903 582.505 257.088 586.447 260.116 586.478" stroke="white" stroke-miterlimit="10" stroke-linecap="round" stroke-linejoin="round"/>
<path d="M262.374 586.737C264.356 587.013 266.849 586.77 266.849 586.77" stroke="white" stroke-miterlimit="10" stroke-linecap="round" stroke-linejoin="round"/>
<path d="M165.923 515.114C166.874 516.059 167.347 517.316 167.432 518.823C167.615 522.046 166.683 525.327 166.683 525.327" stroke="white" stroke-miterlimit="10" stroke-linecap="round" stroke-linejoin="round"/>
<path d="M166.321 527.532C165.901 529.659 163.634 534.91 163.634 534.91" stroke="white" stroke-miterlimit="10" stroke-linecap="round" stroke-linejoin="round"/>
<path d="M172.494 424.496L170.303 449.183" stroke="white" stroke-miterlimit="10" stroke-linecap="round" stroke-linejoin="round"/>
<path d="M169.885 453.489L168.847 469.886" stroke="white" stroke-miterlimit="10" stroke-linecap="round" stroke-linejoin="round"/>
<path d="M291.87 452.627C291.87 452.627 285.066 450.752 279.465 452.974C273.217 455.451 269.955 460.278 266.369 465.751" stroke="white" stroke-miterlimit="10" stroke-linecap="round" stroke-linejoin="round"/>
<path d="M264.584 468.568C260.241 473.872 256.67 481.9 252.26 487.287" stroke="white" stroke-miterlimit="10" stroke-linecap="round" stroke-linejoin="round"/>
<path d="M316.458 503.411C314.297 500.51 310.667 498.233 306.614 497.626" stroke="white" stroke-miterlimit="10" stroke-linecap="round" stroke-linejoin="round"/>
<path d="M302.986 497.933C301.066 498.15 298.768 499.794 297.268 501.233" stroke="white" stroke-miterlimit="10" stroke-linecap="round" stroke-linejoin="round"/>
</g>
<defs>
<clipPath id="clip0_1130_1264">
<path d="M0 0H414V841C414 852.046 405.046 861 394 861H20C8.95432 861 0 852.046 0 841V0Z" fill="white"/>
</clipPath>
</defs>
</svg>
