<svg width="414" height="861" viewBox="0 0 414 861" fill="none" xmlns="http://www.w3.org/2000/svg">
<g clip-path="url(#clip0_1130_1389)">
<path d="M0 0H414V841C414 852.046 405.046 861 394 861H20C8.95432 861 0 852.046 0 841V0Z" fill="#F8D6B7"/>
<path d="M-71.3769 533.763C-122.925 523.1 -155.996 472.318 -145.245 420.338C-134.493 368.357 -83.9895 334.862 -32.4413 345.524C19.1069 356.187 52.1782 406.968 41.4264 458.949C30.6746 510.93 -19.8287 544.425 -71.3769 533.763Z" fill="white" fill-opacity="0.3"/>
<path d="M167.681 800.563C66.8983 779.717 2.09695 681.118 22.943 580.335C43.789 479.553 142.389 414.752 243.171 435.598C343.953 456.444 408.754 555.044 387.908 655.826C367.062 756.608 268.463 821.409 167.681 800.563Z" fill="white" fill-opacity="0.3"/>
<path d="M306.754 502.095L299.396 543.791L262.166 538.296L287.082 560.41L259.456 602.819L300.415 587.173L324.123 624.777L327.188 583.498L386.97 586.525L333.481 556.727L356.938 517.803L317.993 538.028L306.754 502.095Z" fill="#BDCF01"/>
<path d="M173.379 689.175C174.326 681.651 200.337 678.726 231.478 682.643C262.618 686.559 287.094 695.834 286.148 703.358C285.202 710.882 259.191 713.806 228.051 709.89C196.911 705.973 172.433 696.699 173.379 689.175Z" fill="#294064"/>
<path d="M171.063 678.557C171.063 678.557 172.418 690.343 174.837 691.881C177.429 693.529 191.078 698.322 206.806 697.489C222.535 696.656 235.056 692.431 237.75 688.548C239.85 685.522 238.22 670.178 238.22 670.178" fill="#616AB7"/>
<path d="M171.063 678.557C171.063 678.557 172.418 690.343 174.837 691.881C177.429 693.529 191.078 698.322 206.806 697.489C222.535 696.656 235.056 692.431 237.75 688.548C239.85 685.522 238.22 670.178 238.22 670.178" stroke="#294064" stroke-miterlimit="10" stroke-linecap="round" stroke-linejoin="round"/>
<path d="M295.952 586.392C298.758 589.906 297.366 598.535 296.53 605.18C289.968 657.359 242.335 694.338 190.141 687.773C140.736 681.559 104.977 640.661 106.86 591.829C106.86 591.829 105.805 568.956 202.861 569.226C285.596 569.456 295.952 586.392 295.952 586.392Z" fill="#616AB7" stroke="#294064" stroke-miterlimit="10" stroke-linejoin="round"/>
<path d="M145.102 585.613C130.189 583.738 116.355 591.517 109.657 604.016C109.854 604.556 110.082 605.17 110.141 605.327C111.036 607.716 111.466 608.909 111.945 610.511C112.138 611.157 112.82 613.42 112.958 613.881C113.158 614.554 113.262 614.725 113.447 615.333C113.763 616.03 114.16 616.789 114.406 617.468C115.159 619.542 117.296 625.726 118.171 628.248C120.098 632.496 122.408 636.729 127.311 644.731C127.449 644.956 127.441 644.956 127.579 645.181C130.054 649.221 131.592 651.963 133.26 654.906C134.281 655.127 135.242 655.48 136.298 655.612C155.635 658.045 173.279 644.348 175.71 625.017C178.141 605.685 164.439 588.045 145.102 585.613Z" fill="#FFEBD3" stroke="#294064" stroke-miterlimit="10" stroke-linejoin="round"/>
<path d="M144.412 591.086C129.873 589.257 116.535 598.267 112.339 611.789C112.596 612.645 112.871 613.596 112.956 613.881C113.157 614.554 113.261 614.726 113.445 615.333C113.761 616.031 114.158 616.789 114.405 617.468C115.157 619.543 117.294 625.727 118.169 628.248C120.097 632.496 122.406 636.73 127.31 644.732C127.447 644.956 127.439 644.957 127.577 645.182C128.276 646.323 128.552 646.897 129.177 647.931C131.636 648.968 134.208 649.791 136.985 650.141C153.299 652.192 168.184 640.637 170.235 624.328C172.286 608.019 160.727 593.138 144.412 591.086Z" fill="#FEB25C" stroke="#294064" stroke-miterlimit="10" stroke-linejoin="round"/>
<path d="M143.74 596.442C130.384 594.762 118.204 604.218 116.525 617.571C116.257 619.701 116.35 621.78 116.62 623.813C117.223 625.548 117.811 627.209 118.171 628.246C119.312 630.762 120.804 633.56 122.672 636.85C126.45 641.045 131.616 644.043 137.658 644.803C151.014 646.483 163.198 637.005 164.877 623.652C166.556 610.299 157.097 598.121 143.74 596.442Z" fill="#FFEBD3" stroke="#294064" stroke-miterlimit="10" stroke-linejoin="round"/>
<path d="M143.116 601.414C132.843 600.122 123.457 607.409 122.166 617.679C120.874 627.95 128.166 637.311 138.439 638.603C148.713 639.895 158.096 632.631 159.387 622.361C160.68 612.091 153.39 602.707 143.116 601.414Z" fill="#FEB25C" stroke="#294064" stroke-miterlimit="10" stroke-linejoin="round"/>
<path d="M142.548 605.929C134.766 604.951 127.66 610.467 126.681 618.248C125.702 626.029 131.221 633.133 139.003 634.112C146.786 635.09 153.892 629.574 154.871 621.794C155.85 614.013 150.331 606.908 142.548 605.929Z" fill="#FFEBD3" stroke="#294064" stroke-miterlimit="10" stroke-linejoin="round"/>
<path d="M141.974 610.488C136.708 609.826 131.904 613.555 131.242 618.82C130.579 624.085 134.31 628.888 139.576 629.55C144.843 630.212 149.647 626.483 150.309 621.218C150.971 615.953 147.24 611.15 141.974 610.488Z" fill="#FFEBD3" stroke="#294064" stroke-miterlimit="10" stroke-linejoin="round"/>
<path d="M141.457 614.594C138.456 614.216 135.724 616.337 135.346 619.337C134.969 622.337 137.091 625.069 140.092 625.446C143.093 625.824 145.825 623.703 146.203 620.703C146.58 617.702 144.458 614.971 141.457 614.594Z" fill="#FFEBD3" stroke="#294064" stroke-miterlimit="10" stroke-linejoin="round"/>
<path d="M138.07 594.867C140.502 575.536 158.148 561.836 177.485 564.268C196.822 566.7 210.526 584.343 208.095 603.675C205.664 623.006 188.017 636.705 168.681 634.273C149.343 631.841 135.639 614.198 138.07 594.867Z" fill="#FEB25C" stroke="#294064" stroke-miterlimit="10" stroke-linejoin="round"/>
<path d="M143.543 595.556C145.594 579.247 160.483 567.688 176.797 569.74C193.11 571.792 204.673 586.677 202.622 602.987C200.57 619.295 185.682 630.854 169.368 628.802C153.054 626.75 141.492 611.865 143.543 595.556Z" fill="#FFEBD3" stroke="#294064" stroke-miterlimit="10" stroke-linejoin="round"/>
<path d="M148.899 596.23C150.578 582.877 162.767 573.415 176.124 575.094C189.48 576.774 198.946 588.96 197.267 602.313C195.588 615.666 183.398 625.128 170.042 623.448C156.685 621.768 147.219 609.582 148.899 596.23Z" fill="#FEB25C" stroke="#294064" stroke-miterlimit="10" stroke-linejoin="round"/>
<path d="M154.557 596.325C155.849 586.055 165.224 578.777 175.498 580.069C185.772 581.361 193.053 590.734 191.761 601.005C190.469 611.276 181.094 618.554 170.821 617.262C160.547 615.97 153.266 606.596 154.557 596.325Z" fill="#FFEBD3" stroke="#294064" stroke-miterlimit="10" stroke-linejoin="round"/>
<path d="M159.068 596.893C160.047 589.112 167.149 583.598 174.932 584.577C182.715 585.556 188.231 592.657 187.252 600.437C186.274 608.218 179.171 613.732 171.389 612.753C163.606 611.774 158.089 604.673 159.068 596.893Z" fill="#FEB25C" stroke="#294064" stroke-miterlimit="10" stroke-linejoin="round"/>
<path d="M163.626 597.466C164.288 592.202 169.094 588.47 174.36 589.133C179.626 589.795 183.359 594.6 182.697 599.865C182.035 605.13 177.228 608.86 171.963 608.198C166.696 607.536 162.964 602.731 163.626 597.466Z" fill="#FEB25C" stroke="#294064" stroke-miterlimit="10" stroke-linejoin="round"/>
<path d="M167.725 597.984C168.102 594.983 170.841 592.857 173.842 593.235C176.843 593.612 178.97 596.35 178.593 599.35C178.215 602.351 175.477 604.477 172.476 604.099C169.475 603.722 167.347 600.984 167.725 597.984Z" fill="#FEB25C" stroke="#294064" stroke-miterlimit="10" stroke-linejoin="round"/>
<path d="M268.356 581.039C249.019 578.607 231.375 592.304 228.944 611.636C226.513 630.967 240.215 648.606 259.552 651.038C263.74 651.565 267.819 651.224 271.71 650.344C272.307 649.21 272.884 648.093 273.563 646.848C273.714 646.572 274.568 645.045 274.671 644.857C277.144 639.914 279.327 635.708 283.633 627.57C284.253 626.399 285.723 623.61 286.097 622.901C290.184 615.157 292.879 609.938 295.439 604.62C295.736 604.003 296.175 603.524 296.55 602.976C291.922 591.485 281.522 582.695 268.356 581.039Z" fill="#FFEBD3" stroke="#294064" stroke-miterlimit="10" stroke-linejoin="round"/>
<path d="M267.667 586.511C251.352 584.459 236.468 596.014 234.417 612.324C232.365 628.633 243.925 643.514 260.239 645.566C265.614 646.242 270.777 645.339 275.435 643.377C277.667 638.941 279.694 635.012 283.632 627.57C284.252 626.398 285.722 623.609 286.096 622.9C289.079 617.249 290.929 613.542 292.917 609.56C290.246 597.662 280.465 588.121 267.667 586.511Z" fill="#FEB25C" stroke="#294064" stroke-miterlimit="10" stroke-linejoin="round"/>
<path d="M266.995 591.869C253.639 590.189 241.458 599.644 239.779 612.997C238.099 626.35 247.559 638.527 260.915 640.207C268.294 641.135 275.24 638.59 280.331 633.94C281.462 631.775 282.047 630.568 283.634 627.569C284.254 626.397 285.724 623.608 286.098 622.899C286.998 621.194 287.379 620.362 288.157 618.873C289.711 605.603 280.281 593.54 266.995 591.869Z" fill="#FFEBD3" stroke="#294064" stroke-miterlimit="10" stroke-linejoin="round"/>
<path d="M266.365 596.839C256.092 595.546 246.729 602.836 245.437 613.106C244.145 623.377 251.415 632.735 261.688 634.027C271.962 635.32 281.345 628.056 282.636 617.785C283.928 607.515 276.639 598.131 266.365 596.839Z" fill="#FEB25C" stroke="#294064" stroke-miterlimit="10" stroke-linejoin="round"/>
<path d="M265.798 601.356C258.016 600.378 250.91 605.894 249.931 613.674C248.953 621.455 254.472 628.56 262.254 629.539C270.037 630.518 277.143 625.001 278.122 617.22C279.1 609.44 273.582 602.335 265.798 601.356Z" fill="#FFEBD3" stroke="#294064" stroke-miterlimit="10" stroke-linejoin="round"/>
<path d="M254.501 614.241C255.164 608.976 259.969 605.245 265.236 605.908C270.502 606.57 274.234 611.375 273.572 616.64C272.91 621.904 268.104 625.635 262.838 624.973C257.571 624.311 253.839 619.506 254.501 614.241Z" fill="#FFEBD3" stroke="#294064" stroke-miterlimit="10" stroke-linejoin="round"/>
<path d="M258.602 614.756C258.979 611.755 261.718 609.629 264.719 610.006C267.72 610.384 269.847 613.122 269.47 616.123C269.092 619.122 266.353 621.249 263.353 620.871C260.352 620.494 258.224 617.755 258.602 614.756Z" fill="#FFEBD3" stroke="#294064" stroke-miterlimit="10" stroke-linejoin="round"/>
<path d="M196.572 593.469C199.004 574.138 216.65 560.438 235.987 562.87C255.324 565.302 269.028 582.945 266.597 602.276C264.166 621.607 246.519 635.306 227.182 632.874C207.846 630.442 194.141 612.8 196.572 593.469Z" fill="#FEB25C" stroke="#294064" stroke-miterlimit="10" stroke-linejoin="round"/>
<path d="M202.045 594.157C204.096 577.848 218.984 566.29 235.298 568.342C251.612 570.394 263.175 585.278 261.124 601.588C259.072 617.897 244.184 629.455 227.87 627.403C211.556 625.351 199.994 610.467 202.045 594.157Z" fill="#FFEBD3" stroke="#294064" stroke-miterlimit="10" stroke-linejoin="round"/>
<path d="M207.401 594.828C209.08 581.476 221.27 572.013 234.626 573.693C247.983 575.373 257.448 587.559 255.769 600.912C254.09 614.264 241.901 623.727 228.544 622.047C215.188 620.367 205.721 608.18 207.401 594.828Z" fill="#FEB25C" stroke="#294064" stroke-miterlimit="10" stroke-linejoin="round"/>
<path d="M213.059 594.928C214.351 584.657 223.726 577.379 234 578.671C244.274 579.963 251.555 589.336 250.263 599.607C248.971 609.878 239.596 617.156 229.322 615.864C219.049 614.572 211.767 605.198 213.059 594.928Z" fill="#FFEBD3" stroke="#294064" stroke-miterlimit="10" stroke-linejoin="round"/>
<path d="M217.566 595.495C218.545 587.714 225.648 582.2 233.43 583.179C241.213 584.158 246.728 591.259 245.75 599.04C244.771 606.82 237.669 612.334 229.886 611.355C222.104 610.377 216.588 603.275 217.566 595.495Z" fill="#FEB25C" stroke="#294064" stroke-miterlimit="10" stroke-linejoin="round"/>
<path d="M222.128 596.068C222.79 590.803 227.597 587.072 232.862 587.734C238.129 588.397 241.861 593.201 241.199 598.466C240.537 603.731 235.731 607.462 230.465 606.8C225.199 606.138 221.466 601.332 222.128 596.068Z" fill="#FFEBD3" stroke="#294064" stroke-miterlimit="10" stroke-linejoin="round"/>
<path d="M226.226 596.586C226.604 593.586 229.342 591.459 232.343 591.837C235.345 592.214 237.471 594.953 237.094 597.953C236.717 600.953 233.978 603.079 230.977 602.702C227.976 602.324 225.849 599.586 226.226 596.586Z" fill="#FEB25C" stroke="#294064" stroke-miterlimit="10" stroke-linejoin="round"/>
<path d="M176.828 494.994C176.559 493.957 177.162 492.893 178.19 492.589L338.583 445.143C339.634 444.833 340.739 445.431 341.053 446.48L342.738 452.113C343.061 453.193 342.422 454.326 341.33 454.607L179.251 496.42C178.189 496.695 177.104 496.056 176.828 494.994Z" fill="#D16331" stroke="#294064" stroke-miterlimit="10" stroke-linejoin="round"/>
<path d="M233.017 482.198L233.695 476.806L226.552 478.16L226.111 484.467" fill="#294064"/>
<path d="M233.017 482.198L233.695 476.806L226.552 478.16L226.111 484.467" stroke="#294064" stroke-miterlimit="10" stroke-linecap="round" stroke-linejoin="round"/>
<path d="M211.217 451.001C209.286 450.928 207.647 452.434 207.573 454.365C207.474 456.988 206.261 458.91 202.626 462.753C202.521 462.863 202.431 462.969 202.224 463.189C197.872 467.783 196.104 470.268 195.241 474.308C194.177 479.294 195.272 482.972 198.615 489.301C198.715 489.49 198.814 489.68 199.008 490.045C201.769 495.256 202.584 497.628 202.217 500.64C201.879 503.407 200.453 505.691 196.776 510.008C196.685 510.113 196.328 510.522 196.179 510.698C191.479 516.197 189.608 519.059 188.714 523.447C188.086 526.531 188.441 529.482 189.617 532.478C190.451 534.605 191.418 536.253 193.453 539.376C193.734 539.809 193.855 540.018 193.993 540.232C196.645 544.32 197.553 546.395 197.383 548.649C197.244 550.496 196.042 552.404 193.166 555.646C193.067 555.759 191.973 556.973 191.657 557.332C191.068 558.003 190.608 558.554 190.185 559.093C183.327 567.8 181.325 577.918 184.404 588.476C185.094 590.841 185.571 592.303 186.31 593.951C187.52 596.646 188.96 598.617 190.982 599.726C192.677 600.656 194.792 600.025 195.722 598.33C196.652 596.637 196.043 594.524 194.348 593.595C193.986 593.397 193.336 592.497 192.697 591.071C192.128 589.805 191.717 588.586 191.114 586.517C188.672 578.141 190.22 570.363 195.687 563.422C196.021 562.998 196.401 562.537 196.915 561.954C197.209 561.619 198.282 560.419 198.398 560.288C202.259 555.935 204.067 553.065 204.359 549.179C204.682 544.905 203.32 541.751 199.87 536.431C199.727 536.211 199.589 535.98 199.309 535.55C195.888 530.298 194.954 527.921 195.581 524.843C196.156 522.023 197.581 519.86 201.513 515.26C201.663 515.084 202.02 514.656 202.112 514.547C206.646 509.226 208.599 506.034 209.156 501.466C209.753 496.571 208.596 493.199 205.189 486.769C204.995 486.404 204.916 486.212 204.819 486.028C202.197 481.065 201.46 478.66 202.078 475.77C202.581 473.414 203.812 471.673 207.295 467.996C207.502 467.777 207.614 467.675 207.721 467.562C212.462 462.549 214.396 459.505 214.581 454.644C214.655 452.713 213.148 451.075 211.217 451.001Z" fill="#FFEBD3" stroke="#294064" stroke-miterlimit="10" stroke-linecap="round" stroke-linejoin="round"/>
<path d="M217.605 451.807C215.674 451.733 214.035 453.24 213.962 455.17C213.862 457.793 212.649 459.715 209.015 463.558C208.911 463.668 208.82 463.775 208.613 463.994C204.26 468.588 202.493 471.073 201.631 475.113C200.566 480.099 201.661 483.778 205.004 490.107C205.104 490.295 205.204 490.485 205.397 490.851C208.158 496.062 208.973 498.433 208.606 501.445C208.268 504.212 206.842 506.496 203.164 510.814C203.074 510.919 202.718 511.327 202.568 511.503C197.868 517.002 195.996 519.865 195.103 524.253C194.475 527.336 194.83 530.287 196.006 533.283C196.841 535.41 197.807 537.058 199.841 540.181C200.123 540.614 200.244 540.823 200.382 541.037C203.035 545.126 203.941 547.2 203.772 549.454C203.633 551.301 202.431 553.209 199.556 556.451C199.456 556.564 198.362 557.778 198.046 558.137C197.456 558.808 196.998 559.36 196.574 559.898C189.716 568.605 187.714 578.723 190.793 589.281C191.482 591.646 191.96 593.109 192.699 594.756C193.909 597.451 195.349 599.422 197.371 600.532C199.065 601.461 201.181 600.83 202.111 599.135C203.041 597.442 202.431 595.329 200.737 594.4C200.375 594.202 199.725 593.303 199.085 591.876C198.517 590.611 198.106 589.391 197.503 587.323C195.061 578.946 196.61 571.168 202.076 564.227C202.409 563.803 202.79 563.343 203.303 562.759C203.598 562.424 204.671 561.224 204.787 561.093C208.648 556.74 210.456 553.87 210.749 549.984C211.071 545.71 209.709 542.556 206.259 537.236C206.116 537.016 205.979 536.786 205.698 536.355C202.277 531.103 201.344 528.726 201.97 525.649C202.544 522.828 203.97 520.665 207.902 516.065C208.052 515.889 208.409 515.461 208.501 515.352C213.035 510.031 214.988 506.839 215.545 502.271C216.141 497.376 214.985 494.004 211.578 487.575C211.384 487.209 211.305 487.018 211.208 486.833C208.586 481.87 207.849 479.466 208.466 476.575C208.969 474.22 210.201 472.478 213.684 468.801C213.891 468.582 214.003 468.481 214.109 468.367C218.851 463.354 220.785 460.311 220.97 455.45C221.044 453.518 219.537 451.881 217.605 451.807Z" fill="#FEB25C" stroke="#294064" stroke-miterlimit="10" stroke-linecap="round" stroke-linejoin="round"/>
<path d="M224.469 452.668C222.538 452.594 220.899 454.101 220.826 456.032C220.726 458.655 219.513 460.577 215.878 464.42C215.774 464.53 215.683 464.636 215.476 464.855C211.124 469.45 209.356 471.935 208.494 475.975C207.429 480.961 208.524 484.639 211.868 490.968C211.967 491.156 212.067 491.347 212.26 491.712C215.021 496.923 215.836 499.295 215.469 502.307C215.131 505.074 213.705 507.358 210.028 511.675C209.938 511.78 209.581 512.189 209.431 512.364C204.731 517.863 202.859 520.726 201.966 525.114C201.338 528.198 201.693 531.149 202.869 534.145C203.704 536.272 204.67 537.919 206.705 541.043C206.986 541.476 207.107 541.685 207.246 541.899C209.898 545.987 210.805 548.062 210.635 550.316C210.496 552.162 209.294 554.071 206.419 557.313C206.319 557.426 205.225 558.64 204.91 558.999C204.32 559.67 203.861 560.221 203.437 560.759C196.579 569.467 194.577 579.584 197.656 590.143C198.346 592.508 198.823 593.97 199.563 595.617C200.772 598.312 202.212 600.283 204.234 601.393C205.929 602.322 208.044 601.692 208.974 599.997C209.904 598.303 209.295 596.191 207.6 595.262C207.238 595.063 206.588 594.164 205.949 592.738C205.38 591.472 204.97 590.252 204.367 588.184C201.924 579.808 203.473 572.03 208.94 565.088C209.272 564.665 209.653 564.204 210.167 563.621C210.461 563.286 211.534 562.085 211.651 561.955C215.511 557.602 217.319 554.732 217.612 550.846C217.934 546.572 216.572 543.417 213.122 538.097C212.979 537.878 212.842 537.647 212.561 537.217C209.14 531.964 208.207 529.588 208.833 526.51C209.408 523.69 210.833 521.527 214.765 516.926C214.915 516.751 215.273 516.322 215.365 516.214C219.898 510.893 221.851 507.701 222.408 503.133C223.005 498.238 221.848 494.866 218.441 488.436C218.247 488.071 218.168 487.879 218.071 487.695C215.449 482.732 214.712 480.327 215.33 477.437C215.833 475.081 217.064 473.339 220.547 469.662C220.754 469.444 220.866 469.342 220.973 469.229C225.714 464.215 227.648 461.172 227.834 456.311C227.908 454.38 226.4 452.742 224.469 452.668Z" fill="#FFEBD3" stroke="#294064" stroke-miterlimit="10" stroke-linecap="round" stroke-linejoin="round"/>
<path d="M230.947 453.485C229.015 453.411 227.377 454.918 227.303 456.848C227.203 459.471 225.99 461.393 222.356 465.236C222.252 465.346 222.161 465.453 221.953 465.672C217.602 470.266 215.834 472.751 214.972 476.791C213.907 481.777 215.002 485.456 218.345 491.785C218.445 491.973 218.544 492.163 218.738 492.529C221.499 497.739 222.313 500.111 221.946 503.123C221.61 505.89 220.184 508.174 216.505 512.492C216.416 512.597 216.059 513.005 215.909 513.181C211.209 518.68 209.337 521.543 208.443 525.931C207.815 529.014 208.171 531.965 209.346 534.961C210.181 537.088 211.148 538.736 213.182 541.859C213.464 542.292 213.585 542.501 213.723 542.715C216.376 546.804 217.283 548.878 217.113 551.132C216.974 552.979 215.772 554.887 212.897 558.129C212.797 558.242 211.703 559.456 211.387 559.815C210.797 560.486 210.339 561.038 209.915 561.576C203.058 570.283 201.056 580.401 204.134 590.959C204.823 593.324 205.301 594.787 206.04 596.434C207.251 599.129 208.69 601.1 210.712 602.21C212.407 603.139 214.522 602.508 215.452 600.814C216.381 599.12 215.773 597.007 214.078 596.078C213.717 595.88 213.067 594.981 212.426 593.554C211.858 592.289 211.447 591.069 210.844 589.001C208.402 580.624 209.951 572.846 215.417 565.905C215.75 565.481 216.131 565.021 216.644 564.437C216.939 564.102 218.013 562.902 218.128 562.771C221.989 558.418 223.797 555.548 224.09 551.662C224.411 547.388 223.05 544.234 219.599 538.914C219.457 538.694 219.319 538.464 219.039 538.033C215.618 532.781 214.684 530.404 215.311 527.327C215.886 524.506 217.312 522.343 221.243 517.743C221.392 517.567 221.75 517.139 221.842 517.03C226.376 511.709 228.329 508.517 228.886 503.949C229.482 499.054 228.326 495.682 224.919 489.253C224.725 488.887 224.646 488.696 224.549 488.511C221.927 483.548 221.191 481.144 221.808 478.254C222.311 475.898 223.542 474.156 227.026 470.479C227.233 470.26 227.344 470.159 227.451 470.045C232.192 465.032 234.126 461.989 234.311 457.128C234.385 455.196 232.878 453.559 230.947 453.485Z" fill="#FEB25C" stroke="#294064" stroke-miterlimit="10" stroke-linecap="round" stroke-linejoin="round"/>
<path d="M237.759 454.343C235.827 454.269 234.189 455.775 234.115 457.706C234.015 460.329 232.802 462.251 229.168 466.094C229.064 466.204 228.973 466.31 228.766 466.53C224.413 471.124 222.646 473.609 221.784 477.649C220.719 482.635 221.814 486.314 225.157 492.643C225.257 492.831 225.357 493.021 225.55 493.387C228.311 498.597 229.126 500.969 228.759 503.981C228.421 506.748 226.995 509.032 223.317 513.349C223.228 513.455 222.871 513.863 222.721 514.039C218.021 519.538 216.149 522.4 215.256 526.789C214.628 529.872 214.983 532.823 216.159 535.819C216.994 537.946 217.96 539.594 219.994 542.717C220.276 543.15 220.397 543.359 220.535 543.573C223.188 547.662 224.094 549.736 223.925 551.99C223.786 553.837 222.584 555.745 219.709 558.987C219.609 559.1 218.515 560.314 218.199 560.673C217.609 561.344 217.151 561.896 216.726 562.434C209.869 571.141 207.867 581.259 210.946 591.817C211.635 594.182 212.113 595.644 212.852 597.292C214.062 599.987 215.502 601.958 217.524 603.067C219.218 603.997 221.334 603.366 222.264 601.671C223.193 599.978 222.584 597.865 220.89 596.936C220.528 596.738 219.878 595.838 219.238 594.412C218.67 593.146 218.259 591.927 217.657 589.859C215.214 581.482 216.763 573.704 222.229 566.763C222.562 566.339 222.943 565.879 223.456 565.295C223.751 564.96 224.824 563.76 224.94 563.629C228.801 559.276 230.609 556.406 230.902 552.52C231.223 548.246 229.862 545.092 226.412 539.772C226.269 539.552 226.132 539.322 225.851 538.891C222.43 533.639 221.497 531.262 222.123 528.184C222.697 525.364 224.123 523.201 228.055 518.601C228.205 518.425 228.562 517.997 228.655 517.888C233.188 512.567 235.141 509.375 235.698 504.807C236.294 499.912 235.138 496.54 231.731 490.11C231.537 489.745 231.458 489.554 231.361 489.369C228.739 484.406 228.002 482.001 228.62 479.111C229.122 476.755 230.354 475.014 233.837 471.337C234.044 471.118 234.156 471.017 234.262 470.903C239.004 465.89 240.938 462.846 241.123 457.985C241.197 456.054 239.69 454.417 237.759 454.343Z" fill="#FFEBD3" stroke="#294064" stroke-miterlimit="10" stroke-linecap="round" stroke-linejoin="round"/>
<path d="M202.102 500.724L235.235 499.541C235.235 499.541 233.338 493.71 232.373 493.65C223.333 493.096 202.608 498.186 202.608 498.186" fill="#294064"/>
<path d="M202.102 500.724L235.235 499.541C235.235 499.541 233.338 493.71 232.373 493.65C223.333 493.096 202.608 498.186 202.608 498.186" stroke="#294064" stroke-miterlimit="10" stroke-linecap="round" stroke-linejoin="round"/>
<path d="M178.159 500.098C178.022 499.035 178.753 498.055 179.81 497.882L344.889 470.906C345.971 470.729 346.991 471.461 347.171 472.542L348.137 478.341C348.322 479.454 347.546 480.497 346.427 480.64L180.383 501.816C179.294 501.955 178.299 501.186 178.159 500.098Z" fill="#E9743F" stroke="#294064" stroke-miterlimit="10" stroke-linejoin="round"/>
<path d="M169.589 618.608C172.02 599.276 189.667 585.577 209.003 588.009C228.34 590.441 242.044 608.083 239.613 627.415C237.181 646.746 219.535 660.446 200.198 658.014C180.862 655.582 167.157 637.939 169.589 618.608Z" fill="#FEB25C" stroke="#294064" stroke-miterlimit="10" stroke-linejoin="round"/>
<path d="M175.061 619.296C177.113 602.986 192 591.429 208.315 593.481C224.629 595.532 236.191 610.417 234.139 626.726C232.088 643.036 217.2 654.594 200.886 652.542C184.572 650.49 173.01 635.605 175.061 619.296Z" fill="#FFEBD3" stroke="#294064" stroke-miterlimit="10" stroke-linejoin="round"/>
<path d="M180.417 619.971C182.097 606.617 194.286 597.155 207.642 598.835C220.998 600.515 230.465 612.701 228.785 626.054C227.106 639.406 214.917 648.869 201.561 647.189C188.204 645.51 178.738 633.323 180.417 619.971Z" fill="#FEB25C" stroke="#294064" stroke-miterlimit="10" stroke-linejoin="round"/>
<path d="M186.076 620.066C187.368 609.796 196.744 602.517 207.017 603.809C217.29 605.101 224.572 614.475 223.28 624.745C221.988 635.016 212.612 642.295 202.339 641.003C192.066 639.71 184.784 630.337 186.076 620.066Z" fill="#FFEBD3" stroke="#294064" stroke-miterlimit="10" stroke-linejoin="round"/>
<path d="M190.583 620.633C191.561 612.853 198.663 607.339 206.446 608.318C214.229 609.297 219.745 616.398 218.766 624.178C217.788 631.959 210.686 637.473 202.902 636.494C195.119 635.515 189.604 628.414 190.583 620.633Z" fill="#FEB25C" stroke="#294064" stroke-miterlimit="10" stroke-linejoin="round"/>
<path d="M195.145 621.207C195.807 615.942 200.612 612.211 205.879 612.873C211.145 613.536 214.877 618.341 214.215 623.605C213.553 628.87 208.748 632.601 203.481 631.939C198.214 631.276 194.482 626.472 195.145 621.207Z" fill="#FFEBD3" stroke="#294064" stroke-miterlimit="10" stroke-linejoin="round"/>
<path d="M199.243 621.724C199.62 618.725 202.359 616.598 205.36 616.975C208.361 617.353 210.488 620.091 210.11 623.091C209.733 626.091 206.995 628.218 203.993 627.84C200.992 627.463 198.866 624.724 199.243 621.724Z" fill="#FEB25C" stroke="#294064" stroke-miterlimit="10" stroke-linejoin="round"/>
<path d="M235.563 620.838C232.054 620.711 230.342 615.815 231.272 612.169C232.892 605.814 238.335 605.195 237.744 603.898C236.1 600.292 232.734 598.496 233.326 593.811C233.917 589.125 239.325 587.464 240.11 585.154C241.186 581.989 239.88 579.451 242.232 576.541C244.059 574.281 248.313 574.556 249.7 572.999C251.3 571.201 247.724 567.141 252.852 563.416C256.671 560.642 260.659 564.489 262.109 563.12C264.81 560.57 269.238 554.778 275.946 558.938C283.318 563.51 277.687 568.754 278.041 571.196C278.453 574.035 283.257 575.684 282.605 580.03C281.93 584.52 277.506 585.271 276.989 586.969C276.437 588.783 279.923 590.942 278.139 594.999C276.699 598.276 273.397 598.051 272.226 600.432C270.209 604.53 275.589 609.89 266.241 620.498C263.405 623.717 242.316 636.359 239.112 632.915" fill="#418A45"/>
<path d="M235.563 620.838C232.054 620.711 230.342 615.815 231.272 612.169C232.892 605.814 238.335 605.195 237.744 603.898C236.1 600.292 232.734 598.496 233.326 593.811C233.917 589.125 239.325 587.464 240.11 585.154C241.186 581.989 239.88 579.451 242.232 576.541C244.059 574.281 248.313 574.556 249.7 572.999C251.3 571.201 247.724 567.141 252.852 563.416C256.671 560.642 260.659 564.489 262.109 563.12C264.81 560.57 269.238 554.778 275.946 558.938C283.318 563.51 277.687 568.754 278.041 571.196C278.453 574.035 283.257 575.684 282.605 580.03C281.93 584.52 277.506 585.271 276.989 586.969C276.437 588.783 279.923 590.942 278.139 594.999C276.699 598.276 273.397 598.051 272.226 600.432C270.209 604.53 275.589 609.89 266.241 620.498C263.405 623.717 242.316 636.359 239.112 632.915" stroke="#294064" stroke-miterlimit="10" stroke-linecap="round" stroke-linejoin="round"/>
<path d="M238.617 631.562L264.253 579.207L242.204 640.179" fill="#65C88C"/>
<path d="M238.617 631.562L264.253 579.207L242.204 640.179" stroke="#294064" stroke-miterlimit="10" stroke-linecap="round" stroke-linejoin="round"/>
<path d="M260.08 590.738L278.132 590.554" stroke="#294064" stroke-miterlimit="10" stroke-linejoin="round"/>
<path d="M257.981 596.795L277.732 595.978" stroke="#294064" stroke-miterlimit="10" stroke-linejoin="round"/>
<path d="M252.524 602.897L240.04 585.238" stroke="#294064" stroke-miterlimit="10" stroke-linejoin="round"/>
<path d="M248.614 610.895L234.479 590.816" stroke="#294064" stroke-miterlimit="10" stroke-linejoin="round"/>
<path d="M249.994 572.555L259.736 588.348" stroke="#294064" stroke-miterlimit="10" stroke-linejoin="round"/>
<path d="M137.927 593.697C143.525 605.024 149.916 612.737 162.93 613.5C171.987 614.031 185.086 603.153 181.587 593.22" fill="#294064"/>
<path d="M137.927 593.697C143.525 605.024 149.916 612.737 162.93 613.5C171.987 614.031 185.086 603.153 181.587 593.22" stroke="#294064" stroke-miterlimit="10" stroke-linecap="round" stroke-linejoin="round"/>
<path d="M135.669 580.377C136.214 576.043 137.764 572.082 140.055 568.696L187.394 593.368C183.07 604.638 171.484 611.945 158.967 610.37C144.249 608.519 133.818 595.09 135.669 580.377Z" fill="#BDCF01" stroke="#294064" stroke-miterlimit="10" stroke-linejoin="round"/>
<path d="M139.031 580.694C139.502 576.952 140.839 573.532 142.817 570.608L183.691 591.91C179.957 601.642 169.954 607.949 159.147 606.59C146.439 604.992 137.433 593.397 139.031 580.694Z" fill="#FFE29F" stroke="#294064" stroke-miterlimit="10" stroke-linejoin="round"/>
<path d="M141.107 580.591C141.541 577.144 142.773 573.994 144.595 571.301L182.245 590.923C178.806 599.887 169.592 605.697 159.637 604.445C147.932 602.973 139.635 592.293 141.107 580.591Z" fill="#999800" stroke="#294064" stroke-miterlimit="10" stroke-linejoin="round"/>
<path d="M151.057 596.668C151.119 598.964 156.954 601.64 158.498 600.57C160.664 599.069 163.126 583.398 162.356 583.025C161.305 582.517 151.011 594.948 151.057 596.668Z" fill="#BDCF01" stroke="#294064" stroke-miterlimit="10" stroke-linecap="round" stroke-linejoin="round"/>
<path d="M147.374 594.647C150.292 593.233 161.154 583.047 160.627 582.111C160.077 581.134 144.73 584.162 143.021 585.351C141.245 586.587 146.061 595.283 147.374 594.647Z" fill="#BDCF01" stroke="#294064" stroke-miterlimit="10" stroke-linecap="round" stroke-linejoin="round"/>
<path d="M144.827 573.486C143.326 573.8 141.173 580.733 142.678 581.464C144.489 582.345 159.381 581.958 159.544 580.72C159.752 579.149 146.228 573.192 144.827 573.486Z" fill="#BDCF01" stroke="#294064" stroke-miterlimit="10" stroke-linecap="round" stroke-linejoin="round"/>
<path d="M164.119 584.656C162.734 584.32 162.174 599.784 163.703 601.733C165.76 604.356 171.342 601.229 172.288 598.867C173.289 596.365 165.42 584.972 164.119 584.656Z" fill="#BDCF01" stroke="#294064" stroke-miterlimit="10" stroke-linecap="round" stroke-linejoin="round"/>
<path d="M166.188 584.12C165.731 585.023 172.96 595.994 175.126 597.645C176.637 598.798 181.051 592.533 180.244 591.795C178.418 590.124 166.707 583.098 166.188 584.12Z" fill="#BDCF01" stroke="#294064" stroke-miterlimit="10" stroke-linecap="round" stroke-linejoin="round"/>
<path d="M356.831 499.551C366.472 510.914 359.463 526.356 351.111 527.239C341.858 528.217 345.864 518.16 343.494 517.92C342.291 517.799 336.522 527.463 331.388 527.438C327.384 527.418 324.389 523.599 325.977 519.683C327.97 514.772 336.546 512.299 338.418 509.778C339.514 508.301 328.614 512.184 327.664 502.543C326.823 494.018 346.894 487.84 356.831 499.551Z" fill="#F5EFEA" stroke="#294064" stroke-miterlimit="10" stroke-linecap="round" stroke-linejoin="round"/>
<path d="M329.244 522.168C330.254 520.822 333.643 519.409 335.895 517.613C337.399 516.412 337.91 515.852 340.091 513.645C341.864 511.851 344.182 507.835 345.613 508.372C347.639 509.132 343.401 512.743 342.676 513.385C339.474 516.225 335.937 518.593 333.03 521.764C332.512 522.329 331.515 523.379 330.548 523.991C329.262 524.804 327.928 523.923 329.244 522.168Z" fill="#B8B8B8" stroke="#294064" stroke-miterlimit="10" stroke-linecap="round" stroke-linejoin="round"/>
<path d="M115.95 500.956C130.258 496.786 141.508 509.479 138.911 517.464C136.034 526.309 128.48 518.552 127.295 520.619C126.694 521.668 133.171 530.874 131.056 535.551C129.407 539.197 124.697 540.375 121.768 537.329C118.093 533.508 119.33 524.67 117.789 521.934C116.886 520.332 115.992 531.865 106.799 528.803C98.6684 526.096 101.203 505.254 115.95 500.956Z" fill="#F5EFEA" stroke="#294064" stroke-miterlimit="10" stroke-linecap="round" stroke-linejoin="round"/>
<path d="M125.37 535.359C124.552 533.889 124.642 530.219 123.919 527.43C123.436 525.568 123.132 524.873 122.004 521.982C121.088 519.633 118.364 515.88 119.438 514.792C120.958 513.252 122.529 518.594 122.82 519.516C124.11 523.598 124.832 527.791 126.544 531.739C126.849 532.441 127.402 533.78 127.566 534.912C127.785 536.418 126.436 537.276 125.37 535.359Z" fill="#B8B8B8" stroke="#294064" stroke-miterlimit="10" stroke-linecap="round" stroke-linejoin="round"/>
<path d="M316.168 551.205C310.251 550.46 304.845 554.657 304.101 560.572C303.357 566.488 307.558 571.871 313.476 572.615C319.392 573.359 324.796 569.185 325.54 563.269C326.284 557.354 322.085 551.949 316.168 551.205ZM315.876 553.53C320.502 554.112 323.772 558.348 323.19 562.973C322.609 567.599 318.395 570.871 313.768 570.289C309.141 569.707 305.868 565.494 306.45 560.868C307.032 556.243 311.249 552.948 315.876 553.53Z" fill="#294064" stroke="#294064" stroke-miterlimit="10" stroke-linejoin="round"/>
<path d="M87.6154 563.861C81.6982 563.117 76.292 567.314 75.5481 573.229C74.804 579.145 79.0053 584.527 84.9226 585.272C90.8399 586.016 96.2431 581.842 96.9872 575.926C97.7312 570.011 93.5327 564.606 87.6154 563.861ZM87.323 566.187C91.9497 566.769 95.2198 571.005 94.6381 575.63C94.0562 580.256 89.8418 583.528 85.2151 582.946C80.5884 582.364 77.3154 578.151 77.8973 573.525C78.479 568.9 82.6962 565.605 87.323 566.187Z" fill="#294064" stroke="#294064" stroke-miterlimit="10" stroke-linejoin="round"/>
<path d="M179.415 443.205C173.498 442.46 168.092 446.657 167.348 452.573C166.604 458.488 170.806 463.871 176.722 464.615C182.64 465.359 188.043 461.185 188.787 455.269C189.531 449.354 185.333 443.949 179.415 443.205ZM179.123 445.53C183.75 446.112 187.02 450.348 186.438 454.974C185.856 459.599 181.642 462.871 177.015 462.289C172.388 461.707 169.116 457.494 169.698 452.868C170.279 448.243 174.496 444.948 179.123 445.53Z" fill="#BDCF01" stroke="#294064" stroke-miterlimit="10" stroke-linejoin="round"/>
<path d="M279.717 645.093C273.8 644.348 268.394 648.545 267.65 654.461C266.906 660.376 271.107 665.759 277.024 666.503C282.941 667.247 288.345 663.073 289.089 657.157C289.833 651.242 285.634 645.837 279.717 645.093ZM279.424 647.418C284.052 648 287.321 652.236 286.74 656.862C286.158 661.487 281.944 664.759 277.316 664.177C272.69 663.595 269.417 659.382 269.998 654.756C270.58 650.131 274.798 646.837 279.424 647.418Z" fill="#BDCF01" stroke="#294064" stroke-miterlimit="10" stroke-linejoin="round"/>
<path d="M142.084 453.504C141.696 461.726 148.918 465.078 145.841 473.415C143.211 480.544 132.117 484.862 125.865 479.377C123.562 477.357 122.333 472.25 118.461 472.403C114.118 472.576 110.881 472.856 108.029 468.898C106.077 466.189 107.393 463.801 105.599 462.201C103.207 460.071 99.1344 459.335 98.0084 456.057C97.1623 453.594 99.1723 451.898 98.0781 449.543C96.3563 445.837 92.8347 446.868 92.4015 440.873C92.2092 438.211 95.6938 434.827 95.7572 432.371C95.8597 428.397 91.3351 423.761 94.7717 419.285C99.4434 413.2 104.54 418.743 109.442 420.664C112.685 421.935 114.843 418.072 118.523 419.395C121.7 420.537 122.549 426.924 125.395 429.122C127.97 431.109 130.943 428.922 133.004 432.507C134.343 434.836 132.587 437.501 134.266 439.646C137.35 443.585 145.002 441.87 143.342 449.259C143.054 450.541 142.144 452.22 142.084 453.504Z" fill="#418A45" stroke="#294064" stroke-miterlimit="10" stroke-linecap="round" stroke-linejoin="round"/>
<path d="M110.394 436.485L144.377 488.893C145.079 489.976 146.483 490.357 147.637 489.779L149.996 488.595C151.456 487.863 151.85 485.96 150.801 484.708L110.394 436.485Z" fill="#65C88C" stroke="#294064" stroke-miterlimit="10" stroke-linecap="round" stroke-linejoin="round"/>
<path d="M121.376 449.56L130.578 430.242" stroke="#294064" stroke-miterlimit="10" stroke-linejoin="round"/>
<path d="M123.775 452.426L133.259 432.62" stroke="#294064" stroke-miterlimit="10" stroke-linejoin="round"/>
<path d="M134.18 465.053L143.444 445.948" stroke="#294064" stroke-miterlimit="10" stroke-linejoin="round"/>
<path d="M113.994 442.204L93.0378 443.582" stroke="#294064" stroke-miterlimit="10" stroke-linejoin="round"/>
<path d="M119.852 451.143L98.3271 453.059" stroke="#294064" stroke-miterlimit="10" stroke-linejoin="round"/>
<path d="M128.657 464.994L107.898 468.56" stroke="#294064" stroke-miterlimit="10" stroke-linejoin="round"/>
<path d="M110.754 436.919L96.152 417.839" stroke="#294064" stroke-miterlimit="10" stroke-linejoin="round"/>
<path d="M297.261 595.387C297.186 598.627 296.945 601.894 296.532 605.179C289.969 657.358 242.322 694.46 190.143 687.772C140.706 681.436 109.238 643.521 106.893 598.332C106.893 598.332 139.579 619.798 205.658 619.182C266.911 618.611 297.261 595.387 297.261 595.387Z" fill="#8086B8" stroke="#294064" stroke-miterlimit="10" stroke-linejoin="round"/>
<path d="M292.894 609.766C292.894 609.766 287.235 632.981 279.474 642.978" stroke="#294064" stroke-miterlimit="10" stroke-linecap="round" stroke-linejoin="round"/>
<path d="M276.905 646.55C273.701 650.63 267.331 657.891 263.534 661.434" stroke="#294064" stroke-miterlimit="10" stroke-linecap="round" stroke-linejoin="round"/>
<path d="M136.548 470.025L144.899 480.314" stroke="#294064" stroke-miterlimit="10" stroke-linecap="round" stroke-linejoin="round"/>
<path d="M146.2 482.111L149.596 486.368" stroke="#294064" stroke-miterlimit="10" stroke-linecap="round" stroke-linejoin="round"/>
<path d="M111.675 505.173C107.211 508.639 105.338 513.554 104.655 518.981" stroke="#294064" stroke-miterlimit="10" stroke-linecap="round" stroke-linejoin="round"/>
<path d="M104.87 521.888C105.086 522.501 105.087 523.144 105.306 523.768" stroke="#294064" stroke-miterlimit="10" stroke-linecap="round" stroke-linejoin="round"/>
<path d="M353.054 498.63C356.221 501.76 358.326 506.056 358.692 510.471" stroke="#294064" stroke-miterlimit="10" stroke-linecap="round" stroke-linejoin="round"/>
<path d="M358.68 512.825C358.974 514.113 358.416 516.315 357.834 517.367" stroke="#294064" stroke-miterlimit="10" stroke-linecap="round" stroke-linejoin="round"/>
<path d="M345.971 480.553C345.126 479.156 344.518 475.112 345.004 473.523" stroke="#294064" stroke-miterlimit="10" stroke-linecap="round" stroke-linejoin="round"/>
<path d="M340.566 454.744C339.39 453.44 338.468 449.221 338.559 447.486" stroke="#294064" stroke-miterlimit="10" stroke-linecap="round" stroke-linejoin="round"/>
<path d="M335.388 479.851L305.651 483.588" stroke="#294064" stroke-miterlimit="10" stroke-linecap="round" stroke-linejoin="round"/>
<path d="M302.142 484.042L288.186 485.82" stroke="#294064" stroke-miterlimit="10" stroke-linecap="round" stroke-linejoin="round"/>
<path d="M99.44 611.937L105.425 636.194L79.3831 645.343L105.068 651.387L108.525 679.896L119.917 655.312L151.527 656.292L131.326 644.755L144.527 622.521L122.273 631.997L99.44 611.937Z" fill="#E9743F"/>
<path d="M121.032 634.711L93.443 613.474L103.308 641.386L83.1209 652.103L107.794 655.598L113.99 679.452L124.633 655.191" stroke="#294064" stroke-miterlimit="10" stroke-linecap="round" stroke-linejoin="round"/>
<path d="M307.41 589.86L336.628 621.592L332.102 577.483L385.523 581.196L332.315 549.018" stroke="#294064" stroke-miterlimit="10" stroke-linecap="round" stroke-linejoin="round"/>
</g>
<defs>
<clipPath id="clip0_1130_1389">
<path d="M0 0H414V841C414 852.046 405.046 861 394 861H20C8.95432 861 0 852.046 0 841V0Z" fill="white"/>
</clipPath>
</defs>
</svg>
