<svg width="414" height="861" viewBox="0 0 414 861" fill="none" xmlns="http://www.w3.org/2000/svg">
<g clip-path="url(#clip0_1091_2903)">
<path d="M0 0H414V841C414 852.046 405.046 861 394 861H20C8.95432 861 0 852.046 0 841V0Z" fill="#EFA5C6"/>
<path d="M491.751 379.133C315.539 328.991 276.21 480.901 238.178 525.26C179.646 593.529 77.8769 594.918 44.293 508.07C28.1842 466.414 49.2776 446.312 63.5715 451.394C75.2086 455.531 86.7476 473.154 81.9098 503.831C75.3343 545.532 12.6786 622.155 -70.2398 584.037" stroke="#044C75" stroke-miterlimit="10" stroke-linecap="round" stroke-linejoin="round" stroke-dasharray="10 10"/>
<path d="M467.535 630.662C392.371 630.819 388.533 632.626 313.37 632.783C306.708 667.114 340.324 679.351 333.663 713.681C398.196 714.812 389.582 726.126 526.607 721.982" fill="#FFD6BF"/>
<path d="M467.535 630.662C392.371 630.819 388.533 632.626 313.37 632.783C306.708 667.114 340.324 679.351 333.663 713.681C398.196 714.812 389.582 726.126 526.607 721.982" stroke="#294064" stroke-miterlimit="10" stroke-linecap="round" stroke-linejoin="round"/>
<path d="M370.319 568.994C370.319 568.994 356.163 500.325 321.049 535.126C303.17 552.844 275.042 643.519 286.78 692.689C297.478 737.503 353.738 724.213 366.206 715.474" fill="#FFD6BF"/>
<path d="M370.319 568.994C370.319 568.994 356.163 500.325 321.049 535.126C303.17 552.844 275.042 643.519 286.78 692.689C297.478 737.503 353.738 724.213 366.206 715.474" stroke="#294064" stroke-miterlimit="10" stroke-linecap="round" stroke-linejoin="round"/>
<path d="M364.345 521.271C359.189 504.573 343.834 512.036 335.222 528.695C316.121 565.645 306.371 620.268 306.371 620.268" fill="#FFD6BF"/>
<path d="M364.345 521.271C359.189 504.573 343.834 512.036 335.222 528.695C316.121 565.645 306.371 620.268 306.371 620.268" stroke="#294064" stroke-miterlimit="10" stroke-linecap="round" stroke-linejoin="round"/>
<path d="M385.598 528.065C382.66 498.728 363.914 503.361 353.796 521.698C339.263 548.038 329.472 582.932 323.826 617.355" fill="#FFD6BF"/>
<path d="M385.598 528.065C382.66 498.728 363.914 503.361 353.796 521.698C339.263 548.038 329.472 582.932 323.826 617.355" stroke="#294064" stroke-miterlimit="10" stroke-linecap="round" stroke-linejoin="round"/>
<path d="M369.928 637.643C374.044 618.78 420.785 502.438 386.26 508.222C369.397 511.047 344.385 616.153 345.024 614.556" fill="#FFD6BF"/>
<path d="M369.928 637.643C374.044 618.78 420.785 502.438 386.26 508.222C369.397 511.047 344.385 616.153 345.024 614.556" stroke="#294064" stroke-miterlimit="10" stroke-linecap="round" stroke-linejoin="round"/>
<path d="M384.619 645.222C386.21 606.005 413.627 555.779 385.397 567.133C368.483 573.936 367.225 592.419 357.29 619.652C352.712 632.2 334.988 629.147 323.78 657.319" fill="#FFD6BF"/>
<path d="M384.619 645.222C386.21 606.005 413.627 555.779 385.397 567.133C368.483 573.936 367.225 592.419 357.29 619.652C352.712 632.199 334.988 629.147 323.78 657.319" stroke="#294064" stroke-miterlimit="10" stroke-linecap="round" stroke-linejoin="round"/>
<g style="mix-blend-mode:multiply">
<path d="M250.658 718.544C251.071 708.685 218.334 699.305 177.539 697.595C136.743 695.885 103.337 702.492 102.923 712.352C102.51 722.211 135.246 731.59 176.042 733.3C216.838 735.01 250.245 728.404 250.658 718.544Z" fill="#B3A9EC" fill-opacity="0.5"/>
</g>
<path d="M253.074 701.043C253.074 701.043 251.907 716.438 248.84 718.559C245.554 720.833 228.052 727.753 207.563 727.462C187.074 727.172 170.583 722.309 166.884 717.394C164.002 713.565 165.346 693.531 165.346 693.531" fill="#858C3C"/>
<path d="M253.074 701.043C253.074 701.043 251.907 716.438 248.84 718.559C245.554 720.833 228.052 727.753 207.563 727.462C187.074 727.172 170.583 722.309 166.884 717.394C164.002 713.565 165.346 693.531 165.346 693.531" stroke="#294064" stroke-miterlimit="10" stroke-linecap="round" stroke-linejoin="round"/>
<path d="M86.0574 587.487C82.5879 592.198 84.8325 603.348 86.2546 611.948C97.4205 679.468 161.209 725.153 228.73 713.987C292.644 703.418 337.064 648.434 332.151 585.031C332.151 585.031 332.368 555.234 206.209 560.475C98.6656 564.943 86.0574 587.487 86.0574 587.487Z" fill="#858C3C" stroke="#294064" stroke-miterlimit="10" stroke-linejoin="round"/>
<path d="M282.127 578.871C301.42 575.681 319.797 585.1 329.135 601.014C328.906 601.727 328.641 602.536 328.572 602.745C327.53 605.896 327.03 607.468 326.489 609.577C326.271 610.425 325.498 613.403 325.343 614.009C325.116 614.894 324.989 615.123 324.78 615.922C324.405 616.845 323.927 617.851 323.641 618.746C322.767 621.482 320.301 629.631 319.291 632.954C317 638.575 314.211 644.196 308.241 654.849C308.073 655.148 308.084 655.148 307.916 655.447C304.902 660.825 303.041 664.468 301.021 668.38C299.705 668.719 298.473 669.225 297.107 669.451C272.091 673.588 248.464 656.666 244.327 631.651C240.19 606.636 257.112 583.008 282.127 578.871Z" fill="#FFF4E8" stroke="#294064" stroke-miterlimit="10" stroke-linejoin="round"/>
<path d="M283.298 585.953C302.107 582.843 319.901 593.886 326.039 611.258C325.747 612.385 325.439 613.635 325.342 614.01C325.115 614.895 324.988 615.124 324.779 615.922C324.404 616.846 323.926 617.852 323.64 618.747C322.766 621.483 320.301 629.632 319.291 632.955C316.999 638.576 314.211 644.197 308.24 654.849C308.072 655.149 308.083 655.149 307.915 655.448C307.064 656.968 306.735 657.728 305.974 659.104C302.83 660.577 299.528 661.776 295.935 662.371C274.83 665.861 254.898 651.585 251.408 630.481C247.917 609.376 262.193 589.443 283.298 585.953Z" fill="#FFD6BF" stroke="#294064" stroke-miterlimit="10" stroke-linejoin="round"/>
<path d="M284.446 592.887C301.724 590.031 318.035 601.712 320.893 618.991C321.348 621.747 321.332 624.456 321.084 627.113C320.388 629.4 319.707 631.589 319.292 632.956C317.935 636.284 316.137 639.998 313.874 644.37C309.174 650.016 302.61 654.175 294.795 655.468C277.516 658.325 261.199 646.614 258.342 629.335C255.484 612.056 267.166 595.745 284.446 592.887Z" fill="#FFF4E8" stroke="#294064" stroke-miterlimit="10" stroke-linejoin="round"/>
<path d="M285.509 599.317C298.799 597.119 311.369 606.122 313.566 619.412C315.764 632.702 306.757 645.242 293.467 647.44C280.177 649.638 267.613 640.665 265.415 627.375C263.216 614.085 272.218 601.515 285.509 599.317Z" fill="#FFD6BF" stroke="#294064" stroke-miterlimit="10" stroke-linejoin="round"/>
<path d="M286.475 605.159C296.543 603.495 306.06 610.31 307.725 620.378C309.39 630.447 302.574 639.962 292.506 641.628C282.438 643.292 272.921 636.478 271.256 626.409C269.591 616.341 276.407 606.824 286.475 605.159Z" fill="#FFF4E8" stroke="#294064" stroke-miterlimit="10" stroke-linejoin="round"/>
<path d="M287.451 611.06C294.263 609.934 300.696 614.541 301.823 621.354C302.95 628.168 298.342 634.601 291.53 635.727C284.717 636.853 278.283 632.247 277.157 625.434C276.03 618.621 280.638 612.187 287.451 611.06Z" fill="#FFF4E8" stroke="#294064" stroke-miterlimit="10" stroke-linejoin="round"/>
<path d="M288.33 616.373C292.211 615.731 295.871 618.351 296.513 622.234C297.155 626.116 294.534 629.775 290.652 630.417C286.77 631.06 283.11 628.439 282.468 624.556C281.826 620.674 284.447 617.015 288.33 616.373Z" fill="#FFF4E8" stroke="#294064" stroke-miterlimit="10" stroke-linejoin="round"/>
<path d="M291.738 590.563C287.601 565.548 263.969 548.623 238.953 552.76C213.939 556.896 197.014 580.528 201.15 605.544C205.287 630.559 228.919 647.484 253.934 643.347C278.949 639.21 295.874 615.578 291.738 590.563Z" fill="#FFD6BF" stroke="#294064" stroke-miterlimit="10" stroke-linejoin="round"/>
<path d="M284.657 591.734C281.167 570.629 261.229 556.35 240.124 559.84C219.02 563.33 204.74 583.268 208.231 604.373C211.721 625.477 231.659 639.756 252.763 636.267C273.868 632.776 288.147 612.838 284.657 591.734Z" fill="#FFF4E8" stroke="#294064" stroke-miterlimit="10" stroke-linejoin="round"/>
<path d="M277.729 592.882C274.871 575.603 258.548 563.913 241.269 566.77C223.991 569.627 212.3 585.95 215.157 603.229C218.015 620.508 234.339 632.198 251.617 629.34C268.896 626.483 280.586 610.16 277.729 592.882Z" fill="#FFD6BF" stroke="#294064" stroke-miterlimit="10" stroke-linejoin="round"/>
<path d="M270.378 593.294C268.181 580.004 255.625 571.012 242.334 573.21C229.044 575.407 220.052 587.963 222.25 601.253C224.448 614.544 237.003 623.536 250.293 621.338C263.584 619.14 272.576 606.585 270.378 593.294Z" fill="#FFF4E8" stroke="#294064" stroke-miterlimit="10" stroke-linejoin="round"/>
<path d="M264.545 594.257C262.88 584.189 253.368 577.377 243.299 579.042C233.232 580.707 226.419 590.219 228.084 600.286C229.749 610.355 239.261 617.166 249.329 615.502C259.397 613.836 266.21 604.325 264.545 594.257Z" fill="#FFD6BF" stroke="#294064" stroke-miterlimit="10" stroke-linejoin="round"/>
<path d="M258.651 595.232C257.524 588.42 251.088 583.81 244.275 584.936C237.463 586.063 232.853 592.5 233.98 599.312C235.106 606.125 241.543 610.734 248.355 609.607C255.168 608.481 259.777 602.045 258.651 595.232Z" fill="#FFD6BF" stroke="#294064" stroke-miterlimit="10" stroke-linejoin="round"/>
<path d="M253.345 596.107C252.703 592.225 249.035 589.599 245.152 590.241C241.27 590.883 238.643 594.55 239.285 598.432C239.927 602.315 243.595 604.941 247.477 604.299C251.36 603.657 253.987 599.99 253.345 596.107Z" fill="#FFD6BF" stroke="#294064" stroke-miterlimit="10" stroke-linejoin="round"/>
<path d="M121.668 579.135C146.682 574.999 170.311 591.921 174.448 616.936C178.584 641.951 161.661 665.579 136.647 669.715C131.229 670.611 125.909 670.373 120.807 669.425C119.972 667.981 119.166 666.557 118.221 664.972C118.011 664.62 116.823 662.679 116.68 662.439C113.215 656.135 110.166 650.776 104.156 640.411C103.291 638.919 101.24 635.367 100.718 634.464C95.0138 624.6 91.2465 617.95 87.6497 611.163C87.2324 610.375 86.6383 609.774 86.1231 609.082C91.5595 593.905 104.635 581.952 121.668 579.135Z" fill="#FFF4E8" stroke="#294064" stroke-miterlimit="10" stroke-linejoin="round"/>
<path d="M122.838 586.215C143.943 582.725 163.876 597.001 167.366 618.106C170.856 639.21 156.58 659.142 135.475 662.633C128.522 663.783 121.764 662.869 115.611 660.553C112.484 654.897 109.651 649.889 104.156 640.41C103.29 638.918 101.239 635.365 100.717 634.462C96.5539 627.264 93.9623 622.537 91.1758 617.459C94.0472 601.853 106.281 588.953 122.838 586.215Z" fill="#FFD6BF" stroke="#294064" stroke-miterlimit="10" stroke-linejoin="round"/>
<path d="M123.985 593.152C141.263 590.295 157.575 601.976 160.432 619.255C163.29 636.533 151.607 652.845 134.329 655.703C124.784 657.281 115.626 654.322 108.772 648.532C107.192 645.773 106.371 644.233 104.156 640.413C103.291 638.921 101.239 635.368 100.718 634.465C99.461 632.293 98.9245 631.23 97.8377 629.333C95.1475 612.156 106.797 595.994 123.985 593.152Z" fill="#FFF4E8" stroke="#294064" stroke-miterlimit="10" stroke-linejoin="round"/>
<path d="M125.048 599.585C138.338 597.387 150.879 606.394 153.076 619.684C155.274 632.975 146.296 645.51 133.006 647.708C119.715 649.905 107.151 640.933 104.953 627.642C102.756 614.352 111.757 601.783 125.048 599.585Z" fill="#FFD6BF" stroke="#294064" stroke-miterlimit="10" stroke-linejoin="round"/>
<path d="M126.015 605.424C136.082 603.759 145.599 610.575 147.264 620.642C148.929 630.711 142.113 640.227 132.045 641.892C121.977 643.557 112.46 636.742 110.795 626.673C109.131 616.606 115.946 607.089 126.015 605.424Z" fill="#FFF4E8" stroke="#294064" stroke-miterlimit="10" stroke-linejoin="round"/>
<path d="M141.359 621.61C140.233 614.797 133.797 610.188 126.984 611.315C120.172 612.441 115.562 618.877 116.688 625.69C117.815 632.502 124.252 637.112 131.064 635.985C137.877 634.859 142.486 628.422 141.359 621.61Z" fill="#FFF4E8" stroke="#294064" stroke-miterlimit="10" stroke-linejoin="round"/>
<path d="M136.054 622.486C135.412 618.604 131.743 615.977 127.861 616.619C123.98 617.261 121.352 620.929 121.994 624.812C122.636 628.693 126.305 631.32 130.186 630.678C134.068 630.036 136.696 626.368 136.054 622.486Z" fill="#FFF4E8" stroke="#294064" stroke-miterlimit="10" stroke-linejoin="round"/>
<path d="M215.617 591.687C211.481 566.672 187.848 549.747 162.834 553.884C137.818 558.021 120.893 581.653 125.03 606.667C129.167 631.682 152.799 648.607 177.814 644.47C202.829 640.334 219.754 616.701 215.617 591.687Z" fill="#FFD6BF" stroke="#294064" stroke-miterlimit="10" stroke-linejoin="round"/>
<path d="M208.536 592.857C205.046 571.753 185.109 557.474 164.004 560.964C142.899 564.454 128.619 584.392 132.109 605.496C135.6 626.601 155.538 640.88 176.643 637.39C197.748 633.9 212.026 613.962 208.536 592.857Z" fill="#FFF4E8" stroke="#294064" stroke-miterlimit="10" stroke-linejoin="round"/>
<path d="M201.61 594.003C198.753 576.724 182.429 565.033 165.151 567.891C147.872 570.748 136.182 587.072 139.039 604.35C141.896 621.628 158.219 633.319 175.498 630.462C192.776 627.605 204.468 611.281 201.61 594.003Z" fill="#FFD6BF" stroke="#294064" stroke-miterlimit="10" stroke-linejoin="round"/>
<path d="M194.258 594.419C192.06 581.128 179.505 572.136 166.215 574.334C152.924 576.532 143.932 589.087 146.13 602.378C148.327 615.668 160.883 624.66 174.174 622.462C187.464 620.264 196.456 607.709 194.258 594.419Z" fill="#FFF4E8" stroke="#294064" stroke-miterlimit="10" stroke-linejoin="round"/>
<path d="M188.424 595.382C186.759 585.314 177.247 578.501 167.18 580.166C157.111 581.831 150.3 591.343 151.965 601.412C153.63 611.479 163.141 618.292 173.209 616.627C183.277 614.962 190.089 605.45 188.424 595.382Z" fill="#FFD6BF" stroke="#294064" stroke-miterlimit="10" stroke-linejoin="round"/>
<path d="M182.53 596.356C181.404 589.543 174.967 584.934 168.155 586.061C161.342 587.188 156.733 593.623 157.859 600.436C158.986 607.248 165.422 611.858 172.235 610.732C179.047 609.605 183.657 603.168 182.53 596.356Z" fill="#FFF4E8" stroke="#294064" stroke-miterlimit="10" stroke-linejoin="round"/>
<path d="M177.224 597.233C176.582 593.35 172.914 590.723 169.032 591.365C165.15 592.007 162.523 595.675 163.165 599.558C163.807 603.439 167.475 606.067 171.357 605.424C175.24 604.782 177.866 601.114 177.224 597.233Z" fill="#FFD6BF" stroke="#294064" stroke-miterlimit="10" stroke-linejoin="round"/>
<path d="M239.681 507.959C240.423 506.778 240.095 505.221 238.94 504.439L58.7544 382.418C57.5735 381.62 55.9678 381.926 55.1656 383.104L50.8571 389.426C50.031 390.639 50.3773 392.296 51.6212 393.075L236.115 508.773C237.325 509.532 238.921 509.167 239.681 507.959Z" fill="#C1474A" stroke="#294064" stroke-miterlimit="10" stroke-linejoin="round"/>
<path d="M167.68 464.973L168.868 458L177.252 462.379L175.424 470.4" fill="#294064"/>
<path d="M167.68 464.973L168.868 458L177.252 462.379L175.424 470.4" stroke="#294064" stroke-miterlimit="10" stroke-linecap="round" stroke-linejoin="round"/>
<path d="M213.299 406.543C215.805 406.743 217.692 408.942 217.491 411.447C217.218 414.853 218.491 417.522 222.598 423.045C222.716 423.203 222.817 423.355 223.051 423.67C227.97 430.274 229.872 433.756 230.369 439.109C230.981 445.715 229.002 450.301 223.714 457.968C223.556 458.196 223.399 458.427 223.093 458.869C218.727 465.18 217.312 468.121 217.325 472.069C217.337 475.696 218.83 478.867 222.92 485.009C223.02 485.159 223.419 485.742 223.585 485.991C228.814 493.818 230.794 497.804 231.277 503.611C231.616 507.692 230.705 511.451 228.727 515.143C227.324 517.764 225.822 519.745 222.715 523.47C222.285 523.986 222.097 524.238 221.886 524.493C217.834 529.37 216.343 531.912 216.218 534.851C216.115 537.259 217.375 539.909 220.594 544.539C220.705 544.7 221.932 546.437 222.286 546.949C222.944 547.906 223.453 548.689 223.918 549.45C231.443 561.753 232.481 575.134 226.887 588.307C225.633 591.258 224.793 593.075 223.586 595.09C221.609 598.388 219.448 600.714 216.665 601.838C214.334 602.779 211.698 601.64 210.756 599.308C209.814 596.977 210.924 594.34 213.255 593.399C213.753 593.198 214.731 592.136 215.776 590.39C216.703 588.842 217.422 587.329 218.517 584.748C222.955 574.298 222.146 564.009 216.146 554.201C215.78 553.603 215.359 552.949 214.785 552.117C214.456 551.639 213.253 549.923 213.124 549.736C208.802 543.52 206.906 539.534 207.124 534.467C207.362 528.895 209.604 525.027 214.876 518.681C215.094 518.419 215.307 518.142 215.735 517.628C220.959 511.365 222.53 508.437 222.191 504.363C221.881 500.63 220.37 497.617 215.995 491.07C215.828 490.82 215.433 490.211 215.33 490.057C210.287 482.486 208.254 478.062 208.233 472.074C208.212 465.656 210.223 461.476 215.609 453.689C215.916 453.246 216.047 453.011 216.2 452.788C220.347 446.775 221.668 443.781 221.313 439.951C221.024 436.83 219.699 434.39 215.763 429.105C215.529 428.791 215.4 428.643 215.28 428.48C209.922 421.274 207.889 417.045 208.395 410.735C208.595 408.228 210.792 406.343 213.299 406.543Z" fill="#FFF4E8" stroke="#294064" stroke-miterlimit="10" stroke-linecap="round" stroke-linejoin="round"/>
<path d="M204.922 406.604C207.428 406.805 209.315 409.003 209.114 411.509C208.841 414.914 210.114 417.583 214.221 423.107C214.338 423.265 214.44 423.416 214.674 423.731C219.593 430.335 221.496 433.817 221.991 439.17C222.603 445.777 220.625 450.362 215.338 458.029C215.179 458.257 215.021 458.488 214.715 458.931C210.35 465.242 208.935 468.182 208.948 472.131C208.96 475.758 210.453 478.928 214.543 485.071C214.643 485.22 215.041 485.803 215.208 486.052C220.438 493.879 222.417 497.865 222.9 503.673C223.239 507.754 222.328 511.513 220.35 515.205C218.946 517.825 217.445 519.806 214.338 523.531C213.909 524.047 213.72 524.299 213.508 524.554C209.456 529.432 207.967 531.973 207.84 534.912C207.738 537.32 208.998 539.97 212.216 544.601C212.328 544.761 213.555 546.498 213.908 547.011C214.567 547.968 215.075 548.751 215.541 549.511C223.067 561.814 224.104 575.195 218.509 588.368C217.256 591.319 216.416 593.136 215.208 595.151C213.232 598.449 211.071 600.775 208.288 601.9C205.957 602.841 203.32 601.702 202.379 599.369C201.437 597.038 202.547 594.401 204.878 593.46C205.377 593.259 206.354 592.197 207.399 590.452C208.327 588.903 209.045 587.39 210.141 584.81C214.578 574.359 213.768 564.07 207.77 554.263C207.404 553.664 206.983 553.011 206.408 552.178C206.079 551.7 204.877 549.984 204.747 549.798C200.425 543.581 198.529 539.595 198.746 534.528C198.985 528.956 201.227 525.088 206.499 518.742C206.717 518.48 206.93 518.203 207.359 517.69C212.582 511.426 214.152 508.498 213.814 504.425C213.504 500.692 211.993 497.678 207.618 491.131C207.452 490.881 207.055 490.273 206.953 490.118C201.91 482.547 199.876 478.123 199.856 472.135C199.835 465.718 201.846 461.537 207.232 453.75C207.539 453.308 207.67 453.072 207.824 452.849C211.97 446.836 213.291 443.842 212.936 440.013C212.647 436.891 211.322 434.452 207.386 429.166C207.152 428.852 207.023 428.704 206.903 428.541C201.545 421.336 199.513 417.107 200.017 410.796C200.218 408.29 202.415 406.404 204.922 406.604Z" fill="#FFD6BF" stroke="#294064" stroke-miterlimit="10" stroke-linecap="round" stroke-linejoin="round"/>
<path d="M195.922 406.669C198.429 406.869 200.315 409.067 200.114 411.573C199.841 414.978 201.114 417.648 205.221 423.171C205.339 423.329 205.44 423.481 205.674 423.796C210.593 430.399 212.496 433.882 212.991 439.235C213.603 445.841 211.625 450.427 206.337 458.094C206.18 458.322 206.021 458.553 205.716 458.995C201.351 465.306 199.935 468.247 199.948 472.195C199.96 475.822 201.453 478.992 205.543 485.135C205.643 485.285 206.041 485.867 206.208 486.117C211.438 493.943 213.418 497.93 213.9 503.737C214.239 507.818 213.328 511.577 211.351 515.269C209.946 517.89 208.445 519.871 205.339 523.596C204.909 524.112 204.72 524.364 204.509 524.619C200.456 529.496 198.967 532.038 198.84 534.977C198.738 537.384 199.998 540.035 203.216 544.665C203.328 544.826 204.555 546.563 204.908 547.075C205.568 548.032 206.076 548.815 206.541 549.576C214.067 561.879 215.104 575.26 209.509 588.433C208.257 591.384 207.416 593.2 206.208 595.216C204.233 598.513 202.071 600.84 199.288 601.964C196.957 602.905 194.32 601.766 193.379 599.434C192.437 597.103 193.547 594.466 195.879 593.525C196.377 593.324 197.354 592.261 198.399 590.516C199.327 588.968 200.044 587.454 201.14 584.874C205.579 574.424 204.768 564.135 198.769 554.327C198.404 553.729 197.983 553.075 197.408 552.243C197.08 551.765 195.877 550.049 195.746 549.862C191.425 543.646 189.53 539.66 189.746 534.593C189.985 529.02 192.227 525.153 197.499 518.806C197.717 518.544 197.93 518.267 198.359 517.754C203.582 511.491 205.152 508.563 204.814 504.489C204.504 500.756 202.993 497.743 198.618 491.195C198.452 490.946 198.055 490.337 197.953 490.183C192.911 482.612 190.876 478.187 190.856 472.2C190.836 465.782 192.846 461.602 198.232 453.815C198.539 453.372 198.67 453.137 198.824 452.914C202.971 446.901 204.291 443.907 203.936 440.077C203.647 436.956 202.323 434.516 198.386 429.231C198.152 428.917 198.023 428.768 197.903 428.606C192.545 421.4 190.513 417.171 191.017 410.861C191.218 408.354 193.416 406.468 195.922 406.669Z" fill="#FFF4E8" stroke="#294064" stroke-miterlimit="10" stroke-linecap="round" stroke-linejoin="round"/>
<path d="M187.43 406.731C189.936 406.931 191.822 409.129 191.622 411.635C191.349 415.04 192.622 417.71 196.729 423.233C196.847 423.391 196.947 423.543 197.182 423.858C202.1 430.461 204.004 433.944 204.499 439.297C205.111 445.903 203.133 450.489 197.845 458.156C197.688 458.384 197.529 458.615 197.223 459.057C192.859 465.368 191.443 468.308 191.456 472.257C191.467 475.884 192.96 479.054 197.051 485.197C197.151 485.347 197.549 485.929 197.715 486.179C202.946 494.005 204.926 497.992 205.408 503.799C205.747 507.88 204.836 511.639 202.859 515.331C201.454 517.952 199.952 519.933 196.847 523.658C196.416 524.174 196.228 524.426 196.017 524.681C191.964 529.558 190.474 532.1 190.348 535.039C190.245 537.446 191.506 540.097 194.724 544.727C194.836 544.888 196.063 546.625 196.416 547.137C197.075 548.094 197.583 548.877 198.048 549.638C205.574 561.941 206.611 575.322 201.017 588.495C199.765 591.446 198.923 593.262 197.716 595.278C195.74 598.575 193.578 600.902 190.796 602.026C188.464 602.967 185.828 601.828 184.886 599.496C183.945 597.165 185.054 594.528 187.387 593.587C187.884 593.386 188.861 592.323 189.907 590.578C190.835 589.03 191.552 587.516 192.648 584.936C197.087 574.485 196.276 564.197 190.277 554.389C189.912 553.791 189.49 553.137 188.916 552.305C188.587 551.827 187.384 550.111 187.254 549.924C182.933 543.708 181.037 539.722 181.254 534.655C181.493 529.082 183.735 525.214 189.007 518.868C189.224 518.606 189.438 518.329 189.867 517.816C195.09 511.553 196.66 508.624 196.322 504.551C196.011 500.818 194.5 497.805 190.126 491.257C189.96 491.008 189.563 490.399 189.461 490.245C184.419 482.673 182.384 478.249 182.364 472.262C182.344 465.844 184.354 461.664 189.74 453.877C190.046 453.434 190.177 453.199 190.332 452.976C194.479 446.963 195.798 443.969 195.443 440.139C195.154 437.018 193.831 434.578 189.893 429.293C189.659 428.979 189.531 428.83 189.41 428.668C184.052 421.462 182.02 417.233 182.525 410.923C182.725 408.416 184.924 406.53 187.43 406.731Z" fill="#FFD6BF" stroke="#294064" stroke-miterlimit="10" stroke-linecap="round" stroke-linejoin="round"/>
<path d="M178.497 406.795C181.004 406.995 182.889 409.193 182.689 411.699C182.417 415.104 183.689 417.774 187.796 423.297C187.914 423.455 188.015 423.606 188.249 423.921C193.169 430.525 195.071 434.008 195.567 439.36C196.178 445.967 194.2 450.553 188.912 458.22C188.755 458.448 188.597 458.678 188.291 459.121C183.926 465.432 182.51 468.372 182.523 472.321C182.536 475.948 184.028 479.118 188.118 485.261C188.218 485.41 188.616 485.993 188.784 486.243C194.013 494.069 195.993 498.055 196.475 503.863C196.815 507.944 195.903 511.703 193.926 515.395C192.521 518.015 191.021 519.997 187.914 523.721C187.484 524.237 187.295 524.49 187.084 524.745C183.031 529.622 181.542 532.164 181.416 535.103C181.312 537.51 182.573 540.161 185.791 544.791C185.903 544.952 187.13 546.689 187.483 547.201C188.143 548.158 188.651 548.941 189.116 549.701C196.642 562.005 197.679 575.386 192.085 588.559C190.832 591.509 189.991 593.326 188.783 595.342C186.808 598.639 184.645 600.966 181.864 602.09C179.532 603.031 176.895 601.892 175.954 599.56C175.012 597.228 176.123 594.592 178.454 593.65C178.952 593.45 179.929 592.387 180.974 590.642C181.902 589.093 182.62 587.58 183.715 585C188.154 574.549 187.344 564.261 181.344 554.453C180.979 553.854 180.557 553.201 179.984 552.369C179.655 551.891 178.452 550.175 178.322 549.988C174 543.771 172.105 539.786 172.321 534.719C172.56 529.146 174.803 525.278 180.074 518.932C180.293 518.67 180.505 518.393 180.934 517.88C186.158 511.616 187.727 508.688 187.389 504.615C187.079 500.882 185.569 497.868 181.193 491.321C181.027 491.072 180.63 490.463 180.528 490.309C175.486 482.737 173.451 478.313 173.432 472.325C173.411 465.908 175.421 461.728 180.807 453.94C181.114 453.498 181.246 453.262 181.399 453.039C185.546 447.027 186.866 444.032 186.511 440.203C186.222 437.081 184.898 434.642 180.961 429.357C180.727 429.042 180.598 428.894 180.478 428.731C175.12 421.526 173.088 417.297 173.592 410.987C173.793 408.48 175.991 406.594 178.497 406.795Z" fill="#FFF4E8" stroke="#294064" stroke-miterlimit="10" stroke-linecap="round" stroke-linejoin="round"/>
<path d="M228.5 515L187 499.999C187 499.999 184.5 495.502 181.5 489.998C193.039 492.379 231 510.497 231 510.497" fill="#294064"/>
<path d="M228.5 515L187 499.999C187 499.999 184.5 495.502 181.5 489.998C193.039 492.379 231 510.497 231 510.497" stroke="#294064" stroke-miterlimit="10" stroke-linecap="round" stroke-linejoin="round"/>
<path d="M236.021 513.767C236.608 512.502 236.088 510.999 234.845 510.368L40.7873 411.89C39.5157 411.245 37.9618 411.75 37.313 413.02L33.8308 419.832C33.1634 421.139 33.7149 422.739 35.046 423.357L232.586 515.022C233.881 515.623 235.418 515.061 236.021 513.767Z" fill="#FF6D6D" stroke="#294064" stroke-miterlimit="10" stroke-linejoin="round"/>
<path d="M251.957 623.017C247.82 598.001 224.188 581.076 199.173 585.213C174.158 589.35 157.233 612.982 161.37 637.997C165.507 663.012 189.139 679.937 214.154 675.8C239.168 671.663 256.093 648.031 251.957 623.017Z" fill="#FFD6BF" stroke="#294064" stroke-miterlimit="10" stroke-linejoin="round"/>
<path d="M244.875 624.186C241.385 603.082 221.448 588.803 200.343 592.293C179.238 595.783 164.959 615.72 168.449 636.825C171.939 657.93 191.877 672.209 212.982 668.719C234.086 665.229 248.365 645.291 244.875 624.186Z" fill="#FFF4E8" stroke="#294064" stroke-miterlimit="10" stroke-linejoin="round"/>
<path d="M237.949 625.335C235.091 608.056 218.768 596.366 201.489 599.223C184.211 602.081 172.52 618.404 175.378 635.683C178.235 652.961 194.559 664.652 211.837 661.795C229.115 658.937 240.806 642.613 237.949 625.335Z" fill="#FFD6BF" stroke="#294064" stroke-miterlimit="10" stroke-linejoin="round"/>
<path d="M230.598 625.747C228.4 612.457 215.844 603.465 202.554 605.663C189.264 607.861 180.271 620.416 182.469 633.706C184.667 646.997 197.223 655.989 210.513 653.792C223.803 651.594 232.796 639.038 230.598 625.747Z" fill="#FFF4E8" stroke="#294064" stroke-miterlimit="10" stroke-linejoin="round"/>
<path d="M224.765 626.71C223.1 616.643 213.589 609.83 203.52 611.495C193.452 613.16 186.64 622.672 188.305 632.74C189.97 642.808 199.481 649.621 209.55 647.956C219.618 646.291 226.43 636.779 224.765 626.71Z" fill="#FFD6BF" stroke="#294064" stroke-miterlimit="10" stroke-linejoin="round"/>
<path d="M218.869 627.685C217.743 620.873 211.307 616.263 204.494 617.39C197.681 618.517 193.072 624.953 194.199 631.765C195.325 638.578 201.761 643.187 208.574 642.061C215.387 640.934 219.996 634.498 218.869 627.685Z" fill="#FFF4E8" stroke="#294064" stroke-miterlimit="10" stroke-linejoin="round"/>
<path d="M213.563 628.561C212.921 624.679 209.253 622.052 205.371 622.694C201.489 623.336 198.862 627.004 199.504 630.886C200.146 634.768 203.814 637.396 207.696 636.754C211.578 636.111 214.205 632.443 213.563 628.561Z" fill="#FFD6BF" stroke="#294064" stroke-miterlimit="10" stroke-linejoin="round"/>
<path d="M166.306 629.238C170.861 628.896 172.84 622.443 171.447 617.749C169.019 609.567 161.912 609.036 162.615 607.319C164.57 602.548 168.855 600.043 167.85 593.98C166.844 587.916 159.73 586.029 158.592 583.065C157.034 579.003 158.604 575.637 155.399 571.971C152.911 569.125 147.394 569.697 145.513 567.742C143.341 565.485 147.786 560.025 140.931 555.44C135.826 552.025 130.835 557.228 128.882 555.52C125.242 552.342 119.194 545.033 110.683 550.78C101.329 557.097 108.915 563.632 108.578 566.825C108.186 570.537 102.024 572.925 103.091 578.542C104.195 584.347 109.984 585.101 110.742 587.283C111.551 589.614 107.128 592.597 109.652 597.783C111.69 601.972 115.971 601.512 117.614 604.549C120.442 609.776 113.72 617.018 126.407 630.341C130.257 634.383 158.31 649.761 162.302 645.121" fill="#75A1E3"/>
<path d="M166.306 629.238C170.861 628.896 172.84 622.443 171.447 617.749C169.019 609.567 161.912 609.036 162.615 607.319C164.57 602.548 168.855 600.043 167.85 593.98C166.844 587.916 159.73 586.029 158.592 583.065C157.034 579.003 158.604 575.637 155.399 571.971C152.911 569.125 147.394 569.697 145.513 567.742C143.341 565.485 147.786 560.025 140.931 555.44C135.826 552.025 130.835 557.228 128.882 555.52C125.242 552.342 119.194 545.033 110.683 550.78C101.329 557.097 108.915 563.632 108.578 566.825C108.186 570.537 102.024 572.925 103.091 578.542C104.195 584.347 109.984 585.101 110.742 587.283C111.551 589.614 107.128 592.597 109.652 597.783C111.69 601.972 115.971 601.512 117.614 604.549C120.442 609.776 113.72 617.018 126.407 630.341C130.257 634.383 158.31 649.761 162.302 645.121" stroke="#294064" stroke-miterlimit="10" stroke-linecap="round" stroke-linejoin="round"/>
<path d="M162.886 643.326L126.915 576.537L158.658 654.711" fill="#5486D4"/>
<path d="M162.886 643.326L126.915 576.537L158.658 654.711" stroke="#294064" stroke-miterlimit="10" stroke-linecap="round" stroke-linejoin="round"/>
<path d="M132.911 591.343L109.434 592.013" stroke="#294064" stroke-miterlimit="10" stroke-linejoin="round"/>
<path d="M135.941 599.116L110.223 599.047" stroke="#294064" stroke-miterlimit="10" stroke-linejoin="round"/>
<path d="M143.346 606.772L158.684 583.18" stroke="#294064" stroke-miterlimit="10" stroke-linejoin="round"/>
<path d="M148.832 616.98L166.194 590.157" stroke="#294064" stroke-miterlimit="10" stroke-linejoin="round"/>
<path d="M145.104 567.193L133.238 588.221" stroke="#294064" stroke-miterlimit="10" stroke-linejoin="round"/>
<path d="M291.866 589.03C285.16 604.04 277.242 614.392 260.362 616.04C248.614 617.187 231.037 603.701 235.084 590.608" fill="#294064"/>
<path d="M291.866 589.03C285.16 604.04 277.242 614.392 260.362 616.04C248.614 617.187 231.037 603.701 235.084 590.608" stroke="#294064" stroke-miterlimit="10" stroke-linecap="round" stroke-linejoin="round"/>
<path d="M294.122 571.597C293.195 565.99 290.98 560.916 287.831 556.629L227.535 591.096C233.726 605.534 249.157 614.451 265.349 611.773C284.389 608.625 297.271 590.637 294.122 571.597Z" fill="#F4CC85" stroke="#294064" stroke-miterlimit="10" stroke-linejoin="round"/>
<path d="M289.767 572.172C288.967 567.331 287.055 562.95 284.336 559.248L232.276 589.008C237.621 601.474 250.944 609.172 264.924 606.86C281.364 604.142 292.486 588.611 289.767 572.172Z" fill="#FFE29F" stroke="#294064" stroke-miterlimit="10" stroke-linejoin="round"/>
<path d="M287.069 572.143C286.332 567.683 284.57 563.648 282.066 560.239L234.111 587.651C239.035 599.134 251.307 606.226 264.185 604.096C279.328 601.592 289.573 587.286 287.069 572.143Z" fill="#A5AB58" stroke="#294064" stroke-miterlimit="10" stroke-linejoin="round"/>
<path d="M274.936 593.554C274.971 596.544 267.521 600.317 265.459 599.003C262.569 597.16 258.576 576.906 259.559 576.383C260.899 575.67 274.909 591.315 274.936 593.554Z" fill="#F4CC85" stroke="#294064" stroke-miterlimit="10" stroke-linecap="round" stroke-linejoin="round"/>
<path d="M279.625 590.741C275.762 589.049 261.127 576.351 261.764 575.108C262.43 573.809 282.534 576.973 284.816 578.434C287.187 579.951 281.364 591.502 279.625 590.741Z" fill="#F4CC85" stroke="#294064" stroke-miterlimit="10" stroke-linecap="round" stroke-linejoin="round"/>
<path d="M281.868 563.095C283.834 563.427 286.984 572.335 285.064 573.361C282.754 574.598 263.375 574.845 263.101 573.242C262.752 571.211 280.031 562.784 281.868 563.095Z" fill="#F4CC85" stroke="#294064" stroke-miterlimit="10" stroke-linecap="round" stroke-linejoin="round"/>
<path d="M257.35 578.589C259.133 578.082 260.642 598.162 258.753 600.774C256.211 604.289 248.797 600.503 247.448 597.479C246.02 594.277 255.674 579.065 257.35 578.589Z" fill="#F4CC85" stroke="#294064" stroke-miterlimit="10" stroke-linecap="round" stroke-linejoin="round"/>
<path d="M254.63 578C255.27 579.151 246.426 593.781 243.694 596.038C241.788 597.612 235.733 589.689 236.745 588.688C239.035 586.424 253.905 576.697 254.63 578Z" fill="#F4CC85" stroke="#294064" stroke-miterlimit="10" stroke-linecap="round" stroke-linejoin="round"/>
<path d="M84.8123 599.25C85.0728 603.458 85.5512 607.694 86.2543 611.946C97.4203 679.466 161.235 725.311 228.729 713.985C292.678 703.255 331.672 652.367 332.439 593.487C332.439 593.487 291.031 623.047 205.097 625.576C125.44 627.92 84.8123 599.25 84.8123 599.25Z" fill="#A5AB58" stroke="#294064" stroke-miterlimit="10" stroke-linejoin="round"/>
<path d="M91.2221 617.723C91.2221 617.723 99.75 647.624 110.344 660.234" stroke="#294064" stroke-miterlimit="10" stroke-linecap="round" stroke-linejoin="round"/>
<path d="M113.863 664.749C118.235 669.894 126.881 679.014 131.996 683.43" stroke="#294064" stroke-miterlimit="10" stroke-linecap="round" stroke-linejoin="round"/>
</g>
<defs>
<clipPath id="clip0_1091_2903">
<path d="M0 0H414V841C414 852.046 405.046 861 394 861H20C8.95432 861 0 852.046 0 841V0Z" fill="white"/>
</clipPath>
</defs>
</svg>
