<svg width="414" height="861" viewBox="0 0 414 861" fill="none" xmlns="http://www.w3.org/2000/svg">
<g clip-path="url(#clip0_1091_2728)">
<path d="M0 0H414V841C414 852.046 405.046 861 394 861H20C8.95432 861 0 852.046 0 841V0Z" fill="#EFA5C6"/>
<path d="M197.474 470.04C190.545 469.635 188.354 475.095 182.004 475.314C177.042 475.485 174.489 467.773 163.299 469.858C155.033 471.398 152.354 476.14 147.833 478.079C141.945 480.604 130.193 476.412 121.169 482.506C109.769 490.205 110.636 497.046 110.636 497.046L232.462 496.839C232.462 496.839 243.023 492.809 239.092 486.963C236.311 482.831 228.162 485.974 224.32 485.488C218.952 484.81 224.27 479.722 219.347 477.87C214.423 476.018 206.645 479.946 206.645 479.946C206.645 479.946 205.636 470.518 197.474 470.04Z" fill="white"/>
<mask id="mask0_1091_2728" style="mask-type:luminance" maskUnits="userSpaceOnUse" x="110" y="469" width="130" height="29">
<path d="M197.474 470.04C190.545 469.634 188.354 475.095 182.004 475.314C177.042 475.485 174.489 467.773 163.3 469.858C155.033 471.398 152.355 476.14 147.833 478.079C141.945 480.603 130.193 476.412 121.17 482.506C109.77 490.205 110.637 497.046 110.637 497.046L232.463 496.839C232.463 496.839 243.023 492.809 239.092 486.963C236.312 482.83 228.162 485.974 224.32 485.488C218.953 484.81 224.271 479.722 219.347 477.87C214.423 476.018 206.646 479.946 206.646 479.946C206.646 479.946 205.637 470.518 197.474 470.04Z" fill="white"/>
</mask>
<g mask="url(#mask0_1091_2728)">
<path d="M109.698 489.996C109.984 489.491 115.37 491.996 116.266 492.293C120.855 493.813 126.326 494.158 131.18 493.622C151.394 491.39 157.588 472.461 157.588 457.605" stroke="#75A1E3" stroke-miterlimit="10" stroke-linecap="round"/>
<path d="M121.055 480.931C126.921 483.522 144.152 482.453 138.706 472.833" stroke="#75A1E3" stroke-miterlimit="10" stroke-linecap="round"/>
<path d="M150.473 501.598C152.745 493.569 167.437 488.754 175.102 487.215C202.205 481.774 231.849 488.446 253.368 503.653" stroke="#75A1E3" stroke-miterlimit="10" stroke-linecap="round"/>
<path d="M175.786 459.66C169.92 459.66 162.423 472.152 166.071 477.307C170.229 483.184 180.041 481.692 186.185 479.965C190.097 478.866 193.611 477.171 196.994 475.131C201.459 472.437 204.354 467.651 206.572 463.407" stroke="#75A1E3" stroke-miterlimit="10" stroke-linecap="round"/>
<path d="M192.342 499.544C198.178 489.234 211.344 496.131 217.245 501.84" stroke="#75A1E3" stroke-miterlimit="10" stroke-linecap="round"/>
</g>
<path d="M295.065 425.964C305.747 426.879 304.399 431.723 310.941 433.835C315.604 435.34 326.648 428.359 333.212 434.984C337.479 439.29 333.668 446.787 322.106 446.867L216.345 447.245C216.345 447.245 221.746 428.071 236.759 424.426C261.379 418.449 269.414 431.39 275.792 431.22C282.041 431.053 286.156 425.202 295.065 425.964Z" fill="white"/>
<mask id="mask1_1091_2728" style="mask-type:luminance" maskUnits="userSpaceOnUse" x="216" y="422" width="119" height="26">
<path d="M295.065 425.967C305.747 426.882 304.399 431.725 310.942 433.837C315.605 435.343 326.648 428.361 333.213 434.986C337.48 439.293 333.668 446.79 322.106 446.87L216.345 447.248C216.345 447.248 221.746 428.074 236.759 424.428C261.379 418.451 269.414 431.393 275.793 431.222C282.042 431.055 286.157 425.205 295.065 425.967Z" fill="white"/>
</mask>
<g mask="url(#mask1_1091_2728)">
<path d="M228.185 432.063C238.192 444.46 258.049 433.806 266.023 425.298C269.101 422.014 270.635 417.933 273.434 414.492" stroke="#75A1E3" stroke-miterlimit="10" stroke-linecap="round"/>
<path d="M232.788 425.913C233.185 427.777 239.307 428.248 241.209 428.109C251.129 427.381 253.564 421.013 259.286 415.721" stroke="#75A1E3" stroke-miterlimit="10" stroke-linecap="round"/>
<path d="M271.188 449.633C272.69 444.931 283.451 441.823 288.367 440.847C306.206 437.309 318.153 441.398 329.012 452.444" stroke="#75A1E3" stroke-miterlimit="10" stroke-linecap="round"/>
</g>
<path d="M205.813 459.728C205.813 459.728 230.742 440.951 247.385 417.851C262.331 397.107 265.802 367.227 241.115 358.957C232.259 355.99 222.932 360.456 217.915 365.07C213.893 368.769 211.087 373.136 209.487 376.033C208.423 377.959 208.063 377.887 208.063 377.887C208.063 377.887 207.515 378.21 206.715 376.606C204.852 372.871 200.697 366.003 193.682 361.68C187.373 357.791 176.989 355.782 168.249 361.978C147.772 376.494 156.659 404.035 170.872 422.734C185.543 442.036 205.813 459.728 205.813 459.728Z" fill="#FF6D6D" stroke="#294064" stroke-miterlimit="10" stroke-linecap="round"/>
<mask id="mask2_1091_2728" style="mask-type:luminance" maskUnits="userSpaceOnUse" x="156" y="358" width="104" height="102">
<path d="M205.813 459.728C205.813 459.728 230.743 440.951 247.386 417.851C262.332 397.107 265.803 367.227 241.116 358.957C232.26 355.99 222.932 360.456 217.916 365.07C213.894 368.769 211.088 373.136 209.487 376.033C208.424 377.959 208.064 377.887 208.064 377.887C208.064 377.887 207.515 378.21 206.716 376.606C204.852 372.871 200.698 366.003 193.683 361.68C187.374 357.791 176.99 355.782 168.249 361.978C147.773 376.494 156.66 404.035 170.873 422.734C185.544 442.036 205.813 459.728 205.813 459.728Z" fill="white"/>
</mask>
<g mask="url(#mask2_1091_2728)">
<path d="M185.38 444.086C191.257 446.487 199.954 426.843 204.917 429.686C208.011 431.458 203.505 437 203.143 437.596C202.569 438.544 204.455 437.022 206.106 437.247C210.737 437.876 198.199 450.646 191.409 450.454" stroke="#2E4166" stroke-miterlimit="10" stroke-linecap="round"/>
<path d="M190.2 418.082C190.85 414.021 198.048 406.007 203.762 409.705C209.991 413.735 207.995 423.734 204.199 429.273" stroke="#2E4166" stroke-miterlimit="10" stroke-linecap="round"/>
<path d="M187.409 442.96C185.415 441.816 188.038 433.081 188.867 431.811C190.12 429.887 188.668 426.646 189.948 425.051C192.911 421.359 196.47 427.056 196.886 429.966" stroke="#2E4166" stroke-miterlimit="10" stroke-linecap="round"/>
<path d="M182.769 413.279C187.854 414.778 187.89 427.396 194.901 422.541C195.605 422.053 196.378 421.03 196.56 420.188C197.269 416.923 196.123 414.695 197.726 416.313C199.385 417.988 195.966 425.496 196.97 429.955" stroke="#2E4166" stroke-miterlimit="10" stroke-linecap="round"/>
<path d="M179.15 427.582C177.945 424.991 169.747 413.876 176.406 412.767C183.751 411.544 187.764 424.025 187.247 429.955C187.08 431.876 186.583 437.18 183.795 438.343C178.273 440.647 177.204 433.183 172.826 429.378C170.692 427.523 167.982 426.05 165.736 424.326C162.828 422.094 162.294 418.622 165.057 417.241C172.93 413.307 173.446 425.447 177.265 427.405C178.015 427.79 179.521 428.38 179.15 427.582Z" stroke="#2E4166" stroke-miterlimit="10" stroke-linecap="round"/>
<path d="M176.07 411.138C173.162 409.271 170.7 405.963 170.186 403.116C169.731 400.596 171.275 397.871 173.576 399.456C176.831 401.699 176.356 408.722 182.805 405.952C181.229 404.686 179.271 405.113 178.164 403.31C177.263 401.843 177.897 400.354 181.299 400.148C183.841 399.994 188.346 400.178 190.735 403.287C192.597 405.71 190.99 408.951 189.525 410.548C185.837 414.568 179.831 413.553 176.07 411.138Z" stroke="#2E4166" stroke-miterlimit="10" stroke-linecap="round"/>
<path d="M183.649 413.52C194.493 418.363 190.285 398.969 200.391 397.239C209.068 395.754 210.299 406.301 204.003 409.808" stroke="#2E4166" stroke-miterlimit="10" stroke-linecap="round"/>
<path d="M182.823 397.351C182.607 394.379 185.052 392.171 185.672 389.519C186.621 385.455 191.409 385.986 193.677 383.245C195.576 380.95 194.163 378.718 196.435 375.156C199.738 369.979 207.809 369.773 206.531 377.302C205.876 381.167 202.274 383.343 199.393 384.967C196.337 386.69 191.77 392.407 192.834 392.65C193.898 392.893 198.329 385.54 202.996 385.402C207.421 385.272 207.538 392.169 204.309 394.059C202.061 395.375 199.298 395.208 196.808 395.856C194.8 396.378 194.713 398.729 191.396 399.741C189.829 400.22 183.059 400.592 182.823 397.351Z" stroke="#2E4166" stroke-miterlimit="10" stroke-linecap="round"/>
<path d="M177.212 390.038C175.301 389.901 178.364 383.144 178.06 381.838C178.051 381.801 177.985 381.821 177.954 381.838C176.171 382.793 174.844 384.478 173.877 386.321C172.202 389.512 171.456 397.391 175.73 398.918C181.82 401.094 181.509 391.825 183.513 388.818C184.891 386.749 193.545 381.94 192.195 379.625C191.121 377.783 187.809 378.251 186.107 378.434C180.471 379.038 179.967 381.039 178.324 386.321C178 387.364 178.257 390.112 177.212 390.038Z" stroke="#2E4166" stroke-miterlimit="10" stroke-linecap="round"/>
<path d="M158.218 400.372C160.384 402.988 162.89 404.4 164.537 407.786" stroke="#2E4166" stroke-miterlimit="10" stroke-linecap="round"/>
<path d="M158.527 401.136C158.376 405.292 161.296 411.081 164.304 413.605C166.466 415.419 170.955 417.388 171.887 412.949C172.728 408.941 168.43 405.803 168.263 401.908C168.095 398.013 172.692 393.447 170.348 389.81C167.61 394.201 162.127 393.1 161.006 387.734C164.239 392.091 168.615 392.149 171.224 386.733C166.025 387.96 165.593 384.853 163.469 380.42C162.485 378.367 159.794 377.351 158.337 379.248" stroke="#2E4166" stroke-miterlimit="10" stroke-linecap="round"/>
<path d="M188.754 369.886C190.975 370.287 192.837 363.849 191.337 362.337" stroke="#2E4166" stroke-miterlimit="10" stroke-linecap="round"/>
<path d="M191.572 366C187.43 365.518 183.24 366.131 179.074 366.091C177.594 366.076 177.291 363.508 176.123 362.534C174.909 361.522 173.864 362.437 172.315 360.894C172.069 360.648 171.55 359.821 171.658 359.078C172.67 352.095 190.661 357.327 194.926 360.425" stroke="#2E4166" stroke-miterlimit="10" stroke-linecap="round"/>
<path d="M179.994 366.211C174.885 370.914 170.844 375.886 169.534 375.784C168.225 375.682 174.973 370.934 173.986 366.197C173.427 363.512 171.867 360.889 167.476 361.655C162.467 362.53 157.104 368.229 158.38 376.868C158.815 379.811 164.805 368.215 166.439 368.995C168.073 369.774 163.87 374.802 164.888 380.219C165.518 383.569 168.123 385.52 170.205 385.013C174.357 384.001 176.142 380.883 181.104 378.378C185.305 376.257 191.925 376.343 196.336 373.173C199.217 371.103 199.618 367.551 199.618 367.551" stroke="#2E4166" stroke-miterlimit="10" stroke-linecap="round"/>
<path d="M228.286 442.796C222.409 445.197 216.171 426.968 211.208 429.812C208.114 431.584 212.62 437.126 212.982 437.722C213.556 438.669 211.67 437.147 210.019 437.372C205.388 438.002 214.946 448.536 221.736 448.345" stroke="#2E4166" stroke-miterlimit="10" stroke-linecap="round"/>
<path d="M225.925 418.207C225.275 414.146 218.076 406.132 212.362 409.829C206.134 413.86 208.129 423.858 211.926 429.398" stroke="#2E4166" stroke-miterlimit="10" stroke-linecap="round"/>
<path d="M228.939 440.108C230.933 438.964 228.086 433.21 227.258 431.939C226.004 430.015 227.456 426.774 226.176 425.179C223.213 421.487 219.654 427.184 219.239 430.094" stroke="#2E4166" stroke-miterlimit="10" stroke-linecap="round"/>
<path d="M233.356 413.404C228.271 414.904 228.235 427.521 221.224 422.666C220.519 422.178 219.747 421.155 219.565 420.313C218.856 417.048 220.002 414.82 218.399 416.438C216.74 418.112 220.159 425.622 219.155 430.08" stroke="#2E4166" stroke-miterlimit="10" stroke-linecap="round"/>
<path d="M236.975 427.707C238.18 425.116 246.378 414.001 239.719 412.892C232.374 411.669 228.361 424.15 228.878 430.08C229.045 432.002 229.542 437.305 232.33 438.468C237.852 440.772 238.921 433.308 243.299 429.503C245.433 427.647 248.143 426.175 250.389 424.451C253.297 422.219 253.831 418.747 251.068 417.366C243.195 413.432 242.679 425.573 238.86 427.53C238.11 427.914 236.604 428.505 236.975 427.707Z" stroke="#2E4166" stroke-miterlimit="10" stroke-linecap="round"/>
<path d="M240.055 411.263C242.963 409.396 245.425 406.088 245.939 403.241C246.394 400.721 244.85 397.995 242.549 399.581C239.294 401.824 239.769 408.847 233.32 406.077C234.896 404.811 236.854 405.238 237.961 403.435C238.862 401.968 238.228 400.479 234.826 400.273C232.284 400.119 227.779 400.302 225.389 403.412C223.527 405.835 225.135 409.076 226.6 410.673C230.288 414.693 236.294 413.678 240.055 411.263Z" stroke="#2E4166" stroke-miterlimit="10" stroke-linecap="round"/>
<path d="M232.476 413.645C221.632 418.488 225.84 399.094 215.734 397.364C207.057 395.879 205.826 406.426 212.122 409.933" stroke="#2E4166" stroke-miterlimit="10" stroke-linecap="round"/>
<path d="M233.302 397.479C233.519 394.508 231.072 392.299 230.453 389.647C229.503 385.583 224.716 386.114 222.448 383.373C220.549 381.079 221.962 378.846 219.69 375.284C216.387 370.107 208.317 369.902 209.594 377.43C210.25 381.294 213.851 383.472 216.731 385.095C219.788 386.818 224.355 392.535 223.291 392.778C222.227 393.022 217.796 385.668 213.129 385.53C208.704 385.401 208.586 392.297 211.815 394.187C214.064 395.504 216.827 395.336 219.317 395.984C221.325 396.506 221.411 398.857 224.729 399.87C226.296 400.348 233.065 400.72 233.302 397.479Z" stroke="#2E4166" stroke-miterlimit="10" stroke-linecap="round"/>
<path d="M238.913 390.166C240.824 390.029 237.761 383.273 238.066 381.966C238.074 381.93 238.14 381.95 238.172 381.966C239.954 382.921 241.281 384.607 242.248 386.449C243.923 389.64 244.67 397.519 240.395 399.046C234.305 401.222 234.617 391.953 232.613 388.946C231.234 386.877 222.58 382.068 223.93 379.754C225.004 377.911 228.317 378.379 230.018 378.562C235.655 379.166 236.158 381.167 237.801 386.449C238.126 387.493 237.868 390.241 238.913 390.166Z" stroke="#2E4166" stroke-miterlimit="10" stroke-linecap="round"/>
<path d="M257.907 400.5C255.741 403.116 253.235 404.528 251.588 407.914" stroke="#2E4166" stroke-miterlimit="10" stroke-linecap="round"/>
<path d="M257.598 401.264C257.748 405.42 254.829 411.21 251.821 413.733C249.659 415.547 245.17 417.516 244.238 413.077C243.397 409.069 247.695 405.931 247.862 402.035C248.03 398.141 243.433 393.575 245.777 389.937C248.515 394.329 253.998 393.228 255.119 387.862C251.886 392.219 247.51 392.276 244.901 386.861C250.099 388.088 250.532 384.981 252.656 380.548C253.64 378.495 256.331 377.48 257.787 379.376" stroke="#2E4166" stroke-miterlimit="10" stroke-linecap="round"/>
<path d="M227.371 370.011C225.15 370.412 223.288 363.974 224.788 362.462" stroke="#2E4166" stroke-miterlimit="10" stroke-linecap="round"/>
<path d="M224.553 366.125C228.694 365.642 232.885 366.256 237.05 366.215C238.531 366.201 238.834 363.633 240.002 362.659C241.215 361.647 242.261 362.562 243.809 361.018C244.055 360.773 244.574 359.945 244.466 359.203C243.455 352.22 225.464 357.452 221.198 360.55" stroke="#2E4166" stroke-miterlimit="10" stroke-linecap="round"/>
<path d="M236.131 366.336C241.24 371.039 245.281 376.011 246.59 375.908C247.9 375.807 241.151 371.059 242.139 366.322C242.698 363.637 244.257 361.014 248.649 361.78C253.658 362.655 259.021 368.354 257.745 376.993C257.31 379.936 251.32 368.34 249.686 369.12C248.052 369.899 252.255 374.927 251.237 380.344C250.607 383.693 248.002 385.645 245.92 385.138C241.768 384.126 239.982 381.008 235.021 378.503C230.819 376.382 224.2 376.468 219.789 373.298C216.908 371.228 216.507 367.676 216.507 367.676" stroke="#2E4166" stroke-miterlimit="10" stroke-linecap="round"/>
</g>
<path d="M205.813 459.728C205.813 459.728 230.742 440.951 247.385 417.851C262.331 397.107 265.802 367.227 241.115 358.957C232.259 355.99 222.932 360.456 217.915 365.07C213.768 368.885 211.107 373.524 209.34 376.301C208.467 377.673 208.461 377.705 208.153 377.831C207.699 378.017 207.385 378.022 207.096 377.392C205.495 373.9 201.224 366.328 193.682 361.68C187.373 357.791 176.989 355.782 168.249 361.978C147.772 376.494 156.659 404.035 170.872 422.734C185.543 442.036 205.813 459.728 205.813 459.728Z" stroke="#294064" stroke-miterlimit="10" stroke-linecap="round"/>
<path d="M207.758 495.22C210.81 484.742 214.184 473.793 223.471 467.005C227.55 464.025 231.763 461.234 235.91 458.348C234.361 475.462 222.315 487.841 207.758 495.22Z" fill="#4576C2" stroke="#294064" stroke-miterlimit="10" stroke-linecap="round"/>
<path d="M206.328 482.09C202.129 481.944 193 476.896 187.956 472.18C180.706 465.4 178.176 459.555 174.317 450.552C193.285 455.034 203.475 470.114 206.328 482.09Z" fill="#75A1E3" stroke="#294064" stroke-miterlimit="10" stroke-linecap="round"/>
<path d="M231.707 504.453C229.946 510.236 228.331 516.066 226.424 521.804C222.314 534.165 216.351 540.542 205.638 547.137C207.305 544.971 209.98 534.73 212.008 527.847C214.908 518 223.821 510.27 231.707 504.453Z" fill="#75A1E3" stroke="#294064" stroke-miterlimit="10" stroke-linecap="round"/>
<path d="M206.007 529.617C202.076 528.156 196.492 523.591 193.733 520.432C186.721 512.402 185.126 504.257 184.187 493.707C192.332 499.401 196.772 505.914 199.833 510.931C202.026 514.523 206.328 527.27 206.007 529.617Z" fill="#4576C2" stroke="#294064" stroke-miterlimit="10" stroke-linecap="round"/>
<path d="M207.3 596.347C204.25 593.046 211.869 581.085 214.254 578.177C218.319 573.222 222.699 568.533 226.921 563.71C228.947 573.216 224.019 585.07 216.474 591.085C213.718 593.283 210.358 594.593 207.3 596.347Z" fill="#4576C2" stroke="#294064" stroke-miterlimit="10" stroke-linecap="round"/>
<path d="M208.408 494.272C216.542 481.962 225.957 469.513 235.807 458.531" stroke="#294064" stroke-miterlimit="10" stroke-linecap="round"/>
<path d="M223.37 473.647C225.638 474.151 230.934 474.138 230.934 474.138" stroke="#294064" stroke-miterlimit="10" stroke-linecap="round"/>
<path d="M226.318 469.866C226.318 469.866 232.093 470.103 232.999 470.041" stroke="#294064" stroke-miterlimit="10" stroke-linecap="round"/>
<path d="M219.069 478.769C219.069 478.769 218.824 471.84 218.97 471.179" stroke="#294064" stroke-miterlimit="10" stroke-linecap="round"/>
<path d="M174.675 450.799C174.675 450.799 182.392 456.976 185.952 460.524C192.787 467.336 199.065 474.691 205.832 481.571" stroke="#294064" stroke-miterlimit="10" stroke-linecap="round"/>
<path d="M188.858 463.391C188.858 463.391 188.404 458.09 188.243 456.783" stroke="#294064" stroke-miterlimit="10" stroke-linecap="round"/>
<path d="M193.188 467.714C193.722 465.377 193.354 461.388 193.207 460.484" stroke="#294064" stroke-miterlimit="10" stroke-linecap="round"/>
<path d="M190.231 474.016C190.309 474.051 197.483 473.02 197.483 473.02" stroke="#294064" stroke-miterlimit="10" stroke-linecap="round"/>
<path d="M208.552 542.545C215.839 529.499 222.686 517.087 231.382 504.933" stroke="#294064" stroke-miterlimit="10" stroke-linecap="round"/>
<path d="M219.663 523.049C222.826 521.503 223.292 521.475 226.723 520.744" stroke="#294064" stroke-miterlimit="10" stroke-linecap="round"/>
<path d="M216.281 528.822C219.964 528.038 220.903 527.317 224.586 526.533" stroke="#294064" stroke-miterlimit="10" stroke-linecap="round"/>
<path d="M212.133 527.516C212.577 529.604 212.898 531.229 213.833 533.14" stroke="#294064" stroke-miterlimit="10" stroke-linecap="round"/>
<path d="M207.012 528.08C206.469 528.286 200.345 521.435 199.668 520.605C193.218 512.692 187.171 504.05 184.541 494.053" stroke="#294064" stroke-miterlimit="10" stroke-linecap="round"/>
<path d="M194.514 513.874C194.123 512.128 193.76 505.432 194.367 503.275" stroke="#294064" stroke-miterlimit="10" stroke-linecap="round"/>
<path d="M198.12 518.589C197.883 516.515 198.849 511.446 199.079 509.784" stroke="#294064" stroke-miterlimit="10" stroke-linecap="round"/>
<path d="M186.961 508.865C186.947 508.857 192.025 510.388 192.025 510.388" stroke="#294064" stroke-miterlimit="10" stroke-linecap="round"/>
<path d="M208.028 594.335C214.529 586.776 222.905 572.809 226.999 564.124" stroke="#294064" stroke-miterlimit="10" stroke-linecap="round"/>
<path d="M218.428 579.832C222.074 578.744 222.178 578.343 225.803 577.261" stroke="#294064" stroke-miterlimit="10" stroke-linecap="round"/>
<path d="M215.665 584.182C218.629 583.644 220.516 582.643 223.613 582.356" stroke="#294064" stroke-miterlimit="10" stroke-linecap="round"/>
<path d="M195.445 557.211C195.254 557.307 195.317 551.621 195.596 549.02" stroke="#294064" stroke-miterlimit="10" stroke-linecap="round"/>
<path d="M199.332 565.424C199.879 562.371 200.41 560.675 200.606 557.582" stroke="#294064" stroke-miterlimit="10" stroke-linecap="round"/>
<path d="M191.803 560.903C193.245 561.624 197.848 563.188 197.848 563.188" stroke="#294064" stroke-miterlimit="10" stroke-linecap="round"/>
<path d="M204.443 455.826V695.719H208.552V455.826H204.443Z" fill="#75A1E3" stroke="#294064" stroke-miterlimit="10"/>
<path d="M208.057 455.955C207.86 455.508 207.786 456.796 207.786 456.796C207.786 456.796 208.615 463.529 208.17 464.404C207.663 465.401 207.357 465.891 206.047 467.151C205.599 467.584 204.472 468.293 204.472 468.293L204.29 459.616C204.29 459.616 208.75 458.232 209.424 457.881" fill="#294064"/>
<path d="M208.057 455.955C207.86 455.508 207.786 456.796 207.786 456.796C207.786 456.796 208.615 463.529 208.17 464.404C207.663 465.401 207.357 465.891 206.047 467.151C205.599 467.584 204.472 468.293 204.472 468.293L204.29 459.616C204.29 459.616 208.75 458.232 209.424 457.881" stroke="#294064" stroke-miterlimit="10" stroke-linecap="round"/>
<path d="M195.734 450.081C195.737 453.008 203.141 461.152 206.569 461.331C211.262 461.577 219.354 451.327 218.05 449.993C216.891 448.808 212.08 451.266 211.11 451.334C209.981 451.413 208.604 447.878 207.381 447.636C205.357 447.236 203.73 451.682 202.631 451.391C201.442 451.077 195.731 446.808 195.734 450.081Z" fill="#4576C2" stroke="#294064" stroke-miterlimit="10" stroke-linecap="round"/>
<path d="M82.4152 406.896C85.9764 404.888 85.9808 401.859 90.396 396.959C93.5644 393.441 99.0659 390.645 106.191 392.758C113.315 394.87 113.297 399.797 117.114 399.106C120.395 398.51 120.426 394.424 127.335 393.321C133.17 392.39 134.997 396.643 139.536 397.937C143.382 399.035 146.609 393.872 154.214 395.733C164.238 398.186 162.443 407.187 166.304 408.703C170.839 410.482 178.769 403.468 184.091 409.085C189.239 414.517 182.758 420.85 176.312 421.249C176.312 421.249 98.0521 421.001 58.9223 420.877C57.9803 418.437 64.4276 412.89 68.6448 411.304C75.4675 408.739 78.9388 408.857 82.4152 406.896Z" fill="white"/>
<mask id="mask3_1091_2728" style="mask-type:luminance" maskUnits="userSpaceOnUse" x="58" y="392" width="128" height="30">
<path d="M82.4156 406.894C85.9769 404.885 85.9813 401.857 90.3965 396.956C93.5649 393.439 99.0664 390.643 106.192 392.755C113.316 394.867 113.298 399.795 117.115 399.103C120.395 398.508 120.427 394.422 127.335 393.319C133.171 392.387 134.997 396.641 139.536 397.935C143.382 399.032 146.609 393.869 154.215 395.731C164.238 398.183 162.444 407.185 166.304 408.7C170.839 410.48 178.77 403.465 184.091 409.082C189.239 414.515 182.759 420.847 176.312 421.246C176.312 421.246 98.0526 420.998 58.9228 420.874C57.9807 418.434 64.428 412.887 68.6452 411.301C75.468 408.736 78.9393 408.854 82.4156 406.894Z" fill="white"/>
</mask>
<g mask="url(#mask3_1091_2728)">
<path d="M99.0389 390.012C99.0389 389.455 99.7161 390.952 99.7679 391.508C99.8954 392.884 99.7498 394.407 99.6636 395.779C99.4293 399.5 97.9451 403.091 96.4371 406.459C92.5185 415.208 83.0959 427.221 73.1217 428.245" stroke="#75A1E3" stroke-miterlimit="10" stroke-linecap="round"/>
<path d="M145.461 395.992C141.058 394.486 134.627 398.854 130.993 400.904C118.788 407.792 110.225 417.415 103.619 429.739" stroke="#75A1E3" stroke-miterlimit="10" stroke-linecap="round"/>
<path d="M115.797 425.545C115.797 419.063 126.425 414.692 132.763 413.4C147.176 410.462 164.179 416.021 173.46 427.924" stroke="#75A1E3" stroke-miterlimit="10" stroke-linecap="round"/>
<path d="M59.9248 411.996C64.9972 422.764 82.3158 413.48 76.1352 402.486" stroke="#75A1E3" stroke-miterlimit="10" stroke-linecap="round"/>
</g>
<path d="M216.703 563.822C262.297 557.025 261.793 517.977 275.527 502.036C281.592 494.997 295.171 493.419 293.676 511.218C293.008 519.183 281.857 515.027 278.624 527.122C275.389 539.227 230.291 583.062 224.852 594.35" fill="#F2C461"/>
<path d="M216.703 563.822C262.297 557.025 261.793 517.977 275.527 502.036C281.592 494.997 295.171 493.419 293.676 511.218C293.008 519.183 281.857 515.027 278.624 527.122C275.389 539.227 230.291 583.062 224.852 594.35" stroke="#294064" stroke-miterlimit="10" stroke-linecap="round" stroke-linejoin="round"/>
<path d="M-183.864 605.604C-154.98 603.248 58.3083 567.739 86.3928 574.884C111.044 581.156 121.855 596.44 145.583 605.604C167.736 614.162 204.646 611.62 225.721 606.559C247.871 601.238 266.554 586.39 281.468 564.389C295.91 543.081 309.672 505.141 294.182 500.114C276.397 494.342 272.068 539.563 243.134 557.555C216.887 573.878 172.25 567.111 158.877 557.067C137.637 541.114 130.809 510.274 98.6364 500.114C44.6077 483.052 -127.948 489.46 -183.864 489.59" fill="#F4CC85"/>
<path d="M-183.864 605.604C-154.98 603.248 58.3083 567.739 86.3928 574.884C111.044 581.156 121.855 596.44 145.583 605.604C167.736 614.162 204.646 611.62 225.721 606.559C247.871 601.238 266.554 586.39 281.468 564.389C295.91 543.081 309.672 505.141 294.182 500.114C276.397 494.342 272.068 539.563 243.134 557.555C216.887 573.878 172.25 567.111 158.877 557.067C137.637 541.114 130.809 510.274 98.6364 500.114C44.6077 483.052 -127.948 489.46 -183.864 489.59" stroke="#294064" stroke-miterlimit="10" stroke-linecap="round" stroke-linejoin="round"/>
<path d="M138.171 579.719C162.488 580.038 184.377 583.731 206.842 580.443C214.707 579.291 222.03 574.288 221.413 566.807C220.796 559.326 214.67 553.933 207.702 551.661C191.596 546.41 169.3 548.432 149.624 536.086C123.312 519.577 126.03 503.741 77.235 494.324" fill="#F4CC85"/>
<path d="M138.171 579.719C162.488 580.038 184.377 583.731 206.843 580.443C214.707 579.291 222.03 574.288 221.413 566.807C220.796 559.326 214.67 553.933 207.702 551.661C191.596 546.41 169.3 548.432 149.624 536.086C123.312 519.577 126.03 503.741 77.235 494.324" stroke="#294064" stroke-miterlimit="10" stroke-linecap="round" stroke-linejoin="round"/>
<path d="M298.013 504.167C293.834 504.922 290.815 512.84 289.954 518.177C289.452 521.286 288.775 530.739 294.252 530.905C298.122 531.023 299.726 521.66 300.524 517.842C301.464 513.329 301.032 503.621 298.013 504.167Z" fill="#FFD6BF" stroke="#294064" stroke-miterlimit="10" stroke-linecap="round" stroke-linejoin="round"/>
<path d="M192.711 559.753C188.474 562.905 187.321 570.179 190.75 574.647C194.939 580.105 212.866 579.657 217.777 572.391C220.403 568.504 217.664 563.794 214.698 561.676C208.693 557.387 198.127 555.723 192.711 559.753Z" fill="#FFD6BF" stroke="#294064" stroke-miterlimit="10" stroke-linecap="round" stroke-linejoin="round"/>
<path d="M602 649.713C573.116 647.356 354.83 607.202 326.745 614.349C302.093 620.619 288.072 640.547 264.343 649.713C242.192 658.271 205.279 655.729 184.205 650.667C162.055 645.347 143.337 640.574 118.504 617.096C99.7993 599.412 89.9901 587.63 99.3524 580.389C110.824 571.516 139.44 598.287 161.545 607.32C190.158 619.009 237.676 611.219 251.05 601.175C272.29 585.222 279.86 545.988 311.56 534.439C356.907 517.918 546.084 522.442 602 522.572" fill="#A5AB58"/>
<path d="M602 649.713C573.116 647.356 354.83 607.202 326.745 614.349C302.093 620.619 288.072 640.547 264.343 649.713C242.192 658.271 205.279 655.729 184.205 650.667C162.055 645.347 143.337 640.574 118.504 617.096C99.7993 599.412 89.9901 587.63 99.3524 580.389C110.824 571.516 139.44 598.287 161.545 607.32C190.158 619.009 237.676 611.219 251.05 601.175C272.29 585.222 279.86 545.988 311.56 534.439C356.907 517.918 546.084 522.442 602 522.572" stroke="#294064" stroke-miterlimit="10" stroke-linecap="round" stroke-linejoin="round"/>
<path d="M96.894 586.005C100.854 584.475 107.554 589.663 111.068 593.77C113.115 596.164 118.614 603.882 114.025 606.875C110.782 608.991 104.537 601.832 101.869 598.988C98.7167 595.625 94.0313 587.111 96.894 586.005Z" fill="#FDFB90" stroke="#294064" stroke-miterlimit="10" stroke-linecap="round" stroke-linejoin="round"/>
<path d="M258.486 627.937C234.17 628.255 212.28 631.951 189.815 628.661C181.95 627.511 174.628 622.507 175.244 615.026C175.861 607.546 181.986 602.152 188.954 599.879C205.061 594.629 219.533 603.474 239.208 591.128C264.707 575.129 276.454 547.459 309.11 535.249" fill="#A5AB58"/>
<path d="M258.486 627.937C234.17 628.255 212.28 631.951 189.815 628.661C181.95 627.511 174.628 622.507 175.244 615.026C175.861 607.546 181.986 602.152 188.954 599.879C205.061 594.629 219.533 603.474 239.208 591.128C264.707 575.129 276.454 547.459 309.11 535.249" stroke="#294064" stroke-miterlimit="10" stroke-linecap="round" stroke-linejoin="round"/>
<path d="M203.947 607.971C208.183 611.124 209.337 618.398 205.907 622.866C201.717 628.325 183.79 627.876 178.881 620.61C176.254 616.721 178.993 612.012 181.959 609.894C187.963 605.606 198.53 603.942 203.947 607.971Z" fill="#D5C58A" stroke="#294064" stroke-miterlimit="10" stroke-linecap="round" stroke-linejoin="round"/>
<path d="M-189 691.902C-160.117 689.545 43.8945 645.027 71.9787 652.171C96.6304 658.444 116.211 682.738 139.94 691.902C162.092 700.459 199.003 697.917 220.078 692.856C242.227 687.536 260.946 682.763 285.779 659.285C304.483 641.601 314.293 629.819 304.932 622.578C293.458 613.706 264.843 640.476 242.739 649.508C214.126 661.198 166.606 653.407 153.233 643.363C131.993 627.413 124.424 588.178 92.7238 576.628C47.3768 560.107 -122.812 566.964 -178.727 567.094" fill="#FF6D6D"/>
<path d="M-189 691.902C-160.117 689.545 43.8945 645.027 71.9787 652.171C96.6304 658.444 116.211 682.738 139.94 691.902C162.092 700.459 199.003 697.917 220.078 692.856C242.227 687.536 260.946 682.763 285.779 659.285C304.483 641.601 314.293 629.819 304.932 622.578C293.458 613.706 264.843 640.476 242.739 649.508C214.127 661.198 166.606 653.407 153.233 643.363C131.993 627.413 124.424 588.178 92.7238 576.628C47.3768 560.107 -122.812 566.964 -178.727 567.094" stroke="#294064" stroke-miterlimit="10" stroke-linecap="round" stroke-linejoin="round"/>
<path d="M306.501 628.193C302.54 626.663 295.84 631.851 292.327 635.96C290.279 638.352 284.779 646.07 289.37 649.065C292.613 651.179 298.857 644.022 301.526 641.176C304.679 637.813 309.363 629.299 306.501 628.193Z" fill="#FDFB90" stroke="#294064" stroke-miterlimit="10" stroke-linecap="round" stroke-linejoin="round"/>
<path d="M194.398 731.178C169.604 727.789 129.509 721.072 97.895 710.244C87.6135 706.721 73.7861 698.925 76.6445 689.502C79.2789 680.819 96.4191 682.758 104.224 683.667C121.232 685.648 128.988 689.103 145.61 693.216" fill="#3567B4"/>
<path d="M194.398 731.178C169.604 727.789 129.509 721.072 97.895 710.244C87.6135 706.721 73.7861 698.925 76.6445 689.502C79.2789 680.819 96.4191 682.758 104.224 683.667C121.232 685.648 128.988 689.103 145.61 693.216" stroke="#294064" stroke-miterlimit="10" stroke-linecap="round" stroke-linejoin="round"/>
<path d="M593.439 727.671C564.557 725.314 356.094 677.071 328.01 684.218C303.358 690.49 284.925 718.504 261.197 727.671C239.045 736.226 202.134 733.686 181.059 728.625C158.909 723.304 140.191 718.531 115.358 695.054C96.6531 677.369 86.844 665.587 96.2065 658.346C107.678 649.472 136.293 676.244 158.399 685.275C187.012 696.966 234.531 689.176 247.903 679.132C269.143 663.179 276.713 623.944 308.413 612.395C353.76 595.874 537.524 612.265 593.439 612.395" fill="#5486D4"/>
<path d="M593.439 727.671C564.557 725.314 356.094 677.071 328.01 684.218C303.358 690.49 284.925 718.504 261.197 727.671C239.045 736.226 202.134 733.686 181.059 728.625C158.909 723.304 140.191 718.531 115.358 695.054C96.6531 677.369 86.844 665.587 96.2065 658.346C107.678 649.472 136.293 676.244 158.399 685.275C187.012 696.966 234.531 689.176 247.903 679.132C269.143 663.179 276.713 623.944 308.413 612.395C353.76 595.874 537.524 612.265 593.439 612.395" stroke="#294064" stroke-miterlimit="10" stroke-linecap="round" stroke-linejoin="round"/>
<path d="M94.6368 663.96C98.5965 662.43 105.297 667.618 108.811 671.725C110.858 674.119 116.357 681.837 111.768 684.83C108.525 686.946 102.28 679.787 99.612 676.943C96.4595 673.578 91.7741 665.064 94.6368 663.96Z" fill="#75A1E3" stroke="#294064" stroke-miterlimit="10" stroke-linecap="round" stroke-linejoin="round"/>
<path d="M77.9956 691.821C81.3854 689.266 89.2505 692.421 93.7545 695.411C96.3781 697.153 103.78 703.072 100.185 707.206C97.6449 710.128 89.6791 704.952 86.3345 702.946C82.382 700.575 75.545 693.667 77.9956 691.821Z" fill="#5486D4" stroke="#294064" stroke-miterlimit="10" stroke-linecap="round" stroke-linejoin="round"/>
<path d="M135.583 669.805C159.9 670.124 181.789 673.819 204.255 670.529C212.119 669.379 219.441 664.376 218.824 656.894C218.209 649.412 212.082 644.02 205.115 641.748C189.008 636.497 174.537 645.342 154.861 632.997C129.361 616.997 121.265 579.095 75.7368 571.906" fill="#FF6D6D"/>
<path d="M135.583 669.805C159.9 670.124 181.789 673.819 204.255 670.529C212.119 669.379 219.441 664.376 218.824 656.894C218.209 649.412 212.082 644.02 205.115 641.748C189.008 636.497 174.537 645.342 154.861 632.997C129.361 616.997 121.265 579.095 75.7368 571.906" stroke="#294064" stroke-miterlimit="10" stroke-linecap="round" stroke-linejoin="round"/>
<path d="M190.123 649.84C185.886 652.993 184.733 660.267 188.162 664.736C192.352 670.194 210.279 669.746 215.188 662.48C217.814 658.591 215.077 653.882 212.111 651.763C206.106 647.475 195.539 645.812 190.123 649.84Z" fill="#FC8BB9" stroke="#294064" stroke-miterlimit="10" stroke-linecap="round" stroke-linejoin="round"/>
<path d="M258.03 707.948C233.713 708.267 211.825 711.963 189.36 708.674C181.494 707.523 174.173 702.519 174.789 695.037C175.406 687.558 181.531 682.163 188.499 679.891C204.607 674.64 219.077 683.486 238.754 671.14C264.253 655.14 268.524 623.809 314.661 610.215" fill="#5486D4"/>
<path d="M258.03 707.948C233.713 708.267 211.825 711.963 189.36 708.674C181.494 707.523 174.173 702.519 174.789 695.037C175.406 687.558 181.531 682.163 188.499 679.891C204.607 674.64 219.077 683.486 238.754 671.14C264.253 655.14 268.524 623.809 314.661 610.215" stroke="#294064" stroke-miterlimit="10" stroke-linecap="round" stroke-linejoin="round"/>
<path d="M203.492 687.983C207.728 691.135 208.88 698.409 205.452 702.878C201.262 708.336 183.335 707.888 178.426 700.622C175.799 696.735 178.538 692.026 181.504 689.905C187.508 685.617 198.075 683.954 203.492 687.983Z" fill="#75A1E3" stroke="#294064" stroke-miterlimit="10" stroke-linecap="round" stroke-linejoin="round"/>
<path d="M79.0836 693.213C80.0029 695.051 81.7847 696.676 83.222 698.114" stroke="white" stroke-miterlimit="10" stroke-linecap="round" stroke-linejoin="round"/>
<path d="M84.6013 699.348C84.7124 699.426 84.8232 699.506 84.9343 699.586" stroke="white" stroke-miterlimit="10" stroke-linecap="round" stroke-linejoin="round"/>
<path d="M95.0584 666.077C95.0584 668.489 99.1874 673.826 100.838 675.477" stroke="white" stroke-miterlimit="10" stroke-linecap="round" stroke-linejoin="round"/>
<path d="M102.135 676.883C102.91 677.658 103.545 678.857 104.566 679.367" stroke="white" stroke-miterlimit="10" stroke-linecap="round" stroke-linejoin="round"/>
<path d="M188.827 704.04C190.349 705.138 195.484 704.353 197.068 703.859" stroke="white" stroke-miterlimit="10" stroke-linecap="round" stroke-linejoin="round"/>
<path d="M200.539 702.852C201.544 702.325 202.361 701.647 203.142 700.837" stroke="white" stroke-miterlimit="10" stroke-linecap="round" stroke-linejoin="round"/>
<path d="M195.61 650.211C198.743 650.211 202.058 650.215 205.038 651.332" stroke="white" stroke-miterlimit="10" stroke-linecap="round" stroke-linejoin="round"/>
<path d="M208.911 652.625C209.709 653.024 210.486 653.421 211.27 653.861" stroke="white" stroke-miterlimit="10" stroke-linecap="round" stroke-linejoin="round"/>
<path d="M184.354 622.188C186.435 623.685 189.281 624.473 191.833 624.52" stroke="white" stroke-miterlimit="10" stroke-linecap="round" stroke-linejoin="round"/>
<path d="M194.175 624.53C194.993 624.661 195.829 624.382 196.603 624.141" stroke="white" stroke-miterlimit="10" stroke-linecap="round" stroke-linejoin="round"/>
<path d="M213.485 573.846C211.124 574.687 208.775 575.46 206.254 575.571" stroke="white" stroke-miterlimit="10" stroke-linecap="round" stroke-linejoin="round"/>
<path d="M202.62 575.714C201.941 575.63 201.252 575.599 200.57 575.517" stroke="white" stroke-miterlimit="10" stroke-linecap="round" stroke-linejoin="round"/>
<path d="M298.369 506.41C299.175 508.254 299.093 510.475 299.138 512.448" stroke="white" stroke-miterlimit="10" stroke-linecap="round" stroke-linejoin="round"/>
<path d="M298.974 514.764C298.941 515.846 298.745 516.75 298.476 517.815" stroke="white" stroke-miterlimit="10" stroke-linecap="round" stroke-linejoin="round"/>
</g>
<defs>
<clipPath id="clip0_1091_2728">
<path d="M0 0H414V841C414 852.046 405.046 861 394 861H20C8.95432 861 0 852.046 0 841V0Z" fill="white"/>
</clipPath>
</defs>
</svg>
