<svg width="414" height="861" viewBox="0 0 414 861" fill="none" xmlns="http://www.w3.org/2000/svg">
<g clip-path="url(#clip0_1091_3009)">
<path d="M0 0H414V841C414 852.046 405.046 861 394 861H20C8.95432 861 0 852.046 0 841V0Z" fill="#EFA5C6"/>
<mask id="mask0_1091_3009" style="mask-type:luminance" maskUnits="userSpaceOnUse" x="0" y="-65" width="444" height="961">
<path d="M444 -65H0V895.927H444V-65Z" fill="white"/>
</mask>
<g mask="url(#mask0_1091_3009)">
<path d="M0 -65H444V895.927H0V-65Z" fill="#EFA5C6"/>
<mask id="mask1_1091_3009" style="mask-type:luminance" maskUnits="userSpaceOnUse" x="-6" y="-26" width="445" height="962">
<path d="M438.638 -25.3159H-5.36237V935.612H438.638V-25.3159Z" fill="white"/>
</mask>
<g mask="url(#mask1_1091_3009)">
<path d="M-5.36237 -25.3159H438.638V935.612H-5.36237V-25.3159Z" fill="#EFA5C6"/>
</g>
<path d="M274.167 404.042L303.548 396.037L300.621 446.653L270.172 451.9L274.167 404.042Z" fill="#FF6D6D" stroke="#294064" stroke-miterlimit="10" stroke-linejoin="round"/>
<path d="M213.76 380.619L257.866 361.137L292.874 412.784L248.483 436.872L213.76 380.619Z" stroke="white" stroke-miterlimit="10" stroke-linejoin="round"/>
<path d="M311.698 640.981L364.958 671.304L324.361 742.613L271.1 712.291L311.698 640.981Z" fill="white" stroke="#294064" stroke-miterlimit="10" stroke-linejoin="round"/>
<path d="M319.033 652.003L284.851 712.043" stroke="#FF6D6D" stroke-miterlimit="10" stroke-linecap="round" stroke-linejoin="round"/>
<path d="M310.758 656.947L351.568 680.18" stroke="#FF6D6D" stroke-miterlimit="10" stroke-linecap="round" stroke-linejoin="round"/>
<path d="M306.796 663.93L347.607 687.164" stroke="#FF6D6D" stroke-miterlimit="10" stroke-linecap="round" stroke-linejoin="round"/>
<path d="M302.849 671.274L343.659 694.509" stroke="#FF6D6D" stroke-miterlimit="10" stroke-linecap="round" stroke-linejoin="round"/>
<path d="M298.584 678.924L339.395 702.157" stroke="#FF6D6D" stroke-miterlimit="10" stroke-linecap="round" stroke-linejoin="round"/>
<path d="M294.261 686.909L335.071 710.142" stroke="#FF6D6D" stroke-miterlimit="10" stroke-linecap="round" stroke-linejoin="round"/>
<path d="M290.335 694.801L331.145 718.035" stroke="#FF6D6D" stroke-miterlimit="10" stroke-linecap="round" stroke-linejoin="round"/>
<path d="M285.788 702.677L326.598 725.912" stroke="#FF6D6D" stroke-miterlimit="10" stroke-linecap="round" stroke-linejoin="round"/>
<path d="M27.0776 653.922L63.6524 604.744L129.494 653.714L92.92 702.891L27.0776 653.922Z" fill="#FFF4E8" stroke="#294064" stroke-miterlimit="10" stroke-linejoin="round"/>
<path d="M38.9113 647.982L94.348 689.212" stroke="#5486D4" stroke-miterlimit="10" stroke-linecap="round" stroke-linejoin="round"/>
<path d="M42.8116 656.795L70.8368 619.114" stroke="#5486D4" stroke-miterlimit="10" stroke-linecap="round" stroke-linejoin="round"/>
<path d="M49.2592 661.579L77.2844 623.898" stroke="#5486D4" stroke-miterlimit="10" stroke-linecap="round" stroke-linejoin="round"/>
<path d="M56.0703 666.389L84.0955 628.707" stroke="#5486D4" stroke-miterlimit="10" stroke-linecap="round" stroke-linejoin="round"/>
<path d="M63.1452 671.554L91.1704 633.873" stroke="#5486D4" stroke-miterlimit="10" stroke-linecap="round" stroke-linejoin="round"/>
<path d="M70.5411 676.816L98.5663 639.134" stroke="#5486D4" stroke-miterlimit="10" stroke-linecap="round" stroke-linejoin="round"/>
<path d="M77.8973 681.671L105.922 643.99" stroke="#5486D4" stroke-miterlimit="10" stroke-linecap="round" stroke-linejoin="round"/>
<path d="M85.1663 687.143L113.192 649.461" stroke="#5486D4" stroke-miterlimit="10" stroke-linecap="round" stroke-linejoin="round"/>
<path d="M84.2911 435.684C84.2911 417.237 99.2453 402.283 117.692 402.283C136.14 402.283 151.094 417.237 151.094 435.684C151.094 454.131 136.14 469.085 117.692 469.085C99.2453 469.085 84.2911 454.131 84.2911 435.684Z" fill="#5486D4" stroke="#294064" stroke-miterlimit="10" stroke-linejoin="round"/>
<path d="M89.8369 408.437C89.8369 401.839 95.1864 396.489 101.785 396.489C108.384 396.489 113.734 401.839 113.734 408.437C113.734 415.036 108.384 420.386 101.785 420.386C95.1864 420.386 89.8369 415.036 89.8369 408.437Z" fill="#FFF4E8"/>
<path d="M80.6233 704.004C80.6233 694.533 88.5093 686.854 98.2371 686.854C107.965 686.854 115.851 694.533 115.851 704.004C115.851 713.475 107.965 721.154 98.2371 721.154C88.5093 721.154 80.6233 713.475 80.6233 704.004Z" fill="#A5AB58" stroke="#294064" stroke-miterlimit="10" stroke-linejoin="round"/>
<path d="M236.287 391.827L260.161 416.648L231.198 431.476L208.802 406.829L236.287 391.827Z" fill="#75A1E3"/>
<path d="M251.333 389.409C251.333 384.835 255.04 381.127 259.614 381.127C264.187 381.127 267.894 384.835 267.894 389.409C267.894 393.982 264.187 397.689 259.614 397.689C255.04 397.689 251.333 393.982 251.333 389.409Z" fill="#F4CC85"/>
<path d="M193.268 470.218C192.43 467.362 194.07 464.369 196.928 463.541L330.72 424.742C333.567 423.916 336.545 425.551 337.376 428.396L390.913 611.507C391.788 614.503 389.937 617.613 386.886 618.271L250.555 647.648C247.803 648.241 245.059 646.61 244.266 643.907L193.268 470.218Z" fill="#F4CC85" stroke="#294064" stroke-miterlimit="10" stroke-linejoin="round"/>
<path d="M46.7496 512.51C45.9018 509.651 47.5438 506.648 50.4084 505.819L185.844 466.617C188.709 465.788 191.703 467.451 192.512 470.324L241.649 644.853C242.41 647.557 240.962 650.39 238.326 651.356L108.057 699.151C105.144 700.22 101.934 698.607 101.052 695.633L46.7496 512.51Z" fill="#F4CC85" stroke="#294064" stroke-miterlimit="10" stroke-linejoin="round"/>
<path d="M226.821 633.247L250.693 626.338L256.673 646.998L260.747 650.015L230.994 658.493L232.767 653.791L226.821 633.247Z" fill="#ECBE6B" stroke="#294064" stroke-miterlimit="10" stroke-linejoin="round"/>
<path d="M191.337 466.32L332.492 425.792L384.362 604.563L243.232 645.77L191.337 466.32Z" fill="#FFF4E8" stroke="#294064" stroke-miterlimit="10" stroke-linejoin="round"/>
<path d="M50.4425 508.199L191.044 465.113L243.213 645.783L102.141 686.554L50.4425 508.199Z" fill="#FFF4E8" stroke="#294064" stroke-miterlimit="10" stroke-linejoin="round"/>
<path d="M190.219 463.207L327.177 423.624L378.555 601.392L241.598 640.975L190.219 463.207Z" fill="white" stroke="#294064" stroke-miterlimit="10" stroke-linejoin="round"/>
<path d="M53.4305 502.725L190.388 463.142L241.766 640.909L104.808 680.492L53.4305 502.725Z" fill="#FFF4E8" stroke="#294064" stroke-miterlimit="10" stroke-linejoin="round"/>
<path d="M83.5317 580.064C86.8262 579.872 86.3112 575.185 89.4553 574.428C91.5824 573.917 93.1689 578.823 96.4235 578.271C102.666 577.213 105.254 571.949 105.254 571.949" stroke="#5486D4" stroke-width="2" stroke-miterlimit="10" stroke-linecap="round" stroke-linejoin="round"/>
<path d="M86.7931 591.97C90.0876 591.778 89.5726 587.091 92.7167 586.334C94.8439 585.823 96.4303 590.729 99.6849 590.177C105.927 589.119 108.515 583.855 108.515 583.855" stroke="#5486D4" stroke-width="2" stroke-miterlimit="10" stroke-linecap="round" stroke-linejoin="round"/>
<path d="M90.1302 604.333C93.4247 604.141 92.9097 599.454 96.0538 598.697C98.181 598.185 99.7673 603.091 103.022 602.54C109.265 601.483 111.853 596.218 111.853 596.218" stroke="#5486D4" stroke-width="2" stroke-miterlimit="10" stroke-linecap="round" stroke-linejoin="round"/>
<path d="M56.3839 435.918L190.389 463.205L241.766 640.973L109.762 620.56L56.3839 435.918Z" fill="white" stroke="#294064" stroke-miterlimit="10" stroke-linejoin="round"/>
<path d="M94.7634 512.197C94.7634 512.197 96.1717 511.403 98.0014 513.445C99.8311 515.487 98.5882 520.591 102.117 520.796C105.616 520.999 105.234 513.729 109.449 513.316C113.328 512.936 111.575 521.831 115.671 522.097C119.305 522.334 120.253 514.601 123.265 514.53C127.048 514.44 125.494 523.086 129.554 523.618C133.246 524.102 133.12 515.552 137.536 516.011C140.801 516.351 139.874 524.567 143.442 524.873C147.008 525.178 147.37 517.572 150.887 517.391C154.403 517.209 153.743 525.741 157.262 525.963C160.782 526.184 161.391 518.16 164.965 518.274C168.538 518.388 167.426 526.798 170.777 527.459C174.754 528.243 174.909 519.772 178.749 520.024C182.464 520.268 180.724 528.283 184.722 528.841C188.131 529.317 189.205 520.804 192.599 521.152C197.269 521.631 193.55 532.125 201.093 530.083" stroke="#3567B4" stroke-width="2" stroke-miterlimit="10" stroke-linecap="round" stroke-linejoin="round"/>
<path d="M99.2069 532.44C99.2069 532.44 100.615 531.646 102.445 533.689C104.275 535.731 103.032 540.833 106.56 541.038C110.06 541.242 109.678 533.972 113.892 533.559C117.772 533.18 116.019 542.074 120.115 542.341C123.748 542.577 124.697 534.845 127.709 534.773C131.491 534.683 129.938 543.33 133.998 543.861C137.689 544.344 137.563 535.795 141.98 536.255C145.245 536.594 144.318 544.81 147.885 545.116C151.452 545.421 151.814 537.815 155.33 537.634C158.846 537.453 158.186 545.985 161.706 546.206C165.225 546.426 165.835 538.404 169.408 538.517C172.982 538.631 171.869 547.042 175.22 547.702C179.198 548.486 179.353 540.015 183.192 540.268C186.909 540.512 185.167 548.525 189.165 549.083C192.575 549.56 193.649 541.047 197.042 541.395C201.713 541.875 197.994 552.368 205.537 550.326" stroke="#3567B4" stroke-width="2" stroke-miterlimit="10" stroke-linecap="round" stroke-linejoin="round"/>
<path d="M104.803 552.683C104.803 552.683 106.211 551.889 108.041 553.931C109.871 555.974 108.628 561.077 112.156 561.282C115.655 561.485 115.273 554.215 119.488 553.802C123.367 553.422 121.614 562.316 125.711 562.583C129.344 562.82 130.292 555.087 133.304 555.016C137.087 554.926 135.534 563.572 139.593 564.104C143.286 564.588 143.159 556.037 147.576 556.497C150.841 556.838 149.914 565.053 153.481 565.358C157.048 565.664 157.409 558.058 160.926 557.877C164.442 557.695 163.782 566.228 167.302 566.448C170.821 566.67 171.431 558.646 175.004 558.76C178.577 558.874 177.465 567.284 180.816 567.944C184.794 568.729 184.949 560.258 188.788 560.51C192.504 560.754 190.762 568.769 194.761 569.327C198.17 569.802 199.245 561.289 202.638 561.638C207.309 562.117 203.59 572.61 211.133 570.569" stroke="#3567B4" stroke-width="2" stroke-miterlimit="10" stroke-linecap="round" stroke-linejoin="round"/>
<path d="M112.045 572.926C112.045 572.926 113.453 572.131 115.283 574.173C117.112 576.217 115.87 581.319 119.398 581.524C122.897 581.727 122.515 574.458 126.73 574.045C130.609 573.665 128.856 582.559 132.952 582.826C136.585 583.062 137.535 575.33 140.546 575.258C144.328 575.168 142.775 583.816 146.835 584.347C150.527 584.83 150.4 576.281 154.817 576.74C158.082 577.08 157.155 585.295 160.723 585.601C164.289 585.907 164.651 578.301 168.168 578.119C171.684 577.938 171.024 586.471 174.543 586.691C178.063 586.912 178.672 578.888 182.246 579.002C185.819 579.116 184.706 587.527 188.058 588.188C192.035 588.971 192.19 580.501 196.03 580.753C199.745 580.997 198.005 589.011 202.002 589.569C205.412 590.045 206.486 581.532 209.88 581.881C214.55 582.36 210.831 592.853 218.374 590.811" stroke="#3567B4" stroke-width="2" stroke-miterlimit="10" stroke-linecap="round" stroke-linejoin="round"/>
<path d="M107.005 458L128.42 489.252" stroke="#C1474A" stroke-width="2" stroke-miterlimit="10" stroke-linecap="round" stroke-linejoin="round"/>
<path d="M101.034 473.295L132.567 475.745" stroke="#C1474A" stroke-width="2" stroke-miterlimit="10" stroke-linecap="round" stroke-linejoin="round"/>
<path d="M135.004 481.628L185.684 493.036" stroke="#5486D4" stroke-width="2" stroke-miterlimit="10" stroke-linecap="round" stroke-linejoin="round"/>
<path d="M171.569 497.218L185.689 493.073" stroke="#5486D4" stroke-width="2" stroke-miterlimit="10" stroke-linecap="round" stroke-linejoin="round"/>
<path d="M171.212 476.228L185.552 492.784" stroke="#5486D4" stroke-width="2" stroke-miterlimit="10" stroke-linecap="round" stroke-linejoin="round"/>
<path d="M298.203 472.58C280.103 475.159 277.041 504.375 298.474 503.102C312.819 502.25 324.602 489.775 315.221 476.316" stroke="#4576C2" stroke-width="2" stroke-miterlimit="10" stroke-linecap="round" stroke-linejoin="round"/>
<path d="M285.441 481.998C275.268 476.146 258.418 476.914 243.251 487.616" stroke="#4576C2" stroke-width="2" stroke-miterlimit="10" stroke-linecap="round" stroke-linejoin="round"/>
<path d="M245.245 476.396L243.021 487.75" stroke="#4576C2" stroke-width="2" stroke-miterlimit="10" stroke-linecap="round" stroke-linejoin="round"/>
<path d="M257.762 490.38L242.748 487.921" stroke="#4576C2" stroke-width="2" stroke-miterlimit="10" stroke-linecap="round" stroke-linejoin="round"/>
<path d="M247.261 508.65C237.015 520.534 236.148 541.127 256.599 538.604C264.853 537.586 268.799 533.715 270.324 531.35C278.799 518.208 267.525 512.534 257.59 512.638C250.357 512.714 235.111 516.669 235.111 516.669" stroke="#C1474A" stroke-width="2" stroke-miterlimit="10" stroke-linecap="round" stroke-linejoin="round"/>
<path d="M261.051 530.849C261.051 530.849 267.739 536.088 272.861 538.198C284.138 542.847 299.573 544.569 310.245 537.573" stroke="#C1474A" stroke-width="2" stroke-miterlimit="10" stroke-linecap="round" stroke-linejoin="round"/>
<path d="M304.95 551.143L310.276 537.686" stroke="#C1474A" stroke-width="2" stroke-miterlimit="10" stroke-linecap="round" stroke-linejoin="round"/>
<path d="M295.492 532.742L310.238 537.658" stroke="#C1474A" stroke-width="2" stroke-miterlimit="10" stroke-linecap="round" stroke-linejoin="round"/>
<path d="M366.095 377.92C362.858 377.936 360.815 379.14 359.664 381.629C358.779 383.542 358.45 385.734 358.099 390.754C358.078 391.051 357.593 398.092 357.578 398.287C356.948 406.682 356.749 409.291 356.738 411.062C356.692 418.073 357.934 420.988 362.213 421.549C365.366 421.963 367.427 420.821 368.586 418.247C369.432 416.371 369.749 414.326 370.122 409.527C370.186 408.7 370.465 405.388 370.499 404.979C371.301 395.26 371.105 390.929 368.818 388.9C366.397 386.753 363.119 387.364 361.518 389.827C359.917 392.291 359.618 395.037 359.548 402.863C359.537 404.148 359.529 404.66 359.519 405.355C359.512 405.858 359.914 406.245 360.416 406.253C360.92 406.261 361.336 405.858 361.343 405.355C361.355 404.654 361.332 404.182 361.343 402.893C361.41 395.496 361.7 392.85 363.024 390.812C364.043 389.245 366.051 388.886 367.601 390.261C369.215 391.693 369.405 395.967 368.674 404.833C368.639 405.241 368.361 408.549 368.296 409.382C367.942 413.945 367.658 415.889 366.935 417.494C366.106 419.334 364.804 420.063 362.445 419.753C359.406 419.355 358.522 417.254 358.562 411.062C358.573 409.356 358.751 406.742 359.374 398.431C359.388 398.237 359.904 391.166 359.924 390.87C360.554 381.856 361.516 379.767 366.095 379.746C368.86 379.733 370.421 381.206 371.136 383.859C371.509 385.248 371.594 386.737 371.512 388.031C371.503 388.18 371.489 388.302 371.483 388.35C371.473 388.563 371.202 395.743 371.107 397.794C371.026 399.538 370.949 401.074 370.875 402.4C370.775 404.184 370.664 405.509 370.585 406.282C370.534 406.782 370.897 407.246 371.396 407.297C371.897 407.347 372.359 406.956 372.41 406.456C372.493 405.648 372.57 404.325 372.671 402.516C372.746 401.184 373.303 388.613 373.309 388.466C373.312 388.457 373.326 388.326 373.338 388.147C373.43 386.672 373.337 385.007 372.903 383.396C371.991 380.014 369.785 377.903 366.095 377.92Z" fill="#F4CC85" stroke="#294064" stroke-miterlimit="10" stroke-linecap="round" stroke-linejoin="round"/>
<path d="M368.951 453.818C371.324 452.047 372.173 450.051 371.667 447.594C371.277 445.706 370.328 443.914 367.857 440.031C367.711 439.801 364.241 434.357 364.147 434.207C360.045 427.689 358.774 425.661 357.819 424.352C354.042 419.17 351.544 417.701 348.091 419.613C345.547 421.023 344.653 422.983 345.198 425.508C345.595 427.346 346.474 429.024 348.809 432.757C349.211 433.4 350.806 435.988 351.004 436.307C355.697 443.892 358.195 446.972 360.98 447.221C363.928 447.485 366.007 445.253 365.846 442.571C365.684 439.889 364.412 437.706 360.209 431.911C359.519 430.959 359.246 430.579 358.876 430.062C358.608 429.688 358.101 429.622 357.727 429.89C357.353 430.157 357.266 430.68 357.533 431.054C357.907 431.575 358.18 431.911 358.872 432.865C362.844 438.342 364.069 440.447 364.202 442.665C364.305 444.372 363.023 445.727 361.135 445.559C359.17 445.382 356.706 442.342 352.425 435.421C352.228 435.103 350.635 432.519 350.23 431.871C348.01 428.321 347.162 426.738 346.822 425.164C346.432 423.36 346.993 422.116 348.898 421.061C351.35 419.702 353.141 420.768 356.477 425.344C357.397 426.605 358.686 428.624 362.746 435.076C362.841 435.228 366.306 440.708 366.451 440.937C370.888 447.91 371.315 449.97 367.959 452.475C365.933 453.987 363.982 453.752 362.015 452.189C360.985 451.371 360.114 450.321 359.471 449.325C359.396 449.21 359.341 449.113 359.318 449.075C359.21 448.912 355.506 443.483 354.462 441.923C353.574 440.596 352.794 439.424 352.128 438.408C351.233 437.042 350.593 436.006 350.232 435.395C349.997 435 349.479 434.856 349.084 435.09C348.688 435.325 348.56 435.864 348.795 436.259C349.173 436.898 349.835 437.913 350.744 439.299C351.414 440.32 357.837 449.87 357.913 449.981C357.915 449.99 357.976 450.094 358.065 450.232C358.798 451.367 359.772 452.541 360.967 453.49C363.475 455.483 366.246 455.837 368.951 453.818Z" fill="#5486D4" stroke="#294064" stroke-miterlimit="10" stroke-linecap="round" stroke-linejoin="round"/>
<path d="M53.491 480.472C56.3516 478.337 57.3754 475.931 56.7649 472.968C56.2958 470.691 55.151 468.532 52.1716 463.848C51.9953 463.572 47.8121 457.009 47.6976 456.827C42.7531 448.968 41.2202 446.523 40.0696 444.945C35.515 438.697 32.5033 436.925 28.3402 439.232C25.2723 440.932 24.1938 443.295 24.8519 446.339C25.3313 448.555 26.3908 450.577 29.2051 455.079C29.6902 455.855 31.614 458.974 31.852 459.36C37.5097 468.505 40.5218 472.218 43.8798 472.518C47.4344 472.836 49.9419 470.145 49.7473 466.911C49.5526 463.677 48.0173 461.045 42.9505 454.058C42.1185 452.91 41.7897 452.453 41.3433 451.829C41.0206 451.379 40.409 451.299 39.9582 451.622C39.5074 451.944 39.4018 452.575 39.7246 453.025C40.1742 453.654 40.5039 454.059 41.3384 455.209C46.1274 461.814 47.6046 464.35 47.7656 467.025C47.8894 469.083 46.3435 470.717 44.0666 470.513C41.698 470.302 38.7272 466.635 33.5657 458.292C33.3286 457.908 31.4073 454.792 30.9188 454.011C28.2427 449.731 27.2203 447.821 26.8101 445.924C26.3397 443.748 27.0166 442.248 29.3118 440.976C32.2685 439.338 34.4283 440.622 38.4508 446.141C39.5594 447.661 41.1148 450.096 46.0096 457.876C46.1241 458.057 50.3013 464.666 50.4769 464.942C55.8264 473.35 56.3419 475.832 52.2949 478.853C49.8514 480.677 47.5006 480.392 45.128 478.508C43.886 477.521 42.836 476.256 42.0599 475.055C41.9707 474.917 41.9031 474.799 41.8768 474.753C41.7461 474.558 37.2809 468.011 36.0211 466.13C34.9499 464.531 34.0106 463.117 33.2077 461.893C32.1277 460.245 31.3571 458.996 30.9205 458.26C30.6379 457.783 30.0134 457.609 29.5366 457.892C29.0596 458.175 28.9052 458.825 29.1878 459.302C29.6443 460.073 30.4428 461.295 31.5388 462.967C32.3456 464.198 40.0905 475.713 40.1821 475.847C40.1846 475.856 40.2579 475.983 40.3652 476.148C41.2496 477.517 42.4235 478.933 43.8644 480.077C46.8893 482.48 50.2296 482.906 53.491 480.472Z" fill="#FCCC78" stroke="#294064" stroke-miterlimit="10" stroke-linecap="round" stroke-linejoin="round"/>
<path d="M111.208 667.008C112.838 669.406 114.754 670.321 117.179 669.932C119.042 669.633 120.835 668.782 124.74 666.532C124.972 666.398 130.445 663.239 130.597 663.153C137.149 659.422 139.187 658.266 140.508 657.389C145.74 653.917 147.285 651.538 145.562 648.078C144.292 645.528 142.414 644.569 139.921 644.994C138.106 645.303 136.427 646.091 132.676 648.213C132.029 648.58 129.429 650.029 129.108 650.207C121.487 654.471 118.367 656.782 118.003 659.495C117.619 662.367 119.712 664.498 122.343 664.455C124.973 664.413 127.163 663.261 133.013 659.401C133.973 658.767 134.356 658.517 134.878 658.176C135.256 657.931 135.342 657.437 135.096 657.06C134.85 656.683 134.342 656.574 133.965 656.821C133.439 657.163 133.099 657.416 132.136 658.052C126.608 661.701 124.497 662.809 122.321 662.844C120.647 662.871 119.377 661.558 119.624 659.719C119.88 657.805 122.96 655.526 129.913 651.636C130.233 651.457 132.829 650.01 133.48 649.642C137.048 647.624 138.635 646.863 140.187 646.598C141.969 646.293 143.162 646.896 144.112 648.804C145.335 651.261 144.216 652.967 139.596 656.033C138.323 656.878 136.293 658.053 129.806 661.746C129.655 661.833 124.144 664.985 123.914 665.118C116.903 669.157 114.87 669.487 112.564 666.096C111.172 664.048 111.486 662.151 113.1 660.294C113.945 659.321 115.009 658.515 116.011 657.928C116.126 657.861 116.224 657.81 116.262 657.791C116.425 657.691 121.896 654.303 123.466 653.348C124.802 652.536 125.982 651.825 127.005 651.217C128.38 650.399 129.42 649.819 130.033 649.492C130.43 649.279 130.593 648.779 130.381 648.382C130.169 647.984 129.647 647.836 129.25 648.048C128.609 648.391 127.588 648.996 126.193 649.825C125.166 650.436 115.548 656.307 115.435 656.377C115.428 656.378 115.323 656.433 115.184 656.514C114.042 657.183 112.852 658.085 111.872 659.213C109.815 661.581 109.35 664.275 111.208 667.008Z" fill="#A5AB58" stroke="#294064" stroke-miterlimit="10" stroke-linecap="round" stroke-linejoin="round"/>
<g style="mix-blend-mode:multiply">
<path opacity="0.498062" d="M339.519 435.178L336.319 439.126L337.224 442.737L333.534 445.83L331.397 452.343L322.234 457.963L316.556 473.607L312.821 483.491L338.197 472.13C338.197 472.13 338.196 472.073 338.197 472.071L339.233 466.183L343.215 463.078L342.183 459.358L345.472 455.988L339.519 435.178Z" fill="#6365C3" fill-opacity="0.5"/>
</g>
<path d="M325.324 350.563C325.725 348.213 327.954 346.631 330.305 347.031L342.81 349.157C345.16 349.557 346.743 351.786 346.342 354.137L328.239 460.607L307.221 457.033L325.324 350.563Z" fill="#FCCC78" stroke="#294064" stroke-miterlimit="10" stroke-linejoin="round"/>
<path d="M342.751 351.502L324.174 459.919L328.238 460.61L346.718 352.033L342.751 351.502Z" fill="#FF6D6D" stroke="#294064" stroke-miterlimit="10" stroke-linejoin="round"/>
<path d="M329.626 338.434C329.425 338.496 329.226 338.574 329.037 338.663C327.777 339.258 326.829 340.446 326.6 341.927L325.129 351.018L328.78 354.256L341.687 356.549L346.36 354.37L347.78 345.195C348.146 342.826 346.521 340.608 344.152 340.243L331.552 338.298C330.886 338.195 330.231 338.249 329.626 338.434Z" fill="#C1474A" stroke="#294064" stroke-miterlimit="10" stroke-linejoin="round"/>
<path d="M307.221 457.023L312.801 483.351L328.265 460.607C328.265 460.607 326.956 456.67 324.485 456.264C322.016 455.858 318.453 458.602 318.453 458.602C318.453 458.602 315.596 454.683 312.768 454.218C309.942 453.754 307.221 457.023 307.221 457.023Z" fill="#FFD6BF" stroke="#294064" stroke-miterlimit="10" stroke-linecap="round" stroke-linejoin="round"/>
<path d="M310.242 471.18L312.68 483.307L319.503 473.143C319.503 473.143 317.203 471.788 314.823 471.305C312.442 470.822 310.242 471.18 310.242 471.18Z" fill="#434343" stroke="#294064" stroke-miterlimit="10" stroke-linecap="round" stroke-linejoin="round"/>
<path d="M344.795 352.273L345.672 346.353" stroke="#294064" stroke-miterlimit="10" stroke-linecap="round" stroke-linejoin="round"/>
<path d="M318.428 456.362L322.087 433.428" stroke="#294064" stroke-miterlimit="10" stroke-linecap="round" stroke-linejoin="round"/>
<path d="M322.978 427.654L331.556 375.758" stroke="#294064" stroke-miterlimit="10" stroke-linecap="round" stroke-linejoin="round"/>
<path d="M288.994 667.263C291.969 657.695 281.77 648.051 279.708 657.521C277.914 665.756 284.45 678.071 284.45 678.071C284.45 678.071 276.396 667.306 267.195 663.165C255.765 658.022 248.277 663.731 249.296 671.246C250.315 678.761 263.535 703.142 271.271 693.223C276.039 687.11 262.507 678.923 255.764 677.494C246.701 675.574 239.312 682.193 242.197 689.997" stroke="white" stroke-miterlimit="10" stroke-linecap="round" stroke-linejoin="round"/>
<path d="M300.143 382.222C297.973 380.857 293.012 378.538 291.204 372.879C287.482 361.229 302.96 360.6 308.552 374.883C311.665 382.833 311.127 395.22 311.127 395.22C311.127 395.22 312.847 355.871 319.2 345.802" stroke="white" stroke-miterlimit="10" stroke-linecap="round" stroke-linejoin="round"/>
<path d="M299.603 352.556C304.236 355.406 305.848 359.904 307.943 364.726C307.893 356.547 307.56 351.708 310.816 344.398" stroke="white" stroke-miterlimit="10" stroke-linecap="round" stroke-linejoin="round"/>
<path d="M309.567 617.775L338.698 609.113" stroke="#294064" stroke-miterlimit="10" stroke-linecap="round" stroke-linejoin="round"/>
<path d="M345.407 607.183L359.708 602.925" stroke="#294064" stroke-miterlimit="10" stroke-linecap="round" stroke-linejoin="round"/>
<path d="M345.836 502.751L354.249 531.259" stroke="#294064" stroke-miterlimit="10" stroke-linecap="round" stroke-linejoin="round"/>
<path d="M220.665 633.961L188.791 629.104" stroke="#294064" stroke-miterlimit="10" stroke-linecap="round" stroke-linejoin="round"/>
<path d="M183.442 628.376L172.966 626.687" stroke="#294064" stroke-miterlimit="10" stroke-linecap="round" stroke-linejoin="round"/>
</g>
</g>
<defs>
<clipPath id="clip0_1091_3009">
<path d="M0 0H414V841C414 852.046 405.046 861 394 861H20C8.95432 861 0 852.046 0 841V0Z" fill="white"/>
</clipPath>
</defs>
</svg>
