<svg width="414" height="861" viewBox="0 0 414 861" fill="none" xmlns="http://www.w3.org/2000/svg">
<g clip-path="url(#clip0_1091_3122)">
<path d="M0 0H414V841C414 852.046 405.046 861 394 861H20C8.95432 861 0 852.046 0 841V0Z" fill="#EFA5C6"/>
<path d="M275.24 610.74L298.132 608.894L304.156 584.206L309.143 607.405L332.984 621.434L307.909 621.674L297.919 639.738L294.398 621.523L275.24 610.74Z" fill="#FFF4E8"/>
<path d="M353.502 535.272L368.852 534.034L372.891 517.479L376.235 533.035L392.222 542.442L375.407 542.603L368.709 554.716L366.348 542.502L353.502 535.272Z" fill="#F4CC85"/>
<path d="M271.022 376.113L281.467 375.271L284.215 364.007L286.491 374.591L297.368 380.992L285.927 381.102L281.37 389.343L279.763 381.033L271.022 376.113Z" fill="#F4CC85"/>
<path d="M99.8453 430L93.0415 446.605L69.9995 435.973L87.8364 454.483L88.591 470.838L98.6543 458.973L125.205 462.879L101.301 449.046L99.8453 430Z" fill="#FFD6BF"/>
<path d="M98.0831 559.585L41.308 561.436L57.696 514.537L18.1504 548.507L-20.9765 503L-1.59613 564.433L-51 570.406L-3.61275 589.61L-5.91693 639.933L24.7988 601.034L72.4523 642.777L47.2787 586.923L98.0831 559.585Z" fill="#FFF4E8"/>
<path d="M135.078 599.274L130.029 588.093L126.921 602.95L110.064 604.746L127.662 612.043L121.993 628.988L134.24 615.792L150.202 618.053L138.58 607.196L152.901 592.302L135.078 599.274Z" fill="#F4CC85"/>
<path d="M152.622 671L127.391 696.552L114.281 679.118L99.7458 705.915L86.4036 685.293L63.9995 757.53L87.664 714.484L101.833 730.222L115.732 703.72L129.052 721.234L152.622 671Z" fill="#FFD6BF"/>
<path d="M312.411 714L310.211 747.49L284 745.051L305.275 758.32L297.478 774.284L315.337 763.13L340.778 776.092L325.298 753.333L345.455 734.031L323.206 744.24L312.411 714Z" fill="#F4CC85"/>
<path d="M331 551L382.084 613.809L353.842 663.69L398.446 633.47L460.688 659.389L415.938 618.807L453.528 570.863L402.556 591.807L331 551Z" fill="#FFD6BF"/>
<path d="M336.453 366.695L334.783 339L327.362 367.341L302 367.477L321.785 380.863L307.471 402.069L331.35 383.972L347.18 399.342L346.846 379.447L368.062 368.013L347.41 369.824L356.479 351.517L336.453 366.695Z" fill="#FFF4E8"/>
<path d="M205.442 629.784C197.468 629.825 191.061 633.325 191.137 637.597C191.37 650.72 191.523 660.879 191.63 670.746C191.676 675.018 198.177 678.468 206.151 678.443C214.125 678.418 220.565 674.935 220.518 670.664C220.411 660.775 220.258 650.588 220.025 637.448C219.949 633.176 213.416 629.744 205.442 629.784Z" fill="#5486D4" stroke="#294064" stroke-miterlimit="10" stroke-linecap="round"/>
<path d="M206.956 371C153.406 371 110 414.407 110 467.956C110 499.614 125.232 527.643 148.702 545.339C153.947 549.742 158.949 557.079 159.92 565.195C161.652 579.647 157.065 584.096 165.51 605.107C165.718 605.111 165.808 605.104 166.014 605.107C175.79 605.28 183.299 605.313 189.683 605.269C196.288 605.217 201.86 605.088 207.359 604.966C218.117 605.206 228.717 605.461 248.725 605.107C254.822 589.937 254.113 583.387 253.91 575.486C254.022 570.438 254.232 565.357 255.424 560.311C257.448 553.968 261.637 548.418 265.957 544.936L265.816 544.875C288.933 527.154 303.912 499.335 303.912 467.956C303.912 414.407 260.505 371 206.956 371Z" fill="#FF6D6D" stroke="#294064" stroke-miterlimit="10"/>
<path d="M164.732 599.913C164.732 599.913 168.761 605.912 177.17 609.372C187.341 613.56 198.394 614.822 207.548 614.655C217.995 614.464 230.154 611.72 238.444 606.802C247.928 601.174 248.568 597.032 248.568 597.032L248.775 646.173C248.796 651.195 244.721 655.271 239.699 655.251L174.766 654.991C169.048 654.991 164.875 651.221 164.875 646.229L164.732 599.913Z" fill="#5486D4" stroke="#294064" stroke-miterlimit="10"/>
<path d="M249.138 618.67L204.67 623.494L163.358 627.774C161.803 627.936 160.675 629.338 160.837 630.893C160.999 632.448 162.383 633.576 163.938 633.414L205.268 629.116L249.755 624.292C251.309 624.123 252.426 622.727 252.258 621.172C252.089 619.618 250.693 618.501 249.138 618.67Z" fill="#75A1E3" stroke="#294064" stroke-miterlimit="10" stroke-linecap="round"/>
<path d="M249.791 632.181L205.323 637.005L164.011 641.303C162.456 641.464 161.329 642.849 161.49 644.404C161.652 645.96 163.036 647.104 164.591 646.943L205.922 642.645L250.408 637.821C251.963 637.652 253.079 636.256 252.911 634.702C252.742 633.147 251.346 632.012 249.791 632.181Z" fill="#75A1E3" stroke="#294064" stroke-miterlimit="10" stroke-linecap="round"/>
<path d="M164.975 646.79C164.975 646.79 180.121 654.684 206.767 654.391C239.335 654.034 248.751 647.078 248.751 647.078C248.751 658.289 229.37 667.089 206.767 667.089C184.164 667.089 164.975 658.001 164.975 646.79Z" fill="#5486D4" stroke="#294064" stroke-miterlimit="10"/>
<path d="M191.799 601.349C195.148 566.373 205.049 534.817 196.78 499.393C195.698 494.757 185.952 470.938 176.858 482.447C171.825 488.817 184.246 496.011 186.795 497.371C199.807 504.314 217.524 501.035 228.177 491.285C231.556 488.192 235.079 483.49 232.15 478.793C230.228 475.709 225.636 477.904 224.175 479.981C222.564 482.273 221.402 484.875 220.397 487.49C217.172 495.877 214.605 508.313 214.331 516.706C213.297 548.302 216.283 577.649 226.82 607.222" stroke="#294064" stroke-miterlimit="10" stroke-linecap="round"/>
<path d="M159.011 601.58C159.011 596.773 162.908 592.875 167.715 592.875H245.589C250.397 592.875 254.294 596.773 254.294 601.58V608.05C254.294 612.858 250.397 616.755 245.589 616.755H167.715C162.908 616.755 159.011 612.858 159.011 608.05V601.58Z" fill="#75A1E3" stroke="#294064" stroke-miterlimit="10"/>
<path d="M139.667 421.231C135.372 425.657 132.374 433.952 131.606 439.976" stroke="white" stroke-miterlimit="10" stroke-linecap="round"/>
<path d="M150.662 409.219C153.123 404.301 164.231 395.663 172.885 394.564" stroke="white" stroke-miterlimit="10" stroke-linecap="round"/>
<path d="M235.569 432.733L234.232 441.333L224.595 435.755L231.473 444.295L225.006 449.101L232.288 447.926L214.25 480.582L215.584 457.72L220.766 463.457L217.759 455.419L222.125 448.593L215.513 451.642L209.862 445.503L213.497 453.189L209.08 459.674L214.256 456.985L209.029 477.274L207.051 463.851L204.731 479.808L199.896 472.855L199.659 478.363L176.131 454.087L194.223 481.018L150.52 449.015L155.861 446.143L149.284 446.955L145.748 440.851L147.681 447.558L147.957 448.495L147.555 454.784L149.81 449.406L171.391 469.126L135.356 453.836L180.851 478.834L161.872 474.054L179.251 483.148L160.128 479.006L173.766 485.94L125.523 473.994L168.859 488.576L146.705 488.721L168.354 494.017L154.851 497.816L156.272 493.622L150.248 498.03L141.554 497.432L149.644 500.992L147.979 508.747L153.638 502.258L160.967 504.43L155.746 499.327L189.745 497.528L160.15 516.886L193.406 500.97L173.112 523.651L198.882 502.831L196.505 515.78L203.893 502.599L205.641 513.466L207.72 501.294L210.721 509.241L211.019 498.93L223.342 524.212L216.678 500.118L242.123 519.948L220.585 496.992L242.072 500.362L234.094 496.471L283.987 500.898L235.534 489.917L278.422 475.462L232.531 484.739L256.428 462.971L232.886 475.579L258.527 449.818L221.134 480.159L233.39 448.425L236.893 453.758L236.949 445.796L243.244 441.919L237.592 442.32L235.569 432.733Z" fill="white" stroke="#294064" stroke-miterlimit="10" stroke-linecap="round" stroke-linejoin="round"/>
</g>
<defs>
<clipPath id="clip0_1091_3122">
<path d="M0 0H414V841C414 852.046 405.046 861 394 861H20C8.95432 861 0 852.046 0 841V0Z" fill="white"/>
</clipPath>
</defs>
</svg>
