<svg width="414" height="861" viewBox="0 0 414 861" fill="none" xmlns="http://www.w3.org/2000/svg">
<g clip-path="url(#clip0_1091_2588)">
<path d="M0 0H414V841C414 852.046 405.046 861 394 861H20C8.95432 861 0 852.046 0 841V0Z" fill="#EFA5C6"/>
<path d="M350 472C350 426.16 387.16 389 432.999 389C478.84 389 516 426.16 516 472C516 517.84 478.84 555 432.999 555C387.16 555 350 517.84 350 472Z" fill="#FF6D6D"/>
<path d="M251 407.5C251 370.773 280.549 341 317 341C353.451 341 383 370.773 383 407.5C383 444.227 353.451 474 317 474C280.549 474 251 444.227 251 407.5Z" stroke="white" stroke-miterlimit="10" stroke-linecap="round" stroke-linejoin="round"/>
<path d="M-63 601C-63 550.19 -21.81 509 29 509C79.8103 509 121 550.19 121 601C121 651.81 79.8103 693 29 693C-21.81 693 -63 651.81 -63 601Z" fill="#F4CC85"/>
<path d="M63.2587 582.157C63.2587 573.626 70.1523 566.711 78.6561 566.711C87.1599 566.711 94.0535 573.626 94.0535 582.157C94.0535 590.687 87.1599 597.602 78.6561 597.602C70.1523 597.602 63.2587 590.687 63.2587 582.157Z" fill="#FFF4E8" stroke="#2E4166" stroke-miterlimit="10"/>
<path d="M254.802 664.949C248.663 641.485 254.221 608.133 264.675 586.35C267.892 579.647 275.368 566.999 284.069 565.817C290.575 564.933 293.532 571.983 294.627 577.315C297.146 589.59 291.705 603.348 287.979 614.805C285.185 623.399 282.278 631.109 278.622 639.343C272.953 652.108 265.491 664.264 257.195 675.468" stroke="#006382" stroke-miterlimit="10" stroke-linecap="round" stroke-linejoin="round"/>
<path d="M307.032 659.073C305.781 656.28 309.37 650.731 310.748 648.393C312.582 645.285 314.455 642.202 316.402 639.165C323.485 628.119 332.939 617.85 345.11 612.399C357.671 606.774 354.731 621.299 350.646 628.208C349.151 630.734 347.661 633.264 346.013 635.691C344.14 638.45 342.068 641.066 340.093 643.751C335.245 650.336 329.528 656.351 322.934 661.223C314.682 667.321 305.266 672.755 295.118 674.453" stroke="white" stroke-miterlimit="10" stroke-linecap="round" stroke-linejoin="round"/>
<path d="M-45.0001 430.025C-16.8485 381.562 102.137 359.841 115.043 425.018C119 445.002 111 470.002 91.9999 481.502C77.9999 489.975 56.496 492.003 51.9999 477.002C47.5037 462.001 71.9999 451.545 97.9999 457.502C115.043 461.407 145 477.002 161 493.002C213 545.004 221.91 620.834 257.942 684.007C285.021 731.485 320 758 366 758C434 758 496.432 675.31 508 633.172" stroke="#044C75" stroke-miterlimit="10" stroke-linecap="round" stroke-linejoin="round" stroke-dasharray="10 10"/>
<path d="M71.1662 695.268C0.603949 652.214 -13.4211 569.714 61.3751 654.572C72.1641 666.812 79.6226 680.724 88.9027 693.924" stroke="#294064" stroke-miterlimit="10" stroke-linecap="round" stroke-linejoin="round"/>
<path d="M75.2702 673.14C50.359 662.245 28.0817 581.128 53.5532 613.891C60.1428 622.367 64.7013 633.4 68.6006 643.054C71.0323 649.075 73.1728 655.21 75.3583 661.323C78.3532 669.703 80.7868 677.439 81.8202 686.238" stroke="#294064" stroke-miterlimit="10" stroke-linecap="round" stroke-linejoin="round"/>
<path d="M340.795 680.99C346.977 671.716 352.525 661.988 359.353 653.152C420.708 573.751 403.422 687.041 337.453 691.753" stroke="white" stroke-miterlimit="10" stroke-linecap="round" stroke-linejoin="round"/>
<path d="M351.187 688.783C362.606 654.527 445.967 649.659 385.335 678.763C378.006 682.28 370.169 685.5 362.694 688.413C352.197 692.503 344.19 694.841 333 693.981" stroke="white" stroke-miterlimit="10" stroke-linecap="round" stroke-linejoin="round"/>
<path d="M83.2074 632.421C84.2201 630.364 86.3131 629.062 88.6051 629.062H323.359C325.765 629.062 327.94 630.496 328.889 632.708L363.462 713.347C365.165 717.319 362.252 721.736 357.932 721.736H48.8915C44.4347 721.736 41.525 717.059 43.494 713.061L83.2074 632.421Z" fill="#FFF4E8" stroke="#294064" stroke-miterlimit="10" stroke-linejoin="round"/>
<mask id="mask0_1091_2588" style="mask-type:luminance" maskUnits="userSpaceOnUse" x="42" y="629" width="322" height="93">
<path d="M83.2074 632.422C84.2201 630.364 86.3131 629.063 88.6051 629.063H323.359C325.765 629.063 327.94 630.497 328.889 632.708L363.462 713.348C365.165 717.319 362.252 721.737 357.932 721.737H48.8915C44.4347 721.737 41.525 717.059 43.494 713.061L83.2074 632.422Z" fill="white"/>
</mask>
<g mask="url(#mask0_1091_2588)">
<path d="M97.4421 610.452C100.119 613.129 100.526 617.007 102.841 619.899C108.195 626.593 114.161 631.319 112.288 641.156C109.539 655.587 98.7816 659.427 85.9703 663.088C80.417 664.674 73.8777 665.446 68.4252 663.088C57.3778 658.31 52.2116 650.07 45.8191 640.481" stroke="#FF6D6D" stroke-width="4" stroke-miterlimit="10" stroke-linecap="round" stroke-linejoin="round"/>
<path d="M32.6598 708.975C35.2531 701.194 53.5391 686.142 61.6767 693.117C68.1454 698.661 62.4588 707.809 64.3759 714.711C68.6839 730.22 89.5758 727.024 99.4659 719.772C102.247 717.732 105.15 712.115 106.552 709.312C113.449 695.517 114.748 680.526 118.024 665.786C120.64 654.009 123.578 638.779 132.194 629.684C138.601 622.923 147.51 618.187 155.475 613.489C161.321 610.042 174.37 599.88 181.793 602.355" stroke="#FF6D6D" stroke-width="4" stroke-miterlimit="10" stroke-linecap="round" stroke-linejoin="round"/>
<path d="M196.302 635.419C194.82 629.491 185.837 631.243 181.793 632.384C173.449 634.737 165.706 639.982 160.874 647.23C152.975 659.078 166.103 671.862 160.2 683.67C154.042 695.984 140.757 702.853 131.858 713.023C124.02 721.979 120.972 733.879 120.049 745.414C119.806 748.444 119.806 751.487 119.712 754.524C119.628 757.196 120.89 759.748 121.736 762.285" stroke="#FF6D6D" stroke-width="4" stroke-miterlimit="10" stroke-linecap="round" stroke-linejoin="round"/>
<path d="M153.45 729.894C153.45 719.957 167.369 712.24 174.37 707.962C195.212 695.227 223.371 691.476 245.225 704.589C254.519 710.164 264.575 718.846 262.095 731.244C260.28 740.318 254.871 748.373 249.949 756.212" stroke="#FF6D6D" stroke-width="4" stroke-miterlimit="10" stroke-linecap="round" stroke-linejoin="round"/>
<path d="M323.832 616.415C312.174 623.992 314.397 643.791 324.385 651.748C330.186 656.369 345.24 658.092 351.092 657.079" stroke="#FF6D6D" stroke-width="4" stroke-miterlimit="10" stroke-linecap="round" stroke-linejoin="round"/>
<path d="M280.821 740.104C294.989 718.925 262.802 708.373 268.92 690.289C272.516 679.653 289.105 685.081 293.807 691.545C298.533 698.042 298.672 707.522 302.676 714.556C311.583 730.2 335.329 742.451 352.937 741.652C358.41 741.405 363.599 739.119 368.878 737.656" stroke="#FF6D6D" stroke-width="4" stroke-miterlimit="10" stroke-linecap="round" stroke-linejoin="round"/>
<path d="M373.52 709.987C366.434 701.68 348.346 701.718 339.462 706.767C332.384 710.789 335.97 723.741 342.047 727.125C346.763 729.75 351.933 731.495 357.045 733.222C362.718 735.14 368.731 735.848 374.574 737.162" stroke="#FF6D6D" stroke-width="4" stroke-miterlimit="10" stroke-linecap="round" stroke-linejoin="round"/>
<path d="M237.854 673.362C238.906 668.675 245.667 667.96 249.488 667.111C264.05 663.872 274.099 668.056 285.948 676.327C287.633 677.503 296.503 684.446 298.713 680.218C301.419 675.04 299.562 668.039 297.49 662.894C290.374 645.218 279.889 645.185 261.928 640.582C256.444 639.176 250.85 638.156 245.228 637.51" stroke="#FF6D6D" stroke-width="4" stroke-miterlimit="10" stroke-linecap="round" stroke-linejoin="round"/>
<path d="M193.27 635.042C189.813 634.265 183.483 641.828 181.305 644.287C174.556 651.903 164.521 667.623 174.586 677.219C183.104 685.337 201.321 682.978 211.744 681.817" stroke="#FF6D6D" stroke-width="4" stroke-miterlimit="10" stroke-linecap="round" stroke-linejoin="round"/>
<path d="M126.316 626.477C142.574 639.751 127.007 667.403 123.548 682.799C122.184 688.868 120.745 701.848 129.2 703.164C137.904 704.52 143.85 688.74 145.415 682.598C147.969 672.583 153.029 659.908 151.484 649.523C150.268 641.34 146.094 634.411 141.758 627.559" stroke="#FF6D6D" stroke-width="4" stroke-miterlimit="10" stroke-linecap="round" stroke-linejoin="round"/>
<path d="M73.4468 643.238C73.1162 644.71 75.1422 645.858 76.4339 646.638C80.5878 649.143 87.4753 648.791 91.2668 645.878C101.236 638.221 93.7743 621.522 89.3591 613.397" stroke="#FF6D6D" stroke-width="4" stroke-miterlimit="10" stroke-linecap="round" stroke-linejoin="round"/>
<path d="M168.328 729.347C169.62 723.594 181.295 719.489 186.216 718.022C202.906 713.052 237.318 714.555 242.399 735.079" stroke="#FF6D6D" stroke-width="4" stroke-miterlimit="10" stroke-linecap="round" stroke-linejoin="round"/>
</g>
<path d="M83.2073 632.421C84.2199 630.364 86.313 629.062 88.6049 629.062H323.359C325.765 629.062 327.94 630.496 328.889 632.708L363.461 713.347C365.164 717.319 362.252 721.736 357.932 721.736H48.8914C44.4345 721.736 41.5248 717.059 43.4939 713.061L83.2073 632.421Z" stroke="#294064" stroke-miterlimit="10" stroke-linejoin="round"/>
<path d="M294.109 563.005C294.109 563.005 277.028 547.916 261.339 552.284C252.367 554.782 247.578 558.597 232.152 567.148C216.726 575.699 204.043 580.424 206.603 584.963C210.88 592.54 254.361 586.448 278.649 578.853C287.184 576.184 294.109 563.005 294.109 563.005Z" fill="#FFC6B2" stroke="#294064" stroke-miterlimit="10" stroke-linecap="round" stroke-linejoin="round"/>
<path d="M334.562 538.045C336.282 533.956 343.661 527.744 348.397 528.767C350.423 529.205 349.898 532.799 351.034 533.993C352.282 535.306 354.32 535.987 355.699 537.197C360.165 541.112 359.925 546.686 357.181 551.543C351.874 560.934 337.498 560.8 330.784 552.466C326.224 546.804 329.652 538.223 332.041 532.541" fill="#2F2F2F"/>
<path d="M334.562 538.045C336.282 533.956 343.661 527.744 348.397 528.767C350.423 529.205 349.898 532.799 351.034 533.993C352.282 535.306 354.32 535.987 355.699 537.197C360.165 541.112 359.925 546.686 357.181 551.543C351.874 560.934 337.498 560.8 330.784 552.466C326.224 546.804 329.652 538.223 332.041 532.541" stroke="#294064" stroke-miterlimit="10" stroke-linecap="round"/>
<path d="M296.753 511.799C295.764 511.629 294.746 511.52 293.79 511.532C282.416 511.679 277.313 519.287 276.012 524.252C273.653 533.252 276.387 532.07 273.107 541.231C270.578 548.293 272.182 554.625 280.054 558.561C287.554 562.312 292.569 558.928 294.612 559.441C295.307 557.957 295.898 559.285 297.492 558.524C298.799 557.899 299.959 556.94 302.484 554.424C302.535 554.374 302.709 554.198 302.738 554.168C303.335 553.573 303.68 553.227 304.074 552.847C304.685 552.257 305.312 551.665 306.078 550.949C306.281 550.758 307.347 549.766 307.41 549.706C308.22 548.953 308.795 548.404 309.364 547.862C310.222 546.843 311.045 545.841 311.839 544.848C312.277 544.3 312.773 543.613 313.439 542.683L302.415 513.373C302.415 513.373 299.718 512.31 296.753 511.799Z" fill="#2F2F2F" stroke="#2E4166" stroke-miterlimit="10" stroke-linecap="round"/>
<path d="M307.236 520.42C303.65 518.308 298.916 515.968 297.695 516.06C286.767 516.884 288.768 525.236 283.664 528.583C278.558 531.93 276.337 529.802 276.793 532.073C277.198 534.079 278.947 535.51 278.947 535.51C278.947 535.51 278.504 537.435 277.828 539.431C276.644 542.932 276.776 546.806 278.236 550.442C280.048 554.959 285.956 558.304 290.356 560.384C293.59 561.912 290.472 560.586 290.472 560.586C290.472 560.586 266.949 567.559 265.23 570.377C253.678 589.307 267.489 582.945 268.119 583.76C284.456 604.839 326.68 583.702 327.684 587.051C326.338 577.634 324.335 576.129 309.534 568.455C308.409 567.872 306.467 559.937 308.039 558.111C312.423 553.022 318.21 552.416 315.394 544.195C314.148 540.554 312.083 537.17 310.752 533.552C310.087 531.743 310.221 529.747 309.429 527.979C308.663 526.27 312.419 525.011 311.443 523.397C311.125 522.871 309.388 521.687 307.236 520.42Z" fill="#FFB9AA" stroke="#2E4166" stroke-miterlimit="10" stroke-linecap="round"/>
<path d="M290.038 531.563C289.632 531.602 289.242 530.972 289.168 530.157C289.094 529.342 289.364 528.649 289.77 528.61C290.177 528.571 290.566 529.201 290.64 530.016C290.714 530.831 290.444 531.524 290.038 531.563Z" fill="#294064" stroke="#2E4166" stroke-miterlimit="10" stroke-linecap="round"/>
<path d="M281.359 540.794C283.379 542.423 286.003 542.842 286.003 542.842" stroke="#2E4166" stroke-miterlimit="10" stroke-linecap="round"/>
<path d="M291.192 524.938C293.536 524.768 295.442 528.066 295.713 529.997" stroke="#2E4166" stroke-miterlimit="10" stroke-linecap="round"/>
<path d="M304.441 548.434C301.261 546.755 299.912 542.949 301.426 539.934C302.942 536.919 306.748 535.836 309.928 537.515C313.108 539.194 314.458 543 312.942 546.015C312.203 547.484 310.921 548.495 309.432 548.95C307.866 549.43 306.072 549.295 304.441 548.434Z" fill="#FFB9AA" stroke="#2E4166" stroke-miterlimit="10" stroke-linecap="round"/>
<path d="M305.775 545.024C304.399 544.297 303.858 542.569 304.563 541.164C305.269 539.759 306.956 539.209 308.332 539.935C309.707 540.662 310.25 542.39 309.545 543.795C308.839 545.2 307.15 545.75 305.775 545.024Z" fill="#F09885" stroke="#F09885" stroke-miterlimit="10"/>
<path d="M294.526 539.783C292.73 539.353 291.38 538.436 291.511 537.735C291.643 537.034 293.204 536.814 295.002 537.244C296.798 537.673 298.148 538.59 298.015 539.291C297.885 539.992 296.322 540.212 294.526 539.783Z" fill="#FF7CAB"/>
<path d="M310.803 543.864C310.803 543.864 310.576 541.587 308.948 540.629C307.22 539.61 305.449 540.137 304.515 540.845" stroke="#294064" stroke-miterlimit="10" stroke-linecap="round"/>
<path d="M304.305 546.79C304.146 547.209 304.096 547.373 303.71 547.863C302.354 549.587 300.674 548.331 299.501 547.191C298.73 546.443 298.404 544.053 298.749 543.061C298.922 542.562 299.345 542.314 299.746 542.035C300.162 541.745 300.454 541.272 301.019 541.354C302.687 541.595 303.689 545.549 303.047 546.764" fill="#FFB9AA"/>
<path d="M304.305 546.79C304.146 547.209 304.096 547.373 303.71 547.863C302.354 549.587 300.674 548.331 299.501 547.191C298.73 546.443 298.404 544.053 298.749 543.061C298.922 542.562 299.345 542.314 299.746 542.035C300.162 541.745 300.454 541.272 301.019 541.354C302.687 541.595 303.689 545.549 303.047 546.764" stroke="#FFB9AA" stroke-miterlimit="10" stroke-linecap="round"/>
<path d="M290.077 560.461C290.077 560.461 292.813 560.678 287.667 568.96" stroke="#294064" stroke-miterlimit="10" stroke-linecap="round" stroke-linejoin="round"/>
<path d="M291.091 557.386C289.793 559.259 292.877 562.626 292.877 562.626C292.877 562.626 293.328 564.532 293.915 564.425C295.913 564.063 298.93 560.602 299.539 558.947C299.821 558.184 299.675 557.234 299.79 556.424" fill="#FFB9AA"/>
<path d="M305.029 509.108C309.3 509.964 313.262 513.824 318.306 516.11C320.624 517.16 323.48 518.125 325.655 518.77C338.748 522.653 337.107 529.066 335.66 536.161C334.786 540.453 334.022 543.554 333.663 545.122C333.204 545.38 336.347 554.918 331.813 560.228C328.382 564.248 325.821 564.902 319.083 564.522C311.578 564.099 307.227 561.417 306.354 556.818C305.806 553.926 305.261 550.605 309.527 548.898C312.013 547.904 313.936 545.362 313.221 541.818C312.23 536.903 303.575 534.147 300.993 541.003C300.349 542.713 301.85 532.454 300.782 530.214C296.99 522.261 288.626 518.714 296.702 511.805C299.788 509.164 302.466 508.595 305.029 509.108Z" fill="#2F2F2F" stroke="#2E4166" stroke-miterlimit="10" stroke-linecap="round"/>
<path d="M308.535 540.89C308.535 540.89 308.457 543.721 306.702 544.682" stroke="#294064" stroke-miterlimit="10" stroke-linecap="round" stroke-linejoin="round"/>
<path d="M291.12 560.402C291.12 560.402 290.88 565.902 291.795 566.297C293.134 566.874 299.198 562.205 299.198 562.205C299.198 562.205 296.41 561.968 294.39 561.517C292.369 561.067 291.12 560.402 291.12 560.402Z" fill="#F09885"/>
<path d="M296.857 512.06C293.813 507.805 284.704 508.882 280.78 512.899C276.198 517.591 274.939 522.912 273.79 528.708C273.151 531.935 271.385 535.915 269.331 538.516C267.984 540.221 265.72 542.687 264.563 544.459C260.63 550.489 262.016 555.877 268.872 558.338C271.835 559.402 274.26 559.147 274.26 559.147C274.26 559.147 270.679 557.535 269.173 556.219C267.089 554.395 266.416 552.14 267.155 548.533C268.154 543.648 271.353 539.032 273.582 534.81C275.807 530.599 276.683 527.772 277.971 522.425C278.702 519.385 280.629 515.132 285.678 513.367C294.9 510.144 296.857 512.06 296.857 512.06Z" fill="#2F2F2F" stroke="#294064" stroke-miterlimit="10" stroke-linecap="round" stroke-linejoin="round"/>
<path d="M312.239 567.383C312.239 567.383 300.52 563.943 304.397 554.433C305.864 550.836 306.5 551.339 308.581 549.471C302.318 550.475 297.804 557.8 300.53 563.357C302.099 566.556 304.986 567.4 308.03 567.811C310.492 568.143 312.239 567.383 312.239 567.383Z" fill="#2F2F2F" stroke="#294064" stroke-miterlimit="10" stroke-linecap="round" stroke-linejoin="round"/>
<path d="M60.4818 669.663C60.4818 669.663 62.1238 681.906 66.9614 683.118C85.7137 687.817 117.289 681.706 117.289 681.706C126.365 681.998 135.106 680.488 136.894 677.832C138.916 674.831 136.023 660.048 136.023 660.048" fill="#FF6D6D"/>
<path d="M60.4818 669.663C60.4818 669.663 62.1238 681.906 66.9614 683.118C85.7137 687.817 117.289 681.706 117.289 681.706C126.365 681.998 135.106 680.488 136.894 677.832C138.916 674.831 136.023 660.048 136.023 660.048" stroke="#294064" stroke-miterlimit="10" stroke-linecap="round" stroke-linejoin="round"/>
<path d="M147.174 590.478C136.433 609.301 121.532 631.707 109.727 644.311C108.512 645.609 92.1428 655.025 87.0758 657.171C82.2584 659.211 78.3898 662.922 73.2037 663.926C69.538 664.635 60.5913 664.622 59.2342 669.55C58.2923 672.969 63.6477 674.437 63.6477 674.437C63.6477 674.437 63.6189 677.036 64.9004 677.816C67.372 679.322 70.363 677.304 70.363 677.304C70.363 677.304 70.4233 679.511 72.6696 680.299C74.6705 681 77.653 678.359 77.653 678.359C77.653 678.359 78.3145 680.001 79.6984 680.176C81.0825 680.351 83.1894 679.057 83.1894 679.057C84.1825 682.068 90.8817 679.15 92.9245 678.994C98.971 678.533 106.08 674.252 112.172 674.13C118.061 674.011 128.572 674.583 133.979 671.203C139.436 667.792 135.181 657.325 135.187 648.862C135.19 644.855 151.055 633.788 159.761 627.961C173.492 618.771 177.871 608.501 177.871 608.501" fill="#FFC6B2"/>
<path d="M147.174 590.478C136.433 609.301 121.532 631.707 109.727 644.311C108.512 645.609 92.1428 655.025 87.0758 657.171C82.2584 659.211 78.3898 662.922 73.2037 663.926C69.538 664.635 60.5913 664.622 59.2342 669.55C58.2923 672.969 63.6477 674.437 63.6477 674.437C63.6477 674.437 63.6189 677.036 64.9004 677.816C67.372 679.322 70.363 677.304 70.363 677.304C70.363 677.304 70.4233 679.511 72.6696 680.299C74.6705 681 77.653 678.359 77.653 678.359C77.653 678.359 78.3145 680.001 79.6984 680.176C81.0825 680.351 83.1894 679.057 83.1894 679.057C84.1825 682.068 90.8817 679.15 92.9245 678.994C98.971 678.533 106.08 674.252 112.172 674.13C118.061 674.011 128.572 674.583 133.979 671.203C139.436 667.792 135.181 657.325 135.187 648.862C135.19 644.855 151.055 633.788 159.761 627.961C173.492 618.771 177.871 608.501 177.871 608.501" stroke="#294064" stroke-miterlimit="10" stroke-linecap="round" stroke-linejoin="round"/>
<path d="M74.2316 667.874C74.2316 667.874 82.7109 667.115 87.05 669.769C91.9649 672.778 94.2591 678.821 94.2591 678.821C94.2591 678.821 111.07 676.047 120.49 675.738C124.971 675.59 131.634 678.727 134.284 674.884C136.238 672.05 137.747 660.668 137.956 657.762C138.122 655.482 140.338 648.946 140.338 648.946C140.338 648.946 137.15 649.267 135.453 651.189C133.758 653.111 133.555 656.635 133.555 656.635L107.598 644.826C107.598 644.826 101.644 649.877 95.989 651.919C100.937 654.97 109.832 657.826 114.28 661.661C116.75 663.789 117.913 667.22 119.729 670.001C115.356 668.299 111.23 665.424 106.61 664.897C103.157 664.504 99.84 668.285 96.4767 667.349C91.3688 665.927 83.5845 658.823 83.5845 658.823L79.3121 661.04L74.2316 667.874Z" fill="#FF6D6D" stroke="#294064" stroke-miterlimit="10" stroke-linecap="round" stroke-linejoin="round"/>
<path d="M96.0281 652.024C96.0281 652.024 94.6993 659.162 94.5764 665.788C94.4534 672.414 95.5363 678.528 95.5363 678.528C96.2174 679.176 98.9126 678.438 99.7062 678.445C103.952 678.478 107.799 678.624 111.81 676.901C111.893 676.866 116.01 676.039 116.087 675.833C116.155 675.653 112.229 668.947 109.371 661.809C106.513 654.671 105.608 648.765 104.656 647.281C104.13 646.46 101.117 649.455 100.64 649.746C99.2648 650.589 96.1106 651.82 96.0281 652.024Z" fill="#FF6D6D" stroke="#294064" stroke-miterlimit="10" stroke-linecap="round" stroke-linejoin="round"/>
<path d="M275.197 646.041C260.374 662.841 251.436 675.846 236.823 686.355C227.542 693.028 203.801 691.401 195.881 683.672C177.852 666.083 176.264 634.339 169.208 603.461C165.498 587.228 166.888 569.604 166.888 569.604C166.888 569.604 173.627 558.002 189.834 564.525C207.373 571.585 211.053 595.691 231.682 625.732" fill="#5486D4"/>
<path d="M275.197 646.041C260.374 662.841 251.436 675.846 236.823 686.355C227.542 693.028 203.801 691.401 195.881 683.672C177.852 666.083 176.264 634.339 169.208 603.461C165.498 587.228 166.888 569.604 166.888 569.604C166.888 569.604 173.627 558.002 189.834 564.525C207.373 571.585 211.053 595.691 231.682 625.732" stroke="#294064" stroke-miterlimit="10" stroke-linecap="round" stroke-linejoin="round"/>
<path d="M228.069 605.38C212.172 546.858 179.025 539.667 163.955 560.058C149.364 579.8 148.182 588.282 138.132 603.103C152.97 611.015 161.475 632.773 161.475 632.773C182.998 618.39 198.432 605.707 196.886 589.717" fill="#75A1E3"/>
<path d="M228.069 605.38C212.172 546.858 179.025 539.667 163.955 560.058C149.364 579.8 148.182 588.282 138.132 603.103C152.97 611.015 161.475 632.773 161.475 632.773C182.998 618.39 198.432 605.707 196.886 589.717" stroke="#294064" stroke-miterlimit="10" stroke-linecap="round" stroke-linejoin="round"/>
<path d="M59.6293 676.592C59.6293 676.592 60.555 688.91 65.3136 690.401C83.7605 696.186 115.639 691.925 115.639 691.925C124.681 692.744 133.496 691.748 135.436 689.201C137.628 686.323 135.603 671.396 135.603 671.396" fill="#FF6D6D"/>
<path d="M59.6293 676.592C59.6293 676.592 60.555 688.91 65.3136 690.401C83.7605 696.186 115.639 691.925 115.639 691.925C124.681 692.744 133.496 691.748 135.436 689.201C137.628 686.323 135.603 671.396 135.603 671.396" stroke="#294064" stroke-miterlimit="10" stroke-linecap="round" stroke-linejoin="round"/>
<path d="M147.371 599.718C135.551 617.884 122.788 642.259 110.268 654.155C108.979 655.379 92.0892 663.826 86.9058 665.672C81.9778 667.427 77.8993 670.907 72.6636 671.606C68.9628 672.101 60.0322 671.567 58.3901 676.407C57.2506 679.767 62.5114 681.542 62.5114 681.542C62.5114 681.542 62.3312 684.137 63.565 684.991C65.9446 686.637 69.0482 684.797 69.0482 684.797C69.0482 684.797 68.9798 687.004 71.1763 687.921C73.1329 688.737 76.2643 686.276 76.2643 686.276C76.2643 686.276 76.8289 687.954 78.2004 688.208C79.5719 688.463 81.7505 687.295 81.7505 687.295C82.5665 690.36 89.4244 687.837 91.4728 687.8C97.5359 687.691 104.883 683.833 110.971 684.064C116.857 684.29 127.315 685.473 132.911 682.413C138.557 679.327 137.617 665.932 138.118 657.485C138.354 653.484 153.928 643.956 165.762 635.386C179.143 625.694 191.655 612.236 191.655 612.236" fill="#FFC6B2"/>
<path d="M147.371 599.718C135.551 617.884 122.788 642.259 110.268 654.155C108.979 655.379 92.0892 663.826 86.9058 665.672C81.9778 667.427 77.8993 670.907 72.6636 671.606C68.9628 672.101 60.0322 671.567 58.3901 676.407C57.2506 679.767 62.5114 681.542 62.5114 681.542C62.5114 681.542 62.3312 684.137 63.565 684.991C65.9446 686.637 69.0482 684.797 69.0482 684.797C69.0482 684.797 68.9798 687.004 71.1763 687.921C73.1329 688.737 76.2643 686.276 76.2643 686.276C76.2643 686.276 76.8289 687.954 78.2004 688.208C79.5719 688.463 81.7505 687.295 81.7505 687.295C82.5665 690.36 89.4244 687.837 91.4728 687.8C97.5359 687.691 104.883 683.833 110.971 684.064C116.857 684.29 127.315 685.473 132.911 682.413C138.557 679.327 137.617 665.932 138.118 657.485C138.354 653.484 153.928 643.956 165.762 635.386C179.143 625.694 191.655 612.236 191.655 612.236" stroke="#294064" stroke-miterlimit="10" stroke-linecap="round" stroke-linejoin="round"/>
<path d="M73.4598 675.607C73.4598 675.607 81.969 675.344 86.1461 678.248C90.8773 681.537 92.8155 687.703 92.8155 687.703C92.8155 687.703 109.759 685.913 119.18 686.154C123.662 686.268 134.006 686.088 136.875 682.405C138.991 679.691 137.288 672.116 137.666 669.227C137.963 666.962 140.556 660.564 140.556 660.564C140.556 660.564 137.355 660.7 135.55 662.519C133.746 664.34 133.337 667.846 133.337 667.846L108.112 654.545C108.112 654.545 101.875 659.239 96.1102 660.947C100.872 664.282 109.586 667.652 113.802 671.738C116.145 674.008 117.106 677.501 118.757 680.382C114.491 678.429 110.538 675.319 105.956 674.524C102.533 673.93 99.0008 677.51 95.6978 676.379C90.6815 674.664 83.3243 667.118 83.3243 667.118L78.93 669.082L73.4598 675.607Z" fill="#FF6D6D" stroke="#294064" stroke-miterlimit="10" stroke-linecap="round" stroke-linejoin="round"/>
<path d="M96.1427 661.054C96.1427 661.054 94.4002 668.102 93.8914 674.711C93.3825 681.318 94.1072 687.486 94.1072 687.486C94.7495 688.173 97.483 687.593 98.275 687.645C102.511 687.925 106.344 688.295 110.448 686.81C110.533 686.78 114.692 686.194 114.78 685.992C114.859 685.817 111.33 678.894 108.893 671.601C106.456 664.309 105.896 658.36 105.032 656.823C104.555 655.972 101.373 658.787 100.88 659.05C99.4576 659.811 96.2371 660.856 96.1427 661.054Z" fill="#FF6D6D" stroke="#294064" stroke-miterlimit="10" stroke-linecap="round" stroke-linejoin="round"/>
<path d="M286.146 645.459C271.324 662.258 262.385 675.263 247.772 685.772C238.493 692.447 213.665 692.34 205.745 684.611C187.715 667.022 187.214 633.757 180.158 602.879C176.449 586.645 171.112 567.868 171.112 567.868C171.112 567.868 186.555 552.564 202.762 559.087C220.301 566.147 222.002 595.109 242.632 625.149" fill="#75A1E3"/>
<path d="M286.146 645.459C271.324 662.258 262.385 675.263 247.772 685.772C238.493 692.447 213.665 692.34 205.745 684.611C187.715 667.022 187.214 633.757 180.158 602.879C176.449 586.645 171.112 567.868 171.112 567.868C171.112 567.868 186.555 552.564 202.762 559.087C220.301 566.147 222.002 595.109 242.632 625.149" stroke="#294064" stroke-miterlimit="10" stroke-linecap="round" stroke-linejoin="round"/>
<path d="M232.419 608.06C216.523 549.538 183.375 542.347 168.305 562.738C153.714 582.479 152.533 590.962 142.481 605.783C157.32 613.695 165.826 635.453 165.826 635.453C187.348 621.071 202.782 608.386 201.237 592.397" fill="#75A1E3"/>
<path d="M232.419 608.06C216.523 549.538 183.375 542.347 168.305 562.738C153.714 582.479 152.533 590.962 142.481 605.783C157.32 613.695 165.826 635.453 165.826 635.453C187.348 621.071 202.782 608.386 201.237 592.397" stroke="#294064" stroke-miterlimit="10" stroke-linecap="round" stroke-linejoin="round"/>
<path d="M243.208 686.283C225.671 674.028 223.735 666.068 218.494 654.543C213.439 643.424 211.139 631.089 206.515 618.281C205.72 616.074 205.272 613.508 205.961 611.264C206.942 608.06 209.507 605.577 211.281 602.734C207.883 602.617 207.883 602.617 204.484 602.5C205.913 596.633 210.075 590.795 208.771 584.899C207.04 577.067 196.072 564.46 196.072 564.46C196.072 564.46 190.142 584.336 186.366 592.261C179.285 607.117 159.61 620.898 159.61 620.898" stroke="white" stroke-miterlimit="10" stroke-linecap="round" stroke-linejoin="round"/>
<path d="M289.408 560.226C285.644 561.403 283.823 563.537 273.654 564.994C271.104 565.36 266.023 566.417 260.924 568.367C252.366 571.64 251.875 591.887 246.424 597.291C236.598 607.032 232.118 608.116 232.118 608.116C232.118 608.116 235.086 614.62 241.521 629.255C251.232 651.34 255.964 678.935 255.964 678.935C255.964 678.935 291.052 650.437 292.688 618.356C293.515 602.113 291.144 606.187 300.344 592.775C305.294 585.562 310.927 582.111 315.721 580.516C321.98 578.433 326.807 579.514 326.807 579.514C326.807 579.514 324.33 574.7 319.559 573.575C316.925 572.955 313.991 569.336 312.484 569.97C288.077 580.236 285.216 575.074 269.897 581.674C274.951 566.106 280.063 573.085 289.408 560.226Z" fill="#FF6D6D" stroke="#294064" stroke-miterlimit="10" stroke-linecap="round" stroke-linejoin="round"/>
<path d="M305.882 585.868C275.981 596.298 268.928 582.553 235.29 570.593C226.189 567.357 213.903 576.159 212.141 583.14C210.464 589.789 222.934 604.778 236.153 605.095C263.241 605.745 293.679 607.249 294.227 599.047" fill="#FFC6B2"/>
<path d="M305.882 585.868C275.981 596.298 268.928 582.553 235.29 570.593C226.189 567.357 213.903 576.159 212.141 583.14C210.464 589.789 222.934 604.778 236.153 605.095C263.241 605.745 293.679 607.249 294.227 599.047" stroke="#294064" stroke-miterlimit="10" stroke-linecap="round" stroke-linejoin="round"/>
<path d="M238.885 566.459C236.079 567.15 231.632 568.082 229.048 569.354C227.583 570.075 225.062 571.326 223.656 572.148C222.077 573.071 220.502 576.022 224.383 577.518C225.453 577.931 225.894 577.946 226.986 577.718C231.625 576.748 238.661 573.939 241.1 569.704" fill="#FFC6B2"/>
<path d="M322.564 576.918C310.213 574.987 299.909 586.689 294.237 601.671C289.373 614.52 269.429 625.595 264.014 635.779C259.357 644.54 271.355 653.414 271.355 653.414C271.355 653.414 278.23 674.478 325.436 604.766C330.653 597.062 332.517 578.474 322.564 576.918Z" fill="#FFC6B2" stroke="#294064" stroke-miterlimit="10" stroke-linecap="round" stroke-linejoin="round"/>
<path d="M249.761 546.28C251.678 553.284 239.729 565.09 242.316 580.525C245.003 596.574 245.121 607.992 255.281 637.532C259.635 650.19 272.66 659.003 278.724 655.893C284.513 652.925 296.97 633.51 281.082 618.736C260.349 599.457 247.989 554.267 247.989 554.267" fill="#FFC6B2"/>
<path d="M249.761 546.28C251.678 553.284 239.729 565.09 242.316 580.525C245.003 596.574 245.121 607.992 255.281 637.532C259.635 650.19 272.66 659.003 278.724 655.893C284.513 652.925 296.97 633.51 281.082 618.736C260.349 599.457 247.989 554.267 247.989 554.267" stroke="#294064" stroke-miterlimit="10" stroke-linecap="round" stroke-linejoin="round"/>
<path d="M306.594 586.294C306.594 586.294 316.686 582.031 320.753 582.023C325.183 582.014 332.754 583.246 332.442 585.94C331.968 590.034 325.29 585.918 318.344 588.381" fill="#FFC6B2"/>
<path d="M306.594 586.294C306.594 586.294 316.686 582.031 320.753 582.023C325.183 582.014 332.754 583.246 332.442 585.94C331.968 590.034 325.29 585.918 318.344 588.381" stroke="#294064" stroke-miterlimit="10" stroke-linecap="round" stroke-linejoin="round"/>
<path d="M302.112 587.036C306.951 586.387 312.637 584.249 316.632 585.089C320.944 585.996 332.66 591.791 331.959 594.664C330.886 599.062 324.515 593.187 317.072 591.711" fill="#FFC6B2"/>
<path d="M302.112 587.036C306.951 586.387 312.637 584.249 316.632 585.089C320.944 585.996 332.66 591.791 331.959 594.664C330.886 599.062 324.515 593.187 317.072 591.711" stroke="#294064" stroke-miterlimit="10" stroke-linecap="round" stroke-linejoin="round"/>
<path d="M279.872 604.859C289.108 598.361 297.404 588.046 302.88 586.29C306.148 585.242 310.283 585.66 314.782 587.481C319.117 589.237 326.676 595.644 325.455 598.085C323.251 602.489 315.374 594.463 310.963 593.23C310.015 592.965 308.63 593.261 306.967 593.816C310.034 596.553 312.369 597.633 315.029 600.768C316.321 602.29 316.787 603.764 315.904 605.115C315.288 606.057 313.56 605.811 312.451 605.227C308.722 603.263 304.509 598.453 300.317 598.877C292.524 599.665 295.005 605.005 279.872 604.859Z" fill="#FFC6B2" stroke="#294064" stroke-miterlimit="10" stroke-linecap="round" stroke-linejoin="round"/>
<path d="M314.182 600.448C311.619 600.432 314.302 605.292 315.695 604.556C317.442 603.632 314.803 600.452 314.182 600.448Z" fill="#FF6D6D" stroke="#294064" stroke-miterlimit="10" stroke-linecap="round"/>
<path d="M322.773 594.112C322.379 594.062 322.129 594.047 321.767 594.301C319.974 595.556 323.169 598.022 324.484 597.95C327.15 597.805 324.076 594.279 322.773 594.112Z" fill="#FF6D6D" stroke="#294064" stroke-miterlimit="10" stroke-linecap="round"/>
<path d="M328.264 591.2C326.336 591.447 329.718 594.551 331.038 594.741C332.214 594.909 331.725 593.872 331.407 593.251C330.9 592.26 329.186 591.082 328.264 591.2Z" fill="#FF6D6D" stroke="#294064" stroke-miterlimit="10" stroke-linecap="round"/>
<path d="M328.175 583.387C327.558 583.464 327.931 584.191 328.735 584.792C329.229 585.163 331.588 586.726 332.021 585.874C332.827 584.285 329.393 583.235 328.175 583.387Z" fill="#FF6D6D" stroke="#294064" stroke-miterlimit="10" stroke-linecap="round"/>
<path d="M307.768 594.553C305.561 592.745 302.534 592.325 302.534 592.325" stroke="#294064" stroke-miterlimit="10" stroke-linecap="round"/>
<path d="M299.471 591.224C299.471 591.224 295.306 593.278 293.639 593.183C291.971 593.089 292.802 590.845 292.802 590.845C292.802 590.845 289.245 593.852 288.237 594.351C285.283 595.812 276.658 604.923 276.658 604.923L282.03 604.557C282.03 604.557 289.261 601.416 293.091 598.528C295.667 596.586 298.414 595.059 301.136 593.367" fill="#FFC6B2"/>
<path d="M256.949 562.14C256.949 562.14 257.453 550.864 256.005 546.932C254.426 542.649 250.526 535.777 248.035 537.043C244.25 538.966 250.617 543.943 250.724 551.535" fill="#FFC6B2"/>
<path d="M256.949 562.14C256.949 562.14 257.453 550.864 256.005 546.932C254.426 542.649 250.526 535.777 248.035 537.043C244.25 538.966 250.617 543.943 250.724 551.535" stroke="#294064" stroke-miterlimit="10" stroke-linecap="round" stroke-linejoin="round"/>
<path d="M257.835 566.734C256.729 561.826 256.76 555.569 254.518 552.011C252.097 548.169 242.305 538.927 239.781 540.632C235.915 543.242 243.872 547.294 247.963 553.957" fill="#FFC6B2"/>
<path d="M257.835 566.734C256.729 561.826 256.76 555.569 254.518 552.011C252.097 548.169 242.305 538.927 239.781 540.632C235.915 543.242 243.872 547.294 247.963 553.957" stroke="#294064" stroke-miterlimit="10" stroke-linecap="round" stroke-linejoin="round"/>
<path d="M244.803 594.993C250.913 588.295 258.545 571.643 258.281 565.725C258.123 562.193 256.239 558.348 252.868 554.653C249.621 551.093 240.725 546.086 238.804 548.14C235.339 551.845 245.912 556.581 248.682 560.401C249.277 561.222 249.489 562.666 249.548 564.472C245.805 562.489 243.924 560.619 239.945 559.172C238.012 558.469 236.421 558.546 235.432 559.883C234.742 560.817 235.599 562.398 236.561 563.26C239.792 566.158 245.947 568.506 247.039 572.707C249.068 580.518 247.04 586.934 244.803 594.993Z" fill="#FFC6B2" stroke="#294064" stroke-miterlimit="10" stroke-linecap="round" stroke-linejoin="round"/>
<path d="M240.916 559.962C242.129 563.238 236.319 562.017 236.1 559.793C235.93 558.055 240.693 559.362 240.916 559.962Z" fill="#FF6D6D" stroke="#294064" stroke-miterlimit="10" stroke-linecap="round"/>
<path d="M243.921 549.434C244.145 549.863 244.356 550.194 244.148 550.691C243.456 552.342 239.827 550.616 239.289 549.106C238.425 546.67 243.181 548.019 243.921 549.434Z" fill="#FF6D6D" stroke="#294064" stroke-miterlimit="10" stroke-linecap="round"/>
<path d="M244.167 543.048C244.269 545.11 240.35 542.95 239.912 541.621C239.521 540.439 240.593 540.323 241.268 540.506C242.548 540.852 244.118 542.06 244.167 543.048Z" fill="#FF6D6D" stroke="#294064" stroke-miterlimit="10" stroke-linecap="round"/>
<path d="M252.296 540.448C252.443 541.071 251.375 541.176 250.058 540.376C248.977 539.72 247.586 538.152 248.249 537.424C249.432 536.127 252.007 539.217 252.296 540.448Z" fill="#FF6D6D" stroke="#294064" stroke-miterlimit="10" stroke-linecap="round"/>
<path d="M248.548 563.961C251.085 565.445 252.575 568.22 252.575 568.22" stroke="#294064" stroke-miterlimit="10" stroke-linecap="round"/>
<path d="M247.303 575.277C246.233 577.937 245.345 580.895 244.941 583.739C244.796 584.763 244.483 585.816 244.426 586.849C244.379 587.697 244.286 588.535 244.308 589.383C244.34 590.486 244.864 601.988 247.968 600.201C249.688 599.211 253.139 583.515 253.139 583.515C253.139 583.515 251.144 586.745 250.672 586.403C250.203 586.06 252.062 582.365 252.062 582.365C252.062 582.365 251.076 575.798 249.274 571.824" fill="#FFC6B2"/>
<path d="M292.42 628.292C289.474 626.973 286.174 630.444 284.446 632.207C280.092 636.648 275.789 642.755 275.261 649.206C274.707 655.998 273.949 655.899 273.949 655.899C273.949 655.899 278.253 657.22 284.488 652.53C287.113 650.556 295.834 642.026 297.291 639.058C299.459 634.639 300.552 630.193 301.663 625.418" fill="#FFC6B2"/>
<path d="M356.938 595.804C357.685 593.703 359.995 592.606 362.095 593.353C364.197 594.1 365.296 596.408 364.548 598.51C363.801 600.612 361.491 601.71 359.389 600.963C357.289 600.216 356.191 597.906 356.938 595.804Z" fill="#FFF4E8" stroke="#294064" stroke-miterlimit="10" stroke-linejoin="round"/>
<path d="M362.4 613.895C363.97 609.48 368.819 607.175 373.232 608.744C377.646 610.313 379.951 615.163 378.382 619.577C376.813 623.99 371.964 626.295 367.549 624.726C363.136 623.157 360.831 618.307 362.4 613.895Z" fill="#FFF4E8" stroke="#294064" stroke-miterlimit="10" stroke-linejoin="round"/>
<path d="M62.4756 681.71C63.1407 677.874 67.359 675.929 70.9915 675.899" stroke="#294064" stroke-miterlimit="10" stroke-linecap="round" stroke-linejoin="round"/>
<path d="M100.866 662.483C100.236 664.188 100.873 669.106 101.011 671.055" stroke="#294064" stroke-miterlimit="10" stroke-linecap="round" stroke-linejoin="round"/>
<path d="M101.694 676.593C101.856 677.777 101.989 678.879 102.243 680.055" stroke="#294064" stroke-miterlimit="10" stroke-linecap="round" stroke-linejoin="round"/>
<path d="M110.319 662.3C118.351 667.053 125.152 672.918 131.001 680.187" stroke="#294064" stroke-miterlimit="10" stroke-linecap="round" stroke-linejoin="round"/>
<path d="M120.777 686.545C120.774 686.534 120.7 688.189 120.71 688.658C120.736 690.14 120.727 691.316 120.941 692.749" stroke="#294064" stroke-miterlimit="10" stroke-linecap="round" stroke-linejoin="round"/>
<path d="M125.582 686.375C125.333 688.514 125.351 690.658 125.021 692.794" stroke="#294064" stroke-miterlimit="10" stroke-linecap="round" stroke-linejoin="round"/>
<path d="M101.576 688.068C101.593 688 101.54 690.048 101.548 690.472C101.57 691.498 101.599 692.534 101.577 693.561" stroke="#294064" stroke-miterlimit="10" stroke-linecap="round" stroke-linejoin="round"/>
<path d="M106.738 688.043C106.747 689.706 106.742 691.368 106.75 693.032" stroke="#294064" stroke-miterlimit="10" stroke-linecap="round" stroke-linejoin="round"/>
<path d="M69.1664 684.806C70.0112 682.753 72.0411 681.356 74.0839 680.691" stroke="#294064" stroke-miterlimit="10" stroke-linecap="round" stroke-linejoin="round"/>
<path d="M76.4352 686.326C76.9782 683.743 80.8994 681.715 80.8994 681.715" stroke="#294064" stroke-miterlimit="10" stroke-linecap="round" stroke-linejoin="round"/>
<path d="M81.8136 686.948C82.4064 683.572 87.0833 683.01 88.843 682.995" stroke="#294064" stroke-miterlimit="10" stroke-linecap="round" stroke-linejoin="round"/>
<path d="M201.398 591.47C200.647 592.951 199.36 588.746 198.994 587.708C197.89 584.579 196.968 579.875 198.681 576.736C198.867 576.393 199.385 576.709 199.517 576.945C200.429 578.586 200.631 580.109 200.979 582.065C201.535 585.194 202.443 589.405 201.398 591.47Z" stroke="#294064" stroke-miterlimit="10" stroke-linecap="round" stroke-linejoin="round"/>
<path d="M201.92 592.2C202.848 589.419 203.76 587.047 205.264 584.467" stroke="#294064" stroke-miterlimit="10" stroke-linecap="round" stroke-linejoin="round"/>
<path d="M241.959 620.043C246.61 628.093 248.698 637.534 251.792 646.172" stroke="#294064" stroke-miterlimit="10" stroke-linecap="round" stroke-linejoin="round"/>
<path d="M252.962 650.756C253.181 651.822 253.463 652.875 253.727 653.93" stroke="#294064" stroke-miterlimit="10" stroke-linecap="round" stroke-linejoin="round"/>
<path d="M100.406 651.906C100.485 653.618 100.694 655.249 100.983 656.941" stroke="#294064" stroke-miterlimit="10" stroke-linecap="round" stroke-linejoin="round"/>
<path d="M58.4999 676.253C57.8445 676.757 59.8115 677.175 60.1642 677.178C61.9025 677.197 64.0699 677.036 65.5156 675.924" stroke="#294064" stroke-miterlimit="10" stroke-linecap="round" stroke-linejoin="round"/>
<path d="M63.1446 679.971C63.0383 682.33 67.7467 679.659 68.2283 679.412" stroke="#294064" stroke-miterlimit="10" stroke-linecap="round" stroke-linejoin="round"/>
<path d="M59.375 670.147C60.2024 673.06 65.584 670.51 66.7541 669.44" stroke="#294064" stroke-miterlimit="10" stroke-linecap="round" stroke-linejoin="round"/>
<path d="M147.616 603.372C153.967 606.472 159.27 611.83 163.034 617.72" stroke="#294064" stroke-miterlimit="10" stroke-linecap="round" stroke-linejoin="round"/>
<path d="M165.092 621.543C166.164 623.377 167.37 625.138 168.444 626.977" stroke="#294064" stroke-miterlimit="10" stroke-linecap="round" stroke-linejoin="round"/>
<path d="M315.039 573.715C308.219 574.5 304.841 577.866 294.797 580.185" stroke="#294064" stroke-miterlimit="10" stroke-linecap="round" stroke-linejoin="round"/>
</g>
<defs>
<clipPath id="clip0_1091_2588">
<path d="M0 0H414V841C414 852.046 405.046 861 394 861H20C8.95432 861 0 852.046 0 841V0Z" fill="white"/>
</clipPath>
</defs>
</svg>
