<svg width="414" height="861" viewBox="0 0 414 861" fill="none" xmlns="http://www.w3.org/2000/svg">
<g clip-path="url(#clip0_1091_3282)">
<path d="M0 0H414V841C414 852.046 405.046 861 394 861H20C8.95432 861 0 852.046 0 841V0Z" fill="#EFA5C6"/>
<path d="M342.729 445.337C330.262 452.545 300.978 462.174 286.013 458.662C275.355 456.162 264.579 448.059 254.058 451.081C238.952 455.42 234.26 475.934 219.376 477.205C206.568 478.3 215.986 461.993 217.56 459.189C225.578 444.911 243.611 435.569 256.553 427.421" fill="#F5EBC5"/>
<path d="M342.729 445.337C330.262 452.545 300.978 462.174 286.013 458.662C275.355 456.162 264.579 448.059 254.058 451.081C238.952 455.42 234.26 475.934 219.376 477.205C206.568 478.3 215.986 461.993 217.56 459.189C225.578 444.911 243.611 435.569 256.553 427.421" stroke="#294064" stroke-miterlimit="10" stroke-linecap="round" stroke-linejoin="round"/>
<path d="M290.405 441.422C264.975 441.081 236.343 445.301 236.343 445.301C236.343 445.301 221.322 487.06 207.694 481.581C197.324 477.413 206.38 454.569 214.087 444.473C220.691 435.821 220.758 447.678 227.792 439.371C234.611 431.316 235.845 430.358 242.174 424.309" fill="#F5EBC5"/>
<path d="M290.405 441.422C264.975 441.081 236.343 445.301 236.343 445.301C236.343 445.301 221.322 487.06 207.694 481.581C197.324 477.413 206.38 454.569 214.087 444.473C220.691 435.821 220.758 447.678 227.792 439.371C234.611 431.316 235.845 430.358 242.174 424.309" stroke="#294064" stroke-miterlimit="10" stroke-linecap="round" stroke-linejoin="round"/>
<path d="M247.23 428.037C236.571 439.514 227.909 443.215 227.909 443.215C227.909 443.215 212.883 476.744 199.377 471.015C190.515 467.256 206.24 437.919 213.031 428.764C222.777 415.627 233.945 401.069 250.289 401.713C295.181 403.479 377.116 435.918 420.292 448.337" fill="#FDF8E5"/>
<path d="M247.23 428.037C236.571 439.514 227.909 443.215 227.909 443.215C227.909 443.215 212.883 476.744 199.377 471.015C190.515 467.256 206.24 437.919 213.031 428.764C222.777 415.627 233.945 401.069 250.289 401.713C295.181 403.479 377.116 435.918 420.292 448.337" stroke="#294064" stroke-miterlimit="10" stroke-linecap="round" stroke-linejoin="round"/>
<path d="M426.243 436.522C375.278 428.938 310.587 405.613 269.66 411.73C255.154 413.898 231.713 416.762 222.934 421.372C214.155 425.982 224.19 433.613 228.13 434.672C239.722 437.786 252.47 433.989 264.055 437.129C307.544 448.917 381.452 488.657 423.392 505.125C440.383 511.797 424.253 497.253 440.126 506.268" fill="#FDF8E5"/>
<path d="M426.243 436.522C375.278 428.938 310.587 405.613 269.66 411.73C255.154 413.898 231.713 416.762 222.934 421.372C214.155 425.982 224.19 433.613 228.13 434.672C239.722 437.786 252.47 433.989 264.055 437.129C307.544 448.917 381.452 488.657 423.392 505.125C440.383 511.797 424.253 497.253 440.126 506.268" stroke="#294064" stroke-miterlimit="10" stroke-linecap="round" stroke-linejoin="round"/>
<path d="M273.815 407.074C270.998 405.995 266.586 407.539 263.147 410.006C261.625 411.098 268.03 409.87 268.691 411.324C269.938 414.073 257.5 417.877 258.973 419.526C262.897 423.915 318.841 414.882 318.841 414.882C318.841 414.882 309.359 414.219 289.263 408.125C283.394 406.345 276.633 409.459 276.153 409.554" fill="#FDF8E5"/>
<path d="M101.408 445.995C110.351 452.524 120.641 457.778 131.454 460.16C143.289 462.768 151.86 452.345 163.483 457.217C168.985 459.524 184.071 480.376 192.476 475.02C201.651 469.173 191.063 451.858 185.889 446.931C172.252 433.945 146.316 422.744 127.263 423.21" fill="#EDA287"/>
<path d="M101.408 445.995C110.351 452.524 120.641 457.778 131.454 460.16C143.289 462.768 151.86 452.345 163.483 457.217C168.985 459.524 184.071 480.376 192.476 475.02C201.651 469.173 191.063 451.858 185.889 446.931C172.252 433.945 146.316 422.744 127.263 423.21" stroke="#294064" stroke-miterlimit="10" stroke-linecap="round" stroke-linejoin="round"/>
<path d="M150.602 436.93C157.955 443.555 176.134 453.603 176.134 453.603C176.134 453.603 184.941 466.889 193.384 473.709C203.536 481.909 213.486 477.708 204.627 462.855C195.243 447.12 177.408 433.379 154.801 417.893" fill="#EDA287"/>
<path d="M150.602 436.93C157.955 443.555 176.134 453.603 176.134 453.603C176.134 453.603 184.941 466.889 193.384 473.709C203.536 481.909 213.486 477.708 204.627 462.855C195.243 447.12 177.408 433.379 154.801 417.893" stroke="#294064" stroke-miterlimit="10" stroke-linecap="round" stroke-linejoin="round"/>
<path d="M139.5 426.211C177.206 424.561 189.646 472.906 206.242 470.921C216.284 469.72 206.397 450.675 200.738 444.944C187.202 431.236 179.845 424.288 163.611 414.196" fill="#F4AD94"/>
<path d="M139.5 426.211C177.206 424.561 189.646 472.906 206.242 470.921C216.284 469.72 206.397 450.675 200.738 444.944C187.202 431.236 179.845 424.288 163.611 414.196" stroke="#294064" stroke-miterlimit="10" stroke-linecap="round" stroke-linejoin="round"/>
<path d="M172.897 421.998C178.278 426.813 187.033 432.738 188.977 440.317C190.913 447.868 193.388 462.205 200.115 463.236C211.5 464.98 205.431 440.988 204.644 437.964C201.336 425.255 191.207 412.167 176.526 406.599C154.358 398.189 137.764 423.735 95.5317 405.624" fill="#F4AD94"/>
<path d="M172.897 421.998C178.278 426.813 187.033 432.738 188.977 440.317C190.913 447.868 193.388 462.205 200.115 463.236C211.5 464.98 205.431 440.988 204.644 437.964C201.336 425.255 191.207 412.167 176.526 406.599C154.358 398.189 137.764 423.735 95.5317 405.624" stroke="#294064" stroke-miterlimit="10" stroke-linecap="round" stroke-linejoin="round"/>
<path d="M111.238 438.362C141.464 443.641 160.296 416.397 164.323 414.735C168.04 413.2 195.52 424.714 196.739 410.204C197.251 404.113 170.978 396.627 159.678 396.363C144.898 396.017 131.572 413.131 116.533 409.58C73.3358 399.381 -22.3524 370.509 -22.3524 370.509C-22.3524 370.509 -19.5609 407.033 -16.0558 428.99C-13.3182 446.139 -19.3826 451.846 -8.31783 452.106C26.0452 452.916 78.824 447.252 102.111 445.422" fill="#F4AD94"/>
<path d="M111.238 438.362C141.464 443.641 160.296 416.397 164.323 414.735C168.04 413.2 195.52 424.714 196.739 410.204C197.251 404.113 170.978 396.627 159.678 396.363C144.898 396.017 131.572 413.131 116.533 409.58C73.3358 399.381 -22.3524 370.509 -22.3524 370.509C-22.3524 370.509 -19.5609 407.033 -16.0558 428.99C-13.3182 446.139 -19.3826 451.846 -8.31783 452.106C26.0452 452.916 78.824 447.252 102.111 445.422" stroke="#294064" stroke-miterlimit="10" stroke-linecap="round" stroke-linejoin="round"/>
<path d="M291.134 477.667C291.134 477.667 279.727 464.593 276.105 472.041C272.482 479.49 281.864 498.696 284.471 510.119C289.862 533.737 270.715 555.662 278.402 578.019C287.999 605.927 313.349 626.803 337.145 644.26C365.543 665.093 450.152 707.761 469.688 721.692C474.145 724.87 476.869 684.193 482.305 684.848C496.09 655.589 420.927 664.912 434.712 635.654C400.058 614.611 363.058 597.019 330.75 572.526C320.1 564.452 312.769 552.014 307.943 539.55C303.209 527.321 304.567 513.541 302.879 500.536" fill="#FEAD90"/>
<path d="M291.134 477.667C291.134 477.667 279.727 464.593 276.105 472.041C272.482 479.49 281.864 498.696 284.471 510.119C289.862 533.737 270.715 555.662 278.402 578.019C287.999 605.927 313.349 626.803 337.145 644.26C365.543 665.093 450.152 707.761 469.688 721.692C474.145 724.87 476.869 684.193 482.305 684.848C496.09 655.589 420.927 664.912 434.712 635.654C400.058 614.611 363.058 597.019 330.75 572.526C320.1 564.452 312.769 552.014 307.943 539.55C303.209 527.321 304.567 513.541 302.879 500.536" stroke="#294064" stroke-miterlimit="10" stroke-linecap="round" stroke-linejoin="round"/>
<path d="M297.018 469.162C297.018 469.162 277.045 452.857 273.768 459.472C269.251 468.59 286.474 480.104 287.145 482.746C288.477 487.994 288.405 525.129 294.554 536.639C310.008 516.626 311.021 477.644 287.928 462.852" fill="#FEAD90"/>
<path d="M297.018 469.162C297.018 469.162 277.045 452.857 273.768 459.472C269.251 468.59 286.474 480.104 287.145 482.746C288.477 487.994 288.405 525.129 294.554 536.639C310.008 516.626 311.021 477.644 287.928 462.852" stroke="#294064" stroke-miterlimit="10" stroke-linecap="round" stroke-linejoin="round"/>
<path d="M346.545 580.539C309.495 545.025 327.584 498.162 307.698 467.515C296.521 450.293 276.21 437.123 280.976 455.472C283.164 463.888 295.275 479.874 295.275 479.874C295.275 479.874 306.207 532.925 326.276 560.833C331.937 568.705 345.493 580.14 352.099 584.646C376.747 601.46 425.47 599.788 450.458 616.09C451.872 617.013 430.484 634.839 431.299 636.318C431.8 637.231 431.181 638.53 430.535 639.348C426.998 643.832 423.657 648.74 418.948 651.974C402.358 663.367 381.238 661.421 364.094 652.731C329.619 635.255 310.521 603.232 293.897 569.98" fill="#FFC6B2"/>
<path d="M346.545 580.539C309.495 545.025 327.584 498.162 307.698 467.515C296.521 450.293 276.21 437.123 280.976 455.472C283.164 463.888 295.275 479.874 295.275 479.874C295.275 479.874 306.207 532.925 326.276 560.833C331.937 568.705 345.493 580.14 352.099 584.646C376.747 601.46 425.47 599.788 450.458 616.09C451.872 617.013 430.484 634.839 431.299 636.318C431.8 637.231 431.181 638.53 430.535 639.348C426.998 643.832 423.657 648.74 418.948 651.974C402.358 663.367 381.238 661.421 364.094 652.731C329.619 635.255 310.521 603.232 293.897 569.98" stroke="#294064" stroke-miterlimit="10" stroke-linecap="round" stroke-linejoin="round"/>
<path d="M313.938 532.188C303.143 521.556 308.693 471.474 290.742 478.494C280.883 482.349 290.601 514.566 288.648 524.717C286.837 534.133 281.442 527.764 279.461 537.145C274.536 560.469 289.809 576.784 302.62 594.624" fill="#FFC6B2"/>
<path d="M313.938 532.188C303.143 521.556 308.693 471.474 290.742 478.494C280.883 482.349 290.601 514.566 288.648 524.717C286.837 534.133 281.442 527.764 279.461 537.145C274.536 560.469 289.809 576.784 302.62 594.624" stroke="#294064" stroke-miterlimit="10" stroke-linecap="round" stroke-linejoin="round"/>
<path d="M298.847 540.955C298.575 541.112 297.983 541.114 298.031 541.425C299.614 551.791 303.857 563.92 301.57 574.743C300.595 579.36 296.301 583.835 297.154 588.849C298.878 598.967 306.873 608.046 313.398 615.52C330.566 635.188 346.019 649.018 370.246 659.422C381.144 664.102 395.919 674.064 407.296 666.306C413.922 661.788 411.758 649.988 406.42 645.414C389.423 630.849 385.381 617.457 369.469 601.059C360.89 592.219 355.444 590.928 343.21 577.984C337.488 571.93 332.025 564.638 328.193 556.224C320.579 539.504 322.621 527.542 303.178 542.814" fill="#FFC6B2"/>
<path d="M122.337 529.801C107.834 502.773 120.557 479.646 139.848 466.397C144.133 463.454 157.202 457.981 154.586 449.456C152.543 442.798 137.968 446.686 134.598 448.558C120.817 456.21 111.115 465.746 105.232 480.564C101.355 490.329 97.9197 500.277 93.6821 509.891" fill="#FFCEC3"/>
<path d="M122.337 529.801C107.834 502.773 120.557 479.646 139.848 466.397C144.133 463.454 157.202 457.981 154.586 449.456C152.543 442.798 137.968 446.686 134.598 448.558C120.817 456.21 111.115 465.746 105.232 480.564C101.355 490.329 97.9197 500.277 93.6821 509.891" stroke="#294064" stroke-miterlimit="10" stroke-linecap="round" stroke-linejoin="round"/>
<path d="M113.617 502.522C120.055 486.75 125.617 467.587 131.353 464.195C137.991 460.269 159.118 445.907 158.24 439.04C156.845 428.141 140.534 437.961 132.75 443.242C120.028 451.873 115.023 462.133 107.641 475.009" fill="#FFCEC3"/>
<path d="M113.617 502.522C120.055 486.75 125.617 467.587 131.353 464.195C137.991 460.269 159.118 445.907 158.24 439.04C156.845 428.141 140.534 437.961 132.75 443.242C120.028 451.873 115.023 462.133 107.641 475.009" stroke="#294064" stroke-miterlimit="10" stroke-linecap="round" stroke-linejoin="round"/>
<path d="M112.546 502.057C113.649 488.213 119.488 466.189 119.488 466.189C119.488 466.189 159.097 438.43 150.28 428.595C142.478 419.892 105.393 446.259 99.8204 455.176C89.7602 471.274 91.2488 524.861 72.5026 545.682C52.2633 568.162 -23.8255 585.257 -23.8255 585.257C-23.8255 585.257 -22.0333 632.104 -28.2739 655.939C37.5779 607.661 37.5779 607.661 103.43 559.384" fill="#FFE0D9"/>
<path d="M112.546 502.057C113.649 488.213 119.488 466.189 119.488 466.189C119.488 466.189 159.097 438.43 150.28 428.595C142.478 419.892 105.393 446.259 99.8205 455.176C89.7602 471.274 91.2488 524.861 72.5026 545.682C52.2633 568.162 -23.8255 585.257 -23.8255 585.257C-23.8255 585.257 -22.0333 632.104 -28.2739 655.939C37.5779 607.661 37.5779 607.661 103.43 559.384" stroke="#294064" stroke-miterlimit="10" stroke-linecap="round" stroke-linejoin="round"/>
<path d="M98.4036 520.905C98.4036 520.905 113.402 502.391 114.237 499.521C116.507 491.712 127.449 450.521 143.41 461.751C151.265 467.276 137.243 494.96 137.052 499.944C136.626 511.062 148.34 525.372 140.939 544.758C134.462 561.725 124.339 577.559 97.7821 593.957C82.5472 603.364 4.91625 684.312 -44.4179 716.061C-64.7859 729.168 -83.1319 731.582 -108 734.82" fill="#FFE0D9"/>
<path d="M98.4036 520.905C98.4036 520.905 113.402 502.391 114.237 499.521C116.507 491.712 127.449 450.521 143.41 461.751C151.265 467.276 137.243 494.96 137.052 499.944C136.626 511.062 148.34 525.372 140.939 544.758C134.462 561.725 124.339 577.559 97.7821 593.957C82.5472 603.364 4.91625 684.312 -44.4179 716.061C-64.7859 729.168 -83.1319 731.582 -108 734.82" stroke="#294064" stroke-miterlimit="10" stroke-linecap="round" stroke-linejoin="round"/>
<path d="M68.3372 542.97L53.8827 554.808C53.8827 554.808 69.7017 563.706 79.1336 575.212C88.5654 586.716 91.6252 600.849 91.6252 600.849C91.6252 600.849 100.558 597.15 105.663 589.964C105.663 589.964 100.629 576.104 91.298 564.355C81.9666 552.606 68.3372 542.97 68.3372 542.97ZM78.8659 561.5C79.3252 561.663 79.8579 561.985 80.3529 562.452C81.343 563.384 81.8056 564.484 81.394 564.92C80.9823 565.357 79.8262 564.961 78.8361 564.029C77.8461 563.096 77.3835 561.997 77.7952 561.56C78.001 561.341 78.4066 561.338 78.8659 561.5ZM85.2902 569.857C85.7646 569.49 86.8358 570.062 87.6696 571.136C88.5032 572.211 88.7982 573.356 88.3238 573.724C87.8494 574.092 86.7782 573.519 85.9444 572.445C85.1108 571.37 84.8158 570.226 85.2902 569.857ZM91.7442 579.435C92.2644 579.135 93.2364 579.862 93.9153 581.04C94.5942 582.219 94.7329 583.418 94.2128 583.717C93.6926 584.017 92.7206 583.29 92.0416 582.112C91.3626 580.933 91.2239 579.734 91.7442 579.435Z" fill="#C1474A" stroke="#294064" stroke-miterlimit="10" stroke-linejoin="round"/>
<path d="M53.2582 538.881C59.9965 533.096 74.2936 532.161 74.2936 532.161C74.2936 532.161 77.1978 535.892 78.1165 536.929C80.4495 539.561 76.4497 548.294 67.7502 555.763C61.2644 561.33 54.6437 564.539 49.6529 563.611C47.9494 563.295 45.0961 559.832 44.1113 558.619C41.848 555.828 44.5588 546.349 53.2582 538.881Z" fill="#044C75" stroke="#294064" stroke-miterlimit="10" stroke-linejoin="round"/>
<path d="M55.3728 552.926L61.053 560.893L56.3673 563.222L51.0173 556.146L55.3728 552.926Z" fill="white"/>
<path d="M59.2237 550.414L65.0976 558.174L62.9601 559.61L57.2474 551.875L59.2237 550.414Z" fill="white"/>
<path d="M73.0665 535.349L78.1522 542.971L75.5972 547.111L68.7111 538.569L73.0665 535.349Z" fill="white"/>
<path d="M47.7588 563.208C47.7948 563.179 47.8308 563.15 47.8668 563.121L47.7588 563.208Z" fill="white"/>
<path d="M53.2582 538.881C59.9965 533.096 74.2936 532.161 74.2936 532.161C74.2936 532.161 77.1977 535.892 78.1165 536.929C80.4495 539.561 76.4497 548.294 67.7502 555.763C61.2644 561.33 54.6437 564.539 49.6529 563.611C47.9494 563.295 45.0961 559.832 44.1113 558.619C41.848 555.828 44.5588 546.349 53.2582 538.881Z" stroke="#294064" stroke-miterlimit="10" stroke-linejoin="round"/>
<path d="M53.2433 538.805C59.9817 533.02 74.2788 532.085 74.2788 532.085C74.2788 532.085 77.1829 535.816 78.1016 536.853C80.4346 539.485 76.4347 548.218 67.7353 555.687C61.2496 561.254 54.6289 564.463 49.638 563.535C47.9345 563.218 45.0813 559.756 44.0963 558.542C41.8332 555.752 44.5439 546.273 53.2433 538.805Z" stroke="#294064" stroke-miterlimit="10" stroke-linejoin="round"/>
<path d="M53.3498 538.611C61.7916 531.365 71.3447 528.647 74.6873 532.54C78.03 536.435 73.8964 545.466 65.4547 552.712C57.013 559.959 47.4598 562.677 44.1172 558.783C40.7745 554.889 44.9081 545.858 53.3498 538.611Z" fill="#FEDA8C" stroke="#294064" stroke-miterlimit="10" stroke-linejoin="round"/>
<path d="M54.6366 539.492C62.0171 533.156 70.2011 530.584 72.916 533.746C75.631 536.909 71.8489 544.609 64.4684 550.945C57.088 557.28 48.9041 559.852 46.1891 556.69C43.4741 553.527 47.2562 545.828 54.6366 539.492Z" fill="white" stroke="#294064" stroke-miterlimit="10" stroke-linejoin="round"/>
<path d="M65.6795 539.155C65.8421 539.02 66.084 539.041 66.2198 539.203C66.3556 539.366 66.3339 539.608 66.1714 539.744L59.3901 545.409C59.2275 545.545 58.9855 545.523 58.8497 545.36C58.7139 545.198 58.7356 544.956 58.8982 544.82L65.6795 539.155Z" fill="#434343" stroke="#294064" stroke-miterlimit="10" stroke-linejoin="round"/>
<path d="M57.1867 546.484C56.7588 545.972 57.0485 545.025 57.8336 544.37C58.6188 543.714 59.6021 543.599 60.03 544.111C60.4579 544.624 60.1682 545.571 59.3831 546.225C58.5979 546.881 57.6145 546.997 57.1867 546.484Z" fill="#2956A9" stroke="#294064" stroke-miterlimit="10" stroke-linejoin="round"/>
<path d="M52.4821 543.819C50.1812 545.935 48.516 548.792 47.6082 551.772" stroke="#294064" stroke-miterlimit="10" stroke-linecap="round" stroke-linejoin="round"/>
<path d="M62.7961 550.23C65.6942 548.125 68.5257 544.624 70.1312 542.103" stroke="#294064" stroke-miterlimit="10" stroke-linecap="round" stroke-linejoin="round"/>
<path d="M70.9501 540.72C70.9501 540.72 72.3537 538.246 72.3232 536.466" stroke="#294064" stroke-miterlimit="10" stroke-linecap="round" stroke-linejoin="round"/>
<path d="M268.706 694.421C258.705 645.407 299.586 616.722 302.636 594.761C303.526 588.359 300.526 525.332 290.577 526.9C283.401 528.032 282.264 544.95 282.541 557.196C282.695 564.034 227.774 674.474 227.774 674.474" fill="#E29F64"/>
<path d="M268.706 694.421C258.705 645.407 299.586 616.722 302.636 594.761C303.526 588.359 300.526 525.332 290.577 526.9C283.401 528.032 282.264 544.95 282.541 557.196C282.695 564.034 227.774 674.474 227.774 674.474" stroke="#294064" stroke-miterlimit="10" stroke-linecap="round" stroke-linejoin="round"/>
<path d="M266.985 679.08C266.547 657.574 290.3 624.273 291.361 612.023C293.536 586.88 289.319 537.55 288.169 530.188C285.91 515.724 273.296 523.112 272.954 534.714C272.233 559.143 273.552 585.544 268.757 609.845" fill="#EAAA72"/>
<path d="M266.985 679.08C266.547 657.574 290.3 624.273 291.361 612.023C293.536 586.88 289.319 537.55 288.169 530.188C285.91 515.724 273.296 523.112 272.954 534.714C272.233 559.143 273.552 585.544 268.757 609.845" stroke="#294064" stroke-miterlimit="10" stroke-linecap="round" stroke-linejoin="round"/>
<path d="M274.317 618.63C274.317 618.63 282.501 584.017 282.394 572.858C282.294 562.332 279.763 528.539 272.121 528.381C257.967 528.09 264.503 571.709 264.503 571.709L232.067 683.702" fill="#EAAA72"/>
<path d="M274.317 618.63C274.317 618.63 282.501 584.017 282.394 572.858C282.294 562.332 279.763 528.539 272.121 528.381C257.967 528.09 264.503 571.709 264.503 571.709L232.067 683.702" stroke="#294064" stroke-miterlimit="10" stroke-linecap="round" stroke-linejoin="round"/>
<path d="M255.479 646.852C250.694 633.209 257.403 608.269 257.403 608.269C257.403 608.269 265.869 570.713 259.012 567.486C246.296 561.5 236.737 588.647 235.721 601.533C233.94 624.113 230.355 627.779 222.51 639.225C215.137 649.981 206.921 674.993 208.208 692.569C209.717 713.188 217.551 773.275 226.639 817.343C235.804 861.775 255.766 942.781 264.765 987.246C265.634 991.536 317.747 1038.27 322.096 1038.76C343.278 1041.13 338.394 1007.44 359.309 1003.34C365.363 1002.15 392.975 1000.13 393.871 994.026C395.318 984.173 389.323 954.156 389.323 954.156C389.323 954.156 312.984 795.911 290.507 750.814C274.269 718.234 266.62 691.988 266.823 676.642" fill="#EAAA72"/>
<path d="M255.479 646.852C250.694 633.209 257.403 608.269 257.403 608.269C257.403 608.269 265.869 570.713 259.012 567.486C246.296 561.5 236.737 588.647 235.721 601.533C233.94 624.113 230.355 627.779 222.51 639.225C215.137 649.981 206.921 674.993 208.208 692.569C209.717 713.188 217.551 773.275 226.639 817.343C235.804 861.775 255.766 942.781 264.765 987.246C265.634 991.537 317.747 1038.27 322.096 1038.76C343.278 1041.13 338.394 1007.44 359.309 1003.34C365.363 1002.15 392.975 1000.13 393.871 994.026C395.318 984.173 389.323 954.156 389.323 954.156C389.323 954.156 312.984 795.911 290.507 750.814C274.269 718.234 266.62 691.988 266.823 676.642" stroke="#294064" stroke-miterlimit="10" stroke-linecap="round" stroke-linejoin="round"/>
<path d="M270.074 621.878C267.555 622.015 263.48 629.297 261.578 632.47C259.82 635.401 258.048 638.455 256.685 641.633C256.105 642.985 256.015 644.858 255.49 646.565C254.963 648.27 251.493 640.707 251.335 641.616C250.865 644.317 254.101 653.941 254.772 656.808C255.126 658.32 263.689 682.044 266.137 680.212C266.137 680.212 266.666 670.403 268.768 663.753C269.826 660.41 268.422 657.383 269.198 653.967C270.606 647.76 271.702 639.69 274.068 633.9" fill="#EAAA72"/>
<path d="M246.489 607.448C246.489 607.448 245.281 596.306 241.761 598.178C236.721 600.858 243.796 622.007 243.796 622.007C243.796 622.007 257.167 604.645 254.23 600.118C251.544 595.977 246.489 607.448 246.489 607.448Z" stroke="#044C75" stroke-miterlimit="10" stroke-linecap="round" stroke-linejoin="round"/>
<path d="M80.1235 939.354C85.1516 914.174 158.012 692.7 157.46 675.271C156.554 646.746 129.97 610.997 126.52 588.776C124.881 578.222 124.837 532.718 136.411 530.192C147.501 527.77 141.13 571.227 150.245 590.495C162.493 616.382 180.208 637.021 186.104 664.627C188.347 675.131 186.547 690.114 184.445 699.591C170.089 764.358 152.353 828.375 139.213 893.399C129.416 941.883 127.345 991.72 125.393 1041.15" fill="#FFB9AA"/>
<path d="M80.1235 939.354C85.1516 914.174 158.012 692.7 157.46 675.271C156.554 646.746 129.97 610.997 126.52 588.776C124.881 578.222 124.837 532.718 136.411 530.192C147.501 527.77 141.13 571.227 150.245 590.495C162.493 616.382 180.208 637.021 186.104 664.627C188.347 675.131 186.547 690.114 184.445 699.591C170.089 764.358 152.353 828.375 139.213 893.399C129.416 941.883 127.345 991.72 125.393 1041.15" stroke="#294064" stroke-miterlimit="10" stroke-linecap="round" stroke-linejoin="round"/>
<path d="M148.253 626.044C145.146 611.986 133.197 588.183 133.134 579.675C133.052 568.574 136.15 526.801 145.737 528.442C156.144 530.224 150.782 568.155 150.782 568.155C150.782 568.155 176.291 650.485 186.199 701.919C189.355 718.302 192.302 734.953 192.009 751.635C191.157 800.172 187.909 848.705 182.776 896.977C179.831 924.676 170.564 952.148 156.964 976.456C151.8 973.422 145.79 971.507 141.476 967.354C130.109 956.409 110.523 924.249 114.787 907.177C130.623 843.761 152.589 781.996 168.809 718.678C175.86 691.152 169.263 659.349 166.5 632.535" fill="#FFB9AA"/>
<path d="M148.253 626.044C145.146 611.986 133.197 588.183 133.134 579.675C133.052 568.574 136.15 526.801 145.737 528.442C156.144 530.224 150.782 568.155 150.782 568.155C150.782 568.155 176.291 650.485 186.199 701.919C189.355 718.302 192.302 734.953 192.009 751.635C191.157 800.172 187.909 848.705 182.776 896.977C179.831 924.676 170.564 952.148 156.964 976.456C151.8 973.422 145.79 971.507 141.476 967.354C130.109 956.409 110.523 924.249 114.787 907.177C130.623 843.761 152.589 781.996 168.809 718.678C175.86 691.152 169.263 659.349 166.5 632.535" stroke="#294064" stroke-miterlimit="10" stroke-linecap="round" stroke-linejoin="round"/>
<path d="M164.36 635.987C165.355 623.3 139.413 582.002 146.952 573.041C159.345 558.31 171.047 594.807 180.804 609.428C185.914 617.085 194.445 626.211 200.117 633.129C225.277 663.823 198.894 694.393 197.516 717.962C196.081 742.482 190.823 889.861 187.36 938.56C185.377 966.432 167.086 949.78 158.61 976.716C153.916 991.635 141.045 944.061 129.912 952.518" fill="#FFB9AA"/>
<path d="M164.36 635.987C165.355 623.3 139.413 582.002 146.952 573.041C159.345 558.31 171.047 594.807 180.804 609.428C185.914 617.085 194.445 626.211 200.117 633.129C225.277 663.823 198.894 694.393 197.516 717.962C196.081 742.482 190.823 889.861 187.36 938.56C185.377 966.432 167.086 949.78 158.61 976.716C153.916 991.635 141.045 944.061 129.912 952.518" stroke="#294064" stroke-miterlimit="10" stroke-linecap="round" stroke-linejoin="round"/>
<path d="M165.187 769.455C163.655 767.446 159.358 765.652 157.824 767.659C146.394 782.614 138.389 799.91 129.309 816.397C113.39 845.305 107.723 882.488 107.605 915.196C107.575 923.351 107.5 968.506 127.867 957.265C142.549 949.161 143.608 927.552 149.583 911.882C151.754 906.188 153.43 900.3 154.823 894.368C158.996 876.59 160.561 859.345 162.677 841.389C165.581 816.723 178.012 786.276 165.187 769.455Z" fill="#FFB9AA"/>
<path d="M202.509 700.439C202.509 700.439 193.067 706.361 179.655 700.662C171.833 697.339 161.38 689.564 156.782 683.973C156.782 683.973 158.137 675.615 157.236 675.662C140.935 676.512 148.406 690.677 148.053 693.564C147.368 699.179 143.718 707.163 142.299 712.488C126.226 772.807 96.9379 850.55 77.3083 920.662C74.5211 930.617 55.8737 992.827 60.2262 1002.14C63.1843 1008.47 111.144 926.119 116.661 926.703C139.062 929.076 168.509 948.844 187.445 934.026C189.177 932.67 212.586 838.791 196.885 774.072C196.06 770.672 196.25 762.547 198.55 759.497C200.233 757.266 204.641 755.503 204.676 752.213C204.717 748.352 198.034 745.616 198.567 741.245C198.815 739.212 204.32 739.137 203.912 736.817C202.603 729.373 202.509 700.439 202.509 700.439Z" fill="#044C75" stroke="#294064" stroke-miterlimit="10" stroke-linecap="round" stroke-linejoin="round"/>
<path d="M256.754 562.899C249.276 563.219 243.514 582.848 253.672 584.43C262.632 585.827 263.121 562.627 256.754 562.899Z" fill="#402A22" stroke="#294064" stroke-miterlimit="10" stroke-linecap="round" stroke-linejoin="round"/>
<path d="M272.952 524.269C267.747 523.438 271.633 543.687 276.713 542.941C279.882 542.475 275.709 524.709 272.952 524.269Z" fill="#402A22" stroke="#294064" stroke-miterlimit="10" stroke-linecap="round" stroke-linejoin="round"/>
<path d="M282.09 519.107C280.273 520.695 283.065 539.207 287.594 534.773C289.55 532.858 285.863 515.81 282.09 519.107Z" fill="#402A22" stroke="#294064" stroke-miterlimit="10" stroke-linecap="round" stroke-linejoin="round"/>
<path d="M290.457 524.193C289.18 525.91 293.453 539.038 295.924 535.729C298.007 532.94 293.166 520.548 290.457 524.193Z" fill="#402A22" stroke="#294064" stroke-miterlimit="10" stroke-linecap="round" stroke-linejoin="round"/>
<path d="M297.825 481.346C291.453 472.76 285.431 485.68 290.574 492.507C292.504 495.067 298.101 493.48 299.538 491.314C301.383 488.531 299.105 483.073 297.825 481.346Z" fill="#C1474A" stroke="#294064" stroke-miterlimit="10" stroke-linecap="round" stroke-linejoin="round"/>
<path d="M283.3 446.539C279.737 448.634 292.214 455.399 293.261 454.504C296.767 451.51 284.821 445.645 283.3 446.539Z" fill="#C1474A" stroke="#294064" stroke-miterlimit="10" stroke-linecap="round" stroke-linejoin="round"/>
<path d="M195.741 408.619C194.902 406.352 184.341 399.26 183.24 404.362C182.147 409.437 197.485 413.338 195.741 408.619Z" fill="#FEDA8C" stroke="#294064" stroke-miterlimit="10" stroke-linecap="round" stroke-linejoin="round"/>
<path d="M205.527 460.747C206.101 459.835 206.742 456.476 206.828 455.403C206.968 453.629 207.362 447.279 205.046 447.956C202.176 448.795 201.935 466.459 205.527 460.747Z" fill="#FEDA8C" stroke="#294064" stroke-miterlimit="10" stroke-linecap="round" stroke-linejoin="round"/>
<path d="M148.983 572.188C145.659 575.772 147.662 585.691 152.546 586.98C154.756 587.562 158.291 586.225 160.717 582.699C162.955 579.446 154.427 566.316 148.983 572.188Z" fill="#FF6D6D" stroke="#294064" stroke-miterlimit="10" stroke-linecap="round" stroke-linejoin="round"/>
<path d="M138.412 542.105C142.608 547.355 146.418 532.124 144.456 529.131C142.979 526.879 136.137 539.259 138.412 542.105Z" fill="#FF6D6D" stroke="#294064" stroke-miterlimit="10" stroke-linecap="round" stroke-linejoin="round"/>
<path d="M219.694 425.23C222.963 432.364 241.25 426.755 233.85 419.106" stroke="#294064" stroke-miterlimit="10" stroke-linecap="round" stroke-linejoin="round"/>
<path d="M139.319 460.335C133.015 461.006 129.287 470.61 130.397 472.922C134.966 482.446 146.752 473.801 142.929 464.291" stroke="#294064" stroke-miterlimit="10" stroke-linecap="round" stroke-linejoin="round"/>
<path d="M135.052 430.111C136.267 435.118 146.175 430.68 147.759 428.628" stroke="#294064" stroke-miterlimit="10" stroke-linecap="round" stroke-linejoin="round"/>
<path d="M416.022 587.473C408.26 587.002 400.489 586.657 392.736 586.062C384.418 585.422 375.708 580.98 367.82 583.698C358.062 587.059 359.629 598.802 356.499 606.773C349.375 624.917 342.242 640.044 348.953 659.669C353.098 671.788 364.266 674.05 374.028 680.577C400.077 697.992 426.971 722.798 459.931 707.18" fill="#FF6D6D"/>
<path d="M416.022 587.473C408.26 587.002 400.489 586.657 392.736 586.062C384.418 585.422 375.708 580.98 367.82 583.698C358.062 587.059 359.629 598.802 356.499 606.773C349.375 624.917 342.242 640.044 348.953 659.669C353.098 671.788 364.266 674.05 374.028 680.577C400.077 697.992 426.971 722.798 459.931 707.18" stroke="#294064" stroke-miterlimit="10" stroke-linecap="round"/>
<path d="M353.927 660.132C349.086 653.632 340.301 649.805 336.101 647.338C324.731 640.662 311.932 641.163 313.885 625.831L317.372 628.686C321.123 623.872 328.283 616.734 332.518 598.562C333.603 593.906 338.723 574.693 343.318 572.066C344.579 571.346 348.673 580.846 350.5 581.685C366.09 588.847 375.649 585.738 376.965 590.847C377.662 593.553 387.121 613.373 366.334 649.023" fill="#FF6D6D"/>
<path d="M353.927 660.132C349.086 653.632 340.301 649.805 336.101 647.338C324.731 640.662 311.932 641.163 313.885 625.831L317.372 628.686C321.123 623.872 328.283 616.734 332.518 598.562C333.603 593.906 338.723 574.693 343.318 572.066C344.579 571.346 348.673 580.846 350.5 581.685C366.09 588.847 375.649 585.738 376.965 590.847C377.662 593.553 387.121 613.373 366.334 649.023" stroke="#294064" stroke-miterlimit="10" stroke-linecap="round"/>
<path d="M328.082 462.228C328.082 462.228 326.602 470.938 328.922 476.737C331.469 483.101 338.949 492.956 346.443 476.607C353.938 460.258 362.202 424.285 359.057 412.961C354.316 395.888 339.418 417.971 339.418 417.971L347.147 419.57C347.147 419.57 349.395 414.378 351.515 413.948C353.634 413.519 352.634 421.21 352.2 424.307C349.475 443.729 343.968 464.051 338.766 474.13C334.717 481.975 334.828 465.188 334.828 465.188L328.082 462.228Z" fill="#044C75" stroke="#294064" stroke-miterlimit="10" stroke-linecap="round"/>
<path d="M322.421 459.971C322.421 459.971 324.229 469.42 328.222 474.221C332.607 479.491 342.758 486.562 344.851 468.699C346.944 450.837 343.723 414.067 337.242 404.262C327.471 389.482 319.875 414.182 319.875 414.182L327.012 415.479C327.012 415.479 328.487 408.588 330.371 407.526C332.256 406.465 333.673 414.09 334.214 417.17C337.606 436.487 338.629 457.517 336.784 468.709C335.349 477.42 329.956 462.941 329.956 462.941L322.421 459.971Z" fill="#8789D9" stroke="#294064" stroke-miterlimit="10" stroke-linecap="round"/>
<path d="M78.9206 402.522C82.2795 397.816 61.5351 392.452 59.9825 392.089C45.4454 388.686 18.7417 379.863 -11.0018 369.491C-14.9273 368.121 -88.1571 369.581 -90.3014 374.349C-95.7749 386.522 -11.3492 398.961 -11.9409 411.915C-12.3602 421.095 -13.4315 429.975 -13.0523 439.198C-12.999 440.493 -12.8024 456.917 -10.3321 457.828C-6.37493 459.29 -11.1397 458.584 -7.09121 457.874C5.94802 455.586 28.2777 454.536 41.491 452.564C45.3474 451.989 61.5837 454.605 62.5239 448.638" fill="#F4CC85"/>
<path d="M78.9206 402.522C82.2795 397.816 61.5351 392.452 59.9825 392.089C45.4454 388.686 18.7417 379.863 -11.0018 369.491C-14.9273 368.121 -88.1571 369.581 -90.3014 374.349C-95.7749 386.522 -11.3492 398.961 -11.9409 411.915C-12.3602 421.095 -13.4315 429.975 -13.0523 439.198C-12.999 440.493 -12.8024 456.917 -10.3321 457.828C-6.37493 459.29 -11.1397 458.584 -7.09121 457.874C5.94802 455.586 28.2777 454.536 41.491 452.564C45.3474 451.989 61.5837 454.605 62.5239 448.638" stroke="#294064" stroke-miterlimit="10" stroke-linecap="round"/>
<path d="M61.1698 440.599C61.1698 440.599 47.7012 438.409 38.8039 439.171C22.1484 440.599 -1.16931 440.599 -1.16931 440.599" stroke="white"/>
<path d="M63.0733 426.799C63.0733 426.799 53.5559 424.42 40.2315 424.419C33.767 424.419 29.9374 425.65 23.576 426.799C11.6383 428.955 -9.25916 424.419 -9.25916 424.419" stroke="white"/>
<path d="M65.4526 416.33C65.4526 416.33 55.0159 412.542 48.3213 411.571C41.1485 410.531 31.7754 410.143 24.5277 410.143C13.1915 410.143 -6.40393 406.336 -6.40393 406.336" stroke="white"/>
<path d="M69.7354 405.86C69.7354 405.86 52.4312 399.371 41.1832 398.247C22.1483 396.343 1.20996 386.35 1.20996 386.35" stroke="white"/>
<path d="M104.461 404.64C105.806 402.908 88.7867 400.212 86.4655 399.664C83.9344 399.066 78.6699 397.209 76.0681 397.694C68.4948 399.104 62.7736 426.982 61.9753 433.206C61.7735 434.781 60.7022 449.566 61.7019 450.484C62.1247 450.872 72.628 449.709 77.4777 449.301C82.911 448.844 95.5994 449.088 95.7599 448.529C96.3387 446.512 94.8007 434.756 95.918 426.795C96.6213 421.784 100.492 409.74 104.461 404.64Z" fill="#F4CC85" stroke="#294064" stroke-miterlimit="10" stroke-linecap="round"/>
<path d="M217.083 762.8C218.648 763.542 224.251 777.198 225.297 779.502C225.637 780.251 227.426 785.124 228.926 783.67C230.409 782.235 222.244 766.764 220.822 764.487C219.686 762.667 218.308 761.001 216.758 759.514" stroke="#044C75" stroke-miterlimit="10" stroke-linecap="round" stroke-linejoin="round"/>
<path d="M216.851 758.431C216.851 758.431 221.725 764.032 222.769 764.973C225.769 767.68 227.031 772.114 230.322 774.755C231.122 775.398 237.556 776.325 236.37 774.737C234.625 772.4 231.201 771.372 228.98 769.548C227.357 768.217 226.133 766.486 224.467 765.18C222.372 763.539 216.851 758.431 216.851 758.431Z" stroke="#044C75" stroke-miterlimit="10" stroke-linecap="round" stroke-linejoin="round"/>
<path d="M237.631 768.093C231.659 776.803 255.556 784.662 262.179 785.605C264.796 785.978 270.044 785.471 271.287 782.575C273.43 777.584 256.94 777.471 253.419 775.959C251.133 774.978 238.678 766.566 237.631 768.093Z" stroke="#044C75" stroke-miterlimit="10" stroke-linecap="round" stroke-linejoin="round"/>
<path d="M217.233 757.925C217.233 757.925 219.475 760.074 221.136 761.643C222.009 762.468 233.912 774.339 236.337 770.096C241.027 761.889 227.339 761.692 223.966 758.807C222.687 757.711 217.233 757.925 217.233 757.925Z" stroke="#044C75" stroke-miterlimit="10" stroke-linecap="round" stroke-linejoin="round"/>
<path d="M222.273 758.209C221.233 758.581 222.119 760.836 222.432 761.55C225.314 768.103 230.13 761.731 225.668 759.618" stroke="#044C75" stroke-miterlimit="10" stroke-linecap="round" stroke-linejoin="round"/>
<path d="M227.303 763.596C226.881 763.396 230.003 765.697 232.049 765.942C234.907 766.285 235.601 763.903 235.601 763.903" stroke="#044C75" stroke-miterlimit="10" stroke-linecap="round" stroke-linejoin="round"/>
<path d="M225.967 759.583C231.265 762.988 240.076 757.853 245.202 756.504C254.714 754 273.773 761.953 274.676 772.753C275.1 777.817 267.176 775.872 267.778 778.633" stroke="#044C75" stroke-miterlimit="10" stroke-linecap="round" stroke-linejoin="round"/>
<path d="M267.459 762.819C263.575 766.837 242.715 766.881 237.311 765.18" stroke="#044C75" stroke-miterlimit="10" stroke-linecap="round" stroke-linejoin="round"/>
<path d="M236.921 764.542C244.284 764.173 251.373 763.304 256.306 757.304" stroke="#044C75" stroke-miterlimit="10" stroke-linecap="round" stroke-linejoin="round"/>
<path d="M236.457 764.166C238.001 765.658 250.782 759.002 252 756.461" stroke="#044C75" stroke-miterlimit="10" stroke-linecap="round" stroke-linejoin="round"/>
<path d="M236.208 764.206C239.184 763.158 248.381 760.844 243.915 756.526" stroke="#044C75" stroke-miterlimit="10" stroke-linecap="round" stroke-linejoin="round"/>
<path d="M224.148 758.875C227.127 759.899 230.719 760.055 231.788 760.025C236.051 759.908 246.177 756.603 245.701 750.78C245.63 749.906 245.868 748.356 245.19 747.689C244.279 746.791 243.103 746.996 241.994 746.967C241.452 746.953 240.928 746.882 240.458 746.602C238.762 745.588 237.587 744.401 236.324 743.349C235.039 742.277 233.661 741.345 231.55 740.88C230.333 740.611 229.216 741.812 227.931 741.692C227.215 741.625 225.64 741.218 224.952 741.763C223.236 743.12 224.872 746.47 223.85 748.585C222.136 752.133 218.037 754.061 217.094 757.909" stroke="#044C75" stroke-miterlimit="10" stroke-linecap="round" stroke-linejoin="round"/>
<path d="M220.505 753.483C223.238 755.64 226.266 759.613 229.586 754.97C230.908 753.121 228.024 749.877 226.638 749.316C225.271 748.763 224.117 748.579 224.117 748.579" stroke="#044C75" stroke-miterlimit="10" stroke-linecap="round" stroke-linejoin="round"/>
<path d="M228.345 756.466C234.498 756.659 242.131 751.249 241.791 747.088" stroke="#044C75" stroke-miterlimit="10" stroke-linecap="round" stroke-linejoin="round"/>
<path d="M229.264 751.681C231.412 750.611 237.955 746.902 236.524 743.547" stroke="#044C75" stroke-miterlimit="10" stroke-linecap="round" stroke-linejoin="round"/>
<path d="M224.357 748.47C226.821 746.704 227.698 744.318 228.025 741.499" stroke="#044C75" stroke-miterlimit="10" stroke-linecap="round" stroke-linejoin="round"/>
<path d="M242.494 756.667C249.645 753.457 260.648 757.228 267.269 751.752C270.704 748.911 267.712 747.318 268.123 744.363C268.488 741.742 270.824 738.872 269.882 736.143C267.449 729.101 254.688 724.881 247.607 724.262C241.63 723.74 240.749 728.165 234.632 729.711C233.84 729.911 229.828 730.422 229.828 730.422C229.828 730.422 234.024 731.449 233.553 734.179C233.081 736.91 230.725 739.014 228.118 741.414" stroke="#044C75" stroke-miterlimit="10" stroke-linecap="round" stroke-linejoin="round"/>
<path d="M245.757 752.459C249.576 752.143 266.171 749.668 268.084 744.266" stroke="#044C75" stroke-miterlimit="10" stroke-linecap="round" stroke-linejoin="round"/>
<path d="M232.239 740.865C245.405 742.643 253.908 735.399 257.291 726.499" stroke="#044C75" stroke-miterlimit="10" stroke-linecap="round" stroke-linejoin="round"/>
<path d="M230.436 740.698C238.167 737.975 248.035 732.979 251.715 725.204" stroke="#044C75" stroke-miterlimit="10" stroke-linecap="round" stroke-linejoin="round"/>
<path d="M228.437 741.276C235.45 736.557 241.019 731.737 245.436 724.519" stroke="#044C75" stroke-miterlimit="10" stroke-linecap="round" stroke-linejoin="round"/>
<path d="M219.847 753.481C221.596 752.273 221.914 740.456 214.353 744.21" stroke="#044C75" stroke-miterlimit="10" stroke-linecap="round" stroke-linejoin="round"/>
<path d="M220.75 746.795C221.327 745.641 224.018 743.241 224.018 743.241" stroke="#044C75" stroke-miterlimit="10" stroke-linecap="round" stroke-linejoin="round"/>
<path d="M222.474 744.529C221.809 741.896 216.725 740.82 216.725 743.377" stroke="#044C75" stroke-miterlimit="10" stroke-linecap="round" stroke-linejoin="round"/>
<path d="M224.391 742.041C222.427 738.112 215.646 738.974 216.645 743.333" stroke="#044C75" stroke-miterlimit="10" stroke-linecap="round" stroke-linejoin="round"/>
<path d="M222.857 740.231C226.968 737.622 230.387 733.254 229.18 728.548" stroke="#044C75" stroke-miterlimit="10" stroke-linecap="round" stroke-linejoin="round"/>
<path d="M222.019 739.726C223.921 738.603 228.297 732.171 227.179 729.268C226.936 728.636 225.559 728.27 225.005 727.843C224.255 727.264 223.725 726.09 222.613 726.047C219.242 725.917 216.41 732.19 216.645 735.066C216.734 736.153 217.113 737.169 217.188 738.244C217.23 738.858 216.9 740.608 217.235 740.091" stroke="#044C75" stroke-miterlimit="10" stroke-linecap="round" stroke-linejoin="round"/>
<path d="M220.402 739.388C222.712 736.827 222.214 734.01 222.07 732.823" stroke="#044C75" stroke-miterlimit="10" stroke-linecap="round" stroke-linejoin="round"/>
<path d="M225.298 727.93C245.409 728.627 239.352 726.041 246.522 716.029C247.809 714.233 251.899 712.48 251.899 712.48C233.506 713.546 228.59 706.475 225.298 727.93Z" stroke="#044C75" stroke-miterlimit="10" stroke-linecap="round" stroke-linejoin="round"/>
<path d="M242.376 725.008C242.333 725.158 246.534 724.061 247.372 723.779C250.878 722.604 253.737 720.9 257.492 721.071C260.818 721.223 263.985 723.104 266.602 725.088C268.649 726.639 270.084 728.545 270.152 728.435C271.672 725.96 266.16 722.142 265.056 721.118C264.898 720.97 265.086 719.239 263.627 717.92C261.213 715.736 257.705 715.197 255.497 715.365C253.609 715.508 251.645 717.812 250.225 717.288C248.554 716.671 245.393 717.49 243.455 721.199" stroke="#044C75" stroke-miterlimit="10" stroke-linecap="round" stroke-linejoin="round"/>
<path d="M265.579 721.582C259.38 716.895 254.265 720.788 252.62 721.827" stroke="#044C75" stroke-miterlimit="10" stroke-linecap="round" stroke-linejoin="round"/>
<path d="M251.53 717.208C249.179 718.288 245.443 720.671 242.176 724.913" stroke="#044C75" stroke-miterlimit="10" stroke-linecap="round" stroke-linejoin="round"/>
<path d="M217.033 740.767C217.033 740.767 216.252 738.027 216.05 736.942C215.221 732.479 212.75 721.355 216.599 718.552C220.478 715.727 222.069 722.338 223.597 724.257C224.334 725.181 225.856 728.382 225.119 727.458" stroke="#044C75" stroke-miterlimit="10" stroke-linecap="round" stroke-linejoin="round"/>
<path d="M214.487 727.349C213.978 726.234 213.269 725.519 211.98 725.373" stroke="#044C75" stroke-miterlimit="10" stroke-linecap="round" stroke-linejoin="round"/>
<path d="M226.797 720.023C226.536 720.069 223.461 717.653 222.558 716.632C218.212 711.713 219.161 708.241 217.101 702.508C216.355 700.432 212.294 697.122 212.294 697.122C212.294 697.122 215.416 697.354 218.591 699.441C218.845 699.607 219.66 698.356 222.165 699.551C224.67 700.747 226.993 703.839 227.96 705.39C229.921 708.534 229.57 713.508 227.737 716.68C227.392 717.277 226.797 720.023 226.797 720.023Z" stroke="#044C75" stroke-miterlimit="10" stroke-linecap="round" stroke-linejoin="round"/>
<path d="M218.341 699.243C223.051 703.841 227.104 711.862 226.729 719.677" stroke="#044C75" stroke-miterlimit="10" stroke-linecap="round" stroke-linejoin="round"/>
<path d="M229.459 714.575C229.459 714.575 232.05 707.394 231.007 704.422C230.017 701.604 223.391 692.862 220.523 692.394C219.162 692.172 218.294 693.912 216.499 693.619C215.009 693.376 213.984 691.226 212.259 692.078C209.847 693.269 210.01 695.011 208.69 696.839" stroke="#044C75" stroke-miterlimit="10" stroke-linecap="round" stroke-linejoin="round"/>
<path d="M218.619 708.375C219.268 712.963 218.185 715.565 217.236 718.094" stroke="#044C75" stroke-miterlimit="10" stroke-linecap="round" stroke-linejoin="round"/>
<path d="M217.616 693.711C217.616 693.711 219.271 697.338 218.67 698.94" stroke="#044C75" stroke-miterlimit="10" stroke-linecap="round" stroke-linejoin="round"/>
<path d="M246.229 712.394C256.761 705.915 261.95 708.348 271.901 713.813C260.338 712.35 258.347 709.168 246.229 712.394Z" stroke="#044C75" stroke-miterlimit="10" stroke-linecap="round" stroke-linejoin="round"/>
<path d="M247.889 711.863C257.578 709.562 266.435 712.515 270.865 719.599C264.506 718.237 265.698 713.152 257.784 711.385" stroke="#044C75" stroke-miterlimit="10" stroke-linecap="round" stroke-linejoin="round"/>
<path d="M229.972 713.445C233.754 708.499 233.963 702.02 237.027 696.716C241.705 688.621 253.253 691.91 260.2 688.52C259.552 719.276 249.076 703.294 229.972 713.445Z" stroke="#044C75" stroke-miterlimit="10" stroke-linecap="round" stroke-linejoin="round"/>
<path d="M260.108 688.693C252.523 702.867 242.44 704.516 230.614 713.07" stroke="#044C75" stroke-miterlimit="10" stroke-linecap="round" stroke-linejoin="round"/>
<path d="M243.23 691.871C254.683 686.769 242.433 678.934 253.502 671.996C254.502 671.368 257.583 669.094 257.583 669.094C257.583 669.094 256.907 671.692 257.08 673.55C257.333 676.28 259.928 680.426 258.08 683.062C255.82 686.287 251.334 684.784 248.6 686.81" stroke="#044C75" stroke-miterlimit="10" stroke-linecap="round" stroke-linejoin="round"/>
<path d="M248.602 686.765C256.312 680.68 252.926 673.808 257.447 669.492" stroke="#044C75" stroke-miterlimit="10" stroke-linecap="round" stroke-linejoin="round"/>
<path d="M250.537 674.164C250.378 674.245 250.307 672.811 250.295 672.713C250.041 670.653 250.747 669.749 251.997 668.033C255.065 663.822 254.221 660.769 252.736 656.301C252.639 656.01 252.455 652.853 252.375 652.828C252.347 652.819 249.612 656.015 249.478 656.18C245.2 661.46 247.696 665.361 250.376 670.54" stroke="#044C75" stroke-miterlimit="10" stroke-linecap="round" stroke-linejoin="round"/>
<path d="M252.359 653.067C250.67 656.121 248.687 665.843 250.525 669.397" stroke="#044C75" stroke-miterlimit="10" stroke-linecap="round" stroke-linejoin="round"/>
<path d="M240.353 693.02C237.908 676.468 249.711 671.99 232.247 662.194C238.317 668.49 230.779 684.425 240.353 693.02Z" stroke="#044C75" stroke-miterlimit="10" stroke-linecap="round" stroke-linejoin="round"/>
<path d="M230.774 712.111C236.711 697.041 225.602 699.803 220.193 688.98C217.087 682.767 218.315 674.519 217.622 667.819C230.417 675.655 242.377 684.702 231.615 701.116" stroke="#044C75" stroke-miterlimit="10" stroke-linecap="round" stroke-linejoin="round"/>
<path d="M218.217 668.529C221.113 678.995 232.474 688.798 231.674 700.338" stroke="#044C75" stroke-miterlimit="10" stroke-linecap="round" stroke-linejoin="round"/>
<path d="M223.626 679.541C224.296 676.136 226.066 673.558 226.067 673.564" stroke="#044C75" stroke-miterlimit="10" stroke-linecap="round" stroke-linejoin="round"/>
<path d="M225.19 681.99C225.623 680.673 227.229 676.425 228.511 675.626" stroke="#044C75" stroke-miterlimit="10" stroke-linecap="round" stroke-linejoin="round"/>
<path d="M228.558 688.061C228.612 686.253 232.386 679.215 232.223 679.574" stroke="#044C75" stroke-miterlimit="10" stroke-linecap="round" stroke-linejoin="round"/>
<path d="M218.565 682.775C222.538 683.577 219.946 682.987 226.422 684.496" stroke="#044C75" stroke-miterlimit="10" stroke-linecap="round" stroke-linejoin="round"/>
<path d="M220.278 689.079C222.337 689.378 229.739 690.647 229.734 690.647" stroke="#044C75" stroke-miterlimit="10" stroke-linecap="round" stroke-linejoin="round"/>
<path d="M222.405 692.252C222.704 692.653 230.101 693.84 230.724 693.633" stroke="#044C75" stroke-miterlimit="10" stroke-linecap="round" stroke-linejoin="round"/>
<path d="M254.155 678.097C254.155 678.097 257.366 677.51 257.939 677.773" stroke="#044C75" stroke-miterlimit="10" stroke-linecap="round" stroke-linejoin="round"/>
<path d="M253.714 679.946C253.714 679.946 258.634 679.562 258.484 679.643" stroke="#044C75" stroke-miterlimit="10" stroke-linecap="round" stroke-linejoin="round"/>
<path d="M252.44 681.61C251.406 679.879 250.254 677.807 249.586 675.925" stroke="#044C75" stroke-miterlimit="10" stroke-linecap="round" stroke-linejoin="round"/>
<path d="M253.526 659.446C253.526 659.446 250.702 662.098 249.964 662.469" stroke="#044C75" stroke-miterlimit="10" stroke-linecap="round" stroke-linejoin="round"/>
<path d="M254.024 662.215C254.025 662.884 249.713 665.57 249.955 665.81" stroke="#044C75" stroke-miterlimit="10" stroke-linecap="round" stroke-linejoin="round"/>
<path d="M249.621 663.848C249.621 663.848 247.649 661.458 247.258 661.149" stroke="#044C75" stroke-miterlimit="10" stroke-linecap="round" stroke-linejoin="round"/>
<path d="M250.568 700.357C252.448 701.213 256.588 702.471 258.641 701.982" stroke="#044C75" stroke-miterlimit="10" stroke-linecap="round" stroke-linejoin="round"/>
<path d="M248.265 702.463C251.252 703.689 253.995 704.844 257.261 704.876" stroke="#044C75" stroke-miterlimit="10" stroke-linecap="round" stroke-linejoin="round"/>
<path d="M241.895 706.33C245.065 707.813 247.471 708.332 250.928 708.852" stroke="#044C75" stroke-miterlimit="10" stroke-linecap="round" stroke-linejoin="round"/>
<path d="M245.621 703.29C243.575 699.892 245.391 694.962 245.385 691.556" stroke="#044C75" stroke-miterlimit="10" stroke-linecap="round" stroke-linejoin="round"/>
<path d="M237.5 708.195C237.222 704.598 237.874 698.618 238.354 695.034" stroke="#044C75" stroke-miterlimit="10" stroke-linecap="round" stroke-linejoin="round"/>
<path d="M250.875 712.667C237.843 715.073 235.09 719.14 225.72 727.846" stroke="#044C75" stroke-miterlimit="10" stroke-linecap="round" stroke-linejoin="round"/>
<path d="M238.235 712.221C237.632 713.89 236.689 716.469 236.159 718.163" stroke="#044C75" stroke-miterlimit="10" stroke-linecap="round" stroke-linejoin="round"/>
<path d="M232.835 712.805C232.017 714.6 231.425 719.748 231.744 721.719" stroke="#044C75" stroke-miterlimit="10" stroke-linecap="round" stroke-linejoin="round"/>
<path d="M233.981 720.128C233.949 719.929 241.717 718.095 244.1 719.816" stroke="#044C75" stroke-miterlimit="10" stroke-linecap="round" stroke-linejoin="round"/>
<path d="M229.081 724.821C232.383 722.035 237.818 724.658 241.178 725.206" stroke="#044C75" stroke-miterlimit="10" stroke-linecap="round" stroke-linejoin="round"/>
<path d="M325.433 617.886C325.102 619.605 319.536 636.779 316.901 632.495" stroke="#294064" stroke-miterlimit="10" stroke-linecap="round" stroke-linejoin="round"/>
<path d="M348.273 586.195C348.825 585.422 351.349 590.106 351.565 590.552C353.545 594.627 354.15 599.805 351.557 603.745C348.844 607.868 346.74 588.342 348.273 586.195Z" stroke="#294064" stroke-miterlimit="10" stroke-linecap="round" stroke-linejoin="round"/>
<path d="M362.699 667.374C368.954 665.509 377.718 644.822 379.093 638.939" stroke="#294064" stroke-miterlimit="10" stroke-linecap="round" stroke-linejoin="round"/>
<path d="M380.325 633.774C381.748 631.566 382.204 626.843 382.642 623.973" stroke="#294064" stroke-miterlimit="10" stroke-linecap="round" stroke-linejoin="round"/>
<path d="M325.357 618.639C325.343 618.61 324.998 617.56 325.44 618.224C327.485 621.29 326.242 626.449 331.668 625.614C333.364 625.353 335.269 623.798 337.066 624.451C338.646 625.026 340.449 628.427 342.381 629.434C351.099 633.983 360.359 637.677 369.12 642.057" stroke="#294064" stroke-miterlimit="10" stroke-linecap="round" stroke-linejoin="round"/>
<path d="M330.838 605.601C331.22 607.515 333.761 611.199 335.156 612.244C337.132 613.727 338.787 611.075 340.553 611.664C348.076 614.171 355.985 616.186 363.638 618.805C366.879 619.913 369.953 621.838 373.022 623.372C374.241 623.982 377.916 625.035 376.593 625.365" stroke="#294064" stroke-miterlimit="10" stroke-linecap="round" stroke-linejoin="round"/>
<path d="M335.073 590.571C335.552 592.008 337.994 592.678 339.142 593.478C347.356 599.192 345.767 591.857 352.428 593.394C354.464 593.864 354.652 596.885 356.913 597.961C364.078 601.373 371.658 603.798 378.586 607.262" stroke="#294064" stroke-miterlimit="10" stroke-linecap="round" stroke-linejoin="round"/>
<path d="M320.149 631.956C325.584 642.278 325.385 633.939 330.809 637.376C339.199 642.692 347.722 648.151 356.448 652.897" stroke="#294064" stroke-miterlimit="10" stroke-linecap="round" stroke-linejoin="round"/>
<path d="M45.5722 450.512C39.7786 447.8 32.0636 447.19 25.8822 446.766" stroke="#294064" stroke-miterlimit="10" stroke-linecap="round" stroke-linejoin="round"/>
<path d="M150.419 693.104C155.914 706.415 180.456 718.944 193.407 720.348" stroke="#294064" stroke-miterlimit="10" stroke-linecap="round" stroke-linejoin="round"/>
<path d="M151.3 702.035C154.178 709.01 165.233 715.768 171.234 718.888" stroke="#294064" stroke-miterlimit="10" stroke-linecap="round" stroke-linejoin="round"/>
<path d="M157.344 684.81C154.505 681.528 152.098 681.56 155.222 677.969" stroke="#294064" stroke-miterlimit="10" stroke-linecap="round" stroke-linejoin="round"/>
<path d="M196.707 753.167C198.024 753.126 184.294 756.484 181.012 756.414C177.379 756.338 172.97 754.685 170.765 751.608C170.204 750.824 170.231 750.352 171.04 750.035C175.436 748.312 190.688 753.353 196.707 753.167Z" stroke="#294064" stroke-miterlimit="10" stroke-linecap="round" stroke-linejoin="round"/>
<path d="M180.053 740.486C185.733 737.887 192.121 737.164 198.075 735.405" stroke="#294064" stroke-miterlimit="10" stroke-linecap="round" stroke-linejoin="round"/>
<path d="M294.248 510.62C296.476 510.612 298.576 510.101 300.763 509.926" stroke="#294064" stroke-miterlimit="10" stroke-linecap="round" stroke-linejoin="round"/>
<path d="M295.6 512.856C297.096 512.922 298.561 512.698 300.044 512.524" stroke="#294064" stroke-miterlimit="10" stroke-linecap="round" stroke-linejoin="round"/>
<path d="M253.865 416.138C254.763 417.463 255.05 419.389 255.224 420.952" stroke="#294064" stroke-miterlimit="10" stroke-linecap="round" stroke-linejoin="round"/>
<path d="M124.005 490.535C125.286 491.573 129.114 492.262 130.891 492.713" stroke="#294064" stroke-miterlimit="10" stroke-linecap="round" stroke-linejoin="round"/>
<path d="M122.386 493.982C125.158 495.023 128.168 495.833 131.006 496.73" stroke="#294064" stroke-miterlimit="10" stroke-linecap="round" stroke-linejoin="round"/>
<path d="M163.937 609.451C166.266 609.222 168.675 607.625 170.73 606.58" stroke="#294064" stroke-miterlimit="10" stroke-linecap="round" stroke-linejoin="round"/>
<path d="M291.886 493.244C292.816 491.628 295.623 488.56 299.477 491.185" stroke="#294064" stroke-miterlimit="10" stroke-linecap="round" stroke-linejoin="round"/>
<path d="M235.003 423.063C231.841 422.929 230.177 419.308 230.177 419.308" stroke="#294064" stroke-miterlimit="10" stroke-linecap="round" stroke-linejoin="round"/>
<path d="M130.606 473.183C136.199 470.813 138.814 475.635 138.623 476.233" stroke="#294064" stroke-miterlimit="10" stroke-linecap="round" stroke-linejoin="round"/>
<path d="M153.285 586.846C153.371 582.774 157.469 581.248 160.478 582.515" stroke="#294064" stroke-miterlimit="10" stroke-linecap="round" stroke-linejoin="round"/>
<path d="M78.0527 410.603C78.0527 406.966 81.0013 404.017 84.6387 404.017C88.2761 404.017 91.2248 406.966 91.2248 410.603C91.2248 414.241 88.2761 417.189 84.6387 417.189C81.0013 417.189 78.0527 414.241 78.0527 410.603Z" fill="white" stroke="#294064" stroke-miterlimit="10" stroke-linecap="round" stroke-linejoin="round"/>
<path d="M81.6244 406.619C79.1219 408.254 79.0612 412.492 81.24 414.373" stroke="#294064" stroke-miterlimit="10" stroke-linecap="round" stroke-linejoin="round"/>
<path d="M88.4019 414.086C89.2563 413.02 89.6878 411.993 89.7593 410.789" stroke="#294064" stroke-miterlimit="10" stroke-linecap="round" stroke-linejoin="round"/>
<path d="M83.0844 406.85C83.0844 406.154 83.6487 405.589 84.345 405.589C85.0412 405.589 85.6057 406.154 85.6057 406.85C85.6057 407.546 85.0412 408.111 84.345 408.111C83.6487 408.111 83.0844 407.546 83.0844 406.85Z" stroke="#294064" stroke-width="1.29747" stroke-miterlimit="10" stroke-linecap="round" stroke-linejoin="round"/>
<path d="M83.261 414.251C83.261 413.555 83.8255 412.99 84.5217 412.99C85.218 412.99 85.7823 413.555 85.7823 414.251C85.7823 414.948 85.218 415.512 84.5217 415.512C83.8255 415.512 83.261 414.948 83.261 414.251Z" stroke="#294064" stroke-width="1.29747" stroke-miterlimit="10" stroke-linecap="round" stroke-linejoin="round"/>
<path d="M84.4281 406.931C83.9603 406.944 83.5825 407.356 83.5953 407.823L83.744 413.356C83.7567 413.824 84.1387 414.171 84.6065 414.159C85.0743 414.145 85.452 413.764 85.4393 413.296L85.2906 407.764C85.2779 407.296 84.8958 406.919 84.4281 406.931Z" fill="white" stroke="#294064" stroke-miterlimit="10" stroke-linecap="round" stroke-linejoin="round"/>
<path d="M258.489 565.577C259.993 567.463 259.883 572.374 259.456 573.992" stroke="white" stroke-miterlimit="10" stroke-linecap="round" stroke-linejoin="round"/>
<path d="M259.118 575.772C259.039 577.09 257.745 579.695 257.086 580.837" stroke="white" stroke-miterlimit="10" stroke-linecap="round" stroke-linejoin="round"/>
<path d="M290.499 484.267C289.791 486.196 290.364 489.634 291.577 490.922" stroke="white" stroke-miterlimit="10" stroke-linecap="round" stroke-linejoin="round"/>
<path d="M272.646 532.61C272.98 536.906 275.555 540.766 275.555 540.766" stroke="white" stroke-miterlimit="10" stroke-linecap="round" stroke-linejoin="round"/>
<path d="M185.694 404.017C188.18 404.358 190.207 405.568 191.976 406.751" stroke="white" stroke-miterlimit="10" stroke-linecap="round" stroke-linejoin="round"/>
<path d="M150.355 573.498C148.602 575.155 148.995 579.888 150.042 581.74" stroke="white" stroke-miterlimit="10" stroke-linecap="round" stroke-linejoin="round"/>
<path d="M150.698 582.996C150.698 582.996 151.401 584.591 152.585 585.369" stroke="white" stroke-miterlimit="10" stroke-linecap="round" stroke-linejoin="round"/>
<path d="M347.15 419.466C348.598 415.338 346.62 412.308 344.774 411.67C343.624 412.682 341.61 415.413 341.61 415.413L342.347 418.222C342.347 418.222 344.665 418.851 347.15 419.466Z" fill="#294064"/>
<path d="M330.221 463.541C330.274 463.521 332.941 468.813 333.381 469.491C333.764 470.081 335.054 471.613 334.934 470.92C334.739 469.807 335.272 466.098 334.679 465.259C334.263 464.669 332.239 463.722 331.575 463.62C331.425 463.597 329.718 463.736 330.221 463.541Z" fill="#294064"/>
<g style="mix-blend-mode:multiply">
<path d="M331.274 416.339C332.334 421.486 332.416 431.007 331.703 440.487C330.973 450.178 328.207 461.793 328.207 461.793L337.195 465.932C337.195 465.932 338.599 439.99 334.279 416.917C334.279 416.917 332.073 416.147 331.274 416.339Z" fill="#B3A9EC" fill-opacity="0.5"/>
<path d="M347.737 419.991C348.912 427.616 348.403 438.771 345.743 452.904C347.269 450.167 352.507 428.976 352.214 421.027L347.737 419.991Z" fill="#B3A9EC" fill-opacity="0.5"/>
<path d="M332.266 598.016C329.714 609.632 319.341 620.636 313.312 624.765C315.294 626.751 317.092 628.433 317.092 628.433C323.233 623.902 331.431 605.039 332.249 599.502L332.266 598.016Z" fill="#B3A9EC" fill-opacity="0.5"/>
<path d="M176.212 698.779C168.776 692.642 160.117 683.779 157.961 673.975C158.047 681.83 157.051 684.144 157.051 684.144C157.051 684.144 160.895 689.75 170.482 695.361L176.212 698.779Z" fill="#B3A9EC" fill-opacity="0.5"/>
<path d="M95.9261 432.241C102.243 413.631 105.496 411.747 108.78 407.87C106.508 407.047 103.598 406.714 103.598 406.714C98.7646 411.132 95.9339 425.241 95.9261 432.241Z" fill="#B3A9EC" fill-opacity="0.5"/>
<path d="M346.606 582.392C347.658 587.691 347.986 628.475 354.043 630.273C358.47 631.587 360.037 621.016 358.292 614.855C353.952 599.534 354.052 599.913 352.751 591.208C351.528 583.013 345.592 577.274 346.606 582.392Z" fill="#B3A9EC" fill-opacity="0.5"/>
<path d="M375.066 643.042C375.066 643.042 366.711 664.363 360.488 665.744C350.46 667.969 365.788 654.265 366.648 653.338C369.71 650.035 375.066 643.042 375.066 643.042Z" fill="#B3A9EC" fill-opacity="0.5"/>
<path d="M197.636 753.987C197.636 753.987 166.311 762.366 157.752 754.651C152.069 749.527 169.512 747.588 171.47 747.729C175.877 748.048 180.24 748.608 184.525 749.658C188.995 750.752 197.636 753.987 197.636 753.987Z" fill="#B3A9EC" fill-opacity="0.5"/>
<path d="M197.389 728.068C184.204 736.123 171.138 730.677 163.225 723.949C174.777 727.807 183.825 729.102 197.389 728.068Z" fill="#B3A9EC" fill-opacity="0.5"/>
<path d="M151.97 696.138C156.889 707.01 177.417 721.969 193.011 720.358C193.016 720.337 197.089 712.009 197.089 712.009C197.089 712.009 192.888 713.62 183.634 712.313C171.485 710.598 161.846 703.611 151.97 696.138Z" fill="#B3A9EC" fill-opacity="0.5"/>
<path d="M46.4085 447.575C36.5363 444.654 32.0888 443.899 14.8142 444.549C18.5931 443.139 20.8514 436.2 25.0328 436.529C29.4114 436.875 41.4144 441.505 46.4085 447.575Z" fill="#B3A9EC" fill-opacity="0.5"/>
<path d="M62.1151 560.466C65.9147 560.979 75.1436 556.676 78.7648 551.611L75.1213 548.336C71.2406 553.314 62.1151 560.466 62.1151 560.466Z" fill="#B3A9EC" fill-opacity="0.5"/>
</g>
</g>
<defs>
<clipPath id="clip0_1091_3282">
<path d="M0 0H414V841C414 852.046 405.046 861 394 861H20C8.95432 861 0 852.046 0 841V0Z" fill="white"/>
</clipPath>
</defs>
</svg>
