<svg width="144" height="144" viewBox="0 0 144 144" fill="none" xmlns="http://www.w3.org/2000/svg">
<g clip-path="url(#clip0_1185_4541)">
<rect width="144" height="144" rx="16" fill="white"/>
<mask id="mask0_1185_4541" style="mask-type:luminance" maskUnits="userSpaceOnUse" x="-51" y="-16" width="234" height="236">
<path d="M182.273 -15.4849H-50.6527V219.572H182.273V-15.4849Z" fill="white"/>
</mask>
<g mask="url(#mask0_1185_4541)">
<path d="M-50.6527 -15.4849H182.273V219.572H-50.6527V-15.4849Z" fill="#A12F40"/>
<rect x="0.00012207" y="-0.000488281" width="144" height="144" fill="url(#paint0_radial_1185_4541)"/>
<path d="M145 74.9998C126 43.9999 96.0036 46.6983 81.422 62.0274C64.6972 79.6086 73.6626 108.803 49.4815 121.151C42.0884 124.926 33.4612 124.052 28.3778 121.275C25.4157 119.658 22.3769 115.881 24.6987 114.408C26.8565 113.038 29.3341 115.202 30.5652 118.251C31.7582 121.205 31.0609 124.731 29.9361 126.884C20.9074 144.163 -15.4221 121.072 -15.2322 99.5983" stroke="white" stroke-width="0.5" stroke-miterlimit="10" stroke-linecap="round" stroke-linejoin="round" stroke-dasharray="5 5"/>
<path d="M84.6079 131.416L84.5337 125.965C84.5337 125.965 94.3817 122.362 100.883 122.362C107.53 122.362 117.119 126.153 117.119 126.153L117.284 131.261C117.284 135.126 109.572 136.774 101.12 136.858C92.7586 136.941 84.6079 135.281 84.6079 131.416Z" fill="#F8204C" stroke="#294064" stroke-width="0.5" stroke-miterlimit="10" stroke-linejoin="round"/>
<path d="M84.5337 126.261C84.5337 124.261 91.8281 122.641 100.826 122.641C109.824 122.641 117.119 124.261 117.119 126.261C117.119 128.26 109.959 130.586 100.961 130.586C91.9624 130.586 84.5337 128.26 84.5337 126.261Z" fill="#FE2F59" stroke="#294064" stroke-width="0.5" stroke-miterlimit="10" stroke-linejoin="round"/>
<path d="M87.2192 125.747L87.1576 123.368C87.1576 123.368 95.4536 120.974 100.931 120.974C106.531 120.974 114.705 123.368 114.705 123.368L114.749 125.665C114.749 127.703 106.762 128.697 100.931 128.73C94.8809 128.763 87.2192 127.785 87.2192 125.747Z" fill="#F8204C" stroke="#294064" stroke-width="0.5" stroke-miterlimit="10" stroke-linejoin="round"/>
<path d="M87.1576 123.256C87.1576 121.996 93.3242 120.974 100.931 120.974C108.538 120.974 114.705 121.996 114.705 123.256C114.705 124.515 108.652 125.981 101.045 125.981C93.4376 125.981 87.1576 124.515 87.1576 123.256Z" fill="#FE2F59" stroke="#294064" stroke-width="0.5" stroke-miterlimit="10" stroke-linejoin="round"/>
<path d="M90.0068 90.3054C95.3758 76.7771 89.9323 62.2563 99.8723 60.7378C108.175 59.4695 115.348 61.3862 121.684 64.6144C126.758 67.1993 131.416 73.1035 131.261 78.7958C130.962 89.7632 123.449 93.5655 119.543 100.95" fill="#FFF2E0"/>
<path d="M90.0068 90.3054C95.3758 76.7771 89.9323 62.2563 99.8723 60.7378C108.175 59.4695 115.348 61.3862 121.684 64.6144C126.758 67.1993 131.416 73.1035 131.261 78.7958C130.962 89.7632 123.449 93.5655 119.543 100.95" stroke="#294064" stroke-width="0.5" stroke-miterlimit="10" stroke-linecap="round" stroke-linejoin="round"/>
<path d="M118.694 102.468C122.935 108.096 131.439 101.55 133.379 92.9469C134.153 89.5177 134.065 85.4247 131.183 83.7439C125.62 80.4999 121.245 92.2193 121.245 92.2193" fill="#FFF2E0"/>
<path d="M118.694 102.468C122.935 108.096 131.439 101.55 133.379 92.9469C134.153 89.5177 134.065 85.4247 131.183 83.7439C125.62 80.4999 121.245 92.2193 121.245 92.2193" stroke="#294064" stroke-width="0.5" stroke-miterlimit="10" stroke-linecap="round" stroke-linejoin="round"/>
<path d="M94.9312 81.563C95.1841 86.9388 94.4514 92.4532 95.6903 97.6903C97.8066 106.637 98.0132 114.571 98.0132 114.571C98.0132 114.571 89.763 115.065 92.2171 120.836C93.9082 124.812 105.553 126.472 108.749 121.983C112.83 116.252 109.045 102.892 109.045 102.892C109.241 104.813 116.433 111.65 122.819 99.102C125.341 94.1486 127.167 86.6595 126.363 81.6527C125.179 74.2796 118.406 76.7346 115.854 82.2899C114.125 86.0531 113.638 89.8516 113.638 89.8516" fill="#FFF2E0"/>
<path d="M94.9312 81.563C95.1841 86.9388 94.4514 92.4532 95.6903 97.6903C97.8066 106.637 98.0132 114.571 98.0132 114.571C98.0132 114.571 89.763 115.065 92.2171 120.836C93.9082 124.812 105.553 126.472 108.749 121.983C112.83 116.252 109.045 102.892 109.045 102.892C109.241 104.813 116.433 111.65 122.819 99.102C125.341 94.1486 127.167 86.6595 126.363 81.6527C125.179 74.2796 118.406 76.7346 115.854 82.2899C114.125 86.0531 113.638 89.8516 113.638 89.8516" stroke="#294064" stroke-width="0.5" stroke-miterlimit="10" stroke-linecap="round" stroke-linejoin="round"/>
<path d="M99.8138 60.7632C92.1998 61.8577 85.8281 68.1464 83.6813 73.5025C80.6262 81.1247 79.1961 91.0714 86.0505 95.913C94.002 101.529 99.4589 94.8437 112.823 95.6712C120.49 96.1459 119.329 88.9411 114.055 85.7839C108.711 82.584 103.114 83.9721 103.114 83.9721C103.114 83.9721 106.635 79.2015 104.406 74.0762" fill="#FFF2E0"/>
<path d="M99.8138 60.7632C92.1998 61.8577 85.8281 68.1464 83.6813 73.5025C80.6262 81.1247 79.1961 91.0714 86.0505 95.913C94.002 101.529 99.4589 94.8437 112.823 95.6712C120.49 96.1459 119.329 88.9411 114.055 85.7839C108.711 82.584 103.114 83.9721 103.114 83.9721C103.114 83.9721 106.635 79.2015 104.406 74.0762" stroke="#294064" stroke-width="0.5" stroke-miterlimit="10" stroke-linecap="round" stroke-linejoin="round"/>
<path d="M116.905 94.3995C118.414 92.5084 110.678 90.7767 108.58 92.5577C107.375 93.5804 107.196 94.8875 107.727 94.9609C110.806 95.3867 115.806 95.7747 116.905 94.3995Z" fill="#A360E7" stroke="#294064" stroke-width="0.5" stroke-miterlimit="10" stroke-linecap="round" stroke-linejoin="round"/>
<path d="M125.379 79.465C125.049 78.7255 123.935 77.345 122.372 78.0292C119.679 79.2079 117.878 84.5205 120.997 86.077C124.755 87.9528 126.694 82.4144 125.379 79.465Z" fill="#A360E7" stroke="#294064" stroke-width="0.5" stroke-miterlimit="10" stroke-linecap="round" stroke-linejoin="round"/>
<path d="M132.02 84.7266C131.648 84.34 131.01 83.9258 130.297 84.0355C127.711 84.4333 126.58 90.2926 128.796 91.6066C132.716 93.93 134.18 86.9741 132.02 84.7266Z" fill="#A360E7" stroke="#294064" stroke-width="0.5" stroke-miterlimit="10" stroke-linecap="round" stroke-linejoin="round"/>
<path d="M116.585 94.0532C116.286 94.5776 115.299 94.7945 114.365 94.8401" stroke="white" stroke-width="0.5" stroke-miterlimit="10" stroke-linecap="round" stroke-linejoin="round"/>
<path d="M113.948 94.8594C113.577 94.9486 112.793 94.9085 112.793 94.9085" stroke="white" stroke-width="0.5" stroke-miterlimit="10" stroke-linecap="round" stroke-linejoin="round"/>
<path d="M124.317 78.7705C125.155 79.5005 125.346 81.0686 125.183 82.0964" stroke="white" stroke-width="0.5" stroke-miterlimit="10" stroke-linecap="round" stroke-linejoin="round"/>
<path d="M125.115 82.604C125.115 82.604 124.951 83.3804 124.765 83.7523" stroke="white" stroke-width="0.5" stroke-miterlimit="10" stroke-linecap="round" stroke-linejoin="round"/>
<path d="M132.137 85.9917C132.557 87.252 132.44 88.4542 131.988 89.6978" stroke="white" stroke-width="0.5" stroke-miterlimit="10" stroke-linecap="round" stroke-linejoin="round"/>
<path d="M98.023 114.561C98.0396 114.418 98.0285 115.371 98.0056 115.57C97.911 116.387 97.6774 117.182 97.223 117.878" stroke="#294064" stroke-width="0.5" stroke-miterlimit="10" stroke-linecap="round" stroke-linejoin="round"/>
<path d="M99.4943 86.5042C100.423 85.4229 101.961 84.3464 103.334 83.9111" stroke="#294064" stroke-width="0.5" stroke-miterlimit="10" stroke-linecap="round" stroke-linejoin="round"/>
<path d="M99.4542 84.4696C100.386 83.6532 102.069 83.4354 103.192 83.8941" stroke="#294064" stroke-width="0.5" stroke-miterlimit="10" stroke-linecap="round" stroke-linejoin="round"/>
<path d="M114.073 124.565L114.127 125.85" stroke="#294064" stroke-width="0.5" stroke-miterlimit="10" stroke-linecap="round" stroke-linejoin="round"/>
<path d="M116.391 127.974L116.465 129.774" stroke="#294064" stroke-width="0.5" stroke-miterlimit="10" stroke-linecap="round" stroke-linejoin="round"/>
<path d="M116.502 130.29L116.555 131.357" stroke="#294064" stroke-width="0.5" stroke-miterlimit="10" stroke-linecap="round" stroke-linejoin="round"/>
<path d="M99.5884 135.982C97.3474 135.943 94.5565 135.798 92.6348 135.371" stroke="#294064" stroke-width="0.5" stroke-miterlimit="10" stroke-linecap="round" stroke-linejoin="round"/>
<path d="M92.0179 135.244C91.3339 135.162 90.1179 134.89 89.5878 134.661" stroke="#294064" stroke-width="0.5" stroke-miterlimit="10" stroke-linecap="round" stroke-linejoin="round"/>
<path d="M88.0594 124.977C89.278 125.851 92.5868 126.357 93.973 126.495" stroke="#294064" stroke-width="0.5" stroke-miterlimit="10" stroke-linecap="round" stroke-linejoin="round"/>
<g style="mix-blend-mode:multiply">
<path d="M99.5924 124.513C101.085 124.673 104.532 124.727 106.535 123.728C108.453 122.772 109.708 120.84 110.139 118.741C111.364 112.774 109.954 106.907 109.011 102.836C109.011 102.836 110.156 106.602 114.681 106.447C117.539 106.35 120.811 102.889 122.24 100.111C125.3 94.1602 127.233 88.894 126.427 81.7085C126.427 81.7085 126.672 88.0342 122.787 89.9658C120.199 91.2527 119.446 88.4182 116.428 87.7089C117.484 90.4452 116.505 91.8852 115.635 92.7688C113.48 94.9551 108.277 95.296 104.359 96.0489C100.438 96.8025 97.5819 97.5145 95.7206 97.9196L96.321 100.463C96.321 100.463 104.309 104.552 105.506 110.47C107.177 118.735 101.189 122.722 99.5924 124.513Z" fill="#B3A9EC"/>
<path d="M124.201 73.5194C123.684 74.72 122.016 75.0949 122.168 75.1558C124.639 76.1497 124.876 77.7668 125.28 78.555C127.618 83.1145 126.375 89.1977 124.836 94.3257C123.978 97.1875 119.938 103.657 119.938 103.657C119.938 103.657 123.719 106.709 128.541 101.644C132.29 97.7073 134.296 92.987 133.538 87.213C133.357 85.8363 132.571 84.8576 131.595 84.0392C131.254 83.7534 130.606 83.4001 130.606 83.4001C130.606 83.4001 131.635 79.7764 131.164 77.1077C130.332 72.3967 128.468 70.2953 126.656 68.2463C126.007 67.513 124.963 66.7102 124.119 66.0535C123.981 65.9463 126.139 69.0213 124.201 73.5194Z" fill="#B3A9EC"/>
</g>
</g>
</g>
<defs>
<radialGradient id="paint0_radial_1185_4541" cx="0" cy="0" r="1" gradientUnits="userSpaceOnUse" gradientTransform="translate(144 -0.000415942) rotate(138.839) scale(184.052 135.561)">
<stop stop-color="#E7012A"/>
<stop offset="1" stop-color="#5815A3"/>
</radialGradient>
<clipPath id="clip0_1185_4541">
<rect width="144" height="144" rx="16" fill="white"/>
</clipPath>
</defs>
</svg>
