<svg width="414" height="861" viewBox="0 0 414 861" fill="none" xmlns="http://www.w3.org/2000/svg">
<g clip-path="url(#clip0_1232_4773)">
<path d="M0 0H414V841C414 852.046 405.046 861 394 861H20C8.95432 861 0 852.046 0 841V0Z" fill="#EF6A82"/>
<g clip-path="url(#clip1_1232_4773)">
<path d="M0 0H414V841C414 852.046 405.046 861 394 861H20C8.95432 861 0 852.046 0 841V0Z" fill="#EF6A82"/>
<rect x="415" y="888" width="416" height="888" transform="rotate(-180 415 888)" fill="url(#paint0_radial_1232_4773)"/>
<g style="mix-blend-mode:multiply">
<path d="M277.096 691.316C277.096 689.509 282.774 688.043 289.778 688.043C296.783 688.043 302.461 689.509 302.461 691.316C302.461 693.124 296.783 694.589 289.778 694.589C282.774 694.589 277.096 693.124 277.096 691.316Z" fill="#6365C3"/>
<path d="M308.052 697.727C308.052 695.919 314.86 694.454 323.257 694.454C331.655 694.454 338.462 695.919 338.462 697.727C338.462 699.535 331.655 701 323.257 701C314.86 701 308.052 699.535 308.052 697.727Z" fill="#6365C3"/>
<path d="M265.505 693.975C265.505 692.13 270.633 690.634 276.96 690.634C283.286 690.634 288.415 692.13 288.415 693.975C288.415 695.82 283.286 697.316 276.96 697.316C270.633 697.316 265.505 695.82 265.505 693.975Z" fill="#6365C3"/>
</g>
<path d="M428.392 277C387.091 300.167 284.149 382.8 263.608 391.513C244.951 399.427 232.212 394.896 213.878 403.534C198.706 410.681 191.764 422.482 178.207 436.361C165.966 448.892 149.26 451.886 146.355 462.018C144.371 468.937 153.866 475.3 166.402 471.786C177.899 468.563 186.627 460.992 196.636 454.479C199.887 462.482 199.339 473.5 206.391 478.488C218.165 486.817 234.854 496.907 247.888 490.734C268.288 481.074 287.517 449.748 287.517 449.748C287.517 449.748 393.644 434.659 464.561 403.534C461.244 393.847 452.628 372.573 446.226 364.583C436.451 352.383 458.463 339.976 446.226 330.25" fill="#FFF2E0"/>
<path d="M428.392 277C387.091 300.167 284.149 382.8 263.608 391.513C244.951 399.427 232.212 394.896 213.878 403.534C198.706 410.681 191.764 422.482 178.207 436.361C165.966 448.892 149.26 451.886 146.355 462.018C144.371 468.937 153.866 475.3 166.402 471.786C177.899 468.563 186.627 460.992 196.636 454.479C199.887 462.482 199.339 473.5 206.391 478.488C218.165 486.817 234.854 496.907 247.888 490.734C268.288 481.074 287.517 449.748 287.517 449.748C287.517 449.748 393.644 434.659 464.561 403.534C461.244 393.847 452.628 372.573 446.226 364.583C436.451 352.383 458.463 339.976 446.226 330.25" stroke="#294064" stroke-miterlimit="10" stroke-linecap="round"/>
<path d="M228.453 460.026C224.902 460.173 224.01 460.303 214.321 461.897C206.88 463.12 201.902 463.691 196.074 463.767C188.483 463.867 180.794 462.977 172.487 460.861C161.675 458.107 151.366 467.111 144.012 483.387C137.306 498.229 134.174 516.92 136.266 530.747C137.362 537.992 139.196 544.109 142.54 552.948C142.529 552.919 144.684 558.563 145.259 560.12C146.234 562.757 146.965 564.915 147.566 566.98C150.439 576.834 150.267 584.92 146.145 594.42C145.847 595.107 146.169 595.906 146.856 596.204C147.543 596.502 148.341 596.192 148.639 595.506C153.031 585.384 153.214 576.648 150.174 566.219C149.551 564.084 148.798 561.877 147.804 559.185C147.222 557.61 145.056 551.946 145.072 551.988C141.79 543.313 140.01 537.353 138.948 530.335C136.938 517.055 139.981 498.885 146.482 484.497C153.358 469.277 162.659 461.161 171.814 463.493C180.355 465.668 188.287 466.577 196.111 466.474C202.103 466.395 207.195 465.823 214.758 464.578C224.292 463.009 225.177 462.873 228.565 462.732C233.069 462.545 236.791 463.128 240.364 464.715C245.195 466.861 249.865 470.924 254.833 477.55C262.973 488.406 267.917 501.697 270.661 518.536C272.775 531.511 273.416 542.791 274.041 568.764C274.215 575.979 274.281 578.803 274.403 582.658C274.977 600.898 274.75 610.584 272.993 620.389C270.776 632.767 266.111 642.455 258.063 650.249C249.801 658.25 240.362 662.984 227.954 665.678C218.46 667.739 208.396 668.566 189.201 669.245C190.22 668.879 191.194 668.604 192.232 668.21C201.885 664.545 208.586 660.528 212.201 656.385C215.726 652.346 216.273 648.149 213.785 644.636C209.144 638.084 194.966 635.324 178.686 638.063C172.602 639.086 165.772 641.581 160.339 644.948C153.801 648.999 149.579 654.05 148.664 659.803C147.828 665.06 151.183 668.555 158.056 670.405C161.234 671.26 165.303 671.778 170.205 672.039C163.49 673.538 156.566 674.613 148.739 675.444C145.641 675.773 142.805 676.027 137.775 676.467C124.866 677.595 119.987 678.093 112.505 679.173C102.381 680.635 92.514 682.674 81.9222 685.609C81.2006 685.809 80.7743 686.559 80.9739 687.281C81.1739 688.002 81.9238 688.416 82.6455 688.216C93.1234 685.312 102.891 683.301 112.904 681.855C120.319 680.784 125.153 680.297 138.012 679.173C143.057 678.732 145.907 678.469 149.026 678.138C160.684 676.9 170.418 675.121 180.37 672.188C181.879 672.17 183.294 672.178 184.923 672.126C207.529 671.406 218.071 670.607 228.54 668.334C241.42 665.538 251.314 660.579 259.959 652.207C268.447 643.987 273.35 633.768 275.663 620.863C277.463 610.814 277.69 600.994 277.109 582.571C276.988 578.725 276.921 575.909 276.747 568.701C276.119 542.601 275.471 531.241 273.33 518.099C270.521 500.861 265.423 487.174 256.991 475.929C251.765 468.959 246.772 464.598 241.475 462.246C237.489 460.476 233.348 459.822 228.453 460.026ZM190.136 639.734C200.51 639.623 208.664 642.095 211.577 646.208C215.358 651.544 208.835 659.01 191.271 665.678C187.398 667.148 183.672 668.384 179.983 669.482C159.535 669.699 150.301 666.798 151.346 660.227C152.117 655.38 155.83 650.931 161.761 647.255C166.886 644.079 173.389 641.699 179.135 640.732C182.976 640.086 186.678 639.771 190.136 639.734Z" fill="#53FFFA" stroke="#294064" stroke-miterlimit="10" stroke-linecap="round"/>
<g style="mix-blend-mode:multiply">
<path d="M221.155 459.685C224.885 464.067 227.991 469.068 232.344 472.832C235.814 475.833 240.302 477.398 244.282 479.681C244.201 475.534 242.983 471.251 244.04 467.241C246.551 457.711 252.596 449.312 254.816 439.71C256.955 430.459 253.483 419.577 253.483 419.577C253.483 419.577 245.152 435.732 240.159 439.328C232.143 445.102 220.395 447.307 209.049 445.153C209.036 452.345 209.914 455.804 209.901 462.996" fill="#FF6832" fill-opacity="0.5"/>
</g>
<g style="mix-blend-mode:multiply">
<path d="M280.985 416.192C280.394 412.713 278.828 409.485 278.634 405.936C278.505 403.588 278.668 400.555 279.578 398.293C280.257 396.606 280.165 398.311 280.168 397.198C278.478 397.12 276.251 398.816 274.717 398.035C269.973 395.623 268.031 392.817 262.549 393.595C271.081 398.377 275.511 406.478 280.573 414.834C280.818 415.239 280.848 415.739 280.985 416.192Z" fill="#FF6832" fill-opacity="0.5"/>
</g>
<path d="M187.858 497.644C187.858 497.644 173.422 503.159 166.52 490.886C159.485 478.377 163.585 451.974 170.031 445.248C176.031 438.987 185.668 444.761 184.993 455.724C184.384 465.612 180.295 476.721 179.448 486.59" fill="#FFF2E0"/>
<path d="M187.858 497.644C187.858 497.644 173.422 503.159 166.52 490.886C159.485 478.377 163.585 451.974 170.031 445.248C176.031 438.987 185.668 444.761 184.993 455.724C184.384 465.612 180.295 476.721 179.448 486.59" stroke="#294064" stroke-miterlimit="10" stroke-linecap="round"/>
<path d="M205.685 497.067C201.502 500.091 192.679 501.18 186.811 498.835C182.076 496.942 178.539 491.217 178.299 486.123C177.852 476.651 180.45 466.825 184.906 458.455C188.101 452.454 196.408 441.602 202.722 442.729C211.98 444.38 206.982 456.244 206.79 460.055C206.068 474.387 203.878 476.256 200.424 490.184" fill="#FFF2E0"/>
<path d="M205.685 497.067C201.502 500.091 192.679 501.18 186.811 498.835C182.076 496.942 178.539 491.217 178.299 486.123C177.852 476.651 180.45 466.825 184.906 458.455C188.101 452.454 196.408 441.602 202.722 442.729C211.98 444.38 206.982 456.244 206.79 460.055C206.068 474.387 203.878 476.256 200.424 490.184" stroke="#294064" stroke-miterlimit="10" stroke-linecap="round"/>
<path d="M228.702 492.814C225.964 499.326 211.966 501.42 206.287 497.81C200.019 493.826 199.335 486.416 198.836 479.509C198.341 472.648 202.844 456.811 211.989 449.471C216.617 445.756 222.6 443.229 227.609 448.044C231.092 451.391 225.527 458.245 223.986 463.416C221.435 471.974 223.103 478.16 225.524 486.453" fill="#FFF2E0"/>
<path d="M228.702 492.814C225.964 499.326 211.966 501.42 206.287 497.81C200.019 493.826 199.335 486.416 198.836 479.509C198.341 472.648 202.844 456.811 211.989 449.471C216.617 445.756 222.6 443.229 227.609 448.044C231.092 451.391 225.527 458.245 223.986 463.416C221.435 471.974 223.103 478.16 225.524 486.453" stroke="#294064" stroke-miterlimit="10" stroke-linecap="round"/>
<path d="M258.225 484.085C248.432 493.077 235.497 500.292 226.732 493.269C215.534 484.295 217.837 472.653 220.52 463.074C222.207 457.054 229.223 442.01 236.687 446.343C247.292 452.499 238.664 459.156 239.837 468.777C240.29 472.499 241.385 476.478 243.919 480.56" fill="#FFF2E0"/>
<path d="M258.225 484.085C248.432 493.077 235.497 500.292 226.732 493.269C215.534 484.295 217.837 472.653 220.52 463.074C222.207 457.054 229.223 442.01 236.687 446.343C247.292 452.499 238.664 459.156 239.837 468.777C240.29 472.499 241.385 476.478 243.919 480.56" stroke="#294064" stroke-miterlimit="10" stroke-linecap="round"/>
<path d="M222.888 445.336C235.378 446.205 245.057 435.211 249.354 424.795C250.491 422.036 252.69 415.628 251.515 412.802" stroke="#294064" stroke-miterlimit="10" stroke-linecap="round"/>
<path d="M282.477 440.613C282.477 440.613 282.856 436.265 282.875 433.29C282.908 428.249 281.434 423.285 278.546 418.795" stroke="#294064" stroke-miterlimit="10" stroke-linecap="round"/>
<path d="M254.864 396.754C257.22 396.457 262.407 399.553 263.836 400.698" stroke="#294064" stroke-miterlimit="10" stroke-linecap="round"/>
<path d="M243.371 466.287C243.974 465.087 243.239 463.206 243.239 463.206C243.239 463.206 242.501 462.422 240.838 462.083C240.195 463.411 240.706 464.556 240.706 464.556C240.706 464.556 242.415 465.751 243.371 466.287Z" fill="#294064" stroke="#294064" stroke-miterlimit="10" stroke-linecap="round"/>
<path d="M163.755 461.293C161.216 462.637 161.083 462.424 160.416 465.322C162.672 464.186 161.733 464.574 163.172 464.022" fill="#294064"/>
<path d="M163.755 461.293C161.216 462.637 161.083 462.424 160.416 465.322C162.672 464.186 161.733 464.574 163.172 464.022" stroke="#294064" stroke-miterlimit="10" stroke-linecap="round"/>
<path d="M189.775 451.864C197.968 457.312 202.679 451.814 203.194 445.67" stroke="#294064" stroke-miterlimit="10" stroke-linecap="round"/>
<path d="M208.007 454.082C216.654 461.265 222.108 448.787 222.108 448.787" stroke="#294064" stroke-miterlimit="10" stroke-linecap="round"/>
<path d="M223.704 456.256C230.306 460.355 235.929 456.39 236.416 449.053" stroke="#294064" stroke-miterlimit="10" stroke-linecap="round"/>
<path d="M176.648 444.033C173.912 443.635 171.767 445.2 170.733 447.28C169.644 449.472 168.378 453.387 169.3 455.019C172.08 459.935 180.924 459.413 181.031 454.594C181.096 451.709 181.349 447.795 181.349 447.795" stroke="#294064" stroke-miterlimit="10" stroke-linecap="round"/>
<path d="M135.949 547.757C135.949 544.505 138.585 541.869 141.836 541.869C145.088 541.869 147.724 544.505 147.724 547.757C147.724 551.008 145.088 553.645 141.836 553.645C138.585 553.645 135.949 551.008 135.949 547.757Z" fill="#9E67DB" stroke="#294064" stroke-miterlimit="10"/>
<path d="M131.67 532.428C131.67 528.572 134.796 525.446 138.653 525.446C142.509 525.446 145.635 528.572 145.635 532.428C145.635 536.284 142.509 539.41 138.653 539.41C134.796 539.41 131.67 536.284 131.67 532.428Z" fill="#C695FD" stroke="#294064" stroke-miterlimit="10"/>
<path d="M135.58 492.549C135.58 489.199 138.296 486.483 141.646 486.483C144.996 486.483 147.712 489.199 147.712 492.549C147.712 495.899 144.996 498.615 141.646 498.615C138.296 498.615 135.58 495.899 135.58 492.549Z" fill="#9E67DB" stroke="#294064" stroke-miterlimit="10"/>
<path d="M259.301 493.849C259.301 490.671 261.878 488.094 265.056 488.094C268.234 488.094 270.811 490.671 270.811 493.849C270.811 497.027 268.234 499.604 265.056 499.604C261.878 499.604 259.301 497.027 259.301 493.849Z" fill="#9E67DB" stroke="#294064" stroke-miterlimit="10"/>
<path d="M264.335 511.812C264.335 507.956 267.461 504.83 271.317 504.83C275.173 504.83 278.299 507.956 278.299 511.812C278.299 515.668 275.173 518.795 271.317 518.795C267.461 518.795 264.335 515.668 264.335 511.812Z" fill="#C695FD" stroke="#294064" stroke-miterlimit="10"/>
<path d="M266.639 529.372C266.639 525.516 269.765 522.39 273.621 522.39C277.478 522.39 280.604 525.516 280.604 529.372C280.604 533.228 277.478 536.354 273.621 536.354C269.765 536.354 266.639 533.228 266.639 529.372Z" fill="#9E67DB" stroke="#294064" stroke-miterlimit="10"/>
<path d="M267.757 546.37C267.757 542.916 270.557 540.116 274.01 540.116C277.464 540.116 280.264 542.916 280.264 546.37C280.264 549.823 277.464 552.623 274.01 552.623C270.557 552.623 267.757 549.823 267.757 546.37Z" fill="#9E67DB" stroke="#294064" stroke-miterlimit="10"/>
<path d="M268.938 563.229C268.938 559.981 271.572 557.347 274.821 557.347C278.07 557.347 280.703 559.981 280.703 563.229C280.703 566.478 278.07 569.112 274.821 569.112C271.572 569.112 268.938 566.478 268.938 563.229Z" fill="#C695FD" stroke="#294064" stroke-miterlimit="10"/>
<path d="M269.296 582.08C269.296 578.224 272.422 575.098 276.278 575.098C280.134 575.098 283.26 578.224 283.26 582.08C283.26 585.936 280.134 589.062 276.278 589.062C272.422 589.062 269.296 585.936 269.296 582.08Z" fill="#C695FD" stroke="#294064" stroke-miterlimit="10"/>
<path d="M269.667 600.297C269.667 596.702 272.581 593.788 276.176 593.788C279.771 593.788 282.685 596.702 282.685 600.297C282.685 603.892 279.771 606.806 276.176 606.806C272.581 606.806 269.667 603.892 269.667 600.297Z" fill="#9E67DB" stroke="#294064" stroke-miterlimit="10"/>
<path d="M268.241 619.979C268.241 616.123 271.367 612.997 275.223 612.997C279.08 612.997 282.206 616.123 282.206 619.979C282.206 623.835 279.08 626.961 275.223 626.961C271.367 626.961 268.241 623.835 268.241 619.979Z" fill="#9E67DB" stroke="#294064" stroke-miterlimit="10"/>
<path d="M263.279 635.588C263.279 632.34 265.912 629.707 269.16 629.707C272.408 629.707 275.042 632.34 275.042 635.588C275.042 638.836 272.408 641.469 269.16 641.469C265.912 641.469 263.279 638.836 263.279 635.588Z" fill="#C695FD" stroke="#294064" stroke-miterlimit="10"/>
<path d="M253.138 651.228C253.138 647.371 256.264 644.245 260.12 644.245C263.976 644.245 267.102 647.371 267.102 651.228C267.102 655.084 263.976 658.21 260.12 658.21C256.264 658.21 253.138 655.084 253.138 651.228Z" fill="#C695FD" stroke="#294064" stroke-miterlimit="10"/>
<path d="M239.852 660.868C239.852 657.846 242.301 655.396 245.324 655.396C248.346 655.396 250.796 657.846 250.796 660.868C250.796 663.89 248.346 666.34 245.324 666.34C242.301 666.34 239.852 663.89 239.852 660.868Z" fill="#9E67DB" stroke="#294064" stroke-miterlimit="10"/>
<path d="M222.921 668.238C222.921 664.382 226.047 661.256 229.904 661.256C233.76 661.256 236.886 664.382 236.886 668.238C236.886 672.095 233.76 675.221 229.904 675.221C226.047 675.221 222.921 672.095 222.921 668.238Z" fill="#9E67DB" stroke="#294064" stroke-miterlimit="10"/>
<path d="M275.914 684.443C275.914 680.587 279.04 677.461 282.896 677.461C286.752 677.461 289.879 680.587 289.879 684.443C289.879 688.299 286.752 691.425 282.896 691.425C279.04 691.425 275.914 688.299 275.914 684.443Z" fill="#9E67DB" stroke="#294064" stroke-miterlimit="10"/>
<path d="M266.524 688.187C266.524 684.892 269.196 682.221 272.49 682.221C275.785 682.221 278.457 684.892 278.457 688.187C278.457 691.482 275.785 694.153 272.49 694.153C269.196 694.153 266.524 691.482 266.524 688.187Z" fill="#9E67DB" stroke="#294064" stroke-miterlimit="10"/>
<path d="M310.514 691.192C310.514 687.515 313.494 684.535 317.171 684.535C320.847 684.535 323.828 687.515 323.828 691.192C323.828 694.869 320.847 697.849 317.171 697.849C313.494 697.849 310.514 694.869 310.514 691.192Z" fill="#C695FD" stroke="#294064" stroke-miterlimit="10"/>
<path d="M174.802 640.565C174.802 636.709 177.928 633.583 181.784 633.583C185.64 633.583 188.766 636.709 188.766 640.565C188.766 644.421 185.64 647.547 181.784 647.547C177.928 647.547 174.802 644.421 174.802 640.565Z" fill="#C695FD" stroke="#294064" stroke-miterlimit="10"/>
<path d="M137.335 613.977C137.335 610.734 139.964 608.105 143.207 608.105C146.45 608.105 149.079 610.734 149.079 613.977C149.079 617.22 146.45 619.849 143.207 619.849C139.964 619.849 137.335 617.22 137.335 613.977Z" fill="#9E67DB" stroke="#294064" stroke-miterlimit="10"/>
<path d="M58.6562 691.651C58.6562 688.715 61.0367 686.334 63.9727 686.334C66.9091 686.334 69.2891 688.715 69.2891 691.651C69.2891 694.587 66.9091 696.968 63.9727 696.968C61.0367 696.968 58.6562 694.587 58.6562 691.651Z" fill="#C695FD" stroke="#294064" stroke-miterlimit="10"/>
<path d="M94.174 682.827C94.174 678.971 97.3 675.845 101.156 675.845C105.012 675.845 108.139 678.971 108.139 682.827C108.139 686.683 105.012 689.809 101.156 689.809C97.3 689.809 94.174 686.683 94.174 682.827Z" fill="#C695FD" stroke="#294064" stroke-miterlimit="10"/>
<path d="M111.858 679.53C111.858 675.673 114.984 672.547 118.84 672.547C122.697 672.547 125.823 675.673 125.823 679.53C125.823 683.386 122.697 686.512 118.84 686.512C114.984 686.512 111.858 683.386 111.858 679.53Z" fill="#9E67DB" stroke="#294064" stroke-miterlimit="10"/>
<path d="M123.178 678.376C123.178 675.308 125.665 672.822 128.732 672.822C131.8 672.822 134.287 675.308 134.287 678.376C134.287 681.444 131.8 683.931 128.732 683.931C125.665 683.931 123.178 681.444 123.178 678.376Z" fill="#C695FD" stroke="#294064" stroke-miterlimit="10"/>
<path d="M142.205 676.456C142.205 672.6 145.331 669.474 149.187 669.474C153.043 669.474 156.169 672.6 156.169 676.456C156.169 680.312 153.043 683.438 149.187 683.438C145.331 683.438 142.205 680.312 142.205 676.456Z" fill="#9E67DB" stroke="#294064" stroke-miterlimit="10"/>
<path d="M150.625 650.006C150.625 646.937 153.113 644.449 156.182 644.449C159.251 644.449 161.739 646.937 161.739 650.006C161.739 653.075 159.251 655.563 156.182 655.563C153.113 655.563 150.625 653.075 150.625 650.006Z" fill="#9E67DB" stroke="#294064" stroke-miterlimit="10"/>
<path d="M193.748 639.308C193.748 636.218 196.253 633.712 199.343 633.712C202.433 633.712 204.938 636.218 204.938 639.308C204.938 642.398 202.433 644.903 199.343 644.903C196.253 644.903 193.748 642.398 193.748 639.308Z" fill="#9E67DB" stroke="#294064" stroke-miterlimit="10"/>
<path d="M202.957 641.795C202.957 637.939 206.083 634.813 209.939 634.813C213.795 634.813 216.921 637.939 216.921 641.795C216.921 645.652 213.795 648.778 209.939 648.778C206.083 648.778 202.957 645.652 202.957 641.795Z" fill="#9E67DB" stroke="#294064" stroke-miterlimit="10"/>
<path d="M208.061 648.835C208.061 645.457 210.799 642.719 214.177 642.719C217.556 642.719 220.294 645.457 220.294 648.835C220.294 652.214 217.556 654.952 214.177 654.952C210.799 654.952 208.061 652.214 208.061 648.835Z" fill="#C695FD" stroke="#294064" stroke-miterlimit="10"/>
<path d="M196.46 658.849C196.46 654.993 199.586 651.867 203.442 651.867C207.298 651.867 210.424 654.993 210.424 658.849C210.424 662.705 207.298 665.831 203.442 665.831C199.586 665.831 196.46 662.705 196.46 658.849Z" fill="#9E67DB" stroke="#294064" stroke-miterlimit="10"/>
<path d="M153.043 665.842C153.043 661.985 156.169 658.859 160.026 658.859C163.882 658.859 167.008 661.985 167.008 665.842C167.008 669.698 163.882 672.824 160.026 672.824C156.169 672.824 153.043 669.698 153.043 665.842Z" fill="#C695FD" stroke="#294064" stroke-miterlimit="10"/>
<path d="M168.479 669.281C168.479 665.425 171.605 662.299 175.462 662.299C179.318 662.299 182.444 665.425 182.444 669.281C182.444 673.137 179.318 676.264 175.462 676.264C171.605 676.264 168.479 673.137 168.479 669.281Z" fill="#9E67DB" stroke="#294064" stroke-miterlimit="10"/>
<path d="M184.306 670.861C184.306 667.004 187.432 663.878 191.288 663.878C195.145 663.878 198.271 667.004 198.271 670.861C198.271 674.717 195.145 677.843 191.288 677.843C187.432 677.843 184.306 674.717 184.306 670.861Z" fill="#C695FD" stroke="#294064" stroke-miterlimit="10"/>
<path d="M193.536 670.83C193.536 666.974 196.663 663.848 200.519 663.848C204.375 663.848 207.501 666.974 207.501 670.83C207.501 674.686 204.375 677.812 200.519 677.812C196.663 677.812 193.536 674.686 193.536 670.83Z" fill="#C695FD" stroke="#294064" stroke-miterlimit="10"/>
<path d="M201.783 669.799C201.783 666.482 204.471 663.793 207.788 663.793C211.105 663.793 213.794 666.482 213.794 669.799C213.794 673.116 211.105 675.805 207.788 675.805C204.471 675.805 201.783 673.116 201.783 669.799Z" fill="#9E67DB" stroke="#294064" stroke-miterlimit="10"/>
<path d="M144.023 489.089C145.825 490.403 146.204 491.183 146.449 493.248" stroke="#294064" stroke-miterlimit="10" stroke-linecap="round"/>
<path d="M145.844 494.774C145.673 495.302 145.468 495.701 145.136 496.142" stroke="#294064" stroke-miterlimit="10" stroke-linecap="round"/>
<path d="M133.562 530.674C133.252 530.915 133.23 531.614 133.227 531.95C133.212 534.172 134.18 536.213 136.312 537.042" stroke="#294064" stroke-miterlimit="10" stroke-linecap="round"/>
<path d="M145.307 610.307C147.096 612.33 147.664 613.342 146.747 616.038" stroke="#294064" stroke-miterlimit="10" stroke-linecap="round"/>
<path d="M145.956 617.402C145.609 617.893 145.144 618.226 144.63 618.525" stroke="#294064" stroke-miterlimit="10" stroke-linecap="round"/>
<path d="M178.004 636.76C175.987 638.242 176.792 641.254 177.906 642.963" stroke="#294064" stroke-miterlimit="10" stroke-linecap="round"/>
<path d="M179.021 644.549C179.606 645.19 180.327 645.487 181.122 645.792" stroke="#294064" stroke-miterlimit="10" stroke-linecap="round"/>
<path d="M156.213 645.691C157.897 645.793 159.629 646.87 160.089 648.59" stroke="#294064" stroke-miterlimit="10" stroke-linecap="round"/>
<path d="M160.312 649.898C160.434 650.355 160.269 650.591 160.153 651.033" stroke="#294064" stroke-miterlimit="10" stroke-linecap="round"/>
<path d="M144.481 678.442C143.678 676.116 143.764 674.237 145.711 672.554" stroke="#294064" stroke-miterlimit="10" stroke-linecap="round"/>
<path d="M145.187 679.85C145.427 680.545 145.976 681.116 146.694 681.347" stroke="#294064" stroke-miterlimit="10" stroke-linecap="round"/>
<path d="M104.59 678.562C106.368 680.158 106.762 682.441 105.706 684.727" stroke="#294064" stroke-miterlimit="10" stroke-linecap="round"/>
<path d="M105.031 685.913C104.929 686.283 104.66 686.483 104.388 686.719" stroke="#294064" stroke-miterlimit="10" stroke-linecap="round"/>
<path d="M60.5356 689.28C59.7174 690.508 59.6794 692.3 60.7898 693.41" stroke="#294064" stroke-miterlimit="10" stroke-linecap="round"/>
<path d="M231.57 663.281C233.281 663.826 234.237 665.88 234.488 667.486" stroke="#294064" stroke-miterlimit="10" stroke-linecap="round"/>
<path d="M234.638 669.339C234.718 669.848 234.582 670.611 234.276 671.031" stroke="#294064" stroke-miterlimit="10" stroke-linecap="round"/>
<path d="M211.304 645.199C209.58 646.771 209.89 649.449 211.221 651.154" stroke="#294064" stroke-miterlimit="10" stroke-linecap="round"/>
<path d="M212.257 652.374C212.782 652.949 213.51 653.096 214.25 653.141" stroke="#294064" stroke-miterlimit="10" stroke-linecap="round"/>
<path d="M177.116 664.156C177.097 664.101 177.787 664.492 177.936 664.615C178.39 664.989 178.771 665.452 179.137 665.913C180.012 667.015 180.907 669.638 179.911 670.921" stroke="#294064" stroke-miterlimit="10" stroke-linecap="round"/>
<path d="M256.182 647.546C254.32 649.376 255.294 652.384 256.424 654.271" stroke="#294064" stroke-miterlimit="10" stroke-linecap="round"/>
<path d="M285.564 679.938C287.688 680.645 288.485 683.604 287.887 685.599" stroke="#294064" stroke-miterlimit="10" stroke-linecap="round"/>
<path d="M287.342 686.903C287.342 687.405 286.915 687.874 286.58 688.21" stroke="#294064" stroke-miterlimit="10" stroke-linecap="round"/>
<path d="M278.304 577.048C280.498 578.145 281.24 581.056 280.515 583.23" stroke="#294064" stroke-miterlimit="10" stroke-linecap="round"/>
<path d="M279.902 584.582C279.782 585.059 279.66 585.419 279.206 585.646" stroke="#294064" stroke-miterlimit="10" stroke-linecap="round"/>
<path d="M270.513 524.935C268.147 526.549 268.405 530.273 270.267 532.095" stroke="#294064" stroke-miterlimit="10" stroke-linecap="round"/>
<path d="M271.455 533.257C271.92 533.938 272.816 534.155 273.585 534.229" stroke="#294064" stroke-miterlimit="10" stroke-linecap="round"/>
<path d="M269.657 545.086C269.513 548.305 270.976 550.601 274.195 551.407" stroke="#294064" stroke-miterlimit="10" stroke-linecap="round"/>
<path d="M480.398 442.603C330.114 382.077 281.363 511.998 243.781 547.461C185.943 602.038 96.3177 593.77 74.8828 514.264C64.6013 476.13 85.0252 460.42 97.1213 466.222C106.969 470.945 115.473 487.518 108.358 514.044C98.687 550.103 36.4429 611.642 -32.9206 570.389" stroke="white" stroke-miterlimit="10" stroke-linecap="round" stroke-linejoin="round" stroke-dasharray="10 10"/>
<path fill-rule="evenodd" clip-rule="evenodd" d="M99.1203 707.449L93.3982 720.397H91.0033V707.449H71.7939L71.7946 707.449C68.5919 707.474 65.0309 708.102 62.2459 710.49C59.2494 713.058 58.2169 716.719 58.2169 720.478C58.2169 724.237 59.2468 727.91 62.2674 730.47C65.1195 732.888 68.7733 733.463 71.9946 733.463C72.0472 733.463 72.1038 733.463 72.1038 733.463C72.1049 733.463 72.1049 733.463 72.1056 733.463C72.1049 733.463 72.1052 733.463 72.1056 733.463L87.6906 733.459H101.955L103.799 729.301H105.198L107.034 733.459H126.071V730.025C126.229 730.177 126.393 730.326 126.564 730.47C129.416 732.888 133.07 733.463 136.291 733.463C136.44 733.463 136.588 733.461 136.737 733.459H167.566V707.449H99.1203Z" fill="#E1012E"/>
<path fill-rule="evenodd" clip-rule="evenodd" d="M99.1566 707.175L93.3991 720.393H90.9894V707.175H71.661L71.6618 707.176C68.4392 707.201 64.8563 707.842 62.054 710.279C59.0389 712.902 58 716.638 58 720.476C58 724.313 59.0363 728.063 62.0756 730.677C64.9454 733.145 68.6218 733.732 71.863 733.732C71.9159 733.732 71.9729 733.732 71.9729 733.732C71.974 733.732 71.974 733.732 71.9747 733.732C71.974 733.732 71.9743 733.732 71.9747 733.732L87.6562 733.728H102.008L103.864 729.483H105.272L107.12 733.728H126.274V730.222C126.433 730.377 126.598 730.529 126.77 730.677C129.64 733.145 133.317 733.732 136.558 733.732C136.707 733.732 136.856 733.73 137.006 733.728H168.026V707.175H99.1566ZM80.0375 723.538C80.0342 723.557 80.0305 723.575 80.0269 723.594C80.0192 723.636 80.0115 723.678 80.0031 723.719C79.9984 723.742 79.9933 723.764 79.9885 723.787C79.9809 723.824 79.9732 723.86 79.9652 723.896C79.9597 723.921 79.9535 723.946 79.9476 723.97C79.9396 724.003 79.9319 724.036 79.9235 724.069C79.9155 724.1 79.9075 724.131 79.8991 724.161C79.8929 724.185 79.8867 724.208 79.8801 724.231C79.8713 724.263 79.8618 724.293 79.8527 724.324C79.8461 724.346 79.8399 724.369 79.833 724.391C79.8231 724.422 79.8125 724.454 79.8023 724.486C79.7957 724.506 79.7892 724.527 79.7822 724.547C79.7705 724.581 79.7585 724.615 79.7461 724.649C79.7402 724.666 79.7344 724.683 79.7282 724.7C79.7096 724.75 79.6906 724.799 79.6708 724.848C79.6665 724.86 79.6617 724.87 79.657 724.881C79.6416 724.919 79.6259 724.957 79.6099 724.994C79.6015 725.013 79.5923 725.033 79.5839 725.052C79.5712 725.08 79.5587 725.109 79.5456 725.137C79.5357 725.158 79.5255 725.178 79.5153 725.199C79.5029 725.225 79.4905 725.251 79.4777 725.276C79.4667 725.297 79.4558 725.318 79.4444 725.339C79.4317 725.363 79.4192 725.388 79.4065 725.412C79.3948 725.433 79.3827 725.454 79.3707 725.476C79.3579 725.499 79.3451 725.522 79.3316 725.545C79.3192 725.566 79.3064 725.587 79.2936 725.608C79.2801 725.63 79.267 725.652 79.2535 725.674C79.2403 725.695 79.2272 725.715 79.2137 725.736C79.1998 725.757 79.1859 725.779 79.172 725.8C79.1582 725.821 79.1443 725.841 79.1304 725.861C79.1162 725.882 79.1019 725.903 79.0873 725.923C79.0731 725.943 79.0581 725.963 79.0435 725.983C79.0285 726.003 79.0139 726.023 78.9989 726.043C78.984 726.063 78.9686 726.082 78.9533 726.102C78.938 726.121 78.9226 726.141 78.9069 726.16C78.8912 726.179 78.8755 726.198 78.8595 726.217C78.8438 726.236 78.8277 726.255 78.8116 726.273C78.7952 726.292 78.7788 726.311 78.7623 726.329C78.7459 726.348 78.7295 726.366 78.7127 726.384C78.6959 726.402 78.6787 726.421 78.6615 726.439C78.6447 726.456 78.6276 726.474 78.6104 726.491C78.5929 726.509 78.5754 726.527 78.5578 726.544C78.5403 726.562 78.5228 726.579 78.5049 726.596C78.487 726.613 78.4687 726.63 78.4505 726.647C78.4322 726.664 78.414 726.681 78.3957 726.697C78.3771 726.714 78.3585 726.731 78.3398 726.747C78.3212 726.763 78.3022 726.78 78.2829 726.796C78.2639 726.812 78.2449 726.828 78.2255 726.844C78.2062 726.86 78.1865 726.876 78.1664 726.891C78.147 726.907 78.1273 726.922 78.1076 726.938C78.0875 726.953 78.0667 726.969 78.0462 726.984C78.0265 726.999 78.0064 727.014 77.9864 727.029C77.9655 727.044 77.944 727.059 77.9228 727.074C77.9024 727.088 77.8823 727.102 77.8618 727.117C77.8399 727.132 77.8176 727.146 77.7954 727.161C77.7749 727.174 77.7545 727.188 77.734 727.201C77.711 727.216 77.6877 727.231 77.6639 727.245C77.6435 727.258 77.623 727.271 77.6026 727.283C77.5781 727.298 77.5529 727.312 77.5281 727.327C77.508 727.339 77.4883 727.351 77.4678 727.362C77.4408 727.377 77.4131 727.392 77.3857 727.407C77.2294 727.493 77.0669 727.573 76.8978 727.648C75.6019 728.22 73.9228 728.478 71.8622 728.478C66.6131 728.478 63.5256 726.563 63.2696 721.217C63.258 720.977 63.2525 720.73 63.2525 720.475C63.2525 720.189 63.2598 719.912 63.2744 719.643C63.5614 714.381 66.6434 712.427 71.8622 712.427C73.906 712.427 75.5814 712.681 76.8752 713.248C77.061 713.329 77.2385 713.418 77.4083 713.512C77.4309 713.525 77.454 713.537 77.4766 713.55C77.5018 713.564 77.5266 713.579 77.5515 713.594C77.5734 713.607 77.5953 713.62 77.6168 713.633C77.6416 713.648 77.6661 713.664 77.6906 713.68C77.7114 713.693 77.7326 713.706 77.7534 713.72C77.7775 713.735 77.8009 713.751 77.8242 713.767C77.8447 713.781 77.8659 713.795 77.8859 713.809C77.9097 713.825 77.9327 713.843 77.956 713.859C77.9758 713.874 77.9955 713.888 78.0148 713.902C78.0382 713.919 78.0608 713.937 78.0839 713.955C78.1025 713.969 78.1215 713.983 78.1401 713.998C78.1624 714.016 78.1843 714.034 78.2065 714.052C78.2248 714.067 78.2434 714.082 78.2617 714.098C78.2829 714.115 78.3037 714.134 78.3249 714.153C78.3431 714.169 78.3617 714.184 78.3796 714.201C78.4001 714.219 78.4198 714.238 78.4399 714.256C78.4578 714.273 78.476 714.29 78.4936 714.306C78.5133 714.325 78.5323 714.345 78.5516 714.364C78.5688 714.381 78.5863 714.398 78.6035 714.416C78.6221 714.435 78.64 714.455 78.6583 714.474C78.6754 714.492 78.6929 714.51 78.7097 714.529C78.7273 714.548 78.7444 714.568 78.762 714.588C78.7788 714.607 78.7955 714.626 78.812 714.645C78.8288 714.665 78.8452 714.685 78.8616 714.706C78.8777 714.725 78.8945 714.745 78.9102 714.765C78.9263 714.785 78.942 714.806 78.9577 714.826C78.9734 714.847 78.9895 714.867 79.0048 714.888C79.0205 714.909 79.0351 714.93 79.0504 714.952C79.0654 714.973 79.0807 714.993 79.0953 715.015C79.1096 715.035 79.1231 715.056 79.137 715.078C79.1519 715.1 79.1673 715.123 79.1823 715.146C79.1954 715.166 79.2075 715.186 79.2202 715.207C79.2352 715.231 79.2505 715.255 79.2651 715.28C79.2776 715.3 79.2892 715.322 79.3017 715.343C79.3159 715.368 79.3305 715.392 79.3444 715.417C79.3561 715.438 79.3674 715.46 79.3787 715.481C79.3926 715.507 79.4065 715.532 79.4196 715.558C79.4306 715.58 79.4412 715.602 79.4517 715.623C79.4649 715.65 79.4784 715.676 79.4912 715.703C79.5014 715.725 79.5113 715.747 79.5215 715.769C79.5339 715.796 79.5467 715.823 79.5591 715.851C79.5686 715.873 79.5777 715.896 79.5872 715.918C79.5993 715.946 79.6113 715.974 79.623 716.003C79.6321 716.026 79.6409 716.05 79.65 716.073C79.661 716.102 79.6723 716.13 79.6829 716.159C79.6917 716.183 79.6997 716.207 79.7081 716.231C79.7183 716.26 79.7289 716.289 79.7388 716.318C79.7468 716.343 79.7541 716.367 79.7621 716.391C79.7716 716.421 79.7815 716.451 79.791 716.482C79.7986 716.507 79.8056 716.532 79.8129 716.558C79.8217 716.588 79.8308 716.618 79.8392 716.649C79.8465 716.676 79.8531 716.703 79.8604 716.73C79.868 716.76 79.8761 716.789 79.8834 716.819C79.8903 716.848 79.8965 716.877 79.9031 716.905C79.91 716.935 79.917 716.964 79.9235 716.994C79.9305 717.026 79.9367 717.058 79.9433 717.091C79.9487 717.118 79.9546 717.145 79.9601 717.173C79.9604 717.175 79.9611 717.178 79.9615 717.181C79.9714 717.232 79.9805 717.285 79.9893 717.338C79.9918 717.354 79.9944 717.37 79.9973 717.386C80.0039 717.428 80.0104 717.47 80.0166 717.512C80.0188 717.528 80.0214 717.544 80.0236 717.56C80.0316 717.617 80.0389 717.674 80.0459 717.732H76.8763C76.4717 715.507 74.8306 714.878 71.8633 714.878C68.559 714.878 66.4232 715.979 66.4232 719.643V721.217C66.4232 724.814 68.5137 726.027 71.8633 726.027C74.7182 726.027 76.3818 725.488 76.8989 723.352H80.0685C80.059 723.415 80.0488 723.476 80.0378 723.537L80.0375 723.538ZM95.2223 728.209H83.86H82.5888V712.698H85.7362V725.646H95.2227V728.209H95.2223ZM112.62 728.209H110.446L108.715 724.23H100.421L98.6899 728.209H95.7226L99.1777 720.393L102.579 712.698H106.895L112.62 725.693L113.729 728.21H112.62L112.62 728.209ZM127.359 715.261H123.473H121.02V728.209H117.874V715.261H111.534V712.698H127.36V715.261H127.359ZM144.697 723.726C144.696 723.73 144.695 723.733 144.695 723.737C144.683 723.793 144.671 723.849 144.659 723.904C144.657 723.913 144.655 723.921 144.652 723.93C144.641 723.98 144.629 724.029 144.617 724.077C144.612 724.095 144.607 724.111 144.603 724.128C144.594 724.165 144.584 724.201 144.573 724.237C144.568 724.257 144.562 724.276 144.557 724.295C144.547 724.328 144.537 724.362 144.527 724.395C144.52 724.417 144.513 724.438 144.506 724.46C144.496 724.49 144.487 724.52 144.477 724.55C144.468 724.576 144.458 724.601 144.449 724.627C144.441 724.652 144.432 724.677 144.423 724.701C144.405 724.751 144.386 724.8 144.366 724.849C144.363 724.857 144.359 724.865 144.357 724.873C144.34 724.914 144.323 724.955 144.305 724.996C144.299 725.01 144.292 725.024 144.286 725.038C144.271 725.072 144.256 725.106 144.24 725.139C144.233 725.155 144.225 725.171 144.217 725.188C144.202 725.218 144.187 725.248 144.173 725.278C144.164 725.296 144.155 725.313 144.145 725.33C144.131 725.358 144.116 725.386 144.101 725.415C144.091 725.432 144.081 725.45 144.071 725.468C144.056 725.494 144.041 725.521 144.026 725.547C144.016 725.565 144.005 725.583 143.994 725.601C143.979 725.626 143.964 725.652 143.948 725.676C143.937 725.695 143.925 725.713 143.913 725.731C143.898 725.755 143.882 725.779 143.867 725.802C143.854 725.821 143.842 725.839 143.829 725.857C143.813 725.88 143.797 725.903 143.781 725.925C143.768 725.944 143.755 725.962 143.742 725.98C143.726 726.002 143.709 726.024 143.693 726.045C143.679 726.063 143.665 726.082 143.651 726.1C143.634 726.121 143.618 726.141 143.601 726.162C143.586 726.18 143.571 726.198 143.556 726.216C143.54 726.236 143.523 726.256 143.506 726.275C143.491 726.293 143.475 726.311 143.459 726.329C143.442 726.348 143.425 726.366 143.408 726.385C143.391 726.403 143.374 726.421 143.357 726.439C143.341 726.457 143.324 726.474 143.306 726.492C143.289 726.51 143.271 726.528 143.253 726.545C143.236 726.562 143.219 726.579 143.201 726.596C143.183 726.614 143.164 726.631 143.145 726.649C143.128 726.665 143.11 726.681 143.093 726.696C143.073 726.714 143.054 726.732 143.034 726.749C143.016 726.764 142.999 726.779 142.981 726.794C142.961 726.811 142.94 726.829 142.919 726.846C142.901 726.86 142.884 726.875 142.866 726.888C142.845 726.906 142.823 726.923 142.801 726.94C142.784 726.953 142.766 726.967 142.748 726.98C142.725 726.997 142.703 727.014 142.679 727.031C142.662 727.043 142.645 727.056 142.628 727.068C142.603 727.085 142.579 727.102 142.554 727.119C142.538 727.13 142.521 727.141 142.503 727.153C142.478 727.17 142.452 727.187 142.426 727.204C142.41 727.214 142.393 727.224 142.377 727.234C142.349 727.251 142.322 727.269 142.294 727.285C142.279 727.294 142.264 727.303 142.248 727.312C142.219 727.33 142.189 727.347 142.159 727.365C142.147 727.371 142.134 727.378 142.121 727.385C141.952 727.479 141.776 727.567 141.593 727.648C140.297 728.22 138.618 728.478 136.557 728.478C131.308 728.478 128.221 726.564 127.965 721.217C127.954 720.977 127.948 720.73 127.948 720.476C127.948 720.14 127.958 719.816 127.978 719.504C127.979 719.485 127.981 719.466 127.982 719.447C127.985 719.401 127.989 719.354 127.993 719.308C127.995 719.282 127.997 719.257 127.999 719.231C128.002 719.187 128.006 719.143 128.011 719.099C128.013 719.073 128.016 719.047 128.019 719.02C128.023 718.977 128.028 718.934 128.033 718.891C128.035 718.869 128.038 718.847 128.041 718.825C128.05 718.745 128.061 718.666 128.071 718.587C128.075 718.56 128.079 718.533 128.083 718.506C128.088 718.468 128.094 718.431 128.1 718.393C128.105 718.364 128.11 718.334 128.115 718.305C128.121 718.269 128.127 718.233 128.133 718.197C128.139 718.167 128.144 718.136 128.15 718.106C128.157 718.072 128.163 718.038 128.169 718.004C128.176 717.969 128.184 717.935 128.191 717.901C128.201 717.852 128.212 717.803 128.223 717.754C128.231 717.717 128.24 717.679 128.249 717.641C128.256 717.612 128.263 717.583 128.27 717.554C128.279 717.521 128.287 717.488 128.296 717.456C128.303 717.427 128.311 717.398 128.319 717.37C128.328 717.337 128.337 717.304 128.347 717.271C128.354 717.244 128.362 717.217 128.37 717.191C128.382 717.151 128.394 717.112 128.406 717.074C128.413 717.054 128.419 717.033 128.425 717.013C128.443 716.959 128.461 716.905 128.48 716.852C128.487 716.83 128.495 716.809 128.503 716.787C128.515 716.752 128.528 716.716 128.541 716.682C128.55 716.659 128.559 716.637 128.567 716.614C128.581 716.58 128.594 716.546 128.608 716.512C128.616 716.491 128.625 716.47 128.633 716.45C128.65 716.409 128.667 716.368 128.685 716.328C128.69 716.316 128.696 716.303 128.701 716.29C128.725 716.238 128.748 716.186 128.773 716.135C128.78 716.121 128.787 716.106 128.794 716.092C128.812 716.054 128.831 716.017 128.849 715.981C128.858 715.963 128.867 715.946 128.876 715.929C128.894 715.894 128.912 715.86 128.931 715.826C128.94 715.81 128.948 715.794 128.957 715.778C128.98 715.739 129.002 715.699 129.025 715.66C129.03 715.651 129.035 715.642 129.041 715.633C129.069 715.585 129.099 715.537 129.129 715.489C129.134 715.481 129.139 715.473 129.144 715.465C129.169 715.427 129.194 715.388 129.22 715.35C129.229 715.337 129.237 715.324 129.246 715.312C129.27 715.276 129.295 715.241 129.32 715.206C129.326 715.197 129.332 715.188 129.339 715.179C129.371 715.135 129.404 715.091 129.436 715.048C129.438 715.047 129.439 715.045 129.44 715.044C129.471 715.003 129.503 714.964 129.535 714.925C129.543 714.914 129.551 714.904 129.56 714.894C129.588 714.86 129.617 714.826 129.646 714.793C129.652 714.786 129.658 714.779 129.664 714.772C129.698 714.733 129.733 714.693 129.769 714.655C129.776 714.647 129.784 714.639 129.791 714.632C129.82 714.601 129.849 714.57 129.879 714.54C129.889 714.53 129.899 714.52 129.909 714.511C129.944 714.475 129.981 714.439 130.017 714.404C130.019 714.403 130.019 714.402 130.02 714.401C130.058 714.366 130.097 714.33 130.136 714.295C130.146 714.286 130.156 714.277 130.166 714.268C130.197 714.241 130.228 714.214 130.26 714.188C130.269 714.18 130.279 714.172 130.288 714.164C130.328 714.13 130.369 714.098 130.41 714.065C130.416 714.06 130.423 714.055 130.429 714.05C130.464 714.023 130.499 713.996 130.535 713.97C130.547 713.961 130.559 713.952 130.571 713.943C130.606 713.917 130.643 713.891 130.679 713.866C130.686 713.861 130.693 713.856 130.699 713.851C130.742 713.822 130.786 713.793 130.83 713.764C130.84 713.756 130.851 713.75 130.862 713.743C130.897 713.72 130.932 713.698 130.967 713.676C130.98 713.669 130.992 713.661 131.004 713.654C131.049 713.626 131.095 713.599 131.141 713.573C131.144 713.571 131.146 713.57 131.15 713.568C131.193 713.543 131.237 713.519 131.281 713.495C131.294 713.488 131.308 713.481 131.322 713.473C131.359 713.454 131.396 713.434 131.434 713.415C131.445 713.409 131.457 713.403 131.468 713.398C131.516 713.374 131.564 713.35 131.612 713.327C131.624 713.322 131.636 713.316 131.647 713.311C131.686 713.293 131.725 713.276 131.763 713.258C131.779 713.251 131.794 713.245 131.81 713.238C131.853 713.219 131.896 713.201 131.94 713.182C131.948 713.179 131.955 713.176 131.963 713.173C132.013 713.152 132.063 713.132 132.115 713.113C132.131 713.107 132.147 713.101 132.163 713.094C132.201 713.08 132.239 713.066 132.278 713.052C132.294 713.047 132.311 713.04 132.327 713.035C132.379 713.016 132.431 712.999 132.483 712.982C132.495 712.978 132.508 712.974 132.521 712.97C133.67 712.597 135.02 712.427 136.556 712.427C138.6 712.427 140.275 712.681 141.569 713.248C141.767 713.335 141.956 713.429 142.136 713.531C142.147 713.537 142.159 713.543 142.17 713.549C142.207 713.571 142.243 713.593 142.28 713.614C142.29 713.621 142.3 713.626 142.31 713.632C142.347 713.655 142.383 713.678 142.419 713.702C142.428 713.708 142.437 713.713 142.446 713.719C142.482 713.742 142.517 713.766 142.552 713.79C142.561 713.796 142.57 713.802 142.579 713.808C142.613 713.832 142.647 713.857 142.68 713.881C142.69 713.888 142.699 713.894 142.708 713.901C142.741 713.926 142.774 713.951 142.806 713.977C142.815 713.984 142.824 713.99 142.833 713.997C142.865 714.022 142.895 714.047 142.925 714.073C142.935 714.081 142.945 714.088 142.955 714.097C142.984 714.122 143.012 714.147 143.041 714.172C143.051 714.181 143.062 714.19 143.072 714.199C143.1 714.224 143.127 714.25 143.154 714.276C143.165 714.286 143.176 714.295 143.186 714.306C143.212 714.33 143.237 714.356 143.262 714.381C143.273 714.393 143.285 714.404 143.296 714.415C143.319 714.439 143.342 714.464 143.365 714.488C143.377 714.502 143.39 714.515 143.402 714.528C143.424 714.552 143.444 714.576 143.465 714.599C143.478 714.615 143.492 714.629 143.505 714.645C143.524 714.667 143.542 714.691 143.561 714.713C143.575 714.73 143.589 714.748 143.603 714.765C143.62 714.787 143.637 714.809 143.654 714.831C143.669 714.85 143.684 714.869 143.698 714.888C143.714 714.91 143.728 714.931 143.743 714.952C143.758 714.974 143.774 714.994 143.789 715.016C143.803 715.036 143.816 715.056 143.83 715.077C143.845 715.1 143.861 715.123 143.876 715.146C143.888 715.165 143.9 715.185 143.912 715.205C143.928 715.23 143.944 715.255 143.959 715.28C143.969 715.299 143.98 715.317 143.991 715.336C144.006 715.363 144.022 715.39 144.037 715.417C144.048 715.436 144.058 715.456 144.068 715.475C144.083 715.503 144.098 715.53 144.113 715.559C144.123 715.579 144.133 715.6 144.143 715.62C144.157 715.648 144.171 715.675 144.184 715.703C144.194 715.725 144.204 715.747 144.214 715.769C144.227 715.796 144.24 715.824 144.252 715.851C144.263 715.876 144.273 715.901 144.283 715.926C144.294 715.952 144.305 715.977 144.315 716.003C144.328 716.034 144.339 716.066 144.351 716.097C144.359 716.118 144.367 716.138 144.375 716.158C144.389 716.196 144.402 716.235 144.415 716.274C144.42 716.288 144.426 716.303 144.431 716.318C144.448 716.369 144.464 716.421 144.48 716.474C144.481 716.476 144.482 716.478 144.483 716.48C144.549 716.7 144.606 716.93 144.652 717.171C144.654 717.185 144.657 717.199 144.659 717.212C144.667 717.251 144.674 717.29 144.68 717.329C144.684 717.351 144.687 717.374 144.691 717.396C144.697 717.432 144.702 717.468 144.707 717.503C144.71 717.523 144.713 717.543 144.716 717.563C144.724 717.618 144.731 717.675 144.738 717.731H141.568C141.163 715.506 139.523 714.876 136.555 714.876C134.911 714.876 133.557 715.149 132.61 715.874C132.61 715.874 132.609 715.875 132.609 715.875C132.582 715.896 132.555 715.917 132.529 715.939C132.526 715.941 132.523 715.943 132.52 715.946C132.495 715.966 132.47 715.988 132.445 716.01C132.441 716.013 132.438 716.016 132.434 716.019C132.41 716.039 132.387 716.061 132.363 716.083C132.359 716.087 132.354 716.091 132.35 716.095C132.328 716.116 132.306 716.137 132.284 716.159C132.279 716.164 132.274 716.168 132.269 716.173C132.248 716.194 132.227 716.216 132.207 716.237C132.201 716.243 132.196 716.249 132.19 716.255C132.171 716.276 132.152 716.297 132.132 716.319C132.127 716.326 132.12 716.332 132.114 716.339C132.096 716.36 132.078 716.382 132.06 716.403C132.054 716.411 132.047 716.418 132.041 716.427C132.024 716.447 132.008 716.469 131.991 716.49C131.984 716.499 131.977 716.508 131.97 716.517C131.954 716.538 131.939 716.559 131.924 716.58C131.917 716.59 131.909 716.6 131.902 716.61C131.887 716.63 131.874 716.651 131.859 716.672C131.852 716.684 131.844 716.695 131.836 716.706C131.823 716.726 131.81 716.747 131.797 716.768C131.789 716.78 131.781 716.792 131.773 716.805C131.761 716.825 131.749 716.846 131.737 716.867C131.729 716.88 131.721 716.893 131.713 716.907C131.702 716.927 131.691 716.948 131.68 716.968C131.672 716.983 131.664 716.997 131.656 717.012C131.646 717.032 131.635 717.052 131.625 717.073C131.617 717.089 131.609 717.105 131.601 717.121C131.592 717.14 131.582 717.161 131.573 717.181C131.565 717.198 131.557 717.215 131.549 717.232C131.54 717.252 131.532 717.273 131.524 717.292C131.516 717.311 131.508 717.328 131.5 717.347C131.492 717.367 131.485 717.387 131.477 717.407C131.469 717.426 131.462 717.445 131.454 717.465C131.447 717.484 131.44 717.504 131.433 717.524C131.426 717.545 131.418 717.565 131.411 717.586C131.405 717.606 131.398 717.626 131.392 717.645C131.385 717.667 131.378 717.688 131.371 717.71C131.365 717.73 131.359 717.75 131.353 717.77C131.347 717.793 131.34 717.815 131.333 717.838C131.328 717.857 131.323 717.878 131.317 717.897C131.311 717.921 131.305 717.944 131.299 717.969C131.294 717.989 131.289 718.009 131.284 718.03C131.278 718.054 131.272 718.078 131.267 718.103C131.262 718.123 131.258 718.145 131.254 718.165C131.248 718.191 131.243 718.215 131.238 718.241C131.234 718.262 131.23 718.283 131.226 718.304C131.222 718.33 131.217 718.356 131.212 718.382C131.209 718.404 131.205 718.425 131.202 718.447C131.198 718.474 131.193 718.5 131.189 718.527C131.186 718.549 131.183 718.572 131.18 718.594C131.176 718.621 131.172 718.648 131.169 718.676C131.166 718.699 131.164 718.723 131.161 718.746C131.158 718.773 131.155 718.8 131.152 718.827C131.149 718.852 131.148 718.877 131.145 718.903C131.142 718.929 131.14 718.956 131.138 718.983C131.136 719.009 131.134 719.036 131.132 719.063C131.13 719.09 131.129 719.116 131.127 719.142C131.125 719.171 131.124 719.201 131.122 719.231C131.121 719.255 131.12 719.28 131.119 719.305C131.117 719.34 131.117 719.376 131.116 719.412C131.115 719.432 131.114 719.451 131.114 719.471C131.113 719.527 131.113 719.584 131.113 719.641V721.215C131.113 724.812 133.203 726.026 136.552 726.026C139.408 726.026 141.071 725.486 141.588 723.35H144.758C144.738 723.477 144.716 723.601 144.691 723.722L144.697 723.726ZM162.772 728.21H159.625V721.533H150.431V728.21H148.555H147.284V712.698H150.431V718.97H159.625V712.698H162.773V728.209L162.772 728.21Z" fill="white"/>
<path fill-rule="evenodd" clip-rule="evenodd" d="M107.089 720.513L107.065 720.457L104.557 714.743L101.432 721.914H107.704L107.089 720.513Z" fill="white"/>
<path d="M186.914 711.3L189.664 708.3L201.014 718.5L212.364 708.35L215.114 711.3L204.064 721.2L215.114 731.05L212.364 734.05L201.014 723.9L189.664 734.05L186.964 731.05L197.964 721.2L186.914 711.3Z" fill="white"/>
<g clip-path="url(#clip2_1232_4773)">
<path d="M262.123 733H267.995C268.475 733 268.976 732.452 268.976 731.936V709.064C268.971 708.548 268.47 708 267.995 708H262.123C261.643 708 261.141 708.548 261.141 709.064V731.936C261.141 732.452 261.643 733 262.123 733Z" fill="white"/>
<path d="M240.785 733C241.297 733 241.829 732.452 241.829 731.936V723.915H245.483L250.18 732.468C250.306 732.676 250.702 733 251.224 733H258.01C258.553 733 258.814 732.399 258.532 731.936L251.746 720.197L258.532 709.064C258.85 708.601 258.568 708 258.01 708H250.702C250.18 708 249.784 708.34 249.659 708.532L244.961 717.005H241.829V709.064C241.819 708.553 241.297 708 240.785 708H235.044C234.522 708 234 708.527 234 709.037V731.936C234 732.452 234.532 733 235.044 733H240.785Z" fill="white"/>
<path d="M339.956 733C340.468 733 341 732.399 341 731.883V709.037C341 708.521 340.468 708 339.956 708H334.215C333.703 708 333.171 708.548 333.171 709.064V720.766L323.254 708H316.468C315.957 708 315.424 708.548 315.424 709.064V731.936C315.424 732.452 315.957 733 316.468 733H322.21C322.721 733 323.254 732.452 323.254 731.936V720.197L333.171 733H339.956Z" fill="white"/>
<path d="M273.152 733H311.254C311.818 733 312.298 732.505 312.298 731.936V709.064C312.298 708.495 311.818 708 311.254 708H273.152C272.588 708 272.108 708.495 272.108 709.064V731.936C272.108 732.505 272.588 733 273.152 733ZM280.459 714.383C282.818 714.851 287.74 714.92 292.344 714.91C297.114 714.899 301.89 714.798 303.947 714.383C304.15 714.34 304.469 714.378 304.469 714.91V725.532C304.469 726.085 304.14 726.085 303.947 726.064C301.911 725.809 297.099 725.883 292.344 725.867C287.537 725.856 282.463 725.787 280.459 726.085C280.261 726.112 279.937 726.106 279.937 725.553V714.915C279.937 714.383 280.261 714.346 280.459 714.383Z" fill="white"/>
</g>
</g>
</g>
<defs>
<radialGradient id="paint0_radial_1232_4773" cx="0" cy="0" r="1" gradientUnits="userSpaceOnUse" gradientTransform="translate(831 888) rotate(118.185) scale(847.513 524.456)">
<stop stop-color="#E7012A"/>
<stop offset="1" stop-color="#5815A3"/>
</radialGradient>
<clipPath id="clip0_1232_4773">
<path d="M0 0H414V841C414 852.046 405.046 861 394 861H20C8.95432 861 0 852.046 0 841V0Z" fill="white"/>
</clipPath>
<clipPath id="clip1_1232_4773">
<path d="M0 0H414V841C414 852.046 405.046 861 394 861H20C8.95432 861 0 852.046 0 841V0Z" fill="white"/>
</clipPath>
<clipPath id="clip2_1232_4773">
<rect width="107" height="25" fill="white" transform="translate(234 708)"/>
</clipPath>
</defs>
</svg>
