<svg width="414" height="861" viewBox="0 0 414 861" fill="none" xmlns="http://www.w3.org/2000/svg">
<g clip-path="url(#clip0_1232_4773)">
<path d="M0 0H414V841C414 852.046 405.046 861 394 861H20C8.95432 861 0 852.046 0 841V0Z" fill="#EF6A82"/>
<g clip-path="url(#clip1_1232_4773)">
<path d="M0 0H414V841C414 852.046 405.046 861 394 861H20C8.95432 861 0 852.046 0 841V0Z" fill="#EF6A82"/>
<rect x="415" y="888" width="416" height="888" transform="rotate(-180 415 888)" fill="url(#paint0_radial_1232_4773)"/>
<g style="mix-blend-mode:multiply">
<path d="M292.132 691.618C292.132 689.7 298.157 688.145 305.589 688.145C313.021 688.145 319.046 689.7 319.046 691.618C319.046 693.535 313.021 695.09 305.589 695.09C298.157 695.09 292.132 693.535 292.132 691.618Z" fill="#6365C3"/>
<path d="M324.979 698.42C324.979 696.502 332.202 694.947 341.112 694.947C350.023 694.947 357.245 696.502 357.245 698.42C357.245 700.338 350.023 701.893 341.112 701.893C332.202 701.893 324.979 700.338 324.979 698.42Z" fill="#6365C3"/>
<path d="M279.833 694.439C279.833 692.481 285.275 690.894 291.988 690.894C298.7 690.894 304.142 692.481 304.142 694.439C304.142 696.397 298.7 697.984 291.988 697.984C285.275 697.984 279.833 696.397 279.833 694.439Z" fill="#6365C3"/>
</g>
<path d="M452.667 252C408.845 276.582 299.616 364.261 277.821 373.506C258.024 381.903 244.507 377.096 225.054 386.261C208.955 393.845 201.589 406.366 187.204 421.093C174.215 434.389 156.49 437.566 153.407 448.316C151.302 455.658 161.377 462.409 174.678 458.681C186.878 455.262 196.139 447.228 206.758 440.317C210.209 448.809 209.626 460.499 217.11 465.793C229.603 474.63 247.31 485.336 261.141 478.786C282.787 468.536 303.189 435.297 303.189 435.297C303.189 435.297 415.797 419.287 491.046 386.261C487.526 375.983 478.383 353.409 471.59 344.931C461.219 331.987 484.575 318.821 471.59 308.502" fill="#FFF2E0"/>
<path d="M452.667 252C408.845 276.582 299.616 364.261 277.821 373.506C258.024 381.903 244.507 377.096 225.054 386.261C208.955 393.845 201.589 406.366 187.204 421.093C174.215 434.389 156.49 437.566 153.407 448.317C151.302 455.658 161.377 462.409 174.678 458.681C186.878 455.262 196.139 447.228 206.758 440.317C210.209 448.809 209.626 460.499 217.11 465.793C229.603 474.63 247.31 485.336 261.141 478.786C282.787 468.536 303.189 435.297 303.189 435.297C303.189 435.297 415.797 419.287 491.046 386.261C487.526 375.983 478.383 353.409 471.59 344.931C461.219 331.987 484.575 318.821 471.59 308.502" stroke="#294064" stroke-miterlimit="10" stroke-linecap="round"/>
<path d="M240.518 446.203C236.75 446.359 235.804 446.496 225.524 448.188C217.629 449.486 212.346 450.092 206.162 450.173C198.108 450.279 189.95 449.334 181.135 447.089C169.662 444.167 158.724 453.721 150.921 470.991C143.805 486.739 140.483 506.572 142.702 521.243C143.865 528.93 145.811 535.421 149.359 544.8C149.347 544.769 151.634 550.757 152.244 552.41C153.278 555.208 154.054 557.497 154.693 559.689C157.741 570.145 157.558 578.724 153.184 588.805C152.868 589.533 153.209 590.381 153.938 590.697C154.667 591.013 155.515 590.685 155.831 589.956C160.49 579.217 160.685 569.946 157.459 558.881C156.798 556.616 155.999 554.273 154.944 551.417C154.327 549.747 152.029 543.737 152.046 543.781C148.563 534.576 146.674 528.252 145.547 520.805C143.415 506.715 146.643 487.435 153.541 472.168C160.838 456.019 170.707 447.407 180.42 449.882C189.483 452.19 197.899 453.154 206.201 453.045C212.56 452.961 217.962 452.354 225.987 451.033C236.104 449.369 237.043 449.224 240.638 449.074C245.417 448.876 249.366 449.495 253.157 451.179C258.284 453.455 263.238 457.767 268.509 464.797C277.147 476.316 282.393 490.419 285.304 508.286C287.548 522.054 288.227 534.022 288.891 561.581C289.075 569.237 289.146 572.233 289.275 576.324C289.884 595.677 289.643 605.955 287.779 616.359C285.426 629.493 280.477 639.772 271.937 648.042C263.171 656.532 253.155 661.555 239.989 664.413C229.915 666.601 219.237 667.478 198.87 668.199C199.95 667.81 200.985 667.518 202.085 667.1C212.329 663.212 219.438 658.95 223.274 654.554C227.014 650.268 227.595 645.814 224.955 642.087C220.03 635.135 204.987 632.206 187.713 635.112C181.257 636.198 174.01 638.845 168.245 642.417C161.308 646.716 156.828 652.075 155.857 658.18C154.97 663.758 158.53 667.467 165.823 669.429C169.195 670.337 173.513 670.887 178.713 671.163C171.589 672.754 164.241 673.894 155.937 674.776C152.65 675.125 149.64 675.395 144.304 675.861C130.605 677.059 125.429 677.587 117.49 678.733C106.748 680.284 96.2781 682.448 85.0396 685.562C84.2739 685.774 83.8215 686.57 84.0333 687.336C84.2455 688.101 85.0412 688.541 85.8069 688.328C96.9248 685.247 107.289 683.113 117.914 681.579C125.782 680.443 130.911 679.926 144.555 678.733C149.908 678.265 152.932 677.986 156.241 677.635C168.611 676.321 178.939 674.433 189.5 671.322C191.1 671.302 192.602 671.311 194.33 671.256C218.317 670.492 229.503 669.644 240.611 667.232C254.278 664.265 264.776 659.004 273.949 650.12C282.955 641.398 288.158 630.555 290.611 616.862C292.521 606.199 292.762 595.779 292.147 576.232C292.018 572.15 291.947 569.163 291.762 561.515C291.096 533.82 290.408 521.767 288.136 507.823C285.156 489.532 279.746 475.009 270.799 463.077C265.254 455.681 259.956 451.055 254.336 448.558C250.106 446.68 245.713 445.987 240.518 446.203ZM199.862 636.886C210.869 636.768 219.521 639.391 222.612 643.754C226.624 649.417 219.703 657.339 201.066 664.413C196.957 665.973 193.003 667.285 189.089 668.45C167.392 668.68 157.594 665.603 158.703 658.63C159.52 653.487 163.461 648.766 169.754 644.866C175.192 641.496 182.092 638.97 188.189 637.944C192.265 637.259 196.193 636.925 199.862 636.886Z" fill="#53FFFA" stroke="#294064" stroke-miterlimit="10" stroke-linecap="round"/>
<g style="mix-blend-mode:multiply">
<path d="M232.775 445.841C236.732 450.491 240.028 455.798 244.647 459.792C248.329 462.975 253.092 464.636 257.314 467.059C257.228 462.659 255.936 458.114 257.057 453.859C259.722 443.747 266.136 434.835 268.492 424.647C270.761 414.831 267.077 403.284 267.077 403.284C267.077 403.284 258.237 420.425 252.939 424.242C244.434 430.368 231.968 432.708 219.929 430.422C219.916 438.053 220.847 441.723 220.834 449.355" fill="#FF6832" fill-opacity="0.5"/>
</g>
<g style="mix-blend-mode:multiply">
<path d="M296.259 399.692C295.631 396.001 293.97 392.576 293.764 388.81C293.627 386.319 293.8 383.101 294.766 380.701C295.486 378.91 295.389 380.719 295.391 379.538C293.598 379.456 291.235 381.255 289.608 380.427C284.575 377.867 282.513 374.89 276.697 375.715C285.75 380.79 290.451 389.385 295.822 398.252C296.082 398.681 296.113 399.212 296.259 399.692Z" fill="#FF6832" fill-opacity="0.5"/>
</g>
<path d="M197.444 486.119C197.444 486.119 182.127 491.97 174.804 478.948C167.339 465.675 171.689 437.659 178.529 430.523C184.896 423.879 195.121 430.006 194.405 441.639C193.759 452.13 189.419 463.917 188.521 474.39" fill="#FFF2E0"/>
<path d="M197.444 486.119C197.444 486.119 182.127 491.97 174.804 478.948C167.339 465.675 171.689 437.659 178.529 430.523C184.896 423.879 195.121 430.006 194.405 441.639C193.759 452.13 189.419 463.917 188.521 474.39" stroke="#294064" stroke-miterlimit="10" stroke-linecap="round"/>
<path d="M216.36 485.506C211.921 488.714 202.56 489.87 196.334 487.382C191.309 485.374 187.557 479.299 187.302 473.893C186.828 463.844 189.585 453.417 194.312 444.536C197.702 438.168 206.516 426.654 213.217 427.849C223.04 429.602 217.736 442.19 217.533 446.234C216.766 461.441 214.443 463.424 210.778 478.203" fill="#FFF2E0"/>
<path d="M216.36 485.506C211.921 488.714 202.56 489.87 196.334 487.382C191.309 485.374 187.557 479.299 187.302 473.893C186.828 463.844 189.585 453.417 194.312 444.536C197.702 438.168 206.516 426.654 213.217 427.849C223.04 429.602 217.736 442.19 217.533 446.234C216.766 461.441 214.443 463.424 210.778 478.203" stroke="#294064" stroke-miterlimit="10" stroke-linecap="round"/>
<path d="M240.783 480.994C237.877 487.903 223.025 490.125 216.999 486.294C210.349 482.067 209.623 474.205 209.093 466.876C208.567 459.596 213.346 442.791 223.049 435.003C227.96 431.061 234.308 428.381 239.623 433.489C243.318 437.041 237.414 444.314 235.779 449.8C233.072 458.881 234.842 465.444 237.411 474.244" fill="#FFF2E0"/>
<path d="M240.783 480.994C237.877 487.903 223.025 490.125 216.999 486.294C210.349 482.067 209.623 474.205 209.093 466.876C208.567 459.596 213.346 442.791 223.049 435.003C227.96 431.061 234.308 428.381 239.623 433.489C243.318 437.041 237.414 444.314 235.779 449.8C233.072 458.881 234.842 465.444 237.411 474.244" stroke="#294064" stroke-miterlimit="10" stroke-linecap="round"/>
<path d="M272.109 471.732C261.718 481.273 247.993 488.929 238.692 481.476C226.81 471.955 229.254 459.602 232.101 449.438C233.891 443.05 241.336 427.087 249.256 431.685C260.508 438.216 251.353 445.28 252.598 455.489C253.079 459.437 254.24 463.66 256.93 467.991" fill="#FFF2E0"/>
<path d="M272.109 471.732C261.718 481.273 247.993 488.929 238.692 481.476C226.81 471.955 229.254 459.602 232.101 449.438C233.891 443.05 241.336 427.087 249.256 431.685C260.508 438.216 251.353 445.28 252.598 455.489C253.079 459.437 254.24 463.66 256.93 467.991" stroke="#294064" stroke-miterlimit="10" stroke-linecap="round"/>
<path d="M234.613 430.616C247.867 431.538 258.137 419.872 262.696 408.821C263.903 405.893 266.236 399.093 264.989 396.095" stroke="#294064" stroke-miterlimit="10" stroke-linecap="round"/>
<path d="M297.842 425.605C297.842 425.605 298.244 420.991 298.264 417.835C298.299 412.485 296.735 407.219 293.671 402.454" stroke="#294064" stroke-miterlimit="10" stroke-linecap="round"/>
<path d="M268.543 379.068C271.043 378.752 276.546 382.037 278.062 383.252" stroke="#294064" stroke-miterlimit="10" stroke-linecap="round"/>
<path d="M256.347 452.847C256.987 451.573 256.208 449.577 256.208 449.577C256.208 449.577 255.424 448.745 253.66 448.386C252.978 449.795 253.519 451.01 253.519 451.01C253.519 451.01 255.333 452.278 256.347 452.847Z" fill="#294064" stroke="#294064" stroke-miterlimit="10" stroke-linecap="round"/>
<path d="M171.87 447.548C169.176 448.973 169.035 448.747 168.327 451.823C170.72 450.617 169.724 451.028 171.251 450.443" fill="#294064"/>
<path d="M171.87 447.548C169.176 448.973 169.035 448.747 168.327 451.823C170.72 450.617 169.724 451.028 171.251 450.443" stroke="#294064" stroke-miterlimit="10" stroke-linecap="round"/>
<path d="M199.478 437.543C208.172 443.323 213.171 437.49 213.717 430.97" stroke="#294064" stroke-miterlimit="10" stroke-linecap="round"/>
<path d="M218.824 439.896C227.999 447.518 233.786 434.278 233.786 434.278" stroke="#294064" stroke-miterlimit="10" stroke-linecap="round"/>
<path d="M235.48 442.203C242.485 446.552 248.451 442.345 248.968 434.561" stroke="#294064" stroke-miterlimit="10" stroke-linecap="round"/>
<path d="M185.55 429.234C182.646 428.812 180.371 430.471 179.274 432.679C178.118 435.005 176.775 439.159 177.754 440.89C180.703 446.106 190.087 445.552 190.201 440.439C190.269 437.378 190.538 433.225 190.538 433.225" stroke="#294064" stroke-miterlimit="10" stroke-linecap="round"/>
<path d="M142.365 539.292C142.365 535.842 145.162 533.044 148.613 533.044C152.063 533.044 154.86 535.842 154.86 539.292C154.86 542.742 152.063 545.539 148.613 545.539C145.162 545.539 142.365 542.742 142.365 539.292Z" fill="#9E67DB" stroke="#294064" stroke-miterlimit="10"/>
<path d="M137.826 523.027C137.826 518.935 141.143 515.618 145.235 515.618C149.326 515.618 152.643 518.935 152.643 523.027C152.643 527.118 149.326 530.435 145.235 530.435C141.143 530.435 137.826 527.118 137.826 523.027Z" fill="#C695FD" stroke="#294064" stroke-miterlimit="10"/>
<path d="M141.974 480.712C141.974 477.157 144.856 474.276 148.41 474.276C151.965 474.276 154.847 477.157 154.847 480.712C154.847 484.267 151.965 487.149 148.41 487.149C144.856 487.149 141.974 484.267 141.974 480.712Z" fill="#9E67DB" stroke="#294064" stroke-miterlimit="10"/>
<path d="M273.251 482.091C273.251 478.719 275.984 475.985 279.357 475.985C282.729 475.985 285.463 478.719 285.463 482.091C285.463 485.463 282.729 488.198 279.357 488.198C275.984 488.198 273.251 485.463 273.251 482.091Z" fill="#9E67DB" stroke="#294064" stroke-miterlimit="10"/>
<path d="M278.592 501.152C278.592 497.061 281.908 493.744 286 493.744C290.092 493.744 293.409 497.061 293.409 501.152C293.409 505.244 290.092 508.561 286 508.561C281.908 508.561 278.592 505.244 278.592 501.152Z" fill="#C695FD" stroke="#294064" stroke-miterlimit="10"/>
<path d="M281.037 519.784C281.037 515.692 284.354 512.375 288.445 512.375C292.537 512.375 295.854 515.692 295.854 519.784C295.854 523.876 292.537 527.193 288.445 527.193C284.354 527.193 281.037 523.876 281.037 519.784Z" fill="#9E67DB" stroke="#294064" stroke-miterlimit="10"/>
<path d="M282.223 537.82C282.223 534.155 285.193 531.185 288.858 531.185C292.523 531.185 295.493 534.155 295.493 537.82C295.493 541.485 292.523 544.456 288.858 544.456C285.193 544.456 282.223 541.485 282.223 537.82Z" fill="#9E67DB" stroke="#294064" stroke-miterlimit="10"/>
<path d="M283.476 555.709C283.476 552.262 286.271 549.467 289.718 549.467C293.165 549.467 295.959 552.262 295.959 555.709C295.959 559.156 293.165 561.951 289.718 561.951C286.271 561.951 283.476 559.156 283.476 555.709Z" fill="#C695FD" stroke="#294064" stroke-miterlimit="10"/>
<path d="M283.856 575.711C283.856 571.619 287.172 568.302 291.264 568.302C295.356 568.302 298.673 571.619 298.673 575.711C298.673 579.803 295.356 583.119 291.264 583.119C287.172 583.119 283.856 579.803 283.856 575.711Z" fill="#C695FD" stroke="#294064" stroke-miterlimit="10"/>
<path d="M284.25 595.04C284.25 591.226 287.342 588.134 291.156 588.134C294.97 588.134 298.062 591.226 298.062 595.04C298.062 598.854 294.97 601.946 291.156 601.946C287.342 601.946 284.25 598.854 284.25 595.04Z" fill="#9E67DB" stroke="#294064" stroke-miterlimit="10"/>
<path d="M282.737 615.924C282.737 611.833 286.054 608.516 290.145 608.516C294.237 608.516 297.554 611.833 297.554 615.924C297.554 620.016 294.237 623.333 290.145 623.333C286.054 623.333 282.737 620.016 282.737 615.924Z" fill="#9E67DB" stroke="#294064" stroke-miterlimit="10"/>
<path d="M277.472 632.487C277.472 629.04 280.265 626.247 283.712 626.247C287.158 626.247 289.952 629.04 289.952 632.487C289.952 635.933 287.158 638.727 283.712 638.727C280.265 638.727 277.472 635.933 277.472 632.487Z" fill="#C695FD" stroke="#294064" stroke-miterlimit="10"/>
<path d="M266.711 649.081C266.711 644.989 270.028 641.672 274.119 641.672C278.211 641.672 281.528 644.989 281.528 649.081C281.528 653.173 278.211 656.49 274.119 656.49C270.028 656.49 266.711 653.173 266.711 649.081Z" fill="#C695FD" stroke="#294064" stroke-miterlimit="10"/>
<path d="M252.613 659.31C252.613 656.103 255.213 653.503 258.42 653.503C261.626 653.503 264.226 656.103 264.226 659.31C264.226 662.516 261.626 665.116 258.42 665.116C255.213 665.116 252.613 662.516 252.613 659.31Z" fill="#9E67DB" stroke="#294064" stroke-miterlimit="10"/>
<path d="M234.649 667.13C234.649 663.039 237.966 659.722 242.058 659.722C246.149 659.722 249.466 663.039 249.466 667.13C249.466 671.222 246.149 674.539 242.058 674.539C237.966 674.539 234.649 671.222 234.649 667.13Z" fill="#9E67DB" stroke="#294064" stroke-miterlimit="10"/>
<path d="M290.878 684.325C290.878 680.233 294.195 676.917 298.287 676.917C302.378 676.917 305.696 680.233 305.696 684.325C305.696 688.417 302.378 691.734 298.287 691.734C294.195 691.734 290.878 688.417 290.878 684.325Z" fill="#9E67DB" stroke="#294064" stroke-miterlimit="10"/>
<path d="M280.915 688.297C280.915 684.801 283.749 681.967 287.245 681.967C290.741 681.967 293.576 684.801 293.576 688.297C293.576 691.793 290.741 694.628 287.245 694.628C283.749 694.628 280.915 691.793 280.915 688.297Z" fill="#9E67DB" stroke="#294064" stroke-miterlimit="10"/>
<path d="M327.591 691.486C327.591 687.585 330.753 684.423 334.654 684.423C338.555 684.423 341.718 687.585 341.718 691.486C341.718 695.388 338.555 698.55 334.654 698.55C330.753 698.55 327.591 695.388 327.591 691.486Z" fill="#C695FD" stroke="#294064" stroke-miterlimit="10"/>
<path d="M183.591 637.768C183.591 633.676 186.908 630.359 190.999 630.359C195.091 630.359 198.408 633.676 198.408 637.768C198.408 641.86 195.091 645.177 190.999 645.177C186.908 645.177 183.591 641.86 183.591 637.768Z" fill="#C695FD" stroke="#294064" stroke-miterlimit="10"/>
<path d="M143.836 609.556C143.836 606.115 146.625 603.326 150.066 603.326C153.507 603.326 156.297 606.115 156.297 609.556C156.297 612.997 153.507 615.786 150.066 615.786C146.625 615.786 143.836 612.997 143.836 609.556Z" fill="#9E67DB" stroke="#294064" stroke-miterlimit="10"/>
<path d="M60.3527 691.973C60.3527 688.858 62.8785 686.332 65.9938 686.332C69.1095 686.332 71.6349 688.858 71.6349 691.973C71.6349 695.089 69.1095 697.615 65.9938 697.615C62.8785 697.615 60.3527 695.089 60.3527 691.973Z" fill="#C695FD" stroke="#294064" stroke-miterlimit="10"/>
<path d="M98.0395 682.61C98.0395 678.519 101.356 675.202 105.448 675.202C109.54 675.202 112.857 678.519 112.857 682.61C112.857 686.702 109.54 690.019 105.448 690.019C101.356 690.019 98.0395 686.702 98.0395 682.61Z" fill="#C695FD" stroke="#294064" stroke-miterlimit="10"/>
<path d="M116.804 679.112C116.804 675.02 120.121 671.703 124.212 671.703C128.304 671.703 131.621 675.02 131.621 679.112C131.621 683.203 128.304 686.521 124.212 686.521C120.121 686.521 116.804 683.203 116.804 679.112Z" fill="#9E67DB" stroke="#294064" stroke-miterlimit="10"/>
<path d="M128.814 677.888C128.814 674.633 131.453 671.994 134.708 671.994C137.963 671.994 140.602 674.633 140.602 677.888C140.602 681.143 137.963 683.782 134.708 683.782C131.453 683.782 128.814 681.143 128.814 677.888Z" fill="#C695FD" stroke="#294064" stroke-miterlimit="10"/>
<path d="M149.003 675.85C149.003 671.758 152.32 668.441 156.412 668.441C160.504 668.441 163.821 671.758 163.821 675.85C163.821 679.942 160.504 683.259 156.412 683.259C152.32 683.259 149.003 679.942 149.003 675.85Z" fill="#9E67DB" stroke="#294064" stroke-miterlimit="10"/>
<path d="M157.938 647.786C157.938 644.529 160.577 641.889 163.834 641.889C167.091 641.889 169.73 644.529 169.73 647.786C169.73 651.042 167.091 653.682 163.834 653.682C160.577 653.682 157.938 651.042 157.938 647.786Z" fill="#9E67DB" stroke="#294064" stroke-miterlimit="10"/>
<path d="M203.694 636.434C203.694 633.155 206.352 630.497 209.631 630.497C212.91 630.497 215.568 633.155 215.568 636.434C215.568 639.712 212.91 642.371 209.631 642.371C206.352 642.371 203.694 639.712 203.694 636.434Z" fill="#9E67DB" stroke="#294064" stroke-miterlimit="10"/>
<path d="M213.465 639.073C213.465 634.981 216.782 631.665 220.874 631.665C224.966 631.665 228.283 634.981 228.283 639.073C228.283 643.165 224.966 646.482 220.874 646.482C216.782 646.482 213.465 643.165 213.465 639.073Z" fill="#9E67DB" stroke="#294064" stroke-miterlimit="10"/>
<path d="M218.881 646.543C218.881 642.958 221.787 640.053 225.371 640.053C228.956 640.053 231.862 642.958 231.862 646.543C231.862 650.127 228.956 653.033 225.371 653.033C221.787 653.033 218.881 650.127 218.881 646.543Z" fill="#C695FD" stroke="#294064" stroke-miterlimit="10"/>
<path d="M206.572 657.168C206.572 653.076 209.889 649.759 213.98 649.759C218.072 649.759 221.389 653.076 221.389 657.168C221.389 661.26 218.072 664.576 213.98 664.576C209.889 664.576 206.572 661.26 206.572 657.168Z" fill="#9E67DB" stroke="#294064" stroke-miterlimit="10"/>
<path d="M160.504 664.588C160.504 660.496 163.821 657.179 167.913 657.179C172.004 657.179 175.321 660.496 175.321 664.588C175.321 668.679 172.004 671.997 167.913 671.997C163.821 671.997 160.504 668.679 160.504 664.588Z" fill="#C695FD" stroke="#294064" stroke-miterlimit="10"/>
<path d="M176.882 668.237C176.882 664.146 180.199 660.829 184.291 660.829C188.383 660.829 191.7 664.146 191.7 668.237C191.7 672.329 188.383 675.646 184.291 675.646C180.199 675.646 176.882 672.329 176.882 668.237Z" fill="#9E67DB" stroke="#294064" stroke-miterlimit="10"/>
<path d="M193.675 669.913C193.675 665.821 196.993 662.504 201.084 662.504C205.176 662.504 208.493 665.821 208.493 669.913C208.493 674.005 205.176 677.322 201.084 677.322C196.993 677.322 193.675 674.005 193.675 669.913Z" fill="#C695FD" stroke="#294064" stroke-miterlimit="10"/>
<path d="M203.47 669.881C203.47 665.789 206.787 662.472 210.878 662.472C214.97 662.472 218.287 665.789 218.287 669.881C218.287 673.972 214.97 677.289 210.878 677.289C206.787 677.289 203.47 673.972 203.47 669.881Z" fill="#C695FD" stroke="#294064" stroke-miterlimit="10"/>
<path d="M212.219 668.787C212.219 665.268 215.072 662.415 218.592 662.415C222.111 662.415 224.964 665.268 224.964 668.787C224.964 672.306 222.111 675.159 218.592 675.159C215.072 675.159 212.219 672.306 212.219 668.787Z" fill="#9E67DB" stroke="#294064" stroke-miterlimit="10"/>
<path d="M150.933 477.041C152.845 478.436 153.246 479.263 153.506 481.454" stroke="#294064" stroke-miterlimit="10" stroke-linecap="round"/>
<path d="M152.865 483.073C152.683 483.634 152.466 484.057 152.114 484.525" stroke="#294064" stroke-miterlimit="10" stroke-linecap="round"/>
<path d="M139.833 521.166C139.503 521.422 139.48 522.163 139.478 522.52C139.462 524.877 140.488 527.043 142.75 527.923" stroke="#294064" stroke-miterlimit="10" stroke-linecap="round"/>
<path d="M152.296 605.661C154.193 607.808 154.796 608.882 153.823 611.743" stroke="#294064" stroke-miterlimit="10" stroke-linecap="round"/>
<path d="M152.984 613.19C152.615 613.711 152.122 614.064 151.577 614.381" stroke="#294064" stroke-miterlimit="10" stroke-linecap="round"/>
<path d="M186.989 633.73C184.849 635.303 185.702 638.499 186.885 640.312" stroke="#294064" stroke-miterlimit="10" stroke-linecap="round"/>
<path d="M188.068 641.995C188.689 642.674 189.454 642.99 190.298 643.314" stroke="#294064" stroke-miterlimit="10" stroke-linecap="round"/>
<path d="M163.867 643.207C165.654 643.315 167.491 644.458 167.98 646.283" stroke="#294064" stroke-miterlimit="10" stroke-linecap="round"/>
<path d="M168.216 647.67C168.346 648.155 168.171 648.406 168.047 648.874" stroke="#294064" stroke-miterlimit="10" stroke-linecap="round"/>
<path d="M151.419 677.958C150.566 675.49 150.658 673.496 152.724 671.71" stroke="#294064" stroke-miterlimit="10" stroke-linecap="round"/>
<path d="M152.168 679.452C152.422 680.189 153.005 680.795 153.766 681.04" stroke="#294064" stroke-miterlimit="10" stroke-linecap="round"/>
<path d="M109.092 678.085C110.978 679.779 111.397 682.201 110.275 684.627" stroke="#294064" stroke-miterlimit="10" stroke-linecap="round"/>
<path d="M109.559 685.885C109.451 686.277 109.166 686.49 108.878 686.74" stroke="#294064" stroke-miterlimit="10" stroke-linecap="round"/>
<path d="M62.3468 689.458C61.4787 690.761 61.4384 692.662 62.6166 693.84" stroke="#294064" stroke-miterlimit="10" stroke-linecap="round"/>
<path d="M243.826 661.871C245.642 662.45 246.656 664.628 246.922 666.333" stroke="#294064" stroke-miterlimit="10" stroke-linecap="round"/>
<path d="M247.082 668.299C247.166 668.839 247.022 669.649 246.697 670.094" stroke="#294064" stroke-miterlimit="10" stroke-linecap="round"/>
<path d="M222.322 642.684C220.493 644.352 220.822 647.194 222.234 649.003" stroke="#294064" stroke-miterlimit="10" stroke-linecap="round"/>
<path d="M223.334 650.297C223.891 650.908 224.663 651.064 225.448 651.112" stroke="#294064" stroke-miterlimit="10" stroke-linecap="round"/>
<path d="M186.046 662.799C186.027 662.741 186.758 663.156 186.916 663.286C187.398 663.683 187.802 664.175 188.191 664.664C189.12 665.833 190.069 668.616 189.012 669.977" stroke="#294064" stroke-miterlimit="10" stroke-linecap="round"/>
<path d="M269.941 645.175C267.965 647.116 268.998 650.308 270.198 652.31" stroke="#294064" stroke-miterlimit="10" stroke-linecap="round"/>
<path d="M301.117 679.544C303.371 680.295 304.217 683.435 303.582 685.552" stroke="#294064" stroke-miterlimit="10" stroke-linecap="round"/>
<path d="M303.004 686.936C303.004 687.468 302.551 687.966 302.195 688.322" stroke="#294064" stroke-miterlimit="10" stroke-linecap="round"/>
<path d="M293.414 570.372C295.742 571.535 296.529 574.624 295.76 576.931" stroke="#294064" stroke-miterlimit="10" stroke-linecap="round"/>
<path d="M295.109 578.365C294.983 578.872 294.853 579.254 294.371 579.495" stroke="#294064" stroke-miterlimit="10" stroke-linecap="round"/>
<path d="M285.147 515.076C282.636 516.789 282.911 520.74 284.886 522.673" stroke="#294064" stroke-miterlimit="10" stroke-linecap="round"/>
<path d="M286.147 523.906C286.64 524.629 287.591 524.859 288.406 524.938" stroke="#294064" stroke-miterlimit="10" stroke-linecap="round"/>
<path d="M284.239 536.458C284.086 539.873 285.639 542.309 289.054 543.165" stroke="#294064" stroke-miterlimit="10" stroke-linecap="round"/>
<path d="M507.85 427.717C348.388 363.494 296.66 501.349 256.783 538.977C195.413 596.887 100.314 588.115 77.5702 503.754C66.6608 463.291 88.332 446.621 101.167 452.777C111.616 457.789 120.639 475.374 113.09 503.52C102.828 541.781 36.7829 607.078 -36.8165 563.306" stroke="white" stroke-miterlimit="10" stroke-linecap="round" stroke-linejoin="round" stroke-dasharray="10 10"/>
<path fill-rule="evenodd" clip-rule="evenodd" d="M99.1203 707.449L93.3982 720.397H91.0033V707.449H71.7939L71.7946 707.449C68.5919 707.474 65.0309 708.102 62.2459 710.49C59.2494 713.058 58.2169 716.719 58.2169 720.478C58.2169 724.237 59.2468 727.91 62.2674 730.47C65.1195 732.888 68.7733 733.463 71.9946 733.463C72.0472 733.463 72.1038 733.463 72.1038 733.463C72.1049 733.463 72.1049 733.463 72.1056 733.463C72.1049 733.463 72.1052 733.463 72.1056 733.463L87.6906 733.459H101.955L103.799 729.301H105.198L107.034 733.459H126.071V730.025C126.229 730.177 126.393 730.326 126.564 730.47C129.416 732.888 133.07 733.463 136.291 733.463C136.44 733.463 136.588 733.461 136.737 733.459H167.566V707.449H99.1203Z" fill="#E1012E"/>
<path fill-rule="evenodd" clip-rule="evenodd" d="M99.1566 707.175L93.3991 720.393H90.9894V707.175H71.661L71.6618 707.176C68.4392 707.201 64.8563 707.842 62.054 710.279C59.0389 712.902 58 716.638 58 720.476C58 724.313 59.0363 728.063 62.0756 730.677C64.9454 733.145 68.6218 733.732 71.863 733.732C71.9159 733.732 71.9729 733.732 71.9729 733.732C71.974 733.732 71.974 733.732 71.9747 733.732C71.974 733.732 71.9743 733.732 71.9747 733.732L87.6562 733.728H102.008L103.864 729.483H105.272L107.12 733.728H126.274V730.222C126.433 730.377 126.598 730.529 126.77 730.677C129.64 733.145 133.317 733.732 136.558 733.732C136.707 733.732 136.856 733.73 137.006 733.728H168.026V707.175H99.1566ZM80.0375 723.538C80.0342 723.557 80.0305 723.575 80.0269 723.594C80.0192 723.636 80.0115 723.678 80.0031 723.719C79.9984 723.742 79.9933 723.764 79.9885 723.787C79.9809 723.824 79.9732 723.86 79.9652 723.896C79.9597 723.921 79.9535 723.946 79.9476 723.97C79.9396 724.003 79.9319 724.036 79.9235 724.069C79.9155 724.1 79.9075 724.131 79.8991 724.161C79.8929 724.185 79.8867 724.208 79.8801 724.231C79.8713 724.263 79.8618 724.293 79.8527 724.324C79.8461 724.346 79.8399 724.369 79.833 724.391C79.8231 724.422 79.8125 724.454 79.8023 724.486C79.7957 724.506 79.7892 724.527 79.7822 724.547C79.7705 724.581 79.7585 724.615 79.7461 724.649C79.7402 724.666 79.7344 724.683 79.7282 724.7C79.7096 724.75 79.6906 724.799 79.6708 724.848C79.6665 724.86 79.6617 724.87 79.657 724.881C79.6416 724.919 79.6259 724.957 79.6099 724.994C79.6015 725.013 79.5923 725.033 79.5839 725.052C79.5712 725.08 79.5587 725.109 79.5456 725.137C79.5357 725.158 79.5255 725.178 79.5153 725.199C79.5029 725.225 79.4905 725.251 79.4777 725.276C79.4667 725.297 79.4558 725.318 79.4444 725.339C79.4317 725.363 79.4192 725.388 79.4065 725.412C79.3948 725.433 79.3827 725.454 79.3707 725.476C79.3579 725.499 79.3451 725.522 79.3316 725.545C79.3192 725.566 79.3064 725.587 79.2936 725.608C79.2801 725.63 79.267 725.652 79.2535 725.674C79.2403 725.695 79.2272 725.715 79.2137 725.736C79.1998 725.757 79.1859 725.779 79.172 725.8C79.1582 725.821 79.1443 725.841 79.1304 725.861C79.1162 725.882 79.1019 725.903 79.0873 725.923C79.0731 725.943 79.0581 725.963 79.0435 725.983C79.0285 726.003 79.0139 726.023 78.9989 726.043C78.984 726.063 78.9686 726.082 78.9533 726.102C78.938 726.121 78.9226 726.141 78.9069 726.16C78.8912 726.179 78.8755 726.198 78.8595 726.217C78.8438 726.236 78.8277 726.255 78.8116 726.273C78.7952 726.292 78.7788 726.311 78.7623 726.329C78.7459 726.348 78.7295 726.366 78.7127 726.384C78.6959 726.402 78.6787 726.421 78.6615 726.439C78.6447 726.456 78.6276 726.474 78.6104 726.491C78.5929 726.509 78.5754 726.527 78.5578 726.544C78.5403 726.562 78.5228 726.579 78.5049 726.596C78.487 726.613 78.4687 726.63 78.4505 726.647C78.4322 726.664 78.414 726.681 78.3957 726.697C78.3771 726.714 78.3585 726.731 78.3398 726.747C78.3212 726.763 78.3022 726.78 78.2829 726.796C78.2639 726.812 78.2449 726.828 78.2255 726.844C78.2062 726.86 78.1865 726.876 78.1664 726.891C78.147 726.907 78.1273 726.922 78.1076 726.938C78.0875 726.953 78.0667 726.969 78.0462 726.984C78.0265 726.999 78.0064 727.014 77.9864 727.029C77.9655 727.044 77.944 727.059 77.9228 727.074C77.9024 727.088 77.8823 727.102 77.8618 727.117C77.8399 727.132 77.8176 727.146 77.7954 727.161C77.7749 727.174 77.7545 727.188 77.734 727.201C77.711 727.216 77.6877 727.231 77.6639 727.245C77.6435 727.258 77.623 727.271 77.6026 727.283C77.5781 727.298 77.5529 727.312 77.5281 727.327C77.508 727.339 77.4883 727.351 77.4678 727.362C77.4408 727.377 77.4131 727.392 77.3857 727.407C77.2294 727.493 77.0669 727.573 76.8978 727.648C75.6019 728.22 73.9228 728.478 71.8622 728.478C66.6131 728.478 63.5256 726.563 63.2696 721.217C63.258 720.977 63.2525 720.73 63.2525 720.475C63.2525 720.189 63.2598 719.912 63.2744 719.643C63.5614 714.381 66.6434 712.427 71.8622 712.427C73.906 712.427 75.5814 712.681 76.8752 713.248C77.061 713.329 77.2385 713.418 77.4083 713.512C77.4309 713.525 77.454 713.537 77.4766 713.55C77.5018 713.564 77.5266 713.579 77.5515 713.594C77.5734 713.607 77.5953 713.62 77.6168 713.633C77.6416 713.648 77.6661 713.664 77.6906 713.68C77.7114 713.693 77.7326 713.706 77.7534 713.72C77.7775 713.735 77.8009 713.751 77.8242 713.767C77.8447 713.781 77.8659 713.795 77.8859 713.809C77.9097 713.825 77.9327 713.843 77.956 713.859C77.9758 713.874 77.9955 713.888 78.0148 713.902C78.0382 713.919 78.0608 713.937 78.0839 713.955C78.1025 713.969 78.1215 713.983 78.1401 713.998C78.1624 714.016 78.1843 714.034 78.2065 714.052C78.2248 714.067 78.2434 714.082 78.2617 714.098C78.2829 714.115 78.3037 714.134 78.3249 714.153C78.3431 714.169 78.3617 714.184 78.3796 714.201C78.4001 714.219 78.4198 714.238 78.4399 714.256C78.4578 714.273 78.476 714.29 78.4936 714.306C78.5133 714.325 78.5323 714.345 78.5516 714.364C78.5688 714.381 78.5863 714.398 78.6035 714.416C78.6221 714.435 78.64 714.455 78.6583 714.474C78.6754 714.492 78.6929 714.51 78.7097 714.529C78.7273 714.548 78.7444 714.568 78.762 714.588C78.7788 714.607 78.7955 714.626 78.812 714.645C78.8288 714.665 78.8452 714.685 78.8616 714.706C78.8777 714.725 78.8945 714.745 78.9102 714.765C78.9263 714.785 78.942 714.806 78.9577 714.826C78.9734 714.847 78.9895 714.867 79.0048 714.888C79.0205 714.909 79.0351 714.93 79.0504 714.952C79.0654 714.973 79.0807 714.993 79.0953 715.015C79.1096 715.035 79.1231 715.056 79.137 715.078C79.1519 715.1 79.1673 715.123 79.1823 715.146C79.1954 715.166 79.2075 715.186 79.2202 715.207C79.2352 715.231 79.2505 715.255 79.2651 715.28C79.2776 715.3 79.2892 715.322 79.3017 715.343C79.3159 715.368 79.3305 715.392 79.3444 715.417C79.3561 715.438 79.3674 715.46 79.3787 715.481C79.3926 715.507 79.4065 715.532 79.4196 715.558C79.4306 715.58 79.4412 715.602 79.4517 715.623C79.4649 715.65 79.4784 715.676 79.4912 715.703C79.5014 715.725 79.5113 715.747 79.5215 715.769C79.5339 715.796 79.5467 715.823 79.5591 715.851C79.5686 715.873 79.5777 715.896 79.5872 715.918C79.5993 715.946 79.6113 715.974 79.623 716.003C79.6321 716.026 79.6409 716.05 79.65 716.073C79.661 716.102 79.6723 716.13 79.6829 716.159C79.6917 716.183 79.6997 716.207 79.7081 716.231C79.7183 716.26 79.7289 716.289 79.7388 716.318C79.7468 716.343 79.7541 716.367 79.7621 716.391C79.7716 716.421 79.7815 716.451 79.791 716.482C79.7986 716.507 79.8056 716.532 79.8129 716.558C79.8217 716.588 79.8308 716.618 79.8392 716.649C79.8465 716.676 79.8531 716.703 79.8604 716.73C79.868 716.76 79.8761 716.789 79.8834 716.819C79.8903 716.848 79.8965 716.877 79.9031 716.905C79.91 716.935 79.917 716.964 79.9235 716.994C79.9305 717.026 79.9367 717.058 79.9433 717.091C79.9487 717.118 79.9546 717.145 79.9601 717.173C79.9604 717.175 79.9611 717.178 79.9615 717.181C79.9714 717.232 79.9805 717.285 79.9893 717.338C79.9918 717.354 79.9944 717.37 79.9973 717.386C80.0039 717.428 80.0104 717.47 80.0166 717.512C80.0188 717.528 80.0214 717.544 80.0236 717.56C80.0316 717.617 80.0389 717.674 80.0459 717.732H76.8763C76.4717 715.507 74.8306 714.878 71.8633 714.878C68.559 714.878 66.4232 715.979 66.4232 719.643V721.217C66.4232 724.814 68.5137 726.027 71.8633 726.027C74.7182 726.027 76.3818 725.488 76.8989 723.352H80.0685C80.059 723.415 80.0488 723.476 80.0378 723.537L80.0375 723.538ZM95.2223 728.209H83.86H82.5888V712.698H85.7362V725.646H95.2227V728.209H95.2223ZM112.62 728.209H110.446L108.715 724.23H100.421L98.6899 728.209H95.7226L99.1777 720.393L102.579 712.698H106.895L112.62 725.693L113.729 728.21H112.62L112.62 728.209ZM127.359 715.261H123.473H121.02V728.209H117.874V715.261H111.534V712.698H127.36V715.261H127.359ZM144.697 723.726C144.696 723.73 144.695 723.733 144.695 723.737C144.683 723.793 144.671 723.849 144.659 723.904C144.657 723.913 144.655 723.921 144.652 723.93C144.641 723.98 144.629 724.029 144.617 724.077C144.612 724.095 144.607 724.111 144.603 724.128C144.594 724.165 144.584 724.201 144.573 724.237C144.568 724.257 144.562 724.276 144.557 724.295C144.547 724.328 144.537 724.362 144.527 724.395C144.52 724.417 144.513 724.438 144.506 724.46C144.496 724.49 144.487 724.52 144.477 724.55C144.468 724.576 144.458 724.601 144.449 724.627C144.441 724.652 144.432 724.677 144.423 724.701C144.405 724.751 144.386 724.8 144.366 724.849C144.363 724.857 144.359 724.865 144.357 724.873C144.34 724.914 144.323 724.955 144.305 724.996C144.299 725.01 144.292 725.024 144.286 725.038C144.271 725.072 144.256 725.106 144.24 725.139C144.233 725.155 144.225 725.171 144.217 725.188C144.202 725.218 144.187 725.248 144.173 725.278C144.164 725.296 144.155 725.313 144.145 725.33C144.131 725.358 144.116 725.386 144.101 725.415C144.091 725.432 144.081 725.45 144.071 725.468C144.056 725.494 144.041 725.521 144.026 725.547C144.016 725.565 144.005 725.583 143.994 725.601C143.979 725.626 143.964 725.652 143.948 725.676C143.937 725.695 143.925 725.713 143.913 725.731C143.898 725.755 143.882 725.779 143.867 725.802C143.854 725.821 143.842 725.839 143.829 725.857C143.813 725.88 143.797 725.903 143.781 725.925C143.768 725.944 143.755 725.962 143.742 725.98C143.726 726.002 143.709 726.024 143.693 726.045C143.679 726.063 143.665 726.082 143.651 726.1C143.634 726.121 143.618 726.141 143.601 726.162C143.586 726.18 143.571 726.198 143.556 726.216C143.54 726.236 143.523 726.256 143.506 726.275C143.491 726.293 143.475 726.311 143.459 726.329C143.442 726.348 143.425 726.366 143.408 726.385C143.391 726.403 143.374 726.421 143.357 726.439C143.341 726.457 143.324 726.474 143.306 726.492C143.289 726.51 143.271 726.528 143.253 726.545C143.236 726.562 143.219 726.579 143.201 726.596C143.183 726.614 143.164 726.631 143.145 726.649C143.128 726.665 143.11 726.681 143.093 726.696C143.073 726.714 143.054 726.732 143.034 726.749C143.016 726.764 142.999 726.779 142.981 726.794C142.961 726.811 142.94 726.829 142.919 726.846C142.901 726.86 142.884 726.875 142.866 726.888C142.845 726.906 142.823 726.923 142.801 726.94C142.784 726.953 142.766 726.967 142.748 726.98C142.725 726.997 142.703 727.014 142.679 727.031C142.662 727.043 142.645 727.056 142.628 727.068C142.603 727.085 142.579 727.102 142.554 727.119C142.538 727.13 142.521 727.141 142.503 727.153C142.478 727.17 142.452 727.187 142.426 727.204C142.41 727.214 142.393 727.224 142.377 727.234C142.349 727.251 142.322 727.269 142.294 727.285C142.279 727.294 142.264 727.303 142.248 727.312C142.219 727.33 142.189 727.347 142.159 727.365C142.147 727.371 142.134 727.378 142.121 727.385C141.952 727.479 141.776 727.567 141.593 727.648C140.297 728.22 138.618 728.478 136.557 728.478C131.308 728.478 128.221 726.564 127.965 721.217C127.954 720.977 127.948 720.73 127.948 720.476C127.948 720.14 127.958 719.816 127.978 719.504C127.979 719.485 127.981 719.466 127.982 719.447C127.985 719.401 127.989 719.354 127.993 719.308C127.995 719.282 127.997 719.257 127.999 719.231C128.002 719.187 128.006 719.143 128.011 719.099C128.013 719.073 128.016 719.047 128.019 719.02C128.023 718.977 128.028 718.934 128.033 718.891C128.035 718.869 128.038 718.847 128.041 718.825C128.05 718.745 128.061 718.666 128.071 718.587C128.075 718.56 128.079 718.533 128.083 718.506C128.088 718.468 128.094 718.431 128.1 718.393C128.105 718.364 128.11 718.334 128.115 718.305C128.121 718.269 128.127 718.233 128.133 718.197C128.139 718.167 128.144 718.136 128.15 718.106C128.157 718.072 128.163 718.038 128.169 718.004C128.176 717.969 128.184 717.935 128.191 717.901C128.201 717.852 128.212 717.803 128.223 717.754C128.231 717.717 128.24 717.679 128.249 717.641C128.256 717.612 128.263 717.583 128.27 717.554C128.279 717.521 128.287 717.488 128.296 717.456C128.303 717.427 128.311 717.398 128.319 717.37C128.328 717.337 128.337 717.304 128.347 717.271C128.354 717.244 128.362 717.217 128.37 717.191C128.382 717.151 128.394 717.112 128.406 717.074C128.413 717.054 128.419 717.033 128.425 717.013C128.443 716.959 128.461 716.905 128.48 716.852C128.487 716.83 128.495 716.809 128.503 716.787C128.515 716.752 128.528 716.716 128.541 716.682C128.55 716.659 128.559 716.637 128.567 716.614C128.581 716.58 128.594 716.546 128.608 716.512C128.616 716.491 128.625 716.47 128.633 716.45C128.65 716.409 128.667 716.368 128.685 716.328C128.69 716.316 128.696 716.303 128.701 716.29C128.725 716.238 128.748 716.186 128.773 716.135C128.78 716.121 128.787 716.106 128.794 716.092C128.812 716.054 128.831 716.017 128.849 715.981C128.858 715.963 128.867 715.946 128.876 715.929C128.894 715.894 128.912 715.86 128.931 715.826C128.94 715.81 128.948 715.794 128.957 715.778C128.98 715.739 129.002 715.699 129.025 715.66C129.03 715.651 129.035 715.642 129.041 715.633C129.069 715.585 129.099 715.537 129.129 715.489C129.134 715.481 129.139 715.473 129.144 715.465C129.169 715.427 129.194 715.388 129.22 715.35C129.229 715.337 129.237 715.324 129.246 715.312C129.27 715.276 129.295 715.241 129.32 715.206C129.326 715.197 129.332 715.188 129.339 715.179C129.371 715.135 129.404 715.091 129.436 715.048C129.438 715.047 129.439 715.045 129.44 715.044C129.471 715.003 129.503 714.964 129.535 714.925C129.543 714.914 129.551 714.904 129.56 714.894C129.588 714.86 129.617 714.826 129.646 714.793C129.652 714.786 129.658 714.779 129.664 714.772C129.698 714.733 129.733 714.693 129.769 714.655C129.776 714.647 129.784 714.639 129.791 714.632C129.82 714.601 129.849 714.57 129.879 714.54C129.889 714.53 129.899 714.52 129.909 714.511C129.944 714.475 129.981 714.439 130.017 714.404C130.019 714.403 130.019 714.402 130.02 714.401C130.058 714.366 130.097 714.33 130.136 714.295C130.146 714.286 130.156 714.277 130.166 714.268C130.197 714.241 130.228 714.214 130.26 714.188C130.269 714.18 130.279 714.172 130.288 714.164C130.328 714.13 130.369 714.098 130.41 714.065C130.416 714.06 130.423 714.055 130.429 714.05C130.464 714.023 130.499 713.996 130.535 713.97C130.547 713.961 130.559 713.952 130.571 713.943C130.606 713.917 130.643 713.891 130.679 713.866C130.686 713.861 130.693 713.856 130.699 713.851C130.742 713.822 130.786 713.793 130.83 713.764C130.84 713.756 130.851 713.75 130.862 713.743C130.897 713.72 130.932 713.698 130.967 713.676C130.98 713.669 130.992 713.661 131.004 713.654C131.049 713.626 131.095 713.599 131.141 713.573C131.144 713.571 131.146 713.57 131.15 713.568C131.193 713.543 131.237 713.519 131.281 713.495C131.294 713.488 131.308 713.481 131.322 713.473C131.359 713.454 131.396 713.434 131.434 713.415C131.445 713.409 131.457 713.403 131.468 713.398C131.516 713.374 131.564 713.35 131.612 713.327C131.624 713.322 131.636 713.316 131.647 713.311C131.686 713.293 131.725 713.276 131.763 713.258C131.779 713.251 131.794 713.245 131.81 713.238C131.853 713.219 131.896 713.201 131.94 713.182C131.948 713.179 131.955 713.176 131.963 713.173C132.013 713.152 132.063 713.132 132.115 713.113C132.131 713.107 132.147 713.101 132.163 713.094C132.201 713.08 132.239 713.066 132.278 713.052C132.294 713.047 132.311 713.04 132.327 713.035C132.379 713.016 132.431 712.999 132.483 712.982C132.495 712.978 132.508 712.974 132.521 712.97C133.67 712.597 135.02 712.427 136.556 712.427C138.6 712.427 140.275 712.681 141.569 713.248C141.767 713.335 141.956 713.429 142.136 713.531C142.147 713.537 142.159 713.543 142.17 713.549C142.207 713.571 142.243 713.593 142.28 713.614C142.29 713.621 142.3 713.626 142.31 713.632C142.347 713.655 142.383 713.678 142.419 713.702C142.428 713.708 142.437 713.713 142.446 713.719C142.482 713.742 142.517 713.766 142.552 713.79C142.561 713.796 142.57 713.802 142.579 713.808C142.613 713.832 142.647 713.857 142.68 713.881C142.69 713.888 142.699 713.894 142.708 713.901C142.741 713.926 142.774 713.951 142.806 713.977C142.815 713.984 142.824 713.99 142.833 713.997C142.865 714.022 142.895 714.047 142.925 714.073C142.935 714.081 142.945 714.088 142.955 714.097C142.984 714.122 143.012 714.147 143.041 714.172C143.051 714.181 143.062 714.19 143.072 714.199C143.1 714.224 143.127 714.25 143.154 714.276C143.165 714.286 143.176 714.295 143.186 714.306C143.212 714.33 143.237 714.356 143.262 714.381C143.273 714.393 143.285 714.404 143.296 714.415C143.319 714.439 143.342 714.464 143.365 714.488C143.377 714.502 143.39 714.515 143.402 714.528C143.424 714.552 143.444 714.576 143.465 714.599C143.478 714.615 143.492 714.629 143.505 714.645C143.524 714.667 143.542 714.691 143.561 714.713C143.575 714.73 143.589 714.748 143.603 714.765C143.62 714.787 143.637 714.809 143.654 714.831C143.669 714.85 143.684 714.869 143.698 714.888C143.714 714.91 143.728 714.931 143.743 714.952C143.758 714.974 143.774 714.994 143.789 715.016C143.803 715.036 143.816 715.056 143.83 715.077C143.845 715.1 143.861 715.123 143.876 715.146C143.888 715.165 143.9 715.185 143.912 715.205C143.928 715.23 143.944 715.255 143.959 715.28C143.969 715.299 143.98 715.317 143.991 715.336C144.006 715.363 144.022 715.39 144.037 715.417C144.048 715.436 144.058 715.456 144.068 715.475C144.083 715.503 144.098 715.53 144.113 715.559C144.123 715.579 144.133 715.6 144.143 715.62C144.157 715.648 144.171 715.675 144.184 715.703C144.194 715.725 144.204 715.747 144.214 715.769C144.227 715.796 144.24 715.824 144.252 715.851C144.263 715.876 144.273 715.901 144.283 715.926C144.294 715.952 144.305 715.977 144.315 716.003C144.328 716.034 144.339 716.066 144.351 716.097C144.359 716.118 144.367 716.138 144.375 716.158C144.389 716.196 144.402 716.235 144.415 716.274C144.42 716.288 144.426 716.303 144.431 716.318C144.448 716.369 144.464 716.421 144.48 716.474C144.481 716.476 144.482 716.478 144.483 716.48C144.549 716.7 144.606 716.93 144.652 717.171C144.654 717.185 144.657 717.199 144.659 717.212C144.667 717.251 144.674 717.29 144.68 717.329C144.684 717.351 144.687 717.374 144.691 717.396C144.697 717.432 144.702 717.468 144.707 717.503C144.71 717.523 144.713 717.543 144.716 717.563C144.724 717.618 144.731 717.675 144.738 717.731H141.568C141.163 715.506 139.523 714.876 136.555 714.876C134.911 714.876 133.557 715.149 132.61 715.874C132.61 715.874 132.609 715.875 132.609 715.875C132.582 715.896 132.555 715.917 132.529 715.939C132.526 715.941 132.523 715.943 132.52 715.946C132.495 715.966 132.47 715.988 132.445 716.01C132.441 716.013 132.438 716.016 132.434 716.019C132.41 716.039 132.387 716.061 132.363 716.083C132.359 716.087 132.354 716.091 132.35 716.095C132.328 716.116 132.306 716.137 132.284 716.159C132.279 716.164 132.274 716.168 132.269 716.173C132.248 716.194 132.227 716.216 132.207 716.237C132.201 716.243 132.196 716.249 132.19 716.255C132.171 716.276 132.152 716.297 132.132 716.319C132.127 716.326 132.12 716.332 132.114 716.339C132.096 716.36 132.078 716.382 132.06 716.403C132.054 716.411 132.047 716.418 132.041 716.427C132.024 716.447 132.008 716.469 131.991 716.49C131.984 716.499 131.977 716.508 131.97 716.517C131.954 716.538 131.939 716.559 131.924 716.58C131.917 716.59 131.909 716.6 131.902 716.61C131.887 716.63 131.874 716.651 131.859 716.672C131.852 716.684 131.844 716.695 131.836 716.706C131.823 716.726 131.81 716.747 131.797 716.768C131.789 716.78 131.781 716.792 131.773 716.805C131.761 716.825 131.749 716.846 131.737 716.867C131.729 716.88 131.721 716.893 131.713 716.907C131.702 716.927 131.691 716.948 131.68 716.968C131.672 716.983 131.664 716.997 131.656 717.012C131.646 717.032 131.635 717.052 131.625 717.073C131.617 717.089 131.609 717.105 131.601 717.121C131.592 717.14 131.582 717.161 131.573 717.181C131.565 717.198 131.557 717.215 131.549 717.232C131.54 717.252 131.532 717.273 131.524 717.292C131.516 717.311 131.508 717.328 131.5 717.347C131.492 717.367 131.485 717.387 131.477 717.407C131.469 717.426 131.462 717.445 131.454 717.465C131.447 717.484 131.44 717.504 131.433 717.524C131.426 717.545 131.418 717.565 131.411 717.586C131.405 717.606 131.398 717.626 131.392 717.645C131.385 717.667 131.378 717.688 131.371 717.71C131.365 717.73 131.359 717.75 131.353 717.77C131.347 717.793 131.34 717.815 131.333 717.838C131.328 717.857 131.323 717.878 131.317 717.897C131.311 717.921 131.305 717.944 131.299 717.969C131.294 717.989 131.289 718.009 131.284 718.03C131.278 718.054 131.272 718.078 131.267 718.103C131.262 718.123 131.258 718.145 131.254 718.165C131.248 718.191 131.243 718.215 131.238 718.241C131.234 718.262 131.23 718.283 131.226 718.304C131.222 718.33 131.217 718.356 131.212 718.382C131.209 718.404 131.205 718.425 131.202 718.447C131.198 718.474 131.193 718.5 131.189 718.527C131.186 718.549 131.183 718.572 131.18 718.594C131.176 718.621 131.172 718.648 131.169 718.676C131.166 718.699 131.164 718.723 131.161 718.746C131.158 718.773 131.155 718.8 131.152 718.827C131.149 718.852 131.148 718.877 131.145 718.903C131.142 718.929 131.14 718.956 131.138 718.983C131.136 719.009 131.134 719.036 131.132 719.063C131.13 719.09 131.129 719.116 131.127 719.142C131.125 719.171 131.124 719.201 131.122 719.231C131.121 719.255 131.12 719.28 131.119 719.305C131.117 719.34 131.117 719.376 131.116 719.412C131.115 719.432 131.114 719.451 131.114 719.471C131.113 719.527 131.113 719.584 131.113 719.641V721.215C131.113 724.812 133.203 726.026 136.552 726.026C139.408 726.026 141.071 725.486 141.588 723.35H144.758C144.738 723.477 144.716 723.601 144.691 723.722L144.697 723.726ZM162.772 728.21H159.625V721.533H150.431V728.21H148.555H147.284V712.698H150.431V718.97H159.625V712.698H162.773V728.209L162.772 728.21Z" fill="white"/>
<path fill-rule="evenodd" clip-rule="evenodd" d="M107.089 720.513L107.065 720.457L104.557 714.743L101.432 721.914H107.704L107.089 720.513Z" fill="white"/>
<path d="M186.914 711.3L189.664 708.3L201.014 718.5L212.364 708.35L215.114 711.3L204.064 721.2L215.114 731.05L212.364 734.05L201.014 723.9L189.664 734.05L186.964 731.05L197.964 721.2L186.914 711.3Z" fill="white"/>
<g clip-path="url(#clip2_1232_4773)">
<path d="M262.123 733H267.995C268.475 733 268.976 732.452 268.976 731.936V709.064C268.971 708.548 268.47 708 267.995 708H262.123C261.643 708 261.141 708.548 261.141 709.064V731.936C261.141 732.452 261.643 733 262.123 733Z" fill="white"/>
<path d="M240.785 733C241.297 733 241.829 732.452 241.829 731.936V723.915H245.483L250.18 732.468C250.306 732.676 250.702 733 251.224 733H258.01C258.553 733 258.814 732.399 258.532 731.936L251.746 720.197L258.532 709.064C258.85 708.601 258.568 708 258.01 708H250.702C250.18 708 249.784 708.34 249.659 708.532L244.961 717.005H241.829V709.064C241.819 708.553 241.297 708 240.785 708H235.044C234.522 708 234 708.527 234 709.037V731.936C234 732.452 234.532 733 235.044 733H240.785Z" fill="white"/>
<path d="M339.956 733C340.468 733 341 732.399 341 731.883V709.037C341 708.521 340.468 708 339.956 708H334.215C333.703 708 333.171 708.548 333.171 709.064V720.766L323.254 708H316.468C315.957 708 315.424 708.548 315.424 709.064V731.936C315.424 732.452 315.957 733 316.468 733H322.21C322.721 733 323.254 732.452 323.254 731.936V720.197L333.171 733H339.956Z" fill="white"/>
<path d="M273.152 733H311.254C311.818 733 312.298 732.505 312.298 731.936V709.064C312.298 708.495 311.818 708 311.254 708H273.152C272.588 708 272.108 708.495 272.108 709.064V731.936C272.108 732.505 272.588 733 273.152 733ZM280.459 714.383C282.818 714.851 287.74 714.92 292.344 714.91C297.114 714.899 301.89 714.798 303.947 714.383C304.15 714.34 304.469 714.378 304.469 714.91V725.532C304.469 726.085 304.14 726.085 303.947 726.064C301.911 725.809 297.099 725.883 292.344 725.867C287.537 725.856 282.463 725.787 280.459 726.085C280.261 726.112 279.937 726.106 279.937 725.553V714.915C279.937 714.383 280.261 714.346 280.459 714.383Z" fill="white"/>
</g>
</g>
</g>
<defs>
<radialGradient id="paint0_radial_1232_4773" cx="0" cy="0" r="1" gradientUnits="userSpaceOnUse" gradientTransform="translate(831 888) rotate(118.185) scale(847.513 524.456)">
<stop stop-color="#E7012A"/>
<stop offset="1" stop-color="#5815A3"/>
</radialGradient>
<clipPath id="clip0_1232_4773">
<path d="M0 0H414V841C414 852.046 405.046 861 394 861H20C8.95432 861 0 852.046 0 841V0Z" fill="white"/>
</clipPath>
<clipPath id="clip1_1232_4773">
<path d="M0 0H414V841C414 852.046 405.046 861 394 861H20C8.95432 861 0 852.046 0 841V0Z" fill="white"/>
</clipPath>
<clipPath id="clip2_1232_4773">
<rect width="107" height="25" fill="white" transform="translate(234 708)"/>
</clipPath>
</defs>
</svg>
