<svg width="414" height="861" viewBox="0 0 414 861" fill="none" xmlns="http://www.w3.org/2000/svg">
<g clip-path="url(#clip0_1177_2035)">
<path d="M0 0H414V841C414 852.046 405.046 861 394 861H20C8.95432 861 0 852.046 0 841V0Z" fill="#EF6A82"/>
<rect x="415" y="888" width="416" height="888" transform="rotate(-180 415 888)" fill="url(#paint0_radial_1177_2035)"/>
<path d="M527.909 435.266C357.967 366.822 302.838 513.738 260.341 553.839C194.937 615.555 93.5878 606.206 69.3491 516.3C57.7227 473.178 80.8183 455.412 94.4966 461.973C105.632 467.314 115.249 486.055 107.203 516.051C96.2671 556.827 25.881 626.415 -52.5556 579.766" stroke="white" stroke-miterlimit="10" stroke-linecap="round" stroke-linejoin="round" stroke-dasharray="10 10"/>
<g style="mix-blend-mode:multiply">
<path d="M298.013 716.512C298.013 714.467 304.434 712.811 312.355 712.811C320.275 712.811 326.696 714.467 326.696 716.512C326.696 718.555 320.275 720.212 312.355 720.212C304.434 720.212 298.013 718.555 298.013 716.512Z" fill="#6365C3"/>
<path d="M333.018 723.761C333.018 721.717 340.716 720.06 350.212 720.06C359.708 720.06 367.406 721.717 367.406 723.761C367.406 725.805 359.708 727.462 350.212 727.462C340.716 727.462 333.018 725.805 333.018 723.761Z" fill="#6365C3"/>
<path d="M284.906 719.518C284.906 717.431 290.705 715.74 297.859 715.74C305.013 715.74 310.812 717.431 310.812 719.518C310.812 721.604 305.013 723.296 297.859 723.296C290.705 723.296 284.906 721.604 284.906 719.518Z" fill="#6365C3"/>
</g>
<path d="M469.099 248C422.397 274.197 305.989 367.639 282.761 377.492C261.663 386.441 247.258 381.318 226.526 391.085C209.369 399.168 201.52 412.511 186.188 428.206C172.346 442.377 153.456 445.762 150.171 457.219C147.927 465.044 158.664 472.239 172.839 468.265C185.841 464.621 195.711 456.059 207.028 448.694C210.705 457.744 210.085 470.203 218.06 475.844C231.374 485.262 250.245 496.672 264.985 489.692C288.053 478.768 309.797 443.344 309.797 443.344C309.797 443.344 429.806 426.282 510 391.085C506.25 380.131 496.506 356.075 489.266 347.039C478.213 333.244 503.104 319.213 489.266 308.215" fill="#FFF2E0"/>
<path d="M469.099 248C422.397 274.197 305.989 367.639 282.761 377.492C261.663 386.441 247.258 381.318 226.526 391.085C209.369 399.168 201.52 412.511 186.188 428.206C172.346 442.377 153.456 445.762 150.171 457.219C147.927 465.044 158.664 472.239 172.839 468.265C185.841 464.621 195.711 456.059 207.028 448.694C210.705 457.744 210.085 470.203 218.06 475.844C231.374 485.262 250.245 496.672 264.985 489.692C288.053 478.768 309.797 443.344 309.797 443.344C309.797 443.344 429.806 426.282 510 391.085C506.25 380.131 496.506 356.075 489.266 347.039C478.213 333.244 503.104 319.213 489.266 308.215" stroke="#294064" stroke-miterlimit="10" stroke-linecap="round"/>
<path d="M243.007 454.966C238.991 455.133 237.983 455.28 227.027 457.082C218.613 458.466 212.983 459.111 206.392 459.198C197.809 459.31 189.115 458.304 179.721 455.911C167.494 452.797 155.837 462.979 147.521 481.384C139.937 498.167 136.396 519.303 138.762 534.938C140.001 543.131 142.075 550.049 145.856 560.044C145.844 560.011 148.28 566.393 148.931 568.154C150.033 571.136 150.86 573.576 151.54 575.911C154.789 587.054 154.594 596.197 149.933 606.941C149.595 607.717 149.96 608.621 150.736 608.958C151.513 609.295 152.416 608.944 152.753 608.168C157.719 596.723 157.926 586.843 154.488 575.051C153.784 572.636 152.933 570.14 151.808 567.096C151.151 565.316 148.702 558.911 148.719 558.958C145.008 549.148 142.995 542.408 141.794 534.472C139.522 519.456 142.962 498.909 150.314 482.639C158.09 465.428 168.607 456.25 178.959 458.888C188.617 461.347 197.587 462.375 206.434 462.258C213.211 462.169 218.968 461.522 227.521 460.114C238.302 458.341 239.303 458.186 243.134 458.027C248.227 457.815 252.436 458.475 256.477 460.27C261.94 462.695 267.22 467.291 272.838 474.783C282.043 487.059 287.634 502.088 290.736 521.13C293.127 535.803 293.851 548.558 294.559 577.928C294.755 586.087 294.83 589.28 294.968 593.64C295.617 614.265 295.36 625.219 293.374 636.306C290.867 650.304 285.592 661.258 276.491 670.072C267.148 679.12 256.474 684.472 242.443 687.519C231.707 689.85 220.327 690.785 198.621 691.553C199.773 691.139 200.875 690.828 202.048 690.382C212.964 686.238 220.542 681.696 224.629 677.011C228.615 672.443 229.234 667.697 226.42 663.725C221.173 656.316 205.14 653.195 186.731 656.292C179.851 657.449 172.127 660.27 165.983 664.077C158.591 668.658 153.816 674.37 152.781 680.876C151.836 686.82 155.63 690.773 163.402 692.865C166.996 693.831 171.597 694.418 177.14 694.712C169.547 696.407 161.717 697.623 152.866 698.563C149.363 698.935 146.156 699.222 140.468 699.719C125.87 700.996 120.354 701.558 111.893 702.78C100.445 704.433 89.2866 706.738 77.3094 710.058C76.4934 710.284 76.0113 711.132 76.237 711.948C76.4631 712.764 77.3112 713.232 78.1272 713.006C89.9758 709.722 101.021 707.447 112.344 705.812C120.729 704.602 126.195 704.051 140.737 702.78C146.442 702.281 149.664 701.984 153.19 701.609C166.374 700.209 177.381 698.197 188.635 694.881C190.341 694.86 191.941 694.87 193.783 694.811C219.347 693.997 231.268 693.094 243.106 690.523C257.671 687.361 268.859 681.754 278.635 672.286C288.233 662.991 293.778 651.435 296.392 636.842C298.428 625.479 298.685 614.374 298.028 593.542C297.891 589.192 297.815 586.008 297.619 577.857C296.909 548.343 296.176 535.497 293.755 520.636C290.578 501.143 284.813 485.666 275.278 472.949C269.368 465.068 263.723 460.137 257.732 457.477C253.225 455.475 248.543 454.736 243.007 454.966ZM199.678 658.182C211.409 658.056 220.63 660.852 223.924 665.502C228.199 671.537 220.823 679.979 200.962 687.519C196.583 689.181 192.369 690.58 188.198 691.821C165.074 692.066 154.632 688.786 155.814 681.356C156.686 675.874 160.885 670.843 167.591 666.687C173.387 663.095 180.74 660.403 187.239 659.31C191.582 658.58 195.768 658.224 199.678 658.182Z" fill="#53FFFA" stroke="#294064" stroke-miterlimit="10" stroke-linecap="round"/>
<g style="mix-blend-mode:multiply">
<path d="M234.755 454.581C238.972 459.537 242.485 465.192 247.407 469.448C251.331 472.842 256.407 474.612 260.906 477.193C260.815 472.504 259.438 467.661 260.633 463.126C263.473 452.349 270.309 442.851 272.819 431.994C275.237 421.533 271.311 409.227 271.311 409.227C271.311 409.227 261.89 427.495 256.244 431.562C247.18 438.091 233.895 440.584 221.065 438.148C221.051 446.282 222.043 450.192 222.029 458.326" fill="#FF6832" fill-opacity="0.5"/>
</g>
<g style="mix-blend-mode:multiply">
<path d="M302.411 405.399C301.742 401.465 299.972 397.816 299.752 393.802C299.606 391.147 299.79 387.718 300.82 385.159C301.588 383.252 301.484 385.179 301.486 383.921C299.576 383.833 297.057 385.75 295.323 384.868C289.959 382.14 287.762 378.967 281.563 379.846C291.211 385.255 296.221 394.415 301.945 403.864C302.222 404.322 302.256 404.888 302.411 405.399Z" fill="#FF6832" fill-opacity="0.5"/>
</g>
<path d="M197.102 497.506C197.102 497.506 180.778 503.742 172.973 489.865C165.018 475.719 169.654 445.862 176.943 438.256C183.729 431.176 194.626 437.706 193.863 450.103C193.174 461.283 188.549 473.846 187.593 485.006" fill="#FFF2E0"/>
<path d="M197.102 497.506C197.102 497.506 180.778 503.742 172.973 489.865C165.018 475.719 169.654 445.862 176.943 438.256C183.729 431.176 194.626 437.706 193.863 450.103C193.174 461.283 188.549 473.846 187.593 485.006" stroke="#294064" stroke-miterlimit="10" stroke-linecap="round"/>
<path d="M217.261 496.853C212.531 500.272 202.554 501.504 195.919 498.852C190.563 496.712 186.565 490.237 186.293 484.477C185.787 473.767 188.726 462.655 193.764 453.191C197.377 446.404 206.77 434.133 213.911 435.407C224.38 437.274 218.727 450.69 218.51 455C217.694 471.206 215.218 473.32 211.312 489.07" fill="#FFF2E0"/>
<path d="M217.261 496.853C212.531 500.272 202.554 501.504 195.919 498.852C190.563 496.712 186.565 490.237 186.293 484.477C185.787 473.767 188.726 462.655 193.764 453.191C197.377 446.404 206.77 434.133 213.911 435.407C224.38 437.274 218.727 450.69 218.51 455C217.694 471.206 215.218 473.32 211.312 489.07" stroke="#294064" stroke-miterlimit="10" stroke-linecap="round"/>
<path d="M243.289 492.044C240.192 499.407 224.364 501.775 217.942 497.693C210.854 493.188 210.081 484.809 209.516 476.999C208.956 469.24 214.049 451.331 224.39 443.031C229.624 438.83 236.388 435.973 242.053 441.418C245.991 445.203 239.699 452.954 237.956 458.801C235.071 468.478 236.958 475.473 239.696 484.851" fill="#FFF2E0"/>
<path d="M243.289 492.044C240.192 499.407 224.364 501.775 217.942 497.693C210.854 493.188 210.081 484.809 209.516 476.999C208.956 469.24 214.049 451.331 224.39 443.031C229.624 438.83 236.388 435.973 242.053 441.418C245.991 445.203 239.699 452.954 237.956 458.801C235.071 468.478 236.958 475.473 239.696 484.851" stroke="#294064" stroke-miterlimit="10" stroke-linecap="round"/>
<path d="M276.674 482.174C265.6 492.341 250.973 500.501 241.061 492.558C228.398 482.411 231.002 469.246 234.037 458.414C235.944 451.607 243.878 434.594 252.319 439.494C264.31 446.455 254.554 453.983 255.88 464.863C256.393 469.071 257.631 473.571 260.497 478.187" fill="#FFF2E0"/>
<path d="M276.674 482.174C265.6 492.341 250.973 500.501 241.061 492.558C228.398 482.411 231.002 469.246 234.037 458.414C235.944 451.607 243.878 434.594 252.319 439.494C264.31 446.455 254.554 453.983 255.88 464.863C256.393 469.071 257.631 473.571 260.497 478.187" stroke="#294064" stroke-miterlimit="10" stroke-linecap="round"/>
<path d="M236.714 438.355C250.839 439.338 261.783 426.905 266.642 415.128C267.929 412.008 270.415 404.761 269.086 401.566" stroke="#294064" stroke-miterlimit="10" stroke-linecap="round"/>
<path d="M304.098 433.015C304.098 433.015 304.526 428.098 304.548 424.734C304.585 419.033 302.918 413.42 299.653 408.343" stroke="#294064" stroke-miterlimit="10" stroke-linecap="round"/>
<path d="M272.873 383.419C275.538 383.083 281.402 386.584 283.019 387.878" stroke="#294064" stroke-miterlimit="10" stroke-linecap="round"/>
<path d="M259.876 462.048C260.558 460.69 259.728 458.564 259.728 458.564C259.728 458.564 258.893 457.677 257.013 457.293C256.286 458.795 256.863 460.09 256.863 460.09C256.863 460.09 258.795 461.442 259.876 462.048Z" fill="#294064" stroke="#294064" stroke-miterlimit="10" stroke-linecap="round"/>
<path d="M169.846 456.4C166.975 457.92 166.825 457.679 166.071 460.956C168.622 459.671 167.56 460.11 169.188 459.486" fill="#294064"/>
<path d="M169.846 456.4C166.975 457.92 166.825 457.679 166.071 460.956C168.622 459.671 167.56 460.11 169.188 459.486" stroke="#294064" stroke-miterlimit="10" stroke-linecap="round"/>
<path d="M199.27 445.738C208.535 451.898 213.862 445.681 214.444 438.733" stroke="#294064" stroke-miterlimit="10" stroke-linecap="round"/>
<path d="M219.887 448.245C229.665 456.369 235.832 442.258 235.832 442.258" stroke="#294064" stroke-miterlimit="10" stroke-linecap="round"/>
<path d="M237.637 450.704C245.103 455.339 251.462 450.856 252.012 442.56" stroke="#294064" stroke-miterlimit="10" stroke-linecap="round"/>
<path d="M184.425 436.883C181.331 436.433 178.906 438.202 177.737 440.554C176.506 443.033 175.074 447.46 176.117 449.305C179.26 454.864 189.261 454.274 189.382 448.824C189.455 445.562 189.742 441.136 189.742 441.136" stroke="#294064" stroke-miterlimit="10" stroke-linecap="round"/>
<path d="M138.403 554.174C138.403 550.497 141.384 547.516 145.061 547.516C148.738 547.516 151.718 550.497 151.718 554.174C151.718 557.851 148.738 560.832 145.061 560.832C141.384 560.832 138.403 557.851 138.403 554.174Z" fill="#9E67DB" stroke="#294064" stroke-miterlimit="10"/>
<path d="M133.565 536.84C133.565 532.479 137.1 528.944 141.461 528.944C145.821 528.944 149.356 532.479 149.356 536.84C149.356 541.2 145.821 544.735 141.461 544.735C137.1 544.735 133.565 541.2 133.565 536.84Z" fill="#C695FD" stroke="#294064" stroke-miterlimit="10"/>
<path d="M137.986 491.744C137.986 487.956 141.057 484.885 144.845 484.885C148.634 484.885 151.705 487.956 151.705 491.744C151.705 495.532 148.634 498.604 144.845 498.604C141.057 498.604 137.986 495.532 137.986 491.744Z" fill="#9E67DB" stroke="#294064" stroke-miterlimit="10"/>
<path d="M277.891 493.214C277.891 489.62 280.804 486.707 284.398 486.707C287.992 486.707 290.906 489.62 290.906 493.214C290.906 496.808 287.992 499.721 284.398 499.721C280.804 499.721 277.891 496.808 277.891 493.214Z" fill="#9E67DB" stroke="#294064" stroke-miterlimit="10"/>
<path d="M283.583 513.528C283.583 509.167 287.117 505.632 291.478 505.632C295.839 505.632 299.374 509.167 299.374 513.528C299.374 517.888 295.839 521.423 291.478 521.423C287.117 521.423 283.583 517.888 283.583 513.528Z" fill="#C695FD" stroke="#294064" stroke-miterlimit="10"/>
<path d="M286.189 533.384C286.189 529.023 289.723 525.488 294.084 525.488C298.445 525.488 301.98 529.023 301.98 533.384C301.98 537.744 298.445 541.279 294.084 541.279C289.723 541.279 286.189 537.744 286.189 533.384Z" fill="#9E67DB" stroke="#294064" stroke-miterlimit="10"/>
<path d="M287.452 552.605C287.452 548.7 290.618 545.534 294.524 545.534C298.429 545.534 301.595 548.7 301.595 552.605C301.595 556.511 298.429 559.677 294.524 559.677C290.618 559.677 287.452 556.511 287.452 552.605Z" fill="#9E67DB" stroke="#294064" stroke-miterlimit="10"/>
<path d="M288.788 571.67C288.788 567.996 291.767 565.018 295.44 565.018C299.114 565.018 302.092 567.996 302.092 571.67C302.092 575.344 299.114 578.322 295.44 578.322C291.767 578.322 288.788 575.344 288.788 571.67Z" fill="#C695FD" stroke="#294064" stroke-miterlimit="10"/>
<path d="M289.193 592.987C289.193 588.626 292.727 585.091 297.088 585.091C301.449 585.091 304.984 588.626 304.984 592.987C304.984 597.347 301.449 600.882 297.088 600.882C292.727 600.882 289.193 597.347 289.193 592.987Z" fill="#C695FD" stroke="#294064" stroke-miterlimit="10"/>
<path d="M289.612 613.586C289.612 609.521 292.908 606.226 296.973 606.226C301.038 606.226 304.333 609.521 304.333 613.586C304.333 617.651 301.038 620.947 296.973 620.947C292.908 620.947 289.612 617.651 289.612 613.586Z" fill="#9E67DB" stroke="#294064" stroke-miterlimit="10"/>
<path d="M288 635.843C288 631.482 291.535 627.947 295.896 627.947C300.256 627.947 303.791 631.482 303.791 635.843C303.791 640.203 300.256 643.738 295.896 643.738C291.535 643.738 288 640.203 288 635.843Z" fill="#9E67DB" stroke="#294064" stroke-miterlimit="10"/>
<path d="M282.389 653.494C282.389 649.821 285.366 646.844 289.039 646.844C292.712 646.844 295.69 649.821 295.69 653.494C295.69 657.167 292.712 660.145 289.039 660.145C285.366 660.145 282.389 657.167 282.389 653.494Z" fill="#C695FD" stroke="#294064" stroke-miterlimit="10"/>
<path d="M270.921 671.179C270.921 666.818 274.456 663.283 278.817 663.283C283.177 663.283 286.712 666.818 286.712 671.179C286.712 675.539 283.177 679.074 278.817 679.074C274.456 679.074 270.921 675.539 270.921 671.179Z" fill="#C695FD" stroke="#294064" stroke-miterlimit="10"/>
<path d="M255.897 682.08C255.897 678.663 258.667 675.892 262.085 675.892C265.502 675.892 268.273 678.663 268.273 682.08C268.273 685.497 265.502 688.268 262.085 688.268C258.667 688.268 255.897 685.497 255.897 682.08Z" fill="#9E67DB" stroke="#294064" stroke-miterlimit="10"/>
<path d="M236.752 690.415C236.752 686.054 240.287 682.519 244.648 682.519C249.008 682.519 252.543 686.054 252.543 690.415C252.543 694.776 249.008 698.311 244.648 698.311C240.287 698.311 236.752 694.776 236.752 690.415Z" fill="#9E67DB" stroke="#294064" stroke-miterlimit="10"/>
<path d="M296.677 708.739C296.677 704.379 300.211 700.844 304.572 700.844C308.933 700.844 312.468 704.379 312.468 708.739C312.468 713.1 308.933 716.635 304.572 716.635C300.211 716.635 296.677 713.1 296.677 708.739Z" fill="#9E67DB" stroke="#294064" stroke-miterlimit="10"/>
<path d="M286.058 712.973C286.058 709.247 289.079 706.226 292.805 706.226C296.531 706.226 299.552 709.247 299.552 712.973C299.552 716.699 296.531 719.719 292.805 719.719C289.079 719.719 286.058 716.699 286.058 712.973Z" fill="#9E67DB" stroke="#294064" stroke-miterlimit="10"/>
<path d="M335.802 716.372C335.802 712.214 339.172 708.844 343.33 708.844C347.487 708.844 350.858 712.214 350.858 716.372C350.858 720.529 347.487 723.9 343.33 723.9C339.172 723.9 335.802 720.529 335.802 716.372Z" fill="#C695FD" stroke="#294064" stroke-miterlimit="10"/>
<path d="M182.338 659.123C182.338 654.762 185.873 651.227 190.233 651.227C194.594 651.227 198.129 654.762 198.129 659.123C198.129 663.483 194.594 667.018 190.233 667.018C185.873 667.018 182.338 663.483 182.338 659.123Z" fill="#C695FD" stroke="#294064" stroke-miterlimit="10"/>
<path d="M139.97 629.056C139.97 625.389 142.943 622.417 146.61 622.417C150.277 622.417 153.25 625.389 153.25 629.056C153.25 632.723 150.277 635.696 146.61 635.696C142.943 635.696 139.97 632.723 139.97 629.056Z" fill="#9E67DB" stroke="#294064" stroke-miterlimit="10"/>
<path d="M51 716.89C51 713.57 53.6918 710.878 57.0118 710.878C60.3324 710.878 63.0237 713.57 63.0237 716.89C63.0237 720.211 60.3324 722.903 57.0118 722.903C53.6918 722.903 51 720.211 51 716.89Z" fill="#C695FD" stroke="#294064" stroke-miterlimit="10"/>
<path d="M91.1637 706.912C91.1637 702.551 94.6986 699.017 99.0594 699.017C103.42 699.017 106.955 702.551 106.955 706.912C106.955 711.273 103.42 714.808 99.0594 714.808C94.6986 714.808 91.1637 711.273 91.1637 706.912Z" fill="#C695FD" stroke="#294064" stroke-miterlimit="10"/>
<path d="M111.161 703.184C111.161 698.823 114.696 695.288 119.056 695.288C123.417 695.288 126.952 698.823 126.952 703.184C126.952 707.544 123.417 711.08 119.056 711.08C114.696 711.08 111.161 707.544 111.161 703.184Z" fill="#9E67DB" stroke="#294064" stroke-miterlimit="10"/>
<path d="M123.961 701.879C123.961 698.41 126.773 695.598 130.242 695.598C133.711 695.598 136.523 698.41 136.523 701.879C136.523 705.348 133.711 708.16 130.242 708.16C126.773 708.16 123.961 705.348 123.961 701.879Z" fill="#C695FD" stroke="#294064" stroke-miterlimit="10"/>
<path d="M145.477 699.707C145.477 695.347 149.012 691.812 153.373 691.812C157.733 691.812 161.268 695.347 161.268 699.707C161.268 704.068 157.733 707.603 153.373 707.603C149.012 707.603 145.477 704.068 145.477 699.707Z" fill="#9E67DB" stroke="#294064" stroke-miterlimit="10"/>
<path d="M154.999 669.798C154.999 666.327 157.812 663.514 161.282 663.514C164.753 663.514 167.566 666.327 167.566 669.798C167.566 673.269 164.753 676.082 161.282 676.082C157.812 676.082 154.999 673.269 154.999 669.798Z" fill="#9E67DB" stroke="#294064" stroke-miterlimit="10"/>
<path d="M203.763 657.7C203.763 654.206 206.595 651.373 210.089 651.373C213.584 651.373 216.417 654.206 216.417 657.7C216.417 661.195 213.584 664.028 210.089 664.028C206.595 664.028 203.763 661.195 203.763 657.7Z" fill="#9E67DB" stroke="#294064" stroke-miterlimit="10"/>
<path d="M214.176 660.513C214.176 656.153 217.711 652.618 222.071 652.618C226.432 652.618 229.967 656.153 229.967 660.513C229.967 664.874 226.432 668.409 222.071 668.409C217.711 668.409 214.176 664.874 214.176 660.513Z" fill="#9E67DB" stroke="#294064" stroke-miterlimit="10"/>
<path d="M219.948 668.474C219.948 664.654 223.044 661.557 226.864 661.557C230.685 661.557 233.781 664.654 233.781 668.474C233.781 672.294 230.685 675.391 226.864 675.391C223.044 675.391 219.948 672.294 219.948 668.474Z" fill="#C695FD" stroke="#294064" stroke-miterlimit="10"/>
<path d="M206.829 679.797C206.829 675.437 210.364 671.902 214.725 671.902C219.085 671.902 222.62 675.437 222.62 679.797C222.62 684.158 219.085 687.693 214.725 687.693C210.364 687.693 206.829 684.158 206.829 679.797Z" fill="#9E67DB" stroke="#294064" stroke-miterlimit="10"/>
<path d="M157.734 687.705C157.734 683.344 161.268 679.81 165.629 679.81C169.99 679.81 173.525 683.344 173.525 687.705C173.525 692.066 169.99 695.601 165.629 695.601C161.268 695.601 157.734 692.066 157.734 687.705Z" fill="#C695FD" stroke="#294064" stroke-miterlimit="10"/>
<path d="M175.189 691.594C175.189 687.234 178.723 683.699 183.084 683.699C187.445 683.699 190.98 687.234 190.98 691.594C190.98 695.955 187.445 699.49 183.084 699.49C178.723 699.49 175.189 695.955 175.189 691.594Z" fill="#9E67DB" stroke="#294064" stroke-miterlimit="10"/>
<path d="M193.085 693.38C193.085 689.019 196.621 685.484 200.981 685.484C205.342 685.484 208.877 689.019 208.877 693.38C208.877 697.741 205.342 701.276 200.981 701.276C196.621 701.276 193.085 697.741 193.085 693.38Z" fill="#C695FD" stroke="#294064" stroke-miterlimit="10"/>
<path d="M203.523 693.346C203.523 688.985 207.059 685.45 211.419 685.45C215.78 685.45 219.315 688.985 219.315 693.346C219.315 697.706 215.78 701.241 211.419 701.241C207.059 701.241 203.523 697.706 203.523 693.346Z" fill="#C695FD" stroke="#294064" stroke-miterlimit="10"/>
<path d="M212.848 692.18C212.848 688.429 215.888 685.389 219.639 685.389C223.39 685.389 226.43 688.429 226.43 692.18C226.43 695.93 223.39 698.971 219.639 698.971C215.888 698.971 212.848 695.93 212.848 692.18Z" fill="#9E67DB" stroke="#294064" stroke-miterlimit="10"/>
<path d="M147.533 487.832C149.571 489.318 149.999 490.2 150.276 492.535" stroke="#294064" stroke-miterlimit="10" stroke-linecap="round"/>
<path d="M149.593 494.261C149.399 494.858 149.168 495.31 148.792 495.808" stroke="#294064" stroke-miterlimit="10" stroke-linecap="round"/>
<path d="M135.704 534.857C135.353 535.13 135.328 535.919 135.325 536.3C135.309 538.812 136.403 541.12 138.813 542.058" stroke="#294064" stroke-miterlimit="10" stroke-linecap="round"/>
<path d="M148.986 624.906C151.008 627.194 151.651 628.339 150.614 631.387" stroke="#294064" stroke-miterlimit="10" stroke-linecap="round"/>
<path d="M149.719 632.929C149.326 633.485 148.8 633.861 148.219 634.199" stroke="#294064" stroke-miterlimit="10" stroke-linecap="round"/>
<path d="M185.959 654.82C183.678 656.495 184.588 659.902 185.848 661.834" stroke="#294064" stroke-miterlimit="10" stroke-linecap="round"/>
<path d="M187.109 663.628C187.771 664.352 188.586 664.688 189.486 665.033" stroke="#294064" stroke-miterlimit="10" stroke-linecap="round"/>
<path d="M161.318 664.919C163.222 665.034 165.18 666.253 165.701 668.198" stroke="#294064" stroke-miterlimit="10" stroke-linecap="round"/>
<path d="M165.952 669.676C166.091 670.192 165.904 670.459 165.773 670.959" stroke="#294064" stroke-miterlimit="10" stroke-linecap="round"/>
<path d="M148.051 701.954C147.143 699.324 147.24 697.199 149.443 695.295" stroke="#294064" stroke-miterlimit="10" stroke-linecap="round"/>
<path d="M148.849 703.546C149.121 704.331 149.741 704.977 150.553 705.238" stroke="#294064" stroke-miterlimit="10" stroke-linecap="round"/>
<path d="M102.943 702.09C104.953 703.894 105.399 706.476 104.204 709.061" stroke="#294064" stroke-miterlimit="10" stroke-linecap="round"/>
<path d="M103.44 710.402C103.325 710.82 103.021 711.047 102.714 711.313" stroke="#294064" stroke-miterlimit="10" stroke-linecap="round"/>
<path d="M53.1251 714.21C52.1999 715.598 52.157 717.625 53.4126 718.88" stroke="#294064" stroke-miterlimit="10" stroke-linecap="round"/>
<path d="M246.532 684.81C248.467 685.427 249.548 687.749 249.832 689.565" stroke="#294064" stroke-miterlimit="10" stroke-linecap="round"/>
<path d="M250.002 691.661C250.091 692.236 249.938 693.099 249.592 693.573" stroke="#294064" stroke-miterlimit="10" stroke-linecap="round"/>
<path d="M223.615 664.362C221.665 666.14 222.017 669.168 223.521 671.096" stroke="#294064" stroke-miterlimit="10" stroke-linecap="round"/>
<path d="M224.693 672.476C225.286 673.126 226.11 673.293 226.946 673.344" stroke="#294064" stroke-miterlimit="10" stroke-linecap="round"/>
<path d="M184.955 685.799C184.934 685.737 185.714 686.179 185.882 686.318C186.396 686.741 186.826 687.265 187.24 687.786C188.23 689.032 189.242 691.998 188.116 693.449" stroke="#294064" stroke-miterlimit="10" stroke-linecap="round"/>
<path d="M274.364 667.017C272.258 669.086 273.359 672.487 274.637 674.621" stroke="#294064" stroke-miterlimit="10" stroke-linecap="round"/>
<path d="M307.589 703.645C309.99 704.445 310.892 707.791 310.216 710.047" stroke="#294064" stroke-miterlimit="10" stroke-linecap="round"/>
<path d="M309.6 711.522C309.6 712.089 309.117 712.62 308.738 712.999" stroke="#294064" stroke-miterlimit="10" stroke-linecap="round"/>
<path d="M299.38 587.297C301.861 588.537 302.699 591.829 301.879 594.287" stroke="#294064" stroke-miterlimit="10" stroke-linecap="round"/>
<path d="M301.186 595.816C301.051 596.356 300.912 596.763 300.399 597.02" stroke="#294064" stroke-miterlimit="10" stroke-linecap="round"/>
<path d="M290.569 528.367C287.893 530.193 288.186 534.403 290.291 536.464" stroke="#294064" stroke-miterlimit="10" stroke-linecap="round"/>
<path d="M291.635 537.777C292.16 538.548 293.174 538.793 294.042 538.877" stroke="#294064" stroke-miterlimit="10" stroke-linecap="round"/>
<path d="M289.601 551.154C289.438 554.794 291.093 557.39 294.733 558.302" stroke="#294064" stroke-miterlimit="10" stroke-linecap="round"/>
<path fill-rule="evenodd" clip-rule="evenodd" d="M99.1203 733.449L93.3982 746.397H91.0033V733.449H71.7939L71.7946 733.449C68.5919 733.474 65.0309 734.102 62.2459 736.49C59.2494 739.058 58.2169 742.719 58.2169 746.478C58.2169 750.237 59.2468 753.91 62.2674 756.47C65.1195 758.888 68.7733 759.463 71.9946 759.463C72.0472 759.463 72.1038 759.463 72.1038 759.463C72.1049 759.463 72.1049 759.463 72.1056 759.463C72.1049 759.463 72.1052 759.463 72.1056 759.463L87.6906 759.459H101.955L103.799 755.301H105.198L107.034 759.459H126.071V756.025C126.229 756.177 126.393 756.326 126.564 756.47C129.416 758.888 133.07 759.463 136.291 759.463C136.44 759.463 136.588 759.461 136.737 759.459H167.566V733.449H99.1203Z" fill="#E1012E"/>
<path fill-rule="evenodd" clip-rule="evenodd" d="M99.1566 733.175L93.3991 746.393H90.9894V733.175H71.661L71.6618 733.176C68.4392 733.201 64.8563 733.842 62.054 736.279C59.0389 738.902 58 742.638 58 746.476C58 750.313 59.0363 754.063 62.0756 756.677C64.9454 759.145 68.6218 759.732 71.863 759.732C71.9159 759.732 71.9729 759.732 71.9729 759.732C71.974 759.732 71.974 759.732 71.9747 759.732C71.974 759.732 71.9743 759.732 71.9747 759.732L87.6562 759.728H102.008L103.864 755.483H105.272L107.12 759.728H126.274V756.222C126.433 756.377 126.598 756.529 126.77 756.677C129.64 759.145 133.317 759.732 136.558 759.732C136.707 759.732 136.856 759.73 137.006 759.728H168.026V733.175H99.1566ZM80.0375 749.538C80.0342 749.557 80.0305 749.575 80.0269 749.594C80.0192 749.636 80.0115 749.678 80.0031 749.719C79.9984 749.742 79.9933 749.764 79.9885 749.787C79.9809 749.824 79.9732 749.86 79.9652 749.896C79.9597 749.921 79.9535 749.946 79.9476 749.97C79.9396 750.003 79.9319 750.036 79.9235 750.069C79.9155 750.1 79.9075 750.131 79.8991 750.161C79.8929 750.185 79.8867 750.208 79.8801 750.231C79.8713 750.263 79.8618 750.293 79.8527 750.324C79.8461 750.346 79.8399 750.369 79.833 750.391C79.8231 750.422 79.8125 750.454 79.8023 750.486C79.7957 750.506 79.7892 750.527 79.7822 750.547C79.7705 750.581 79.7585 750.615 79.7461 750.649C79.7402 750.666 79.7344 750.683 79.7282 750.7C79.7096 750.75 79.6906 750.799 79.6708 750.848C79.6665 750.86 79.6617 750.87 79.657 750.881C79.6416 750.919 79.6259 750.957 79.6099 750.994C79.6015 751.013 79.5923 751.033 79.5839 751.052C79.5712 751.08 79.5587 751.109 79.5456 751.137C79.5357 751.158 79.5255 751.178 79.5153 751.199C79.5029 751.225 79.4905 751.251 79.4777 751.276C79.4667 751.297 79.4558 751.318 79.4444 751.339C79.4317 751.363 79.4192 751.388 79.4065 751.412C79.3948 751.433 79.3827 751.454 79.3707 751.476C79.3579 751.499 79.3451 751.522 79.3316 751.545C79.3192 751.566 79.3064 751.587 79.2936 751.608C79.2801 751.63 79.267 751.652 79.2535 751.674C79.2403 751.695 79.2272 751.715 79.2137 751.736C79.1998 751.757 79.1859 751.779 79.172 751.8C79.1582 751.821 79.1443 751.841 79.1304 751.861C79.1162 751.882 79.1019 751.903 79.0873 751.923C79.0731 751.943 79.0581 751.963 79.0435 751.983C79.0285 752.003 79.0139 752.023 78.9989 752.043C78.984 752.063 78.9686 752.082 78.9533 752.102C78.938 752.121 78.9226 752.141 78.9069 752.16C78.8912 752.179 78.8755 752.198 78.8595 752.217C78.8438 752.236 78.8277 752.255 78.8116 752.273C78.7952 752.292 78.7788 752.311 78.7623 752.329C78.7459 752.348 78.7295 752.366 78.7127 752.384C78.6959 752.402 78.6787 752.421 78.6615 752.439C78.6447 752.456 78.6276 752.474 78.6104 752.491C78.5929 752.509 78.5754 752.527 78.5578 752.544C78.5403 752.562 78.5228 752.579 78.5049 752.596C78.487 752.613 78.4687 752.63 78.4505 752.647C78.4322 752.664 78.414 752.681 78.3957 752.697C78.3771 752.714 78.3585 752.731 78.3398 752.747C78.3212 752.763 78.3022 752.78 78.2829 752.796C78.2639 752.812 78.2449 752.828 78.2255 752.844C78.2062 752.86 78.1865 752.876 78.1664 752.891C78.147 752.907 78.1273 752.922 78.1076 752.938C78.0875 752.953 78.0667 752.969 78.0462 752.984C78.0265 752.999 78.0064 753.014 77.9864 753.029C77.9655 753.044 77.944 753.059 77.9228 753.074C77.9024 753.088 77.8823 753.102 77.8618 753.117C77.8399 753.132 77.8176 753.146 77.7954 753.161C77.7749 753.174 77.7545 753.188 77.734 753.201C77.711 753.216 77.6877 753.231 77.6639 753.245C77.6435 753.258 77.623 753.271 77.6026 753.283C77.5781 753.298 77.5529 753.312 77.5281 753.327C77.508 753.339 77.4883 753.351 77.4678 753.362C77.4408 753.377 77.4131 753.392 77.3857 753.407C77.2294 753.493 77.0669 753.573 76.8978 753.648C75.6019 754.22 73.9228 754.478 71.8622 754.478C66.6131 754.478 63.5256 752.563 63.2696 747.217C63.258 746.977 63.2525 746.73 63.2525 746.475C63.2525 746.189 63.2598 745.912 63.2744 745.643C63.5614 740.381 66.6434 738.427 71.8622 738.427C73.906 738.427 75.5814 738.681 76.8752 739.248C77.061 739.329 77.2385 739.418 77.4083 739.512C77.4309 739.525 77.454 739.537 77.4766 739.55C77.5018 739.564 77.5266 739.579 77.5515 739.594C77.5734 739.607 77.5953 739.62 77.6168 739.633C77.6416 739.648 77.6661 739.664 77.6906 739.68C77.7114 739.693 77.7326 739.706 77.7534 739.72C77.7775 739.735 77.8009 739.751 77.8242 739.767C77.8447 739.781 77.8659 739.795 77.8859 739.809C77.9097 739.825 77.9327 739.843 77.956 739.859C77.9758 739.874 77.9955 739.888 78.0148 739.902C78.0382 739.919 78.0608 739.937 78.0839 739.955C78.1025 739.969 78.1215 739.983 78.1401 739.998C78.1624 740.016 78.1843 740.034 78.2065 740.052C78.2248 740.067 78.2434 740.082 78.2617 740.098C78.2829 740.115 78.3037 740.134 78.3249 740.153C78.3431 740.169 78.3617 740.184 78.3796 740.201C78.4001 740.219 78.4198 740.238 78.4399 740.256C78.4578 740.273 78.476 740.29 78.4936 740.306C78.5133 740.325 78.5323 740.345 78.5516 740.364C78.5688 740.381 78.5863 740.398 78.6035 740.416C78.6221 740.435 78.64 740.455 78.6583 740.474C78.6754 740.492 78.6929 740.51 78.7097 740.529C78.7273 740.548 78.7444 740.568 78.762 740.588C78.7788 740.607 78.7955 740.626 78.812 740.645C78.8288 740.665 78.8452 740.685 78.8616 740.706C78.8777 740.725 78.8945 740.745 78.9102 740.765C78.9263 740.785 78.942 740.806 78.9577 740.826C78.9734 740.847 78.9895 740.867 79.0048 740.888C79.0205 740.909 79.0351 740.93 79.0504 740.952C79.0654 740.973 79.0807 740.993 79.0953 741.015C79.1096 741.035 79.1231 741.056 79.137 741.078C79.1519 741.1 79.1673 741.123 79.1823 741.146C79.1954 741.166 79.2075 741.186 79.2202 741.207C79.2352 741.231 79.2505 741.255 79.2651 741.28C79.2776 741.3 79.2892 741.322 79.3017 741.343C79.3159 741.368 79.3305 741.392 79.3444 741.417C79.3561 741.438 79.3674 741.46 79.3787 741.481C79.3926 741.507 79.4065 741.532 79.4196 741.558C79.4306 741.58 79.4412 741.602 79.4517 741.623C79.4649 741.65 79.4784 741.676 79.4912 741.703C79.5014 741.725 79.5113 741.747 79.5215 741.769C79.5339 741.796 79.5467 741.823 79.5591 741.851C79.5686 741.873 79.5777 741.896 79.5872 741.918C79.5993 741.946 79.6113 741.974 79.623 742.003C79.6321 742.026 79.6409 742.05 79.65 742.073C79.661 742.102 79.6723 742.13 79.6829 742.159C79.6917 742.183 79.6997 742.207 79.7081 742.231C79.7183 742.26 79.7289 742.289 79.7388 742.318C79.7468 742.343 79.7541 742.367 79.7621 742.391C79.7716 742.421 79.7815 742.451 79.791 742.482C79.7986 742.507 79.8056 742.532 79.8129 742.558C79.8217 742.588 79.8308 742.618 79.8392 742.649C79.8465 742.676 79.8531 742.703 79.8604 742.73C79.868 742.76 79.8761 742.789 79.8834 742.819C79.8903 742.848 79.8965 742.877 79.9031 742.905C79.91 742.935 79.917 742.964 79.9235 742.994C79.9305 743.026 79.9367 743.058 79.9433 743.091C79.9487 743.118 79.9546 743.145 79.9601 743.173C79.9604 743.175 79.9611 743.178 79.9615 743.181C79.9714 743.232 79.9805 743.285 79.9893 743.338C79.9918 743.354 79.9944 743.37 79.9973 743.386C80.0039 743.428 80.0104 743.47 80.0166 743.512C80.0188 743.528 80.0214 743.544 80.0236 743.56C80.0316 743.617 80.0389 743.674 80.0459 743.732H76.8763C76.4717 741.507 74.8306 740.878 71.8633 740.878C68.559 740.878 66.4232 741.979 66.4232 745.643V747.217C66.4232 750.814 68.5137 752.027 71.8633 752.027C74.7182 752.027 76.3818 751.488 76.8989 749.352H80.0685C80.059 749.415 80.0488 749.476 80.0378 749.537L80.0375 749.538ZM95.2223 754.209H83.86H82.5888V738.698H85.7362V751.646H95.2227V754.209H95.2223ZM112.62 754.209H110.446L108.715 750.23H100.421L98.6899 754.209H95.7226L99.1777 746.393L102.579 738.698H106.895L112.62 751.693L113.729 754.21H112.62L112.62 754.209ZM127.359 741.261H123.473H121.02V754.209H117.874V741.261H111.534V738.698H127.36V741.261H127.359ZM144.697 749.726C144.696 749.73 144.695 749.733 144.695 749.737C144.683 749.793 144.671 749.849 144.659 749.904C144.657 749.913 144.655 749.921 144.652 749.93C144.641 749.98 144.629 750.029 144.617 750.077C144.612 750.095 144.607 750.111 144.603 750.128C144.594 750.165 144.584 750.201 144.573 750.237C144.568 750.257 144.562 750.276 144.557 750.295C144.547 750.328 144.537 750.362 144.527 750.395C144.52 750.417 144.513 750.438 144.506 750.46C144.496 750.49 144.487 750.52 144.477 750.55C144.468 750.576 144.458 750.601 144.449 750.627C144.441 750.652 144.432 750.677 144.423 750.701C144.405 750.751 144.386 750.8 144.366 750.849C144.363 750.857 144.359 750.865 144.357 750.873C144.34 750.914 144.323 750.955 144.305 750.996C144.299 751.01 144.292 751.024 144.286 751.038C144.271 751.072 144.256 751.106 144.24 751.139C144.233 751.155 144.225 751.171 144.217 751.188C144.202 751.218 144.187 751.248 144.173 751.278C144.164 751.296 144.155 751.313 144.145 751.33C144.131 751.358 144.116 751.386 144.101 751.415C144.091 751.432 144.081 751.45 144.071 751.468C144.056 751.494 144.041 751.521 144.026 751.547C144.016 751.565 144.005 751.583 143.994 751.601C143.979 751.626 143.964 751.652 143.948 751.676C143.937 751.695 143.925 751.713 143.913 751.731C143.898 751.755 143.882 751.779 143.867 751.802C143.854 751.821 143.842 751.839 143.829 751.857C143.813 751.88 143.797 751.903 143.781 751.925C143.768 751.944 143.755 751.962 143.742 751.98C143.726 752.002 143.709 752.024 143.693 752.045C143.679 752.063 143.665 752.082 143.651 752.1C143.634 752.121 143.618 752.141 143.601 752.162C143.586 752.18 143.571 752.198 143.556 752.216C143.54 752.236 143.523 752.256 143.506 752.275C143.491 752.293 143.475 752.311 143.459 752.329C143.442 752.348 143.425 752.366 143.408 752.385C143.391 752.403 143.374 752.421 143.357 752.439C143.341 752.457 143.324 752.474 143.306 752.492C143.289 752.51 143.271 752.528 143.253 752.545C143.236 752.562 143.219 752.579 143.201 752.596C143.183 752.614 143.164 752.631 143.145 752.649C143.128 752.665 143.11 752.681 143.093 752.696C143.073 752.714 143.054 752.732 143.034 752.749C143.016 752.764 142.999 752.779 142.981 752.794C142.961 752.811 142.94 752.829 142.919 752.846C142.901 752.86 142.884 752.875 142.866 752.888C142.845 752.906 142.823 752.923 142.801 752.94C142.784 752.953 142.766 752.967 142.748 752.98C142.725 752.997 142.703 753.014 142.679 753.031C142.662 753.043 142.645 753.056 142.628 753.068C142.603 753.085 142.579 753.102 142.554 753.119C142.538 753.13 142.521 753.141 142.503 753.153C142.478 753.17 142.452 753.187 142.426 753.204C142.41 753.214 142.393 753.224 142.377 753.234C142.349 753.251 142.322 753.269 142.294 753.285C142.279 753.294 142.264 753.303 142.248 753.312C142.219 753.33 142.189 753.347 142.159 753.365C142.147 753.371 142.134 753.378 142.121 753.385C141.952 753.479 141.776 753.567 141.593 753.648C140.297 754.22 138.618 754.478 136.557 754.478C131.308 754.478 128.221 752.564 127.965 747.217C127.954 746.977 127.948 746.73 127.948 746.476C127.948 746.14 127.958 745.816 127.978 745.504C127.979 745.485 127.981 745.466 127.982 745.447C127.985 745.401 127.989 745.354 127.993 745.308C127.995 745.282 127.997 745.257 127.999 745.231C128.002 745.187 128.006 745.143 128.011 745.099C128.013 745.073 128.016 745.047 128.019 745.02C128.023 744.977 128.028 744.934 128.033 744.891C128.035 744.869 128.038 744.847 128.041 744.825C128.05 744.745 128.061 744.666 128.071 744.587C128.075 744.56 128.079 744.533 128.083 744.506C128.088 744.468 128.094 744.431 128.1 744.393C128.105 744.364 128.11 744.334 128.115 744.305C128.121 744.269 128.127 744.233 128.133 744.197C128.139 744.167 128.144 744.136 128.15 744.106C128.157 744.072 128.163 744.038 128.169 744.004C128.176 743.969 128.184 743.935 128.191 743.901C128.201 743.852 128.212 743.803 128.223 743.754C128.231 743.717 128.24 743.679 128.249 743.641C128.256 743.612 128.263 743.583 128.27 743.554C128.279 743.521 128.287 743.488 128.296 743.456C128.303 743.427 128.311 743.398 128.319 743.37C128.328 743.337 128.337 743.304 128.347 743.271C128.354 743.244 128.362 743.217 128.37 743.191C128.382 743.151 128.394 743.112 128.406 743.074C128.413 743.054 128.419 743.033 128.425 743.013C128.443 742.959 128.461 742.905 128.48 742.852C128.487 742.83 128.495 742.809 128.503 742.787C128.515 742.752 128.528 742.716 128.541 742.682C128.55 742.659 128.559 742.637 128.567 742.614C128.581 742.58 128.594 742.546 128.608 742.512C128.616 742.491 128.625 742.47 128.633 742.45C128.65 742.409 128.667 742.368 128.685 742.328C128.69 742.316 128.696 742.303 128.701 742.29C128.725 742.238 128.748 742.186 128.773 742.135C128.78 742.121 128.787 742.106 128.794 742.092C128.812 742.054 128.831 742.017 128.849 741.981C128.858 741.963 128.867 741.946 128.876 741.929C128.894 741.894 128.912 741.86 128.931 741.826C128.94 741.81 128.948 741.794 128.957 741.778C128.98 741.739 129.002 741.699 129.025 741.66C129.03 741.651 129.035 741.642 129.041 741.633C129.069 741.585 129.099 741.537 129.129 741.489C129.134 741.481 129.139 741.473 129.144 741.465C129.169 741.427 129.194 741.388 129.22 741.35C129.229 741.337 129.237 741.324 129.246 741.312C129.27 741.276 129.295 741.241 129.32 741.206C129.326 741.197 129.332 741.188 129.339 741.179C129.371 741.135 129.404 741.091 129.436 741.048C129.438 741.047 129.439 741.045 129.44 741.044C129.471 741.003 129.503 740.964 129.535 740.925C129.543 740.914 129.551 740.904 129.56 740.894C129.588 740.86 129.617 740.826 129.646 740.793C129.652 740.786 129.658 740.779 129.664 740.772C129.698 740.733 129.733 740.693 129.769 740.655C129.776 740.647 129.784 740.639 129.791 740.632C129.82 740.601 129.849 740.57 129.879 740.54C129.889 740.53 129.899 740.52 129.909 740.511C129.944 740.475 129.981 740.439 130.017 740.404C130.019 740.403 130.019 740.402 130.02 740.401C130.058 740.366 130.097 740.33 130.136 740.295C130.146 740.286 130.156 740.277 130.166 740.268C130.197 740.241 130.228 740.214 130.26 740.188C130.269 740.18 130.279 740.172 130.288 740.164C130.328 740.13 130.369 740.098 130.41 740.065C130.416 740.06 130.423 740.055 130.429 740.05C130.464 740.023 130.499 739.996 130.535 739.97C130.547 739.961 130.559 739.952 130.571 739.943C130.606 739.917 130.643 739.891 130.679 739.866C130.686 739.861 130.693 739.856 130.699 739.851C130.742 739.822 130.786 739.793 130.83 739.764C130.84 739.756 130.851 739.75 130.862 739.743C130.897 739.72 130.932 739.698 130.967 739.676C130.98 739.669 130.992 739.661 131.004 739.654C131.049 739.626 131.095 739.599 131.141 739.573C131.144 739.571 131.146 739.57 131.15 739.568C131.193 739.543 131.237 739.519 131.281 739.495C131.294 739.488 131.308 739.481 131.322 739.473C131.359 739.454 131.396 739.434 131.434 739.415C131.445 739.409 131.457 739.403 131.468 739.398C131.516 739.374 131.564 739.35 131.612 739.327C131.624 739.322 131.636 739.316 131.647 739.311C131.686 739.293 131.725 739.276 131.763 739.258C131.779 739.251 131.794 739.245 131.81 739.238C131.853 739.219 131.896 739.201 131.94 739.182C131.948 739.179 131.955 739.176 131.963 739.173C132.013 739.152 132.063 739.132 132.115 739.113C132.131 739.107 132.147 739.101 132.163 739.094C132.201 739.08 132.239 739.066 132.278 739.052C132.294 739.047 132.311 739.04 132.327 739.035C132.379 739.016 132.431 738.999 132.483 738.982C132.495 738.978 132.508 738.974 132.521 738.97C133.67 738.597 135.02 738.427 136.556 738.427C138.6 738.427 140.275 738.681 141.569 739.248C141.767 739.335 141.956 739.429 142.136 739.531C142.147 739.537 142.159 739.543 142.17 739.549C142.207 739.571 142.243 739.593 142.28 739.614C142.29 739.621 142.3 739.626 142.31 739.632C142.347 739.655 142.383 739.678 142.419 739.702C142.428 739.708 142.437 739.713 142.446 739.719C142.482 739.742 142.517 739.766 142.552 739.79C142.561 739.796 142.57 739.802 142.579 739.808C142.613 739.832 142.647 739.857 142.68 739.881C142.69 739.888 142.699 739.894 142.708 739.901C142.741 739.926 142.774 739.951 142.806 739.977C142.815 739.984 142.824 739.99 142.833 739.997C142.865 740.022 142.895 740.047 142.925 740.073C142.935 740.081 142.945 740.088 142.955 740.097C142.984 740.122 143.012 740.147 143.041 740.172C143.051 740.181 143.062 740.19 143.072 740.199C143.1 740.224 143.127 740.25 143.154 740.276C143.165 740.286 143.176 740.295 143.186 740.306C143.212 740.33 143.237 740.356 143.262 740.381C143.273 740.393 143.285 740.404 143.296 740.415C143.319 740.439 143.342 740.464 143.365 740.488C143.377 740.502 143.39 740.515 143.402 740.528C143.424 740.552 143.444 740.576 143.465 740.599C143.478 740.615 143.492 740.629 143.505 740.645C143.524 740.667 143.542 740.691 143.561 740.713C143.575 740.73 143.589 740.748 143.603 740.765C143.62 740.787 143.637 740.809 143.654 740.831C143.669 740.85 143.684 740.869 143.698 740.888C143.714 740.91 143.728 740.931 143.743 740.952C143.758 740.974 143.774 740.994 143.789 741.016C143.803 741.036 143.816 741.056 143.83 741.077C143.845 741.1 143.861 741.123 143.876 741.146C143.888 741.165 143.9 741.185 143.912 741.205C143.928 741.23 143.944 741.255 143.959 741.28C143.969 741.299 143.98 741.317 143.991 741.336C144.006 741.363 144.022 741.39 144.037 741.417C144.048 741.436 144.058 741.456 144.068 741.475C144.083 741.503 144.098 741.53 144.113 741.559C144.123 741.579 144.133 741.6 144.143 741.62C144.157 741.648 144.171 741.675 144.184 741.703C144.194 741.725 144.204 741.747 144.214 741.769C144.227 741.796 144.24 741.824 144.252 741.851C144.263 741.876 144.273 741.901 144.283 741.926C144.294 741.952 144.305 741.977 144.315 742.003C144.328 742.034 144.339 742.066 144.351 742.097C144.359 742.118 144.367 742.138 144.375 742.158C144.389 742.196 144.402 742.235 144.415 742.274C144.42 742.288 144.426 742.303 144.431 742.318C144.448 742.369 144.464 742.421 144.48 742.474C144.481 742.476 144.482 742.478 144.483 742.48C144.549 742.7 144.606 742.93 144.652 743.171C144.654 743.185 144.657 743.199 144.659 743.212C144.667 743.251 144.674 743.29 144.68 743.329C144.684 743.351 144.687 743.374 144.691 743.396C144.697 743.432 144.702 743.468 144.707 743.503C144.71 743.523 144.713 743.543 144.716 743.563C144.724 743.618 144.731 743.675 144.738 743.731H141.568C141.163 741.506 139.523 740.876 136.555 740.876C134.911 740.876 133.557 741.149 132.61 741.874C132.61 741.874 132.609 741.875 132.609 741.875C132.582 741.896 132.555 741.917 132.529 741.939C132.526 741.941 132.523 741.943 132.52 741.946C132.495 741.966 132.47 741.988 132.445 742.01C132.441 742.013 132.438 742.016 132.434 742.019C132.41 742.039 132.387 742.061 132.363 742.083C132.359 742.087 132.354 742.091 132.35 742.095C132.328 742.116 132.306 742.137 132.284 742.159C132.279 742.164 132.274 742.168 132.269 742.173C132.248 742.194 132.227 742.216 132.207 742.237C132.201 742.243 132.196 742.249 132.19 742.255C132.171 742.276 132.152 742.297 132.132 742.319C132.127 742.326 132.12 742.332 132.114 742.339C132.096 742.36 132.078 742.382 132.06 742.403C132.054 742.411 132.047 742.418 132.041 742.427C132.024 742.447 132.008 742.469 131.991 742.49C131.984 742.499 131.977 742.508 131.97 742.517C131.954 742.538 131.939 742.559 131.924 742.58C131.917 742.59 131.909 742.6 131.902 742.61C131.887 742.63 131.874 742.651 131.859 742.672C131.852 742.684 131.844 742.695 131.836 742.706C131.823 742.726 131.81 742.747 131.797 742.768C131.789 742.78 131.781 742.792 131.773 742.805C131.761 742.825 131.749 742.846 131.737 742.867C131.729 742.88 131.721 742.893 131.713 742.907C131.702 742.927 131.691 742.948 131.68 742.968C131.672 742.983 131.664 742.997 131.656 743.012C131.646 743.032 131.635 743.052 131.625 743.073C131.617 743.089 131.609 743.105 131.601 743.121C131.592 743.14 131.582 743.161 131.573 743.181C131.565 743.198 131.557 743.215 131.549 743.232C131.54 743.252 131.532 743.273 131.524 743.292C131.516 743.311 131.508 743.328 131.5 743.347C131.492 743.367 131.485 743.387 131.477 743.407C131.469 743.426 131.462 743.445 131.454 743.465C131.447 743.484 131.44 743.504 131.433 743.524C131.426 743.545 131.418 743.565 131.411 743.586C131.405 743.606 131.398 743.626 131.392 743.645C131.385 743.667 131.378 743.688 131.371 743.71C131.365 743.73 131.359 743.75 131.353 743.77C131.347 743.793 131.34 743.815 131.333 743.838C131.328 743.857 131.323 743.878 131.317 743.897C131.311 743.921 131.305 743.944 131.299 743.969C131.294 743.989 131.289 744.009 131.284 744.03C131.278 744.054 131.272 744.078 131.267 744.103C131.262 744.123 131.258 744.145 131.254 744.165C131.248 744.191 131.243 744.215 131.238 744.241C131.234 744.262 131.23 744.283 131.226 744.304C131.222 744.33 131.217 744.356 131.212 744.382C131.209 744.404 131.205 744.425 131.202 744.447C131.198 744.474 131.193 744.5 131.189 744.527C131.186 744.549 131.183 744.572 131.18 744.594C131.176 744.621 131.172 744.648 131.169 744.676C131.166 744.699 131.164 744.723 131.161 744.746C131.158 744.773 131.155 744.8 131.152 744.827C131.149 744.852 131.148 744.877 131.145 744.903C131.142 744.929 131.14 744.956 131.138 744.983C131.136 745.009 131.134 745.036 131.132 745.063C131.13 745.09 131.129 745.116 131.127 745.142C131.125 745.171 131.124 745.201 131.122 745.231C131.121 745.255 131.12 745.28 131.119 745.305C131.117 745.34 131.117 745.376 131.116 745.412C131.115 745.432 131.114 745.451 131.114 745.471C131.113 745.527 131.113 745.584 131.113 745.641V747.215C131.113 750.812 133.203 752.026 136.552 752.026C139.408 752.026 141.071 751.486 141.588 749.35H144.758C144.738 749.477 144.716 749.601 144.691 749.722L144.697 749.726ZM162.772 754.21H159.625V747.533H150.431V754.21H148.555H147.284V738.698H150.431V744.97H159.625V738.698H162.773V754.209L162.772 754.21Z" fill="white"/>
<path fill-rule="evenodd" clip-rule="evenodd" d="M107.089 746.513L107.065 746.457L104.557 740.743L101.432 747.914H107.704L107.089 746.513Z" fill="white"/>
<path d="M186.914 737.3L189.664 734.3L201.014 744.5L212.364 734.35L215.114 737.3L204.064 747.2L215.114 757.05L212.364 760.05L201.014 749.9L189.664 760.05L186.964 757.05L197.964 747.2L186.914 737.3Z" fill="white"/>
<g clip-path="url(#clip1_1177_2035)">
<path d="M262.123 759H267.995C268.475 759 268.976 758.452 268.976 757.936V735.064C268.971 734.548 268.47 734 267.995 734H262.123C261.643 734 261.141 734.548 261.141 735.064V757.936C261.141 758.452 261.643 759 262.123 759Z" fill="white"/>
<path d="M240.785 759C241.297 759 241.829 758.452 241.829 757.936V749.915H245.483L250.18 758.468C250.306 758.676 250.702 759 251.224 759H258.01C258.553 759 258.814 758.399 258.532 757.936L251.746 746.197L258.532 735.064C258.85 734.601 258.568 734 258.01 734H250.702C250.18 734 249.784 734.34 249.659 734.532L244.961 743.005H241.829V735.064C241.819 734.553 241.297 734 240.785 734H235.044C234.522 734 234 734.527 234 735.037V757.936C234 758.452 234.532 759 235.044 759H240.785Z" fill="white"/>
<path d="M339.956 759C340.468 759 341 758.399 341 757.883V735.037C341 734.521 340.468 734 339.956 734H334.215C333.703 734 333.171 734.548 333.171 735.064V746.766L323.254 734H316.468C315.957 734 315.424 734.548 315.424 735.064V757.936C315.424 758.452 315.957 759 316.468 759H322.21C322.721 759 323.254 758.452 323.254 757.936V746.197L333.171 759H339.956Z" fill="white"/>
<path d="M273.152 759H311.254C311.818 759 312.298 758.505 312.298 757.936V735.064C312.298 734.495 311.818 734 311.254 734H273.152C272.588 734 272.108 734.495 272.108 735.064V757.936C272.108 758.505 272.588 759 273.152 759ZM280.459 740.383C282.818 740.851 287.74 740.92 292.344 740.91C297.114 740.899 301.89 740.798 303.947 740.383C304.15 740.34 304.469 740.378 304.469 740.91V751.532C304.469 752.085 304.14 752.085 303.947 752.064C301.911 751.809 297.099 751.883 292.344 751.867C287.537 751.856 282.463 751.787 280.459 752.085C280.261 752.112 279.937 752.106 279.937 751.553V740.915C279.937 740.383 280.261 740.346 280.459 740.383Z" fill="white"/>
</g>
</g>
<defs>
<radialGradient id="paint0_radial_1177_2035" cx="0" cy="0" r="1" gradientUnits="userSpaceOnUse" gradientTransform="translate(831 888) rotate(118.185) scale(847.513 524.456)">
<stop stop-color="#E7012A"/>
<stop offset="1" stop-color="#5815A3"/>
</radialGradient>
<clipPath id="clip0_1177_2035">
<path d="M0 0H414V841C414 852.046 405.046 861 394 861H20C8.95432 861 0 852.046 0 841V0Z" fill="white"/>
</clipPath>
<clipPath id="clip1_1177_2035">
<rect width="107" height="25" fill="white" transform="translate(234 734)"/>
</clipPath>
</defs>
</svg>
