<svg width="414" height="861" viewBox="0 0 414 861" fill="none" xmlns="http://www.w3.org/2000/svg">
<g clip-path="url(#clip0_1232_4609)">
<path d="M0 0H414V841C414 852.046 405.046 861 394 861H20C8.95432 861 0 852.046 0 841V0Z" fill="#EF6A82"/>
<g clip-path="url(#clip1_1232_4609)">
<path d="M0 0H414V841C414 852.046 405.046 861 394 861H20C8.95432 861 0 852.046 0 841V0Z" fill="#EF6A82"/>
<rect x="415" y="888" width="416" height="888" transform="rotate(-180 415 888)" fill="url(#paint0_radial_1232_4609)"/>
<path fill-rule="evenodd" clip-rule="evenodd" d="M99.1203 707.449L93.3982 720.397H91.0033V707.449H71.7939L71.7946 707.449C68.5919 707.474 65.0309 708.102 62.2459 710.49C59.2494 713.058 58.2169 716.719 58.2169 720.478C58.2169 724.237 59.2468 727.91 62.2674 730.47C65.1195 732.888 68.7733 733.463 71.9946 733.463C72.0472 733.463 72.1038 733.463 72.1038 733.463C72.1049 733.463 72.1049 733.463 72.1056 733.463C72.1049 733.463 72.1052 733.463 72.1056 733.463L87.6906 733.459H101.955L103.799 729.301H105.198L107.034 733.459H126.071V730.025C126.229 730.177 126.393 730.326 126.564 730.47C129.416 732.888 133.07 733.463 136.291 733.463C136.44 733.463 136.588 733.461 136.737 733.459H167.566V707.449H99.1203Z" fill="#E1012E"/>
<path fill-rule="evenodd" clip-rule="evenodd" d="M99.1566 707.175L93.3991 720.393H90.9894V707.175H71.661L71.6618 707.176C68.4392 707.201 64.8563 707.842 62.054 710.279C59.0389 712.902 58 716.638 58 720.476C58 724.313 59.0363 728.063 62.0756 730.677C64.9454 733.145 68.6218 733.732 71.863 733.732C71.9159 733.732 71.9729 733.732 71.9729 733.732C71.974 733.732 71.974 733.732 71.9747 733.732C71.974 733.732 71.9743 733.732 71.9747 733.732L87.6562 733.728H102.008L103.864 729.483H105.272L107.12 733.728H126.274V730.222C126.433 730.377 126.598 730.529 126.77 730.677C129.64 733.145 133.317 733.732 136.558 733.732C136.707 733.732 136.856 733.73 137.006 733.728H168.026V707.175H99.1566ZM80.0375 723.538C80.0342 723.557 80.0305 723.575 80.0269 723.594C80.0192 723.636 80.0115 723.678 80.0031 723.719C79.9984 723.742 79.9933 723.764 79.9885 723.787C79.9809 723.824 79.9732 723.86 79.9652 723.896C79.9597 723.921 79.9535 723.946 79.9476 723.97C79.9396 724.003 79.9319 724.036 79.9235 724.069C79.9155 724.1 79.9075 724.131 79.8991 724.161C79.8929 724.185 79.8867 724.208 79.8801 724.231C79.8713 724.263 79.8618 724.293 79.8527 724.324C79.8461 724.346 79.8399 724.369 79.833 724.391C79.8231 724.422 79.8125 724.454 79.8023 724.486C79.7957 724.506 79.7892 724.527 79.7822 724.547C79.7705 724.581 79.7585 724.615 79.7461 724.649C79.7402 724.666 79.7344 724.683 79.7282 724.7C79.7096 724.75 79.6906 724.799 79.6708 724.848C79.6665 724.86 79.6617 724.87 79.657 724.881C79.6416 724.919 79.6259 724.957 79.6099 724.994C79.6015 725.013 79.5923 725.033 79.5839 725.052C79.5712 725.08 79.5587 725.109 79.5456 725.137C79.5357 725.158 79.5255 725.178 79.5153 725.199C79.5029 725.225 79.4905 725.251 79.4777 725.276C79.4667 725.297 79.4558 725.318 79.4444 725.339C79.4317 725.363 79.4192 725.388 79.4065 725.412C79.3948 725.433 79.3827 725.454 79.3707 725.476C79.3579 725.499 79.3451 725.522 79.3316 725.545C79.3192 725.566 79.3064 725.587 79.2936 725.608C79.2801 725.63 79.267 725.652 79.2535 725.674C79.2403 725.695 79.2272 725.715 79.2137 725.736C79.1998 725.757 79.1859 725.779 79.172 725.8C79.1582 725.821 79.1443 725.841 79.1304 725.861C79.1162 725.882 79.1019 725.903 79.0873 725.923C79.0731 725.943 79.0581 725.963 79.0435 725.983C79.0285 726.003 79.0139 726.023 78.9989 726.043C78.984 726.063 78.9686 726.082 78.9533 726.102C78.938 726.121 78.9226 726.141 78.9069 726.16C78.8912 726.179 78.8755 726.198 78.8595 726.217C78.8438 726.236 78.8277 726.255 78.8116 726.273C78.7952 726.292 78.7788 726.311 78.7623 726.329C78.7459 726.348 78.7295 726.366 78.7127 726.384C78.6959 726.402 78.6787 726.421 78.6615 726.439C78.6447 726.456 78.6276 726.474 78.6104 726.491C78.5929 726.509 78.5754 726.527 78.5578 726.544C78.5403 726.562 78.5228 726.579 78.5049 726.596C78.487 726.613 78.4687 726.63 78.4505 726.647C78.4322 726.664 78.414 726.681 78.3957 726.697C78.3771 726.714 78.3585 726.731 78.3398 726.747C78.3212 726.763 78.3022 726.78 78.2829 726.796C78.2639 726.812 78.2449 726.828 78.2255 726.844C78.2062 726.86 78.1865 726.876 78.1664 726.891C78.147 726.907 78.1273 726.922 78.1076 726.938C78.0875 726.953 78.0667 726.969 78.0462 726.984C78.0265 726.999 78.0064 727.014 77.9864 727.029C77.9655 727.044 77.944 727.059 77.9228 727.074C77.9024 727.088 77.8823 727.102 77.8618 727.117C77.8399 727.132 77.8176 727.146 77.7954 727.161C77.7749 727.174 77.7545 727.188 77.734 727.201C77.711 727.216 77.6877 727.231 77.6639 727.245C77.6435 727.258 77.623 727.271 77.6026 727.283C77.5781 727.298 77.5529 727.312 77.5281 727.327C77.508 727.339 77.4883 727.351 77.4678 727.362C77.4408 727.377 77.4131 727.392 77.3857 727.407C77.2294 727.493 77.0669 727.573 76.8978 727.648C75.6019 728.22 73.9228 728.478 71.8622 728.478C66.6131 728.478 63.5256 726.563 63.2696 721.217C63.258 720.977 63.2525 720.73 63.2525 720.475C63.2525 720.189 63.2598 719.912 63.2744 719.643C63.5614 714.381 66.6434 712.427 71.8622 712.427C73.906 712.427 75.5814 712.681 76.8752 713.248C77.061 713.329 77.2385 713.418 77.4083 713.512C77.4309 713.525 77.454 713.537 77.4766 713.55C77.5018 713.564 77.5266 713.579 77.5515 713.594C77.5734 713.607 77.5953 713.62 77.6168 713.633C77.6416 713.648 77.6661 713.664 77.6906 713.68C77.7114 713.693 77.7326 713.706 77.7534 713.72C77.7775 713.735 77.8009 713.751 77.8242 713.767C77.8447 713.781 77.8659 713.795 77.8859 713.809C77.9097 713.825 77.9327 713.843 77.956 713.859C77.9758 713.874 77.9955 713.888 78.0148 713.902C78.0382 713.919 78.0608 713.937 78.0839 713.955C78.1025 713.969 78.1215 713.983 78.1401 713.998C78.1624 714.016 78.1843 714.034 78.2065 714.052C78.2248 714.067 78.2434 714.082 78.2617 714.098C78.2829 714.115 78.3037 714.134 78.3249 714.153C78.3431 714.169 78.3617 714.184 78.3796 714.201C78.4001 714.219 78.4198 714.238 78.4399 714.256C78.4578 714.273 78.476 714.29 78.4936 714.306C78.5133 714.325 78.5323 714.345 78.5516 714.364C78.5688 714.381 78.5863 714.398 78.6035 714.416C78.6221 714.435 78.64 714.455 78.6583 714.474C78.6754 714.492 78.6929 714.51 78.7097 714.529C78.7273 714.548 78.7444 714.568 78.762 714.588C78.7788 714.607 78.7955 714.626 78.812 714.645C78.8288 714.665 78.8452 714.685 78.8616 714.706C78.8777 714.725 78.8945 714.745 78.9102 714.765C78.9263 714.785 78.942 714.806 78.9577 714.826C78.9734 714.847 78.9895 714.867 79.0048 714.888C79.0205 714.909 79.0351 714.93 79.0504 714.952C79.0654 714.973 79.0807 714.993 79.0953 715.015C79.1096 715.035 79.1231 715.056 79.137 715.078C79.1519 715.1 79.1673 715.123 79.1823 715.146C79.1954 715.166 79.2075 715.186 79.2202 715.207C79.2352 715.231 79.2505 715.255 79.2651 715.28C79.2776 715.3 79.2892 715.322 79.3017 715.343C79.3159 715.368 79.3305 715.392 79.3444 715.417C79.3561 715.438 79.3674 715.46 79.3787 715.481C79.3926 715.507 79.4065 715.532 79.4196 715.558C79.4306 715.58 79.4412 715.602 79.4517 715.623C79.4649 715.65 79.4784 715.676 79.4912 715.703C79.5014 715.725 79.5113 715.747 79.5215 715.769C79.5339 715.796 79.5467 715.823 79.5591 715.851C79.5686 715.873 79.5777 715.896 79.5872 715.918C79.5993 715.946 79.6113 715.974 79.623 716.003C79.6321 716.026 79.6409 716.05 79.65 716.073C79.661 716.102 79.6723 716.13 79.6829 716.159C79.6917 716.183 79.6997 716.207 79.7081 716.231C79.7183 716.26 79.7289 716.289 79.7388 716.318C79.7468 716.343 79.7541 716.367 79.7621 716.391C79.7716 716.421 79.7815 716.451 79.791 716.482C79.7986 716.507 79.8056 716.532 79.8129 716.558C79.8217 716.588 79.8308 716.618 79.8392 716.649C79.8465 716.676 79.8531 716.703 79.8604 716.73C79.868 716.76 79.8761 716.789 79.8834 716.819C79.8903 716.848 79.8965 716.877 79.9031 716.905C79.91 716.935 79.917 716.964 79.9235 716.994C79.9305 717.026 79.9367 717.058 79.9433 717.091C79.9487 717.118 79.9546 717.145 79.9601 717.173C79.9604 717.175 79.9611 717.178 79.9615 717.181C79.9714 717.232 79.9805 717.285 79.9893 717.338C79.9918 717.354 79.9944 717.37 79.9973 717.386C80.0039 717.428 80.0104 717.47 80.0166 717.512C80.0188 717.528 80.0214 717.544 80.0236 717.56C80.0316 717.617 80.0389 717.674 80.0459 717.732H76.8763C76.4717 715.507 74.8306 714.878 71.8633 714.878C68.559 714.878 66.4232 715.979 66.4232 719.643V721.217C66.4232 724.814 68.5137 726.027 71.8633 726.027C74.7182 726.027 76.3818 725.488 76.8989 723.352H80.0685C80.059 723.415 80.0488 723.476 80.0378 723.537L80.0375 723.538ZM95.2223 728.209H83.86H82.5888V712.698H85.7362V725.646H95.2227V728.209H95.2223ZM112.62 728.209H110.446L108.715 724.23H100.421L98.6899 728.209H95.7226L99.1777 720.393L102.579 712.698H106.895L112.62 725.693L113.729 728.21H112.62L112.62 728.209ZM127.359 715.261H123.473H121.02V728.209H117.874V715.261H111.534V712.698H127.36V715.261H127.359ZM144.697 723.726C144.696 723.73 144.695 723.733 144.695 723.737C144.683 723.793 144.671 723.849 144.659 723.904C144.657 723.913 144.655 723.921 144.652 723.93C144.641 723.98 144.629 724.029 144.617 724.077C144.612 724.095 144.607 724.111 144.603 724.128C144.594 724.165 144.584 724.201 144.573 724.237C144.568 724.257 144.562 724.276 144.557 724.295C144.547 724.328 144.537 724.362 144.527 724.395C144.52 724.417 144.513 724.438 144.506 724.46C144.496 724.49 144.487 724.52 144.477 724.55C144.468 724.576 144.458 724.601 144.449 724.627C144.441 724.652 144.432 724.677 144.423 724.701C144.405 724.751 144.386 724.8 144.366 724.849C144.363 724.857 144.359 724.865 144.357 724.873C144.34 724.914 144.323 724.955 144.305 724.996C144.299 725.01 144.292 725.024 144.286 725.038C144.271 725.072 144.256 725.106 144.24 725.139C144.233 725.155 144.225 725.171 144.217 725.188C144.202 725.218 144.187 725.248 144.173 725.278C144.164 725.296 144.155 725.313 144.145 725.33C144.131 725.358 144.116 725.386 144.101 725.415C144.091 725.432 144.081 725.45 144.071 725.468C144.056 725.494 144.041 725.521 144.026 725.547C144.016 725.565 144.005 725.583 143.994 725.601C143.979 725.626 143.964 725.652 143.948 725.676C143.937 725.695 143.925 725.713 143.913 725.731C143.898 725.755 143.882 725.779 143.867 725.802C143.854 725.821 143.842 725.839 143.829 725.857C143.813 725.88 143.797 725.903 143.781 725.925C143.768 725.944 143.755 725.962 143.742 725.98C143.726 726.002 143.709 726.024 143.693 726.045C143.679 726.063 143.665 726.082 143.651 726.1C143.634 726.121 143.618 726.141 143.601 726.162C143.586 726.18 143.571 726.198 143.556 726.216C143.54 726.236 143.523 726.256 143.506 726.275C143.491 726.293 143.475 726.311 143.459 726.329C143.442 726.348 143.425 726.366 143.408 726.385C143.391 726.403 143.374 726.421 143.357 726.439C143.341 726.457 143.324 726.474 143.306 726.492C143.289 726.51 143.271 726.528 143.253 726.545C143.236 726.562 143.219 726.579 143.201 726.596C143.183 726.614 143.164 726.631 143.145 726.649C143.128 726.665 143.11 726.681 143.093 726.696C143.073 726.714 143.054 726.732 143.034 726.749C143.016 726.764 142.999 726.779 142.981 726.794C142.961 726.811 142.94 726.829 142.919 726.846C142.901 726.86 142.884 726.875 142.866 726.888C142.845 726.906 142.823 726.923 142.801 726.94C142.784 726.953 142.766 726.967 142.748 726.98C142.725 726.997 142.703 727.014 142.679 727.031C142.662 727.043 142.645 727.056 142.628 727.068C142.603 727.085 142.579 727.102 142.554 727.119C142.538 727.13 142.521 727.141 142.503 727.153C142.478 727.17 142.452 727.187 142.426 727.204C142.41 727.214 142.393 727.224 142.377 727.234C142.349 727.251 142.322 727.269 142.294 727.285C142.279 727.294 142.264 727.303 142.248 727.312C142.219 727.33 142.189 727.347 142.159 727.365C142.147 727.371 142.134 727.378 142.121 727.385C141.952 727.479 141.776 727.567 141.593 727.648C140.297 728.22 138.618 728.478 136.557 728.478C131.308 728.478 128.221 726.564 127.965 721.217C127.954 720.977 127.948 720.73 127.948 720.476C127.948 720.14 127.958 719.816 127.978 719.504C127.979 719.485 127.981 719.466 127.982 719.447C127.985 719.401 127.989 719.354 127.993 719.308C127.995 719.282 127.997 719.257 127.999 719.231C128.002 719.187 128.006 719.143 128.011 719.099C128.013 719.073 128.016 719.047 128.019 719.02C128.023 718.977 128.028 718.934 128.033 718.891C128.035 718.869 128.038 718.847 128.041 718.825C128.05 718.745 128.061 718.666 128.071 718.587C128.075 718.56 128.079 718.533 128.083 718.506C128.088 718.468 128.094 718.431 128.1 718.393C128.105 718.364 128.11 718.334 128.115 718.305C128.121 718.269 128.127 718.233 128.133 718.197C128.139 718.167 128.144 718.136 128.15 718.106C128.157 718.072 128.163 718.038 128.169 718.004C128.176 717.969 128.184 717.935 128.191 717.901C128.201 717.852 128.212 717.803 128.223 717.754C128.231 717.717 128.24 717.679 128.249 717.641C128.256 717.612 128.263 717.583 128.27 717.554C128.279 717.521 128.287 717.488 128.296 717.456C128.303 717.427 128.311 717.398 128.319 717.37C128.328 717.337 128.337 717.304 128.347 717.271C128.354 717.244 128.362 717.217 128.37 717.191C128.382 717.151 128.394 717.112 128.406 717.074C128.413 717.054 128.419 717.033 128.425 717.013C128.443 716.959 128.461 716.905 128.48 716.852C128.487 716.83 128.495 716.809 128.503 716.787C128.515 716.752 128.528 716.716 128.541 716.682C128.55 716.659 128.559 716.637 128.567 716.614C128.581 716.58 128.594 716.546 128.608 716.512C128.616 716.491 128.625 716.47 128.633 716.45C128.65 716.409 128.667 716.368 128.685 716.328C128.69 716.316 128.696 716.303 128.701 716.29C128.725 716.238 128.748 716.186 128.773 716.135C128.78 716.121 128.787 716.106 128.794 716.092C128.812 716.054 128.831 716.017 128.849 715.981C128.858 715.963 128.867 715.946 128.876 715.929C128.894 715.894 128.912 715.86 128.931 715.826C128.94 715.81 128.948 715.794 128.957 715.778C128.98 715.739 129.002 715.699 129.025 715.66C129.03 715.651 129.035 715.642 129.041 715.633C129.069 715.585 129.099 715.537 129.129 715.489C129.134 715.481 129.139 715.473 129.144 715.465C129.169 715.427 129.194 715.388 129.22 715.35C129.229 715.337 129.237 715.324 129.246 715.312C129.27 715.276 129.295 715.241 129.32 715.206C129.326 715.197 129.332 715.188 129.339 715.179C129.371 715.135 129.404 715.091 129.436 715.048C129.438 715.047 129.439 715.045 129.44 715.044C129.471 715.003 129.503 714.964 129.535 714.925C129.543 714.914 129.551 714.904 129.56 714.894C129.588 714.86 129.617 714.826 129.646 714.793C129.652 714.786 129.658 714.779 129.664 714.772C129.698 714.733 129.733 714.693 129.769 714.655C129.776 714.647 129.784 714.639 129.791 714.632C129.82 714.601 129.849 714.57 129.879 714.54C129.889 714.53 129.899 714.52 129.909 714.511C129.944 714.475 129.981 714.439 130.017 714.404C130.019 714.403 130.019 714.402 130.02 714.401C130.058 714.366 130.097 714.33 130.136 714.295C130.146 714.286 130.156 714.277 130.166 714.268C130.197 714.241 130.228 714.214 130.26 714.188C130.269 714.18 130.279 714.172 130.288 714.164C130.328 714.13 130.369 714.098 130.41 714.065C130.416 714.06 130.423 714.055 130.429 714.05C130.464 714.023 130.499 713.996 130.535 713.97C130.547 713.961 130.559 713.952 130.571 713.943C130.606 713.917 130.643 713.891 130.679 713.866C130.686 713.861 130.693 713.856 130.699 713.851C130.742 713.822 130.786 713.793 130.83 713.764C130.84 713.756 130.851 713.75 130.862 713.743C130.897 713.72 130.932 713.698 130.967 713.676C130.98 713.669 130.992 713.661 131.004 713.654C131.049 713.626 131.095 713.599 131.141 713.573C131.144 713.571 131.146 713.57 131.15 713.568C131.193 713.543 131.237 713.519 131.281 713.495C131.294 713.488 131.308 713.481 131.322 713.473C131.359 713.454 131.396 713.434 131.434 713.415C131.445 713.409 131.457 713.403 131.468 713.398C131.516 713.374 131.564 713.35 131.612 713.327C131.624 713.322 131.636 713.316 131.647 713.311C131.686 713.293 131.725 713.276 131.763 713.258C131.779 713.251 131.794 713.245 131.81 713.238C131.853 713.219 131.896 713.201 131.94 713.182C131.948 713.179 131.955 713.176 131.963 713.173C132.013 713.152 132.063 713.132 132.115 713.113C132.131 713.107 132.147 713.101 132.163 713.094C132.201 713.08 132.239 713.066 132.278 713.052C132.294 713.047 132.311 713.04 132.327 713.035C132.379 713.016 132.431 712.999 132.483 712.982C132.495 712.978 132.508 712.974 132.521 712.97C133.67 712.597 135.02 712.427 136.556 712.427C138.6 712.427 140.275 712.681 141.569 713.248C141.767 713.335 141.956 713.429 142.136 713.531C142.147 713.537 142.159 713.543 142.17 713.549C142.207 713.571 142.243 713.593 142.28 713.614C142.29 713.621 142.3 713.626 142.31 713.632C142.347 713.655 142.383 713.678 142.419 713.702C142.428 713.708 142.437 713.713 142.446 713.719C142.482 713.742 142.517 713.766 142.552 713.79C142.561 713.796 142.57 713.802 142.579 713.808C142.613 713.832 142.647 713.857 142.68 713.881C142.69 713.888 142.699 713.894 142.708 713.901C142.741 713.926 142.774 713.951 142.806 713.977C142.815 713.984 142.824 713.99 142.833 713.997C142.865 714.022 142.895 714.047 142.925 714.073C142.935 714.081 142.945 714.088 142.955 714.097C142.984 714.122 143.012 714.147 143.041 714.172C143.051 714.181 143.062 714.19 143.072 714.199C143.1 714.224 143.127 714.25 143.154 714.276C143.165 714.286 143.176 714.295 143.186 714.306C143.212 714.33 143.237 714.356 143.262 714.381C143.273 714.393 143.285 714.404 143.296 714.415C143.319 714.439 143.342 714.464 143.365 714.488C143.377 714.502 143.39 714.515 143.402 714.528C143.424 714.552 143.444 714.576 143.465 714.599C143.478 714.615 143.492 714.629 143.505 714.645C143.524 714.667 143.542 714.691 143.561 714.713C143.575 714.73 143.589 714.748 143.603 714.765C143.62 714.787 143.637 714.809 143.654 714.831C143.669 714.85 143.684 714.869 143.698 714.888C143.714 714.91 143.728 714.931 143.743 714.952C143.758 714.974 143.774 714.994 143.789 715.016C143.803 715.036 143.816 715.056 143.83 715.077C143.845 715.1 143.861 715.123 143.876 715.146C143.888 715.165 143.9 715.185 143.912 715.205C143.928 715.23 143.944 715.255 143.959 715.28C143.969 715.299 143.98 715.317 143.991 715.336C144.006 715.363 144.022 715.39 144.037 715.417C144.048 715.436 144.058 715.456 144.068 715.475C144.083 715.503 144.098 715.53 144.113 715.559C144.123 715.579 144.133 715.6 144.143 715.62C144.157 715.648 144.171 715.675 144.184 715.703C144.194 715.725 144.204 715.747 144.214 715.769C144.227 715.796 144.24 715.824 144.252 715.851C144.263 715.876 144.273 715.901 144.283 715.926C144.294 715.952 144.305 715.977 144.315 716.003C144.328 716.034 144.339 716.066 144.351 716.097C144.359 716.118 144.367 716.138 144.375 716.158C144.389 716.196 144.402 716.235 144.415 716.274C144.42 716.288 144.426 716.303 144.431 716.318C144.448 716.369 144.464 716.421 144.48 716.474C144.481 716.476 144.482 716.478 144.483 716.48C144.549 716.7 144.606 716.93 144.652 717.171C144.654 717.185 144.657 717.199 144.659 717.212C144.667 717.251 144.674 717.29 144.68 717.329C144.684 717.351 144.687 717.374 144.691 717.396C144.697 717.432 144.702 717.468 144.707 717.503C144.71 717.523 144.713 717.543 144.716 717.563C144.724 717.618 144.731 717.675 144.738 717.731H141.568C141.163 715.506 139.523 714.876 136.555 714.876C134.911 714.876 133.557 715.149 132.61 715.874C132.61 715.874 132.609 715.875 132.609 715.875C132.582 715.896 132.555 715.917 132.529 715.939C132.526 715.941 132.523 715.943 132.52 715.946C132.495 715.966 132.47 715.988 132.445 716.01C132.441 716.013 132.438 716.016 132.434 716.019C132.41 716.039 132.387 716.061 132.363 716.083C132.359 716.087 132.354 716.091 132.35 716.095C132.328 716.116 132.306 716.137 132.284 716.159C132.279 716.164 132.274 716.168 132.269 716.173C132.248 716.194 132.227 716.216 132.207 716.237C132.201 716.243 132.196 716.249 132.19 716.255C132.171 716.276 132.152 716.297 132.132 716.319C132.127 716.326 132.12 716.332 132.114 716.339C132.096 716.36 132.078 716.382 132.06 716.403C132.054 716.411 132.047 716.418 132.041 716.427C132.024 716.447 132.008 716.469 131.991 716.49C131.984 716.499 131.977 716.508 131.97 716.517C131.954 716.538 131.939 716.559 131.924 716.58C131.917 716.59 131.909 716.6 131.902 716.61C131.887 716.63 131.874 716.651 131.859 716.672C131.852 716.684 131.844 716.695 131.836 716.706C131.823 716.726 131.81 716.747 131.797 716.768C131.789 716.78 131.781 716.792 131.773 716.805C131.761 716.825 131.749 716.846 131.737 716.867C131.729 716.88 131.721 716.893 131.713 716.907C131.702 716.927 131.691 716.948 131.68 716.968C131.672 716.983 131.664 716.997 131.656 717.012C131.646 717.032 131.635 717.052 131.625 717.073C131.617 717.089 131.609 717.105 131.601 717.121C131.592 717.14 131.582 717.161 131.573 717.181C131.565 717.198 131.557 717.215 131.549 717.232C131.54 717.252 131.532 717.273 131.524 717.292C131.516 717.311 131.508 717.328 131.5 717.347C131.492 717.367 131.485 717.387 131.477 717.407C131.469 717.426 131.462 717.445 131.454 717.465C131.447 717.484 131.44 717.504 131.433 717.524C131.426 717.545 131.418 717.565 131.411 717.586C131.405 717.606 131.398 717.626 131.392 717.645C131.385 717.667 131.378 717.688 131.371 717.71C131.365 717.73 131.359 717.75 131.353 717.77C131.347 717.793 131.34 717.815 131.333 717.838C131.328 717.857 131.323 717.878 131.317 717.897C131.311 717.921 131.305 717.944 131.299 717.969C131.294 717.989 131.289 718.009 131.284 718.03C131.278 718.054 131.272 718.078 131.267 718.103C131.262 718.123 131.258 718.145 131.254 718.165C131.248 718.191 131.243 718.215 131.238 718.241C131.234 718.262 131.23 718.283 131.226 718.304C131.222 718.33 131.217 718.356 131.212 718.382C131.209 718.404 131.205 718.425 131.202 718.447C131.198 718.474 131.193 718.5 131.189 718.527C131.186 718.549 131.183 718.572 131.18 718.594C131.176 718.621 131.172 718.648 131.169 718.676C131.166 718.699 131.164 718.723 131.161 718.746C131.158 718.773 131.155 718.8 131.152 718.827C131.149 718.852 131.148 718.877 131.145 718.903C131.142 718.929 131.14 718.956 131.138 718.983C131.136 719.009 131.134 719.036 131.132 719.063C131.13 719.09 131.129 719.116 131.127 719.142C131.125 719.171 131.124 719.201 131.122 719.231C131.121 719.255 131.12 719.28 131.119 719.305C131.117 719.34 131.117 719.376 131.116 719.412C131.115 719.432 131.114 719.451 131.114 719.471C131.113 719.527 131.113 719.584 131.113 719.641V721.215C131.113 724.812 133.203 726.026 136.552 726.026C139.408 726.026 141.071 725.486 141.588 723.35H144.758C144.738 723.477 144.716 723.601 144.691 723.722L144.697 723.726ZM162.772 728.21H159.625V721.533H150.431V728.21H148.555H147.284V712.698H150.431V718.97H159.625V712.698H162.773V728.209L162.772 728.21Z" fill="white"/>
<path fill-rule="evenodd" clip-rule="evenodd" d="M107.089 720.513L107.065 720.457L104.557 714.743L101.432 721.914H107.704L107.089 720.513Z" fill="white"/>
<path d="M186.914 711.3L189.664 708.3L201.014 718.5L212.364 708.35L215.114 711.3L204.064 721.2L215.114 731.05L212.364 734.05L201.014 723.9L189.664 734.05L186.964 731.05L197.964 721.2L186.914 711.3Z" fill="white"/>
<g clip-path="url(#clip2_1232_4609)">
<path d="M262.123 733H267.995C268.475 733 268.976 732.452 268.976 731.936V709.064C268.971 708.548 268.47 708 267.995 708H262.123C261.643 708 261.141 708.548 261.141 709.064V731.936C261.141 732.452 261.643 733 262.123 733Z" fill="white"/>
<path d="M240.785 733C241.297 733 241.829 732.452 241.829 731.936V723.915H245.483L250.18 732.468C250.306 732.676 250.702 733 251.224 733H258.01C258.553 733 258.814 732.399 258.532 731.936L251.746 720.197L258.532 709.064C258.85 708.601 258.568 708 258.01 708H250.702C250.18 708 249.784 708.34 249.659 708.532L244.961 717.005H241.829V709.064C241.819 708.553 241.297 708 240.785 708H235.044C234.522 708 234 708.527 234 709.037V731.936C234 732.452 234.532 733 235.044 733H240.785Z" fill="white"/>
<path d="M339.956 733C340.468 733 341 732.399 341 731.883V709.037C341 708.521 340.468 708 339.956 708H334.215C333.703 708 333.171 708.548 333.171 709.064V720.766L323.254 708H316.468C315.957 708 315.424 708.548 315.424 709.064V731.936C315.424 732.452 315.957 733 316.468 733H322.21C322.721 733 323.254 732.452 323.254 731.936V720.197L333.171 733H339.956Z" fill="white"/>
<path d="M273.152 733H311.254C311.818 733 312.298 732.505 312.298 731.936V709.064C312.298 708.495 311.818 708 311.254 708H273.152C272.588 708 272.108 708.495 272.108 709.064V731.936C272.108 732.505 272.588 733 273.152 733ZM280.459 714.383C282.818 714.851 287.74 714.92 292.344 714.91C297.114 714.899 301.89 714.798 303.947 714.383C304.15 714.34 304.469 714.378 304.469 714.91V725.532C304.469 726.085 304.14 726.085 303.947 726.064C301.911 725.809 297.099 725.883 292.344 725.867C287.537 725.856 282.463 725.787 280.459 726.085C280.261 726.112 279.937 726.106 279.937 725.553V714.915C279.937 714.383 280.261 714.346 280.459 714.383Z" fill="white"/>
</g>
<path d="M120.941 405.702C120.645 405.734 120.348 405.823 120.072 405.977C118.967 406.596 118.574 407.993 119.192 409.098C119.2 409.113 119.797 410.212 120.034 410.657C120.713 411.935 121.471 413.402 122.289 415.045C124.63 419.744 126.979 424.875 129.184 430.256C132.738 438.927 135.562 447.395 137.374 455.342C137.953 457.879 138.414 460.335 138.767 462.7C133.104 461.858 127.485 464.184 122.355 470.035C118.383 474.566 115.792 480.255 115.256 485.588C114.666 491.462 116.598 496.468 121.022 499.203C125.93 502.238 131.261 501.096 135.674 496.777C139.45 493.081 142.328 487.267 143.432 481.231C144.077 477.699 144.27 473.833 144.072 469.697C148.013 472.312 151.802 476.727 154.766 481.869C160.129 491.174 163.464 501.768 165.144 513.968C166.576 524.365 166.807 535.66 166.115 549.52C165.817 555.497 165.438 560.751 164.638 570.746C163.686 582.638 163.392 586.707 163.094 592.553C162.694 600.405 162.622 607.076 162.945 613.205C163.716 627.856 166.758 639.321 172.909 648.471C173.615 649.523 175.038 649.8 176.089 649.093C177.14 648.388 177.417 646.963 176.711 645.913C171.088 637.55 168.257 626.858 167.525 612.967C167.212 607.015 167.277 600.493 167.67 592.788C167.965 587.004 168.261 582.953 169.21 571.109C170.013 561.07 170.397 555.789 170.699 549.755C171.404 535.632 171.165 524.066 169.688 513.341C167.932 500.589 164.417 489.434 158.737 479.579C154.849 472.834 149.654 467.143 144.047 464.381C143.893 464.305 143.739 464.247 143.584 464.176C143.195 461.027 142.625 457.745 141.845 454.324C139.972 446.105 137.068 437.4 133.425 428.512C131.174 423.021 128.784 417.798 126.395 413.003C125.558 411.324 124.777 409.814 124.08 408.502C123.835 408.041 123.205 406.886 123.193 406.865C122.73 406.037 121.829 405.604 120.941 405.702ZM135.886 467.131C137.028 467.059 138.173 467.217 139.326 467.517C139.729 472.25 139.621 476.575 138.922 480.401C137.981 485.546 135.529 490.507 132.467 493.505C129.445 496.463 126.366 497.119 123.434 495.305C120.655 493.587 119.387 490.313 119.816 486.052C120.254 481.698 122.447 476.891 125.807 473.059C129.167 469.226 132.507 467.342 135.886 467.131Z" fill="#18D0CB" stroke="#294064" stroke-miterlimit="10" stroke-linecap="round"/>
<path d="M220.955 447.185C219.69 447.207 218.682 448.252 218.704 449.518C218.705 449.55 218.772 452.781 218.834 455.075C218.93 458.556 219.052 462.353 219.207 466.373C219.634 477.489 220.229 488.53 221.008 498.844C221.727 508.334 222.573 516.786 223.568 523.933C225.643 538.85 228.474 552.798 231.861 565.688C234.265 574.83 236.804 582.91 239.324 589.843C240.207 592.278 241.029 594.396 241.763 596.192C242.022 596.824 242.251 597.371 242.448 597.833C242.571 598.114 242.658 598.305 242.706 598.407C243.227 599.561 244.584 600.076 245.738 599.555C246.892 599.033 247.4 597.674 246.878 596.523C246.871 596.505 246.724 596.168 246.661 596.018C246.474 595.582 246.252 595.059 246.005 594.454C245.293 592.715 244.495 590.655 243.634 588.279C241.16 581.471 238.667 573.532 236.301 564.53C232.959 551.81 230.161 538.034 228.111 523.299C227.131 516.26 226.292 507.9 225.58 498.498C224.804 488.246 224.213 477.262 223.789 466.199C223.635 462.195 223.512 458.416 223.417 454.95C223.356 452.67 223.289 449.467 223.288 449.436C223.266 448.17 222.223 447.162 220.955 447.185Z" fill="#18D0CB" stroke="#294064" stroke-miterlimit="10" stroke-linecap="round"/>
<path d="M268.566 400.099C267.673 400.138 266.85 400.699 266.52 401.589C266.509 401.618 265.878 403.359 265.632 404.05C264.932 406.023 264.158 408.278 263.323 410.783C260.937 417.938 258.562 425.655 256.363 433.649C253.566 443.807 251.26 453.678 249.594 462.988C247.434 475.068 246.434 485.797 246.799 494.845C247.507 512.363 250.771 527.178 256.068 537.986C259.16 544.291 262.91 549.073 267.076 552.157C264.94 578.463 272.974 616.152 286.353 634.404C287.101 635.424 288.53 635.651 289.553 634.903C290.574 634.155 290.8 632.717 290.052 631.697C277.705 614.852 270.053 579.755 271.486 554.745C272.939 555.357 274.434 555.775 275.954 555.984C286.639 557.458 296.7 551.449 302.21 541.78C307.647 532.241 306.997 521.855 299.281 517.13C294.313 514.085 288.272 514.629 282.765 518.382C277.362 522.067 272.797 528.571 269.951 536.871C268.953 539.787 268.201 543.107 267.671 546.706C264.955 544.115 262.413 540.524 260.181 535.972C255.188 525.786 252.064 511.578 251.381 494.656C251.03 485.985 252.005 475.568 254.112 463.789C255.748 454.629 258.019 444.892 260.779 434.861C262.957 426.95 265.313 419.314 267.673 412.233C268.5 409.756 269.267 407.525 269.956 405.58C270.198 404.9 270.807 403.214 270.816 403.19C271.259 402.003 270.658 400.686 269.473 400.244C269.175 400.134 268.864 400.086 268.566 400.099ZM292.565 519.748C294.082 519.79 295.54 520.209 296.884 521.034C299.502 522.637 300.929 525.239 301.139 528.596C301.351 531.946 300.318 535.84 298.23 539.506C293.583 547.658 285.25 552.64 276.583 551.443C275.01 551.226 273.444 550.678 271.914 549.85C272.4 545.583 273.155 541.662 274.288 538.358C278.362 526.471 285.997 519.564 292.565 519.748Z" fill="#18D0CB" stroke="#294064" stroke-miterlimit="10" stroke-linecap="round"/>
<path d="M173.502 375.099C172.261 375.348 171.454 376.561 171.703 377.802C181.893 428.538 185.745 457.332 186.52 486.631C186.769 496.052 186.722 505.751 186.432 518.774C186.294 524.915 185.557 551.259 185.386 558.313C185.27 563.095 185.174 567.72 185.085 572.353C185.061 573.619 186.06 574.669 187.326 574.693C188.592 574.717 189.642 573.712 189.666 572.445C189.755 567.817 189.858 563.199 189.974 558.423C190.145 551.383 190.882 525.037 191.019 518.88C191.312 505.788 191.354 496.013 191.103 486.506C190.322 456.908 186.435 427.871 176.198 376.899C175.949 375.658 174.743 374.85 173.502 375.099Z" fill="#0FB8B4" stroke="#294064" stroke-miterlimit="10" stroke-linecap="round"/>
<path d="M215.63 607.633C227.851 608.639 235.338 611.312 244.172 603.752C253.005 596.194 264.763 577.359 250.61 575.513C244.065 574.659 239.021 591.254 234.798 591.518C222.406 592.295 217.98 592.812 205.574 592.481" fill="#FAD9AC"/>
<path d="M215.63 607.633C227.851 608.639 235.338 611.312 244.172 603.752C253.005 596.194 264.763 577.359 250.61 575.513C244.065 574.659 239.021 591.254 234.798 591.518C222.406 592.295 217.98 592.812 205.574 592.481" stroke="#294064" stroke-miterlimit="10" stroke-linecap="round"/>
<path d="M224.717 654.84C234.151 664.115 243.405 673.579 253.018 682.667C256.891 686.328 263.877 692.7 269.866 693.479C278.129 694.554 277.188 686.792 273.649 682.239C262.062 667.334 248.888 656.597 235.714 643.527" fill="#FFF2E0"/>
<path d="M224.717 654.84C234.151 664.115 243.405 673.579 253.018 682.667C256.891 686.328 263.877 692.7 269.866 693.479C278.129 694.554 277.188 686.792 273.649 682.239C262.062 667.334 248.888 656.597 235.714 643.527" stroke="#294064" stroke-miterlimit="10" stroke-linecap="round"/>
<path d="M247.777 631.836C256.244 636.702 283.101 639.782 293.878 637.259C314.83 632.353 301.624 618.041 286.828 622.373C282.034 623.777 276.851 621.752 271.888 621.184C264.351 620.322 256.851 618.961 249.271 618.628" fill="#FAD9AC"/>
<path d="M247.777 631.836C256.244 636.702 283.101 639.782 293.878 637.259C314.83 632.353 301.624 618.041 286.828 622.373C282.034 623.777 276.851 621.752 271.888 621.184C264.351 620.322 256.851 618.961 249.271 618.628" stroke="#294064" stroke-miterlimit="10" stroke-linecap="round"/>
<path d="M175.787 595.24C180.592 607.241 183.735 619.235 190.267 630.572C194.548 638.003 205.574 655.635 215.082 657.753C229.898 661.055 252.343 637.559 253.193 623.769C253.882 612.602 240.507 609.802 233.127 604.829C228.439 601.671 223.73 598.199 220.212 593.728C217.067 589.734 214.438 584.074 209.428 582.106C203.872 579.924 197.526 580.365 191.885 581.439C186.982 582.372 182.247 584.053 177.513 585.632" fill="#FFF2E0"/>
<path d="M175.787 595.24C180.592 607.241 183.735 619.235 190.267 630.572C194.548 638.003 205.574 655.635 215.082 657.753C229.898 661.055 252.343 637.559 253.193 623.769C253.882 612.602 240.507 609.802 233.127 604.829C228.439 601.671 223.73 598.199 220.212 593.728C217.067 589.734 214.438 584.074 209.428 582.106C203.872 579.924 197.526 580.365 191.885 581.439C186.982 582.372 182.247 584.053 177.513 585.632" stroke="#294064" stroke-miterlimit="10" stroke-linecap="round"/>
<path d="M221.227 608.842C221.279 608.761 221.315 608.656 221.337 608.527C221.36 608.397 221.372 608.275 221.373 608.164C221.368 606.175 221.199 604.349 220.865 602.684C220.531 601.019 220.021 599.572 219.333 598.344C218.645 597.115 217.767 596.162 216.697 595.483C216.03 595.06 215.352 594.779 214.662 594.64C213.972 594.502 213.303 594.493 212.657 594.614C212.01 594.735 211.414 594.979 210.87 595.348C210.327 595.718 209.867 596.199 209.491 596.791C209.026 597.523 208.804 598.286 208.824 599.081C208.845 599.875 209.244 600.454 208.887 600.964C208.481 601.545 207.852 601.452 207.123 601.77C206.393 602.088 205.794 602.616 205.326 603.354C204.95 603.946 204.712 604.565 204.611 605.212C204.51 605.859 204.542 606.503 204.706 607.142C204.871 607.781 205.162 608.383 205.582 608.948C206.001 609.514 206.544 610.008 207.211 610.431C208.28 611.109 209.517 611.498 210.921 611.598C212.325 611.697 213.853 611.543 215.503 611.132C217.153 610.723 218.879 610.097 220.68 609.255C220.781 609.206 220.886 609.144 220.994 609.069C221.101 608.993 221.18 608.918 221.227 608.842Z" fill="#E1012E" stroke="#294064" stroke-miterlimit="10" stroke-linecap="round"/>
<path d="M132.879 555.903C132.879 530.894 153.153 510.62 178.162 510.62C203.171 510.62 223.444 530.894 223.444 555.903C223.444 580.911 203.171 601.184 178.162 601.184C153.153 601.184 132.879 580.911 132.879 555.903Z" fill="#FFF2E0" stroke="#294064" stroke-miterlimit="10" stroke-linecap="round"/>
<path d="M144.351 564.258C144.351 558.099 149.344 553.106 155.503 553.106C161.662 553.106 166.655 558.099 166.655 564.258C166.655 570.417 161.662 575.41 155.503 575.41C149.344 575.41 144.351 570.417 144.351 564.258Z" fill="#A360E7" stroke="#294064" stroke-miterlimit="10" stroke-linecap="round"/>
<path d="M193.205 541.041C193.205 534.882 198.198 529.889 204.357 529.889C210.516 529.889 215.509 534.882 215.509 541.041C215.509 547.199 210.516 552.192 204.357 552.192C198.198 552.192 193.205 547.199 193.205 541.041Z" fill="#A360E7" stroke="#294064" stroke-miterlimit="10" stroke-linecap="round"/>
<path d="M198.476 539.976C198.332 539.015 198.994 538.119 199.955 537.975C200.916 537.831 201.811 538.493 201.955 539.453C202.099 540.414 201.437 541.31 200.477 541.454C199.516 541.598 198.62 540.936 198.476 539.976Z" fill="#FFF2E0" stroke="#294064" stroke-miterlimit="10" stroke-linecap="round"/>
<path d="M204.217 536.741C204.072 535.78 204.734 534.884 205.695 534.74C206.656 534.596 207.552 535.258 207.696 536.219C207.84 537.179 207.178 538.075 206.217 538.219C205.256 538.363 204.361 537.701 204.217 536.741Z" fill="#FFF2E0" stroke="#294064" stroke-miterlimit="10" stroke-linecap="round"/>
<path d="M201.824 545.487C201.68 544.526 202.342 543.631 203.303 543.487C204.264 543.342 205.159 544.004 205.303 544.965C205.448 545.926 204.786 546.822 203.825 546.966C202.864 547.11 201.968 546.448 201.824 545.487Z" fill="#FFF2E0" stroke="#294064" stroke-miterlimit="10" stroke-linecap="round"/>
<path d="M207.21 542.251C207.066 541.29 207.728 540.394 208.689 540.25C209.65 540.106 210.545 540.768 210.69 541.729C210.833 542.69 210.171 543.585 209.21 543.729C208.25 543.874 207.354 543.212 207.21 542.251Z" fill="#FFF2E0" stroke="#294064" stroke-miterlimit="10" stroke-linecap="round"/>
<path d="M149.697 563.478C149.553 562.518 150.215 561.622 151.175 561.478C152.136 561.334 153.032 561.996 153.176 562.956C153.32 563.917 152.658 564.813 151.697 564.957C150.737 565.101 149.841 564.439 149.697 563.478Z" fill="#FFF2E0" stroke="#294064" stroke-miterlimit="10" stroke-linecap="round"/>
<path d="M155.437 560.244C155.293 559.283 155.955 558.387 156.916 558.243C157.877 558.099 158.772 558.761 158.917 559.722C159.061 560.683 158.399 561.578 157.438 561.723C156.477 561.867 155.581 561.205 155.437 560.244Z" fill="#FFF2E0" stroke="#294064" stroke-miterlimit="10" stroke-linecap="round"/>
<path d="M153.045 568.99C152.901 568.029 153.563 567.134 154.524 566.989C155.484 566.845 156.38 567.507 156.524 568.468C156.668 569.429 156.006 570.325 155.046 570.469C154.085 570.613 153.189 569.951 153.045 568.99Z" fill="#FFF2E0" stroke="#294064" stroke-miterlimit="10" stroke-linecap="round"/>
<path d="M158.431 565.754C158.287 564.793 158.949 563.897 159.909 563.753C160.87 563.609 161.766 564.271 161.91 565.232C162.054 566.192 161.392 567.088 160.432 567.232C159.471 567.377 158.575 566.715 158.431 565.754Z" fill="#FFF2E0" stroke="#294064" stroke-miterlimit="10" stroke-linecap="round"/>
<path d="M202.864 568.194C195.535 565.982 181.407 571.856 180.105 583.026" stroke="#294064" stroke-miterlimit="10" stroke-linecap="round"/>
<path d="M198.502 571.315C198.018 568.658 197.252 565.986 196.443 563.413" stroke="#294064" stroke-miterlimit="10" stroke-linecap="round"/>
<path d="M192.089 572.916C190.275 571.235 189.021 569.163 187.456 567.271" stroke="#294064" stroke-miterlimit="10" stroke-linecap="round"/>
<path d="M184.798 577.781C183.184 576.935 181.757 575.658 180.141 574.774" stroke="#294064" stroke-miterlimit="10" stroke-linecap="round"/>
<path d="M199.692 628.41C199.692 628.41 202.744 634.423 204.094 636.525C207.875 642.406 212.717 647.549 219.303 650.506" stroke="#294064" stroke-miterlimit="10" stroke-linecap="round"/>
<path d="M138.598 551.689C137.724 537.141 151.955 522.227 165.192 518.913" stroke="#294064" stroke-miterlimit="10" stroke-linecap="round"/>
<path d="M227.694 652.144C227.856 652.68 228.256 653.113 228.527 653.603C228.972 654.412 229.219 655.326 229.769 656.074" stroke="#294064" stroke-miterlimit="10" stroke-linecap="round"/>
<path d="M230.574 650.82C230.574 650.82 231.306 651.723 231.449 651.875C232.167 652.634 232.885 653.393 233.603 654.153" stroke="#294064" stroke-miterlimit="10" stroke-linecap="round"/>
<path d="M191.069 612.654C180.892 601.118 173.78 621.196 171.669 632.098C170.08 640.303 150.983 627.74 148.374 640.309C145.496 654.181 173.882 653.623 180.457 650.503C187.86 646.992 190.977 636.279 190.977 636.279C190.977 636.279 196.627 618.958 191.069 612.654Z" fill="#FAD9AC" stroke="#294064" stroke-miterlimit="10" stroke-linecap="round"/>
<path d="M233.638 649.562C234.578 650.557 235.785 651.421 236.808 652.337" stroke="#294064" stroke-miterlimit="10" stroke-linecap="round"/>
<path d="M236.32 647.513C236.561 648.311 237.627 649.224 238.094 649.968" stroke="#294064" stroke-miterlimit="10" stroke-linecap="round"/>
<path d="M189.684 627.074C190.777 627.817 191.893 628.562 193.08 629.148" stroke="#294064" stroke-miterlimit="10" stroke-linecap="round"/>
<path d="M190.939 624.021C191.978 624.223 193.019 624.429 194.072 624.537" stroke="#294064" stroke-miterlimit="10" stroke-linecap="round"/>
<path d="M190.66 619.003C191.21 618.633 193.91 618.009 194.559 618.004" stroke="#294064" stroke-miterlimit="10" stroke-linecap="round"/>
<path d="M190.505 614.639C191.584 614.406 192.593 613.692 193.58 613.198" stroke="#294064" stroke-miterlimit="10" stroke-linecap="round"/>
<path d="M188.117 611.096C188.08 610.816 189.597 608.811 189.892 608.428" stroke="#294064" stroke-miterlimit="10" stroke-linecap="round"/>
<path d="M156.907 558.267C156.398 558.313 156.024 558.765 156.07 559.273C156.244 561.177 155.9 563.692 155.231 565.718C155.015 566.37 154.728 567.105 154.401 567.847C154.404 567.839 154.401 567.84 154.397 567.847C154.39 567.861 154.379 567.881 154.365 567.906C154.34 567.95 154.26 568.089 154.26 568.089C154.117 568.333 154.078 568.402 154.033 568.496C153.992 568.585 153.965 568.652 153.945 568.765C153.93 568.859 153.931 568.859 153.938 569.034C153.955 569.147 153.953 569.148 154.007 569.3C154.094 569.471 154.095 569.471 154.263 569.641C154.468 569.782 154.467 569.782 154.683 569.841C154.876 569.863 154.875 569.862 155.014 569.844C155.136 569.823 155.232 569.785 155.319 569.736C155.432 569.672 155.494 569.618 155.572 569.536C155.603 569.502 155.636 569.463 155.673 569.418C155.772 569.3 155.823 569.165 155.854 569.024V569.021C155.856 569.016 156.048 568.694 156.093 568.591C156.443 567.799 156.753 567.012 156.988 566.299C157.734 564.043 158.108 561.277 157.91 559.106C157.864 558.597 157.415 558.22 156.907 558.267Z" fill="white" stroke="#294064" stroke-miterlimit="10" stroke-linecap="round"/>
<path d="M205.831 534.535C205.711 534.533 205.589 534.554 205.471 534.601C204.996 534.789 204.761 535.326 204.949 535.801C205.591 537.421 205.336 539.684 204.438 542.718C204.281 543.246 204.066 543.756 203.808 544.24C203.606 544.619 203.393 544.958 203.178 545.253C203.104 545.355 203.034 545.443 202.975 545.516C202.955 545.54 202.915 545.588 202.916 545.588C202.576 545.97 202.61 546.554 202.991 546.893C203.373 547.233 203.957 547.2 204.297 546.818C204.321 546.79 204.361 546.746 204.411 546.684C204.491 546.585 204.58 546.471 204.674 546.342C204.937 545.981 205.197 545.568 205.441 545.109C205.755 544.52 206.018 543.896 206.212 543.243C206.644 541.785 206.927 540.542 207.065 539.327C207.246 537.72 207.143 536.311 206.671 535.119C206.53 534.763 206.192 534.544 205.831 534.535Z" fill="white" stroke="#294064" stroke-miterlimit="10" stroke-linecap="round"/>
<path d="M194.4 542.98C194.896 545.652 196.448 548.197 199.69 550.084C202.932 551.971 206.556 550.721 207.368 550.527" stroke="#294064" stroke-miterlimit="10" stroke-linecap="round"/>
<path d="M208.16 550.062C210.537 549.002 212.201 547.3 213.289 544.917" stroke="#294064" stroke-miterlimit="10" stroke-linecap="round"/>
<path d="M146.523 559.815C146.523 559.815 145.345 562.471 145.684 565.441C145.916 567.474 147.316 571.185 150.5 572.57" stroke="#294064" stroke-miterlimit="10" stroke-linecap="round"/>
<path d="M151.707 573.365C153.777 574.681 156.773 574.695 159.034 573.597" stroke="#294064" stroke-miterlimit="10" stroke-linecap="round"/>
<path d="M230.017 602.753C236.589 607.996 240.935 618.169 242.245 627.052C243.378 634.731 243.316 641.89 238.318 648.062" stroke="#294064" stroke-miterlimit="10" stroke-linecap="round"/>
<path d="M240.675 640.492C241.576 640.457 242.466 640.62 243.358 640.586" stroke="#294064" stroke-miterlimit="10" stroke-linecap="round"/>
<path d="M241.55 636.241C242.243 635.979 242.981 635.887 243.718 635.858" stroke="#294064" stroke-miterlimit="10" stroke-linecap="round"/>
<path d="M240.882 630.56C240.882 630.56 242.953 631.229 243.345 631.407" stroke="#294064" stroke-miterlimit="10" stroke-linecap="round"/>
<path d="M239.641 625.498C240.721 625.09 241.647 624.439 242.709 624.039" stroke="#294064" stroke-miterlimit="10" stroke-linecap="round"/>
<path d="M237.919 618.272C238.79 618.606 239.964 618.552 240.914 618.75" stroke="#294064" stroke-miterlimit="10" stroke-linecap="round"/>
<path d="M236.155 613.775C237.285 613.349 238.285 612.637 239.417 612.209" stroke="#294064" stroke-miterlimit="10" stroke-linecap="round"/>
<path d="M234.078 608.896C233.614 608.914 234.789 608.897 235.021 608.909C235.668 608.942 236.31 609.007 236.958 608.981" stroke="#294064" stroke-miterlimit="10" stroke-linecap="round"/>
<path d="M209.08 610.08C208.455 611.071 207.982 612.189 207.399 613.214" stroke="#294064" stroke-miterlimit="10" stroke-linecap="round"/>
<path d="M211.594 610.732C211.594 610.732 211.489 611.232 211.439 611.483C211.306 612.145 211.192 612.752 211.125 613.425" stroke="#294064" stroke-miterlimit="10" stroke-linecap="round"/>
<path d="M217.426 610.024C217.567 610.647 217.753 611.244 217.846 611.879" stroke="#294064" stroke-miterlimit="10" stroke-linecap="round"/>
<path d="M219.893 604.71C220.669 604.413 222.53 603.765 223.359 603.847" stroke="#294064" stroke-miterlimit="10" stroke-linecap="round"/>
<path d="M220.436 603.273C220.962 602.842 221.429 602.425 221.971 602.017" stroke="#294064" stroke-miterlimit="10" stroke-linecap="round"/>
<path d="M203.606 605.506C204.355 605.506 205.13 605.628 205.894 605.628" stroke="#294064" stroke-miterlimit="10" stroke-linecap="round"/>
<path d="M214.764 593.939C214.721 594.588 214.605 595.345 214.764 595.982" stroke="#294064" stroke-miterlimit="10" stroke-linecap="round"/>
<path d="M216.603 594.593C216.406 595.383 216.241 596.292 215.991 597.045" stroke="#294064" stroke-miterlimit="10" stroke-linecap="round"/>
<path d="M251.121 631.362C258.953 633.48 274.563 636.522 286.369 636.22C295.009 635.998 298.703 633.949 301.223 631.706C302.452 630.612 303.79 627.811 302.283 626.322" stroke="#294064" stroke-miterlimit="10" stroke-linecap="round"/>
<path d="M301.118 632.941C301.813 632.044 300.671 630.703 300.684 629.843" stroke="#294064" stroke-miterlimit="10" stroke-linecap="round"/>
<path d="M296.482 635.468C296.601 634.612 296.475 632.454 296.365 631.595" stroke="#294064" stroke-miterlimit="10" stroke-linecap="round"/>
<path d="M291.74 636.699C291.74 636.699 291.884 635.432 291.887 635.208C291.899 634.39 291.604 633.562 291.762 632.754" stroke="#294064" stroke-miterlimit="10" stroke-linecap="round"/>
<path d="M285.329 636.98C285.329 636.98 286.722 634.545 286.861 634.256" stroke="#294064" stroke-miterlimit="10" stroke-linecap="round"/>
<path d="M281.299 637.268C281.299 637.268 279.953 634.459 279.957 634.21" stroke="#294064" stroke-miterlimit="10" stroke-linecap="round"/>
<path d="M275.7 637.187C275.715 636.24 276.327 635.334 276.541 634.401" stroke="#294064" stroke-miterlimit="10" stroke-linecap="round"/>
<path d="M271.066 636.908C271.264 635.896 270.587 634.916 270.602 633.889" stroke="#294064" stroke-miterlimit="10" stroke-linecap="round"/>
<path d="M265.562 635.788C265.562 635.788 265.949 634.873 266.003 634.782C266.309 634.263 266.548 633.733 266.747 633.166" stroke="#294064" stroke-miterlimit="10" stroke-linecap="round"/>
<path d="M260.96 635.029C260.911 633.908 260.918 632.828 260.689 631.719" stroke="#294064" stroke-miterlimit="10" stroke-linecap="round"/>
<path d="M255.034 633.716C255.659 633.196 256.414 632.481 257.005 631.905" stroke="#294064" stroke-miterlimit="10" stroke-linecap="round"/>
<path d="M209.784 554.099C212.803 551.255 216.71 550.501 218.512 552.414C220.314 554.326 219.328 558.182 216.31 561.025C213.292 563.869 209.383 564.624 207.582 562.711C205.78 560.798 206.766 556.942 209.784 554.099Z" fill="#FF5F80" stroke="#294064" stroke-miterlimit="10" stroke-linecap="round"/>
<path d="M163.577 584.992C167.563 583.847 170.206 580.871 169.48 578.346C168.754 575.82 164.935 574.701 160.949 575.846C156.964 576.992 154.321 579.968 155.047 582.493C155.773 585.019 159.592 586.138 163.577 584.992Z" fill="#FF5F80" stroke="#294064" stroke-miterlimit="10" stroke-linecap="round"/>
<path d="M158.496 583.471C158.238 584.501 157.959 585.491 157.623 586.499" stroke="#294064" stroke-miterlimit="10" stroke-linecap="round"/>
<path d="M161.583 584.053C161.583 584.964 161.589 585.725 161.7 586.615" stroke="#294064" stroke-miterlimit="10" stroke-linecap="round"/>
<path d="M166.942 574.326C166.558 575.093 166.158 575.948 165.952 576.771" stroke="#294064" stroke-miterlimit="10" stroke-linecap="round"/>
<path d="M167.525 577.471C168.109 577.004 168.986 576.481 169.738 576.481" stroke="#294064" stroke-miterlimit="10" stroke-linecap="round"/>
<path d="M156.223 579.859C154.874 579.667 153.401 579.722 152.089 579.394" stroke="#294064" stroke-miterlimit="10" stroke-linecap="round"/>
<path d="M210.014 562.186C209.726 563.048 209.65 563.976 209.36 564.847" stroke="#294064" stroke-miterlimit="10" stroke-linecap="round"/>
<path d="M213.636 561.75C213.683 562.607 213.71 563.502 213.984 564.323" stroke="#294064" stroke-miterlimit="10" stroke-linecap="round"/>
<path d="M217.3 558.259C217.754 558.827 218.522 559.183 219.088 559.655" stroke="#294064" stroke-miterlimit="10" stroke-linecap="round"/>
<path d="M217.387 553.023C217.982 552.031 218.66 551.096 219.48 550.275" stroke="#294064" stroke-miterlimit="10" stroke-linecap="round"/>
<path d="M205.608 557.256C205.876 557.525 208.006 557.593 208.617 557.648" stroke="#294064" stroke-miterlimit="10" stroke-linecap="round"/>
<path d="M259.21 423.949C258.793 425.208 258.31 427.314 258.31 427.314C258.31 427.314 259.457 430.101 261.786 431.136C262.958 427.437 264.603 421.875 264.502 418.015" fill="#294064"/>
<path d="M259.21 423.949C258.793 425.208 258.31 427.314 258.31 427.314C258.31 427.314 259.457 430.101 261.786 431.136C262.958 427.437 264.603 421.875 264.502 418.015" stroke="#294064" stroke-miterlimit="10" stroke-linecap="round"/>
<path d="M219.316 465.31L219.489 469.441C219.489 469.441 221.236 471.931 223.88 472.163C223.88 472.163 223.68 464.263 223.374 462.991" fill="#294064"/>
<path d="M219.316 465.31L219.489 469.441C219.489 469.441 221.236 471.931 223.88 472.163C223.88 472.163 223.68 464.263 223.374 462.991" stroke="#294064" stroke-miterlimit="10" stroke-linecap="round"/>
<path d="M180.678 426.568C181.026 428.164 181.56 431.656 181.56 431.656C181.56 431.656 183.307 434.212 186.449 435.309C186.449 435.309 185.278 425.78 184.601 422.57" fill="#294064"/>
<path d="M180.678 426.568C181.026 428.164 181.56 431.656 181.56 431.656C181.56 431.656 183.307 434.212 186.449 435.309C186.449 435.309 185.278 425.78 184.601 422.57" stroke="#294064" stroke-miterlimit="10" stroke-linecap="round"/>
<path d="M128.039 427.228L130.513 432.994C130.513 432.994 132.594 434.393 135.384 433.771C135.384 433.771 132.019 425.115 131.416 423.859" fill="#294064"/>
<path d="M128.039 427.228L130.513 432.994C130.513 432.994 132.594 434.393 135.384 433.771C135.384 433.771 132.019 425.115 131.416 423.859" stroke="#294064" stroke-miterlimit="10" stroke-linecap="round"/>
<path d="M182.658 365.732C182.22 364.995 181.416 364.556 180.559 364.59L151.499 358.387C149.746 358.458 148.741 367.74 149.621 369.258L167.832 400.69C168.721 402.225 167.639 404.151 165.866 404.19L97.8398 398.326C96.0027 398.366 95.0579 407.771 96.0753 409.302L108.451 427.919C108.895 428.587 109.652 428.98 110.453 428.959L181.731 427.111C182.583 427.089 183.381 427.535 183.807 428.274L205.81 466.261C206.231 466.989 207.013 467.433 207.855 467.424L238.578 467.061C240.372 467.039 243.093 458.185 242.18 456.641L220.45 429.579C219.542 428.048 220.616 426.107 222.395 426.061L289.434 424.323C291.453 424.27 294.596 415.462 293.206 413.998L274.171 402.584C273.719 402.107 273.085 401.843 272.428 401.858L206.278 403.306C205.437 403.324 204.651 402.887 204.223 402.163L182.658 365.732Z" fill="#FFF2E0" stroke="#294064" stroke-miterlimit="10"/>
<path d="M184.064 356.968C183.626 356.23 182.819 355.791 181.963 355.826L152.95 356.995C151.196 357.066 150.147 358.975 151.026 360.493L169.237 391.926C170.127 393.461 169.044 395.387 167.271 395.426L99.3708 396.915C97.5338 396.956 96.4632 399.007 97.4806 400.537L109.857 419.155C110.301 419.823 111.057 420.216 111.859 420.195L183.134 418.347C183.989 418.325 184.785 418.771 185.213 419.509L207.216 457.496C207.637 458.225 208.419 458.669 209.261 458.659L239.984 458.296C241.776 458.275 242.875 456.321 241.962 454.777L221.854 420.814C220.949 419.283 222.022 417.342 223.801 417.296L290.84 415.558C292.857 415.506 293.861 413.087 292.471 411.623L275.575 393.82C275.123 393.343 274.491 393.079 273.834 393.094L207.684 394.542C206.843 394.56 206.057 394.123 205.627 393.398L184.064 356.968Z" fill="white" stroke="#294064" stroke-miterlimit="10"/>
<path d="M110.655 407.576C110.607 405.279 114.752 403.329 119.914 403.221C125.076 403.114 129.3 404.889 129.348 407.186C129.396 409.483 125.25 411.432 120.088 411.54C114.926 411.648 110.702 409.873 110.655 407.576Z" fill="#A360E7" stroke="#294064" stroke-miterlimit="10"/>
<path d="M257.107 404.52C257.06 402.223 261.206 400.273 266.369 400.165C271.531 400.058 275.755 401.832 275.803 404.13C275.851 406.427 271.704 408.376 266.543 408.484C261.379 408.592 257.155 406.817 257.107 404.52Z" fill="#A360E7" stroke="#294064" stroke-miterlimit="10"/>
<path d="M162.666 365.563C162.618 363.266 166.764 361.316 171.926 361.208C177.088 361.101 181.31 362.876 181.358 365.173C181.406 367.47 177.261 369.419 172.1 369.527C166.938 369.635 162.714 367.86 162.666 365.563Z" fill="#A360E7" stroke="#294064" stroke-miterlimit="10"/>
<path d="M212.247 448.813C212.199 446.516 216.343 444.567 221.506 444.459C226.668 444.351 230.892 446.126 230.94 448.423C230.988 450.72 226.841 452.67 221.68 452.778C216.516 452.885 212.295 451.111 212.247 448.813Z" fill="#A360E7" stroke="#294064" stroke-miterlimit="10"/>
<path d="M165.428 368.105L177.958 362.368" stroke="#294064" stroke-miterlimit="10" stroke-linecap="round"/>
<path d="M164.513 363.467L180.315 366.724" stroke="#294064" stroke-miterlimit="10" stroke-linecap="round"/>
<path d="M113.735 410.365L125.841 404.141" stroke="#294064" stroke-miterlimit="10" stroke-linecap="round"/>
<path d="M112.242 405.349L128.214 408.782" stroke="#294064" stroke-miterlimit="10" stroke-linecap="round"/>
<path d="M260.323 401.691L273.023 406.646" stroke="#294064" stroke-miterlimit="10" stroke-linecap="round"/>
<path d="M259.234 407.1L272.08 401.238" stroke="#294064" stroke-miterlimit="10" stroke-linecap="round"/>
<path d="M214.337 446.251L228.411 450.764" stroke="#294064" stroke-miterlimit="10" stroke-linecap="round"/>
<path d="M215.024 450.946L228.41 446.105" stroke="#294064" stroke-miterlimit="10" stroke-linecap="round"/>
<path d="M262.735 591.856C262.687 591.633 262.616 591.407 262.531 591.187C261.952 589.704 260.585 588.478 258.881 587.821C254.73 586.22 249.495 586.763 246.158 589.492C245.32 590.177 245.204 591.243 245.704 592.104C245.951 592.53 246.307 592.869 246.779 593.207C247.022 593.384 247.291 593.557 247.588 593.729C247.876 593.893 248.173 594.05 248.486 594.206C248.643 594.283 248.921 594.417 248.914 594.413C248.882 594.397 250.472 595.24 250.98 595.495C252.803 596.418 254.26 596.995 255.699 597.27C257.743 597.665 259.562 597.368 261.032 596.173C262.48 594.996 263.073 593.422 262.735 591.856ZM259.563 592.682C259.578 592.991 259.413 593.29 258.978 593.641C258.344 594.156 257.492 594.298 256.313 594.072C255.24 593.866 254.029 593.38 252.453 592.582C251.975 592.342 250.401 591.518 250.411 591.524C250.367 591.5 250.051 591.346 249.933 591.287C249.831 591.238 249.748 591.19 249.653 591.139C252.011 589.998 255.15 589.878 257.707 590.863C258.606 591.209 259.276 591.805 259.494 592.369C259.538 592.476 259.558 592.579 259.563 592.682Z" fill="#0FB8B4" stroke="#294064" stroke-width="0.710761" stroke-miterlimit="10" stroke-linecap="round"/>
<path d="M163.732 655.81C163.473 656.834 163.401 657.876 163.564 658.822C164.005 661.39 166.047 662.941 169.081 662.781C171.016 662.679 172.614 661.708 173.762 660.129C174.668 658.884 175.265 657.296 175.529 655.64C175.796 653.965 175.697 652.261 175.339 650.599C175.2 649.951 175.027 649.347 174.842 648.805C174.775 648.612 174.712 648.443 174.652 648.291C174.613 648.193 174.58 648.111 174.559 648.064L173.798 646.337L172.086 647.136C172.016 647.17 171.902 647.227 171.748 647.306C171.501 647.433 171.226 647.581 170.93 647.75C170.088 648.23 169.23 648.789 168.4 649.43C167.041 650.479 165.884 651.638 165.022 652.919C164.435 653.792 163.991 654.789 163.732 655.81ZM167.344 656.636C167.5 656.069 167.756 655.485 168.094 654.983C168.71 654.067 169.59 653.18 170.657 652.357C171.015 652.081 171.388 651.869 171.757 651.626C171.982 652.79 172.051 653.956 171.876 655.053C171.499 657.423 170.347 659.008 168.89 659.085C167.689 659.146 167.325 658.874 167.208 658.193C167.133 657.755 167.189 657.206 167.344 656.636Z" fill="#0FB8B4" stroke="#294064" stroke-width="0.806958" stroke-miterlimit="10" stroke-linecap="round"/>
<path d="M161.514 642.182C160.489 642.428 159.533 642.849 158.771 643.434C156.702 645.018 156.281 647.547 157.833 650.16C158.823 651.825 160.425 652.787 162.358 653.07C163.882 653.292 165.565 653.083 167.155 652.545C168.761 652 170.222 651.122 171.528 650.033C172.038 649.607 172.492 649.173 172.884 648.757C173.024 648.607 173.144 648.474 173.251 648.348C173.321 648.269 173.376 648.203 173.409 648.161L174.584 646.683L173.079 645.541C173.017 645.494 172.914 645.42 172.772 645.32C172.546 645.16 172.287 644.986 171.999 644.802C171.181 644.282 170.287 643.783 169.334 643.344C167.775 642.629 166.209 642.146 164.673 641.979C163.629 641.865 162.539 641.936 161.514 642.182ZM162.464 645.764C163.039 645.638 163.675 645.592 164.276 645.658C165.374 645.777 166.569 646.144 167.793 646.706C168.205 646.894 168.566 647.125 168.952 647.337C168.027 648.079 167.028 648.682 165.974 649.039C163.701 649.806 161.762 649.526 161.017 648.269C160.402 647.236 160.475 646.787 161.023 646.365C161.377 646.097 161.889 645.891 162.464 645.764Z" fill="#18D0CB" stroke="#294064" stroke-width="0.806958" stroke-miterlimit="10" stroke-linecap="round"/>
<path d="M255.35 581.086C255.549 580.112 255.572 579.123 255.38 578.237C254.852 575.829 252.856 574.456 249.998 574.736C248.177 574.914 246.709 575.898 245.694 577.44C244.891 578.656 244.396 580.179 244.218 581.756C244.038 583.346 244.204 584.95 244.613 586.506C244.772 587.112 244.963 587.674 245.159 588.177C245.231 588.357 245.299 588.514 245.361 588.657C245.402 588.748 245.436 588.823 245.46 588.866L246.252 590.463L247.833 589.635C247.899 589.601 248.003 589.542 248.146 589.461C248.372 589.332 248.626 589.18 248.898 589.007C249.674 588.516 250.458 587.952 251.215 587.312C252.454 586.264 253.496 585.119 254.254 583.872C254.771 583.024 255.148 582.062 255.35 581.086ZM251.902 580.463C251.78 581.004 251.563 581.568 251.266 582.056C250.722 582.948 249.931 583.822 248.958 584.645C248.631 584.922 248.289 585.138 247.951 585.383C247.689 584.293 247.573 583.197 247.691 582.151C247.946 579.899 248.966 578.353 250.339 578.219C251.47 578.108 251.826 578.35 251.965 578.987C252.054 579.398 252.026 579.919 251.902 580.463Z" fill="#18D0CB" stroke="#294064" stroke-width="0.762695" stroke-miterlimit="10" stroke-linecap="round"/>
<path d="M168.344 629.557C167.078 629.563 166.052 630.588 166.056 631.856C166.092 640.979 172.081 651.036 179.772 653.551C180.975 653.946 182.271 653.29 182.664 652.088C183.058 650.883 182.403 649.587 181.2 649.195C175.57 647.352 170.67 639.131 170.642 631.839C170.637 630.573 169.61 629.553 168.344 629.557Z" fill="#53FFFA" stroke="#294064" stroke-miterlimit="10" stroke-linecap="round"/>
<path d="M238.847 582.782C237.959 582.893 237.177 583.521 236.918 584.435C236.57 585.653 237.277 586.922 238.495 587.268C239.944 587.68 242.46 590.235 244.336 593.431C246.314 596.799 247.117 600.031 246.463 601.662C245.992 602.836 246.561 604.173 247.736 604.646C248.911 605.116 250.247 604.547 250.72 603.373C252.037 600.089 250.92 595.582 248.293 591.106C245.875 586.988 242.6 583.669 239.752 582.858C239.447 582.77 239.142 582.747 238.847 582.782Z" fill="#53FFFA" stroke="#294064" stroke-miterlimit="10" stroke-linecap="round"/>
<path d="M281.121 618.606C280.538 618.65 279.97 618.919 279.556 619.4C278.73 620.357 278.836 621.806 279.795 622.632C283.256 625.616 285.483 633.693 284.277 638.652C283.98 639.883 284.732 641.121 285.963 641.419C287.191 641.719 288.43 640.966 288.73 639.736C290.324 633.17 287.612 623.319 282.788 619.16C282.31 618.746 281.707 618.564 281.121 618.606Z" fill="#53FFFA" stroke="#294064" stroke-miterlimit="10" stroke-linecap="round"/>
<path d="M267.182 551.43C267.28 548.957 267.792 546.05 267.792 546.05" stroke="#294064" stroke-miterlimit="10" stroke-linecap="round"/>
<path d="M271.525 554.265C271.576 552.116 272.009 549.003 272.009 549.003" stroke="#294064" stroke-miterlimit="10" stroke-linecap="round"/>
<path d="M139.359 467.089C139.195 464.266 138.717 462.064 138.717 462.064" stroke="#294064" stroke-miterlimit="10" stroke-linecap="round"/>
<path d="M143.985 469.279C143.872 466.771 143.493 463.583 143.493 463.583" stroke="#294064" stroke-miterlimit="10" stroke-linecap="round"/>
<path d="M109.888 428.036L110.526 421.893" stroke="#294064" stroke-miterlimit="10" stroke-linecap="round"/>
<path d="M183.061 426.019L183.288 419.755" stroke="#294064" stroke-miterlimit="10" stroke-linecap="round"/>
<path d="M207.377 466.383L207.895 459.916" stroke="#294064" stroke-miterlimit="10" stroke-linecap="round"/>
<path d="M280.778 413.495L254.079 414.185" stroke="#294064" stroke-miterlimit="10" stroke-linecap="round"/>
<path d="M248.471 414.204L234.473 414.733" stroke="#294064" stroke-miterlimit="10" stroke-linecap="round"/>
<path d="M156.842 366.344L171.33 390.43" stroke="#294064" stroke-miterlimit="10" stroke-linecap="round"/>
</g>
</g>
<defs>
<radialGradient id="paint0_radial_1232_4609" cx="0" cy="0" r="1" gradientUnits="userSpaceOnUse" gradientTransform="translate(831 888) rotate(118.185) scale(847.513 524.456)">
<stop stop-color="#E7012A"/>
<stop offset="1" stop-color="#5815A3"/>
</radialGradient>
<clipPath id="clip0_1232_4609">
<path d="M0 0H414V841C414 852.046 405.046 861 394 861H20C8.95432 861 0 852.046 0 841V0Z" fill="white"/>
</clipPath>
<clipPath id="clip1_1232_4609">
<path d="M0 0H414V841C414 852.046 405.046 861 394 861H20C8.95432 861 0 852.046 0 841V0Z" fill="white"/>
</clipPath>
<clipPath id="clip2_1232_4609">
<rect width="107" height="25" fill="white" transform="translate(234 708)"/>
</clipPath>
</defs>
</svg>
