<svg width="414" height="861" viewBox="0 0 414 861" fill="none" xmlns="http://www.w3.org/2000/svg">
<g clip-path="url(#clip0_1177_2144)">
<path d="M0 0H414V841C414 852.046 405.046 861 394 861H20C8.95432 861 0 852.046 0 841V0Z" fill="#EF6A82"/>
<rect x="415" y="888" width="416" height="888" transform="rotate(-180 415 888)" fill="url(#paint0_radial_1177_2144)"/>
<path fill-rule="evenodd" clip-rule="evenodd" d="M99.1203 733.449L93.3982 746.397H91.0033V733.449H71.7939L71.7946 733.449C68.5919 733.474 65.0309 734.102 62.2459 736.49C59.2494 739.058 58.2169 742.719 58.2169 746.478C58.2169 750.237 59.2468 753.91 62.2674 756.47C65.1195 758.888 68.7733 759.463 71.9946 759.463C72.0472 759.463 72.1038 759.463 72.1038 759.463C72.1049 759.463 72.1049 759.463 72.1056 759.463C72.1049 759.463 72.1052 759.463 72.1056 759.463L87.6906 759.459H101.955L103.799 755.301H105.198L107.034 759.459H126.071V756.025C126.229 756.177 126.393 756.326 126.564 756.47C129.416 758.888 133.07 759.463 136.291 759.463C136.44 759.463 136.588 759.461 136.737 759.459H167.566V733.449H99.1203Z" fill="#E1012E"/>
<path fill-rule="evenodd" clip-rule="evenodd" d="M99.1566 733.175L93.3991 746.393H90.9894V733.175H71.661L71.6618 733.176C68.4392 733.201 64.8563 733.842 62.054 736.279C59.0389 738.902 58 742.638 58 746.476C58 750.313 59.0363 754.063 62.0756 756.677C64.9454 759.145 68.6218 759.732 71.863 759.732C71.9159 759.732 71.9729 759.732 71.9729 759.732C71.974 759.732 71.974 759.732 71.9747 759.732C71.974 759.732 71.9743 759.732 71.9747 759.732L87.6562 759.728H102.008L103.864 755.483H105.272L107.12 759.728H126.274V756.222C126.433 756.377 126.598 756.529 126.77 756.677C129.64 759.145 133.317 759.732 136.558 759.732C136.707 759.732 136.856 759.73 137.006 759.728H168.026V733.175H99.1566ZM80.0375 749.538C80.0342 749.557 80.0305 749.575 80.0269 749.594C80.0192 749.636 80.0115 749.678 80.0031 749.719C79.9984 749.742 79.9933 749.764 79.9885 749.787C79.9809 749.824 79.9732 749.86 79.9652 749.896C79.9597 749.921 79.9535 749.946 79.9476 749.97C79.9396 750.003 79.9319 750.036 79.9235 750.069C79.9155 750.1 79.9075 750.131 79.8991 750.161C79.8929 750.185 79.8867 750.208 79.8801 750.231C79.8713 750.263 79.8618 750.293 79.8527 750.324C79.8461 750.346 79.8399 750.369 79.833 750.391C79.8231 750.422 79.8125 750.454 79.8023 750.486C79.7957 750.506 79.7892 750.527 79.7822 750.547C79.7705 750.581 79.7585 750.615 79.7461 750.649C79.7402 750.666 79.7344 750.683 79.7282 750.7C79.7096 750.75 79.6906 750.799 79.6708 750.848C79.6665 750.86 79.6617 750.87 79.657 750.881C79.6416 750.919 79.6259 750.957 79.6099 750.994C79.6015 751.013 79.5923 751.033 79.5839 751.052C79.5712 751.08 79.5587 751.109 79.5456 751.137C79.5357 751.158 79.5255 751.178 79.5153 751.199C79.5029 751.225 79.4905 751.251 79.4777 751.276C79.4667 751.297 79.4558 751.318 79.4444 751.339C79.4317 751.363 79.4192 751.388 79.4065 751.412C79.3948 751.433 79.3827 751.454 79.3707 751.476C79.3579 751.499 79.3451 751.522 79.3316 751.545C79.3192 751.566 79.3064 751.587 79.2936 751.608C79.2801 751.63 79.267 751.652 79.2535 751.674C79.2403 751.695 79.2272 751.715 79.2137 751.736C79.1998 751.757 79.1859 751.779 79.172 751.8C79.1582 751.821 79.1443 751.841 79.1304 751.861C79.1162 751.882 79.1019 751.903 79.0873 751.923C79.0731 751.943 79.0581 751.963 79.0435 751.983C79.0285 752.003 79.0139 752.023 78.9989 752.043C78.984 752.063 78.9686 752.082 78.9533 752.102C78.938 752.121 78.9226 752.141 78.9069 752.16C78.8912 752.179 78.8755 752.198 78.8595 752.217C78.8438 752.236 78.8277 752.255 78.8116 752.273C78.7952 752.292 78.7788 752.311 78.7623 752.329C78.7459 752.348 78.7295 752.366 78.7127 752.384C78.6959 752.402 78.6787 752.421 78.6615 752.439C78.6447 752.456 78.6276 752.474 78.6104 752.491C78.5929 752.509 78.5754 752.527 78.5578 752.544C78.5403 752.562 78.5228 752.579 78.5049 752.596C78.487 752.613 78.4687 752.63 78.4505 752.647C78.4322 752.664 78.414 752.681 78.3957 752.697C78.3771 752.714 78.3585 752.731 78.3398 752.747C78.3212 752.763 78.3022 752.78 78.2829 752.796C78.2639 752.812 78.2449 752.828 78.2255 752.844C78.2062 752.86 78.1865 752.876 78.1664 752.891C78.147 752.907 78.1273 752.922 78.1076 752.938C78.0875 752.953 78.0667 752.969 78.0462 752.984C78.0265 752.999 78.0064 753.014 77.9864 753.029C77.9655 753.044 77.944 753.059 77.9228 753.074C77.9024 753.088 77.8823 753.102 77.8618 753.117C77.8399 753.132 77.8176 753.146 77.7954 753.161C77.7749 753.174 77.7545 753.188 77.734 753.201C77.711 753.216 77.6877 753.231 77.6639 753.245C77.6435 753.258 77.623 753.271 77.6026 753.283C77.5781 753.298 77.5529 753.312 77.5281 753.327C77.508 753.339 77.4883 753.351 77.4678 753.362C77.4408 753.377 77.4131 753.392 77.3857 753.407C77.2294 753.493 77.0669 753.573 76.8978 753.648C75.6019 754.22 73.9228 754.478 71.8622 754.478C66.6131 754.478 63.5256 752.563 63.2696 747.217C63.258 746.977 63.2525 746.73 63.2525 746.475C63.2525 746.189 63.2598 745.912 63.2744 745.643C63.5614 740.381 66.6434 738.427 71.8622 738.427C73.906 738.427 75.5814 738.681 76.8752 739.248C77.061 739.329 77.2385 739.418 77.4083 739.512C77.4309 739.525 77.454 739.537 77.4766 739.55C77.5018 739.564 77.5266 739.579 77.5515 739.594C77.5734 739.607 77.5953 739.62 77.6168 739.633C77.6416 739.648 77.6661 739.664 77.6906 739.68C77.7114 739.693 77.7326 739.706 77.7534 739.72C77.7775 739.735 77.8009 739.751 77.8242 739.767C77.8447 739.781 77.8659 739.795 77.8859 739.809C77.9097 739.825 77.9327 739.843 77.956 739.859C77.9758 739.874 77.9955 739.888 78.0148 739.902C78.0382 739.919 78.0608 739.937 78.0839 739.955C78.1025 739.969 78.1215 739.983 78.1401 739.998C78.1624 740.016 78.1843 740.034 78.2065 740.052C78.2248 740.067 78.2434 740.082 78.2617 740.098C78.2829 740.115 78.3037 740.134 78.3249 740.153C78.3431 740.169 78.3617 740.184 78.3796 740.201C78.4001 740.219 78.4198 740.238 78.4399 740.256C78.4578 740.273 78.476 740.29 78.4936 740.306C78.5133 740.325 78.5323 740.345 78.5516 740.364C78.5688 740.381 78.5863 740.398 78.6035 740.416C78.6221 740.435 78.64 740.455 78.6583 740.474C78.6754 740.492 78.6929 740.51 78.7097 740.529C78.7273 740.548 78.7444 740.568 78.762 740.588C78.7788 740.607 78.7955 740.626 78.812 740.645C78.8288 740.665 78.8452 740.685 78.8616 740.706C78.8777 740.725 78.8945 740.745 78.9102 740.765C78.9263 740.785 78.942 740.806 78.9577 740.826C78.9734 740.847 78.9895 740.867 79.0048 740.888C79.0205 740.909 79.0351 740.93 79.0504 740.952C79.0654 740.973 79.0807 740.993 79.0953 741.015C79.1096 741.035 79.1231 741.056 79.137 741.078C79.1519 741.1 79.1673 741.123 79.1823 741.146C79.1954 741.166 79.2075 741.186 79.2202 741.207C79.2352 741.231 79.2505 741.255 79.2651 741.28C79.2776 741.3 79.2892 741.322 79.3017 741.343C79.3159 741.368 79.3305 741.392 79.3444 741.417C79.3561 741.438 79.3674 741.46 79.3787 741.481C79.3926 741.507 79.4065 741.532 79.4196 741.558C79.4306 741.58 79.4412 741.602 79.4517 741.623C79.4649 741.65 79.4784 741.676 79.4912 741.703C79.5014 741.725 79.5113 741.747 79.5215 741.769C79.5339 741.796 79.5467 741.823 79.5591 741.851C79.5686 741.873 79.5777 741.896 79.5872 741.918C79.5993 741.946 79.6113 741.974 79.623 742.003C79.6321 742.026 79.6409 742.05 79.65 742.073C79.661 742.102 79.6723 742.13 79.6829 742.159C79.6917 742.183 79.6997 742.207 79.7081 742.231C79.7183 742.26 79.7289 742.289 79.7388 742.318C79.7468 742.343 79.7541 742.367 79.7621 742.391C79.7716 742.421 79.7815 742.451 79.791 742.482C79.7986 742.507 79.8056 742.532 79.8129 742.558C79.8217 742.588 79.8308 742.618 79.8392 742.649C79.8465 742.676 79.8531 742.703 79.8604 742.73C79.868 742.76 79.8761 742.789 79.8834 742.819C79.8903 742.848 79.8965 742.877 79.9031 742.905C79.91 742.935 79.917 742.964 79.9235 742.994C79.9305 743.026 79.9367 743.058 79.9433 743.091C79.9487 743.118 79.9546 743.145 79.9601 743.173C79.9604 743.175 79.9611 743.178 79.9615 743.181C79.9714 743.232 79.9805 743.285 79.9893 743.338C79.9918 743.354 79.9944 743.37 79.9973 743.386C80.0039 743.428 80.0104 743.47 80.0166 743.512C80.0188 743.528 80.0214 743.544 80.0236 743.56C80.0316 743.617 80.0389 743.674 80.0459 743.732H76.8763C76.4717 741.507 74.8306 740.878 71.8633 740.878C68.559 740.878 66.4232 741.979 66.4232 745.643V747.217C66.4232 750.814 68.5137 752.027 71.8633 752.027C74.7182 752.027 76.3818 751.488 76.8989 749.352H80.0685C80.059 749.415 80.0488 749.476 80.0378 749.537L80.0375 749.538ZM95.2223 754.209H83.86H82.5888V738.698H85.7362V751.646H95.2227V754.209H95.2223ZM112.62 754.209H110.446L108.715 750.23H100.421L98.6899 754.209H95.7226L99.1777 746.393L102.579 738.698H106.895L112.62 751.693L113.729 754.21H112.62L112.62 754.209ZM127.359 741.261H123.473H121.02V754.209H117.874V741.261H111.534V738.698H127.36V741.261H127.359ZM144.697 749.726C144.696 749.73 144.695 749.733 144.695 749.737C144.683 749.793 144.671 749.849 144.659 749.904C144.657 749.913 144.655 749.921 144.652 749.93C144.641 749.98 144.629 750.029 144.617 750.077C144.612 750.095 144.607 750.111 144.603 750.128C144.594 750.165 144.584 750.201 144.573 750.237C144.568 750.257 144.562 750.276 144.557 750.295C144.547 750.328 144.537 750.362 144.527 750.395C144.52 750.417 144.513 750.438 144.506 750.46C144.496 750.49 144.487 750.52 144.477 750.55C144.468 750.576 144.458 750.601 144.449 750.627C144.441 750.652 144.432 750.677 144.423 750.701C144.405 750.751 144.386 750.8 144.366 750.849C144.363 750.857 144.359 750.865 144.357 750.873C144.34 750.914 144.323 750.955 144.305 750.996C144.299 751.01 144.292 751.024 144.286 751.038C144.271 751.072 144.256 751.106 144.24 751.139C144.233 751.155 144.225 751.171 144.217 751.188C144.202 751.218 144.187 751.248 144.173 751.278C144.164 751.296 144.155 751.313 144.145 751.33C144.131 751.358 144.116 751.386 144.101 751.415C144.091 751.432 144.081 751.45 144.071 751.468C144.056 751.494 144.041 751.521 144.026 751.547C144.016 751.565 144.005 751.583 143.994 751.601C143.979 751.626 143.964 751.652 143.948 751.676C143.937 751.695 143.925 751.713 143.913 751.731C143.898 751.755 143.882 751.779 143.867 751.802C143.854 751.821 143.842 751.839 143.829 751.857C143.813 751.88 143.797 751.903 143.781 751.925C143.768 751.944 143.755 751.962 143.742 751.98C143.726 752.002 143.709 752.024 143.693 752.045C143.679 752.063 143.665 752.082 143.651 752.1C143.634 752.121 143.618 752.141 143.601 752.162C143.586 752.18 143.571 752.198 143.556 752.216C143.54 752.236 143.523 752.256 143.506 752.275C143.491 752.293 143.475 752.311 143.459 752.329C143.442 752.348 143.425 752.366 143.408 752.385C143.391 752.403 143.374 752.421 143.357 752.439C143.341 752.457 143.324 752.474 143.306 752.492C143.289 752.51 143.271 752.528 143.253 752.545C143.236 752.562 143.219 752.579 143.201 752.596C143.183 752.614 143.164 752.631 143.145 752.649C143.128 752.665 143.11 752.681 143.093 752.696C143.073 752.714 143.054 752.732 143.034 752.749C143.016 752.764 142.999 752.779 142.981 752.794C142.961 752.811 142.94 752.829 142.919 752.846C142.901 752.86 142.884 752.875 142.866 752.888C142.845 752.906 142.823 752.923 142.801 752.94C142.784 752.953 142.766 752.967 142.748 752.98C142.725 752.997 142.703 753.014 142.679 753.031C142.662 753.043 142.645 753.056 142.628 753.068C142.603 753.085 142.579 753.102 142.554 753.119C142.538 753.13 142.521 753.141 142.503 753.153C142.478 753.17 142.452 753.187 142.426 753.204C142.41 753.214 142.393 753.224 142.377 753.234C142.349 753.251 142.322 753.269 142.294 753.285C142.279 753.294 142.264 753.303 142.248 753.312C142.219 753.33 142.189 753.347 142.159 753.365C142.147 753.371 142.134 753.378 142.121 753.385C141.952 753.479 141.776 753.567 141.593 753.648C140.297 754.22 138.618 754.478 136.557 754.478C131.308 754.478 128.221 752.564 127.965 747.217C127.954 746.977 127.948 746.73 127.948 746.476C127.948 746.14 127.958 745.816 127.978 745.504C127.979 745.485 127.981 745.466 127.982 745.447C127.985 745.401 127.989 745.354 127.993 745.308C127.995 745.282 127.997 745.257 127.999 745.231C128.002 745.187 128.006 745.143 128.011 745.099C128.013 745.073 128.016 745.047 128.019 745.02C128.023 744.977 128.028 744.934 128.033 744.891C128.035 744.869 128.038 744.847 128.041 744.825C128.05 744.745 128.061 744.666 128.071 744.587C128.075 744.56 128.079 744.533 128.083 744.506C128.088 744.468 128.094 744.431 128.1 744.393C128.105 744.364 128.11 744.334 128.115 744.305C128.121 744.269 128.127 744.233 128.133 744.197C128.139 744.167 128.144 744.136 128.15 744.106C128.157 744.072 128.163 744.038 128.169 744.004C128.176 743.969 128.184 743.935 128.191 743.901C128.201 743.852 128.212 743.803 128.223 743.754C128.231 743.717 128.24 743.679 128.249 743.641C128.256 743.612 128.263 743.583 128.27 743.554C128.279 743.521 128.287 743.488 128.296 743.456C128.303 743.427 128.311 743.398 128.319 743.37C128.328 743.337 128.337 743.304 128.347 743.271C128.354 743.244 128.362 743.217 128.37 743.191C128.382 743.151 128.394 743.112 128.406 743.074C128.413 743.054 128.419 743.033 128.425 743.013C128.443 742.959 128.461 742.905 128.48 742.852C128.487 742.83 128.495 742.809 128.503 742.787C128.515 742.752 128.528 742.716 128.541 742.682C128.55 742.659 128.559 742.637 128.567 742.614C128.581 742.58 128.594 742.546 128.608 742.512C128.616 742.491 128.625 742.47 128.633 742.45C128.65 742.409 128.667 742.368 128.685 742.328C128.69 742.316 128.696 742.303 128.701 742.29C128.725 742.238 128.748 742.186 128.773 742.135C128.78 742.121 128.787 742.106 128.794 742.092C128.812 742.054 128.831 742.017 128.849 741.981C128.858 741.963 128.867 741.946 128.876 741.929C128.894 741.894 128.912 741.86 128.931 741.826C128.94 741.81 128.948 741.794 128.957 741.778C128.98 741.739 129.002 741.699 129.025 741.66C129.03 741.651 129.035 741.642 129.041 741.633C129.069 741.585 129.099 741.537 129.129 741.489C129.134 741.481 129.139 741.473 129.144 741.465C129.169 741.427 129.194 741.388 129.22 741.35C129.229 741.337 129.237 741.324 129.246 741.312C129.27 741.276 129.295 741.241 129.32 741.206C129.326 741.197 129.332 741.188 129.339 741.179C129.371 741.135 129.404 741.091 129.436 741.048C129.438 741.047 129.439 741.045 129.44 741.044C129.471 741.003 129.503 740.964 129.535 740.925C129.543 740.914 129.551 740.904 129.56 740.894C129.588 740.86 129.617 740.826 129.646 740.793C129.652 740.786 129.658 740.779 129.664 740.772C129.698 740.733 129.733 740.693 129.769 740.655C129.776 740.647 129.784 740.639 129.791 740.632C129.82 740.601 129.849 740.57 129.879 740.54C129.889 740.53 129.899 740.52 129.909 740.511C129.944 740.475 129.981 740.439 130.017 740.404C130.019 740.403 130.019 740.402 130.02 740.401C130.058 740.366 130.097 740.33 130.136 740.295C130.146 740.286 130.156 740.277 130.166 740.268C130.197 740.241 130.228 740.214 130.26 740.188C130.269 740.18 130.279 740.172 130.288 740.164C130.328 740.13 130.369 740.098 130.41 740.065C130.416 740.06 130.423 740.055 130.429 740.05C130.464 740.023 130.499 739.996 130.535 739.97C130.547 739.961 130.559 739.952 130.571 739.943C130.606 739.917 130.643 739.891 130.679 739.866C130.686 739.861 130.693 739.856 130.699 739.851C130.742 739.822 130.786 739.793 130.83 739.764C130.84 739.756 130.851 739.75 130.862 739.743C130.897 739.72 130.932 739.698 130.967 739.676C130.98 739.669 130.992 739.661 131.004 739.654C131.049 739.626 131.095 739.599 131.141 739.573C131.144 739.571 131.146 739.57 131.15 739.568C131.193 739.543 131.237 739.519 131.281 739.495C131.294 739.488 131.308 739.481 131.322 739.473C131.359 739.454 131.396 739.434 131.434 739.415C131.445 739.409 131.457 739.403 131.468 739.398C131.516 739.374 131.564 739.35 131.612 739.327C131.624 739.322 131.636 739.316 131.647 739.311C131.686 739.293 131.725 739.276 131.763 739.258C131.779 739.251 131.794 739.245 131.81 739.238C131.853 739.219 131.896 739.201 131.94 739.182C131.948 739.179 131.955 739.176 131.963 739.173C132.013 739.152 132.063 739.132 132.115 739.113C132.131 739.107 132.147 739.101 132.163 739.094C132.201 739.08 132.239 739.066 132.278 739.052C132.294 739.047 132.311 739.04 132.327 739.035C132.379 739.016 132.431 738.999 132.483 738.982C132.495 738.978 132.508 738.974 132.521 738.97C133.67 738.597 135.02 738.427 136.556 738.427C138.6 738.427 140.275 738.681 141.569 739.248C141.767 739.335 141.956 739.429 142.136 739.531C142.147 739.537 142.159 739.543 142.17 739.549C142.207 739.571 142.243 739.593 142.28 739.614C142.29 739.621 142.3 739.626 142.31 739.632C142.347 739.655 142.383 739.678 142.419 739.702C142.428 739.708 142.437 739.713 142.446 739.719C142.482 739.742 142.517 739.766 142.552 739.79C142.561 739.796 142.57 739.802 142.579 739.808C142.613 739.832 142.647 739.857 142.68 739.881C142.69 739.888 142.699 739.894 142.708 739.901C142.741 739.926 142.774 739.951 142.806 739.977C142.815 739.984 142.824 739.99 142.833 739.997C142.865 740.022 142.895 740.047 142.925 740.073C142.935 740.081 142.945 740.088 142.955 740.097C142.984 740.122 143.012 740.147 143.041 740.172C143.051 740.181 143.062 740.19 143.072 740.199C143.1 740.224 143.127 740.25 143.154 740.276C143.165 740.286 143.176 740.295 143.186 740.306C143.212 740.33 143.237 740.356 143.262 740.381C143.273 740.393 143.285 740.404 143.296 740.415C143.319 740.439 143.342 740.464 143.365 740.488C143.377 740.502 143.39 740.515 143.402 740.528C143.424 740.552 143.444 740.576 143.465 740.599C143.478 740.615 143.492 740.629 143.505 740.645C143.524 740.667 143.542 740.691 143.561 740.713C143.575 740.73 143.589 740.748 143.603 740.765C143.62 740.787 143.637 740.809 143.654 740.831C143.669 740.85 143.684 740.869 143.698 740.888C143.714 740.91 143.728 740.931 143.743 740.952C143.758 740.974 143.774 740.994 143.789 741.016C143.803 741.036 143.816 741.056 143.83 741.077C143.845 741.1 143.861 741.123 143.876 741.146C143.888 741.165 143.9 741.185 143.912 741.205C143.928 741.23 143.944 741.255 143.959 741.28C143.969 741.299 143.98 741.317 143.991 741.336C144.006 741.363 144.022 741.39 144.037 741.417C144.048 741.436 144.058 741.456 144.068 741.475C144.083 741.503 144.098 741.53 144.113 741.559C144.123 741.579 144.133 741.6 144.143 741.62C144.157 741.648 144.171 741.675 144.184 741.703C144.194 741.725 144.204 741.747 144.214 741.769C144.227 741.796 144.24 741.824 144.252 741.851C144.263 741.876 144.273 741.901 144.283 741.926C144.294 741.952 144.305 741.977 144.315 742.003C144.328 742.034 144.339 742.066 144.351 742.097C144.359 742.118 144.367 742.138 144.375 742.158C144.389 742.196 144.402 742.235 144.415 742.274C144.42 742.288 144.426 742.303 144.431 742.318C144.448 742.369 144.464 742.421 144.48 742.474C144.481 742.476 144.482 742.478 144.483 742.48C144.549 742.7 144.606 742.93 144.652 743.171C144.654 743.185 144.657 743.199 144.659 743.212C144.667 743.251 144.674 743.29 144.68 743.329C144.684 743.351 144.687 743.374 144.691 743.396C144.697 743.432 144.702 743.468 144.707 743.503C144.71 743.523 144.713 743.543 144.716 743.563C144.724 743.618 144.731 743.675 144.738 743.731H141.568C141.163 741.506 139.523 740.876 136.555 740.876C134.911 740.876 133.557 741.149 132.61 741.874C132.61 741.874 132.609 741.875 132.609 741.875C132.582 741.896 132.555 741.917 132.529 741.939C132.526 741.941 132.523 741.943 132.52 741.946C132.495 741.966 132.47 741.988 132.445 742.01C132.441 742.013 132.438 742.016 132.434 742.019C132.41 742.039 132.387 742.061 132.363 742.083C132.359 742.087 132.354 742.091 132.35 742.095C132.328 742.116 132.306 742.137 132.284 742.159C132.279 742.164 132.274 742.168 132.269 742.173C132.248 742.194 132.227 742.216 132.207 742.237C132.201 742.243 132.196 742.249 132.19 742.255C132.171 742.276 132.152 742.297 132.132 742.319C132.127 742.326 132.12 742.332 132.114 742.339C132.096 742.36 132.078 742.382 132.06 742.403C132.054 742.411 132.047 742.418 132.041 742.427C132.024 742.447 132.008 742.469 131.991 742.49C131.984 742.499 131.977 742.508 131.97 742.517C131.954 742.538 131.939 742.559 131.924 742.58C131.917 742.59 131.909 742.6 131.902 742.61C131.887 742.63 131.874 742.651 131.859 742.672C131.852 742.684 131.844 742.695 131.836 742.706C131.823 742.726 131.81 742.747 131.797 742.768C131.789 742.78 131.781 742.792 131.773 742.805C131.761 742.825 131.749 742.846 131.737 742.867C131.729 742.88 131.721 742.893 131.713 742.907C131.702 742.927 131.691 742.948 131.68 742.968C131.672 742.983 131.664 742.997 131.656 743.012C131.646 743.032 131.635 743.052 131.625 743.073C131.617 743.089 131.609 743.105 131.601 743.121C131.592 743.14 131.582 743.161 131.573 743.181C131.565 743.198 131.557 743.215 131.549 743.232C131.54 743.252 131.532 743.273 131.524 743.292C131.516 743.311 131.508 743.328 131.5 743.347C131.492 743.367 131.485 743.387 131.477 743.407C131.469 743.426 131.462 743.445 131.454 743.465C131.447 743.484 131.44 743.504 131.433 743.524C131.426 743.545 131.418 743.565 131.411 743.586C131.405 743.606 131.398 743.626 131.392 743.645C131.385 743.667 131.378 743.688 131.371 743.71C131.365 743.73 131.359 743.75 131.353 743.77C131.347 743.793 131.34 743.815 131.333 743.838C131.328 743.857 131.323 743.878 131.317 743.897C131.311 743.921 131.305 743.944 131.299 743.969C131.294 743.989 131.289 744.009 131.284 744.03C131.278 744.054 131.272 744.078 131.267 744.103C131.262 744.123 131.258 744.145 131.254 744.165C131.248 744.191 131.243 744.215 131.238 744.241C131.234 744.262 131.23 744.283 131.226 744.304C131.222 744.33 131.217 744.356 131.212 744.382C131.209 744.404 131.205 744.425 131.202 744.447C131.198 744.474 131.193 744.5 131.189 744.527C131.186 744.549 131.183 744.572 131.18 744.594C131.176 744.621 131.172 744.648 131.169 744.676C131.166 744.699 131.164 744.723 131.161 744.746C131.158 744.773 131.155 744.8 131.152 744.827C131.149 744.852 131.148 744.877 131.145 744.903C131.142 744.929 131.14 744.956 131.138 744.983C131.136 745.009 131.134 745.036 131.132 745.063C131.13 745.09 131.129 745.116 131.127 745.142C131.125 745.171 131.124 745.201 131.122 745.231C131.121 745.255 131.12 745.28 131.119 745.305C131.117 745.34 131.117 745.376 131.116 745.412C131.115 745.432 131.114 745.451 131.114 745.471C131.113 745.527 131.113 745.584 131.113 745.641V747.215C131.113 750.812 133.203 752.026 136.552 752.026C139.408 752.026 141.071 751.486 141.588 749.35H144.758C144.738 749.477 144.716 749.601 144.691 749.722L144.697 749.726ZM162.772 754.21H159.625V747.533H150.431V754.21H148.555H147.284V738.698H150.431V744.97H159.625V738.698H162.773V754.209L162.772 754.21Z" fill="white"/>
<path fill-rule="evenodd" clip-rule="evenodd" d="M107.089 746.513L107.065 746.457L104.557 740.743L101.432 747.914H107.704L107.089 746.513Z" fill="white"/>
<path d="M186.914 737.3L189.664 734.3L201.014 744.5L212.364 734.35L215.114 737.3L204.064 747.2L215.114 757.05L212.364 760.05L201.014 749.9L189.664 760.05L186.964 757.05L197.964 747.2L186.914 737.3Z" fill="white"/>
<g clip-path="url(#clip1_1177_2144)">
<path d="M262.123 759H267.995C268.475 759 268.976 758.452 268.976 757.936V735.064C268.971 734.548 268.47 734 267.995 734H262.123C261.643 734 261.141 734.548 261.141 735.064V757.936C261.141 758.452 261.643 759 262.123 759Z" fill="white"/>
<path d="M240.785 759C241.297 759 241.829 758.452 241.829 757.936V749.915H245.483L250.18 758.468C250.306 758.676 250.702 759 251.224 759H258.01C258.553 759 258.814 758.399 258.532 757.936L251.746 746.197L258.532 735.064C258.85 734.601 258.568 734 258.01 734H250.702C250.18 734 249.784 734.34 249.659 734.532L244.961 743.005H241.829V735.064C241.819 734.553 241.297 734 240.785 734H235.044C234.522 734 234 734.527 234 735.037V757.936C234 758.452 234.532 759 235.044 759H240.785Z" fill="white"/>
<path d="M339.956 759C340.468 759 341 758.399 341 757.883V735.037C341 734.521 340.468 734 339.956 734H334.215C333.703 734 333.171 734.548 333.171 735.064V746.766L323.254 734H316.468C315.957 734 315.424 734.548 315.424 735.064V757.936C315.424 758.452 315.957 759 316.468 759H322.21C322.721 759 323.254 758.452 323.254 757.936V746.197L333.171 759H339.956Z" fill="white"/>
<path d="M273.152 759H311.254C311.818 759 312.298 758.505 312.298 757.936V735.064C312.298 734.495 311.818 734 311.254 734H273.152C272.588 734 272.108 734.495 272.108 735.064V757.936C272.108 758.505 272.588 759 273.152 759ZM280.459 740.383C282.818 740.851 287.74 740.92 292.344 740.91C297.114 740.899 301.89 740.798 303.947 740.383C304.15 740.34 304.469 740.378 304.469 740.91V751.532C304.469 752.085 304.14 752.085 303.947 752.064C301.911 751.809 297.099 751.883 292.344 751.867C287.537 751.856 282.463 751.787 280.459 752.085C280.261 752.112 279.937 752.106 279.937 751.553V740.915C279.937 740.383 280.261 740.346 280.459 740.383Z" fill="white"/>
</g>
<path d="M120.058 413.609C119.743 413.644 119.428 413.738 119.134 413.903C117.959 414.56 117.54 416.047 118.197 417.223C118.206 417.238 118.841 418.408 119.093 418.882C119.815 420.241 120.622 421.802 121.493 423.55C123.983 428.55 126.482 434.008 128.828 439.733C132.609 448.958 135.614 457.967 137.542 466.422C138.157 469.122 138.648 471.734 139.024 474.25C132.998 473.355 127.021 475.829 121.563 482.055C117.337 486.875 114.581 492.928 114.01 498.602C113.382 504.85 115.438 510.177 120.144 513.087C125.366 516.316 131.038 515.101 135.733 510.505C139.75 506.573 142.812 500.388 143.986 493.967C144.673 490.208 144.879 486.095 144.668 481.695C148.86 484.477 152.892 489.174 156.045 494.645C161.751 504.545 165.299 515.816 167.087 528.795C168.61 539.857 168.856 551.873 168.12 566.62C167.802 572.979 167.4 578.568 166.548 589.202C165.535 601.854 165.223 606.183 164.906 612.403C164.48 620.757 164.403 627.855 164.747 634.375C165.567 649.963 168.804 662.16 175.348 671.896C176.099 673.014 177.613 673.309 178.731 672.557C179.849 671.806 180.144 670.29 179.392 669.174C173.411 660.276 170.398 648.901 169.62 634.122C169.287 627.789 169.356 620.85 169.774 612.653C170.088 606.499 170.403 602.189 171.412 589.589C172.267 578.908 172.675 573.289 172.996 566.87C173.747 551.845 173.492 539.538 171.921 528.128C170.053 514.562 166.314 502.694 160.271 492.209C156.134 485.032 150.606 478.978 144.641 476.039C144.477 475.958 144.313 475.897 144.149 475.82C143.734 472.47 143.129 468.979 142.299 465.339C140.305 456.595 137.216 447.334 133.341 437.878C130.946 432.036 128.402 426.479 125.861 421.378C124.971 419.591 124.14 417.984 123.398 416.589C123.138 416.098 122.467 414.87 122.455 414.847C121.962 413.966 121.003 413.505 120.058 413.609ZM135.959 478.964C137.174 478.888 138.392 479.056 139.619 479.376C140.047 484.411 139.933 489.013 139.188 493.083C138.188 498.556 135.579 503.835 132.321 507.024C129.106 510.171 125.83 510.869 122.711 508.94C119.754 507.112 118.406 503.628 118.861 499.095C119.327 494.462 121.661 489.349 125.235 485.271C128.81 481.194 132.363 479.189 135.959 478.964Z" fill="#18D0CB" stroke="#294064" stroke-miterlimit="10" stroke-linecap="round"/>
<path d="M226.465 457.744C225.119 457.768 224.047 458.879 224.07 460.226C224.071 460.261 224.143 463.698 224.208 466.138C224.31 469.842 224.441 473.881 224.605 478.159C225.06 489.984 225.693 501.731 226.522 512.704C227.286 522.802 228.186 531.794 229.245 539.397C231.452 555.268 234.464 570.107 238.068 583.821C240.625 593.547 243.327 602.143 246.008 609.52C246.947 612.111 247.821 614.363 248.603 616.274C248.878 616.947 249.122 617.529 249.332 618.02C249.463 618.32 249.555 618.523 249.606 618.632C250.161 619.859 251.604 620.407 252.832 619.852C254.059 619.297 254.6 617.852 254.045 616.627C254.037 616.607 253.881 616.249 253.814 616.09C253.614 615.626 253.378 615.07 253.116 614.426C252.358 612.576 251.51 610.383 250.593 607.856C247.961 600.612 245.309 592.167 242.792 582.589C239.236 569.056 236.259 554.399 234.078 538.723C233.036 531.234 232.143 522.339 231.385 512.336C230.56 501.43 229.931 489.743 229.48 477.973C229.316 473.714 229.186 469.692 229.084 466.006C229.019 463.579 228.948 460.172 228.947 460.139C228.924 458.792 227.814 457.72 226.465 457.744Z" fill="#18D0CB" stroke="#294064" stroke-miterlimit="10" stroke-linecap="round"/>
<path d="M277.119 407.648C276.169 407.69 275.293 408.287 274.942 409.233C274.931 409.264 274.26 411.117 273.997 411.852C273.253 413.951 272.43 416.351 271.541 419.016C269.002 426.627 266.475 434.837 264.136 443.343C261.161 454.15 258.706 464.652 256.935 474.557C254.637 487.409 253.572 498.823 253.961 508.45C254.713 527.088 258.187 542.85 263.822 554.348C267.112 561.056 271.101 566.144 275.534 569.425C273.261 597.413 281.809 637.511 296.043 656.929C296.839 658.015 298.359 658.256 299.447 657.46C300.533 656.664 300.774 655.135 299.978 654.049C286.842 636.128 278.701 598.788 280.226 572.179C281.771 572.83 283.361 573.275 284.979 573.497C296.347 575.065 307.052 568.672 312.913 558.385C318.697 548.236 318.006 537.186 309.797 532.159C304.512 528.92 298.084 529.498 292.225 533.492C286.477 537.412 281.621 544.332 278.592 553.162C277.53 556.265 276.731 559.797 276.166 563.626C273.277 560.869 270.572 557.049 268.198 552.205C262.886 541.368 259.562 526.253 258.835 508.249C258.462 499.024 259.5 487.941 261.741 475.409C263.482 465.664 265.898 455.304 268.834 444.632C271.151 436.216 273.658 428.091 276.169 420.558C277.048 417.923 277.865 415.549 278.597 413.479C278.855 412.756 279.503 410.963 279.513 410.937C279.984 409.674 279.345 408.273 278.084 407.803C277.766 407.686 277.436 407.634 277.119 407.648ZM302.652 534.945C304.265 534.989 305.816 535.435 307.247 536.313C310.032 538.018 311.551 540.787 311.774 544.358C312 547.922 310.901 552.066 308.679 555.966C303.735 564.639 294.869 569.939 285.649 568.665C283.975 568.434 282.309 567.852 280.681 566.971C281.198 562.431 282.002 558.26 283.206 554.744C287.541 542.098 295.664 534.749 302.652 534.945Z" fill="#18D0CB" stroke="#294064" stroke-miterlimit="10" stroke-linecap="round"/>
<path d="M175.979 381.051C174.659 381.316 173.799 382.606 174.065 383.926C184.907 437.905 189.005 468.54 189.829 499.711C190.094 509.734 190.043 520.053 189.735 533.909C189.588 540.442 188.805 568.469 188.622 575.974C188.499 581.063 188.397 585.983 188.302 590.912C188.277 592.259 189.339 593.376 190.686 593.402C192.033 593.427 193.15 592.357 193.176 591.01C193.27 586.086 193.38 581.173 193.503 576.092C193.686 568.602 194.47 540.572 194.616 534.021C194.928 520.092 194.972 509.693 194.705 499.578C193.874 468.088 189.739 437.196 178.847 382.965C178.582 381.645 177.3 380.786 175.979 381.051Z" fill="#0FB8B4" stroke="#294064" stroke-miterlimit="10" stroke-linecap="round"/>
<path d="M220.799 628.447C233.801 629.518 241.767 632.362 251.166 624.318C260.563 616.277 273.073 596.238 258.016 594.274C251.052 593.365 245.685 611.021 241.193 611.303C228.008 612.129 223.3 612.679 210.1 612.327" fill="#FAD9AC"/>
<path d="M220.799 628.447C233.801 629.518 241.767 632.362 251.166 624.318C260.563 616.277 273.073 596.238 258.016 594.274C251.052 593.365 245.685 611.021 241.193 611.303C228.008 612.129 223.3 612.679 210.1 612.327" stroke="#294064" stroke-miterlimit="10" stroke-linecap="round"/>
<path d="M230.468 678.672C240.504 688.539 250.35 698.609 260.577 708.277C264.698 712.172 272.131 718.952 278.502 719.78C287.293 720.924 286.292 712.665 282.527 707.821C270.199 691.964 256.183 680.54 242.167 666.636" fill="#FFF2E0"/>
<path d="M230.468 678.672C240.504 688.539 250.35 698.609 260.577 708.277C264.698 712.172 272.131 718.952 278.502 719.78C287.293 720.924 286.292 712.665 282.527 707.821C270.199 691.964 256.183 680.54 242.167 666.636" stroke="#294064" stroke-miterlimit="10" stroke-linecap="round"/>
<path d="M255.001 654.197C264.009 659.374 292.583 662.651 304.049 659.967C326.339 654.747 312.29 639.521 296.548 644.13C291.447 645.623 285.934 643.469 280.654 642.865C272.635 641.947 264.655 640.499 256.591 640.145" fill="#FAD9AC"/>
<path d="M255.001 654.197C264.009 659.374 292.583 662.651 304.049 659.967C326.339 654.747 312.29 639.521 296.548 644.13C291.447 645.623 285.934 643.469 280.654 642.865C272.635 641.947 264.655 640.499 256.591 640.145" stroke="#294064" stroke-miterlimit="10" stroke-linecap="round"/>
<path d="M178.41 615.262C183.522 628.03 186.866 640.791 193.815 652.852C198.37 660.758 210.101 679.517 220.216 681.77C235.98 685.283 259.859 660.286 260.764 645.614C261.496 633.733 247.267 630.754 239.415 625.464C234.428 622.104 229.418 618.41 225.674 613.653C222.329 609.404 219.532 603.382 214.201 601.288C208.29 598.967 201.538 599.436 195.536 600.579C190.321 601.571 185.283 603.359 180.246 605.04" fill="#FFF2E0"/>
<path d="M178.41 615.262C183.522 628.03 186.866 640.791 193.815 652.852C198.37 660.758 210.101 679.517 220.216 681.77C235.98 685.283 259.859 660.286 260.764 645.614C261.496 633.733 247.267 630.754 239.415 625.464C234.428 622.104 229.418 618.41 225.674 613.653C222.329 609.404 219.532 603.382 214.201 601.288C208.29 598.967 201.538 599.436 195.536 600.579C190.321 601.571 185.283 603.359 180.246 605.04" stroke="#294064" stroke-miterlimit="10" stroke-linecap="round"/>
<path d="M226.754 629.733C226.808 629.647 226.847 629.535 226.871 629.398C226.895 629.259 226.908 629.13 226.909 629.012C226.903 626.896 226.723 624.953 226.368 623.181C226.013 621.41 225.471 619.87 224.738 618.564C224.007 617.257 223.072 616.243 221.935 615.52C221.224 615.07 220.503 614.771 219.77 614.624C219.035 614.476 218.324 614.467 217.636 614.596C216.948 614.724 216.314 614.984 215.735 615.377C215.157 615.77 214.668 616.282 214.268 616.912C213.774 617.691 213.537 618.503 213.558 619.348C213.581 620.193 214.005 620.809 213.625 621.352C213.193 621.969 212.525 621.871 211.748 622.21C210.972 622.548 210.335 623.109 209.837 623.894C209.437 624.524 209.183 625.183 209.076 625.871C208.969 626.56 209.003 627.244 209.177 627.924C209.352 628.604 209.663 629.245 210.109 629.846C210.555 630.447 211.132 630.973 211.842 631.423C212.98 632.145 214.295 632.559 215.789 632.665C217.283 632.77 218.909 632.606 220.664 632.169C222.419 631.734 224.256 631.068 226.172 630.172C226.279 630.12 226.391 630.054 226.506 629.974C226.62 629.894 226.703 629.813 226.754 629.733Z" fill="#E1012E" stroke="#294064" stroke-miterlimit="10" stroke-linecap="round"/>
<path d="M132.76 573.411C132.76 546.803 154.329 525.234 180.937 525.234C207.544 525.234 229.113 546.803 229.113 573.411C229.113 600.018 207.544 621.587 180.937 621.587C154.329 621.587 132.76 600.018 132.76 573.411Z" fill="#FFF2E0" stroke="#294064" stroke-miterlimit="10" stroke-linecap="round"/>
<path d="M144.965 582.3C144.965 575.747 150.277 570.436 156.829 570.436C163.381 570.436 168.693 575.747 168.693 582.3C168.693 588.852 163.381 594.164 156.829 594.164C150.277 594.164 144.965 588.852 144.965 582.3Z" fill="#A360E7" stroke="#294064" stroke-miterlimit="10" stroke-linecap="round"/>
<path d="M196.942 557.598C196.942 551.046 202.253 545.734 208.806 545.734C215.358 545.734 220.669 551.046 220.669 557.598C220.669 564.151 215.358 569.462 208.806 569.462C202.253 569.462 196.942 564.151 196.942 557.598Z" fill="#A360E7" stroke="#294064" stroke-miterlimit="10" stroke-linecap="round"/>
<path d="M202.549 556.465C202.396 555.443 203.1 554.49 204.122 554.337C205.144 554.184 206.097 554.888 206.251 555.91C206.404 556.932 205.7 557.885 204.678 558.038C203.655 558.192 202.702 557.487 202.549 556.465Z" fill="#FFF2E0" stroke="#294064" stroke-miterlimit="10" stroke-linecap="round"/>
<path d="M208.657 553.024C208.503 552.002 209.207 551.049 210.23 550.895C211.252 550.742 212.205 551.446 212.358 552.469C212.511 553.491 211.807 554.444 210.785 554.597C209.763 554.75 208.81 554.046 208.657 553.024Z" fill="#FFF2E0" stroke="#294064" stroke-miterlimit="10" stroke-linecap="round"/>
<path d="M206.111 562.329C205.958 561.307 206.662 560.354 207.684 560.201C208.707 560.047 209.659 560.752 209.813 561.774C209.966 562.796 209.262 563.749 208.24 563.902C207.218 564.056 206.265 563.351 206.111 562.329Z" fill="#FFF2E0" stroke="#294064" stroke-miterlimit="10" stroke-linecap="round"/>
<path d="M211.841 558.886C211.688 557.864 212.392 556.911 213.415 556.758C214.437 556.604 215.389 557.309 215.543 558.331C215.696 559.353 214.992 560.306 213.969 560.459C212.948 560.613 211.995 559.908 211.841 558.886Z" fill="#FFF2E0" stroke="#294064" stroke-miterlimit="10" stroke-linecap="round"/>
<path d="M150.652 581.471C150.499 580.448 151.203 579.496 152.225 579.342C153.247 579.189 154.2 579.893 154.354 580.915C154.507 581.937 153.803 582.89 152.781 583.044C151.758 583.197 150.806 582.493 150.652 581.471Z" fill="#FFF2E0" stroke="#294064" stroke-miterlimit="10" stroke-linecap="round"/>
<path d="M156.76 578.029C156.606 577.007 157.311 576.054 158.333 575.901C159.355 575.747 160.308 576.452 160.461 577.474C160.614 578.496 159.91 579.449 158.888 579.602C157.866 579.756 156.913 579.051 156.76 578.029Z" fill="#FFF2E0" stroke="#294064" stroke-miterlimit="10" stroke-linecap="round"/>
<path d="M154.214 587.335C154.061 586.312 154.765 585.359 155.787 585.206C156.81 585.053 157.762 585.757 157.916 586.779C158.069 587.801 157.365 588.754 156.343 588.908C155.321 589.061 154.368 588.357 154.214 587.335Z" fill="#FFF2E0" stroke="#294064" stroke-miterlimit="10" stroke-linecap="round"/>
<path d="M159.944 583.892C159.791 582.869 160.495 581.917 161.518 581.763C162.54 581.61 163.493 582.314 163.646 583.336C163.799 584.358 163.095 585.311 162.073 585.465C161.051 585.618 160.098 584.914 159.944 583.892Z" fill="#FFF2E0" stroke="#294064" stroke-miterlimit="10" stroke-linecap="round"/>
<path d="M207.218 586.487C199.42 584.134 184.389 590.383 183.004 602.268" stroke="#294064" stroke-miterlimit="10" stroke-linecap="round"/>
<path d="M202.577 589.808C202.062 586.981 201.246 584.139 200.386 581.402" stroke="#294064" stroke-miterlimit="10" stroke-linecap="round"/>
<path d="M195.754 591.511C193.824 589.724 192.49 587.519 190.825 585.506" stroke="#294064" stroke-miterlimit="10" stroke-linecap="round"/>
<path d="M187.997 596.687C186.28 595.787 184.762 594.428 183.042 593.489" stroke="#294064" stroke-miterlimit="10" stroke-linecap="round"/>
<path d="M203.842 650.552C203.842 650.552 207.09 656.95 208.526 659.185C212.548 665.443 217.699 670.914 224.706 674.06" stroke="#294064" stroke-miterlimit="10" stroke-linecap="round"/>
<path d="M138.844 568.928C137.914 553.45 153.055 537.583 167.138 534.057" stroke="#294064" stroke-miterlimit="10" stroke-linecap="round"/>
<path d="M233.635 675.803C233.806 676.373 234.233 676.834 234.521 677.355C234.994 678.216 235.257 679.188 235.842 679.984" stroke="#294064" stroke-miterlimit="10" stroke-linecap="round"/>
<path d="M236.698 674.395C236.698 674.395 237.477 675.356 237.629 675.517C238.394 676.324 239.157 677.132 239.921 677.941" stroke="#294064" stroke-miterlimit="10" stroke-linecap="round"/>
<path d="M194.668 633.789C183.841 621.516 176.274 642.877 174.028 654.476C172.338 663.206 152.02 649.84 149.245 663.212C146.182 677.97 176.383 677.377 183.379 674.057C191.255 670.322 194.571 658.924 194.571 658.924C194.571 658.924 200.582 640.496 194.668 633.789Z" fill="#FAD9AC" stroke="#294064" stroke-miterlimit="10" stroke-linecap="round"/>
<path d="M239.959 673.056C240.959 674.114 242.242 675.034 243.331 676.008" stroke="#294064" stroke-miterlimit="10" stroke-linecap="round"/>
<path d="M242.811 670.876C243.068 671.725 244.202 672.697 244.699 673.488" stroke="#294064" stroke-miterlimit="10" stroke-linecap="round"/>
<path d="M193.196 649.131C194.358 649.921 195.546 650.715 196.808 651.337" stroke="#294064" stroke-miterlimit="10" stroke-linecap="round"/>
<path d="M194.53 645.883C195.636 646.098 196.743 646.317 197.864 646.432" stroke="#294064" stroke-miterlimit="10" stroke-linecap="round"/>
<path d="M194.233 640.544C194.819 640.15 197.691 639.486 198.381 639.481" stroke="#294064" stroke-miterlimit="10" stroke-linecap="round"/>
<path d="M194.068 635.901C195.217 635.653 196.29 634.893 197.34 634.368" stroke="#294064" stroke-miterlimit="10" stroke-linecap="round"/>
<path d="M191.528 632.131C191.489 631.833 193.103 629.7 193.416 629.293" stroke="#294064" stroke-miterlimit="10" stroke-linecap="round"/>
<path d="M158.323 575.925C157.781 575.975 157.383 576.456 157.433 576.997C157.618 579.022 157.251 581.698 156.539 583.853C156.31 584.546 156.005 585.329 155.657 586.118C155.661 586.109 155.657 586.11 155.653 586.118C155.645 586.133 155.633 586.154 155.618 586.18C155.592 586.227 155.507 586.375 155.507 586.376C155.355 586.635 155.313 586.708 155.266 586.808C155.222 586.903 155.193 586.974 155.172 587.095C155.156 587.194 155.157 587.194 155.165 587.381C155.182 587.501 155.18 587.501 155.238 587.663C155.33 587.845 155.332 587.845 155.51 588.026C155.728 588.176 155.727 588.176 155.957 588.239C156.162 588.262 156.161 588.262 156.309 588.242C156.439 588.22 156.541 588.18 156.634 588.127C156.754 588.059 156.82 588.002 156.902 587.915C156.936 587.879 156.97 587.837 157.011 587.789C157.115 587.663 157.17 587.52 157.202 587.37V587.367C157.205 587.362 157.409 587.019 157.457 586.91C157.83 586.067 158.159 585.23 158.41 584.471C159.202 582.071 159.601 579.129 159.39 576.819C159.341 576.278 158.864 575.876 158.323 575.925Z" fill="white" stroke="#294064" stroke-miterlimit="10" stroke-linecap="round"/>
<path d="M210.374 550.678C210.247 550.674 210.117 550.697 209.991 550.747C209.485 550.947 209.236 551.519 209.436 552.024C210.119 553.747 209.848 556.155 208.892 559.383C208.725 559.945 208.496 560.487 208.222 561.002C208.007 561.405 207.78 561.766 207.552 562.08C207.473 562.188 207.399 562.281 207.335 562.359C207.314 562.385 207.272 562.437 207.273 562.436C206.911 562.842 206.947 563.464 207.353 563.825C207.759 564.186 208.38 564.151 208.742 563.745C208.768 563.715 208.81 563.668 208.864 563.602C208.949 563.497 209.043 563.375 209.143 563.239C209.423 562.854 209.699 562.414 209.959 561.927C210.293 561.3 210.573 560.636 210.779 559.941C211.239 558.39 211.54 557.068 211.686 555.775C211.88 554.065 211.77 552.566 211.268 551.299C211.118 550.92 210.758 550.686 210.374 550.678Z" fill="white" stroke="#294064" stroke-miterlimit="10" stroke-linecap="round"/>
<path d="M198.212 559.662C198.741 562.504 200.391 565.212 203.84 567.219C207.29 569.226 211.145 567.897 212.009 567.691" stroke="#294064" stroke-miterlimit="10" stroke-linecap="round"/>
<path d="M212.852 567.196C215.381 566.068 217.152 564.258 218.308 561.722" stroke="#294064" stroke-miterlimit="10" stroke-linecap="round"/>
<path d="M147.275 577.573C147.275 577.573 146.022 580.399 146.383 583.558C146.63 585.721 148.119 589.669 151.507 591.142" stroke="#294064" stroke-miterlimit="10" stroke-linecap="round"/>
<path d="M152.79 591.989C154.993 593.389 158.18 593.404 160.586 592.236" stroke="#294064" stroke-miterlimit="10" stroke-linecap="round"/>
<path d="M236.106 623.255C243.098 628.833 247.722 639.656 249.116 649.107C250.32 657.277 250.255 664.894 244.938 671.46" stroke="#294064" stroke-miterlimit="10" stroke-linecap="round"/>
<path d="M247.445 663.406C248.404 663.368 249.351 663.542 250.299 663.506" stroke="#294064" stroke-miterlimit="10" stroke-linecap="round"/>
<path d="M248.377 658.883C249.113 658.604 249.899 658.507 250.683 658.476" stroke="#294064" stroke-miterlimit="10" stroke-linecap="round"/>
<path d="M247.665 652.839C247.665 652.839 249.869 653.551 250.286 653.74" stroke="#294064" stroke-miterlimit="10" stroke-linecap="round"/>
<path d="M246.346 647.454C247.494 647.02 248.48 646.328 249.609 645.901" stroke="#294064" stroke-miterlimit="10" stroke-linecap="round"/>
<path d="M244.513 639.766C245.44 640.121 246.689 640.064 247.699 640.275" stroke="#294064" stroke-miterlimit="10" stroke-linecap="round"/>
<path d="M242.636 634.982C243.838 634.529 244.902 633.771 246.107 633.315" stroke="#294064" stroke-miterlimit="10" stroke-linecap="round"/>
<path d="M240.427 629.791C239.933 629.81 241.183 629.792 241.43 629.804C242.118 629.84 242.801 629.909 243.491 629.881" stroke="#294064" stroke-miterlimit="10" stroke-linecap="round"/>
<path d="M213.831 631.05C213.166 632.105 212.663 633.295 212.043 634.385" stroke="#294064" stroke-miterlimit="10" stroke-linecap="round"/>
<path d="M216.506 631.745C216.506 631.745 216.394 632.276 216.34 632.543C216.199 633.247 216.078 633.893 216.007 634.609" stroke="#294064" stroke-miterlimit="10" stroke-linecap="round"/>
<path d="M222.71 630.991C222.86 631.654 223.058 632.289 223.157 632.964" stroke="#294064" stroke-miterlimit="10" stroke-linecap="round"/>
<path d="M225.334 625.338C226.16 625.022 228.14 624.332 229.022 624.419" stroke="#294064" stroke-miterlimit="10" stroke-linecap="round"/>
<path d="M225.913 623.809C226.472 623.35 226.969 622.906 227.546 622.472" stroke="#294064" stroke-miterlimit="10" stroke-linecap="round"/>
<path d="M208.007 626.184C208.804 626.184 209.628 626.314 210.441 626.314" stroke="#294064" stroke-miterlimit="10" stroke-linecap="round"/>
<path d="M219.878 613.877C219.832 614.568 219.709 615.373 219.878 616.051" stroke="#294064" stroke-miterlimit="10" stroke-linecap="round"/>
<path d="M221.835 614.573C221.625 615.414 221.45 616.381 221.183 617.182" stroke="#294064" stroke-miterlimit="10" stroke-linecap="round"/>
<path d="M258.558 653.693C266.891 655.946 283.499 659.183 296.06 658.861C305.252 658.626 309.183 656.445 311.863 654.059C313.171 652.895 314.594 649.915 312.991 648.331" stroke="#294064" stroke-miterlimit="10" stroke-linecap="round"/>
<path d="M311.752 655.373C312.49 654.419 311.276 652.991 311.289 652.077" stroke="#294064" stroke-miterlimit="10" stroke-linecap="round"/>
<path d="M306.819 658.061C306.946 657.15 306.812 654.855 306.695 653.94" stroke="#294064" stroke-miterlimit="10" stroke-linecap="round"/>
<path d="M301.774 659.371C301.774 659.371 301.927 658.023 301.931 657.785C301.943 656.914 301.629 656.034 301.798 655.174" stroke="#294064" stroke-miterlimit="10" stroke-linecap="round"/>
<path d="M294.953 659.67C294.953 659.67 296.436 657.079 296.583 656.772" stroke="#294064" stroke-miterlimit="10" stroke-linecap="round"/>
<path d="M290.665 659.976C290.665 659.976 289.233 656.987 289.238 656.723" stroke="#294064" stroke-miterlimit="10" stroke-linecap="round"/>
<path d="M284.709 659.891C284.725 658.883 285.375 657.919 285.603 656.926" stroke="#294064" stroke-miterlimit="10" stroke-linecap="round"/>
<path d="M279.778 659.593C279.989 658.517 279.269 657.474 279.285 656.381" stroke="#294064" stroke-miterlimit="10" stroke-linecap="round"/>
<path d="M273.923 658.401C273.923 658.401 274.335 657.428 274.392 657.331C274.718 656.779 274.972 656.215 275.183 655.612" stroke="#294064" stroke-miterlimit="10" stroke-linecap="round"/>
<path d="M269.027 657.594C268.975 656.402 268.982 655.252 268.738 654.072" stroke="#294064" stroke-miterlimit="10" stroke-linecap="round"/>
<path d="M262.722 656.197C263.387 655.644 264.19 654.884 264.819 654.271" stroke="#294064" stroke-miterlimit="10" stroke-linecap="round"/>
<path d="M214.58 571.491C217.791 568.466 221.948 567.663 223.865 569.698C225.782 571.733 224.734 575.835 221.523 578.86C218.311 581.885 214.153 582.688 212.237 580.653C210.32 578.618 211.369 574.516 214.58 571.491Z" fill="#FF5F80" stroke="#294064" stroke-miterlimit="10" stroke-linecap="round"/>
<path d="M165.42 604.359C169.66 603.14 172.471 599.974 171.699 597.287C170.927 594.6 166.863 593.41 162.623 594.629C158.383 595.847 155.572 599.013 156.344 601.7C157.116 604.387 161.18 605.577 165.42 604.359Z" fill="#FF5F80" stroke="#294064" stroke-miterlimit="10" stroke-linecap="round"/>
<path d="M160.014 602.74C159.74 603.837 159.442 604.889 159.084 605.962" stroke="#294064" stroke-miterlimit="10" stroke-linecap="round"/>
<path d="M163.299 603.36C163.299 604.329 163.304 605.138 163.422 606.086" stroke="#294064" stroke-miterlimit="10" stroke-linecap="round"/>
<path d="M169 593.011C168.591 593.827 168.166 594.736 167.946 595.613" stroke="#294064" stroke-miterlimit="10" stroke-linecap="round"/>
<path d="M169.62 596.357C170.241 595.86 171.175 595.304 171.974 595.304" stroke="#294064" stroke-miterlimit="10" stroke-linecap="round"/>
<path d="M157.596 598.898C156.16 598.693 154.593 598.751 153.197 598.402" stroke="#294064" stroke-miterlimit="10" stroke-linecap="round"/>
<path d="M214.824 580.095C214.518 581.012 214.437 581.999 214.129 582.926" stroke="#294064" stroke-miterlimit="10" stroke-linecap="round"/>
<path d="M218.678 579.631C218.728 580.543 218.757 581.495 219.048 582.368" stroke="#294064" stroke-miterlimit="10" stroke-linecap="round"/>
<path d="M222.577 575.917C223.059 576.521 223.876 576.9 224.478 577.402" stroke="#294064" stroke-miterlimit="10" stroke-linecap="round"/>
<path d="M222.669 570.347C223.302 569.291 224.023 568.297 224.896 567.423" stroke="#294064" stroke-miterlimit="10" stroke-linecap="round"/>
<path d="M210.136 574.85C210.422 575.136 212.688 575.209 213.338 575.268" stroke="#294064" stroke-miterlimit="10" stroke-linecap="round"/>
<path d="M267.164 433.023C266.722 434.362 266.207 436.602 266.207 436.602C266.207 436.602 267.428 439.567 269.905 440.669C271.152 436.733 272.902 430.817 272.794 426.709" fill="#294064"/>
<path d="M267.164 433.023C266.722 434.362 266.207 436.602 266.207 436.602C266.207 436.602 267.428 439.567 269.905 440.669C271.152 436.733 272.902 430.817 272.794 426.709" stroke="#294064" stroke-miterlimit="10" stroke-linecap="round"/>
<path d="M224.721 477.027L224.905 481.422C224.905 481.422 226.763 484.071 229.576 484.318C229.576 484.318 229.364 475.913 229.038 474.561" fill="#294064"/>
<path d="M224.721 477.027L224.905 481.422C224.905 481.422 226.763 484.071 229.576 484.318C229.576 484.318 229.364 475.913 229.038 474.561" stroke="#294064" stroke-miterlimit="10" stroke-linecap="round"/>
<path d="M183.614 435.809C183.983 437.507 184.551 441.222 184.551 441.222C184.551 441.222 186.411 443.942 189.753 445.109C189.753 445.109 188.507 434.971 187.787 431.556" fill="#294064"/>
<path d="M183.614 435.809C183.983 437.507 184.551 441.222 184.551 441.222C184.551 441.222 186.411 443.942 189.753 445.109C189.753 445.109 188.507 434.971 187.787 431.556" stroke="#294064" stroke-miterlimit="10" stroke-linecap="round"/>
<path d="M127.61 436.511L130.242 442.646C130.242 442.646 132.456 444.133 135.424 443.471C135.424 443.471 131.844 434.263 131.203 432.926" fill="#294064"/>
<path d="M127.61 436.511L130.242 442.646C130.242 442.646 132.456 444.133 135.424 443.471C135.424 443.471 131.844 434.263 131.203 432.926" stroke="#294064" stroke-miterlimit="10" stroke-linecap="round"/>
<path d="M185.72 371.086C185.255 370.3 184.398 369.834 183.487 369.87L152.57 363.271C150.705 363.346 149.636 373.221 150.571 374.836L169.947 408.278C170.892 409.911 169.741 411.96 167.855 412.001L95.4807 405.762C93.5262 405.805 92.521 415.811 93.6034 417.439L106.771 437.247C107.243 437.958 108.048 438.375 108.9 438.354L184.733 436.388C185.64 436.364 186.489 436.838 186.942 437.624L210.352 478.039C210.8 478.814 211.632 479.287 212.527 479.276L245.214 478.89C247.123 478.867 250.017 469.447 249.046 467.804L225.928 439.013C224.962 437.384 226.104 435.319 227.996 435.27L299.321 433.421C301.469 433.365 304.813 423.994 303.334 422.436L283.083 410.292C282.601 409.785 281.927 409.505 281.227 409.52L210.85 411.061C209.955 411.08 209.118 410.615 208.663 409.844L185.72 371.086Z" fill="#FFF2E0" stroke="#294064" stroke-miterlimit="10"/>
<path d="M187.216 361.76C186.75 360.975 185.892 360.509 184.98 360.545L154.113 361.789C152.247 361.865 151.131 363.896 152.067 365.511L171.442 398.953C172.388 400.586 171.236 402.635 169.35 402.676L97.1096 404.261C95.1551 404.304 94.0161 406.486 95.0985 408.114L108.266 427.922C108.738 428.633 109.543 429.051 110.396 429.028L186.227 427.063C187.136 427.039 187.983 427.513 188.438 428.299L211.848 468.714C212.296 469.489 213.128 469.962 214.023 469.951L246.71 469.565C248.617 469.542 249.786 467.463 248.815 465.821L227.421 429.688C226.458 428.059 227.6 425.994 229.492 425.945L300.817 424.095C302.962 424.04 304.031 421.467 302.552 419.909L284.576 400.968C284.095 400.46 283.423 400.18 282.723 400.195L212.346 401.736C211.451 401.755 210.614 401.29 210.157 400.519L187.216 361.76Z" fill="white" stroke="#294064" stroke-miterlimit="10"/>
<path d="M109.114 415.603C109.063 413.159 113.474 411.085 118.966 410.971C124.457 410.856 128.95 412.744 129.001 415.188C129.052 417.632 124.642 419.706 119.15 419.821C113.659 419.935 109.165 418.047 109.114 415.603Z" fill="#A360E7" stroke="#294064" stroke-miterlimit="10"/>
<path d="M264.928 412.352C264.877 409.908 269.288 407.834 274.781 407.719C280.272 407.605 284.766 409.493 284.817 411.937C284.868 414.381 280.457 416.455 274.966 416.569C269.473 416.684 264.979 414.796 264.928 412.352Z" fill="#A360E7" stroke="#294064" stroke-miterlimit="10"/>
<path d="M164.45 370.905C164.399 368.461 168.81 366.387 174.302 366.272C179.793 366.157 184.285 368.046 184.336 370.49C184.387 372.934 179.978 375.008 174.486 375.122C168.995 375.237 164.501 373.349 164.45 370.905Z" fill="#A360E7" stroke="#294064" stroke-miterlimit="10"/>
<path d="M217.2 459.476C217.149 457.032 221.558 454.958 227.051 454.843C232.542 454.729 237.036 456.617 237.087 459.061C237.138 461.505 232.727 463.579 227.236 463.694C221.742 463.808 217.251 461.92 217.2 459.476Z" fill="#A360E7" stroke="#294064" stroke-miterlimit="10"/>
<path d="M167.389 373.609L180.719 367.506" stroke="#294064" stroke-miterlimit="10" stroke-linecap="round"/>
<path d="M166.416 368.675L183.227 372.141" stroke="#294064" stroke-miterlimit="10" stroke-linecap="round"/>
<path d="M112.392 418.57L125.271 411.949" stroke="#294064" stroke-miterlimit="10" stroke-linecap="round"/>
<path d="M110.804 413.235L127.795 416.887" stroke="#294064" stroke-miterlimit="10" stroke-linecap="round"/>
<path d="M268.349 409.343L281.86 414.615" stroke="#294064" stroke-miterlimit="10" stroke-linecap="round"/>
<path d="M267.19 415.097L280.857 408.861" stroke="#294064" stroke-miterlimit="10" stroke-linecap="round"/>
<path d="M219.424 456.751L234.397 461.552" stroke="#294064" stroke-miterlimit="10" stroke-linecap="round"/>
<path d="M220.155 461.745L234.396 456.595" stroke="#294064" stroke-miterlimit="10" stroke-linecap="round"/>
<path d="M270.914 611.662C270.863 611.424 270.787 611.184 270.697 610.949C270.081 609.372 268.627 608.068 266.815 607.369C262.398 605.666 256.829 606.243 253.279 609.147C252.387 609.875 252.264 611.01 252.796 611.925C253.059 612.379 253.437 612.739 253.94 613.099C254.197 613.287 254.484 613.471 254.8 613.655C255.106 613.829 255.422 613.995 255.755 614.162C255.922 614.243 256.218 614.386 256.211 614.381C256.176 614.365 257.868 615.262 258.408 615.533C260.348 616.515 261.898 617.129 263.429 617.421C265.604 617.842 267.539 617.526 269.103 616.254C270.643 615.002 271.274 613.328 270.914 611.662ZM267.54 612.54C267.556 612.869 267.38 613.187 266.917 613.56C266.243 614.109 265.336 614.259 264.082 614.019C262.941 613.799 261.652 613.282 259.975 612.434C259.468 612.179 257.793 611.302 257.803 611.309C257.756 611.283 257.421 611.119 257.295 611.056C257.187 611.004 257.098 610.953 256.997 610.899C259.506 609.685 262.845 609.557 265.565 610.605C266.521 610.973 267.235 611.607 267.467 612.207C267.513 612.321 267.535 612.43 267.54 612.54Z" fill="#0FB8B4" stroke="#294064" stroke-width="0.710761" stroke-miterlimit="10" stroke-linecap="round"/>
<path d="M165.584 679.703C165.309 680.792 165.232 681.901 165.405 682.907C165.874 685.639 168.047 687.289 171.275 687.119C173.334 687.011 175.033 685.977 176.255 684.298C177.218 682.973 177.854 681.284 178.135 679.522C178.418 677.74 178.313 675.927 177.933 674.159C177.785 673.47 177.601 672.827 177.403 672.25C177.333 672.045 177.265 671.866 177.201 671.703C177.16 671.599 177.125 671.512 177.103 671.462L176.293 669.625L174.472 670.475C174.397 670.511 174.277 670.572 174.112 670.656C173.849 670.79 173.557 670.948 173.242 671.127C172.346 671.639 171.434 672.234 170.55 672.916C169.105 674.031 167.874 675.264 166.957 676.628C166.333 677.555 165.86 678.617 165.584 679.703ZM169.427 680.581C169.593 679.978 169.866 679.357 170.225 678.823C170.88 677.848 171.817 676.904 172.952 676.029C173.333 675.736 173.729 675.511 174.121 675.251C174.361 676.49 174.435 677.73 174.249 678.898C173.848 681.419 172.622 683.105 171.071 683.187C169.794 683.252 169.407 682.963 169.282 682.238C169.202 681.772 169.262 681.187 169.427 680.581Z" fill="#0FB8B4" stroke="#294064" stroke-width="0.806958" stroke-miterlimit="10" stroke-linecap="round"/>
<path d="M163.225 665.204C162.134 665.466 161.117 665.914 160.307 666.536C158.105 668.221 157.657 670.911 159.308 673.692C160.361 675.463 162.066 676.486 164.122 676.787C165.744 677.024 167.534 676.801 169.226 676.229C170.934 675.649 172.489 674.714 173.878 673.556C174.42 673.103 174.903 672.642 175.321 672.199C175.47 672.04 175.598 671.898 175.711 671.764C175.785 671.679 175.844 671.61 175.879 671.565L177.129 669.993L175.529 668.777C175.463 668.727 175.353 668.649 175.202 668.542C174.961 668.372 174.686 668.187 174.379 667.991C173.509 667.438 172.558 666.907 171.544 666.44C169.885 665.68 168.22 665.166 166.585 664.988C165.474 664.867 164.315 664.942 163.225 665.204ZM164.235 669.015C164.847 668.88 165.524 668.832 166.163 668.902C167.331 669.029 168.602 669.419 169.905 670.016C170.342 670.217 170.727 670.463 171.138 670.688C170.153 671.477 169.09 672.119 167.969 672.499C165.551 673.315 163.488 673.017 162.695 671.679C162.042 670.581 162.119 670.103 162.702 669.654C163.078 669.369 163.623 669.15 164.235 669.015Z" fill="#18D0CB" stroke="#294064" stroke-width="0.806958" stroke-miterlimit="10" stroke-linecap="round"/>
<path d="M263.057 600.202C263.27 599.166 263.294 598.114 263.089 597.172C262.528 594.61 260.405 593.15 257.364 593.447C255.426 593.636 253.865 594.684 252.785 596.324C251.931 597.617 251.404 599.238 251.214 600.916C251.023 602.608 251.2 604.314 251.635 605.968C251.804 606.614 252.007 607.212 252.216 607.747C252.293 607.938 252.365 608.105 252.431 608.257C252.475 608.354 252.51 608.433 252.536 608.479L253.379 610.179L255.061 609.297C255.131 609.262 255.241 609.198 255.393 609.112C255.634 608.976 255.904 608.814 256.193 608.63C257.019 608.108 257.853 607.507 258.658 606.827C259.977 605.711 261.085 604.493 261.892 603.166C262.442 602.264 262.842 601.241 263.057 600.202ZM259.389 599.54C259.26 600.116 259.028 600.716 258.712 601.235C258.134 602.183 257.293 603.113 256.257 603.989C255.91 604.284 255.546 604.513 255.186 604.775C254.908 603.614 254.783 602.449 254.909 601.336C255.181 598.94 256.266 597.295 257.727 597.152C258.93 597.035 259.308 597.292 259.456 597.97C259.551 598.407 259.521 598.961 259.389 599.54Z" fill="#18D0CB" stroke="#294064" stroke-width="0.762695" stroke-miterlimit="10" stroke-linecap="round"/>
<path d="M170.492 651.772C169.145 651.778 168.052 652.87 168.057 654.218C168.095 663.924 174.467 674.624 182.649 677.3C183.93 677.72 185.308 677.022 185.727 675.743C186.146 674.461 185.449 673.082 184.169 672.665C178.179 670.705 172.966 661.958 172.936 654.2C172.931 652.853 171.839 651.768 170.492 651.772Z" fill="#53FFFA" stroke="#294064" stroke-miterlimit="10" stroke-linecap="round"/>
<path d="M245.5 602.008C244.556 602.125 243.723 602.794 243.448 603.766C243.078 605.061 243.831 606.412 245.126 606.78C246.667 607.218 249.344 609.936 251.339 613.336C253.444 616.92 254.299 620.359 253.603 622.093C253.102 623.342 253.707 624.764 254.957 625.267C256.207 625.768 257.628 625.163 258.132 623.913C259.532 620.42 258.344 615.625 255.549 610.863C252.977 606.482 249.493 602.952 246.463 602.088C246.139 601.995 245.814 601.97 245.5 602.008Z" fill="#53FFFA" stroke="#294064" stroke-miterlimit="10" stroke-linecap="round"/>
<path d="M290.477 640.121C289.856 640.168 289.252 640.454 288.811 640.966C287.932 641.984 288.045 643.526 289.066 644.405C292.747 647.58 295.117 656.173 293.834 661.449C293.518 662.758 294.319 664.076 295.628 664.392C296.935 664.712 298.252 663.911 298.571 662.601C300.267 655.616 297.382 645.136 292.25 640.711C291.741 640.27 291.1 640.076 290.477 640.121Z" fill="#53FFFA" stroke="#294064" stroke-miterlimit="10" stroke-linecap="round"/>
<path d="M275.647 568.651C275.75 566.02 276.296 562.928 276.296 562.928" stroke="#294064" stroke-miterlimit="10" stroke-linecap="round"/>
<path d="M280.267 571.668C280.321 569.381 280.781 566.069 280.781 566.069" stroke="#294064" stroke-miterlimit="10" stroke-linecap="round"/>
<path d="M139.653 478.92C139.479 475.916 138.97 473.574 138.97 473.574" stroke="#294064" stroke-miterlimit="10" stroke-linecap="round"/>
<path d="M144.576 481.249C144.455 478.582 144.052 475.19 144.052 475.19" stroke="#294064" stroke-miterlimit="10" stroke-linecap="round"/>
<path d="M108.299 437.371L108.977 430.836" stroke="#294064" stroke-miterlimit="10" stroke-linecap="round"/>
<path d="M186.148 435.225L186.39 428.56" stroke="#294064" stroke-miterlimit="10" stroke-linecap="round"/>
<path d="M212.019 478.168L212.57 471.289" stroke="#294064" stroke-miterlimit="10" stroke-linecap="round"/>
<path d="M290.111 421.901L261.706 422.635" stroke="#294064" stroke-miterlimit="10" stroke-linecap="round"/>
<path d="M255.739 422.655L240.847 423.217" stroke="#294064" stroke-miterlimit="10" stroke-linecap="round"/>
<path d="M158.254 371.736L173.668 397.362" stroke="#294064" stroke-miterlimit="10" stroke-linecap="round"/>
</g>
<defs>
<radialGradient id="paint0_radial_1177_2144" cx="0" cy="0" r="1" gradientUnits="userSpaceOnUse" gradientTransform="translate(831 888) rotate(118.185) scale(847.513 524.456)">
<stop stop-color="#E7012A"/>
<stop offset="1" stop-color="#5815A3"/>
</radialGradient>
<clipPath id="clip0_1177_2144">
<path d="M0 0H414V841C414 852.046 405.046 861 394 861H20C8.95432 861 0 852.046 0 841V0Z" fill="white"/>
</clipPath>
<clipPath id="clip1_1177_2144">
<rect width="107" height="25" fill="white" transform="translate(234 734)"/>
</clipPath>
</defs>
</svg>
