<svg width="414" height="861" viewBox="0 0 414 861" fill="none" xmlns="http://www.w3.org/2000/svg">
<g clip-path="url(#clip0_1177_2299)">
<path d="M0 0H414V841C414 852.046 405.046 861 394 861H20C8.95432 861 0 852.046 0 841V0Z" fill="#EF6A82"/>
<rect x="415" y="888" width="416" height="888" transform="rotate(-180 415 888)" fill="url(#paint0_radial_1177_2299)"/>
<path fill-rule="evenodd" clip-rule="evenodd" d="M99.1203 733.449L93.3982 746.397H91.0033V733.449H71.7939L71.7946 733.449C68.5919 733.474 65.0309 734.102 62.2459 736.49C59.2494 739.058 58.2169 742.719 58.2169 746.478C58.2169 750.237 59.2468 753.91 62.2674 756.47C65.1195 758.888 68.7733 759.463 71.9946 759.463C72.0472 759.463 72.1038 759.463 72.1038 759.463C72.1049 759.463 72.1049 759.463 72.1056 759.463C72.1049 759.463 72.1052 759.463 72.1056 759.463L87.6906 759.459H101.955L103.799 755.301H105.198L107.034 759.459H126.071V756.025C126.229 756.177 126.393 756.326 126.564 756.47C129.416 758.888 133.07 759.463 136.291 759.463C136.44 759.463 136.588 759.461 136.737 759.459H167.566V733.449H99.1203Z" fill="#E1012E"/>
<path fill-rule="evenodd" clip-rule="evenodd" d="M99.1566 733.175L93.3991 746.393H90.9894V733.175H71.661L71.6618 733.176C68.4392 733.201 64.8563 733.842 62.054 736.279C59.0389 738.902 58 742.638 58 746.476C58 750.313 59.0363 754.063 62.0756 756.677C64.9454 759.145 68.6218 759.732 71.863 759.732C71.9159 759.732 71.9729 759.732 71.9729 759.732C71.974 759.732 71.974 759.732 71.9747 759.732C71.974 759.732 71.9743 759.732 71.9747 759.732L87.6562 759.728H102.008L103.864 755.483H105.272L107.12 759.728H126.274V756.222C126.433 756.377 126.598 756.529 126.77 756.677C129.64 759.145 133.317 759.732 136.558 759.732C136.707 759.732 136.856 759.73 137.006 759.728H168.026V733.175H99.1566ZM80.0375 749.538C80.0342 749.557 80.0305 749.575 80.0269 749.594C80.0192 749.636 80.0115 749.678 80.0031 749.719C79.9984 749.742 79.9933 749.764 79.9885 749.787C79.9809 749.824 79.9732 749.86 79.9652 749.896C79.9597 749.921 79.9535 749.946 79.9476 749.97C79.9396 750.003 79.9319 750.036 79.9235 750.069C79.9155 750.1 79.9075 750.131 79.8991 750.161C79.8929 750.185 79.8867 750.208 79.8801 750.231C79.8713 750.263 79.8618 750.293 79.8527 750.324C79.8461 750.346 79.8399 750.369 79.833 750.391C79.8231 750.422 79.8125 750.454 79.8023 750.486C79.7957 750.506 79.7892 750.527 79.7822 750.547C79.7705 750.581 79.7585 750.615 79.7461 750.649C79.7402 750.666 79.7344 750.683 79.7282 750.7C79.7096 750.75 79.6906 750.799 79.6708 750.848C79.6665 750.86 79.6617 750.87 79.657 750.881C79.6416 750.919 79.6259 750.957 79.6099 750.994C79.6015 751.013 79.5923 751.033 79.5839 751.052C79.5712 751.08 79.5587 751.109 79.5456 751.137C79.5357 751.158 79.5255 751.178 79.5153 751.199C79.5029 751.225 79.4905 751.251 79.4777 751.276C79.4667 751.297 79.4558 751.318 79.4444 751.339C79.4317 751.363 79.4192 751.388 79.4065 751.412C79.3948 751.433 79.3827 751.454 79.3707 751.476C79.3579 751.499 79.3451 751.522 79.3316 751.545C79.3192 751.566 79.3064 751.587 79.2936 751.608C79.2801 751.63 79.267 751.652 79.2535 751.674C79.2403 751.695 79.2272 751.715 79.2137 751.736C79.1998 751.757 79.1859 751.779 79.172 751.8C79.1582 751.821 79.1443 751.841 79.1304 751.861C79.1162 751.882 79.1019 751.903 79.0873 751.923C79.0731 751.943 79.0581 751.963 79.0435 751.983C79.0285 752.003 79.0139 752.023 78.9989 752.043C78.984 752.063 78.9686 752.082 78.9533 752.102C78.938 752.121 78.9226 752.141 78.9069 752.16C78.8912 752.179 78.8755 752.198 78.8595 752.217C78.8438 752.236 78.8277 752.255 78.8116 752.273C78.7952 752.292 78.7788 752.311 78.7623 752.329C78.7459 752.348 78.7295 752.366 78.7127 752.384C78.6959 752.402 78.6787 752.421 78.6615 752.439C78.6447 752.456 78.6276 752.474 78.6104 752.491C78.5929 752.509 78.5754 752.527 78.5578 752.544C78.5403 752.562 78.5228 752.579 78.5049 752.596C78.487 752.613 78.4687 752.63 78.4505 752.647C78.4322 752.664 78.414 752.681 78.3957 752.697C78.3771 752.714 78.3585 752.731 78.3398 752.747C78.3212 752.763 78.3022 752.78 78.2829 752.796C78.2639 752.812 78.2449 752.828 78.2255 752.844C78.2062 752.86 78.1865 752.876 78.1664 752.891C78.147 752.907 78.1273 752.922 78.1076 752.938C78.0875 752.953 78.0667 752.969 78.0462 752.984C78.0265 752.999 78.0064 753.014 77.9864 753.029C77.9655 753.044 77.944 753.059 77.9228 753.074C77.9024 753.088 77.8823 753.102 77.8618 753.117C77.8399 753.132 77.8176 753.146 77.7954 753.161C77.7749 753.174 77.7545 753.188 77.734 753.201C77.711 753.216 77.6877 753.231 77.6639 753.245C77.6435 753.258 77.623 753.271 77.6026 753.283C77.5781 753.298 77.5529 753.312 77.5281 753.327C77.508 753.339 77.4883 753.351 77.4678 753.362C77.4408 753.377 77.4131 753.392 77.3857 753.407C77.2294 753.493 77.0669 753.573 76.8978 753.648C75.6019 754.22 73.9228 754.478 71.8622 754.478C66.6131 754.478 63.5256 752.563 63.2696 747.217C63.258 746.977 63.2525 746.73 63.2525 746.475C63.2525 746.189 63.2598 745.912 63.2744 745.643C63.5614 740.381 66.6434 738.427 71.8622 738.427C73.906 738.427 75.5814 738.681 76.8752 739.248C77.061 739.329 77.2385 739.418 77.4083 739.512C77.4309 739.525 77.454 739.537 77.4766 739.55C77.5018 739.564 77.5266 739.579 77.5515 739.594C77.5734 739.607 77.5953 739.62 77.6168 739.633C77.6416 739.648 77.6661 739.664 77.6906 739.68C77.7114 739.693 77.7326 739.706 77.7534 739.72C77.7775 739.735 77.8009 739.751 77.8242 739.767C77.8447 739.781 77.8659 739.795 77.8859 739.809C77.9097 739.825 77.9327 739.843 77.956 739.859C77.9758 739.874 77.9955 739.888 78.0148 739.902C78.0382 739.919 78.0608 739.937 78.0839 739.955C78.1025 739.969 78.1215 739.983 78.1401 739.998C78.1624 740.016 78.1843 740.034 78.2065 740.052C78.2248 740.067 78.2434 740.082 78.2617 740.098C78.2829 740.115 78.3037 740.134 78.3249 740.153C78.3431 740.169 78.3617 740.184 78.3796 740.201C78.4001 740.219 78.4198 740.238 78.4399 740.256C78.4578 740.273 78.476 740.29 78.4936 740.306C78.5133 740.325 78.5323 740.345 78.5516 740.364C78.5688 740.381 78.5863 740.398 78.6035 740.416C78.6221 740.435 78.64 740.455 78.6583 740.474C78.6754 740.492 78.6929 740.51 78.7097 740.529C78.7273 740.548 78.7444 740.568 78.762 740.588C78.7788 740.607 78.7955 740.626 78.812 740.645C78.8288 740.665 78.8452 740.685 78.8616 740.706C78.8777 740.725 78.8945 740.745 78.9102 740.765C78.9263 740.785 78.942 740.806 78.9577 740.826C78.9734 740.847 78.9895 740.867 79.0048 740.888C79.0205 740.909 79.0351 740.93 79.0504 740.952C79.0654 740.973 79.0807 740.993 79.0953 741.015C79.1096 741.035 79.1231 741.056 79.137 741.078C79.1519 741.1 79.1673 741.123 79.1823 741.146C79.1954 741.166 79.2075 741.186 79.2202 741.207C79.2352 741.231 79.2505 741.255 79.2651 741.28C79.2776 741.3 79.2892 741.322 79.3017 741.343C79.3159 741.368 79.3305 741.392 79.3444 741.417C79.3561 741.438 79.3674 741.46 79.3787 741.481C79.3926 741.507 79.4065 741.532 79.4196 741.558C79.4306 741.58 79.4412 741.602 79.4517 741.623C79.4649 741.65 79.4784 741.676 79.4912 741.703C79.5014 741.725 79.5113 741.747 79.5215 741.769C79.5339 741.796 79.5467 741.823 79.5591 741.851C79.5686 741.873 79.5777 741.896 79.5872 741.918C79.5993 741.946 79.6113 741.974 79.623 742.003C79.6321 742.026 79.6409 742.05 79.65 742.073C79.661 742.102 79.6723 742.13 79.6829 742.159C79.6917 742.183 79.6997 742.207 79.7081 742.231C79.7183 742.26 79.7289 742.289 79.7388 742.318C79.7468 742.343 79.7541 742.367 79.7621 742.391C79.7716 742.421 79.7815 742.451 79.791 742.482C79.7986 742.507 79.8056 742.532 79.8129 742.558C79.8217 742.588 79.8308 742.618 79.8392 742.649C79.8465 742.676 79.8531 742.703 79.8604 742.73C79.868 742.76 79.8761 742.789 79.8834 742.819C79.8903 742.848 79.8965 742.877 79.9031 742.905C79.91 742.935 79.917 742.964 79.9235 742.994C79.9305 743.026 79.9367 743.058 79.9433 743.091C79.9487 743.118 79.9546 743.145 79.9601 743.173C79.9604 743.175 79.9611 743.178 79.9615 743.181C79.9714 743.232 79.9805 743.285 79.9893 743.338C79.9918 743.354 79.9944 743.37 79.9973 743.386C80.0039 743.428 80.0104 743.47 80.0166 743.512C80.0188 743.528 80.0214 743.544 80.0236 743.56C80.0316 743.617 80.0389 743.674 80.0459 743.732H76.8763C76.4717 741.507 74.8306 740.878 71.8633 740.878C68.559 740.878 66.4232 741.979 66.4232 745.643V747.217C66.4232 750.814 68.5137 752.027 71.8633 752.027C74.7182 752.027 76.3818 751.488 76.8989 749.352H80.0685C80.059 749.415 80.0488 749.476 80.0378 749.537L80.0375 749.538ZM95.2223 754.209H83.86H82.5888V738.698H85.7362V751.646H95.2227V754.209H95.2223ZM112.62 754.209H110.446L108.715 750.23H100.421L98.6899 754.209H95.7226L99.1777 746.393L102.579 738.698H106.895L112.62 751.693L113.729 754.21H112.62L112.62 754.209ZM127.359 741.261H123.473H121.02V754.209H117.874V741.261H111.534V738.698H127.36V741.261H127.359ZM144.697 749.726C144.696 749.73 144.695 749.733 144.695 749.737C144.683 749.793 144.671 749.849 144.659 749.904C144.657 749.913 144.655 749.921 144.652 749.93C144.641 749.98 144.629 750.029 144.617 750.077C144.612 750.095 144.607 750.111 144.603 750.128C144.594 750.165 144.584 750.201 144.573 750.237C144.568 750.257 144.562 750.276 144.557 750.295C144.547 750.328 144.537 750.362 144.527 750.395C144.52 750.417 144.513 750.438 144.506 750.46C144.496 750.49 144.487 750.52 144.477 750.55C144.468 750.576 144.458 750.601 144.449 750.627C144.441 750.652 144.432 750.677 144.423 750.701C144.405 750.751 144.386 750.8 144.366 750.849C144.363 750.857 144.359 750.865 144.357 750.873C144.34 750.914 144.323 750.955 144.305 750.996C144.299 751.01 144.292 751.024 144.286 751.038C144.271 751.072 144.256 751.106 144.24 751.139C144.233 751.155 144.225 751.171 144.217 751.188C144.202 751.218 144.187 751.248 144.173 751.278C144.164 751.296 144.155 751.313 144.145 751.33C144.131 751.358 144.116 751.386 144.101 751.415C144.091 751.432 144.081 751.45 144.071 751.468C144.056 751.494 144.041 751.521 144.026 751.547C144.016 751.565 144.005 751.583 143.994 751.601C143.979 751.626 143.964 751.652 143.948 751.676C143.937 751.695 143.925 751.713 143.913 751.731C143.898 751.755 143.882 751.779 143.867 751.802C143.854 751.821 143.842 751.839 143.829 751.857C143.813 751.88 143.797 751.903 143.781 751.925C143.768 751.944 143.755 751.962 143.742 751.98C143.726 752.002 143.709 752.024 143.693 752.045C143.679 752.063 143.665 752.082 143.651 752.1C143.634 752.121 143.618 752.141 143.601 752.162C143.586 752.18 143.571 752.198 143.556 752.216C143.54 752.236 143.523 752.256 143.506 752.275C143.491 752.293 143.475 752.311 143.459 752.329C143.442 752.348 143.425 752.366 143.408 752.385C143.391 752.403 143.374 752.421 143.357 752.439C143.341 752.457 143.324 752.474 143.306 752.492C143.289 752.51 143.271 752.528 143.253 752.545C143.236 752.562 143.219 752.579 143.201 752.596C143.183 752.614 143.164 752.631 143.145 752.649C143.128 752.665 143.11 752.681 143.093 752.696C143.073 752.714 143.054 752.732 143.034 752.749C143.016 752.764 142.999 752.779 142.981 752.794C142.961 752.811 142.94 752.829 142.919 752.846C142.901 752.86 142.884 752.875 142.866 752.888C142.845 752.906 142.823 752.923 142.801 752.94C142.784 752.953 142.766 752.967 142.748 752.98C142.725 752.997 142.703 753.014 142.679 753.031C142.662 753.043 142.645 753.056 142.628 753.068C142.603 753.085 142.579 753.102 142.554 753.119C142.538 753.13 142.521 753.141 142.503 753.153C142.478 753.17 142.452 753.187 142.426 753.204C142.41 753.214 142.393 753.224 142.377 753.234C142.349 753.251 142.322 753.269 142.294 753.285C142.279 753.294 142.264 753.303 142.248 753.312C142.219 753.33 142.189 753.347 142.159 753.365C142.147 753.371 142.134 753.378 142.121 753.385C141.952 753.479 141.776 753.567 141.593 753.648C140.297 754.22 138.618 754.478 136.557 754.478C131.308 754.478 128.221 752.564 127.965 747.217C127.954 746.977 127.948 746.73 127.948 746.476C127.948 746.14 127.958 745.816 127.978 745.504C127.979 745.485 127.981 745.466 127.982 745.447C127.985 745.401 127.989 745.354 127.993 745.308C127.995 745.282 127.997 745.257 127.999 745.231C128.002 745.187 128.006 745.143 128.011 745.099C128.013 745.073 128.016 745.047 128.019 745.02C128.023 744.977 128.028 744.934 128.033 744.891C128.035 744.869 128.038 744.847 128.041 744.825C128.05 744.745 128.061 744.666 128.071 744.587C128.075 744.56 128.079 744.533 128.083 744.506C128.088 744.468 128.094 744.431 128.1 744.393C128.105 744.364 128.11 744.334 128.115 744.305C128.121 744.269 128.127 744.233 128.133 744.197C128.139 744.167 128.144 744.136 128.15 744.106C128.157 744.072 128.163 744.038 128.169 744.004C128.176 743.969 128.184 743.935 128.191 743.901C128.201 743.852 128.212 743.803 128.223 743.754C128.231 743.717 128.24 743.679 128.249 743.641C128.256 743.612 128.263 743.583 128.27 743.554C128.279 743.521 128.287 743.488 128.296 743.456C128.303 743.427 128.311 743.398 128.319 743.37C128.328 743.337 128.337 743.304 128.347 743.271C128.354 743.244 128.362 743.217 128.37 743.191C128.382 743.151 128.394 743.112 128.406 743.074C128.413 743.054 128.419 743.033 128.425 743.013C128.443 742.959 128.461 742.905 128.48 742.852C128.487 742.83 128.495 742.809 128.503 742.787C128.515 742.752 128.528 742.716 128.541 742.682C128.55 742.659 128.559 742.637 128.567 742.614C128.581 742.58 128.594 742.546 128.608 742.512C128.616 742.491 128.625 742.47 128.633 742.45C128.65 742.409 128.667 742.368 128.685 742.328C128.69 742.316 128.696 742.303 128.701 742.29C128.725 742.238 128.748 742.186 128.773 742.135C128.78 742.121 128.787 742.106 128.794 742.092C128.812 742.054 128.831 742.017 128.849 741.981C128.858 741.963 128.867 741.946 128.876 741.929C128.894 741.894 128.912 741.86 128.931 741.826C128.94 741.81 128.948 741.794 128.957 741.778C128.98 741.739 129.002 741.699 129.025 741.66C129.03 741.651 129.035 741.642 129.041 741.633C129.069 741.585 129.099 741.537 129.129 741.489C129.134 741.481 129.139 741.473 129.144 741.465C129.169 741.427 129.194 741.388 129.22 741.35C129.229 741.337 129.237 741.324 129.246 741.312C129.27 741.276 129.295 741.241 129.32 741.206C129.326 741.197 129.332 741.188 129.339 741.179C129.371 741.135 129.404 741.091 129.436 741.048C129.438 741.047 129.439 741.045 129.44 741.044C129.471 741.003 129.503 740.964 129.535 740.925C129.543 740.914 129.551 740.904 129.56 740.894C129.588 740.86 129.617 740.826 129.646 740.793C129.652 740.786 129.658 740.779 129.664 740.772C129.698 740.733 129.733 740.693 129.769 740.655C129.776 740.647 129.784 740.639 129.791 740.632C129.82 740.601 129.849 740.57 129.879 740.54C129.889 740.53 129.899 740.52 129.909 740.511C129.944 740.475 129.981 740.439 130.017 740.404C130.019 740.403 130.019 740.402 130.02 740.401C130.058 740.366 130.097 740.33 130.136 740.295C130.146 740.286 130.156 740.277 130.166 740.268C130.197 740.241 130.228 740.214 130.26 740.188C130.269 740.18 130.279 740.172 130.288 740.164C130.328 740.13 130.369 740.098 130.41 740.065C130.416 740.06 130.423 740.055 130.429 740.05C130.464 740.023 130.499 739.996 130.535 739.97C130.547 739.961 130.559 739.952 130.571 739.943C130.606 739.917 130.643 739.891 130.679 739.866C130.686 739.861 130.693 739.856 130.699 739.851C130.742 739.822 130.786 739.793 130.83 739.764C130.84 739.756 130.851 739.75 130.862 739.743C130.897 739.72 130.932 739.698 130.967 739.676C130.98 739.669 130.992 739.661 131.004 739.654C131.049 739.626 131.095 739.599 131.141 739.573C131.144 739.571 131.146 739.57 131.15 739.568C131.193 739.543 131.237 739.519 131.281 739.495C131.294 739.488 131.308 739.481 131.322 739.473C131.359 739.454 131.396 739.434 131.434 739.415C131.445 739.409 131.457 739.403 131.468 739.398C131.516 739.374 131.564 739.35 131.612 739.327C131.624 739.322 131.636 739.316 131.647 739.311C131.686 739.293 131.725 739.276 131.763 739.258C131.779 739.251 131.794 739.245 131.81 739.238C131.853 739.219 131.896 739.201 131.94 739.182C131.948 739.179 131.955 739.176 131.963 739.173C132.013 739.152 132.063 739.132 132.115 739.113C132.131 739.107 132.147 739.101 132.163 739.094C132.201 739.08 132.239 739.066 132.278 739.052C132.294 739.047 132.311 739.04 132.327 739.035C132.379 739.016 132.431 738.999 132.483 738.982C132.495 738.978 132.508 738.974 132.521 738.97C133.67 738.597 135.02 738.427 136.556 738.427C138.6 738.427 140.275 738.681 141.569 739.248C141.767 739.335 141.956 739.429 142.136 739.531C142.147 739.537 142.159 739.543 142.17 739.549C142.207 739.571 142.243 739.593 142.28 739.614C142.29 739.621 142.3 739.626 142.31 739.632C142.347 739.655 142.383 739.678 142.419 739.702C142.428 739.708 142.437 739.713 142.446 739.719C142.482 739.742 142.517 739.766 142.552 739.79C142.561 739.796 142.57 739.802 142.579 739.808C142.613 739.832 142.647 739.857 142.68 739.881C142.69 739.888 142.699 739.894 142.708 739.901C142.741 739.926 142.774 739.951 142.806 739.977C142.815 739.984 142.824 739.99 142.833 739.997C142.865 740.022 142.895 740.047 142.925 740.073C142.935 740.081 142.945 740.088 142.955 740.097C142.984 740.122 143.012 740.147 143.041 740.172C143.051 740.181 143.062 740.19 143.072 740.199C143.1 740.224 143.127 740.25 143.154 740.276C143.165 740.286 143.176 740.295 143.186 740.306C143.212 740.33 143.237 740.356 143.262 740.381C143.273 740.393 143.285 740.404 143.296 740.415C143.319 740.439 143.342 740.464 143.365 740.488C143.377 740.502 143.39 740.515 143.402 740.528C143.424 740.552 143.444 740.576 143.465 740.599C143.478 740.615 143.492 740.629 143.505 740.645C143.524 740.667 143.542 740.691 143.561 740.713C143.575 740.73 143.589 740.748 143.603 740.765C143.62 740.787 143.637 740.809 143.654 740.831C143.669 740.85 143.684 740.869 143.698 740.888C143.714 740.91 143.728 740.931 143.743 740.952C143.758 740.974 143.774 740.994 143.789 741.016C143.803 741.036 143.816 741.056 143.83 741.077C143.845 741.1 143.861 741.123 143.876 741.146C143.888 741.165 143.9 741.185 143.912 741.205C143.928 741.23 143.944 741.255 143.959 741.28C143.969 741.299 143.98 741.317 143.991 741.336C144.006 741.363 144.022 741.39 144.037 741.417C144.048 741.436 144.058 741.456 144.068 741.475C144.083 741.503 144.098 741.53 144.113 741.559C144.123 741.579 144.133 741.6 144.143 741.62C144.157 741.648 144.171 741.675 144.184 741.703C144.194 741.725 144.204 741.747 144.214 741.769C144.227 741.796 144.24 741.824 144.252 741.851C144.263 741.876 144.273 741.901 144.283 741.926C144.294 741.952 144.305 741.977 144.315 742.003C144.328 742.034 144.339 742.066 144.351 742.097C144.359 742.118 144.367 742.138 144.375 742.158C144.389 742.196 144.402 742.235 144.415 742.274C144.42 742.288 144.426 742.303 144.431 742.318C144.448 742.369 144.464 742.421 144.48 742.474C144.481 742.476 144.482 742.478 144.483 742.48C144.549 742.7 144.606 742.93 144.652 743.171C144.654 743.185 144.657 743.199 144.659 743.212C144.667 743.251 144.674 743.29 144.68 743.329C144.684 743.351 144.687 743.374 144.691 743.396C144.697 743.432 144.702 743.468 144.707 743.503C144.71 743.523 144.713 743.543 144.716 743.563C144.724 743.618 144.731 743.675 144.738 743.731H141.568C141.163 741.506 139.523 740.876 136.555 740.876C134.911 740.876 133.557 741.149 132.61 741.874C132.61 741.874 132.609 741.875 132.609 741.875C132.582 741.896 132.555 741.917 132.529 741.939C132.526 741.941 132.523 741.943 132.52 741.946C132.495 741.966 132.47 741.988 132.445 742.01C132.441 742.013 132.438 742.016 132.434 742.019C132.41 742.039 132.387 742.061 132.363 742.083C132.359 742.087 132.354 742.091 132.35 742.095C132.328 742.116 132.306 742.137 132.284 742.159C132.279 742.164 132.274 742.168 132.269 742.173C132.248 742.194 132.227 742.216 132.207 742.237C132.201 742.243 132.196 742.249 132.19 742.255C132.171 742.276 132.152 742.297 132.132 742.319C132.127 742.326 132.12 742.332 132.114 742.339C132.096 742.36 132.078 742.382 132.06 742.403C132.054 742.411 132.047 742.418 132.041 742.427C132.024 742.447 132.008 742.469 131.991 742.49C131.984 742.499 131.977 742.508 131.97 742.517C131.954 742.538 131.939 742.559 131.924 742.58C131.917 742.59 131.909 742.6 131.902 742.61C131.887 742.63 131.874 742.651 131.859 742.672C131.852 742.684 131.844 742.695 131.836 742.706C131.823 742.726 131.81 742.747 131.797 742.768C131.789 742.78 131.781 742.792 131.773 742.805C131.761 742.825 131.749 742.846 131.737 742.867C131.729 742.88 131.721 742.893 131.713 742.907C131.702 742.927 131.691 742.948 131.68 742.968C131.672 742.983 131.664 742.997 131.656 743.012C131.646 743.032 131.635 743.052 131.625 743.073C131.617 743.089 131.609 743.105 131.601 743.121C131.592 743.14 131.582 743.161 131.573 743.181C131.565 743.198 131.557 743.215 131.549 743.232C131.54 743.252 131.532 743.273 131.524 743.292C131.516 743.311 131.508 743.328 131.5 743.347C131.492 743.367 131.485 743.387 131.477 743.407C131.469 743.426 131.462 743.445 131.454 743.465C131.447 743.484 131.44 743.504 131.433 743.524C131.426 743.545 131.418 743.565 131.411 743.586C131.405 743.606 131.398 743.626 131.392 743.645C131.385 743.667 131.378 743.688 131.371 743.71C131.365 743.73 131.359 743.75 131.353 743.77C131.347 743.793 131.34 743.815 131.333 743.838C131.328 743.857 131.323 743.878 131.317 743.897C131.311 743.921 131.305 743.944 131.299 743.969C131.294 743.989 131.289 744.009 131.284 744.03C131.278 744.054 131.272 744.078 131.267 744.103C131.262 744.123 131.258 744.145 131.254 744.165C131.248 744.191 131.243 744.215 131.238 744.241C131.234 744.262 131.23 744.283 131.226 744.304C131.222 744.33 131.217 744.356 131.212 744.382C131.209 744.404 131.205 744.425 131.202 744.447C131.198 744.474 131.193 744.5 131.189 744.527C131.186 744.549 131.183 744.572 131.18 744.594C131.176 744.621 131.172 744.648 131.169 744.676C131.166 744.699 131.164 744.723 131.161 744.746C131.158 744.773 131.155 744.8 131.152 744.827C131.149 744.852 131.148 744.877 131.145 744.903C131.142 744.929 131.14 744.956 131.138 744.983C131.136 745.009 131.134 745.036 131.132 745.063C131.13 745.09 131.129 745.116 131.127 745.142C131.125 745.171 131.124 745.201 131.122 745.231C131.121 745.255 131.12 745.28 131.119 745.305C131.117 745.34 131.117 745.376 131.116 745.412C131.115 745.432 131.114 745.451 131.114 745.471C131.113 745.527 131.113 745.584 131.113 745.641V747.215C131.113 750.812 133.203 752.026 136.552 752.026C139.408 752.026 141.071 751.486 141.588 749.35H144.758C144.738 749.477 144.716 749.601 144.691 749.722L144.697 749.726ZM162.772 754.21H159.625V747.533H150.431V754.21H148.555H147.284V738.698H150.431V744.97H159.625V738.698H162.773V754.209L162.772 754.21Z" fill="white"/>
<path fill-rule="evenodd" clip-rule="evenodd" d="M107.089 746.513L107.065 746.457L104.557 740.743L101.432 747.914H107.704L107.089 746.513Z" fill="white"/>
<path d="M186.914 737.3L189.664 734.3L201.014 744.5L212.364 734.35L215.114 737.3L204.064 747.2L215.114 757.05L212.364 760.05L201.014 749.9L189.664 760.05L186.964 757.05L197.964 747.2L186.914 737.3Z" fill="white"/>
<g clip-path="url(#clip1_1177_2299)">
<path d="M262.123 759H267.995C268.475 759 268.976 758.452 268.976 757.936V735.064C268.971 734.548 268.47 734 267.995 734H262.123C261.643 734 261.141 734.548 261.141 735.064V757.936C261.141 758.452 261.643 759 262.123 759Z" fill="white"/>
<path d="M240.785 759C241.297 759 241.829 758.452 241.829 757.936V749.915H245.483L250.18 758.468C250.306 758.676 250.702 759 251.224 759H258.01C258.553 759 258.814 758.399 258.532 757.936L251.746 746.197L258.532 735.064C258.85 734.601 258.568 734 258.01 734H250.702C250.18 734 249.784 734.34 249.659 734.532L244.961 743.005H241.829V735.064C241.819 734.553 241.297 734 240.785 734H235.044C234.522 734 234 734.527 234 735.037V757.936C234 758.452 234.532 759 235.044 759H240.785Z" fill="white"/>
<path d="M339.956 759C340.468 759 341 758.399 341 757.883V735.037C341 734.521 340.468 734 339.956 734H334.215C333.703 734 333.171 734.548 333.171 735.064V746.766L323.254 734H316.468C315.957 734 315.424 734.548 315.424 735.064V757.936C315.424 758.452 315.957 759 316.468 759H322.21C322.721 759 323.254 758.452 323.254 757.936V746.197L333.171 759H339.956Z" fill="white"/>
<path d="M273.152 759H311.254C311.818 759 312.298 758.505 312.298 757.936V735.064C312.298 734.495 311.818 734 311.254 734H273.152C272.588 734 272.108 734.495 272.108 735.064V757.936C272.108 758.505 272.588 759 273.152 759ZM280.459 740.383C282.818 740.851 287.74 740.92 292.344 740.91C297.114 740.899 301.89 740.798 303.947 740.383C304.15 740.34 304.469 740.378 304.469 740.91V751.532C304.469 752.085 304.14 752.085 303.947 752.064C301.911 751.809 297.099 751.883 292.344 751.867C287.537 751.856 282.463 751.787 280.459 752.085C280.261 752.112 279.937 752.106 279.937 751.553V740.915C279.937 740.383 280.261 740.346 280.459 740.383Z" fill="white"/>
</g>
<path d="M288.806 540.34C288.448 543.554 276.155 548.132 271.595 550.055C261.557 554.288 251.607 556.212 241.062 558.659C228.567 561.56 216.048 563.629 203.312 565.044C188.101 566.734 171.933 565.652 156.956 568.375C147.76 570.047 144.895 579.074 139.469 585.585C136.29 589.398 129.273 591.941 125.312 595.022C113.416 604.275 101.778 627.194 109.491 641.655C121.277 663.756 152.005 663.066 173.333 665.527C190.175 667.471 203.427 680.065 220.192 678.468C237.699 676.801 277.397 669.766 289.214 657.16C308.451 636.641 311.299 598.739 312.955 570.595C313.403 562.971 311.619 549.018 303.517 545.335C301.472 544.407 289.01 538.499 288.806 540.34Z" fill="#FFF2E0" stroke="#294064" stroke-miterlimit="10" stroke-linecap="round" stroke-linejoin="round"/>
<path d="M141.807 587.258C141.807 587.258 136.092 573.762 127.914 566.915C119.506 559.875 108.422 559.946 104.389 566.762C93.2539 585.58 118.564 624.202 136.253 625.914C143.379 626.603 151.07 627.578 157.29 623.356" fill="#FFF2E0"/>
<path d="M141.807 587.258C141.807 587.258 136.092 573.762 127.914 566.915C119.506 559.875 108.422 559.946 104.389 566.762C93.2539 585.58 118.564 624.202 136.253 625.914C143.379 626.603 151.07 627.578 157.29 623.356" stroke="#294064" stroke-miterlimit="10" stroke-linecap="round" stroke-linejoin="round"/>
<path d="M140.505 648.196C135.608 627.443 130.723 612.614 109.801 597.403C102.029 591.752 80.6002 586.477 77.9039 602.085C75.6973 614.859 83.2648 629.64 88.4993 641.499C104.149 676.956 115.943 697.222 158.742 690.31C166.322 689.086 176.551 683.34 184.041 681.65" fill="#FFF2E0"/>
<path d="M140.505 648.196C135.608 627.443 130.723 612.614 109.801 597.403C102.029 591.752 80.6002 586.477 77.9039 602.085C75.6973 614.859 83.2648 629.64 88.4993 641.499C104.149 676.956 115.943 697.222 158.742 690.31C166.322 689.086 176.551 683.34 184.041 681.65" stroke="#294064" stroke-miterlimit="10" stroke-linecap="round" stroke-linejoin="round"/>
<path d="M257.412 552.599C271.702 540.533 301.96 526.881 319.223 529.209C339.032 531.881 343.334 556.627 343.685 571.752C344.62 612.137 315.509 675.887 294.743 674.88C271.25 673.74 272.931 638.134 288.528 615.566C296.802 603.594 290.388 579.797 290.388 579.797" fill="#FFF2E0"/>
<path d="M257.412 552.599C271.702 540.533 301.96 526.881 319.223 529.209C339.032 531.881 343.334 556.627 343.685 571.752C344.62 612.137 315.509 675.887 294.743 674.88C271.25 673.74 272.931 638.134 288.528 615.566C296.802 603.594 290.388 579.797 290.388 579.797" stroke="#294064" stroke-miterlimit="10" stroke-linecap="round" stroke-linejoin="round"/>
<path d="M247.788 465.663C247.788 465.663 290.438 466.012 294.171 444.757C298.123 422.255 249.862 417.359 249.862 417.359" fill="#FFF2E0"/>
<path d="M247.788 465.663C247.788 465.663 290.438 466.012 294.171 444.757C298.123 422.255 249.862 417.359 249.862 417.359" stroke="#294064" stroke-miterlimit="10" stroke-linecap="round" stroke-linejoin="round"/>
<path d="M181.873 408.836C176.694 400.013 171.478 389.256 164.829 381.529C147.118 360.948 128.725 356.489 107.027 375.516C102.838 379.19 97.7366 383.994 95.7734 389.416C86.4905 415.051 85.5996 467.938 99.5371 491.685C106.19 503.022 133.105 523.286 146.976 521.956C157.902 520.908 167.117 513.952 176.439 508.744C189.611 501.386 195.557 494.893 195.711 479.011" fill="#FFF2E0"/>
<path d="M181.873 408.836C176.694 400.013 171.478 389.256 164.829 381.529C147.118 360.948 128.725 356.489 107.027 375.516C102.838 379.19 97.7366 383.994 95.7734 389.416C86.4905 415.051 85.5996 467.938 99.5371 491.685C106.19 503.022 133.105 523.286 146.976 521.956C157.902 520.908 167.117 513.952 176.439 508.744C189.611 501.386 195.557 494.893 195.711 479.011" stroke="#294064" stroke-miterlimit="10" stroke-linecap="round" stroke-linejoin="round"/>
<path d="M88.4494 639.605C92.6577 647.177 106.58 644.773 108.396 635.005C110.421 624.116 104.789 611.747 96.4309 603.971C93.086 600.859 86.0787 596.199 82.0566 600.061" stroke="#294064" stroke-miterlimit="10" stroke-linecap="round" stroke-linejoin="round"/>
<path d="M120.985 590.648C120.735 584.601 122.356 569.708 111.842 566.374C107.284 564.928 104.012 569.079 104.012 569.079" stroke="#294064" stroke-miterlimit="10" stroke-linecap="round" stroke-linejoin="round"/>
<path d="M321.613 647.774C324.441 630.998 305.24 633.458 298.348 642.494C291.337 651.687 295.16 665.998 299.597 670.59C301.316 672.37 307.886 666.189 307.886 666.189" stroke="#294064" stroke-miterlimit="10" stroke-linecap="round" stroke-linejoin="round"/>
<path d="M285.596 579.951C286.533 583.06 288.046 585.887 289.815 588.577C290.355 589.399 290.878 590.246 291.488 591.023C291.555 591.109 292.271 591.966 292.014 591.693" stroke="#294064" stroke-miterlimit="10" stroke-linecap="round" stroke-linejoin="round"/>
<path d="M123.797 418.958C122.844 406.536 132.653 395.926 145.111 395.903L254.817 395.699C267.261 395.677 277.104 406.228 276.218 418.64L269.59 511.508C268.791 522.717 259.465 531.4 248.229 531.4H152.263C141.072 531.4 131.767 522.782 130.911 511.623L123.797 418.958Z" fill="#54D0CC" stroke="#294064" stroke-miterlimit="10" stroke-linejoin="round"/>
<path d="M131.698 431.057C130.852 420.03 139.56 410.609 150.62 410.589L248.015 410.408C259.062 410.388 267.8 419.755 267.014 430.775L261.13 513.222C260.42 523.171 252.141 530.88 242.166 530.88H156.97C147.034 530.88 138.773 523.229 138.013 513.323L131.698 431.057Z" fill="#C4F4F3" stroke="#294064" stroke-miterlimit="10" stroke-linejoin="round"/>
<path d="M155.388 443.875C154.839 436.718 160.491 430.605 167.668 430.592L230.875 430.475C238.043 430.461 243.714 436.54 243.205 443.691L239.386 497.197C238.925 503.654 233.552 508.657 227.078 508.657H171.789C165.341 508.657 159.98 503.692 159.487 497.263L155.388 443.875Z" fill="#18D0CB"/>
<path d="M156.003 451.105L158.88 488.785" stroke="#294064" stroke-miterlimit="10" stroke-linecap="round" stroke-linejoin="round"/>
<path d="M159.235 496.004C162.5 511 173.772 508.768 184.135 508.702" stroke="#294064" stroke-miterlimit="10" stroke-linecap="round" stroke-linejoin="round"/>
<path d="M191.754 430.242L209.971 430.42" stroke="#294064" stroke-miterlimit="10" stroke-linecap="round" stroke-linejoin="round"/>
<path d="M215.63 430.691L230.872 430.685" stroke="#294064" stroke-miterlimit="10" stroke-linecap="round" stroke-linejoin="round"/>
<path d="M242.432 449.81L240.536 478.56" stroke="#294064" stroke-miterlimit="10" stroke-linecap="round" stroke-linejoin="round"/>
<path d="M240.211 483.843L239.555 495.347" stroke="#294064" stroke-miterlimit="10" stroke-linecap="round" stroke-linejoin="round"/>
<path d="M244.071 431.982L259.235 417.244" stroke="#294064" stroke-miterlimit="10" stroke-linecap="round" stroke-linejoin="round"/>
<path d="M237.808 507.777L253.955 522.758" stroke="#294064" stroke-miterlimit="10" stroke-linecap="round" stroke-linejoin="round"/>
<path d="M155.747 434.877L136.723 423.409" stroke="#294064" stroke-miterlimit="10" stroke-linecap="round" stroke-linejoin="round"/>
<path d="M162.398 506.965L146.196 524.453" stroke="#294064" stroke-miterlimit="10" stroke-linecap="round" stroke-linejoin="round"/>
<path d="M148.784 530.824C139.335 531.106 131.47 533.426 129.578 547.512C129.578 547.512 121.663 582.867 120.662 590.288C118.352 607.429 125.985 622.506 133.305 638.883C138.853 651.296 143.719 654.307 152.912 654.307H159.276H238.366H244.731C253.923 654.307 258.789 651.296 264.338 638.883C271.657 622.506 279.29 607.429 276.979 590.288C275.979 582.867 268.064 547.512 268.064 547.512C266.172 533.426 258.307 531.106 248.858 530.824C245.708 530.73 242.392 530.854 239.054 530.853H199.953H158.588C155.251 530.854 151.934 530.73 148.784 530.824Z" fill="#54D0CC" stroke="#294064" stroke-miterlimit="10" stroke-linejoin="round"/>
<path d="M270.845 593.512C271.739 600.911 265.529 607.209 258.076 607.218L138.085 607.348C130.168 607.356 124.259 600.06 125.914 592.317L136.944 540.714C138.17 534.979 143.237 530.881 149.102 530.881H248.536C254.825 530.881 260.124 535.577 260.879 541.82L270.845 593.512Z" fill="white" stroke="#294064" stroke-miterlimit="10" stroke-linejoin="round"/>
<path d="M162.906 528.701C162.906 524.853 166.026 521.734 169.873 521.734H229.114C232.962 521.734 236.081 524.853 236.081 528.701V530.997C236.081 534.844 232.962 537.962 229.114 537.962H169.873C166.026 537.962 162.906 534.844 162.906 530.997V528.701Z" fill="#54D0CC" stroke="#294064" stroke-miterlimit="10" stroke-linejoin="round"/>
<path d="M122.72 566.844C121.597 567.812 121.471 569.507 122.438 570.631L127.682 576.717C128.651 577.841 130.346 577.966 131.469 576.998L147.431 563.246C148.554 562.277 148.68 560.582 147.712 559.459L142.469 553.372C141.5 552.249 139.805 552.123 138.682 553.091L122.72 566.844ZM128.369 570.979C127.402 569.856 127.528 568.161 128.652 567.192L137.969 559.165C139.093 558.196 140.788 558.322 141.756 559.446C142.724 560.569 142.598 562.265 141.474 563.233L132.156 571.261C131.033 572.229 129.338 572.103 128.369 570.979Z" fill="#FFF2E0" stroke="#294064" stroke-miterlimit="10" stroke-linejoin="round"/>
<path d="M138.397 561.045C137.967 560.003 138.464 558.81 139.506 558.38L157.558 550.938C158.6 550.508 159.793 551.005 160.222 552.047L160.753 553.331C161.182 554.373 160.685 555.566 159.643 555.996L141.592 563.438C140.549 563.868 139.356 563.371 138.926 562.329L138.397 561.045Z" fill="#A360E7" stroke="#294064" stroke-miterlimit="10" stroke-linejoin="round"/>
<path d="M104.817 599.256C104.306 600.647 105.02 602.19 106.413 602.701L113.956 605.468C115.347 605.979 116.89 605.264 117.401 603.872L124.657 584.091C125.168 582.7 124.453 581.157 123.061 580.646L115.519 577.879C114.127 577.368 112.584 578.083 112.073 579.475L104.817 599.256ZM111.765 600.121C110.373 599.61 109.658 598.067 110.169 596.675L114.405 585.128C114.916 583.736 116.458 583.021 117.851 583.532C119.243 584.042 119.957 585.585 119.447 586.977L115.211 598.524C114.7 599.917 113.157 600.631 111.765 600.121Z" fill="#FFF2E0" stroke="#294064" stroke-miterlimit="10" stroke-linejoin="round"/>
<path d="M115.695 586.562C114.813 585.86 114.666 584.576 115.367 583.693L127.521 568.411C128.222 567.529 129.505 567.382 130.388 568.084L131.475 568.948C132.358 569.65 132.504 570.934 131.802 571.817L119.65 587.099C118.948 587.981 117.664 588.128 116.782 587.426L115.695 586.562Z" fill="#A360E7" stroke="#294064" stroke-miterlimit="10" stroke-linejoin="round"/>
<path d="M109.486 621.148C108.365 621.029 107.552 620.024 107.67 618.904L109.717 599.486C109.835 598.364 110.84 597.552 111.961 597.67L113.343 597.815C114.463 597.934 115.276 598.938 115.158 600.059L113.111 619.477C112.993 620.598 111.989 621.411 110.867 621.292L109.486 621.148Z" fill="#A360E7" stroke="#294064" stroke-miterlimit="10" stroke-linejoin="round"/>
<path d="M209.799 513.18C204.319 513.875 199.269 517.344 194.586 522.577C193.259 524.06 192.107 525.625 191.009 527.167C190.134 526.724 189.3 526.259 188.333 525.857C182.347 523.369 176.363 522.464 170.765 524.101C167.023 525.195 163.715 527.395 161.035 530.74C156.524 536.37 156.275 543.166 159.575 550.149C162.207 555.719 167.08 561.394 173.441 566.73C185.362 576.728 200.424 583.983 206.831 581.751C213.368 579.472 222.336 565.718 226.927 551.795C229.466 544.093 230.512 536.834 229.675 530.671C228.647 523.099 224.8 517.339 218.04 514.36C216.135 513.52 214.152 513.087 212.159 513.044C211.359 513.026 210.583 513.081 209.799 513.18ZM211.982 521.28C212.893 521.299 213.798 521.504 214.712 521.908C222.344 525.271 223.708 535.29 219.116 549.215C217.138 555.214 214.164 561.349 210.941 566.291C209.448 568.58 207.972 570.513 206.632 571.922C205.491 573.124 204.548 573.823 204.119 573.973C203.362 574.237 199.665 573.28 195.05 571.056C189.695 568.479 183.78 564.646 178.741 560.419C167.185 550.726 162.867 541.628 167.46 535.895C169.083 533.871 170.955 532.632 173.078 532.011C176.549 530.996 180.775 531.637 185.186 533.471C186.479 534.008 187.663 534.595 188.739 535.204C189.11 535.414 189.445 535.618 189.721 535.79C189.872 535.885 189.973 535.935 190.001 535.954C191.982 537.3 194.67 536.689 195.864 534.614C195.904 534.544 196.023 534.371 196.178 534.121C196.45 533.683 196.753 533.179 197.122 532.641C198.179 531.096 199.385 529.542 200.701 528.072C204.602 523.713 208.568 521.205 211.982 521.28Z" fill="#621399" stroke="#294064" stroke-miterlimit="10" stroke-linecap="round" stroke-linejoin="round"/>
<path d="M211.221 512.076C205.741 512.77 200.69 516.239 196.007 521.472C194.68 522.955 193.528 524.521 192.43 526.062C191.555 525.619 190.721 525.154 189.754 524.753C183.769 522.264 177.785 521.359 172.186 522.997C168.444 524.09 165.137 526.29 162.456 529.635C157.946 535.265 157.697 542.062 160.996 549.044C163.629 554.614 168.502 560.29 174.863 565.625C186.783 575.624 201.846 582.878 208.253 580.646C214.79 578.368 223.758 564.613 228.348 550.69C230.888 542.988 231.933 535.73 231.096 529.567C230.068 521.994 226.222 516.234 219.461 513.255C217.556 512.416 215.574 511.982 213.581 511.939C212.781 511.921 212.004 511.976 211.221 512.076ZM213.403 520.175C214.314 520.194 215.219 520.399 216.133 520.803C223.765 524.166 225.128 534.185 220.538 548.111C218.56 554.109 215.585 560.244 212.362 565.186C210.869 567.475 209.393 569.408 208.054 570.818C206.911 572.02 205.969 572.718 205.54 572.868C204.784 573.132 201.086 572.175 196.47 569.952C191.117 567.374 185.201 563.542 180.161 559.314C168.606 549.622 164.289 540.523 168.881 534.791C170.503 532.766 172.377 531.527 174.5 530.906C177.971 529.892 182.197 530.532 186.608 532.366C187.901 532.904 189.084 533.49 190.16 534.099C190.531 534.31 190.867 534.514 191.142 534.686C191.294 534.78 191.393 534.83 191.422 534.849C193.403 536.195 196.091 535.584 197.285 533.51C197.326 533.439 197.443 533.267 197.599 533.016C197.872 532.578 198.174 532.075 198.543 531.536C199.601 529.991 200.806 528.438 202.122 526.968C206.024 522.608 209.989 520.1 213.403 520.175Z" fill="#A360E7" stroke="#294064" stroke-miterlimit="10" stroke-linecap="round" stroke-linejoin="round"/>
<path d="M211.22 512.076C205.74 512.77 200.689 516.239 196.006 521.472C194.679 522.955 193.527 524.521 192.429 526.062C191.554 525.619 190.72 525.154 189.753 524.753C183.768 522.264 177.784 521.36 172.185 522.997C168.443 524.09 165.136 526.29 162.455 529.635C162.249 529.893 162.103 530.175 161.915 530.437L161.89 530.418C157.752 536.349 148.495 533.873 149.289 543.245C150.139 553.29 155.012 565.514 158.393 569.911C161.64 574.136 175.829 569.748 175.268 564.598C174.625 558.688 168.667 548.322 167.324 542.007C167.127 541.082 167.137 540.709 167.128 540.089C167.173 539.362 167.222 538.635 167.381 537.903C167.65 536.783 168.125 535.734 168.88 534.791C170.502 532.766 172.376 531.527 174.499 530.906C177.97 529.892 182.196 530.532 186.607 532.366C187.9 532.904 189.083 533.49 190.159 534.099C190.53 534.31 190.866 534.514 191.141 534.686C191.293 534.78 191.393 534.83 191.421 534.849C193.402 536.195 196.09 535.584 197.284 533.51C197.325 533.439 197.442 533.267 197.598 533.016C197.871 532.578 198.173 532.074 198.542 531.536C199.6 529.991 200.805 528.437 202.121 526.968C206.023 522.608 209.988 520.1 213.402 520.175C214.313 520.194 215.218 520.399 216.132 520.803C221.982 523.38 224.108 529.908 222.716 539.081C222.716 539.081 218.859 542.144 220.206 545.773C222.159 551.035 227.991 551.003 230.044 549.321C234.977 545.279 231.13 539.871 231.13 539.871C231.802 535.811 231.566 533.041 231.095 529.567C230.067 521.994 226.221 516.234 219.46 513.255C217.555 512.416 215.573 511.982 213.58 511.939C212.78 511.921 212.003 511.976 211.22 512.076Z" fill="#A360E7" stroke="#294064" stroke-miterlimit="10" stroke-linecap="round" stroke-linejoin="round"/>
<path d="M93.1805 618.603C90.7634 618.977 88.4113 619.922 86.1945 621.473C82.6822 623.929 80.2805 627.095 78.9451 630.758C76.9469 636.237 77.4562 642.253 79.5497 648.389C79.8878 649.38 80.2905 650.248 80.6751 651.151C79.0655 652.146 77.4399 653.181 75.8736 654.409C70.3467 658.741 66.545 663.57 65.4948 668.994C65.3447 669.769 65.254 670.537 65.2192 671.336C65.1325 673.328 65.4191 675.331 66.133 677.286C68.666 684.226 74.1723 688.433 81.6613 689.953C86.8082 690.996 92.8438 690.69 99.3169 689.366C97.0534 688.356 95.3052 686.313 95.0031 683.675C94.9291 683.029 95.0631 682.425 95.155 681.811C84.036 683.594 76.3491 681.186 73.8913 674.452C73.5489 673.513 73.4062 672.604 73.4458 671.694C73.5941 668.282 76.3378 664.491 80.9426 660.882C82.4954 659.664 84.13 658.557 85.7409 657.603C86.3022 657.27 86.8207 656.997 87.2754 656.754C87.5358 656.614 87.7294 656.512 87.8024 656.476C89.9511 655.42 90.7372 652.777 89.5242 650.712C89.5067 650.683 89.4559 650.586 89.3712 650.429C89.2173 650.144 89.0282 649.798 88.843 649.415C88.305 648.301 87.811 647.068 87.3589 645.743C85.8161 641.222 85.435 636.977 86.6738 633.58C87.4316 631.502 88.8069 629.703 90.9326 628.215C93.4048 626.486 96.3554 626.394 99.5811 627.611C99.707 624.882 101.112 622.159 104.386 620.957C104.497 620.917 104.596 620.922 104.704 620.887C100.802 618.917 96.9041 618.028 93.1805 618.603Z" fill="#FFF2E0" stroke="#294064" stroke-miterlimit="10" stroke-linecap="round" stroke-linejoin="round"/>
<path d="M130.982 637.773C130.017 637.871 129.071 638.053 128.128 638.3C126.512 638.721 125.009 639.405 123.557 640.206C123.557 640.206 118.659 643.2 119.966 646.213C122.283 651.556 125.552 648.773 125.552 648.773C127.053 647.643 128.591 646.704 130.208 646.283C132.348 645.725 134.592 645.823 137.023 646.726C143.91 649.283 144.892 659.297 139.96 673.55C137.809 679.766 134.699 686.086 131.431 691.05C128.615 695.329 125.933 698.052 125.149 698.215C124.704 698.307 123.541 698.187 121.943 697.743C120.07 697.222 117.801 696.338 115.344 695.142C110.039 692.559 104.343 688.814 99.5632 684.684C99.4541 684.589 99.3855 684.493 99.2783 684.399C97.5975 684.986 95.7004 684.993 93.9479 684.21C93.4505 683.988 93.0661 683.647 92.6524 683.335C91.4664 684.401 89.9916 685.096 88.4094 685.236C90.1542 687.165 92.0491 689.071 94.1899 690.92C105.283 700.506 120.026 707.691 126.805 706.285C133.448 704.909 142.645 690.937 147.733 676.234C150.449 668.388 151.721 661.033 151.117 654.902C150.36 647.217 146.651 641.502 139.889 638.991C136.875 637.872 133.878 637.481 130.982 637.773Z" fill="#FFF2E0" stroke="#294064" stroke-miterlimit="10" stroke-linecap="round" stroke-linejoin="round"/>
<path d="M131.808 639.313C130.842 639.41 129.896 639.593 128.953 639.839C127.338 640.26 125.834 640.945 124.382 641.746C124.382 641.746 119.49 644.753 120.797 647.767C123.113 653.108 126.377 650.312 126.377 650.312C127.878 649.182 129.416 648.244 131.033 647.822C133.174 647.263 135.417 647.362 137.849 648.265C144.735 650.823 145.718 660.836 140.786 675.09C138.635 681.305 135.525 687.626 132.256 692.59C129.44 696.868 126.758 699.592 125.974 699.755C125.529 699.847 124.366 699.726 122.769 699.283C120.895 698.762 118.626 697.878 116.169 696.681C110.864 694.099 105.168 690.353 100.389 686.223C98.6555 684.725 97.1613 683.235 95.7818 681.76C95.5837 682.06 95.4328 682.391 95.1971 682.661C94.0544 685.107 91.7328 686.555 89.2347 686.775C90.9796 688.704 92.8745 690.61 95.0152 692.46C106.109 702.046 120.851 709.229 127.63 707.825C134.274 706.448 143.471 692.477 148.559 677.773C151.274 669.928 152.546 662.573 151.943 656.441C151.186 648.756 147.476 643.041 140.714 640.53C137.701 639.41 134.703 639.02 131.808 639.313Z" fill="#A360E7" stroke="#294064" stroke-miterlimit="10" stroke-linecap="round" stroke-linejoin="round"/>
<path d="M64.3048 670.338C65.355 664.915 69.1454 660.102 74.6722 655.769C76.2386 654.542 77.8759 653.494 79.4853 652.5C79.1008 651.596 78.6916 650.734 78.3534 649.743C76.2598 643.608 75.7475 637.578 77.7455 632.098C79.081 628.436 81.4917 625.278 85.004 622.822C85.2748 622.632 85.5653 622.505 85.8399 622.334L85.8224 622.309C92.0102 618.566 90.1433 609.167 99.4424 610.569C109.411 612.072 121.291 617.732 125.459 621.392C129.463 624.908 124.161 638.78 119.058 637.885C113.202 636.857 103.245 630.238 97.0316 628.485C96.1223 628.229 95.7497 628.216 95.1311 628.165C94.4032 628.163 93.6744 628.165 92.9331 628.276C91.7987 628.47 90.7204 628.877 89.7299 629.569C87.6042 631.056 86.2456 632.844 85.4879 634.922C84.249 638.319 84.6132 642.578 86.156 647.099C86.6081 648.424 87.1157 649.644 87.6537 650.757C87.839 651.141 88.0209 651.49 88.1745 651.775C88.2592 651.933 88.3028 652.036 88.3202 652.065C89.5333 654.13 88.7496 656.772 86.6007 657.828C86.5279 657.864 86.3485 657.971 86.088 658.11C85.6332 658.354 85.1109 658.623 84.5497 658.955C82.9388 659.91 81.3106 661.012 79.758 662.229C75.153 665.838 72.3927 669.632 72.2445 673.044C72.2049 673.955 72.3503 674.87 72.6929 675.809C74.8846 681.814 81.259 684.361 90.5036 683.569C90.5036 683.569 93.8112 679.92 97.3447 681.501C102.469 683.793 102.057 689.61 100.244 691.549C95.8896 696.209 90.743 692.018 90.743 692.018C86.6483 692.424 83.8999 692.008 80.4632 691.311C72.9742 689.791 67.4777 685.579 64.9448 678.638C64.2309 676.682 63.9276 674.676 64.0145 672.684C64.0493 671.884 64.1547 671.113 64.3048 670.338Z" fill="#A360E7" stroke="#294064" stroke-miterlimit="10" stroke-linecap="round" stroke-linejoin="round"/>
<path d="M223.807 544.293C223.655 542.952 224.618 541.742 225.959 541.589C227.3 541.438 228.511 542.402 228.662 543.742C228.814 545.083 227.851 546.293 226.51 546.445C225.169 546.598 223.958 545.634 223.807 544.293Z" fill="#FFF2E0" stroke="#294064" stroke-miterlimit="10" stroke-linejoin="round"/>
<path d="M153.709 543.423C153.548 542.005 154.567 540.727 155.984 540.566C157.401 540.405 158.681 541.423 158.842 542.841C159.003 544.259 157.983 545.537 156.566 545.698C155.149 545.859 153.869 544.841 153.709 543.423Z" fill="#FFF2E0" stroke="#294064" stroke-miterlimit="10" stroke-linejoin="round"/>
<path d="M162.796 560.971C161.326 560.934 160.104 562.097 160.066 563.567C160.03 565.036 161.193 566.259 162.663 566.296C163.934 566.328 164.976 565.446 165.269 564.261C167.077 563.801 169.246 563.081 168.967 561.949C168.656 560.694 166.379 561.21 164.596 561.752C164.131 561.292 163.503 560.989 162.796 560.971Z" fill="#FFF2E0" stroke="#294064" stroke-miterlimit="10" stroke-linecap="round" stroke-linejoin="round"/>
<path d="M96.3653 685.549C95.2097 685.326 94.0926 686.083 93.8701 687.239C93.6476 688.394 94.404 689.511 95.5596 689.734C96.7152 689.956 97.8323 689.2 98.0548 688.044C98.2773 686.889 97.5209 685.771 96.3653 685.549Z" fill="#FFF2E0" stroke="#294064" stroke-miterlimit="10" stroke-linejoin="round"/>
<path d="M99.7674 615.631C98.3663 615.361 97.0121 616.279 96.7424 617.68C96.4727 619.08 97.3896 620.434 98.7904 620.704C100.191 620.974 101.545 620.057 101.815 618.656C102.085 617.256 101.168 615.901 99.7674 615.631Z" fill="#FFF2E0" stroke="#294064" stroke-miterlimit="10" stroke-linejoin="round"/>
<path d="M116.563 626.045C116.64 624.577 117.894 623.447 119.363 623.524C120.83 623.601 121.959 624.855 121.883 626.323C121.816 627.593 120.856 628.564 119.652 628.766C119.054 630.531 118.169 632.639 117.061 632.272C115.834 631.866 116.525 629.636 117.203 627.9C116.779 627.4 116.526 626.751 116.563 626.045Z" fill="#FFF2E0" stroke="#294064" stroke-miterlimit="10" stroke-linecap="round" stroke-linejoin="round"/>
<path d="M148.233 649.322C149.987 652.678 150.788 658.2 149.757 663.883" stroke="white" stroke-miterlimit="10" stroke-linecap="round" stroke-linejoin="round"/>
<path d="M149.483 667.286C149.483 667.286 148.052 673.434 147.304 676.116" stroke="white" stroke-miterlimit="10" stroke-linecap="round" stroke-linejoin="round"/>
<path d="M117.203 583.7L123.463 575.857" stroke="white" stroke-miterlimit="10" stroke-linecap="round" stroke-linejoin="round"/>
<path d="M109.828 611.011L110.503 604.572" stroke="white" stroke-miterlimit="10" stroke-linecap="round" stroke-linejoin="round"/>
<path d="M140.601 559.381L147.884 556.384" stroke="white" stroke-miterlimit="10" stroke-linecap="round" stroke-linejoin="round"/>
<path d="M141.877 554.552C140.248 552.201 138.151 555.613 136.096 556.995" stroke="white" stroke-miterlimit="10" stroke-linecap="round" stroke-linejoin="round"/>
<path d="M134.841 558.396L129.783 562.64" stroke="white" stroke-miterlimit="10" stroke-linecap="round" stroke-linejoin="round"/>
<path d="M111.594 585.055L109.285 591.334" stroke="white" stroke-miterlimit="10" stroke-linecap="round" stroke-linejoin="round"/>
<path d="M191.087 574.354C193.445 575.776 195.795 576.849 197.61 577.557" stroke="white" stroke-miterlimit="10" stroke-linecap="round" stroke-linejoin="round"/>
<path d="M224.936 519.925C221.581 514.527 215.63 513.618 213.33 513.83" stroke="white" stroke-miterlimit="10" stroke-linecap="round" stroke-linejoin="round"/>
<path d="M211.147 514.009C209.721 514.146 207.019 515.156 205.393 516.39" stroke="white" stroke-miterlimit="10" stroke-linecap="round" stroke-linejoin="round"/>
<path d="M228.252 573.401C223.023 570.695 215.936 571.755 210.311 571.892C201.088 572.117 191.726 572.44 182.561 571.772C179.013 571.512 180.392 568.754 176.979 567.563C172.787 566.099 159.636 563.212 155.095 562.063C151.03 561.035 151.423 563.751 150.901 568.722C150.018 577.129 162.609 581.453 168.835 583.524C184.219 588.641 199.558 590.545 214.713 584.617C216.84 583.785 220.46 583.104 222.121 581.488" fill="white"/>
<path d="M153.238 561.508C159.481 561.399 180.504 566.02 184.694 570.068L153.238 561.508Z" fill="white"/>
<path d="M153.238 561.508C159.481 561.399 180.504 566.02 184.694 570.068" stroke="#294064" stroke-miterlimit="10" stroke-linecap="round" stroke-linejoin="round"/>
<path d="M153.996 572.31C156.737 569.472 171.74 566.826 175.666 566.383C198.922 563.758 221.604 566.757 243.816 573.734" fill="white"/>
<path d="M153.996 572.31C156.737 569.472 171.74 566.826 175.666 566.383C198.922 563.758 221.604 566.757 243.816 573.734" stroke="#294064" stroke-miterlimit="10" stroke-linecap="round" stroke-linejoin="round"/>
<path d="M279.058 663.927C267.811 676.352 252.591 681.382 236.979 684.904C214.783 689.911 193.31 692.554 170.736 694.571C153.096 696.148 132.306 697.084 119.64 680.602C108.287 665.831 120.233 650.978 135.017 646.336C151.378 641.198 168.057 648.684 189.842 654.761" fill="#FFF2E0"/>
<path d="M279.058 663.927C267.811 676.352 252.591 681.382 236.979 684.904C214.783 689.911 193.31 692.554 170.736 694.571C153.096 696.148 132.306 697.084 119.64 680.602C108.287 665.831 120.233 650.978 135.017 646.336C151.378 641.198 168.057 648.684 189.842 654.761" stroke="#294064" stroke-miterlimit="10" stroke-linecap="round" stroke-linejoin="round"/>
<path d="M130.392 495.887C140.894 501.06 141.946 522.285 130.4 525.495C109.507 531.302 86.7814 510.414 82.5329 491.724C79.2461 477.265 83.6526 471.099 87.1334 460.564" fill="#FFF2E0"/>
<path d="M130.392 495.887C140.894 501.06 141.946 522.285 130.4 525.495C109.507 531.302 86.7814 510.414 82.5329 491.724C79.2461 477.265 83.6526 471.099 87.1334 460.564" stroke="#294064" stroke-miterlimit="10" stroke-linecap="round" stroke-linejoin="round"/>
<path d="M104.749 442.608C104.434 441.85 134.9 469.346 130.378 475.828C138.463 487.818 131.417 512.582 115.098 508.061C104.24 505.053 96.7805 494.674 88.6379 486.886C63.2558 462.607 68.9874 446.607 83.2603 424.748" fill="#FFF2E0"/>
<path d="M104.749 442.608C104.434 441.85 134.9 469.346 130.378 475.828C138.463 487.818 131.417 512.582 115.098 508.061C104.24 505.053 96.7805 494.674 88.6379 486.886C63.2558 462.607 68.9874 446.607 83.2603 424.748" stroke="#294064" stroke-miterlimit="10" stroke-linecap="round" stroke-linejoin="round"/>
<path d="M123.799 430.366C136.885 444.408 138.76 480.035 122.662 482.541C108.855 484.691 98.3212 465.119 90.9681 456.661C73.1502 436.165 43.8966 400.24 89.4005 377.612" fill="#FFF2E0"/>
<path d="M123.799 430.366C136.885 444.408 138.76 480.035 122.662 482.541C108.855 484.691 98.3212 465.119 90.9681 456.661C73.1502 436.165 43.8966 400.24 89.4005 377.612" stroke="#294064" stroke-miterlimit="10" stroke-linecap="round" stroke-linejoin="round"/>
<path d="M120.991 373.969C129.509 386.708 140.231 403.855 136.07 419.049C129.071 444.608 112.823 436.757 103.328 421.898C98.356 414.118 87.4526 394.59 84.5406 387.612C76.3412 367.964 105.728 346.012 127.24 348.144C145.512 349.955 159.508 371.019 170.713 389.575" fill="#FFF2E0"/>
<path d="M120.991 373.969C129.509 386.708 140.231 403.855 136.07 419.049C129.071 444.608 112.823 436.757 103.328 421.898C98.356 414.118 87.4526 394.59 84.5406 387.612C76.3412 367.964 105.728 346.012 127.24 348.144C145.512 349.955 159.508 371.019 170.713 389.575" stroke="#294064" stroke-miterlimit="10" stroke-linecap="round" stroke-linejoin="round"/>
<path d="M127.162 383.061C126.687 379.441 128.377 375.464 129.441 372.051L127.162 383.061Z" fill="#FFF2E0"/>
<path d="M127.162 383.061C126.687 379.441 128.377 375.464 129.441 372.051" stroke="#294064" stroke-miterlimit="10" stroke-linecap="round" stroke-linejoin="round"/>
<path d="M100.561 416.062C105.673 392.455 134.291 414.327 124.435 431.655L100.561 416.062Z" fill="#FFF2E0"/>
<path d="M100.561 416.062C105.673 392.455 134.291 414.327 124.435 431.655" stroke="#294064" stroke-miterlimit="10" stroke-linecap="round" stroke-linejoin="round"/>
<path d="M97.1967 464.802C96.9471 457.406 105.797 452.779 111.512 455.83C118.644 459.637 124.042 468.984 124.27 477.034" fill="#FFF2E0"/>
<path d="M97.1967 464.802C96.9471 457.406 105.797 452.779 111.512 455.83C118.644 459.637 124.042 468.984 124.27 477.034" stroke="#294064" stroke-miterlimit="10" stroke-linecap="round" stroke-linejoin="round"/>
<path d="M96.8955 495.394C96.8955 495.394 97.0746 484.363 103.108 482.601C111.005 480.294 125.941 492.822 123.591 500.918" fill="#FFF2E0"/>
<path d="M96.8955 495.394C96.8955 495.394 97.0746 484.363 103.108 482.601C111.005 480.294 125.941 492.822 123.591 500.918" stroke="#294064" stroke-miterlimit="10" stroke-linecap="round" stroke-linejoin="round"/>
<path d="M110.517 523.22C100.203 503.729 133.498 506.351 135.075 516.539L110.517 523.22Z" fill="#FFF2E0"/>
<path d="M110.517 523.22C100.203 503.729 133.498 506.351 135.075 516.539" stroke="#294064" stroke-miterlimit="10" stroke-linecap="round" stroke-linejoin="round"/>
<path d="M116.333 671.613C116.333 671.613 122.871 671.422 131.742 676.946C137.778 680.703 145.694 686.819 150.912 691.523" fill="#FFF2E0"/>
<path d="M116.333 671.613C116.333 671.613 122.871 671.422 131.742 676.946C137.778 680.703 145.694 686.819 150.912 691.523" stroke="#294064" stroke-miterlimit="10" stroke-linecap="round" stroke-linejoin="round"/>
<path d="M122.72 566.846C121.597 567.814 121.471 569.509 122.438 570.633L127.682 576.719C128.651 577.843 130.346 577.968 131.469 577L147.431 563.248C148.554 562.279 148.68 560.584 147.712 559.461L142.469 553.374C141.5 552.251 139.805 552.125 138.682 553.093L122.72 566.846ZM128.369 570.981C127.402 569.858 127.528 568.163 128.652 567.194L137.969 559.166C139.093 558.198 140.788 558.324 141.756 559.448C142.724 560.571 142.598 562.267 141.474 563.235L132.156 571.263C131.033 572.231 129.338 572.105 128.369 570.981Z" fill="#621399" stroke="#294064" stroke-miterlimit="10" stroke-linejoin="round"/>
<path d="M138.397 561.045C137.967 560.003 138.464 558.81 139.506 558.38L157.558 550.938C158.6 550.508 159.793 551.005 160.222 552.047L160.753 553.331C161.182 554.373 160.685 555.566 159.643 555.996L141.592 563.438C140.549 563.868 139.356 563.371 138.926 562.329L138.397 561.045Z" fill="#A360E7" stroke="#294064" stroke-miterlimit="10" stroke-linejoin="round"/>
<path d="M104.817 599.256C104.306 600.647 105.02 602.19 106.413 602.701L113.956 605.468C115.347 605.979 116.89 605.264 117.401 603.872L124.657 584.091C125.168 582.7 124.453 581.157 123.061 580.646L115.519 577.879C114.127 577.368 112.584 578.083 112.073 579.475L104.817 599.256ZM111.765 600.121C110.373 599.61 109.658 598.067 110.169 596.675L114.405 585.128C114.916 583.736 116.458 583.021 117.851 583.532C119.243 584.042 119.957 585.585 119.447 586.977L115.211 598.524C114.7 599.917 113.157 600.631 111.765 600.121Z" fill="#621399" stroke="#294064" stroke-miterlimit="10" stroke-linejoin="round"/>
<path d="M115.695 586.564C114.813 585.862 114.666 584.578 115.367 583.695L127.521 568.413C128.222 567.531 129.505 567.384 130.388 568.086L131.475 568.95C132.358 569.651 132.504 570.936 131.802 571.819L119.65 587.101C118.948 587.983 117.664 588.13 116.782 587.428L115.695 586.564Z" fill="#A360E7" stroke="#294064" stroke-miterlimit="10" stroke-linejoin="round"/>
<path d="M109.486 621.148C108.365 621.029 107.552 620.024 107.67 618.904L109.717 599.486C109.835 598.364 110.84 597.552 111.961 597.67L113.343 597.815C114.463 597.934 115.276 598.938 115.158 600.059L113.111 619.477C112.993 620.598 111.989 621.411 110.867 621.292L109.486 621.148Z" fill="#A360E7" stroke="#294064" stroke-miterlimit="10" stroke-linejoin="round"/>
<path d="M93.1805 618.603C90.7634 618.977 88.4113 619.922 86.1945 621.473C82.6822 623.929 80.2805 627.095 78.9451 630.758C76.9469 636.237 77.4562 642.253 79.5497 648.389C79.8878 649.38 80.2905 650.248 80.6751 651.151C79.0655 652.146 77.4399 653.181 75.8736 654.409C70.3467 658.741 66.545 663.57 65.4948 668.994C65.3447 669.769 65.254 670.537 65.2192 671.336C65.1325 673.328 65.4191 675.331 66.133 677.286C68.666 684.226 74.1723 688.433 81.6613 689.953C86.8082 690.996 92.8438 690.69 99.3169 689.366C97.0534 688.356 95.3052 686.313 95.0031 683.675C94.9291 683.029 95.0631 682.425 95.155 681.811C84.036 683.594 76.3491 681.186 73.8913 674.452C73.5489 673.513 73.4062 672.604 73.4458 671.694C73.5941 668.282 76.3378 664.491 80.9426 660.882C82.4954 659.664 84.13 658.557 85.7409 657.603C86.3022 657.27 86.8207 656.997 87.2754 656.754C87.5358 656.614 87.7294 656.512 87.8024 656.476C89.9511 655.42 90.7372 652.777 89.5242 650.712C89.5067 650.683 89.4559 650.586 89.3712 650.429C89.2173 650.144 89.0282 649.798 88.843 649.415C88.305 648.301 87.811 647.068 87.3589 645.743C85.8161 641.222 85.435 636.977 86.6738 633.58C87.4316 631.502 88.8069 629.703 90.9326 628.215C93.4048 626.486 96.3554 626.394 99.5811 627.611C99.707 624.882 101.112 622.159 104.386 620.957C104.497 620.917 104.596 620.922 104.704 620.887C100.802 618.917 96.9041 618.028 93.1805 618.603Z" fill="#621399" stroke="#294064" stroke-miterlimit="10" stroke-linecap="round" stroke-linejoin="round"/>
<path d="M130.982 637.773C130.017 637.871 129.071 638.053 128.128 638.3C126.512 638.721 125.009 639.405 123.557 640.206C123.557 640.206 118.659 643.2 119.966 646.213C122.283 651.556 125.552 648.773 125.552 648.773C127.053 647.643 128.591 646.704 130.208 646.283C132.348 645.725 134.592 645.823 137.023 646.726C143.91 649.283 144.892 659.297 139.96 673.55C137.809 679.766 134.699 686.086 131.431 691.05C128.615 695.329 125.933 698.052 125.149 698.215C124.704 698.307 123.541 698.187 121.943 697.743C120.07 697.222 117.801 696.338 115.344 695.142C110.039 692.559 104.343 688.814 99.5632 684.684C99.4541 684.589 99.3855 684.493 99.2783 684.399C97.5975 684.986 95.7004 684.993 93.9479 684.21C93.4505 683.988 93.0661 683.647 92.6524 683.335C91.4664 684.401 89.9916 685.096 88.4094 685.236C90.1542 687.165 92.0491 689.071 94.1899 690.92C105.283 700.506 120.026 707.691 126.805 706.285C133.448 704.909 142.645 690.937 147.733 676.234C150.449 668.388 151.721 661.033 151.117 654.902C150.36 647.217 146.651 641.502 139.889 638.991C136.875 637.872 133.878 637.481 130.982 637.773Z" fill="#621399" stroke="#294064" stroke-miterlimit="10" stroke-linecap="round" stroke-linejoin="round"/>
<path d="M131.808 639.311C130.842 639.409 129.896 639.591 128.953 639.837C127.338 640.258 125.834 640.943 124.382 641.744C124.382 641.744 119.49 644.751 120.797 647.765C123.113 653.106 126.377 650.31 126.377 650.31C127.878 649.18 129.416 648.242 131.033 647.82C133.174 647.262 135.417 647.36 137.849 648.263C144.735 650.821 145.718 660.834 140.786 675.088C138.635 681.303 135.525 687.624 132.256 692.588C129.44 696.866 126.758 699.59 125.974 699.753C125.529 699.845 124.366 699.724 122.769 699.281C120.895 698.76 118.626 697.876 116.169 696.679C110.864 694.097 105.168 690.351 100.389 686.221C98.6555 684.724 97.1613 683.233 95.7818 681.758C95.5837 682.058 95.4328 682.389 95.1971 682.659C94.0544 685.105 91.7328 686.553 89.2347 686.773C90.9796 688.702 92.8745 690.608 95.0152 692.458C106.109 702.044 120.851 709.227 127.63 707.823C134.274 706.446 143.471 692.475 148.559 677.771C151.274 669.926 152.546 662.571 151.943 656.439C151.186 648.754 147.476 643.039 140.714 640.528C137.701 639.409 134.703 639.018 131.808 639.311Z" fill="#A360E7" stroke="#294064" stroke-miterlimit="10" stroke-linecap="round" stroke-linejoin="round"/>
<path d="M64.3048 670.336C65.355 664.913 69.1454 660.1 74.6722 655.767C76.2386 654.54 77.8759 653.492 79.4853 652.498C79.1008 651.594 78.6916 650.732 78.3534 649.741C76.2598 643.606 75.7475 637.576 77.7455 632.096C79.081 628.434 81.4917 625.276 85.004 622.82C85.2748 622.63 85.5653 622.503 85.8399 622.332L85.8224 622.307C92.0102 618.564 90.1433 609.165 99.4424 610.567C109.411 612.07 121.291 617.73 125.459 621.39C129.463 624.906 124.161 638.778 119.058 637.883C113.202 636.855 103.245 630.236 97.0316 628.483C96.1223 628.227 95.7497 628.214 95.1311 628.163C94.4032 628.161 93.6744 628.163 92.9331 628.274C91.7987 628.468 90.7204 628.875 89.7299 629.567C87.6042 631.054 86.2456 632.842 85.4879 634.92C84.249 638.317 84.6132 642.576 86.156 647.097C86.6081 648.422 87.1157 649.642 87.6537 650.755C87.839 651.139 88.0209 651.488 88.1745 651.773C88.2592 651.931 88.3028 652.034 88.3202 652.063C89.5333 654.128 88.7496 656.771 86.6007 657.826C86.5279 657.862 86.3485 657.969 86.088 658.108C85.6332 658.352 85.1109 658.621 84.5497 658.954C82.9388 659.908 81.3106 661.01 79.758 662.227C75.153 665.836 72.3927 669.63 72.2445 673.042C72.2049 673.953 72.3503 674.868 72.6929 675.807C74.8846 681.812 81.259 684.359 90.5036 683.567C90.5036 683.567 93.8112 679.918 97.3447 681.499C102.469 683.791 102.057 689.608 100.244 691.547C95.8896 696.207 90.743 692.016 90.743 692.016C86.6483 692.422 83.8999 692.006 80.4632 691.309C72.9742 689.789 67.4777 685.577 64.9448 678.636C64.2309 676.68 63.9276 674.674 64.0145 672.682C64.0493 671.882 64.1547 671.112 64.3048 670.336Z" fill="#A360E7" stroke="#294064" stroke-miterlimit="10" stroke-linecap="round" stroke-linejoin="round"/>
<path d="M96.3653 685.549C95.2097 685.326 94.0926 686.083 93.8701 687.239C93.6476 688.394 94.404 689.511 95.5596 689.734C96.7152 689.956 97.8323 689.2 98.0548 688.044C98.2773 686.889 97.5209 685.771 96.3653 685.549Z" fill="#FFF2E0" stroke="#294064" stroke-miterlimit="10" stroke-linejoin="round"/>
<path d="M99.7674 615.631C98.3663 615.361 97.0121 616.279 96.7424 617.68C96.4727 619.08 97.3896 620.434 98.7904 620.704C100.191 620.974 101.545 620.057 101.815 618.656C102.085 617.256 101.168 615.901 99.7674 615.631Z" fill="#FFF2E0" stroke="#294064" stroke-miterlimit="10" stroke-linejoin="round"/>
<path d="M116.563 626.045C116.64 624.577 117.894 623.447 119.363 623.524C120.83 623.601 121.959 624.855 121.883 626.323C121.816 627.593 120.856 628.564 119.652 628.766C119.054 630.531 118.169 632.639 117.061 632.272C115.834 631.866 116.525 629.636 117.203 627.9C116.779 627.4 116.526 626.751 116.563 626.045Z" fill="#FFF2E0" stroke="#294064" stroke-miterlimit="10" stroke-linecap="round" stroke-linejoin="round"/>
<path d="M148.233 649.322C149.987 652.678 150.788 658.2 149.757 663.883" stroke="white" stroke-miterlimit="10" stroke-linecap="round" stroke-linejoin="round"/>
<path d="M149.483 667.284C149.483 667.284 148.052 673.432 147.304 676.114" stroke="white" stroke-miterlimit="10" stroke-linecap="round" stroke-linejoin="round"/>
<path d="M117.203 583.7L123.463 575.857" stroke="white" stroke-miterlimit="10" stroke-linecap="round" stroke-linejoin="round"/>
<path d="M109.828 611.011L110.503 604.572" stroke="white" stroke-miterlimit="10" stroke-linecap="round" stroke-linejoin="round"/>
<path d="M140.601 559.379L147.884 556.382" stroke="white" stroke-miterlimit="10" stroke-linecap="round" stroke-linejoin="round"/>
<path d="M141.877 554.55C140.248 552.199 138.151 555.611 136.096 556.993" stroke="white" stroke-miterlimit="10" stroke-linecap="round" stroke-linejoin="round"/>
<path d="M134.841 558.396L129.783 562.64" stroke="white" stroke-miterlimit="10" stroke-linecap="round" stroke-linejoin="round"/>
<path d="M111.594 585.052L109.285 591.331" stroke="white" stroke-miterlimit="10" stroke-linecap="round" stroke-linejoin="round"/>
</g>
<defs>
<radialGradient id="paint0_radial_1177_2299" cx="0" cy="0" r="1" gradientUnits="userSpaceOnUse" gradientTransform="translate(831 888) rotate(118.185) scale(847.513 524.456)">
<stop stop-color="#E7012A"/>
<stop offset="1" stop-color="#5815A3"/>
</radialGradient>
<clipPath id="clip0_1177_2299">
<path d="M0 0H414V841C414 852.046 405.046 861 394 861H20C8.95432 861 0 852.046 0 841V0Z" fill="white"/>
</clipPath>
<clipPath id="clip1_1177_2299">
<rect width="107" height="25" fill="white" transform="translate(234 734)"/>
</clipPath>
</defs>
</svg>
