<svg width="414" height="861" viewBox="0 0 414 861" fill="none" xmlns="http://www.w3.org/2000/svg">
<g clip-path="url(#clip0_1232_4891)">
<path d="M0 0H414V841C414 852.046 405.046 861 394 861H20C8.95432 861 0 852.046 0 841V0Z" fill="#EF6A82"/>
<g clip-path="url(#clip1_1232_4891)">
<path d="M0 0H414V841C414 852.046 405.046 861 394 861H20C8.95432 861 0 852.046 0 841V0Z" fill="#EF6A82"/>
<rect x="415" y="888" width="416" height="888" transform="rotate(-180 415 888)" fill="url(#paint0_radial_1232_4891)"/>
<path fill-rule="evenodd" clip-rule="evenodd" d="M99.1203 707.449L93.3982 720.397H91.0033V707.449H71.7939L71.7946 707.449C68.5919 707.474 65.0309 708.102 62.2459 710.49C59.2494 713.058 58.2169 716.719 58.2169 720.478C58.2169 724.237 59.2468 727.91 62.2674 730.47C65.1195 732.888 68.7733 733.463 71.9946 733.463C72.0472 733.463 72.1038 733.463 72.1038 733.463C72.1049 733.463 72.1049 733.463 72.1056 733.463C72.1049 733.463 72.1052 733.463 72.1056 733.463L87.6906 733.459H101.955L103.799 729.301H105.198L107.034 733.459H126.071V730.025C126.229 730.177 126.393 730.326 126.564 730.47C129.416 732.888 133.07 733.463 136.291 733.463C136.44 733.463 136.588 733.461 136.737 733.459H167.566V707.449H99.1203Z" fill="#E1012E"/>
<path fill-rule="evenodd" clip-rule="evenodd" d="M99.1566 707.175L93.3991 720.393H90.9894V707.175H71.661L71.6618 707.176C68.4392 707.201 64.8563 707.842 62.054 710.279C59.0389 712.902 58 716.638 58 720.476C58 724.313 59.0363 728.063 62.0756 730.677C64.9454 733.145 68.6218 733.732 71.863 733.732C71.9159 733.732 71.9729 733.732 71.9729 733.732C71.974 733.732 71.974 733.732 71.9747 733.732C71.974 733.732 71.9743 733.732 71.9747 733.732L87.6562 733.728H102.008L103.864 729.483H105.272L107.12 733.728H126.274V730.222C126.433 730.377 126.598 730.529 126.77 730.677C129.64 733.145 133.317 733.732 136.558 733.732C136.707 733.732 136.856 733.73 137.006 733.728H168.026V707.175H99.1566ZM80.0375 723.538C80.0342 723.557 80.0305 723.575 80.0269 723.594C80.0192 723.636 80.0115 723.678 80.0031 723.719C79.9984 723.742 79.9933 723.764 79.9885 723.787C79.9809 723.824 79.9732 723.86 79.9652 723.896C79.9597 723.921 79.9535 723.946 79.9476 723.97C79.9396 724.003 79.9319 724.036 79.9235 724.069C79.9155 724.1 79.9075 724.131 79.8991 724.161C79.8929 724.185 79.8867 724.208 79.8801 724.231C79.8713 724.263 79.8618 724.293 79.8527 724.324C79.8461 724.346 79.8399 724.369 79.833 724.391C79.8231 724.422 79.8125 724.454 79.8023 724.486C79.7957 724.506 79.7892 724.527 79.7822 724.547C79.7705 724.581 79.7585 724.615 79.7461 724.649C79.7402 724.666 79.7344 724.683 79.7282 724.7C79.7096 724.75 79.6906 724.799 79.6708 724.848C79.6665 724.86 79.6617 724.87 79.657 724.881C79.6416 724.919 79.6259 724.957 79.6099 724.994C79.6015 725.013 79.5923 725.033 79.5839 725.052C79.5712 725.08 79.5587 725.109 79.5456 725.137C79.5357 725.158 79.5255 725.178 79.5153 725.199C79.5029 725.225 79.4905 725.251 79.4777 725.276C79.4667 725.297 79.4558 725.318 79.4444 725.339C79.4317 725.363 79.4192 725.388 79.4065 725.412C79.3948 725.433 79.3827 725.454 79.3707 725.476C79.3579 725.499 79.3451 725.522 79.3316 725.545C79.3192 725.566 79.3064 725.587 79.2936 725.608C79.2801 725.63 79.267 725.652 79.2535 725.674C79.2403 725.695 79.2272 725.715 79.2137 725.736C79.1998 725.757 79.1859 725.779 79.172 725.8C79.1582 725.821 79.1443 725.841 79.1304 725.861C79.1162 725.882 79.1019 725.903 79.0873 725.923C79.0731 725.943 79.0581 725.963 79.0435 725.983C79.0285 726.003 79.0139 726.023 78.9989 726.043C78.984 726.063 78.9686 726.082 78.9533 726.102C78.938 726.121 78.9226 726.141 78.9069 726.16C78.8912 726.179 78.8755 726.198 78.8595 726.217C78.8438 726.236 78.8277 726.255 78.8116 726.273C78.7952 726.292 78.7788 726.311 78.7623 726.329C78.7459 726.348 78.7295 726.366 78.7127 726.384C78.6959 726.402 78.6787 726.421 78.6615 726.439C78.6447 726.456 78.6276 726.474 78.6104 726.491C78.5929 726.509 78.5754 726.527 78.5578 726.544C78.5403 726.562 78.5228 726.579 78.5049 726.596C78.487 726.613 78.4687 726.63 78.4505 726.647C78.4322 726.664 78.414 726.681 78.3957 726.697C78.3771 726.714 78.3585 726.731 78.3398 726.747C78.3212 726.763 78.3022 726.78 78.2829 726.796C78.2639 726.812 78.2449 726.828 78.2255 726.844C78.2062 726.86 78.1865 726.876 78.1664 726.891C78.147 726.907 78.1273 726.922 78.1076 726.938C78.0875 726.953 78.0667 726.969 78.0462 726.984C78.0265 726.999 78.0064 727.014 77.9864 727.029C77.9655 727.044 77.944 727.059 77.9228 727.074C77.9024 727.088 77.8823 727.102 77.8618 727.117C77.8399 727.132 77.8176 727.146 77.7954 727.161C77.7749 727.174 77.7545 727.188 77.734 727.201C77.711 727.216 77.6877 727.231 77.6639 727.245C77.6435 727.258 77.623 727.271 77.6026 727.283C77.5781 727.298 77.5529 727.312 77.5281 727.327C77.508 727.339 77.4883 727.351 77.4678 727.362C77.4408 727.377 77.4131 727.392 77.3857 727.407C77.2294 727.493 77.0669 727.573 76.8978 727.648C75.6019 728.22 73.9228 728.478 71.8622 728.478C66.6131 728.478 63.5256 726.563 63.2696 721.217C63.258 720.977 63.2525 720.73 63.2525 720.475C63.2525 720.189 63.2598 719.912 63.2744 719.643C63.5614 714.381 66.6434 712.427 71.8622 712.427C73.906 712.427 75.5814 712.681 76.8752 713.248C77.061 713.329 77.2385 713.418 77.4083 713.512C77.4309 713.525 77.454 713.537 77.4766 713.55C77.5018 713.564 77.5266 713.579 77.5515 713.594C77.5734 713.607 77.5953 713.62 77.6168 713.633C77.6416 713.648 77.6661 713.664 77.6906 713.68C77.7114 713.693 77.7326 713.706 77.7534 713.72C77.7775 713.735 77.8009 713.751 77.8242 713.767C77.8447 713.781 77.8659 713.795 77.8859 713.809C77.9097 713.825 77.9327 713.843 77.956 713.859C77.9758 713.874 77.9955 713.888 78.0148 713.902C78.0382 713.919 78.0608 713.937 78.0839 713.955C78.1025 713.969 78.1215 713.983 78.1401 713.998C78.1624 714.016 78.1843 714.034 78.2065 714.052C78.2248 714.067 78.2434 714.082 78.2617 714.098C78.2829 714.115 78.3037 714.134 78.3249 714.153C78.3431 714.169 78.3617 714.184 78.3796 714.201C78.4001 714.219 78.4198 714.238 78.4399 714.256C78.4578 714.273 78.476 714.29 78.4936 714.306C78.5133 714.325 78.5323 714.345 78.5516 714.364C78.5688 714.381 78.5863 714.398 78.6035 714.416C78.6221 714.435 78.64 714.455 78.6583 714.474C78.6754 714.492 78.6929 714.51 78.7097 714.529C78.7273 714.548 78.7444 714.568 78.762 714.588C78.7788 714.607 78.7955 714.626 78.812 714.645C78.8288 714.665 78.8452 714.685 78.8616 714.706C78.8777 714.725 78.8945 714.745 78.9102 714.765C78.9263 714.785 78.942 714.806 78.9577 714.826C78.9734 714.847 78.9895 714.867 79.0048 714.888C79.0205 714.909 79.0351 714.93 79.0504 714.952C79.0654 714.973 79.0807 714.993 79.0953 715.015C79.1096 715.035 79.1231 715.056 79.137 715.078C79.1519 715.1 79.1673 715.123 79.1823 715.146C79.1954 715.166 79.2075 715.186 79.2202 715.207C79.2352 715.231 79.2505 715.255 79.2651 715.28C79.2776 715.3 79.2892 715.322 79.3017 715.343C79.3159 715.368 79.3305 715.392 79.3444 715.417C79.3561 715.438 79.3674 715.46 79.3787 715.481C79.3926 715.507 79.4065 715.532 79.4196 715.558C79.4306 715.58 79.4412 715.602 79.4517 715.623C79.4649 715.65 79.4784 715.676 79.4912 715.703C79.5014 715.725 79.5113 715.747 79.5215 715.769C79.5339 715.796 79.5467 715.823 79.5591 715.851C79.5686 715.873 79.5777 715.896 79.5872 715.918C79.5993 715.946 79.6113 715.974 79.623 716.003C79.6321 716.026 79.6409 716.05 79.65 716.073C79.661 716.102 79.6723 716.13 79.6829 716.159C79.6917 716.183 79.6997 716.207 79.7081 716.231C79.7183 716.26 79.7289 716.289 79.7388 716.318C79.7468 716.343 79.7541 716.367 79.7621 716.391C79.7716 716.421 79.7815 716.451 79.791 716.482C79.7986 716.507 79.8056 716.532 79.8129 716.558C79.8217 716.588 79.8308 716.618 79.8392 716.649C79.8465 716.676 79.8531 716.703 79.8604 716.73C79.868 716.76 79.8761 716.789 79.8834 716.819C79.8903 716.848 79.8965 716.877 79.9031 716.905C79.91 716.935 79.917 716.964 79.9235 716.994C79.9305 717.026 79.9367 717.058 79.9433 717.091C79.9487 717.118 79.9546 717.145 79.9601 717.173C79.9604 717.175 79.9611 717.178 79.9615 717.181C79.9714 717.232 79.9805 717.285 79.9893 717.338C79.9918 717.354 79.9944 717.37 79.9973 717.386C80.0039 717.428 80.0104 717.47 80.0166 717.512C80.0188 717.528 80.0214 717.544 80.0236 717.56C80.0316 717.617 80.0389 717.674 80.0459 717.732H76.8763C76.4717 715.507 74.8306 714.878 71.8633 714.878C68.559 714.878 66.4232 715.979 66.4232 719.643V721.217C66.4232 724.814 68.5137 726.027 71.8633 726.027C74.7182 726.027 76.3818 725.488 76.8989 723.352H80.0685C80.059 723.415 80.0488 723.476 80.0378 723.537L80.0375 723.538ZM95.2223 728.209H83.86H82.5888V712.698H85.7362V725.646H95.2227V728.209H95.2223ZM112.62 728.209H110.446L108.715 724.23H100.421L98.6899 728.209H95.7226L99.1777 720.393L102.579 712.698H106.895L112.62 725.693L113.729 728.21H112.62L112.62 728.209ZM127.359 715.261H123.473H121.02V728.209H117.874V715.261H111.534V712.698H127.36V715.261H127.359ZM144.697 723.726C144.696 723.73 144.695 723.733 144.695 723.737C144.683 723.793 144.671 723.849 144.659 723.904C144.657 723.913 144.655 723.921 144.652 723.93C144.641 723.98 144.629 724.029 144.617 724.077C144.612 724.095 144.607 724.111 144.603 724.128C144.594 724.165 144.584 724.201 144.573 724.237C144.568 724.257 144.562 724.276 144.557 724.295C144.547 724.328 144.537 724.362 144.527 724.395C144.52 724.417 144.513 724.438 144.506 724.46C144.496 724.49 144.487 724.52 144.477 724.55C144.468 724.576 144.458 724.601 144.449 724.627C144.441 724.652 144.432 724.677 144.423 724.701C144.405 724.751 144.386 724.8 144.366 724.849C144.363 724.857 144.359 724.865 144.357 724.873C144.34 724.914 144.323 724.955 144.305 724.996C144.299 725.01 144.292 725.024 144.286 725.038C144.271 725.072 144.256 725.106 144.24 725.139C144.233 725.155 144.225 725.171 144.217 725.188C144.202 725.218 144.187 725.248 144.173 725.278C144.164 725.296 144.155 725.313 144.145 725.33C144.131 725.358 144.116 725.386 144.101 725.415C144.091 725.432 144.081 725.45 144.071 725.468C144.056 725.494 144.041 725.521 144.026 725.547C144.016 725.565 144.005 725.583 143.994 725.601C143.979 725.626 143.964 725.652 143.948 725.676C143.937 725.695 143.925 725.713 143.913 725.731C143.898 725.755 143.882 725.779 143.867 725.802C143.854 725.821 143.842 725.839 143.829 725.857C143.813 725.88 143.797 725.903 143.781 725.925C143.768 725.944 143.755 725.962 143.742 725.98C143.726 726.002 143.709 726.024 143.693 726.045C143.679 726.063 143.665 726.082 143.651 726.1C143.634 726.121 143.618 726.141 143.601 726.162C143.586 726.18 143.571 726.198 143.556 726.216C143.54 726.236 143.523 726.256 143.506 726.275C143.491 726.293 143.475 726.311 143.459 726.329C143.442 726.348 143.425 726.366 143.408 726.385C143.391 726.403 143.374 726.421 143.357 726.439C143.341 726.457 143.324 726.474 143.306 726.492C143.289 726.51 143.271 726.528 143.253 726.545C143.236 726.562 143.219 726.579 143.201 726.596C143.183 726.614 143.164 726.631 143.145 726.649C143.128 726.665 143.11 726.681 143.093 726.696C143.073 726.714 143.054 726.732 143.034 726.749C143.016 726.764 142.999 726.779 142.981 726.794C142.961 726.811 142.94 726.829 142.919 726.846C142.901 726.86 142.884 726.875 142.866 726.888C142.845 726.906 142.823 726.923 142.801 726.94C142.784 726.953 142.766 726.967 142.748 726.98C142.725 726.997 142.703 727.014 142.679 727.031C142.662 727.043 142.645 727.056 142.628 727.068C142.603 727.085 142.579 727.102 142.554 727.119C142.538 727.13 142.521 727.141 142.503 727.153C142.478 727.17 142.452 727.187 142.426 727.204C142.41 727.214 142.393 727.224 142.377 727.234C142.349 727.251 142.322 727.269 142.294 727.285C142.279 727.294 142.264 727.303 142.248 727.312C142.219 727.33 142.189 727.347 142.159 727.365C142.147 727.371 142.134 727.378 142.121 727.385C141.952 727.479 141.776 727.567 141.593 727.648C140.297 728.22 138.618 728.478 136.557 728.478C131.308 728.478 128.221 726.564 127.965 721.217C127.954 720.977 127.948 720.73 127.948 720.476C127.948 720.14 127.958 719.816 127.978 719.504C127.979 719.485 127.981 719.466 127.982 719.447C127.985 719.401 127.989 719.354 127.993 719.308C127.995 719.282 127.997 719.257 127.999 719.231C128.002 719.187 128.006 719.143 128.011 719.099C128.013 719.073 128.016 719.047 128.019 719.02C128.023 718.977 128.028 718.934 128.033 718.891C128.035 718.869 128.038 718.847 128.041 718.825C128.05 718.745 128.061 718.666 128.071 718.587C128.075 718.56 128.079 718.533 128.083 718.506C128.088 718.468 128.094 718.431 128.1 718.393C128.105 718.364 128.11 718.334 128.115 718.305C128.121 718.269 128.127 718.233 128.133 718.197C128.139 718.167 128.144 718.136 128.15 718.106C128.157 718.072 128.163 718.038 128.169 718.004C128.176 717.969 128.184 717.935 128.191 717.901C128.201 717.852 128.212 717.803 128.223 717.754C128.231 717.717 128.24 717.679 128.249 717.641C128.256 717.612 128.263 717.583 128.27 717.554C128.279 717.521 128.287 717.488 128.296 717.456C128.303 717.427 128.311 717.398 128.319 717.37C128.328 717.337 128.337 717.304 128.347 717.271C128.354 717.244 128.362 717.217 128.37 717.191C128.382 717.151 128.394 717.112 128.406 717.074C128.413 717.054 128.419 717.033 128.425 717.013C128.443 716.959 128.461 716.905 128.48 716.852C128.487 716.83 128.495 716.809 128.503 716.787C128.515 716.752 128.528 716.716 128.541 716.682C128.55 716.659 128.559 716.637 128.567 716.614C128.581 716.58 128.594 716.546 128.608 716.512C128.616 716.491 128.625 716.47 128.633 716.45C128.65 716.409 128.667 716.368 128.685 716.328C128.69 716.316 128.696 716.303 128.701 716.29C128.725 716.238 128.748 716.186 128.773 716.135C128.78 716.121 128.787 716.106 128.794 716.092C128.812 716.054 128.831 716.017 128.849 715.981C128.858 715.963 128.867 715.946 128.876 715.929C128.894 715.894 128.912 715.86 128.931 715.826C128.94 715.81 128.948 715.794 128.957 715.778C128.98 715.739 129.002 715.699 129.025 715.66C129.03 715.651 129.035 715.642 129.041 715.633C129.069 715.585 129.099 715.537 129.129 715.489C129.134 715.481 129.139 715.473 129.144 715.465C129.169 715.427 129.194 715.388 129.22 715.35C129.229 715.337 129.237 715.324 129.246 715.312C129.27 715.276 129.295 715.241 129.32 715.206C129.326 715.197 129.332 715.188 129.339 715.179C129.371 715.135 129.404 715.091 129.436 715.048C129.438 715.047 129.439 715.045 129.44 715.044C129.471 715.003 129.503 714.964 129.535 714.925C129.543 714.914 129.551 714.904 129.56 714.894C129.588 714.86 129.617 714.826 129.646 714.793C129.652 714.786 129.658 714.779 129.664 714.772C129.698 714.733 129.733 714.693 129.769 714.655C129.776 714.647 129.784 714.639 129.791 714.632C129.82 714.601 129.849 714.57 129.879 714.54C129.889 714.53 129.899 714.52 129.909 714.511C129.944 714.475 129.981 714.439 130.017 714.404C130.019 714.403 130.019 714.402 130.02 714.401C130.058 714.366 130.097 714.33 130.136 714.295C130.146 714.286 130.156 714.277 130.166 714.268C130.197 714.241 130.228 714.214 130.26 714.188C130.269 714.18 130.279 714.172 130.288 714.164C130.328 714.13 130.369 714.098 130.41 714.065C130.416 714.06 130.423 714.055 130.429 714.05C130.464 714.023 130.499 713.996 130.535 713.97C130.547 713.961 130.559 713.952 130.571 713.943C130.606 713.917 130.643 713.891 130.679 713.866C130.686 713.861 130.693 713.856 130.699 713.851C130.742 713.822 130.786 713.793 130.83 713.764C130.84 713.756 130.851 713.75 130.862 713.743C130.897 713.72 130.932 713.698 130.967 713.676C130.98 713.669 130.992 713.661 131.004 713.654C131.049 713.626 131.095 713.599 131.141 713.573C131.144 713.571 131.146 713.57 131.15 713.568C131.193 713.543 131.237 713.519 131.281 713.495C131.294 713.488 131.308 713.481 131.322 713.473C131.359 713.454 131.396 713.434 131.434 713.415C131.445 713.409 131.457 713.403 131.468 713.398C131.516 713.374 131.564 713.35 131.612 713.327C131.624 713.322 131.636 713.316 131.647 713.311C131.686 713.293 131.725 713.276 131.763 713.258C131.779 713.251 131.794 713.245 131.81 713.238C131.853 713.219 131.896 713.201 131.94 713.182C131.948 713.179 131.955 713.176 131.963 713.173C132.013 713.152 132.063 713.132 132.115 713.113C132.131 713.107 132.147 713.101 132.163 713.094C132.201 713.08 132.239 713.066 132.278 713.052C132.294 713.047 132.311 713.04 132.327 713.035C132.379 713.016 132.431 712.999 132.483 712.982C132.495 712.978 132.508 712.974 132.521 712.97C133.67 712.597 135.02 712.427 136.556 712.427C138.6 712.427 140.275 712.681 141.569 713.248C141.767 713.335 141.956 713.429 142.136 713.531C142.147 713.537 142.159 713.543 142.17 713.549C142.207 713.571 142.243 713.593 142.28 713.614C142.29 713.621 142.3 713.626 142.31 713.632C142.347 713.655 142.383 713.678 142.419 713.702C142.428 713.708 142.437 713.713 142.446 713.719C142.482 713.742 142.517 713.766 142.552 713.79C142.561 713.796 142.57 713.802 142.579 713.808C142.613 713.832 142.647 713.857 142.68 713.881C142.69 713.888 142.699 713.894 142.708 713.901C142.741 713.926 142.774 713.951 142.806 713.977C142.815 713.984 142.824 713.99 142.833 713.997C142.865 714.022 142.895 714.047 142.925 714.073C142.935 714.081 142.945 714.088 142.955 714.097C142.984 714.122 143.012 714.147 143.041 714.172C143.051 714.181 143.062 714.19 143.072 714.199C143.1 714.224 143.127 714.25 143.154 714.276C143.165 714.286 143.176 714.295 143.186 714.306C143.212 714.33 143.237 714.356 143.262 714.381C143.273 714.393 143.285 714.404 143.296 714.415C143.319 714.439 143.342 714.464 143.365 714.488C143.377 714.502 143.39 714.515 143.402 714.528C143.424 714.552 143.444 714.576 143.465 714.599C143.478 714.615 143.492 714.629 143.505 714.645C143.524 714.667 143.542 714.691 143.561 714.713C143.575 714.73 143.589 714.748 143.603 714.765C143.62 714.787 143.637 714.809 143.654 714.831C143.669 714.85 143.684 714.869 143.698 714.888C143.714 714.91 143.728 714.931 143.743 714.952C143.758 714.974 143.774 714.994 143.789 715.016C143.803 715.036 143.816 715.056 143.83 715.077C143.845 715.1 143.861 715.123 143.876 715.146C143.888 715.165 143.9 715.185 143.912 715.205C143.928 715.23 143.944 715.255 143.959 715.28C143.969 715.299 143.98 715.317 143.991 715.336C144.006 715.363 144.022 715.39 144.037 715.417C144.048 715.436 144.058 715.456 144.068 715.475C144.083 715.503 144.098 715.53 144.113 715.559C144.123 715.579 144.133 715.6 144.143 715.62C144.157 715.648 144.171 715.675 144.184 715.703C144.194 715.725 144.204 715.747 144.214 715.769C144.227 715.796 144.24 715.824 144.252 715.851C144.263 715.876 144.273 715.901 144.283 715.926C144.294 715.952 144.305 715.977 144.315 716.003C144.328 716.034 144.339 716.066 144.351 716.097C144.359 716.118 144.367 716.138 144.375 716.158C144.389 716.196 144.402 716.235 144.415 716.274C144.42 716.288 144.426 716.303 144.431 716.318C144.448 716.369 144.464 716.421 144.48 716.474C144.481 716.476 144.482 716.478 144.483 716.48C144.549 716.7 144.606 716.93 144.652 717.171C144.654 717.185 144.657 717.199 144.659 717.212C144.667 717.251 144.674 717.29 144.68 717.329C144.684 717.351 144.687 717.374 144.691 717.396C144.697 717.432 144.702 717.468 144.707 717.503C144.71 717.523 144.713 717.543 144.716 717.563C144.724 717.618 144.731 717.675 144.738 717.731H141.568C141.163 715.506 139.523 714.876 136.555 714.876C134.911 714.876 133.557 715.149 132.61 715.874C132.61 715.874 132.609 715.875 132.609 715.875C132.582 715.896 132.555 715.917 132.529 715.939C132.526 715.941 132.523 715.943 132.52 715.946C132.495 715.966 132.47 715.988 132.445 716.01C132.441 716.013 132.438 716.016 132.434 716.019C132.41 716.039 132.387 716.061 132.363 716.083C132.359 716.087 132.354 716.091 132.35 716.095C132.328 716.116 132.306 716.137 132.284 716.159C132.279 716.164 132.274 716.168 132.269 716.173C132.248 716.194 132.227 716.216 132.207 716.237C132.201 716.243 132.196 716.249 132.19 716.255C132.171 716.276 132.152 716.297 132.132 716.319C132.127 716.326 132.12 716.332 132.114 716.339C132.096 716.36 132.078 716.382 132.06 716.403C132.054 716.411 132.047 716.418 132.041 716.427C132.024 716.447 132.008 716.469 131.991 716.49C131.984 716.499 131.977 716.508 131.97 716.517C131.954 716.538 131.939 716.559 131.924 716.58C131.917 716.59 131.909 716.6 131.902 716.61C131.887 716.63 131.874 716.651 131.859 716.672C131.852 716.684 131.844 716.695 131.836 716.706C131.823 716.726 131.81 716.747 131.797 716.768C131.789 716.78 131.781 716.792 131.773 716.805C131.761 716.825 131.749 716.846 131.737 716.867C131.729 716.88 131.721 716.893 131.713 716.907C131.702 716.927 131.691 716.948 131.68 716.968C131.672 716.983 131.664 716.997 131.656 717.012C131.646 717.032 131.635 717.052 131.625 717.073C131.617 717.089 131.609 717.105 131.601 717.121C131.592 717.14 131.582 717.161 131.573 717.181C131.565 717.198 131.557 717.215 131.549 717.232C131.54 717.252 131.532 717.273 131.524 717.292C131.516 717.311 131.508 717.328 131.5 717.347C131.492 717.367 131.485 717.387 131.477 717.407C131.469 717.426 131.462 717.445 131.454 717.465C131.447 717.484 131.44 717.504 131.433 717.524C131.426 717.545 131.418 717.565 131.411 717.586C131.405 717.606 131.398 717.626 131.392 717.645C131.385 717.667 131.378 717.688 131.371 717.71C131.365 717.73 131.359 717.75 131.353 717.77C131.347 717.793 131.34 717.815 131.333 717.838C131.328 717.857 131.323 717.878 131.317 717.897C131.311 717.921 131.305 717.944 131.299 717.969C131.294 717.989 131.289 718.009 131.284 718.03C131.278 718.054 131.272 718.078 131.267 718.103C131.262 718.123 131.258 718.145 131.254 718.165C131.248 718.191 131.243 718.215 131.238 718.241C131.234 718.262 131.23 718.283 131.226 718.304C131.222 718.33 131.217 718.356 131.212 718.382C131.209 718.404 131.205 718.425 131.202 718.447C131.198 718.474 131.193 718.5 131.189 718.527C131.186 718.549 131.183 718.572 131.18 718.594C131.176 718.621 131.172 718.648 131.169 718.676C131.166 718.699 131.164 718.723 131.161 718.746C131.158 718.773 131.155 718.8 131.152 718.827C131.149 718.852 131.148 718.877 131.145 718.903C131.142 718.929 131.14 718.956 131.138 718.983C131.136 719.009 131.134 719.036 131.132 719.063C131.13 719.09 131.129 719.116 131.127 719.142C131.125 719.171 131.124 719.201 131.122 719.231C131.121 719.255 131.12 719.28 131.119 719.305C131.117 719.34 131.117 719.376 131.116 719.412C131.115 719.432 131.114 719.451 131.114 719.471C131.113 719.527 131.113 719.584 131.113 719.641V721.215C131.113 724.812 133.203 726.026 136.552 726.026C139.408 726.026 141.071 725.486 141.588 723.35H144.758C144.738 723.477 144.716 723.601 144.691 723.722L144.697 723.726ZM162.772 728.21H159.625V721.533H150.431V728.21H148.555H147.284V712.698H150.431V718.97H159.625V712.698H162.773V728.209L162.772 728.21Z" fill="white"/>
<path fill-rule="evenodd" clip-rule="evenodd" d="M107.089 720.513L107.065 720.457L104.557 714.743L101.432 721.914H107.704L107.089 720.513Z" fill="white"/>
<path d="M186.914 711.3L189.664 708.3L201.014 718.5L212.364 708.35L215.114 711.3L204.064 721.2L215.114 731.05L212.364 734.05L201.014 723.9L189.664 734.05L186.964 731.05L197.964 721.2L186.914 711.3Z" fill="white"/>
<g clip-path="url(#clip2_1232_4891)">
<path d="M262.123 733H267.995C268.475 733 268.976 732.452 268.976 731.936V709.064C268.971 708.548 268.47 708 267.995 708H262.123C261.643 708 261.141 708.548 261.141 709.064V731.936C261.141 732.452 261.643 733 262.123 733Z" fill="white"/>
<path d="M240.785 733C241.297 733 241.829 732.452 241.829 731.936V723.915H245.483L250.18 732.468C250.306 732.676 250.702 733 251.224 733H258.01C258.553 733 258.814 732.399 258.532 731.936L251.746 720.197L258.532 709.064C258.85 708.601 258.568 708 258.01 708H250.702C250.18 708 249.784 708.34 249.659 708.532L244.961 717.005H241.829V709.064C241.819 708.553 241.297 708 240.785 708H235.044C234.522 708 234 708.527 234 709.037V731.936C234 732.452 234.532 733 235.044 733H240.785Z" fill="white"/>
<path d="M339.956 733C340.468 733 341 732.399 341 731.883V709.037C341 708.521 340.468 708 339.956 708H334.215C333.703 708 333.171 708.548 333.171 709.064V720.766L323.254 708H316.468C315.957 708 315.424 708.548 315.424 709.064V731.936C315.424 732.452 315.957 733 316.468 733H322.21C322.721 733 323.254 732.452 323.254 731.936V720.197L333.171 733H339.956Z" fill="white"/>
<path d="M273.152 733H311.254C311.818 733 312.298 732.505 312.298 731.936V709.064C312.298 708.495 311.818 708 311.254 708H273.152C272.588 708 272.108 708.495 272.108 709.064V731.936C272.108 732.505 272.588 733 273.152 733ZM280.459 714.383C282.818 714.851 287.74 714.92 292.344 714.91C297.114 714.899 301.89 714.798 303.947 714.383C304.15 714.34 304.469 714.378 304.469 714.91V725.532C304.469 726.085 304.14 726.085 303.947 726.064C301.911 725.809 297.099 725.883 292.344 725.867C287.537 725.856 282.463 725.787 280.459 726.085C280.261 726.112 279.937 726.106 279.937 725.553V714.915C279.937 714.383 280.261 714.346 280.459 714.383Z" fill="white"/>
</g>
<path d="M276.182 529.539C275.845 532.573 264.242 536.894 259.938 538.709C250.464 542.704 241.072 544.52 231.119 546.83C219.326 549.568 207.51 551.52 195.489 552.856C181.132 554.451 165.872 553.43 151.736 556C143.057 557.578 140.352 566.098 135.231 572.244C132.231 575.843 125.608 578.243 121.869 581.151C110.641 589.884 99.6564 611.516 106.936 625.165C118.061 646.025 147.063 645.374 167.194 647.697C183.09 649.531 195.598 661.418 211.421 659.911C227.945 658.337 265.414 651.697 276.567 639.8C294.724 620.433 297.413 584.659 298.975 558.096C299.399 550.899 297.714 537.73 290.067 534.254C288.137 533.378 276.374 527.802 276.182 529.539Z" fill="#FFF2E0" stroke="#294064" stroke-miterlimit="10" stroke-linecap="round" stroke-linejoin="round"/>
<path d="M137.438 573.823C137.438 573.823 132.044 561.085 124.325 554.622C116.39 547.978 105.928 548.044 102.121 554.477C91.6112 572.239 115.5 608.692 132.196 610.308C138.921 610.958 146.181 611.878 152.051 607.893" fill="#FFF2E0"/>
<path d="M137.438 573.823C137.438 573.823 132.044 561.085 124.325 554.622C116.39 547.978 105.928 548.044 102.121 554.477C91.6112 572.239 115.5 608.692 132.196 610.308C138.921 610.958 146.181 611.878 152.051 607.893" stroke="#294064" stroke-miterlimit="10" stroke-linecap="round" stroke-linejoin="round"/>
<path d="M136.209 631.339C131.587 611.751 126.976 597.755 107.229 583.398C99.8933 578.064 79.668 573.085 77.1232 587.817C75.0405 599.873 82.183 613.824 87.1235 625.018C101.894 658.484 113.026 677.611 153.422 671.088C160.577 669.932 170.231 664.509 177.301 662.914" fill="#FFF2E0"/>
<path d="M136.209 631.339C131.587 611.751 126.976 597.755 107.229 583.398C99.8933 578.064 79.668 573.085 77.1232 587.817C75.0405 599.873 82.183 613.824 87.1235 625.018C101.894 658.484 113.026 677.611 153.422 671.088C160.577 669.932 170.231 664.509 177.301 662.914" stroke="#294064" stroke-miterlimit="10" stroke-linecap="round" stroke-linejoin="round"/>
<path d="M246.551 541.11C260.039 529.722 288.598 516.836 304.891 519.033C323.588 521.555 327.648 544.912 327.979 559.188C328.862 597.305 301.386 657.475 281.786 656.524C259.612 655.449 261.199 621.842 275.92 600.541C283.73 589.242 277.675 566.781 277.675 566.781" fill="#FFF2E0"/>
<path d="M246.551 541.11C260.039 529.722 288.598 516.836 304.891 519.033C323.588 521.555 327.648 544.912 327.979 559.188C328.862 597.305 301.386 657.475 281.786 656.524C259.612 655.449 261.199 621.842 275.92 600.541C283.73 589.242 277.675 566.781 277.675 566.781" stroke="#294064" stroke-miterlimit="10" stroke-linecap="round" stroke-linejoin="round"/>
<path d="M237.468 459.056C237.468 459.056 277.722 459.386 281.246 439.324C284.976 418.086 239.425 413.464 239.425 413.464" fill="#FFF2E0"/>
<path d="M237.468 459.056C237.468 459.056 277.722 459.386 281.246 439.324C284.976 418.086 239.425 413.464 239.425 413.464" stroke="#294064" stroke-miterlimit="10" stroke-linecap="round" stroke-linejoin="round"/>
<path d="M175.254 405.42C170.366 397.092 165.443 386.94 159.167 379.647C142.45 360.221 125.09 356.013 104.611 373.971C100.657 377.439 95.8421 381.973 93.9892 387.091C85.2275 411.286 84.3867 461.203 97.5415 483.617C103.821 494.317 129.224 513.443 142.316 512.188C152.629 511.198 161.326 504.633 170.125 499.718C182.558 492.773 188.17 486.645 188.315 471.655" fill="#FFF2E0"/>
<path d="M175.254 405.42C170.366 397.092 165.443 386.94 159.167 379.647C142.45 360.221 125.09 356.013 104.611 373.971C100.657 377.439 95.8421 381.973 93.9892 387.091C85.2275 411.286 84.3867 461.203 97.5415 483.617C103.821 494.317 129.224 513.443 142.316 512.188C152.629 511.198 161.326 504.633 170.125 499.718C182.558 492.773 188.17 486.645 188.315 471.655" stroke="#294064" stroke-miterlimit="10" stroke-linecap="round" stroke-linejoin="round"/>
<path d="M87.0765 623.231C91.0485 630.377 104.189 628.109 105.903 618.889C107.814 608.612 102.499 596.937 94.6098 589.597C91.4527 586.66 84.8389 582.262 81.0427 585.907" stroke="#294064" stroke-miterlimit="10" stroke-linecap="round" stroke-linejoin="round"/>
<path d="M117.786 577.022C117.55 571.315 119.079 557.258 109.155 554.112C104.853 552.747 101.765 556.665 101.765 556.665" stroke="#294064" stroke-miterlimit="10" stroke-linecap="round" stroke-linejoin="round"/>
<path d="M307.147 630.941C309.816 615.107 291.694 617.428 285.189 625.958C278.572 634.634 282.18 648.141 286.367 652.476C287.99 654.156 294.191 648.322 294.191 648.322" stroke="#294064" stroke-miterlimit="10" stroke-linecap="round" stroke-linejoin="round"/>
<path d="M273.153 566.926C274.037 569.861 275.465 572.529 277.134 575.068C277.645 575.843 278.138 576.643 278.714 577.377C278.777 577.457 279.453 578.267 279.21 578.008" stroke="#294064" stroke-miterlimit="10" stroke-linecap="round" stroke-linejoin="round"/>
<path d="M120.44 414.973C119.54 403.249 128.798 393.234 140.556 393.213L244.102 393.021C255.847 392.999 265.138 402.958 264.302 414.673L258.046 502.326C257.292 512.905 248.489 521.101 237.884 521.101H147.307C136.744 521.101 127.962 512.968 127.153 502.435L120.44 414.973Z" fill="#54D0CC" stroke="#294064" stroke-miterlimit="10" stroke-linejoin="round"/>
<path d="M127.897 426.393C127.098 415.985 135.317 407.094 145.756 407.074L237.682 406.904C248.108 406.885 256.356 415.726 255.614 426.127L250.061 503.944C249.391 513.335 241.577 520.611 232.162 520.611H151.749C142.371 520.611 134.574 513.39 133.857 504.04L127.897 426.393Z" fill="#C4F4F3" stroke="#294064" stroke-miterlimit="10" stroke-linejoin="round"/>
<path d="M150.257 438.491C149.738 431.736 155.072 425.967 161.846 425.954L221.504 425.843C228.27 425.831 233.623 431.568 233.142 438.318L229.537 488.819C229.102 494.913 224.031 499.636 217.921 499.636H165.737C159.65 499.636 154.591 494.949 154.125 488.881L150.257 438.491Z" fill="#18D0CB"/>
<path d="M150.837 445.316L153.552 480.879" stroke="#294064" stroke-miterlimit="10" stroke-linecap="round" stroke-linejoin="round"/>
<path d="M153.887 487.693C156.969 501.847 167.608 499.74 177.389 499.678" stroke="#294064" stroke-miterlimit="10" stroke-linecap="round" stroke-linejoin="round"/>
<path d="M184.58 425.624L201.775 425.792" stroke="#294064" stroke-miterlimit="10" stroke-linecap="round" stroke-linejoin="round"/>
<path d="M207.116 426.048L221.501 426.042" stroke="#294064" stroke-miterlimit="10" stroke-linecap="round" stroke-linejoin="round"/>
<path d="M232.412 444.093L230.623 471.228" stroke="#294064" stroke-miterlimit="10" stroke-linecap="round" stroke-linejoin="round"/>
<path d="M230.316 476.215L229.697 487.073" stroke="#294064" stroke-miterlimit="10" stroke-linecap="round" stroke-linejoin="round"/>
<path d="M233.96 427.266L248.272 413.356" stroke="#294064" stroke-miterlimit="10" stroke-linecap="round" stroke-linejoin="round"/>
<path d="M228.048 498.805L243.288 512.944" stroke="#294064" stroke-miterlimit="10" stroke-linecap="round" stroke-linejoin="round"/>
<path d="M150.596 429.999L132.639 419.174" stroke="#294064" stroke-miterlimit="10" stroke-linecap="round" stroke-linejoin="round"/>
<path d="M156.873 498.039L141.58 514.545" stroke="#294064" stroke-miterlimit="10" stroke-linecap="round" stroke-linejoin="round"/>
<path d="M144.023 520.558C135.104 520.824 127.682 523.013 125.895 536.309C125.895 536.309 118.425 569.678 117.481 576.683C115.3 592.861 122.504 607.092 129.413 622.549C134.65 634.265 139.242 637.107 147.919 637.107H153.926H228.575H234.582C243.258 637.107 247.851 634.265 253.089 622.549C259.997 607.092 267.201 592.861 265.02 576.683C264.076 569.678 256.605 536.309 256.605 536.309C254.819 523.013 247.396 520.824 238.477 520.558C235.505 520.469 232.374 520.587 229.224 520.586H192.319H153.276C150.127 520.587 146.996 520.469 144.023 520.558Z" fill="#54D0CC" stroke="#294064" stroke-miterlimit="10" stroke-linejoin="round"/>
<path d="M259.23 579.726C260.074 586.709 254.212 592.654 247.178 592.662L133.925 592.784C126.452 592.792 120.875 585.905 122.438 578.597L132.848 529.892C134.005 524.479 138.788 520.611 144.323 520.611H238.174C244.11 520.611 249.111 525.044 249.823 530.937L259.23 579.726Z" fill="white" stroke="#294064" stroke-miterlimit="10" stroke-linejoin="round"/>
<path d="M157.352 518.554C157.352 514.922 160.297 511.979 163.928 511.979H219.842C223.474 511.979 226.418 514.922 226.418 518.554V520.721C226.418 524.352 223.474 527.295 219.842 527.295H163.928C160.297 527.295 157.352 524.352 157.352 520.721V518.554Z" fill="#54D0CC" stroke="#294064" stroke-miterlimit="10" stroke-linejoin="round"/>
<path d="M119.423 554.555C118.362 555.469 118.243 557.069 119.157 558.129L124.106 563.874C125.02 564.934 126.62 565.053 127.68 564.139L142.746 551.159C143.806 550.245 143.925 548.645 143.011 547.585L138.063 541.84C137.149 540.78 135.549 540.661 134.488 541.575L119.423 554.555ZM124.755 558.458C123.842 557.398 123.961 555.798 125.021 554.884L133.816 547.307C134.876 546.393 136.476 546.512 137.39 547.572C138.303 548.633 138.184 550.233 137.124 551.147L128.329 558.725C127.269 559.638 125.669 559.519 124.755 558.458Z" fill="#FFF2E0" stroke="#294064" stroke-miterlimit="10" stroke-linejoin="round"/>
<path d="M134.219 549.082C133.814 548.098 134.282 546.972 135.266 546.566L152.304 539.542C153.288 539.136 154.414 539.605 154.819 540.589L155.32 541.801C155.725 542.784 155.256 543.91 154.273 544.316L137.234 551.34C136.25 551.746 135.124 551.277 134.719 550.293L134.219 549.082Z" fill="#A360E7" stroke="#294064" stroke-miterlimit="10" stroke-linejoin="round"/>
<path d="M102.525 585.147C102.043 586.46 102.717 587.916 104.031 588.399L111.15 591.01C112.464 591.492 113.92 590.818 114.403 589.504L121.251 570.834C121.733 569.52 121.059 568.064 119.744 567.582L112.626 564.97C111.312 564.488 109.856 565.163 109.374 566.477L102.525 585.147ZM109.083 585.963C107.769 585.481 107.094 584.025 107.576 582.711L111.575 571.812C112.057 570.498 113.512 569.824 114.827 570.306C116.141 570.788 116.815 572.244 116.333 573.558L112.335 584.456C111.853 585.771 110.397 586.445 109.083 585.963Z" fill="#FFF2E0" stroke="#294064" stroke-miterlimit="10" stroke-linejoin="round"/>
<path d="M112.792 573.166C111.959 572.504 111.821 571.292 112.483 570.458L123.954 556.035C124.616 555.201 125.827 555.063 126.66 555.726L127.686 556.541C128.519 557.203 128.658 558.415 127.995 559.249L116.525 573.672C115.863 574.506 114.651 574.644 113.818 573.981L112.792 573.166Z" fill="#A360E7" stroke="#294064" stroke-miterlimit="10" stroke-linejoin="round"/>
<path d="M106.932 605.81C105.874 605.698 105.107 604.749 105.218 603.692L107.15 585.364C107.261 584.306 108.21 583.539 109.267 583.65L110.572 583.787C111.63 583.899 112.397 584.847 112.285 585.905L110.354 604.233C110.242 605.291 109.294 606.058 108.235 605.946L106.932 605.81Z" fill="#A360E7" stroke="#294064" stroke-miterlimit="10" stroke-linejoin="round"/>
<path d="M201.612 503.905C196.44 504.561 191.673 507.835 187.253 512.774C186 514.173 184.913 515.651 183.877 517.106C183.051 516.688 182.264 516.25 181.351 515.87C175.702 513.521 170.054 512.667 164.769 514.212C161.238 515.245 158.116 517.322 155.586 520.479C151.329 525.792 151.094 532.207 154.208 538.797C156.693 544.055 161.292 549.411 167.296 554.447C178.547 563.884 192.764 570.732 198.811 568.625C204.981 566.474 213.445 553.493 217.778 540.351C220.175 533.082 221.162 526.231 220.372 520.413C219.401 513.266 215.771 507.83 209.39 505.018C207.592 504.225 205.721 503.817 203.84 503.776C203.084 503.759 202.351 503.812 201.612 503.905ZM203.672 511.549C204.532 511.568 205.386 511.761 206.249 512.142C213.452 515.317 214.74 524.773 210.406 537.916C208.539 543.578 205.731 549.369 202.69 554.033C201.28 556.194 199.887 558.018 198.623 559.348C197.546 560.482 196.656 561.143 196.251 561.284C195.537 561.533 192.047 560.63 187.691 558.531C182.637 556.098 177.054 552.48 172.298 548.491C161.39 539.342 157.316 530.755 161.65 525.344C163.182 523.434 164.95 522.264 166.953 521.678C170.229 520.72 174.218 521.325 178.381 523.057C179.602 523.563 180.719 524.117 181.735 524.692C182.084 524.89 182.401 525.082 182.661 525.245C182.804 525.334 182.899 525.382 182.926 525.4C184.795 526.67 187.332 526.094 188.459 524.135C188.497 524.069 188.609 523.906 188.755 523.67C189.013 523.256 189.299 522.781 189.646 522.273C190.645 520.814 191.783 519.348 193.025 517.96C196.707 513.846 200.45 511.479 203.672 511.549Z" fill="#621399" stroke="#294064" stroke-miterlimit="10" stroke-linecap="round" stroke-linejoin="round"/>
<path d="M202.954 502.863C197.782 503.518 193.015 506.792 188.595 511.731C187.342 513.131 186.255 514.609 185.218 516.063C184.392 515.645 183.605 515.207 182.692 514.828C177.043 512.478 171.395 511.624 166.111 513.17C162.579 514.202 159.458 516.279 156.928 519.436C152.67 524.749 152.435 531.165 155.55 537.754C158.034 543.012 162.633 548.369 168.637 553.404C179.888 562.842 194.105 569.689 200.153 567.582C206.322 565.432 214.787 552.45 219.12 539.308C221.516 532.039 222.503 525.188 221.713 519.371C220.743 512.223 217.113 506.787 210.732 503.975C208.933 503.183 207.062 502.774 205.181 502.733C204.426 502.716 203.693 502.769 202.954 502.863ZM205.013 510.506C205.873 510.525 206.728 510.718 207.59 511.099C214.794 514.274 216.081 523.73 211.748 536.874C209.881 542.535 207.073 548.326 204.031 552.99C202.622 555.151 201.229 556.975 199.964 558.306C198.886 559.44 197.997 560.1 197.592 560.241C196.878 560.49 193.388 559.587 189.031 557.489C183.979 555.055 178.396 551.438 173.638 547.448C162.732 538.3 158.657 529.712 162.992 524.302C164.523 522.391 166.291 521.221 168.295 520.635C171.571 519.678 175.56 520.282 179.723 522.014C180.943 522.521 182.06 523.074 183.075 523.649C183.426 523.848 183.743 524.04 184.003 524.203C184.146 524.291 184.24 524.339 184.267 524.357C186.137 525.627 188.674 525.051 189.801 523.093C189.839 523.026 189.95 522.864 190.097 522.627C190.354 522.213 190.64 521.738 190.988 521.23C191.986 519.771 193.124 518.306 194.366 516.918C198.049 512.803 201.791 510.436 205.013 510.506Z" fill="#A360E7" stroke="#294064" stroke-miterlimit="10" stroke-linecap="round" stroke-linejoin="round"/>
<path d="M202.953 502.863C197.781 503.518 193.014 506.792 188.594 511.731C187.341 513.131 186.254 514.609 185.217 516.063C184.391 515.645 183.604 515.207 182.691 514.828C177.042 512.478 171.394 511.625 166.11 513.17C162.578 514.202 159.457 516.279 156.927 519.436C156.732 519.679 156.594 519.945 156.417 520.193L156.394 520.175C152.487 525.772 143.751 523.436 144.499 532.281C145.302 541.762 149.902 553.3 153.093 557.45C156.158 561.438 169.549 557.296 169.02 552.436C168.413 546.857 162.79 537.073 161.522 531.112C161.336 530.24 161.346 529.888 161.337 529.302C161.38 528.616 161.426 527.93 161.576 527.239C161.829 526.182 162.278 525.192 162.991 524.302C164.522 522.391 166.29 521.221 168.294 520.635C171.57 519.678 175.559 520.282 179.722 522.014C180.942 522.521 182.059 523.074 183.074 523.649C183.425 523.848 183.742 524.04 184.002 524.203C184.145 524.291 184.24 524.339 184.266 524.357C186.136 525.627 188.673 525.051 189.8 523.093C189.838 523.026 189.949 522.864 190.096 522.627C190.353 522.213 190.639 521.738 190.987 521.23C191.985 519.771 193.123 518.305 194.365 516.918C198.048 512.803 201.791 510.436 205.013 510.506C205.872 510.525 206.727 510.718 207.589 511.099C213.11 513.532 215.118 519.693 213.804 528.351C213.804 528.351 210.163 531.242 211.434 534.667C213.278 539.634 218.782 539.603 220.72 538.016C225.376 534.201 221.745 529.096 221.745 529.096C222.38 525.265 222.157 522.651 221.712 519.371C220.742 512.223 217.112 506.787 210.731 503.975C208.932 503.183 207.061 502.774 205.18 502.733C204.425 502.716 203.692 502.769 202.953 502.863Z" fill="#A360E7" stroke="#294064" stroke-miterlimit="10" stroke-linecap="round" stroke-linejoin="round"/>
<path d="M91.542 603.408C89.2606 603.761 87.0405 604.653 84.9482 606.116C81.6331 608.435 79.3663 611.423 78.1058 614.881C76.2199 620.052 76.7005 625.73 78.6765 631.521C78.9957 632.456 79.3757 633.276 79.7387 634.128C78.2195 635.067 76.6852 636.044 75.2069 637.203C69.9903 641.292 66.4021 645.85 65.4108 650.969C65.2692 651.7 65.1836 652.425 65.1508 653.18C65.0689 655.06 65.3394 656.95 66.0133 658.796C68.404 665.346 73.6011 669.317 80.6696 670.751C85.5275 671.736 91.2241 671.447 97.3337 670.197C95.1973 669.244 93.5473 667.316 93.2622 664.826C93.1923 664.216 93.3188 663.646 93.4056 663.066C82.9109 664.749 75.6557 662.476 73.3359 656.12C73.0127 655.235 72.878 654.377 72.9154 653.518C73.0554 650.297 75.6449 646.719 79.9912 643.312C81.4568 642.163 82.9996 641.119 84.5201 640.218C85.0498 639.904 85.5392 639.646 85.9684 639.417C86.2142 639.284 86.3969 639.188 86.4658 639.154C88.4939 638.158 89.2358 635.662 88.0909 633.714C88.0744 633.686 88.0264 633.595 87.9465 633.447C87.8012 633.178 87.6228 632.851 87.448 632.489C86.9402 631.439 86.4739 630.274 86.0472 629.024C84.5911 624.757 84.2313 620.75 85.4006 617.543C86.1158 615.582 87.4139 613.884 89.4202 612.48C91.7536 610.848 94.5385 610.761 97.583 611.91C97.702 609.335 99.0277 606.764 102.118 605.63C102.223 605.592 102.316 605.596 102.418 605.563C98.7357 603.704 95.0564 602.865 91.542 603.408Z" fill="#FFF2E0" stroke="#294064" stroke-miterlimit="10" stroke-linecap="round" stroke-linejoin="round"/>
<path d="M127.221 621.501C126.31 621.594 125.417 621.766 124.527 621.998C123.002 622.396 121.583 623.042 120.212 623.798C120.212 623.798 115.59 626.623 116.823 629.467C119.01 634.51 122.095 631.883 122.095 631.883C123.512 630.817 124.964 629.931 126.49 629.534C128.51 629.006 130.628 629.099 132.923 629.951C139.423 632.365 140.35 641.816 135.695 655.269C133.665 661.136 130.729 667.101 127.645 671.787C124.986 675.825 122.456 678.396 121.715 678.549C121.295 678.636 120.197 678.523 118.69 678.104C116.921 677.612 114.78 676.778 112.461 675.648C107.454 673.211 102.077 669.676 97.5662 665.777C97.4632 665.689 97.3985 665.597 97.2973 665.509C95.7109 666.063 93.9203 666.069 92.2662 665.33C91.7968 665.121 91.4339 664.8 91.0435 664.505C89.9241 665.511 88.5321 666.167 87.0387 666.299C88.6855 668.119 90.4741 669.919 92.4946 671.664C102.965 680.712 116.88 687.493 123.278 686.166C129.548 684.867 138.229 671.68 143.031 657.803C145.594 650.397 146.796 643.455 146.225 637.668C145.511 630.415 142.01 625.02 135.627 622.65C132.783 621.594 129.954 621.225 127.221 621.501Z" fill="#FFF2E0" stroke="#294064" stroke-miterlimit="10" stroke-linecap="round" stroke-linejoin="round"/>
<path d="M128 622.954C127.089 623.047 126.195 623.219 125.305 623.451C123.782 623.849 122.362 624.495 120.991 625.251C120.991 625.251 116.374 628.09 117.607 630.934C119.794 635.975 122.874 633.336 122.874 633.336C124.291 632.27 125.743 631.384 127.269 630.986C129.289 630.459 131.407 630.552 133.702 631.404C140.201 633.818 141.129 643.269 136.474 656.723C134.444 662.589 131.509 668.555 128.423 673.24C125.765 677.278 123.234 679.849 122.494 680.002C122.073 680.089 120.976 679.976 119.469 679.557C117.7 679.065 115.559 678.231 113.24 677.102C108.233 674.664 102.856 671.129 98.3457 667.231C96.7095 665.817 95.2991 664.411 93.9971 663.018C93.8102 663.301 93.6677 663.614 93.4453 663.868C92.3667 666.177 90.1755 667.544 87.8177 667.752C89.4646 669.572 91.2531 671.371 93.2736 673.117C103.744 682.165 117.659 688.945 124.057 687.619C130.328 686.32 139.009 673.133 143.811 659.255C146.374 651.85 147.574 644.908 147.005 639.121C146.29 631.867 142.789 626.474 136.406 624.104C133.562 623.047 130.733 622.678 128 622.954Z" fill="#A360E7" stroke="#294064" stroke-miterlimit="10" stroke-linecap="round" stroke-linejoin="round"/>
<path d="M64.2877 652.237C65.2789 647.119 68.8565 642.576 74.073 638.487C75.5514 637.328 77.0967 636.34 78.6158 635.401C78.2528 634.548 77.8666 633.734 77.5474 632.799C75.5713 627.008 75.0878 621.317 76.9736 616.145C78.2341 612.688 80.5095 609.707 83.8245 607.39C84.0802 607.21 84.3544 607.091 84.6135 606.929L84.597 606.905C90.4373 603.373 88.6752 594.502 97.4522 595.825C106.861 597.244 118.074 602.586 122.008 606.04C125.787 609.359 120.782 622.452 115.966 621.607C110.44 620.637 101.042 614.389 95.1768 612.735C94.3185 612.493 93.9669 612.48 93.383 612.432C92.6959 612.431 92.008 612.432 91.3084 612.537C90.2377 612.721 89.22 613.104 88.2851 613.758C86.2788 615.161 84.9965 616.849 84.2812 618.81C83.112 622.017 83.4557 626.036 84.9119 630.304C85.3385 631.554 85.8177 632.706 86.3254 633.756C86.5003 634.118 86.672 634.448 86.817 634.717C86.897 634.866 86.9381 634.963 86.9546 634.991C88.0995 636.939 87.3598 639.434 85.3316 640.43C85.2628 640.464 85.0935 640.565 84.8476 640.696C84.4184 640.926 83.9254 641.18 83.3958 641.494C81.8753 642.395 80.3386 643.435 78.8731 644.584C74.5268 647.991 71.9214 651.571 71.7816 654.791C71.7442 655.651 71.8814 656.515 72.2047 657.401C74.2734 663.069 80.2898 665.473 89.0154 664.726C89.0154 664.726 92.1372 661.281 95.4723 662.774C100.309 664.937 99.9199 670.427 98.2091 672.258C94.0989 676.655 89.2413 672.7 89.2413 672.7C85.3765 673.083 82.7824 672.691 79.5387 672.032C72.4702 670.598 67.2824 666.622 64.8917 660.072C64.2179 658.225 63.9317 656.332 64.0137 654.452C64.0465 653.697 64.1461 652.969 64.2877 652.237Z" fill="#A360E7" stroke="#294064" stroke-miterlimit="10" stroke-linecap="round" stroke-linejoin="round"/>
<path d="M214.833 533.271C214.69 532.005 215.599 530.863 216.864 530.719C218.13 530.576 219.273 531.486 219.416 532.751C219.559 534.016 218.65 535.158 217.384 535.302C216.119 535.446 214.976 534.536 214.833 533.271Z" fill="#FFF2E0" stroke="#294064" stroke-miterlimit="10" stroke-linejoin="round"/>
<path d="M148.671 532.449C148.519 531.111 149.481 529.904 150.819 529.753C152.157 529.601 153.364 530.562 153.516 531.9C153.668 533.238 152.706 534.445 151.368 534.597C150.031 534.748 148.823 533.787 148.671 532.449Z" fill="#FFF2E0" stroke="#294064" stroke-miterlimit="10" stroke-linejoin="round"/>
<path d="M157.248 549.012C155.861 548.977 154.707 550.075 154.672 551.462C154.637 552.849 155.735 554.003 157.123 554.038C158.322 554.068 159.306 553.236 159.582 552.117C161.289 551.683 163.336 551.003 163.072 549.935C162.78 548.75 160.63 549.237 158.947 549.749C158.508 549.315 157.915 549.029 157.248 549.012Z" fill="#FFF2E0" stroke="#294064" stroke-miterlimit="10" stroke-linecap="round" stroke-linejoin="round"/>
<path d="M94.5478 666.594C93.4572 666.384 92.4028 667.098 92.1928 668.189C91.9828 669.279 92.6967 670.334 93.7874 670.544C94.8781 670.753 95.9325 670.04 96.1425 668.949C96.3525 667.859 95.6386 666.804 94.5478 666.594Z" fill="#FFF2E0" stroke="#294064" stroke-miterlimit="10" stroke-linejoin="round"/>
<path d="M97.7589 600.603C96.4365 600.348 95.1584 601.214 94.9038 602.536C94.6492 603.858 95.5146 605.136 96.8368 605.391C98.1591 605.645 99.4369 604.78 99.6916 603.458C99.9462 602.136 99.0811 600.857 97.7589 600.603Z" fill="#FFF2E0" stroke="#294064" stroke-miterlimit="10" stroke-linejoin="round"/>
<path d="M113.611 610.431C113.684 609.046 114.868 607.98 116.254 608.052C117.639 608.125 118.705 609.309 118.633 610.694C118.57 611.893 117.664 612.809 116.527 612.999C115.963 614.666 115.127 616.655 114.082 616.309C112.924 615.926 113.576 613.821 114.216 612.182C113.815 611.711 113.577 611.098 113.611 610.431Z" fill="#FFF2E0" stroke="#294064" stroke-miterlimit="10" stroke-linecap="round" stroke-linejoin="round"/>
<path d="M143.503 632.401C145.158 635.569 145.914 640.781 144.941 646.145" stroke="white" stroke-miterlimit="10" stroke-linecap="round" stroke-linejoin="round"/>
<path d="M144.683 649.356C144.683 649.356 143.333 655.16 142.626 657.69" stroke="white" stroke-miterlimit="10" stroke-linecap="round" stroke-linejoin="round"/>
<path d="M114.216 570.465L120.124 563.062" stroke="white" stroke-miterlimit="10" stroke-linecap="round" stroke-linejoin="round"/>
<path d="M107.255 596.243L107.892 590.165" stroke="white" stroke-miterlimit="10" stroke-linecap="round" stroke-linejoin="round"/>
<path d="M136.3 547.511L143.173 544.682" stroke="white" stroke-miterlimit="10" stroke-linecap="round" stroke-linejoin="round"/>
<path d="M137.504 542.953C135.967 540.735 133.987 543.955 132.047 545.259" stroke="white" stroke-miterlimit="10" stroke-linecap="round" stroke-linejoin="round"/>
<path d="M130.863 546.582L126.089 550.588" stroke="white" stroke-miterlimit="10" stroke-linecap="round" stroke-linejoin="round"/>
<path d="M108.921 571.743L106.742 577.67" stroke="white" stroke-miterlimit="10" stroke-linecap="round" stroke-linejoin="round"/>
<path d="M183.95 561.644C186.176 562.985 188.394 563.999 190.107 564.667" stroke="white" stroke-miterlimit="10" stroke-linecap="round" stroke-linejoin="round"/>
<path d="M215.899 510.271C212.732 505.175 207.115 504.317 204.945 504.518" stroke="white" stroke-miterlimit="10" stroke-linecap="round" stroke-linejoin="round"/>
<path d="M202.885 504.687C201.538 504.817 198.988 505.77 197.453 506.935" stroke="white" stroke-miterlimit="10" stroke-linecap="round" stroke-linejoin="round"/>
<path d="M219.029 560.744C214.093 558.189 207.404 559.19 202.095 559.32C193.39 559.532 184.554 559.837 175.903 559.206C172.554 558.961 173.856 556.358 170.635 555.234C166.678 553.852 154.266 551.127 149.979 550.043C146.143 549.072 146.514 551.635 146.021 556.328C145.188 564.262 157.072 568.343 162.948 570.298C177.469 575.128 191.946 576.925 206.25 571.33C208.257 570.545 211.674 569.902 213.242 568.377" fill="white"/>
<path d="M148.227 549.518C154.119 549.415 173.962 553.778 177.916 557.598L148.227 549.518Z" fill="white"/>
<path d="M148.227 549.518C154.119 549.415 173.962 553.778 177.916 557.598" stroke="#294064" stroke-miterlimit="10" stroke-linecap="round" stroke-linejoin="round"/>
<path d="M148.943 559.714C151.529 557.035 165.69 554.537 169.395 554.12C191.346 551.642 212.754 554.473 233.719 561.058" fill="white"/>
<path d="M148.943 559.714C151.529 557.035 165.69 554.537 169.395 554.12C191.346 551.642 212.754 554.473 233.719 561.058" stroke="#294064" stroke-miterlimit="10" stroke-linecap="round" stroke-linejoin="round"/>
<path d="M266.982 646.187C256.366 657.914 242.001 662.661 227.266 665.985C206.316 670.712 186.049 673.206 164.743 675.11C148.093 676.598 128.47 677.482 116.515 661.926C105.8 647.984 117.075 633.965 131.029 629.584C146.471 624.734 162.214 631.799 182.776 637.535" fill="#FFF2E0"/>
<path d="M266.982 646.187C256.366 657.914 242.001 662.661 227.266 665.985C206.316 670.712 186.049 673.206 164.743 675.11C148.093 676.598 128.47 677.482 116.515 661.926C105.8 647.984 117.075 633.965 131.029 629.584C146.471 624.734 162.214 631.799 182.776 637.535" stroke="#294064" stroke-miterlimit="10" stroke-linecap="round" stroke-linejoin="round"/>
<path d="M126.663 487.582C136.576 492.465 137.569 512.498 126.671 515.528C106.952 521.009 85.5021 501.294 81.4922 483.653C78.39 470.007 82.549 464.186 85.8343 454.244" fill="#FFF2E0"/>
<path d="M126.663 487.582C136.576 492.465 137.569 512.498 126.671 515.528C106.952 521.009 85.5021 501.294 81.4922 483.653C78.39 470.007 82.549 464.186 85.8343 454.244" stroke="#294064" stroke-miterlimit="10" stroke-linecap="round" stroke-linejoin="round"/>
<path d="M102.461 437.295C102.164 436.58 130.918 462.532 126.65 468.651C134.282 479.967 127.631 503.34 112.229 499.073C101.98 496.234 94.9397 486.438 87.2544 479.087C63.2976 456.172 68.7074 441.07 82.1788 420.438" fill="#FFF2E0"/>
<path d="M102.461 437.295C102.164 436.58 130.918 462.532 126.65 468.651C134.282 479.967 127.631 503.34 112.229 499.073C101.98 496.234 94.9397 486.437 87.2544 479.087C63.2976 456.172 68.7074 441.07 82.1788 420.438" stroke="#294064" stroke-miterlimit="10" stroke-linecap="round" stroke-linejoin="round"/>
<path d="M120.441 425.741C132.792 438.994 134.562 472.621 119.368 474.986C106.337 477.016 96.394 458.543 89.4537 450.559C72.6364 431.214 45.0255 397.307 87.9742 375.95" fill="#FFF2E0"/>
<path d="M120.441 425.741C132.792 438.994 134.562 472.621 119.368 474.986C106.337 477.016 96.394 458.543 89.4537 450.559C72.6364 431.214 45.0255 397.307 87.9742 375.95" stroke="#294064" stroke-miterlimit="10" stroke-linecap="round" stroke-linejoin="round"/>
<path d="M117.791 372.511C125.831 384.534 135.95 400.719 132.023 415.059C125.417 439.184 110.081 431.773 101.12 417.749C96.4268 410.405 86.1357 391.974 83.3872 385.388C75.6482 366.843 103.385 346.123 123.689 348.136C140.934 349.845 154.145 369.726 164.721 387.241" fill="#FFF2E0"/>
<path d="M117.791 372.511C125.831 384.534 135.95 400.719 132.023 415.059C125.417 439.184 110.081 431.773 101.12 417.749C96.4268 410.405 86.1357 391.974 83.3872 385.388C75.6482 366.843 103.385 346.123 123.689 348.136C140.934 349.845 154.145 369.726 164.721 387.241" stroke="#294064" stroke-miterlimit="10" stroke-linecap="round" stroke-linejoin="round"/>
<path d="M123.615 381.092C123.167 377.676 124.762 373.922 125.766 370.7L123.615 381.092Z" fill="#FFF2E0"/>
<path d="M123.615 381.092C123.167 377.676 124.762 373.922 125.766 370.7" stroke="#294064" stroke-miterlimit="10" stroke-linecap="round" stroke-linejoin="round"/>
<path d="M98.5076 412.24C103.333 389.959 130.344 410.602 121.041 426.957L98.5076 412.24Z" fill="#FFF2E0"/>
<path d="M98.5076 412.24C103.333 389.959 130.344 410.602 121.041 426.957" stroke="#294064" stroke-miterlimit="10" stroke-linecap="round" stroke-linejoin="round"/>
<path d="M95.3325 458.243C95.097 451.262 103.45 446.895 108.844 449.775C115.576 453.368 120.671 462.191 120.886 469.788" fill="#FFF2E0"/>
<path d="M95.3325 458.243C95.097 451.262 103.45 446.895 108.844 449.775C115.576 453.368 120.671 462.191 120.886 469.788" stroke="#294064" stroke-miterlimit="10" stroke-linecap="round" stroke-linejoin="round"/>
<path d="M95.0483 487.117C95.0483 487.117 95.2173 476.705 100.912 475.043C108.365 472.865 122.463 484.689 120.244 492.331" fill="#FFF2E0"/>
<path d="M95.0483 487.117C95.0483 487.117 95.2173 476.705 100.912 475.043C108.365 472.865 122.463 484.689 120.244 492.331" stroke="#294064" stroke-miterlimit="10" stroke-linecap="round" stroke-linejoin="round"/>
<path d="M107.905 513.381C98.1697 494.984 129.595 497.459 131.084 507.074L107.905 513.381Z" fill="#FFF2E0"/>
<path d="M107.905 513.381C98.1697 494.984 129.595 497.459 131.084 507.074" stroke="#294064" stroke-miterlimit="10" stroke-linecap="round" stroke-linejoin="round"/>
<path d="M113.395 653.441C113.395 653.441 119.565 653.261 127.938 658.474C133.635 662.021 141.107 667.793 146.032 672.233" fill="#FFF2E0"/>
<path d="M113.395 653.441C113.395 653.441 119.565 653.261 127.938 658.474C133.635 662.021 141.107 667.793 146.032 672.233" stroke="#294064" stroke-miterlimit="10" stroke-linecap="round" stroke-linejoin="round"/>
<path d="M119.423 554.556C118.362 555.47 118.243 557.07 119.157 558.131L124.106 563.875C125.02 564.936 126.62 565.055 127.68 564.141L142.746 551.16C143.806 550.246 143.925 548.647 143.011 547.586L138.063 541.841C137.149 540.781 135.549 540.662 134.488 541.576L119.423 554.556ZM124.755 558.46C123.842 557.399 123.961 555.799 125.021 554.886L133.816 547.308C134.876 546.394 136.476 546.513 137.39 547.574C138.303 548.634 138.184 550.235 137.124 551.148L128.329 558.726C127.269 559.639 125.669 559.52 124.755 558.46Z" fill="#621399" stroke="#294064" stroke-miterlimit="10" stroke-linejoin="round"/>
<path d="M134.219 549.082C133.814 548.098 134.282 546.972 135.266 546.566L152.304 539.542C153.288 539.136 154.414 539.605 154.819 540.589L155.32 541.801C155.725 542.784 155.256 543.91 154.273 544.316L137.234 551.34C136.25 551.746 135.124 551.277 134.719 550.293L134.219 549.082Z" fill="#A360E7" stroke="#294064" stroke-miterlimit="10" stroke-linejoin="round"/>
<path d="M102.525 585.147C102.043 586.46 102.717 587.916 104.031 588.399L111.15 591.01C112.464 591.492 113.92 590.818 114.403 589.504L121.251 570.834C121.733 569.52 121.059 568.064 119.744 567.582L112.626 564.97C111.312 564.488 109.856 565.163 109.374 566.477L102.525 585.147ZM109.083 585.963C107.769 585.481 107.094 584.025 107.576 582.711L111.575 571.812C112.057 570.498 113.512 569.824 114.827 570.306C116.141 570.788 116.815 572.244 116.333 573.558L112.335 584.456C111.853 585.771 110.397 586.445 109.083 585.963Z" fill="#621399" stroke="#294064" stroke-miterlimit="10" stroke-linejoin="round"/>
<path d="M112.792 573.167C111.959 572.505 111.821 571.293 112.483 570.46L123.954 556.036C124.616 555.203 125.827 555.064 126.66 555.727L127.686 556.543C128.519 557.205 128.658 558.417 127.995 559.25L116.525 573.674C115.863 574.507 114.651 574.646 113.818 573.983L112.792 573.167Z" fill="#A360E7" stroke="#294064" stroke-miterlimit="10" stroke-linejoin="round"/>
<path d="M106.932 605.809C105.874 605.697 105.107 604.749 105.218 603.691L107.15 585.364C107.261 584.305 108.21 583.538 109.267 583.649L110.572 583.787C111.63 583.899 112.397 584.846 112.285 585.905L110.354 604.232C110.242 605.29 109.294 606.058 108.235 605.946L106.932 605.809Z" fill="#A360E7" stroke="#294064" stroke-miterlimit="10" stroke-linejoin="round"/>
<path d="M91.542 603.407C89.2606 603.761 87.0405 604.652 84.9482 606.116C81.6331 608.434 79.3663 611.423 78.1058 614.88C76.2199 620.052 76.7005 625.73 78.6765 631.521C78.9957 632.456 79.3757 633.276 79.7387 634.128C78.2195 635.066 76.6852 636.043 75.2069 637.202C69.9903 641.291 66.4021 645.85 65.4108 650.969C65.2692 651.7 65.1836 652.425 65.1508 653.179C65.0689 655.059 65.3394 656.949 66.0133 658.795C68.404 665.346 73.6011 669.316 80.6696 670.75C85.5275 671.735 91.2241 671.446 97.3337 670.197C95.1973 669.244 93.5473 667.315 93.2622 664.826C93.1923 664.216 93.3188 663.645 93.4056 663.066C82.9109 664.748 75.6557 662.476 73.3359 656.12C73.0127 655.234 72.878 654.376 72.9154 653.517C73.0554 650.297 75.6449 646.718 79.9912 643.312C81.4568 642.163 82.9996 641.118 84.5201 640.218C85.0498 639.903 85.5392 639.645 85.9684 639.416C86.2142 639.284 86.3969 639.187 86.4658 639.154C88.4939 638.157 89.2358 635.662 88.0909 633.713C88.0744 633.686 88.0264 633.594 87.9465 633.446C87.8012 633.177 87.6228 632.851 87.448 632.489C86.9402 631.438 86.4739 630.274 86.0472 629.024C84.5911 624.756 84.2313 620.75 85.4006 617.543C86.1158 615.582 87.4139 613.884 89.4202 612.48C91.7536 610.848 94.5385 610.761 97.583 611.909C97.702 609.334 99.0277 606.763 102.118 605.629C102.223 605.591 102.316 605.596 102.418 605.563C98.7357 603.704 95.0564 602.864 91.542 603.407Z" fill="#621399" stroke="#294064" stroke-miterlimit="10" stroke-linecap="round" stroke-linejoin="round"/>
<path d="M127.221 621.501C126.31 621.594 125.417 621.766 124.527 621.998C123.002 622.396 121.583 623.042 120.212 623.798C120.212 623.798 115.59 626.623 116.823 629.467C119.01 634.51 122.095 631.883 122.095 631.883C123.512 630.817 124.964 629.931 126.49 629.534C128.51 629.006 130.628 629.099 132.923 629.951C139.423 632.365 140.35 641.816 135.695 655.269C133.665 661.136 130.729 667.101 127.645 671.787C124.986 675.825 122.456 678.396 121.715 678.549C121.295 678.636 120.197 678.523 118.69 678.104C116.921 677.612 114.78 676.778 112.461 675.648C107.454 673.211 102.077 669.676 97.5662 665.777C97.4632 665.689 97.3985 665.597 97.2973 665.509C95.7109 666.063 93.9203 666.069 92.2662 665.33C91.7968 665.121 91.4339 664.8 91.0435 664.505C89.9241 665.511 88.5321 666.167 87.0387 666.299C88.6855 668.119 90.4741 669.919 92.4946 671.664C102.965 680.712 116.88 687.493 123.278 686.166C129.548 684.867 138.229 671.68 143.031 657.803C145.594 650.397 146.796 643.455 146.225 637.668C145.511 630.415 142.01 625.02 135.627 622.65C132.783 621.594 129.954 621.225 127.221 621.501Z" fill="#621399" stroke="#294064" stroke-miterlimit="10" stroke-linecap="round" stroke-linejoin="round"/>
<path d="M128 622.952C127.089 623.045 126.195 623.217 125.305 623.449C123.782 623.847 122.362 624.493 120.991 625.249C120.991 625.249 116.374 628.088 117.607 630.932C119.794 635.974 122.874 633.334 122.874 633.334C124.291 632.268 125.743 631.382 127.269 630.984C129.289 630.457 131.407 630.55 133.702 631.402C140.201 633.816 141.129 643.268 136.474 656.721C134.444 662.587 131.509 668.553 128.423 673.238C125.765 677.276 123.234 679.847 122.494 680C122.073 680.087 120.976 679.974 119.469 679.555C117.7 679.063 115.559 678.229 113.24 677.1C108.233 674.662 102.856 671.127 98.3457 667.229C96.7095 665.815 95.2991 664.409 93.9971 663.016C93.8102 663.299 93.6677 663.612 93.4453 663.867C92.3667 666.175 90.1755 667.542 87.8177 667.75C89.4646 669.57 91.2531 671.369 93.2736 673.115C103.744 682.163 117.659 688.943 124.057 687.617C130.328 686.318 139.009 673.131 143.811 659.253C146.374 651.848 147.574 644.906 147.005 639.119C146.29 631.865 142.789 626.472 136.406 624.102C133.562 623.045 130.733 622.677 128 622.952Z" fill="#A360E7" stroke="#294064" stroke-miterlimit="10" stroke-linecap="round" stroke-linejoin="round"/>
<path d="M64.2877 652.235C65.2789 647.117 68.8565 642.574 74.073 638.485C75.5514 637.326 77.0967 636.338 78.6158 635.399C78.2528 634.546 77.8666 633.732 77.5474 632.797C75.5713 627.006 75.0878 621.315 76.9736 616.143C78.2341 612.686 80.5095 609.705 83.8245 607.388C84.0802 607.208 84.3544 607.089 84.6135 606.927L84.597 606.903C90.4373 603.371 88.6752 594.5 97.4522 595.823C106.861 597.242 118.074 602.584 122.008 606.038C125.787 609.357 120.782 622.45 115.966 621.605C110.44 620.635 101.042 614.387 95.1768 612.733C94.3185 612.491 93.9669 612.478 93.383 612.431C92.6959 612.429 92.008 612.431 91.3084 612.535C90.2377 612.719 89.22 613.102 88.2851 613.756C86.2788 615.159 84.9965 616.847 84.2812 618.808C83.112 622.015 83.4557 626.035 84.9119 630.302C85.3385 631.552 85.8177 632.704 86.3254 633.755C86.5003 634.117 86.672 634.446 86.817 634.715C86.897 634.864 86.9381 634.961 86.9546 634.989C88.0995 636.937 87.3598 639.432 85.3316 640.428C85.2628 640.462 85.0935 640.563 84.8476 640.694C84.4184 640.924 83.9254 641.178 83.3958 641.492C81.8753 642.393 80.3386 643.433 78.8731 644.582C74.5268 647.989 71.9214 651.569 71.7816 654.789C71.7442 655.649 71.8814 656.513 72.2047 657.399C74.2734 663.067 80.2898 665.471 89.0154 664.724C89.0154 664.724 92.1372 661.279 95.4723 662.772C100.309 664.935 99.9199 670.425 98.2091 672.256C94.0989 676.654 89.2413 672.698 89.2413 672.698C85.3765 673.081 82.7824 672.689 79.5387 672.03C72.4702 670.597 67.2824 666.62 64.8917 660.07C64.2179 658.223 63.9317 656.33 64.0137 654.45C64.0465 653.695 64.1461 652.967 64.2877 652.235Z" fill="#A360E7" stroke="#294064" stroke-miterlimit="10" stroke-linecap="round" stroke-linejoin="round"/>
<path d="M94.5478 666.594C93.4572 666.384 92.4028 667.098 92.1928 668.189C91.9828 669.279 92.6967 670.334 93.7874 670.544C94.8781 670.753 95.9325 670.04 96.1425 668.949C96.3525 667.859 95.6386 666.804 94.5478 666.594Z" fill="#FFF2E0" stroke="#294064" stroke-miterlimit="10" stroke-linejoin="round"/>
<path d="M97.7589 600.603C96.4365 600.348 95.1584 601.214 94.9038 602.536C94.6492 603.858 95.5146 605.136 96.8368 605.391C98.1591 605.645 99.4369 604.78 99.6916 603.458C99.9462 602.136 99.0811 600.857 97.7589 600.603Z" fill="#FFF2E0" stroke="#294064" stroke-miterlimit="10" stroke-linejoin="round"/>
<path d="M113.611 610.431C113.684 609.046 114.868 607.98 116.254 608.052C117.639 608.125 118.705 609.309 118.633 610.694C118.57 611.893 117.664 612.809 116.527 612.999C115.963 614.666 115.127 616.655 114.082 616.309C112.924 615.926 113.576 613.821 114.216 612.182C113.815 611.711 113.577 611.098 113.611 610.431Z" fill="#FFF2E0" stroke="#294064" stroke-miterlimit="10" stroke-linecap="round" stroke-linejoin="round"/>
<path d="M143.503 632.401C145.158 635.569 145.914 640.781 144.941 646.145" stroke="white" stroke-miterlimit="10" stroke-linecap="round" stroke-linejoin="round"/>
<path d="M144.683 649.354C144.683 649.354 143.333 655.158 142.626 657.689" stroke="white" stroke-miterlimit="10" stroke-linecap="round" stroke-linejoin="round"/>
<path d="M114.216 570.464L120.124 563.062" stroke="white" stroke-miterlimit="10" stroke-linecap="round" stroke-linejoin="round"/>
<path d="M107.255 596.242L107.892 590.165" stroke="white" stroke-miterlimit="10" stroke-linecap="round" stroke-linejoin="round"/>
<path d="M136.3 547.509L143.173 544.68" stroke="white" stroke-miterlimit="10" stroke-linecap="round" stroke-linejoin="round"/>
<path d="M137.504 542.951C135.967 540.732 133.987 543.953 132.047 545.257" stroke="white" stroke-miterlimit="10" stroke-linecap="round" stroke-linejoin="round"/>
<path d="M130.863 546.582L126.089 550.587" stroke="white" stroke-miterlimit="10" stroke-linecap="round" stroke-linejoin="round"/>
<path d="M108.921 571.741L106.742 577.667" stroke="white" stroke-miterlimit="10" stroke-linecap="round" stroke-linejoin="round"/>
</g>
</g>
<defs>
<radialGradient id="paint0_radial_1232_4891" cx="0" cy="0" r="1" gradientUnits="userSpaceOnUse" gradientTransform="translate(831 888) rotate(118.185) scale(847.513 524.456)">
<stop stop-color="#E7012A"/>
<stop offset="1" stop-color="#5815A3"/>
</radialGradient>
<clipPath id="clip0_1232_4891">
<path d="M0 0H414V841C414 852.046 405.046 861 394 861H20C8.95432 861 0 852.046 0 841V0Z" fill="white"/>
</clipPath>
<clipPath id="clip1_1232_4891">
<path d="M0 0H414V841C414 852.046 405.046 861 394 861H20C8.95432 861 0 852.046 0 841V0Z" fill="white"/>
</clipPath>
<clipPath id="clip2_1232_4891">
<rect width="107" height="25" fill="white" transform="translate(234 709)"/>
</clipPath>
</defs>
</svg>
