<svg width="414" height="861" viewBox="0 0 414 861" fill="none" xmlns="http://www.w3.org/2000/svg">
<g clip-path="url(#clip0_1177_2508)">
<path d="M0 0H414V841C414 852.046 405.046 861 394 861H20C8.95432 861 0 852.046 0 841V0Z" fill="#EF6A82"/>
<rect x="415" y="888" width="416" height="888" transform="rotate(-180 415 888)" fill="url(#paint0_radial_1177_2508)"/>
<path fill-rule="evenodd" clip-rule="evenodd" d="M99.1203 733.449L93.3983 746.397H91.0034V733.449H71.7939L71.7947 733.449C68.5919 733.474 65.031 734.102 62.246 736.49C59.2494 739.058 58.2169 742.719 58.2169 746.478C58.2169 750.237 59.2469 753.91 62.2674 756.47C65.1196 758.888 68.7734 759.463 71.9946 759.463C72.0472 759.463 72.1039 759.463 72.1039 759.463C72.1049 759.463 72.1049 759.463 72.1057 759.463C72.1049 759.463 72.1053 759.463 72.1057 759.463L87.6907 759.459H101.955L103.799 755.301H105.198L107.034 759.459H126.071V756.025C126.229 756.177 126.393 756.326 126.564 756.47C129.416 758.888 133.07 759.463 136.292 759.463C136.44 759.463 136.588 759.461 136.737 759.459H167.566V733.449H99.1203Z" fill="#E1012E"/>
<path fill-rule="evenodd" clip-rule="evenodd" d="M99.1566 733.175L93.3991 746.393H90.9894V733.175H71.661L71.6618 733.176C68.4392 733.201 64.8563 733.842 62.054 736.279C59.0389 738.902 58 742.638 58 746.476C58 750.313 59.0363 754.063 62.0756 756.677C64.9454 759.145 68.6218 759.732 71.863 759.732C71.9159 759.732 71.9729 759.732 71.9729 759.732C71.974 759.732 71.974 759.732 71.9747 759.732C71.974 759.732 71.9743 759.732 71.9747 759.732L87.6562 759.728H102.008L103.864 755.483H105.272L107.12 759.728H126.274V756.222C126.433 756.377 126.598 756.529 126.77 756.677C129.64 759.145 133.317 759.732 136.558 759.732C136.707 759.732 136.856 759.73 137.006 759.728H168.026V733.175H99.1566ZM80.0375 749.538C80.0342 749.557 80.0305 749.575 80.0269 749.594C80.0192 749.636 80.0115 749.678 80.0031 749.719C79.9984 749.742 79.9933 749.764 79.9885 749.787C79.9809 749.824 79.9732 749.86 79.9652 749.896C79.9597 749.921 79.9535 749.946 79.9476 749.97C79.9396 750.003 79.9319 750.036 79.9235 750.069C79.9155 750.1 79.9075 750.131 79.8991 750.161C79.8929 750.185 79.8867 750.208 79.8801 750.231C79.8713 750.263 79.8618 750.293 79.8527 750.324C79.8461 750.346 79.8399 750.369 79.833 750.391C79.8231 750.422 79.8125 750.454 79.8023 750.486C79.7957 750.506 79.7892 750.527 79.7822 750.547C79.7705 750.581 79.7585 750.615 79.7461 750.649C79.7402 750.666 79.7344 750.683 79.7282 750.7C79.7096 750.75 79.6906 750.799 79.6708 750.848C79.6665 750.86 79.6617 750.87 79.657 750.881C79.6416 750.919 79.6259 750.957 79.6099 750.994C79.6015 751.013 79.5923 751.033 79.5839 751.052C79.5712 751.08 79.5587 751.109 79.5456 751.137C79.5357 751.158 79.5255 751.178 79.5153 751.199C79.5029 751.225 79.4905 751.251 79.4777 751.276C79.4667 751.297 79.4558 751.318 79.4444 751.339C79.4317 751.363 79.4192 751.388 79.4065 751.412C79.3948 751.433 79.3827 751.454 79.3707 751.476C79.3579 751.499 79.3451 751.522 79.3316 751.545C79.3192 751.566 79.3064 751.587 79.2936 751.608C79.2801 751.63 79.267 751.652 79.2535 751.674C79.2403 751.695 79.2272 751.715 79.2137 751.736C79.1998 751.757 79.1859 751.779 79.172 751.8C79.1582 751.821 79.1443 751.841 79.1304 751.861C79.1162 751.882 79.1019 751.903 79.0873 751.923C79.0731 751.943 79.0581 751.963 79.0435 751.983C79.0285 752.003 79.0139 752.023 78.9989 752.043C78.984 752.063 78.9686 752.082 78.9533 752.102C78.938 752.121 78.9226 752.141 78.9069 752.16C78.8912 752.179 78.8755 752.198 78.8595 752.217C78.8438 752.236 78.8277 752.255 78.8116 752.273C78.7952 752.292 78.7788 752.311 78.7623 752.329C78.7459 752.348 78.7295 752.366 78.7127 752.384C78.6959 752.402 78.6787 752.421 78.6615 752.439C78.6447 752.456 78.6276 752.474 78.6104 752.491C78.5929 752.509 78.5754 752.527 78.5578 752.544C78.5403 752.562 78.5228 752.579 78.5049 752.596C78.487 752.613 78.4687 752.63 78.4505 752.647C78.4322 752.664 78.414 752.681 78.3957 752.697C78.3771 752.714 78.3585 752.731 78.3398 752.747C78.3212 752.763 78.3022 752.78 78.2829 752.796C78.2639 752.812 78.2449 752.828 78.2255 752.844C78.2062 752.86 78.1865 752.876 78.1664 752.891C78.147 752.907 78.1273 752.922 78.1076 752.938C78.0875 752.953 78.0667 752.969 78.0462 752.984C78.0265 752.999 78.0064 753.014 77.9864 753.029C77.9655 753.044 77.944 753.059 77.9228 753.074C77.9024 753.088 77.8823 753.102 77.8618 753.117C77.8399 753.132 77.8176 753.146 77.7954 753.161C77.7749 753.174 77.7545 753.188 77.734 753.201C77.711 753.216 77.6877 753.231 77.6639 753.245C77.6435 753.258 77.623 753.271 77.6026 753.283C77.5781 753.298 77.5529 753.312 77.5281 753.327C77.508 753.339 77.4883 753.351 77.4678 753.362C77.4408 753.377 77.4131 753.392 77.3857 753.407C77.2294 753.493 77.0669 753.573 76.8978 753.648C75.6019 754.22 73.9228 754.478 71.8622 754.478C66.6131 754.478 63.5256 752.563 63.2696 747.217C63.258 746.977 63.2525 746.73 63.2525 746.475C63.2525 746.189 63.2598 745.912 63.2744 745.643C63.5614 740.381 66.6434 738.427 71.8622 738.427C73.906 738.427 75.5814 738.681 76.8752 739.248C77.061 739.329 77.2385 739.418 77.4083 739.512C77.4309 739.525 77.454 739.537 77.4766 739.55C77.5018 739.564 77.5266 739.579 77.5515 739.594C77.5734 739.607 77.5953 739.62 77.6168 739.633C77.6416 739.648 77.6661 739.664 77.6906 739.68C77.7114 739.693 77.7326 739.706 77.7534 739.72C77.7775 739.735 77.8009 739.751 77.8242 739.767C77.8447 739.781 77.8659 739.795 77.8859 739.809C77.9097 739.825 77.9327 739.843 77.956 739.859C77.9758 739.874 77.9955 739.888 78.0148 739.902C78.0382 739.919 78.0608 739.937 78.0839 739.955C78.1025 739.969 78.1215 739.983 78.1401 739.998C78.1624 740.016 78.1843 740.034 78.2065 740.052C78.2248 740.067 78.2434 740.082 78.2617 740.098C78.2829 740.115 78.3037 740.134 78.3249 740.153C78.3431 740.169 78.3617 740.184 78.3796 740.201C78.4001 740.219 78.4198 740.238 78.4399 740.256C78.4578 740.273 78.476 740.29 78.4936 740.306C78.5133 740.325 78.5323 740.345 78.5516 740.364C78.5688 740.381 78.5863 740.398 78.6035 740.416C78.6221 740.435 78.64 740.455 78.6583 740.474C78.6754 740.492 78.6929 740.51 78.7097 740.529C78.7273 740.548 78.7444 740.568 78.762 740.588C78.7788 740.607 78.7955 740.626 78.812 740.645C78.8288 740.665 78.8452 740.685 78.8616 740.706C78.8777 740.725 78.8945 740.745 78.9102 740.765C78.9263 740.785 78.942 740.806 78.9577 740.826C78.9734 740.847 78.9895 740.867 79.0048 740.888C79.0205 740.909 79.0351 740.93 79.0504 740.952C79.0654 740.973 79.0807 740.993 79.0953 741.015C79.1096 741.035 79.1231 741.056 79.137 741.078C79.1519 741.1 79.1673 741.123 79.1823 741.146C79.1954 741.166 79.2075 741.186 79.2202 741.207C79.2352 741.231 79.2505 741.255 79.2651 741.28C79.2776 741.3 79.2892 741.322 79.3017 741.343C79.3159 741.368 79.3305 741.392 79.3444 741.417C79.3561 741.438 79.3674 741.46 79.3787 741.481C79.3926 741.507 79.4065 741.532 79.4196 741.558C79.4306 741.58 79.4412 741.602 79.4517 741.623C79.4649 741.65 79.4784 741.676 79.4912 741.703C79.5014 741.725 79.5113 741.747 79.5215 741.769C79.5339 741.796 79.5467 741.823 79.5591 741.851C79.5686 741.873 79.5777 741.896 79.5872 741.918C79.5993 741.946 79.6113 741.974 79.623 742.003C79.6321 742.026 79.6409 742.05 79.65 742.073C79.661 742.102 79.6723 742.13 79.6829 742.159C79.6917 742.183 79.6997 742.207 79.7081 742.231C79.7183 742.26 79.7289 742.289 79.7388 742.318C79.7468 742.343 79.7541 742.367 79.7621 742.391C79.7716 742.421 79.7815 742.451 79.791 742.482C79.7986 742.507 79.8056 742.532 79.8129 742.558C79.8217 742.588 79.8308 742.618 79.8392 742.649C79.8465 742.676 79.8531 742.703 79.8604 742.73C79.868 742.76 79.8761 742.789 79.8834 742.819C79.8903 742.848 79.8965 742.877 79.9031 742.905C79.91 742.935 79.917 742.964 79.9235 742.994C79.9305 743.026 79.9367 743.058 79.9433 743.091C79.9487 743.118 79.9546 743.145 79.9601 743.173C79.9604 743.175 79.9611 743.178 79.9615 743.181C79.9714 743.232 79.9805 743.285 79.9893 743.338C79.9918 743.354 79.9944 743.37 79.9973 743.386C80.0039 743.428 80.0104 743.47 80.0166 743.512C80.0188 743.528 80.0214 743.544 80.0236 743.56C80.0316 743.617 80.0389 743.674 80.0459 743.732H76.8763C76.4717 741.507 74.8306 740.878 71.8633 740.878C68.559 740.878 66.4232 741.979 66.4232 745.643V747.217C66.4232 750.814 68.5137 752.027 71.8633 752.027C74.7182 752.027 76.3818 751.488 76.8989 749.352H80.0685C80.059 749.415 80.0488 749.476 80.0378 749.537L80.0375 749.538ZM95.2223 754.209H83.86H82.5888V738.698H85.7362V751.646H95.2227V754.209H95.2223ZM112.62 754.209H110.446L108.715 750.23H100.421L98.6899 754.209H95.7226L99.1777 746.393L102.579 738.698H106.895L112.62 751.693L113.729 754.21H112.62L112.62 754.209ZM127.359 741.261H123.473H121.02V754.209H117.874V741.261H111.534V738.698H127.36V741.261H127.359ZM144.697 749.726C144.696 749.73 144.695 749.733 144.695 749.737C144.683 749.793 144.671 749.849 144.659 749.904C144.657 749.913 144.655 749.921 144.652 749.93C144.641 749.98 144.629 750.029 144.617 750.077C144.612 750.095 144.607 750.111 144.603 750.128C144.594 750.165 144.584 750.201 144.573 750.237C144.568 750.257 144.562 750.276 144.557 750.295C144.547 750.328 144.537 750.362 144.527 750.395C144.52 750.417 144.513 750.438 144.506 750.46C144.496 750.49 144.487 750.52 144.477 750.55C144.468 750.576 144.458 750.601 144.449 750.627C144.441 750.652 144.432 750.677 144.423 750.701C144.405 750.751 144.386 750.8 144.366 750.849C144.363 750.857 144.359 750.865 144.357 750.873C144.34 750.914 144.323 750.955 144.305 750.996C144.299 751.01 144.292 751.024 144.286 751.038C144.271 751.072 144.256 751.106 144.24 751.139C144.233 751.155 144.225 751.171 144.217 751.188C144.202 751.218 144.187 751.248 144.173 751.278C144.164 751.296 144.155 751.313 144.145 751.33C144.131 751.358 144.116 751.386 144.101 751.415C144.091 751.432 144.081 751.45 144.071 751.468C144.056 751.494 144.041 751.521 144.026 751.547C144.016 751.565 144.005 751.583 143.994 751.601C143.979 751.626 143.964 751.652 143.948 751.676C143.937 751.695 143.925 751.713 143.913 751.731C143.898 751.755 143.882 751.779 143.867 751.802C143.854 751.821 143.842 751.839 143.829 751.857C143.813 751.88 143.797 751.903 143.781 751.925C143.768 751.944 143.755 751.962 143.742 751.98C143.726 752.002 143.709 752.024 143.693 752.045C143.679 752.063 143.665 752.082 143.651 752.1C143.634 752.121 143.618 752.141 143.601 752.162C143.586 752.18 143.571 752.198 143.556 752.216C143.54 752.236 143.523 752.256 143.506 752.275C143.491 752.293 143.475 752.311 143.459 752.329C143.442 752.348 143.425 752.366 143.408 752.385C143.391 752.403 143.374 752.421 143.357 752.439C143.341 752.457 143.324 752.474 143.306 752.492C143.289 752.51 143.271 752.528 143.253 752.545C143.236 752.562 143.219 752.579 143.201 752.596C143.183 752.614 143.164 752.631 143.145 752.649C143.128 752.665 143.11 752.681 143.093 752.696C143.073 752.714 143.054 752.732 143.034 752.749C143.016 752.764 142.999 752.779 142.981 752.794C142.961 752.811 142.94 752.829 142.919 752.846C142.901 752.86 142.884 752.875 142.866 752.888C142.845 752.906 142.823 752.923 142.801 752.94C142.784 752.953 142.766 752.967 142.748 752.98C142.725 752.997 142.703 753.014 142.679 753.031C142.662 753.043 142.645 753.056 142.628 753.068C142.603 753.085 142.579 753.102 142.554 753.119C142.538 753.13 142.521 753.141 142.503 753.153C142.478 753.17 142.452 753.187 142.426 753.204C142.41 753.214 142.393 753.224 142.377 753.234C142.349 753.251 142.322 753.269 142.294 753.285C142.279 753.294 142.264 753.303 142.248 753.312C142.219 753.33 142.189 753.347 142.159 753.365C142.147 753.371 142.134 753.378 142.121 753.385C141.952 753.479 141.776 753.567 141.593 753.648C140.297 754.22 138.618 754.478 136.557 754.478C131.308 754.478 128.221 752.564 127.965 747.217C127.954 746.977 127.948 746.73 127.948 746.476C127.948 746.14 127.958 745.816 127.978 745.504C127.979 745.485 127.981 745.466 127.982 745.447C127.985 745.401 127.989 745.354 127.993 745.308C127.995 745.282 127.997 745.257 127.999 745.231C128.002 745.187 128.006 745.143 128.011 745.099C128.013 745.073 128.016 745.047 128.019 745.02C128.023 744.977 128.028 744.934 128.033 744.891C128.035 744.869 128.038 744.847 128.041 744.825C128.05 744.745 128.061 744.666 128.071 744.587C128.075 744.56 128.079 744.533 128.083 744.506C128.088 744.468 128.094 744.431 128.1 744.393C128.105 744.364 128.11 744.334 128.115 744.305C128.121 744.269 128.127 744.233 128.133 744.197C128.139 744.167 128.144 744.136 128.15 744.106C128.157 744.072 128.163 744.038 128.169 744.004C128.176 743.969 128.184 743.935 128.191 743.901C128.201 743.852 128.212 743.803 128.223 743.754C128.231 743.717 128.24 743.679 128.249 743.641C128.256 743.612 128.263 743.583 128.27 743.554C128.279 743.521 128.287 743.488 128.296 743.456C128.303 743.427 128.311 743.398 128.319 743.37C128.328 743.337 128.337 743.304 128.347 743.271C128.354 743.244 128.362 743.217 128.37 743.191C128.382 743.151 128.394 743.112 128.406 743.074C128.413 743.054 128.419 743.033 128.425 743.013C128.443 742.959 128.461 742.905 128.48 742.852C128.487 742.83 128.495 742.809 128.503 742.787C128.515 742.752 128.528 742.716 128.541 742.682C128.55 742.659 128.559 742.637 128.567 742.614C128.581 742.58 128.594 742.546 128.608 742.512C128.616 742.491 128.625 742.47 128.633 742.45C128.65 742.409 128.667 742.368 128.685 742.328C128.69 742.316 128.696 742.303 128.701 742.29C128.725 742.238 128.748 742.186 128.773 742.135C128.78 742.121 128.787 742.106 128.794 742.092C128.812 742.054 128.831 742.017 128.849 741.981C128.858 741.963 128.867 741.946 128.876 741.929C128.894 741.894 128.912 741.86 128.931 741.826C128.94 741.81 128.948 741.794 128.957 741.778C128.98 741.739 129.002 741.699 129.025 741.66C129.03 741.651 129.035 741.642 129.041 741.633C129.069 741.585 129.099 741.537 129.129 741.489C129.134 741.481 129.139 741.473 129.144 741.465C129.169 741.427 129.194 741.388 129.22 741.35C129.229 741.337 129.237 741.324 129.246 741.312C129.27 741.276 129.295 741.241 129.32 741.206C129.326 741.197 129.332 741.188 129.339 741.179C129.371 741.135 129.404 741.091 129.436 741.048C129.438 741.047 129.439 741.045 129.44 741.044C129.471 741.003 129.503 740.964 129.535 740.925C129.543 740.914 129.551 740.904 129.56 740.894C129.588 740.86 129.617 740.826 129.646 740.793C129.652 740.786 129.658 740.779 129.664 740.772C129.698 740.733 129.733 740.693 129.769 740.655C129.776 740.647 129.784 740.639 129.791 740.632C129.82 740.601 129.849 740.57 129.879 740.54C129.889 740.53 129.899 740.52 129.909 740.511C129.944 740.475 129.981 740.439 130.017 740.404C130.019 740.403 130.019 740.402 130.02 740.401C130.058 740.366 130.097 740.33 130.136 740.295C130.146 740.286 130.156 740.277 130.166 740.268C130.197 740.241 130.228 740.214 130.26 740.188C130.269 740.18 130.279 740.172 130.288 740.164C130.328 740.13 130.369 740.098 130.41 740.065C130.416 740.06 130.423 740.055 130.429 740.05C130.464 740.023 130.499 739.996 130.535 739.97C130.547 739.961 130.559 739.952 130.571 739.943C130.606 739.917 130.643 739.891 130.679 739.866C130.686 739.861 130.693 739.856 130.699 739.851C130.742 739.822 130.786 739.793 130.83 739.764C130.84 739.756 130.851 739.75 130.862 739.743C130.897 739.72 130.932 739.698 130.967 739.676C130.98 739.669 130.992 739.661 131.004 739.654C131.049 739.626 131.095 739.599 131.141 739.573C131.144 739.571 131.146 739.57 131.15 739.568C131.193 739.543 131.237 739.519 131.281 739.495C131.294 739.488 131.308 739.481 131.322 739.473C131.359 739.454 131.396 739.434 131.434 739.415C131.445 739.409 131.457 739.403 131.468 739.398C131.516 739.374 131.564 739.35 131.612 739.327C131.624 739.322 131.636 739.316 131.647 739.311C131.686 739.293 131.725 739.276 131.763 739.258C131.779 739.251 131.794 739.245 131.81 739.238C131.853 739.219 131.896 739.201 131.94 739.182C131.948 739.179 131.955 739.176 131.963 739.173C132.013 739.152 132.063 739.132 132.115 739.113C132.131 739.107 132.147 739.101 132.163 739.094C132.201 739.08 132.239 739.066 132.278 739.052C132.294 739.047 132.311 739.04 132.327 739.035C132.379 739.016 132.431 738.999 132.483 738.982C132.495 738.978 132.508 738.974 132.521 738.97C133.67 738.597 135.02 738.427 136.556 738.427C138.6 738.427 140.275 738.681 141.569 739.248C141.767 739.335 141.956 739.429 142.136 739.531C142.147 739.537 142.159 739.543 142.17 739.549C142.207 739.571 142.243 739.593 142.28 739.614C142.29 739.621 142.3 739.626 142.31 739.632C142.347 739.655 142.383 739.678 142.419 739.702C142.428 739.708 142.437 739.713 142.446 739.719C142.482 739.742 142.517 739.766 142.552 739.79C142.561 739.796 142.57 739.802 142.579 739.808C142.613 739.832 142.647 739.857 142.68 739.881C142.69 739.888 142.699 739.894 142.708 739.901C142.741 739.926 142.774 739.951 142.806 739.977C142.815 739.984 142.824 739.99 142.833 739.997C142.865 740.022 142.895 740.047 142.925 740.073C142.935 740.081 142.945 740.088 142.955 740.097C142.984 740.122 143.012 740.147 143.041 740.172C143.051 740.181 143.062 740.19 143.072 740.199C143.1 740.224 143.127 740.25 143.154 740.276C143.165 740.286 143.176 740.295 143.186 740.306C143.212 740.33 143.237 740.356 143.262 740.381C143.273 740.393 143.285 740.404 143.296 740.415C143.319 740.439 143.342 740.464 143.365 740.488C143.377 740.502 143.39 740.515 143.402 740.528C143.424 740.552 143.444 740.576 143.465 740.599C143.478 740.615 143.492 740.629 143.505 740.645C143.524 740.667 143.542 740.691 143.561 740.713C143.575 740.73 143.589 740.748 143.603 740.765C143.62 740.787 143.637 740.809 143.654 740.831C143.669 740.85 143.684 740.869 143.698 740.888C143.714 740.91 143.728 740.931 143.743 740.952C143.758 740.974 143.774 740.994 143.789 741.016C143.803 741.036 143.816 741.056 143.83 741.077C143.845 741.1 143.861 741.123 143.876 741.146C143.888 741.165 143.9 741.185 143.912 741.205C143.928 741.23 143.944 741.255 143.959 741.28C143.969 741.299 143.98 741.317 143.991 741.336C144.006 741.363 144.022 741.39 144.037 741.417C144.048 741.436 144.058 741.456 144.068 741.475C144.083 741.503 144.098 741.53 144.113 741.559C144.123 741.579 144.133 741.6 144.143 741.62C144.157 741.648 144.171 741.675 144.184 741.703C144.194 741.725 144.204 741.747 144.214 741.769C144.227 741.796 144.24 741.824 144.252 741.851C144.263 741.876 144.273 741.901 144.283 741.926C144.294 741.952 144.305 741.977 144.315 742.003C144.328 742.034 144.339 742.066 144.351 742.097C144.359 742.118 144.367 742.138 144.375 742.158C144.389 742.196 144.402 742.235 144.415 742.274C144.42 742.288 144.426 742.303 144.431 742.318C144.448 742.369 144.464 742.421 144.48 742.474C144.481 742.476 144.482 742.478 144.483 742.48C144.549 742.7 144.606 742.93 144.652 743.171C144.654 743.185 144.657 743.199 144.659 743.212C144.667 743.251 144.674 743.29 144.68 743.329C144.684 743.351 144.687 743.374 144.691 743.396C144.697 743.432 144.702 743.468 144.707 743.503C144.71 743.523 144.713 743.543 144.716 743.563C144.724 743.618 144.731 743.675 144.738 743.731H141.568C141.163 741.506 139.523 740.876 136.555 740.876C134.911 740.876 133.557 741.149 132.61 741.874C132.61 741.874 132.609 741.875 132.609 741.875C132.582 741.896 132.555 741.917 132.529 741.939C132.526 741.941 132.523 741.943 132.52 741.946C132.495 741.966 132.47 741.988 132.445 742.01C132.441 742.013 132.438 742.016 132.434 742.019C132.41 742.039 132.387 742.061 132.363 742.083C132.359 742.087 132.354 742.091 132.35 742.095C132.328 742.116 132.306 742.137 132.284 742.159C132.279 742.164 132.274 742.168 132.269 742.173C132.248 742.194 132.227 742.216 132.207 742.237C132.201 742.243 132.196 742.249 132.19 742.255C132.171 742.276 132.152 742.297 132.132 742.319C132.127 742.326 132.12 742.332 132.114 742.339C132.096 742.36 132.078 742.382 132.06 742.403C132.054 742.411 132.047 742.418 132.041 742.427C132.024 742.447 132.008 742.469 131.991 742.49C131.984 742.499 131.977 742.508 131.97 742.517C131.954 742.538 131.939 742.559 131.924 742.58C131.917 742.59 131.909 742.6 131.902 742.61C131.887 742.63 131.874 742.651 131.859 742.672C131.852 742.684 131.844 742.695 131.836 742.706C131.823 742.726 131.81 742.747 131.797 742.768C131.789 742.78 131.781 742.792 131.773 742.805C131.761 742.825 131.749 742.846 131.737 742.867C131.729 742.88 131.721 742.893 131.713 742.907C131.702 742.927 131.691 742.948 131.68 742.968C131.672 742.983 131.664 742.997 131.656 743.012C131.646 743.032 131.635 743.052 131.625 743.073C131.617 743.089 131.609 743.105 131.601 743.121C131.592 743.14 131.582 743.161 131.573 743.181C131.565 743.198 131.557 743.215 131.549 743.232C131.54 743.252 131.532 743.273 131.524 743.292C131.516 743.311 131.508 743.328 131.5 743.347C131.492 743.367 131.485 743.387 131.477 743.407C131.469 743.426 131.462 743.445 131.454 743.465C131.447 743.484 131.44 743.504 131.433 743.524C131.426 743.545 131.418 743.565 131.411 743.586C131.405 743.606 131.398 743.626 131.392 743.645C131.385 743.667 131.378 743.688 131.371 743.71C131.365 743.73 131.359 743.75 131.353 743.77C131.347 743.793 131.34 743.815 131.333 743.838C131.328 743.857 131.323 743.878 131.317 743.897C131.311 743.921 131.305 743.944 131.299 743.969C131.294 743.989 131.289 744.009 131.284 744.03C131.278 744.054 131.272 744.078 131.267 744.103C131.262 744.123 131.258 744.145 131.254 744.165C131.248 744.191 131.243 744.215 131.238 744.241C131.234 744.262 131.23 744.283 131.226 744.304C131.222 744.33 131.217 744.356 131.212 744.382C131.209 744.404 131.205 744.425 131.202 744.447C131.198 744.474 131.193 744.5 131.189 744.527C131.186 744.549 131.183 744.572 131.18 744.594C131.176 744.621 131.172 744.648 131.169 744.676C131.166 744.699 131.164 744.723 131.161 744.746C131.158 744.773 131.155 744.8 131.152 744.827C131.149 744.852 131.148 744.877 131.145 744.903C131.142 744.929 131.14 744.956 131.138 744.983C131.136 745.009 131.134 745.036 131.132 745.063C131.13 745.09 131.129 745.116 131.127 745.142C131.125 745.171 131.124 745.201 131.122 745.231C131.121 745.255 131.12 745.28 131.119 745.305C131.117 745.34 131.117 745.376 131.116 745.412C131.115 745.432 131.114 745.451 131.114 745.471C131.113 745.527 131.113 745.584 131.113 745.641V747.215C131.113 750.812 133.203 752.026 136.552 752.026C139.408 752.026 141.071 751.486 141.588 749.35H144.758C144.738 749.477 144.716 749.601 144.691 749.722L144.697 749.726ZM162.772 754.21H159.625V747.533H150.431V754.21H148.555H147.284V738.698H150.431V744.97H159.625V738.698H162.773V754.209L162.772 754.21Z" fill="white"/>
<path fill-rule="evenodd" clip-rule="evenodd" d="M107.089 746.513L107.065 746.457L104.557 740.743L101.432 747.914H107.704L107.089 746.513Z" fill="white"/>
<path d="M186.914 737.3L189.664 734.3L201.014 744.5L212.364 734.35L215.114 737.3L204.064 747.2L215.114 757.05L212.364 760.05L201.014 749.9L189.664 760.05L186.964 757.05L197.964 747.2L186.914 737.3Z" fill="white"/>
<g clip-path="url(#clip1_1177_2508)">
<path d="M262.123 759H267.995C268.475 759 268.976 758.452 268.976 757.936V735.064C268.971 734.548 268.47 734 267.995 734H262.123C261.643 734 261.141 734.548 261.141 735.064V757.936C261.141 758.452 261.643 759 262.123 759Z" fill="white"/>
<path d="M240.785 759C241.297 759 241.829 758.452 241.829 757.936V749.915H245.483L250.18 758.468C250.306 758.676 250.702 759 251.224 759H258.01C258.553 759 258.814 758.399 258.532 757.936L251.746 746.197L258.532 735.064C258.85 734.601 258.568 734 258.01 734H250.702C250.18 734 249.784 734.34 249.659 734.532L244.961 743.005H241.829V735.064C241.819 734.553 241.297 734 240.785 734H235.044C234.522 734 234 734.527 234 735.037V757.936C234 758.452 234.532 759 235.044 759H240.785Z" fill="white"/>
<path d="M339.956 759C340.468 759 341 758.399 341 757.883V735.037C341 734.521 340.468 734 339.956 734H334.215C333.703 734 333.171 734.548 333.171 735.064V746.766L323.254 734H316.468C315.957 734 315.424 734.548 315.424 735.064V757.936C315.424 758.452 315.957 759 316.468 759H322.21C322.721 759 323.254 758.452 323.254 757.936V746.197L333.171 759H339.956Z" fill="white"/>
<path d="M273.152 759H311.254C311.818 759 312.298 758.505 312.298 757.936V735.064C312.298 734.495 311.818 734 311.254 734H273.152C272.588 734 272.108 734.495 272.108 735.064V757.936C272.108 758.505 272.588 759 273.152 759ZM280.459 740.383C282.818 740.851 287.74 740.92 292.344 740.91C297.114 740.899 301.89 740.798 303.947 740.383C304.15 740.34 304.469 740.378 304.469 740.91V751.532C304.469 752.085 304.14 752.085 303.947 752.064C301.911 751.809 297.099 751.883 292.344 751.867C287.537 751.856 282.463 751.787 280.459 752.085C280.261 752.112 279.937 752.106 279.937 751.553V740.915C279.937 740.383 280.261 740.346 280.459 740.383Z" fill="white"/>
</g>
<g clip-path="url(#clip2_1177_2508)">
<path d="M-123 400C-123 400 -0.565923 353.143 91.1697 423.285C165.751 480.309 178.889 533.077 222.999 602C254.999 652 307.552 665.962 333.317 639.803C338.063 634.985 338.824 624.183 333.725 622.576C328.626 620.968 323.255 624.999 320.914 632.615C318.288 646.378 325.635 658.233 339.425 664.486C390.388 687.594 479.764 595.605 459.563 513.103" stroke="white" stroke-miterlimit="10" stroke-linecap="round" stroke-linejoin="round" stroke-dasharray="10 10"/>
<path d="M279.687 445.415C279.687 401.866 244.167 366.562 200.352 366.562C156.538 366.562 121.017 401.866 121.017 445.415C121.017 488.964 156.538 524.267 200.352 524.267C244.167 524.267 279.687 488.964 279.687 445.415Z" fill="#DF012F" stroke="#294064" stroke-miterlimit="10" stroke-linecap="round" stroke-linejoin="round"/>
<path d="M210.443 412.144C212.154 412.051 214.053 412.577 216.107 413.908C224.513 419.354 238.25 430.636 242.234 448.902C247.273 472.005 223.194 493.557 199.52 494.421C199.489 494.433 198.244 494.464 198.053 494.464C185.435 494.464 174.109 489.082 166.137 480.526C166.051 480.441 165.979 480.344 165.89 480.258C157.381 471.841 152.48 460.573 155.025 448.902C159.008 430.636 172.747 419.354 181.151 413.908C183.206 412.577 185.112 412.051 186.822 412.144C194.241 412.544 198.09 424.643 195.322 434.042C193.425 440.476 185.144 449.912 185.144 449.912C175.241 463.876 186.629 477.659 197.886 478.21C198.164 478.216 198.955 478.24 199.083 478.239C210.434 477.92 222.106 463.999 212.114 449.912C212.114 449.912 203.833 440.476 201.937 434.042C199.169 424.643 203.024 412.544 210.443 412.144Z" fill="#2F2F2F" stroke="#294064" stroke-miterlimit="10" stroke-linecap="round" stroke-linejoin="round"/>
<path d="M252.648 375.759L192.314 366.562L144.25 380.545L134.404 400.553C134.404 400.553 146.381 409.003 155.101 407.279C163.822 405.554 165.321 396.632 165.321 396.632C165.321 396.632 171.515 411.713 175.701 411.519C179.887 411.325 182.062 395.858 182.062 395.858C182.062 395.858 183.692 404.846 191.564 403.53C199.645 402.179 199.738 395.983 199.738 395.983C199.738 395.983 199.738 403.684 209.13 403.53C213.46 403.459 217 397.467 217 397.467C217 397.467 219.624 411.509 223.708 411.429C227.792 411.35 233.339 397.149 233.339 397.149C233.339 397.149 232.178 406.938 243.54 406.811C252.305 406.714 259.753 391.618 259.753 391.618L252.648 375.759Z" fill="#FFF2E0" stroke="#294064" stroke-miterlimit="10" stroke-linecap="round" stroke-linejoin="round"/>
<path d="M199.743 354.941C249.457 354.941 289.755 395.246 289.755 444.961C289.755 494.676 249.457 534.973 199.743 534.973C150.028 534.973 109.723 494.676 109.723 444.961C109.723 395.246 150.028 354.941 199.743 354.941ZM199.743 375.408C161.333 375.408 130.19 406.551 130.19 444.961C130.19 483.371 161.333 514.506 199.743 514.506C238.152 514.506 269.288 483.371 269.288 444.961C269.288 406.551 238.152 375.409 199.743 375.408Z" fill="#FF547D" stroke="#294064" stroke-miterlimit="10" stroke-linejoin="round"/>
<path d="M238.134 697.81L245.841 714.035L259.518 723.051L246.635 719.429L246.998 730.653L241.393 716.943L231.091 696.803" fill="#FF4776"/>
<path d="M238.134 697.81L245.841 714.035L259.518 723.051L246.635 719.429L246.998 730.653L241.393 716.943L231.091 696.803" stroke="#294064" stroke-miterlimit="10" stroke-linecap="round" stroke-linejoin="round"/>
<path d="M209.149 527.668C228.394 527.893 242.595 529.699 253.991 533.92C262.865 537.206 270.188 542.064 275.599 548.927C281.5 556.407 284.426 565.459 284.497 575.379C284.567 585.315 280.781 594.289 274.038 601.338C268.879 606.731 262.346 610.71 254.616 613.743C247.06 616.708 238.254 618.77 228.338 620.155C227.68 621.506 226.97 622.847 226.188 624.171C216.21 641.087 198.385 651.546 174.053 652.15C150.214 652.743 129.767 641.782 117.479 623.751C105.823 606.647 102.93 584.941 111.836 568.058C115.267 561.552 118.799 556.248 123.232 551.447C128.508 545.731 134.748 541.148 142.188 537.604C156.219 530.919 174.523 527.93 200.586 527.668C203.547 527.637 206.399 527.635 209.149 527.668ZM207.74 572.016C205.604 571.995 203.368 571.993 201.035 572.016C182.395 572.204 170.392 573.971 163.057 576.904C163.355 576.929 164.291 577.008 164.821 577.05C166.613 577.187 168.668 577.325 170.953 577.455C180.187 577.982 189.746 578.184 199.008 577.957C202.687 575.247 207.215 573.629 212.133 573.629C215.84 573.629 219.324 574.547 222.397 576.155C226.464 575.577 230.211 574.903 233.32 574.078C227.333 572.832 218.917 572.123 207.74 572.016Z" fill="#34DCD8" stroke="#294064" stroke-miterlimit="10" stroke-linecap="round" stroke-linejoin="round"/>
<path d="M200.07 485.72C229.65 485.694 239.704 490.331 243.717 498.067C245.009 500.558 226.718 509.195 226.718 509.195L224.207 624.799C224.255 624.927 223.661 630.168 227.58 636.56C231.498 642.953 241.842 643 243.245 659.014C244.927 678.21 246.729 684.036 246.518 692.803C246.299 701.933 229.709 707.29 226.386 704.657C214.585 695.307 211.464 693.282 198.771 683.169C187.271 674.005 190.918 661.505 189.507 655.946C188.156 650.623 186.309 648.467 182.713 646.198C176.477 642.263 173.772 643.23 173.66 630.142C173.333 591.753 177.572 510.445 177.572 510.445C170.353 508.342 158.021 500.16 158.021 500.16C158.058 491.807 173.516 485.744 200.07 485.72Z" fill="#18D0CB" stroke="#294064" stroke-miterlimit="10" stroke-linecap="round" stroke-linejoin="round"/>
<path d="M169.614 652.109C208.554 653.97 223.323 631.579 229.281 617.775C233.65 607.653 230.954 598.015 227.382 587.586C224.79 580.021 214.604 574.212 206.697 575.423C191.533 577.745 181.246 594.97 166.039 596.983C158.553 597.973 135.469 597.097 134.014 573.069" fill="#34DCD8"/>
<path d="M169.614 652.109C208.554 653.97 223.323 631.579 229.281 617.775C233.65 607.653 230.954 598.015 227.382 587.586C224.79 580.021 214.604 574.212 206.697 575.423C191.533 577.745 181.246 594.97 166.039 596.983C158.553 597.973 135.469 597.097 134.014 573.069" stroke="#294064" stroke-miterlimit="10" stroke-linecap="round" stroke-linejoin="round"/>
<path d="M241.005 618.133C216.517 623.672 179.185 622.075 161.298 617.322C152.038 614.86 142.969 605.408 142.869 594.9C142.771 584.392 151.448 577.322 160.903 575.291C183.243 570.496 208.538 577.599 233.002 574.049" fill="#34DCD8"/>
<path d="M241.005 618.133C216.517 623.672 179.185 622.075 161.298 617.322C152.038 614.86 142.969 605.408 142.869 594.9C142.771 584.392 151.448 577.322 160.903 575.291C183.243 570.496 208.538 577.599 233.002 574.049" stroke="#294064" stroke-miterlimit="10" stroke-linecap="round" stroke-linejoin="round"/>
<path d="M215.682 686.998C216.635 683.937 212.716 679.523 210.211 678.084C207.701 676.641 205.079 675.4 202.511 674.059C203.329 680.239 208.277 685.196 215.682 686.998Z" fill="#DF012F" stroke="#294064" stroke-miterlimit="10" stroke-linecap="round" stroke-linejoin="round"/>
<path d="M236.124 676.241C233.239 674.842 232.699 668.964 233.363 666.152C234.028 663.332 234.917 660.571 235.694 657.782C239.642 662.605 239.876 669.606 236.124 676.241Z" fill="#DF012F" stroke="#294064" stroke-miterlimit="10" stroke-linecap="round" stroke-linejoin="round"/>
<g style="mix-blend-mode:multiply">
<path d="M225.212 630.817C219.078 643.683 210.127 654.64 189.556 663.867C190.197 655.618 189.556 657.187 187.85 651.181C208.64 645.25 213.191 640.467 224.224 628.341" fill="#B3A9EC"/>
</g>
<path d="M202.866 504.625L200.967 557.99" stroke="#294064" stroke-miterlimit="10" stroke-linecap="round" stroke-linejoin="round"/>
<path d="M200.777 561.027L200.37 572.021" stroke="#294064" stroke-miterlimit="10" stroke-linecap="round" stroke-linejoin="round"/>
<path d="M124.705 604.797C132.273 625.815 154.286 636.857 175.357 637.136" stroke="#294064" stroke-miterlimit="10" stroke-linecap="round" stroke-linejoin="round"/>
<path d="M182.762 637.041C185.89 636.581 195.489 635.725 200.737 632.42" stroke="#294064" stroke-miterlimit="10" stroke-linecap="round" stroke-linejoin="round"/>
<path d="M199.664 392.117C199.664 392.117 199.836 382.552 199.687 380.188" stroke="#294064" stroke-miterlimit="10" stroke-linecap="round" stroke-linejoin="round"/>
<path d="M217.555 394.877C217.978 391.794 218.85 385.9 218.476 382.121" stroke="#294064" stroke-miterlimit="10" stroke-linecap="round" stroke-linejoin="round"/>
<path d="M181.53 393.754C181.439 392.622 180.775 388.414 180.384 382.279" stroke="#294064" stroke-miterlimit="10" stroke-linecap="round" stroke-linejoin="round"/>
<path d="M207.282 448.988C211.91 452.895 213.607 463.235 209.628 467.948" stroke="#294064" stroke-miterlimit="10" stroke-linecap="round" stroke-linejoin="round"/>
<path d="M207.203 470.665C205.746 472.423 204.368 472.994 202.332 473.892" stroke="#294064" stroke-miterlimit="10" stroke-linecap="round" stroke-linejoin="round"/>
<path d="M232.806 574.31C249.337 571.368 246.389 562.154 242.131 560.655" stroke="#294064" stroke-miterlimit="10" stroke-linecap="round" stroke-linejoin="round"/>
<path d="M239.957 701.842L241.403 705.986L238.383 710.674L235.513 704.215" fill="#294064"/>
<path d="M239.957 701.842L241.403 705.986L238.383 710.674L235.513 704.215" stroke="#294064" stroke-miterlimit="10" stroke-linecap="round" stroke-linejoin="round"/>
</g>
</g>
<defs>
<radialGradient id="paint0_radial_1177_2508" cx="0" cy="0" r="1" gradientUnits="userSpaceOnUse" gradientTransform="translate(831 888) rotate(118.185) scale(847.513 524.456)">
<stop stop-color="#E7012A"/>
<stop offset="1" stop-color="#5815A3"/>
</radialGradient>
<clipPath id="clip0_1177_2508">
<path d="M0 0H414V841C414 852.046 405.046 861 394 861H20C8.95432 861 0 852.046 0 841V0Z" fill="white"/>
</clipPath>
<clipPath id="clip1_1177_2508">
<rect width="107" height="25" fill="white" transform="translate(234 734)"/>
</clipPath>
<clipPath id="clip2_1177_2508">
<rect width="476" height="476" fill="white" transform="matrix(-1 0 0 1 455 274)"/>
</clipPath>
</defs>
</svg>
