<svg width="414" height="861" viewBox="0 0 414 861" fill="none" xmlns="http://www.w3.org/2000/svg">
<g clip-path="url(#clip0_1232_5188)">
<path d="M0 0H414V841C414 852.046 405.046 861 394 861H20C8.95432 861 0 852.046 0 841V0Z" fill="#EF6A82"/>
<g clip-path="url(#clip1_1232_5188)">
<path d="M0 0H414V841C414 852.046 405.046 861 394 861H20C8.95432 861 0 852.046 0 841V0Z" fill="#EF6A82"/>
<rect x="415" y="888" width="416" height="888" transform="rotate(-180 415 888)" fill="url(#paint0_radial_1232_5188)"/>
<path fill-rule="evenodd" clip-rule="evenodd" d="M99.1203 707.449L93.3983 720.397H91.0034V707.449H71.7939L71.7947 707.449C68.5919 707.474 65.031 708.102 62.246 710.49C59.2494 713.058 58.2169 716.719 58.2169 720.478C58.2169 724.237 59.2469 727.91 62.2674 730.47C65.1196 732.888 68.7734 733.463 71.9946 733.463C72.0472 733.463 72.1039 733.463 72.1039 733.463C72.1049 733.463 72.1049 733.463 72.1057 733.463C72.1049 733.463 72.1053 733.463 72.1057 733.463L87.6907 733.459H101.955L103.799 729.301H105.198L107.034 733.459H126.071V730.025C126.229 730.177 126.393 730.326 126.564 730.47C129.416 732.888 133.07 733.463 136.292 733.463C136.44 733.463 136.588 733.461 136.737 733.459H167.566V707.449H99.1203Z" fill="#E1012E"/>
<path fill-rule="evenodd" clip-rule="evenodd" d="M99.1566 707.175L93.3991 720.393H90.9894V707.175H71.661L71.6618 707.176C68.4392 707.201 64.8563 707.842 62.054 710.279C59.0389 712.902 58 716.638 58 720.476C58 724.313 59.0363 728.063 62.0756 730.677C64.9454 733.145 68.6218 733.732 71.863 733.732C71.9159 733.732 71.9729 733.732 71.9729 733.732C71.974 733.732 71.974 733.732 71.9747 733.732C71.974 733.732 71.9743 733.732 71.9747 733.732L87.6562 733.728H102.008L103.864 729.483H105.272L107.12 733.728H126.274V730.222C126.433 730.377 126.598 730.529 126.77 730.677C129.64 733.145 133.317 733.732 136.558 733.732C136.707 733.732 136.856 733.73 137.006 733.728H168.026V707.175H99.1566ZM80.0375 723.538C80.0342 723.557 80.0305 723.575 80.0269 723.594C80.0192 723.636 80.0115 723.678 80.0031 723.719C79.9984 723.742 79.9933 723.764 79.9885 723.787C79.9809 723.824 79.9732 723.86 79.9652 723.896C79.9597 723.921 79.9535 723.946 79.9476 723.97C79.9396 724.003 79.9319 724.036 79.9235 724.069C79.9155 724.1 79.9075 724.131 79.8991 724.161C79.8929 724.185 79.8867 724.208 79.8801 724.231C79.8713 724.263 79.8618 724.293 79.8527 724.324C79.8461 724.346 79.8399 724.369 79.833 724.391C79.8231 724.422 79.8125 724.454 79.8023 724.486C79.7957 724.506 79.7892 724.527 79.7822 724.547C79.7705 724.581 79.7585 724.615 79.7461 724.649C79.7402 724.666 79.7344 724.683 79.7282 724.7C79.7096 724.75 79.6906 724.799 79.6708 724.848C79.6665 724.86 79.6617 724.87 79.657 724.881C79.6416 724.919 79.6259 724.957 79.6099 724.994C79.6015 725.013 79.5923 725.033 79.5839 725.052C79.5712 725.08 79.5587 725.109 79.5456 725.137C79.5357 725.158 79.5255 725.178 79.5153 725.199C79.5029 725.225 79.4905 725.251 79.4777 725.276C79.4667 725.297 79.4558 725.318 79.4444 725.339C79.4317 725.363 79.4192 725.388 79.4065 725.412C79.3948 725.433 79.3827 725.454 79.3707 725.476C79.3579 725.499 79.3451 725.522 79.3316 725.545C79.3192 725.566 79.3064 725.587 79.2936 725.608C79.2801 725.63 79.267 725.652 79.2535 725.674C79.2403 725.695 79.2272 725.715 79.2137 725.736C79.1998 725.757 79.1859 725.779 79.172 725.8C79.1582 725.821 79.1443 725.841 79.1304 725.861C79.1162 725.882 79.1019 725.903 79.0873 725.923C79.0731 725.943 79.0581 725.963 79.0435 725.983C79.0285 726.003 79.0139 726.023 78.9989 726.043C78.984 726.063 78.9686 726.082 78.9533 726.102C78.938 726.121 78.9226 726.141 78.9069 726.16C78.8912 726.179 78.8755 726.198 78.8595 726.217C78.8438 726.236 78.8277 726.255 78.8116 726.273C78.7952 726.292 78.7788 726.311 78.7623 726.329C78.7459 726.348 78.7295 726.366 78.7127 726.384C78.6959 726.402 78.6787 726.421 78.6615 726.439C78.6447 726.456 78.6276 726.474 78.6104 726.491C78.5929 726.509 78.5754 726.527 78.5578 726.544C78.5403 726.562 78.5228 726.579 78.5049 726.596C78.487 726.613 78.4687 726.63 78.4505 726.647C78.4322 726.664 78.414 726.681 78.3957 726.697C78.3771 726.714 78.3585 726.731 78.3398 726.747C78.3212 726.763 78.3022 726.78 78.2829 726.796C78.2639 726.812 78.2449 726.828 78.2255 726.844C78.2062 726.86 78.1865 726.876 78.1664 726.891C78.147 726.907 78.1273 726.922 78.1076 726.938C78.0875 726.953 78.0667 726.969 78.0462 726.984C78.0265 726.999 78.0064 727.014 77.9864 727.029C77.9655 727.044 77.944 727.059 77.9228 727.074C77.9024 727.088 77.8823 727.102 77.8618 727.117C77.8399 727.132 77.8176 727.146 77.7954 727.161C77.7749 727.174 77.7545 727.188 77.734 727.201C77.711 727.216 77.6877 727.231 77.6639 727.245C77.6435 727.258 77.623 727.271 77.6026 727.283C77.5781 727.298 77.5529 727.312 77.5281 727.327C77.508 727.339 77.4883 727.351 77.4678 727.362C77.4408 727.377 77.4131 727.392 77.3857 727.407C77.2294 727.493 77.0669 727.573 76.8978 727.648C75.6019 728.22 73.9228 728.478 71.8622 728.478C66.6131 728.478 63.5256 726.563 63.2696 721.217C63.258 720.977 63.2525 720.73 63.2525 720.475C63.2525 720.189 63.2598 719.912 63.2744 719.643C63.5614 714.381 66.6434 712.427 71.8622 712.427C73.906 712.427 75.5814 712.681 76.8752 713.248C77.061 713.329 77.2385 713.418 77.4083 713.512C77.4309 713.525 77.454 713.537 77.4766 713.55C77.5018 713.564 77.5266 713.579 77.5515 713.594C77.5734 713.607 77.5953 713.62 77.6168 713.633C77.6416 713.648 77.6661 713.664 77.6906 713.68C77.7114 713.693 77.7326 713.706 77.7534 713.72C77.7775 713.735 77.8009 713.751 77.8242 713.767C77.8447 713.781 77.8659 713.795 77.8859 713.809C77.9097 713.825 77.9327 713.843 77.956 713.859C77.9758 713.874 77.9955 713.888 78.0148 713.902C78.0382 713.919 78.0608 713.937 78.0839 713.955C78.1025 713.969 78.1215 713.983 78.1401 713.998C78.1624 714.016 78.1843 714.034 78.2065 714.052C78.2248 714.067 78.2434 714.082 78.2617 714.098C78.2829 714.115 78.3037 714.134 78.3249 714.153C78.3431 714.169 78.3617 714.184 78.3796 714.201C78.4001 714.219 78.4198 714.238 78.4399 714.256C78.4578 714.273 78.476 714.29 78.4936 714.306C78.5133 714.325 78.5323 714.345 78.5516 714.364C78.5688 714.381 78.5863 714.398 78.6035 714.416C78.6221 714.435 78.64 714.455 78.6583 714.474C78.6754 714.492 78.6929 714.51 78.7097 714.529C78.7273 714.548 78.7444 714.568 78.762 714.588C78.7788 714.607 78.7955 714.626 78.812 714.645C78.8288 714.665 78.8452 714.685 78.8616 714.706C78.8777 714.725 78.8945 714.745 78.9102 714.765C78.9263 714.785 78.942 714.806 78.9577 714.826C78.9734 714.847 78.9895 714.867 79.0048 714.888C79.0205 714.909 79.0351 714.93 79.0504 714.952C79.0654 714.973 79.0807 714.993 79.0953 715.015C79.1096 715.035 79.1231 715.056 79.137 715.078C79.1519 715.1 79.1673 715.123 79.1823 715.146C79.1954 715.166 79.2075 715.186 79.2202 715.207C79.2352 715.231 79.2505 715.255 79.2651 715.28C79.2776 715.3 79.2892 715.322 79.3017 715.343C79.3159 715.368 79.3305 715.392 79.3444 715.417C79.3561 715.438 79.3674 715.46 79.3787 715.481C79.3926 715.507 79.4065 715.532 79.4196 715.558C79.4306 715.58 79.4412 715.602 79.4517 715.623C79.4649 715.65 79.4784 715.676 79.4912 715.703C79.5014 715.725 79.5113 715.747 79.5215 715.769C79.5339 715.796 79.5467 715.823 79.5591 715.851C79.5686 715.873 79.5777 715.896 79.5872 715.918C79.5993 715.946 79.6113 715.974 79.623 716.003C79.6321 716.026 79.6409 716.05 79.65 716.073C79.661 716.102 79.6723 716.13 79.6829 716.159C79.6917 716.183 79.6997 716.207 79.7081 716.231C79.7183 716.26 79.7289 716.289 79.7388 716.318C79.7468 716.343 79.7541 716.367 79.7621 716.391C79.7716 716.421 79.7815 716.451 79.791 716.482C79.7986 716.507 79.8056 716.532 79.8129 716.558C79.8217 716.588 79.8308 716.618 79.8392 716.649C79.8465 716.676 79.8531 716.703 79.8604 716.73C79.868 716.76 79.8761 716.789 79.8834 716.819C79.8903 716.848 79.8965 716.877 79.9031 716.905C79.91 716.935 79.917 716.964 79.9235 716.994C79.9305 717.026 79.9367 717.058 79.9433 717.091C79.9487 717.118 79.9546 717.145 79.9601 717.173C79.9604 717.175 79.9611 717.178 79.9615 717.181C79.9714 717.232 79.9805 717.285 79.9893 717.338C79.9918 717.354 79.9944 717.37 79.9973 717.386C80.0039 717.428 80.0104 717.47 80.0166 717.512C80.0188 717.528 80.0214 717.544 80.0236 717.56C80.0316 717.617 80.0389 717.674 80.0459 717.732H76.8763C76.4717 715.507 74.8306 714.878 71.8633 714.878C68.559 714.878 66.4232 715.979 66.4232 719.643V721.217C66.4232 724.814 68.5137 726.027 71.8633 726.027C74.7182 726.027 76.3818 725.488 76.8989 723.352H80.0685C80.059 723.415 80.0488 723.476 80.0378 723.537L80.0375 723.538ZM95.2223 728.209H83.86H82.5888V712.698H85.7362V725.646H95.2227V728.209H95.2223ZM112.62 728.209H110.446L108.715 724.23H100.421L98.6899 728.209H95.7226L99.1777 720.393L102.579 712.698H106.895L112.62 725.693L113.729 728.21H112.62L112.62 728.209ZM127.359 715.261H123.473H121.02V728.209H117.874V715.261H111.534V712.698H127.36V715.261H127.359ZM144.697 723.726C144.696 723.73 144.695 723.733 144.695 723.737C144.683 723.793 144.671 723.849 144.659 723.904C144.657 723.913 144.655 723.921 144.652 723.93C144.641 723.98 144.629 724.029 144.617 724.077C144.612 724.095 144.607 724.111 144.603 724.128C144.594 724.165 144.584 724.201 144.573 724.237C144.568 724.257 144.562 724.276 144.557 724.295C144.547 724.328 144.537 724.362 144.527 724.395C144.52 724.417 144.513 724.438 144.506 724.46C144.496 724.49 144.487 724.52 144.477 724.55C144.468 724.576 144.458 724.601 144.449 724.627C144.441 724.652 144.432 724.677 144.423 724.701C144.405 724.751 144.386 724.8 144.366 724.849C144.363 724.857 144.359 724.865 144.357 724.873C144.34 724.914 144.323 724.955 144.305 724.996C144.299 725.01 144.292 725.024 144.286 725.038C144.271 725.072 144.256 725.106 144.24 725.139C144.233 725.155 144.225 725.171 144.217 725.188C144.202 725.218 144.187 725.248 144.173 725.278C144.164 725.296 144.155 725.313 144.145 725.33C144.131 725.358 144.116 725.386 144.101 725.415C144.091 725.432 144.081 725.45 144.071 725.468C144.056 725.494 144.041 725.521 144.026 725.547C144.016 725.565 144.005 725.583 143.994 725.601C143.979 725.626 143.964 725.652 143.948 725.676C143.937 725.695 143.925 725.713 143.913 725.731C143.898 725.755 143.882 725.779 143.867 725.802C143.854 725.821 143.842 725.839 143.829 725.857C143.813 725.88 143.797 725.903 143.781 725.925C143.768 725.944 143.755 725.962 143.742 725.98C143.726 726.002 143.709 726.024 143.693 726.045C143.679 726.063 143.665 726.082 143.651 726.1C143.634 726.121 143.618 726.141 143.601 726.162C143.586 726.18 143.571 726.198 143.556 726.216C143.54 726.236 143.523 726.256 143.506 726.275C143.491 726.293 143.475 726.311 143.459 726.329C143.442 726.348 143.425 726.366 143.408 726.385C143.391 726.403 143.374 726.421 143.357 726.439C143.341 726.457 143.324 726.474 143.306 726.492C143.289 726.51 143.271 726.528 143.253 726.545C143.236 726.562 143.219 726.579 143.201 726.596C143.183 726.614 143.164 726.631 143.145 726.649C143.128 726.665 143.11 726.681 143.093 726.696C143.073 726.714 143.054 726.732 143.034 726.749C143.016 726.764 142.999 726.779 142.981 726.794C142.961 726.811 142.94 726.829 142.919 726.846C142.901 726.86 142.884 726.875 142.866 726.888C142.845 726.906 142.823 726.923 142.801 726.94C142.784 726.953 142.766 726.967 142.748 726.98C142.725 726.997 142.703 727.014 142.679 727.031C142.662 727.043 142.645 727.056 142.628 727.068C142.603 727.085 142.579 727.102 142.554 727.119C142.538 727.13 142.521 727.141 142.503 727.153C142.478 727.17 142.452 727.187 142.426 727.204C142.41 727.214 142.393 727.224 142.377 727.234C142.349 727.251 142.322 727.269 142.294 727.285C142.279 727.294 142.264 727.303 142.248 727.312C142.219 727.33 142.189 727.347 142.159 727.365C142.147 727.371 142.134 727.378 142.121 727.385C141.952 727.479 141.776 727.567 141.593 727.648C140.297 728.22 138.618 728.478 136.557 728.478C131.308 728.478 128.221 726.564 127.965 721.217C127.954 720.977 127.948 720.73 127.948 720.476C127.948 720.14 127.958 719.816 127.978 719.504C127.979 719.485 127.981 719.466 127.982 719.447C127.985 719.401 127.989 719.354 127.993 719.308C127.995 719.282 127.997 719.257 127.999 719.231C128.002 719.187 128.006 719.143 128.011 719.099C128.013 719.073 128.016 719.047 128.019 719.02C128.023 718.977 128.028 718.934 128.033 718.891C128.035 718.869 128.038 718.847 128.041 718.825C128.05 718.745 128.061 718.666 128.071 718.587C128.075 718.56 128.079 718.533 128.083 718.506C128.088 718.468 128.094 718.431 128.1 718.393C128.105 718.364 128.11 718.334 128.115 718.305C128.121 718.269 128.127 718.233 128.133 718.197C128.139 718.167 128.144 718.136 128.15 718.106C128.157 718.072 128.163 718.038 128.169 718.004C128.176 717.969 128.184 717.935 128.191 717.901C128.201 717.852 128.212 717.803 128.223 717.754C128.231 717.717 128.24 717.679 128.249 717.641C128.256 717.612 128.263 717.583 128.27 717.554C128.279 717.521 128.287 717.488 128.296 717.456C128.303 717.427 128.311 717.398 128.319 717.37C128.328 717.337 128.337 717.304 128.347 717.271C128.354 717.244 128.362 717.217 128.37 717.191C128.382 717.151 128.394 717.112 128.406 717.074C128.413 717.054 128.419 717.033 128.425 717.013C128.443 716.959 128.461 716.905 128.48 716.852C128.487 716.83 128.495 716.809 128.503 716.787C128.515 716.752 128.528 716.716 128.541 716.682C128.55 716.659 128.559 716.637 128.567 716.614C128.581 716.58 128.594 716.546 128.608 716.512C128.616 716.491 128.625 716.47 128.633 716.45C128.65 716.409 128.667 716.368 128.685 716.328C128.69 716.316 128.696 716.303 128.701 716.29C128.725 716.238 128.748 716.186 128.773 716.135C128.78 716.121 128.787 716.106 128.794 716.092C128.812 716.054 128.831 716.017 128.849 715.981C128.858 715.963 128.867 715.946 128.876 715.929C128.894 715.894 128.912 715.86 128.931 715.826C128.94 715.81 128.948 715.794 128.957 715.778C128.98 715.739 129.002 715.699 129.025 715.66C129.03 715.651 129.035 715.642 129.041 715.633C129.069 715.585 129.099 715.537 129.129 715.489C129.134 715.481 129.139 715.473 129.144 715.465C129.169 715.427 129.194 715.388 129.22 715.35C129.229 715.337 129.237 715.324 129.246 715.312C129.27 715.276 129.295 715.241 129.32 715.206C129.326 715.197 129.332 715.188 129.339 715.179C129.371 715.135 129.404 715.091 129.436 715.048C129.438 715.047 129.439 715.045 129.44 715.044C129.471 715.003 129.503 714.964 129.535 714.925C129.543 714.914 129.551 714.904 129.56 714.894C129.588 714.86 129.617 714.826 129.646 714.793C129.652 714.786 129.658 714.779 129.664 714.772C129.698 714.733 129.733 714.693 129.769 714.655C129.776 714.647 129.784 714.639 129.791 714.632C129.82 714.601 129.849 714.57 129.879 714.54C129.889 714.53 129.899 714.52 129.909 714.511C129.944 714.475 129.981 714.439 130.017 714.404C130.019 714.403 130.019 714.402 130.02 714.401C130.058 714.366 130.097 714.33 130.136 714.295C130.146 714.286 130.156 714.277 130.166 714.268C130.197 714.241 130.228 714.214 130.26 714.188C130.269 714.18 130.279 714.172 130.288 714.164C130.328 714.13 130.369 714.098 130.41 714.065C130.416 714.06 130.423 714.055 130.429 714.05C130.464 714.023 130.499 713.996 130.535 713.97C130.547 713.961 130.559 713.952 130.571 713.943C130.606 713.917 130.643 713.891 130.679 713.866C130.686 713.861 130.693 713.856 130.699 713.851C130.742 713.822 130.786 713.793 130.83 713.764C130.84 713.756 130.851 713.75 130.862 713.743C130.897 713.72 130.932 713.698 130.967 713.676C130.98 713.669 130.992 713.661 131.004 713.654C131.049 713.626 131.095 713.599 131.141 713.573C131.144 713.571 131.146 713.57 131.15 713.568C131.193 713.543 131.237 713.519 131.281 713.495C131.294 713.488 131.308 713.481 131.322 713.473C131.359 713.454 131.396 713.434 131.434 713.415C131.445 713.409 131.457 713.403 131.468 713.398C131.516 713.374 131.564 713.35 131.612 713.327C131.624 713.322 131.636 713.316 131.647 713.311C131.686 713.293 131.725 713.276 131.763 713.258C131.779 713.251 131.794 713.245 131.81 713.238C131.853 713.219 131.896 713.201 131.94 713.182C131.948 713.179 131.955 713.176 131.963 713.173C132.013 713.152 132.063 713.132 132.115 713.113C132.131 713.107 132.147 713.101 132.163 713.094C132.201 713.08 132.239 713.066 132.278 713.052C132.294 713.047 132.311 713.04 132.327 713.035C132.379 713.016 132.431 712.999 132.483 712.982C132.495 712.978 132.508 712.974 132.521 712.97C133.67 712.597 135.02 712.427 136.556 712.427C138.6 712.427 140.275 712.681 141.569 713.248C141.767 713.335 141.956 713.429 142.136 713.531C142.147 713.537 142.159 713.543 142.17 713.549C142.207 713.571 142.243 713.593 142.28 713.614C142.29 713.621 142.3 713.626 142.31 713.632C142.347 713.655 142.383 713.678 142.419 713.702C142.428 713.708 142.437 713.713 142.446 713.719C142.482 713.742 142.517 713.766 142.552 713.79C142.561 713.796 142.57 713.802 142.579 713.808C142.613 713.832 142.647 713.857 142.68 713.881C142.69 713.888 142.699 713.894 142.708 713.901C142.741 713.926 142.774 713.951 142.806 713.977C142.815 713.984 142.824 713.99 142.833 713.997C142.865 714.022 142.895 714.047 142.925 714.073C142.935 714.081 142.945 714.088 142.955 714.097C142.984 714.122 143.012 714.147 143.041 714.172C143.051 714.181 143.062 714.19 143.072 714.199C143.1 714.224 143.127 714.25 143.154 714.276C143.165 714.286 143.176 714.295 143.186 714.306C143.212 714.33 143.237 714.356 143.262 714.381C143.273 714.393 143.285 714.404 143.296 714.415C143.319 714.439 143.342 714.464 143.365 714.488C143.377 714.502 143.39 714.515 143.402 714.528C143.424 714.552 143.444 714.576 143.465 714.599C143.478 714.615 143.492 714.629 143.505 714.645C143.524 714.667 143.542 714.691 143.561 714.713C143.575 714.73 143.589 714.748 143.603 714.765C143.62 714.787 143.637 714.809 143.654 714.831C143.669 714.85 143.684 714.869 143.698 714.888C143.714 714.91 143.728 714.931 143.743 714.952C143.758 714.974 143.774 714.994 143.789 715.016C143.803 715.036 143.816 715.056 143.83 715.077C143.845 715.1 143.861 715.123 143.876 715.146C143.888 715.165 143.9 715.185 143.912 715.205C143.928 715.23 143.944 715.255 143.959 715.28C143.969 715.299 143.98 715.317 143.991 715.336C144.006 715.363 144.022 715.39 144.037 715.417C144.048 715.436 144.058 715.456 144.068 715.475C144.083 715.503 144.098 715.53 144.113 715.559C144.123 715.579 144.133 715.6 144.143 715.62C144.157 715.648 144.171 715.675 144.184 715.703C144.194 715.725 144.204 715.747 144.214 715.769C144.227 715.796 144.24 715.824 144.252 715.851C144.263 715.876 144.273 715.901 144.283 715.926C144.294 715.952 144.305 715.977 144.315 716.003C144.328 716.034 144.339 716.066 144.351 716.097C144.359 716.118 144.367 716.138 144.375 716.158C144.389 716.196 144.402 716.235 144.415 716.274C144.42 716.288 144.426 716.303 144.431 716.318C144.448 716.369 144.464 716.421 144.48 716.474C144.481 716.476 144.482 716.478 144.483 716.48C144.549 716.7 144.606 716.93 144.652 717.171C144.654 717.185 144.657 717.199 144.659 717.212C144.667 717.251 144.674 717.29 144.68 717.329C144.684 717.351 144.687 717.374 144.691 717.396C144.697 717.432 144.702 717.468 144.707 717.503C144.71 717.523 144.713 717.543 144.716 717.563C144.724 717.618 144.731 717.675 144.738 717.731H141.568C141.163 715.506 139.523 714.876 136.555 714.876C134.911 714.876 133.557 715.149 132.61 715.874C132.61 715.874 132.609 715.875 132.609 715.875C132.582 715.896 132.555 715.917 132.529 715.939C132.526 715.941 132.523 715.943 132.52 715.946C132.495 715.966 132.47 715.988 132.445 716.01C132.441 716.013 132.438 716.016 132.434 716.019C132.41 716.039 132.387 716.061 132.363 716.083C132.359 716.087 132.354 716.091 132.35 716.095C132.328 716.116 132.306 716.137 132.284 716.159C132.279 716.164 132.274 716.168 132.269 716.173C132.248 716.194 132.227 716.216 132.207 716.237C132.201 716.243 132.196 716.249 132.19 716.255C132.171 716.276 132.152 716.297 132.132 716.319C132.127 716.326 132.12 716.332 132.114 716.339C132.096 716.36 132.078 716.382 132.06 716.403C132.054 716.411 132.047 716.418 132.041 716.427C132.024 716.447 132.008 716.469 131.991 716.49C131.984 716.499 131.977 716.508 131.97 716.517C131.954 716.538 131.939 716.559 131.924 716.58C131.917 716.59 131.909 716.6 131.902 716.61C131.887 716.63 131.874 716.651 131.859 716.672C131.852 716.684 131.844 716.695 131.836 716.706C131.823 716.726 131.81 716.747 131.797 716.768C131.789 716.78 131.781 716.792 131.773 716.805C131.761 716.825 131.749 716.846 131.737 716.867C131.729 716.88 131.721 716.893 131.713 716.907C131.702 716.927 131.691 716.948 131.68 716.968C131.672 716.983 131.664 716.997 131.656 717.012C131.646 717.032 131.635 717.052 131.625 717.073C131.617 717.089 131.609 717.105 131.601 717.121C131.592 717.14 131.582 717.161 131.573 717.181C131.565 717.198 131.557 717.215 131.549 717.232C131.54 717.252 131.532 717.273 131.524 717.292C131.516 717.311 131.508 717.328 131.5 717.347C131.492 717.367 131.485 717.387 131.477 717.407C131.469 717.426 131.462 717.445 131.454 717.465C131.447 717.484 131.44 717.504 131.433 717.524C131.426 717.545 131.418 717.565 131.411 717.586C131.405 717.606 131.398 717.626 131.392 717.645C131.385 717.667 131.378 717.688 131.371 717.71C131.365 717.73 131.359 717.75 131.353 717.77C131.347 717.793 131.34 717.815 131.333 717.838C131.328 717.857 131.323 717.878 131.317 717.897C131.311 717.921 131.305 717.944 131.299 717.969C131.294 717.989 131.289 718.009 131.284 718.03C131.278 718.054 131.272 718.078 131.267 718.103C131.262 718.123 131.258 718.145 131.254 718.165C131.248 718.191 131.243 718.215 131.238 718.241C131.234 718.262 131.23 718.283 131.226 718.304C131.222 718.33 131.217 718.356 131.212 718.382C131.209 718.404 131.205 718.425 131.202 718.447C131.198 718.474 131.193 718.5 131.189 718.527C131.186 718.549 131.183 718.572 131.18 718.594C131.176 718.621 131.172 718.648 131.169 718.676C131.166 718.699 131.164 718.723 131.161 718.746C131.158 718.773 131.155 718.8 131.152 718.827C131.149 718.852 131.148 718.877 131.145 718.903C131.142 718.929 131.14 718.956 131.138 718.983C131.136 719.009 131.134 719.036 131.132 719.063C131.13 719.09 131.129 719.116 131.127 719.142C131.125 719.171 131.124 719.201 131.122 719.231C131.121 719.255 131.12 719.28 131.119 719.305C131.117 719.34 131.117 719.376 131.116 719.412C131.115 719.432 131.114 719.451 131.114 719.471C131.113 719.527 131.113 719.584 131.113 719.641V721.215C131.113 724.812 133.203 726.026 136.552 726.026C139.408 726.026 141.071 725.486 141.588 723.35H144.758C144.738 723.477 144.716 723.601 144.691 723.722L144.697 723.726ZM162.772 728.21H159.625V721.533H150.431V728.21H148.555H147.284V712.698H150.431V718.97H159.625V712.698H162.773V728.209L162.772 728.21Z" fill="white"/>
<path fill-rule="evenodd" clip-rule="evenodd" d="M107.089 720.513L107.065 720.457L104.557 714.743L101.432 721.914H107.704L107.089 720.513Z" fill="white"/>
<path d="M186.914 711.3L189.664 708.3L201.014 718.5L212.364 708.35L215.114 711.3L204.064 721.2L215.114 731.05L212.364 734.05L201.014 723.9L189.664 734.05L186.964 731.05L197.964 721.2L186.914 711.3Z" fill="white"/>
<g clip-path="url(#clip2_1232_5188)">
<path d="M262.123 733H267.995C268.475 733 268.976 732.452 268.976 731.936V709.064C268.971 708.548 268.47 708 267.995 708H262.123C261.643 708 261.141 708.548 261.141 709.064V731.936C261.141 732.452 261.643 733 262.123 733Z" fill="white"/>
<path d="M240.785 733C241.297 733 241.829 732.452 241.829 731.936V723.915H245.483L250.18 732.468C250.306 732.676 250.702 733 251.224 733H258.01C258.553 733 258.814 732.399 258.532 731.936L251.746 720.197L258.532 709.064C258.85 708.601 258.568 708 258.01 708H250.702C250.18 708 249.784 708.34 249.659 708.532L244.961 717.005H241.829V709.064C241.819 708.553 241.297 708 240.785 708H235.044C234.522 708 234 708.527 234 709.037V731.936C234 732.452 234.532 733 235.044 733H240.785Z" fill="white"/>
<path d="M339.956 733C340.468 733 341 732.399 341 731.883V709.037C341 708.521 340.468 708 339.956 708H334.215C333.703 708 333.171 708.548 333.171 709.064V720.766L323.254 708H316.468C315.957 708 315.424 708.548 315.424 709.064V731.936C315.424 732.452 315.957 733 316.468 733H322.21C322.721 733 323.254 732.452 323.254 731.936V720.197L333.171 733H339.956Z" fill="white"/>
<path d="M273.152 733H311.254C311.818 733 312.298 732.505 312.298 731.936V709.064C312.298 708.495 311.818 708 311.254 708H273.152C272.588 708 272.108 708.495 272.108 709.064V731.936C272.108 732.505 272.588 733 273.152 733ZM280.459 714.383C282.818 714.851 287.74 714.92 292.344 714.91C297.114 714.899 301.89 714.798 303.947 714.383C304.15 714.34 304.469 714.378 304.469 714.91V725.532C304.469 726.085 304.14 726.085 303.947 726.064C301.911 725.809 297.099 725.883 292.344 725.867C287.537 725.856 282.463 725.787 280.459 726.085C280.261 726.112 279.937 726.106 279.937 725.553V714.915C279.937 714.383 280.261 714.346 280.459 714.383Z" fill="white"/>
</g>
<path d="M443 429C405.12 429 361.399 490.875 342.402 516.162C294.789 579.539 251.532 640.155 173.684 678.535C148.291 691.053 110.091 703.282 79 697.152C58.0441 693.019 52.2272 678.471 70.7101 667.288C104.135 647.064 185 672.671 179 722.318C179 775.254 113.494 798.19 70.7101 802.156C-28.1142 811.319 -96.2575 757.785 -159 687.672" stroke="white" stroke-miterlimit="10" stroke-linecap="round" stroke-linejoin="round" stroke-dasharray="10 10"/>
<g style="mix-blend-mode:multiply">
<path d="M3.37109 642.814C3.37109 633.309 67.6933 625.604 147.038 625.604C226.384 625.604 290.707 633.309 290.707 642.814C290.707 652.319 226.384 660.024 147.038 660.024C67.6933 660.024 3.37109 652.319 3.37109 642.814Z" fill="#6365C3"/>
</g>
<path d="M455.915 496.109C373.795 496.281 369.601 498.255 287.482 498.426C280.203 535.934 316.931 549.305 309.653 586.811C380.158 588.048 370.747 600.408 520.454 595.881" fill="#FFF2E0"/>
<path d="M455.915 496.109C373.795 496.281 369.601 498.255 287.482 498.426C280.203 535.934 316.931 549.305 309.653 586.811C380.158 588.048 370.747 600.408 520.454 595.881" stroke="#294064" stroke-miterlimit="10" stroke-linecap="round" stroke-linejoin="round"/>
<path d="M349.703 428.735C349.703 428.735 334.238 353.711 295.873 391.732C276.34 411.09 245.609 510.157 258.433 563.878C270.121 612.839 331.588 598.319 345.21 588.771" fill="#FFF2E0"/>
<path d="M349.703 428.735C349.703 428.735 334.238 353.711 295.873 391.732C276.34 411.09 245.609 510.157 258.433 563.878C270.121 612.839 331.588 598.319 345.21 588.771" stroke="#294064" stroke-miterlimit="10" stroke-linecap="round" stroke-linejoin="round"/>
<path d="M343.176 376.593C337.544 358.35 320.767 366.504 311.358 384.704C290.49 425.075 279.837 484.752 279.837 484.752" fill="#FFF2E0"/>
<path d="M343.176 376.593C337.544 358.35 320.767 366.504 311.358 384.704C290.49 425.075 279.837 484.752 279.837 484.752" stroke="#294064" stroke-miterlimit="10" stroke-linecap="round" stroke-linejoin="round"/>
<path d="M366.397 384.017C363.187 351.965 342.706 357.027 331.652 377.061C315.773 405.838 305.076 443.962 298.907 481.57" fill="#FFF2E0"/>
<path d="M366.397 384.017C363.187 351.965 342.706 357.027 331.652 377.061C315.773 405.838 305.076 443.962 298.907 481.57" stroke="#294064" stroke-miterlimit="10" stroke-linecap="round" stroke-linejoin="round"/>
<path d="M349.277 503.733C353.774 483.125 404.84 356.016 367.12 362.335C348.696 365.422 321.37 480.255 322.068 478.51" fill="#FFF2E0"/>
<path d="M349.277 503.733C353.774 483.125 404.84 356.016 367.12 362.335C348.696 365.422 321.37 480.255 322.068 478.51" stroke="#294064" stroke-miterlimit="10" stroke-linecap="round" stroke-linejoin="round"/>
<path d="M365.327 512.019C367.065 469.172 397.02 414.298 366.176 426.703C347.697 434.136 346.323 454.329 335.468 484.082C330.466 497.791 311.103 494.456 298.857 525.235" fill="#FFF2E0"/>
<path d="M365.327 512.019C367.065 469.172 397.019 414.298 366.177 426.703C347.697 434.136 346.323 454.329 335.468 484.082C330.466 497.791 311.103 494.456 298.857 525.235" stroke="#294064" stroke-miterlimit="10" stroke-linecap="round" stroke-linejoin="round"/>
<path d="M151.782 413.723C157.381 413.723 161.663 419.665 160.815 426.254L135.992 618.932C135.308 624.242 131.471 628.164 126.959 628.164H114.45C108.852 628.164 98.0153 623.101 98.8641 616.511L114.396 545.932C115.245 539.341 110.962 533.401 105.363 533.401H78.4792C73.9672 533.401 70.1306 537.322 69.4465 542.632L59.6177 618.932C58.9338 624.242 55.097 628.164 50.585 628.164L36.4725 627.896C30.8734 627.896 22.9375 624.005 23.7865 617.415L53.8663 422.955C54.5506 417.645 58.3872 413.723 62.8992 413.723L70.1707 410.526C75.7717 410.526 85.2868 419.668 84.4349 426.26L77.4757 480.108C76.6239 486.7 80.9069 492.645 86.5078 492.645H113.391C117.901 492.645 121.737 488.727 122.422 483.419L130.237 422.949C130.923 417.642 134.759 413.723 139.269 413.723H151.782Z" fill="#DB0233" stroke="#294064" stroke-miterlimit="10" stroke-linejoin="round"/>
<path d="M238.097 413.724C242.548 413.724 245.951 418.444 245.278 423.682L242.281 446.996C241.739 451.218 238.689 454.337 235.101 454.337H191.75C188.166 454.337 185.119 457.446 184.571 461.663L181.84 482.673C181.159 487.915 184.564 492.645 189.019 492.645L218.506 489.024C222.961 489.024 231.728 497.375 231.047 502.617L227.995 526.075C227.447 530.291 224.4 533.401 220.817 533.401H181.477C177.89 533.401 174.841 536.517 174.297 540.736L169.542 577.589C168.866 582.827 172.27 587.55 176.722 587.55L210.002 584.469C214.445 584.469 223.476 592.258 222.814 597.489L219.863 620.803C219.327 625.035 216.274 628.164 212.68 628.164H140.741C136.29 628.164 126.401 624.387 127.076 619.149L158.959 421.061C159.503 416.841 162.553 413.724 166.139 413.724H238.097Z" fill="#DB0233" stroke="#294064" stroke-miterlimit="10" stroke-linejoin="round"/>
<path d="M341.641 449.493C341.221 452.775 338.851 455.201 336.064 455.201H308.492C305.705 455.201 303.338 457.621 302.915 460.9L282.136 622.463C281.714 625.742 279.345 628.164 276.56 628.164H256.975C253.519 628.164 243.883 624.862 244.406 620.793L271.655 462.934C272.177 458.867 269.534 455.201 266.078 455.201H241.951C238.497 455.201 229.698 452.328 230.217 448.263L239.956 419.431C240.376 416.148 242.746 413.723 245.534 413.723L333.301 410.168C339.467 411.114 345.744 417.386 345.225 421.451L341.641 449.493Z" fill="#DB0233" stroke="#294064" stroke-miterlimit="10" stroke-linejoin="round"/>
<path d="M32.1899 602.623C32.498 600.401 34.398 598.746 36.6418 598.746H43.2635C45.9929 598.746 48.0922 601.159 47.7147 603.862L42.6034 640.46C42.2968 642.656 40.4344 644.3 38.2173 644.333L31.6209 644.428C28.8674 644.468 26.7258 642.045 27.1039 639.317L32.1899 602.623Z" fill="white" stroke="#294064" stroke-miterlimit="10" stroke-linejoin="round"/>
<mask id="mask0_1232_5188" style="mask-type:luminance" maskUnits="userSpaceOnUse" x="27" y="598" width="21" height="47">
<path d="M32.1899 602.624C32.498 600.402 34.398 598.747 36.6418 598.747H43.2635C45.9929 598.747 48.0922 601.16 47.7147 603.863L42.6034 640.461C42.2968 642.657 40.4344 644.301 38.2173 644.334L31.6209 644.429C28.8674 644.468 26.7258 642.046 27.1039 639.318L32.1899 602.624Z" fill="white"/>
</mask>
<g mask="url(#mask0_1232_5188)">
<path d="M24.1956 641.419C31.081 629.165 54.2471 638.236 45.4875 650.403C39.6985 658.444 16.8778 651.091 20.504 639.02" fill="#294064"/>
<path d="M24.1956 641.419C31.081 629.165 54.2471 638.236 45.4875 650.403C39.6985 658.444 16.8778 651.091 20.504 639.02" stroke="#294064" stroke-miterlimit="10" stroke-linecap="round" stroke-linejoin="round"/>
</g>
<path d="M108.503 602.323C108.81 600.101 110.711 598.446 112.954 598.446H119.576C122.306 598.446 124.405 600.859 124.027 603.562L118.916 640.159C118.609 642.355 116.747 644 114.53 644.032L107.934 644.127C105.18 644.167 103.038 641.744 103.416 639.017L108.503 602.323Z" fill="white" stroke="#294064" stroke-miterlimit="10" stroke-linejoin="round"/>
<mask id="mask1_1232_5188" style="mask-type:luminance" maskUnits="userSpaceOnUse" x="103" y="598" width="22" height="47">
<path d="M108.503 602.323C108.81 600.101 110.711 598.445 112.954 598.445H119.576C122.306 598.445 124.405 600.858 124.027 603.562L118.916 640.159C118.609 642.355 116.747 643.999 114.53 644.032L107.934 644.127C105.18 644.167 103.038 641.744 103.416 639.016L108.503 602.323Z" fill="white"/>
</mask>
<g mask="url(#mask1_1232_5188)">
<path d="M100.508 641.117C107.394 628.864 130.56 637.934 121.8 650.101C116.011 658.142 93.1903 650.79 96.8165 638.718" fill="#294064"/>
<path d="M100.508 641.117C107.394 628.864 130.56 637.934 121.8 650.101C116.011 658.142 93.1903 650.79 96.8165 638.718" stroke="#294064" stroke-miterlimit="10" stroke-linecap="round" stroke-linejoin="round"/>
</g>
<path d="M153.009 602.323C153.317 600.101 155.217 598.446 157.461 598.446H164.082C166.812 598.446 168.911 600.859 168.534 603.562L163.423 640.159C163.116 642.355 161.254 644 159.036 644.032L152.44 644.127C149.687 644.167 147.544 641.744 147.923 639.017L153.009 602.323Z" fill="white" stroke="#294064" stroke-miterlimit="10" stroke-linejoin="round"/>
<mask id="mask2_1232_5188" style="mask-type:luminance" maskUnits="userSpaceOnUse" x="147" y="598" width="22" height="47">
<path d="M153.009 602.323C153.317 600.101 155.217 598.445 157.461 598.445H164.082C166.812 598.445 168.911 600.858 168.534 603.562L163.423 640.159C163.116 642.355 161.254 643.999 159.036 644.032L152.44 644.127C149.687 644.167 147.544 641.744 147.923 639.016L153.009 602.323Z" fill="white"/>
</mask>
<g mask="url(#mask2_1232_5188)">
<path d="M145.015 641.117C151.9 628.864 175.066 637.934 166.307 650.101C160.517 658.142 137.697 650.79 141.323 638.718" fill="#294064"/>
<path d="M145.015 641.117C151.9 628.864 175.066 637.934 166.307 650.101C160.517 658.142 137.697 650.79 141.323 638.718" stroke="#294064" stroke-miterlimit="10" stroke-linecap="round" stroke-linejoin="round"/>
</g>
<path d="M175.672 602.323C175.98 600.101 177.88 598.446 180.124 598.446H186.745C189.475 598.446 191.574 600.859 191.197 603.562L186.086 640.159C185.779 642.355 183.917 644 181.699 644.032L175.103 644.127C172.35 644.167 170.208 641.744 170.587 639.017L175.672 602.323Z" fill="white" stroke="#294064" stroke-miterlimit="10" stroke-linejoin="round"/>
<mask id="mask3_1232_5188" style="mask-type:luminance" maskUnits="userSpaceOnUse" x="170" y="598" width="22" height="47">
<path d="M175.672 602.323C175.98 600.101 177.88 598.445 180.124 598.445H186.745C189.475 598.445 191.574 600.858 191.197 603.562L186.086 640.159C185.779 642.355 183.917 643.999 181.699 644.032L175.103 644.127C172.35 644.167 170.208 641.744 170.587 639.016L175.672 602.323Z" fill="white"/>
</mask>
<g mask="url(#mask3_1232_5188)">
<path d="M167.678 641.117C174.563 628.864 197.729 637.934 188.97 650.101C183.18 658.142 160.36 650.79 163.986 638.718" fill="#294064"/>
<path d="M167.678 641.117C174.563 628.864 197.729 637.934 188.97 650.101C183.18 658.142 160.36 650.79 163.986 638.718" stroke="#294064" stroke-miterlimit="10" stroke-linecap="round" stroke-linejoin="round"/>
</g>
<path d="M256.304 602.323C256.611 600.101 258.512 598.446 260.755 598.446H267.377C270.107 598.446 272.206 600.859 271.828 603.562L266.716 640.159C266.41 642.355 264.547 644 262.331 644.032L255.735 644.127C252.98 644.167 250.839 641.744 251.217 639.017L256.304 602.323Z" fill="white" stroke="#294064" stroke-miterlimit="10" stroke-linejoin="round"/>
<mask id="mask4_1232_5188" style="mask-type:luminance" maskUnits="userSpaceOnUse" x="251" y="598" width="21" height="47">
<path d="M256.304 602.323C256.611 600.101 258.512 598.445 260.755 598.445H267.377C270.107 598.445 272.206 600.858 271.828 603.562L266.716 640.159C266.41 642.355 264.547 643.999 262.331 644.032L255.735 644.127C252.98 644.167 250.839 641.744 251.217 639.016L256.304 602.323Z" fill="white"/>
</mask>
<g mask="url(#mask4_1232_5188)">
<path d="M248.31 641.117C255.195 628.864 278.36 637.934 269.6 650.101C263.812 658.142 240.991 650.79 244.617 638.718" fill="#294064"/>
<path d="M248.31 641.117C255.195 628.864 278.36 637.934 269.6 650.101C263.812 658.142 240.991 650.79 244.617 638.718" stroke="#294064" stroke-miterlimit="10" stroke-linecap="round" stroke-linejoin="round"/>
</g>
<path d="M142.961 409.648C148.56 409.648 152.842 415.59 151.994 422.18L127.171 614.857C126.487 620.167 122.65 624.089 118.138 624.089H105.63C100.03 624.089 95.7477 618.147 96.5966 611.557L105.576 541.857C106.424 535.266 102.142 529.326 96.5425 529.326H69.6583C65.1463 529.326 61.3097 533.247 60.6256 538.557L50.7969 614.857C50.1129 620.167 46.2761 624.089 41.7641 624.089H29.2556C23.6564 624.089 19.3739 618.147 20.2228 611.557L45.0455 418.88C45.7297 413.57 49.5663 409.648 54.0783 409.648H66.5819C72.1828 409.648 76.4659 415.593 75.614 422.184L68.6549 476.033C67.8031 482.625 72.0861 488.569 77.687 488.569H104.569C109.08 488.569 112.916 484.652 113.602 479.343L121.416 418.875C122.103 413.567 125.938 409.648 130.448 409.648H142.961Z" fill="#FF4A69" stroke="#294064" stroke-miterlimit="10" stroke-linejoin="round"/>
<path d="M229.277 409.648C233.727 409.648 237.13 414.369 236.457 419.607L233.461 442.921C232.918 447.142 229.868 450.261 226.28 450.261H182.928C179.346 450.261 176.298 453.371 175.75 457.588L173.019 478.598C172.337 483.839 175.743 488.569 180.198 488.569H215.046C219.501 488.569 222.907 493.3 222.225 498.542L219.174 522C218.627 526.216 215.579 529.326 211.996 529.326H172.656C169.07 529.326 166.02 532.442 165.476 536.661L160.721 573.513C160.045 578.752 163.449 583.475 167.901 583.475H206.81C211.252 583.475 214.654 588.183 213.993 593.413L211.042 616.728C210.506 620.96 207.453 624.089 203.86 624.089H131.921C127.47 624.089 124.066 619.366 124.741 614.127L150.139 416.986C150.682 412.766 153.732 409.648 157.319 409.648H229.277Z" fill="#FF4A69" stroke="#294064" stroke-miterlimit="10" stroke-linejoin="round"/>
<path d="M332.82 445.418C332.401 448.7 330.031 451.126 327.243 451.126H299.671C296.885 451.126 294.516 453.546 294.094 456.825L273.315 618.388C272.893 621.667 270.524 624.089 267.739 624.089H248.154C244.697 624.089 242.054 620.422 242.577 616.354L262.833 458.859C263.357 454.791 260.713 451.126 257.257 451.126H233.129C229.675 451.126 227.033 447.463 227.553 443.398L231.136 415.356C231.555 412.073 233.925 409.648 236.713 409.648H330.827C334.28 409.648 336.923 413.311 336.404 417.376L332.82 445.418Z" fill="#FF4A69" stroke="#294064" stroke-miterlimit="10" stroke-linejoin="round"/>
<path d="M275.477 423.213C276.388 420.734 278.708 419.306 280.659 420.023C282.61 420.741 283.454 423.331 282.541 425.81C281.63 428.289 279.31 429.717 277.359 429C275.408 428.282 274.566 425.691 275.477 423.213Z" fill="white" stroke="#294064" stroke-miterlimit="10" stroke-linejoin="round"/>
<path d="M288.344 423.275C289.255 420.797 291.575 419.369 293.526 420.087C295.477 420.804 296.32 423.395 295.408 425.874C294.497 428.352 292.177 429.781 290.226 429.063C288.275 428.346 287.431 425.754 288.344 423.275Z" fill="white" stroke="#294064" stroke-miterlimit="10" stroke-linejoin="round"/>
<path d="M283.488 433.116C283.488 432.252 284.189 431.552 285.053 431.552C285.915 431.552 286.616 432.252 286.616 433.116C286.616 433.979 285.915 434.679 285.053 434.679C284.189 434.679 283.488 433.979 283.488 433.116Z" fill="#FF4A69" stroke="#294064" stroke-miterlimit="10" stroke-linejoin="round"/>
<path d="M278.423 424.762C278.97 423.275 280.362 422.418 281.533 422.849C282.704 423.278 283.21 424.833 282.662 426.321C282.116 427.808 280.723 428.665 279.553 428.234C278.382 427.803 277.876 426.25 278.423 424.762Z" fill="#294064" stroke="#294064" stroke-miterlimit="10" stroke-linejoin="round"/>
<path d="M290.927 424.61C291.474 423.122 292.867 422.266 294.037 422.697C295.208 423.127 295.714 424.681 295.166 426.169C294.62 427.656 293.227 428.513 292.057 428.082C290.886 427.652 290.38 426.097 290.927 424.61Z" fill="#294064" stroke="#294064" stroke-miterlimit="10" stroke-linejoin="round"/>
<path d="M277.69 440.57C281.165 438.143 288.824 438.346 291.506 440.645" stroke="#294064" stroke-miterlimit="10" stroke-linecap="round" stroke-linejoin="round"/>
<path d="M182.047 423.147C182.958 420.67 185.278 419.241 187.229 419.959C189.18 420.676 190.022 423.267 189.111 425.746C188.2 428.224 185.88 429.652 183.929 428.935C181.977 428.218 181.134 425.626 182.047 423.147Z" fill="white" stroke="#294064" stroke-miterlimit="10" stroke-linejoin="round"/>
<path d="M194.912 423.212C195.825 420.733 198.145 419.305 200.096 420.022C202.047 420.74 202.889 423.33 201.978 425.809C201.067 428.288 198.746 429.716 196.795 428.999C194.844 428.281 194.001 425.69 194.912 423.212Z" fill="white" stroke="#294064" stroke-miterlimit="10" stroke-linejoin="round"/>
<path d="M190.058 433.051C190.058 432.189 190.758 431.488 191.622 431.488C192.485 431.488 193.186 432.189 193.186 433.051C193.186 433.915 192.485 434.616 191.622 434.616C190.758 434.616 190.058 433.915 190.058 433.051Z" fill="#FF4A69" stroke="#294064" stroke-miterlimit="10" stroke-linejoin="round"/>
<path d="M184.993 424.697C185.539 423.211 186.932 422.353 188.103 422.784C189.273 423.215 189.78 424.77 189.232 426.257C188.686 427.744 187.293 428.601 186.123 428.171C184.951 427.74 184.446 426.185 184.993 424.697Z" fill="#294064" stroke="#294064" stroke-miterlimit="10" stroke-linejoin="round"/>
<path d="M197.497 424.544C198.044 423.057 199.436 422.2 200.607 422.63C201.777 423.061 202.284 424.616 201.736 426.103C201.19 427.591 199.797 428.447 198.627 428.016C197.455 427.586 196.95 426.031 197.497 424.544Z" fill="#294064" stroke="#294064" stroke-miterlimit="10" stroke-linejoin="round"/>
<path d="M184.26 440.505C187.735 438.08 195.394 438.281 198.076 440.581" stroke="#294064" stroke-miterlimit="10" stroke-linecap="round" stroke-linejoin="round"/>
<path d="M77.2229 501.242C78.1343 498.763 80.4548 497.335 82.4058 498.052C84.3568 498.77 85.1995 501.361 84.288 503.84C83.3766 506.319 81.0561 507.746 79.1051 507.028C77.1541 506.311 76.3114 503.72 77.2229 501.242Z" fill="white" stroke="#294064" stroke-miterlimit="10" stroke-linejoin="round"/>
<path d="M90.0896 501.305C91.0011 498.827 93.3216 497.398 95.2725 498.116C97.2236 498.833 98.0663 501.425 97.1548 503.902C96.2433 506.381 93.9228 507.809 91.9719 507.092C90.0208 506.374 89.1781 503.784 90.0896 501.305Z" fill="white" stroke="#294064" stroke-miterlimit="10" stroke-linejoin="round"/>
<path d="M85.2347 511.144C85.2347 510.28 85.9348 509.58 86.7986 509.58C87.6623 509.58 88.3625 510.28 88.3625 511.144C88.3625 512.008 87.6623 512.708 86.7986 512.708C85.9348 512.708 85.2347 512.008 85.2347 511.144Z" fill="#FF4A69" stroke="#294064" stroke-miterlimit="10" stroke-linejoin="round"/>
<path d="M80.1694 502.791C80.7164 501.303 82.1088 500.447 83.2795 500.878C84.4503 501.308 84.9559 502.863 84.4089 504.35C83.862 505.837 82.4696 506.694 81.2989 506.264C80.1282 505.833 79.6225 504.278 80.1694 502.791Z" fill="#294064" stroke="#294064" stroke-miterlimit="10" stroke-linejoin="round"/>
<path d="M92.6737 502.638C93.2207 501.15 94.6131 500.294 95.7838 500.724C96.9545 501.155 97.4602 502.709 96.9132 504.196C96.3663 505.684 94.9739 506.54 93.8032 506.11C92.6325 505.68 92.1268 504.125 92.6737 502.638Z" fill="#294064" stroke="#294064" stroke-miterlimit="10" stroke-linejoin="round"/>
<path d="M79.4364 518.599C82.9107 516.173 90.5709 516.375 93.2526 518.675" stroke="#294064" stroke-miterlimit="10" stroke-linecap="round" stroke-linejoin="round"/>
<path d="M50.2004 419.817L44.6901 464.611" stroke="#294064" stroke-miterlimit="10" stroke-linecap="round" stroke-linejoin="round"/>
<path d="M43.7047 471.383L40.2119 495.395" stroke="#294064" stroke-miterlimit="10" stroke-linecap="round" stroke-linejoin="round"/>
<path d="M141.843 521.583L134.436 574.633" stroke="#294064" stroke-miterlimit="10" stroke-linecap="round" stroke-linejoin="round"/>
<path d="M133.627 581.168L131.694 595.742" stroke="#294064" stroke-miterlimit="10" stroke-linecap="round" stroke-linejoin="round"/>
<path d="M235.035 417.061L232.747 434.463" stroke="#294064" stroke-miterlimit="10" stroke-linecap="round" stroke-linejoin="round"/>
</g>
</g>
<defs>
<radialGradient id="paint0_radial_1232_5188" cx="0" cy="0" r="1" gradientUnits="userSpaceOnUse" gradientTransform="translate(831 888) rotate(118.185) scale(847.513 524.456)">
<stop stop-color="#E7012A"/>
<stop offset="1" stop-color="#5815A3"/>
</radialGradient>
<clipPath id="clip0_1232_5188">
<path d="M0 0H414V841C414 852.046 405.046 861 394 861H20C8.95432 861 0 852.046 0 841V0Z" fill="white"/>
</clipPath>
<clipPath id="clip1_1232_5188">
<path d="M0 0H414V841C414 852.046 405.046 861 394 861H20C8.95432 861 0 852.046 0 841V0Z" fill="white"/>
</clipPath>
<clipPath id="clip2_1232_5188">
<rect width="107" height="25" fill="white" transform="translate(234 708)"/>
</clipPath>
</defs>
</svg>
