<svg width="414" height="861" viewBox="0 0 414 861" fill="none" xmlns="http://www.w3.org/2000/svg">
<g clip-path="url(#clip0_1177_2569)">
<path d="M0 0H414V841C414 852.046 405.046 861 394 861H20C8.95432 861 0 852.046 0 841V0Z" fill="#EF6A82"/>
<rect x="415" y="888" width="416" height="888" transform="rotate(-180 415 888)" fill="url(#paint0_radial_1177_2569)"/>
<path fill-rule="evenodd" clip-rule="evenodd" d="M99.1203 733.449L93.3983 746.397H91.0034V733.449H71.7939L71.7947 733.449C68.5919 733.474 65.031 734.102 62.246 736.49C59.2494 739.058 58.2169 742.719 58.2169 746.478C58.2169 750.237 59.2469 753.91 62.2674 756.47C65.1196 758.888 68.7734 759.463 71.9946 759.463C72.0472 759.463 72.1039 759.463 72.1039 759.463C72.1049 759.463 72.1049 759.463 72.1057 759.463C72.1049 759.463 72.1053 759.463 72.1057 759.463L87.6907 759.459H101.955L103.799 755.301H105.198L107.034 759.459H126.071V756.025C126.229 756.177 126.393 756.326 126.564 756.47C129.416 758.888 133.07 759.463 136.292 759.463C136.44 759.463 136.588 759.461 136.737 759.459H167.566V733.449H99.1203Z" fill="#E1012E"/>
<path fill-rule="evenodd" clip-rule="evenodd" d="M99.1566 733.175L93.3991 746.393H90.9894V733.175H71.661L71.6618 733.176C68.4392 733.201 64.8563 733.842 62.054 736.279C59.0389 738.902 58 742.638 58 746.476C58 750.313 59.0363 754.063 62.0756 756.677C64.9454 759.145 68.6218 759.732 71.863 759.732C71.9159 759.732 71.9729 759.732 71.9729 759.732C71.974 759.732 71.974 759.732 71.9747 759.732C71.974 759.732 71.9743 759.732 71.9747 759.732L87.6562 759.728H102.008L103.864 755.483H105.272L107.12 759.728H126.274V756.222C126.433 756.377 126.598 756.529 126.77 756.677C129.64 759.145 133.317 759.732 136.558 759.732C136.707 759.732 136.856 759.73 137.006 759.728H168.026V733.175H99.1566ZM80.0375 749.538C80.0342 749.557 80.0305 749.575 80.0269 749.594C80.0192 749.636 80.0115 749.678 80.0031 749.719C79.9984 749.742 79.9933 749.764 79.9885 749.787C79.9809 749.824 79.9732 749.86 79.9652 749.896C79.9597 749.921 79.9535 749.946 79.9476 749.97C79.9396 750.003 79.9319 750.036 79.9235 750.069C79.9155 750.1 79.9075 750.131 79.8991 750.161C79.8929 750.185 79.8867 750.208 79.8801 750.231C79.8713 750.263 79.8618 750.293 79.8527 750.324C79.8461 750.346 79.8399 750.369 79.833 750.391C79.8231 750.422 79.8125 750.454 79.8023 750.486C79.7957 750.506 79.7892 750.527 79.7822 750.547C79.7705 750.581 79.7585 750.615 79.7461 750.649C79.7402 750.666 79.7344 750.683 79.7282 750.7C79.7096 750.75 79.6906 750.799 79.6708 750.848C79.6665 750.86 79.6617 750.87 79.657 750.881C79.6416 750.919 79.6259 750.957 79.6099 750.994C79.6015 751.013 79.5923 751.033 79.5839 751.052C79.5712 751.08 79.5587 751.109 79.5456 751.137C79.5357 751.158 79.5255 751.178 79.5153 751.199C79.5029 751.225 79.4905 751.251 79.4777 751.276C79.4667 751.297 79.4558 751.318 79.4444 751.339C79.4317 751.363 79.4192 751.388 79.4065 751.412C79.3948 751.433 79.3827 751.454 79.3707 751.476C79.3579 751.499 79.3451 751.522 79.3316 751.545C79.3192 751.566 79.3064 751.587 79.2936 751.608C79.2801 751.63 79.267 751.652 79.2535 751.674C79.2403 751.695 79.2272 751.715 79.2137 751.736C79.1998 751.757 79.1859 751.779 79.172 751.8C79.1582 751.821 79.1443 751.841 79.1304 751.861C79.1162 751.882 79.1019 751.903 79.0873 751.923C79.0731 751.943 79.0581 751.963 79.0435 751.983C79.0285 752.003 79.0139 752.023 78.9989 752.043C78.984 752.063 78.9686 752.082 78.9533 752.102C78.938 752.121 78.9226 752.141 78.9069 752.16C78.8912 752.179 78.8755 752.198 78.8595 752.217C78.8438 752.236 78.8277 752.255 78.8116 752.273C78.7952 752.292 78.7788 752.311 78.7623 752.329C78.7459 752.348 78.7295 752.366 78.7127 752.384C78.6959 752.402 78.6787 752.421 78.6615 752.439C78.6447 752.456 78.6276 752.474 78.6104 752.491C78.5929 752.509 78.5754 752.527 78.5578 752.544C78.5403 752.562 78.5228 752.579 78.5049 752.596C78.487 752.613 78.4687 752.63 78.4505 752.647C78.4322 752.664 78.414 752.681 78.3957 752.697C78.3771 752.714 78.3585 752.731 78.3398 752.747C78.3212 752.763 78.3022 752.78 78.2829 752.796C78.2639 752.812 78.2449 752.828 78.2255 752.844C78.2062 752.86 78.1865 752.876 78.1664 752.891C78.147 752.907 78.1273 752.922 78.1076 752.938C78.0875 752.953 78.0667 752.969 78.0462 752.984C78.0265 752.999 78.0064 753.014 77.9864 753.029C77.9655 753.044 77.944 753.059 77.9228 753.074C77.9024 753.088 77.8823 753.102 77.8618 753.117C77.8399 753.132 77.8176 753.146 77.7954 753.161C77.7749 753.174 77.7545 753.188 77.734 753.201C77.711 753.216 77.6877 753.231 77.6639 753.245C77.6435 753.258 77.623 753.271 77.6026 753.283C77.5781 753.298 77.5529 753.312 77.5281 753.327C77.508 753.339 77.4883 753.351 77.4678 753.362C77.4408 753.377 77.4131 753.392 77.3857 753.407C77.2294 753.493 77.0669 753.573 76.8978 753.648C75.6019 754.22 73.9228 754.478 71.8622 754.478C66.6131 754.478 63.5256 752.563 63.2696 747.217C63.258 746.977 63.2525 746.73 63.2525 746.475C63.2525 746.189 63.2598 745.912 63.2744 745.643C63.5614 740.381 66.6434 738.427 71.8622 738.427C73.906 738.427 75.5814 738.681 76.8752 739.248C77.061 739.329 77.2385 739.418 77.4083 739.512C77.4309 739.525 77.454 739.537 77.4766 739.55C77.5018 739.564 77.5266 739.579 77.5515 739.594C77.5734 739.607 77.5953 739.62 77.6168 739.633C77.6416 739.648 77.6661 739.664 77.6906 739.68C77.7114 739.693 77.7326 739.706 77.7534 739.72C77.7775 739.735 77.8009 739.751 77.8242 739.767C77.8447 739.781 77.8659 739.795 77.8859 739.809C77.9097 739.825 77.9327 739.843 77.956 739.859C77.9758 739.874 77.9955 739.888 78.0148 739.902C78.0382 739.919 78.0608 739.937 78.0839 739.955C78.1025 739.969 78.1215 739.983 78.1401 739.998C78.1624 740.016 78.1843 740.034 78.2065 740.052C78.2248 740.067 78.2434 740.082 78.2617 740.098C78.2829 740.115 78.3037 740.134 78.3249 740.153C78.3431 740.169 78.3617 740.184 78.3796 740.201C78.4001 740.219 78.4198 740.238 78.4399 740.256C78.4578 740.273 78.476 740.29 78.4936 740.306C78.5133 740.325 78.5323 740.345 78.5516 740.364C78.5688 740.381 78.5863 740.398 78.6035 740.416C78.6221 740.435 78.64 740.455 78.6583 740.474C78.6754 740.492 78.6929 740.51 78.7097 740.529C78.7273 740.548 78.7444 740.568 78.762 740.588C78.7788 740.607 78.7955 740.626 78.812 740.645C78.8288 740.665 78.8452 740.685 78.8616 740.706C78.8777 740.725 78.8945 740.745 78.9102 740.765C78.9263 740.785 78.942 740.806 78.9577 740.826C78.9734 740.847 78.9895 740.867 79.0048 740.888C79.0205 740.909 79.0351 740.93 79.0504 740.952C79.0654 740.973 79.0807 740.993 79.0953 741.015C79.1096 741.035 79.1231 741.056 79.137 741.078C79.1519 741.1 79.1673 741.123 79.1823 741.146C79.1954 741.166 79.2075 741.186 79.2202 741.207C79.2352 741.231 79.2505 741.255 79.2651 741.28C79.2776 741.3 79.2892 741.322 79.3017 741.343C79.3159 741.368 79.3305 741.392 79.3444 741.417C79.3561 741.438 79.3674 741.46 79.3787 741.481C79.3926 741.507 79.4065 741.532 79.4196 741.558C79.4306 741.58 79.4412 741.602 79.4517 741.623C79.4649 741.65 79.4784 741.676 79.4912 741.703C79.5014 741.725 79.5113 741.747 79.5215 741.769C79.5339 741.796 79.5467 741.823 79.5591 741.851C79.5686 741.873 79.5777 741.896 79.5872 741.918C79.5993 741.946 79.6113 741.974 79.623 742.003C79.6321 742.026 79.6409 742.05 79.65 742.073C79.661 742.102 79.6723 742.13 79.6829 742.159C79.6917 742.183 79.6997 742.207 79.7081 742.231C79.7183 742.26 79.7289 742.289 79.7388 742.318C79.7468 742.343 79.7541 742.367 79.7621 742.391C79.7716 742.421 79.7815 742.451 79.791 742.482C79.7986 742.507 79.8056 742.532 79.8129 742.558C79.8217 742.588 79.8308 742.618 79.8392 742.649C79.8465 742.676 79.8531 742.703 79.8604 742.73C79.868 742.76 79.8761 742.789 79.8834 742.819C79.8903 742.848 79.8965 742.877 79.9031 742.905C79.91 742.935 79.917 742.964 79.9235 742.994C79.9305 743.026 79.9367 743.058 79.9433 743.091C79.9487 743.118 79.9546 743.145 79.9601 743.173C79.9604 743.175 79.9611 743.178 79.9615 743.181C79.9714 743.232 79.9805 743.285 79.9893 743.338C79.9918 743.354 79.9944 743.37 79.9973 743.386C80.0039 743.428 80.0104 743.47 80.0166 743.512C80.0188 743.528 80.0214 743.544 80.0236 743.56C80.0316 743.617 80.0389 743.674 80.0459 743.732H76.8763C76.4717 741.507 74.8306 740.878 71.8633 740.878C68.559 740.878 66.4232 741.979 66.4232 745.643V747.217C66.4232 750.814 68.5137 752.027 71.8633 752.027C74.7182 752.027 76.3818 751.488 76.8989 749.352H80.0685C80.059 749.415 80.0488 749.476 80.0378 749.537L80.0375 749.538ZM95.2223 754.209H83.86H82.5888V738.698H85.7362V751.646H95.2227V754.209H95.2223ZM112.62 754.209H110.446L108.715 750.23H100.421L98.6899 754.209H95.7226L99.1777 746.393L102.579 738.698H106.895L112.62 751.693L113.729 754.21H112.62L112.62 754.209ZM127.359 741.261H123.473H121.02V754.209H117.874V741.261H111.534V738.698H127.36V741.261H127.359ZM144.697 749.726C144.696 749.73 144.695 749.733 144.695 749.737C144.683 749.793 144.671 749.849 144.659 749.904C144.657 749.913 144.655 749.921 144.652 749.93C144.641 749.98 144.629 750.029 144.617 750.077C144.612 750.095 144.607 750.111 144.603 750.128C144.594 750.165 144.584 750.201 144.573 750.237C144.568 750.257 144.562 750.276 144.557 750.295C144.547 750.328 144.537 750.362 144.527 750.395C144.52 750.417 144.513 750.438 144.506 750.46C144.496 750.49 144.487 750.52 144.477 750.55C144.468 750.576 144.458 750.601 144.449 750.627C144.441 750.652 144.432 750.677 144.423 750.701C144.405 750.751 144.386 750.8 144.366 750.849C144.363 750.857 144.359 750.865 144.357 750.873C144.34 750.914 144.323 750.955 144.305 750.996C144.299 751.01 144.292 751.024 144.286 751.038C144.271 751.072 144.256 751.106 144.24 751.139C144.233 751.155 144.225 751.171 144.217 751.188C144.202 751.218 144.187 751.248 144.173 751.278C144.164 751.296 144.155 751.313 144.145 751.33C144.131 751.358 144.116 751.386 144.101 751.415C144.091 751.432 144.081 751.45 144.071 751.468C144.056 751.494 144.041 751.521 144.026 751.547C144.016 751.565 144.005 751.583 143.994 751.601C143.979 751.626 143.964 751.652 143.948 751.676C143.937 751.695 143.925 751.713 143.913 751.731C143.898 751.755 143.882 751.779 143.867 751.802C143.854 751.821 143.842 751.839 143.829 751.857C143.813 751.88 143.797 751.903 143.781 751.925C143.768 751.944 143.755 751.962 143.742 751.98C143.726 752.002 143.709 752.024 143.693 752.045C143.679 752.063 143.665 752.082 143.651 752.1C143.634 752.121 143.618 752.141 143.601 752.162C143.586 752.18 143.571 752.198 143.556 752.216C143.54 752.236 143.523 752.256 143.506 752.275C143.491 752.293 143.475 752.311 143.459 752.329C143.442 752.348 143.425 752.366 143.408 752.385C143.391 752.403 143.374 752.421 143.357 752.439C143.341 752.457 143.324 752.474 143.306 752.492C143.289 752.51 143.271 752.528 143.253 752.545C143.236 752.562 143.219 752.579 143.201 752.596C143.183 752.614 143.164 752.631 143.145 752.649C143.128 752.665 143.11 752.681 143.093 752.696C143.073 752.714 143.054 752.732 143.034 752.749C143.016 752.764 142.999 752.779 142.981 752.794C142.961 752.811 142.94 752.829 142.919 752.846C142.901 752.86 142.884 752.875 142.866 752.888C142.845 752.906 142.823 752.923 142.801 752.94C142.784 752.953 142.766 752.967 142.748 752.98C142.725 752.997 142.703 753.014 142.679 753.031C142.662 753.043 142.645 753.056 142.628 753.068C142.603 753.085 142.579 753.102 142.554 753.119C142.538 753.13 142.521 753.141 142.503 753.153C142.478 753.17 142.452 753.187 142.426 753.204C142.41 753.214 142.393 753.224 142.377 753.234C142.349 753.251 142.322 753.269 142.294 753.285C142.279 753.294 142.264 753.303 142.248 753.312C142.219 753.33 142.189 753.347 142.159 753.365C142.147 753.371 142.134 753.378 142.121 753.385C141.952 753.479 141.776 753.567 141.593 753.648C140.297 754.22 138.618 754.478 136.557 754.478C131.308 754.478 128.221 752.564 127.965 747.217C127.954 746.977 127.948 746.73 127.948 746.476C127.948 746.14 127.958 745.816 127.978 745.504C127.979 745.485 127.981 745.466 127.982 745.447C127.985 745.401 127.989 745.354 127.993 745.308C127.995 745.282 127.997 745.257 127.999 745.231C128.002 745.187 128.006 745.143 128.011 745.099C128.013 745.073 128.016 745.047 128.019 745.02C128.023 744.977 128.028 744.934 128.033 744.891C128.035 744.869 128.038 744.847 128.041 744.825C128.05 744.745 128.061 744.666 128.071 744.587C128.075 744.56 128.079 744.533 128.083 744.506C128.088 744.468 128.094 744.431 128.1 744.393C128.105 744.364 128.11 744.334 128.115 744.305C128.121 744.269 128.127 744.233 128.133 744.197C128.139 744.167 128.144 744.136 128.15 744.106C128.157 744.072 128.163 744.038 128.169 744.004C128.176 743.969 128.184 743.935 128.191 743.901C128.201 743.852 128.212 743.803 128.223 743.754C128.231 743.717 128.24 743.679 128.249 743.641C128.256 743.612 128.263 743.583 128.27 743.554C128.279 743.521 128.287 743.488 128.296 743.456C128.303 743.427 128.311 743.398 128.319 743.37C128.328 743.337 128.337 743.304 128.347 743.271C128.354 743.244 128.362 743.217 128.37 743.191C128.382 743.151 128.394 743.112 128.406 743.074C128.413 743.054 128.419 743.033 128.425 743.013C128.443 742.959 128.461 742.905 128.48 742.852C128.487 742.83 128.495 742.809 128.503 742.787C128.515 742.752 128.528 742.716 128.541 742.682C128.55 742.659 128.559 742.637 128.567 742.614C128.581 742.58 128.594 742.546 128.608 742.512C128.616 742.491 128.625 742.47 128.633 742.45C128.65 742.409 128.667 742.368 128.685 742.328C128.69 742.316 128.696 742.303 128.701 742.29C128.725 742.238 128.748 742.186 128.773 742.135C128.78 742.121 128.787 742.106 128.794 742.092C128.812 742.054 128.831 742.017 128.849 741.981C128.858 741.963 128.867 741.946 128.876 741.929C128.894 741.894 128.912 741.86 128.931 741.826C128.94 741.81 128.948 741.794 128.957 741.778C128.98 741.739 129.002 741.699 129.025 741.66C129.03 741.651 129.035 741.642 129.041 741.633C129.069 741.585 129.099 741.537 129.129 741.489C129.134 741.481 129.139 741.473 129.144 741.465C129.169 741.427 129.194 741.388 129.22 741.35C129.229 741.337 129.237 741.324 129.246 741.312C129.27 741.276 129.295 741.241 129.32 741.206C129.326 741.197 129.332 741.188 129.339 741.179C129.371 741.135 129.404 741.091 129.436 741.048C129.438 741.047 129.439 741.045 129.44 741.044C129.471 741.003 129.503 740.964 129.535 740.925C129.543 740.914 129.551 740.904 129.56 740.894C129.588 740.86 129.617 740.826 129.646 740.793C129.652 740.786 129.658 740.779 129.664 740.772C129.698 740.733 129.733 740.693 129.769 740.655C129.776 740.647 129.784 740.639 129.791 740.632C129.82 740.601 129.849 740.57 129.879 740.54C129.889 740.53 129.899 740.52 129.909 740.511C129.944 740.475 129.981 740.439 130.017 740.404C130.019 740.403 130.019 740.402 130.02 740.401C130.058 740.366 130.097 740.33 130.136 740.295C130.146 740.286 130.156 740.277 130.166 740.268C130.197 740.241 130.228 740.214 130.26 740.188C130.269 740.18 130.279 740.172 130.288 740.164C130.328 740.13 130.369 740.098 130.41 740.065C130.416 740.06 130.423 740.055 130.429 740.05C130.464 740.023 130.499 739.996 130.535 739.97C130.547 739.961 130.559 739.952 130.571 739.943C130.606 739.917 130.643 739.891 130.679 739.866C130.686 739.861 130.693 739.856 130.699 739.851C130.742 739.822 130.786 739.793 130.83 739.764C130.84 739.756 130.851 739.75 130.862 739.743C130.897 739.72 130.932 739.698 130.967 739.676C130.98 739.669 130.992 739.661 131.004 739.654C131.049 739.626 131.095 739.599 131.141 739.573C131.144 739.571 131.146 739.57 131.15 739.568C131.193 739.543 131.237 739.519 131.281 739.495C131.294 739.488 131.308 739.481 131.322 739.473C131.359 739.454 131.396 739.434 131.434 739.415C131.445 739.409 131.457 739.403 131.468 739.398C131.516 739.374 131.564 739.35 131.612 739.327C131.624 739.322 131.636 739.316 131.647 739.311C131.686 739.293 131.725 739.276 131.763 739.258C131.779 739.251 131.794 739.245 131.81 739.238C131.853 739.219 131.896 739.201 131.94 739.182C131.948 739.179 131.955 739.176 131.963 739.173C132.013 739.152 132.063 739.132 132.115 739.113C132.131 739.107 132.147 739.101 132.163 739.094C132.201 739.08 132.239 739.066 132.278 739.052C132.294 739.047 132.311 739.04 132.327 739.035C132.379 739.016 132.431 738.999 132.483 738.982C132.495 738.978 132.508 738.974 132.521 738.97C133.67 738.597 135.02 738.427 136.556 738.427C138.6 738.427 140.275 738.681 141.569 739.248C141.767 739.335 141.956 739.429 142.136 739.531C142.147 739.537 142.159 739.543 142.17 739.549C142.207 739.571 142.243 739.593 142.28 739.614C142.29 739.621 142.3 739.626 142.31 739.632C142.347 739.655 142.383 739.678 142.419 739.702C142.428 739.708 142.437 739.713 142.446 739.719C142.482 739.742 142.517 739.766 142.552 739.79C142.561 739.796 142.57 739.802 142.579 739.808C142.613 739.832 142.647 739.857 142.68 739.881C142.69 739.888 142.699 739.894 142.708 739.901C142.741 739.926 142.774 739.951 142.806 739.977C142.815 739.984 142.824 739.99 142.833 739.997C142.865 740.022 142.895 740.047 142.925 740.073C142.935 740.081 142.945 740.088 142.955 740.097C142.984 740.122 143.012 740.147 143.041 740.172C143.051 740.181 143.062 740.19 143.072 740.199C143.1 740.224 143.127 740.25 143.154 740.276C143.165 740.286 143.176 740.295 143.186 740.306C143.212 740.33 143.237 740.356 143.262 740.381C143.273 740.393 143.285 740.404 143.296 740.415C143.319 740.439 143.342 740.464 143.365 740.488C143.377 740.502 143.39 740.515 143.402 740.528C143.424 740.552 143.444 740.576 143.465 740.599C143.478 740.615 143.492 740.629 143.505 740.645C143.524 740.667 143.542 740.691 143.561 740.713C143.575 740.73 143.589 740.748 143.603 740.765C143.62 740.787 143.637 740.809 143.654 740.831C143.669 740.85 143.684 740.869 143.698 740.888C143.714 740.91 143.728 740.931 143.743 740.952C143.758 740.974 143.774 740.994 143.789 741.016C143.803 741.036 143.816 741.056 143.83 741.077C143.845 741.1 143.861 741.123 143.876 741.146C143.888 741.165 143.9 741.185 143.912 741.205C143.928 741.23 143.944 741.255 143.959 741.28C143.969 741.299 143.98 741.317 143.991 741.336C144.006 741.363 144.022 741.39 144.037 741.417C144.048 741.436 144.058 741.456 144.068 741.475C144.083 741.503 144.098 741.53 144.113 741.559C144.123 741.579 144.133 741.6 144.143 741.62C144.157 741.648 144.171 741.675 144.184 741.703C144.194 741.725 144.204 741.747 144.214 741.769C144.227 741.796 144.24 741.824 144.252 741.851C144.263 741.876 144.273 741.901 144.283 741.926C144.294 741.952 144.305 741.977 144.315 742.003C144.328 742.034 144.339 742.066 144.351 742.097C144.359 742.118 144.367 742.138 144.375 742.158C144.389 742.196 144.402 742.235 144.415 742.274C144.42 742.288 144.426 742.303 144.431 742.318C144.448 742.369 144.464 742.421 144.48 742.474C144.481 742.476 144.482 742.478 144.483 742.48C144.549 742.7 144.606 742.93 144.652 743.171C144.654 743.185 144.657 743.199 144.659 743.212C144.667 743.251 144.674 743.29 144.68 743.329C144.684 743.351 144.687 743.374 144.691 743.396C144.697 743.432 144.702 743.468 144.707 743.503C144.71 743.523 144.713 743.543 144.716 743.563C144.724 743.618 144.731 743.675 144.738 743.731H141.568C141.163 741.506 139.523 740.876 136.555 740.876C134.911 740.876 133.557 741.149 132.61 741.874C132.61 741.874 132.609 741.875 132.609 741.875C132.582 741.896 132.555 741.917 132.529 741.939C132.526 741.941 132.523 741.943 132.52 741.946C132.495 741.966 132.47 741.988 132.445 742.01C132.441 742.013 132.438 742.016 132.434 742.019C132.41 742.039 132.387 742.061 132.363 742.083C132.359 742.087 132.354 742.091 132.35 742.095C132.328 742.116 132.306 742.137 132.284 742.159C132.279 742.164 132.274 742.168 132.269 742.173C132.248 742.194 132.227 742.216 132.207 742.237C132.201 742.243 132.196 742.249 132.19 742.255C132.171 742.276 132.152 742.297 132.132 742.319C132.127 742.326 132.12 742.332 132.114 742.339C132.096 742.36 132.078 742.382 132.06 742.403C132.054 742.411 132.047 742.418 132.041 742.427C132.024 742.447 132.008 742.469 131.991 742.49C131.984 742.499 131.977 742.508 131.97 742.517C131.954 742.538 131.939 742.559 131.924 742.58C131.917 742.59 131.909 742.6 131.902 742.61C131.887 742.63 131.874 742.651 131.859 742.672C131.852 742.684 131.844 742.695 131.836 742.706C131.823 742.726 131.81 742.747 131.797 742.768C131.789 742.78 131.781 742.792 131.773 742.805C131.761 742.825 131.749 742.846 131.737 742.867C131.729 742.88 131.721 742.893 131.713 742.907C131.702 742.927 131.691 742.948 131.68 742.968C131.672 742.983 131.664 742.997 131.656 743.012C131.646 743.032 131.635 743.052 131.625 743.073C131.617 743.089 131.609 743.105 131.601 743.121C131.592 743.14 131.582 743.161 131.573 743.181C131.565 743.198 131.557 743.215 131.549 743.232C131.54 743.252 131.532 743.273 131.524 743.292C131.516 743.311 131.508 743.328 131.5 743.347C131.492 743.367 131.485 743.387 131.477 743.407C131.469 743.426 131.462 743.445 131.454 743.465C131.447 743.484 131.44 743.504 131.433 743.524C131.426 743.545 131.418 743.565 131.411 743.586C131.405 743.606 131.398 743.626 131.392 743.645C131.385 743.667 131.378 743.688 131.371 743.71C131.365 743.73 131.359 743.75 131.353 743.77C131.347 743.793 131.34 743.815 131.333 743.838C131.328 743.857 131.323 743.878 131.317 743.897C131.311 743.921 131.305 743.944 131.299 743.969C131.294 743.989 131.289 744.009 131.284 744.03C131.278 744.054 131.272 744.078 131.267 744.103C131.262 744.123 131.258 744.145 131.254 744.165C131.248 744.191 131.243 744.215 131.238 744.241C131.234 744.262 131.23 744.283 131.226 744.304C131.222 744.33 131.217 744.356 131.212 744.382C131.209 744.404 131.205 744.425 131.202 744.447C131.198 744.474 131.193 744.5 131.189 744.527C131.186 744.549 131.183 744.572 131.18 744.594C131.176 744.621 131.172 744.648 131.169 744.676C131.166 744.699 131.164 744.723 131.161 744.746C131.158 744.773 131.155 744.8 131.152 744.827C131.149 744.852 131.148 744.877 131.145 744.903C131.142 744.929 131.14 744.956 131.138 744.983C131.136 745.009 131.134 745.036 131.132 745.063C131.13 745.09 131.129 745.116 131.127 745.142C131.125 745.171 131.124 745.201 131.122 745.231C131.121 745.255 131.12 745.28 131.119 745.305C131.117 745.34 131.117 745.376 131.116 745.412C131.115 745.432 131.114 745.451 131.114 745.471C131.113 745.527 131.113 745.584 131.113 745.641V747.215C131.113 750.812 133.203 752.026 136.552 752.026C139.408 752.026 141.071 751.486 141.588 749.35H144.758C144.738 749.477 144.716 749.601 144.691 749.722L144.697 749.726ZM162.772 754.21H159.625V747.533H150.431V754.21H148.555H147.284V738.698H150.431V744.97H159.625V738.698H162.773V754.209L162.772 754.21Z" fill="white"/>
<path fill-rule="evenodd" clip-rule="evenodd" d="M107.089 746.513L107.065 746.457L104.557 740.743L101.432 747.914H107.704L107.089 746.513Z" fill="white"/>
<path d="M186.914 737.3L189.664 734.3L201.014 744.5L212.364 734.35L215.114 737.3L204.064 747.2L215.114 757.05L212.364 760.05L201.014 749.9L189.664 760.05L186.964 757.05L197.964 747.2L186.914 737.3Z" fill="white"/>
<g clip-path="url(#clip1_1177_2569)">
<path d="M262.123 759H267.995C268.475 759 268.976 758.452 268.976 757.936V735.064C268.971 734.548 268.47 734 267.995 734H262.123C261.643 734 261.141 734.548 261.141 735.064V757.936C261.141 758.452 261.643 759 262.123 759Z" fill="white"/>
<path d="M240.785 759C241.297 759 241.829 758.452 241.829 757.936V749.915H245.483L250.18 758.468C250.306 758.676 250.702 759 251.224 759H258.01C258.553 759 258.814 758.399 258.532 757.936L251.746 746.197L258.532 735.064C258.85 734.601 258.568 734 258.01 734H250.702C250.18 734 249.784 734.34 249.659 734.532L244.961 743.005H241.829V735.064C241.819 734.553 241.297 734 240.785 734H235.044C234.522 734 234 734.527 234 735.037V757.936C234 758.452 234.532 759 235.044 759H240.785Z" fill="white"/>
<path d="M339.956 759C340.468 759 341 758.399 341 757.883V735.037C341 734.521 340.468 734 339.956 734H334.215C333.703 734 333.171 734.548 333.171 735.064V746.766L323.254 734H316.468C315.957 734 315.424 734.548 315.424 735.064V757.936C315.424 758.452 315.957 759 316.468 759H322.21C322.721 759 323.254 758.452 323.254 757.936V746.197L333.171 759H339.956Z" fill="white"/>
<path d="M273.152 759H311.254C311.818 759 312.298 758.505 312.298 757.936V735.064C312.298 734.495 311.818 734 311.254 734H273.152C272.588 734 272.108 734.495 272.108 735.064V757.936C272.108 758.505 272.588 759 273.152 759ZM280.459 740.383C282.818 740.851 287.74 740.92 292.344 740.91C297.114 740.899 301.89 740.798 303.947 740.383C304.15 740.34 304.469 740.378 304.469 740.91V751.532C304.469 752.085 304.14 752.085 303.947 752.064C301.911 751.809 297.099 751.883 292.344 751.867C287.537 751.856 282.463 751.787 280.459 752.085C280.261 752.112 279.937 752.106 279.937 751.553V740.915C279.937 740.383 280.261 740.346 280.459 740.383Z" fill="white"/>
</g>
<path d="M443 413.852C405.12 413.852 361.399 485.152 342.402 514.291C294.789 587.323 251.532 657.172 173.684 701.399C148.291 715.824 110.091 729.916 79 722.852C58.0441 718.09 52.2272 701.325 70.7101 688.438C104.135 665.134 185 694.642 179 751.852C179 812.852 113.494 839.282 70.7101 843.852C-28.1142 854.41 -96.2575 792.721 -159 711.929" stroke="white" stroke-miterlimit="10" stroke-linecap="round" stroke-linejoin="round" stroke-dasharray="10 10"/>
<g style="mix-blend-mode:multiply">
<path d="M3.37109 642.814C3.37109 633.309 67.6933 625.604 147.038 625.604C226.384 625.604 290.707 633.309 290.707 642.814C290.707 652.319 226.384 660.024 147.038 660.024C67.6933 660.024 3.37109 652.319 3.37109 642.814Z" fill="#6365C3"/>
</g>
<path d="M455.915 496.109C373.795 496.281 369.601 498.255 287.482 498.426C280.203 535.934 316.931 549.305 309.653 586.811C380.158 588.048 370.747 600.408 520.454 595.881" fill="#FFF2E0"/>
<path d="M455.915 496.109C373.795 496.281 369.601 498.255 287.482 498.426C280.203 535.934 316.931 549.305 309.653 586.811C380.158 588.048 370.747 600.408 520.454 595.881" stroke="#294064" stroke-miterlimit="10" stroke-linecap="round" stroke-linejoin="round"/>
<path d="M349.703 428.735C349.703 428.735 334.238 353.711 295.873 391.732C276.34 411.09 245.609 510.157 258.433 563.878C270.121 612.839 331.588 598.319 345.21 588.771" fill="#FFF2E0"/>
<path d="M349.703 428.735C349.703 428.735 334.238 353.711 295.873 391.732C276.34 411.09 245.609 510.157 258.433 563.878C270.121 612.839 331.588 598.319 345.21 588.771" stroke="#294064" stroke-miterlimit="10" stroke-linecap="round" stroke-linejoin="round"/>
<path d="M343.176 376.593C337.544 358.35 320.767 366.504 311.358 384.704C290.49 425.075 279.837 484.752 279.837 484.752" fill="#FFF2E0"/>
<path d="M343.176 376.593C337.544 358.35 320.767 366.504 311.358 384.704C290.49 425.075 279.837 484.752 279.837 484.752" stroke="#294064" stroke-miterlimit="10" stroke-linecap="round" stroke-linejoin="round"/>
<path d="M366.397 384.017C363.187 351.965 342.706 357.027 331.652 377.061C315.773 405.838 305.076 443.962 298.907 481.57" fill="#FFF2E0"/>
<path d="M366.397 384.017C363.187 351.965 342.706 357.027 331.652 377.061C315.773 405.838 305.076 443.962 298.907 481.57" stroke="#294064" stroke-miterlimit="10" stroke-linecap="round" stroke-linejoin="round"/>
<path d="M349.277 503.733C353.774 483.125 404.84 356.016 367.12 362.335C348.696 365.422 321.37 480.255 322.068 478.51" fill="#FFF2E0"/>
<path d="M349.277 503.733C353.774 483.125 404.84 356.016 367.12 362.335C348.696 365.422 321.37 480.255 322.068 478.51" stroke="#294064" stroke-miterlimit="10" stroke-linecap="round" stroke-linejoin="round"/>
<path d="M365.327 512.019C367.065 469.172 397.02 414.298 366.176 426.703C347.697 434.136 346.323 454.329 335.468 484.082C330.466 497.791 311.103 494.456 298.857 525.235" fill="#FFF2E0"/>
<path d="M365.327 512.019C367.065 469.172 397.019 414.298 366.177 426.703C347.697 434.136 346.323 454.329 335.468 484.082C330.466 497.791 311.103 494.456 298.857 525.235" stroke="#294064" stroke-miterlimit="10" stroke-linecap="round" stroke-linejoin="round"/>
<path d="M151.782 413.723C157.381 413.723 161.663 419.665 160.815 426.254L135.992 618.932C135.308 624.242 131.471 628.164 126.959 628.164H114.45C108.852 628.164 98.0153 623.101 98.8641 616.511L114.396 545.932C115.245 539.341 110.962 533.401 105.363 533.401H78.4792C73.9672 533.401 70.1306 537.322 69.4465 542.632L59.6177 618.932C58.9338 624.242 55.097 628.164 50.585 628.164L36.4725 627.896C30.8734 627.896 22.9375 624.005 23.7865 617.415L53.8663 422.955C54.5506 417.645 58.3872 413.723 62.8992 413.723L70.1707 410.526C75.7717 410.526 85.2868 419.668 84.4349 426.26L77.4757 480.108C76.6239 486.7 80.9069 492.645 86.5078 492.645H113.391C117.901 492.645 121.737 488.727 122.422 483.419L130.237 422.949C130.923 417.642 134.759 413.723 139.269 413.723H151.782Z" fill="#DB0233" stroke="#294064" stroke-miterlimit="10" stroke-linejoin="round"/>
<path d="M238.097 413.724C242.548 413.724 245.951 418.444 245.278 423.682L242.281 446.996C241.739 451.218 238.689 454.337 235.101 454.337H191.75C188.166 454.337 185.119 457.446 184.571 461.663L181.84 482.673C181.159 487.915 184.564 492.645 189.019 492.645L218.506 489.024C222.961 489.024 231.728 497.375 231.047 502.617L227.995 526.075C227.447 530.291 224.4 533.401 220.817 533.401H181.477C177.89 533.401 174.841 536.517 174.297 540.736L169.542 577.589C168.866 582.827 172.27 587.55 176.722 587.55L210.002 584.469C214.445 584.469 223.476 592.258 222.814 597.489L219.863 620.803C219.327 625.035 216.274 628.164 212.68 628.164H140.741C136.29 628.164 126.401 624.387 127.076 619.149L158.959 421.061C159.503 416.841 162.553 413.724 166.139 413.724H238.097Z" fill="#DB0233" stroke="#294064" stroke-miterlimit="10" stroke-linejoin="round"/>
<path d="M341.641 449.493C341.221 452.775 338.851 455.201 336.064 455.201H308.492C305.705 455.201 303.338 457.621 302.915 460.9L282.136 622.463C281.714 625.742 279.345 628.164 276.56 628.164H256.975C253.519 628.164 243.883 624.862 244.406 620.793L271.655 462.934C272.177 458.867 269.534 455.201 266.078 455.201H241.951C238.497 455.201 229.698 452.328 230.217 448.263L239.956 419.431C240.376 416.148 242.746 413.723 245.534 413.723L333.301 410.168C339.467 411.114 345.744 417.386 345.225 421.451L341.641 449.493Z" fill="#DB0233" stroke="#294064" stroke-miterlimit="10" stroke-linejoin="round"/>
<path d="M32.1899 602.623C32.498 600.401 34.398 598.746 36.6418 598.746H43.2635C45.9929 598.746 48.0922 601.159 47.7147 603.862L42.6034 640.46C42.2968 642.656 40.4344 644.3 38.2173 644.333L31.6209 644.428C28.8674 644.468 26.7258 642.045 27.1039 639.317L32.1899 602.623Z" fill="white" stroke="#294064" stroke-miterlimit="10" stroke-linejoin="round"/>
<mask id="mask0_1177_2569" style="mask-type:luminance" maskUnits="userSpaceOnUse" x="27" y="598" width="21" height="47">
<path d="M32.1899 602.624C32.498 600.402 34.398 598.747 36.6418 598.747H43.2635C45.9929 598.747 48.0922 601.16 47.7147 603.863L42.6034 640.461C42.2968 642.657 40.4344 644.301 38.2173 644.334L31.6209 644.429C28.8674 644.468 26.7258 642.046 27.1039 639.318L32.1899 602.624Z" fill="white"/>
</mask>
<g mask="url(#mask0_1177_2569)">
<path d="M24.1956 641.419C31.081 629.165 54.2471 638.236 45.4875 650.403C39.6985 658.444 16.8778 651.091 20.504 639.02" fill="#294064"/>
<path d="M24.1956 641.419C31.081 629.165 54.2471 638.236 45.4875 650.403C39.6985 658.444 16.8778 651.091 20.504 639.02" stroke="#294064" stroke-miterlimit="10" stroke-linecap="round" stroke-linejoin="round"/>
</g>
<path d="M108.503 602.323C108.81 600.101 110.711 598.446 112.954 598.446H119.576C122.306 598.446 124.405 600.859 124.027 603.562L118.916 640.159C118.609 642.355 116.747 644 114.53 644.032L107.934 644.127C105.18 644.167 103.038 641.744 103.416 639.017L108.503 602.323Z" fill="white" stroke="#294064" stroke-miterlimit="10" stroke-linejoin="round"/>
<mask id="mask1_1177_2569" style="mask-type:luminance" maskUnits="userSpaceOnUse" x="103" y="598" width="22" height="47">
<path d="M108.503 602.323C108.81 600.101 110.711 598.445 112.954 598.445H119.576C122.306 598.445 124.405 600.858 124.027 603.562L118.916 640.159C118.609 642.355 116.747 643.999 114.53 644.032L107.934 644.127C105.18 644.167 103.038 641.744 103.416 639.016L108.503 602.323Z" fill="white"/>
</mask>
<g mask="url(#mask1_1177_2569)">
<path d="M100.508 641.117C107.394 628.864 130.56 637.934 121.8 650.101C116.011 658.142 93.1903 650.79 96.8165 638.718" fill="#294064"/>
<path d="M100.508 641.117C107.394 628.864 130.56 637.934 121.8 650.101C116.011 658.142 93.1903 650.79 96.8165 638.718" stroke="#294064" stroke-miterlimit="10" stroke-linecap="round" stroke-linejoin="round"/>
</g>
<path d="M153.009 602.323C153.317 600.101 155.217 598.446 157.461 598.446H164.082C166.812 598.446 168.911 600.859 168.534 603.562L163.423 640.159C163.116 642.355 161.254 644 159.036 644.032L152.44 644.127C149.687 644.167 147.544 641.744 147.923 639.017L153.009 602.323Z" fill="white" stroke="#294064" stroke-miterlimit="10" stroke-linejoin="round"/>
<mask id="mask2_1177_2569" style="mask-type:luminance" maskUnits="userSpaceOnUse" x="147" y="598" width="22" height="47">
<path d="M153.009 602.323C153.317 600.101 155.217 598.445 157.461 598.445H164.082C166.812 598.445 168.911 600.858 168.534 603.562L163.423 640.159C163.116 642.355 161.254 643.999 159.036 644.032L152.44 644.127C149.687 644.167 147.544 641.744 147.923 639.016L153.009 602.323Z" fill="white"/>
</mask>
<g mask="url(#mask2_1177_2569)">
<path d="M145.015 641.117C151.9 628.864 175.066 637.934 166.307 650.101C160.517 658.142 137.697 650.79 141.323 638.718" fill="#294064"/>
<path d="M145.015 641.117C151.9 628.864 175.066 637.934 166.307 650.101C160.517 658.142 137.697 650.79 141.323 638.718" stroke="#294064" stroke-miterlimit="10" stroke-linecap="round" stroke-linejoin="round"/>
</g>
<path d="M175.672 602.323C175.98 600.101 177.88 598.446 180.124 598.446H186.745C189.475 598.446 191.574 600.859 191.197 603.562L186.086 640.159C185.779 642.355 183.917 644 181.699 644.032L175.103 644.127C172.35 644.167 170.208 641.744 170.587 639.017L175.672 602.323Z" fill="white" stroke="#294064" stroke-miterlimit="10" stroke-linejoin="round"/>
<mask id="mask3_1177_2569" style="mask-type:luminance" maskUnits="userSpaceOnUse" x="170" y="598" width="22" height="47">
<path d="M175.672 602.323C175.98 600.101 177.88 598.445 180.124 598.445H186.745C189.475 598.445 191.574 600.858 191.197 603.562L186.086 640.159C185.779 642.355 183.917 643.999 181.699 644.032L175.103 644.127C172.35 644.167 170.208 641.744 170.587 639.016L175.672 602.323Z" fill="white"/>
</mask>
<g mask="url(#mask3_1177_2569)">
<path d="M167.678 641.117C174.563 628.864 197.729 637.934 188.97 650.101C183.18 658.142 160.36 650.79 163.986 638.718" fill="#294064"/>
<path d="M167.678 641.117C174.563 628.864 197.729 637.934 188.97 650.101C183.18 658.142 160.36 650.79 163.986 638.718" stroke="#294064" stroke-miterlimit="10" stroke-linecap="round" stroke-linejoin="round"/>
</g>
<path d="M256.304 602.323C256.611 600.101 258.512 598.446 260.755 598.446H267.377C270.107 598.446 272.206 600.859 271.828 603.562L266.716 640.159C266.41 642.355 264.547 644 262.331 644.032L255.735 644.127C252.98 644.167 250.839 641.744 251.217 639.017L256.304 602.323Z" fill="white" stroke="#294064" stroke-miterlimit="10" stroke-linejoin="round"/>
<mask id="mask4_1177_2569" style="mask-type:luminance" maskUnits="userSpaceOnUse" x="251" y="598" width="21" height="47">
<path d="M256.304 602.323C256.611 600.101 258.512 598.445 260.755 598.445H267.377C270.107 598.445 272.206 600.858 271.828 603.562L266.716 640.159C266.41 642.355 264.547 643.999 262.331 644.032L255.735 644.127C252.98 644.167 250.839 641.744 251.217 639.016L256.304 602.323Z" fill="white"/>
</mask>
<g mask="url(#mask4_1177_2569)">
<path d="M248.31 641.117C255.195 628.864 278.36 637.934 269.6 650.101C263.812 658.142 240.991 650.79 244.617 638.718" fill="#294064"/>
<path d="M248.31 641.117C255.195 628.864 278.36 637.934 269.6 650.101C263.812 658.142 240.991 650.79 244.617 638.718" stroke="#294064" stroke-miterlimit="10" stroke-linecap="round" stroke-linejoin="round"/>
</g>
<path d="M142.961 409.648C148.56 409.648 152.842 415.59 151.994 422.18L127.171 614.857C126.487 620.167 122.65 624.089 118.138 624.089H105.63C100.03 624.089 95.7477 618.147 96.5966 611.557L105.576 541.857C106.424 535.266 102.142 529.326 96.5425 529.326H69.6583C65.1463 529.326 61.3097 533.247 60.6256 538.557L50.7969 614.857C50.1129 620.167 46.2761 624.089 41.7641 624.089H29.2556C23.6564 624.089 19.3739 618.147 20.2228 611.557L45.0455 418.88C45.7297 413.57 49.5663 409.648 54.0783 409.648H66.5819C72.1828 409.648 76.4659 415.593 75.614 422.184L68.6549 476.033C67.8031 482.625 72.0861 488.569 77.687 488.569H104.569C109.08 488.569 112.916 484.652 113.602 479.343L121.416 418.875C122.103 413.567 125.938 409.648 130.448 409.648H142.961Z" fill="#FF4A69" stroke="#294064" stroke-miterlimit="10" stroke-linejoin="round"/>
<path d="M229.277 409.648C233.727 409.648 237.13 414.369 236.457 419.607L233.461 442.921C232.918 447.142 229.868 450.261 226.28 450.261H182.928C179.346 450.261 176.298 453.371 175.75 457.588L173.019 478.598C172.337 483.839 175.743 488.569 180.198 488.569H215.046C219.501 488.569 222.907 493.3 222.225 498.542L219.174 522C218.627 526.216 215.579 529.326 211.996 529.326H172.656C169.07 529.326 166.02 532.442 165.476 536.661L160.721 573.513C160.045 578.752 163.449 583.475 167.901 583.475H206.81C211.252 583.475 214.654 588.183 213.993 593.413L211.042 616.728C210.506 620.96 207.453 624.089 203.86 624.089H131.921C127.47 624.089 124.066 619.366 124.741 614.127L150.139 416.986C150.682 412.766 153.732 409.648 157.319 409.648H229.277Z" fill="#FF4A69" stroke="#294064" stroke-miterlimit="10" stroke-linejoin="round"/>
<path d="M332.82 445.418C332.401 448.7 330.031 451.126 327.243 451.126H299.671C296.885 451.126 294.516 453.546 294.094 456.825L273.315 618.388C272.893 621.667 270.524 624.089 267.739 624.089H248.154C244.697 624.089 242.054 620.422 242.577 616.354L262.833 458.859C263.357 454.791 260.713 451.126 257.257 451.126H233.129C229.675 451.126 227.033 447.463 227.553 443.398L231.136 415.356C231.555 412.073 233.925 409.648 236.713 409.648H330.827C334.28 409.648 336.923 413.311 336.404 417.376L332.82 445.418Z" fill="#FF4A69" stroke="#294064" stroke-miterlimit="10" stroke-linejoin="round"/>
<path d="M275.477 423.213C276.388 420.734 278.708 419.306 280.659 420.023C282.61 420.741 283.454 423.331 282.541 425.81C281.63 428.289 279.31 429.717 277.359 429C275.408 428.282 274.566 425.691 275.477 423.213Z" fill="white" stroke="#294064" stroke-miterlimit="10" stroke-linejoin="round"/>
<path d="M288.344 423.275C289.255 420.797 291.575 419.369 293.526 420.087C295.477 420.804 296.32 423.395 295.408 425.874C294.497 428.352 292.177 429.781 290.226 429.063C288.275 428.346 287.431 425.754 288.344 423.275Z" fill="white" stroke="#294064" stroke-miterlimit="10" stroke-linejoin="round"/>
<path d="M283.488 433.116C283.488 432.252 284.189 431.552 285.053 431.552C285.915 431.552 286.616 432.252 286.616 433.116C286.616 433.979 285.915 434.679 285.053 434.679C284.189 434.679 283.488 433.979 283.488 433.116Z" fill="#FF4A69" stroke="#294064" stroke-miterlimit="10" stroke-linejoin="round"/>
<path d="M278.423 424.762C278.97 423.275 280.362 422.418 281.533 422.849C282.704 423.278 283.21 424.833 282.662 426.321C282.116 427.808 280.723 428.665 279.553 428.234C278.382 427.803 277.876 426.25 278.423 424.762Z" fill="#294064" stroke="#294064" stroke-miterlimit="10" stroke-linejoin="round"/>
<path d="M290.927 424.61C291.474 423.122 292.867 422.266 294.037 422.697C295.208 423.127 295.714 424.681 295.166 426.169C294.62 427.656 293.227 428.513 292.057 428.082C290.886 427.652 290.38 426.097 290.927 424.61Z" fill="#294064" stroke="#294064" stroke-miterlimit="10" stroke-linejoin="round"/>
<path d="M277.69 440.57C281.165 438.143 288.824 438.346 291.506 440.645" stroke="#294064" stroke-miterlimit="10" stroke-linecap="round" stroke-linejoin="round"/>
<path d="M182.047 423.147C182.958 420.67 185.278 419.241 187.229 419.959C189.18 420.676 190.022 423.267 189.111 425.746C188.2 428.224 185.88 429.652 183.929 428.935C181.977 428.218 181.134 425.626 182.047 423.147Z" fill="white" stroke="#294064" stroke-miterlimit="10" stroke-linejoin="round"/>
<path d="M194.912 423.212C195.825 420.733 198.145 419.305 200.096 420.022C202.047 420.74 202.889 423.33 201.978 425.809C201.067 428.288 198.746 429.716 196.795 428.999C194.844 428.281 194.001 425.69 194.912 423.212Z" fill="white" stroke="#294064" stroke-miterlimit="10" stroke-linejoin="round"/>
<path d="M190.058 433.051C190.058 432.189 190.758 431.488 191.622 431.488C192.485 431.488 193.186 432.189 193.186 433.051C193.186 433.915 192.485 434.616 191.622 434.616C190.758 434.616 190.058 433.915 190.058 433.051Z" fill="#FF4A69" stroke="#294064" stroke-miterlimit="10" stroke-linejoin="round"/>
<path d="M184.993 424.697C185.539 423.211 186.932 422.353 188.103 422.784C189.273 423.215 189.78 424.77 189.232 426.257C188.686 427.744 187.293 428.601 186.123 428.171C184.951 427.74 184.446 426.185 184.993 424.697Z" fill="#294064" stroke="#294064" stroke-miterlimit="10" stroke-linejoin="round"/>
<path d="M197.497 424.544C198.044 423.057 199.436 422.2 200.607 422.63C201.777 423.061 202.284 424.616 201.736 426.103C201.19 427.591 199.797 428.447 198.627 428.016C197.455 427.586 196.95 426.031 197.497 424.544Z" fill="#294064" stroke="#294064" stroke-miterlimit="10" stroke-linejoin="round"/>
<path d="M184.26 440.505C187.735 438.08 195.394 438.281 198.076 440.581" stroke="#294064" stroke-miterlimit="10" stroke-linecap="round" stroke-linejoin="round"/>
<path d="M77.2229 501.242C78.1343 498.763 80.4548 497.335 82.4058 498.052C84.3568 498.77 85.1995 501.361 84.288 503.84C83.3766 506.319 81.0561 507.746 79.1051 507.028C77.1541 506.311 76.3114 503.72 77.2229 501.242Z" fill="white" stroke="#294064" stroke-miterlimit="10" stroke-linejoin="round"/>
<path d="M90.0896 501.305C91.0011 498.827 93.3216 497.398 95.2725 498.116C97.2236 498.833 98.0663 501.425 97.1548 503.902C96.2433 506.381 93.9228 507.809 91.9719 507.092C90.0208 506.374 89.1781 503.784 90.0896 501.305Z" fill="white" stroke="#294064" stroke-miterlimit="10" stroke-linejoin="round"/>
<path d="M85.2347 511.144C85.2347 510.28 85.9348 509.58 86.7986 509.58C87.6623 509.58 88.3625 510.28 88.3625 511.144C88.3625 512.008 87.6623 512.708 86.7986 512.708C85.9348 512.708 85.2347 512.008 85.2347 511.144Z" fill="#FF4A69" stroke="#294064" stroke-miterlimit="10" stroke-linejoin="round"/>
<path d="M80.1694 502.791C80.7164 501.303 82.1088 500.447 83.2795 500.878C84.4503 501.308 84.9559 502.863 84.4089 504.35C83.862 505.837 82.4696 506.694 81.2989 506.264C80.1282 505.833 79.6225 504.278 80.1694 502.791Z" fill="#294064" stroke="#294064" stroke-miterlimit="10" stroke-linejoin="round"/>
<path d="M92.6737 502.638C93.2207 501.15 94.6131 500.294 95.7838 500.724C96.9545 501.155 97.4602 502.709 96.9132 504.196C96.3663 505.684 94.9739 506.54 93.8032 506.11C92.6325 505.68 92.1268 504.125 92.6737 502.638Z" fill="#294064" stroke="#294064" stroke-miterlimit="10" stroke-linejoin="round"/>
<path d="M79.4364 518.599C82.9107 516.173 90.5709 516.375 93.2526 518.675" stroke="#294064" stroke-miterlimit="10" stroke-linecap="round" stroke-linejoin="round"/>
<path d="M50.2004 419.817L44.6901 464.611" stroke="#294064" stroke-miterlimit="10" stroke-linecap="round" stroke-linejoin="round"/>
<path d="M43.7047 471.383L40.2119 495.395" stroke="#294064" stroke-miterlimit="10" stroke-linecap="round" stroke-linejoin="round"/>
<path d="M141.843 521.583L134.436 574.633" stroke="#294064" stroke-miterlimit="10" stroke-linecap="round" stroke-linejoin="round"/>
<path d="M133.627 581.168L131.694 595.742" stroke="#294064" stroke-miterlimit="10" stroke-linecap="round" stroke-linejoin="round"/>
<path d="M235.035 417.061L232.747 434.463" stroke="#294064" stroke-miterlimit="10" stroke-linecap="round" stroke-linejoin="round"/>
</g>
<defs>
<radialGradient id="paint0_radial_1177_2569" cx="0" cy="0" r="1" gradientUnits="userSpaceOnUse" gradientTransform="translate(831 888) rotate(118.185) scale(847.513 524.456)">
<stop stop-color="#E7012A"/>
<stop offset="1" stop-color="#5815A3"/>
</radialGradient>
<clipPath id="clip0_1177_2569">
<path d="M0 0H414V841C414 852.046 405.046 861 394 861H20C8.95432 861 0 852.046 0 841V0Z" fill="white"/>
</clipPath>
<clipPath id="clip1_1177_2569">
<rect width="107" height="25" fill="white" transform="translate(234 734)"/>
</clipPath>
</defs>
</svg>
