<svg width="414" height="861" viewBox="0 0 414 861" fill="none" xmlns="http://www.w3.org/2000/svg">
<g clip-path="url(#clip0_1177_2670)">
<path d="M0 0H414V841C414 852.046 405.046 861 394 861H20C8.95432 861 0 852.046 0 841V0Z" fill="#EF6A82"/>
<rect x="415" y="888" width="416" height="888" transform="rotate(-180 415 888)" fill="url(#paint0_radial_1177_2670)"/>
<path fill-rule="evenodd" clip-rule="evenodd" d="M99.1202 733.449L93.3981 746.397H91.0033V733.449H71.7938L71.7945 733.449C68.5918 733.474 65.0309 734.102 62.2459 736.49C59.2493 739.058 58.2168 742.719 58.2168 746.478C58.2168 750.237 59.2467 753.91 62.2673 756.47C65.1194 758.888 68.7733 759.463 71.9945 759.463C72.0471 759.463 72.1037 759.463 72.1037 759.463C72.1048 759.463 72.1048 759.463 72.1056 759.463C72.1048 759.463 72.1052 759.463 72.1056 759.463L87.6906 759.459H101.955L103.799 755.301H105.198L107.034 759.459H126.071V756.025C126.229 756.177 126.393 756.326 126.564 756.47C129.416 758.888 133.07 759.463 136.291 759.463C136.439 759.463 136.588 759.461 136.737 759.459H167.566V733.449H99.1202Z" fill="#E1012E"/>
<path fill-rule="evenodd" clip-rule="evenodd" d="M99.1566 733.175L93.3991 746.393H90.9894V733.175H71.661L71.6618 733.176C68.4392 733.201 64.8563 733.842 62.054 736.279C59.0389 738.902 58 742.638 58 746.476C58 750.313 59.0363 754.063 62.0756 756.677C64.9454 759.145 68.6218 759.732 71.863 759.732C71.9159 759.732 71.9729 759.732 71.9729 759.732C71.974 759.732 71.974 759.732 71.9747 759.732C71.974 759.732 71.9743 759.732 71.9747 759.732L87.6562 759.728H102.008L103.864 755.483H105.272L107.12 759.728H126.274V756.222C126.433 756.377 126.598 756.529 126.77 756.677C129.64 759.145 133.317 759.732 136.558 759.732C136.707 759.732 136.856 759.73 137.006 759.728H168.026V733.175H99.1566ZM80.0375 749.538C80.0342 749.557 80.0305 749.575 80.0269 749.594C80.0192 749.636 80.0115 749.678 80.0031 749.719C79.9984 749.742 79.9933 749.764 79.9885 749.787C79.9809 749.824 79.9732 749.86 79.9652 749.896C79.9597 749.921 79.9535 749.946 79.9476 749.97C79.9396 750.003 79.9319 750.036 79.9235 750.069C79.9155 750.1 79.9075 750.131 79.8991 750.161C79.8929 750.185 79.8867 750.208 79.8801 750.231C79.8713 750.263 79.8618 750.293 79.8527 750.324C79.8461 750.346 79.8399 750.369 79.833 750.391C79.8231 750.422 79.8125 750.454 79.8023 750.486C79.7957 750.506 79.7892 750.527 79.7822 750.547C79.7705 750.581 79.7585 750.615 79.7461 750.649C79.7402 750.666 79.7344 750.683 79.7282 750.7C79.7096 750.75 79.6906 750.799 79.6708 750.848C79.6665 750.86 79.6617 750.87 79.657 750.881C79.6416 750.919 79.6259 750.957 79.6099 750.994C79.6015 751.013 79.5923 751.033 79.5839 751.052C79.5712 751.08 79.5587 751.109 79.5456 751.137C79.5357 751.158 79.5255 751.178 79.5153 751.199C79.5029 751.225 79.4905 751.251 79.4777 751.276C79.4667 751.297 79.4558 751.318 79.4444 751.339C79.4317 751.363 79.4192 751.388 79.4065 751.412C79.3948 751.433 79.3827 751.454 79.3707 751.476C79.3579 751.499 79.3451 751.522 79.3316 751.545C79.3192 751.566 79.3064 751.587 79.2936 751.608C79.2801 751.63 79.267 751.652 79.2535 751.674C79.2403 751.695 79.2272 751.715 79.2137 751.736C79.1998 751.757 79.1859 751.779 79.172 751.8C79.1582 751.821 79.1443 751.841 79.1304 751.861C79.1162 751.882 79.1019 751.903 79.0873 751.923C79.0731 751.943 79.0581 751.963 79.0435 751.983C79.0285 752.003 79.0139 752.023 78.9989 752.043C78.984 752.063 78.9686 752.082 78.9533 752.102C78.938 752.121 78.9226 752.141 78.9069 752.16C78.8912 752.179 78.8755 752.198 78.8595 752.217C78.8438 752.236 78.8277 752.255 78.8116 752.273C78.7952 752.292 78.7788 752.311 78.7623 752.329C78.7459 752.348 78.7295 752.366 78.7127 752.384C78.6959 752.402 78.6787 752.421 78.6615 752.439C78.6447 752.456 78.6276 752.474 78.6104 752.491C78.5929 752.509 78.5754 752.527 78.5578 752.544C78.5403 752.562 78.5228 752.579 78.5049 752.596C78.487 752.613 78.4687 752.63 78.4505 752.647C78.4322 752.664 78.414 752.681 78.3957 752.697C78.3771 752.714 78.3585 752.731 78.3398 752.747C78.3212 752.763 78.3022 752.78 78.2829 752.796C78.2639 752.812 78.2449 752.828 78.2255 752.844C78.2062 752.86 78.1865 752.876 78.1664 752.891C78.147 752.907 78.1273 752.922 78.1076 752.938C78.0875 752.953 78.0667 752.969 78.0462 752.984C78.0265 752.999 78.0064 753.014 77.9864 753.029C77.9655 753.044 77.944 753.059 77.9228 753.074C77.9024 753.088 77.8823 753.102 77.8618 753.117C77.8399 753.132 77.8176 753.146 77.7954 753.161C77.7749 753.174 77.7545 753.188 77.734 753.201C77.711 753.216 77.6877 753.231 77.6639 753.245C77.6435 753.258 77.623 753.271 77.6026 753.283C77.5781 753.298 77.5529 753.312 77.5281 753.327C77.508 753.339 77.4883 753.351 77.4678 753.362C77.4408 753.377 77.4131 753.392 77.3857 753.407C77.2294 753.493 77.0669 753.573 76.8978 753.648C75.6019 754.22 73.9228 754.478 71.8622 754.478C66.6131 754.478 63.5256 752.563 63.2696 747.217C63.258 746.977 63.2525 746.73 63.2525 746.475C63.2525 746.189 63.2598 745.912 63.2744 745.643C63.5614 740.381 66.6434 738.427 71.8622 738.427C73.906 738.427 75.5814 738.681 76.8752 739.248C77.061 739.329 77.2385 739.418 77.4083 739.512C77.4309 739.525 77.454 739.537 77.4766 739.55C77.5018 739.564 77.5266 739.579 77.5515 739.594C77.5734 739.607 77.5953 739.62 77.6168 739.633C77.6416 739.648 77.6661 739.664 77.6906 739.68C77.7114 739.693 77.7326 739.706 77.7534 739.72C77.7775 739.735 77.8009 739.751 77.8242 739.767C77.8447 739.781 77.8659 739.795 77.8859 739.809C77.9097 739.825 77.9327 739.843 77.956 739.859C77.9758 739.874 77.9955 739.888 78.0148 739.902C78.0382 739.919 78.0608 739.937 78.0839 739.955C78.1025 739.969 78.1215 739.983 78.1401 739.998C78.1624 740.016 78.1843 740.034 78.2065 740.052C78.2248 740.067 78.2434 740.082 78.2617 740.098C78.2829 740.115 78.3037 740.134 78.3249 740.153C78.3431 740.169 78.3617 740.184 78.3796 740.201C78.4001 740.219 78.4198 740.238 78.4399 740.256C78.4578 740.273 78.476 740.29 78.4936 740.306C78.5133 740.325 78.5323 740.345 78.5516 740.364C78.5688 740.381 78.5863 740.398 78.6035 740.416C78.6221 740.435 78.64 740.455 78.6583 740.474C78.6754 740.492 78.6929 740.51 78.7097 740.529C78.7273 740.548 78.7444 740.568 78.762 740.588C78.7788 740.607 78.7955 740.626 78.812 740.645C78.8288 740.665 78.8452 740.685 78.8616 740.706C78.8777 740.725 78.8945 740.745 78.9102 740.765C78.9263 740.785 78.942 740.806 78.9577 740.826C78.9734 740.847 78.9895 740.867 79.0048 740.888C79.0205 740.909 79.0351 740.93 79.0504 740.952C79.0654 740.973 79.0807 740.993 79.0953 741.015C79.1096 741.035 79.1231 741.056 79.137 741.078C79.1519 741.1 79.1673 741.123 79.1823 741.146C79.1954 741.166 79.2075 741.186 79.2202 741.207C79.2352 741.231 79.2505 741.255 79.2651 741.28C79.2776 741.3 79.2892 741.322 79.3017 741.343C79.3159 741.368 79.3305 741.392 79.3444 741.417C79.3561 741.438 79.3674 741.46 79.3787 741.481C79.3926 741.507 79.4065 741.532 79.4196 741.558C79.4306 741.58 79.4412 741.602 79.4517 741.623C79.4649 741.65 79.4784 741.676 79.4912 741.703C79.5014 741.725 79.5113 741.747 79.5215 741.769C79.5339 741.796 79.5467 741.823 79.5591 741.851C79.5686 741.873 79.5777 741.896 79.5872 741.918C79.5993 741.946 79.6113 741.974 79.623 742.003C79.6321 742.026 79.6409 742.05 79.65 742.073C79.661 742.102 79.6723 742.13 79.6829 742.159C79.6917 742.183 79.6997 742.207 79.7081 742.231C79.7183 742.26 79.7289 742.289 79.7388 742.318C79.7468 742.343 79.7541 742.367 79.7621 742.391C79.7716 742.421 79.7815 742.451 79.791 742.482C79.7986 742.507 79.8056 742.532 79.8129 742.558C79.8217 742.588 79.8308 742.618 79.8392 742.649C79.8465 742.676 79.8531 742.703 79.8604 742.73C79.868 742.76 79.8761 742.789 79.8834 742.819C79.8903 742.848 79.8965 742.877 79.9031 742.905C79.91 742.935 79.917 742.964 79.9235 742.994C79.9305 743.026 79.9367 743.058 79.9433 743.091C79.9487 743.118 79.9546 743.145 79.9601 743.173C79.9604 743.175 79.9611 743.178 79.9615 743.181C79.9714 743.232 79.9805 743.285 79.9893 743.338C79.9918 743.354 79.9944 743.37 79.9973 743.386C80.0039 743.428 80.0104 743.47 80.0166 743.512C80.0188 743.528 80.0214 743.544 80.0236 743.56C80.0316 743.617 80.0389 743.674 80.0459 743.732H76.8763C76.4717 741.507 74.8306 740.878 71.8633 740.878C68.559 740.878 66.4232 741.979 66.4232 745.643V747.217C66.4232 750.814 68.5137 752.027 71.8633 752.027C74.7182 752.027 76.3818 751.488 76.8989 749.352H80.0685C80.059 749.415 80.0488 749.476 80.0378 749.537L80.0375 749.538ZM95.2223 754.209H83.86H82.5888V738.698H85.7362V751.646H95.2227V754.209H95.2223ZM112.62 754.209H110.446L108.715 750.23H100.421L98.6899 754.209H95.7226L99.1777 746.393L102.579 738.698H106.895L112.62 751.693L113.729 754.21H112.62L112.62 754.209ZM127.359 741.261H123.473H121.02V754.209H117.874V741.261H111.534V738.698H127.36V741.261H127.359ZM144.697 749.726C144.696 749.73 144.695 749.733 144.695 749.737C144.683 749.793 144.671 749.849 144.659 749.904C144.657 749.913 144.655 749.921 144.652 749.93C144.641 749.98 144.629 750.029 144.617 750.077C144.612 750.095 144.607 750.111 144.603 750.128C144.594 750.165 144.584 750.201 144.573 750.237C144.568 750.257 144.562 750.276 144.557 750.295C144.547 750.328 144.537 750.362 144.527 750.395C144.52 750.417 144.513 750.438 144.506 750.46C144.496 750.49 144.487 750.52 144.477 750.55C144.468 750.576 144.458 750.601 144.449 750.627C144.441 750.652 144.432 750.677 144.423 750.701C144.405 750.751 144.386 750.8 144.366 750.849C144.363 750.857 144.359 750.865 144.357 750.873C144.34 750.914 144.323 750.955 144.305 750.996C144.299 751.01 144.292 751.024 144.286 751.038C144.271 751.072 144.256 751.106 144.24 751.139C144.233 751.155 144.225 751.171 144.217 751.188C144.202 751.218 144.187 751.248 144.173 751.278C144.164 751.296 144.155 751.313 144.145 751.33C144.131 751.358 144.116 751.386 144.101 751.415C144.091 751.432 144.081 751.45 144.071 751.468C144.056 751.494 144.041 751.521 144.026 751.547C144.016 751.565 144.005 751.583 143.994 751.601C143.979 751.626 143.964 751.652 143.948 751.676C143.937 751.695 143.925 751.713 143.913 751.731C143.898 751.755 143.882 751.779 143.867 751.802C143.854 751.821 143.842 751.839 143.829 751.857C143.813 751.88 143.797 751.903 143.781 751.925C143.768 751.944 143.755 751.962 143.742 751.98C143.726 752.002 143.709 752.024 143.693 752.045C143.679 752.063 143.665 752.082 143.651 752.1C143.634 752.121 143.618 752.141 143.601 752.162C143.586 752.18 143.571 752.198 143.556 752.216C143.54 752.236 143.523 752.256 143.506 752.275C143.491 752.293 143.475 752.311 143.459 752.329C143.442 752.348 143.425 752.366 143.408 752.385C143.391 752.403 143.374 752.421 143.357 752.439C143.341 752.457 143.324 752.474 143.306 752.492C143.289 752.51 143.271 752.528 143.253 752.545C143.236 752.562 143.219 752.579 143.201 752.596C143.183 752.614 143.164 752.631 143.145 752.649C143.128 752.665 143.11 752.681 143.093 752.696C143.073 752.714 143.054 752.732 143.034 752.749C143.016 752.764 142.999 752.779 142.981 752.794C142.961 752.811 142.94 752.829 142.919 752.846C142.901 752.86 142.884 752.875 142.866 752.888C142.845 752.906 142.823 752.923 142.801 752.94C142.784 752.953 142.766 752.967 142.748 752.98C142.725 752.997 142.703 753.014 142.679 753.031C142.662 753.043 142.645 753.056 142.628 753.068C142.603 753.085 142.579 753.102 142.554 753.119C142.538 753.13 142.521 753.141 142.503 753.153C142.478 753.17 142.452 753.187 142.426 753.204C142.41 753.214 142.393 753.224 142.377 753.234C142.349 753.251 142.322 753.269 142.294 753.285C142.279 753.294 142.264 753.303 142.248 753.312C142.219 753.33 142.189 753.347 142.159 753.365C142.147 753.371 142.134 753.378 142.121 753.385C141.952 753.479 141.776 753.567 141.593 753.648C140.297 754.22 138.618 754.478 136.557 754.478C131.308 754.478 128.221 752.564 127.965 747.217C127.954 746.977 127.948 746.73 127.948 746.476C127.948 746.14 127.958 745.816 127.978 745.504C127.979 745.485 127.981 745.466 127.982 745.447C127.985 745.401 127.989 745.354 127.993 745.308C127.995 745.282 127.997 745.257 127.999 745.231C128.002 745.187 128.006 745.143 128.011 745.099C128.013 745.073 128.016 745.047 128.019 745.02C128.023 744.977 128.028 744.934 128.033 744.891C128.035 744.869 128.038 744.847 128.041 744.825C128.05 744.745 128.061 744.666 128.071 744.587C128.075 744.56 128.079 744.533 128.083 744.506C128.088 744.468 128.094 744.431 128.1 744.393C128.105 744.364 128.11 744.334 128.115 744.305C128.121 744.269 128.127 744.233 128.133 744.197C128.139 744.167 128.144 744.136 128.15 744.106C128.157 744.072 128.163 744.038 128.169 744.004C128.176 743.969 128.184 743.935 128.191 743.901C128.201 743.852 128.212 743.803 128.223 743.754C128.231 743.717 128.24 743.679 128.249 743.641C128.256 743.612 128.263 743.583 128.27 743.554C128.279 743.521 128.287 743.488 128.296 743.456C128.303 743.427 128.311 743.398 128.319 743.37C128.328 743.337 128.337 743.304 128.347 743.271C128.354 743.244 128.362 743.217 128.37 743.191C128.382 743.151 128.394 743.112 128.406 743.074C128.413 743.054 128.419 743.033 128.425 743.013C128.443 742.959 128.461 742.905 128.48 742.852C128.487 742.83 128.495 742.809 128.503 742.787C128.515 742.752 128.528 742.716 128.541 742.682C128.55 742.659 128.559 742.637 128.567 742.614C128.581 742.58 128.594 742.546 128.608 742.512C128.616 742.491 128.625 742.47 128.633 742.45C128.65 742.409 128.667 742.368 128.685 742.328C128.69 742.316 128.696 742.303 128.701 742.29C128.725 742.238 128.748 742.186 128.773 742.135C128.78 742.121 128.787 742.106 128.794 742.092C128.812 742.054 128.831 742.017 128.849 741.981C128.858 741.963 128.867 741.946 128.876 741.929C128.894 741.894 128.912 741.86 128.931 741.826C128.94 741.81 128.948 741.794 128.957 741.778C128.98 741.739 129.002 741.699 129.025 741.66C129.03 741.651 129.035 741.642 129.041 741.633C129.069 741.585 129.099 741.537 129.129 741.489C129.134 741.481 129.139 741.473 129.144 741.465C129.169 741.427 129.194 741.388 129.22 741.35C129.229 741.337 129.237 741.324 129.246 741.312C129.27 741.276 129.295 741.241 129.32 741.206C129.326 741.197 129.332 741.188 129.339 741.179C129.371 741.135 129.404 741.091 129.436 741.048C129.438 741.047 129.439 741.045 129.44 741.044C129.471 741.003 129.503 740.964 129.535 740.925C129.543 740.914 129.551 740.904 129.56 740.894C129.588 740.86 129.617 740.826 129.646 740.793C129.652 740.786 129.658 740.779 129.664 740.772C129.698 740.733 129.733 740.693 129.769 740.655C129.776 740.647 129.784 740.639 129.791 740.632C129.82 740.601 129.849 740.57 129.879 740.54C129.889 740.53 129.899 740.52 129.909 740.511C129.944 740.475 129.981 740.439 130.017 740.404C130.019 740.403 130.019 740.402 130.02 740.401C130.058 740.366 130.097 740.33 130.136 740.295C130.146 740.286 130.156 740.277 130.166 740.268C130.197 740.241 130.228 740.214 130.26 740.188C130.269 740.18 130.279 740.172 130.288 740.164C130.328 740.13 130.369 740.098 130.41 740.065C130.416 740.06 130.423 740.055 130.429 740.05C130.464 740.023 130.499 739.996 130.535 739.97C130.547 739.961 130.559 739.952 130.571 739.943C130.606 739.917 130.643 739.891 130.679 739.866C130.686 739.861 130.693 739.856 130.699 739.851C130.742 739.822 130.786 739.793 130.83 739.764C130.84 739.756 130.851 739.75 130.862 739.743C130.897 739.72 130.932 739.698 130.967 739.676C130.98 739.669 130.992 739.661 131.004 739.654C131.049 739.626 131.095 739.599 131.141 739.573C131.144 739.571 131.146 739.57 131.15 739.568C131.193 739.543 131.237 739.519 131.281 739.495C131.294 739.488 131.308 739.481 131.322 739.473C131.359 739.454 131.396 739.434 131.434 739.415C131.445 739.409 131.457 739.403 131.468 739.398C131.516 739.374 131.564 739.35 131.612 739.327C131.624 739.322 131.636 739.316 131.647 739.311C131.686 739.293 131.725 739.276 131.763 739.258C131.779 739.251 131.794 739.245 131.81 739.238C131.853 739.219 131.896 739.201 131.94 739.182C131.948 739.179 131.955 739.176 131.963 739.173C132.013 739.152 132.063 739.132 132.115 739.113C132.131 739.107 132.147 739.101 132.163 739.094C132.201 739.08 132.239 739.066 132.278 739.052C132.294 739.047 132.311 739.04 132.327 739.035C132.379 739.016 132.431 738.999 132.483 738.982C132.495 738.978 132.508 738.974 132.521 738.97C133.67 738.597 135.02 738.427 136.556 738.427C138.6 738.427 140.275 738.681 141.569 739.248C141.767 739.335 141.956 739.429 142.136 739.531C142.147 739.537 142.159 739.543 142.17 739.549C142.207 739.571 142.243 739.593 142.28 739.614C142.29 739.621 142.3 739.626 142.31 739.632C142.347 739.655 142.383 739.678 142.419 739.702C142.428 739.708 142.437 739.713 142.446 739.719C142.482 739.742 142.517 739.766 142.552 739.79C142.561 739.796 142.57 739.802 142.579 739.808C142.613 739.832 142.647 739.857 142.68 739.881C142.69 739.888 142.699 739.894 142.708 739.901C142.741 739.926 142.774 739.951 142.806 739.977C142.815 739.984 142.824 739.99 142.833 739.997C142.865 740.022 142.895 740.047 142.925 740.073C142.935 740.081 142.945 740.088 142.955 740.097C142.984 740.122 143.012 740.147 143.041 740.172C143.051 740.181 143.062 740.19 143.072 740.199C143.1 740.224 143.127 740.25 143.154 740.276C143.165 740.286 143.176 740.295 143.186 740.306C143.212 740.33 143.237 740.356 143.262 740.381C143.273 740.393 143.285 740.404 143.296 740.415C143.319 740.439 143.342 740.464 143.365 740.488C143.377 740.502 143.39 740.515 143.402 740.528C143.424 740.552 143.444 740.576 143.465 740.599C143.478 740.615 143.492 740.629 143.505 740.645C143.524 740.667 143.542 740.691 143.561 740.713C143.575 740.73 143.589 740.748 143.603 740.765C143.62 740.787 143.637 740.809 143.654 740.831C143.669 740.85 143.684 740.869 143.698 740.888C143.714 740.91 143.728 740.931 143.743 740.952C143.758 740.974 143.774 740.994 143.789 741.016C143.803 741.036 143.816 741.056 143.83 741.077C143.845 741.1 143.861 741.123 143.876 741.146C143.888 741.165 143.9 741.185 143.912 741.205C143.928 741.23 143.944 741.255 143.959 741.28C143.969 741.299 143.98 741.317 143.991 741.336C144.006 741.363 144.022 741.39 144.037 741.417C144.048 741.436 144.058 741.456 144.068 741.475C144.083 741.503 144.098 741.53 144.113 741.559C144.123 741.579 144.133 741.6 144.143 741.62C144.157 741.648 144.171 741.675 144.184 741.703C144.194 741.725 144.204 741.747 144.214 741.769C144.227 741.796 144.24 741.824 144.252 741.851C144.263 741.876 144.273 741.901 144.283 741.926C144.294 741.952 144.305 741.977 144.315 742.003C144.328 742.034 144.339 742.066 144.351 742.097C144.359 742.118 144.367 742.138 144.375 742.158C144.389 742.196 144.402 742.235 144.415 742.274C144.42 742.288 144.426 742.303 144.431 742.318C144.448 742.369 144.464 742.421 144.48 742.474C144.481 742.476 144.482 742.478 144.483 742.48C144.549 742.7 144.606 742.93 144.652 743.171C144.654 743.185 144.657 743.199 144.659 743.212C144.667 743.251 144.674 743.29 144.68 743.329C144.684 743.351 144.687 743.374 144.691 743.396C144.697 743.432 144.702 743.468 144.707 743.503C144.71 743.523 144.713 743.543 144.716 743.563C144.724 743.618 144.731 743.675 144.738 743.731H141.568C141.163 741.506 139.523 740.876 136.555 740.876C134.911 740.876 133.557 741.149 132.61 741.874C132.61 741.874 132.609 741.875 132.609 741.875C132.582 741.896 132.555 741.917 132.529 741.939C132.526 741.941 132.523 741.943 132.52 741.946C132.495 741.966 132.47 741.988 132.445 742.01C132.441 742.013 132.438 742.016 132.434 742.019C132.41 742.039 132.387 742.061 132.363 742.083C132.359 742.087 132.354 742.091 132.35 742.095C132.328 742.116 132.306 742.137 132.284 742.159C132.279 742.164 132.274 742.168 132.269 742.173C132.248 742.194 132.227 742.216 132.207 742.237C132.201 742.243 132.196 742.249 132.19 742.255C132.171 742.276 132.152 742.297 132.132 742.319C132.127 742.326 132.12 742.332 132.114 742.339C132.096 742.36 132.078 742.382 132.06 742.403C132.054 742.411 132.047 742.418 132.041 742.427C132.024 742.447 132.008 742.469 131.991 742.49C131.984 742.499 131.977 742.508 131.97 742.517C131.954 742.538 131.939 742.559 131.924 742.58C131.917 742.59 131.909 742.6 131.902 742.61C131.887 742.63 131.874 742.651 131.859 742.672C131.852 742.684 131.844 742.695 131.836 742.706C131.823 742.726 131.81 742.747 131.797 742.768C131.789 742.78 131.781 742.792 131.773 742.805C131.761 742.825 131.749 742.846 131.737 742.867C131.729 742.88 131.721 742.893 131.713 742.907C131.702 742.927 131.691 742.948 131.68 742.968C131.672 742.983 131.664 742.997 131.656 743.012C131.646 743.032 131.635 743.052 131.625 743.073C131.617 743.089 131.609 743.105 131.601 743.121C131.592 743.14 131.582 743.161 131.573 743.181C131.565 743.198 131.557 743.215 131.549 743.232C131.54 743.252 131.532 743.273 131.524 743.292C131.516 743.311 131.508 743.328 131.5 743.347C131.492 743.367 131.485 743.387 131.477 743.407C131.469 743.426 131.462 743.445 131.454 743.465C131.447 743.484 131.44 743.504 131.433 743.524C131.426 743.545 131.418 743.565 131.411 743.586C131.405 743.606 131.398 743.626 131.392 743.645C131.385 743.667 131.378 743.688 131.371 743.71C131.365 743.73 131.359 743.75 131.353 743.77C131.347 743.793 131.34 743.815 131.333 743.838C131.328 743.857 131.323 743.878 131.317 743.897C131.311 743.921 131.305 743.944 131.299 743.969C131.294 743.989 131.289 744.009 131.284 744.03C131.278 744.054 131.272 744.078 131.267 744.103C131.262 744.123 131.258 744.145 131.254 744.165C131.248 744.191 131.243 744.215 131.238 744.241C131.234 744.262 131.23 744.283 131.226 744.304C131.222 744.33 131.217 744.356 131.212 744.382C131.209 744.404 131.205 744.425 131.202 744.447C131.198 744.474 131.193 744.5 131.189 744.527C131.186 744.549 131.183 744.572 131.18 744.594C131.176 744.621 131.172 744.648 131.169 744.676C131.166 744.699 131.164 744.723 131.161 744.746C131.158 744.773 131.155 744.8 131.152 744.827C131.149 744.852 131.148 744.877 131.145 744.903C131.142 744.929 131.14 744.956 131.138 744.983C131.136 745.009 131.134 745.036 131.132 745.063C131.13 745.09 131.129 745.116 131.127 745.142C131.125 745.171 131.124 745.201 131.122 745.231C131.121 745.255 131.12 745.28 131.119 745.305C131.117 745.34 131.117 745.376 131.116 745.412C131.115 745.432 131.114 745.451 131.114 745.471C131.113 745.527 131.113 745.584 131.113 745.641V747.215C131.113 750.812 133.203 752.026 136.552 752.026C139.408 752.026 141.071 751.486 141.588 749.35H144.758C144.738 749.477 144.716 749.601 144.691 749.722L144.697 749.726ZM162.772 754.21H159.625V747.533H150.431V754.21H148.555H147.284V738.698H150.431V744.97H159.625V738.698H162.773V754.209L162.772 754.21Z" fill="white"/>
<path fill-rule="evenodd" clip-rule="evenodd" d="M107.089 746.513L107.064 746.457L104.557 740.743L101.432 747.914H107.704L107.089 746.513Z" fill="white"/>
<path d="M186.913 737.3L189.663 734.3L201.013 744.5L212.363 734.35L215.113 737.3L204.063 747.2L215.113 757.05L212.363 760.05L201.013 749.9L189.663 760.05L186.963 757.05L197.963 747.2L186.913 737.3Z" fill="white"/>
<g clip-path="url(#clip1_1177_2670)">
<path d="M262.123 759H267.995C268.475 759 268.976 758.452 268.976 757.936V735.064C268.971 734.548 268.47 734 267.995 734H262.123C261.642 734 261.141 734.548 261.141 735.064V757.936C261.141 758.452 261.642 759 262.123 759Z" fill="white"/>
<path d="M240.785 759C241.297 759 241.829 758.452 241.829 757.936V749.915H245.483L250.18 758.468C250.306 758.676 250.702 759 251.224 759H258.01C258.553 759 258.814 758.399 258.532 757.936L251.746 746.197L258.532 735.064C258.85 734.601 258.568 734 258.01 734H250.702C250.18 734 249.784 734.34 249.659 734.532L244.961 743.005H241.829V735.064C241.819 734.553 241.297 734 240.785 734H235.044C234.522 734 234 734.527 234 735.037V757.936C234 758.452 234.532 759 235.044 759H240.785Z" fill="white"/>
<path d="M339.956 759C340.468 759 341 758.399 341 757.883V735.037C341 734.521 340.468 734 339.956 734H334.215C333.703 734 333.171 734.548 333.171 735.064V746.766L323.254 734H316.468C315.957 734 315.424 734.548 315.424 735.064V757.936C315.424 758.452 315.957 759 316.468 759H322.21C322.721 759 323.254 758.452 323.254 757.936V746.197L333.171 759H339.956Z" fill="white"/>
<path d="M273.152 759H311.254C311.818 759 312.298 758.505 312.298 757.936V735.064C312.298 734.495 311.818 734 311.254 734H273.152C272.588 734 272.108 734.495 272.108 735.064V757.936C272.108 758.505 272.588 759 273.152 759ZM280.459 740.383C282.818 740.851 287.74 740.92 292.344 740.91C297.114 740.899 301.89 740.798 303.947 740.383C304.15 740.34 304.469 740.378 304.469 740.91V751.532C304.469 752.085 304.14 752.085 303.947 752.064C301.911 751.809 297.099 751.883 292.344 751.867C287.537 751.856 282.463 751.787 280.459 752.085C280.261 752.112 279.937 752.106 279.937 751.553V740.915C279.937 740.383 280.261 740.346 280.459 740.383Z" fill="white"/>
</g>
<path d="M340.79 471.616L335.803 466.803L324.747 481.745L329.475 502.285L311.352 514.25C306.216 505.598 298.191 499.988 286.806 498.29C282.846 497.7 279.146 497.451 275.55 497.563C250.369 498.347 233.946 515.824 225.299 543.513C222.405 552.784 220.503 562.641 219.492 572.486C218.873 578.501 218.758 583.288 218.766 586.311C218.766 586.337 218.766 586.412 218.766 586.426C218.791 590.8 222.267 594.331 226.636 594.307C231.004 594.282 234.53 590.684 234.505 586.311C234.505 586.318 234.552 584.407 234.62 582.792C234.733 580.146 234.908 577.212 235.231 574.062C236.143 565.197 237.887 556.398 240.434 548.241C248.254 523.201 261.991 510.572 284.505 513.928C297.648 515.887 303.291 528.348 302.666 550.177C302.415 559.011 301.091 568.526 299.038 578.186C298.228 581.995 297.358 585.535 296.493 588.729C295.981 590.622 295.617 591.945 295.407 592.615C294.098 596.787 296.443 601.242 300.61 602.553C304.777 603.865 309.226 601.515 310.535 597.343C310.807 596.48 311.302 594.955 311.872 592.853C312.811 589.389 313.658 585.567 314.532 581.46C316.771 570.935 318.245 560.448 318.528 550.544C318.742 543.026 318.277 536.113 317.056 529.94L333.33 519.03L333.712 533.493L337.692 537.987L354.309 525.416L349.949 507.229L369.172 494.276L365.49 478.509L361.545 474.103L346.002 491.179L340.79 471.616Z" fill="#DA0234" stroke="#294064" stroke-miterlimit="10" stroke-linejoin="round"/>
<path d="M335.82 466.803L320.685 477.263L325.413 497.803L307.29 509.768C302.154 501.116 294.129 495.505 282.742 493.808C278.782 493.217 275.084 492.969 271.486 493.081C246.307 493.865 229.884 511.342 221.237 539.031C218.341 548.302 216.441 558.158 215.43 568.004C214.811 574.018 214.694 578.806 214.704 581.828C214.704 581.854 214.702 581.93 214.704 581.944C214.727 586.318 218.205 589.849 222.574 589.824C226.94 589.8 230.468 586.202 230.443 581.828C230.443 581.836 230.49 579.924 230.558 578.309C230.671 575.664 230.844 572.729 231.169 569.58C232.079 560.714 233.825 551.915 236.372 543.759C244.192 518.719 257.927 506.09 280.443 509.446C293.584 511.405 299.227 523.866 298.604 545.695C298.351 554.528 297.027 564.044 294.974 573.704C294.164 577.513 293.296 581.053 292.431 584.247C291.919 586.139 291.555 587.463 291.345 588.132C290.036 592.305 292.381 596.76 296.548 598.071C300.715 599.382 305.164 597.033 306.474 592.861C306.745 591.998 307.24 590.473 307.81 588.371C308.747 584.907 309.596 581.085 310.47 576.978C312.707 566.453 314.183 555.966 314.466 546.062C314.68 538.544 314.216 531.63 312.994 525.457L329.268 514.547L333.63 533.505L349.472 521.829L345.04 503.972L364.942 490.63L361.426 474.027L340.965 487.536L335.82 466.803Z" fill="#F74C75" stroke="#294064" stroke-miterlimit="10" stroke-linejoin="round"/>
<path d="M216.795 557.871C220.508 563.02 227.543 567.784 234.81 568.92C234.81 568.92 217.548 573.233 214.517 572.734L216.795 557.871Z" fill="#294064" stroke="#294064" stroke-miterlimit="10" stroke-linecap="round" stroke-linejoin="round"/>
<path d="M297.882 559.232C297.882 559.232 299.511 564.953 311.019 568.409C305.024 571.704 296.589 571.055 296.589 571.055L297.882 559.232Z" fill="#294064" stroke="#294064" stroke-miterlimit="10" stroke-linecap="round" stroke-linejoin="round"/>
<path d="M205.977 578.193C206.555 573.334 210.669 569.674 215.557 569.674H315.163C320.952 569.674 325.438 574.746 324.739 580.5L314.458 665.011C313.87 669.859 309.761 673.502 304.885 673.502H205.529C199.753 673.502 195.271 668.451 195.951 662.705L205.977 578.193Z" fill="#DA0234" stroke="#294064" stroke-miterlimit="10" stroke-linejoin="round"/>
<path d="M193.57 578.193C194.148 573.333 198.262 569.674 203.148 569.674H302.756C308.545 569.674 313.031 574.745 312.33 580.5L302.051 665.011C301.461 669.858 297.352 673.502 292.475 673.502H193.122C187.343 673.502 182.862 668.45 183.544 662.705L193.57 578.193Z" fill="#FFF2E0" stroke="#294064" stroke-miterlimit="10" stroke-linejoin="round"/>
<mask id="mask0_1177_2670" style="mask-type:luminance" maskUnits="userSpaceOnUse" x="183" y="569" width="130" height="105">
<path d="M193.569 578.191C194.147 573.332 198.261 569.672 203.147 569.672H302.755C308.544 569.672 313.03 574.744 312.329 580.498L302.05 665.009C301.46 669.857 297.351 673.5 292.474 673.5H193.121C187.342 673.5 182.861 668.449 183.543 662.704L193.569 578.191Z" fill="white"/>
</mask>
<g mask="url(#mask0_1177_2670)">
<path d="M200.678 581.096C205.957 574.747 214.468 573.128 219.69 577.481C224.912 581.833 224.864 590.509 219.585 596.858C214.306 603.208 205.793 604.826 200.571 600.474C195.352 596.121 195.399 587.445 200.678 581.096Z" fill="#F64C75"/>
<path d="M206.77 615.6C212.049 609.249 220.56 607.631 225.781 611.983C231.003 616.337 230.956 625.011 225.676 631.362C220.397 637.71 211.884 639.328 206.663 634.976C201.443 630.625 201.49 621.948 206.77 615.6Z" fill="#F64C75"/>
<path d="M187.974 646.792C193.253 640.441 201.766 638.823 206.986 643.177C212.207 647.529 212.16 656.206 206.881 662.554C201.602 668.902 193.089 670.522 187.869 666.169C182.647 661.817 182.695 653.14 187.974 646.792Z" fill="#F64C75"/>
<path d="M221.038 654.982C226.318 648.632 234.83 647.014 240.052 651.366C245.272 655.719 245.224 664.394 239.945 670.744C234.666 677.093 226.155 678.711 220.933 674.359C215.712 670.007 215.759 661.331 221.038 654.982Z" fill="#F64C75"/>
<path d="M256.542 640.692C261.821 634.344 270.334 632.724 275.553 637.078C280.775 641.429 280.728 650.106 275.449 656.454C270.169 662.803 261.656 664.423 256.437 660.069C251.215 655.717 251.263 647.041 256.542 640.692Z" fill="#F64C75"/>
<path d="M270.986 666.832C276.265 660.484 284.778 658.864 290 663.218C295.219 667.569 295.172 676.246 289.893 682.594C284.614 688.945 276.103 690.563 270.881 686.211C265.66 681.857 265.707 673.183 270.986 666.832Z" fill="#F64C75"/>
<path d="M288.216 624.14C293.495 617.79 302.008 616.172 307.227 620.525C312.449 624.877 312.402 633.552 307.122 639.902C301.843 646.251 293.33 647.871 288.111 643.517C282.889 639.165 282.936 630.489 288.216 624.14Z" fill="#F64C75"/>
<path d="M263.678 602.705C268.957 596.356 277.468 594.737 282.69 599.09C287.911 603.442 287.864 612.118 282.585 618.466C277.306 624.817 268.793 626.435 263.571 622.083C258.351 617.73 258.399 609.055 263.678 602.705Z" fill="#F64C75"/>
<path d="M289.085 576.218C294.364 569.869 302.877 568.25 308.098 572.603C313.318 576.955 313.271 585.631 307.992 591.98C302.712 598.329 294.201 599.948 288.98 595.595C283.758 591.243 283.805 582.567 289.085 576.218Z" fill="#F64C75"/>
<path d="M257.761 564.192C263.04 557.843 271.551 556.225 276.773 560.577C281.992 564.93 281.945 573.605 276.666 579.954C271.387 586.304 262.876 587.922 257.654 583.57C252.434 579.217 252.482 570.542 257.761 564.192Z" fill="#F64C75"/>
<path d="M227.653 555.479C232.932 549.13 241.445 547.511 246.667 551.864C251.886 556.216 251.839 564.892 246.56 571.241C241.281 577.59 232.77 579.209 227.548 574.856C222.327 570.504 222.374 561.828 227.653 555.479Z" fill="#F64C75"/>
<path d="M172.658 612.985C177.94 606.634 186.451 605.017 191.672 609.37C196.892 613.722 196.845 622.398 191.565 628.747C186.286 635.095 177.775 636.715 172.554 632.361C167.332 628.01 167.379 619.333 172.658 612.985Z" fill="#F64C75"/>
</g>
<path d="M193.587 578.193C194.163 573.334 198.278 569.674 203.165 569.674H302.773C308.562 569.674 313.048 574.746 312.347 580.5L302.068 665.011C301.478 669.859 297.369 673.502 292.492 673.502H193.139C187.36 673.502 182.879 668.451 183.561 662.705L193.587 578.193Z" stroke="#294064" stroke-miterlimit="10" stroke-linejoin="round"/>
<path d="M249.812 589.221C239.747 589.221 231.649 597.329 231.649 607.406C231.649 614.179 235.504 619.897 240.972 623.047L224.627 652.144L258.65 651.658L255.988 624.502C263.006 621.964 268.094 615.311 268.094 607.406C268.094 597.329 259.877 589.221 249.812 589.221Z" fill="#F64C75" stroke="#294064" stroke-miterlimit="10" stroke-linejoin="round"/>
<path d="M255.635 590.783C245.705 589.123 237.832 596.28 237.832 606.359C237.832 613.129 240.893 618.907 246.361 622.057L231.249 652.144L258.651 651.658L255.988 624.502C263.007 621.964 268.095 615.311 268.095 607.406C268.095 600.564 264.403 592.249 255.635 590.783Z" fill="#294064" stroke="#294064" stroke-miterlimit="10" stroke-linejoin="round"/>
<g style="mix-blend-mode:multiply">
<path d="M148.294 694.013C148.294 687.183 194.512 681.646 251.524 681.646C308.537 681.646 354.755 687.183 354.755 694.013C354.755 700.842 308.537 706.379 251.524 706.379C194.512 706.379 148.294 700.842 148.294 694.013Z" fill="#6365C3"/>
</g>
<path d="M86.6955 421.131C68.1587 438.675 67.3535 467.916 84.8971 486.453C102.44 504.99 131.688 505.801 150.225 488.258C168.762 470.714 169.567 441.461 152.024 422.924C134.48 404.387 105.232 403.587 86.6955 421.131ZM90.7821 425.449C106.932 410.165 132.415 410.866 147.7 427.016C162.984 443.166 162.282 468.649 146.133 483.933C129.983 499.219 104.499 498.517 89.2148 482.367C73.9305 466.217 74.6324 440.733 90.7821 425.449Z" fill="white" stroke="#294064" stroke-miterlimit="10" stroke-linejoin="round"/>
<path d="M143.343 459.895C145.37 463.731 147.96 466.932 151.109 469.497C154.26 472.063 157.749 473.936 161.579 475.117C165.407 476.299 169.35 476.724 173.405 476.394C177.461 476.063 181.392 474.893 185.2 472.88C189.037 470.853 192.269 468.22 194.898 464.981C197.527 461.742 199.426 458.13 200.596 454.141C201.767 450.153 202.094 446.007 201.577 441.702L243.963 419.302C244.507 419.015 244.945 418.665 245.276 418.252C245.607 417.839 245.875 417.34 246.079 416.756L249.504 405.772C249.679 405.203 249.633 404.595 249.365 403.949C249.097 403.304 248.613 402.873 247.913 402.657L227.105 396.237C226.405 396.022 225.772 396.072 225.207 396.389C224.642 396.706 224.244 397.2 224.013 397.871L220.152 410.734L202.473 405.244C201.816 405.041 201.206 405.099 200.641 405.415C200.076 405.732 199.685 406.241 199.469 406.941L193.977 424.512C187.833 419.262 181.471 416.095 174.892 415.012C168.313 413.929 162.089 414.938 156.22 418.04C152.441 420.037 149.272 422.618 146.715 425.782C144.156 428.947 142.287 432.444 141.106 436.273C139.924 440.101 139.503 444.051 139.84 448.121C140.179 452.191 141.346 456.115 143.343 459.895ZM169.582 446.029C170.702 448.147 170.911 450.344 170.209 452.619C169.507 454.895 168.096 456.593 165.977 457.712C163.859 458.832 161.666 459.048 159.398 458.36C157.13 457.672 155.429 456.255 154.294 454.108C153.189 452.018 152.992 449.824 153.7 447.527C154.409 445.229 155.808 443.528 157.899 442.424C160.017 441.305 162.218 441.103 164.501 441.819C166.784 442.535 168.478 443.938 169.582 446.029Z" fill="#18D0CB" stroke="#294064" stroke-miterlimit="10" stroke-linecap="round" stroke-linejoin="round"/>
<path d="M189.77 436.358L242.484 407.539" stroke="#294064" stroke-miterlimit="10" stroke-linecap="round" stroke-linejoin="round"/>
<path d="M179.364 419.523C176.672 418.486 165.613 416.357 158.245 420.994" stroke="#294064" stroke-miterlimit="10" stroke-linecap="round" stroke-linejoin="round"/>
<path d="M151.211 425.844C148.084 428.329 145.632 432.353 144.96 435.367" stroke="#294064" stroke-miterlimit="10" stroke-linecap="round" stroke-linejoin="round"/>
<path d="M199.274 421.426L203.007 409.521" stroke="#294064" stroke-miterlimit="10" stroke-linecap="round" stroke-linejoin="round"/>
<path d="M136.099 474.935C135.946 479.272 136.597 483.337 138.05 487.131C139.503 490.925 141.596 494.287 144.328 497.219C147.059 500.151 150.265 502.484 153.946 504.218C157.628 505.952 161.62 506.895 165.924 507.047C170.261 507.2 174.375 506.528 178.268 505.029C182.16 503.53 185.607 501.344 188.609 498.468C191.611 495.593 193.96 492.162 195.656 488.171L243.567 489.864C244.182 489.886 244.736 489.8 245.229 489.607C245.722 489.414 246.202 489.115 246.67 488.711L255.111 480.892C255.547 480.486 255.81 479.936 255.899 479.243C255.988 478.55 255.783 477.935 255.283 477.398L240.439 461.467C239.941 460.931 239.367 460.659 238.719 460.653C238.071 460.646 237.48 460.876 236.945 461.344L227.19 470.573L214.595 457.005C214.127 456.503 213.569 456.248 212.92 456.241C212.273 456.235 211.681 456.481 211.145 456.98L197.629 469.48C194.917 461.867 190.979 455.952 185.814 451.735C180.649 447.519 174.749 445.293 168.115 445.059C163.844 444.908 159.81 445.567 156.016 447.037C152.222 448.507 148.859 450.607 145.927 453.339C142.996 456.07 140.662 459.285 138.928 462.982C137.193 466.68 136.25 470.664 136.099 474.935ZM165.758 475.984C165.674 478.378 164.76 480.388 163.019 482.011C161.276 483.634 159.207 484.404 156.813 484.319C154.418 484.234 152.408 483.329 150.784 481.603C149.161 479.877 148.392 477.8 148.478 475.373C148.561 473.011 149.483 471.01 151.241 469.371C153.001 467.732 155.061 466.955 157.424 467.038C159.818 467.122 161.827 468.044 163.45 469.803C165.073 471.561 165.842 473.622 165.758 475.984Z" fill="#FFF2E0" stroke="#294064" stroke-miterlimit="10" stroke-linecap="round" stroke-linejoin="round"/>
<path d="M150.34 498.228C156.116 504.106 167.863 504.976 175.099 502.634" stroke="#294064" stroke-miterlimit="10" stroke-linecap="round" stroke-linejoin="round"/>
<path d="M179.176 500.605C183.644 499.159 188.101 494.968 189.741 491.688" stroke="#294064" stroke-miterlimit="10" stroke-linecap="round" stroke-linejoin="round"/>
<path d="M163.673 465.149C167.734 467.66 171.104 473.453 168.782 479.43" stroke="#294064" stroke-miterlimit="10" stroke-linecap="round" stroke-linejoin="round"/>
<path d="M213.625 459.796L221.676 468.826" stroke="#294064" stroke-miterlimit="10" stroke-linecap="round" stroke-linejoin="round"/>
<path d="M87.3951 579.77C87.2538 579.942 87.1432 580.151 87.0765 580.378C83.5319 592.436 81.9335 605.642 82.8891 618.911C84.0314 634.77 88.7523 650.11 97.51 664.343C102.286 672.105 107.829 677.938 113.862 681.74C114.895 686.328 116.743 690.744 119.202 694.465C125.024 703.274 133.766 709.922 144.387 714.4C152.99 718.026 162.485 720.033 170.429 720.253C171.376 720.28 172.169 719.53 172.195 718.583C172.221 717.636 171.466 716.848 170.519 716.822C162.995 716.614 153.928 714.701 145.724 711.242C135.687 707.011 127.477 700.772 122.06 692.576C120.369 690.017 118.992 687.087 118.009 684C123.598 686.564 129.537 687.471 135.656 686.562C143.045 685.466 148.862 681.296 151.905 675.281C154.857 669.444 154.852 662.493 151.765 656.464C149.603 652.241 144.477 648.868 138.704 647.846C132.228 646.699 125.791 648.56 120.942 653.579C115.251 659.47 112.673 666.913 112.954 675.004C112.978 675.687 113.038 676.37 113.102 677.054C108.518 673.58 104.252 668.739 100.44 662.544C91.9796 648.794 87.4197 633.984 86.3155 618.66C85.3909 605.816 86.937 593.021 90.3695 581.343C90.6371 580.434 90.1149 579.475 89.2063 579.208C88.5245 579.008 87.8186 579.253 87.3951 579.77ZM123.411 655.967C127.436 651.8 132.715 650.268 138.106 651.223C142.882 652.069 147.079 654.829 148.717 658.027C151.303 663.077 151.301 668.872 148.842 673.733C146.303 678.752 141.445 682.233 135.155 683.166C128.813 684.108 122.647 682.873 116.898 679.585C116.612 678.021 116.436 676.45 116.382 674.886C116.131 667.688 118.397 661.158 123.411 655.967Z" fill="#18D0CB" stroke="#294064" stroke-miterlimit="10" stroke-linecap="round" stroke-linejoin="round"/>
<path d="M175.477 717.354C175.134 717.628 174.894 718.029 174.842 718.499C174.738 719.441 175.415 720.295 176.357 720.399C176.441 720.408 176.588 720.42 176.795 720.439C177.136 720.47 177.522 720.502 177.939 720.529C179.128 720.607 180.359 720.648 181.572 720.633C182.762 720.618 183.873 720.544 184.881 720.412C185.383 720.346 185.854 720.269 186.298 720.17C187.223 719.965 187.809 719.049 187.604 718.124C187.399 717.199 186.482 716.612 185.557 716.818C185.216 716.893 184.838 716.959 184.432 717.012C183.571 717.126 182.593 717.189 181.529 717.203C180.415 717.217 179.268 717.182 178.162 717.109C177.775 717.083 177.424 717.051 177.111 717.022C177.002 717.012 176.749 716.992 176.736 716.991C176.265 716.938 175.819 717.079 175.477 717.354Z" fill="#FFF2E0" stroke="#294064" stroke-miterlimit="10" stroke-linecap="round" stroke-linejoin="round"/>
<path d="M190.438 716.658C190.103 716.941 189.872 717.349 189.832 717.821C189.753 718.765 190.455 719.599 191.399 719.678C194.472 719.936 200.524 718.1 203.534 716.215C204.336 715.712 204.575 714.653 204.073 713.85C203.569 713.047 202.516 712.802 201.713 713.305C199.287 714.825 193.94 716.45 191.684 716.26C191.212 716.22 190.773 716.375 190.438 716.658Z" fill="#FFF2E0" stroke="#294064" stroke-miterlimit="10" stroke-linecap="round" stroke-linejoin="round"/>
<path d="M105.663 583.265C104.972 583.912 104.939 584.997 105.587 585.688L121.047 602.17C121.695 602.861 122.779 602.905 123.47 602.257C124.161 601.609 124.199 600.519 123.552 599.828L108.087 583.339C107.439 582.648 106.354 582.616 105.663 583.265Z" fill="#FFF2E0" stroke="#294064" stroke-miterlimit="10" stroke-linecap="round" stroke-linejoin="round"/>
<path d="M66.6661 589.358C66.4809 589.482 66.3147 589.64 66.1846 589.838L50.8752 613.103C50.3548 613.895 50.578 614.958 51.3693 615.479C52.1611 616 53.2191 615.782 53.7395 614.991L69.0488 591.725C69.5697 590.934 69.3518 589.876 68.5602 589.355C67.9665 588.965 67.2223 588.987 66.6661 589.358Z" fill="#FFF2E0" stroke="#294064" stroke-miterlimit="10" stroke-linecap="round" stroke-linejoin="round"/>
<path d="M46.1446 622.305C45.9605 622.43 45.7965 622.591 45.6687 622.791L34.9059 639.523C34.3935 640.319 34.6211 641.381 35.4179 641.894C36.2146 642.406 37.276 642.178 37.7888 641.382L48.5512 624.65C49.064 623.853 48.8359 622.791 48.0397 622.279C47.442 621.894 46.6964 621.928 46.1446 622.305Z" fill="#FFF2E0" stroke="#294064" stroke-miterlimit="10" stroke-linecap="round" stroke-linejoin="round"/>
<path d="M89.9371 476.922C87.9416 478.755 85.8116 480.809 83.5995 483.027C75.2492 491.404 66.9583 500.903 64.3913 505.119C63.9178 505.897 60.2306 511.101 59.9055 511.573C57.2722 515.395 55.1474 518.829 53.3173 522.418C50.3098 528.318 48.4648 533.987 48.0663 539.523C47.572 546.384 49.3618 552.721 53.7348 558.214C61.6563 568.166 80.5482 568.769 92.0602 560.72C94.4628 563.515 97.1335 565.954 100.012 567.858C107.425 572.759 115.784 573.951 124.297 570.563C129.579 568.461 133.308 564.314 135.564 558.675C137.37 554.159 138.216 548.769 138.276 542.718C138.362 533.97 136.663 523.644 134.904 518.305C131.095 506.739 126.501 495.211 122.081 486.326C116.675 475.46 111.97 468.979 106.996 467.444C105.68 467.038 104.404 467.124 103.12 467.498C102.28 467.743 101.429 468.12 100.523 468.621C99.0584 469.431 97.3821 470.603 95.4657 472.135C93.7938 473.47 91.9331 475.088 89.9371 476.922ZM96.2656 483.945C98.1321 482.229 99.8513 480.732 101.363 479.524C102.808 478.37 104.003 477.542 104.91 477.019C104.978 477.077 105.024 477.103 105.096 477.171C105.794 477.821 106.611 478.779 107.501 480.008C109.347 482.553 111.418 486.134 113.609 490.538C117.812 498.986 122.249 510.095 125.925 521.258C126.435 522.808 127.161 525.951 127.718 529.347C128.453 533.827 128.863 538.392 128.821 542.629C128.719 552.979 126.03 559.703 120.804 561.783C115.303 563.973 110.162 563.236 105.225 559.972C102.892 558.43 100.677 556.333 98.6751 553.89C102.531 548.275 105.549 540.907 106.681 534.255C107.395 530.06 107.346 526.285 106.368 523.187C105.076 519.09 102.146 516.256 97.9304 515.596C94.2266 515.017 90.8274 516.527 88.2268 519.454C86.1756 521.761 84.6186 524.935 83.6389 528.58C81.6508 535.975 82.1809 544.488 85.4743 550.889C85.8435 551.607 86.2434 552.308 86.6443 553.007C83.4737 555.24 79.1838 556.616 74.5863 556.804C68.6424 557.047 63.4505 555.251 61.1289 552.335C55.8079 545.65 56.4198 537.148 61.7428 526.707C63.3554 523.543 65.27 520.446 67.6874 516.938C67.8053 516.766 71.7891 511.143 72.4623 510.037C74.5275 506.645 82.4462 497.573 90.2948 489.7C92.3916 487.597 94.3996 485.662 96.2656 483.945ZM95.296 525.735C95.9086 525.046 96.231 524.898 96.4614 524.934C96.9057 525.004 97.0886 525.181 97.3576 526.034C97.8189 527.495 97.8537 529.832 97.3706 532.672C96.6993 536.617 95.1325 540.979 93.1259 544.794C91.6781 540.777 91.5486 535.579 92.7712 531.031C93.3959 528.706 94.3163 526.837 95.296 525.735Z" fill="#FE1D53" stroke="#294064" stroke-miterlimit="10" stroke-linecap="round" stroke-linejoin="round"/>
<path d="M81.9215 481.201C82.1599 481.775 81.6396 482.472 82.0273 482.958C82.5673 483.637 84.1674 485.433 84.72 486.103C86.2868 487.999 88.3382 489.509 90.4494 490.825C91.6146 491.55 94.118 491.115 94.1961 489.122C94.2461 487.841 93.3337 486.383 92.5328 485.718C90.4313 483.974 87.7371 481.909 86.0677 479.756C85.0917 478.497 83.2401 476.245 82.1297 475.091" fill="white"/>
<path d="M141.156 494.793C142.209 494.364 143.378 493.296 144.365 492.734C147.348 491.035 150.184 488.963 152.104 485.996C152.867 484.817 154.932 482.669 154.75 481.163C154.663 480.446 151.383 479.574 150.63 479.932C150.054 480.204 149.622 480.498 149.205 480.949C148.288 481.941 146.622 483.586 145.593 484.46C141.948 487.552 140.764 489.242 136.542 491.514" fill="white"/>
<path d="M140.241 495.506C145.745 492.676 151.103 487.969 155.289 482.456" stroke="#294064" stroke-miterlimit="10" stroke-linecap="round" stroke-linejoin="round"/>
<path d="M81.8177 482.713C85.638 487.486 88.4761 489.938 90.557 491.527" stroke="#294064" stroke-miterlimit="10" stroke-linecap="round" stroke-linejoin="round"/>
<path d="M86.2144 478.698C88.2878 481.965 92.4737 485.497 94.7525 487.298" stroke="#294064" stroke-miterlimit="10" stroke-linecap="round" stroke-linejoin="round"/>
<path d="M137.531 490.151C141.558 488.192 146.747 483.72 150.371 479.216" stroke="#294064" stroke-miterlimit="10" stroke-linecap="round" stroke-linejoin="round"/>
</g>
<defs>
<radialGradient id="paint0_radial_1177_2670" cx="0" cy="0" r="1" gradientUnits="userSpaceOnUse" gradientTransform="translate(831 888) rotate(118.185) scale(847.513 524.456)">
<stop stop-color="#E7012A"/>
<stop offset="1" stop-color="#5815A3"/>
</radialGradient>
<clipPath id="clip0_1177_2670">
<path d="M0 0H414V841C414 852.046 405.046 861 394 861H20C8.95432 861 0 852.046 0 841V0Z" fill="white"/>
</clipPath>
<clipPath id="clip1_1177_2670">
<rect width="107" height="25" fill="white" transform="translate(234 734)"/>
</clipPath>
</defs>
</svg>
