<svg width="414" height="861" viewBox="0 0 414 861" fill="none" xmlns="http://www.w3.org/2000/svg">
<g clip-path="url(#clip0_1232_5298)">
<path d="M0 0H414V841C414 852.046 405.046 861 394 861H20C8.95432 861 0 852.046 0 841V0Z" fill="#EF6A82"/>
<g clip-path="url(#clip1_1232_5298)">
<path d="M0 0H414V841C414 852.046 405.046 861 394 861H20C8.95432 861 0 852.046 0 841V0Z" fill="#EF6A82"/>
<rect x="415" y="888" width="416" height="888" transform="rotate(-180 415 888)" fill="url(#paint0_radial_1232_5298)"/>
<path fill-rule="evenodd" clip-rule="evenodd" d="M99.1202 707.449L93.3981 720.397H91.0033V707.449H71.7938L71.7945 707.449C68.5918 707.474 65.0309 708.102 62.2459 710.49C59.2493 713.058 58.2168 716.719 58.2168 720.478C58.2168 724.237 59.2467 727.91 62.2673 730.47C65.1194 732.888 68.7733 733.463 71.9945 733.463C72.0471 733.463 72.1037 733.463 72.1037 733.463C72.1048 733.463 72.1048 733.463 72.1056 733.463C72.1048 733.463 72.1052 733.463 72.1056 733.463L87.6906 733.459H101.955L103.799 729.301H105.198L107.034 733.459H126.071V730.025C126.229 730.177 126.393 730.326 126.564 730.47C129.416 732.888 133.07 733.463 136.291 733.463C136.439 733.463 136.588 733.461 136.737 733.459H167.566V707.449H99.1202Z" fill="#E1012E"/>
<path fill-rule="evenodd" clip-rule="evenodd" d="M99.1566 707.175L93.3991 720.393H90.9894V707.175H71.661L71.6618 707.176C68.4392 707.201 64.8563 707.842 62.054 710.279C59.0389 712.902 58 716.638 58 720.476C58 724.313 59.0363 728.063 62.0756 730.677C64.9454 733.145 68.6218 733.732 71.863 733.732C71.9159 733.732 71.9729 733.732 71.9729 733.732C71.974 733.732 71.974 733.732 71.9747 733.732C71.974 733.732 71.9743 733.732 71.9747 733.732L87.6562 733.728H102.008L103.864 729.483H105.272L107.12 733.728H126.274V730.222C126.433 730.377 126.598 730.529 126.77 730.677C129.64 733.145 133.317 733.732 136.558 733.732C136.707 733.732 136.856 733.73 137.006 733.728H168.026V707.175H99.1566ZM80.0375 723.538C80.0342 723.557 80.0305 723.575 80.0269 723.594C80.0192 723.636 80.0115 723.678 80.0031 723.719C79.9984 723.742 79.9933 723.764 79.9885 723.787C79.9809 723.824 79.9732 723.86 79.9652 723.896C79.9597 723.921 79.9535 723.946 79.9476 723.97C79.9396 724.003 79.9319 724.036 79.9235 724.069C79.9155 724.1 79.9075 724.131 79.8991 724.161C79.8929 724.185 79.8867 724.208 79.8801 724.231C79.8713 724.263 79.8618 724.293 79.8527 724.324C79.8461 724.346 79.8399 724.369 79.833 724.391C79.8231 724.422 79.8125 724.454 79.8023 724.486C79.7957 724.506 79.7892 724.527 79.7822 724.547C79.7705 724.581 79.7585 724.615 79.7461 724.649C79.7402 724.666 79.7344 724.683 79.7282 724.7C79.7096 724.75 79.6906 724.799 79.6708 724.848C79.6665 724.86 79.6617 724.87 79.657 724.881C79.6416 724.919 79.6259 724.957 79.6099 724.994C79.6015 725.013 79.5923 725.033 79.5839 725.052C79.5712 725.08 79.5587 725.109 79.5456 725.137C79.5357 725.158 79.5255 725.178 79.5153 725.199C79.5029 725.225 79.4905 725.251 79.4777 725.276C79.4667 725.297 79.4558 725.318 79.4444 725.339C79.4317 725.363 79.4192 725.388 79.4065 725.412C79.3948 725.433 79.3827 725.454 79.3707 725.476C79.3579 725.499 79.3451 725.522 79.3316 725.545C79.3192 725.566 79.3064 725.587 79.2936 725.608C79.2801 725.63 79.267 725.652 79.2535 725.674C79.2403 725.695 79.2272 725.715 79.2137 725.736C79.1998 725.757 79.1859 725.779 79.172 725.8C79.1582 725.821 79.1443 725.841 79.1304 725.861C79.1162 725.882 79.1019 725.903 79.0873 725.923C79.0731 725.943 79.0581 725.963 79.0435 725.983C79.0285 726.003 79.0139 726.023 78.9989 726.043C78.984 726.063 78.9686 726.082 78.9533 726.102C78.938 726.121 78.9226 726.141 78.9069 726.16C78.8912 726.179 78.8755 726.198 78.8595 726.217C78.8438 726.236 78.8277 726.255 78.8116 726.273C78.7952 726.292 78.7788 726.311 78.7623 726.329C78.7459 726.348 78.7295 726.366 78.7127 726.384C78.6959 726.402 78.6787 726.421 78.6615 726.439C78.6447 726.456 78.6276 726.474 78.6104 726.491C78.5929 726.509 78.5754 726.527 78.5578 726.544C78.5403 726.562 78.5228 726.579 78.5049 726.596C78.487 726.613 78.4687 726.63 78.4505 726.647C78.4322 726.664 78.414 726.681 78.3957 726.697C78.3771 726.714 78.3585 726.731 78.3398 726.747C78.3212 726.763 78.3022 726.78 78.2829 726.796C78.2639 726.812 78.2449 726.828 78.2255 726.844C78.2062 726.86 78.1865 726.876 78.1664 726.891C78.147 726.907 78.1273 726.922 78.1076 726.938C78.0875 726.953 78.0667 726.969 78.0462 726.984C78.0265 726.999 78.0064 727.014 77.9864 727.029C77.9655 727.044 77.944 727.059 77.9228 727.074C77.9024 727.088 77.8823 727.102 77.8618 727.117C77.8399 727.132 77.8176 727.146 77.7954 727.161C77.7749 727.174 77.7545 727.188 77.734 727.201C77.711 727.216 77.6877 727.231 77.6639 727.245C77.6435 727.258 77.623 727.271 77.6026 727.283C77.5781 727.298 77.5529 727.312 77.5281 727.327C77.508 727.339 77.4883 727.351 77.4678 727.362C77.4408 727.377 77.4131 727.392 77.3857 727.407C77.2294 727.493 77.0669 727.573 76.8978 727.648C75.6019 728.22 73.9228 728.478 71.8622 728.478C66.6131 728.478 63.5256 726.563 63.2696 721.217C63.258 720.977 63.2525 720.73 63.2525 720.475C63.2525 720.189 63.2598 719.912 63.2744 719.643C63.5614 714.381 66.6434 712.427 71.8622 712.427C73.906 712.427 75.5814 712.681 76.8752 713.248C77.061 713.329 77.2385 713.418 77.4083 713.512C77.4309 713.525 77.454 713.537 77.4766 713.55C77.5018 713.564 77.5266 713.579 77.5515 713.594C77.5734 713.607 77.5953 713.62 77.6168 713.633C77.6416 713.648 77.6661 713.664 77.6906 713.68C77.7114 713.693 77.7326 713.706 77.7534 713.72C77.7775 713.735 77.8009 713.751 77.8242 713.767C77.8447 713.781 77.8659 713.795 77.8859 713.809C77.9097 713.825 77.9327 713.843 77.956 713.859C77.9758 713.874 77.9955 713.888 78.0148 713.902C78.0382 713.919 78.0608 713.937 78.0839 713.955C78.1025 713.969 78.1215 713.983 78.1401 713.998C78.1624 714.016 78.1843 714.034 78.2065 714.052C78.2248 714.067 78.2434 714.082 78.2617 714.098C78.2829 714.115 78.3037 714.134 78.3249 714.153C78.3431 714.169 78.3617 714.184 78.3796 714.201C78.4001 714.219 78.4198 714.238 78.4399 714.256C78.4578 714.273 78.476 714.29 78.4936 714.306C78.5133 714.325 78.5323 714.345 78.5516 714.364C78.5688 714.381 78.5863 714.398 78.6035 714.416C78.6221 714.435 78.64 714.455 78.6583 714.474C78.6754 714.492 78.6929 714.51 78.7097 714.529C78.7273 714.548 78.7444 714.568 78.762 714.588C78.7788 714.607 78.7955 714.626 78.812 714.645C78.8288 714.665 78.8452 714.685 78.8616 714.706C78.8777 714.725 78.8945 714.745 78.9102 714.765C78.9263 714.785 78.942 714.806 78.9577 714.826C78.9734 714.847 78.9895 714.867 79.0048 714.888C79.0205 714.909 79.0351 714.93 79.0504 714.952C79.0654 714.973 79.0807 714.993 79.0953 715.015C79.1096 715.035 79.1231 715.056 79.137 715.078C79.1519 715.1 79.1673 715.123 79.1823 715.146C79.1954 715.166 79.2075 715.186 79.2202 715.207C79.2352 715.231 79.2505 715.255 79.2651 715.28C79.2776 715.3 79.2892 715.322 79.3017 715.343C79.3159 715.368 79.3305 715.392 79.3444 715.417C79.3561 715.438 79.3674 715.46 79.3787 715.481C79.3926 715.507 79.4065 715.532 79.4196 715.558C79.4306 715.58 79.4412 715.602 79.4517 715.623C79.4649 715.65 79.4784 715.676 79.4912 715.703C79.5014 715.725 79.5113 715.747 79.5215 715.769C79.5339 715.796 79.5467 715.823 79.5591 715.851C79.5686 715.873 79.5777 715.896 79.5872 715.918C79.5993 715.946 79.6113 715.974 79.623 716.003C79.6321 716.026 79.6409 716.05 79.65 716.073C79.661 716.102 79.6723 716.13 79.6829 716.159C79.6917 716.183 79.6997 716.207 79.7081 716.231C79.7183 716.26 79.7289 716.289 79.7388 716.318C79.7468 716.343 79.7541 716.367 79.7621 716.391C79.7716 716.421 79.7815 716.451 79.791 716.482C79.7986 716.507 79.8056 716.532 79.8129 716.558C79.8217 716.588 79.8308 716.618 79.8392 716.649C79.8465 716.676 79.8531 716.703 79.8604 716.73C79.868 716.76 79.8761 716.789 79.8834 716.819C79.8903 716.848 79.8965 716.877 79.9031 716.905C79.91 716.935 79.917 716.964 79.9235 716.994C79.9305 717.026 79.9367 717.058 79.9433 717.091C79.9487 717.118 79.9546 717.145 79.9601 717.173C79.9604 717.175 79.9611 717.178 79.9615 717.181C79.9714 717.232 79.9805 717.285 79.9893 717.338C79.9918 717.354 79.9944 717.37 79.9973 717.386C80.0039 717.428 80.0104 717.47 80.0166 717.512C80.0188 717.528 80.0214 717.544 80.0236 717.56C80.0316 717.617 80.0389 717.674 80.0459 717.732H76.8763C76.4717 715.507 74.8306 714.878 71.8633 714.878C68.559 714.878 66.4232 715.979 66.4232 719.643V721.217C66.4232 724.814 68.5137 726.027 71.8633 726.027C74.7182 726.027 76.3818 725.488 76.8989 723.352H80.0685C80.059 723.415 80.0488 723.476 80.0378 723.537L80.0375 723.538ZM95.2223 728.209H83.86H82.5888V712.698H85.7362V725.646H95.2227V728.209H95.2223ZM112.62 728.209H110.446L108.715 724.23H100.421L98.6899 728.209H95.7226L99.1777 720.393L102.579 712.698H106.895L112.62 725.693L113.729 728.21H112.62L112.62 728.209ZM127.359 715.261H123.473H121.02V728.209H117.874V715.261H111.534V712.698H127.36V715.261H127.359ZM144.697 723.726C144.696 723.73 144.695 723.733 144.695 723.737C144.683 723.793 144.671 723.849 144.659 723.904C144.657 723.913 144.655 723.921 144.652 723.93C144.641 723.98 144.629 724.029 144.617 724.077C144.612 724.095 144.607 724.111 144.603 724.128C144.594 724.165 144.584 724.201 144.573 724.237C144.568 724.257 144.562 724.276 144.557 724.295C144.547 724.328 144.537 724.362 144.527 724.395C144.52 724.417 144.513 724.438 144.506 724.46C144.496 724.49 144.487 724.52 144.477 724.55C144.468 724.576 144.458 724.601 144.449 724.627C144.441 724.652 144.432 724.677 144.423 724.701C144.405 724.751 144.386 724.8 144.366 724.849C144.363 724.857 144.359 724.865 144.357 724.873C144.34 724.914 144.323 724.955 144.305 724.996C144.299 725.01 144.292 725.024 144.286 725.038C144.271 725.072 144.256 725.106 144.24 725.139C144.233 725.155 144.225 725.171 144.217 725.188C144.202 725.218 144.187 725.248 144.173 725.278C144.164 725.296 144.155 725.313 144.145 725.33C144.131 725.358 144.116 725.386 144.101 725.415C144.091 725.432 144.081 725.45 144.071 725.468C144.056 725.494 144.041 725.521 144.026 725.547C144.016 725.565 144.005 725.583 143.994 725.601C143.979 725.626 143.964 725.652 143.948 725.676C143.937 725.695 143.925 725.713 143.913 725.731C143.898 725.755 143.882 725.779 143.867 725.802C143.854 725.821 143.842 725.839 143.829 725.857C143.813 725.88 143.797 725.903 143.781 725.925C143.768 725.944 143.755 725.962 143.742 725.98C143.726 726.002 143.709 726.024 143.693 726.045C143.679 726.063 143.665 726.082 143.651 726.1C143.634 726.121 143.618 726.141 143.601 726.162C143.586 726.18 143.571 726.198 143.556 726.216C143.54 726.236 143.523 726.256 143.506 726.275C143.491 726.293 143.475 726.311 143.459 726.329C143.442 726.348 143.425 726.366 143.408 726.385C143.391 726.403 143.374 726.421 143.357 726.439C143.341 726.457 143.324 726.474 143.306 726.492C143.289 726.51 143.271 726.528 143.253 726.545C143.236 726.562 143.219 726.579 143.201 726.596C143.183 726.614 143.164 726.631 143.145 726.649C143.128 726.665 143.11 726.681 143.093 726.696C143.073 726.714 143.054 726.732 143.034 726.749C143.016 726.764 142.999 726.779 142.981 726.794C142.961 726.811 142.94 726.829 142.919 726.846C142.901 726.86 142.884 726.875 142.866 726.888C142.845 726.906 142.823 726.923 142.801 726.94C142.784 726.953 142.766 726.967 142.748 726.98C142.725 726.997 142.703 727.014 142.679 727.031C142.662 727.043 142.645 727.056 142.628 727.068C142.603 727.085 142.579 727.102 142.554 727.119C142.538 727.13 142.521 727.141 142.503 727.153C142.478 727.17 142.452 727.187 142.426 727.204C142.41 727.214 142.393 727.224 142.377 727.234C142.349 727.251 142.322 727.269 142.294 727.285C142.279 727.294 142.264 727.303 142.248 727.312C142.219 727.33 142.189 727.347 142.159 727.365C142.147 727.371 142.134 727.378 142.121 727.385C141.952 727.479 141.776 727.567 141.593 727.648C140.297 728.22 138.618 728.478 136.557 728.478C131.308 728.478 128.221 726.564 127.965 721.217C127.954 720.977 127.948 720.73 127.948 720.476C127.948 720.14 127.958 719.816 127.978 719.504C127.979 719.485 127.981 719.466 127.982 719.447C127.985 719.401 127.989 719.354 127.993 719.308C127.995 719.282 127.997 719.257 127.999 719.231C128.002 719.187 128.006 719.143 128.011 719.099C128.013 719.073 128.016 719.047 128.019 719.02C128.023 718.977 128.028 718.934 128.033 718.891C128.035 718.869 128.038 718.847 128.041 718.825C128.05 718.745 128.061 718.666 128.071 718.587C128.075 718.56 128.079 718.533 128.083 718.506C128.088 718.468 128.094 718.431 128.1 718.393C128.105 718.364 128.11 718.334 128.115 718.305C128.121 718.269 128.127 718.233 128.133 718.197C128.139 718.167 128.144 718.136 128.15 718.106C128.157 718.072 128.163 718.038 128.169 718.004C128.176 717.969 128.184 717.935 128.191 717.901C128.201 717.852 128.212 717.803 128.223 717.754C128.231 717.717 128.24 717.679 128.249 717.641C128.256 717.612 128.263 717.583 128.27 717.554C128.279 717.521 128.287 717.488 128.296 717.456C128.303 717.427 128.311 717.398 128.319 717.37C128.328 717.337 128.337 717.304 128.347 717.271C128.354 717.244 128.362 717.217 128.37 717.191C128.382 717.151 128.394 717.112 128.406 717.074C128.413 717.054 128.419 717.033 128.425 717.013C128.443 716.959 128.461 716.905 128.48 716.852C128.487 716.83 128.495 716.809 128.503 716.787C128.515 716.752 128.528 716.716 128.541 716.682C128.55 716.659 128.559 716.637 128.567 716.614C128.581 716.58 128.594 716.546 128.608 716.512C128.616 716.491 128.625 716.47 128.633 716.45C128.65 716.409 128.667 716.368 128.685 716.328C128.69 716.316 128.696 716.303 128.701 716.29C128.725 716.238 128.748 716.186 128.773 716.135C128.78 716.121 128.787 716.106 128.794 716.092C128.812 716.054 128.831 716.017 128.849 715.981C128.858 715.963 128.867 715.946 128.876 715.929C128.894 715.894 128.912 715.86 128.931 715.826C128.94 715.81 128.948 715.794 128.957 715.778C128.98 715.739 129.002 715.699 129.025 715.66C129.03 715.651 129.035 715.642 129.041 715.633C129.069 715.585 129.099 715.537 129.129 715.489C129.134 715.481 129.139 715.473 129.144 715.465C129.169 715.427 129.194 715.388 129.22 715.35C129.229 715.337 129.237 715.324 129.246 715.312C129.27 715.276 129.295 715.241 129.32 715.206C129.326 715.197 129.332 715.188 129.339 715.179C129.371 715.135 129.404 715.091 129.436 715.048C129.438 715.047 129.439 715.045 129.44 715.044C129.471 715.003 129.503 714.964 129.535 714.925C129.543 714.914 129.551 714.904 129.56 714.894C129.588 714.86 129.617 714.826 129.646 714.793C129.652 714.786 129.658 714.779 129.664 714.772C129.698 714.733 129.733 714.693 129.769 714.655C129.776 714.647 129.784 714.639 129.791 714.632C129.82 714.601 129.849 714.57 129.879 714.54C129.889 714.53 129.899 714.52 129.909 714.511C129.944 714.475 129.981 714.439 130.017 714.404C130.019 714.403 130.019 714.402 130.02 714.401C130.058 714.366 130.097 714.33 130.136 714.295C130.146 714.286 130.156 714.277 130.166 714.268C130.197 714.241 130.228 714.214 130.26 714.188C130.269 714.18 130.279 714.172 130.288 714.164C130.328 714.13 130.369 714.098 130.41 714.065C130.416 714.06 130.423 714.055 130.429 714.05C130.464 714.023 130.499 713.996 130.535 713.97C130.547 713.961 130.559 713.952 130.571 713.943C130.606 713.917 130.643 713.891 130.679 713.866C130.686 713.861 130.693 713.856 130.699 713.851C130.742 713.822 130.786 713.793 130.83 713.764C130.84 713.756 130.851 713.75 130.862 713.743C130.897 713.72 130.932 713.698 130.967 713.676C130.98 713.669 130.992 713.661 131.004 713.654C131.049 713.626 131.095 713.599 131.141 713.573C131.144 713.571 131.146 713.57 131.15 713.568C131.193 713.543 131.237 713.519 131.281 713.495C131.294 713.488 131.308 713.481 131.322 713.473C131.359 713.454 131.396 713.434 131.434 713.415C131.445 713.409 131.457 713.403 131.468 713.398C131.516 713.374 131.564 713.35 131.612 713.327C131.624 713.322 131.636 713.316 131.647 713.311C131.686 713.293 131.725 713.276 131.763 713.258C131.779 713.251 131.794 713.245 131.81 713.238C131.853 713.219 131.896 713.201 131.94 713.182C131.948 713.179 131.955 713.176 131.963 713.173C132.013 713.152 132.063 713.132 132.115 713.113C132.131 713.107 132.147 713.101 132.163 713.094C132.201 713.08 132.239 713.066 132.278 713.052C132.294 713.047 132.311 713.04 132.327 713.035C132.379 713.016 132.431 712.999 132.483 712.982C132.495 712.978 132.508 712.974 132.521 712.97C133.67 712.597 135.02 712.427 136.556 712.427C138.6 712.427 140.275 712.681 141.569 713.248C141.767 713.335 141.956 713.429 142.136 713.531C142.147 713.537 142.159 713.543 142.17 713.549C142.207 713.571 142.243 713.593 142.28 713.614C142.29 713.621 142.3 713.626 142.31 713.632C142.347 713.655 142.383 713.678 142.419 713.702C142.428 713.708 142.437 713.713 142.446 713.719C142.482 713.742 142.517 713.766 142.552 713.79C142.561 713.796 142.57 713.802 142.579 713.808C142.613 713.832 142.647 713.857 142.68 713.881C142.69 713.888 142.699 713.894 142.708 713.901C142.741 713.926 142.774 713.951 142.806 713.977C142.815 713.984 142.824 713.99 142.833 713.997C142.865 714.022 142.895 714.047 142.925 714.073C142.935 714.081 142.945 714.088 142.955 714.097C142.984 714.122 143.012 714.147 143.041 714.172C143.051 714.181 143.062 714.19 143.072 714.199C143.1 714.224 143.127 714.25 143.154 714.276C143.165 714.286 143.176 714.295 143.186 714.306C143.212 714.33 143.237 714.356 143.262 714.381C143.273 714.393 143.285 714.404 143.296 714.415C143.319 714.439 143.342 714.464 143.365 714.488C143.377 714.502 143.39 714.515 143.402 714.528C143.424 714.552 143.444 714.576 143.465 714.599C143.478 714.615 143.492 714.629 143.505 714.645C143.524 714.667 143.542 714.691 143.561 714.713C143.575 714.73 143.589 714.748 143.603 714.765C143.62 714.787 143.637 714.809 143.654 714.831C143.669 714.85 143.684 714.869 143.698 714.888C143.714 714.91 143.728 714.931 143.743 714.952C143.758 714.974 143.774 714.994 143.789 715.016C143.803 715.036 143.816 715.056 143.83 715.077C143.845 715.1 143.861 715.123 143.876 715.146C143.888 715.165 143.9 715.185 143.912 715.205C143.928 715.23 143.944 715.255 143.959 715.28C143.969 715.299 143.98 715.317 143.991 715.336C144.006 715.363 144.022 715.39 144.037 715.417C144.048 715.436 144.058 715.456 144.068 715.475C144.083 715.503 144.098 715.53 144.113 715.559C144.123 715.579 144.133 715.6 144.143 715.62C144.157 715.648 144.171 715.675 144.184 715.703C144.194 715.725 144.204 715.747 144.214 715.769C144.227 715.796 144.24 715.824 144.252 715.851C144.263 715.876 144.273 715.901 144.283 715.926C144.294 715.952 144.305 715.977 144.315 716.003C144.328 716.034 144.339 716.066 144.351 716.097C144.359 716.118 144.367 716.138 144.375 716.158C144.389 716.196 144.402 716.235 144.415 716.274C144.42 716.288 144.426 716.303 144.431 716.318C144.448 716.369 144.464 716.421 144.48 716.474C144.481 716.476 144.482 716.478 144.483 716.48C144.549 716.7 144.606 716.93 144.652 717.171C144.654 717.185 144.657 717.199 144.659 717.212C144.667 717.251 144.674 717.29 144.68 717.329C144.684 717.351 144.687 717.374 144.691 717.396C144.697 717.432 144.702 717.468 144.707 717.503C144.71 717.523 144.713 717.543 144.716 717.563C144.724 717.618 144.731 717.675 144.738 717.731H141.568C141.163 715.506 139.523 714.876 136.555 714.876C134.911 714.876 133.557 715.149 132.61 715.874C132.61 715.874 132.609 715.875 132.609 715.875C132.582 715.896 132.555 715.917 132.529 715.939C132.526 715.941 132.523 715.943 132.52 715.946C132.495 715.966 132.47 715.988 132.445 716.01C132.441 716.013 132.438 716.016 132.434 716.019C132.41 716.039 132.387 716.061 132.363 716.083C132.359 716.087 132.354 716.091 132.35 716.095C132.328 716.116 132.306 716.137 132.284 716.159C132.279 716.164 132.274 716.168 132.269 716.173C132.248 716.194 132.227 716.216 132.207 716.237C132.201 716.243 132.196 716.249 132.19 716.255C132.171 716.276 132.152 716.297 132.132 716.319C132.127 716.326 132.12 716.332 132.114 716.339C132.096 716.36 132.078 716.382 132.06 716.403C132.054 716.411 132.047 716.418 132.041 716.427C132.024 716.447 132.008 716.469 131.991 716.49C131.984 716.499 131.977 716.508 131.97 716.517C131.954 716.538 131.939 716.559 131.924 716.58C131.917 716.59 131.909 716.6 131.902 716.61C131.887 716.63 131.874 716.651 131.859 716.672C131.852 716.684 131.844 716.695 131.836 716.706C131.823 716.726 131.81 716.747 131.797 716.768C131.789 716.78 131.781 716.792 131.773 716.805C131.761 716.825 131.749 716.846 131.737 716.867C131.729 716.88 131.721 716.893 131.713 716.907C131.702 716.927 131.691 716.948 131.68 716.968C131.672 716.983 131.664 716.997 131.656 717.012C131.646 717.032 131.635 717.052 131.625 717.073C131.617 717.089 131.609 717.105 131.601 717.121C131.592 717.14 131.582 717.161 131.573 717.181C131.565 717.198 131.557 717.215 131.549 717.232C131.54 717.252 131.532 717.273 131.524 717.292C131.516 717.311 131.508 717.328 131.5 717.347C131.492 717.367 131.485 717.387 131.477 717.407C131.469 717.426 131.462 717.445 131.454 717.465C131.447 717.484 131.44 717.504 131.433 717.524C131.426 717.545 131.418 717.565 131.411 717.586C131.405 717.606 131.398 717.626 131.392 717.645C131.385 717.667 131.378 717.688 131.371 717.71C131.365 717.73 131.359 717.75 131.353 717.77C131.347 717.793 131.34 717.815 131.333 717.838C131.328 717.857 131.323 717.878 131.317 717.897C131.311 717.921 131.305 717.944 131.299 717.969C131.294 717.989 131.289 718.009 131.284 718.03C131.278 718.054 131.272 718.078 131.267 718.103C131.262 718.123 131.258 718.145 131.254 718.165C131.248 718.191 131.243 718.215 131.238 718.241C131.234 718.262 131.23 718.283 131.226 718.304C131.222 718.33 131.217 718.356 131.212 718.382C131.209 718.404 131.205 718.425 131.202 718.447C131.198 718.474 131.193 718.5 131.189 718.527C131.186 718.549 131.183 718.572 131.18 718.594C131.176 718.621 131.172 718.648 131.169 718.676C131.166 718.699 131.164 718.723 131.161 718.746C131.158 718.773 131.155 718.8 131.152 718.827C131.149 718.852 131.148 718.877 131.145 718.903C131.142 718.929 131.14 718.956 131.138 718.983C131.136 719.009 131.134 719.036 131.132 719.063C131.13 719.09 131.129 719.116 131.127 719.142C131.125 719.171 131.124 719.201 131.122 719.231C131.121 719.255 131.12 719.28 131.119 719.305C131.117 719.34 131.117 719.376 131.116 719.412C131.115 719.432 131.114 719.451 131.114 719.471C131.113 719.527 131.113 719.584 131.113 719.641V721.215C131.113 724.812 133.203 726.026 136.552 726.026C139.408 726.026 141.071 725.486 141.588 723.35H144.758C144.738 723.477 144.716 723.601 144.691 723.722L144.697 723.726ZM162.772 728.21H159.625V721.533H150.431V728.21H148.555H147.284V712.698H150.431V718.97H159.625V712.698H162.773V728.209L162.772 728.21Z" fill="white"/>
<path fill-rule="evenodd" clip-rule="evenodd" d="M107.089 720.513L107.064 720.457L104.557 714.743L101.432 721.914H107.704L107.089 720.513Z" fill="white"/>
<path d="M186.913 711.3L189.663 708.3L201.013 718.5L212.363 708.35L215.113 711.3L204.063 721.2L215.113 731.05L212.363 734.05L201.013 723.9L189.663 734.05L186.963 731.05L197.963 721.2L186.913 711.3Z" fill="white"/>
<g clip-path="url(#clip2_1232_5298)">
<path d="M262.123 733H267.995C268.475 733 268.976 732.452 268.976 731.936V709.064C268.971 708.548 268.47 708 267.995 708H262.123C261.642 708 261.141 708.548 261.141 709.064V731.936C261.141 732.452 261.642 733 262.123 733Z" fill="white"/>
<path d="M240.785 733C241.297 733 241.829 732.452 241.829 731.936V723.915H245.483L250.18 732.468C250.306 732.676 250.702 733 251.224 733H258.01C258.553 733 258.814 732.399 258.532 731.936L251.746 720.197L258.532 709.064C258.85 708.601 258.568 708 258.01 708H250.702C250.18 708 249.784 708.34 249.659 708.532L244.961 717.005H241.829V709.064C241.819 708.553 241.297 708 240.785 708H235.044C234.522 708 234 708.527 234 709.037V731.936C234 732.452 234.532 733 235.044 733H240.785Z" fill="white"/>
<path d="M339.956 733C340.468 733 341 732.399 341 731.883V709.037C341 708.521 340.468 708 339.956 708H334.215C333.703 708 333.171 708.548 333.171 709.064V720.766L323.254 708H316.468C315.957 708 315.424 708.548 315.424 709.064V731.936C315.424 732.452 315.957 733 316.468 733H322.21C322.721 733 323.254 732.452 323.254 731.936V720.197L333.171 733H339.956Z" fill="white"/>
<path d="M273.152 733H311.254C311.818 733 312.298 732.505 312.298 731.936V709.064C312.298 708.495 311.818 708 311.254 708H273.152C272.588 708 272.108 708.495 272.108 709.064V731.936C272.108 732.505 272.588 733 273.152 733ZM280.459 714.383C282.818 714.851 287.74 714.92 292.344 714.91C297.114 714.899 301.89 714.798 303.947 714.383C304.15 714.34 304.469 714.378 304.469 714.91V725.532C304.469 726.085 304.14 726.085 303.947 726.064C301.911 725.809 297.099 725.883 292.344 725.867C287.537 725.856 282.463 725.787 280.459 726.085C280.261 726.112 279.937 726.106 279.937 725.553V714.915C279.937 714.383 280.261 714.346 280.459 714.383Z" fill="white"/>
</g>
<path d="M325.06 465.817L320.566 461.479L310.603 474.945L314.864 493.454L298.532 504.236C293.904 496.44 286.672 491.384 276.413 489.854C272.845 489.322 269.51 489.098 266.27 489.199C243.578 489.906 228.778 505.655 220.986 530.607C218.378 538.962 216.664 547.844 215.753 556.716C215.195 562.136 215.091 566.45 215.099 569.174C215.099 569.197 215.099 569.265 215.099 569.278C215.121 573.219 218.254 576.401 222.19 576.379C226.127 576.357 229.304 573.115 229.282 569.174C229.282 569.181 229.324 567.458 229.386 566.003C229.487 563.618 229.645 560.974 229.936 558.136C230.758 550.147 232.329 542.218 234.625 534.867C241.672 512.303 254.05 500.922 274.34 503.947C286.183 505.712 291.268 516.941 290.705 536.612C290.479 544.573 289.286 553.147 287.435 561.852C286.705 565.285 285.922 568.475 285.142 571.353C284.68 573.058 284.353 574.251 284.164 574.855C282.984 578.615 285.097 582.629 288.852 583.811C292.608 584.992 296.616 582.875 297.797 579.115C298.041 578.338 298.488 576.964 299.001 575.069C299.847 571.948 300.611 568.504 301.398 564.803C303.415 555.318 304.744 545.868 304.999 536.943C305.192 530.168 304.773 523.938 303.673 518.375L318.338 508.544L318.682 521.577L322.269 525.627L337.243 514.299L333.314 497.91L350.637 486.237L347.319 472.029L343.764 468.058L329.757 483.446L325.06 465.817Z" fill="#DA0234" stroke="#294064" stroke-miterlimit="10" stroke-linejoin="round"/>
<path d="M320.581 461.479L306.943 470.905L311.204 489.415L294.872 500.197C290.244 492.401 283.012 487.345 272.75 485.815C269.182 485.283 265.85 485.059 262.608 485.16C239.918 485.866 225.118 501.616 217.326 526.567C214.715 534.922 213.004 543.804 212.092 552.677C211.535 558.097 211.429 562.411 211.438 565.134C211.438 565.158 211.436 565.226 211.438 565.239C211.459 569.18 214.593 572.362 218.53 572.34C222.465 572.318 225.644 569.076 225.621 565.134C225.621 565.142 225.664 563.419 225.725 561.963C225.827 559.579 225.983 556.935 226.275 554.097C227.096 546.108 228.669 538.178 230.964 530.828C238.011 508.264 250.388 496.883 270.679 499.907C282.521 501.673 287.606 512.902 287.045 532.573C286.817 540.533 285.624 549.108 283.773 557.813C283.043 561.245 282.261 564.436 281.481 567.314C281.02 569.019 280.692 570.212 280.503 570.815C279.323 574.575 281.437 578.59 285.192 579.772C288.947 580.953 292.956 578.836 294.136 575.076C294.381 574.299 294.827 572.924 295.34 571.03C296.185 567.909 296.95 564.465 297.737 560.764C299.753 551.279 301.083 541.829 301.339 532.903C301.531 526.129 301.113 519.899 300.012 514.336L314.677 504.504L318.608 521.588L332.884 511.067L328.89 494.974L346.824 482.951L343.657 467.989L325.218 480.163L320.581 461.479Z" fill="#F74C75" stroke="#294064" stroke-miterlimit="10" stroke-linejoin="round"/>
<path d="M213.323 543.546C216.669 548.186 223.008 552.479 229.557 553.503C229.557 553.503 214.001 557.389 211.27 556.94L213.323 543.546Z" fill="#294064" stroke="#294064" stroke-miterlimit="10" stroke-linecap="round" stroke-linejoin="round"/>
<path d="M286.395 544.772C286.395 544.772 287.862 549.928 298.232 553.042C292.83 556.011 285.229 555.426 285.229 555.426L286.395 544.772Z" fill="#294064" stroke="#294064" stroke-miterlimit="10" stroke-linecap="round" stroke-linejoin="round"/>
<path d="M203.575 561.859C204.095 557.48 207.802 554.182 212.207 554.182H301.967C307.184 554.182 311.226 558.752 310.596 563.938L301.332 640.094C300.802 644.463 297.099 647.746 292.704 647.746H203.171C197.965 647.746 193.926 643.194 194.54 638.017L203.575 561.859Z" fill="#DA0234" stroke="#294064" stroke-miterlimit="10" stroke-linejoin="round"/>
<path d="M192.394 561.859C192.915 557.48 196.622 554.182 201.025 554.182H290.787C296.003 554.182 300.046 558.752 299.414 563.938L290.151 640.094C289.619 644.463 285.916 647.746 281.522 647.746H191.99C186.783 647.746 182.744 643.194 183.359 638.017L192.394 561.859Z" fill="#FFF2E0" stroke="#294064" stroke-miterlimit="10" stroke-linejoin="round"/>
<mask id="mask0_1232_5298" style="mask-type:luminance" maskUnits="userSpaceOnUse" x="183" y="554" width="117" height="94">
<path d="M192.393 561.857C192.914 557.479 196.621 554.181 201.024 554.181H290.786C296.002 554.181 300.045 558.751 299.413 563.937L290.15 640.093C289.618 644.462 285.915 647.745 281.521 647.745H191.989C186.782 647.745 182.743 643.193 183.358 638.015L192.393 561.857Z" fill="white"/>
</mask>
<g mask="url(#mask0_1232_5298)">
<path d="M198.799 564.475C203.556 558.754 211.226 557.295 215.931 561.217C220.637 565.14 220.594 572.958 215.837 578.679C211.08 584.401 203.408 585.86 198.703 581.937C193.999 578.015 194.042 570.197 198.799 564.475Z" fill="#F64C75"/>
<path d="M204.288 595.568C209.045 589.845 216.715 588.387 221.42 592.309C226.126 596.232 226.083 604.049 221.326 609.772C216.569 615.493 208.897 616.951 204.192 613.029C199.488 609.108 199.531 601.289 204.288 595.568Z" fill="#F64C75"/>
<path d="M187.351 623.677C192.108 617.954 199.779 616.496 204.483 620.419C209.188 624.341 209.146 632.16 204.389 637.881C199.631 643.602 191.96 645.062 187.256 641.138C182.551 637.217 182.593 629.398 187.351 623.677Z" fill="#F64C75"/>
<path d="M217.147 631.058C221.904 625.335 229.575 623.877 234.281 627.798C238.984 631.722 238.942 639.539 234.184 645.262C229.427 650.982 221.758 652.441 217.052 648.519C212.347 644.597 212.389 636.779 217.147 631.058Z" fill="#F64C75"/>
<path d="M249.14 618.18C253.898 612.459 261.569 611 266.273 614.923C270.978 618.844 270.935 626.663 266.178 632.384C261.421 638.105 253.749 639.565 249.046 635.642C244.34 631.72 244.383 623.901 249.14 618.18Z" fill="#F64C75"/>
<path d="M262.157 641.736C266.914 636.016 274.586 634.556 279.291 638.479C283.995 642.401 283.952 650.219 279.195 655.94C274.437 661.663 266.768 663.121 262.062 659.2C257.357 655.276 257.399 647.459 262.157 641.736Z" fill="#F64C75"/>
<path d="M277.683 603.264C282.44 597.542 290.112 596.084 294.816 600.007C299.521 603.928 299.478 611.745 294.721 617.468C289.964 623.189 282.292 624.649 277.589 620.726C272.883 616.804 272.926 608.985 277.683 603.264Z" fill="#F64C75"/>
<path d="M255.571 583.948C260.328 578.226 267.998 576.768 272.703 580.69C277.409 584.612 277.366 592.43 272.609 598.151C267.852 603.874 260.18 605.332 255.475 601.411C250.771 597.487 250.814 589.67 255.571 583.948Z" fill="#F64C75"/>
<path d="M278.466 560.079C283.224 554.358 290.895 552.899 295.601 556.821C300.304 560.744 300.262 568.562 295.504 574.283C290.747 580.005 283.077 581.463 278.372 577.541C273.666 573.619 273.709 565.801 278.466 560.079Z" fill="#F64C75"/>
<path d="M250.239 549.242C254.996 543.521 262.666 542.062 267.371 545.984C272.075 549.907 272.032 557.725 267.275 563.446C262.518 569.168 254.848 570.627 250.143 566.704C245.439 562.782 245.482 554.964 250.239 549.242Z" fill="#F64C75"/>
<path d="M223.107 541.39C227.865 535.669 235.536 534.21 240.242 538.132C244.945 542.055 244.903 549.873 240.145 555.594C235.388 561.316 227.718 562.775 223.013 558.852C218.308 554.93 218.35 547.112 223.107 541.39Z" fill="#F64C75"/>
<path d="M173.549 593.211C178.308 587.489 185.978 586.031 190.683 589.954C195.387 593.875 195.344 601.694 190.587 607.415C185.83 613.136 178.16 614.596 173.455 610.673C168.749 606.751 168.792 598.932 173.549 593.211Z" fill="#F64C75"/>
</g>
<path d="M192.409 561.859C192.928 557.48 196.637 554.182 201.04 554.182H290.802C296.018 554.182 300.061 558.752 299.429 563.938L290.166 640.094C289.635 644.463 285.931 647.746 281.537 647.746H192.005C186.798 647.746 182.759 643.194 183.374 638.017L192.409 561.859Z" stroke="#294064" stroke-miterlimit="10" stroke-linejoin="round"/>
<path d="M243.076 571.797C234.006 571.797 226.709 579.103 226.709 588.184C226.709 594.287 230.182 599.441 235.11 602.279L220.38 628.5L251.04 628.062L248.641 603.59C254.966 601.303 259.551 595.308 259.551 588.184C259.551 579.103 252.146 571.797 243.076 571.797Z" fill="#F64C75" stroke="#294064" stroke-miterlimit="10" stroke-linejoin="round"/>
<path d="M248.323 573.204C239.375 571.708 232.28 578.158 232.28 587.24C232.28 593.341 235.038 598.548 239.966 601.386L226.348 628.499L251.041 628.062L248.642 603.59C254.966 601.303 259.551 595.308 259.551 588.184C259.551 582.018 256.224 574.525 248.323 573.204Z" fill="#294064" stroke="#294064" stroke-miterlimit="10" stroke-linejoin="round"/>
<g style="mix-blend-mode:multiply">
<path d="M151.593 666.229C151.593 660.075 193.242 655.085 244.618 655.085C295.995 655.085 337.645 660.075 337.645 666.229C337.645 672.384 295.995 677.373 244.618 677.373C193.242 677.373 151.593 672.384 151.593 666.229Z" fill="#6365C3"/>
</g>
<path d="M96.0839 420.323C79.3794 436.132 78.6538 462.483 94.4632 479.188C110.272 495.892 136.629 496.623 153.333 480.814C170.038 465.004 170.763 438.643 154.954 421.938C139.145 405.234 112.788 404.513 96.0839 420.323ZM99.7664 424.214C114.32 410.44 137.284 411.073 151.057 425.626C164.831 440.179 164.199 463.144 149.645 476.917C135.092 490.691 112.127 490.059 98.3541 475.505C84.5807 460.952 85.2132 437.987 99.7664 424.214Z" fill="white" stroke="#294064" stroke-miterlimit="10" stroke-linejoin="round"/>
<path d="M147.132 455.255C148.958 458.712 151.292 461.596 154.13 463.908C156.969 466.22 160.114 467.908 163.565 468.973C167.014 470.037 170.568 470.421 174.222 470.123C177.877 469.825 181.42 468.77 184.851 466.957C188.308 465.13 191.221 462.757 193.59 459.838C195.959 456.92 197.671 453.664 198.725 450.07C199.78 446.476 200.075 442.74 199.609 438.86L237.805 418.675C238.295 418.416 238.69 418.101 238.988 417.728C239.287 417.356 239.528 416.907 239.712 416.381L242.798 406.482C242.956 405.97 242.914 405.422 242.673 404.84C242.432 404.258 241.995 403.87 241.364 403.675L222.614 397.89C221.982 397.696 221.413 397.741 220.903 398.027C220.394 398.312 220.035 398.757 219.827 399.363L216.348 410.954L200.416 406.007C199.825 405.824 199.274 405.876 198.765 406.161C198.256 406.447 197.904 406.905 197.709 407.536L192.76 423.37C187.223 418.639 181.491 415.785 175.562 414.809C169.633 413.833 164.025 414.742 158.736 417.538C155.33 419.337 152.475 421.663 150.17 424.515C147.865 427.366 146.18 430.518 145.115 433.968C144.051 437.418 143.671 440.977 143.975 444.645C144.28 448.313 145.332 451.849 147.132 455.255ZM170.777 442.76C171.786 444.668 171.974 446.648 171.342 448.699C170.709 450.749 169.438 452.279 167.528 453.288C165.62 454.297 163.643 454.492 161.599 453.872C159.555 453.252 158.022 451.975 157 450.04C156.005 448.156 155.826 446.179 156.465 444.109C157.104 442.039 158.365 440.506 160.249 439.511C162.157 438.503 164.141 438.32 166.198 438.966C168.256 439.611 169.782 440.876 170.777 442.76Z" fill="#18D0CB" stroke="#294064" stroke-miterlimit="10" stroke-linecap="round" stroke-linejoin="round"/>
<path d="M188.969 434.045L236.472 408.075" stroke="#294064" stroke-miterlimit="10" stroke-linecap="round" stroke-linejoin="round"/>
<path d="M179.592 418.873C177.166 417.939 167.2 416.02 160.56 420.199" stroke="#294064" stroke-miterlimit="10" stroke-linecap="round" stroke-linejoin="round"/>
<path d="M154.222 424.57C151.404 426.809 149.194 430.436 148.589 433.151" stroke="#294064" stroke-miterlimit="10" stroke-linecap="round" stroke-linejoin="round"/>
<path d="M197.534 420.589L200.898 409.861" stroke="#294064" stroke-miterlimit="10" stroke-linecap="round" stroke-linejoin="round"/>
<path d="M140.604 468.809C140.466 472.717 141.052 476.38 142.362 479.799C143.672 483.217 145.557 486.248 148.019 488.89C150.48 491.531 153.37 493.634 156.687 495.197C160.004 496.759 163.602 497.609 167.481 497.746C171.388 497.884 175.096 497.278 178.604 495.928C182.112 494.576 185.218 492.606 187.923 490.015C190.628 487.424 192.745 484.332 194.273 480.736L237.448 482.262C238.002 482.281 238.501 482.204 238.946 482.03C239.39 481.856 239.823 481.586 240.244 481.222L247.851 474.176C248.244 473.811 248.481 473.315 248.561 472.69C248.642 472.065 248.457 471.511 248.006 471.028L234.63 456.671C234.18 456.188 233.663 455.944 233.08 455.938C232.496 455.932 231.963 456.139 231.481 456.56L222.69 464.878L211.34 452.651C210.918 452.198 210.415 451.969 209.831 451.962C209.248 451.957 208.714 452.178 208.231 452.629L196.051 463.892C193.607 457.032 190.058 451.701 185.404 447.902C180.749 444.102 175.433 442.097 169.455 441.885C165.606 441.749 161.971 442.343 158.552 443.668C155.133 444.993 152.102 446.885 149.46 449.347C146.819 451.808 144.716 454.705 143.153 458.037C141.589 461.369 140.74 464.959 140.604 468.809ZM167.331 469.753C167.255 471.911 166.432 473.722 164.862 475.185C163.292 476.647 161.428 477.341 159.27 477.265C157.112 477.188 155.301 476.373 153.837 474.817C152.374 473.262 151.681 471.39 151.759 469.203C151.834 467.074 152.664 465.271 154.249 463.794C155.834 462.317 157.691 461.617 159.82 461.692C161.978 461.768 163.788 462.599 165.251 464.183C166.713 465.768 167.407 467.625 167.331 469.753Z" fill="#FFF2E0" stroke="#294064" stroke-miterlimit="10" stroke-linecap="round" stroke-linejoin="round"/>
<path d="M153.437 489.798C158.642 495.095 169.228 495.879 175.749 493.769" stroke="#294064" stroke-miterlimit="10" stroke-linecap="round" stroke-linejoin="round"/>
<path d="M179.423 491.94C183.449 490.638 187.465 486.861 188.943 483.905" stroke="#294064" stroke-miterlimit="10" stroke-linecap="round" stroke-linejoin="round"/>
<path d="M165.452 459.99C169.112 462.253 172.149 467.472 170.056 472.859" stroke="#294064" stroke-miterlimit="10" stroke-linecap="round" stroke-linejoin="round"/>
<path d="M210.466 455.166L217.721 463.303" stroke="#294064" stroke-miterlimit="10" stroke-linecap="round" stroke-linejoin="round"/>
<path d="M96.7144 563.28C96.587 563.435 96.4873 563.623 96.4272 563.828C93.233 574.694 91.7926 586.594 92.6537 598.552C93.6831 612.843 97.9374 626.666 105.829 639.492C110.133 646.487 115.129 651.743 120.565 655.169C121.496 659.304 123.161 663.284 125.377 666.636C130.623 674.575 138.501 680.566 148.073 684.601C155.825 687.869 164.381 689.677 171.54 689.876C172.393 689.9 173.108 689.224 173.132 688.371C173.155 687.517 172.475 686.807 171.621 686.784C164.841 686.596 156.67 684.872 149.277 681.755C140.233 677.942 132.834 672.32 127.952 664.934C126.428 662.629 125.188 659.988 124.302 657.206C129.338 659.517 134.69 660.334 140.205 659.515C146.863 658.527 152.105 654.77 154.847 649.349C157.507 644.089 157.503 637.825 154.721 632.393C152.773 628.587 148.154 625.548 142.951 624.626C137.115 623.592 131.314 625.27 126.945 629.793C121.817 635.101 119.493 641.808 119.747 649.099C119.768 649.715 119.822 650.33 119.88 650.947C115.749 647.816 111.904 643.453 108.469 637.871C100.846 625.48 96.7365 612.134 95.7415 598.325C94.9083 586.751 96.3015 575.221 99.3947 564.697C99.6358 563.878 99.1653 563.014 98.3465 562.773C97.7321 562.593 97.096 562.813 96.7144 563.28ZM129.17 631.944C132.797 628.19 137.554 626.809 142.413 627.669C146.716 628.431 150.498 630.919 151.975 633.801C154.304 638.352 154.303 643.574 152.087 647.954C149.799 652.477 145.422 655.614 139.753 656.455C134.038 657.303 128.481 656.191 123.3 653.228C123.043 651.819 122.885 650.403 122.836 648.993C122.609 642.506 124.652 636.622 129.17 631.944Z" fill="#18D0CB" stroke="#294064" stroke-miterlimit="10" stroke-linecap="round" stroke-linejoin="round"/>
<path d="M176.089 687.263C175.78 687.511 175.564 687.871 175.517 688.296C175.423 689.144 176.033 689.914 176.882 690.007C176.958 690.016 177.09 690.026 177.277 690.043C177.584 690.071 177.932 690.1 178.308 690.125C179.38 690.195 180.489 690.232 181.581 690.218C182.654 690.205 183.655 690.138 184.564 690.019C185.016 689.96 185.44 689.89 185.84 689.801C186.674 689.617 187.202 688.79 187.017 687.957C186.833 687.124 186.006 686.595 185.173 686.78C184.865 686.848 184.525 686.907 184.159 686.955C183.383 687.058 182.502 687.115 181.543 687.127C180.539 687.14 179.505 687.108 178.508 687.042C178.16 687.019 177.844 686.99 177.562 686.964C177.464 686.955 177.236 686.937 177.224 686.936C176.799 686.889 176.397 687.016 176.089 687.263Z" fill="#FFF2E0" stroke="#294064" stroke-miterlimit="10" stroke-linecap="round" stroke-linejoin="round"/>
<path d="M189.571 686.636C189.269 686.891 189.061 687.258 189.026 687.684C188.954 688.535 189.587 689.286 190.437 689.357C193.206 689.589 198.66 687.936 201.373 686.237C202.096 685.783 202.311 684.829 201.858 684.105C201.404 683.382 200.455 683.161 199.732 683.614C197.545 684.984 192.727 686.448 190.694 686.277C190.269 686.242 189.873 686.381 189.571 686.636Z" fill="#FFF2E0" stroke="#294064" stroke-miterlimit="10" stroke-linecap="round" stroke-linejoin="round"/>
<path d="M113.176 566.429C112.554 567.012 112.524 567.99 113.108 568.613L127.04 583.466C127.624 584.088 128.601 584.128 129.224 583.544C129.846 582.96 129.88 581.977 129.297 581.355L115.36 566.496C114.777 565.874 113.799 565.844 113.176 566.429Z" fill="#FFF2E0" stroke="#294064" stroke-miterlimit="10" stroke-linecap="round" stroke-linejoin="round"/>
<path d="M78.0345 571.92C77.8676 572.032 77.7178 572.174 77.6006 572.352L63.8046 593.318C63.3356 594.031 63.5368 594.99 64.2499 595.459C64.9634 595.929 65.9167 595.732 66.3857 595.019L80.1817 574.053C80.6511 573.34 80.4547 572.387 79.7414 571.917C79.2063 571.566 78.5357 571.586 78.0345 571.92Z" fill="#FFF2E0" stroke="#294064" stroke-miterlimit="10" stroke-linecap="round" stroke-linejoin="round"/>
<path d="M59.5416 601.61C59.3756 601.723 59.2278 601.868 59.1127 602.048L49.4138 617.126C48.9521 617.844 49.1571 618.8 49.8752 619.262C50.5932 619.724 51.5496 619.519 52.0117 618.801L61.7102 603.723C62.1724 603.005 61.9668 602.048 61.2493 601.587C60.7107 601.24 60.0388 601.27 59.5416 601.61Z" fill="#FFF2E0" stroke="#294064" stroke-miterlimit="10" stroke-linecap="round" stroke-linejoin="round"/>
<path d="M99.0051 470.598C97.2069 472.25 95.2874 474.101 93.294 476.1C85.7692 483.649 78.2978 492.209 75.9846 496.008C75.5579 496.709 72.2352 501.399 71.9422 501.824C69.5692 505.269 67.6545 508.363 66.0052 511.597C63.295 516.914 61.6324 522.022 61.2734 527.011C60.8279 533.194 62.4408 538.905 66.3815 543.855C73.52 552.823 90.5443 553.366 100.918 546.113C103.083 548.631 105.49 550.83 108.084 552.545C114.764 556.962 122.297 558.036 129.968 554.983C134.729 553.088 138.089 549.351 140.122 544.27C141.749 540.201 142.512 535.343 142.565 529.89C142.643 522.007 141.112 512.702 139.527 507.891C136.094 497.468 131.954 487.08 127.971 479.073C123.1 469.281 118.86 463.44 114.378 462.057C113.192 461.691 112.042 461.769 110.885 462.106C110.128 462.327 109.361 462.667 108.544 463.118C107.225 463.848 105.714 464.905 103.987 466.285C102.481 467.488 100.804 468.946 99.0051 470.598ZM104.708 476.928C106.39 475.381 107.939 474.032 109.302 472.943C110.604 471.903 111.68 471.158 112.498 470.686C112.559 470.738 112.6 470.761 112.666 470.823C113.294 471.409 114.03 472.272 114.833 473.379C116.497 475.673 118.363 478.9 120.337 482.869C124.125 490.482 128.123 500.493 131.435 510.552C131.895 511.948 132.549 514.781 133.052 517.841C133.714 521.879 134.083 525.992 134.045 529.811C133.953 539.137 131.53 545.197 126.821 547.071C121.863 549.044 117.23 548.38 112.781 545.439C110.68 544.049 108.683 542.16 106.879 539.958C110.354 534.898 113.074 528.258 114.094 522.264C114.737 518.484 114.693 515.082 113.812 512.29C112.647 508.598 110.007 506.044 106.208 505.45C102.871 504.927 99.8074 506.289 97.4639 508.926C95.6154 511.006 94.2123 513.865 93.3295 517.15C91.5379 523.814 92.0157 531.486 94.9835 537.254C95.3162 537.901 95.6765 538.533 96.0378 539.163C93.1807 541.175 89.3148 542.415 85.1718 542.584C79.8154 542.803 75.1368 541.184 73.0447 538.557C68.2497 532.533 68.8011 524.871 73.5979 515.463C75.0511 512.611 76.7764 509.82 78.9548 506.659C79.0611 506.504 82.6511 501.437 83.2578 500.44C85.1188 497.383 92.2547 489.208 99.3274 482.114C101.217 480.218 103.026 478.475 104.708 476.928ZM103.834 514.586C104.386 513.965 104.677 513.832 104.884 513.865C105.285 513.927 105.45 514.087 105.692 514.856C106.108 516.172 106.139 518.278 105.704 520.837C105.099 524.393 103.687 528.323 101.879 531.761C100.574 528.141 100.457 523.458 101.559 519.359C102.122 517.264 102.951 515.58 103.834 514.586Z" fill="#FE1D53" stroke="#294064" stroke-miterlimit="10" stroke-linecap="round" stroke-linejoin="round"/>
<path d="M91.7818 474.455C91.9966 474.972 91.5277 475.6 91.8771 476.038C92.3637 476.65 93.8057 478.268 94.3036 478.872C95.7156 480.581 97.5642 481.941 99.4667 483.127C100.517 483.781 102.773 483.388 102.843 481.593C102.888 480.438 102.066 479.124 101.344 478.525C99.4504 476.954 97.0225 475.092 95.5181 473.152C94.6386 472.018 92.97 469.988 91.9694 468.948" fill="white"/>
<path d="M145.161 486.703C146.11 486.316 147.163 485.354 148.053 484.847C150.741 483.317 153.296 481.45 155.026 478.776C155.714 477.713 157.575 475.778 157.411 474.421C157.332 473.774 154.377 472.989 153.698 473.311C153.18 473.556 152.79 473.821 152.414 474.228C151.588 475.122 150.087 476.604 149.159 477.391C145.875 480.178 144.807 481.701 141.003 483.749" fill="white"/>
<path d="M144.336 487.346C149.297 484.796 154.125 480.554 157.897 475.585" stroke="#294064" stroke-miterlimit="10" stroke-linecap="round" stroke-linejoin="round"/>
<path d="M91.6883 475.817C95.131 480.118 97.6885 482.328 99.5637 483.76" stroke="#294064" stroke-miterlimit="10" stroke-linecap="round" stroke-linejoin="round"/>
<path d="M95.6505 472.199C97.5188 475.143 101.291 478.327 103.344 479.95" stroke="#294064" stroke-miterlimit="10" stroke-linecap="round" stroke-linejoin="round"/>
<path d="M141.894 482.521C145.523 480.755 150.199 476.725 153.465 472.666" stroke="#294064" stroke-miterlimit="10" stroke-linecap="round" stroke-linejoin="round"/>
</g>
</g>
<defs>
<radialGradient id="paint0_radial_1232_5298" cx="0" cy="0" r="1" gradientUnits="userSpaceOnUse" gradientTransform="translate(831 888) rotate(118.185) scale(847.513 524.456)">
<stop stop-color="#E7012A"/>
<stop offset="1" stop-color="#5815A3"/>
</radialGradient>
<clipPath id="clip0_1232_5298">
<path d="M0 0H414V841C414 852.046 405.046 861 394 861H20C8.95432 861 0 852.046 0 841V0Z" fill="white"/>
</clipPath>
<clipPath id="clip1_1232_5298">
<path d="M0 0H414V841C414 852.046 405.046 861 394 861H20C8.95432 861 0 852.046 0 841V0Z" fill="white"/>
</clipPath>
<clipPath id="clip2_1232_5298">
<rect width="107" height="25" fill="white" transform="translate(234 708)"/>
</clipPath>
</defs>
</svg>
