<svg width="144" height="144" viewBox="0 0 144 144" fill="none" xmlns="http://www.w3.org/2000/svg">
<g clip-path="url(#clip0_1091_5919)">
<rect width="144" height="144" rx="16" fill="white"/>
<mask id="mask0_1091_5919" style="mask-type:luminance" maskUnits="userSpaceOnUse" x="-51" y="-16" width="234" height="236">
<path d="M182.273 -15.4846H-50.6527V219.572H182.273V-15.4846Z" fill="white"/>
</mask>
<g mask="url(#mask0_1091_5919)">
<path d="M-50.6527 -15.4846H182.273V219.572H-50.6527V-15.4846Z" fill="#8EB6AE"/>
</g>
<path d="M105.063 116C93.1049 116 86.2843 108.117 86 95H91.9896C92.1869 104.628 96.6026 108.705 100.1 109.546V95H105.741V103.303C109.195 102.946 112.824 99.1622 114.048 95H119.688C118.748 100.129 114.813 103.913 112.015 105.468C114.813 106.73 119.294 110.03 121 116H114.791C113.457 112.006 110.135 108.916 105.741 108.496V116H105.063Z" fill="#294064" stroke="#294064" stroke-width="0.5" stroke-miterlimit="10" stroke-linecap="round" stroke-linejoin="round"/>
<path d="M77 104.92C77 92.7011 76.9999 86.592 80.8661 82.796C84.7325 79 90.9547 79 103.4 79H105.6C118.045 79 124.267 79 128.134 82.796C132 86.592 132 92.7011 132 104.92V107.08C132 119.298 132 125.408 128.134 129.204C124.267 133 118.045 133 105.6 133H103.4C90.9547 133 84.7325 133 80.8661 129.204C76.9999 125.408 77 119.298 77 107.08V104.92Z" fill="#046E82" stroke="#294064" stroke-width="0.5" stroke-miterlimit="10" stroke-linecap="round" stroke-linejoin="round"/>
<path d="M74 101.92C74 89.7011 73.9999 83.592 77.8661 79.796C81.7325 76 87.9547 76 100.4 76H102.6C115.045 76 121.267 76 125.134 79.796C129 83.592 129 89.7011 129 101.92V104.08C129 116.298 129 122.408 125.134 126.204C121.267 130 115.045 130 102.6 130H100.4C87.9547 130 81.7325 130 77.8661 126.204C73.9999 122.408 74 116.298 74 104.08V101.92Z" fill="#0595B0" stroke="#294064" stroke-width="0.5" stroke-miterlimit="10" stroke-linecap="round" stroke-linejoin="round"/>
<path d="M102.608 113C90.308 113 83.2919 105.117 83 92H89.1609C89.3633 101.628 93.9057 105.706 97.5035 106.546V92H103.305V100.303C106.858 99.946 110.59 96.1622 111.849 92H117.651C116.684 97.1295 112.636 100.913 109.758 102.469C112.636 103.73 117.246 107.03 119 113H112.614C111.242 109.006 107.825 105.916 103.305 105.496V113H102.608Z" fill="white" stroke="#294064" stroke-width="0.5" stroke-miterlimit="10" stroke-linecap="round" stroke-linejoin="round"/>
<path d="M41.7408 78.9253L44.1831 98.9018C44.1831 98.9018 44.6215 100.819 45.5138 101.023C46.4063 101.228 62.8401 90.4571 62.8401 90.4571L84.1271 65.3266L43.0691 74.2171L41.7408 78.9253Z" fill="#0595B0" stroke="#294064" stroke-width="0.5" stroke-miterlimit="10" stroke-linecap="round"/>
<path d="M49.4966 85.6809L45.1036 98.9879C45.1036 98.9879 43.614 103.032 48.7341 99.819C53.8543 96.6055 58.5777 94.305 58.5777 94.305" fill="#046E82"/>
<path d="M49.4966 85.6809L45.1036 98.9879C45.1036 98.9879 43.614 103.032 48.7341 99.819C53.8543 96.6055 58.5777 94.305 58.5777 94.305" stroke="#294064" stroke-width="0.5" stroke-miterlimit="10" stroke-linecap="round"/>
<path d="M41.7103 79.611L29.0208 72.0043C29.0208 72.0043 27.5343 70.9642 28.407 69.5773C28.5869 69.2913 28.8666 69.0769 29.626 68.7724C33.1492 67.3501 90.7241 60.4075 90.7241 60.4075C90.7241 60.4075 92.3413 60.2452 93.1504 60.7844C93.5641 61.0246 93.8176 61.4697 93.8113 61.9486C93.8164 62.3663 93.7639 62.783 93.6539 63.1862C93.5686 63.5372 93.4532 63.8542 93.3025 64.3583C91.7825 69.512 73.1553 106.308 73.1553 106.308C73.1553 106.308 72.0531 108.458 69.9566 108.061C68.9169 107.858 68.0047 107.241 67.4269 106.352C64.152 101.91 52.2236 89.2094 49.5854 86.4126C49.4656 86.2832 49.4074 86.108 49.4264 85.9327C49.433 85.7031 49.7341 85.4858 49.7341 85.4858C49.7341 85.4858 79.2763 69.2863 80.452 67.1449C80.5453 66.9795 80.3738 66.848 80.0998 66.8672C78.3317 67.0937 45.9829 78.4716 42.4129 79.7274C42.1728 79.7438 41.9322 79.7041 41.7103 79.611Z" fill="white" stroke="#294064" stroke-width="0.5" stroke-miterlimit="10" stroke-linecap="round"/>
</g>
<defs>
<clipPath id="clip0_1091_5919">
<rect width="144" height="144" rx="16" fill="white"/>
</clipPath>
</defs>
</svg>
