<svg width="414" height="861" viewBox="0 0 414 861" fill="none" xmlns="http://www.w3.org/2000/svg">
<g clip-path="url(#clip0_1091_4865)">
<path d="M0 0H414V841C414 852.046 405.046 861 394 861H20C8.95432 861 0 852.046 0 841V0Z" fill="#5C814A"/>
<g clip-path="url(#clip1_1091_4865)">
<path d="M0 0H414V896H0V0Z" fill="#8EB6AE"/>
<mask id="mask0_1091_4865" style="mask-type:luminance" maskUnits="userSpaceOnUse" x="6" y="6" width="399" height="864">
<path d="M405 6H6V869.536H405V6Z" fill="white"/>
</mask>
<g mask="url(#mask0_1091_4865)">
<g opacity="0.988111">
<path d="M215.092 487.655C211.594 481.29 190.109 483.411 188.168 494.799C188.168 494.799 172.307 499.25 168.73 509.675C162.912 526.622 169.283 529.861 174.869 536.208C187.34 528.92 199.593 516.146 212.064 508.858" fill="#2F2F2F"/>
<path d="M215.092 487.655C211.594 481.29 190.109 483.411 188.168 494.799C188.168 494.799 172.307 499.25 168.73 509.675C162.912 526.622 169.283 529.861 174.869 536.208C187.34 528.92 199.593 516.146 212.064 508.858" stroke="#294064" stroke-miterlimit="10" stroke-linecap="round" stroke-linejoin="round"/>
</g>
<g opacity="0.988111">
<path d="M216.926 486.785C216.926 486.785 226.147 482.783 237.041 487.826C246.648 492.275 247.034 499.224 247.034 499.224C247.034 499.224 256.717 499.632 258.733 510.656C262.162 529.413 243.245 536.072 235.578 537.182" fill="#2F2F2F"/>
<path d="M216.926 486.785C216.926 486.785 226.147 482.783 237.041 487.826C246.648 492.275 247.034 499.224 247.034 499.224C247.034 499.224 256.717 499.632 258.733 510.656C262.162 529.413 243.245 536.072 235.578 537.182" stroke="#294064" stroke-miterlimit="10" stroke-linecap="round" stroke-linejoin="round"/>
</g>
<g opacity="0.988111">
<path d="M181.475 525.027C181.475 525.027 164.487 524.728 156.098 532.937C145.482 543.327 147.812 552.094 148.431 558.903C148.996 565.125 144.977 558.546 138.505 573.002C128.311 595.773 140.334 606.799 140.334 606.799L134.116 615.033C134.116 615.033 123.52 627.747 135.823 643.054C151.032 661.978 169.996 650.661 169.996 650.661C169.996 650.661 238.14 621.377 247.465 620.973C254.111 620.684 243.025 668.949 248.748 665.556C253.34 662.835 254.914 642.463 260.18 641.589C288.932 636.824 288.033 614.262 287.879 607.146C287.801 603.56 295.365 591.643 287.618 574.527C281.279 560.519 265.961 557.259 265.961 557.259C265.961 557.259 270.655 548.058 265.888 538.218C260.413 526.916 250.28 523.493 242.719 519.929C233.261 515.472 222.262 515.584 212.034 513.412" fill="#2F2F2F"/>
<path d="M181.475 525.027C181.475 525.027 164.487 524.728 156.098 532.937C145.482 543.327 147.812 552.094 148.431 558.903C148.996 565.125 144.977 558.546 138.505 573.002C128.311 595.773 140.334 606.799 140.334 606.799L134.116 615.033C134.116 615.033 123.52 627.747 135.823 643.054C151.032 661.978 169.996 650.661 169.996 650.661C169.996 650.661 238.14 621.377 247.465 620.973C254.111 620.684 243.025 668.949 248.748 665.556C253.34 662.835 254.914 642.463 260.18 641.589C288.932 636.824 288.033 614.262 287.879 607.146C287.801 603.56 295.365 591.643 287.618 574.527C281.279 560.519 265.961 557.259 265.961 557.259C265.961 557.259 270.655 548.058 265.888 538.218C260.413 526.916 250.28 523.493 242.719 519.929C233.261 515.472 222.262 515.584 212.034 513.412" stroke="#294064" stroke-miterlimit="10" stroke-linecap="round" stroke-linejoin="round"/>
</g>
<path opacity="0.988111" d="M206.404 538.025L204.53 558.43L178.666 562.049L224.274 600.772L255.686 549.593L226.433 556.28L225.875 538.831L206.404 538.025Z" fill="#FFC6B2" stroke="#294064" stroke-miterlimit="10" stroke-linecap="round" stroke-linejoin="round"/>
<path opacity="0.988111" d="M205.747 547.312C209.64 551.023 225.828 553.407 225.828 553.407L226.037 548.402" fill="#E4AC98"/>
<path opacity="0.988111" d="M215.719 482.873C213.352 482.79 210.257 490.05 209.848 491.033C193.805 493.505 181.503 504.393 180.889 518.033C180.843 519.062 180.863 520.083 180.949 521.09C180.072 520.725 179.124 520.494 178.12 520.449C173.513 520.242 169.609 523.806 169.402 528.413C169.195 533.019 172.763 536.924 177.369 537.131C180.678 537.279 183.614 535.477 185.087 532.746C191.015 541.796 202.622 548.237 216.234 548.849C231.966 549.558 245.731 542.278 251.43 531.439C252.849 533.079 254.905 534.164 257.242 534.269C261.752 534.472 265.572 530.977 265.774 526.467C265.977 521.956 262.488 518.138 257.977 517.935C256.616 517.874 255.319 518.152 254.164 518.689C253.211 504.564 239.603 492.757 221.967 490.776C221.597 489.927 218.494 482.97 215.719 482.873Z" fill="#FFC6B2" stroke="#294064" stroke-miterlimit="10" stroke-linecap="round" stroke-linejoin="round"/>
<path opacity="0.988111" d="M253.939 525.469C254.043 523.166 256.011 521.383 258.335 521.488C260.661 521.593 262.461 523.545 262.357 525.848C262.254 528.152 260.285 529.935 257.961 529.829C255.636 529.725 253.835 527.773 253.939 525.469Z" fill="#E4AC98" stroke="white" stroke-opacity="0.0110093" stroke-miterlimit="10" stroke-linecap="round" stroke-linejoin="round"/>
<path opacity="0.988111" d="M172.826 528.125C172.936 525.679 175.048 523.788 177.543 523.9C180.038 524.013 181.971 526.086 181.862 528.532C181.752 530.977 179.64 532.869 177.145 532.756C174.65 532.644 172.716 530.57 172.826 528.125Z" fill="#E4AC98" stroke="white" stroke-opacity="0.0110093" stroke-miterlimit="10" stroke-linecap="round" stroke-linejoin="round"/>
<g opacity="0.988111">
<path d="M173.309 526.708C173.555 526.071 174.153 525.868 174.68 525.571C176.873 524.334 179.697 525.159 181.333 526.949" fill="white" fill-opacity="0.0110093"/>
<path d="M173.309 526.708C173.555 526.071 174.153 525.868 174.68 525.571C176.873 524.334 179.697 525.159 181.333 526.949" stroke="#294064" stroke-miterlimit="10" stroke-linecap="round" stroke-linejoin="round"/>
</g>
<g opacity="0.988111">
<path d="M178.575 525.625C177.837 526.3 177.944 528.243 178.239 529.088L178.575 525.625Z" fill="white" fill-opacity="0.0110093"/>
<path d="M178.575 525.625C177.837 526.3 177.944 528.243 178.239 529.088" stroke="#294064" stroke-miterlimit="10" stroke-linecap="round" stroke-linejoin="round"/>
</g>
<g opacity="0.988111">
<path d="M254.595 524.146C254.629 523.393 255.91 522.564 256.541 522.327C258.573 521.563 261.258 522.435 262.292 524.45" fill="white" fill-opacity="0.0110093"/>
<path d="M254.595 524.146C254.629 523.393 255.91 522.564 256.541 522.327C258.573 521.563 261.258 522.435 262.292 524.45" stroke="#294064" stroke-miterlimit="10" stroke-linecap="round" stroke-linejoin="round"/>
</g>
<g opacity="0.988111">
<path d="M257.301 522.403C257.534 522.414 257.782 523.504 257.835 523.699C258.145 524.841 258.324 526.047 257.724 527.125" fill="white" fill-opacity="0.0110093"/>
<path d="M257.301 522.403C257.534 522.414 257.782 523.504 257.835 523.699C258.145 524.841 258.324 526.047 257.724 527.125" stroke="#294064" stroke-miterlimit="10" stroke-linecap="round" stroke-linejoin="round"/>
</g>
<path opacity="0.988111" d="M176.395 536.081C176.449 534.872 177.474 533.935 178.683 533.99C179.893 534.044 180.83 535.07 180.775 536.279C180.721 537.488 179.696 538.424 178.487 538.37C177.277 538.315 176.34 537.291 176.395 536.081Z" fill="#FDFB90" stroke="white" stroke-opacity="0.0110093" stroke-miterlimit="10" stroke-linecap="round" stroke-linejoin="round"/>
<path opacity="0.988111" d="M254.71 533.882C254.765 532.672 255.79 531.735 256.999 531.79C258.209 531.844 259.145 532.869 259.091 534.078C259.036 535.288 258.011 536.225 256.802 536.17C255.592 536.116 254.656 535.091 254.71 533.882Z" fill="#FDFB90" stroke="white" stroke-opacity="0.0110093" stroke-miterlimit="10" stroke-linecap="round" stroke-linejoin="round"/>
<path opacity="0.988111" d="M208.404 497.346C213.04 504.812 222.393 501.505 224.248 497.511" stroke="#294064" stroke-miterlimit="10" stroke-linecap="round" stroke-linejoin="round"/>
<g opacity="0.988111">
<path d="M282.48 545.391C286.579 544.383 306.913 537.385 306.913 537.385C306.913 537.385 330.536 522.68 342.805 517.432C350.619 514.089 352.472 530.497 349.756 533.808C336.74 549.676 324.35 565.08 309.891 570.367C303.713 572.627 288.183 574.542 274.043 569.214" fill="#FFC6B2"/>
<path d="M282.48 545.391C286.579 544.383 306.913 537.385 306.913 537.385C306.913 537.385 330.536 522.68 342.805 517.432C350.619 514.089 352.472 530.497 349.756 533.808C336.74 549.676 324.35 565.08 309.891 570.367C303.713 572.627 288.183 574.542 274.043 569.214" stroke="#294064" stroke-miterlimit="10" stroke-linecap="round" stroke-linejoin="round"/>
</g>
<g opacity="0.988111">
<path d="M135.188 570.222L113.324 571.697C113.324 571.697 90.2673 573.127 63.3692 556.434C65.8599 562.146 54.5829 566.254 54.5829 566.254C54.5829 566.254 95.1628 620.011 157.989 597.465" fill="#FFC6B2"/>
<path d="M135.188 570.222L113.324 571.697C113.324 571.697 90.2673 573.127 63.3692 556.434C65.8599 562.146 54.5829 566.254 54.5829 566.254C54.5829 566.254 95.1628 620.011 157.989 597.465" stroke="#294064" stroke-miterlimit="10" stroke-linecap="round" stroke-linejoin="round"/>
</g>
<g opacity="0.988111">
<path d="M339.943 522.048C339.293 520.867 347.535 509.01 347.26 507.81C345.968 502.185 348.176 495.498 348.082 494.36C347.3 484.864 348.456 476.965 351.958 474.526C356.173 471.59 357.133 479.653 357.042 486.255C356.952 492.702 366.258 495.417 370.485 491.421C375.169 486.99 374.602 473.265 380.957 471.924C391.139 469.774 384.241 500.093 381.652 504.394C384.765 503.159 387.43 500.51 387.43 500.51C387.43 500.51 389.787 494.324 392.816 494.197C396.881 494.028 395.14 502.719 391.56 507.532C387.297 513.265 375.358 518.179 366.98 520.032L355.031 531.816" fill="#FFC6B2"/>
<path d="M339.943 522.048C339.293 520.867 347.535 509.01 347.26 507.81C345.968 502.185 348.176 495.498 348.082 494.36C347.3 484.864 348.456 476.965 351.958 474.526C356.173 471.59 357.133 479.653 357.042 486.255C356.952 492.702 366.258 495.417 370.485 491.421C375.169 486.99 374.602 473.265 380.957 471.924C391.139 469.774 384.241 500.093 381.652 504.394C384.765 503.159 387.43 500.51 387.43 500.51C387.43 500.51 389.787 494.324 392.816 494.197C396.881 494.028 395.14 502.719 391.56 507.532C387.297 513.265 375.358 518.179 366.98 520.032L355.031 531.816" stroke="#294064" stroke-miterlimit="10" stroke-linecap="round" stroke-linejoin="round"/>
</g>
<g opacity="0.988111">
<path d="M383.541 496.58C385.182 493.702 392.651 470.02 385.296 472.521C379.192 474.596 379.541 487.572 375.934 492.7" fill="#FFC6B2"/>
<path d="M383.541 496.58C385.182 493.702 392.651 470.02 385.296 472.521C379.192 474.596 379.541 487.572 375.934 492.7" stroke="#294064" stroke-miterlimit="10" stroke-linecap="round" stroke-linejoin="round"/>
</g>
<g opacity="0.988111">
<path d="M381.599 504.238C384.61 502.183 388.711 497.475 390.043 490.268C391.242 483.78 390.671 477.363 386.493 478.756C383.391 479.791 383.473 488.741 383.473 488.741C383.473 488.741 380.16 495.732 377.714 498.136" fill="#FFC6B2"/>
<path d="M381.599 504.238C384.61 502.183 388.711 497.475 390.043 490.268C391.242 483.78 390.671 477.363 386.493 478.756C383.391 479.791 383.473 488.741 383.473 488.741C383.473 488.741 380.16 495.732 377.714 498.136" stroke="#294064" stroke-miterlimit="10" stroke-linecap="round" stroke-linejoin="round"/>
</g>
<g opacity="0.988111">
<path d="M67.0705 565.684C67.6549 564.469 58.7782 553.08 58.9879 551.866C59.9704 546.179 57.4005 539.624 57.4319 538.482C57.6941 528.958 56.1094 521.134 52.4788 518.889C48.1104 516.187 47.5909 524.291 48.0428 530.879C48.4843 537.31 39.3403 540.53 34.9022 536.769C29.9832 532.602 29.7999 518.866 23.3816 517.873C13.097 516.283 21.6399 546.18 24.4601 550.333C21.2849 549.27 18.4789 546.771 18.4789 546.771C18.4789 546.771 15.7873 540.722 12.7557 540.762C8.68753 540.815 10.901 549.397 14.7379 554.007C19.3082 559.499 31.4966 563.754 39.9631 565.147L52.5392 576.262" fill="#FFC6B2"/>
<path d="M67.0705 565.684C67.6549 564.469 58.7782 553.08 58.9879 551.866C59.9704 546.179 57.4005 539.624 57.4319 538.482C57.6941 528.958 56.1094 521.134 52.4788 518.889C48.1104 516.187 47.5909 524.291 48.0428 530.879C48.4843 537.31 39.3403 540.53 34.9022 536.769C29.9832 532.602 29.7999 518.866 23.3816 517.873C13.097 516.283 21.6399 546.18 24.4601 550.333C21.2849 549.27 18.4789 546.771 18.4789 546.771C18.4789 546.771 15.7873 540.722 12.7557 540.762C8.68753 540.815 10.901 549.397 14.7379 554.007C19.3082 559.499 31.4966 563.754 39.9631 565.147L52.5392 576.262" stroke="#294064" stroke-miterlimit="10" stroke-linecap="round" stroke-linejoin="round"/>
</g>
<g opacity="0.988111">
<path d="M22.1473 542.632C20.3515 539.849 11.6009 516.61 19.0822 518.705C25.2898 520.444 25.6498 533.419 29.5311 538.344" fill="#FFC6B2"/>
<path d="M22.1473 542.632C20.3515 539.849 11.6009 516.61 19.0822 518.705C25.2898 520.444 25.6498 533.419 29.5311 538.344" stroke="#294064" stroke-miterlimit="10" stroke-linecap="round" stroke-linejoin="round"/>
</g>
<g opacity="0.988111">
<path d="M24.5048 550.174C21.3867 548.286 17.0347 543.808 15.3109 536.685C13.7591 530.272 13.9789 523.833 18.2269 524.997C21.3808 525.86 21.7885 534.801 21.7885 534.801C21.7885 534.801 25.4773 541.601 28.0512 543.868" fill="#FFC6B2"/>
<path d="M24.5048 550.174C21.3867 548.286 17.0347 543.808 15.3109 536.685C13.7591 530.272 13.9789 523.833 18.2269 524.997C21.3808 525.86 21.7885 534.801 21.7885 534.801C21.7885 534.801 25.4773 541.601 28.0512 543.868" stroke="#294064" stroke-miterlimit="10" stroke-linecap="round" stroke-linejoin="round"/>
</g>
<g opacity="0.988111">
<path d="M172.667 680.684C177.602 706.184 204.801 736.384 208.042 768.949C216.482 853.759 218.215 947.094 218.215 947.094L303.859 964.41C303.859 964.41 284.645 717.052 262.089 667.111" fill="#026D81"/>
<path d="M172.667 680.684C177.602 706.184 204.801 736.384 208.042 768.949C216.482 853.759 218.215 947.094 218.215 947.094L303.86 964.41C303.86 964.41 284.645 717.052 262.089 667.111" stroke="#294064" stroke-miterlimit="10" stroke-linecap="round" stroke-linejoin="round"/>
</g>
<g opacity="0.988111">
<path d="M160.16 689.194C160.16 689.194 139.658 726.261 122.76 946.979C156.628 944.983 169.845 965.945 203.714 963.95C206.936 926.247 210.943 766.329 210.943 766.329L231.403 744.33" fill="#026D81"/>
<path d="M160.16 689.194C160.16 689.194 139.658 726.261 122.76 946.979C156.628 944.983 169.845 965.945 203.714 963.95C206.936 926.247 210.943 766.329 210.943 766.329L231.403 744.33" stroke="#294064" stroke-miterlimit="10" stroke-linecap="round" stroke-linejoin="round"/>
</g>
<g opacity="0.988111">
<path d="M109.217 599.807C108.915 604.053 108.722 608.307 108.592 612.562C108.279 622.808 109.409 638.725 121.901 623.504C123.289 621.812 124.061 617.678 124.916 616.221C131.876 604.375 132.23 590.699 137.209 578.332" fill="#DC5385"/>
<path d="M109.217 599.807C108.915 604.053 108.722 608.307 108.592 612.562C108.279 622.808 109.409 638.725 121.901 623.504C123.289 621.812 124.061 617.678 124.916 616.221C131.876 604.375 132.23 590.699 137.209 578.332" stroke="#294064" stroke-miterlimit="10" stroke-linecap="round" stroke-linejoin="round"/>
</g>
<g opacity="0.988111">
<path d="M300.117 539.543C302.465 539.009 305.067 538.043 307.8 536.781C308.595 536.414 308.632 534.915 309.446 534.501C310.324 534.055 311.982 534.689 312.875 534.196C313.814 533.679 313.368 532.211 314.314 531.652C315.176 531.143 317.452 531.579 318.292 531.011C333.681 520.598 344.951 511.502 344.951 511.502C357.266 511.22 364.375 524.173 364.375 524.173C364.375 524.173 346.046 554.102 330.86 564.621C314.345 576.06 295.143 583.026 277.284 592.228" fill="white"/>
<path d="M300.117 539.543C302.465 539.009 305.067 538.043 307.8 536.781C308.595 536.414 308.632 534.915 309.446 534.501C310.324 534.055 311.982 534.689 312.875 534.196C313.814 533.679 313.368 532.211 314.314 531.652C315.176 531.143 317.452 531.579 318.292 531.011C333.681 520.598 344.951 511.502 344.951 511.502C357.266 511.22 364.375 524.173 364.375 524.173C364.375 524.173 346.046 554.102 330.86 564.621C314.345 576.06 295.143 583.026 277.284 592.228" stroke="#294064" stroke-miterlimit="10" stroke-linecap="round" stroke-linejoin="round"/>
</g>
<g opacity="0.988111">
<path d="M110.484 569.606C108.078 569.664 105.318 569.365 102.359 568.811C101.498 568.65 101.095 567.207 100.204 567.005C99.2429 566.788 97.7916 567.809 96.8048 567.551C95.7675 567.279 95.8405 565.746 94.7856 565.437C93.8254 565.155 91.7259 566.136 90.7725 565.79C73.2996 559.469 60.1439 553.414 60.1439 553.414C48.135 556.161 44.4194 570.462 44.4194 570.462C44.4194 570.462 69.5271 594.982 86.8292 601.455C105.645 608.496 125.969 610.54 145.539 615.083" fill="white"/>
<path d="M110.484 569.606C108.078 569.664 105.318 569.365 102.359 568.811C101.498 568.65 101.095 567.207 100.204 567.005C99.2429 566.788 97.7916 567.809 96.8048 567.551C95.7675 567.279 95.8405 565.746 94.7856 565.437C93.8254 565.155 91.7259 566.136 90.7725 565.79C73.2996 559.469 60.1439 553.414 60.1439 553.414C48.135 556.161 44.4194 570.462 44.4194 570.462C44.4194 570.462 69.5271 594.982 86.8292 601.455C105.645 608.496 125.969 610.54 145.539 615.083" stroke="#294064" stroke-miterlimit="10" stroke-linecap="round" stroke-linejoin="round"/>
</g>
<path opacity="0.988111" d="M45.8766 567.142C44.7069 567.099 47.9178 568.303 48.8512 569.009C50.3395 570.135 52.2105 571.35 53.3932 572.807C57.0952 577.369 62.1559 580.419 67.2528 584.209C83.4733 596.27 98.5341 602.929 117.926 603.648" stroke="#294064" stroke-miterlimit="10" stroke-linecap="round" stroke-linejoin="round"/>
<path opacity="0.988111" d="M49.012 561.524C52.3136 563.906 56.092 565.509 59.3039 568.11C63.6101 571.597 66.168 576.266 70.9509 579.195C79.9101 584.682 90.0786 589.368 99.9437 592.914C105.279 594.832 110.88 597.534 116.622 597.748" stroke="#294064" stroke-miterlimit="10" stroke-linecap="round" stroke-linejoin="round"/>
<path opacity="0.988111" d="M53.9875 556.79C63.6467 560.413 71.2549 571.099 80.6721 575.926C81.8689 576.54 87.2621 580.05 88.375 579.724C88.8419 579.587 90.1475 577.442 90.67 577.819C91.7149 578.573 91.3106 580.8 93.2288 581.426C94.299 581.775 95.5559 580.825 96.8746 580.976C102.075 581.571 108.874 580.696 113.792 582.54" stroke="#294064" stroke-miterlimit="10" stroke-linecap="round" stroke-linejoin="round"/>
<path opacity="0.988111" d="M58.1614 554.721C66.7248 559.004 74.7146 564.734 83.1403 569.345C85.1722 570.457 87.4463 572.741 89.7865 573.22C90.5698 573.381 91.9282 570.817 92.9129 570.995C93.6023 571.12 93.929 573.308 94.9479 572.944C95.6909 572.678 97.0221 571.044 98.0222 572.121C98.506 572.642 98.4607 573.844 99.122 574.035C103.103 575.189 109.147 574.332 112.735 576.296" stroke="#294064" stroke-miterlimit="10" stroke-linecap="round" stroke-linejoin="round"/>
<path opacity="0.988111" d="M350.581 512.845C349.711 516.593 340.82 521.638 338.073 523.615C332.29 527.778 326.313 531.402 320.317 535.14C318.792 536.09 320.621 539.013 319.457 539.45C318.544 539.794 317.529 539.011 316.493 539.468C315.65 539.84 315.054 542.051 314.184 542.737C311.995 544.465 309.182 545.968 306.737 547.493" stroke="#294064" stroke-miterlimit="10" stroke-linecap="round" stroke-linejoin="round"/>
<path opacity="0.988111" d="M356.062 515.95C345.723 525.672 336.212 534.613 324.198 542.102C323.146 542.757 324.787 545.338 323.627 545.775C318.939 547.539 314.273 551.606 309.785 554.402" stroke="#294064" stroke-miterlimit="10" stroke-linecap="round" stroke-linejoin="round"/>
<path opacity="0.988111" d="M360.729 520.134C350.988 529.296 341.226 539.326 331.908 548.965C330.435 550.489 332.404 551.687 332.047 553.226C331.789 554.336 313.555 568.69 311.506 569.461" stroke="#294064" stroke-miterlimit="10" stroke-linecap="round" stroke-linejoin="round"/>
<g opacity="0.988111">
<path d="M149.165 605.455C157.727 657.916 134.712 712.462 141.148 743.465C185.637 725.517 230.721 737.274 267.542 723.213C295.873 712.392 283.439 710.728 278.396 703.043C277.124 701.106 283.685 697.359 283.327 694.872C282.997 692.574 277.133 684.145 276.779 681.705C271.184 643.086 277.167 616.993 265.422 584.023" fill="#FD91B7"/>
<path d="M149.165 605.455C157.727 657.916 134.712 712.462 141.148 743.465C185.637 725.517 230.721 737.274 267.542 723.213C295.873 712.392 283.439 710.728 278.396 703.043C277.124 701.106 283.685 697.359 283.327 694.872C282.997 692.574 277.133 684.145 276.779 681.705C271.184 643.086 277.167 616.993 265.422 584.023" stroke="#294064" stroke-miterlimit="10" stroke-linecap="round" stroke-linejoin="round"/>
</g>
<g opacity="0.988111">
<path d="M272.675 620.867C273.647 608.091 289.272 606.883 309.897 600.562C311.513 583.203 312.706 561.528 300.817 538.563C277.677 543.217 265.956 545.088 235.223 554.081C235.223 554.081 247.357 572.226 221.999 575.527C200.519 578.324 193.516 559.843 193.516 559.843C143.71 563.508 144.927 563.012 111.163 568.412C120.241 590.879 120.936 608.076 113.533 630.202C130.156 634.87 148.928 622.417 158.468 636.027" fill="#FF92B9"/>
<path d="M272.675 620.867C273.647 608.091 289.272 606.883 309.897 600.562C311.513 583.203 312.706 561.528 300.817 538.563C277.677 543.217 265.956 545.088 235.223 554.081C235.223 554.081 247.357 572.226 221.999 575.527C200.519 578.324 193.516 559.843 193.516 559.843C143.71 563.508 144.927 563.012 111.163 568.412C120.241 590.879 120.936 608.076 113.533 630.202C130.156 634.87 148.928 622.417 158.468 636.027" stroke="#294064" stroke-miterlimit="10" stroke-linecap="round" stroke-linejoin="round"/>
</g>
<path opacity="0.988111" d="M111.608 565.544C113.038 564.989 116.092 566.698 116.092 566.698C116.092 566.698 119.217 563.324 119.792 563.642C131.342 570.028 134.068 601.662 131.132 616.777C130.13 621.939 126.264 633.965 123.836 635.219C122.405 633.832 118.913 632.693 118.913 632.693C118.913 632.693 111.107 635.276 109.87 627.519C109.87 627.519 112.704 630.809 113.153 629.659C116.936 619.974 119.133 610.851 118.335 597.869C117.831 589.676 114.943 578.459 112.155 569.801C111.857 568.873 110.902 569.016 110.37 568.921C108.693 568.618 110.178 566.1 111.608 565.544Z" fill="#DC5284" stroke="#294064" stroke-miterlimit="10" stroke-linecap="round" stroke-linejoin="round"/>
<path opacity="0.988111" d="M295.92 538.283C294.988 538.357 289.605 536.044 288.279 539.803C287.916 540.833 290.369 540.956 290.88 541.789C292.631 544.644 294.277 549.069 295.311 552.318C299.139 564.341 300.536 572.436 300.985 583.527C301.283 590.868 300.898 604.935 300.898 604.935C300.898 604.935 304.458 602.236 305.511 602.145C306.672 602.044 308.27 603.979 309.439 603.577C311.94 602.716 313.635 596.374 313.832 592.786C314.82 574.855 312.39 563.638 307.396 549.134C306.871 547.607 302.363 535.78 300 534.913C298.773 534.461 296.618 538.227 295.92 538.283Z" fill="#DC5284" stroke="#294064" stroke-miterlimit="10" stroke-linecap="round" stroke-linejoin="round"/>
<g style="mix-blend-mode:multiply" opacity="0.988111">
<path d="M111.365 569.312C111.365 569.312 115.477 589.62 109.23 607.067C112.513 609.026 117.922 609.266 117.922 609.266C120.226 589.617 111.365 569.312 111.365 569.312Z" fill="#B3A9EC" fill-opacity="0.5"/>
</g>
<g style="mix-blend-mode:multiply" opacity="0.988111">
<path d="M168.292 737.066C193.101 733.755 217.491 742.919 242.324 739.619C264.371 736.689 276.325 727.802 276.325 727.802C276.325 727.802 277.039 722.244 275.861 719.671C244.905 736.232 209.198 728.947 175.706 735.877" fill="#B3A9EC" fill-opacity="0.5"/>
</g>
<g style="mix-blend-mode:multiply" opacity="0.988111">
<path d="M152.579 635.006C165.621 641.224 163.208 647.732 150.346 673.526C152.897 659.037 152.731 654.09 152.579 635.006Z" fill="#B3A9EC" fill-opacity="0.5"/>
</g>
<path opacity="0.988111" d="M279.965 694.028C271.66 693.125 260.546 696.369 253.067 699.588C251.576 700.23 248.164 701.754 247.678 703.676C247.054 706.145 255.569 703.96 256.099 703.858C256.294 703.82 256.499 703.837 256.693 703.795C262.358 702.553 268.572 700.057 273.64 697.239C275.036 696.464 280.959 694.136 279.965 694.028Z" stroke="#294064" stroke-miterlimit="10" stroke-linecap="round" stroke-linejoin="round"/>
<path opacity="0.988111" d="M276.004 704.63C269.898 710.39 263.077 714.641 255.564 718.371" stroke="#294064" stroke-miterlimit="10" stroke-linecap="round" stroke-linejoin="round"/>
<path opacity="0.988111" d="M341.291 514.541C344.576 514.901 349.385 516.277 353.346 518.824" stroke="#294064" stroke-miterlimit="10" stroke-linecap="round" stroke-linejoin="round"/>
<path opacity="0.988111" d="M356.402 520.858C356.402 520.858 361.147 524.621 362.071 527.119" stroke="#294064" stroke-miterlimit="10" stroke-linecap="round" stroke-linejoin="round"/>
<path opacity="0.988111" d="M372.845 494.628C375.611 496.703 377.728 499.252 379.274 502.343" stroke="#294064" stroke-miterlimit="10" stroke-linecap="round" stroke-linejoin="round"/>
<path opacity="0.988111" d="M310.656 538.071C310.396 537.961 310.483 546.587 312.528 546.904C315.506 547.366 311.879 538.591 310.656 538.071Z" stroke="#294064" stroke-miterlimit="10" stroke-linecap="round" stroke-linejoin="round"/>
<path opacity="0.988111" d="M297.417 541.073C302.442 547.57 304.249 557.887 305.378 562.242" stroke="#294064" stroke-miterlimit="10" stroke-linecap="round" stroke-linejoin="round"/>
<path opacity="0.988111" d="M307.779 574.772C309.259 581.166 308.639 592.9 307.865 597.625" stroke="#294064" stroke-miterlimit="10" stroke-linecap="round" stroke-linejoin="round"/>
<path opacity="0.988111" d="M118.268 569.968C124.085 579.515 125.856 590.165 126.055 600.182" stroke="#294064" stroke-miterlimit="10" stroke-linecap="round" stroke-linejoin="round"/>
<path opacity="0.988111" d="M98.3144 570.335C95.2462 572.041 93.2038 575.523 91.9893 578.729C96.049 579.081 97.2372 573.426 98.3144 570.335Z" stroke="#294064" stroke-miterlimit="10" stroke-linecap="round" stroke-linejoin="round"/>
<path opacity="0.988111" d="M189.777 564.462C196.203 574.1 204.923 580.438 216.514 581.95" stroke="#294064" stroke-miterlimit="10" stroke-linecap="round" stroke-linejoin="round"/>
<path opacity="0.988111" d="M220.737 581.413C224.865 581.413 230.156 580.12 232.991 578.375" stroke="#294064" stroke-miterlimit="10" stroke-linecap="round" stroke-linejoin="round"/>
<path opacity="0.988111" d="M148.221 621.806C153.748 624.421 157.39 630.428 158.935 636.085" stroke="#294064" stroke-miterlimit="10" stroke-linecap="round" stroke-linejoin="round"/>
<path opacity="0.988111" d="M210.113 766.543C218.155 761.422 226.277 755.501 236.045 754.518C233.097 761.639 216.307 766.1 210.113 766.543Z" stroke="#294064" stroke-miterlimit="10" stroke-linecap="round" stroke-linejoin="round"/>
<path opacity="0.988111" d="M162.476 742.821C156.79 764.731 154.881 796.485 154.881 796.485" stroke="#294064" stroke-miterlimit="10" stroke-linecap="round" stroke-linejoin="round" stroke-dasharray="10 10"/>
<path opacity="0.988111" d="M153.626 805.965C153.626 805.965 151.059 839.906 149.728 857.861" stroke="#294064" stroke-miterlimit="10" stroke-linecap="round" stroke-linejoin="round" stroke-dasharray="10 10"/>
<path opacity="0.988111" d="M260.072 747.047L265.245 784.937" stroke="#294064" stroke-miterlimit="10" stroke-linecap="round" stroke-linejoin="round" stroke-dasharray="10 10"/>
<path opacity="0.988111" d="M266.687 797.998C266.687 797.998 270.744 847.518 272.146 872.663" stroke="#294064" stroke-miterlimit="10" stroke-linecap="round" stroke-linejoin="round" stroke-dasharray="10 10"/>
<path opacity="0.988111" d="M27.3218 547.157C28.0956 544.2 30.2464 541.783 32.0515 539.423" stroke="#294064" stroke-miterlimit="10" stroke-linecap="round" stroke-linejoin="round"/>
<path opacity="0.988111" d="M46.878 572.867C46.878 572.867 50.9015 562.67 55.0819 559.936" stroke="#294064" stroke-miterlimit="10" stroke-linecap="round" stroke-linejoin="round"/>
<path opacity="0.988111" d="M331.907 410.819C329.585 410.643 327.209 410.642 324.781 410.85C308.817 412.215 291.99 431.571 291.99 431.571C291.99 431.571 291.764 438.994 291.999 441.741C293.317 457.145 310.124 468.314 329.553 466.652C336.915 466.023 343.562 463.633 348.948 460.084C353.554 462.759 360.366 464.766 364.781 462.408C363.337 459.349 364.505 452.68 364.505 452.68C365.183 451.776 358.527 450.346 359.099 449.137C361.619 443.806 363.032 436.1 362.615 431.218C361.462 417.74 348.159 412.049 331.907 410.819Z" fill="#ECAE7D" stroke="#294064" stroke-miterlimit="10" stroke-linecap="round" stroke-linejoin="round"/>
<path opacity="0.988111" d="M331.746 401.013C329.424 400.837 327.048 400.836 324.62 401.044C305.191 402.705 290.521 416.531 291.838 431.935C293.156 447.338 309.963 458.508 329.391 456.847C336.754 456.216 343.401 453.826 348.787 450.278C353.393 452.952 360.205 454.96 364.62 452.601C361.41 449.433 358.896 446.388 357.06 442.532C360.723 437.641 362.685 431.913 362.173 425.924C361.02 412.446 347.998 402.243 331.746 401.013Z" fill="#FFF4E8" stroke="#294064" stroke-miterlimit="10" stroke-linecap="round" stroke-linejoin="round"/>
<g style="mix-blend-mode:multiply" opacity="0.988111">
<path d="M303.382 409.559C304.295 409.775 305.364 411.13 306.155 411.721C309.139 413.946 317.339 422.106 324.694 421.787C331.664 421.485 339.906 402.447 339.906 402.447C339.906 402.447 326.106 397.339 311.044 404.85C309.723 405.509 303.272 409.533 303.382 409.559Z" fill="#B3A9EC" fill-opacity="0.5"/>
</g>
<path opacity="0.988111" d="M238.549 381.711C241.26 381.028 244.004 382.706 244.634 385.43L253.187 422.495C253.483 423.778 253.26 425.126 252.567 426.245L245.282 446.919C243.832 449.264 235.073 450.269 232.728 448.817C232.728 448.817 218.666 441.766 217.929 438.67C216.822 434.029 235.13 419.949 224.086 413.992C217.349 410.358 214.03 420.883 210.11 426.928C207.947 430.265 201.723 429.632 201.723 429.632L187.311 420.714C184.966 419.262 184.241 416.185 185.691 413.84L198.423 393.266C199.105 392.162 200.191 391.368 201.45 391.052L238.549 381.711Z" fill="#DC5385" stroke="#294064" stroke-miterlimit="10" stroke-linejoin="round"/>
<path opacity="0.988111" d="M247.079 379.291C249.79 378.608 252.534 380.286 253.163 383.011L261.717 420.075C262.013 421.358 261.79 422.706 261.097 423.825L248.132 444.779C246.68 447.124 243.603 447.849 241.258 446.398L225.076 436.385C225.076 436.385 242.138 416.779 231.094 410.822C220.64 405.184 210.253 427.212 210.253 427.212L195.84 418.293C193.496 416.843 192.771 413.765 194.221 411.421L206.953 390.846C207.635 389.743 208.721 388.948 209.98 388.632L247.079 379.291Z" fill="#FF92B9" stroke="#294064" stroke-miterlimit="10" stroke-linejoin="round"/>
<path d="M288.051 344.05C298.054 331.28 303.056 324.896 310.131 324.036C317.206 323.176 323.591 328.178 336.361 338.182L338.618 339.951C348.202 347.457 355.357 345.516 358.112 350.379C358.112 350.379 358.999 359.916 359.213 361.682C360.073 368.757 354.491 375.49 344.488 388.26L342.719 390.518C332.715 403.288 327.713 409.673 320.638 410.533C313.563 411.393 307.178 406.391 294.409 396.387L292.151 394.618C279.381 384.615 272.996 379.613 272.137 372.538C271.66 368.616 271.304 359.063 271.304 359.063C273.699 355.282 281.825 351.999 286.282 346.308L288.051 344.05Z" fill="#046E82" stroke="#294064" stroke-miterlimit="10" stroke-linecap="round" stroke-linejoin="round"/>
<path d="M287.355 332.04C297.359 319.27 302.36 312.885 309.435 312.026C316.51 311.166 322.895 316.168 335.665 326.172L337.923 327.939C350.693 337.943 357.078 342.945 357.937 350.02C358.797 357.095 353.795 363.48 343.791 376.25L342.023 378.507C332.02 391.278 327.018 397.663 319.943 398.523C312.868 399.381 306.483 394.38 293.713 384.377L291.455 382.608C278.685 372.604 272.3 367.602 271.44 360.528C270.581 353.453 275.582 347.068 285.586 334.297L287.355 332.04Z" fill="#0595B0" stroke="#294064" stroke-miterlimit="10" stroke-linecap="round" stroke-linejoin="round"/>
<path d="M307.454 369.679C294.59 359.603 294.162 345.037 305.351 330.125L311.794 335.172C303.569 346.108 304.746 354.391 307.771 358.279L320.518 342.006L326.586 346.759L319.309 356.047C323.338 358.558 330.556 357.383 335.521 353.759L341.588 358.511C336.082 363.457 328.533 364.373 324.16 363.756C326.065 367.525 327.994 374.993 324.596 383.108L317.918 377.877C319.983 372.285 319.117 366.028 314.759 361.856L308.182 370.251L307.454 369.679Z" fill="white" stroke="#294064" stroke-miterlimit="10" stroke-linecap="round" stroke-linejoin="round"/>
<path d="M354.117 357.017C357.275 351.692 354.643 346.362 350.589 342.316C348.273 340.002 342.946 335.702 342.946 335.702" stroke="white" stroke-miterlimit="10" stroke-linecap="round" stroke-linejoin="round"/>
<path d="M352.126 360.526L346.534 367.713" stroke="white" stroke-miterlimit="10" stroke-linecap="round" stroke-linejoin="round"/>
<path d="M78.4172 476.327C78.5243 473.876 79.9647 471.68 82.1702 470.607L123.491 440.418C127.852 438.294 138.006 448.984 138.155 453.831L139.126 485.301C139.206 487.916 137.755 490.337 135.412 491.499L86.6224 515.684C82.0628 517.944 67.944 509.903 68.1662 504.82L78.4172 476.327Z" fill="#046E82" stroke="#294064" stroke-miterlimit="10" stroke-linejoin="round"/>
<path d="M68.4347 468.507C68.5418 466.057 69.9823 463.861 72.1878 462.787L118.561 440.206C122.922 438.083 128.022 441.164 128.173 446.012L129.143 477.482C129.223 480.097 127.773 482.518 125.429 483.679L76.6399 507.865C72.0804 510.125 66.7677 506.666 66.9898 501.582L68.4347 468.507Z" fill="#0595B0" stroke="#294064" stroke-miterlimit="10" stroke-linejoin="round"/>
<path d="M77.0539 464.546C77.0812 462.015 78.5354 459.715 80.8111 458.607L118.56 440.212C122.922 438.087 128.023 441.167 128.173 446.016L129.143 477.458C129.224 480.085 127.759 482.515 125.398 483.671L86.3327 502.783C81.8621 504.97 76.6542 501.682 76.7077 496.705L77.0539 464.546Z" fill="#0595B0" stroke="#294064" stroke-miterlimit="10" stroke-linejoin="round"/>
<path d="M94.0147 461.609C92.0678 461.469 90.4118 463.068 90.4659 465.019L91.0651 486.173C91.1472 489.139 94.7768 490.527 96.78 488.34L114.939 468.475C116.803 466.44 115.48 463.142 112.727 462.945C110.383 462.778 96.3583 461.776 94.0147 461.609ZM94.0607 465.25C96.6541 465.435 108.802 466.325 111.805 466.54L94.6599 485.298L94.0607 465.25Z" fill="white" stroke="#294064" stroke-miterlimit="10" stroke-linecap="round" stroke-linejoin="round"/>
<path d="M32.0629 434.931C29.2028 432.078 24.9862 423.868 22.6115 426.67C16.837 433.484 16.3754 439.282 22.1112 445.481C31.7656 455.913 57.2059 458.276 57.2059 458.276L60.606 450.026C60.606 450.026 48.4031 429.597 39.8875 428.158C28.9398 426.308 32.0629 434.931 32.0629 434.931Z" fill="#DB5E5E" stroke="#294064" stroke-miterlimit="10" stroke-linecap="round" stroke-linejoin="round"/>
<path d="M240.599 281.06C236.645 280.23 228.632 275.652 228.171 279.295C227.05 288.156 229.828 293.267 238.017 295.331C251.8 298.804 274.408 286.901 274.408 286.901L272.755 278.132C272.755 278.132 251.38 267.673 243.46 271.115C233.277 275.539 240.599 281.06 240.599 281.06Z" fill="#DB5E5E" stroke="#294064" stroke-miterlimit="10" stroke-linecap="round" stroke-linejoin="round"/>
<path d="M35.1862 427.123C29.4555 421.406 13.7834 425.298 25.2345 437.671C34.8888 448.104 60.3292 450.467 60.3292 450.467C62.3206 435.185 53.4845 422.119 43.0108 420.35C32.0631 418.499 35.1862 427.123 35.1862 427.123Z" fill="#ED7272" stroke="#294064" stroke-miterlimit="10" stroke-linecap="round" stroke-linejoin="round"/>
<path d="M201.533 308C181.298 289.776 140.293 297.472 150.73 321.649C145.187 322.861 141.208 318.984 139.99 323.159C138.179 329.368 141.838 344.731 150.39 351.193C160.303 358.684 173.105 357.538 184.674 354.897C200.893 351.192 233.507 345.965 237.364 337.879C239.386 333.641 238.549 322.849 238.549 322.849C238.549 322.849 224.889 308.845 215.09 307.667C208.486 306.873 201.533 308 201.533 308Z" fill="#EBAE7E" stroke="#294064" stroke-miterlimit="10" stroke-linecap="round" stroke-linejoin="round"/>
<path d="M146.105 483.763C183.47 472.27 183.106 431 171.25 409.857C184.859 405.483 190.111 393.6 182.909 383.152" stroke="#B5E9DF" stroke-miterlimit="10" stroke-linecap="round" stroke-linejoin="round" stroke-dasharray="10 10"/>
<path d="M369.3 382.286C393.041 375.777 400.89 410.642 399.469 423.494" stroke="white" stroke-miterlimit="10" stroke-linecap="round" stroke-linejoin="round"/>
<path d="M384.343 432.164L389.311 436.959L381.191 461.459L374.466 455.502L384.343 432.164Z" stroke="#B5E9DF" stroke-miterlimit="10" stroke-linecap="round" stroke-linejoin="round"/>
<path d="M267.053 400.804C267.053 397.369 269.837 394.584 273.272 394.584C276.707 394.584 279.491 397.369 279.491 400.804C279.491 404.239 276.707 407.023 273.272 407.023C269.837 407.023 267.053 404.239 267.053 400.804Z" stroke="white" stroke-miterlimit="10" stroke-linecap="round" stroke-linejoin="round"/>
<path d="M21.8168 368.327C21.8168 366.075 23.6428 364.249 25.8952 364.249C28.1476 364.249 29.9736 366.075 29.9736 368.327C29.9736 370.58 28.1476 372.406 25.8952 372.406C23.6428 372.406 21.8168 370.58 21.8168 368.327Z" stroke="#39C7C7" stroke-miterlimit="10" stroke-linecap="round" stroke-linejoin="round"/>
<path d="M83.615 532.279C83.615 529.31 86.0221 526.902 88.9914 526.902C91.9606 526.902 94.3677 529.31 94.3677 532.279C94.3677 535.249 91.9606 537.655 88.9914 537.655C86.0221 537.655 83.615 535.249 83.615 532.279Z" fill="#FDF2E7"/>
<path d="M254.713 316.691C254.419 313.696 256.608 311.032 259.602 310.738C262.595 310.444 265.261 312.632 265.555 315.627C265.849 318.621 263.659 321.286 260.666 321.58C257.672 321.874 255.007 319.685 254.713 316.691Z" fill="#B5E9DF"/>
<path d="M138.343 403.395L146.11 432.191L151.311 425.005L160.507 436.934L166.409 431.85L156.477 420.507L163.829 417.493L138.343 403.395Z" fill="#FFF4E8" stroke="#294064" stroke-miterlimit="10" stroke-linecap="round" stroke-linejoin="round"/>
<path d="M200.923 299.468C180.688 281.243 139.683 288.94 150.12 313.116C136.334 316.133 135.477 331.853 149.78 342.66C159.693 350.152 172.495 349.006 184.064 346.364C200.283 342.66 232.897 337.433 236.754 329.347C243.267 315.692 228.69 300.843 214.479 299.135C207.876 298.342 200.923 299.468 200.923 299.468Z" fill="#FFF4E8" stroke="#294064" stroke-miterlimit="10" stroke-linecap="round" stroke-linejoin="round"/>
<path d="M238.956 272.812C231.033 271.149 220.024 282.963 236.374 287.083C250.157 290.556 272.765 278.653 272.765 278.653C266.093 264.76 251.558 258.633 241.816 262.866C231.633 267.291 238.956 272.812 238.956 272.812Z" fill="#ED7272" stroke="#294064" stroke-miterlimit="10" stroke-linecap="round" stroke-linejoin="round"/>
<path d="M46.6191 397.692C44.439 396.555 41.9425 389.283 43.4446 387.336L59.1872 373.804C60.3399 372.31 62.3882 371.84 64.0768 372.682L85.5919 378.605C87.795 379.704 88.0686 387.131 86.5973 389.105L72.8052 407.606C71.6464 409.161 69.5305 409.644 67.8114 408.747L46.6191 397.692Z" fill="#DC5484" stroke="#294064" stroke-miterlimit="10" stroke-linejoin="round"/>
<path d="M80.065 414.893C77.8848 413.756 75.3808 406.836 76.8829 404.889L92.633 391.005C93.7857 389.511 95.834 389.041 97.5227 389.883L119.13 395.754C121.333 396.853 121.514 404.332 120.043 406.306L106.251 424.807C105.092 426.362 102.976 426.845 101.257 425.948L80.065 414.893Z" fill="#DC5284" stroke="#294064" stroke-miterlimit="10" stroke-linejoin="round"/>
<path d="M101.803 386.084C99.6232 384.947 97.2993 377.609 98.8014 375.662L114.371 362.196C115.524 360.702 117.572 360.232 119.261 361.074L140.772 366.924C142.975 368.023 143.253 375.523 141.782 377.496L127.989 395.998C126.831 397.552 124.714 398.036 122.995 397.139L101.803 386.084Z" fill="#DC5484" stroke="#294064" stroke-miterlimit="10" stroke-linejoin="round"/>
<path d="M76.6708 372.673C74.2222 372.897 70.9588 365.292 71.1679 362.842L74.3053 345.784C74.4657 343.904 75.9334 342.4 77.809 342.194L102.604 334.061C105.051 333.792 105.803 341.354 105.634 343.809L104.055 366.832C103.922 368.766 102.405 370.319 100.474 370.495L76.6708 372.673Z" fill="#DC5484" stroke="#294064" stroke-miterlimit="10" stroke-linejoin="round"/>
<path d="M45.2424 390.944C43.0624 389.807 42.44 386.975 43.9421 385.029L57.8104 367.055C58.9632 365.561 61.0114 365.092 62.7001 365.933L83.8161 376.46C86.0191 377.558 86.6919 380.382 85.2207 382.356L71.4286 400.857C70.2697 402.412 68.1538 402.896 66.4347 401.999L45.2424 390.944Z" fill="#FC91B7" stroke="#294064" stroke-miterlimit="10" stroke-linejoin="round"/>
<path d="M78.6879 408.146C76.5078 407.009 75.8854 404.177 77.3875 402.23L91.2559 384.258C92.4086 382.764 94.4569 382.294 96.1455 383.135L117.261 393.663C119.464 394.76 120.137 397.584 118.666 399.558L104.874 418.059C103.716 419.614 101.599 420.098 99.8801 419.201L78.6879 408.146Z" fill="#FC91B7" stroke="#294064" stroke-miterlimit="10" stroke-linejoin="round"/>
<path d="M100.426 379.337C98.2458 378.2 97.6234 375.369 99.1256 373.422L112.994 355.449C114.146 353.955 116.195 353.485 117.884 354.327L138.999 364.853C141.202 365.952 141.875 368.776 140.404 370.75L126.612 389.251C125.453 390.806 123.337 391.29 121.618 390.392L100.426 379.337Z" fill="#FB90B5" stroke="#294064" stroke-miterlimit="10" stroke-linejoin="round"/>
<path d="M75.2941 365.926C72.8454 366.15 70.7893 364.106 70.9984 361.656L72.9286 339.037C73.089 337.157 74.5567 335.653 76.4322 335.446L99.8849 332.865C102.332 332.597 104.426 334.606 104.258 337.063L102.678 360.085C102.545 362.019 101.028 363.571 99.097 363.748L75.2941 365.926Z" fill="#FB90B6" stroke="#294064" stroke-miterlimit="10" stroke-linejoin="round"/>
<path d="M64.2876 312.482L105.586 322.223L86.3776 364.894L44.8043 354.056L64.2876 312.482Z" stroke="white" stroke-miterlimit="10" stroke-linejoin="round"/>
<path d="M45.2182 353.651L75.2726 341.674C78.9316 340.216 80.317 335.758 78.1288 332.483L64.8354 312.588" stroke="white" stroke-miterlimit="10" stroke-linecap="round" stroke-linejoin="round"/>
<path d="M85.9319 364.579L73.2764 342.56" stroke="white" stroke-miterlimit="10" stroke-linecap="round" stroke-linejoin="round"/>
<path d="M77.5883 331.405L104.961 322.501" stroke="white" stroke-miterlimit="10" stroke-linecap="round" stroke-linejoin="round"/>
<path d="M295.324 425.515C294.128 433.754 298.754 443.17 306.151 446.754" stroke="white" stroke-miterlimit="10" stroke-linecap="round" stroke-linejoin="round"/>
<path d="M308.798 448.182C311.923 449.808 317.139 451.828 321.591 451.773" stroke="white" stroke-miterlimit="10" stroke-linecap="round" stroke-linejoin="round"/>
<path d="M257.185 423.982L251.842 432.428" stroke="white" stroke-miterlimit="10" stroke-linecap="round" stroke-linejoin="round"/>
<path d="M250.094 435.381L246.417 441.272" stroke="white" stroke-miterlimit="10" stroke-linecap="round" stroke-linejoin="round"/>
<path d="M234.794 318.471C234.794 318.471 236.315 324.696 232.438 328.857C229.182 332.353 226.141 332.606 217.91 335.407" stroke="white" stroke-miterlimit="10" stroke-linecap="round" stroke-linejoin="round"/>
<path d="M213.366 336.481L204.331 338.66" stroke="white" stroke-miterlimit="10" stroke-linecap="round" stroke-linejoin="round"/>
<path d="M233.416 281.654C235.963 284.542 242.672 284.845 246.993 284.334" stroke="white" stroke-miterlimit="10" stroke-linecap="round" stroke-linejoin="round"/>
<path d="M249.969 283.917C249.969 283.917 255.286 283.077 258.265 281.757" stroke="white" stroke-miterlimit="10" stroke-linecap="round" stroke-linejoin="round"/>
<path d="M137.287 370.315L130.572 379.526" stroke="white" stroke-miterlimit="10" stroke-linecap="round" stroke-linejoin="round"/>
<path d="M129.103 381.455L126.01 385.748" stroke="white" stroke-miterlimit="10" stroke-linecap="round" stroke-linejoin="round"/>
<path d="M112.864 402.832L104.347 414.501" stroke="white" stroke-miterlimit="10" stroke-linecap="round" stroke-linejoin="round"/>
<path d="M125.394 450.331L125.87 475.104" stroke="white" stroke-miterlimit="10" stroke-linecap="round" stroke-linejoin="round"/>
<path d="M111.164 487.311L119.244 483.56" stroke="white" stroke-miterlimit="10" stroke-linecap="round" stroke-linejoin="round"/>
<path d="M130.465 483.027L138.075 487.923" stroke="#294064" stroke-miterlimit="10" stroke-linecap="round" stroke-linejoin="round"/>
<path d="M103.301 422.106L104.299 426.107" stroke="#294064" stroke-miterlimit="10" stroke-linecap="round" stroke-linejoin="round"/>
<path d="M69.6971 404.302L70.6375 408.955" stroke="#294064" stroke-miterlimit="10" stroke-linecap="round" stroke-linejoin="round"/>
<path d="M125.211 392.718L126.09 397.339" stroke="#294064" stroke-miterlimit="10" stroke-linecap="round" stroke-linejoin="round"/>
<path d="M191.824 415.644L185.896 417.726" stroke="#294064" stroke-miterlimit="10" stroke-linecap="round" stroke-linejoin="round"/>
<path d="M222.556 436.953L217.911 438.643" stroke="#294064" stroke-miterlimit="10" stroke-linecap="round" stroke-linejoin="round"/>
<path d="M348.734 453.057L349.1 460.06" stroke="#294064" stroke-miterlimit="10" stroke-linecap="round" stroke-linejoin="round"/>
<path d="M319.693 401.25L321.281 410.035" stroke="#294064" stroke-miterlimit="10" stroke-linecap="round" stroke-linejoin="round"/>
</g>
</g>
</g>
<defs>
<clipPath id="clip0_1091_4865">
<path d="M0 0H414V841C414 852.046 405.046 861 394 861H20C8.95432 861 0 852.046 0 841V0Z" fill="white"/>
</clipPath>
<clipPath id="clip1_1091_4865">
<rect width="414" height="896" fill="white"/>
</clipPath>
</defs>
</svg>
