<svg width="414" height="861" viewBox="0 0 414 861" fill="none" xmlns="http://www.w3.org/2000/svg">
<g clip-path="url(#clip0_1091_4996)">
<path d="M0 0H414V841C414 852.046 405.046 861 394 861H20C8.95432 861 0 852.046 0 841V0Z" fill="#8EB6AE"/>
<g clip-path="url(#clip1_1091_4996)">
<path d="M418.188 413.186C362.818 338.053 253.942 351.404 217.179 406.709C205.029 424.987 197.234 467.568 222.466 484.44C232.308 491.021 244.935 489.396 249.847 482.452C258.453 470.285 243.048 452.667 217.361 462.328C207.827 465.914 193.126 478.052 186.299 490.273C168.746 521.696 161.697 543.93 142.456 572.088C74.2768 671.863 -18.1949 666.316 -119.231 619.495" stroke="white" stroke-miterlimit="10" stroke-dasharray="10 10"/>
<path d="M67.0563 332.972L110.61 256.603L155.267 335.514" stroke="#294064" stroke-miterlimit="10" stroke-linecap="round"/>
<path d="M61.0452 321.52H161.516V476.412H61.0452V321.52Z" fill="#EBAE7E" stroke="#294064" stroke-miterlimit="10"/>
<path d="M72.7948 332.048H150.147V464.494H72.7948V332.048Z" fill="#FFF4E8" stroke="#294064" stroke-miterlimit="10"/>
<path d="M86.1259 464.494C92.2829 458.987 102.179 452.039 103.059 451.504C117.98 442.445 133.821 436.021 150.377 436.327L150.147 464.494H86.1259Z" fill="#0595B0" stroke="#294064" stroke-miterlimit="10" stroke-linecap="round"/>
<path d="M72.7746 453.451C78.1256 446.163 77.5823 437.054 88.5843 429.447C101.421 420.572 122.801 428.368 137.064 425.311C141.699 424.318 146.065 422.409 150.009 419.82L150.197 356.025C134.315 353.826 115.028 371.995 103.519 378.44C97.3059 381.92 91.4277 385.388 85.5975 389.469C80.9501 392.722 76.7208 394.357 72.5623 398.271L72.7746 453.451Z" fill="#FA91B6" stroke="#294064" stroke-miterlimit="10" stroke-linecap="round"/>
<path d="M150.377 331.879L140.82 331.746C124.278 357.882 89.6897 364.267 72.6262 389.814L72.5623 408.877C76.7656 405.154 81.8782 402.631 87.6653 401.876C112.789 398.599 133.28 393.312 150.06 376.369L150.377 331.879Z" fill="#62C8B3" stroke="#294064" stroke-miterlimit="10" stroke-linecap="round"/>
<path d="M140.535 404.834C132.018 406.859 109.718 415.36 128.407 418.03C142.202 420.001 157.925 400.701 140.535 404.834Z" fill="#FFF4E8" stroke="#294064" stroke-miterlimit="10" stroke-linecap="round"/>
<path d="M94.2759 464.519C99.1302 459.286 106.286 455.018 112.198 452.555C113.356 452.072 119.324 449.896 120.434 451.896C121.705 454.182 117.562 458.818 116.261 460.462C115.185 461.82 114.494 463.021 113.21 464.494L94.2759 464.519Z" fill="#FFF4E8" stroke="#294064" stroke-miterlimit="10" stroke-linecap="round"/>
<path d="M72.7948 332.048H150.147V464.494H72.7948V332.048Z" stroke="#294064" stroke-miterlimit="10"/>
<path d="M150.377 332.087L161.551 321.579" stroke="#2E4166" stroke-miterlimit="10" stroke-linecap="round"/>
<path d="M149.989 464.634L160.905 476.191" stroke="#2E4166" stroke-miterlimit="10" stroke-linecap="round"/>
<path d="M73.3497 464.503L61.4197 476.023" stroke="#2E4166" stroke-miterlimit="10" stroke-linecap="round"/>
<path d="M72.4105 331.879L61.6553 321.962" stroke="#2E4166" stroke-miterlimit="10" stroke-linecap="round"/>
<path d="M76.1946 347.351L76.0331 367.784" stroke="#2E4166" stroke-miterlimit="10" stroke-linecap="round"/>
<path d="M146.877 366.227L146.571 394.362" stroke="#2E4166" stroke-miterlimit="10" stroke-linecap="round"/>
<path d="M153.96 453.831L153.964 428.975" stroke="#2E4166" stroke-miterlimit="10" stroke-linecap="round"/>
<path d="M105.56 256.78C105.56 254.114 107.721 251.953 110.387 251.953C113.053 251.953 115.214 254.114 115.214 256.78C115.214 259.446 113.053 261.607 110.387 261.607C107.721 261.607 105.56 259.446 105.56 256.78Z" fill="#0595B0" stroke="#294064" stroke-miterlimit="10"/>
<path d="M383.641 722.037C383.641 721.138 382.912 720.409 382.013 720.409H358.504C357.709 720.409 357.153 721.195 357.418 721.944L368.483 753.244C368.808 754.164 369.679 754.778 370.655 754.774L382.013 754.731C382.913 754.727 383.641 753.996 383.641 753.096V722.037Z" fill="#FFF4E8" stroke="#294064" stroke-miterlimit="10"/>
<path d="M35.1361 722.037C35.1361 721.138 35.8653 720.409 36.7648 720.409H60.2739C61.0688 720.409 61.6247 721.195 61.3598 721.944L50.2943 753.244C49.9692 754.164 49.0982 754.778 48.1228 754.774L36.7648 754.731C35.8643 754.727 35.1361 753.996 35.1361 753.096V722.037Z" fill="#FFF4E8" stroke="#294064" stroke-miterlimit="10"/>
<path d="M354.459 718.372L360.072 728.825L383.641 733.017C383.641 733.017 384.094 722.954 383.641 716.694C369.061 715.923 367.914 717.721 353.333 716.95" fill="#294064"/>
<path d="M354.459 718.372L360.072 728.825L383.641 733.017C383.641 733.017 384.094 722.954 383.641 716.694C369.061 715.923 367.914 717.721 353.333 716.95" stroke="#294064" stroke-miterlimit="10" stroke-linecap="round"/>
<path d="M35.2096 719.168L35.9748 737.04L57.913 728.881L60.6464 721.327C60.6464 721.327 55.195 719.453 52.3574 719.373C45.9983 719.194 39.6347 719.482 33.2733 719.536" fill="#294064"/>
<path d="M35.2096 719.168L35.9748 737.04L57.913 728.881L60.6464 721.327C60.6464 721.327 55.195 719.453 52.3574 719.373C45.9983 719.194 39.6347 719.482 33.2733 719.536" stroke="#294064" stroke-miterlimit="10" stroke-linecap="round"/>
<path d="M408.436 716.685C408.436 714.013 406.27 711.848 403.599 711.848H14.6257C11.9543 711.848 9.78864 714.013 9.78864 716.685V716.703C9.78864 719.375 11.9543 721.54 14.6257 721.54H403.599C406.27 721.54 408.436 719.375 408.436 716.703V716.685Z" fill="#FFF4E8" stroke="#294064" stroke-miterlimit="10"/>
<path d="M245.272 516.619C245.272 514.903 246.663 513.512 248.378 513.512H373.525C375.241 513.512 376.632 514.903 376.632 516.619V516.668C376.632 518.383 375.241 519.774 373.525 519.774H248.378C246.663 519.774 245.272 518.383 245.272 516.668V516.619Z" fill="#FFF4E8" stroke="#294064" stroke-miterlimit="10"/>
<path d="M275.153 506.532C275.153 503.48 277.627 501.007 280.678 501.007H339.411C342.463 501.007 344.936 503.48 344.936 506.532V507.122V507.712C344.936 510.763 342.463 513.237 339.411 513.237H300.234H280.678C277.627 513.237 275.153 510.763 275.153 507.712V506.532Z" fill="#DB5E5E" stroke="#2E4166" stroke-miterlimit="10"/>
<path d="M339.411 513.237H306.13L344.936 507.613V507.712C344.936 510.763 342.463 513.237 339.411 513.237Z" fill="#2E4166" stroke="#2E4166" stroke-miterlimit="10"/>
<path d="M275.153 494.758C275.153 491.706 277.627 489.233 280.678 489.233H339.411C342.463 489.233 344.936 491.706 344.936 494.758V495.348V495.938C344.936 498.99 342.463 501.463 339.411 501.463H300.234H280.678C277.627 501.463 275.153 498.99 275.153 495.938V494.758Z" fill="#DB5E5E" stroke="#2E4166" stroke-miterlimit="10"/>
<path d="M339.411 501.463H306.13L344.936 495.839V495.938C344.936 498.99 342.463 501.463 339.411 501.463Z" fill="#2E4166" stroke="#2E4166" stroke-miterlimit="10"/>
<path d="M275.153 482.987C275.153 479.935 277.627 477.462 280.678 477.462H339.411C342.463 477.462 344.936 479.935 344.936 482.987V483.577V484.167C344.936 487.218 342.463 489.692 339.411 489.692H300.234H280.678C277.627 489.692 275.153 487.218 275.153 484.167V482.987Z" fill="#DB5E5E" stroke="#2E4166" stroke-miterlimit="10"/>
<path d="M339.411 489.692H306.13L344.936 484.067V484.167C344.936 487.218 342.463 489.692 339.411 489.692Z" fill="#2E4166" stroke="#2E4166" stroke-miterlimit="10"/>
<path d="M278.42 432.76C284.279 439.399 292.905 455.707 296.485 463.031L302.345 477.191H306.983H311.621C312.76 465.147 311.035 437.349 295.021 422.507C275.003 403.953 271.097 424.459 278.42 432.76Z" fill="#7ED7C6" stroke="#294064" stroke-miterlimit="10" stroke-linecap="round"/>
<path d="M289.65 432.76C291.766 435.201 296.779 441.939 299.903 449.361C303.028 456.782 305.925 471.006 306.983 477.191M306.983 477.191H311.621C312.76 465.147 311.035 437.349 295.021 422.507C275.003 403.953 271.097 424.459 278.42 432.76C284.279 439.399 292.905 455.707 296.485 463.031L302.345 477.191H306.983Z" stroke="#2E4166" stroke-miterlimit="10" stroke-linecap="round"/>
<path d="M349.499 432.487C343.64 439.127 335.015 455.434 331.434 462.758L325.575 476.919H320.936H316.298C315.159 464.875 316.884 437.076 332.899 422.234C352.917 403.68 356.823 424.187 349.499 432.487Z" fill="#50A998" stroke="#294064" stroke-miterlimit="10" stroke-linecap="round"/>
<path d="M338.269 432.487C336.154 434.928 331.141 441.667 328.016 449.088C324.891 456.509 321.994 470.734 320.936 476.919M320.936 476.919H316.298C315.159 464.875 316.884 437.076 332.899 422.234C352.917 403.68 356.823 424.187 349.499 432.487C343.64 439.127 335.015 455.434 331.434 462.758L325.575 476.919H320.936Z" stroke="#2E4166" stroke-miterlimit="10" stroke-linecap="round"/>
<path d="M319.35 435.152C310.15 441.963 305.008 466.547 305.284 477.191H310.866H316.448C313.553 465.874 328.825 442.814 330.096 441.219C332.998 437.578 333 425.048 319.35 435.152Z" fill="#7ED7C6" stroke="#294064" stroke-miterlimit="10" stroke-linecap="round"/>
<path d="M310.866 477.191H316.448C313.553 465.874 328.825 442.814 330.096 441.219C332.998 437.578 333 425.048 319.35 435.152C310.15 441.963 305.008 466.547 305.284 477.191H310.866ZM310.866 477.191C310.935 472.341 311.817 461.185 314.794 455.365" stroke="#2E4166" stroke-miterlimit="10" stroke-linecap="round"/>
<path d="M346.199 462.103C365.401 468.173 366.958 480.904 365.336 486.512C364.039 488.821 359.563 492.251 352.038 487.501C345.657 483.474 340.07 474.893 337.134 469.36C335.723 470.679 333.031 474.109 333.55 477.276H320.9C321.102 473.737 322.443 468.876 325.765 465.314C327.938 462.986 330.957 461.212 335.06 460.725C338.133 460.359 341.812 460.716 346.199 462.103Z" fill="#7ED7C6" stroke="#294064" stroke-miterlimit="10" stroke-linecap="round"/>
<path d="M325.765 465.314C322.443 468.876 321.102 473.737 320.9 477.276H333.55C333.031 474.109 335.723 470.679 337.134 469.36M325.765 465.314C330.436 462.341 334.415 465.014 335.82 466.721C336.166 467.473 336.607 468.367 337.134 469.36M325.765 465.314C327.938 462.986 330.957 461.212 335.06 460.725M337.134 469.36C340.07 474.893 345.657 483.474 352.038 487.501C359.563 492.251 364.039 488.821 365.336 486.512C366.958 480.904 365.401 468.173 346.199 462.103C341.812 460.716 338.133 460.359 335.06 460.725M335.06 460.725C338.404 461.819 346.482 465.766 352.038 472.797M354.589 476.215C355.403 477.191 357.128 479.339 357.518 480.121" stroke="#2E4166" stroke-miterlimit="10" stroke-linecap="round"/>
<path d="M325.765 465.315C322.443 468.876 321.102 473.737 320.9 477.276H333.55C333.031 474.11 335.723 470.679 337.134 469.36C336.607 468.368 336.166 467.474 335.82 466.722C334.415 465.014 330.436 462.342 325.765 465.315Z" fill="#50A998" stroke="#2E4166" stroke-miterlimit="10" stroke-linecap="round"/>
<path d="M278.999 462.103C259.797 468.173 258.24 480.904 259.862 486.512C261.159 488.821 265.635 492.251 273.161 487.501C279.541 483.474 285.129 474.893 288.065 469.36C289.475 470.679 292.167 474.109 291.648 477.276H304.298C304.097 473.737 302.755 468.876 299.432 465.314C297.261 462.986 294.241 461.212 290.139 460.725C287.066 460.359 283.386 460.716 278.999 462.103Z" fill="#7ED7C6" stroke="#294064" stroke-miterlimit="10" stroke-linecap="round"/>
<path d="M299.432 465.314C302.755 468.876 304.097 473.737 304.298 477.276H291.648C292.167 474.109 289.475 470.679 288.065 469.36M299.432 465.314C294.762 462.341 290.783 465.014 289.377 466.721C289.032 467.473 288.591 468.367 288.065 469.36M299.432 465.314C297.261 462.986 294.241 461.212 290.139 460.725M288.065 469.36C285.129 474.893 279.541 483.474 273.161 487.501C265.635 492.251 261.159 488.821 259.862 486.512C258.24 480.904 259.797 468.173 278.999 462.103C283.386 460.716 287.066 460.359 290.139 460.725M290.139 460.725C286.794 461.819 278.716 465.766 273.161 472.797M270.609 476.215C269.795 477.191 268.07 479.339 267.68 480.121" stroke="#2E4166" stroke-miterlimit="10" stroke-linecap="round"/>
<path d="M299.432 465.315C302.755 468.876 304.097 473.737 304.298 477.276H291.648C292.167 474.11 289.475 470.679 288.065 469.36C288.591 468.368 289.032 467.474 289.377 466.722C290.783 465.014 294.762 462.342 299.432 465.315Z" fill="#50A998" stroke="#2E4166" stroke-miterlimit="10" stroke-linecap="round"/>
<path d="M83.3507 539.476C83.3507 539.476 96.4677 571.674 92.0681 582.245C87.6761 592.799 74.9354 592.599 66.8816 584.385C59.3661 576.72 37.6183 526.339 51.9547 515.21" fill="#056E81"/>
<path d="M83.3507 539.476C83.3507 539.476 96.4677 571.674 92.0681 582.245C87.6761 592.799 74.9354 592.599 66.8816 584.385C59.3661 576.72 37.6183 526.339 51.9547 515.21" stroke="#294064" stroke-miterlimit="10" stroke-linecap="round"/>
<path d="M85.0439 538.223C85.0439 538.223 97.2317 575.007 91.1044 584.68C88.6887 588.493 78.7144 591.545 71.743 584.417C62.8077 575.281 54.3844 548.122 53.169 539.545" fill="#0595B0"/>
<path d="M85.0439 538.223C85.0439 538.223 97.2317 575.007 91.1044 584.68C88.6887 588.493 78.7144 591.545 71.743 584.417C62.8077 575.281 54.3844 548.122 53.169 539.545" stroke="#294064" stroke-miterlimit="10" stroke-linecap="round"/>
<path d="M302.215 652.457L221.462 652.448C221.462 652.448 230.949 574.112 201.293 536.952C181.864 512.607 129.037 537.125 95.902 543.78C92.4321 544.477 84.4258 534.32 66.5803 525.646C62.6478 523.735 56.832 513.993 55.1522 513.951C49.5481 513.81 57.0712 533.769 57.0712 533.769C57.0712 533.769 63.8597 553.719 66.0684 560.656C68.1133 567.078 71.813 579.628 80.4511 584.349C88.8213 588.924 101.825 579.298 108.362 566.155C115.774 551.252 153.384 573.644 167.99 573.372C175.858 650.901 165.11 622.381 172.978 699.91C198.606 701.519 178.995 690.036 204.623 691.644" fill="#FFC6B2"/>
<path d="M302.215 652.457L221.462 652.448C221.462 652.448 230.949 574.112 201.293 536.952C181.864 512.607 129.037 537.125 95.902 543.78C92.4321 544.477 84.4258 534.32 66.5803 525.646C62.6478 523.735 56.832 513.993 55.1522 513.951C49.5481 513.81 57.0712 533.769 57.0712 533.769C57.0712 533.769 63.8597 553.719 66.0684 560.656C68.1133 567.078 71.813 579.628 80.4511 584.349C88.8213 588.924 101.825 579.298 108.362 566.155C115.774 551.252 153.384 573.644 167.99 573.372C175.858 650.901 165.11 622.381 172.978 699.91C198.606 701.519 178.995 690.036 204.623 691.644" stroke="#294064" stroke-miterlimit="10" stroke-linecap="round"/>
<path d="M253.436 712.04C256.193 693.975 199.483 638.059 188.768 595.205C179.658 558.773 120.779 511.582 126.268 545.381C135.608 602.885 111.977 693.685 136.465 708.9C147.972 716.049 253.436 712.04 253.436 712.04Z" fill="#FFC6B2" stroke="#294064" stroke-miterlimit="10" stroke-linecap="round"/>
<path d="M226.839 654.927C212.892 662.22 195.263 664.876 184.999 676.806C173.856 689.758 177.64 704.57 180.488 712.555C171.37 713.327 141.164 714.884 133.21 707.16C124.418 698.622 123.076 684.405 124.749 669.24C124.749 669.24 136.323 676.568 155.876 669.046C179.817 659.834 176.013 648.036 189.2 635.89C195.475 630.11 192.865 619.035 201.397 618.951" fill="#FA91B6"/>
<path d="M226.839 654.927C212.892 662.22 195.263 664.876 184.999 676.806C173.856 689.758 177.64 704.57 180.488 712.555C171.37 713.327 141.164 714.884 133.21 707.16C124.418 698.622 123.076 684.405 124.749 669.24C124.749 669.24 136.323 676.568 155.876 669.046C179.817 659.834 176.013 648.036 189.2 635.89C195.475 630.11 192.865 619.035 201.397 618.951" stroke="#294064" stroke-miterlimit="10" stroke-linecap="round"/>
<path d="M199.466 631.549C201.586 631.549 203.356 632.679 205.342 633.263C211.242 634.998 216.227 638.213 221.744 640.852C226.2 642.983 212.56 644.25 215.13 648.362C215.991 649.74 235.418 657.767 233.984 658.723C231.373 660.464 226.042 659.816 222.968 659.702C211.68 659.284 202.06 653.092 190.653 653.092" fill="#EBAE7E"/>
<path d="M199.466 631.549C201.586 631.549 203.356 632.679 205.342 633.263C211.242 634.998 216.227 638.213 221.744 640.852C226.2 642.983 212.56 644.25 215.13 648.362C215.991 649.74 235.418 657.767 233.984 658.723C231.373 660.464 226.042 659.816 222.968 659.702C211.68 659.284 202.06 653.092 190.653 653.092" stroke="#294064" stroke-miterlimit="10" stroke-linecap="round"/>
<path d="M196.178 580.488C183.876 564.764 154.516 514.311 121.456 536.395C71.8204 569.552 96.0311 660.883 94.1179 673.759C93.098 680.624 71.6763 694.416 67.6116 696.322C63.879 698.073 49.1982 702.957 52.0458 708.164C54.5189 712.687 85.0188 717.171 98.768 711.969C102.109 710.705 110.605 714.762 118.852 710.632C129.697 705.2 120.357 685.775 120.77 680.706C122.268 662.33 132.908 633.053 135.838 584.391" fill="#FFC6B2"/>
<path d="M196.178 580.488C183.876 564.764 154.516 514.311 121.456 536.395C71.8204 569.552 96.0311 660.883 94.1179 673.759C93.098 680.624 71.6763 694.416 67.6116 696.322C63.879 698.073 49.1982 702.957 52.0458 708.164C54.5189 712.687 85.0188 717.171 98.768 711.969C102.109 710.705 110.605 714.762 118.852 710.632C129.697 705.2 120.357 685.775 120.77 680.706C122.268 662.33 132.908 633.053 135.838 584.391" stroke="#294064" stroke-miterlimit="10" stroke-linecap="round"/>
<path d="M125.011 668.704C124.807 620.105 122.901 615.11 126.627 586.947C126.627 586.947 135.777 571.672 129.033 560.809" fill="#FFC6B2"/>
<path d="M125.011 668.704C124.807 620.105 122.901 615.11 126.627 586.947C126.627 586.947 135.777 571.672 129.033 560.809" stroke="#294064" stroke-miterlimit="10" stroke-linecap="round"/>
<path d="M135.289 637.99C135.422 638.434 135.612 638.864 135.688 639.32C136.288 642.923 137.431 646.505 137.317 650.156C137.253 652.175 135.998 653.98 135.17 655.823C133.836 658.791 127.266 661.431 126.257 659.789C125.714 658.906 125.517 650.583 125.517 650.583C124.74 647.529 126.954 640.404 128.533 637.19C129.707 634.8 132.278 632.679 132.317 629.876" fill="#FFC6B2"/>
<path d="M126.483 711.408C126.483 710.397 125.663 709.578 124.652 709.578H51.2742C50.2634 709.578 49.4439 710.397 49.4439 711.408V713.89C49.4439 714.901 50.2634 715.721 51.2742 715.721H124.652C125.663 715.721 126.483 714.901 126.483 713.89V711.408Z" fill="#056E81" stroke="#294064" stroke-miterlimit="10"/>
<path d="M86.8718 538.616C85.2676 530.966 81.6392 521.927 74.0938 516.069C67.2081 510.723 53.8311 508.622 49.8998 518.926C45.9686 529.23 57.3769 555.921 57.3769 555.921C58.2673 550.802 57.9372 543.483 68.3909 537.259C79.4944 530.648 86.8718 538.616 86.8718 538.616Z" fill="#4CBED4" stroke="#294064" stroke-miterlimit="10" stroke-linecap="round"/>
<path d="M81.5548 686.701C81.5548 686.701 76.5663 688.649 76.0605 693.864C75.2952 701.752 88.9158 708.692 95.6774 709.632L50.2047 709.827C47.2368 706.304 48.0063 700.573 51.5892 696.227C54.3667 692.859 76.9335 676.395 81.5548 686.701Z" fill="#4CBED4" stroke="#294064" stroke-miterlimit="10" stroke-linecap="round"/>
<path d="M244.749 574.003C246.367 570.025 242.655 567.34 239.131 569.752C234.401 572.989 230.81 577.951 229.128 583.436C228.553 585.31 227.82 587.419 227.642 589.373C226.958 596.843 231.143 603.976 232.468 611.15C233.683 617.735 229.177 623.928 230.845 630.988C233.724 643.172 249 643.117 258.648 639.92C261.959 638.823 265.074 637.075 268.173 635.505C268.676 635.25 271.044 634.083 271.664 633.906C272.322 633.718 273.082 633.837 273.675 633.495" fill="#2F2F2F"/>
<path d="M244.749 574.003C246.367 570.025 242.655 567.34 239.131 569.752C234.401 572.989 230.81 577.951 229.128 583.436C228.553 585.31 227.82 587.419 227.642 589.373C226.958 596.843 231.143 603.976 232.468 611.15C233.683 617.735 229.177 623.928 230.845 630.988C233.724 643.172 249 643.117 258.648 639.92C261.959 638.823 265.074 637.075 268.173 635.505C268.676 635.25 271.044 634.083 271.664 633.906C272.322 633.718 273.082 633.837 273.675 633.495" stroke="#294064" stroke-miterlimit="10" stroke-linecap="round"/>
<path d="M283.581 570.97C281.661 569.99 278.259 567.908 275.785 567.543C273.08 567.143 270.352 566.912 267.625 566.803C263.113 566.622 268.703 567.139 264.198 567.455C257.364 567.935 244.361 567.522 239.425 578.353C235.908 586.07 238.064 590.321 236.815 594.853C235.573 599.36 232.589 600.045 232.105 601.804C231.503 603.993 236.058 605.894 236.058 605.894C236.71 613.369 238.68 625.679 251.686 629.608C262.181 632.779 271.8 627.793 274.864 626.618C283.442 623.329 266.866 622.437 275.315 618.767C285.964 614.14 290.006 598.854 289.134 587.498C288.655 581.262 285.672 575.565 283.678 569.7C283.218 570.44 283.291 570.024 283.581 570.97Z" fill="#FFC6B2" stroke="#294064" stroke-miterlimit="10" stroke-linecap="round"/>
<path d="M210.534 636.313L123.386 633.66C122.144 633.68 122.068 638.462 122.879 639.404L149.066 669.823C149.996 670.903 151.358 671.515 152.783 671.493L241.645 670.11C242.515 670.097 242.96 669.061 242.371 668.421L214.306 637.933C213.465 637.019 211.776 636.294 210.534 636.313Z" fill="#056E81" stroke="#294064" stroke-miterlimit="10"/>
<path d="M215.26 633.776C214.291 632.723 212.919 632.134 211.488 632.156L124.614 633.507C123.721 633.521 123.25 634.57 123.832 635.247L150.02 665.666C150.95 666.746 152.312 667.358 153.737 667.336L242.599 665.953C243.469 665.94 243.914 664.904 243.325 664.264L215.26 633.776Z" fill="#0595B0" stroke="#294064" stroke-miterlimit="10"/>
<path d="M196.405 647.733C195.202 646.415 193.479 645.695 191.696 645.763L168.717 646.648C167.446 646.697 166.687 648.085 167.332 649.182L172.796 658.473C173.677 659.971 175.299 660.875 177.036 660.836L204.942 660.22C206.039 660.196 206.597 658.891 205.857 658.08L196.405 647.733Z" fill="#4CBED4" stroke="#294064" stroke-miterlimit="10"/>
<path d="M120.832 571.852C120.832 569.944 122.379 568.397 124.287 568.397H210.466C212.374 568.397 213.921 569.944 213.921 571.852V629.766C213.921 631.674 212.374 633.22 210.466 633.22H124.287C122.379 633.22 120.832 631.674 120.832 629.766V571.852Z" fill="#0595B0" stroke="#294064" stroke-miterlimit="10"/>
<path d="M124.938 573.452H208.881V629.37H124.938V573.452Z" fill="white" stroke="#294064" stroke-miterlimit="10"/>
<path d="M157.213 581.452C157.213 580.782 157.756 580.239 158.426 580.239H202.427C203.097 580.239 203.64 580.782 203.64 581.452V599.596C203.64 600.266 203.097 600.809 202.427 600.809H158.426C157.756 600.809 157.213 600.266 157.213 599.596V581.452Z" fill="#62C8B3"/>
<path d="M157.213 604.693C157.213 604.023 157.756 603.48 158.426 603.48H202.427C203.097 603.48 203.64 604.023 203.64 604.693V610.408C203.64 611.078 203.097 611.621 202.427 611.621H158.426C157.756 611.621 157.213 611.078 157.213 610.408V604.693Z" fill="#F39C57"/>
<path d="M128.096 613.972C128.096 613.302 128.64 612.759 129.31 612.759H148.889C149.559 612.759 150.102 613.302 150.102 613.972C150.102 614.642 149.559 615.185 148.889 615.185H129.31C128.64 615.185 128.096 614.642 128.096 613.972Z" fill="#F39C57"/>
<path d="M127.928 620.164C127.928 619.494 128.471 618.951 129.141 618.951H148.721C149.391 618.951 149.934 619.494 149.934 620.164V625.782C149.934 626.452 149.391 626.995 148.721 626.995H129.141C128.471 626.995 127.928 626.452 127.928 625.782V620.164Z" fill="#62C8B3"/>
<path d="M152.682 572.85V628.768" stroke="#294064" stroke-miterlimit="10"/>
<path d="M126.627 617.134H152.596" stroke="#294064" stroke-miterlimit="10"/>
<path d="M126.947 610.866H152.483" stroke="#294064" stroke-miterlimit="10"/>
<path d="M152.682 576.377H204.215" stroke="#294064" stroke-miterlimit="10" stroke-linecap="round"/>
<path d="M66.1524 545.564C66.1524 543.129 68.1259 541.156 70.5602 541.156H145.03C147.464 541.156 149.438 543.129 149.438 545.564V595.067C149.438 597.501 147.464 599.475 145.03 599.475H70.5602C68.1259 599.475 66.1524 597.501 66.1524 595.067V545.564Z" fill="white" fill-opacity="0.722973" stroke="#294064" stroke-miterlimit="10"/>
<path d="M121.646 552.205C118.283 548.976 113.628 547.198 108.54 547.198C100.767 547.198 95.9865 550.384 93.3449 553.056C90.0891 556.35 88.2223 560.724 88.2223 565.056C88.2223 570.495 90.4974 574.67 94.3073 576.223C94.5631 576.328 94.8205 576.38 95.0728 576.38C95.8766 576.38 96.5134 575.854 96.7341 575.011C96.8627 574.527 97.1607 573.333 97.2903 572.815C97.5676 571.791 97.3435 571.299 96.7387 570.586C95.6368 569.282 95.1236 567.74 95.1236 565.734C95.1236 559.774 99.5616 553.439 107.787 553.439C114.313 553.439 118.368 557.149 118.368 563.12C118.368 566.888 117.556 570.377 116.082 572.946C115.057 574.731 113.256 576.858 110.491 576.858C109.295 576.858 108.221 576.367 107.543 575.511C106.903 574.701 106.691 573.655 106.949 572.565C107.24 571.334 107.637 570.049 108.021 568.808C108.721 566.539 109.383 564.397 109.383 562.688C109.383 559.765 107.585 557.8 104.911 557.8C101.512 557.8 98.8489 561.253 98.8489 565.66C98.8489 567.821 99.4233 569.438 99.6834 570.059C99.2551 571.873 96.7102 582.659 96.2275 584.693C95.9484 585.88 94.267 595.258 97.05 596.006C100.177 596.846 102.972 587.713 103.256 586.681C103.487 585.841 104.294 582.667 104.788 580.716C106.298 582.17 108.728 583.153 111.093 583.153C115.551 583.153 119.561 581.147 122.383 577.505C125.12 573.971 126.627 569.047 126.627 563.639C126.627 559.412 124.812 555.244 121.646 552.205Z" fill="#DB5E5E" stroke="#294064" stroke-miterlimit="10" stroke-linecap="round"/>
<path d="M59.8787 537.743C59.8787 536.828 60.6206 536.086 61.5358 536.086H73.1885C74.1037 536.086 74.8456 536.828 74.8456 537.743V548.921C74.8456 549.836 74.1037 550.578 73.1885 550.578H61.5358C60.6206 550.578 59.8787 549.836 59.8787 548.921V537.743Z" fill="#FA91B6" stroke="#294064" stroke-miterlimit="10"/>
<path d="M63.4134 539.035L71.7346 547.418" stroke="#294064" stroke-miterlimit="10" stroke-linecap="round"/>
<path d="M71.663 538.846L63.4101 547.588" stroke="#294064" stroke-miterlimit="10" stroke-linecap="round"/>
<path d="M324.836 595.669C337.273 617.142 360.156 637.493 369.546 646.222C394.619 669.53 398.464 687.647 390.803 697.328C372.917 718.016 297.404 705.805 297.404 705.805C297.404 705.805 297.126 701.539 275.691 695.778L278.649 681.412C293.924 682.742 305.86 672.553 328.798 667.782C322.995 649.343 321.744 626.859 312.887 611.642L324.836 595.669ZM175.299 626.478L198.2 627.571C200.74 638.137 198.494 651.77 201.553 660.593C209.084 682.32 217.749 698.41 225.388 707.123C226.974 672.069 225.626 623.136 255.955 631.434C274.255 636.441 272.478 688.412 265.161 719.241C259.763 741.988 243.761 757.933 231.797 759.912C226.746 760.748 215.281 756.449 207.397 747.967C193.696 733.226 183.164 715.374 181.06 667.89C180.572 656.884 180.965 649.121 179.324 642.454C177.462 634.886 175.299 626.478 175.299 626.478Z" fill="#FFC6B2" stroke="#294064" stroke-miterlimit="10" stroke-linecap="round"/>
<path d="M262.89 676.897C261.608 677.69 257.782 684.207 256.923 685.899L262.89 676.897Z" fill="#E4AC98"/>
<path d="M266.271 714.724C265.05 716.702 264.863 718.751 264.103 720.887C264.006 721.159 263.644 722.767 263.302 722.848C260.443 723.524 257.87 716.371 257.573 714.673C255.926 705.279 259.73 697.48 264.559 689.659" fill="#E4AC98"/>
<path d="M223.455 706.133C218.382 701.469 215.653 695.888 212.269 689.863C211.489 694.104 209.551 698 208.945 702.256C208.41 706.011 208.567 709.842 208.71 713.632C212.561 710.065 214.838 706.649 219.642 704.353" fill="#E4AC98"/>
<path d="M390.724 712.018L299.375 711.899C299.375 711.899 272.22 732.216 259.146 710.27C251.875 698.065 260.49 674.914 263.436 664.169C266.847 651.728 258.74 647.65 253.04 636.984C248.692 628.847 250.589 620.548 254.114 616.022C260.607 607.684 266.342 611.597 267.592 599.866C268.218 593.996 263.443 597.592 258.364 597.897C241.842 598.888 251.945 579.331 245.105 576.205C234.921 571.551 233.736 567.243 242.462 558.59C251.488 549.641 268.43 545.987 284.122 555.094C289.522 558.228 304.197 547.269 318.956 570.298C327.015 582.872 317.702 596.636 318.459 605.417C319.192 613.911 334.145 605.979 339.368 623.807C343.125 636.628 334.22 648.07 337.509 653.108C340.747 658.069 365.119 659.873 362.073 686.933C361.42 692.731 390.756 683.838 390.724 712.018Z" fill="#2F2F2F" stroke="#294064" stroke-miterlimit="10" stroke-linecap="round"/>
<path d="M269.267 600.177C269.267 594.484 265.779 589.869 261.477 589.869C257.174 589.869 253.686 594.484 253.686 600.177C253.686 605.87 257.174 610.485 261.477 610.485C265.779 610.485 269.267 605.87 269.267 600.177Z" fill="#FFC6B2" stroke="#294064" stroke-miterlimit="10"/>
<path d="M263.29 603.386C263.29 599.963 260.278 597.189 256.562 597.189C252.847 597.189 249.835 599.963 249.835 603.386C249.835 606.808 252.847 609.583 256.562 609.583C260.278 609.583 263.29 606.808 263.29 603.386Z" fill="#FFC6B2"/>
<path d="M264.298 599.475C264.298 596.613 262.271 594.293 259.77 594.293C257.269 594.293 255.241 596.613 255.241 599.475C255.241 602.337 257.269 604.657 259.77 604.657C262.271 604.657 264.298 602.337 264.298 599.475Z" fill="#E4AC98"/>
<path d="M264.138 596.707C261.525 594.951 257.326 595.685 255.724 597.287" stroke="#294064" stroke-miterlimit="10" stroke-linecap="round"/>
<path d="M260.152 595.842C261.964 596.445 263.197 599.561 262.935 601.004" stroke="#294064" stroke-miterlimit="10" stroke-linecap="round"/>
<path d="M237.391 586.95C237.391 586.95 239.529 586.775 241.723 588.986" stroke="#294064" stroke-miterlimit="10" stroke-linecap="round"/>
<path d="M202.137 662.069C199.247 652.838 204.817 637.992 204.16 629.868C203.598 622.906 200.486 611.709 190.516 610.63C183.769 609.899 172.441 621.619 191.033 616.916L193.923 624.946" fill="#FFC6B2"/>
<path d="M202.137 662.069C199.247 652.838 204.817 637.992 204.16 629.868C203.598 622.906 200.486 611.709 190.516 610.63C183.769 609.899 172.441 621.619 191.033 616.916L193.923 624.946" stroke="#294064" stroke-miterlimit="10" stroke-linecap="round"/>
<path d="M198.975 631.444C199.087 627.642 197.228 623.071 192.972 620.457C188.3 617.588 182.19 615.579 177.763 620.268" fill="#FFC6B2"/>
<path d="M198.975 631.444C199.087 627.642 197.228 623.071 192.972 620.457C188.3 617.588 182.19 615.579 177.763 620.268" stroke="#294064" stroke-miterlimit="10" stroke-linecap="round"/>
<path d="M192.789 633.628C192.409 626.829 189.809 623.128 187.804 621.736C184.371 619.354 180.27 617.785 176.443 618.106C174.175 618.296 171.943 619.433 170.387 620.8" fill="#FFC6B2"/>
<path d="M192.789 633.628C192.409 626.829 189.809 623.128 187.804 621.736C184.371 619.354 180.27 617.785 176.443 618.106C174.175 618.296 171.943 619.433 170.387 620.8" stroke="#294064" stroke-miterlimit="10" stroke-linecap="round"/>
<path d="M186.224 633.229C186.041 628.663 181.56 622.68 176.472 620.786C171.126 618.797 163.947 619.942 163.01 623.635C162.621 625.17 165.229 627.257 170.349 626.332C172.521 625.939 175.764 631.174 176.41 635.216C177.039 639.145 175.522 642.557 174.602 647.068C172.553 657.119 180.016 664.484 188.355 662.794" fill="#FFC6B2"/>
<path d="M186.224 633.229C186.041 628.663 181.56 622.68 176.472 620.786C171.126 618.797 163.947 619.942 163.01 623.635C162.621 625.17 165.229 627.257 170.349 626.332C172.521 625.939 175.764 631.174 176.41 635.216C177.039 639.145 175.522 642.557 174.602 647.068C172.553 657.119 180.016 664.484 188.355 662.794" stroke="#294064" stroke-miterlimit="10" stroke-linecap="round"/>
<path d="M350.587 636.631C350.188 633.306 327.353 602.393 326.399 599.202C324.863 594.064 322.306 589.538 318.27 586.043C316.941 584.892 314.125 583.574 312.357 584.739C309.932 586.338 310.578 589.588 311.208 591.944C312.378 596.322 316.372 607.029 320.724 608.868C322.319 609.542 328.522 635.332 335.666 648.67C338.631 654.207 348.898 657.054 348.425 655.49" fill="#FFC6B2"/>
<path d="M350.587 636.631C350.188 633.306 327.353 602.393 326.399 599.202C324.863 594.064 322.306 589.538 318.27 586.043C316.941 584.892 314.125 583.574 312.357 584.739C309.932 586.338 310.578 589.588 311.208 591.944C312.378 596.322 316.372 607.029 320.724 608.868C322.319 609.542 328.522 635.332 335.666 648.67C338.631 654.207 348.898 657.054 348.425 655.49" stroke="#FFC6B2" stroke-miterlimit="10" stroke-linecap="round"/>
<path d="M338.75 654.761C323.563 636.269 320.992 613.861 319.017 613.109C313.123 610.867 307.932 602.644 306.135 598.373C304.353 594.139 301.41 580.861 301.665 574.33C301.857 569.415 305.236 570.176 306.931 572.985C309.175 576.705 310.491 582.255 312.051 586.028" fill="#FFC6B2"/>
<path d="M338.75 654.761C323.563 636.269 320.992 613.861 319.017 613.109C313.123 610.867 307.932 602.644 306.135 598.373C304.353 594.139 301.41 580.861 301.665 574.33C301.857 569.415 305.236 570.176 306.931 572.985C309.175 576.705 310.491 582.255 312.051 586.028" stroke="#294064" stroke-miterlimit="10" stroke-linecap="round"/>
<path d="M332.694 615.829C332.694 615.829 332.213 611.027 331.974 608.851C330.645 596.703 327.683 584.993 320.701 574.665C317.582 570.052 313.363 564.787 308.263 562.252C306.952 561.6 304.127 560.654 303.349 562.848C302.867 564.207 303.687 565.852 304.2 567.005C306.086 571.248 308.844 575.214 311.152 579.231" fill="#FFC6B2"/>
<path d="M332.694 615.829C332.694 615.829 332.213 611.027 331.974 608.851C330.645 596.703 327.683 584.993 320.701 574.665C317.582 570.052 313.363 564.787 308.263 562.252C306.952 561.6 304.127 560.654 303.349 562.848C302.867 564.207 303.687 565.852 304.2 567.005C306.086 571.248 308.844 575.214 311.152 579.231" stroke="#294064" stroke-miterlimit="10" stroke-linecap="round"/>
<path d="M318.719 581.699C316.256 575.303 309.397 562.108 304.623 560.783C301.984 560.05 303.751 565.926 303.917 566.455C306.175 573.663 308.846 580.876 311.383 587.991" fill="#FFC6B2"/>
<path d="M318.719 581.699C316.256 575.303 309.397 562.108 304.623 560.783C301.984 560.05 303.751 565.926 303.917 566.455C306.175 573.663 308.846 580.876 311.383 587.991" stroke="#294064" stroke-miterlimit="10" stroke-linecap="round"/>
<path d="M328.917 604.091C331.262 605.855 333.585 609.196 334.428 612.039C335.145 614.456 334.201 617.049 331.271 615.994C330.039 615.55 328.741 613.584 327.895 612.672C326.738 611.424 325.529 610.239 324.486 608.892C323.542 607.674 322.696 606.185 321.519 605.179" fill="#FFC6B2"/>
<path d="M200.14 648.002C200.221 648.711 199.909 649.413 199.853 650.124C199.752 651.414 200.765 653.52 200.771 654.818C200.779 656.873 201.122 659.679 201.357 661.723C201.366 661.793 202.145 668.976 202.157 669.045C202.191 669.258 201.64 663.468 200.617 663.493C198.84 663.536 198.256 658.924 198.038 658.018C196.972 653.59 196.933 649.822 196.81 645.235C196.751 643.015 196.17 640.755 196.354 638.523" fill="#FFC6B2"/>
<path d="M225.397 707.101C219.278 704.589 212.858 710.982 211.405 715.34" stroke="#294064" stroke-miterlimit="10" stroke-linecap="round"/>
<path d="M120.832 709.85L120.648 715.359" stroke="#294064" stroke-miterlimit="10"/>
<path d="M117.017 709.899L116.843 715.47" stroke="#294064" stroke-miterlimit="10"/>
<path d="M99.7959 709.777L99.785 715.959" stroke="#294064" stroke-miterlimit="10"/>
<path d="M86.9147 710.095L87.0507 715.615" stroke="#294064" stroke-miterlimit="10"/>
<path d="M67.6961 709.776L67.7883 715.675" stroke="#294064" stroke-miterlimit="10"/>
<path d="M65.3456 710.007L65.2995 715.583" stroke="#294064" stroke-miterlimit="10"/>
<path d="M53.9619 709.914L54.0541 715.675" stroke="#294064" stroke-miterlimit="10"/>
<path d="M64.9835 574.863L62.3494 577.89" stroke="#294064" stroke-miterlimit="10"/>
<path d="M62.7219 569.939L59.8787 573.021" stroke="#294064" stroke-miterlimit="10"/>
<path d="M57.278 555.647L53.9688 559.517" stroke="#294064" stroke-miterlimit="10"/>
<path d="M53.2331 544.459L50.3683 547.923" stroke="#294064" stroke-miterlimit="10"/>
<path d="M52.3829 542.088L49.5766 545.846" stroke="#294064" stroke-miterlimit="10"/>
<path d="M49.6204 531.085L47.4184 534.258" stroke="#294064" stroke-miterlimit="10"/>
<path d="M151.868 669.034C151.697 669.68 151.605 670.325 151.637 670.995" stroke="#294064" stroke-miterlimit="10" stroke-linecap="round"/>
<path d="M127.601 636.612L135.213 645.418" stroke="#294064" stroke-miterlimit="10" stroke-linecap="round"/>
<path d="M136.507 647.06L139.796 650.868" stroke="#294064" stroke-miterlimit="10" stroke-linecap="round"/>
<path d="M165.86 601.773C163.595 601.694 161.332 601.869 159.099 601.839C158.542 601.832 157.239 601.945 156.806 601.426C156.204 600.704 156.471 599.11 156.443 598.266" stroke="#294064" stroke-miterlimit="10" stroke-linecap="round"/>
<path d="M201.606 579.314L193.933 579.357" stroke="#294064" stroke-miterlimit="10" stroke-linecap="round"/>
<path d="M129.337 619.406L129.257 626.186" stroke="#294064" stroke-miterlimit="10" stroke-linecap="round"/>
<path d="M181.53 675.737C175.926 679.943 173.262 686.966 172.699 693.749" stroke="#294064" stroke-miterlimit="10" stroke-linecap="round"/>
<path d="M172.746 697.643C172.43 701.411 173.996 706.552 173.996 706.552" stroke="#294064" stroke-miterlimit="10" stroke-linecap="round"/>
<path d="M259.641 611.087C245.799 617.072 241.512 632.434 250.56 642.984C255.544 648.795 259.881 650.451 262.728 655.857C264.09 658.444 263.42 662.389 263.295 665.204" stroke="#294064" stroke-miterlimit="10" stroke-linecap="round"/>
<path d="M229.475 601.411C233.382 618.073 222.061 618.457 225.126 629.097C227.091 635.919 231.944 634.173 235.346 638.436" stroke="#294064" stroke-miterlimit="10" stroke-linecap="round"/>
<path d="M341.12 645.387C340.284 652.202 347.924 653.969 352.581 655.408C358.97 657.381 365.695 659.689 369.99 665.185C375.053 671.662 374.065 683.662 368.019 688.387" stroke="#294064" stroke-miterlimit="10" stroke-linecap="round"/>
<path d="M165.536 620.938C170.133 618.881 170.919 621.258 166.918 622.95C163.148 624.544 161.475 622.755 165.536 620.938Z" fill="#DB5E5E" stroke="#294064" stroke-miterlimit="10" stroke-linecap="round"/>
<path d="M180.993 615.958C182.151 612.926 186.649 611.368 186.649 611.368C186.649 611.368 187.945 612.682 186.493 613.76C185.041 614.838 182.407 616.735 180.993 615.958Z" fill="#DB5E5E" stroke="#294064" stroke-miterlimit="10" stroke-linecap="round"/>
<path d="M304.506 560.813C306.831 560.647 311.087 565.501 307.898 566.315C305.206 567.001 301.695 561.013 304.506 560.813Z" fill="#DB5E5E" stroke="#294064" stroke-miterlimit="10" stroke-linecap="round"/>
<path d="M302.726 571.629C305.45 571.616 305.239 578.63 302.223 578.503C301.022 578.452 300.518 571.639 302.726 571.629Z" fill="#DB5E5E" stroke="#294064" stroke-miterlimit="10" stroke-linecap="round"/>
<path d="M315.984 611.621C332.509 616.855 338.802 617.767 342.911 630.045C345.874 638.897 337.794 645.958 342.274 652.27C345.475 656.781 356.92 658.458 363.847 667.668C369.897 675.711 369.25 684.339 367.855 688.194C374.294 690.618 382.453 689.304 390.143 695.125C398.481 701.436 397.718 708.213 396.677 712.163C347.205 713.173 299.789 712.355 299.789 712.355" fill="#2F2F2F"/>
<path d="M315.984 611.621C332.509 616.855 338.802 617.767 342.911 630.045C345.874 638.897 337.794 645.958 342.274 652.27C345.475 656.781 356.92 658.458 363.847 667.668C369.897 675.711 369.25 684.339 367.855 688.194C374.294 690.618 382.453 689.304 390.143 695.125C398.481 701.436 397.718 708.213 396.677 712.163C347.205 713.173 299.789 712.355 299.789 712.355" stroke="#294064" stroke-miterlimit="10" stroke-linecap="round"/>
</g>
</g>
<defs>
<clipPath id="clip0_1091_4996">
<path d="M0 0H414V841C414 852.046 405.046 861 394 861H20C8.95432 861 0 852.046 0 841V0Z" fill="white"/>
</clipPath>
<clipPath id="clip1_1091_4996">
<rect width="414" height="896" fill="white" transform="translate(0 125)"/>
</clipPath>
</defs>
</svg>
