<svg width="414" height="861" viewBox="0 0 414 861" fill="none" xmlns="http://www.w3.org/2000/svg">
<g clip-path="url(#clip0_1091_5272)">
<path d="M0 0H414V841C414 852.046 405.046 861 394 861H20C8.95432 861 0 852.046 0 841V0Z" fill="#5C814A"/>
<rect width="414" height="896" fill="#8EB6AE"/>
<g clip-path="url(#clip1_1091_5272)">
<path opacity="0.8" d="M248.442 437.492C267.87 399.426 230.323 343.169 167.404 360.841C151.241 365.381 144.901 371.571 147.812 379.881C149.159 383.725 155.096 388.519 161.747 388.639C168.398 388.759 177.224 382.415 169.172 372.078C154.028 352.633 38.4436 273.425 -41.1681 360.841" stroke="white" stroke-miterlimit="10" stroke-linecap="round" stroke-dasharray="10 10"/>
<path opacity="0.8" d="M441.795 560.568C433.162 604.873 365.864 644.188 333.9 653.292C301.938 662.397 264.651 658.039 283.205 639.68C295.489 627.525 321.146 619.616 341.75 617.808C371.07 615.236 397.295 621.736 403.697 632.143C424.28 665.595 373.984 714.635 296.272 731.311C233.369 744.808 138.092 729.901 100.778 727.145C70.7284 724.925 37.315 724.601 1.72705 731.311" stroke="white" stroke-miterlimit="10" stroke-linecap="round" stroke-dasharray="10 10"/>
<path d="M33.4641 440.497C33.4962 435.934 37.6727 432.264 42.7927 432.3L372.364 434.612C377.483 434.648 381.607 438.377 381.575 442.94L380.439 604.524C380.407 609.087 376.23 612.757 371.111 612.721L41.54 610.409C36.4201 610.373 32.2956 606.644 32.3277 602.082L33.4641 440.497Z" fill="#FFF4E8" stroke="#294064" stroke-miterlimit="10"/>
<path d="M33.3903 450.968C33.4208 446.632 36.9602 443.142 41.2959 443.172L373.706 445.505C378.042 445.535 381.532 449.075 381.501 453.41L379.987 668.758C379.956 673.094 376.417 676.584 372.081 676.554L39.6709 674.221C35.3352 674.191 31.8452 670.651 31.8757 666.316L33.3903 450.968Z" fill="#FFB0CC" stroke="#294064" stroke-miterlimit="10"/>
<path d="M56.002 459.012C56.0193 456.557 57.9911 454.579 60.4063 454.596L94.0787 454.833C96.4939 454.85 98.4376 456.854 98.4204 459.31L98.3401 470.721C98.3228 473.177 96.3511 475.154 93.9359 475.137L60.2635 474.901C57.8483 474.884 55.9045 472.879 55.9217 470.424L56.002 459.012Z" fill="#FFF4E8" stroke="#294064" stroke-miterlimit="10"/>
<path d="M57.3003 510.269C57.3088 509.062 58.2774 508.091 59.4636 508.1L88.6299 508.304C89.8161 508.313 90.7706 509.297 90.7622 510.503L90.762 510.52C90.7536 511.726 89.7853 512.698 88.599 512.689L59.4328 512.485C58.2466 512.476 57.2917 511.492 57.3002 510.285L57.3003 510.269Z" fill="#FFF4E8" stroke="#294064" stroke-miterlimit="10"/>
<path d="M57.155 531.006C57.1635 529.8 58.1319 528.829 59.3181 528.837L88.4844 529.042C89.6706 529.05 90.6251 530.035 90.6167 531.241L90.6165 531.258C90.6081 532.464 89.6398 533.435 88.4535 533.427L59.2873 533.222C58.1011 533.214 57.1464 532.229 57.1549 531.023L57.155 531.006Z" fill="#FFF4E8" stroke="#294064" stroke-miterlimit="10"/>
<path d="M57.3737 499.877C57.382 498.709 58.3195 497.77 59.4676 497.778L95.4203 498.03C96.5684 498.038 97.4927 498.991 97.4845 500.158C97.4763 501.326 96.5387 502.266 95.3906 502.258L59.4379 502.005C58.2898 501.997 57.3655 501.045 57.3737 499.877Z" fill="#FFD6BF" stroke="#294064" stroke-miterlimit="10"/>
<path d="M57.2284 520.545C57.2366 519.378 58.1742 518.438 59.3223 518.446L95.275 518.698C96.4231 518.706 97.3473 519.659 97.3391 520.827C97.3309 521.994 96.3934 522.934 95.2452 522.926L59.2926 522.674C58.1444 522.666 57.2202 521.713 57.2284 520.545Z" fill="#FFD6BF" stroke="#294064" stroke-miterlimit="10"/>
<path d="M127.255 455.067L127.11 475.65L318.028 476.989L318.173 456.407L127.255 455.067ZM33.1801 481.081L33.1365 487.293L43.8181 487.368L42.5431 668.656L48.0742 668.695L49.3492 487.407L110.437 487.835L109.162 669.123L114.693 669.162L115.968 487.874L381.246 489.735L381.289 483.523L33.1801 481.081Z" fill="#FFF4E8" stroke="#294064" stroke-miterlimit="10"/>
<path d="M123.036 504.703C123.053 502.275 125.294 500.321 128.041 500.341L362.652 501.987C365.401 502.006 367.611 503.99 367.594 506.419L366.473 665.722C366.456 668.153 364.218 670.107 361.469 670.087L126.859 668.441C124.112 668.422 121.899 666.437 121.916 664.006L123.036 504.703Z" fill="#FFF4E8" stroke="#294064" stroke-miterlimit="10"/>
<path d="M363.609 453.306C363.609 453.306 370.237 452.942 372.26 453.594C374.005 454.158 374.424 455.321 374.461 456.783C375.119 483.89 374.959 538.712 374.959 538.712" stroke="#294064" stroke-miterlimit="10" stroke-linecap="round"/>
<path d="M375.471 556.191L374.607 641.279" stroke="#294064" stroke-miterlimit="10" stroke-linecap="round"/>
<path d="M127.115 628.661L126.926 662.043C126.92 663.028 127.699 663.835 128.666 663.85L140.812 664.024" stroke="#294064" stroke-miterlimit="10" stroke-linecap="round"/>
<path d="M165.363 458.022L141.402 458.055" stroke="#294064" stroke-miterlimit="10" stroke-linecap="round"/>
<path d="M70.882 451.139C70.882 451.139 61.86 451.015 57.4463 451.084C51.3404 451.18 52.4442 459.687 52.4442 459.687" stroke="#294064" stroke-miterlimit="10" stroke-linecap="round"/>
<path d="M53.8185 645.776L53.412 667.91L76.5227 668.087" stroke="#294064" stroke-miterlimit="10" stroke-linecap="round"/>
<path d="M145.08 557.773C145.179 557.774 145.293 557.748 145.421 557.695C145.55 557.642 145.664 557.584 145.764 557.521C147.531 556.392 149.062 555.206 150.359 553.963C151.655 552.719 152.659 551.439 153.37 550.122C154.081 548.805 154.441 547.471 154.451 546.12C154.457 545.277 154.329 544.504 154.069 543.801C153.809 543.099 153.446 542.489 152.978 541.972C152.511 541.455 151.962 541.055 151.331 540.772C150.7 540.488 150.017 540.344 149.281 540.339C148.37 540.332 147.567 540.563 146.872 541.03C146.176 541.498 145.883 542.187 145.23 542.153C144.488 542.113 144.221 541.492 143.532 541.012C142.844 540.531 142.041 540.288 141.124 540.281C140.388 540.276 139.704 540.411 139.073 540.685C138.441 540.96 137.886 541.353 137.409 541.863C136.931 542.373 136.557 542.978 136.287 543.677C136.017 544.375 135.879 545.147 135.873 545.99C135.864 547.34 136.205 548.679 136.898 550.006C137.59 551.334 138.577 552.628 139.859 553.889C141.141 555.15 142.657 556.358 144.408 557.512C144.507 557.576 144.621 557.635 144.748 557.69C144.876 557.745 144.986 557.773 145.08 557.773Z" fill="#DB5E5E" stroke="#294064" stroke-miterlimit="10" stroke-linecap="round"/>
<path d="M144.846 590.914C144.946 590.914 145.06 590.889 145.188 590.836C145.316 590.784 145.431 590.726 145.531 590.661C147.297 589.532 148.829 588.348 150.126 587.103C151.422 585.862 152.426 584.579 153.137 583.262C153.847 581.945 154.208 580.611 154.217 579.26C154.223 578.417 154.096 577.644 153.836 576.942C153.576 576.239 153.212 575.63 152.745 575.112C152.278 574.598 151.729 574.197 151.098 573.912C150.467 573.63 149.783 573.486 149.047 573.481C148.137 573.474 147.334 573.705 146.639 574.171C145.943 574.639 145.649 575.329 144.997 575.295C144.254 575.254 143.988 574.634 143.299 574.153C142.61 573.672 141.807 573.43 140.891 573.424C140.155 573.418 139.471 573.553 138.839 573.826C138.207 574.103 137.653 574.495 137.175 575.003C136.698 575.514 136.324 576.118 136.054 576.817C135.784 577.516 135.646 578.287 135.64 579.13C135.631 580.481 135.972 581.82 136.664 583.147C137.356 584.474 138.344 585.77 139.626 587.03C140.908 588.293 142.424 589.498 144.174 590.652C144.274 590.717 144.387 590.777 144.515 590.832C144.642 590.886 144.753 590.913 144.846 590.914Z" fill="#DB5E5E" stroke="#294064" stroke-miterlimit="10" stroke-linecap="round"/>
<path d="M144.614 623.857C144.714 623.858 144.828 623.832 144.956 623.78C145.085 623.724 145.199 623.669 145.299 623.605C147.066 622.476 148.597 621.289 149.894 620.047C151.19 618.802 152.194 617.523 152.905 616.206C153.616 614.889 153.976 613.555 153.986 612.203C153.992 611.361 153.864 610.588 153.604 609.885C153.344 609.182 152.981 608.574 152.513 608.056C152.046 607.538 151.497 607.138 150.866 606.856C150.235 606.573 149.552 606.426 148.816 606.421C147.905 606.415 147.102 606.646 146.407 607.114C145.711 607.582 145.418 608.269 144.765 608.235C144.023 608.197 143.756 607.574 143.067 607.097C142.379 606.616 141.576 606.37 140.659 606.364C139.923 606.359 139.239 606.496 138.608 606.769C137.976 607.043 137.421 607.435 136.944 607.947C136.466 608.458 136.092 609.061 135.822 609.76C135.552 610.459 135.414 611.23 135.408 612.073C135.399 613.424 135.74 614.763 136.433 616.09C137.125 617.417 138.112 618.71 139.394 619.973C140.676 621.233 142.192 622.441 143.943 623.595C144.042 623.661 144.156 623.718 144.283 623.775C144.411 623.829 144.521 623.856 144.614 623.857Z" fill="#DB5E5E" stroke="#294064" stroke-miterlimit="10" stroke-linecap="round"/>
<path d="M302.771 361.985C299.254 357.104 293.873 351.509 294.307 344.823C295.005 334.068 310.224 331.682 317.768 336.698C321.796 339.376 322.682 345.152 323.958 349.814C325.064 353.853 319.784 358.041 317.308 359.694C310.849 364.004 305.743 363.578 298.437 362.648" fill="#2F2F2F"/>
<path d="M302.771 361.985C299.254 357.104 293.873 351.509 294.307 344.823C295.005 334.068 310.224 331.682 317.768 336.698C321.796 339.376 322.682 345.152 323.958 349.814C325.064 353.853 319.784 358.041 317.308 359.694C310.849 364.004 305.743 363.578 298.437 362.648" stroke="#294064" stroke-miterlimit="10" stroke-linecap="round"/>
<path d="M306.582 390.191C288.527 387.332 267.861 385.459 254.338 384.603C246.227 382.028 228.302 381.596 221.506 400.458C220.074 403.059 218.988 410.215 226.134 418.044C216.909 420.776 198.472 430.953 198.521 449.816C198.582 473.393 218.109 486.776 233.018 487.576C247.928 488.376 271.168 487.069 292.066 494.202C312.963 501.337 326.861 513.164 350.947 488.147C370.218 468.133 363.3 445.59 357.438 436.822C355.287 433.78 349.801 428.581 342.079 426.656C344.995 422.3 349.292 411.211 343.15 401.668C340.079 396.898 324.637 393.05 306.582 390.191Z" fill="#2F2F2F" stroke="#294064" stroke-miterlimit="10" stroke-linecap="round"/>
<path fill-rule="evenodd" clip-rule="evenodd" d="M342.647 401.655C342.72 401.46 342.938 401.361 343.132 401.434C345.833 402.446 348.96 406.153 348.771 412.664C348.678 415.903 347.99 419.136 347.048 421.866C346.109 424.588 344.904 426.847 343.753 428.112C343.613 428.266 343.375 428.278 343.22 428.138C343.066 427.998 343.055 427.76 343.195 427.606C344.247 426.448 345.412 424.299 346.335 421.621C347.256 418.952 347.926 415.794 348.017 412.643C348.198 406.375 345.198 403.013 342.867 402.14C342.672 402.067 342.574 401.849 342.647 401.655Z" fill="#2E4166"/>
<path fill-rule="evenodd" clip-rule="evenodd" d="M306.212 358.358C307.184 359.38 307.748 360.349 307.902 361.101C307.943 361.305 307.811 361.504 307.607 361.546C307.403 361.587 307.204 361.455 307.162 361.251C307.049 360.696 306.591 359.851 305.665 358.876C304.748 357.91 303.393 356.842 301.539 355.837C297.83 353.826 292.128 352.068 283.94 351.862C275.848 351.658 269.386 355.802 265.092 361.041C262.945 363.66 261.346 366.544 260.363 369.278C259.378 372.018 259.02 374.58 259.321 376.559C259.352 376.765 259.211 376.957 259.005 376.988C258.799 377.02 258.607 376.878 258.575 376.673C258.249 374.528 258.643 371.835 259.653 369.024C260.666 366.208 262.308 363.248 264.508 360.563C268.909 355.195 275.576 350.898 283.959 351.109C292.245 351.317 298.068 353.098 301.898 355.174C303.813 356.213 305.232 357.326 306.212 358.358Z" fill="#2F2F2F"/>
<path d="M266.068 380.747L266.318 382.124L266.794 380.808C266.935 380.416 267.042 380.081 267.14 379.773C267.153 379.733 267.165 379.694 267.178 379.654C267.286 379.313 267.388 379.003 267.524 378.666C272.412 366.558 288.785 359.362 306.657 362.44C324.241 365.468 337.127 377.384 338.054 390.192C338.087 390.642 338.091 390.785 338.094 391.24L338.101 392.366L338.773 391.462C339.214 390.871 339.869 390.102 340.923 389.649C341.969 389.2 343.461 389.039 345.617 389.768C347.694 390.47 348.569 391.918 348.839 393.467C349.112 395.033 348.761 396.701 348.346 397.763C347.862 398.653 346.897 399.851 345.585 400.567C344.285 401.276 342.633 401.52 340.704 400.494L340.695 400.489L340.685 400.484C340.024 400.178 338.532 399.179 337.887 397.699L337.483 396.772L337.181 397.737C337.056 398.138 336.918 398.535 336.768 398.926C332.672 409.639 319.513 417.755 304.361 417.372L304.024 417.363L303.978 417.698C303.614 420.375 302.762 425.194 301.602 427.893C301.293 428.612 300.374 429.345 299.01 429.872C297.666 430.391 295.967 430.677 294.218 430.562C290.78 430.338 287.191 428.573 285.695 424.016C286.57 422.882 287.166 421.299 287.576 419.706C288.009 418.026 288.247 416.293 288.376 414.969L288.404 414.683L288.136 414.581C275.779 409.839 267.43 398.887 266.198 388.764C266.121 388.133 266.073 387.499 266.055 386.863L266.032 386.088L265.437 386.584C264.714 387.185 263.413 387.934 261.894 388.202C260.388 388.468 258.677 388.26 257.075 386.97C255.477 385.68 254.921 384.042 254.874 382.498C254.826 380.952 255.293 379.512 255.736 378.663C256.24 377.889 257.239 376.901 258.592 376.449C259.93 376.002 261.657 376.065 263.669 377.471L263.68 377.478L263.691 377.485C264.014 377.679 264.54 378.087 265.021 378.658C265.502 379.229 265.922 379.942 266.068 380.747Z" fill="#FEC5B1" stroke="#2E4166" stroke-miterlimit="10"/>
<path d="M270.239 379.024C291.3 383.799 302.807 373.829 305.928 368.247C307.566 386.026 332.328 387.422 333.66 388.225C334.726 388.867 337.592 390.507 338.416 391.988C338.981 391.422 339.915 389.953 340.351 389.645C341.659 382.068 339.505 374.621 338.143 372.283C329.212 358.584 312.806 357.234 307.271 360.467C300.232 354.895 294.448 352.145 282.387 353.891C278.633 354.434 275.482 355.497 272.839 356.889C263.245 361.939 260.336 371.311 259.557 375.825C264.468 376.195 266.463 379.213 266.681 381.928L270.239 379.024Z" fill="#2F2F2F" stroke="#2F2F2F" stroke-miterlimit="10" stroke-linecap="round"/>
<path d="M296.737 379.676C295.941 379.422 294.725 379.416 293.495 379.676C292.257 379.937 290.952 380.487 289.967 381.397C289.814 381.539 289.807 381.775 289.948 381.928C290.089 382.08 290.327 382.088 290.479 381.947C291.336 381.155 292.509 380.662 293.658 380.42C294.814 380.175 295.886 380.201 296.515 380.402C296.713 380.465 296.919 380.353 296.983 380.155C297.046 379.957 296.936 379.74 296.737 379.676ZM308.891 382.157C308.686 382.122 308.486 382.252 308.451 382.457C308.416 382.662 308.558 382.864 308.763 382.899C309.532 383.032 310.513 383.436 311.409 384.107C312.302 384.776 313.086 385.694 313.491 386.819C313.562 387.015 313.78 387.106 313.976 387.036C314.172 386.966 314.273 386.761 314.203 386.566C313.737 385.27 312.847 384.242 311.865 383.506C310.885 382.772 309.791 382.312 308.891 382.157ZM301.304 386.358C301.098 386.336 300.917 386.481 300.895 386.688C300.882 386.812 300.867 386.948 300.85 387.092C300.758 387.885 300.639 388.956 300.7 389.93C300.771 391.051 301.099 392.274 302.255 392.672C303.096 392.962 303.993 393.27 304.608 393.744C304.908 393.977 305.118 394.232 305.228 394.518C305.335 394.8 305.361 395.151 305.223 395.597C305.059 396.131 304.8 396.456 304.505 396.663C304.206 396.871 303.835 396.984 303.392 396.992C302.489 397.009 301.398 396.633 300.368 396.144C300.18 396.055 299.953 396.136 299.864 396.324C299.774 396.512 299.844 396.737 300.032 396.826C301.086 397.327 302.326 397.756 303.409 397.735C303.959 397.725 304.491 397.6 304.944 397.284C305.401 396.965 305.734 396.483 305.938 395.818C306.118 395.234 306.105 394.711 305.929 394.251C305.756 393.797 305.437 393.431 305.064 393.144C304.334 392.58 303.322 392.231 302.513 391.952L302.501 391.95C301.828 391.719 301.519 390.976 301.45 389.877C301.393 388.977 301.505 387.993 301.597 387.197C301.614 387.048 301.632 386.903 301.647 386.769C301.668 386.562 301.512 386.38 301.304 386.358Z" fill="#2E4166"/>
<path d="M292.6 384.861C292.136 385.792 291.307 386.321 290.747 386.043C290.188 385.764 290.111 384.784 290.575 383.853C291.04 382.922 291.87 382.393 292.429 382.671C292.988 382.95 293.065 383.93 292.6 384.861Z" fill="#2E4166"/>
<path d="M309.835 388.013C309.289 388.898 308.416 389.351 307.883 389.024C307.352 388.696 307.363 387.713 307.909 386.827C308.456 385.942 309.33 385.49 309.862 385.817C310.394 386.145 310.382 387.128 309.835 388.013Z" fill="#2E4166"/>
<path d="M287.078 391.01C286.901 392.035 284.927 392.551 282.67 392.162C280.412 391.773 278.725 390.627 278.902 389.602C279.079 388.577 281.053 388.062 283.31 388.45C285.568 388.839 287.254 389.985 287.078 391.01Z" fill="#FA91B6"/>
<path d="M321.266 396.898C321.089 397.923 318.95 398.41 316.486 397.986C314.024 397.562 312.171 396.387 312.348 395.362C312.524 394.337 314.665 393.851 317.127 394.275C319.59 394.699 321.443 395.873 321.266 396.898Z" fill="#FA91B6"/>
<path d="M346.207 395.624C345.924 397.264 344.197 398.336 342.35 398.017C340.503 397.7 339.235 396.112 339.518 394.472C339.801 392.832 341.528 391.761 343.375 392.079C345.222 392.397 346.49 393.984 346.207 395.624Z" fill="#E4AC98"/>
<path fill-rule="evenodd" clip-rule="evenodd" d="M343.874 392.94C344.321 393.046 344.809 393.21 345.34 393.446C345.53 393.531 345.753 393.446 345.838 393.256C345.923 393.066 345.837 392.843 345.647 392.758C344.38 392.194 343.292 391.993 342.37 392.041C340.204 392.155 339.071 393.629 338.724 394.659C338.658 394.856 338.764 395.07 338.962 395.136C339.159 395.202 339.373 395.096 339.439 394.899C339.707 394.103 340.594 392.922 342.333 392.798C342.667 392.932 343.131 393.238 343.499 393.632C343.902 394.064 344.103 394.506 344.041 394.869C344.005 395.074 344.143 395.268 344.348 395.304C344.554 395.339 344.749 395.202 344.784 394.997C344.908 394.279 344.503 393.604 344.05 393.119C343.994 393.058 343.935 392.999 343.874 392.94Z" fill="#2E4166"/>
<path d="M257.373 381.308C257.126 382.743 258.423 384.164 260.27 384.482C262.116 384.8 263.815 383.895 264.063 382.459C264.31 381.025 263.014 379.603 261.167 379.286C259.32 378.967 257.621 379.873 257.373 381.308Z" fill="#E4AC98"/>
<path fill-rule="evenodd" clip-rule="evenodd" d="M260.508 379.571C260.143 379.535 259.738 379.524 259.29 379.543C259.082 379.553 258.906 379.391 258.896 379.183C258.888 378.976 259.049 378.8 259.257 378.791C260.461 378.738 261.415 378.892 262.165 379.177C263.925 379.844 264.498 381.206 264.504 382.086C264.506 382.294 264.338 382.464 264.13 382.465C263.922 382.467 263.751 382.299 263.75 382.091C263.745 381.519 263.367 380.465 261.961 379.906C261.677 379.917 261.239 380.054 260.802 380.267C260.576 380.376 260.366 380.498 260.199 380.615C260.024 380.738 259.925 380.836 259.889 380.89C259.772 381.062 259.538 381.108 259.366 380.991C259.193 380.875 259.148 380.641 259.264 380.468C259.379 380.298 259.569 380.137 259.766 379.999C259.971 379.855 260.215 379.713 260.472 379.589C260.484 379.583 260.496 379.577 260.508 379.571Z" fill="#2E4166"/>
<path d="M264.233 387.24C264.057 388.266 263.081 388.954 262.055 388.777C261.028 388.6 260.34 387.626 260.517 386.601C260.694 385.576 261.669 384.888 262.696 385.065C263.722 385.241 264.41 386.216 264.233 387.24Z" fill="#FFFB90"/>
<path d="M342.273 400.679C342.096 401.704 341.121 402.392 340.095 402.215C339.068 402.038 338.38 401.064 338.557 400.039C338.734 399.014 339.709 398.326 340.736 398.503C341.762 398.68 342.45 399.654 342.273 400.679Z" fill="#FFFB90"/>
<path d="M297.794 416.716C295.016 416.85 289.093 414.491 289.093 414.491C289.093 414.491 288.813 417.311 288.106 419.635C292.76 421.048 296.504 418.278 297.794 416.716Z" fill="#E4AC98"/>
<path d="M291.473 396.437C291.473 396.437 291.05 399.048 293.537 401.312C296.319 403.842 298.662 402.314 298.662 402.314C298.662 402.314 296.373 401.083 294.576 399.614C292.778 398.145 291.473 396.437 291.473 396.437Z" fill="white" stroke="#294064" stroke-miterlimit="10" stroke-linecap="round"/>
<path d="M200.869 502.396C195.791 504.017 200.839 512.565 202.297 514.967C202.691 515.618 203.097 516.263 203.54 516.882C204.364 518.031 205.197 519.177 206.096 520.268C207.147 521.545 208.235 522.794 209.387 523.98C214.302 529.044 220.065 533.443 225.929 537.33C229.046 539.397 232.723 541.643 236.403 542.672C239.786 543.619 244.065 545.102 247.588 543.443C250.811 541.926 252.59 538.293 253.607 535.079C255.989 527.549 256.721 519.61 256.517 511.739C256.334 504.666 254.231 498.7 251.607 492.225" fill="#C1474A"/>
<path d="M200.869 502.396C195.791 504.017 200.839 512.565 202.297 514.967C202.691 515.618 203.097 516.263 203.54 516.882C204.364 518.031 205.197 519.177 206.096 520.268C207.147 521.545 208.235 522.794 209.387 523.98C214.302 529.044 220.065 533.443 225.929 537.33C229.046 539.397 232.723 541.643 236.403 542.672C239.786 543.619 244.065 545.102 247.588 543.443C250.811 541.926 252.59 538.293 253.607 535.079C255.989 527.549 256.721 519.61 256.517 511.739C256.334 504.666 254.231 498.7 251.607 492.225" stroke="#294064" stroke-miterlimit="10" stroke-linecap="round"/>
<path d="M361.841 502.329C363.74 496.624 346.745 491.064 337.579 488.665C331.159 486.985 318.899 500.282 319.603 505.855C320.108 509.855 337.134 509.82 341.351 509.323C348.71 508.456 360.365 506.765 361.841 502.329Z" fill="#C1474A" stroke="#294064" stroke-miterlimit="10" stroke-linecap="round"/>
<path d="M210.189 531.517C246.22 540.91 251.704 547.162 287.735 556.554C291.941 521.892 315.226 508.203 319.432 473.54C299.023 475.33 230.606 439.782 230.606 439.782C230.606 439.782 224.966 519.033 210.189 531.517Z" fill="#FFC6B2" stroke="#294064" stroke-miterlimit="10" stroke-linecap="round"/>
<path d="M214.101 527.188C214.101 527.188 193.551 545.715 181.715 589.145C171.581 626.324 177.932 668.86 177.932 668.86L243.514 666.765C243.514 666.765 241.925 605.91 245.432 596.19C241.877 630.694 256.305 666.688 256.305 666.688L323.966 664.849C312.361 625.95 295.644 547.09 295.644 547.09C295.644 547.09 257.422 518.306 214.101 527.188Z" fill="#50A998" stroke="#294064" stroke-miterlimit="10" stroke-linecap="round"/>
<path d="M258.44 587.419C255.485 588.77 253.351 593.042 251.836 595.476C249.267 599.609 245.902 606.975 245.45 611.788C244.957 608.492 245.254 599.993 245.7 596.998C246.426 592.114 253.115 588.554 257.335 587.66" fill="#294064"/>
<path d="M258.44 587.419C255.485 588.77 253.351 593.042 251.836 595.476C249.267 599.609 245.902 606.975 245.45 611.788C244.957 608.492 245.254 599.993 245.7 596.998C246.426 592.114 253.115 588.554 257.335 587.66" stroke="#294064" stroke-miterlimit="10" stroke-linecap="round"/>
<path d="M214.451 505.716C215.126 506.976 218.251 508.365 219.33 509.283C221.887 511.457 224.365 513.952 226.696 516.362C229.824 519.596 232.525 523.204 235.581 526.504C245.377 537.084 256.155 546.777 269.184 553.158C271.348 554.217 273.745 554.984 276.063 555.596C281.257 556.959 286.272 557.939 291.662 557.791C292.58 557.766 296.474 558.218 297.019 557.049C297.832 555.307 296.275 551.386 295.389 549.929" fill="#294064"/>
<path d="M214.451 505.716C215.126 506.976 218.251 508.365 219.33 509.283C221.887 511.457 224.365 513.952 226.696 516.362C229.824 519.596 232.525 523.204 235.581 526.504C245.377 537.084 256.155 546.777 269.184 553.158C271.348 554.217 273.745 554.984 276.063 555.596C281.257 556.959 286.272 557.939 291.662 557.791C292.58 557.766 296.474 558.218 297.019 557.049C297.832 555.307 296.275 551.386 295.389 549.929" stroke="#294064" stroke-miterlimit="10" stroke-linecap="round"/>
<path d="M321.678 501.516C320.672 489.173 319.368 487.741 319.368 487.741C319.368 487.741 298.038 532.326 299.558 549.533C299.773 551.968 297.133 550.528 296.729 551.619C296.331 552.703 298.492 555.228 298.074 556.355C250.183 558.677 231.836 501.631 199.752 502.439C199.752 502.439 227.925 464.917 228.941 452.481C228.941 452.481 230.381 445.407 203.805 438.992C205.107 425.15 205.934 410.214 215.561 401.678C246.128 401.558 261.909 411.182 282.383 422.312C282.383 422.312 282.76 419.545 287.007 418.632C287.007 418.632 289.355 420.954 294.605 422.462C300.154 424.056 303.092 423.126 303.092 423.126C306.518 426.261 304.702 429.344 304.702 429.344C314.82 432.615 319.296 434.083 330.694 441.929C353.346 457.52 357.025 480.491 359.671 496.036C346.817 492.214 330.834 489.828 321.678 501.516Z" fill="#DB5E5E" stroke="#294064" stroke-miterlimit="10" stroke-linecap="round"/>
<path d="M278.355 492.779C278.355 492.779 275.562 495.108 271.472 493.518C265.246 491.099 261.4 497.593 263.008 501.062C265.679 506.824 274.469 505.812 281.711 501.492C278.211 504.557 276.081 509.184 276.576 513.652C277.071 518.119 279.76 521.503 283.693 519.362C287.828 517.11 290.185 503.16 290.185 503.16" stroke="#FFF4E8" stroke-miterlimit="10" stroke-linecap="round"/>
<path d="M293.1 491.056C295.673 481.723 309.618 485.327 304.279 494.276C303.869 494.963 302.81 496.097 302.208 496.629C300.982 497.709 299.294 498.287 297.838 498.847C295.291 499.826 293.536 499.905 290.626 500.129C287.561 500.365 284.474 499.887 281.422 499.512" stroke="#FFF4E8" stroke-miterlimit="10" stroke-linecap="round"/>
<path d="M355.952 494.079C358.769 512.11 346.073 540.751 333.695 544.165C315.317 549.236 290.005 527.967 264.314 487.591C261.429 483.056 256.731 485.705 256.731 485.705L273.887 469.635C273.887 469.635 314.837 508.024 319.21 508.139C323.582 508.254 321.529 493.917 321.529 493.917C321.529 493.917 353.998 481.573 355.952 494.079Z" fill="#FFC6B2" stroke="#294064" stroke-miterlimit="10" stroke-linecap="round"/>
<path d="M112.784 358.838C108.568 352.915 101.26 358.744 87.623 377.663C110.657 393.381 174.083 427.308 213.567 437.902L222.689 403.592C222.689 403.592 124.22 374.902 112.784 358.838Z" fill="#FFC6B2" stroke="#294064" stroke-miterlimit="10" stroke-linecap="round"/>
<path d="M77.0482 384.415C88.3473 385.441 94.9582 390.357 105.139 387.331C115.319 384.307 118.13 377.727 117.77 372.316C117.266 364.726 111.991 358.591 105.349 355.527C96.1441 351.282 79.3769 352.924 79.3769 352.924" fill="#FFC6B2"/>
<path d="M77.0482 384.415C88.3473 385.441 94.9582 390.357 105.139 387.331C115.319 384.307 118.13 377.727 117.77 372.316C117.266 364.726 111.991 358.591 105.349 355.527C96.1441 351.282 79.3769 352.924 79.3769 352.924" stroke="#294064" stroke-miterlimit="10" stroke-linecap="round"/>
<path d="M94.3073 387.924C71.8933 382.552 55.2583 387.318 52.0133 380.019C49.7181 374.857 59.2868 373.519 78.5782 376.276" fill="#FFC6B2"/>
<path d="M94.3073 387.924C71.8933 382.552 55.2583 387.318 52.0133 380.019C49.7181 374.857 59.2868 373.519 78.5782 376.276" stroke="#294064" stroke-miterlimit="10" stroke-linecap="round"/>
<path d="M81.2167 379.601C73.5097 379.915 64.2408 379.815 56.381 379.327C50.3879 378.955 46.7716 375.559 47.0922 373.343C47.3344 371.667 48.9314 370.478 52.3905 370.224C62.7059 369.465 65.8924 368.315 76.2337 368.524" fill="#FFC6B2"/>
<path d="M81.2167 379.601C73.5097 379.915 64.2408 379.815 56.381 379.327C50.3879 378.955 46.7716 375.559 47.0922 373.343C47.3344 371.667 48.9314 370.478 52.3905 370.224C62.7059 369.465 65.8924 368.315 76.2337 368.524" stroke="#294064" stroke-miterlimit="10" stroke-linecap="round"/>
<path d="M80.7576 372.885C71.0665 373.068 62.4177 373.594 52.7517 372.871C49.3194 372.614 42.5458 372.119 42.5694 368.261C42.5872 365.366 47.8121 364.569 51.2179 364.606C64.0368 364.745 78.4644 364.217 78.4644 364.217" fill="#FFC6B2"/>
<path d="M80.7576 372.885C71.0665 373.068 62.4177 373.594 52.7517 372.871C49.3194 372.614 42.5458 372.119 42.5694 368.261C42.5872 365.366 47.8121 364.569 51.2179 364.606C64.0368 364.745 78.4644 364.217 78.4644 364.217" stroke="#294064" stroke-miterlimit="10" stroke-linecap="round"/>
<path d="M78.5154 364.222C79.6679 363.517 78.3392 362.669 76.7138 362.558C69.8738 362.095 61.0199 363.177 56.0327 362.593C53.4633 362.292 48.7664 361.099 49.2766 358.339C49.7424 355.817 54.5054 354.922 57.1909 354.567C64.4593 353.606 79.2717 351.706 92.293 352.817" fill="#FFC6B2"/>
<path d="M78.5154 364.222C79.6679 363.517 78.3392 362.669 76.7138 362.558C69.8738 362.095 61.0199 363.177 56.0327 362.593C53.4633 362.292 48.7664 361.099 49.2766 358.339C49.7424 355.817 54.5054 354.922 57.1909 354.567C64.4593 353.606 79.2717 351.706 92.293 352.817" stroke="#294064" stroke-miterlimit="10" stroke-linecap="round"/>
<path d="M104.306 370.852C104.306 370.852 97.1267 370.57 94.3685 357.998C92.1898 348.067 84.7546 342.014 87.7203 336.379C90.1386 331.784 97.8139 340.874 100.994 344.946C105.942 351.281 117.475 356.148 118 373.513" fill="#FFC6B2"/>
<path d="M104.306 370.852C104.306 370.852 97.1267 370.57 94.3685 357.998C92.1898 348.067 84.7546 342.014 87.7203 336.379C90.1386 331.784 97.8139 340.874 100.994 344.946C105.942 351.281 117.475 356.148 118 373.513" stroke="#294064" stroke-miterlimit="10" stroke-linecap="round"/>
<path d="M322.193 503.035C339.425 492.552 356.167 503.203 356.167 503.203L356.601 494.783C356.601 494.783 347.55 490.383 341.743 490.615C333.914 490.928 327.24 496.543 319.989 499.506" fill="#294064"/>
<path d="M322.193 503.035C339.425 492.552 356.167 503.203 356.167 503.203L356.601 494.783C356.601 494.783 347.55 490.383 341.743 490.615C333.914 490.928 327.24 496.543 319.989 499.506" stroke="#2E4166" stroke-miterlimit="10" stroke-linecap="round"/>
<path d="M284.676 423.721C258.325 405.122 232.528 399.664 215.671 396.877C201.083 418.212 200.076 428.099 197.184 443.7C207.541 442.898 223.164 449.625 228.748 453.805" fill="#DB5E5E"/>
<path d="M284.676 423.721C258.325 405.122 232.528 399.664 215.671 396.877C201.083 418.212 200.076 428.099 197.184 443.7C207.541 442.898 223.164 449.625 228.748 453.805" stroke="#294064" stroke-miterlimit="10" stroke-linecap="round"/>
<path d="M311.489 476.261C318.185 484.645 319.486 495.831 319.462 505.344C326.52 492.02 355.521 493.521 362.002 501.368C361.638 473.055 343.079 432.998 301.893 428.776" fill="#DB5E5E"/>
<path d="M311.489 476.261C318.185 484.645 319.486 495.831 319.462 505.344C326.52 492.02 355.521 493.521 362.002 501.368C361.638 473.055 343.079 432.998 301.893 428.776" stroke="#294064" stroke-miterlimit="10" stroke-linecap="round"/>
<path d="M286.964 422.223C286.914 421.249 283.349 421.845 283.349 421.845C283.349 421.845 282.575 423.01 282.26 424.501C282.11 425.212 282.34 425.729 282.883 426.219C284.373 427.561 286.502 427.389 288.283 428.038C289.379 428.438 290.464 428.905 291.544 429.348C293.606 430.193 296.029 430.574 298.225 430.952C301.454 431.508 303.771 432.314 304.344 428.415C304.426 427.861 303.989 427.696 303.898 427.235" fill="#DB5E5E"/>
<path d="M286.964 422.223C286.914 421.249 283.349 421.845 283.349 421.845C283.349 421.845 282.575 423.01 282.26 424.501C282.11 425.212 282.34 425.729 282.883 426.219C284.373 427.561 286.502 427.389 288.283 428.038C289.379 428.438 290.464 428.905 291.544 429.348C293.606 430.193 296.029 430.574 298.225 430.952C301.454 431.508 303.771 432.314 304.344 428.415C304.426 427.861 303.989 427.696 303.898 427.235" stroke="#DB5E5E" stroke-miterlimit="10" stroke-linecap="round"/>
<path d="M282.562 423.382C283.554 426.014 288.29 428.343 290.912 428.913" stroke="#294064" stroke-miterlimit="10" stroke-linecap="round"/>
<path d="M297.015 430.444C298.854 430.634 300.319 430.821 302.155 430.251" stroke="#294064" stroke-miterlimit="10" stroke-linecap="round"/>
<path d="M347.316 457.373C340.008 454.061 335.742 453.439 332.895 455.329C329.769 457.404 330.542 460.883 332.764 462.826C334.619 464.448 337.294 465.193 339.806 464.503C333.897 467.142 328.4 472.422 332.334 477.434C334.435 480.109 337.626 479.984 339.442 479.358C343.087 478.104 344.522 475.014 346.423 471.627C344.403 476.614 344.546 481.826 347.964 482.902C352.66 484.38 355.457 479.562 356.241 474.669" stroke="#FFF4E8" stroke-miterlimit="10" stroke-linecap="round"/>
<path d="M310.761 456.826C314.018 456.588 317.593 455.425 319.813 453.023C321.55 451.142 323.037 448.241 321.245 445.481C319.453 442.72 315.739 441.885 312.645 441.98C309.439 442.079 306.159 443.689 303.91 446.014C301.761 438.296 299.577 435.538 296.73 434.58C292.837 433.271 289.823 435.925 289.472 438.179C288.746 442.852 291.964 446.489 294.789 449.538C286.425 445.862 279.912 446.584 279.145 452.419C277.78 462.81 290.552 461.25 295.829 459.051C294.13 461.008 293.35 464.271 293.143 467.087C292.698 473.132 297.712 477.171 300.995 476.056C304.278 474.94 307.447 467.869 306.277 462.627C308.759 468.676 314.564 471.878 317.515 468.369C320.429 464.905 316.242 459.886 310.761 456.826Z" stroke="#FFF4E8" stroke-miterlimit="10" stroke-linecap="round"/>
<path d="M236.453 522.611C234.488 517.592 234.344 512.376 237.848 510.343C241.071 508.473 244.697 509.799 246.055 511.03C248.394 513.148 248.455 516.522 247.49 519.077C251.866 513.8 256.704 508.838 261.109 512.551C264.863 515.715 262.008 521.26 256.502 524.719C258.766 523.783 262.818 523.831 265.105 524.518C268.456 525.525 270.457 528.223 269.657 531.265C268.713 534.857 263.992 536.792 259.054 535.55C262.471 538.075 262.887 540.195 261.689 541.328C260.813 542.157 257.811 542.313 255.992 540.157" stroke="#FFF4E8" stroke-miterlimit="10" stroke-linecap="round"/>
<path d="M299.112 546.949C297.978 538.516 285.974 533.521 287.78 545.453C281.942 543.668 274.173 547.051 280.737 552.727C283.453 555.075 287.246 555.372 290.718 555.618" stroke="#FFF4E8" stroke-miterlimit="10" stroke-linecap="round"/>
<path d="M216.751 478.528C216.751 478.528 221.014 474.337 225.543 473.293C229.281 472.432 231.777 473.923 233.353 476.411C234.928 478.899 234.405 481.709 233.152 483.469C231.093 486.363 227.015 487.972 223.737 488.008C229.59 487.901 235.325 492.008 234.286 496.13C233.013 501.181 227.353 500.255 220.84 496.024C223.624 499.129 223.372 504.609 219.95 505.071C216.641 505.518 212.817 501.147 211.422 493.197C211.819 496.169 210.06 499.117 208.475 499.546C205.722 500.291 203.9 497.814 205.78 495.248" stroke="#FFF4E8" stroke-miterlimit="10" stroke-linecap="round"/>
<path d="M241.695 440.83C230.131 444.806 227.207 454.296 233.944 457.929C246.172 464.525 248.131 443.482 248.131 443.482C248.131 443.482 250.007 456.154 261.181 453.417C269.252 451.442 263.412 442.278 263.412 442.278C263.412 442.278 274.321 446.195 276.248 439.407C277.074 436.498 274.098 431.6 268.927 431.515" stroke="#FFF4E8" stroke-miterlimit="10" stroke-linecap="round"/>
<path d="M235.245 425.686C233.584 427.198 233.242 430.449 232.466 432.458C229.719 439.571 229.604 447.266 228.677 454.743" stroke="#294064" stroke-miterlimit="10" stroke-linecap="round"/>
<path d="M218.96 436.718C219.515 437.967 221.319 439.247 222.148 440.381C224.673 443.83 227.542 448.324 228.49 452.561" stroke="#294064" stroke-miterlimit="10" stroke-linecap="round"/>
<path d="M260.486 488.118C262.652 488.775 266.695 486.713 268.4 485.612" stroke="#294064" stroke-miterlimit="10" stroke-linecap="round"/>
<path d="M245.318 596.902C246.153 590.273 256.751 587.08 256.751 587.08L260.858 585.902" stroke="#294064" stroke-miterlimit="10" stroke-linecap="round"/>
<path d="M246.151 533.699C245.88 541.147 245.776 548.601 245.339 556.042C245.074 560.544 244.274 565.002 244.048 569.506C243.844 573.553 247.435 574.19 250.787 573.169C254.322 572.091 255.272 566.922 255.742 563.262C256.62 556.435 256.874 549.542 257.439 542.683" stroke="#294064" stroke-miterlimit="10" stroke-linecap="round"/>
<path d="M207.61 534.697C207.61 534.697 208.894 534.307 212.842 533.861C216.79 533.415 223.402 532.913 223.402 532.913" stroke="#294064" stroke-miterlimit="10" stroke-linecap="round"/>
<path d="M227.196 532.75C240.422 531.35 246.276 533.005 246.276 533.005" stroke="#294064" stroke-miterlimit="10" stroke-linecap="round"/>
<path d="M200.821 550.385C204.055 550.102 207.371 549.994 210.109 547.966C214.162 544.967 216.141 542.629 221.881 543.462C220.745 549.935 217.948 556.02 215.495 562.116C212.138 570.467 204.445 575.212 196.708 576.142C193.06 576.58 190.762 575.176 190.762 575.176" stroke="#294064" stroke-miterlimit="10" stroke-linecap="round"/>
<path d="M272.014 551.707C274.26 561.733 281.419 573.312 292.421 576.245" stroke="#294064" stroke-miterlimit="10" stroke-linecap="round"/>
<path d="M294.021 551.836C290.464 551.614 286.891 549.482 283.563 548.381C276.218 545.949 269.553 542.435 263.185 538.055" stroke="#294064" stroke-miterlimit="10" stroke-linecap="round"/>
<path d="M296.391 548.43C292.767 547.467 289.005 547.025 285.457 545.698C280.936 544.008 276.626 541.933 272.354 539.707" stroke="#294064" stroke-miterlimit="10" stroke-linecap="round"/>
<path d="M321.299 496.443C323.497 493.895 328.548 492.408 331.455 491.472C339.18 488.984 348.43 489.122 356.053 492.01" stroke="#294064" stroke-miterlimit="10" stroke-linecap="round"/>
<path d="M202.668 440.7C203.108 439.105 203.054 437.343 203.467 435.707C206.17 425.006 209.935 413.086 216.913 404.364" stroke="#294064" stroke-miterlimit="10" stroke-linecap="round"/>
<path d="M212.592 580.625C212.592 580.625 211.715 583.399 210.922 588.781C210.129 594.167 209.419 602.16 209.419 602.16" stroke="#294064" stroke-miterlimit="10" stroke-linecap="round"/>
<path d="M208.43 617.596C208.43 617.596 207.794 634.996 207.712 646.261C207.63 657.529 208.1 662.658 208.1 662.658" stroke="#294064" stroke-miterlimit="10" stroke-linecap="round"/>
<path d="M281.399 589.102C281.399 589.102 283.124 606.74 287.076 624.334C291.028 641.928 297.208 659.475 297.208 659.475" stroke="#294064" stroke-miterlimit="10" stroke-linecap="round"/>
<path d="M189.629 383.295L247.441 406.797L243.992 442.941L181.808 457.708L189.629 383.295Z" fill="#FFD6BF" stroke="#294064" stroke-miterlimit="10"/>
<path d="M183.9 402.477C183.9 402.477 172.583 404.869 171.207 416.992C169.623 430.949 181.906 434.134 181.906 434.134" fill="#DB5E5E"/>
<path d="M183.9 402.477C183.9 402.477 172.583 404.869 171.207 416.992C169.623 430.949 181.906 434.134 181.906 434.134" stroke="#294064" stroke-miterlimit="10" stroke-linecap="round"/>
<path d="M182.878 380.856C183.05 378.38 185.199 376.512 187.678 376.683L187.748 376.688C190.227 376.859 192.097 379.005 191.925 381.481L186.58 458.607C186.409 461.083 184.26 462.951 181.781 462.779L181.711 462.775C179.232 462.603 177.362 460.457 177.533 457.981L182.878 380.856Z" fill="#FF8266" stroke="#294064" stroke-miterlimit="10"/>
<path d="M247.605 427.159L243.74 492.862C243.617 494.946 245.532 496.661 248.017 496.691L251.309 496.732C253.923 496.764 256.118 495.013 256.212 492.819L259.268 421.805L247.605 427.159Z" fill="white" stroke="#294064" stroke-miterlimit="10" stroke-linecap="round"/>
<path d="M241.525 443.737C241.525 443.737 261.089 449.168 271.759 438.623C279.22 431.248 278.397 420.013 271.272 412.655C262.483 403.576 244.947 405.601 244.947 405.601L241.525 443.737Z" fill="#FF8266" stroke="#294064" stroke-miterlimit="10" stroke-linecap="round"/>
<path d="M237.793 476.061C236.958 475.7 240.314 478.256 240.9 478.539C243.083 479.595 244.726 482.901 246.909 483.956C251.404 486.13 259.604 489.264 264.918 487.228C267.162 486.367 269.706 484.729 272.653 480.299C275.356 476.237 276.195 470.458 273.765 465.803C272.929 464.203 271.733 462.715 270.818 461.089C269.534 458.806 268.428 456.303 266.816 454.215C266.216 453.439 265.359 452.801 264.802 452.026" fill="#FFC6B2"/>
<path d="M237.793 476.061C236.958 475.7 240.314 478.256 240.9 478.539C243.083 479.595 244.726 482.901 246.909 483.956C251.404 486.13 259.604 489.264 264.918 487.228C267.162 486.367 269.706 484.729 272.653 480.299C275.356 476.237 276.195 470.458 273.765 465.803C272.929 464.203 271.733 462.715 270.818 461.089C269.534 458.806 268.428 456.303 266.816 454.215C266.216 453.439 265.359 452.801 264.802 452.026" stroke="#2E4166" stroke-miterlimit="10" stroke-linecap="round"/>
<path d="M275.01 472.85C275.233 467.328 273.069 462.458 271.126 459.589C265.928 451.917 259.204 444.797 251.123 447.234C248.177 448.122 243.229 449.468 245.147 451.921C248.634 456.38 251.456 453.598 253.808 454.651C255.837 455.558 254.782 458.872 257.505 461.026" fill="#FFC6B2"/>
<path d="M275.01 472.85C275.233 467.328 273.069 462.458 271.126 459.589C265.928 451.917 259.204 444.797 251.123 447.234C248.177 448.122 243.229 449.468 245.147 451.921C248.634 456.38 251.456 453.598 253.808 454.651C255.837 455.558 254.782 458.872 257.505 461.026" stroke="#2E4166" stroke-miterlimit="10" stroke-linecap="round"/>
<path d="M264.088 487.606C246.128 490.746 233.059 477.941 234.246 469.446C235.011 463.971 245.018 469.976 247.532 472.05" fill="#FFC6B2"/>
<path d="M264.088 487.606C246.128 490.746 233.059 477.941 234.246 469.446C235.011 463.971 245.018 469.976 247.532 472.05" stroke="#2E4166" stroke-miterlimit="10" stroke-linecap="round"/>
<path d="M247.426 479.778C247.426 479.778 242.708 478.529 239.122 475.594C235.243 472.418 229.347 464.752 236.255 461.606C239.241 460.247 247.317 464.813 249.612 466.582" fill="#FFC6B2"/>
<path d="M247.426 479.778C247.426 479.778 242.708 478.529 239.122 475.594C235.243 472.418 229.347 464.752 236.255 461.606C239.241 460.247 247.317 464.813 249.612 466.582" stroke="#2E4166" stroke-miterlimit="10" stroke-linecap="round"/>
<path d="M249.101 474.33C246.168 473.412 241.121 470.896 237.319 466.736C233.517 462.576 233.734 459.344 234.591 457.366C236.12 453.835 239.481 454.835 240.796 455.622C244.814 458.026 249.193 459.769 253.392 461.842" fill="#FFC6B2"/>
<path d="M249.101 474.33C246.168 473.412 241.121 470.896 237.319 466.736C233.517 462.576 233.734 459.344 234.591 457.366C236.12 453.835 239.481 454.835 240.796 455.622C244.814 458.026 249.193 459.769 253.392 461.842" stroke="#2E4166" stroke-miterlimit="10" stroke-linecap="round"/>
<path d="M249.948 468.434C245.57 466.665 239.3 462.826 237.469 456.76C235.735 451.015 240.582 447.493 244.496 448.693C247.14 449.505 248.836 451.357 248.632 454.542C248.597 455.087 245.002 454.079 245.347 454.502C245.558 454.76 252.134 460.311 259.637 459.88" fill="#FFC6B2"/>
<path d="M249.948 468.434C245.57 466.665 239.3 462.826 237.469 456.76C235.735 451.015 240.582 447.493 244.496 448.693C247.14 449.505 248.836 451.357 248.632 454.542C248.597 455.087 245.002 454.079 245.347 454.502C245.558 454.76 252.134 460.311 259.637 459.88" stroke="#2E4166" stroke-miterlimit="10" stroke-linecap="round"/>
<path d="M246.429 446.9L245.907 454.857C245.907 454.857 248.377 456.919 251.328 458.197C255.167 459.86 257.741 459.83 257.741 459.83L258.151 445.518" fill="white"/>
<path d="M246.429 446.9L245.907 454.857C245.907 454.857 248.377 456.919 251.328 458.197C255.167 459.86 257.741 459.83 257.741 459.83L258.151 445.518" stroke="#2E4166" stroke-miterlimit="10" stroke-linecap="round"/>
<path d="M246.657 445.034C247.637 448.051 254.367 451.005 257.401 451.361C258.073 449.291 258.033 447.175 258.002 445.015C256.453 444.989 253.239 445.606 253.239 445.606C253.239 445.606 248.874 445.028 246.657 445.034Z" fill="#294064" stroke="#2E4166" stroke-miterlimit="10" stroke-linecap="round"/>
<path d="M265.936 487.665L278.627 476.088L272.664 468.827L263.633 486.112L265.936 487.665Z" fill="#FFC6B2" stroke="#FFC6B2" stroke-miterlimit="10" stroke-linecap="round"/>
<path d="M100.724 385.331L108.576 389.357C108.576 389.357 119.601 384.13 124.174 381.648C120.768 374.98 123.344 369.606 123.344 369.606L112.509 360.019L100.724 385.331Z" fill="#FFC6B2" stroke="#FFC6B2" stroke-miterlimit="10" stroke-linecap="round"/>
<path d="M195.507 391.462L213.707 398.963" stroke="white" stroke-miterlimit="10" stroke-linecap="round"/>
<path d="M219.781 401.461L239.621 409.546" stroke="white" stroke-miterlimit="10" stroke-linecap="round"/>
<path d="M253.725 410.358C262.601 410.114 272.444 416.769 272.184 427.033" stroke="white" stroke-miterlimit="10" stroke-linecap="round"/>
<path d="M179.72 406.454C177.177 407.379 174.178 410.967 173.618 413.972" stroke="white" stroke-miterlimit="10" stroke-linecap="round"/>
<path d="M190 452.44L239.231 441.097L239.696 435.552L190.81 439.57L190 452.44Z" fill="#FA91B6"/>
<path d="M244.035 441.664C244.035 441.664 248.787 442.944 253.533 442.84C262.458 442.645 271.263 437.976 273.164 432.417C258.428 439.488 245.071 433.741 245.071 433.741L244.035 441.664Z" fill="#DF4D81"/>
<path d="M172.863 420.76C173.071 424.382 175.396 427.925 177.7 429.678L178.19 421.975C176.286 422.821 174.327 421.969 172.863 420.76Z" fill="#CF3B6F"/>
<path d="M271.678 430.717C271.533 431.585 271.011 433.2 269.193 434.585" stroke="white" stroke-miterlimit="10" stroke-linecap="round"/>
<g filter="url(#filter0_d_1091_5272)">
<rect x="83.4033" y="642.39" width="241.02" height="68.4381" rx="14.576" fill="white"/>
</g>
<path fill-rule="evenodd" clip-rule="evenodd" d="M116.043 679.92C113.524 679.92 111.482 681.959 111.482 684.475C111.482 686.991 113.524 689.031 116.043 689.031H121.946C123.428 689.031 124.629 690.231 124.629 691.711C124.629 693.191 123.428 694.391 121.946 694.391H116.043C110.561 694.391 106.116 689.951 106.116 684.475C106.116 678.999 110.561 674.56 116.043 674.56H121.946C123.428 674.56 124.629 675.76 124.629 677.24C124.629 678.72 123.428 679.92 121.946 679.92H116.043Z" fill="#FA91B6"/>
<path fill-rule="evenodd" clip-rule="evenodd" d="M133.75 671.342C133.75 668.826 131.708 666.786 129.189 666.786C126.67 666.786 124.628 668.826 124.628 671.342L124.628 677.238C124.628 678.718 123.427 679.918 121.945 679.918C120.463 679.918 119.262 678.718 119.262 677.238L119.262 671.342C119.262 665.866 123.707 661.427 129.189 661.427C134.672 661.427 139.117 665.866 139.117 671.342L139.117 677.238C139.117 678.718 137.915 679.918 136.433 679.918C134.952 679.918 133.75 678.718 133.75 677.238L133.75 671.342Z" fill="#FA91B6"/>
<path d="M139.115 691.709C139.115 693.189 137.913 694.389 136.432 694.389C134.95 694.389 133.748 693.189 133.748 691.709C133.748 690.228 134.95 689.029 136.432 689.029C137.913 689.029 139.115 690.228 139.115 691.709Z" fill="#00CDC4"/>
<path d="M150.155 678.558C150.155 670.273 154.551 667.237 162.267 667.237C169.224 667.237 173.146 669.324 173.778 674.7H169.319C168.75 671.569 166.442 670.684 162.267 670.684C157.618 670.684 154.614 672.233 154.614 677.388V679.602C154.614 684.662 157.555 686.369 162.267 686.369C166.283 686.369 168.624 685.61 169.351 682.606H173.81C173.019 687.761 169.161 689.816 162.267 689.816C154.551 689.816 150.155 686.875 150.155 678.558ZM177.356 667.616H181.783V685.832H195.128V689.437H177.356V667.616ZM205.477 667.616H211.548L221.162 689.437H216.545L214.11 683.839H202.441L200.006 689.437H195.831L205.477 667.616ZM208.259 670.494L203.864 680.582H212.687L208.259 670.494ZM226.993 671.221H218.075V667.616H240.338V671.221H231.42V689.437H226.993V671.221ZM241.167 678.558C241.167 670.273 245.562 667.237 253.279 667.237C260.236 667.237 264.157 669.324 264.79 674.7H260.331C259.761 671.569 257.453 670.684 253.279 670.684C248.63 670.684 245.626 672.233 245.626 677.388V679.602C245.626 684.662 248.567 686.369 253.279 686.369C257.295 686.369 259.635 685.61 260.362 682.606H264.821C264.031 687.761 260.173 689.816 253.279 689.816C245.562 689.816 241.167 686.875 241.167 678.558ZM268.367 667.616H272.794V676.439H285.729V667.616H290.156V689.437H285.729V680.044H272.794V689.437H268.367V667.616Z" fill="#1D2023"/>
<path opacity="0.8" d="M410.517 261.091C374.218 257.9 332.315 294.859 358.719 330.241C365.501 339.33 371.968 341.849 378.624 338.047C381.704 336.288 384.789 331.417 383.714 327.205C382.639 322.993 375.6 318.947 368.104 326.463C354.004 340.6 362.69 397.145 456.563 393.218" stroke="white" stroke-miterlimit="10" stroke-linecap="round" stroke-dasharray="10 10"/>
</g>
</g>
<defs>
<filter id="filter0_d_1091_5272" x="48.5828" y="609.999" width="310.661" height="138.079" filterUnits="userSpaceOnUse" color-interpolation-filters="sRGB">
<feFlood flood-opacity="0" result="BackgroundImageFix"/>
<feColorMatrix in="SourceAlpha" type="matrix" values="0 0 0 0 0 0 0 0 0 0 0 0 0 0 0 0 0 0 127 0" result="hardAlpha"/>
<feOffset dy="2.42934"/>
<feGaussianBlur stdDeviation="17.4103"/>
<feComposite in2="hardAlpha" operator="out"/>
<feColorMatrix type="matrix" values="0 0 0 0 0.211765 0 0 0 0 0.603922 0 0 0 0 0.862745 0 0 0 0.2 0"/>
<feBlend mode="normal" in2="BackgroundImageFix" result="effect1_dropShadow_1091_5272"/>
<feBlend mode="normal" in="SourceGraphic" in2="effect1_dropShadow_1091_5272" result="shape"/>
</filter>
<clipPath id="clip0_1091_5272">
<path d="M0 0H414V841C414 852.046 405.046 861 394 861H20C8.95432 861 0 852.046 0 841V0Z" fill="white"/>
</clipPath>
<clipPath id="clip1_1091_5272">
<path d="M0 242H414V855C414 866.046 405.046 875 394 875H20C8.95432 875 0 866.046 0 855V242Z" fill="white"/>
</clipPath>
</defs>
</svg>
