<svg width="414" height="861" viewBox="0 0 414 861" fill="none" xmlns="http://www.w3.org/2000/svg">
<g clip-path="url(#clip0_1091_5397)">
<path d="M0 0H414V841C414 852.046 405.046 861 394 861H20C8.95432 861 0 852.046 0 841V0Z" fill="#5C814A"/>
<rect width="414" height="895" fill="#8EB6AE"/>
<g clip-path="url(#clip1_1091_5397)">
<path opacity="0.8" d="M-19.0706 680.7C17.5274 707.275 100.099 717.934 144.438 718.102C169.377 718.196 191.419 711.848 203.439 705.737C215.459 699.625 197.816 686.234 182.046 687.71C159.47 689.821 109.886 717.177 191.75 739.914C221.271 748.113 329.908 758.459 399.666 737.868C500.585 708.079 460.435 681.326 482.899 665.14C503.479 650.312 407.268 659.249 413.968 640.453" stroke="white" stroke-miterlimit="10" stroke-linecap="round" stroke-linejoin="round" stroke-dasharray="10 10"/>
<path opacity="0.8" d="M138.565 432.994C138.2 393.262 144.875 355.87 173.379 330.967C200.936 306.891 230.102 295.904 272.825 303.707C315.144 311.437 337.135 341.067 323.346 357.043C307.027 375.948 272.077 366.624 255.464 345.898C243.517 330.992 237.044 315.369 236.245 306.653C231.811 258.271 283.28 234.76 329.084 240.093C416.585 250.281 430.983 317.239 463.413 318.793C492.238 320.174 473.345 247.96 500.822 256.776" stroke="white" stroke-miterlimit="10" stroke-linecap="round" stroke-linejoin="round" stroke-dasharray="10 10"/>
<path d="M75.2402 354.632C75.2402 347.031 81.4057 340.871 89.0109 340.871H334.76C342.365 340.871 348.53 347.031 348.53 354.632V663.495C348.53 671.096 342.365 677.256 334.76 677.256H89.0109C81.4057 677.256 75.2402 671.096 75.2402 663.495V354.632Z" fill="#FFF4E8" stroke="#294064" stroke-miterlimit="10"/>
<path d="M89.8521 386.707C89.8521 379.913 95.3645 374.401 102.164 374.401H320.715C327.514 374.401 333.027 379.913 333.027 386.707V601.681C333.027 608.478 327.514 613.986 320.715 613.986H102.164C95.3645 613.986 89.8521 608.478 89.8521 601.681V386.707Z" fill="#62C8B3" stroke="#294064" stroke-miterlimit="10"/>
<path d="M109.199 360.235C108.376 360.32 107.646 360.887 107.389 361.726C107.381 361.75 106.921 363.259 106.742 363.854C106.232 365.556 105.666 367.477 105.054 369.573C103.305 375.567 101.553 381.783 99.9194 387.908C99.2399 390.456 98.594 392.94 97.986 395.347C95.6665 404.516 93.9793 412.222 93.097 418.008C89.8569 439.271 88.1756 458.004 87.6456 476.373C87.244 490.282 87.4217 500.367 88.2017 522.25C88.9785 544.045 89.1559 554.06 88.7578 567.848C88.7239 569.022 89.6481 570.001 90.8206 570.033C91.9934 570.068 92.9726 569.145 93.0064 567.972C93.408 554.063 93.2303 543.974 92.4503 522.095C91.6735 500.3 91.4898 490.285 91.8876 476.497C92.413 458.3 94.0865 439.74 97.3006 418.65C98.1578 413.022 99.8165 405.435 102.105 396.386C102.709 394 103.351 391.53 104.026 389C105.65 382.911 107.388 376.727 109.128 370.761C109.737 368.675 111.146 363.96 111.282 363.512C111.329 363.354 111.443 362.991 111.45 362.97C111.793 361.846 111.162 360.662 110.04 360.32C109.759 360.232 109.474 360.207 109.199 360.235Z" fill="#4CBED4" stroke="#294064" stroke-miterlimit="10" stroke-linecap="round"/>
<path d="M139.516 402.176C139.24 402.19 138.965 402.254 138.701 402.384C129.28 406.965 120.995 414.633 114.347 424.471C108.294 433.429 103.818 443.916 101.465 454.297C99.2227 464.188 97.5767 474.742 96.2851 486.861C95.3073 496.037 94.729 503.507 93.595 520.119C93.3527 523.663 93.2561 525.112 93.1228 527.018C91.9472 543.866 90.95 554.74 89.4045 565.78C89.242 566.943 90.0533 568.018 91.2152 568.18C92.3771 568.342 93.4455 567.532 93.608 566.369C95.1701 555.209 96.1765 544.253 97.3588 527.318C97.4921 525.408 97.5883 523.956 97.8306 520.408C98.9611 503.853 99.5443 496.417 100.514 487.315C101.79 475.348 103.408 464.95 105.61 455.234C107.848 445.357 112.118 435.367 117.871 426.85C124.124 417.596 131.854 410.436 140.557 406.204C141.612 405.689 142.053 404.421 141.54 403.367C141.155 402.574 140.342 402.134 139.516 402.176Z" fill="#0595B0" stroke="#294064" stroke-miterlimit="10" stroke-linecap="round"/>
<path d="M101.271 383.193C100.912 385.928 100.448 385.85 102.868 387.45C102.977 387.524 103.702 388.116 103.927 388.038C103.934 388.035 104.141 386.477 104.142 386.474C104.495 384.592 104.402 382.724 104.691 380.86" fill="#294064"/>
<path d="M101.271 383.193C100.912 385.928 100.448 385.85 102.868 387.45C102.977 387.524 103.702 388.116 103.927 388.038C103.934 388.035 104.141 386.477 104.142 386.474C104.495 384.592 104.402 382.724 104.691 380.86" stroke="#294064" stroke-miterlimit="10" stroke-linecap="round"/>
<path d="M126.354 410.855C126.385 410.668 125.962 411.278 125.894 411.355C125.555 411.736 125.267 412.025 125.01 412.469C124.745 412.927 124.235 413.195 124.058 413.653C123.908 414.037 124.614 417.37 125.058 417.526C125.299 417.61 126.359 416.236 126.506 416.098C127.741 414.96 128.613 413.131 129.98 412.141" fill="#294064"/>
<path d="M126.354 410.855C126.385 410.668 125.962 411.278 125.894 411.355C125.555 411.736 125.267 412.025 125.01 412.469C124.745 412.927 124.235 413.195 124.058 413.653C123.908 414.037 124.614 417.37 125.058 417.526C125.299 417.61 126.359 416.236 126.506 416.098C127.741 414.96 128.613 413.131 129.98 412.141" stroke="#294064" stroke-miterlimit="10" stroke-linecap="round"/>
<path d="M228.63 350.89C231.9 350.897 234.279 351.182 234.612 351.957C235.692 353.691 225.719 375.208 218.971 385.557C214.103 393.021 207.39 399.314 200.25 404.653C194.052 409.283 186.415 411.595 179.499 415.066C179.499 415.066 177.445 407.666 174.734 405.231C171.171 402.031 168.071 401.439 165.677 402.281C162.352 403.455 162.89 406.792 163.458 408.113C164.985 411.672 169.181 413.487 171.393 416.669C171.393 416.669 150.622 419.389 139.153 418.716C135.838 418.522 130.307 417.589 126.983 414.84C125.812 413.871 124.168 410.485 128.217 402.873C132.266 395.262 137.294 389.669 142.792 383.841C147.97 378.354 156.151 371.205 164.763 365.475C169.815 362.117 177.769 360.069 177.769 360.069C177.769 360.069 175.136 363.371 175.945 367.434C176.5 370.228 179.165 373.393 183.114 370.623C187.063 367.853 186.476 359.706 191.737 356.359C197.058 352.972 203.918 352.807 210.193 352.162C215.254 351.644 223.181 350.883 228.63 350.89ZM192.834 385.582C191.748 385.649 190.797 386.139 190.301 387.189C188.957 390.043 191.151 393.419 192.587 395.723C193.426 397.073 194.531 397.982 196.087 398.356C200.905 399.518 200.026 391.421 197.871 388.129C196.825 386.53 194.646 385.469 192.834 385.582Z" fill="#0595B0" stroke="#294064" stroke-miterlimit="10" stroke-linecap="round"/>
<path d="M130.321 409.252C137.824 402 148.277 396.055 157.23 391.146C177.27 380.159 198.455 371.698 218.514 360.824" stroke="#294064" stroke-miterlimit="10" stroke-linecap="round"/>
<path d="M191.182 374.369C191.182 374.369 196.001 373.777 198.614 374.045C206.466 374.852 218.651 380.173 215.734 390.026" stroke="#294064" stroke-miterlimit="10" stroke-linecap="round"/>
<path d="M206.086 367.339C209.109 364.82 210.683 362.431 210.804 358.858C210.925 355.288 206.988 352.589 206.988 352.589" stroke="#294064" stroke-miterlimit="10" stroke-linecap="round"/>
<path d="M163.189 387.904C155.621 384.592 158.053 371.649 162.365 367.089" stroke="#294064" stroke-miterlimit="10" stroke-linecap="round"/>
<path d="M169.126 385.141C173.256 387.03 176.328 388.848 180.355 391.29C185.233 394.25 194.332 401.499 195.394 407.468" stroke="#294064" stroke-miterlimit="10" stroke-linecap="round"/>
<path d="M151.012 394.521C147.234 405.23 152.319 410.509 159.525 417.962" stroke="#294064" stroke-miterlimit="10" stroke-linecap="round"/>
<path d="M163.397 267.975C159.61 267.319 126.523 302.305 111.73 322.985C105.492 331.706 100.28 340.301 96.6199 350.375C94.2549 356.888 92.9351 364.256 93.4393 371.163C93.7359 375.229 96.03 380.934 99.523 383.045C104.582 386.1 111.099 386.734 116.984 386.17C124.781 385.423 132.665 383.168 139.431 379.225C144.287 376.395 147.833 372.096 150.201 367.343C146.587 365.176 142.519 363.259 139.742 360.087C137.449 357.469 135.843 353.536 136.271 350.245C136.7 346.95 139.285 346.182 141.456 346.912C145.326 348.208 146.764 350.925 151.521 356.697C154.128 352.525 155.456 350.249 158.074 343.293C160.692 336.337 161.99 328.866 161.99 328.866C161.99 328.866 156.563 327.355 153.667 324.972C150.802 322.614 149.987 316.907 153.175 316.103C156.362 315.299 160.462 317.564 164.785 321.946C166.664 295.909 168.888 267.56 163.397 267.975ZM159.557 293.701C160.963 293.541 162.071 294.934 161.92 296.904C161.767 298.909 160.179 300.895 158.697 302.118C156.838 303.652 154.172 304.596 151.758 304.443C150.436 304.36 148.211 303.312 148.829 301.645C149.941 298.644 153.795 297.824 156.12 296.173C156.836 295.664 157.425 294.993 158.088 294.417C158.588 293.983 159.088 293.755 159.557 293.701ZM128.466 366.86C128.888 366.856 129.292 366.941 129.637 367.17C132.8 369.27 130.117 373.312 128.125 374.908C124.276 377.988 116.944 379.887 112.689 377.128C110.49 375.705 111.456 372.428 113.536 371.096C116.955 368.9 121.238 369.742 124.783 368.125C125.718 367.699 127.197 366.863 128.466 366.86Z" fill="#4CBED4" stroke="#294064" stroke-miterlimit="10" stroke-linecap="round"/>
<path d="M99.1118 375.813C99.1118 375.813 103.74 354.072 123.641 322.839C138.714 299.187 158.358 280.544 158.358 280.544" stroke="#294064" stroke-miterlimit="10" stroke-linecap="round"/>
<path d="M142.362 286.987C141.757 289.892 141.996 293.466 142.831 296.627L142.362 286.987Z" fill="#4B88EB"/>
<path d="M142.362 286.987C141.757 289.892 141.996 293.466 142.831 296.627" stroke="#294064" stroke-miterlimit="10" stroke-linecap="round"/>
<path d="M129.296 314.783C140.992 322.883 151.933 332.644 156.689 346.58" stroke="#294064" stroke-miterlimit="10" stroke-linecap="round"/>
<path d="M120.562 327.683C120.562 327.683 115.759 328.294 110.022 331.006C108.179 331.878 104.613 334.034 104.613 334.034" stroke="#294064" stroke-miterlimit="10" stroke-linecap="round"/>
<path d="M113.178 341.034C125.612 349.896 138.036 362.325 141.504 377.784" stroke="#294064" stroke-miterlimit="10" stroke-linecap="round"/>
<path d="M87.438 539.894C77.1618 550.49 85.3005 585.425 84.413 614.367C111.411 614.367 130.048 614.271 139.67 604.937C149.012 595.32 149.088 574.991 149.088 548.897L100.981 556.142M18.3197 549.715C18.3197 575.809 18.4131 595.32 27.7549 604.937C37.377 614.271 56.0141 614.367 83.0117 614.367C82.0776 585.425 81.3769 572.215 71.101 561.618C60.4979 551.35 47.2795 550.603 18.3197 549.715ZM83.0117 483.668C56.0606 483.668 37.377 483.76 27.7549 493.094C18.4131 502.711 18.3197 522.222 18.3197 548.316C47.2795 547.382 60.4979 546.681 71.101 536.413C81.3769 525.816 82.1241 512.606 83.0117 483.668ZM93.3327 563.042C83.0568 552.446 85.3005 512.606 84.413 483.668C111.411 483.668 130.048 483.76 139.67 493.094C149.012 502.711 149.077 522.948 149.077 549.042C149.077 549.042 103.936 554.398 93.3327 544.126" fill="#294064"/>
<path d="M87.438 539.894C77.1618 550.49 85.3005 585.425 84.413 614.367C111.411 614.367 130.048 614.271 139.67 604.937C149.012 595.32 149.088 574.991 149.088 548.897L100.981 556.142M93.3327 563.042C83.0568 552.446 85.3005 512.606 84.413 483.668C111.411 483.668 130.048 483.76 139.67 493.094C149.012 502.711 149.077 522.948 149.077 549.042C149.077 549.042 103.936 554.398 93.3327 544.126M18.3197 549.715C18.3197 575.809 18.4131 595.32 27.7549 604.937C37.377 614.271 56.0141 614.367 83.0117 614.367C82.0776 585.425 81.3769 572.215 71.101 561.618C60.4979 551.35 47.2795 550.603 18.3197 549.715ZM83.0117 483.668C56.0606 483.668 37.377 483.76 27.7549 493.094C18.4131 502.711 18.3197 522.222 18.3197 548.316C47.2795 547.382 60.4979 546.681 71.101 536.413C81.3769 525.816 82.1241 512.606 83.0117 483.668Z" stroke="#294064" stroke-miterlimit="10"/>
<path d="M10.0323 548.425C10.0323 512.898 38.847 484.094 74.392 484.094H75.6261C111.171 484.094 139.986 512.898 139.986 548.425V549.659C139.986 585.186 111.171 613.986 75.6261 613.986H74.392C38.847 613.986 10.0323 585.186 10.0323 549.659V548.425Z" fill="#DB5E5E" stroke="white" stroke-miterlimit="10"/>
<path d="M87.6324 561.618C77.3561 572.215 76.6089 585.425 75.7214 614.367C102.719 614.367 121.356 614.271 130.978 604.937C140.32 595.32 140.414 575.809 140.414 549.715C111.454 550.649 98.2352 551.35 87.6324 561.618ZM9.62805 549.715C9.62805 575.809 9.72146 595.32 19.0633 604.937C28.6854 614.271 47.3222 614.367 74.3201 614.367C73.386 585.425 72.6854 572.215 62.4091 561.618C51.8064 551.35 38.5876 550.603 9.62805 549.715ZM74.3201 483.668C47.3691 483.668 28.6854 483.76 19.0633 493.094C9.72146 502.711 9.62805 522.222 9.62805 548.316C38.5876 547.382 51.8064 546.681 62.4091 536.413C72.6854 525.816 73.4326 512.606 74.3201 483.668ZM87.6324 536.413C77.3561 525.816 76.6089 512.606 75.7214 483.668C102.719 483.668 121.356 483.76 130.978 493.094C140.32 502.711 140.414 522.222 140.414 548.316C111.454 547.382 98.2352 546.681 87.6324 536.413Z" fill="#FFD6BF" stroke="#294064" stroke-miterlimit="10"/>
<path d="M52.4036 488.724C52.4036 488.724 47.6464 488.911 43.2659 489.263C35.5278 489.883 21.6386 493.125 19.1373 501.583" stroke="white" stroke-miterlimit="10" stroke-linecap="round"/>
<path d="M16.8174 512.108C16.0128 516.714 15.818 520.174 15.7876 523.515" stroke="white" stroke-miterlimit="10" stroke-linecap="round"/>
<path d="M18.2762 504.8C17.9639 505.801 17.6001 507.394 17.423 508.437" stroke="white" stroke-miterlimit="10" stroke-linecap="round"/>
<path d="M244.742 441.642C226.239 438.189 205.022 435.673 191.128 434.411C182.851 431.529 164.415 430.574 156.885 449.807C155.337 452.446 154.017 459.783 161.15 468.05C151.578 470.601 148.48 483.523 147.995 502.95C147.389 527.232 167.716 564.969 197.955 568.229C222.474 570.871 225.979 542.836 225.979 542.836C225.979 542.836 262.127 568.852 287.627 543.773C308.028 523.709 301.549 500.296 295.763 491.103C293.636 487.91 288.137 482.399 280.244 480.2C283.368 475.795 288.106 464.498 282.054 454.497C279.029 449.497 263.244 445.099 244.742 441.642Z" fill="#2F2F2F" stroke="#294064" stroke-miterlimit="10" stroke-linecap="round"/>
<path fill-rule="evenodd" clip-rule="evenodd" d="M281.537 454.47C281.618 454.272 281.845 454.177 282.043 454.258C284.794 455.375 287.907 459.283 287.528 465.982C287.341 469.312 286.541 472.624 285.494 475.408C284.45 478.185 283.146 480.475 281.925 481.748C281.777 481.903 281.531 481.906 281.376 481.758C281.222 481.61 281.216 481.363 281.365 481.212C282.481 480.049 283.74 477.868 284.767 475.137C285.79 472.413 286.57 469.182 286.753 465.936C287.117 459.488 284.125 455.943 281.75 454.977C281.552 454.896 281.456 454.667 281.537 454.47Z" fill="#2E4166"/>
<path fill-rule="evenodd" clip-rule="evenodd" d="M245.265 408.853C246.236 409.932 246.79 410.947 246.926 411.725C246.963 411.937 246.822 412.138 246.611 412.173C246.399 412.212 246.198 412.071 246.161 411.859C246.061 411.285 245.613 410.4 244.687 409.371C243.77 408.349 242.407 407.211 240.527 406.122C236.766 403.948 230.947 401.975 222.525 401.531C214.202 401.094 207.434 405.178 202.865 410.45C200.58 413.085 198.853 416.014 197.764 418.801C196.673 421.592 196.23 424.221 196.484 426.268C196.512 426.48 196.36 426.673 196.147 426.702C195.934 426.726 195.741 426.578 195.714 426.363C195.439 424.147 195.921 421.384 197.04 418.519C198.164 415.647 199.937 412.645 202.278 409.942C206.96 404.54 213.943 400.301 222.566 400.756C231.089 401.207 237.032 403.205 240.915 405.453C242.857 406.573 244.286 407.761 245.265 408.853Z" fill="#2E4166"/>
<path d="M203.311 430.771L203.529 432.195L204.056 430.856C204.212 430.454 204.332 430.112 204.441 429.799C204.456 429.756 204.469 429.717 204.483 429.675C204.605 429.33 204.719 429.013 204.868 428.667C210.242 416.338 227.298 409.392 245.606 413.067C263.619 416.683 276.544 429.319 277.135 442.534C277.157 442.999 277.157 443.147 277.146 443.615L277.121 444.775L277.839 443.862C278.31 443.267 279.006 442.495 280.103 442.058C281.192 441.624 282.732 441.501 284.931 442.312C287.049 443.094 287.908 444.609 288.142 446.213C288.379 447.833 287.971 449.539 287.513 450.624C286.99 451.526 285.963 452.732 284.592 453.433C283.234 454.127 281.526 454.331 279.571 453.218L279.561 453.214L279.551 453.207C278.879 452.873 277.372 451.801 276.75 450.261L276.361 449.296L276.023 450.279C275.883 450.691 275.729 451.093 275.564 451.491C271.044 462.408 257.27 470.393 241.686 469.568L241.339 469.551L241.282 469.896C240.831 472.641 239.817 477.582 238.547 480.327C238.209 481.06 237.242 481.789 235.823 482.293C234.425 482.786 232.669 483.033 230.871 482.867C227.339 482.536 223.695 480.619 222.284 475.883C223.217 474.741 223.875 473.127 224.343 471.499C224.836 469.78 225.13 468.004 225.301 466.644L225.337 466.351L225.065 466.238C212.48 461.006 204.197 449.49 203.216 439.031C203.156 438.379 203.124 437.724 203.123 437.068L203.122 436.272L202.495 436.765C201.734 437.361 200.374 438.097 198.803 438.33C197.245 438.562 195.49 438.298 193.878 436.924C192.27 435.549 191.744 433.847 191.739 432.258C191.734 430.662 192.255 429.192 192.735 428.333C193.276 427.55 194.332 426.56 195.738 426.134C197.127 425.711 198.903 425.824 200.934 427.328L200.945 427.335L200.957 427.346C201.283 427.554 201.813 427.987 202.293 428.59C202.771 429.192 203.183 429.936 203.311 430.771Z" fill="#FEC5B1" stroke="#2E4166" stroke-miterlimit="10"/>
<path d="M207.653 429.115C229.195 434.63 241.321 424.689 244.691 419.026C245.873 437.382 271.32 439.521 272.669 440.388C273.747 441.078 276.651 442.847 277.457 444.394C278.055 443.831 279.057 442.344 279.514 442.037C281.075 434.274 279.07 426.543 277.734 424.097C268.931 409.738 252.083 407.88 246.294 411.055C239.207 405.118 233.332 402.123 220.869 403.578C216.99 404.032 213.716 405.037 210.957 406.393C200.939 411.323 197.679 420.894 196.749 425.521C201.793 426.039 203.76 429.203 203.908 432.005L207.653 429.115Z" fill="#2F2F2F" stroke="#2E4166" stroke-miterlimit="10" stroke-linecap="round"/>
<path d="M234.908 430.536C234.095 430.254 232.843 430.212 231.57 430.444C230.289 430.68 228.929 431.209 227.89 432.118C227.729 432.259 227.715 432.502 227.856 432.664C227.997 432.826 228.24 432.84 228.402 432.699C229.305 431.906 230.528 431.434 231.717 431.216C232.913 430.997 234.017 431.054 234.658 431.279C234.86 431.35 235.076 431.24 235.146 431.036C235.217 430.835 235.11 430.61 234.908 430.536ZM247.347 433.436C247.137 433.394 246.927 433.524 246.885 433.732C246.843 433.943 246.984 434.155 247.194 434.197C247.982 434.356 248.98 434.8 249.883 435.515C250.783 436.23 251.564 437.196 251.949 438.369C252.016 438.57 252.238 438.672 252.442 438.605C252.646 438.538 252.756 438.33 252.689 438.126C252.246 436.78 251.359 435.695 250.369 434.909C249.381 434.126 248.269 433.623 247.347 433.436ZM239.419 437.548C239.207 437.52 239.017 437.664 238.988 437.876C238.971 438.003 238.951 438.144 238.93 438.292C238.813 439.106 238.66 440.205 238.695 441.209C238.737 442.365 239.04 443.634 240.218 444.078C241.075 444.398 241.99 444.74 242.609 445.248C242.912 445.494 243.12 445.766 243.225 446.062C243.328 446.354 243.345 446.717 243.191 447.172C243.007 447.718 242.73 448.046 242.421 448.25C242.107 448.458 241.722 448.564 241.265 448.557C240.337 448.549 239.224 448.13 238.177 447.598C237.986 447.503 237.751 447.58 237.653 447.771C237.556 447.961 237.621 448.194 237.812 448.292C238.883 448.838 240.147 449.314 241.262 449.325C241.828 449.328 242.38 449.215 242.856 448.902C243.335 448.588 243.691 448.098 243.92 447.422C244.121 446.826 244.124 446.284 243.955 445.808C243.79 445.336 243.471 444.948 243.096 444.642C242.361 444.043 241.33 443.651 240.504 443.341H240.492C239.806 443.084 239.509 442.309 239.469 441.174C239.435 440.247 239.579 439.236 239.696 438.418C239.718 438.267 239.74 438.119 239.759 437.982C239.788 437.767 239.631 437.576 239.419 437.548Z" fill="#2E4166"/>
<path d="M230.503 435.761C229.999 436.706 229.13 437.227 228.562 436.924C227.994 436.621 227.942 435.61 228.447 434.665C228.951 433.717 229.821 433.199 230.388 433.499C230.956 433.802 231.007 434.813 230.503 435.761Z" fill="#2E4166"/>
<path d="M248.152 439.493C247.565 440.388 246.653 440.832 246.114 440.48C245.576 440.127 245.616 439.113 246.203 438.218C246.791 437.322 247.704 436.882 248.241 437.231C248.78 437.587 248.74 438.598 248.152 439.493Z" fill="#2E4166"/>
<path d="M224.643 441.934C224.432 442.984 222.386 443.46 220.074 442.995C217.761 442.533 216.057 441.303 216.269 440.253C216.48 439.203 218.526 438.727 220.838 439.192C223.151 439.654 224.855 440.884 224.643 441.934Z" fill="#FA91B6"/>
<path d="M259.666 448.965C259.455 450.015 257.239 450.459 254.715 449.951C252.193 449.444 250.319 448.182 250.529 447.132C250.741 446.082 252.957 445.638 255.48 446.146C258.003 446.653 259.877 447.915 259.666 448.965Z" fill="#FA91B6"/>
<path d="M285.373 448.359C285.035 450.04 283.227 451.097 281.335 450.717C279.443 450.336 278.183 448.666 278.521 446.985C278.858 445.304 280.667 444.251 282.558 444.628C284.451 445.008 285.711 446.679 285.373 448.359Z" fill="#E4AC98"/>
<path fill-rule="evenodd" clip-rule="evenodd" d="M283.048 445.53C283.505 445.653 284.003 445.837 284.543 446.094C284.735 446.185 284.968 446.104 285.061 445.911C285.153 445.72 285.072 445.488 284.878 445.393C283.59 444.776 282.476 444.54 281.525 444.561C279.293 444.617 278.084 446.104 277.699 447.154C277.625 447.355 277.728 447.581 277.93 447.655C278.131 447.725 278.354 447.623 278.428 447.422C278.726 446.612 279.672 445.421 281.465 445.34C281.806 445.488 282.275 445.815 282.642 446.235C283.045 446.689 283.24 447.151 283.165 447.521C283.123 447.732 283.259 447.937 283.469 447.979C283.679 448.021 283.884 447.884 283.926 447.676C284.074 446.939 283.677 446.231 283.225 445.72C283.168 445.657 283.109 445.593 283.048 445.53Z" fill="#2E4166"/>
<path d="M194.346 431.103C194.05 432.576 195.345 434.073 197.236 434.454C199.129 434.834 200.902 433.95 201.198 432.481C201.494 431.008 200.199 429.506 198.307 429.129C196.415 428.749 194.642 429.633 194.346 431.103Z" fill="#E4AC98"/>
<path fill-rule="evenodd" clip-rule="evenodd" d="M197.621 429.404C197.247 429.358 196.831 429.334 196.368 429.341C196.154 429.344 195.977 429.175 195.974 428.96C195.971 428.745 196.142 428.569 196.356 428.565C197.596 428.544 198.574 428.731 199.338 429.045C201.13 429.781 201.681 431.201 201.662 432.107C201.658 432.322 201.481 432.491 201.267 432.487C201.052 432.48 200.882 432.304 200.886 432.089C200.898 431.501 200.538 430.405 199.107 429.788C198.814 429.792 198.36 429.922 197.904 430.126C197.668 430.236 197.449 430.355 197.274 430.472C197.09 430.592 196.986 430.69 196.947 430.743C196.822 430.919 196.579 430.958 196.405 430.835C196.231 430.708 196.191 430.468 196.315 430.292C196.439 430.119 196.639 429.961 196.845 429.823C197.06 429.682 197.316 429.541 197.584 429.422C197.596 429.415 197.609 429.411 197.621 429.404Z" fill="#2E4166"/>
<path d="M234.945 468.713C232.082 468.769 227.459 467.208 225.504 466.423C225.631 467.106 225.685 469.069 224.891 471.444C229.641 473.03 233.573 470.285 234.945 468.713Z" fill="#E4AC98"/>
<path d="M236.628 451.636C236.628 451.636 234.475 453.307 231.199 452.179C227.536 450.921 227.761 448.049 227.761 448.049C227.761 448.049 230.005 449.508 232.222 450.403C234.438 451.302 236.628 451.636 236.628 451.636Z" fill="white" stroke="#294064" stroke-miterlimit="10" stroke-linecap="round"/>
<path d="M111.509 476.866C89.2953 494.496 161.656 552.051 165.357 565.713C173.667 596.395 167.183 585.291 162.761 593.237C182.77 579.91 181.613 589.608 184.139 564.271C185.928 546.339 153.397 505.536 153.397 505.536C153.397 505.536 198.373 512.291 205.013 521.971C226.387 553.133 230.765 565.914 227.467 595.443C263.17 595.961 252.672 595.306 288.374 595.824C277.157 565.04 272.194 571.827 264.566 539.964C260.698 523.807 268.814 501.857 268.684 485.25C249.686 480.598 255.352 481.5 226.682 476.93C186.143 470.467 126.269 465.153 111.509 476.866Z" fill="#FFC6B2" stroke="#294064" stroke-miterlimit="10" stroke-linecap="round"/>
<path d="M306.476 531.404C300.235 518.106 291.804 508.066 291.804 508.066L280.805 545.715C280.805 545.715 313.01 589.837 326.313 578.603C342.471 564.955 332.946 511.262 332.122 485.965C331.713 473.374 321.197 480.489 315.488 469.258C310.53 502.583 310.166 496.466 306.476 531.404Z" fill="#FFC6B2" stroke="#294064" stroke-miterlimit="10" stroke-linecap="round"/>
<path d="M182.393 560.36C188.127 566.534 187.169 570.061 187.116 574.952C187.028 582.923 183.734 590.263 179.175 596.321C178.272 597.522 177.542 592.282 176.062 592.504C174.109 592.797 176.72 588.579 174.757 588.089C171.665 587.321 166.02 593.991 164.955 591.148C162.235 583.881 167.052 576.728 168.669 569.536C168.83 568.817 171.244 561.773 171.108 561.643" fill="#FFC6B2"/>
<path d="M182.393 560.36C188.127 566.534 187.169 570.061 187.116 574.952C187.028 582.923 183.734 590.263 179.175 596.321C178.272 597.522 177.542 592.282 176.062 592.504C174.109 592.797 176.72 588.579 174.757 588.089C171.665 587.321 166.02 593.991 164.955 591.148C162.235 583.881 167.052 576.728 168.669 569.536C168.83 568.817 171.244 561.773 171.108 561.643" stroke="#294064" stroke-miterlimit="10" stroke-linecap="round"/>
<path d="M181.894 552.052C188.901 567.966 189.46 584.01 186.944 593.217C185.126 599.87 183.001 602.15 181.142 601.445C178.372 600.399 179.476 593.94 179.721 585.098" fill="#FFC6B2"/>
<path d="M181.894 552.052C188.901 567.966 189.46 584.01 186.944 593.217C185.126 599.87 183.001 602.15 181.142 601.445C178.372 600.399 179.476 593.94 179.721 585.098" stroke="#294064" stroke-miterlimit="10" stroke-linecap="round"/>
<path d="M184.768 584.284C183.653 593.192 181.663 598.598 177.66 604.906C174.715 609.546 171.526 611.925 170.135 610.473C168.556 608.824 170.335 605.91 171.723 603.32C175.563 596.145 176.712 589.39 176.067 590.331C174.596 592.47 173.89 598.323 168.032 605.212C165.352 608.37 160.514 610.156 160.377 606.498C160.22 602.309 166.714 598.461 168.129 588.499" fill="#FFC6B2"/>
<path d="M184.768 584.284C183.653 593.192 181.663 598.598 177.66 604.906C174.715 609.546 171.526 611.925 170.135 610.473C168.556 608.824 170.335 605.91 171.723 603.32C175.563 596.145 176.712 589.39 176.067 590.331C174.596 592.47 173.89 598.323 168.032 605.212C165.352 608.37 160.514 610.156 160.377 606.498C160.22 602.309 166.714 598.461 168.129 588.499" stroke="#294064" stroke-miterlimit="10" stroke-linecap="round"/>
<path d="M170.923 587.441C170.923 587.441 169.051 593.963 163.029 600.377C160.673 602.882 157.167 604.112 155.353 603.707C153.539 603.305 153.774 600.352 157.406 595.972C161.068 591.557 164.638 587.976 165.58 583.889C162.107 588.755 160.638 590.39 157.596 592.547C155.56 593.988 152.512 594.605 151.372 593.586C148.798 591.296 154.083 587.36 154.083 587.36C156.518 585.161 157.419 583.78 158.944 580.83C162.117 574.692 159.65 570.463 165.913 565.153" fill="#FFC6B2"/>
<path d="M170.923 587.441C170.923 587.441 169.051 593.963 163.029 600.377C160.673 602.882 157.167 604.112 155.353 603.707C153.539 603.305 153.774 600.352 157.406 595.972C161.068 591.557 164.638 587.976 165.58 583.889C162.107 588.755 160.638 590.39 157.596 592.547C155.56 593.988 152.512 594.605 151.372 593.586C148.798 591.296 154.083 587.36 154.083 587.36C156.518 585.161 157.419 583.78 158.944 580.83C162.117 574.692 159.65 570.463 165.913 565.153" stroke="#294064" stroke-miterlimit="10" stroke-linecap="round"/>
<path d="M346.589 466.077C346.135 469.379 346.711 472.995 345.226 475.976C342.737 480.973 332.729 487.365 332.729 487.365L333.089 502.334L311.266 495.723L314.692 474.263C314.692 474.263 330.282 435.787 346.589 466.077Z" fill="#FFC6B2" stroke="#294064" stroke-miterlimit="10" stroke-linecap="round"/>
<path d="M314.738 474.453C313.496 471.014 314.353 465.985 317.016 459.547C318.238 456.594 315.793 447.644 320.31 449.131C325.599 450.872 325.788 456.707 325.855 461.757C325.902 465.337 328.095 466.856 328.516 470.411C329.216 476.328 326.738 479.675 323.233 484.45" fill="#FFC6B2"/>
<path d="M314.738 474.453C313.496 471.014 314.353 465.985 317.016 459.547C318.238 456.594 315.793 447.644 320.31 449.131C325.599 450.872 325.788 456.707 325.855 461.757C325.902 465.337 328.095 466.856 328.516 470.411C329.216 476.328 326.738 479.675 323.233 484.45" stroke="#294064" stroke-miterlimit="10" stroke-linecap="round"/>
<path d="M383.912 376.011L330.448 407.327L338.982 442.375L402.188 448.056L383.912 376.011Z" fill="#FFD6BF" stroke="#294064" stroke-miterlimit="10"/>
<path d="M392.269 394.053C392.269 394.053 403.732 394.801 406.807 406.521C410.351 420.021 398.736 424.894 398.736 424.894" fill="#DB5E5E"/>
<path d="M392.269 394.053C392.269 394.053 403.732 394.801 406.807 406.521C410.351 420.021 398.736 424.894 398.736 424.894" stroke="#294064" stroke-miterlimit="10" stroke-linecap="round"/>
<path d="M390.199 372.653C389.677 370.243 387.3 368.713 384.888 369.231L384.821 369.249C382.41 369.767 380.876 372.146 381.398 374.552L397.625 449.62C398.147 452.027 400.523 453.56 402.935 453.039L403.002 453.024C405.414 452.503 406.948 450.128 406.426 447.718L390.199 372.653Z" fill="#FF8266" stroke="#294064" stroke-miterlimit="10"/>
<path d="M332.045 424.985L346.799 478.114C347.274 479.883 346.483 483.865 343.764 484.351L339.371 485.482C336.51 485.993 333.817 484.894 333.355 483.026L318.382 422.533L332.045 424.985Z" fill="white" stroke="#294064" stroke-miterlimit="10" stroke-linecap="round"/>
<path d="M341.518 442.805C341.518 442.805 323.067 450.924 311.081 442.072C302.7 435.884 301.91 424.721 307.863 416.475C315.208 406.298 332.728 405.798 332.728 405.798L341.518 442.805Z" fill="#FF8266" stroke="#294064" stroke-miterlimit="10" stroke-linecap="round"/>
<path d="M394.829 445.437L391.542 431.025L341.479 435.035L342.864 440.87L394.829 445.437Z" fill="#FA91B6" stroke="#FA91B6" stroke-miterlimit="10" stroke-linecap="round"/>
<path d="M305.98 431.356C309.54 446.248 327.825 446.755 339.717 441.462L337.81 434.016C325.346 440.835 312.432 438.774 305.98 431.356Z" fill="#DF4D81" stroke="#DF4D81" stroke-miterlimit="10" stroke-linecap="round"/>
<path d="M402.138 420.546C405.263 418.093 406.359 414.034 405.809 409.04C405.809 409.04 404.325 412.402 400.467 413.093L402.138 420.546Z" fill="#CF3B6F"/>
<path d="M247.322 505.463C247.322 505.463 214.306 481.159 199.992 474.347C185.274 467.346 147.026 466.824 123.838 471.923C134.676 472.557 146.61 482.921 153.155 492.837C160.009 503.225 165.286 516.76 165.286 516.76C165.286 516.76 177.661 517.715 187.67 523.843C195.973 528.932 212.968 571.528 212.968 571.528C212.968 571.528 203.21 596.97 202.279 613.38C202.279 613.38 243.098 614.12 253.601 613.972C275.2 613.665 305.404 613.997 305.404 613.997C305.404 613.997 304.077 604.109 301.864 591.455C296.784 562.408 285.346 549.042 285.346 549.042C285.346 549.042 298.013 527.49 300.921 512.281C284.87 493.922 275.675 482.903 247.181 479.746C250.707 490.201 247.322 505.463 247.322 505.463Z" fill="#DB5E5E" stroke="#294064" stroke-miterlimit="10" stroke-linecap="round"/>
<path d="M139.438 470.122C144.892 471.888 152.764 478.104 159.072 486.762C167.556 498.411 167.674 504.321 173.731 517.394" stroke="#FFF4E8" stroke-miterlimit="10" stroke-linecap="round"/>
<path d="M159.624 469.226C167.939 483.889 192.625 499.774 200.031 510.127C206.538 519.222 209.841 527.655 214.344 540.087C218.019 550.236 223.224 559.775 227.078 569.856C227.78 571.692 228.574 573.824 227.953 575.688C227.136 578.141 223.502 579.628 223.116 581.749C222.73 583.867 226.55 582.13 226.409 584.17C226.268 586.21 222.943 587.912 222.552 589.91C222.161 591.905 224.629 591.108 224.845 592.155C225.465 595.164 223.698 609.799 223.44 612.861" stroke="#FFF4E8" stroke-miterlimit="10" stroke-linecap="round"/>
<path d="M177.081 470.136C183.289 477.878 187.835 485.166 194.796 492.234C202.439 499.997 212.361 505.329 219.779 513.303C223.271 517.056 225.529 521.968 227.015 526.874C229.843 536.212 231.242 545.941 232.59 555.603C234.177 566.985 234.206 578.547 235.81 589.925C236.13 592.191 240.242 589.14 241.184 592.047C242.126 594.954 238.895 599.281 239.577 601.55C240.259 603.823 241.745 601.343 243.914 601.135C246.115 601.994 242.05 613.038 242.033 613.415" stroke="#FFF4E8" stroke-miterlimit="10" stroke-linecap="round"/>
<path d="M198.517 474.619C203.157 482.498 208.433 488.682 220.11 496.537C230.421 503.475 234.961 503.059 240.91 508.373C244.707 511.763 246.609 516.933 248.313 521.729C250.083 526.715 249.132 532.462 251.197 537.332C251.839 538.847 255.172 537.17 255.744 539.256C256.315 541.342 253.266 543.964 253.483 545.677C253.7 547.393 256.758 541.695 256.612 546.114C256.302 555.48 262.157 569.741 263.683 581.757" stroke="#FFF4E8" stroke-miterlimit="10" stroke-linecap="round"/>
<path d="M254.146 481.779C260.508 495.208 258.893 497.488 260.988 502.763C262.351 506.199 265.305 508.789 267.077 512.031C270.122 517.606 268.22 524.717 269.593 530.915C269.884 532.229 272.089 532.529 272.372 533.847C272.652 535.14 270.835 536.278 271.031 537.589C272.307 546.134 275.119 554.387 276.709 562.876C278.755 573.796 280.088 584.84 281.935 595.796C282.039 596.412 282.037 597.223 282.56 597.565C283.547 598.213 285.413 597.427 285.989 598.46C287.022 600.306 286.01 602.741 286.591 604.778C286.899 605.86 288.505 606.388 288.573 607.512C288.657 608.925 288.841 610.92 289.037 612.897" stroke="#FFF4E8" stroke-miterlimit="10" stroke-linecap="round"/>
<path d="M264.854 484.485C271.463 490.479 276.495 499.352 280.011 509.451C284.004 520.921 286.925 533.089 285.538 547.286" stroke="#FFF4E8" stroke-miterlimit="10" stroke-linecap="round"/>
<path d="M288.741 500.378C293.767 512.168 291.315 531.331 286.061 546.342" stroke="#FFF4E8" stroke-miterlimit="10" stroke-linecap="round"/>
<path d="M246.796 505.043C246.796 505.043 259.244 513.806 262.07 517.912C263.298 519.695 261.071 524.445 262.001 528.674C262.509 530.982 266.031 531.785 266.597 534.083C266.979 535.633 264.215 536.69 264.379 538.332C264.543 539.971 266.923 539.463 267.252 540.647C267.787 542.571 266.308 544.647 266.681 546.61C270.384 566.079 276.626 582.059 278.954 613.566" stroke="#294064" stroke-miterlimit="10" stroke-linecap="round"/>
<path d="M345.663 469.512C342.568 469.784 340.841 470.541 338.105 472.881C330.793 479.136 342.362 479.027 346.144 475.718C349.061 473.163 350.62 469.079 345.663 469.512Z" fill="#FFC6B2" stroke="#294064" stroke-miterlimit="10" stroke-linecap="round"/>
<path d="M333.394 472.508C332.609 469.379 341.132 465.408 343.775 464.576C344.955 464.206 347.659 462.507 348.365 465.295C349.839 471.123 334.663 477.554 333.394 472.508Z" fill="#FFC6B2" stroke="#294064" stroke-miterlimit="10" stroke-linecap="round"/>
<path d="M333.6 466.996C333.657 464.107 338.674 462.652 340.34 461.101C348.323 453.666 349.754 464.015 340.916 467.631C339.264 468.307 333.545 469.759 333.6 466.996Z" fill="#FFC6B2" stroke="#294064" stroke-miterlimit="10" stroke-linecap="round"/>
<path d="M334.82 461.425C333.675 459.427 336.188 456.217 338.025 453.465C340.325 450.019 344.271 447.569 344.865 452.112C345.556 457.39 336.49 464.339 334.82 461.425Z" fill="#FFC6B2" stroke="#294064" stroke-miterlimit="10" stroke-linecap="round"/>
<path opacity="0.184109" d="M216.824 537.262C227.36 536.29 237.86 533.918 248.431 534.348C259.536 534.803 270.35 538.048 281.31 539.894C249.067 538.577 249.067 538.577 216.824 537.262Z" fill="#992C53" stroke="#992C53" stroke-miterlimit="10" stroke-linecap="round"/>
<path opacity="0.184109" d="M232.712 543.374C240.539 541.316 247.368 542.289 255.906 542.659C258.555 542.772 261.244 542.853 263.814 543.501C257.039 546.239 251.602 546.743 244.313 545.524C240.434 544.875 236.579 544.089 232.712 543.374Z" fill="#992C53" stroke="#992C53" stroke-miterlimit="10" stroke-linecap="round"/>
<path opacity="0.184109" d="M288.34 555.279C287.225 555.441 286.586 555.522 285.475 555.709C283.246 556.083 280.468 556.96 283.948 558.489C286.293 559.522 288.666 560.488 291.042 561.446C291.268 561.538 291.748 562.077 291.984 562.14C290.833 559.508 290.343 559.004 288.34 555.279Z" fill="#992C53" stroke="#992C53" stroke-miterlimit="10" stroke-linecap="round"/>
<path opacity="0.184109" d="M286.909 579.826C286.39 580.921 293.076 584.28 296.647 585.386C298.617 585.996 299.001 586.109 299.908 586.38C299.693 584.646 299.067 581.933 298.451 580.298C297.686 578.272 287.428 578.73 286.909 579.826Z" fill="#992C53" stroke="#992C53" stroke-miterlimit="10" stroke-linecap="round"/>
<path opacity="0.184109" d="M190.511 525.958C186.819 524.231 185.383 518.374 182.847 515.157C179.087 510.382 174.487 506.238 169.468 502.831C168.388 502.098 161.018 497.88 160.009 500.022C159.999 500.043 161.61 501.477 162.669 502.443C164.518 504.124 168.387 507.19 169.067 509.727C169.154 510.051 168.846 509.98 168.615 509.991C167.604 510.037 163.535 507.641 162.863 508.427C162.496 508.856 164.372 511.806 164.434 511.979C166.509 517.747 166.58 515.851 172.343 517.588C176.67 518.896 181.177 520.358 185.262 522.282C185.33 522.314 192.42 526.853 190.511 525.958Z" fill="#992C53" stroke="#992C53" stroke-miterlimit="10" stroke-linecap="round"/>
<path opacity="0.184109" d="M270.8 486.959C274.583 492.256 277.031 496.054 280.317 501.671C282.667 505.692 284.539 510.037 285.777 514.526C288.608 524.791 287.019 535.845 286.253 546.466C289.325 540.698 291.982 534.323 294.422 528.258C296.554 522.959 299.985 513.462 299.985 513.462C299.985 513.462 297.379 510.188 296.412 509.177C291.408 503.926 288.012 499.229 282.384 494.652C278.413 491.424 276.793 490.43 270.8 486.959Z" fill="#992C53" stroke="#992C53" stroke-miterlimit="10" stroke-linecap="round"/>
<path d="M172.396 504.955C178.596 510.065 186.202 518.822 190.091 526.102" stroke="#294064" stroke-miterlimit="10" stroke-linecap="round"/>
<path d="M175.808 516.384C179.793 516.598 185.54 521.098 188.056 523.607" stroke="#294064" stroke-miterlimit="10" stroke-linecap="round"/>
<path d="M280.232 502.619C289.058 517.158 288.676 532.874 284.949 548.897" stroke="#294064" stroke-miterlimit="10" stroke-linecap="round"/>
<path d="M292.568 522.038C291.949 534.854 288.986 541.616 285.421 548.118" stroke="#294064" stroke-miterlimit="10" stroke-linecap="round"/>
<path d="M152.891 505.036C152.585 496.142 147.188 486.991 138.396 482.959" stroke="#294064" stroke-miterlimit="10" stroke-linecap="round"/>
<path d="M306.773 531.076C296.879 542.652 300.602 554.933 304.542 560.233" stroke="#294064" stroke-miterlimit="10" stroke-linecap="round"/>
<path d="M298.216 576.809C298.216 576.809 285.688 565.959 259.372 567.298C226.571 568.969 210.046 581.263 210.046 581.263L212.925 571.474L210.812 566.185C210.812 566.185 226.775 556.389 260.367 556.41C274.003 556.417 286.686 559.197 293.036 562.555L298.216 576.809Z" fill="#C1474A" stroke="#294064" stroke-miterlimit="10" stroke-linecap="round"/>
<path d="M256.282 568.12C257.629 564.469 257.336 556.484 255.916 556.269C247.349 554.962 244.416 563.571 248.408 590.715C251.566 612.189 235.281 614.786 238.169 621.834C239.507 625.097 245.317 628.124 249.053 622.306C252.95 616.238 256.704 609.451 255.906 596.296C255.307 586.44 251.337 569.145 256.282 568.12Z" fill="#C1474A" stroke="#294064" stroke-miterlimit="10" stroke-linecap="round"/>
<path d="M265.057 563.687C263.558 563.56 261.927 562.587 260.561 563.302C259.29 563.968 258.046 565.688 258.209 567.281C259.839 583.223 261.713 599.288 265.811 614.638C267.553 621.16 268.55 623.514 271.891 624.955C275.232 626.397 280.219 622.351 279.176 620.402C266.776 597.233 267.241 579.766 265.057 563.687Z" fill="#C1474A" stroke="#294064" stroke-miterlimit="10" stroke-linecap="round"/>
<path d="M269.567 555.729C261.393 557.185 251.197 553.263 254.356 556.614C257.498 559.711 257.445 564.958 255.673 568.369C255.437 570.159 264.993 568.366 270.284 569.493C273.12 570.1 271.434 555.398 269.567 555.729Z" fill="#C1474A" stroke="#294064" stroke-miterlimit="10" stroke-linecap="round"/>
<path d="M234.143 442.84C234.143 442.84 237.434 440 240.756 441.367C242.22 441.97 242.175 443.643 242.175 443.643" stroke="#294064" stroke-miterlimit="10" stroke-linecap="round"/>
<path d="M222.708 441.41C222.738 438.196 225.368 435.617 228.583 435.645C231.799 435.677 234.381 438.306 234.352 441.516C234.322 444.729 231.692 447.312 228.476 447.281C225.261 447.252 222.678 444.624 222.708 441.41Z" fill="#9A8756" fill-opacity="0.682432" stroke="#294064" stroke-miterlimit="10"/>
<path d="M241.8 445.043C241.83 441.829 244.46 439.246 247.675 439.278C250.891 439.306 253.473 441.935 253.444 445.148C253.414 448.362 250.784 450.941 247.568 450.913C244.353 450.882 241.771 448.253 241.8 445.043Z" fill="#9A8B56" fill-opacity="0.682432" stroke="#294064" stroke-miterlimit="10"/>
<path opacity="0.341085" d="M251.61 441.192L252.505 442.253L244.36 449.117L243.465 448.057L251.61 441.192Z" fill="white" stroke="white" stroke-miterlimit="10"/>
<path opacity="0.341085" d="M231.98 437.424L232.874 438.485L224.729 445.349L223.834 444.292L231.98 437.424Z" fill="white" stroke="white" stroke-miterlimit="10"/>
<path opacity="0.341085" d="M253.003 443.901L253.09 444.004L245.751 450.191L245.663 450.089L253.003 443.901Z" fill="white" stroke="white" stroke-miterlimit="10"/>
<path opacity="0.341085" d="M233.707 439.852L233.826 439.993L226.201 446.424L226.081 446.28L233.707 439.852Z" fill="white" stroke="white" stroke-miterlimit="10"/>
<path d="M274.972 563.373C274.972 563.373 280.103 563.912 285.316 565.463C289.888 566.827 293.404 568.187 293.404 568.187" stroke="#294064" stroke-miterlimit="10" stroke-linecap="round"/>
<path d="M238.395 563.373C238.395 563.373 231.817 564.726 226.135 566.4C220.453 568.074 215.668 570.072 215.668 570.072" stroke="#294064" stroke-miterlimit="10" stroke-linecap="round"/>
<path d="M253.024 591.102C253.965 593.223 253.868 603.118 253.192 605.969C251.162 614.525 247.046 619.941 247.046 619.941" stroke="#294064" stroke-miterlimit="10" stroke-linecap="round"/>
<path d="M258.775 569.674C262.522 572.908 265.95 573.137 265.95 573.137L265.456 569.635C265.456 569.635 261.086 569.652 258.775 569.674Z" fill="#294064" stroke="#294064" stroke-miterlimit="10" stroke-linecap="round"/>
<path d="M262.029 577.912C262.909 583.321 263.366 586.753 264.123 592.659C264.487 595.496 265.147 601.152 265.837 602.512" stroke="#294064" stroke-miterlimit="10" stroke-linecap="round"/>
<path d="M266.401 605.313C267.354 608.735 269.161 618.172 271.492 620.839" stroke="#294064" stroke-miterlimit="10" stroke-linecap="round"/>
<g style="mix-blend-mode:overlay">
<path d="M222.708 441.41C222.738 438.196 225.368 435.617 228.583 435.645C231.799 435.677 234.381 438.306 234.352 441.516C234.322 444.729 231.692 447.312 228.476 447.281C225.261 447.252 222.678 444.624 222.708 441.41Z" fill="#369ADC"/>
<path d="M222.708 441.41C222.738 438.196 225.368 435.617 228.583 435.645C231.799 435.677 234.381 438.306 234.352 441.516C234.322 444.729 231.692 447.312 228.476 447.281C225.261 447.252 222.678 444.624 222.708 441.41Z" stroke="#294064" stroke-miterlimit="10"/>
</g>
<g style="mix-blend-mode:overlay">
<path d="M241.8 445.043C241.83 441.829 244.46 439.246 247.675 439.278C250.891 439.306 253.473 441.935 253.444 445.148C253.414 448.362 250.784 450.941 247.568 450.913C244.353 450.882 241.771 448.253 241.8 445.043Z" fill="#369ADC"/>
<path d="M241.8 445.043C241.83 441.829 244.46 439.246 247.675 439.278C250.891 439.306 253.473 441.935 253.444 445.148C253.414 448.362 250.784 450.941 247.568 450.913C244.353 450.882 241.771 448.253 241.8 445.043Z" stroke="#294064" stroke-miterlimit="10"/>
</g>
<path d="M239.436 437.643C239.436 437.643 239.136 440.011 239.104 441.202C239.014 444.589 243.756 443.75 243.846 446.259C243.939 448.877 241.214 449.642 238.034 447.954" fill="#FFC6B2"/>
<path d="M239.436 437.643C239.436 437.643 239.136 440.011 239.104 441.202C239.014 444.589 243.756 443.75 243.846 446.259C243.939 448.877 241.214 449.642 238.034 447.954" stroke="#294064" stroke-miterlimit="10" stroke-linecap="round"/>
<path d="M225.202 474.365C224.942 474.424 222.435 477.578 222.021 478.082C221.968 478.146 221.717 478.442 221.802 478.568C222.013 478.896 227.13 480.055 227.804 480.193C229.486 480.538 230.487 480.704 232.173 480.718C233.163 480.729 234.254 480.676 235.255 480.517C239.67 479.819 237.578 478.135 237.945 474.502" fill="#FFC6B2"/>
<path d="M225.202 474.365C224.942 474.424 222.435 477.578 222.021 478.082C221.968 478.146 221.717 478.442 221.802 478.568C222.013 478.896 227.13 480.055 227.804 480.193C229.486 480.538 230.487 480.704 232.173 480.718C233.163 480.729 234.254 480.676 235.255 480.517C239.67 479.819 237.578 478.135 237.945 474.502" stroke="#FFC6B2" stroke-miterlimit="10" stroke-linecap="round"/>
<path d="M170.071 557.636C170.771 560.758 169.871 564.67 168.958 567.669C168.1 570.488 165.841 572.845 166.442 576.041C167.012 579.068 169.373 579.597 171.239 581.471C173.024 583.268 174.346 585.992 176.648 587.198C177.945 587.874 179.867 587.391 180.501 585.954C181.869 582.853 180.616 578.391 180.128 575.255C178.95 567.676 176.252 560.913 171.783 554.729" fill="#FFC6B2"/>
<path d="M170.071 557.636C170.771 560.758 169.871 564.67 168.958 567.669C168.1 570.488 165.841 572.845 166.442 576.041C167.012 579.068 169.373 579.597 171.239 581.471C173.024 583.268 174.346 585.992 176.648 587.198C177.945 587.874 179.867 587.391 180.501 585.954C181.869 582.853 180.616 578.391 180.128 575.255C178.95 567.676 176.252 560.913 171.783 554.729" stroke="#FFC6B2" stroke-miterlimit="10" stroke-linecap="round"/>
<path d="M313.103 489.126L311.213 500.106C311.213 500.106 321.859 506.981 324.082 507.475C325.511 507.795 327.361 508.888 328.869 508.483C331.228 507.848 332.558 504.395 332.558 504.395L332.148 485.373" fill="#FFC6B2"/>
<path d="M313.103 489.126L311.213 500.106C311.213 500.106 321.859 506.981 324.082 507.475C325.511 507.795 327.361 508.888 328.869 508.483C331.228 507.848 332.558 504.395 332.558 504.395L332.148 485.373" stroke="#FFC6B2" stroke-miterlimit="10" stroke-linecap="round"/>
<path d="M195.156 438.077L193.603 437.277C192.071 437.971 189.941 440.804 189.178 442.052C185.674 447.792 189.721 454.237 196.005 453.525C202.037 452.842 201.851 443.44 201.437 439.529C201.296 438.19 200.547 435.973 199.63 435.628C197.828 434.951 197.67 437.217 197.859 438.257C198.516 441.858 199.011 444.716 197.135 448.152C195.135 451.813 190.362 448.581 191.363 444.811C192.196 441.675 195.496 439.377 195.156 438.077Z" fill="#FEDA8C" stroke="#294064" stroke-miterlimit="10" stroke-linecap="round"/>
<path d="M277.719 452.514C276.33 453.472 274.808 456.274 274.052 457.81C269.396 467.257 279.382 472.483 285.036 465.636C286.244 464.17 286.677 460.263 285.522 456.418C284.993 454.66 283.792 451.041 282.098 451.534C279.322 452.341 282.616 456.897 282.459 460.157C282.249 464.502 279.13 466.588 277.024 464.276C273.834 460.777 278.785 455.643 279.599 453.779L277.719 452.514Z" fill="#FEDA8C" stroke="#294064" stroke-miterlimit="10" stroke-linecap="round"/>
<path d="M328.919 408.589C328.919 408.589 326 409.096 323.707 409.688C321.581 410.242 316.177 411.563 312.917 415.464" stroke="white" stroke-miterlimit="10" stroke-linecap="round"/>
<path d="M309.886 418.43C306.459 423.568 306.728 429.897 307.395 431.923" stroke="white" stroke-miterlimit="10" stroke-linecap="round"/>
<path d="M336.591 407.866L346.367 402.267" stroke="white" stroke-miterlimit="10" stroke-linecap="round"/>
<path d="M350.931 399.582L376.38 385.085" stroke="white" stroke-miterlimit="10" stroke-linecap="round"/>
<path d="M404.692 405.607C404.692 405.607 403.295 399.74 397.35 397.34" stroke="white" stroke-miterlimit="10" stroke-linecap="round"/>
<path d="M115.994 647.688C116.116 647.688 116.254 647.656 116.41 647.593C116.565 647.529 116.704 647.459 116.825 647.381C118.965 646.018 120.819 644.583 122.386 643.086C123.953 641.588 125.163 640.048 126.017 638.47C126.871 636.887 127.298 635.288 127.298 633.674C127.298 632.666 127.136 631.743 126.814 630.904C126.492 630.065 126.044 629.339 125.471 628.726C124.898 628.11 124.226 627.637 123.456 627.303C122.686 626.971 121.853 626.802 120.957 626.802C119.849 626.802 118.874 627.084 118.032 627.651C117.19 628.215 116.838 629.043 116.044 629.005C115.14 628.966 114.81 628.226 113.968 627.655C113.126 627.088 112.147 626.802 111.031 626.802C110.136 626.802 109.305 626.971 108.538 627.303C107.772 627.637 107.1 628.11 106.523 628.726C105.946 629.339 105.497 630.065 105.175 630.904C104.852 631.743 104.691 632.666 104.691 633.674C104.691 635.288 105.117 636.887 105.971 638.47C106.825 640.048 108.037 641.588 109.608 643.086C111.179 644.583 113.035 646.018 115.175 647.381C115.296 647.459 115.435 647.529 115.59 647.593C115.746 647.656 115.88 647.688 115.994 647.688Z" fill="#FA91B6" stroke="#294064" stroke-miterlimit="10" stroke-linecap="round"/>
<path d="M308.997 649.031C309.265 649.031 309.518 648.939 309.757 648.759C309.995 648.576 310.368 648.238 310.874 647.748L315.243 643.449C315.31 643.375 315.377 643.375 315.444 643.449L319.813 647.748C320.32 648.231 320.69 648.566 320.925 648.752C321.16 648.939 321.415 649.031 321.691 649.031C322.063 649.031 322.354 648.915 322.562 648.675C322.771 648.435 322.875 648.1 322.875 647.671V628.286C322.875 627.218 322.611 626.418 322.082 625.883C321.553 625.347 320.763 625.079 319.713 625.079H310.975C309.924 625.079 309.135 625.347 308.606 625.883C308.077 626.418 307.812 627.218 307.812 628.286V647.671C307.812 648.1 307.917 648.435 308.125 648.675C308.334 648.915 308.625 649.031 308.997 649.031ZM309.913 646.018C309.831 646.092 309.755 646.12 309.684 646.102C309.613 646.081 309.578 646.018 309.578 645.905V628.307C309.578 627.824 309.703 627.458 309.953 627.211C310.202 626.968 310.572 626.845 311.064 626.845H319.635C320.119 626.845 320.486 626.968 320.735 627.211C320.985 627.458 321.11 627.824 321.11 628.307V645.905C321.11 646.018 321.074 646.081 321.003 646.102C320.933 646.12 320.856 646.092 320.774 646.018L315.936 641.328C315.757 641.155 315.56 641.07 315.344 641.07C315.128 641.07 314.93 641.155 314.752 641.328L309.913 646.018Z" fill="#FA91B6" stroke="#294064" stroke-miterlimit="10" stroke-linecap="round"/>
<path d="M309.471 626.999C308.993 626.819 308.934 628.472 308.93 628.824C308.908 630.664 308.862 632.499 308.824 634.346C308.76 637.482 308.571 640.756 308.964 643.878C309.062 644.653 308.669 645.936 309.232 646.574C309.527 646.905 310.418 646.07 310.621 645.862C311.763 644.681 313.094 643.635 314.407 642.623C314.557 642.507 315.572 641.418 315.745 641.524C316.209 641.809 316.546 642.412 316.901 642.824C317.809 643.881 318.97 644.91 320.01 645.851C320.031 645.869 321.267 647.113 321.4 646.856C321.798 646.077 321.5 644.826 321.441 644.044C321.278 641.869 321.217 639.699 321.119 637.528C321.068 636.404 321.124 635.283 321.194 634.159C321.218 633.793 321.281 633.444 321.281 633.074C321.282 632.979 321.276 632.693 321.254 632.785C320.885 634.374 321.27 636.414 321.372 638.057C321.409 638.645 321.349 639.23 321.363 639.815C321.375 640.301 321.383 640.03 321.462 640.403C321.476 640.47 321.495 640.671 321.51 640.604C321.922 638.828 321.665 636.682 321.496 634.889C321.367 633.514 321.315 632.006 321.401 630.632C321.473 629.501 321.76 628.193 321.402 627.083C321.144 626.287 318.98 626.22 318.362 626.192C315.983 626.076 313.69 626.417 311.317 626.343C310.71 626.326 309.688 627.08 309.471 626.999Z" fill="#FA91B6" stroke="#FA91B6" stroke-miterlimit="10" stroke-linecap="round"/>
<path d="M335.934 482.988C338.441 483.918 341.239 482.889 343.682 482.245" stroke="#294064" stroke-miterlimit="10" stroke-linecap="round"/>
<path d="M338.187 447.146C333.551 452.305 326.371 454.603 326.371 454.603L324.536 446.78L337.477 445.053L338.187 447.146Z" fill="#294064" stroke="#294064" stroke-miterlimit="10" stroke-linecap="round"/>
<path d="M199.766 438.68C200.083 440.033 200.233 441.583 200.17 442.908" stroke="white" stroke-miterlimit="10" stroke-linecap="round"/>
<path d="M199.963 446.209C199.963 446.209 199.984 448.306 198.662 450.434C197.493 452.312 196.151 452.045 196.151 452.045" stroke="white" stroke-miterlimit="10" stroke-linecap="round"/>
<path d="M282.789 453.568C283.522 454.734 284.203 456.553 284.365 457.796" stroke="white" stroke-miterlimit="10" stroke-linecap="round"/>
<path d="M284.716 459.52C284.963 460.309 284.92 462.3 284.69 463.082" stroke="white" stroke-miterlimit="10" stroke-linecap="round"/>
<path opacity="0.8" d="M-10.6399 411.633C42.602 396.353 59.7539 358.859 56.8024 360.451C43.4674 367.644 32.0633 369.399 28.1919 369.188C17.8557 368.624 10.7848 357.932 18.4629 348.681C23.8252 342.221 30.9354 344.952 36.2067 347.723C40.2264 349.837 42.7274 352.601 41.382 353.901C39.4415 355.775 36.0013 351.6 35.3267 350.803C31.5754 346.371 24.5372 332.094 37.2248 327.734C44.3128 325.298 50.7405 333.715 54.2 344.182C55.5803 348.359 56.486 353.562 56.486 353.562C56.486 353.562 60.5537 346.326 61.9536 338.993C63.683 329.934 63.7437 321.98 61.2738 313.135C51.5519 278.318 13.1323 255.128 -8.42342 255.966" stroke="white" stroke-miterlimit="10" stroke-linecap="round" stroke-linejoin="round" stroke-dasharray="10 10"/>
</g>
</g>
<defs>
<clipPath id="clip0_1091_5397">
<path d="M0 0H414V841C414 852.046 405.046 861 394 861H20C8.95432 861 0 852.046 0 841V0Z" fill="white"/>
</clipPath>
<clipPath id="clip1_1091_5397">
<path d="M2 -16H413V816C413 827.046 404.046 836 393 836H22C10.9543 836 2 827.046 2 816V-16Z" fill="white"/>
</clipPath>
</defs>
</svg>
