<svg width="390" height="809" viewBox="0 0 390 809" fill="none" xmlns="http://www.w3.org/2000/svg">
<g clip-path="url(#clip0_19430_176391)">
<path d="M-3.49691e-06 -5.99998C-1.56562e-06 -17.0457 8.9543 -26 20 -26L373 -25.9999C384.046 -25.9999 393 -17.0456 393 -5.99993L393 793C393 804.046 384.046 813 373 813L19.9999 813C8.95416 813 -0.00014513 804.046 -0.000143199 793L-3.49691e-06 -5.99998Z" fill="url(#paint0_linear_19430_176391)"/>
<path d="M214.266 440.224C212.594 440.2 206.831 444.134 206.149 446.121C202.34 457.241 208.453 458.569 209.45 465.554C210.45 472.54 206.928 473.084 209.25 474.012C211.302 474.831 214.266 474.051 214.266 474.051C214.266 474.051 215.89 475.642 217.481 477.506C220.266 480.773 222.358 482.458 226.965 482.801C232.041 483.178 238.335 477.011 238.335 477.011L240.316 479.874C240.387 479.864 243.565 484.313 243.641 484.303C243.835 484.276 242.871 483.849 242.972 483.834C243.533 483.753 243.499 482.326 243.717 482.237C248.164 480.444 250.851 474.298 254.293 470.22L248.162 462.103C248.162 462.103 246.591 446.109 237.698 443.875C233.761 442.886 229.727 442.848 225.775 441.955C223.8 441.509 221.979 440.168 219.989 439.869C218.065 439.58 216.188 440.252 214.266 440.224Z" fill="#FFC6B2" stroke="#2E4166" stroke-width="0.626785" stroke-miterlimit="10" stroke-linecap="round"/>
<path d="M215.127 463.912C214.701 464.095 214.072 463.6 213.728 462.806C213.382 462.012 213.447 461.221 213.875 461.038C214.303 460.855 214.93 461.35 215.276 462.144C215.622 462.938 215.554 463.729 215.127 463.912Z" fill="#294064"/>
<path d="M222.181 472.949C222.057 472.907 221.932 472.866 221.808 472.824L222.181 472.949Z" fill="#294064"/>
<path d="M218.446 474.974C218.446 474.974 220.255 474.883 221.354 473.731C222.453 472.578 222.841 470.365 222.841 470.365" stroke="#2E4166" stroke-width="0.626785" stroke-miterlimit="10" stroke-linecap="round"/>
<path d="M210.645 460.327C211.547 458.11 215.359 458.084 217.211 458.837" stroke="#2E4166" stroke-width="0.626785" stroke-miterlimit="10" stroke-linecap="round"/>
<path d="M225.276 464.878C224.084 466.288 222.655 467.039 222.087 466.558C221.517 466.076 222.023 464.543 223.217 463.134C224.41 461.724 225.837 460.973 226.407 461.454C226.977 461.936 226.471 463.469 225.276 464.878Z" fill="#EDA6BF" stroke="#EDA6BF" stroke-width="0.626785" stroke-miterlimit="10"/>
<path d="M240.794 452.167C239.555 449.088 236.054 447.595 232.975 448.834C229.897 450.073 228.404 453.574 229.643 456.653C230.882 459.733 234.382 461.225 237.462 459.986C240.542 458.747 242.033 455.247 240.794 452.167Z" fill="#FFC6B2" stroke="#294064" stroke-width="0.596476" stroke-miterlimit="10" stroke-linecap="round"/>
<path d="M237.602 453.676C236.975 452.118 235.206 451.364 233.647 451.99C232.091 452.616 231.334 454.387 231.961 455.944C232.588 457.502 234.359 458.257 235.916 457.63C237.474 457.004 238.229 455.233 237.602 453.676Z" fill="#DAAA99" stroke="#DAAA99" stroke-width="0.708797" stroke-miterlimit="10" stroke-linecap="round"/>
<path d="M244.974 471.672C244.974 471.672 242.846 473.495 241.742 474.359C241.445 474.591 238.983 476.609 238.983 476.609L240.476 478.723C240.476 478.723 241.994 477.781 243.119 476.018C244.243 474.256 244.974 471.672 244.974 471.672Z" fill="#DAAA99" stroke="#DAAA99" stroke-width="0.708797" stroke-miterlimit="10" stroke-linecap="round"/>
<path d="M236.888 451.788C235.222 450.963 232.437 452.103 231.5 453.654" stroke="#294064" stroke-width="0.708797" stroke-miterlimit="10" stroke-linecap="round"/>
<path d="M233.921 451.77C235.845 451.923 237.492 454.509 237.084 456.32" stroke="#294064" stroke-width="0.708797" stroke-miterlimit="10" stroke-linecap="round"/>
<path d="M231.207 418.066C230.744 418.108 230.284 418.169 229.831 418.249C229.224 418.355 228.629 418.494 228.056 418.661C217.981 421.591 215.878 427.776 209.557 431.624C204.423 434.75 200.804 431.831 194.043 440.496C192.689 442.231 192.376 444.899 192.983 447.013C193.658 449.359 195.793 451.06 196.69 453.33C197.689 455.866 196.601 458.007 197.613 460.538C198.321 462.315 199.727 464.419 202.446 464.963C205.164 465.508 206.578 463.109 208.486 462.714C207.432 459.568 206.562 458.647 206.159 455.23C205.664 451.018 207.7 449.901 209.738 447.8C211.582 449.605 213.323 450.58 215.434 451.062C221.302 452.401 224.927 450.318 224.927 450.318C226.444 456.251 229.102 458.528 229.102 458.528C229.102 458.528 227.556 452.91 230.287 450.32C233.019 447.731 236.958 447.486 239.521 450.058C242.157 452.704 240.492 455.927 242.388 458.61C246.032 463.769 248.171 463.546 252.45 468.191C252.317 457.522 254.74 456.523 257.246 449.009C259.385 442.595 254.195 433.392 254.195 433.392C254.195 433.392 252.704 429.884 247.351 424.403C245.597 422.609 241.534 419.494 235.323 418.252C234.006 417.989 232.595 417.94 231.207 418.066Z" fill="#434343" stroke="#294064" stroke-width="0.456136" stroke-miterlimit="10" stroke-linecap="round"/>
<path d="M230.855 456.768C231.043 456.153 229.934 456.67 229.865 457.186C229.762 457.964 229.969 459.073 230.289 459.762C230.545 460.314 230.992 461.449 231.526 462.041C232.444 463.062 234.361 463.726 235.555 462.784C236.134 462.328 236.858 460.736 235.9 460.286C235.419 460.059 234.815 460.087 234.297 460.005C233.736 459.917 233.097 459.474 232.637 459.162C231.269 458.234 231.67 456.287 229.748 456.763" fill="#FFC6B2"/>
<path d="M230.855 456.768C231.043 456.153 229.934 456.67 229.865 457.186C229.762 457.964 229.969 459.073 230.289 459.762C230.545 460.314 230.992 461.449 231.526 462.041C232.444 463.062 234.361 463.726 235.555 462.784C236.134 462.328 236.858 460.736 235.9 460.286C235.419 460.059 234.815 460.087 234.297 460.005C233.736 459.917 233.097 459.474 232.637 459.162C231.269 458.234 231.67 456.287 229.748 456.763" stroke="#FFC6B2" stroke-width="0.424787" stroke-miterlimit="10" stroke-linecap="round"/>
<path d="M230.117 456.592C229.805 456.757 228.857 457.811 229.819 457.908L230.117 456.592Z" fill="#FFC6B2"/>
<path d="M230.117 456.592C229.805 456.757 228.857 457.811 229.819 457.908" stroke="#FFC6B2" stroke-width="0.424787" stroke-miterlimit="10" stroke-linecap="round"/>
<path d="M229.522 457.554C229.187 456.92 230.147 456.287 230.718 456.407L229.522 457.554Z" fill="#FFC6B2"/>
<path d="M229.522 457.554C229.187 456.92 230.147 456.287 230.718 456.407" stroke="#FFC6B2" stroke-width="0.424787" stroke-miterlimit="10" stroke-linecap="round"/>
<path d="M207.957 498.119C207.009 500.06 206.837 504.138 206.859 506.424C206.882 508.973 208.266 511.912 208.832 514.387C210.3 520.804 215.492 534.008 223.72 533.75C227.037 533.646 231.844 528.315 233.702 525.868C236.044 522.785 236.434 515.403 235.923 511.747C235.61 509.5 234.503 506.099 235.067 503.746" fill="#EBD9E5"/>
<path d="M207.957 498.119C207.009 500.06 206.837 504.138 206.859 506.424C206.882 508.973 208.266 511.912 208.832 514.387C210.3 520.804 215.492 534.008 223.72 533.75C227.037 533.646 231.844 528.315 233.702 525.868C236.044 522.785 236.434 515.403 235.923 511.747C235.61 509.5 234.503 506.099 235.067 503.746" stroke="#294064" stroke-width="0.532508" stroke-miterlimit="10" stroke-linecap="round"/>
<path d="M222.681 499.879C220.297 502.343 216.254 504.412 213.355 506.058C202.602 512.163 190.049 514.431 178.089 516.946C173.597 517.89 169.309 519.179 164.874 520.308C163.783 520.585 161.267 520.507 160.441 521.516C159.824 522.271 162.043 527.27 162.386 528.207C164.21 533.197 170.068 543.222 175.919 544.047C178.511 544.412 182.166 543.026 184.627 542.593C187.708 542.05 190.614 541.653 193.679 540.958C196.613 540.293 199.718 540.149 202.6 539.282C209.356 537.251 215.666 534.868 222.122 531.974C226.207 530.143 231.473 527.813 234.572 524.608" fill="#FFC6B2"/>
<path d="M222.681 499.879C220.297 502.343 216.254 504.412 213.355 506.058C202.602 512.163 190.049 514.431 178.089 516.946C173.597 517.89 169.309 519.179 164.874 520.308C163.783 520.585 161.267 520.507 160.441 521.516C159.824 522.271 162.043 527.27 162.386 528.207C164.21 533.197 170.068 543.222 175.919 544.047C178.511 544.412 182.166 543.026 184.627 542.593C187.708 542.05 190.614 541.653 193.679 540.958C196.613 540.293 199.718 540.149 202.6 539.282C209.356 537.251 215.666 534.868 222.122 531.974C226.207 530.143 231.473 527.813 234.572 524.608" stroke="#294064" stroke-width="0.424787" stroke-miterlimit="10" stroke-linecap="round"/>
<path d="M106.311 496.017C101.311 496.669 92.2978 500.767 89.1601 504.488C85.9267 508.322 83.1017 511.808 82.1033 516.939C80.1124 527.17 86.4168 536.632 95.0537 541.581C105.761 547.716 123.749 555.084 135.997 549.791C138.349 548.775 140.406 546.967 142.432 545.453C150.364 539.523 158.312 532.146 160.862 522.202C161.98 517.841 160.258 512.65 159.367 508.395C158.36 503.583 157.75 498.194 155.192 493.873C153.856 491.614 150.427 489.936 148.388 488.367" fill="#2F2F2F"/>
<path d="M106.311 496.017C101.311 496.669 92.2978 500.767 89.1601 504.488C85.9267 508.322 83.1017 511.808 82.1033 516.939C80.1124 527.17 86.4168 536.632 95.0537 541.581C105.761 547.716 123.749 555.084 135.997 549.791C138.349 548.775 140.406 546.967 142.432 545.453C150.364 539.523 158.312 532.146 160.862 522.202C161.98 517.841 160.258 512.65 159.367 508.395C158.36 503.583 157.75 498.194 155.192 493.873C153.856 491.614 150.427 489.936 148.388 488.367" stroke="#294064" stroke-width="0.532508" stroke-miterlimit="10" stroke-linecap="round"/>
<path d="M200.112 510.746C202.638 512.413 205.396 515.402 206.252 518.787C207.533 523.861 205.783 528.977 200.895 531.274C190.143 536.323 178.856 529.18 175.169 518.794C174.423 516.69 173.715 514.568 173.134 512.412C172.696 510.787 172.766 509.094 174.079 508.006" fill="#2F2F2F"/>
<path d="M200.112 510.746C202.638 512.413 205.396 515.402 206.252 518.787C207.533 523.861 205.783 528.977 200.895 531.274C190.143 536.323 178.856 529.18 175.169 518.794C174.423 516.69 173.715 514.568 173.134 512.412C172.696 510.787 172.766 509.094 174.079 508.006" stroke="#294064" stroke-width="0.456136" stroke-miterlimit="10" stroke-linecap="round"/>
<path d="M196.858 540.553C196.372 545.173 194.842 548.287 190.933 550.716C187.023 553.147 183.797 555.223 178.969 554.985C172.065 554.643 165.742 549.07 163.694 542.806C163.265 541.493 162.45 538.73 162.917 537.385C164.831 531.871 174.513 526.015 180.145 527.684" fill="#2F2F2F"/>
<path d="M196.858 540.553C196.372 545.173 194.842 548.287 190.933 550.716C187.023 553.147 183.797 555.223 178.969 554.985C172.065 554.643 165.742 549.07 163.694 542.806C163.265 541.493 162.45 538.73 162.917 537.385C164.831 531.871 174.513 526.015 180.145 527.684" stroke="#294064" stroke-width="0.532508" stroke-miterlimit="10" stroke-linecap="round"/>
<path d="M166.754 547.738C170.485 557.315 165.342 563.586 154.819 563.049C149.923 562.799 146.333 559.814 141.837 557.911C140.857 557.497 135.024 552.99 135.024 554.09" fill="#2F2F2F"/>
<path d="M166.754 547.738C170.485 557.315 165.342 563.586 154.819 563.049C149.923 562.799 146.333 559.814 141.837 557.911C140.857 557.497 135.024 552.99 135.024 554.09" stroke="#294064" stroke-width="0.532508" stroke-miterlimit="10" stroke-linecap="round"/>
<path d="M178.749 454.367C181.623 451.79 180.609 446.512 179.787 443.628C179.069 441.112 178.479 438.981 176.676 437.122C174.104 434.469 170.462 432.715 166.776 432.781C152.557 433.038 152.047 438.631 150.154 445.6C148.114 453.109 158.186 460.042 164.661 460.151C170.591 460.25 174.472 458.204 178.749 454.367Z" fill="#2F2F2F" stroke="#294064" stroke-width="0.456136" stroke-miterlimit="10" stroke-linecap="round"/>
<path d="M195.724 488.409C197.263 488.954 200.24 491.513 200.419 497.376C200.598 503.239 197.62 507.416 196.088 508.787C195.997 508.866 195.866 508.855 195.784 508.766C195.708 508.679 195.71 508.542 195.799 508.463C197.254 507.162 200.169 503.104 199.995 497.387C199.819 491.671 196.929 489.286 195.582 488.809C195.47 488.769 195.41 488.648 195.449 488.536C195.49 488.425 195.614 488.37 195.724 488.409Z" fill="#2E4166"/>
<path d="M172.079 479.819C183.916 482.2 193.43 485.118 195.48 488.451C200.163 496.069 196.601 504.748 194.236 508.134C196.363 508.711 198.251 509.611 199.897 510.63C199.05 510.737 198.264 510.948 197.509 511.248C196.196 511.77 194.951 512.579 193.977 513.488C193.956 513.508 193.943 513.533 193.92 513.554C193.755 513.471 193.595 513.38 193.421 513.304C192.241 512.784 190.995 512.45 189.516 512.434C188.819 512.426 188.164 512.494 187.543 512.621C187.28 512.551 187.278 512.573 186.895 512.463C186.785 512.432 186.738 512.417 186.676 512.399C185.851 512.165 185.207 512.005 184.575 511.856C183.446 509.455 180.469 511.913 177.665 511.371C173.002 510.469 169.27 509.204 168.368 513.868C168.11 515.204 168.09 516.905 168.239 518.47C168.332 519.442 168.49 520.374 168.76 521.297C168.976 522.035 169.258 522.754 169.657 523.48C170.346 524.732 171.288 525.864 172.676 526.785C173.228 527.151 173.793 527.435 174.365 527.675C173.06 527.93 171.77 528.083 170.527 528.099C167.542 528.138 164.673 527.829 159.326 526.99C159.061 526.948 158.849 526.913 158.364 526.837C156.194 526.494 155.216 526.343 153.971 526.168C152.335 525.938 150.996 525.771 148.217 525.433C143.98 524.916 142.229 524.684 140.044 524.323C136.25 523.696 133.159 522.917 130.319 521.862C127.541 519.859 124.605 517.7 120.958 514.949C120.334 514.388 119.533 513.668 118.607 512.835C118.631 512.828 118.646 512.821 118.671 512.814C119.57 512.594 120.828 512.479 122.285 512.5C124.376 512.531 126.646 512.858 128.328 513.275C129.608 517.101 133.451 519.61 137.6 519.065C139.254 518.848 140.854 518.27 142.327 517.132C144.24 515.653 145.458 513.528 145.801 511.201C145.934 510.292 145.917 509.441 145.812 508.624C145.828 508.293 145.83 507.963 145.811 507.638C145.768 506.926 145.65 506.322 145.486 505.752C145.324 505.193 145.148 504.76 144.943 504.339C143.887 502.166 142.319 500.434 140.298 499.257C140.273 499.243 140.247 499.235 140.222 499.221C139.87 498.966 139.498 498.721 139.024 498.48C138.092 498.007 137.113 497.666 135.764 497.559C135.735 497.557 135.705 497.561 135.676 497.559C133.967 496.928 131.96 496.399 129.81 496.014C127.454 495.591 124.948 495.339 122.54 495.303C119.714 495.261 117.032 495.512 114.581 496.113C111.307 496.915 108.451 498.326 106.207 500.598C105.957 500.852 105.729 501.12 105.517 501.395C105.108 501.057 104.67 500.671 104.26 500.336C104.094 500.201 103.485 499.711 102.89 499.234C97.6412 493.054 98.5848 487.554 99.7378 485.555C105.39 470.798 119.492 471.426 125.837 473.586C137.797 474.588 156.859 476.757 172.079 479.819Z" fill="#2F2F2F"/>
<path d="M172.12 479.616C177.197 480.637 181.854 481.76 185.679 482.972C188.231 483.78 190.415 484.629 192.112 485.519C193.807 486.406 195.044 487.349 195.66 488.352C198.033 492.216 198.321 496.342 197.714 499.924C197.137 503.335 195.752 506.266 194.582 508.018C196.901 508.684 198.908 509.725 200.632 510.88C200.522 510.979 200.415 511.085 200.31 511.19C198.564 510.032 196.533 508.99 194.179 508.351C192.246 507.826 190.125 507.562 187.843 507.706C187.727 507.714 187.628 507.627 187.619 507.509C187.612 507.391 187.701 507.287 187.821 507.28C190.095 507.136 192.213 507.386 194.146 507.896C195.3 506.205 196.709 503.284 197.289 499.858C197.882 496.349 197.605 492.326 195.3 488.572C194.746 487.671 193.588 486.774 191.913 485.897C190.241 485.022 188.082 484.183 185.546 483.379C180.473 481.772 173.918 480.319 166.836 479.049C152.678 476.508 136.445 474.7 125.817 473.809L125.791 473.804L125.764 473.799C122.625 472.73 117.56 472.037 112.584 473.44C107.621 474.84 102.74 478.323 99.9429 485.636L99.9335 485.656L99.9199 485.67C98.8041 487.611 97.8193 493.136 103.268 499.359L103.492 499.616L103.388 499.645C102.86 499.221 102.436 498.88 102.099 498.607C97.5167 492.696 98.3935 487.479 99.5423 485.471C102.395 478.037 107.388 474.463 112.472 473.03C117.53 471.601 122.677 472.298 125.883 473.384C136.519 474.276 152.752 476.085 166.918 478.626C168.689 478.944 170.427 479.276 172.12 479.616Z" fill="#2E4166"/>
<path d="M167.059 457.683C180.932 460.367 191.094 469.717 191.71 479.588C191.732 479.936 191.735 480.054 191.733 480.403C192.459 479.503 193.979 477.946 197.467 479.179C200.951 480.412 200.408 484.023 199.703 485.673C198.889 487.069 196.46 489.428 193.258 487.69C192.708 487.428 191.474 486.596 190.94 485.374C190.837 485.68 190.718 485.984 190.596 486.282C187.212 494.421 176.801 499.43 164.8 498.808C164.488 500.821 163.624 505.356 162.671 507.409C161.475 509.975 151.888 511.385 149.603 503.951C151.027 502.362 151.832 498.01 152.059 496.032C142.301 492.148 135.534 484.784 134.651 476.996C134.594 476.509 134.558 476.02 134.551 475.531C133.336 476.459 130.25 477.777 127.605 475.633C124.96 473.489 125.811 470.296 126.567 468.966C127.423 467.734 129.964 465.843 133.24 468.154C133.8 468.496 134.974 469.517 135.212 470.868C135.468 470.218 135.586 469.779 135.814 469.254C139.845 460.046 152.961 454.957 167.059 457.683Z" fill="#FEC5B1"/>
<path d="M167.059 457.683C180.932 460.367 191.094 469.717 191.71 479.588C191.714 479.651 191.725 479.706 191.726 479.756C191.739 479.985 191.735 480.116 191.733 480.403C191.851 480.256 191.993 480.088 192.159 479.922C193.008 479.066 194.549 478.147 197.467 479.179C200.951 480.412 200.408 484.023 199.703 485.673C198.889 487.069 196.46 489.428 193.258 487.69C192.786 487.466 191.819 486.825 191.215 485.882C191.11 485.721 191.016 485.552 190.94 485.374C190.876 485.56 190.809 485.744 190.741 485.927C190.693 486.045 190.644 486.165 190.596 486.282C187.212 494.421 176.801 499.43 164.8 498.808C164.488 500.821 163.624 505.356 162.671 507.409C161.475 509.975 151.888 511.385 149.603 503.951C151.027 502.362 151.832 498.01 152.059 496.032C142.301 492.148 135.534 484.784 134.651 476.996C134.614 476.679 134.588 476.362 134.572 476.044C134.564 475.873 134.554 475.702 134.551 475.531C134.43 475.624 134.292 475.72 134.134 475.817C132.722 476.687 129.985 477.562 127.605 475.633C124.96 473.489 125.811 470.296 126.567 468.966C127.423 467.734 129.964 465.843 133.24 468.154C133.701 468.435 134.578 469.179 135.009 470.188C135.099 470.403 135.168 470.629 135.212 470.868C135.311 470.61 135.392 470.387 135.466 470.178C135.474 470.153 135.482 470.13 135.49 470.106C135.592 469.816 135.688 469.547 135.814 469.254C139.845 460.046 152.961 454.957 167.059 457.683ZM166.977 458.106C152.978 455.398 140.121 460.48 136.202 469.428C136.093 469.674 136.01 469.902 135.924 470.157C135.91 470.186 135.906 470.214 135.896 470.245C135.819 470.475 135.728 470.731 135.613 471.028L135.05 472.441L134.793 470.94C134.691 470.363 134.387 469.842 134.021 469.411C133.658 468.981 133.257 468.669 133.016 468.521L133.006 468.514L132.991 468.506C131.454 467.42 130.133 467.343 129.118 467.642C128.086 467.943 127.317 468.645 126.928 469.195C126.585 469.807 126.213 470.852 126.235 471.985C126.259 473.112 126.662 474.32 127.872 475.301C129.085 476.285 130.392 476.473 131.553 476.309C132.727 476.143 133.738 475.617 134.299 475.192L134.968 474.675L134.985 475.522C134.991 475.998 135.021 476.472 135.076 476.947C135.935 484.523 142.548 491.781 152.219 495.631L152.524 495.755L152.489 496.077C152.372 497.083 152.115 498.687 151.699 500.244C151.317 501.671 150.784 503.138 150.078 504.042C151.205 507.392 153.933 508.762 156.586 509.002C157.941 509.125 159.264 508.951 160.306 508.594C161.375 508.228 162.055 507.708 162.279 507.229C162.738 506.248 163.186 504.64 163.557 502.997C163.93 501.366 164.219 499.735 164.375 498.737L164.432 498.359L164.822 498.38C176.726 498.997 186.92 494.025 190.2 486.118C190.322 485.829 190.432 485.533 190.535 485.236L190.89 484.193L191.336 485.204C191.567 485.739 191.959 486.204 192.374 486.572C192.79 486.939 193.207 487.191 193.443 487.304L193.453 487.306L193.462 487.313C194.932 488.111 196.192 487.96 197.188 487.47C198.193 486.974 198.938 486.118 199.32 485.478C199.645 484.703 199.927 483.486 199.735 482.339C199.544 481.213 198.905 480.144 197.323 479.584C195.653 478.994 194.51 479.087 193.718 479.391C192.919 479.698 192.415 480.241 192.069 480.671L191.299 481.628L191.306 480.402C191.311 480.062 191.309 479.953 191.288 479.616C190.69 470.018 180.748 460.769 166.977 458.106Z" fill="#2E4166"/>
<path d="M158.984 451.877C162.223 452.544 165.455 453.722 167.84 455.692C173.328 454.559 186.009 455.03 192.82 465.97C193.855 467.835 195.637 473.049 194.487 478.999C193.784 479.015 192.153 479.502 191.244 481.323C190.617 480.143 189.163 477.654 188.336 477.131C187.3 476.477 167.828 474.98 166.824 460.943C164.277 465.292 155.062 472.965 138.559 468.866L135.147 472.064C135.022 469.921 133.381 466.546 128.348 467.57C129.222 463.049 134.528 452.924 148.251 451.221C150.645 451.003 154.819 451.019 158.984 451.877Z" fill="#2F2F2F"/>
<path d="M159.009 451.672C162.237 452.335 165.48 453.502 167.896 455.466C173.479 454.352 186.162 454.877 193.001 465.861L193.005 465.865L193.006 465.87C194.059 467.77 195.857 473.037 194.694 479.046L194.661 479.217L194.487 479.218C193.851 479.232 192.302 479.686 191.434 481.424L191.249 481.797L191.056 481.428C190.747 480.843 190.227 479.932 189.687 479.104C189.415 478.689 189.144 478.298 188.886 477.98C188.626 477.658 188.395 477.426 188.221 477.315C188.214 477.31 188.178 477.297 188.116 477.276C188.054 477.256 187.979 477.232 187.882 477.208C187.687 477.158 187.427 477.104 187.113 477.039C186.978 477.012 186.833 476.979 186.675 476.947C186.109 476.831 185.416 476.692 184.634 476.514C182.638 476.06 180.064 475.372 177.485 474.259C172.49 472.103 167.438 468.338 166.672 461.598C163.675 466.071 154.485 473.005 138.621 469.108L134.964 472.54L134.936 472.083C134.874 471.052 134.449 469.73 133.443 468.793C132.449 467.866 130.853 467.284 128.392 467.785L128.078 467.852L128.139 467.536C129.027 462.945 134.387 452.73 148.22 451.013L148.227 451.014L148.231 451.015C150.375 450.82 153.927 450.811 157.631 451.417C158.089 451.492 158.548 451.577 159.009 451.672ZM158.939 452.094C158.479 452 158.02 451.915 157.561 451.839C153.901 451.241 150.383 451.247 148.268 451.439C134.972 453.092 129.659 462.715 128.624 467.306C131.019 466.893 132.664 467.483 133.735 468.479C134.699 469.378 135.171 470.585 135.32 471.617L138.496 468.636L138.611 468.662C155.025 472.739 164.143 465.106 166.641 460.84L166.988 460.244L167.039 460.933C167.534 467.833 172.557 471.665 177.654 473.864C180.199 474.962 182.747 475.646 184.726 476.096C185.505 476.273 186.194 476.412 186.76 476.528C186.914 476.559 187.064 476.592 187.197 476.62C187.516 476.686 187.782 476.741 187.987 476.792C188.088 476.817 188.18 476.842 188.253 476.867C188.322 476.89 188.393 476.92 188.448 476.954C188.689 477.106 188.952 477.384 189.22 477.713C189.486 478.046 189.774 478.448 190.049 478.869C190.5 479.561 190.931 480.309 191.245 480.882C192.149 479.387 193.533 478.884 194.302 478.804C195.378 472.984 193.636 467.898 192.634 466.083C185.89 455.258 173.33 454.783 167.884 455.907L167.784 455.927L167.704 455.861C165.355 453.921 162.161 452.758 158.939 452.094Z" fill="#2E4166"/>
<path d="M158.508 469.725C158.943 469.801 159.326 469.901 159.616 470.001C159.727 470.039 159.786 470.161 159.748 470.273C159.71 470.385 159.587 470.443 159.476 470.406C158.939 470.221 158.034 470.021 157.087 470.029C156.141 470.036 155.182 470.252 154.501 470.859C154.412 470.938 154.277 470.928 154.199 470.839C154.122 470.751 154.127 470.616 154.215 470.538C155.01 469.833 156.089 469.611 157.085 469.604C157.587 469.6 158.073 469.648 158.508 469.725ZM168.18 471.657C168.854 471.787 169.896 472.103 170.857 472.634C171.814 473.162 172.728 473.924 173.076 474.961C173.112 475.072 173.052 475.194 172.943 475.232C172.829 475.269 172.712 475.207 172.672 475.095C172.373 474.209 171.573 473.519 170.649 473.01C169.732 472.504 168.737 472.201 168.098 472.077C167.984 472.055 167.905 471.94 167.927 471.824C167.95 471.708 168.065 471.635 168.18 471.657ZM163.003 474.648C163.122 474.664 163.202 474.771 163.188 474.888C163.176 474.993 163.158 475.102 163.143 475.219C163.055 475.844 162.949 476.63 162.982 477.348C163.018 478.218 163.256 478.863 163.832 479.075C164.47 479.309 165.256 479.601 165.812 480.048C166.091 480.275 166.321 480.55 166.447 480.893C166.569 481.238 166.575 481.628 166.428 482.069C166.261 482.576 165.996 482.936 165.648 483.168C165.305 483.399 164.9 483.49 164.479 483.49C163.645 483.488 162.702 483.132 161.881 482.721C161.773 482.668 161.733 482.539 161.786 482.433C161.84 482.327 161.967 482.285 162.075 482.338C162.881 482.741 163.749 483.061 164.477 483.061C164.837 483.062 165.158 482.985 165.412 482.814C165.666 482.644 165.881 482.369 166.022 481.937C166.141 481.572 166.134 481.278 166.046 481.035C165.958 480.789 165.784 480.572 165.544 480.378C165.051 479.984 164.334 479.718 163.681 479.478C162.829 479.165 162.592 478.248 162.554 477.366C162.521 476.606 162.636 475.777 162.72 475.153C162.738 475.039 162.752 474.932 162.763 474.833C162.781 474.716 162.887 474.634 163.003 474.648ZM156.577 483.898C156.694 483.885 156.8 483.969 156.814 484.087C156.954 485.331 157.701 486.204 158.601 486.797C159.508 487.393 160.549 487.688 161.227 487.779C161.347 487.796 161.426 487.906 161.411 488.023C161.393 488.14 161.288 488.22 161.168 488.204C160.442 488.107 159.335 487.789 158.37 487.154C157.397 486.515 156.55 485.541 156.389 484.132C156.375 484.014 156.46 483.911 156.577 483.898Z" fill="#2E4166" stroke="#294064" stroke-width="0.140134" stroke-miterlimit="10" stroke-linecap="round"/>
<path d="M148.697 476.502C150.467 476.845 151.78 477.776 151.624 478.581C151.468 479.385 149.904 479.76 148.133 479.417C146.359 479.074 145.05 478.144 145.206 477.339C145.362 476.534 146.922 476.159 148.697 476.502Z" fill="#FF92B9"/>
<path d="M175.221 481.642C177.154 482.015 178.598 482.972 178.442 483.776C178.287 484.581 176.59 484.93 174.657 484.557C172.729 484.184 171.288 483.228 171.444 482.423C171.6 481.618 173.293 481.269 175.221 481.642Z" fill="#FF92B9"/>
<path d="M195.545 481.337C197.314 481.679 198.577 482.872 198.358 483.999C198.142 485.126 196.526 485.762 194.755 485.42C192.985 485.077 191.727 483.885 191.945 482.758C192.162 481.631 193.773 480.994 195.545 481.337Z" fill="#E4AC98"/>
<path d="M195.688 481.143C196.109 481.24 196.563 481.396 197.053 481.626C197.161 481.677 197.204 481.805 197.156 481.912C197.103 482.019 196.973 482.065 196.868 482.015C196.453 481.819 196.068 481.678 195.713 481.587C195.786 481.634 195.86 481.685 195.928 481.737C196.153 481.904 196.361 482.098 196.506 482.319C196.65 482.542 196.735 482.804 196.682 483.086C196.659 483.202 196.547 483.28 196.432 483.258C196.315 483.235 196.235 483.12 196.258 483.004C196.285 482.862 196.247 482.714 196.144 482.554C196.04 482.392 195.873 482.232 195.672 482.081C195.282 481.791 194.802 481.566 194.495 481.448C193.072 481.511 192.321 482.462 192.09 483.112C192.048 483.223 191.925 483.28 191.815 483.24C191.703 483.2 191.646 483.08 191.689 482.969C191.968 482.187 192.857 481.071 194.524 481.018C194.879 481.006 195.266 481.045 195.688 481.143Z" fill="#2E4166"/>
<path d="M130.602 469.981C132.053 470.261 133.051 471.399 132.833 472.526C132.615 473.653 131.264 474.34 129.813 474.06C128.366 473.78 127.368 472.638 127.586 471.511C127.804 470.384 129.154 469.701 130.602 469.981Z" fill="#E4AC98"/>
<path d="M130.374 469.719C130.748 469.779 131.074 469.868 131.361 469.983C132.7 470.524 133.113 471.577 133.104 472.238C133.102 472.356 133.005 472.448 132.887 472.446C132.768 472.445 132.675 472.35 132.673 472.232C132.681 471.747 132.382 470.872 131.239 470.395C130.993 470.394 130.623 470.504 130.267 470.671C130.083 470.755 129.916 470.85 129.775 470.942C129.634 471.038 129.542 471.12 129.503 471.175C129.435 471.272 129.304 471.294 129.207 471.225C129.11 471.158 129.089 471.023 129.157 470.927C129.242 470.807 129.38 470.691 129.535 470.587C129.695 470.48 129.886 470.373 130.084 470.28C130.183 470.236 130.289 470.193 130.39 470.154C130.026 470.089 129.607 470.056 129.123 470.067C129.003 470.07 128.906 469.977 128.904 469.859C128.903 469.741 128.993 469.643 129.113 469.641C129.581 469.63 130.001 469.659 130.374 469.719Z" fill="#2E4166"/>
<path d="M132.035 475.101C132.839 475.257 133.363 476.035 133.207 476.84C133.051 477.646 132.275 478.172 131.471 478.017C130.667 477.861 130.14 477.083 130.295 476.277C130.451 475.472 131.23 474.946 132.035 475.101Z" fill="#FFFB90"/>
<path d="M192.894 485.662C193.698 485.818 194.222 486.596 194.066 487.401C193.91 488.206 193.134 488.733 192.33 488.577C191.526 488.422 190.999 487.643 191.155 486.838C191.311 486.032 192.09 485.507 192.894 485.662Z" fill="#FFFB90"/>
<path fill-rule="evenodd" clip-rule="evenodd" d="M164.352 451.176C167.048 452.595 168.209 454.229 168.412 455.355C168.435 455.472 168.356 455.583 168.242 455.605C168.127 455.626 168.015 455.549 167.993 455.433C167.819 454.49 166.792 452.945 164.152 451.555C161.524 450.17 157.316 448.955 150.856 448.661C138.038 448.078 131.54 458.513 129.895 463.821C129.861 463.934 129.739 463.997 129.627 463.962C129.515 463.927 129.452 463.807 129.486 463.694C131.155 458.303 137.771 447.637 150.873 448.233C157.378 448.53 161.649 449.753 164.352 451.176Z" fill="#2E4166"/>
<path d="M244.029 479.619C231.881 489.533 224.227 490.147 207.872 498.187C207.872 498.187 216.302 505.136 219.175 512.214C223.815 523.642 221.272 531.354 221.272 531.354C221.272 531.354 251.568 527.563 257.028 523.64C263.738 518.818 262.477 518.487 268.324 512.65" fill="#2F2F2F"/>
<path d="M244.029 479.619C231.881 489.533 224.227 490.147 207.872 498.187C207.872 498.187 216.302 505.136 219.175 512.214C223.815 523.642 221.272 531.354 221.272 531.354C221.272 531.354 251.568 527.563 257.028 523.64C263.738 518.818 262.477 518.487 268.324 512.65" stroke="#294064" stroke-width="0.424787" stroke-miterlimit="10" stroke-linecap="round"/>
<path d="M173.55 505.277C187.896 509.677 197.923 528.235 211.262 530.222C228.171 532.741 249.692 524.347 266.785 524.281C271.445 524.263 273.93 529.923 278.257 531.653C261.371 544.415 231.883 551.615 212.306 554.077C191.306 556.717 164.027 528.309 164.027 528.309" fill="#FFC6B2"/>
<path d="M173.55 505.277C187.896 509.677 197.923 528.235 211.262 530.222C228.171 532.741 249.692 524.347 266.785 524.281C271.445 524.263 273.93 529.923 278.257 531.653C261.371 544.415 231.883 551.615 212.306 554.077C191.306 556.717 164.027 528.309 164.027 528.309" stroke="#294064" stroke-width="0.532508" stroke-miterlimit="10" stroke-linecap="round"/>
<path d="M88.4189 621.565C98.1282 622.36 107.808 624.178 117.547 623.951C130.349 623.651 143.266 622.797 155.76 619.987C164.924 617.926 173.588 613.844 181.905 609.479C184.635 608.046 187.736 605.886 188.375 602.87C189.046 599.698 187.422 596.068 185.253 593.656C183.639 591.862 180.659 592.131 178.292 591.661C173.1 590.626 167.901 589.325 162.61 589.151C150.587 588.755 138.557 589.687 126.531 589.955" fill="#6365C3"/>
<path d="M88.4189 621.565C98.1282 622.36 107.808 624.178 117.547 623.951C130.349 623.651 143.266 622.797 155.76 619.987C164.924 617.926 173.588 613.844 181.905 609.479C184.635 608.046 187.736 605.886 188.375 602.87C189.046 599.698 187.422 596.068 185.253 593.656C183.639 591.862 180.659 592.131 178.292 591.661C173.1 590.626 167.901 589.325 162.61 589.151C150.587 588.755 138.557 589.687 126.531 589.955" stroke="#294064" stroke-width="0.532508" stroke-miterlimit="10" stroke-linecap="round"/>
<path d="M45.9912 696.652C48.9848 702.515 51.3701 705.426 53.878 709.933C55.8295 713.439 60.6657 714.335 64.1391 714.752C70.9192 715.567 78.0805 716.76 84.9023 717.067C87.988 717.205 90.6294 717.267 88.6556 714.459" fill="#FFD432"/>
<path d="M45.9912 696.652C48.9848 702.515 51.3701 705.426 53.878 709.933C55.8295 713.439 60.6657 714.335 64.1391 714.752C70.9192 715.567 78.0805 716.76 84.9023 717.067C87.988 717.205 90.6294 717.267 88.6556 714.459" stroke="#294064" stroke-width="0.532508" stroke-miterlimit="10" stroke-linecap="round"/>
<path d="M223.769 692.012C224.561 693.778 225.244 695.599 226.146 697.312C227.172 699.261 228.294 701.167 229.543 702.981C232.449 707.197 237.124 707.087 241.789 707.165C246.507 707.245 251.229 707.236 255.947 707.186C259.062 707.153 266.608 707.469 266.111 702.871" fill="#FFD432"/>
<path d="M223.769 692.012C224.561 693.778 225.244 695.599 226.146 697.312C227.172 699.261 228.294 701.167 229.543 702.981C232.449 707.197 237.124 707.087 241.789 707.165C246.507 707.245 251.229 707.236 255.947 707.186C259.062 707.153 266.608 707.469 266.111 702.871" stroke="#294064" stroke-width="0.532508" stroke-miterlimit="10" stroke-linecap="round"/>
<path d="M95.3783 615.181C77.6976 632.743 60.0673 653.337 48.9001 675.615C43.7577 685.873 49.0975 689.798 52.4784 700.764C77.3389 665.239 107.23 654.542 130.429 627.447C135.465 621.564 134.788 604.625 134.788 604.625" fill="#FFC6B2"/>
<path d="M95.3783 615.181C77.6976 632.743 60.0673 653.337 48.9001 675.615C43.7577 685.873 49.0975 689.798 52.4784 700.764C77.3389 665.239 107.23 654.542 130.429 627.447C135.465 621.564 134.788 604.625 134.788 604.625" stroke="#294064" stroke-width="0.532508" stroke-miterlimit="10" stroke-linecap="round"/>
<path d="M142.443 605.627C159.687 626.799 183.778 650.54 203.683 669.233C212.102 677.139 226.013 696.446 229.859 688.166C231.743 684.113 229.948 663.624 229.948 663.624C229.948 663.624 218.44 648.052 213.6 640.716C201.553 622.465 193.233 604.39 178.277 588.438" fill="#FFC6B2"/>
<path d="M142.443 605.627C159.687 626.799 183.778 650.54 203.683 669.233C212.102 677.139 226.013 696.446 229.859 688.166C231.743 684.113 229.948 663.624 229.948 663.624C229.948 663.624 218.44 648.052 213.6 640.716C201.553 622.465 193.233 604.39 178.277 588.438" stroke="#294064" stroke-width="0.532508" stroke-miterlimit="10" stroke-linecap="round"/>
<path d="M173.767 604.803C173.049 605.014 172.273 604.888 171.528 604.957C168.65 605.225 165.752 605.761 162.876 606.1C159.136 606.542 155.516 607.453 151.801 607.998C150.926 608.126 146.151 609.62 145.778 609.452C144.741 608.988 143.822 607.034 143.145 606.063C142.832 605.614 142.372 604.725 141.846 604.489C141.798 604.467 141.647 604.485 141.693 604.462C143.711 603.443 149.405 602.994 151.642 602.68C159.316 601.601 166.947 602.325 174.52 603.674C176.802 604.08 179.168 604.347 181.38 605.053" fill="#294064"/>
<path d="M173.767 604.803C173.049 605.014 172.273 604.888 171.528 604.957C168.65 605.225 165.752 605.761 162.876 606.1C159.136 606.542 155.516 607.453 151.801 607.998C150.926 608.126 146.151 609.62 145.778 609.452C144.741 608.988 143.822 607.034 143.145 606.063C142.832 605.614 142.372 604.725 141.846 604.489C141.798 604.467 141.647 604.485 141.693 604.462C143.711 603.443 149.405 602.994 151.642 602.68C159.316 601.601 166.947 602.325 174.52 603.674C176.802 604.08 179.168 604.347 181.38 605.053" stroke="#294064" stroke-width="0.532508" stroke-miterlimit="10" stroke-linecap="round"/>
<path d="M134.938 606.827C134.938 606.827 125.08 608.829 113.602 612.363C102.124 615.897 88.5861 621.918 88.5861 621.918L79.8501 614.138C79.8501 614.138 132.193 604.701 141.218 602.885" fill="#294064"/>
<path d="M134.938 606.827C134.938 606.827 125.08 608.829 113.602 612.363C102.124 615.897 88.5861 621.918 88.5861 621.918L79.8501 614.138C79.8501 614.138 132.193 604.701 141.218 602.885" stroke="#294064" stroke-width="0.532508" stroke-miterlimit="10" stroke-linecap="round"/>
<path d="M49.6812 677.371C48.1923 682.622 45.7539 684.311 46.0402 689.949C46.3484 696.016 53.5047 704.252 56.0647 709.187C58.7333 714.331 67.9128 713.624 72.9741 713.94C73.5815 713.979 75.3138 713.937 75.3965 712.817C75.4482 712.119 80.7624 709.714 80.1435 709.387C75.9856 707.184 75.5825 704.481 71.9906 699.55C67.6363 693.572 67.1403 688.19 67.1403 688.19C67.1403 688.19 66.8698 684.223 68.3433 681.56" fill="#FFC6B2"/>
<path d="M49.6812 677.371C48.1923 682.622 45.7539 684.311 46.0402 689.949C46.3484 696.016 53.5047 704.252 56.0647 709.187C58.7333 714.331 67.9128 713.624 72.9741 713.94C73.5815 713.979 75.3138 713.937 75.3965 712.817C75.4482 712.119 80.7624 709.714 80.1435 709.387C75.9856 707.184 75.5825 704.481 71.9906 699.55C67.6363 693.572 67.1403 688.19 67.1403 688.19C67.1403 688.19 66.8698 684.223 68.3433 681.56" stroke="#294064" stroke-width="0.532508" stroke-miterlimit="10" stroke-linecap="round"/>
<path d="M213.783 679.563C215.264 682.802 218.526 685.424 218.526 685.424L225.722 691.427C225.722 691.427 230.607 701.16 234.649 703.655C237.402 705.356 242.847 704.587 246.083 704.541C248.904 704.5 250.753 701.978 253.466 701.197C252.653 698.749 252.427 696.021 251.029 693.854C242.322 680.36 232.543 667.589 223.301 654.457" fill="#FFC6B2"/>
<path d="M213.783 679.563C215.264 682.802 218.526 685.424 218.526 685.424L225.722 691.427C225.722 691.427 230.607 701.16 234.649 703.655C237.402 705.356 242.847 704.587 246.083 704.541C248.904 704.5 250.753 701.978 253.466 701.197C252.653 698.749 252.427 696.021 251.029 693.854C242.322 680.36 232.543 667.589 223.301 654.457" stroke="#294064" stroke-width="0.532508" stroke-miterlimit="10" stroke-linecap="round"/>
<path d="M48.9527 675.902C48.9527 675.902 44.4737 679.428 41.3218 683.336C36.1449 689.755 41.1576 693.271 41.7407 699.76C42.237 705.286 43.3801 713.373 43.3801 713.373L47.5561 713.643L48.1077 698.497C48.1077 698.497 52.6429 696.764 53.086 690.502C53.4822 684.902 48.9527 675.902 48.9527 675.902Z" fill="#FFD432" stroke="#294064" stroke-width="0.532508" stroke-miterlimit="10" stroke-linecap="round"/>
<path d="M64.836 713.573C70.6411 714.473 87.7154 717.409 89.1778 715.697C90.6405 713.986 80.4891 703.677 74.6828 703.707C72.3547 703.72 64.4707 711.235 64.836 713.573Z" fill="#FFD432" stroke="#294064" stroke-width="0.532508" stroke-miterlimit="10" stroke-linecap="round"/>
<path d="M225.152 706.028L221.542 706.179C221.542 706.179 222.308 698.275 219.342 695.413C215.02 691.244 209.768 685.777 212.922 678.957C213.463 679.14 215.989 679.837 218.611 681.865C222.26 684.687 223.318 686.258 225.239 690.452C226.297 692.767 225.07 695.184 224.802 697.716C224.461 700.909 225.152 706.028 225.152 706.028Z" fill="#FFD432" stroke="#294064" stroke-width="0.532508" stroke-miterlimit="10" stroke-linecap="round"/>
<path d="M239.748 704.787C247.477 705.314 260.241 706.654 264.726 705.36C269.213 704.068 261.247 699.045 258.453 696.913C249.631 690.175 245.178 697.934 239.748 704.787Z" fill="#FFD432" stroke="#294064" stroke-width="0.532508" stroke-miterlimit="10" stroke-linecap="round"/>
<path d="M48.7286 675.198C48.5924 675.192 48.454 675.237 48.3459 675.338C48.1295 675.537 48.1134 675.876 48.3127 676.091C48.6361 676.442 49.2946 676.833 50.3039 677.322C50.5609 677.448 50.8423 677.578 51.1471 677.716C51.5397 677.896 53.3715 678.7 53.6378 678.831C57.9269 680.951 64.4805 682.82 68.2207 682.687C68.5146 682.676 68.747 682.431 68.7365 682.138C68.726 681.843 68.4758 681.611 68.1818 681.622C64.6476 681.748 58.2543 679.925 54.1092 677.878C53.8172 677.734 51.9581 676.916 51.5853 676.746C51.288 676.611 51.0184 676.485 50.7699 676.364C49.8873 675.934 49.2993 675.586 49.1003 675.37C49.0007 675.262 48.8647 675.205 48.7286 675.198Z" fill="#FFD432" stroke="#294064" stroke-width="0.525103" stroke-miterlimit="10" stroke-linecap="round"/>
<path d="M51.9681 668.716C51.8346 668.689 51.6916 668.712 51.5687 668.794C51.3233 668.955 51.2572 669.285 51.4191 669.53C54.1093 673.615 58.183 677.168 63.3727 680.321C63.6466 680.486 64.7439 681.182 64.6707 681.135C65.4534 681.627 66.0301 681.956 66.6121 682.222C67.1118 682.453 67.5839 682.618 68.0321 682.71C68.3202 682.77 68.5998 682.582 68.6589 682.295C68.7182 682.007 68.5311 681.727 68.243 681.668C67.8816 681.593 67.4923 681.455 67.0614 681.258C66.531 681.013 65.9828 680.701 65.2364 680.232C65.3186 680.283 64.2123 679.582 63.9274 679.41C58.8613 676.334 54.8982 672.876 52.3066 668.943C52.2257 668.82 52.1016 668.742 51.9681 668.716Z" fill="#FFD432" stroke="#294064" stroke-width="0.525103" stroke-miterlimit="10" stroke-linecap="round"/>
<path d="M52.0122 668.225C51.879 668.253 51.759 668.335 51.6793 668.457C51.5201 668.706 51.5874 669.031 51.8347 669.19C54.7056 671.038 58.7029 673.026 62.6069 674.492C67.1801 676.211 71.328 677.125 74.4941 676.967C74.7877 676.953 75.0133 676.706 74.9988 676.413C74.9842 676.118 74.7323 675.893 74.4386 675.907C71.4457 676.056 67.4331 675.172 62.9841 673.5C59.1494 672.059 55.2177 670.105 52.4115 668.298C52.288 668.218 52.1455 668.196 52.0122 668.225Z" fill="#FFD432" stroke="#294064" stroke-width="0.525103" stroke-miterlimit="10" stroke-linecap="round"/>
<path d="M56.2228 661.219C56.0902 661.187 55.9487 661.209 55.8234 661.287C55.5726 661.439 55.4924 661.768 55.6459 662.018C57.542 665.114 60.31 667.844 63.9497 670.41C66.7247 672.368 69.5426 673.968 74.1007 676.312C74.3621 676.447 74.6816 676.348 74.8162 676.085C74.9507 675.824 74.8503 675.505 74.5888 675.37C70.0717 673.045 67.2897 671.463 64.5654 669.541C61.0352 667.05 58.3672 664.421 56.5556 661.464C56.4787 661.338 56.3554 661.251 56.2228 661.219Z" fill="#FFD432" stroke="#294064" stroke-width="0.525103" stroke-miterlimit="10" stroke-linecap="round"/>
<path d="M56.5775 660.684C56.443 660.706 56.3141 660.777 56.228 660.896C56.0558 661.133 56.1117 661.472 56.3501 661.645C56.365 661.655 57.2201 662.266 57.5316 662.488C58.4218 663.121 59.3212 663.753 60.1774 664.346C60.2728 664.412 60.367 664.476 60.4604 664.54C61.7938 665.457 62.87 666.167 63.5999 666.602C68.4169 669.48 72.3069 671.116 77.9776 672.699C78.2609 672.778 78.5587 672.616 78.6377 672.334C78.7169 672.05 78.5493 671.752 78.2662 671.673C72.6841 670.115 68.877 668.514 64.1436 665.688C63.4383 665.267 62.3808 664.568 61.065 663.663C60.9723 663.599 59.0338 662.248 58.1473 661.616C57.8371 661.396 56.9856 660.789 56.9714 660.778C56.8521 660.693 56.7121 660.663 56.5775 660.684Z" fill="#FFD432" stroke="#294064" stroke-width="0.525103" stroke-miterlimit="10" stroke-linecap="round"/>
<path d="M59.6118 656.295C59.4819 656.254 59.3373 656.266 59.2068 656.334C58.946 656.469 58.8438 656.788 58.9794 657.049C62.4196 663.665 70.4844 669.661 78.6213 672.471C78.8993 672.567 79.2076 672.421 79.3035 672.142C79.3995 671.865 79.2486 671.562 78.9706 671.466C71.0712 668.74 63.2219 662.9 59.9225 656.556C59.8547 656.426 59.7418 656.336 59.6118 656.295Z" fill="#FFD432" stroke="#294064" stroke-width="0.525103" stroke-miterlimit="10" stroke-linecap="round"/>
<path d="M59.2234 645.022C58.8057 644.99 58.4837 645.225 58.2638 645.599C58.1199 645.846 58.0169 646.157 57.9365 646.531C57.8252 647.051 57.7652 647.697 57.7647 648.097C57.7629 649.148 57.8857 650.896 58.0973 652.389C58.3914 654.462 58.8137 655.948 59.4398 656.638C59.7154 656.942 60.1244 656.855 60.3218 656.583C60.3837 656.498 60.4199 656.406 60.4549 656.289C60.5287 656.044 60.5953 655.632 60.6711 655.041C60.7125 654.721 60.8124 653.846 60.8209 653.787C61.1323 651.659 61.1305 650.124 60.8042 647.985C60.7513 647.639 60.6017 647.007 60.4327 646.505C60.126 645.592 59.804 645.067 59.2234 645.022ZM59.1568 646.226C59.2434 646.379 59.3354 646.581 59.4231 646.842C59.572 647.286 59.7065 647.859 59.7504 648.146C60.0607 650.181 60.063 651.608 59.7671 653.631C59.7578 653.693 59.6916 654.26 59.645 654.647C59.1446 652.967 58.8261 650.17 58.8297 648.097C58.8302 647.767 58.8794 647.2 58.9738 646.758C59.0242 646.524 59.0924 646.359 59.1568 646.226Z" fill="#FFD432" stroke="#294064" stroke-width="0.525103" stroke-miterlimit="10" stroke-linecap="round"/>
<path d="M55.8618 647.502C55.7383 647.502 55.6176 647.529 55.4956 647.585C54.6058 647.999 54.753 649.667 55.6344 651.496C56.5858 653.47 57.9001 655.344 59.3563 656.737C59.5688 656.942 59.9073 656.94 60.1107 656.727C60.3141 656.514 60.3065 656.177 60.094 655.972C60.0546 655.935 60.017 655.889 59.9776 655.85C59.9731 655.82 59.9932 655.791 59.9832 655.761C59.8407 655.335 59.4784 654.226 59.4784 654.226C58.972 652.674 58.74 651.982 58.4356 651.125C57.6258 648.844 56.7268 647.5 55.8618 647.502ZM55.9894 648.728C56.0635 648.796 56.1298 648.844 56.2223 648.966C56.6031 649.472 57.0206 650.328 57.4315 651.485C57.6526 652.108 57.9102 652.889 58.1915 653.743C57.5898 652.896 57.0484 651.973 56.594 651.031C56.2301 650.275 56.0198 649.582 55.9728 649.05C55.9603 648.91 55.9795 648.826 55.9894 648.728Z" fill="#FFD432" stroke="#294064" stroke-width="0.525103" stroke-miterlimit="10" stroke-linecap="round"/>
<path d="M232.843 665.95C232.829 665.952 232.057 666.078 231.778 666.128C230.979 666.264 230.179 666.413 229.431 666.571C228.413 666.786 227.575 667.003 226.964 667.209C220.515 669.385 214.743 673.297 211.482 678.141C211.317 678.386 211.383 678.721 211.626 678.885C211.869 679.05 212.199 678.979 212.364 678.736C215.481 674.104 221.059 670.325 227.301 668.218C227.866 668.029 228.672 667.821 229.653 667.613C230.386 667.459 231.169 667.311 231.955 667.175C232.231 667.127 232.992 667.004 233.004 667.003C233.296 666.958 233.493 666.683 233.448 666.394C233.404 666.103 233.134 665.904 232.843 665.95Z" fill="#FFD432" stroke="#294064" stroke-width="0.525103" stroke-miterlimit="10" stroke-linecap="round"/>
<path d="M229.105 665.082C227.814 665.106 226.314 665.218 225.31 665.332C218.47 666.1 211.798 669.012 207.627 673.414C207.424 673.627 207.435 673.966 207.648 674.168C207.863 674.37 208.2 674.36 208.402 674.145C212.387 669.942 218.82 667.134 225.427 666.392C226.399 666.282 227.867 666.17 229.121 666.147C230.766 666.116 231.964 666.269 232.078 666.436C232.243 666.679 232.571 666.745 232.814 666.58C233.059 666.415 233.123 666.086 232.96 665.841C232.53 665.206 231.261 665.043 229.105 665.082Z" fill="#FFD432" stroke="#294064" stroke-width="0.525103" stroke-miterlimit="10" stroke-linecap="round"/>
<path d="M227.596 658.671C227.143 658.636 226.421 658.725 225.393 659.021C223.874 659.458 223.039 659.758 221.566 660.397C215.565 662.999 210.185 667.376 207.116 672.428C206.963 672.678 207.048 673.007 207.3 673.159C207.55 673.312 207.873 673.234 208.026 672.982C210.973 668.132 216.179 663.892 221.987 661.373C223.417 660.752 224.211 660.466 225.688 660.042C226.21 659.891 226.648 659.802 227.008 659.758C227.243 659.729 227.409 659.728 227.512 659.736C227.521 659.736 227.525 659.736 227.518 659.736C227.809 659.783 228.082 659.584 228.128 659.293C228.174 659.002 227.976 658.728 227.685 658.682C227.663 658.679 227.633 658.673 227.596 658.671Z" fill="#FFD432" stroke="#294064" stroke-width="0.525103" stroke-miterlimit="10" stroke-linecap="round"/>
<path d="M223.208 657.212C221.958 657.256 220.723 657.451 219.154 657.789C214.528 658.783 209.718 661.696 205.442 665.704C205.227 665.904 205.213 666.243 205.413 666.458C205.614 666.673 205.953 666.682 206.168 666.481C210.316 662.594 214.97 659.78 219.381 658.831C220.893 658.506 222.076 658.318 223.247 658.277C224.793 658.222 225.99 658.456 226.747 659.026C226.982 659.202 227.314 659.156 227.489 658.919C227.667 658.685 227.621 658.353 227.385 658.176C226.392 657.432 224.974 657.148 223.208 657.212Z" fill="#FFD432" stroke="#294064" stroke-width="0.525103" stroke-miterlimit="10" stroke-linecap="round"/>
<path d="M222.498 651.081C216.19 653.675 211.765 657.188 207.338 662.956C206.91 663.516 205.982 665.592 205.785 666.334C205.71 666.62 205.879 666.909 206.163 666.984C206.447 667.058 206.736 666.892 206.811 666.608C206.974 665.992 207.847 664.041 208.181 663.606C212.498 657.979 216.776 654.587 222.903 652.068C223.175 651.957 223.31 651.641 223.198 651.369C223.086 651.097 222.77 650.97 222.498 651.081Z" fill="#FFD432" stroke="#294064" stroke-width="0.525103" stroke-miterlimit="10" stroke-linecap="round"/>
<path d="M221.533 640.177C221.348 640.128 221.146 640.131 220.922 640.188L220.901 640.193L220.88 640.2C219.385 640.724 218.941 642.941 219.287 645.923C219.586 648.502 220.445 651.112 221.4 652.148L221.822 652.608L222.204 652.12C222.882 651.271 223.267 648.373 223.198 645.469C223.162 644.022 223.011 642.755 222.749 641.848C222.486 640.944 222.09 640.328 221.533 640.177ZM221.201 641.226C221.243 641.218 221.272 641.225 221.345 641.308C221.476 641.462 221.613 641.745 221.728 642.141C221.961 642.945 222.099 644.134 222.133 645.497C222.181 647.483 221.989 649.525 221.694 650.661C221.101 649.532 220.557 647.668 220.34 645.802C220.056 643.332 220.409 641.553 221.201 641.226Z" fill="#FFD432" stroke="#294064" stroke-width="0.525103" stroke-miterlimit="10" stroke-linecap="round"/>
<path d="M225.338 641.171C224.967 641.155 224.628 641.389 224.317 641.753C224.103 642.007 223.93 642.285 223.762 642.603C222.897 644.24 222.498 645.782 222.026 648.699C221.989 648.938 221.969 649.114 221.932 649.531C221.852 650.456 221.767 650.816 221.467 651.217C221.419 651.281 221.378 651.336 221.35 651.384C221.33 651.416 221.316 651.45 221.3 651.484C221.264 651.562 221.24 651.636 221.245 651.745C221.257 652.027 221.488 652.254 221.777 652.259C221.889 652.261 221.964 652.24 222.044 652.199C222.099 652.171 222.147 652.137 222.203 652.094C222.345 651.984 222.578 651.766 222.858 651.489C223.48 650.875 224.051 650.245 224.195 649.991C225.322 648.01 225.711 647.142 226.192 645.376C226.366 644.739 226.501 644.078 226.542 643.446C226.611 642.388 226.405 641.613 225.721 641.277C225.59 641.213 225.462 641.176 225.338 641.171ZM225.288 642.298C225.599 642.575 225.521 643.798 225.166 645.099C224.71 646.767 224.355 647.554 223.268 649.464C223.249 649.497 223.045 649.703 222.97 649.792C222.976 649.723 222.992 649.693 222.997 649.62C223.031 649.229 223.047 649.07 223.08 648.865C223.535 646.057 223.909 644.607 224.706 643.102C224.839 642.848 224.98 642.621 225.132 642.442C225.196 642.367 225.242 642.332 225.288 642.298Z" fill="#FFD432" stroke="#294064" stroke-width="0.525103" stroke-miterlimit="10" stroke-linecap="round"/>
<path d="M96.5635 529.265C109.109 534.155 120.745 543.401 134.199 543.934C149.157 544.527 164.994 540.515 177.622 532.476C183.664 528.629 181.882 518.984 184.105 512.174C179.542 506.825 165.699 500.784 152.433 498.143C139.021 495.473 132.053 495.53 120.297 500.73C115.503 502.85 101.581 512.351 98.8937 516.852C96.736 520.467 97.3402 525.127 96.5635 529.265Z" fill="#FFC6B2" stroke="#FFC6B2" stroke-width="0.532508" stroke-miterlimit="10" stroke-linecap="round"/>
<path d="M141.128 496.041C147.637 509.349 137.351 517.918 154.996 520.184C172.877 522.479 168.723 502.359 168.723 502.359L175.057 505.142C175.057 505.142 179.69 532.152 174.178 538.896C165.394 549.646 146.861 551.481 133.123 553.482C120.056 555.386 93.9295 534.99 80.7529 534.114C77.7627 518.287 121.859 499.125 121.859 499.125C121.859 499.125 125.488 497.767 128.727 497.034C131.966 496.302 134.815 496.195 134.815 496.195L141.128 496.041Z" fill="#B3A9EC" stroke="#294064" stroke-width="0.532508" stroke-miterlimit="10" stroke-linecap="round"/>
<path d="M95.5486 513.732C83.1316 523.115 55.5337 520.118 47.8718 543.168C34.2365 584.189 87.8017 621.231 87.8017 621.231C87.8017 621.231 112.101 609.746 136.546 606.139C160.991 602.534 183.095 607.162 183.095 607.162L188.736 591.147C188.736 591.147 150.001 563.571 127.355 552.475C128.987 547.744 116.616 543.431 118.248 538.7" fill="#B3A9EC"/>
<path d="M95.5486 513.732C83.1316 523.115 55.5337 520.118 47.8718 543.168C34.2365 584.189 87.8017 621.231 87.8017 621.231C87.8017 621.231 112.101 609.746 136.546 606.139C160.991 602.534 183.095 607.162 183.095 607.162L188.736 591.147C188.736 591.147 150.001 563.571 127.355 552.475C128.987 547.744 116.616 543.431 118.248 538.7" stroke="#294064" stroke-width="0.532508" stroke-miterlimit="10" stroke-linecap="round"/>
<path d="M137.29 512.52C136.581 498.432 128.731 498.255 124.751 499.893C119.334 502.122 115.073 507.576 113.179 513.12C107.479 529.799 99.7906 549.536 103.517 566.764C104.515 571.383 114.259 567.378 114.259 567.378C114.259 567.378 116.857 575.025 119.674 572.077C123.749 567.811 125.535 561.775 127.586 556.243C132.235 543.702 137.999 526.607 137.29 512.52Z" fill="#FFC6B2" stroke="#294064" stroke-width="0.532508" stroke-miterlimit="10" stroke-linecap="round"/>
<path d="M102.68 560.087C102.695 565.88 104.476 572.395 110.014 574.42C119.627 577.935 126.901 573.678 132.964 570.783C148.543 563.345 156.123 555.757 169.993 545.477C176.088 540.959 179.496 537.13 188.185 532.374C184.09 530.73 179.934 522.728 175.766 524.176C166.806 527.289 170.999 526.493 155.616 534.471C144.606 540.18 128.079 542.686 116.87 548.327" fill="#FFC6B2"/>
<path d="M102.68 560.087C102.695 565.88 104.476 572.395 110.014 574.42C119.627 577.935 126.901 573.678 132.964 570.783C148.543 563.345 156.123 555.757 169.993 545.477C176.088 540.959 179.496 537.13 188.185 532.374C184.09 530.73 179.934 522.728 175.766 524.176C166.806 527.289 170.999 526.493 155.616 534.471C144.606 540.18 128.079 542.686 116.87 548.327" stroke="#294064" stroke-width="0.532508" stroke-miterlimit="10" stroke-linecap="round"/>
<path d="M170.11 525.654C169.658 523.407 170.884 520.81 171.995 518.973C175.759 512.746 181.3 512.254 187.988 514.072C189.367 514.447 191.093 514.689 192.355 515.396" fill="#FFC6B2"/>
<path d="M170.11 525.654C169.658 523.407 170.884 520.81 171.995 518.973C175.759 512.746 181.3 512.254 187.988 514.072C189.367 514.447 191.093 514.689 192.355 515.396" stroke="#294064" stroke-width="0.532508" stroke-miterlimit="10" stroke-linecap="round"/>
<path d="M194.583 513.59C192.087 513.035 189.762 512.401 187.174 512.555C179.291 513.022 175.027 519.572 170.256 524.817C168.86 526.351 166.123 529.154 163.807 530.101" fill="#FFC6B2"/>
<path d="M194.583 513.59C192.087 513.035 189.762 512.401 187.174 512.555C179.291 513.022 175.027 519.572 170.256 524.817C168.86 526.351 166.123 529.154 163.807 530.101" stroke="#294064" stroke-width="0.483191" stroke-miterlimit="10" stroke-linecap="round"/>
<path d="M201.867 517.662C201.867 517.662 201.999 514.83 196.64 513.727C187.339 511.814 180.169 518.682 180.169 518.682" fill="#FFC6B2"/>
<path d="M201.867 517.662C201.867 517.662 201.999 514.83 196.64 513.727C187.339 511.814 180.169 518.682 180.169 518.682" stroke="#294064" stroke-width="0.483191" stroke-miterlimit="10" stroke-linecap="round"/>
<path d="M206.276 521.667C206.056 519.425 202.946 517.713 201.782 516.991C195.922 513.36 188.506 517.268 183.407 520.584" fill="#FFC6B2"/>
<path d="M206.276 521.667C206.056 519.425 202.946 517.713 201.782 516.991C195.922 513.36 188.506 517.268 183.407 520.584" stroke="#294064" stroke-width="0.483191" stroke-miterlimit="10" stroke-linecap="round"/>
<path d="M179.305 538.116C181.396 536.128 185.39 536.225 188.507 533.547C191.622 530.869 191.425 527.86 192.971 526.157C194.341 524.647 195.679 524.083 197.527 523.22C201.782 521.234 204.713 526.128 207.668 523.403C208.969 522.203 205.313 519.713 202.893 518.603C197.352 516.058 190.922 521.075 186.595 523.358" fill="#FFC6B2"/>
<path d="M179.305 538.116C181.396 536.128 185.39 536.225 188.507 533.547C191.622 530.869 191.425 527.86 192.971 526.157C194.341 524.647 195.679 524.083 197.527 523.22C201.782 521.234 204.713 526.128 207.668 523.403C208.969 522.203 205.313 519.713 202.893 518.603C197.352 516.058 190.922 521.075 186.595 523.358" stroke="#294064" stroke-width="0.483191" stroke-miterlimit="10" stroke-linecap="round"/>
<path d="M193.677 537.226C194.274 537.147 194.867 537.038 195.461 536.944C198.038 536.539 200.719 536.557 203.197 535.741C204.816 535.208 206.053 533.876 207.505 532.98C208.041 532.649 208.607 532.369 209.159 532.062" fill="#FFC6B2"/>
<path d="M193.677 537.226C194.274 537.147 194.867 537.038 195.461 536.944C198.038 536.539 200.719 536.557 203.197 535.741C204.816 535.208 206.053 533.876 207.505 532.98C208.041 532.649 208.607 532.369 209.159 532.062" stroke="#294064" stroke-width="0.483191" stroke-miterlimit="10" stroke-linecap="round"/>
<path d="M176.672 520.349C176.429 520.187 175.439 521.395 174.74 522.197C174.017 523.026 173.287 523.792 172.43 524.507C171.599 525.199 172.986 522.49 171.218 524.91C169.058 527.867 163.741 530.686 163.741 530.686C163.741 530.686 167.414 530.012 167.642 530.134C169.355 531.048 171.565 530.635 173.396 530.722C177.021 530.895 180.92 531.722 184.525 531.058C185.097 530.953 185.585 530.512 186.038 530.218C188.13 528.855 187.896 526.899 185.659 525.557C184.202 524.683 182.587 524.482 181.124 523.751" fill="#FFC6B2"/>
<path d="M176.672 520.349C176.429 520.187 175.439 521.395 174.74 522.197C174.017 523.026 173.287 523.792 172.43 524.507C171.599 525.199 172.986 522.49 171.218 524.91C169.058 527.867 163.741 530.686 163.741 530.686C163.741 530.686 167.414 530.012 167.642 530.134C169.355 531.048 171.565 530.635 173.396 530.722C177.021 530.895 180.92 531.722 184.525 531.058C185.097 530.953 185.585 530.512 186.038 530.218C188.13 528.855 187.896 526.899 185.659 525.557C184.202 524.683 182.587 524.482 181.124 523.751" stroke="#FFC6B2" stroke-width="0.483191" stroke-miterlimit="10" stroke-linecap="round"/>
<path d="M105.164 711.318C103.654 711.91 107.75 714.52 108.073 714.724C111.452 716.845 115.295 718.112 119.223 718.656C125.895 719.577 133.794 719.369 138.683 714.01C139.584 713.023 140.275 711.862 141.18 710.877C142.79 709.122 143.618 707.315 144.55 705.178" fill="#FFA179"/>
<path d="M105.164 711.318C103.654 711.91 107.75 714.52 108.073 714.724C111.452 716.845 115.295 718.112 119.223 718.656C125.895 719.577 133.794 719.369 138.683 714.01C139.584 713.023 140.275 711.862 141.18 710.877C142.79 709.122 143.618 707.315 144.55 705.178" stroke="#294064" stroke-width="0.483191" stroke-miterlimit="10" stroke-linecap="round"/>
<path d="M244.012 725.021C242.281 725.593 247.556 728.351 247.963 728.495C251.855 729.883 255.466 730.346 259.554 730.449C268.319 730.669 275.673 729.97 282.306 723.883C285.119 721.302 286.861 718.872 288.087 715.225" fill="#FFA179"/>
<path d="M244.012 725.021C242.281 725.593 247.556 728.351 247.963 728.495C251.855 729.883 255.466 730.346 259.554 730.449C268.319 730.669 275.673 729.97 282.306 723.883C285.119 721.302 286.861 718.872 288.087 715.225" stroke="#294064" stroke-width="0.483191" stroke-miterlimit="10" stroke-linecap="round"/>
<path d="M171.977 698.145C171.983 697.993 171.983 697.992 171.99 697.84C170.51 701.592 169.484 707.247 166.214 710.556C165.792 710.984 164.682 711.474 164.078 711.454C161.282 711.362 158.494 711.09 155.706 710.853C152.294 710.561 152.833 702.75 152.433 700.648" fill="#F26E36"/>
<path d="M171.977 698.145C171.983 697.993 171.983 697.992 171.99 697.84C170.51 701.592 169.484 707.247 166.214 710.556C165.792 710.984 164.682 711.474 164.078 711.454C161.282 711.362 158.494 711.09 155.706 710.853C152.294 710.561 152.833 702.75 152.433 700.648" stroke="#294064" stroke-width="0.532508" stroke-miterlimit="10" stroke-linecap="round"/>
<path d="M315.627 708.424C315.662 708.111 315.662 708.111 315.698 707.799C314.269 712.359 312.957 716.956 311.411 721.477C311.042 722.558 310.225 723.675 308.931 723.735C304.412 723.944 299.882 723.717 295.358 723.708C293.945 718.621 293.945 718.621 292.534 713.534" fill="#F26E36"/>
<path d="M315.627 708.424C315.662 708.111 315.662 708.111 315.698 707.799C314.269 712.359 312.957 716.956 311.411 721.477C311.042 722.558 310.225 723.675 308.931 723.735C304.412 723.944 299.882 723.717 295.358 723.708C293.945 718.621 293.945 718.621 292.534 713.534" stroke="#294064" stroke-width="0.532508" stroke-miterlimit="10" stroke-linecap="round"/>
<path d="M279.967 694.43C280.205 697.067 281.259 699.773 280.682 702.345C280.169 704.633 278.646 706.681 276.917 708.037C273.873 710.419 270.355 712.088 266.784 713.233C260.374 715.285 255.092 714.461 248.98 717.438C246.735 718.531 242.095 724.621 243.994 725.738C250.113 729.332 264.943 727.58 275.568 725.926C282.146 724.902 287.356 718.859 293.732 716.783C299.531 714.896 305.231 715.952 310.265 713.765C312.192 712.927 315.299 711.928 316.223 705.905C317.15 699.881 315.663 694.034 313.966 689.671C312.498 685.897 306.44 685.244 303.862 682.301C302.03 680.21 299.373 679.28 297.129 677.768" fill="#F26E36"/>
<path d="M279.967 694.43C280.205 697.067 281.259 699.773 280.682 702.345C280.169 704.633 278.646 706.681 276.917 708.037C273.873 710.419 270.355 712.088 266.784 713.233C260.374 715.285 255.092 714.461 248.98 717.438C246.735 718.531 242.095 724.621 243.994 725.738C250.113 729.332 264.943 727.58 275.568 725.926C282.146 724.902 287.356 718.859 293.732 716.783C299.531 714.896 305.231 715.952 310.265 713.765C312.192 712.927 315.299 711.928 316.223 705.905C317.15 699.881 315.663 694.034 313.966 689.671C312.498 685.897 306.44 685.244 303.862 682.301C302.03 680.21 299.373 679.28 297.129 677.768" stroke="#294064" stroke-width="0.532508" stroke-miterlimit="10" stroke-linecap="round"/>
<path d="M149.085 677.686C143.942 683.733 140.176 691.297 133.658 695.828C125.855 701.253 115.69 702.238 107.312 706.723C105.793 707.536 103.883 709.373 104.833 711.258C105.783 713.145 108.803 714.031 111.111 714.269C118.874 715.064 127.024 716.47 134.52 714.303C142.86 711.892 148.899 704.334 156.925 701.027C161.441 699.167 168.323 702.841 171.45 699.089C177.269 692.106 177.212 681.848 180.092 673.229" fill="#F26E36"/>
<path d="M149.085 677.686C143.942 683.733 140.176 691.297 133.658 695.828C125.855 701.253 115.69 702.238 107.312 706.723C105.793 707.536 103.883 709.373 104.833 711.258C105.783 713.145 108.803 714.031 111.111 714.269C118.874 715.064 127.024 716.47 134.52 714.303C142.86 711.892 148.899 704.334 156.925 701.027C161.441 699.167 168.323 702.841 171.45 699.089C177.269 692.106 177.212 681.848 180.092 673.229" stroke="#294064" stroke-width="0.532508" stroke-miterlimit="10" stroke-linecap="round"/>
<path d="M147.074 679.963C152.968 683.362 159.604 685.488 166.284 686.775C168.752 687.249 176.489 687.728 176.489 687.728C176.489 687.728 177.396 682.396 177.207 679.727" fill="#294064"/>
<path d="M147.074 679.963C152.968 683.362 159.604 685.488 166.284 686.775C168.752 687.249 176.489 687.728 176.489 687.728C176.489 687.728 177.396 682.396 177.207 679.727" stroke="#294064" stroke-width="0.532508" stroke-miterlimit="10" stroke-linecap="round"/>
<path d="M277.583 705.527C285.662 708.695 295.385 709.581 303.978 708.342C307.493 707.836 316.192 705.186 316.192 705.186L316.831 699.731C316.831 699.731 311.213 699.981 308.755 700.01C307.548 700.022 306.36 699.712 305.162 699.562" fill="#294064"/>
<path d="M277.583 705.527C285.662 708.695 295.385 709.581 303.978 708.342C307.493 707.836 316.192 705.186 316.192 705.186L316.831 699.731C316.831 699.731 311.213 699.981 308.755 700.01C307.548 700.022 306.36 699.712 305.162 699.562" stroke="#294064" stroke-width="0.532508" stroke-miterlimit="10" stroke-linecap="round"/>
<path d="M278.271 537.885C249.96 552.022 219.781 562.917 193.335 580.295C172.377 594.066 166.182 611.298 158.54 634.634C154.931 645.655 149.652 668.628 146.739 679.853C162.964 684.777 207.091 686.522 207.091 686.522C207.091 686.522 205.291 627.458 216.3 614.859C228.001 601.466 268.172 595.404 292.594 574.81C298.681 569.677 291.433 550.895 290.37 543.003" fill="#D0BBC9"/>
<path d="M278.271 537.885C249.96 552.022 219.781 562.917 193.335 580.295C172.377 594.066 166.182 611.298 158.54 634.634C154.931 645.655 149.652 668.628 146.739 679.853C162.964 684.777 207.091 686.522 207.091 686.522C207.091 686.522 205.291 627.458 216.3 614.859C228.001 601.466 268.172 595.404 292.594 574.81C298.681 569.677 291.433 550.895 290.37 543.003" stroke="#294064" stroke-width="0.532508" stroke-miterlimit="10" stroke-linecap="round"/>
<path d="M287.113 556.239C272.767 581.287 240.006 607.943 239.949 637.43C239.896 664.95 257.745 699.808 257.745 699.808C257.745 699.808 275.652 708.166 295.466 707.029C315.281 705.891 337 695.255 337 695.255C337 695.255 285.026 664.064 284.916 635.257C284.884 627.088 317.115 602.643 327.151 580.524C332.318 569.134 327.229 545.029 327.229 545.029" fill="#EBD9E5"/>
<path d="M287.113 556.239C272.767 581.287 240.006 607.943 239.949 637.43C239.896 664.95 257.745 699.808 257.745 699.808C257.745 699.808 275.652 708.166 295.466 707.029C315.281 705.891 337 695.255 337 695.255C337 695.255 285.026 664.064 284.916 635.257C284.884 627.088 317.115 602.643 327.151 580.524C332.318 569.134 327.229 545.029 327.229 545.029" stroke="#294064" stroke-width="0.532508" stroke-miterlimit="10" stroke-linecap="round"/>
<path d="M251.463 571.088C242.031 574.531 231.942 576.537 223.166 581.417C215.613 585.616 208.763 591.336 203.181 597.932C196.157 606.23 190.294 615.634 185.817 625.54C180.766 636.714 178.491 648.948 174.829 660.65" stroke="#294064" stroke-width="0.532508" stroke-miterlimit="10" stroke-linecap="round"/>
<path d="M291.139 588.148C291.139 588.148 290.184 588.576 287.189 591.532C284.195 594.487 281.978 596.589 279.163 599.97C274.509 605.556 269.895 611.188 265.587 617.046C259.305 625.586 251.888 637.867 264.082 644.745C262.708 646.488 261.002 647.291 261.743 649.531C263.1 653.645 264.639 657.701 266.271 661.716C268.935 668.277 271.78 674.763 274.628 681.245C276.088 684.573 279.715 690.889 279.715 690.889" stroke="#294064" stroke-width="0.532508" stroke-miterlimit="10" stroke-linecap="round"/>
<path d="M246.405 477.848C243.772 480.878 240.362 482.07 239.129 485.484C236.285 493.357 238.262 503.557 239.785 507.574C245.064 521.49 246.451 522.619 252.732 533.801C259.217 545.345 246.625 547.987 246.625 547.987C246.625 547.987 258.047 569.632 275.868 579.096C293.688 588.559 321.465 585.522 329.96 585.144C331.76 575.862 329.815 538.957 327.928 529.694C325.313 516.854 318.946 503.471 311.525 492.671C302.075 478.916 270.399 465.661 253.086 473.071C250.496 474.179 248.229 475.749 246.405 477.848Z" fill="#2F2F2F" stroke="#294064" stroke-width="0.532508" stroke-miterlimit="10" stroke-linecap="round"/>
<path d="M241.692 481.014C241.692 481.014 240.923 483.752 240.518 485.316C239.838 487.939 240.344 490.069 241.326 490.458C244.019 491.525 246.947 487.534 247.617 486.631C250.629 482.566 256.229 472.015 256.229 472.015L252.727 468.4" fill="#FFC6B2"/>
<path d="M241.692 481.014C241.692 481.014 240.923 483.752 240.518 485.316C239.838 487.939 240.344 490.069 241.326 490.458C244.019 491.525 246.947 487.534 247.617 486.631C250.629 482.566 256.229 472.015 256.229 472.015L252.727 468.4" stroke="#294064" stroke-width="0.424787" stroke-miterlimit="10" stroke-linecap="round"/>
<path d="M264.352 537.751C264.263 537.485 264.295 537.671 264.819 537.768C265.305 537.859 265.793 537.937 266.283 538.017C267.092 538.151 267.896 538.312 268.704 538.446C271.587 538.924 274.821 538.581 277.703 538.378C285.65 537.82 293.913 536.097 300.523 531.466C301.886 530.512 304.025 529.644 304.778 528.121C305.335 526.994 300.353 524.863 300.179 524.817C299.623 524.668 299.062 524.538 298.505 524.398C297.539 524.156 296.57 523.926 295.608 523.67C286.946 521.363 278.169 521.055 269.308 522.563" fill="#EBD9E5"/>
<path d="M264.352 537.751C264.263 537.485 264.295 537.671 264.819 537.768C265.305 537.859 265.793 537.937 266.283 538.017C267.092 538.151 267.896 538.312 268.704 538.446C271.587 538.924 274.821 538.581 277.703 538.378C285.65 537.82 293.913 536.097 300.523 531.466C301.886 530.512 304.025 529.644 304.778 528.121C305.335 526.994 300.353 524.863 300.179 524.817C299.623 524.668 299.062 524.538 298.505 524.398C297.539 524.156 296.57 523.926 295.608 523.67C286.946 521.363 278.169 521.055 269.308 522.563" stroke="#294064" stroke-width="0.424787" stroke-miterlimit="10" stroke-linecap="round"/>
<path d="M263.249 512.198C270.614 533.801 267.582 541.572 267.65 558.253C267.664 561.904 281.046 558.594 283.983 560.762C289.119 551.352 293.76 554.771 296.068 544.303C298.798 531.924 299.22 518.33 295.278 506.282C293.393 500.525 286.328 496.026 280.27 496.033C273.321 496.041 268.182 502.891 262.138 506.32" fill="#FFC6B2"/>
<path d="M263.249 512.198C270.614 533.801 267.582 541.572 267.65 558.253C267.664 561.904 281.046 558.594 283.983 560.762C289.119 551.352 293.76 554.771 296.068 544.303C298.798 531.924 299.22 518.33 295.278 506.282C293.393 500.525 286.328 496.026 280.27 496.033C273.321 496.041 268.182 502.891 262.138 506.32" stroke="#294064" stroke-width="0.532508" stroke-miterlimit="10" stroke-linecap="round"/>
<path d="M268.418 534.533C268.45 534.733 268.381 537.366 268.429 537.386C268.532 537.427 268.59 537.236 268.676 537.168C269.787 536.291 271.097 535.645 272.314 534.943C276.049 532.79 280.192 530.99 284.385 529.994C287.984 529.138 291.602 528.423 295.246 527.777C295.951 527.652 296.43 527.601 297.156 527.491C297.213 527.482 297.27 527.464 297.328 527.455C297.552 527.419 297.777 527.391 298.001 527.357C298.501 527.281 299.048 527.218 299.536 527.079C299.703 527.031 300.095 527.067 300.028 526.907C299.975 526.782 298.473 526.641 298.356 526.603C296.904 526.139 295.455 525.865 293.934 525.666C287.056 524.763 279.741 525.663 273.062 527.331C270.488 527.973 267.907 528.559 265.298 529.056C265.161 529.082 264.006 529.303 263.544 529.351C263.399 529.366 262.962 529.398 263.107 529.386" fill="#294064"/>
<path d="M268.418 534.533C268.45 534.733 268.381 537.366 268.429 537.386C268.532 537.427 268.59 537.236 268.676 537.168C269.787 536.291 271.097 535.645 272.314 534.943C276.049 532.79 280.192 530.99 284.385 529.994C287.984 529.138 291.602 528.423 295.246 527.777C295.951 527.652 296.43 527.601 297.156 527.491C297.213 527.482 297.27 527.464 297.328 527.455C297.552 527.419 297.777 527.391 298.001 527.357C298.501 527.281 299.048 527.218 299.536 527.079C299.703 527.031 300.095 527.067 300.028 526.907C299.975 526.782 298.473 526.641 298.356 526.603C296.904 526.139 295.455 525.865 293.934 525.666C287.056 524.763 279.741 525.663 273.062 527.331C270.488 527.973 267.907 528.559 265.298 529.056C265.161 529.082 264.006 529.303 263.544 529.351C263.399 529.366 262.962 529.398 263.107 529.386" stroke="#294064" stroke-width="0.532508" stroke-miterlimit="10" stroke-linecap="round"/>
<path d="M281.971 544.48C257.839 536.867 243.644 542.084 223.485 537.5C216.264 535.858 221.034 546.14 214.963 550.381C243.642 562.09 263.887 569.516 273.697 570.235C281.502 570.808 286.712 563.856 289.106 560.796C293.515 555.163 295.967 544.852 295.967 544.852" fill="#FFC6B2"/>
<path d="M281.971 544.48C257.839 536.867 243.644 542.084 223.485 537.5C216.264 535.858 221.034 546.14 214.963 550.381C243.642 562.09 263.887 569.516 273.697 570.235C281.502 570.808 286.712 563.856 289.106 560.796C293.515 555.163 295.967 544.852 295.967 544.852" stroke="#294064" stroke-width="0.532508" stroke-miterlimit="10" stroke-linecap="round"/>
<path d="M184.184 543.42C184.743 539.521 189.378 539.146 192.276 537.484C194.678 536.106 196.774 534.237 199.174 532.855C204.444 529.82 209.505 532.267 214.636 534.435C215.593 534.839 219.452 536.612 224.6 537.736" fill="#FFC6B2"/>
<path d="M184.184 543.42C184.743 539.521 189.378 539.146 192.276 537.484C194.678 536.106 196.774 534.237 199.174 532.855C204.444 529.82 209.505 532.267 214.636 534.435C215.593 534.839 219.452 536.612 224.6 537.736" stroke="#294064" stroke-width="0.532508" stroke-miterlimit="10" stroke-linecap="round"/>
<path d="M220.107 552.473C217.79 551.292 215.307 550.021 214.038 550.533C210.605 551.92 208.667 554.256 205.227 555.626C200.205 557.624 191.962 559.59 187.7 555.216C188.737 553.167 191.527 554.14 193.419 553.982C194.878 553.859 196.334 553.657 197.77 553.368C200.821 552.755 200.894 550.454 203.927 549.758" fill="#FFC6B2"/>
<path d="M220.107 552.473C217.79 551.292 215.307 550.021 214.038 550.533C210.605 551.92 208.667 554.256 205.227 555.626C200.205 557.624 191.962 559.59 187.7 555.216C188.737 553.167 191.527 554.14 193.419 553.982C194.878 553.859 196.334 553.657 197.77 553.368C200.821 552.755 200.894 550.454 203.927 549.758" stroke="#294064" stroke-width="0.532508" stroke-miterlimit="10" stroke-linecap="round"/>
<path d="M206.508 550.653C206.508 550.653 202.16 552.935 200.722 553.398C195.404 555.114 185.474 558.482 180.6 553.452C188.089 551.814 195.184 549.465 202.38 546.842" fill="#FFC6B2"/>
<path d="M206.508 550.653C206.508 550.653 202.16 552.935 200.722 553.398C195.404 555.114 185.474 558.482 180.6 553.452C188.089 551.814 195.184 549.465 202.38 546.842" stroke="#294064" stroke-width="0.532508" stroke-miterlimit="10" stroke-linecap="round"/>
<path d="M202.252 546.705C197.323 550.877 190.09 552.532 183.902 553.41C180.994 553.822 177.467 553.747 176.47 550.52C183.772 549.574 190.855 547.603 197.601 544.646" fill="#FFC6B2"/>
<path d="M202.252 546.705C197.323 550.877 190.09 552.532 183.902 553.41C180.994 553.822 177.467 553.747 176.47 550.52C183.772 549.574 190.855 547.603 197.601 544.646" stroke="#294064" stroke-width="0.532508" stroke-miterlimit="10" stroke-linecap="round"/>
<path d="M197.807 544.478C192.486 548.099 183.79 550.534 177.508 550.769C176.64 550.802 171.435 550.217 172.087 548.611C172.315 548.05 173.233 547.62 173.627 547.462C174.822 546.981 176.064 546.626 177.285 546.213C182.633 544.405 189.587 542.232 194.667 538.639" fill="#FFC6B2"/>
<path d="M197.807 544.478C192.486 548.099 183.79 550.534 177.508 550.769C176.64 550.802 171.435 550.217 172.087 548.611C172.315 548.05 173.233 547.62 173.627 547.462C174.822 546.981 176.064 546.626 177.285 546.213C182.633 544.405 189.587 542.232 194.667 538.639" stroke="#294064" stroke-width="0.532508" stroke-miterlimit="10" stroke-linecap="round"/>
<path d="M212.163 549.125C214.309 549.811 217.003 550.629 219.224 550.119C224.504 548.906 221.879 537.711 221.879 537.711C221.879 537.711 216.456 536.303 213.702 536.682C213.334 536.732 212.951 536.586 212.596 536.688" fill="#FFC6B2"/>
<path d="M212.163 549.125C214.309 549.811 217.003 550.629 219.224 550.119C224.504 548.906 221.879 537.711 221.879 537.711C221.879 537.711 216.456 536.303 213.702 536.682C213.334 536.732 212.951 536.586 212.596 536.688" stroke="#FFC6B2" stroke-width="0.333064" stroke-miterlimit="10" stroke-linecap="round"/>
<path d="M248.925 500.685C249.527 511.906 255.642 520.508 264.273 537.387C269.817 533.396 272.771 530.414 284.697 528.005C296.625 525.595 304.575 527.727 304.575 527.727C304.575 527.727 298.421 503.137 288.753 488.538C285.158 483.109 272.318 474.34 260.145 479.508C254.45 481.926 248.323 489.464 248.925 500.685Z" fill="#2F2F2F" stroke="#294064" stroke-width="0.424787" stroke-miterlimit="10" stroke-linecap="round"/>
<path d="M164.581 498.562C164.771 499.294 164.268 500.319 164.109 501.063C163.719 502.899 163.129 504.686 162.74 506.516" stroke="#294064" stroke-width="0.424787" stroke-miterlimit="10" stroke-linecap="round"/>
<path d="M164.185 498.466C164.381 498.627 163.688 498.355 163.44 498.299C162.703 498.131 161.987 497.972 161.257 497.808C160.112 497.552 158.938 497.164 157.843 496.753C157.35 496.568 156.565 496.169 156.027 496.195C156.024 496.195 156.171 496.499 156.19 496.528C156.419 496.872 156.191 496.566 156.584 496.943C157.05 497.389 157.492 497.867 157.931 498.345C159.101 499.62 161.108 501.223 162.807 501.727C162.877 501.747 163.537 501.886 163.562 501.843C163.672 501.65 164.003 499.995 164.045 499.693C164.079 499.454 164.01 498.321 164.185 498.466Z" fill="#E4AC98" stroke="#E4AC98" stroke-width="0.424787" stroke-miterlimit="10" stroke-linecap="round"/>
<path d="M173.637 519.599C173.441 519.413 172.269 520.655 172.07 520.906C171.654 521.43 169.347 525.753 170.994 526.31C171.72 526.555 172.993 524.794 173.371 524.353C173.527 524.17 175.886 521.338 175.812 521.136C175.786 521.064 174.72 520.733 174.511 520.564C173.449 519.702 174.282 517.966 175.175 517.424" fill="#FFC6B2"/>
<path d="M173.637 519.599C173.441 519.413 172.269 520.655 172.07 520.906C171.654 521.43 169.347 525.753 170.994 526.31C171.72 526.555 172.993 524.794 173.371 524.353C173.527 524.17 175.886 521.338 175.812 521.136C175.786 521.064 174.72 520.733 174.511 520.564C173.449 519.702 174.282 517.966 175.175 517.424" stroke="#FFC6B2" stroke-width="0.424787" stroke-miterlimit="10" stroke-linecap="round"/>
<path d="M204.762 519.851C204.787 519.812 204.677 520.122 204.659 520.247C204.62 520.524 204.652 520.956 204.826 521.195C205.369 521.934 206.177 522.265 206.917 522.743" stroke="#294064" stroke-width="0.424787" stroke-miterlimit="10" stroke-linecap="round"/>
<path d="M172.311 549.132C173.931 548.154 176.245 547.794 177.329 549.59" stroke="#294064" stroke-width="0.424787" stroke-miterlimit="10" stroke-linecap="round"/>
<path d="M177.075 551.509C177.242 551.55 178.174 551.309 178.251 551.295C178.943 551.165 179.735 551.104 180.432 551.185C180.791 551.226 181.373 551.52 181.602 551.784C181.717 551.916 181.801 552.056 181.889 552.205C181.902 552.224 182.014 552.466 181.953 552.365" stroke="#294064" stroke-width="0.424787" stroke-miterlimit="10" stroke-linecap="round"/>
<path d="M186.538 554.918C186.67 554.524 186.517 554.346 186.389 554.014C185.933 552.817 184.279 553.438 183.4 553.512" stroke="#294064" stroke-width="0.424787" stroke-miterlimit="10" stroke-linecap="round"/>
<path d="M184.699 542.316C184.831 541.908 185.587 541.655 185.963 541.438C187.291 540.668 188.283 540.186 189.062 541.714" stroke="#294064" stroke-width="0.424787" stroke-miterlimit="10" stroke-linecap="round"/>
<path d="M153.284 474.369C153.284 474.369 153.986 473.485 156.211 473.878C157.779 474.155 158.063 475.213 158.063 475.213" stroke="#294064" stroke-width="0.710011" stroke-miterlimit="10" stroke-linecap="round"/>
<path d="M167.773 477.377C167.773 477.377 168.814 476.678 170.596 476.983C172.236 477.265 172.526 478.502 172.526 478.502" stroke="#294064" stroke-width="0.710011" stroke-miterlimit="10" stroke-linecap="round"/>
<path d="M156.62 483.499C156.944 483.457 157.327 485.218 158.474 486.197C159.639 487.19 161.567 487.404 161.731 487.784C161.949 488.285 159.419 489.166 157.316 488.067C154.991 486.851 155.867 483.596 156.62 483.499Z" fill="white" stroke="#294064" stroke-width="0.424787" stroke-miterlimit="10" stroke-linecap="round"/>
<path d="M217.571 474.636C218.15 474.173 219.609 474.137 220.837 472.77C222.246 471.2 222.8 469.906 223.363 469.714C223.817 469.559 225.083 474.903 220.207 475.37C218.62 475.522 217.045 475.058 217.571 474.636Z" fill="white" stroke="#294064" stroke-width="0.424787" stroke-miterlimit="10" stroke-linecap="round"/>
</g>
<defs>
<linearGradient id="paint0_linear_19430_176391" x1="393" y1="740.019" x2="711.84" y2="-463.573" gradientUnits="userSpaceOnUse">
<stop stop-color="#FFC670"/>
<stop offset="0.536458" stop-color="#FC803B"/>
<stop offset="0.796875" stop-color="#FF7A00"/>
</linearGradient>
<clipPath id="clip0_19430_176391">
<path d="M0 0H390V789C390 800.046 381.046 809 370 809H20C8.9543 809 0 800.046 0 789V0Z" fill="white"/>
</clipPath>
</defs>
</svg>
