<svg width="390" height="809" viewBox="0 0 390 809" fill="none" xmlns="http://www.w3.org/2000/svg">
<g clip-path="url(#clip0_19430_176933)">
<path d="M390 -9C390 -20.0457 381.046 -29 370 -29L19.9998 -28.9999C8.95416 -28.9999 -0.000151022 -20.0456 -0.000149091 -8.99993L-9.56425e-06 789C-7.63296e-06 800.046 8.95428 809 20 809L370 809C381.046 809 390 800.046 390 789L390 -9Z" fill="url(#paint0_linear_19430_176933)"/>
<path d="M390 -9C390 -20.0457 381.046 -29 370 -29L19.9998 -28.9999C8.95416 -28.9999 -0.000151022 -20.0456 -0.000149091 -8.99993L-9.56425e-06 789C-7.63296e-06 800.046 8.95428 809 20 809L370 809C381.046 809 390 800.046 390 789L390 -9Z" fill="url(#paint1_linear_19430_176933)" fill-opacity="0.2"/>
<path d="M198.277 543.926C198.277 543.926 190.101 565.689 173.093 560.335C151.733 553.61 133.786 525.657 104.534 521.03C75.2828 516.403 60.8542 521.296 48.1561 541.297C35.458 561.298 31.9691 580.021 40.523 609.229C49.077 638.438 66.4625 643.981 82.3717 658.13C100.057 673.859 134.52 663.495 158.035 666.172C186.336 669.393 203.019 690.371 231.498 689.927C252.734 689.596 265.609 689.397 287.09 686.904C308.232 684.448 310.354 683.866 319.551 676.346C328.748 668.826 327.484 654.79 327.484 654.79C327.484 654.79 324.483 627.984 289.794 616.16C255.105 604.338 222.214 625.85 182.357 612.815C176.999 611.063 170.674 607.82 170.688 600.573C170.702 593.328 175.973 586.057 182.412 583.832C213.904 572.945 248.797 574.092 280.125 562.742C297.841 556.323 315.138 561.08 334.082 540.493C334.082 540.493 361.168 514.542 355.893 480.394C351.983 455.074 333.755 465.724 284.54 451.168C235.326 436.611 224.585 421.301 145.558 425.811C121.187 427.202 81.5285 430.446 61.5187 443.69C41.509 456.933 42.2982 471.409 45.1226 481.698C47.8743 491.723 59.949 501.689 69.9983 504.35C102.041 512.835 118.818 485.258 167.966 497.22C212.201 507.986 198.277 543.926 198.277 543.926Z" fill="white" fill-opacity="0.48"/>
<path d="M251.142 628.176C244.179 631.927 226.192 639.164 226.192 639.164C226.192 639.164 212.408 633.804 206.486 633.655C200.565 633.502 201.658 636.741 203.37 639.563C205.532 643.125 210.471 646.788 214.925 650.404C219.375 654.019 225.137 656.786 230.868 656.665C243.395 656.397 268.675 649.287 268.675 649.287C268.675 649.287 310.259 654.485 332.609 653.494C338.858 653.216 345.248 650.353 349.871 646.143C355.136 641.346 359.015 634.684 360.82 627.797C363.628 617.08 367.381 604.985 363.364 594.662C358.072 581.054 342.466 573.842 334.965 561.316C328.958 551.288 327.399 541.741 323.337 528.386C321.602 522.681 313.787 504.402 309.15 512.878C302.103 525.763 309.797 549.148 304.114 583.256" fill="#FFC6B2"/>
<path d="M251.142 628.176C244.179 631.927 226.192 639.164 226.192 639.164C226.192 639.164 212.408 633.804 206.486 633.655C200.565 633.502 201.658 636.741 203.37 639.563C205.532 643.125 210.471 646.788 214.925 650.404C219.375 654.019 225.137 656.786 230.868 656.665C243.395 656.397 268.675 649.287 268.675 649.287C268.675 649.287 310.259 654.485 332.609 653.494C338.858 653.216 345.248 650.353 349.871 646.143C355.136 641.346 359.015 634.684 360.82 627.797C363.628 617.08 367.381 604.985 363.364 594.662C358.072 581.054 342.466 573.842 334.965 561.316C328.958 551.288 327.399 541.741 323.337 528.386C321.602 522.681 313.787 504.402 309.15 512.878C302.103 525.763 309.797 549.148 304.114 583.256" stroke="#294064" stroke-miterlimit="10" stroke-linecap="round"/>
<path d="M312.688 596.254C309.597 589.3 305.441 582.727 303.413 575.392C301.758 569.407 302.333 563.02 301.792 556.834C294.177 555.475 286.684 552.916 278.951 552.758C272.994 552.637 266.931 553.864 261.37 556.01C256.588 557.858 252.04 560.752 248.54 564.502C245.359 567.911 242.945 572.282 241.939 576.835C239.691 587.004 239.337 597.526 238.94 607.934C238.751 612.883 241.884 617.479 245.201 620.715C249.549 624.959 253.616 629.842 259.043 632.571C263.652 634.888 269.159 636.046 274.267 635.335C283.317 634.076 291.944 630.466 300.325 626.822C303.742 625.336 306.637 622.75 309.271 620.111C312.564 616.813 315.614 613.183 317.961 609.155C321.061 603.831 323.777 598.193 325.488 592.277C326.878 587.483 328.226 582.272 327.151 577.399C325.778 571.17 321.892 565.727 318.451 560.357C317.63 559.074 316.114 558.178 314.623 557.854C309.302 556.696 303.776 555.188 298.389 555.994C291.785 556.982 285.901 560.722 279.656 563.086" fill="#FFC6B2"/>
<path d="M312.688 596.254C309.597 589.3 305.441 582.727 303.413 575.392C301.758 569.407 302.333 563.02 301.792 556.834C294.177 555.475 286.684 552.916 278.951 552.758C272.994 552.637 266.931 553.864 261.37 556.01C256.588 557.858 252.04 560.752 248.54 564.502C245.359 567.911 242.945 572.282 241.939 576.835C239.691 587.004 239.337 597.526 238.94 607.934C238.751 612.883 241.884 617.479 245.201 620.715C249.549 624.959 253.616 629.842 259.043 632.571C263.652 634.888 269.159 636.046 274.267 635.335C283.317 634.076 291.944 630.466 300.325 626.822C303.742 625.336 306.637 622.75 309.271 620.111C312.564 616.813 315.614 613.183 317.961 609.155C321.061 603.831 323.777 598.193 325.488 592.277C326.878 587.483 328.226 582.272 327.151 577.399C325.778 571.17 321.892 565.727 318.451 560.357C317.63 559.074 316.114 558.178 314.623 557.854C309.302 556.696 303.776 555.188 298.389 555.994C291.785 556.982 285.901 560.722 279.656 563.086" stroke="#FFC6B2" stroke-miterlimit="10" stroke-linecap="round"/>
<path d="M280.365 604.097C280.365 596.783 286.292 590.854 293.607 590.854C300.922 590.854 306.852 596.783 306.852 604.097C306.852 611.412 300.922 617.342 293.607 617.342C286.292 617.342 280.365 611.412 280.365 604.097Z" fill="#B3A9EC" stroke="#294064" stroke-miterlimit="10"/>
<path d="M285.947 603.82C285.947 599.678 289.306 596.318 293.448 596.318C297.592 596.318 300.951 599.678 300.951 603.82C300.951 607.964 297.592 611.321 293.448 611.321C289.306 611.321 285.947 607.964 285.947 603.82Z" fill="#FFC6B2" stroke="#294064" stroke-miterlimit="10"/>
<path d="M292.478 497.645C285.253 497.507 274.826 499.074 263.57 502.282C243.558 507.985 228.502 516.706 229.942 521.757C230.453 523.549 232.469 526.385 236.082 528.947C235.291 535.875 245.169 555.16 258.381 571.07C266.158 580.433 275.432 586.084 281.967 589.262L285.553 595.439L296.11 592.403L295.429 585.055C299.117 578.798 303.643 569.12 304.981 557.22C307.219 537.362 305.129 516.563 300.958 510.347C302.635 506.32 302.913 502.879 302.408 501.104C301.777 498.894 298.097 497.753 292.478 497.645Z" fill="#B3A9EC" stroke="#294064" stroke-miterlimit="10"/>
<path d="M297.352 593.942C297.423 593.26 297.176 593.06 296.903 592.557C296.304 591.463 295.538 591.523 294.139 591.723C291.761 592.062 289.257 593.338 287.106 594.333C286.546 594.593 285.693 594.132 285.255 594.597C283.629 596.328 287.74 596.319 288.426 595.405" fill="#B3A9EC"/>
<path d="M297.352 593.942C297.423 593.26 297.176 593.06 296.903 592.557C296.304 591.463 295.538 591.523 294.139 591.723C291.761 592.062 289.257 593.338 287.106 594.333C286.546 594.593 285.693 594.132 285.255 594.597C283.629 596.328 287.74 596.319 288.426 595.405" stroke="#B3A9EC" stroke-miterlimit="10" stroke-linecap="round"/>
<path d="M306.289 555.695C302.318 567.773 302.2 578.503 305.102 590.536" stroke="#294064" stroke-miterlimit="10" stroke-linecap="round"/>
<path d="M255.67 599.498C255.67 599.498 252.84 602.695 249.035 605.298" stroke="#294064" stroke-miterlimit="10" stroke-linecap="round"/>
<path d="M302.26 548.826C302.26 548.826 273.085 551.842 249.557 553.097C259.918 572.626 263.791 572.186 272.201 579.57C276.488 583.334 283.653 589.494 289.419 586.726C295.182 583.958 297.294 575.347 299.119 569.342C300.875 563.567 302.26 548.826 302.26 548.826Z" fill="#FF7CAB" fill-opacity="0.78" stroke="#294064" stroke-miterlimit="10" stroke-linecap="round"/>
<path d="M270.474 581.807L300.818 573.154C301.635 572.921 302.589 573.767 302.954 575.043C303.317 576.319 302.952 577.542 302.137 577.774L271.791 586.427C270.976 586.66 270.019 585.814 269.657 584.538C269.292 583.262 269.657 582.039 270.474 581.807Z" fill="#B3A9EC" stroke="#294064" stroke-miterlimit="10"/>
<path d="M263.115 575.394L303.135 563.982C304.208 563.676 305.375 564.462 305.738 565.738C306.103 567.014 305.525 568.296 304.452 568.603L264.432 580.014C263.359 580.32 262.192 579.534 261.83 578.259C261.465 576.983 262.042 575.7 263.115 575.394Z" fill="#B3A9EC" stroke="#294064" stroke-miterlimit="10"/>
<path d="M233.73 526.473L301.528 507.14C303.348 506.621 305.119 507.234 305.484 508.51C305.847 509.786 304.667 511.241 302.845 511.76L235.048 531.093C233.227 531.612 231.457 530.998 231.093 529.723C230.729 528.447 231.91 526.992 233.73 526.473Z" fill="#B3A9EC" stroke="#294064" stroke-miterlimit="10"/>
<path d="M268.202 554.927C262.738 553.403 268.13 564.821 260.136 562.69C255.793 561.533 257.337 564.869 252.62 562.128C249.128 560.098 242.793 548.224 242.793 548.224C242.793 548.224 234.492 544.852 231.567 541.769C219.673 529.232 213.035 525.698 213.035 525.698C213.035 525.698 204.811 520.646 204.147 524.505C203.484 528.364 210.005 539.355 210.005 539.355C210.005 539.355 219.721 557.562 226.633 561.933C238.26 569.286 243.473 568.56 256.487 573.019" fill="#FFC6B2"/>
<path d="M268.202 554.927C262.738 553.403 268.13 564.821 260.136 562.69C255.793 561.533 257.337 564.869 252.62 562.128C249.128 560.098 242.793 548.224 242.793 548.224C242.793 548.224 234.492 544.852 231.567 541.769C219.673 529.232 213.035 525.698 213.035 525.698C213.035 525.698 204.811 520.646 204.147 524.505C203.484 528.364 210.005 539.355 210.005 539.355C210.005 539.355 219.721 557.562 226.633 561.933C238.26 569.286 243.473 568.56 256.487 573.019" stroke="#294064" stroke-miterlimit="10" stroke-linecap="round"/>
<path d="M255.675 611.412C248.012 604.44 237.655 600.274 230.921 590.683C228.109 586.676 229.655 583.982 231.981 580.788C235.35 576.163 235.822 576.061 237.667 573.717C241.245 569.172 243.707 566.649 247.135 562.681C250.886 558.342 258.111 549.658 258.111 549.658C258.111 549.658 263.882 543.356 268.038 543.778C271.743 544.154 269.312 553.157 269.312 553.157C269.312 553.157 267.866 559.535 265.498 564.521C263.13 569.507 260.535 573.432 260.535 573.432L256.881 579.136" fill="#FFC6B2"/>
<path d="M255.675 611.412C248.012 604.44 237.655 600.274 230.921 590.683C228.109 586.676 229.655 583.982 231.981 580.788C235.35 576.163 235.822 576.061 237.667 573.717C241.245 569.172 243.707 566.649 247.135 562.681C250.886 558.342 258.111 549.658 258.111 549.658C258.111 549.658 263.882 543.356 268.038 543.778C271.743 544.154 269.312 553.157 269.312 553.157C269.312 553.157 267.866 559.535 265.498 564.521C263.13 569.507 260.535 573.432 260.535 573.432L256.881 579.136" stroke="#294064" stroke-miterlimit="10" stroke-linecap="round"/>
<path d="M257.871 631.583C247.953 625.593 239.545 621.037 230.062 614.38C228.432 613.237 225.546 610.426 225.008 608.51C223.93 604.67 225.985 600.149 228.586 597.515C231.727 594.336 235.284 591.53 239.077 589.168C244.882 585.554 253.021 581.428 259.101 577.127C262.373 574.814 264.459 572.656 267.202 573.089C272.315 573.895 267.463 583.899 265.698 586.898C261.851 593.434 255.042 600.168 255.042 600.168C255.042 600.168 261.825 603.643 266.228 606.458" fill="#FFC6B2"/>
<path d="M257.871 631.583C247.953 625.593 239.545 621.037 230.062 614.38C228.432 613.237 225.546 610.426 225.008 608.51C223.93 604.67 225.985 600.149 228.586 597.515C231.727 594.336 235.284 591.53 239.077 589.168C244.882 585.554 253.021 581.428 259.101 577.127C262.373 574.814 264.459 572.656 267.202 573.089C272.315 573.895 267.463 583.899 265.698 586.898C261.851 593.434 255.042 600.168 255.042 600.168C255.042 600.168 261.825 603.643 266.228 606.458" stroke="#294064" stroke-miterlimit="10" stroke-linecap="round"/>
<path d="M144.618 526.392C141.486 526.623 133.418 534.982 122.395 539.78C98.6337 550.123 61.6882 556.014 37.6259 573.5C28.0983 580.424 21.9355 595.187 21.1447 604.695C20.2836 615.045 23.2977 628.271 29.3129 636.27C37.7202 647.448 42.6864 649.807 53.9391 653.859C65.7579 658.117 74.1916 658.49 83.863 658.569C100.018 658.7 116.905 653.328 132.356 648.608C143.137 645.315 149.411 642.758 158.145 635.632C164.185 630.702 176.526 616.8 170.894 615.736C164.503 614.528 154.372 622.923 141.695 628.268C135.467 630.895 120.537 631.801 113.78 631.611C119.549 608.436 124.299 587.372 132.093 564.798C134.76 557.074 143.147 549.699 146.343 542.178C147.968 538.356 151.617 525.877 144.618 526.392Z" fill="#FFC6B2" stroke="#294064" stroke-miterlimit="10" stroke-linecap="round"/>
<path d="M160.476 527.269C163.136 528.502 164.292 531.657 163.06 534.317L152.947 556.132C151.714 558.792 148.558 559.948 145.898 558.715C143.239 557.482 142.082 554.327 143.315 551.667L153.428 529.852C154.661 527.193 157.816 526.036 160.476 527.269Z" fill="#FFD4E4" stroke="#294064" stroke-miterlimit="10"/>
<path d="M147.487 467.102C151.921 456.742 155.32 450.06 159.02 447.821C167.039 442.97 174.939 454.127 187.028 459.731C199.23 465.387 217.302 465.568 220.146 476.047C221.42 480.74 218.001 488.459 212.458 498.006C191.096 534.796 154.049 541.312 154.049 541.312C154.049 541.312 133.332 500.171 147.487 467.102Z" fill="#FFD4E4" stroke="#294064" stroke-miterlimit="10"/>
<path d="M160.789 443.448L222.294 471.96C223.75 472.635 224.288 474.571 223.494 476.282C222.701 477.994 220.877 478.834 219.42 478.159L157.915 449.647C156.458 448.972 155.921 447.037 156.715 445.325C157.508 443.613 159.332 442.773 160.789 443.448Z" fill="#FFD4E4" stroke="#294064" stroke-miterlimit="10"/>
<path d="M157.176 533.855C156.453 532.706 152.315 533.816 152.315 533.816L149.621 539.653C149.621 539.653 151.18 542.451 152.781 543.445C153.746 544.045 157.497 544.516 157.497 544.516L160.611 538.174C160.611 538.174 160.915 534.288 160.29 534.441" fill="#FFD4E4"/>
<path d="M157.176 533.855C156.453 532.706 152.315 533.816 152.315 533.816L149.621 539.653C149.621 539.653 151.18 542.451 152.781 543.445C153.746 544.045 157.497 544.516 157.497 544.516L160.611 538.174C160.611 538.174 160.915 534.288 160.29 534.441" stroke="#F6DFE0" stroke-miterlimit="10" stroke-linecap="round"/>
<path d="M147.272 496.572C147.272 496.572 155.288 514.807 171.779 509.692C184.76 505.665 192.368 503.735 202.095 505.954C195.751 513.677 189.586 518.546 181.612 524.573C176.392 528.519 164.601 534.712 158.194 533.374C153.45 532.383 150.74 521.702 148.567 510.879C146.395 500.055 147.272 496.572 147.272 496.572Z" fill="#FF7CAB" fill-opacity="0.482048" stroke="#294064" stroke-miterlimit="10" stroke-linecap="round"/>
<path d="M106.146 637.6C113.575 635.459 115.792 634.159 119.601 632.039C124.048 629.567 127.597 626.808 131.459 623.54C140.238 616.119 147.119 609.614 153.605 600.129C156.382 596.069 157.168 591.92 157.291 587.094C157.328 585.64 156.082 580.194 153.78 580.294C152.181 580.364 144.862 581.632 143.576 582.46C137.051 586.665 137.356 594.151 130.764 598.271C126.62 600.861 122.101 603.201 117.682 605.255C115.515 606.262 112.489 607.166 110.646 608.565" fill="#FFC6B2"/>
<path d="M106.146 637.6C113.575 635.459 115.792 634.159 119.601 632.039C124.048 629.567 127.597 626.808 131.459 623.54C140.238 616.119 147.119 609.614 153.605 600.129C156.382 596.069 157.168 591.92 157.291 587.094C157.328 585.64 156.082 580.194 153.78 580.294C152.181 580.364 144.862 581.632 143.576 582.46C137.051 586.665 137.356 594.151 130.764 598.271C126.62 600.861 122.101 603.201 117.682 605.255C115.515 606.262 112.489 607.166 110.646 608.565" stroke="#294064" stroke-miterlimit="10" stroke-linecap="round"/>
<path d="M97.7427 618.462C104.953 616.011 111.096 612.437 117.746 608.791C117.746 608.791 133.701 600.038 143.887 590.874C144.292 590.51 150.837 584.941 151.239 584.567C156.826 579.373 162.454 575.168 163.91 567.664C164.289 565.71 164.528 561.424 161.598 558.29C158.667 555.157 154.565 553.582 152.921 554.236C148.68 555.921 144.443 559.209 140.146 560.769C135.556 562.436 134.795 570.583 130.259 572.451C126.465 574.015 122.119 575.139 118.524 577.195C114.914 579.259 111.272 581.596 107.508 583.423" fill="#FFC6B2"/>
<path d="M97.7427 618.462C104.953 616.011 111.096 612.437 117.746 608.791C117.746 608.791 133.701 600.038 143.887 590.874C144.292 590.51 150.837 584.941 151.239 584.567C156.826 579.373 162.454 575.168 163.91 567.664C164.289 565.71 164.528 561.424 161.598 558.29C158.667 555.157 154.565 553.582 152.921 554.236C148.68 555.921 144.443 559.209 140.146 560.769C135.556 562.436 134.795 570.583 130.259 572.451C126.465 574.015 122.119 575.139 118.524 577.195C114.914 579.259 111.272 581.596 107.508 583.423" stroke="#294064" stroke-miterlimit="10" stroke-linecap="round"/>
<path d="M95.3922 595.157C95.3922 595.157 99.8741 592.67 102.134 591.461C106.253 589.26 110.377 587.078 114.474 584.838C127.925 577.483 137.056 571.525 151.133 564.534C153.207 563.504 160.693 559.95 162.741 558.995C166.995 557.011 169.759 556.012 174.971 553.307C179.406 551.005 185.06 548.308 187.602 544.408C190.623 539.776 184.978 535.995 177.241 537.027C168.937 538.134 162.404 540.68 155.191 542.125C148.35 543.496 145.165 544.546 138.459 546.32C127.336 549.263 116.327 552.323 105.31 555.636C94.3642 558.928 82.2318 561.685 72.1914 567.266" fill="#FFC6B2"/>
<path d="M95.3922 595.157C95.3922 595.157 99.8741 592.67 102.134 591.461C106.253 589.26 110.377 587.078 114.474 584.838C127.925 577.483 137.056 571.525 151.133 564.534C153.207 563.504 160.693 559.95 162.741 558.995C166.995 557.011 169.759 556.012 174.971 553.307C179.406 551.005 185.06 548.308 187.602 544.408C190.623 539.776 184.978 535.995 177.241 537.027C168.937 538.134 162.404 540.68 155.191 542.125C148.35 543.496 145.165 544.546 138.459 546.32C127.336 549.263 116.327 552.323 105.31 555.636C94.3642 558.928 82.2318 561.685 72.1914 567.266" stroke="#294064" stroke-miterlimit="10" stroke-linecap="round"/>
<path d="M99.4521 593.016L104.015 590.566C104.015 590.566 108.015 594.118 110.689 599.097C113.362 604.08 114.71 610.489 114.71 610.489L110.147 612.939C110.147 612.939 108.603 606.705 105.929 601.724C103.255 596.743 99.4521 593.016 99.4521 593.016Z" fill="#CFE8FF" stroke="#294064" stroke-miterlimit="10"/>
<path d="M118.608 596.904C118.71 595.95 117.89 594.989 116.772 595.193C116.772 595.193 114.044 595.597 112.363 594.784C111.556 594.394 110.749 593.605 110.172 592.873C109.601 592.149 109.299 591.582 109.299 591.582C108.586 590.245 106.578 590.604 106.376 592.106C106.376 592.106 105.916 594.828 104.623 596.176C104.003 596.823 103.003 597.344 102.128 597.668C101.263 597.987 100.633 598.098 100.633 598.098C99.1417 598.364 98.8651 600.384 100.23 601.041C100.23 601.041 102.673 602.319 103.556 603.965C103.98 604.755 104.168 605.864 104.205 606.797C104.241 607.718 104.15 608.354 104.15 608.354C103.941 609.854 105.778 610.743 106.825 609.646C106.825 609.646 108.798 607.718 110.636 607.387C111.518 607.227 112.631 607.392 113.529 607.645C114.416 607.894 114.994 608.175 114.994 608.175C116.357 608.837 117.769 607.368 117.05 606.034C117.05 606.034 115.824 603.564 116.077 601.713C116.199 600.826 116.698 599.816 117.216 599.04C117.728 598.274 118.176 597.813 118.176 597.813C118.439 597.54 118.573 597.221 118.608 596.904Z" fill="#CFE8FF" stroke="#294064" stroke-miterlimit="10"/>
<path d="M100.906 599.631C100.906 599.631 103.996 599.083 105.75 597.253C107.504 595.425 107.923 592.314 107.923 592.314C107.923 592.314 109.4 595.084 111.682 596.187C113.964 597.29 117.052 596.727 117.052 596.727C117.052 596.727 114.874 598.988 114.53 601.499C114.186 604.01 115.676 606.772 115.676 606.772C115.676 606.772 112.853 605.399 110.359 605.849C107.864 606.298 105.697 608.568 105.697 608.568C105.697 608.568 106.13 605.46 104.932 603.225C103.734 600.992 100.906 599.631 100.906 599.631Z" fill="#FF7CAB" stroke="#294064" stroke-miterlimit="10"/>
<path d="M129.857 535.705C129.69 537.682 132.204 536.297 133.072 535.791C136.513 533.784 140.012 531.565 143.026 528.975C143.524 528.547 146.589 526.271 146.419 525.51C146.087 524.027 141.385 526.64 140.747 527.039C137.61 529.003 136.866 529.528 133.917 531.754C133.171 532.317 129.979 534.264 129.857 535.705Z" fill="#74B55D" stroke="#294064" stroke-miterlimit="10" stroke-linecap="round"/>
<path d="M189.031 538.797C185.263 535.754 179.035 538.242 175.602 540.508C172.885 542.301 171.367 545.845 174.523 548.026C177.575 550.136 186.244 546.069 188.202 543.985C189.484 542.621 190.781 540.211 189.031 538.797Z" fill="#74B55D" stroke="#294064" stroke-miterlimit="10" stroke-linecap="round"/>
<path d="M166.997 625.911C158.309 626.107 169.994 615.803 172.737 615.189C176.03 614.452 172.864 619.809 172.734 620.043C171.558 622.148 169.555 625.853 166.997 625.911Z" fill="#74B55D" stroke="#294064" stroke-miterlimit="10" stroke-linecap="round"/>
<path d="M257.067 552.681C256.941 553.132 257.113 553.209 257.48 553.488C258.152 554 259.184 553.364 259.711 552.981C262.589 550.883 264.814 548.305 267.064 545.594C267.369 545.229 268.997 543.368 268.301 542.789C267.603 542.21 265.295 543.53 264.689 543.958C262.144 545.756 257.901 549.654 257.067 552.681Z" fill="#FF7CAB" stroke="#294064" stroke-miterlimit="10" stroke-linecap="round"/>
<path d="M268.265 572.183C268.101 572.092 266.576 572.392 266.197 572.536C265.211 572.913 264.392 573.3 263.488 573.821C261.093 575.206 254.979 577.88 258.019 581.214C258.831 582.105 260.919 581.329 261.707 580.91C263.572 579.919 272.226 574.394 268.265 572.183Z" fill="#FF7CAB" stroke="#294064" stroke-miterlimit="10" stroke-linecap="round"/>
<path d="M108.248 596.238C108.151 596.528 107.886 597.029 107.402 597.61M104.985 599.621C105.441 599.352 105.843 599.07 106.194 598.788" stroke="white" stroke-linecap="round"/>
<path d="M56.6553 442.908C56.6553 430.763 66.5547 420.918 78.7663 420.918C90.9782 420.918 100.878 430.763 100.878 442.908C100.878 455.053 90.9782 464.899 78.7663 464.899C66.5547 464.899 56.6553 455.053 56.6553 442.908Z" fill="white" fill-opacity="0.29"/>
<path d="M61.434 450.156C60.3583 447.714 59.9885 445.185 60.0442 442.786M60.2408 440.369C60.4437 438.898 60.7833 437.511 61.1846 436.268" stroke="white" stroke-linecap="round"/>
<path d="M312.433 465.718C312.433 458.683 318.167 452.98 325.24 452.98C332.314 452.98 338.048 458.683 338.048 465.718C338.048 472.753 332.314 478.456 325.24 478.456C318.167 478.456 312.433 472.753 312.433 465.718Z" fill="white" fill-opacity="0.29"/>
<path d="M315.332 470.551C314.587 468.894 314.331 467.178 314.369 465.55M314.506 463.91C314.646 462.912 314.882 461.971 315.16 461.127" stroke="white" stroke-linecap="round"/>
<path d="M228.338 685.588C228.338 674.969 236.994 666.361 247.67 666.361C258.347 666.361 267.003 674.969 267.003 685.588C267.003 696.206 258.347 704.814 247.67 704.814C236.994 704.814 228.338 696.206 228.338 685.588Z" fill="white" fill-opacity="0.4"/>
<path d="M232.715 692.886C231.59 690.384 231.203 687.794 231.262 685.336M231.467 682.861C231.68 681.354 232.035 679.934 232.454 678.66" stroke="white" stroke-linecap="round"/>
<path d="M233.762 422.578L233.824 422.854L234.091 422.943L243.68 426.157L234.091 429.371L233.824 429.461L233.762 429.736L231.238 441.024L228.713 429.736L228.651 429.461L228.384 429.371L218.795 426.157L228.384 422.943L228.651 422.854L228.713 422.578L231.238 411.291L233.762 422.578Z" fill="#FFD771" stroke="#2E4166"/>
<path d="M269.017 446.495L269.078 446.77L269.346 446.86L287.657 452.983L269.346 459.106L269.078 459.195L269.017 459.471L264.102 481.387L259.188 459.471L259.126 459.195L258.858 459.106L240.547 452.983L258.858 446.86L259.126 446.77L259.188 446.495L264.102 424.578L269.017 446.495Z" fill="#FFD771" stroke="#2E4166"/>
<path d="M159.679 667.452L159.739 667.745L160.025 667.831L167.16 669.984L160.025 672.137L159.739 672.223L159.679 672.517L158.016 680.75L156.354 672.517L156.294 672.223L156.008 672.137L148.873 669.984L156.008 667.831L156.294 667.745L156.354 667.452L158.016 659.219L159.679 667.452Z" fill="#FFD771" stroke="#2E4166"/>
<path d="M140.429 685.887L140.488 686.181L140.775 686.267L154.109 690.286L140.775 694.304L140.488 694.391L140.429 694.684L137.235 710.478L134.041 694.684L133.982 694.391L133.695 694.304L120.36 690.286L133.695 686.267L133.982 686.181L134.041 685.887L137.235 670.093L140.429 685.887Z" fill="#FFD771" stroke="#2E4166"/>
<path d="M246.436 483.26L246.495 483.553L246.781 483.64L252.469 485.362L246.781 487.084L246.495 487.171L246.436 487.464L245.132 493.944L243.828 487.464L243.769 487.171L243.483 487.084L237.795 485.362L243.483 483.64L243.769 483.553L243.828 483.26L245.132 476.78L246.436 483.26Z" fill="#FFD771" stroke="#2E4166"/>
</g>
<defs>
<linearGradient id="paint0_linear_19430_176933" x1="295" y1="-100.5" x2="636.184" y2="591.468" gradientUnits="userSpaceOnUse">
<stop stop-color="#272974"/>
<stop offset="0.901042" stop-color="#7072DA"/>
</linearGradient>
<linearGradient id="paint1_linear_19430_176933" x1="380.5" y1="809" x2="-53" y2="565" gradientUnits="userSpaceOnUse">
<stop stop-color="#FF005B" stop-opacity="0.39"/>
<stop offset="1" stop-color="#FF7CAB" stop-opacity="0.4"/>
</linearGradient>
<clipPath id="clip0_19430_176933">
<path d="M0 0H390V789C390 800.046 381.046 809 370 809H20C8.9543 809 0 800.046 0 789V0Z" fill="white"/>
</clipPath>
</defs>
</svg>
