<svg width="390" height="809" viewBox="0 0 390 809" fill="none" xmlns="http://www.w3.org/2000/svg">
<g clip-path="url(#clip0_19430_176288)">
<path d="M-3.49691e-06 -5.99998C-1.56562e-06 -17.0457 8.95431 -26 20 -26L373 -25.9999C384.046 -25.9999 393 -17.0456 393 -5.99993L393 793C393 804.046 384.046 813 373 813L19.9999 813C8.95416 813 -0.00014513 804.046 -0.000143198 793L-3.49691e-06 -5.99998Z" fill="url(#paint0_linear_19430_176288)"/>
<mask id="mask0_19430_176288" style="mask-type:luminance" maskUnits="userSpaceOnUse" x="-6" y="349" width="380" height="380">
<path d="M374 349H-6V729H374V349Z" fill="white"/>
</mask>
<g mask="url(#mask0_19430_176288)">
<path d="M32.4771 669.996C32.4771 649.951 105.07 633.701 194.617 633.701C284.164 633.701 356.757 649.951 356.757 669.996C356.757 690.042 284.164 706.293 194.617 706.293C105.07 706.293 32.4771 690.042 32.4771 669.996Z" fill="#B3A9EC" stroke="#B3A9EC" stroke-width="0.690711" stroke-miterlimit="10" stroke-linecap="round"/>
<path d="M75.7778 661.345C75.7778 646.434 129.777 634.346 196.389 634.346C263 634.346 317 646.434 317 661.345C317 676.257 263 688.344 196.389 688.344C129.777 688.344 75.7778 676.257 75.7778 661.345Z" fill="#8F68A4"/>
<path d="M65.9111 535.147C65.9111 482.362 108.701 439.572 161.485 439.572C214.27 439.572 257.059 482.362 257.059 535.147C257.059 587.931 214.27 630.72 161.485 630.72C108.701 630.72 65.9111 587.931 65.9111 535.147Z" fill="white" fill-opacity="0.5"/>
<path d="M248.875 454.496C248.875 435.977 263.885 420.965 282.405 420.965C300.924 420.965 315.935 435.977 315.935 454.496C315.935 473.014 300.924 488.027 282.405 488.027C263.885 488.027 248.875 473.014 248.875 454.496Z" fill="#FFCA92"/>
<path d="M45.6865 593.365C45.6865 586.233 51.4696 580.449 58.6036 580.449C65.7375 580.449 71.5206 586.233 71.5206 593.365C71.5206 600.499 65.7375 606.283 58.6036 606.283C51.4696 606.283 45.6865 600.499 45.6865 593.365Z" fill="white" fill-opacity="0.8"/>
<path d="M266.344 630.586C278.994 625.781 287.27 620.029 300.271 617.121C313.272 614.212 316.204 616.59 319.054 617.932C322.307 619.461 326.661 626.745 323.618 633.384C320.575 640.021 314.445 642.001 306.346 645.22C294.024 650.122 279.902 647.295 266.68 648.33" fill="#FAA42B"/>
<path d="M247.737 621.607C259.244 608.161 263.907 595.545 276.756 583.377C281.072 579.291 285.728 574.517 293.745 572.743C301.764 570.969 306.266 572.829 308.83 576.282C313.37 582.394 310.782 589.251 309.257 592.413C304.568 602.128 299.091 606.238 290.956 613.324C281.176 621.843 268.368 626.075 257.074 632.449" fill="#FAA42B"/>
<path d="M237.766 623.566C236.66 622.607 237.103 620.703 237.007 619.245C236.869 617.157 236.84 615.064 236.816 612.971C236.747 607.056 238.348 599.538 242.439 595.025C243.529 593.823 244.623 592.507 246.084 591.8C253.995 587.969 255.942 598.051 255.472 603.709C255.22 606.761 255.263 606.77 254.543 609.759C253.756 613.019 252.613 616.278 250.882 619.17C248.008 623.969 244.876 628.522 239.528 630.734" fill="#FAA42B"/>
<path d="M159.552 589.549C158.539 586.489 154.587 586.638 152.178 586.447C148.758 586.174 143.367 589.675 141.757 592.547C134.923 604.742 136.414 624.612 142.88 636.65" fill="#FAA42B"/>
<path d="M159.552 589.549C158.539 586.489 154.587 586.638 152.178 586.447C148.758 586.174 143.367 589.675 141.757 592.547C134.923 604.742 136.414 624.612 142.88 636.65" stroke="#FFCA00" stroke-width="0.46518" stroke-miterlimit="10" stroke-linecap="round"/>
<path d="M137.382 623.39C137.382 623.39 136.031 607.003 130.671 597.449C128.542 593.655 123.542 586.283 116.212 585.65C113.048 585.377 107.473 586.637 103.727 591.619C98.4203 598.677 101.842 605.491 104.314 610.805C108.95 620.774 119.122 624.431 127.208 631.883C130.403 634.826 135.037 635.65 138.951 637.535" fill="#FAA42B"/>
<path d="M119.827 628.365C118.723 627.998 117.868 627.107 116.858 626.528C115.195 625.573 113.492 624.686 111.769 623.841C108.995 622.481 105.726 621.71 102.721 621.155C97.8436 620.257 92.6156 619.845 88.3017 622.569C80.7403 627.345 78.7494 638.906 87.0294 644.341C93.941 648.875 101.256 649.005 109.224 649.005C114.98 649.005 120.345 649.371 125.906 647.875" fill="#FAA42B"/>
<path d="M119.827 628.365C118.723 627.998 117.868 627.107 116.858 626.528C115.195 625.573 113.492 624.686 111.769 623.841C108.995 622.481 105.726 621.71 102.721 621.155C97.8436 620.257 92.6156 619.845 88.3017 622.569C80.7403 627.345 78.7494 638.906 87.0294 644.341C93.941 648.875 101.256 649.005 109.224 649.005C114.98 649.005 120.345 649.371 125.906 647.875" stroke="#FFCA00" stroke-width="0.46518" stroke-miterlimit="10" stroke-linecap="round"/>
<path d="M289.8 640.46C289.8 640.46 306.099 641.288 316 636.226C325.899 631.165 329.352 625.637 329.398 620.215C329.457 613.016 327.136 609.389 320.188 607.728C313.3 606.084 304.271 609.895 302.846 610.344C292.921 613.476 289.003 620.29 288.337 622.012C286.65 626.376 288.602 627.316 291.53 627.246C291.53 627.246 295.979 627.296 302.288 621.132C309.309 614.276 320.588 602.95 313.074 593.296C309.19 588.309 305.999 587.233 298.341 588.147C290.385 589.097 282.713 593.274 276.649 598.516C271.609 602.874 262.558 615.091 266.461 615.712C271.771 616.558 283.672 598.453 287.869 587.387C291.675 577.356 297.846 563.282 292.975 555.27C288.106 547.258 274.606 552.11 268.392 555.335C262.059 558.621 260.018 566.887 255.832 572.665C259.714 567.053 264.921 566.937 267.479 560.61C269.298 556.12 272.112 544.919 271.361 540.135C270.576 535.14 268.513 530.436 265.028 526.773C261.712 523.287 254.456 520.825 249.7 521.566C243.193 522.579 236.762 526.592 232.864 531.9C226.744 540.232 224.989 551.014 221.05 560.571" fill="#FFC6B2" fill-opacity="0.01"/>
<path d="M289.8 640.46C289.8 640.46 306.099 641.288 316 636.226C325.899 631.165 329.352 625.637 329.398 620.215C329.457 613.016 327.136 609.389 320.187 607.728C313.3 606.084 304.271 609.895 302.846 610.344C292.921 613.476 289.003 620.29 288.337 622.012C286.65 626.376 288.602 627.316 291.53 627.246C291.53 627.246 295.979 627.296 302.288 621.132C309.309 614.276 320.588 602.95 313.074 593.296C309.19 588.309 305.999 587.233 298.341 588.147C290.385 589.097 282.713 593.274 276.649 598.516C271.609 602.874 262.558 615.091 266.461 615.712C271.771 616.558 283.672 598.453 287.869 587.387C291.675 577.356 297.846 563.282 292.975 555.27C288.106 547.258 274.606 552.11 268.392 555.335C262.059 558.621 260.018 566.887 255.832 572.665C259.714 567.053 264.921 566.937 267.479 560.61C269.298 556.12 272.112 544.919 271.361 540.135C270.576 535.14 268.513 530.436 265.028 526.773C261.712 523.287 254.456 520.825 249.7 521.566C243.193 522.579 236.762 526.592 232.864 531.9C226.744 540.232 224.989 551.014 221.05 560.571" stroke="#2E4166" stroke-width="0.3" stroke-miterlimit="10" stroke-linecap="round"/>
<path d="M140.429 551.839C140.429 551.839 133.991 535.648 116.061 534.245C103.719 533.28 94.1474 541.738 90.9135 551.343C86.8326 563.467 89.362 580.521 95.493 591.748C100.216 600.395 117.527 611.5 121.236 606.865C124.267 603.076 111.86 597.738 105.91 595.479C101.129 593.667 95.5375 594.014 90.5702 595.231C86.2457 596.288 81.6979 598.445 79.0851 602.05C76.0686 606.212 74.0952 611.804 74.8757 616.884C76.7572 629.128 80.2304 631.917 86.1796 636.615C86.1796 636.615 94.7502 641.035 95.593 641.497C101.493 644.727 102.062 641.501 108.602 643.514" fill="#FFC6B2" fill-opacity="0.01"/>
<path d="M140.429 551.839C140.429 551.839 133.991 535.648 116.061 534.245C103.719 533.28 94.1474 541.738 90.9135 551.343C86.8326 563.467 89.362 580.521 95.493 591.748C100.216 600.395 117.527 611.5 121.236 606.865C124.267 603.076 111.86 597.738 105.91 595.479C101.129 593.667 95.5375 594.014 90.5702 595.231C86.2457 596.288 81.6979 598.445 79.0851 602.05C76.0686 606.212 74.0952 611.804 74.8757 616.884C76.7572 629.128 80.2304 631.917 86.1796 636.615C86.1796 636.615 94.7502 641.035 95.593 641.497C101.493 644.727 102.062 641.501 108.602 643.514" stroke="#2E4166" stroke-width="0.3" stroke-miterlimit="10" stroke-linecap="round"/>
<path d="M322.921 542C322.921 536.914 327.044 532.791 332.131 532.791C337.217 532.791 341.34 536.914 341.34 542C341.34 547.088 337.217 551.21 332.131 551.21C327.044 551.21 322.921 547.088 322.921 542Z" fill="white" fill-opacity="0.5"/>
<path d="M62.3901 453.912C62.3901 445.31 69.3637 438.336 77.9662 438.336C86.5688 438.336 93.5425 445.31 93.5425 453.912C93.5425 462.515 86.5688 469.488 77.9662 469.488C69.3637 469.488 62.3901 462.515 62.3901 453.912Z" fill="white" fill-opacity="0.5"/>
<path d="M298.673 604.587C298.673 595.211 306.275 587.609 315.651 587.609C325.028 587.609 332.628 595.211 332.628 604.587C332.628 613.964 325.028 621.564 315.651 621.564C306.275 621.564 298.673 613.964 298.673 604.587Z" fill="#FFC6B2" fill-opacity="0.01" stroke="white" stroke-width="0.966773" stroke-miterlimit="10" stroke-linecap="round"/>
<path d="M164.461 590.49L167.671 614.663L223.818 615.377L227.155 582.953L164.461 590.49Z" fill="#FFC6B2" stroke="#2E4166" stroke-width="0.580064" stroke-miterlimit="10" stroke-linecap="round"/>
<path d="M167.395 611.235C162.841 610.833 167.714 617.073 162.54 617.466C138.2 619.32 120.216 619.19 100.049 626.68C90.8205 630.109 83.7721 637.75 81.7251 644.732C79.6782 651.716 82.9267 660.287 94.0185 667.734C105.11 675.186 125.385 677.685 136.807 677.049C165.398 675.459 157.975 669.651 181.519 669.562C198.626 669.495 216.04 674.878 233.116 676.656C248.414 678.248 263.376 676.344 278.636 674.913C288.672 673.973 301.59 668.234 306.887 659.663C310.342 654.071 308.368 642.524 304.425 637.268C299.458 630.646 281.241 622.233 261.226 620.398C239.261 618.383 242.964 618.453 226.321 618.201C224.219 618.169 228.184 610.822 224.749 611.638C217.808 613.282 209.104 613.44 194.887 613.186C180.673 612.931 175.798 611.974 167.395 611.235Z" fill="#369ADC" stroke="#2E4166" stroke-width="0.580064" stroke-miterlimit="10" stroke-linecap="round"/>
<path d="M203.714 641.697C198.478 643.407 195.498 648.816 190.327 649.662C186.128 650.349 178.252 648.69 174.317 647.452C168.836 645.73 160.823 643.745 160.823 643.745L158.696 679.45C158.696 679.45 192.443 669.616 208.431 669.196C213.847 669.055 221.427 666.512 226.728 667.317C227.407 667.423 228.071 667.545 228.73 667.666C228.687 667.528 228.63 667.4 228.593 667.257C228.307 666.111 228.242 664.845 228.342 663.456C228.489 661.459 228.982 659.29 229.58 657.483C229.587 657.459 229.73 656.945 229.76 656.837C229.81 656.65 229.864 656.557 229.912 656.407C229.927 656.269 229.966 656.149 229.99 656.017C228.834 655.408 224.794 654.42 223.711 653.759C216.749 649.506 214.729 645.198 210.008 642.318C208.624 641.472 206.385 640.823 203.714 641.697Z" fill="#FFC6B2" stroke="#2E4166" stroke-width="0.580064" stroke-miterlimit="10" stroke-linecap="round"/>
<path d="M224.128 617.402C215.914 619.401 202.829 619.046 202.829 619.046" stroke="#2E4166" stroke-width="0.580064" stroke-miterlimit="10" stroke-linecap="round"/>
<path d="M168.271 616.938C168.271 616.938 178.068 618.507 181.85 618.184" stroke="#2E4166" stroke-width="0.580064" stroke-miterlimit="10" stroke-linecap="round"/>
<path d="M239.929 645.547L232.456 646.632" stroke="#2E4166" stroke-width="0.580064" stroke-miterlimit="10" stroke-linecap="round"/>
<path d="M239.979 649.332L232.598 650.139" stroke="#2E4166" stroke-width="0.580064" stroke-miterlimit="10" stroke-linecap="round"/>
<path d="M239.852 653.088L232.478 653.47" stroke="#2E4166" stroke-width="0.580064" stroke-miterlimit="10" stroke-linecap="round"/>
<path d="M239.834 656.934L232.568 656.948" stroke="#2E4166" stroke-width="0.580064" stroke-miterlimit="10" stroke-linecap="round"/>
<path d="M239.846 660.737L232.391 660.676" stroke="#2E4166" stroke-width="0.580064" stroke-miterlimit="10" stroke-linecap="round"/>
<path d="M239.903 664.112L232.487 664.041" stroke="#2E4166" stroke-width="0.580064" stroke-miterlimit="10" stroke-linecap="round"/>
<path d="M239.944 667.563L232.456 667.385" stroke="#2E4166" stroke-width="0.580064" stroke-miterlimit="10" stroke-linecap="round"/>
<path d="M240.058 671.118L232.402 670.945" stroke="#2E4166" stroke-width="0.580064" stroke-miterlimit="10" stroke-linecap="round"/>
<path d="M240.159 674.942L232.257 674.5" stroke="#2E4166" stroke-width="0.580064" stroke-miterlimit="10" stroke-linecap="round"/>
<path d="M153.873 645.082L160.597 646.192" stroke="#2E4166" stroke-width="0.580064" stroke-miterlimit="10" stroke-linecap="round"/>
<path d="M153.726 648.395L160.681 649.037" stroke="#2E4166" stroke-width="0.580064" stroke-miterlimit="10" stroke-linecap="round"/>
<path d="M153.439 652.053L160.844 652.344" stroke="#2E4166" stroke-width="0.580064" stroke-miterlimit="10" stroke-linecap="round"/>
<path d="M153.282 655.262L160.814 655.44" stroke="#2E4166" stroke-width="0.580064" stroke-miterlimit="10" stroke-linecap="round"/>
<path d="M153.116 658.734L160.842 658.792" stroke="#2E4166" stroke-width="0.580064" stroke-miterlimit="10" stroke-linecap="round"/>
<path d="M152.733 662.858L156.802 662.826" stroke="#2E4166" stroke-width="0.580064" stroke-miterlimit="10" stroke-linecap="round"/>
<path d="M191.806 461.098C177.261 461.098 164.836 470.481 162.627 482.19C158.337 480.469 155.343 482.615 154.914 485.628C154.228 492.859 160.456 492.946 163.656 492.085C166.549 501.026 175.301 507.937 186.23 509.717C186.23 512.803 185.37 516.458 184.941 517.905C182.796 520.488 184.512 526.326 191.376 526.952C196.094 527.383 202.104 520.057 199.959 517.905C198.243 516.183 198.098 511.623 198.241 509.559C208.769 507.565 217.139 500.79 219.955 492.085C221.583 492.802 224.828 493.818 227.407 490.366C228.695 488.645 229.057 485.495 228.268 483.909C226.55 480.465 222.18 481.186 220.859 482.19C219.558 469.778 207.051 461.098 191.806 461.098Z" fill="#FEC5B1" stroke="#2E4166" stroke-width="0.580064" stroke-miterlimit="10" stroke-linecap="round"/>
<path d="M191.806 461.098C177.402 461.098 165.077 470.299 162.695 481.85C162.672 481.963 162.649 482.077 162.627 482.19C162.519 482.147 162.417 482.104 162.311 482.065C158.193 480.576 155.332 482.69 154.914 485.628C154.228 492.859 160.456 492.946 163.656 492.085C166.549 501.026 175.301 507.937 186.23 509.717C186.23 512.803 185.37 516.458 184.941 517.905C182.796 520.488 184.512 526.326 191.376 526.952C196.094 527.383 202.104 520.057 199.959 517.905C198.243 516.183 198.098 511.623 198.241 509.559C208.639 507.589 216.937 500.963 219.853 492.413C219.891 492.306 219.92 492.193 219.955 492.085C220.054 492.128 220.161 492.177 220.271 492.221C221.976 492.913 224.984 493.608 227.407 490.366C228.695 488.645 229.057 485.495 228.268 483.909C226.67 480.706 222.785 481.096 221.187 481.975C221.067 482.041 220.952 482.12 220.859 482.19C220.846 482.061 220.84 481.932 220.826 481.805C219.308 469.598 206.893 461.098 191.806 461.098ZM191.806 461.437C206.949 461.437 219.254 470.048 220.533 482.224L220.588 482.823L221.074 482.45C221.653 482.009 222.982 481.594 224.388 481.715C225.774 481.832 227.17 482.466 227.962 484.056C228.314 484.765 228.428 485.875 228.279 487.041C228.131 488.203 227.735 489.362 227.136 490.163C225.904 491.81 224.54 492.366 223.303 492.447C222.047 492.531 220.887 492.12 220.091 491.769L219.751 491.622L219.638 491.984C216.868 500.549 208.602 507.256 198.172 509.231L197.912 509.276L197.901 509.536C197.829 510.587 197.823 512.271 198.059 513.913C198.18 514.735 198.363 515.558 198.625 516.288C198.887 517.015 199.234 517.674 199.71 518.154C200.108 518.55 200.18 519.235 199.859 520.178C199.542 521.105 198.874 522.175 197.981 523.175C197.091 524.173 196.003 525.082 194.847 525.72C193.689 526.359 192.498 526.712 191.409 526.613C188.077 526.309 186.034 524.753 185.076 523.005C184.108 521.239 184.238 519.291 185.201 518.131L185.247 518.074L185.269 518.007C185.702 516.546 186.57 512.849 186.57 509.717V509.423L186.286 509.378C175.459 507.614 166.819 500.781 163.973 491.984L163.871 491.678L163.566 491.757C162.002 492.177 159.728 492.35 157.957 491.577C157.081 491.193 156.338 490.588 155.842 489.654C155.344 488.717 155.077 487.429 155.242 485.673C155.444 484.269 156.247 483.071 157.482 482.427C158.716 481.783 160.43 481.663 162.503 482.495L162.888 482.653L162.967 482.246C165.139 470.73 177.389 461.437 191.806 461.437Z" fill="#2E4166"/>
<path d="M223.811 483.704C223.055 483.805 222.245 484.186 221.651 484.564C218.192 488.449 225.538 491.905 225.97 486.724C226.187 484.133 225.07 483.535 223.811 483.704Z" fill="#EDB09B" stroke="#FFC6B2" stroke-width="0.386709" stroke-miterlimit="10" stroke-linecap="round"/>
<path d="M160.501 483.702C159.59 483.567 158.442 484.021 157.662 484.482C154.259 488.039 161.489 491.206 161.914 486.461C162.084 484.564 161.412 483.837 160.501 483.702Z" fill="#EDB09B" stroke="#EDB09B" stroke-width="0.386709" stroke-miterlimit="10" stroke-linecap="round"/>
<path d="M224.297 484.211C223.957 484.169 223.614 484.187 223.28 484.233C222.4 484.354 221.517 484.691 221.007 484.946C220.831 485.033 220.76 485.247 220.847 485.421C220.935 485.595 221.148 485.667 221.322 485.579C221.76 485.361 222.495 485.068 223.234 484.946C223.486 485.127 223.827 485.434 224.117 485.828C224.449 486.282 224.694 486.831 224.694 487.423C224.694 487.617 224.861 487.773 225.056 487.773C225.25 487.773 225.406 487.617 225.406 487.423C225.406 486.633 225.082 485.939 224.694 485.41C224.558 485.227 224.406 485.06 224.263 484.912C224.492 484.946 224.692 485.022 224.852 485.127C225.013 485.236 225.241 485.187 225.349 485.025C225.458 484.862 225.41 484.647 225.247 484.539C224.967 484.352 224.636 484.253 224.297 484.211Z" fill="#2E4166"/>
<path d="M158.375 484.211C158.035 484.253 157.706 484.352 157.425 484.539C157.263 484.647 157.214 484.862 157.323 485.025C157.431 485.187 157.658 485.236 157.821 485.127C157.98 485.022 158.169 484.946 158.397 484.912C158.254 485.06 158.112 485.227 157.979 485.41C157.591 485.939 157.266 486.633 157.266 487.423C157.266 487.617 157.422 487.773 157.617 487.773C157.812 487.773 157.968 487.617 157.968 487.423C157.968 486.831 158.223 486.282 158.556 485.828C158.845 485.434 159.187 485.127 159.438 484.946C160.176 485.068 160.912 485.361 161.349 485.579C161.524 485.667 161.737 485.595 161.824 485.421C161.911 485.247 161.84 485.033 161.666 484.946C161.155 484.691 160.271 484.354 159.393 484.233C159.058 484.187 158.714 484.169 158.375 484.211Z" fill="#2E4166"/>
<path d="M190.075 482.758C189.882 482.738 189.709 482.881 189.69 483.074C189.681 483.161 189.666 483.264 189.657 483.368C189.583 484.138 189.466 485.317 189.204 486.365C189.054 486.963 188.868 487.494 188.627 487.858C188.388 488.221 188.147 488.367 187.881 488.367C186.532 488.367 185.319 488.514 184.85 489.385C184.36 490.293 184.417 491.577 185.54 492.699C186.217 493.375 187.82 493.737 189.26 493.377C189.449 493.33 189.57 493.148 189.522 492.959C189.473 492.77 189.28 492.65 189.091 492.699C187.763 493.03 186.542 492.704 186.117 492.28C185.078 491.242 185.308 490.243 185.573 489.747C185.861 489.215 186.636 489.08 187.881 489.08C188.481 489.08 188.909 488.708 189.215 488.243C189.522 487.78 189.739 487.172 189.895 486.546C190.171 485.441 190.284 484.188 190.358 483.425C190.368 483.322 190.383 483.226 190.392 483.142C190.41 482.948 190.269 482.777 190.075 482.758Z" fill="#2E4166"/>
<path d="M182.022 482.764C181.545 482.763 181.156 483.529 181.152 484.483C181.15 485.436 181.534 486.211 182.011 486.213C182.49 486.214 182.879 485.448 182.883 484.494C182.885 483.539 182.501 482.765 182.022 482.764Z" fill="#2E4166" stroke="#2E4166" stroke-width="0.386709" stroke-miterlimit="10" stroke-linecap="round"/>
<path d="M198.636 482.78C198.163 482.726 197.693 483.45 197.584 484.398C197.476 485.345 197.766 486.153 198.241 486.207C198.714 486.261 199.195 485.538 199.304 484.59C199.412 483.642 199.111 482.835 198.636 482.78Z" fill="#2E4166" stroke="#2E4166" stroke-width="0.386709" stroke-miterlimit="10" stroke-linecap="round"/>
<path d="M196.34 477.974C195.888 477.953 195.483 477.97 195.175 478.008C194.982 478.031 194.845 478.21 194.871 478.404C194.893 478.598 195.073 478.734 195.266 478.709C195.804 478.643 196.719 478.644 197.652 478.868C198.587 479.091 199.515 479.523 200.14 480.304C200.263 480.455 200.474 480.482 200.626 480.36C200.781 480.239 200.805 480.015 200.682 479.863C199.925 478.916 198.834 478.422 197.81 478.178C197.298 478.055 196.793 477.995 196.34 477.974Z" fill="#2E4166"/>
<path d="M184.104 478.065C183.679 478.053 183.202 478.089 182.69 478.212C181.666 478.457 180.575 478.95 179.818 479.897C179.695 480.048 179.721 480.272 179.873 480.394C180.025 480.516 180.25 480.491 180.372 480.338C180.998 479.557 181.924 479.113 182.859 478.89C183.794 478.668 184.673 478.824 185.211 478.89C185.406 478.915 185.731 478.722 185.755 478.528C185.779 478.334 185.406 478.191 185.211 478.166C184.905 478.128 184.529 478.076 184.104 478.065Z" fill="#2E4166"/>
<path d="M204.733 487.854C202.585 487.854 200.842 488.439 200.842 489.154C200.842 489.87 202.585 490.443 204.733 490.443C206.882 490.443 208.622 489.87 208.622 489.154C208.622 488.439 206.882 487.854 204.733 487.854Z" fill="#EDA6BF" stroke="#EDA6BF" stroke-width="0.386709" stroke-miterlimit="10" stroke-linecap="round"/>
<path d="M174.479 487.854C172.331 487.854 170.589 488.439 170.589 489.154C170.589 489.87 172.331 490.443 174.479 490.443C176.628 490.443 178.37 489.87 178.37 489.154C178.37 488.439 176.628 487.854 174.479 487.854Z" fill="#EDA6BF" stroke="#EDA6BF" stroke-width="0.386709" stroke-miterlimit="10" stroke-linecap="round"/>
<path d="M186.468 445.374C172.096 445.811 167.412 455.517 166.868 460.314C163.299 459.463 154.822 459.693 149.452 467.416C142.738 477.069 151.259 483.257 156.158 482.164C160.078 481.29 162.873 483.987 163.781 485.443C164.144 482.165 167.084 475.615 175.938 475.615C184.794 475.615 193.429 470.147 196.634 467.416C207.086 464.211 213.925 474.938 216.042 480.705C215.619 482.951 215.799 487.237 218.994 484.324C222.187 481.409 225.301 482.109 226.57 483.08L227.114 482.537C228.08 479.198 229.032 470.545 225.111 462.677C221.193 454.809 209.689 452.357 204.427 452.114C204.427 449.686 200.838 444.937 186.468 445.374Z" fill="#434343" stroke="#2E4166" stroke-width="0.386709" stroke-miterlimit="10" stroke-linecap="round"/>
<path d="M186.456 445.216C172.17 445.65 167.372 455.197 166.721 460.121C163.009 459.313 154.637 459.657 149.304 467.326C147.612 469.76 146.874 471.993 146.805 473.953C146.735 475.915 147.335 477.591 148.309 478.929C150.248 481.594 153.678 482.907 156.203 482.344C160.021 481.492 162.755 484.118 163.644 485.545L163.905 485.963L163.95 485.477C164.128 483.87 164.94 481.446 166.8 479.427C168.655 477.414 171.557 475.796 175.938 475.796C180.398 475.796 184.803 474.423 188.48 472.709C192.138 471.005 195.093 468.962 196.713 467.586C201.849 466.024 206.1 467.862 209.345 470.831C212.587 473.796 214.813 477.875 215.871 480.738C215.769 481.302 215.706 481.985 215.713 482.65C215.721 483.33 215.8 484.006 216.006 484.527C216.214 485.048 216.561 485.456 217.116 485.488C217.648 485.519 218.302 485.194 219.107 484.459C222.241 481.599 225.265 482.308 226.469 483.227L226.581 483.317L227.26 482.627L227.271 482.593C228.249 479.226 229.214 470.537 225.269 462.621C223.284 458.633 219.381 456.023 215.34 454.387C211.375 452.785 207.25 452.109 204.595 451.967C204.521 450.681 203.539 448.928 200.92 447.534C198.19 446.079 193.657 444.997 186.456 445.216ZM186.467 445.555C193.637 445.337 198.103 446.423 200.762 447.839C203.423 449.257 204.258 450.994 204.258 452.126V452.295H204.426C207.041 452.416 211.212 453.086 215.216 454.704C219.222 456.324 223.031 458.887 224.965 462.768C228.842 470.554 227.922 479.116 226.967 482.458L226.547 482.865C225.146 481.893 222.037 481.329 218.88 484.21C218.088 484.933 217.524 485.172 217.138 485.149C216.775 485.129 216.509 484.869 216.324 484.403C216.138 483.938 216.06 483.301 216.053 482.638C216.045 481.979 216.107 481.3 216.21 480.75L216.222 480.705L216.199 480.659C215.134 477.758 212.88 473.609 209.572 470.583C206.258 467.551 201.877 465.644 196.578 467.269L196.544 467.28L196.52 467.303C194.928 468.659 191.984 470.692 188.334 472.392C184.682 474.094 180.331 475.457 175.938 475.457C171.463 475.457 168.471 477.117 166.551 479.201C164.798 481.103 163.952 483.353 163.678 485.002C162.551 483.475 159.83 481.19 156.124 482.017C153.749 482.546 150.463 481.308 148.592 478.737C147.66 477.456 147.077 475.845 147.144 473.964C147.211 472.082 147.923 469.921 149.587 467.529C154.905 459.884 163.308 459.654 166.834 460.495L167.015 460.54L167.037 460.348C167.574 455.62 172.194 445.988 186.467 445.555Z" fill="#434343"/>
<path d="M186.82 509.67V512.251C190.457 512.422 193.52 510.599 194.592 509.67C192.319 510.184 188.462 509.884 186.82 509.67Z" fill="#EDB09B" stroke="#EDB09B" stroke-width="0.493018" stroke-miterlimit="10" stroke-linecap="round"/>
<path d="M195.108 495.874C194.932 495.81 194.741 495.901 194.678 496.077C194.012 497.927 192.462 498.61 190.709 498.701C188.941 498.793 187.031 498.27 185.81 497.751C185.638 497.678 185.443 497.759 185.371 497.932C185.296 498.104 185.378 498.3 185.551 498.373C186.829 498.917 188.839 499.479 190.742 499.38C192.657 499.28 194.529 498.502 195.322 496.304C195.387 496.126 195.284 495.937 195.108 495.874Z" fill="#2E4166"/>
<path d="M279.549 632.888C270.654 630.294 260.146 630.5 251.426 633.964C247.815 635.399 245.344 637.935 241.801 640.484C238.718 642.702 238.968 642.214 231.609 644.333" fill="#FFC6B2" fill-opacity="0.01"/>
<path d="M279.549 632.888C270.654 630.294 260.146 630.5 251.426 633.964C247.815 635.399 245.344 637.935 241.801 640.484C238.718 642.702 238.968 642.214 231.609 644.333" stroke="#2E4166" stroke-width="0.580064" stroke-miterlimit="10" stroke-linecap="round"/>
<path d="M240.044 641.723C240.26 649.709 239.879 654.421 240.054 663.628C240.23 672.835 240.748 678.55 240.748 678.55" fill="#FFC6B2" fill-opacity="0.01"/>
<path d="M240.044 641.723C240.26 649.709 239.879 654.421 240.054 663.628C240.23 672.835 240.748 678.55 240.748 678.55" stroke="#2E4166" stroke-width="0.580064" stroke-miterlimit="10" stroke-linecap="round"/>
<path d="M161.145 643.563C158.843 642.963 156.385 642.793 154.238 641.767C152.779 641.069 151.893 639.533 150.622 638.531C147.699 636.23 144.264 634.946 140.796 633.638C130.273 629.671 119.389 629.706 108.308 629.24" fill="#FFC6B2" fill-opacity="0.01"/>
<path d="M161.145 643.563C158.843 642.963 156.385 642.793 154.238 641.767C152.779 641.069 151.893 639.533 150.622 638.531C147.699 636.23 144.264 634.946 140.796 633.638C130.273 629.671 119.389 629.706 108.308 629.24" stroke="#2E4166" stroke-width="0.580064" stroke-miterlimit="10" stroke-linecap="round"/>
<path d="M153.771 641.609C153.771 641.609 153.382 649.985 153.246 653.41C153.076 657.709 152.703 661.452 152.621 665.756" fill="#FFC6B2" fill-opacity="0.01"/>
<path d="M153.771 641.609C153.771 641.609 153.382 649.985 153.246 653.41C153.076 657.709 152.703 661.452 152.621 665.756" stroke="#2E4166" stroke-width="0.580064" stroke-miterlimit="10" stroke-linecap="round"/>
<path d="M185.302 517.539C183.736 517.593 181.447 517.776 181.447 517.776C181.447 517.776 179.881 528.696 182.477 531.426C186.328 535.478 195.405 537.172 200.764 537.138C206.471 537.103 213.901 532.312 213.667 525.899C213.596 523.94 212.238 522.226 211.21 520.557C210.906 520.063 210.459 519.667 210.021 519.287C207.05 516.718 202.916 517.643 199.146 517.385" fill="#FFC6B2"/>
<path d="M185.302 517.539C183.736 517.593 181.447 517.776 181.447 517.776C181.447 517.776 179.881 528.696 182.477 531.426C186.328 535.478 195.405 537.172 200.764 537.138C206.471 537.103 213.901 532.312 213.667 525.899C213.596 523.94 212.238 522.226 211.21 520.557C210.906 520.063 210.459 519.667 210.021 519.287C207.05 516.718 202.916 517.643 199.146 517.385" stroke="#2E4166" stroke-width="0.580064" stroke-miterlimit="10" stroke-linecap="round"/>
<path d="M148.667 619.814C148.667 619.814 162.949 636.11 192.915 635.235C227.284 634.229 238.107 619.823 238.107 619.823C238.107 619.823 236.14 560.307 230.778 530.995C229.581 524.455 221.308 521.048 215.099 518.669C209.29 516.443 202.172 517.25 202.172 517.25C202.172 517.25 209.303 529.483 193.871 530.344C176.143 531.332 182.413 517.511 182.413 517.511C182.413 517.511 172.932 518.027 168.925 520.893C164.951 523.736 161.019 528.896 159.861 533.643C153.097 561.374 148.667 619.814 148.667 619.814Z" fill="white" stroke="#2E4166" stroke-width="0.580064" stroke-miterlimit="10" stroke-linecap="round"/>
<path d="M176.425 518.254C152.104 523.614 142.296 533.285 134.564 542.864C130.905 547.397 125.94 557.265 125.94 557.265C125.94 557.265 128.767 559.936 130.399 560.974C136.767 565.022 154.038 566.772 154.038 566.772" fill="white"/>
<path d="M176.425 518.254C152.104 523.614 142.296 533.285 134.564 542.864C130.905 547.397 125.94 557.265 125.94 557.265C125.94 557.265 128.767 559.936 130.399 560.974C136.767 565.022 154.038 566.772 154.038 566.772" stroke="#2E4166" stroke-width="0.580064" stroke-miterlimit="10" stroke-linecap="round"/>
<path d="M211.771 517.625C226.346 520.585 234.222 524.571 244.533 532.301C250.984 537.136 263.821 551.487 266.01 560.395C248.37 565.48 252.903 560.053 235.265 565.139" fill="white"/>
<path d="M211.771 517.625C226.346 520.585 234.222 524.571 244.533 532.301C250.984 537.136 263.821 551.487 266.01 560.395C248.37 565.48 252.903 560.053 235.265 565.139" stroke="#2E4166" stroke-width="0.580064" stroke-miterlimit="10" stroke-linecap="round"/>
<path d="M222.271 592.514L215.303 591.044C214.628 590.902 214.454 590.371 214.916 589.857L219.671 584.558C220.133 584.044 220.679 584.159 220.894 584.814L223.106 591.584C223.319 592.239 222.946 592.655 222.271 592.514Z" fill="#FFC6B2" fill-opacity="0.01" stroke="#E0DAFF" stroke-width="0.607253" stroke-miterlimit="10" stroke-linecap="round"/>
<path d="M213.496 602.783C213.496 602 214.131 601.365 214.912 601.365C215.695 601.365 216.329 602 216.329 602.783C216.329 603.564 215.695 604.199 214.912 604.199C214.131 604.199 213.496 603.564 213.496 602.783Z" fill="#5D569A" stroke="#5D569A" stroke-width="0.607253" stroke-miterlimit="10" stroke-linecap="round"/>
<path d="M164.464 624.548C164.464 623.765 165.098 623.131 165.881 623.131C166.663 623.131 167.297 623.765 167.297 624.548C167.297 625.331 166.663 625.964 165.881 625.964C165.098 625.964 164.464 625.331 164.464 624.548Z" fill="#5D569A" stroke="#5D569A" stroke-width="0.607253" stroke-miterlimit="10" stroke-linecap="round"/>
<path d="M152.804 558.836C152.804 558.053 153.438 557.418 154.22 557.418C155.003 557.418 155.637 558.053 155.637 558.836C155.637 559.617 155.003 560.251 154.22 560.251C153.438 560.251 152.804 559.617 152.804 558.836Z" fill="#5D569A" stroke="#5D569A" stroke-width="0.607253" stroke-miterlimit="10" stroke-linecap="round"/>
<path d="M173.588 524.686C173.588 523.904 174.222 523.27 175.005 523.27C175.787 523.27 176.421 523.904 176.421 524.686C176.421 525.469 175.787 526.103 175.005 526.103C174.222 526.103 173.588 525.469 173.588 524.686Z" fill="#5D569A" stroke="#5D569A" stroke-width="0.607253" stroke-miterlimit="10" stroke-linecap="round"/>
<path d="M256.404 552.441C256.404 551.658 257.038 551.023 257.821 551.023C258.603 551.023 259.237 551.658 259.237 552.441C259.237 553.222 258.603 553.857 257.821 553.857C257.038 553.857 256.404 553.222 256.404 552.441Z" fill="#5D569A" stroke="#5D569A" stroke-width="0.607253" stroke-miterlimit="10" stroke-linecap="round"/>
<path d="M209.012 556.332C209.012 555.549 209.646 554.914 210.427 554.914C211.21 554.914 211.845 555.549 211.845 556.332C211.845 557.113 211.21 557.747 210.427 557.747C209.646 557.747 209.012 557.113 209.012 556.332Z" fill="#E0DAFF" stroke="#E0DAFF" stroke-width="0.607253" stroke-miterlimit="10" stroke-linecap="round"/>
<path d="M210.128 624.959C210.128 624.178 210.763 623.543 211.546 623.543C212.327 623.543 212.962 624.178 212.962 624.959C212.962 625.742 212.327 626.376 211.546 626.376C210.763 626.376 210.128 625.742 210.128 624.959Z" fill="#E0DAFF" stroke="#E0DAFF" stroke-width="0.607253" stroke-miterlimit="10" stroke-linecap="round"/>
<path d="M178.886 603.752C178.886 602.969 179.52 602.334 180.304 602.334C181.085 602.334 181.719 602.969 181.719 603.752C181.719 604.535 181.085 605.167 180.304 605.167C179.52 605.167 178.886 604.535 178.886 603.752Z" fill="#E0DAFF" stroke="#E0DAFF" stroke-width="0.607253" stroke-miterlimit="10" stroke-linecap="round"/>
<path d="M165.678 559.548C165.678 558.765 166.313 558.131 167.095 558.131C167.877 558.131 168.512 558.765 168.512 559.548C168.512 560.331 167.877 560.966 167.095 560.966C166.313 560.966 165.678 560.331 165.678 559.548Z" fill="#E0DAFF" stroke="#E0DAFF" stroke-width="0.607253" stroke-miterlimit="10" stroke-linecap="round"/>
<path d="M208.501 521.02C208.501 520.238 209.136 519.604 209.919 519.604C210.7 519.604 211.334 520.238 211.334 521.02C211.334 521.803 210.7 522.437 209.919 522.437C209.136 522.437 208.501 521.803 208.501 521.02Z" fill="#E0DAFF" stroke="#E0DAFF" stroke-width="0.607253" stroke-miterlimit="10" stroke-linecap="round"/>
<path d="M200.096 578.695C200.096 577.912 200.729 577.277 201.512 577.277C202.295 577.277 202.929 577.912 202.929 578.695C202.929 579.478 202.295 580.111 201.512 580.111C200.729 580.111 200.096 579.478 200.096 578.695Z" fill="#FF7CAB" stroke="#FF7CAB" stroke-width="0.607253" stroke-miterlimit="10" stroke-linecap="round"/>
<path d="M232.743 617.595C232.743 616.814 233.378 616.18 234.161 616.18C234.942 616.18 235.576 616.814 235.576 617.595C235.576 618.378 234.942 619.013 234.161 619.013C233.378 619.013 232.743 618.378 232.743 617.595Z" fill="#FF7CAB" stroke="#FF7CAB" stroke-width="0.607253" stroke-miterlimit="10" stroke-linecap="round"/>
<path d="M150.244 612.91C150.244 612.129 150.878 611.494 151.66 611.494C152.443 611.494 153.077 612.129 153.077 612.91C153.077 613.693 152.443 614.327 151.66 614.327C150.878 614.327 150.244 613.693 150.244 612.91Z" fill="#FF7CAB" stroke="#FF7CAB" stroke-width="0.607253" stroke-miterlimit="10" stroke-linecap="round"/>
<path d="M235.677 556.408C235.677 555.625 236.309 554.99 237.092 554.99C237.875 554.99 238.51 555.625 238.51 556.408C238.51 557.189 237.875 557.824 237.092 557.824C236.309 557.824 235.677 557.189 235.677 556.408Z" fill="#FF7CAB" stroke="#FF7CAB" stroke-width="0.607253" stroke-miterlimit="10" stroke-linecap="round"/>
<path d="M184.651 541.156C184.651 540.375 185.285 539.74 186.067 539.74C186.85 539.74 187.484 540.375 187.484 541.156C187.484 541.939 186.85 542.574 186.067 542.574C185.285 542.574 184.651 541.939 184.651 541.156Z" fill="#FF7CAB" stroke="#FF7CAB" stroke-width="0.607253" stroke-miterlimit="10" stroke-linecap="round"/>
<path d="M144.77 540.174C144.77 539.392 145.404 538.758 146.186 538.758C146.969 538.758 147.603 539.392 147.603 540.174C147.603 540.957 146.969 541.591 146.186 541.591C145.404 541.591 144.77 540.957 144.77 540.174Z" fill="#FF7CAB" stroke="#FF7CAB" stroke-width="0.607253" stroke-miterlimit="10" stroke-linecap="round"/>
<path d="M130.956 561.729C130.956 561.729 123.878 574.361 122.318 582.588C120.934 589.883 121.424 599.244 128.757 601.265C136.09 603.287 144.666 600.634 152.037 596.494C159.11 592.522 166.185 587.408 172.128 581.886" fill="#FFC6B2"/>
<path d="M130.956 561.729C130.956 561.729 123.878 574.361 122.318 582.588C120.934 589.883 121.424 599.244 128.757 601.265C136.09 603.287 144.666 600.634 152.037 596.494C159.11 592.522 166.185 587.408 172.128 581.886" stroke="#2E4166" stroke-width="0.580064" stroke-miterlimit="10"/>
<path d="M263.173 564.953C263.173 564.953 273.914 588.929 267.65 596.489C257.018 609.325 238.862 598.463 212.255 581.558" fill="#FFC6B2"/>
<path d="M263.173 564.953C263.173 564.953 273.914 588.929 267.65 596.489C257.018 609.325 238.862 598.463 212.255 581.558" stroke="#2E4166" stroke-width="0.580064" stroke-miterlimit="10"/>
<path d="M163.921 543.018C162.093 546.228 160.432 550.785 159.432 554.032C158.261 557.83 157.601 561.364 156.971 565.289" fill="#FFC6B2" fill-opacity="0.01"/>
<path d="M163.921 543.018C162.093 546.228 160.432 550.785 159.432 554.032C158.261 557.83 157.601 561.364 156.971 565.289" stroke="#2E4166" stroke-width="0.580064" stroke-miterlimit="10" stroke-linecap="round"/>
<path d="M225.681 542.342C225.681 542.342 229.513 549.237 231.63 554.508C233.747 559.778 234.148 563.424 234.148 563.424" fill="#FFC6B2" fill-opacity="0.01"/>
<path d="M225.681 542.342C225.681 542.342 229.513 549.237 231.63 554.508C233.747 559.778 234.148 563.424 234.148 563.424" stroke="#2E4166" stroke-width="0.580064" stroke-miterlimit="10" stroke-linecap="round"/>
<path d="M157.568 565.057C157.568 565.057 149.894 559.518 141.595 557.346C133.296 555.173 124.371 556.366 124.371 556.366C124.371 556.366 122.344 559.808 121.715 563.439C121.086 567.07 121.854 570.889 121.854 570.889C121.854 570.889 127.202 569.438 136.065 570.95C148.221 573.022 154.295 578.45 154.295 578.45L157.568 565.057Z" fill="white" stroke="#2E4166" stroke-width="0.580064" stroke-miterlimit="10" stroke-linecap="round"/>
<path d="M266.179 556.442C266.179 556.442 268.199 559.116 269.35 562.333C270.5 565.55 269.908 570.028 269.908 570.028C269.908 570.028 261.032 569.805 251.153 571.69C241.273 573.575 235.059 579.978 235.059 579.978L232.281 563.797C232.281 563.797 237.924 560.136 247.476 558.078C257.026 556.021 266.179 556.442 266.179 556.442Z" fill="white" stroke="#2E4166" stroke-width="0.580064" stroke-miterlimit="10" stroke-linecap="round"/>
<path d="M136.795 577.741C153.728 571.02 183.541 578.472 185.141 569.155C185.677 566.025 188.191 548.389 190.026 542.945C191.527 538.492 195.559 538.243 195.507 540.501C195.411 544.745 200.656 573.306 194.613 579.988C184.608 591.052 158.19 597.18 137.873 601.697" fill="#FFC6B2"/>
<path d="M136.795 577.741C153.728 571.02 183.541 578.472 185.141 569.155C185.677 566.025 188.191 548.389 190.026 542.945C191.527 538.492 195.559 538.243 195.507 540.501C195.411 544.745 200.656 573.306 194.613 579.988C184.608 591.052 158.19 597.18 137.873 601.697" stroke="#2E4166" stroke-width="0.580064" stroke-miterlimit="10" stroke-linecap="round"/>
<path d="M254.664 577.633C237.731 570.913 211.981 576.134 208.322 568.295C206.948 565.354 203.202 548.582 201.727 543.029C200.298 537.646 196.326 538.017 195.951 539.704C195.222 542.995 196.213 560.596 196.213 560.596C196.213 560.596 194.591 567.088 196.272 573.952C200.074 589.475 230.908 594.945 245.635 599.912" fill="#FFC6B2"/>
<path d="M254.664 577.633C237.731 570.913 211.981 576.134 208.322 568.295C206.948 565.354 203.202 548.582 201.727 543.029C200.298 537.646 196.326 538.017 195.951 539.704C195.222 542.995 196.213 560.596 196.213 560.596C196.213 560.596 194.591 567.088 196.272 573.952C200.074 589.475 230.908 594.945 245.635 599.912" stroke="#2E4166" stroke-width="0.580064" stroke-miterlimit="10" stroke-linecap="round"/>
<path d="M197.209 543.279C197.168 543.758 197.001 546.545 198.219 546.497" stroke="#2E4166" stroke-width="0.580064" stroke-miterlimit="10" stroke-linecap="round"/>
<path d="M195.376 541.117C195.268 539.975 193.099 539.705 192.181 541.623C191.615 542.805 189.195 550.73 188.806 559.441" fill="#FFC6B2"/>
<path d="M195.376 541.117C195.268 539.975 193.099 539.705 192.181 541.623C191.615 542.805 189.195 550.73 188.806 559.441" stroke="#2E4166" stroke-width="0.580064" stroke-miterlimit="10" stroke-linecap="round"/>
<path d="M195.492 543.37C194.615 542.116 193.036 543.827 192.568 545.198C191.878 547.224 191.674 549.679 191.522 551.822C191.474 552.51 191.045 560.531 191.045 560.531" fill="#FFC6B2"/>
<path d="M195.492 543.37C194.615 542.116 193.036 543.827 192.568 545.198C191.878 547.224 191.674 549.679 191.522 551.822C191.474 552.51 191.045 560.531 191.045 560.531" stroke="#2E4166" stroke-width="0.580064" stroke-miterlimit="10" stroke-linecap="round"/>
<path d="M196.14 540.918C197.222 538.747 198.665 539.605 199.517 540.889C200.584 542.495 201.467 546.659 201.467 546.659C201.467 546.659 203.53 555.983 203.582 556.688" fill="#FFC6B2"/>
<path d="M196.14 540.918C197.222 538.747 198.665 539.605 199.517 540.889C200.584 542.495 201.467 546.659 201.467 546.659C201.467 546.659 203.53 555.983 203.582 556.688" stroke="#2E4166" stroke-width="0.580064" stroke-miterlimit="10" stroke-linecap="round"/>
<path d="M195.778 544.502C196.333 542.686 197.918 542.447 198.662 544.376C199.64 546.909 201.629 557.745 201.786 560.45" fill="#FFC6B2"/>
<path d="M195.778 544.502C196.333 542.686 197.918 542.447 198.662 544.376C199.64 546.909 201.629 557.745 201.786 560.45" stroke="#2E4166" stroke-width="0.580064" stroke-miterlimit="10" stroke-linecap="round"/>
<path d="M103.798 633.938C110.434 631.894 118.537 628.734 132.842 629.764C148.585 630.899 155.578 637.278 161.303 642.746C161.303 642.746 166.577 642.544 169.761 646.979C172.945 651.413 173.366 655.109 174.039 660.485C174.807 666.63 174.11 671.795 172.208 675.924C170.882 678.802 165.682 678.882 165.682 678.882C151.955 686.457 136.306 686.292 123.709 684.387C112.217 682.648 104.582 680.819 96.4992 675.623C90.2587 671.614 85.9819 666.917 83.6297 663.297C81.9536 660.718 80.7346 656.759 80.4674 652.423C80.1859 647.856 82.0497 641.904 85.1727 637.861" fill="#369ADC"/>
<path d="M103.798 633.938C110.434 631.894 118.537 628.734 132.842 629.764C148.585 630.899 155.578 637.278 161.303 642.746C161.303 642.746 166.577 642.544 169.761 646.979C172.945 651.413 173.366 655.109 174.039 660.485C174.807 666.63 174.11 671.795 172.208 675.924C170.882 678.802 165.682 678.882 165.682 678.882C151.955 686.457 136.306 686.292 123.709 684.387C112.217 682.648 104.582 680.819 96.4992 675.623C90.2587 671.614 85.9819 666.917 83.6297 663.297C81.9536 660.718 80.7346 656.759 80.4674 652.423C80.1859 647.856 82.0497 641.904 85.1727 637.861" stroke="#2E4166" stroke-width="0.580064" stroke-miterlimit="10" stroke-linecap="round"/>
<path d="M161.952 645.238C163.852 648.645 164.784 652.421 165.349 655.397C166.021 658.928 166.2 664.405 165.79 668.365" stroke="#2E4166" stroke-width="0.580064" stroke-miterlimit="10" stroke-linecap="round"/>
<path d="M231.964 677.881L232.057 644.252C232.057 644.252 225.592 645.844 218.05 647.993C213.981 649.152 205.113 649.323 200.916 648.462C195.005 647.249 192.503 638.96 183.953 642.035C179.036 643.805 178.91 646.245 171.944 651.561C166.201 655.943 153.999 664.883 149.05 668.557C138.096 676.688 141.317 678.009 141.845 678.428C143.92 680.077 149.962 675.635 149.962 675.635C149.962 675.635 172.3 673.414 179.543 672.041C184.844 671.038 193.878 671.876 193.878 671.876L231.964 677.881Z" fill="#FFC6B2" stroke="#2E4166" stroke-width="0.580064" stroke-miterlimit="10" stroke-linecap="round"/>
<path d="M286.065 633.563C279.428 631.519 271.325 628.359 257.022 629.389C241.278 630.524 234.285 636.903 228.561 642.371C228.561 642.371 223.287 642.169 220.103 646.604C216.919 651.038 216.496 654.734 215.825 660.11C215.057 666.255 215.752 671.42 217.654 675.549C218.981 678.427 224.182 678.507 224.182 678.507C237.909 686.082 253.558 685.917 266.154 684.012C277.645 682.273 285.28 680.444 293.365 675.248C299.605 671.239 303.882 666.542 306.234 662.922C307.91 660.343 309.129 656.384 309.396 652.048C309.678 647.481 307.813 641.529 304.691 637.486" fill="#369ADC"/>
<path d="M286.065 633.563C279.428 631.519 271.325 628.359 257.022 629.389C241.278 630.524 234.285 636.903 228.561 642.371C228.561 642.371 223.287 642.169 220.103 646.604C216.919 651.038 216.496 654.734 215.825 660.11C215.057 666.255 215.752 671.42 217.654 675.549C218.981 678.427 224.182 678.507 224.182 678.507C237.909 686.082 253.558 685.917 266.154 684.012C277.645 682.273 285.28 680.444 293.365 675.248C299.605 671.239 303.882 666.542 306.234 662.922C307.91 660.343 309.129 656.384 309.396 652.048C309.678 647.481 307.813 641.529 304.691 637.486" stroke="#2E4166" stroke-width="0.580064" stroke-miterlimit="10" stroke-linecap="round"/>
<path d="M227.911 644.871C226.011 648.278 225.08 652.054 224.514 655.03C223.842 658.561 223.664 664.038 224.074 667.998" stroke="#2E4166" stroke-width="0.580064" stroke-miterlimit="10" stroke-linecap="round"/>
</g>
</g>
<defs>
<linearGradient id="paint0_linear_19430_176288" x1="393" y1="740.019" x2="711.84" y2="-463.573" gradientUnits="userSpaceOnUse">
<stop stop-color="#FFC670"/>
<stop offset="0.536458" stop-color="#FC803B"/>
<stop offset="0.796875" stop-color="#FF7A00"/>
</linearGradient>
<clipPath id="clip0_19430_176288">
<path d="M0 0H390V789C390 800.046 381.046 809 370 809H20C8.9543 809 0 800.046 0 789V0Z" fill="white"/>
</clipPath>
</defs>
</svg>
