<svg width="390" height="809" viewBox="0 0 390 809" fill="none" xmlns="http://www.w3.org/2000/svg">
<g clip-path="url(#clip0_19430_175712)">
<path d="M-3.49691e-06 -5.99998C-1.56562e-06 -17.0457 8.95431 -26 20 -26L373 -25.9999C384.046 -25.9999 393 -17.0456 393 -5.99993L393 793C393 804.046 384.046 813 373 813L19.9999 813C8.95416 813 -0.00014513 804.046 -0.000143198 793L-3.49691e-06 -5.99998Z" fill="url(#paint0_linear_19430_175712)"/>
<path d="M156.197 388.553H24.9761H-23.0664C-12.0716 385.128 12.9296 378.28 24.9761 378.28C40.0342 378.28 39.5562 356.3 62.0238 357.017C84.4915 357.734 77.3209 379.474 108.154 378.28C132.821 377.324 150.46 384.73 156.197 388.553Z" fill="white"/>
<path d="M235.934 466.553H367.155H415.197C404.202 463.128 379.201 456.28 367.155 456.28C352.097 456.28 352.575 434.3 330.107 435.017C307.639 435.734 314.81 457.474 283.977 456.28C259.31 455.324 241.671 462.73 235.934 466.553Z" fill="white"/>
<path d="M458.802 596.808H330.079C345.87 573.444 367.404 575.59 397.551 582.503C427.698 589.417 414.778 582.503 433.919 582.503C449.232 582.503 456.888 592.04 458.802 596.808Z" fill="white"/>
<path d="M169.523 739.212H1.42871C1.42871 726.275 10.9931 726.036 20.0793 718.609C27.3482 712.668 42.2368 716.133 48.7724 718.609C85.8344 704.234 88.7037 726.754 114.767 726.036C135.617 725.461 159.958 734.58 169.523 739.212Z" fill="white"/>
<path d="M311.511 803.118C367.485 785.162 411.345 804.148 427.11 816.838H155.842H40.2425H18.3232C22.6792 802.319 48.0608 797.524 60.2071 796.941C69.9784 790.311 82.6587 785.007 97.6234 785.007C127.556 785.007 148.908 806.228 155.842 816.838C158.262 809.579 174.941 793.048 222.298 785.007C269.655 776.965 301.505 793.73 311.511 803.118Z" fill="#3C6124"/>
<path d="M298.806 807.764C303.104 805.998 307.341 804.455 311.511 803.118M311.511 803.118C367.485 785.162 411.345 804.148 427.11 816.838H155.842M311.511 803.118C301.505 793.73 269.655 776.965 222.298 785.007C174.941 793.048 158.262 809.579 155.842 816.838M155.842 816.838C148.908 806.228 127.556 785.007 97.6234 785.007C82.6587 785.007 69.9784 790.311 60.2071 796.941M155.842 816.838H40.2425M40.2425 816.838H18.3232C22.6792 802.319 48.0608 797.524 60.2071 796.941M40.2425 816.838C43.5703 811.532 50.4335 803.573 60.2071 796.941" stroke="#2E4166" stroke-linecap="round"/>
<path d="M311.509 803.118C367.483 785.162 411.344 804.148 427.109 816.838H155.841H40.2412C43.5691 811.532 43.4516 811.743 53.2252 805.111C62.9965 798.48 80.0048 796.941 94.9695 796.941C124.903 796.941 148.907 806.228 155.841 816.838C158.261 809.579 174.94 793.048 222.297 785.007C269.653 776.965 301.504 793.73 311.509 803.118Z" fill="#5A8240"/>
<path d="M298.805 807.764C303.102 805.998 307.339 804.455 311.509 803.118M311.509 803.118C367.484 785.162 411.344 804.148 427.109 816.838H155.841M311.509 803.118C301.504 793.73 269.653 776.965 222.297 785.007C174.94 793.048 158.261 809.579 155.841 816.838M155.841 816.838C148.907 806.228 124.903 796.941 94.9695 796.941C80.0048 796.941 62.9965 798.48 53.2252 805.111C43.4516 811.743 43.5691 811.532 40.2412 816.838H155.841Z" stroke="#2E4166" stroke-linecap="round"/>
<path d="M311.509 803.118C367.484 785.162 411.344 804.148 427.109 816.838H155.841C158.261 809.579 174.94 793.048 222.297 785.007C269.653 776.965 301.504 793.73 311.509 803.118Z" fill="#5A8240"/>
<path d="M298.805 807.764C303.102 805.998 307.339 804.455 311.509 803.118M311.509 803.118C367.484 785.162 411.344 804.148 427.109 816.838H155.841C158.261 809.579 174.94 793.048 222.297 785.007C269.653 776.965 301.504 793.73 311.509 803.118Z" stroke="#2E4166" stroke-linecap="round"/>
<path d="M322.819 816.835C378.793 798.879 411.344 804.145 427.109 816.835H322.819C322.819 816.835 322.818 816.835 322.818 816.835C322.373 816.978 321.798 816.967 321.121 816.835H155.841C158.261 809.575 168.797 809.381 216.154 801.339C263.51 793.298 312.811 807.447 322.818 816.835H322.819Z" fill="#3C6124"/>
<path d="M298.805 807.76C303.102 805.994 318.648 818.173 322.818 816.835M322.818 816.835C378.792 798.879 411.344 804.145 427.109 816.835H155.841C158.261 809.575 168.797 809.381 216.154 801.339C263.51 793.298 312.812 807.447 322.818 816.835Z" stroke="#2E4166" stroke-linecap="round"/>
<path d="M123.069 544.814C122.105 546.56 119.802 546.034 118.992 548.542C118.238 546.389 121.004 543.457 123.069 544.814Z" fill="#294064" stroke="#2E4166" stroke-miterlimit="10" stroke-linecap="round"/>
<path d="M119.514 542.496C118.549 544.241 116.247 543.715 115.436 546.223C114.683 544.07 117.448 541.139 119.514 542.496Z" fill="#294064" stroke="#2E4166" stroke-miterlimit="10" stroke-linecap="round"/>
<path d="M115.525 528.285C112.333 527.399 114.525 528.592 111.431 527.398C110.501 527.039 109.578 526.661 108.671 526.248C107.612 525.766 106.544 525.293 105.539 524.705C104.229 523.939 98.9475 520.274 102.725 519.066C105.147 518.292 108.637 520.231 110.865 520.939C117.635 523.09 123.817 526.76 129.328 531.208C132.667 533.903 136.253 539.739 130.767 542.672C127.024 544.673 123.169 543.674 119.392 542.403C111.397 539.713 104.37 535.382 96.9058 531.547C94.1409 530.127 90.3479 528.054 88.9436 525.133C88.2324 523.654 87.3861 519.581 91.9738 520.019" fill="#E14438"/>
<path d="M115.525 528.285C112.333 527.399 114.525 528.592 111.431 527.398C110.501 527.039 109.578 526.661 108.671 526.248C107.612 525.766 106.544 525.293 105.539 524.705C104.229 523.939 98.9475 520.274 102.725 519.066C105.147 518.292 108.637 520.231 110.865 520.939C117.635 523.09 123.817 526.76 129.328 531.208C132.667 533.903 136.253 539.739 130.767 542.672C127.024 544.673 123.169 543.674 119.392 542.403C111.397 539.713 104.37 535.382 96.9058 531.547C94.1409 530.127 90.3479 528.054 88.9436 525.133C88.2324 523.654 87.3861 519.581 91.9738 520.019" stroke="#294064" stroke-miterlimit="10" stroke-linecap="round"/>
<mask id="mask0_19430_175712" style="mask-type:luminance" maskUnits="userSpaceOnUse" x="88" y="518" width="46" height="26">
<path d="M115.525 528.287C112.333 527.401 114.525 528.594 111.431 527.4C110.501 527.041 109.578 526.663 108.671 526.25C107.612 525.768 106.544 525.295 105.539 524.707C104.229 523.941 98.9475 520.276 102.725 519.068C105.147 518.294 108.637 520.233 110.865 520.941C117.635 523.092 123.817 526.762 129.328 531.21C132.667 533.905 136.253 539.741 130.767 542.674C127.024 544.675 123.169 543.676 119.392 542.405C111.397 539.715 104.37 535.384 96.9058 531.549C94.1409 530.129 90.3479 528.056 88.9436 525.135C88.2324 523.656 87.3861 519.583 91.9738 520.021" fill="white"/>
</mask>
<g mask="url(#mask0_19430_175712)">
<path d="M115.642 532.919C108.652 532.407 101.015 530.796 95.0887 527.005C93.1501 525.764 90.6415 522.702 91.2111 520.054C91.8321 517.167 97.4398 518.668 98.9024 519.84" fill="#E14438"/>
<path d="M115.642 532.919C108.652 532.407 101.015 530.796 95.0887 527.005C93.1501 525.764 90.6415 522.702 91.2111 520.054C91.8321 517.167 97.4398 518.668 98.9024 519.84" stroke="#294064" stroke-miterlimit="10" stroke-linecap="round"/>
<path d="M116.931 530.432C110.838 529.997 108.609 529.127 103.456 526.11C98.3036 523.093 98.0336 519.369 100.095 518.147C102.157 516.925 108.026 519.795 111.702 521.223" fill="#E14438"/>
<path d="M116.931 530.432C110.838 529.997 108.609 529.127 103.456 526.11C98.3036 523.093 98.0336 519.369 100.095 518.147C102.157 516.925 108.026 519.795 111.702 521.223" stroke="#294064" stroke-miterlimit="10" stroke-linecap="round"/>
<path d="M108.826 534.899L106.201 533.922C106.201 533.922 99.851 531.545 100.688 528.774C101.365 526.535 104.807 527.019 106.476 527.127C109.211 527.304 111.769 528.193 114.427 528.815C116.094 529.205 117.816 529.435 119.434 530.015C121.079 530.604 122.282 531.767 123.963 532.16" fill="#E14438"/>
<path d="M108.826 534.899L106.201 533.922C106.201 533.922 99.851 531.545 100.688 528.774C101.365 526.535 104.807 527.019 106.476 527.127C109.211 527.304 111.769 528.193 114.427 528.815C116.094 529.205 117.816 529.435 119.434 530.015C121.079 530.604 122.282 531.767 123.963 532.16" stroke="#294064" stroke-miterlimit="10" stroke-linecap="round"/>
<path d="M113.059 531.611C113.059 531.611 110.864 530.621 109.864 529.749C107.927 528.062 107.857 525.378 110.084 524.656C112.311 523.933 116.123 525.654 118.772 526.859" fill="#E14438"/>
<path d="M113.059 531.611C113.059 531.611 110.864 530.621 109.864 529.749C107.927 528.062 107.857 525.378 110.084 524.656C112.311 523.933 116.123 525.654 118.772 526.859" stroke="#294064" stroke-miterlimit="10" stroke-linecap="round"/>
<path d="M126.567 532.233C124.55 531.214 123.07 529.865 120.881 528.995C119.565 528.472 115.019 526.828 115.349 529.557C115.357 529.622 115.407 529.675 115.446 529.728C116.661 531.362 122.017 533.424 124.027 533.879" fill="#E14438"/>
<path d="M126.567 532.233C124.55 531.214 123.07 529.865 120.881 528.995C119.565 528.472 115.019 526.828 115.349 529.557C115.357 529.622 115.407 529.675 115.446 529.728C116.661 531.362 122.017 533.424 124.027 533.879" stroke="#FE6F64" stroke-miterlimit="10" stroke-linecap="round"/>
</g>
<path d="M148.792 542.126C148.792 542.126 147.837 543.396 147.806 545.232C150.24 542.996 152.016 542.18 153.104 539.36C156.22 531.283 149.714 524.109 142.046 522.791C134.466 521.489 125.421 523.046 118.132 524.364C109.373 525.947 101.985 529.339 94.0732 533.287C88.1095 536.264 81.2657 540.43 76.9776 543.5C72.2942 546.854 74.774 548.383 77.7807 547.86C80.5607 547.375 84.0242 550.105 86.9385 548.99C97.2413 545.05 105.236 541.471 115.491 537.407C120.512 535.417 127.749 540.983 134.294 537.063C137.537 535.121 138.205 540.312 141.543 542.087C144.692 543.763 148.792 542.126 148.792 542.126Z" fill="#E14438" stroke="#294064" stroke-miterlimit="10" stroke-linecap="round"/>
<mask id="mask1_19430_175712" style="mask-type:luminance" maskUnits="userSpaceOnUse" x="74" y="522" width="80" height="28">
<path d="M148.793 542.126C148.793 542.126 147.838 543.396 147.807 545.232C150.241 542.996 152.017 542.18 153.105 539.36C156.221 531.283 149.715 524.109 142.047 522.791C134.467 521.489 125.422 523.046 118.133 524.364C109.374 525.947 101.986 529.339 94.0742 533.287C88.1105 536.264 81.2667 540.43 76.9786 543.5C72.2952 546.854 74.775 548.383 77.7817 547.86C80.5616 547.375 84.0252 550.105 86.9394 548.99C97.2423 545.05 105.237 541.471 115.492 537.407C120.513 535.417 127.75 540.983 134.295 537.063C137.538 535.121 138.206 540.312 141.543 542.087C144.693 543.763 148.793 542.126 148.793 542.126Z" fill="white"/>
</mask>
<g mask="url(#mask1_19430_175712)">
<path d="M91.8511 537.777C91.8511 537.777 89.9953 538.172 84.1852 541.91C80.5072 544.276 75.2863 548.107 79.1859 550.538" fill="#E14438"/>
<path d="M91.8511 537.777C91.8511 537.777 89.9953 538.172 84.1852 541.91C80.5072 544.276 75.2863 548.107 79.1859 550.538" stroke="#294064" stroke-miterlimit="10" stroke-linecap="round"/>
<path d="M95.5392 540.1C95.5392 540.1 89.3152 543.021 83.1145 547.223C82.2299 547.823 81.3542 548.444 80.5562 549.155C79.2508 550.318 78.3218 552.064 81.0563 552.81C84.309 553.698 87.8655 550.721 90.8172 548.985C94.5357 546.798 103.019 542.504 103.019 542.504" fill="#E14438"/>
<path d="M95.5392 540.1C95.5392 540.1 89.3152 543.021 83.1145 547.223C82.2299 547.823 81.3542 548.444 80.5562 549.155C79.2508 550.318 78.3218 552.064 81.0563 552.81C84.309 553.698 87.8655 550.721 90.8172 548.985C94.5357 546.798 103.019 542.504 103.019 542.504" stroke="#294064" stroke-miterlimit="10" stroke-linecap="round"/>
</g>
<path d="M154.214 534.88C156.075 531.721 155.824 527.723 154.892 524.31C154.756 523.811 152.514 518.79 151.371 520.832C150.692 522.044 152.033 525.278 152.266 526.11C150.815 523.848 151.108 524.062 149.236 522.114C144.394 517.074 143.576 520.858 146.161 526.094C147.892 529.6 150.492 533.364 154.214 534.88Z" fill="#FFD432" stroke="#294064" stroke-miterlimit="10" stroke-linecap="round"/>
<path d="M119.072 527.638C116.216 525.962 118.027 527.678 115.344 525.729C114.538 525.143 113.743 524.539 112.973 523.907C112.073 523.169 111.163 522.437 110.343 521.611C109.274 520.534 105.113 515.634 109.074 515.438C111.613 515.313 114.487 518.084 116.458 519.341C122.448 523.161 127.477 528.297 131.66 534.013C134.193 537.476 136.157 544.037 130.102 545.461C125.971 546.432 122.501 544.476 119.178 542.276C112.144 537.62 106.467 531.628 100.24 526.003C97.9337 523.919 94.8016 520.94 94.1954 517.757C93.8885 516.145 94.118 511.991 98.4391 513.594" fill="#FE6F64"/>
<path d="M119.072 527.638C116.216 525.962 118.027 527.678 115.344 525.729C114.538 525.143 113.743 524.539 112.973 523.907C112.073 523.169 111.163 522.437 110.343 521.611C109.274 520.534 105.113 515.634 109.074 515.438C111.613 515.313 114.487 518.084 116.458 519.341C122.448 523.161 127.477 528.297 131.66 534.013C134.193 537.476 136.157 544.037 130.102 545.461C125.971 546.432 122.501 544.476 119.178 542.276C112.144 537.62 106.467 531.628 100.24 526.003C97.9337 523.919 94.8016 520.94 94.1954 517.757C93.8885 516.145 94.118 511.991 98.4391 513.594" stroke="#294064" stroke-miterlimit="10" stroke-linecap="round"/>
<path d="M117.995 532.144C111.371 529.851 104.405 526.33 99.6535 521.143C98.0988 519.446 96.4625 515.841 97.6936 513.429C99.0364 510.798 104.069 513.692 105.181 515.2" fill="#FE6F64"/>
<path d="M117.995 532.144C111.371 529.851 104.405 526.33 99.6535 521.143C98.0988 519.446 96.4625 515.841 97.6936 513.429C99.0364 510.798 104.069 513.692 105.181 515.2" stroke="#294064" stroke-miterlimit="10" stroke-linecap="round"/>
<path d="M119.88 530.073C114.104 528.085 112.173 526.671 107.97 522.431C103.766 518.191 104.463 514.522 106.77 513.871C109.076 513.221 114.011 517.503 117.195 519.828" fill="#FE6F64"/>
<path d="M119.88 530.073C114.104 528.085 112.173 526.671 107.97 522.431C103.766 518.191 104.463 514.522 106.77 513.871C109.076 513.221 114.011 517.503 117.195 519.828" stroke="#294064" stroke-miterlimit="10" stroke-linecap="round"/>
<path d="M110.897 532.306L108.612 530.687C108.612 530.687 103.087 526.757 104.609 524.294C105.839 522.304 109.041 523.657 110.625 524.19C113.223 525.065 115.466 526.582 117.875 527.867C119.386 528.672 120.99 529.337 122.405 530.314C123.843 531.306 124.707 532.739 126.23 533.552" fill="#FE6F64"/>
<path d="M110.897 532.306L108.612 530.687C108.612 530.687 103.087 526.757 104.609 524.294C105.839 522.304 109.041 523.657 110.625 524.19C113.223 525.065 115.466 526.582 117.875 527.867C119.386 528.672 120.99 529.337 122.405 530.314C123.843 531.306 124.707 532.739 126.23 533.552" stroke="#294064" stroke-miterlimit="10" stroke-linecap="round"/>
<path d="M115.834 530.216C115.834 530.216 113.969 528.694 113.226 527.595C111.788 525.466 112.41 522.854 114.748 522.729C117.086 522.604 120.327 525.246 122.577 527.093" fill="#FE6F64"/>
<path d="M115.834 530.216C115.834 530.216 113.969 528.694 113.226 527.595C111.788 525.466 112.41 522.854 114.748 522.729C117.086 522.604 120.327 525.246 122.577 527.093" stroke="#294064" stroke-miterlimit="10" stroke-linecap="round"/>
<path d="M128.729 534.292C127.042 532.788 125.958 531.104 124.067 529.7C122.93 528.856 118.96 526.099 118.577 528.821C118.568 528.885 118.602 528.95 118.626 529.011C119.38 530.903 124.026 534.272 125.851 535.229" fill="#FE6F64"/>
<path d="M128.729 534.292C127.042 532.788 125.958 531.104 124.067 529.7C122.93 528.856 118.96 526.099 118.577 528.821C118.568 528.885 118.602 528.95 118.626 529.011C119.38 530.903 124.026 534.272 125.851 535.229" stroke="#FE6F64" stroke-miterlimit="10" stroke-linecap="round"/>
<path d="M329.809 435.206C330.149 433.507 330.093 433.303 330.093 434.638L329.809 435.206Z" fill="#FE6F64"/>
<path d="M329.809 435.206C330.149 433.507 330.093 433.303 330.093 434.638" stroke="#FE6F64" stroke-miterlimit="10" stroke-linecap="round"/>
<path d="M147.043 534.96C147.043 534.318 147.247 533.797 147.498 533.797C147.75 533.797 147.954 534.318 147.954 534.96C147.954 535.603 147.75 536.124 147.498 536.124C147.247 536.124 147.043 535.603 147.043 534.96Z" fill="#294064" stroke="#294064" stroke-miterlimit="10"/>
<path d="M147.496 542.578C147.496 542.578 148.951 542.351 150.842 540.608C152.466 539.111 153.471 537.421 153.339 539.68C153.216 541.785 151.335 544.899 147.793 547.082C147.22 545.029 147.496 542.578 147.496 542.578Z" fill="#294064" stroke="#294064" stroke-miterlimit="10" stroke-linecap="round"/>
<path d="M182.888 631.476C185.146 630.458 176.119 629.039 173.643 628.99C171.886 628.956 167.786 628.536 166.032 628.653C159.549 629.086 153.203 628.508 147.3 631.844C145.505 632.859 145.726 636.732 145.544 638.43C144.808 645.301 144.655 652.386 144.446 659.284C144.184 667.937 144.885 676.557 144.885 685.188C144.885 695.781 144.004 706.427 144.666 717.019C145.023 722.729 146.424 728.73 147.3 734.361C148.316 740.891 139.096 766.662 144.722 771.163C151.153 776.306 168.245 762.956 176.011 763.141C184.613 763.347 195.057 765.528 203.652 764.031C214.662 762.119 226.023 779.512 228.137 770.755C231.851 755.361 220.079 710.309 221.059 694.628C221.405 689.109 221.952 683.67 222.377 678.163C222.466 677.01 222.064 675.154 222.815 674.212C223.287 673.624 233.451 675.908 233.791 675.968C237.282 676.584 241.325 676.9 244.329 678.822C248.286 681.353 248.409 682.045 250.916 684.969C254.488 689.138 258.037 678.366 258.38 677.285C258.925 675.557 259.357 673.386 259.695 671.578C260.092 669.461 260.882 665.257 260.136 663.016C256.18 651.15 244.405 649.334 234.889 644.576C224.887 639.574 219.168 634.273 207.709 631.591C202.122 630.283 193.563 629.649 187.912 629.649C186.11 629.649 182.533 631.636 182.888 631.476Z" fill="#ECA991" stroke="#2E4166" stroke-miterlimit="10" stroke-linecap="round"/>
<path d="M230.369 756.81C230.369 756.81 202.538 759.708 179.848 759.164C157.157 758.619 139.607 754.635 139.607 754.635C139.607 754.635 139.422 764.207 138.745 769.065C136.737 783.473 136.234 799.554 135.533 814.09C138.954 815.291 145.269 816.006 148.846 816.556C155.302 817.55 161.888 817.874 168.409 817.547C187.92 816.564 219.269 815.124 238.737 813.49C238.436 786.425 230.369 756.81 230.369 756.81Z" fill="#CFE8FF" stroke="#2E4166" stroke-miterlimit="10" stroke-linecap="round"/>
<path d="M206.881 773.49C212.722 781.987 228.739 789.303 228.739 789.303" stroke="#2E4166" stroke-miterlimit="10" stroke-linecap="round"/>
<path d="M160.301 771.15C159.61 773.192 145.659 792.048 141.899 792.567" stroke="#2E4166" stroke-miterlimit="10" stroke-linecap="round"/>
<path d="M179.533 760.887C177.387 776.018 176.906 783.08 176.97 798.342" stroke="#2E4166" stroke-miterlimit="10" stroke-linecap="round"/>
<path d="M182.896 763.87C181.572 766.188 184.831 767.498 186.087 765.962C187.633 764.071 184.068 761.818 182.896 763.87Z" stroke="#2E4166" stroke-miterlimit="10" stroke-linecap="round"/>
<path d="M382.72 711.539C382.72 711.539 386.662 726.27 388.818 754.983C390.971 783.693 388.709 793.293 391.339 826.387" stroke="#2E4166" stroke-miterlimit="10" stroke-linecap="round"/>
<path d="M307.083 574.21C302.73 574.29 298.354 575.34 294.859 575.44C286.412 575.683 283.273 573.915 277.024 579.602C268.645 587.226 263.867 606.182 265.54 609.881C267.215 613.58 275.215 596.908 283.717 594.401C288.732 592.923 291.243 599.273 298.508 599.628C300.273 599.714 301.761 599.677 303.079 599.541C296.316 611.24 286.775 620.299 279.381 631.442C267.492 649.358 257.646 670.683 267.642 691.72C274.475 706.098 302.56 710.748 317.093 707.645C324.521 712.506 332.152 717.067 340.076 721.048C345.479 723.762 350.771 725.841 356.76 726.676C360.066 727.137 367.013 724.809 367.013 724.809C367.013 724.809 374.65 728.953 381.229 728.84C387.804 728.727 393.322 724.355 393.322 724.355C393.322 724.355 398.948 728.415 404.463 727.688C409.981 726.961 415.389 721.449 415.389 721.449C415.389 721.449 424.995 723.619 429.367 720.873C433.74 718.127 432.874 710.463 432.874 710.463C432.874 710.463 448.586 711.691 456.287 710.429C459.822 709.849 471.438 706.598 465.625 705.097C458.488 703.255 443.566 697.56 433.966 691.179C420.547 682.26 410.612 668.745 397.293 659.679C391.845 655.973 385.102 654.054 378.54 653.458C369.856 652.669 360.245 651.668 352.468 655.613C337.736 663.085 327.631 677.628 313.628 686.389C310.381 688.42 304.724 687.43 301.038 686.389C300.96 686.367 300.895 686.334 300.82 686.31C299.41 685.228 297.732 684.461 296.525 683.16C292.038 678.327 288.749 670.04 289.668 663.362C291.564 649.549 296.891 635.323 304.559 623.772C306.779 620.427 309.515 616.641 311.788 613.345C314.036 610.087 318.252 603.503 318.252 603.503C318.252 603.503 323.825 593.846 322.937 586.854C322.047 579.863 317.856 576.943 314.692 575.536C312.299 574.471 309.697 574.162 307.083 574.21Z" fill="url(#paint1_linear_19430_175712)" stroke="#294064" stroke-miterlimit="10" stroke-linecap="round"/>
<path d="M332.11 679.918C336.399 685.92 346.641 693.255 354.03 694.702C356.043 695.095 357.464 694.806 359.405 694.112C360.125 693.855 361.451 693.075 361.451 693.075C361.451 693.075 374.014 707.503 381.477 700.081C387.707 706.409 397.932 713.821 406.546 707.884" fill="url(#paint2_linear_19430_175712)"/>
<path d="M332.11 679.918C336.399 685.92 346.641 693.255 354.03 694.702C356.043 695.095 357.464 694.806 359.405 694.112C360.125 693.855 361.451 693.075 361.451 693.075C361.451 693.075 374.014 707.503 381.477 700.081C387.707 706.409 397.932 713.821 406.546 707.884" stroke="#294064" stroke-miterlimit="10" stroke-linecap="round"/>
<path d="M370.01 681.678C381.994 691.879 394.431 702.206 408.643 709.226C413.133 711.443 421.555 714.321 423.099 707.549" fill="url(#paint3_linear_19430_175712)"/>
<path d="M370.01 681.678C381.994 691.879 394.431 702.206 408.643 709.226C413.133 711.443 421.555 714.321 423.099 707.549" stroke="#294064" stroke-miterlimit="10" stroke-linecap="round"/>
<path d="M375.479 676.297C381.393 681.706 387.852 686.511 394.364 691.184C399.903 695.162 405.552 698.991 411.276 702.7C415.973 705.742 428.544 712.718 429.889 702.783" fill="url(#paint4_linear_19430_175712)"/>
<path d="M375.479 676.297C381.393 681.706 387.852 686.511 394.364 691.184C399.903 695.162 405.552 698.991 411.276 702.7C415.973 705.742 428.544 712.718 429.889 702.783" stroke="#294064" stroke-miterlimit="10" stroke-linecap="round"/>
<path d="M381.701 672.121C381.701 672.121 388.213 678.06 391.636 680.831C400.387 687.916 409.861 693.851 419.841 699.057C425.3 701.905 432.023 705.622 434.659 698.09" fill="url(#paint5_linear_19430_175712)"/>
<path d="M381.701 672.121C381.701 672.121 388.213 678.06 391.636 680.831C400.387 687.916 409.861 693.851 419.841 699.057C425.3 701.905 432.023 705.622 434.659 698.09" stroke="#294064" stroke-miterlimit="10" stroke-linecap="round"/>
<path d="M326.884 706.963C329.687 711.49 334.987 715.75 340.521 716.119C344.525 716.386 348.01 712.755 346.332 708.941" fill="url(#paint6_linear_19430_175712)"/>
<path d="M326.884 706.963C329.687 711.49 334.987 715.75 340.521 716.119C344.525 716.386 348.01 712.755 346.332 708.941" stroke="#294064" stroke-miterlimit="10" stroke-linecap="round"/>
<path d="M336.436 700.285C340.937 705.299 353.689 718.048 357.573 704.927L336.436 700.285Z" fill="url(#paint7_linear_19430_175712)"/>
<path d="M336.436 700.285C340.937 705.299 353.689 718.048 357.573 704.927" stroke="#294064" stroke-miterlimit="10" stroke-linecap="round"/>
<path d="M347.28 697.383C347.28 697.383 349.626 699.563 350.818 700.63C353.493 703.021 365.62 709.296 365.047 700.881" fill="url(#paint8_linear_19430_175712)"/>
<path d="M347.28 697.383C347.28 697.383 349.626 699.563 350.818 700.63C353.493 703.021 365.62 709.296 365.047 700.881" stroke="#294064" stroke-miterlimit="10" stroke-linecap="round"/>
<path d="M357.003 711.332C358.433 712.569 359.815 713.863 361.289 715.044C365.896 718.73 380.614 729.696 385.638 720.68" fill="url(#paint9_linear_19430_175712)"/>
<path d="M357.003 711.332C358.433 712.569 359.815 713.863 361.289 715.044C365.896 718.73 380.614 729.696 385.638 720.68" stroke="#294064" stroke-miterlimit="10" stroke-linecap="round"/>
<path d="M365.196 707.732C367.718 710.961 371.261 713.25 374.508 715.748C378.124 718.533 386.018 724.969 390.637 720.923C391.357 720.292 392.357 719.681 392.496 718.734" fill="url(#paint10_linear_19430_175712)"/>
<path d="M365.196 707.732C367.718 710.961 371.261 713.25 374.508 715.748C378.124 718.533 386.018 724.969 390.637 720.923C391.357 720.292 392.357 719.681 392.496 718.734" stroke="#294064" stroke-miterlimit="10" stroke-linecap="round"/>
<path d="M372.154 705.807C375.458 708.916 379.37 711.314 383.142 713.832C386.526 716.09 396.556 723.018 399.862 716.712" fill="url(#paint11_linear_19430_175712)"/>
<path d="M372.154 705.807C375.458 708.916 379.37 711.314 383.142 713.832C386.526 716.09 396.556 723.018 399.862 716.712" stroke="#294064" stroke-miterlimit="10" stroke-linecap="round"/>
<path d="M271.699 601.726C274.067 598.175 276.907 593.526 280.562 591.09C285.602 587.73 291.795 587.061 297.754 587.061" stroke="#294064" stroke-miterlimit="10" stroke-linecap="round"/>
<path d="M270.49 589.586C270.281 593.715 274.246 597.843 273.472 602.21C273.207 603.711 266.863 612.401 265.615 609.094C264.023 604.881 267 597.067 268.53 593.453C269.198 591.877 270.582 587.763 270.49 589.586Z" fill="#294064" stroke="#294064" stroke-miterlimit="10" stroke-linecap="round"/>
<path d="M304.656 583.299C304.656 582.062 305.167 581.061 305.801 581.061C306.432 581.061 306.946 582.062 306.946 583.299C306.946 584.534 306.432 585.536 305.801 585.536C305.167 585.536 304.656 584.534 304.656 583.299Z" fill="#294064" stroke="#294064" stroke-miterlimit="10"/>
<path d="M382.72 711.535C382.72 711.535 386.662 726.266 388.818 754.979C390.971 783.689 388.709 793.289 391.339 826.383" stroke="#2E4166" stroke-miterlimit="10" stroke-linecap="round"/>
<path d="M277.024 579.6C283.273 573.912 286.412 575.68 294.859 575.438C296.918 576.726 301.038 580.814 301.038 586.852C301.038 592.889 299.351 597.883 298.508 599.626C291.243 599.271 288.732 592.92 283.717 594.399C275.215 596.905 267.215 613.578 265.54 609.878C263.867 606.179 268.645 587.223 277.024 579.6Z" fill="#F86382"/>
<path d="M307.083 574.207C302.73 574.287 298.354 575.337 294.859 575.438M294.859 575.438C286.412 575.68 283.273 573.912 277.024 579.6C268.645 587.223 263.867 606.179 265.54 609.878C267.215 613.578 275.215 596.905 283.717 594.399C288.732 592.92 291.243 599.271 298.508 599.626M294.859 575.438C296.918 576.726 301.038 580.814 301.038 586.852C301.038 592.889 299.351 597.883 298.508 599.626M298.508 599.626C300.273 599.712 301.761 599.674 303.079 599.538" stroke="#294064" stroke-miterlimit="10" stroke-linecap="round"/>
<path d="M332.11 679.918C336.399 685.92 346.641 693.255 354.03 694.702C356.043 695.095 357.464 694.806 359.405 694.112C360.125 693.855 361.451 693.075 361.451 693.075C361.451 693.075 374.014 707.503 381.477 700.081C387.707 706.409 397.932 713.821 406.546 707.884" fill="#FF7CAB"/>
<path d="M332.11 679.918C336.399 685.92 346.641 693.255 354.03 694.702C356.043 695.095 357.464 694.806 359.405 694.112C360.125 693.855 361.451 693.075 361.451 693.075C361.451 693.075 374.014 707.503 381.477 700.081C387.707 706.409 397.932 713.821 406.546 707.884" stroke="#294064" stroke-miterlimit="10" stroke-linecap="round"/>
<path d="M370.009 681.676C381.993 691.877 394.43 702.204 408.642 709.224C413.132 711.442 421.554 714.319 423.098 707.547" fill="#FF7CAB"/>
<path d="M370.009 681.676C381.993 691.877 394.43 702.204 408.642 709.224C413.132 711.442 421.554 714.319 423.098 707.547" stroke="#294064" stroke-miterlimit="10" stroke-linecap="round"/>
<path d="M375.479 676.295C381.393 681.704 387.852 686.509 394.364 691.182C399.903 695.16 405.552 698.989 411.276 702.698C415.973 705.74 428.544 712.716 429.889 702.781" fill="#FF7CAB"/>
<path d="M375.479 676.295C381.393 681.704 387.852 686.509 394.364 691.182C399.903 695.16 405.552 698.989 411.276 702.698C415.973 705.74 428.544 712.716 429.889 702.781" stroke="#294064" stroke-miterlimit="10" stroke-linecap="round"/>
<path d="M381.7 672.119C381.7 672.119 388.212 678.058 391.635 680.829C400.386 687.914 409.86 693.849 419.84 699.055C425.299 701.903 432.022 705.62 434.658 698.088" fill="#FF7CAB"/>
<path d="M381.7 672.119C381.7 672.119 388.212 678.058 391.635 680.829C400.386 687.914 409.86 693.849 419.84 699.055C425.299 701.903 432.022 705.62 434.658 698.088" stroke="#294064" stroke-miterlimit="10" stroke-linecap="round"/>
<path d="M326.883 706.961C329.686 711.488 334.986 715.748 340.52 716.117C344.524 716.384 348.009 712.753 346.331 708.939" fill="#FF7CAB"/>
<path d="M326.883 706.961C329.686 711.488 334.986 715.748 340.52 716.117C344.524 716.384 348.009 712.753 346.331 708.939" stroke="#294064" stroke-miterlimit="10" stroke-linecap="round"/>
<path d="M336.435 700.281C340.936 705.295 353.688 718.044 357.572 704.923L336.435 700.281Z" fill="#FF7CAB"/>
<path d="M336.435 700.281C340.936 705.295 353.688 718.044 357.572 704.923" stroke="#294064" stroke-miterlimit="10" stroke-linecap="round"/>
<path d="M347.28 697.379C347.28 697.379 349.626 699.559 350.818 700.626C353.493 703.018 365.62 709.292 365.047 700.877" fill="#FF7CAB"/>
<path d="M347.28 697.379C347.28 697.379 349.626 699.559 350.818 700.626C353.493 703.018 365.62 709.292 365.047 700.877" stroke="#294064" stroke-miterlimit="10" stroke-linecap="round"/>
<path d="M357.003 711.33C358.433 712.567 359.815 713.861 361.289 715.042C365.896 718.728 380.614 729.694 385.638 720.678" fill="#FF7CAB"/>
<path d="M357.003 711.33C358.433 712.567 359.815 713.861 361.289 715.042C365.896 718.728 380.614 729.694 385.638 720.678" stroke="#294064" stroke-miterlimit="10" stroke-linecap="round"/>
<path d="M365.195 707.73C367.717 710.959 371.26 713.248 374.507 715.746C378.123 718.531 386.017 724.967 390.636 720.921C391.356 720.29 392.356 719.679 392.495 718.732" fill="#FF7CAB"/>
<path d="M365.195 707.73C367.717 710.959 371.26 713.248 374.507 715.746C378.123 718.531 386.017 724.967 390.636 720.921C391.356 720.29 392.356 719.679 392.495 718.732" stroke="#294064" stroke-miterlimit="10" stroke-linecap="round"/>
<path d="M372.153 705.803C375.457 708.912 379.369 711.31 383.141 713.828C386.525 716.086 396.555 723.014 399.861 716.708" fill="#FF7CAB"/>
<path d="M372.153 705.803C375.457 708.912 379.369 711.31 383.141 713.828C386.525 716.086 396.555 723.014 399.861 716.708" stroke="#294064" stroke-miterlimit="10" stroke-linecap="round"/>
<path d="M271.699 601.726C274.067 598.175 276.907 593.526 280.562 591.09C285.602 587.73 291.795 587.061 297.754 587.061" stroke="#294064" stroke-miterlimit="10" stroke-linecap="round"/>
<path d="M270.49 589.584C270.281 593.713 274.246 597.841 273.472 602.208C273.207 603.709 266.863 612.399 265.615 609.092C264.023 604.879 267 597.065 268.53 593.452C269.198 591.875 270.582 587.761 270.49 589.584Z" fill="#294064" stroke="#294064" stroke-miterlimit="10" stroke-linecap="round"/>
<path d="M304.656 583.293C304.656 582.057 305.167 581.055 305.801 581.055C306.432 581.055 306.946 582.057 306.946 583.293C306.946 584.529 306.432 585.53 305.801 585.53C305.167 585.53 304.656 584.529 304.656 583.293Z" fill="#294064" stroke="#294064" stroke-miterlimit="10"/>
<path d="M322.14 538.531C318.99 536.956 316.29 539.213 315.254 542.116C314.115 545.309 317.016 552.241 318.935 554.758C327.367 565.827 341.527 568.625 354.687 568.625" fill="#158B56"/>
<path d="M322.14 538.531C318.99 536.956 316.29 539.213 315.254 542.116C314.115 545.309 317.016 552.241 318.935 554.758C327.367 565.827 341.527 568.625 354.687 568.625" stroke="#2E4166" stroke-miterlimit="10" stroke-linecap="round"/>
<path d="M356.863 568.653C356.414 568.429 357.475 569.447 357.793 569.836C358.312 570.472 358.801 571.133 359.312 571.778C360.407 573.161 361.521 574.527 362.607 575.917C364.338 578.137 365.994 580.416 367.675 582.674C373.572 590.595 379.534 598.817 386.933 605.395C389.642 607.802 392.881 610.608 396.393 608.267" fill="#158B56"/>
<path d="M356.863 568.653C356.414 568.429 357.475 569.447 357.793 569.836C358.312 570.472 358.801 571.133 359.312 571.778C360.407 573.161 361.521 574.527 362.607 575.917C364.338 578.137 365.994 580.416 367.675 582.674C373.572 590.595 379.534 598.817 386.933 605.395C389.642 607.802 392.881 610.608 396.393 608.267" stroke="#2E4166" stroke-miterlimit="10" stroke-linecap="round"/>
<path d="M362.607 575.915C361.521 574.525 360.407 573.159 359.312 571.776C360.573 571.129 363.71 571.05 366.167 575.915C366.766 577.1 368.33 579.108 370.483 581.594C368.799 582.36 366.904 581.275 366.167 580.638C364.994 579.053 363.819 577.469 362.607 575.915Z" fill="#11633E"/>
<path d="M356.863 568.651C356.414 568.427 357.475 569.445 357.793 569.834C358.312 570.47 358.801 571.131 359.312 571.776M359.312 571.776C360.407 573.159 361.521 574.525 362.607 575.915C363.819 577.469 364.994 579.053 366.167 580.638M359.312 571.776C360.573 571.129 363.71 571.05 366.167 575.915C366.766 577.1 368.33 579.108 370.483 581.594C368.799 582.36 366.904 581.275 366.167 580.638M367.675 582.672C367.171 581.995 366.669 581.316 366.167 580.638" stroke="#2E4166" stroke-miterlimit="10" stroke-linecap="round"/>
<path d="M361.762 570.846C361.762 570.846 361.51 572.132 362.197 573.072C364.174 575.779 369.449 581.995 369.449 581.995C369.449 581.995 383.695 599.783 391.915 606.997C394.252 609.047 401.912 614.688 403.129 608.595" fill="#158B56"/>
<path d="M361.762 570.846C361.762 570.846 361.51 572.132 362.197 573.072C364.174 575.779 369.449 581.995 369.449 581.995C369.449 581.995 383.695 599.783 391.915 606.997C394.252 609.047 401.912 614.688 403.129 608.595" stroke="#2E4166" stroke-miterlimit="10" stroke-linecap="round"/>
<path d="M362.197 573.074C361.51 572.134 361.762 570.848 361.762 570.848C361.762 566.494 370.284 576.467 374.545 581.997C372.199 582.989 370.17 582.411 369.449 581.997C369.449 581.997 364.174 575.782 362.197 573.074Z" fill="#11633E" stroke="#2E4166" stroke-miterlimit="10" stroke-linecap="round"/>
<path d="M365.512 573.011C375.142 583.485 387.079 594.424 396.9 604.718C398.96 606.878 403.38 610.214 404.684 609.144C407.359 606.948 402.878 601.638 400.362 598.928C391.256 589.116 381.442 579.983 371.981 570.51" fill="#158B56"/>
<path d="M365.512 573.011C375.142 583.485 387.079 594.424 396.9 604.718C398.96 606.878 403.38 610.214 404.684 609.144C407.359 606.948 402.878 601.638 400.362 598.928C391.256 589.116 381.442 579.983 371.981 570.51" stroke="#2E4166" stroke-miterlimit="10" stroke-linecap="round"/>
<path d="M373.611 581.455C370.803 578.622 368.076 575.8 365.512 573.011L371.981 570.51C375.656 574.19 379.385 577.818 383.104 581.455C382.245 584.359 376.418 582.665 373.611 581.455Z" fill="#11633E" stroke="#2E4166" stroke-miterlimit="10" stroke-linecap="round"/>
<path d="M378.803 574.1C374.109 569.198 372.152 561.955 362.943 548.392C353.731 534.83 349.42 530.344 342.791 519.055C338.482 511.714 331.611 507.19 324.638 510.774C319.001 513.671 318.038 515.98 317.443 519.745C316.281 527.117 316.974 534.461 319.665 541.422C322.12 547.778 324.63 553.482 329.706 558.027C336.771 564.35 347.253 570.108 356.121 573.467C361.273 575.419 389.536 585.304 378.803 574.1Z" fill="#66C34F" stroke="#2E4166" stroke-miterlimit="10" stroke-linecap="round"/>
<path d="M378.803 574.101C374.109 569.199 372.152 561.956 362.943 548.393C353.731 534.831 349.42 530.345 342.791 519.056C338.482 511.715 335.872 504.647 324.004 507.719C318.367 510.617 318.038 515.981 317.443 519.746C316.281 527.118 316.974 534.462 319.665 541.423C322.12 547.779 324.63 553.483 329.706 558.027C336.771 564.351 347.253 570.109 356.121 573.468C361.273 575.42 389.536 585.305 378.803 574.101Z" fill="#66C34F" stroke="#2E4166" stroke-miterlimit="10" stroke-linecap="round"/>
<path d="M317.443 519.746C318.038 515.981 318.367 510.617 324.005 507.719C326.199 507.151 328.077 506.93 329.707 506.993C329.741 506.992 329.776 506.994 329.812 506.997C334.139 507.198 336.713 509.417 338.853 512.466C338.892 514.588 335.486 514.839 333.778 514.699C333.108 518.497 322.609 519.646 317.443 519.746Z" fill="#EFE65D"/>
<path d="M333.778 514.699C334.595 510.069 331.251 507.127 329.812 506.997C329.777 506.996 329.742 506.994 329.707 506.993C329.74 506.992 329.775 506.994 329.812 506.997C334.138 507.198 336.712 509.417 338.853 512.466C338.892 514.588 335.486 514.839 333.778 514.699Z" fill="#FBB13A"/>
<path d="M350.266 530.132C346.086 529.132 344.932 528.405 340.663 528.938C322.108 531.255 330.882 547.367 338.586 554.468C347.239 562.443 358.589 569.108 371.194 572.734C373 573.254 377.984 574.408 379.542 573.147C381.098 571.885 380.168 568.14 377.418 567.689" fill="#66C34F"/>
<path d="M350.266 530.132C346.086 529.132 344.932 528.405 340.663 528.938C322.108 531.255 330.882 547.367 338.586 554.468C347.239 562.443 358.589 569.108 371.194 572.734C373 573.254 377.984 574.408 379.542 573.147C381.098 571.885 380.168 568.14 377.418 567.689" stroke="#2E4166" stroke-miterlimit="10" stroke-linecap="round"/>
<path d="M345.427 552.756C345.427 552.756 353.279 561.906 361.929 566.552C371.59 571.739 378.881 572.881 381.894 570.887C385.007 568.827 377.714 566.536 377.046 562.814" fill="#56A0F9"/>
<path d="M345.427 552.756C345.427 552.756 353.279 561.906 361.929 566.552C371.59 571.739 378.881 572.881 381.894 570.887C385.007 568.827 377.714 566.536 377.046 562.814" stroke="#2E4166" stroke-miterlimit="10" stroke-linecap="round"/>
<path d="M350.672 550.071L356.511 556.402C356.511 556.402 361.498 561.822 370.503 566.634C377.618 570.437 387.874 571.052 383.758 567.178C378.36 562.1 376.841 561.444 374.376 558.147C367.239 548.597 363.79 533.247 348.341 529.621" fill="#66C34F"/>
<path d="M350.672 550.071L356.511 556.402C356.511 556.402 361.498 561.822 370.503 566.634C377.618 570.437 387.874 571.052 383.758 567.178C378.36 562.1 376.841 561.444 374.376 558.147C367.239 548.597 363.79 533.247 348.341 529.621" stroke="#2E4166" stroke-miterlimit="10" stroke-linecap="round"/>
<path d="M370.504 566.632C361.499 561.82 356.512 556.401 356.512 556.401C360.593 557.026 368.559 556.043 367.775 547.107C369.959 550.998 371.956 554.905 374.377 558.145C376.843 561.442 378.362 562.098 383.759 567.177C387.875 571.051 377.619 570.435 370.504 566.632Z" fill="#56A0F9"/>
<path d="M350.674 550.069L356.512 556.401M356.512 556.401C356.512 556.401 361.499 561.82 370.504 566.632C377.619 570.435 387.875 571.051 383.759 567.177C378.362 562.098 376.843 561.442 374.377 558.145C371.956 554.905 369.959 550.998 367.775 547.107C368.559 556.043 360.593 557.026 356.512 556.401Z" stroke="#2E4166" stroke-miterlimit="10" stroke-linecap="round"/>
<path d="M342.732 548.689C342.732 548.689 342.201 551.578 344.703 555.25C346.898 558.47 349.056 559.885 352.801 561.094C354.71 561.71 358.058 561.496 358.659 558.787" fill="#66C34F"/>
<path d="M342.732 548.689C342.732 548.689 342.201 551.578 344.703 555.25C346.898 558.47 349.056 559.885 352.801 561.094C354.71 561.71 358.058 561.496 358.659 558.787" stroke="#2E4166" stroke-miterlimit="10" stroke-linecap="round"/>
<path d="M347.78 547.486C349.363 551.8 354.281 554.743 354.281 554.743C354.281 554.743 362.724 560.47 365.841 555.391" fill="#66C34F"/>
<path d="M347.78 547.486C349.363 551.8 354.281 554.743 354.281 554.743C354.281 554.743 362.724 560.47 365.841 555.391" stroke="#2E4166" stroke-miterlimit="10" stroke-linecap="round"/>
<path d="M352.832 545.511C358.662 553.949 365.182 556.966 368.011 555.048C371.004 553.016 365.034 542.48 365.034 542.48" fill="#66C34F"/>
<path d="M352.832 545.511C358.662 553.949 365.182 556.966 368.011 555.048C371.004 553.016 365.034 542.48 365.034 542.48" stroke="#2E4166" stroke-miterlimit="10" stroke-linecap="round"/>
<path d="M328.117 517.561C327.601 514.774 326.177 511.862 323.999 511.335C322.798 511.045 319.964 510.702 315.901 513.951C312.308 516.825 311.112 522.702 311.408 524.771C311.704 526.839 314.781 522.063 317.082 522.225C321.913 522.565 329.407 524.522 328.117 517.561Z" fill="#E14438" stroke="#2E4166" stroke-miterlimit="10" stroke-linecap="round"/>
<path d="M332.085 514.547C332.085 513.691 332.398 512.998 332.78 512.998C333.166 512.998 333.476 513.691 333.476 514.547C333.476 515.402 333.166 516.095 332.78 516.095C332.398 516.095 332.085 515.402 332.085 514.547Z" fill="#294064" stroke="#2E4166" stroke-miterlimit="10"/>
<path d="M270.343 706.628C274.799 704.708 278.658 690.544 278.658 690.544C278.658 690.544 281.065 677.384 281.451 668.491C281.836 659.599 280.082 656.185 277.558 655.449C273.493 654.264 269.103 653.279 264.753 653.715C260.902 654.1 256.884 656.652 253.592 658.479C249.51 660.743 244.506 662.605 240.834 665.533C238.911 667.066 237.258 668.899 235.426 670.533" fill="#DBB3C2"/>
<path d="M270.343 706.628C274.799 704.708 278.658 690.544 278.658 690.544C278.658 690.544 281.065 677.384 281.451 668.491C281.836 659.599 280.082 656.185 277.558 655.449C273.493 654.264 269.103 653.279 264.753 653.715C260.902 654.1 256.884 656.652 253.592 658.479C249.51 660.743 244.506 662.605 240.834 665.533C238.911 667.066 237.258 668.899 235.426 670.533" stroke="#2E4166" stroke-miterlimit="10" stroke-linecap="round"/>
<path d="M161.97 634.189C161.97 634.189 171.809 646.71 185.673 647.066C199.537 647.422 217.43 635.612 217.43 635.612C217.43 635.612 229.098 673.301 228.864 691.09C228.744 700.004 231.829 728.675 231.829 728.675C231.829 728.675 205.61 731.616 182.247 730.523C158.882 729.43 138.37 724.304 138.37 724.304L161.97 634.189Z" fill="#FF7CAB" stroke="#2E4166" stroke-miterlimit="10" stroke-linecap="round"/>
<path d="M164.997 669.541C163.079 675.636 172.813 679.295 172.809 670.219C172.809 668.786 172.235 667.395 171.697 666.068C171.32 665.138 170.628 664.369 170.094 663.521C173.916 668.036 181.515 657.422 175.388 656.433C173.46 656.122 171.498 656.074 169.553 655.894C174.057 651.652 172.118 648.53 165.991 649.022C162.831 649.276 161.073 651.465 159.643 653.983" stroke="#FED4E4" stroke-miterlimit="10" stroke-linecap="round"/>
<path d="M206.356 661.412C205.242 659.394 204.077 657.049 201.95 655.897C199.06 654.333 194.396 657.521 195.843 660.974C196.611 662.811 198.149 663.54 199.755 664.533C196.122 662.427 189.87 672.559 195.444 671.919C196.304 671.821 197.141 671.596 197.99 671.435C196.784 673.536 194.637 680.371 200.235 679.221C202.994 678.654 204.764 675.68 207.048 674.269" stroke="#FED4E4" stroke-miterlimit="10" stroke-linecap="round"/>
<path d="M185.219 682.093C182.918 672.995 174.226 680.654 178.468 685.063C180.282 686.948 179.39 686.18 181.304 687.186C179.207 686.11 175.513 689.382 174.301 690.595C166.771 698.129 176.449 704.328 181.939 697.592C182.602 696.779 183.153 695.881 183.761 695.025C185.222 696.98 185.924 702.667 189.544 701.371C192.897 700.17 193.777 691.514 190.415 691.168C196.108 693.719 201.489 684.068 193.947 685.016C193.037 685.131 192.155 685.404 191.26 685.598C195.466 680.569 187.428 673.731 185.219 682.093Z" stroke="#FED4E4" stroke-miterlimit="10" stroke-linecap="round"/>
<path d="M199.303 717.288C198.571 717.715 198.61 717.761 197.677 717.953C196.918 718.109 196.253 718.149 195.485 718.041C192.001 717.551 197.091 713.819 196.946 712.942C196.753 711.777 195.851 710.767 195.809 709.587C195.636 704.868 199.601 705.715 202.005 708.438" stroke="#FED4E4" stroke-miterlimit="10" stroke-linecap="round"/>
<path d="M161.787 702.244C165.722 700.43 165.428 706.03 165.193 707.7C172.572 706.598 171.486 711.507 165.993 711.78C166.657 713.357 168.709 713.458 168.788 715.515C168.923 719.048 162.39 717.861 160.773 716.904C159.396 716.09 159.358 713.965 158.674 712.635" stroke="#FED4E4" stroke-miterlimit="10" stroke-linecap="round"/>
<path d="M328.891 592.127C314.377 610.841 307.851 636.737 290.023 652.952C287.404 655.333 283.497 655.642 279.058 655.126C269.589 654.023 257.702 649.162 250.764 652.619C244.464 655.756 254.025 667.25 253.439 673.72C253.168 676.713 245.629 676.893 248.826 677.723C251.738 678.479 256.077 678.873 260.254 679.761C271.655 682.184 285.502 684.971 293.639 683.613C306.614 681.446 313.88 671.932 317.887 666.31C332.325 646.049 334.489 633.243 343.453 610.552C345.435 605.531 344.285 601.45 340.292 597.523C337.357 594.638 331.379 588.919 328.891 592.127Z" fill="#ECA991" stroke="#2E4166" stroke-miterlimit="10" stroke-linecap="round"/>
<path d="M326.49 595.384C326.49 595.384 325.836 589.023 326.384 586.14C326.853 583.66 327.355 580.648 328.12 578.218C329.734 573.084 334.135 569.449 338.731 566.33C342.263 563.931 346.139 561.94 350.232 560.469C350.983 560.199 356.543 558.26 357.436 559.939C358.411 561.765 355.912 563.6 355.912 563.6C355.912 563.6 349.397 567.596 346.292 569.725C345.689 570.138 341.364 572.845 341.194 573.563C341.068 574.096 345.516 575.787 345.927 576.337C348.719 580.076 351.891 584.255 352.187 588.904C352.449 593.057 349.769 597.613 347.652 601.133C346.189 603.565 343.712 609.878 343.712 609.878" fill="#ECA991"/>
<path d="M326.49 595.384C326.49 595.384 325.836 589.023 326.384 586.14C326.853 583.66 327.355 580.648 328.12 578.218C329.734 573.084 334.135 569.449 338.731 566.33C342.263 563.931 346.139 561.94 350.232 560.469C350.983 560.199 356.543 558.26 357.436 559.939C358.411 561.765 355.912 563.6 355.912 563.6C355.912 563.6 349.397 567.596 346.292 569.725C345.689 570.138 341.364 572.845 341.194 573.563C341.068 574.096 345.516 575.787 345.927 576.337C348.719 580.076 351.891 584.255 352.187 588.904C352.449 593.057 349.769 597.613 347.652 601.133C346.189 603.565 343.712 609.878 343.712 609.878" stroke="#2E4166" stroke-miterlimit="10" stroke-linecap="round"/>
<path d="M350.436 581.276C350.252 581.165 352.15 581.239 352.737 581.598C353.96 582.344 354.526 583.466 354.951 584.723C356.034 587.927 355.775 593.234 352.301 595.155C348.127 597.463 349.894 590.674 350.21 589.836C350.291 589.621 350.883 587.934 350.95 587.951" fill="#ECA991"/>
<path d="M350.436 581.276C350.252 581.165 352.15 581.239 352.737 581.598C353.96 582.344 354.526 583.466 354.951 584.723C356.034 587.927 355.775 593.234 352.301 595.155C348.127 597.463 349.894 590.674 350.21 589.836C350.291 589.621 350.883 587.934 350.95 587.951" stroke="#2E4166" stroke-miterlimit="10" stroke-linecap="round"/>
<path d="M345.008 575.717C344.637 575.28 345.475 575.289 345.745 575.188C347.033 574.713 349.699 574.913 350.674 575.709C351.964 576.763 352.665 579.924 352.321 584.516C351.981 589.109 351.33 591.375 349.306 594.078C347.08 597.051 343.595 590.773 344.159 588.953" fill="#ECA991"/>
<path d="M345.008 575.717C344.637 575.28 345.475 575.289 345.745 575.188C347.033 574.713 349.699 574.913 350.674 575.709C351.964 576.763 352.665 579.924 352.321 584.516C351.981 589.109 351.33 591.375 349.306 594.078C347.08 597.051 343.595 590.773 344.159 588.953" stroke="#2E4166" stroke-miterlimit="10" stroke-linecap="round"/>
<path d="M341.221 573.65C343.315 573.285 344.365 573.263 346.61 574.631C347.844 575.384 348.869 577.513 348.958 578.72C349.184 581.791 348.763 590.922 345.133 592.584C343.027 593.547 342.251 588.808 342.251 588.808L342.606 583.08C342.606 583.08 343.524 579.603 339.3 580.341" fill="#ECA991"/>
<path d="M341.221 573.65C343.315 573.285 344.365 573.263 346.61 574.631C347.844 575.384 348.869 577.513 348.958 578.72C349.184 581.791 348.763 590.922 345.133 592.584C343.027 593.547 342.251 588.808 342.251 588.808L342.606 583.08C342.606 583.08 343.524 579.603 339.3 580.341" stroke="#2E4166" stroke-miterlimit="10" stroke-linecap="round"/>
<path d="M329.097 581.173C329.097 581.173 332.618 575.791 333.919 574.044C338.373 568.063 340.037 572.515 339.506 576.104C339.073 579.021 336.278 583.29 334.849 586.189C334.223 587.464 335.273 586.891 337.404 589.761C339.811 593.004 340.182 595.554 338.49 599.531" fill="#ECA991"/>
<path d="M329.097 581.173C329.097 581.173 332.618 575.791 333.919 574.044C338.373 568.063 340.037 572.515 339.506 576.104C339.073 579.021 336.278 583.29 334.849 586.189C334.223 587.464 335.273 586.891 337.404 589.761C339.811 593.004 340.182 595.554 338.49 599.531" stroke="#2E4166" stroke-miterlimit="10" stroke-linecap="round"/>
<path d="M339.248 565.947C338.575 565.941 338.452 567.756 338.491 568.191C338.628 569.709 340.577 571.535 342.16 571.025" stroke="#2E4166" stroke-miterlimit="10" stroke-linecap="round"/>
<path d="M343.232 563.262C341.479 564.98 344.751 568.909 346.105 567.581" stroke="#2E4166" stroke-miterlimit="10" stroke-linecap="round"/>
<path d="M117.31 623.881C102.749 621.244 86.0082 617.282 86.0082 617.282C86.0082 617.282 94.2906 593.827 100.394 569.049C92.269 566.177 92.269 566.177 84.1441 563.305C77.3913 573.789 70.8672 581.213 63.9049 598.69C56.599 617.031 51.1239 629.393 62.236 638.978C70.5433 646.144 107.524 652.459 117.818 653.872C133.063 655.964 120.232 649.405 135.536 647.757" fill="#ECA991"/>
<path d="M117.31 623.881C102.749 621.244 86.0082 617.282 86.0082 617.282C86.0082 617.282 94.2906 593.827 100.394 569.049C92.269 566.177 92.269 566.177 84.1441 563.305C77.3913 573.789 70.8672 581.213 63.9049 598.69C56.599 617.031 51.1239 629.393 62.236 638.978C70.5433 646.144 107.524 652.459 117.818 653.872C133.063 655.964 120.232 649.405 135.536 647.757" stroke="#2E4166" stroke-miterlimit="10" stroke-linecap="round"/>
<path d="M82.9043 566.732C82.9043 566.732 89.9751 554.668 95.6281 549.124C97.9384 546.859 100.872 544.9 103.464 542.978C104.635 542.11 105.692 541.505 106.874 540.702C106.995 540.62 107.116 540.559 107.238 540.477C110.493 538.283 113.96 536.154 117.797 534.736C119.779 534.003 118.724 536.408 121.853 536.803C122.646 536.904 125.223 537.58 125.341 538.817C126.056 546.339 126.493 546.985 121.46 552.076C120.955 552.587 119.391 554.481 118.924 554.966C115.785 558.233 112.264 561.889 108.243 564.283C106.214 565.492 104.675 565.866 102.691 567.144C100.697 568.428 99.4102 572.549 99.4102 572.549" fill="#ECA991"/>
<path d="M82.9043 566.732C82.9043 566.732 89.9751 554.668 95.6281 549.124C97.9384 546.859 100.872 544.9 103.464 542.978C104.635 542.11 105.692 541.505 106.874 540.702C106.995 540.62 107.116 540.559 107.238 540.477C110.493 538.283 113.96 536.154 117.797 534.736C119.779 534.003 118.724 536.408 121.853 536.803C122.646 536.904 125.223 537.58 125.341 538.817C126.056 546.339 126.493 546.985 121.46 552.076C120.955 552.587 119.391 554.481 118.924 554.966C115.785 558.233 112.264 561.889 108.243 564.283C106.214 565.492 104.675 565.866 102.691 567.144C100.697 568.428 99.4102 572.549 99.4102 572.549" stroke="#2E4166" stroke-miterlimit="10" stroke-linecap="round"/>
<path d="M105.78 540.551C109.889 537.011 114.967 541.415 120.308 544.951C126.149 548.818 129.111 550.653 129.111 550.653C129.111 550.653 133.248 552.736 132.26 554.891C131.537 556.466 127.932 555.572 127.932 555.572C127.932 555.572 124.964 554.711 122.455 553.506C119.944 552.302 115.253 549.356 113.273 548.245C106.42 544.399 111.998 547.737 110.179 545.995" fill="#ECA991"/>
<path d="M105.78 540.551C109.889 537.011 114.967 541.415 120.308 544.951C126.149 548.818 129.111 550.653 129.111 550.653C129.111 550.653 133.248 552.736 132.26 554.891C131.537 556.466 127.932 555.572 127.932 555.572C127.932 555.572 124.964 554.711 122.455 553.506C119.944 552.302 115.253 549.356 113.273 548.245C106.42 544.399 111.998 547.737 110.179 545.995" stroke="#2E4166" stroke-miterlimit="10" stroke-linecap="round"/>
<path d="M102.294 543.169C103.26 540.722 107.103 540.174 109.272 541.512C110.998 542.576 113.498 545.764 114.601 548.957C115.965 552.907 113.691 556.967 110.073 556.407" fill="#ECA991"/>
<path d="M102.294 543.169C103.26 540.722 107.103 540.174 109.272 541.512C110.998 542.576 113.498 545.764 114.601 548.957C115.965 552.907 113.691 556.967 110.073 556.407" stroke="#2E4166" stroke-miterlimit="10" stroke-linecap="round"/>
<path d="M98.498 545.663C99.5764 541.752 104.646 543.323 106.915 544.73C109.851 546.551 111.029 550.471 110.699 553.805C110.451 556.312 108.873 559.424 105.524 558.375" fill="#ECA991"/>
<path d="M98.498 545.663C99.5764 541.752 104.646 543.323 106.915 544.73C109.851 546.551 111.029 550.471 110.699 553.805C110.451 556.312 108.873 559.424 105.524 558.375" stroke="#2E4166" stroke-miterlimit="10" stroke-linecap="round"/>
<path d="M92.9835 552.081C92.9636 548.559 97.5421 543.646 101.266 546.873C104.482 549.661 107.006 553.464 106.014 557.315C104.192 564.394 88.8582 561.436 99.5084 557.226C100.541 556.817 100.109 555.319 100.109 555.319C100.109 555.319 99.1792 553.571 98.0394 552.355" fill="#ECA991"/>
<path d="M92.9835 552.081C92.9636 548.559 97.5421 543.646 101.266 546.873C104.482 549.661 107.006 553.464 106.014 557.315C104.192 564.394 88.8582 561.436 99.5084 557.226C100.541 556.817 100.109 555.319 100.109 555.319C100.109 555.319 99.1792 553.571 98.0394 552.355" stroke="#2E4166" stroke-miterlimit="10" stroke-linecap="round"/>
<path d="M173.474 628.945L106.591 621.291C106.591 621.291 103.319 641.191 102.915 650.312C102.407 661.811 105.469 678.235 105.469 678.235C105.469 678.235 126.104 678.04 136.821 673.837C131.094 696.269 110.038 760.537 110.038 760.537C110.038 760.537 116.989 758.898 127.453 761.154C137.918 763.41 151.896 769.564 151.896 769.564C151.896 769.564 162.121 731.125 162.271 699.711C162.41 670.553 173.474 628.945 173.474 628.945Z" fill="#FFD4E4" stroke="#2E4166" stroke-miterlimit="10" stroke-linecap="round"/>
<path d="M244.006 697.216C251.741 703.793 269.759 706.627 269.759 706.627C269.759 706.627 262.039 697.103 265.928 680.271C266.621 677.271 268.226 672.057 270.463 667.702C274.096 660.632 278.717 654.572 278.717 654.572C278.717 654.572 257.803 644.722 241.909 639.26C226.016 633.797 208.279 631.643 208.279 631.643C208.279 631.643 200.402 709.302 194.748 770.78C215.414 769.507 225.756 763.143 246.422 761.87C248.468 733.877 241.957 725.207 244.006 697.216Z" fill="#FFD4E4" stroke="#2E4166" stroke-miterlimit="10" stroke-linecap="round"/>
<path d="M208.577 631.797C217.041 640.857 217.493 641.91 225.959 650.971C217.957 660.16 217.957 660.16 209.957 669.349C213.648 674.82 221.034 685.762 221.034 685.762C221.034 685.762 206.112 717.767 198.106 733.553" stroke="#2E4166" stroke-miterlimit="10" stroke-linecap="round"/>
<path d="M172.808 629.076C160.41 641.285 157.65 641.409 145.252 653.618C150.867 661.763 150.867 661.763 156.481 669.908C152.311 674.717 143.973 684.335 143.973 684.335C143.973 684.335 154.333 716.189 159.069 732.444" stroke="#2E4166" stroke-miterlimit="10" stroke-linecap="round"/>
<path d="M143.108 591.288C143.086 591.046 149.313 586.205 149.071 586.227C147.915 586.331 140.223 592.21 139.876 593.317C138.882 596.48 141.202 604.475 144.248 608.373C151.79 618.027 158.878 620.07 168.561 620.626C174.515 620.969 175.609 620.576 180.724 619.973C182.826 619.725 181.956 620.514 184.076 620.742C186.81 621.035 188.393 619.881 191.08 620.312C200.924 621.892 205.601 623.179 217.751 617.642C223.854 614.86 234.658 606.954 233.572 597.205C233.083 592.843 234.476 589.984 234.041 587.903" fill="#2F2F2F"/>
<path d="M143.108 591.288C143.086 591.046 149.313 586.205 149.071 586.227C147.915 586.331 140.223 592.21 139.876 593.317C138.882 596.48 141.202 604.475 144.248 608.373C151.79 618.027 158.878 620.07 168.561 620.626C174.515 620.969 175.609 620.576 180.724 619.973C182.826 619.725 181.956 620.514 184.076 620.742C186.81 621.035 188.393 619.881 191.08 620.312C200.924 621.892 205.601 623.179 217.751 617.642C223.854 614.86 234.658 606.954 233.572 597.205C233.083 592.843 234.476 589.984 234.041 587.903" stroke="#2E4166" stroke-miterlimit="10" stroke-linecap="round"/>
<path d="M181.955 553.752C181.151 553.752 179.056 552.469 178.565 552.178C173.16 548.975 171.031 541.707 171.542 535.832C171.86 532.183 174.722 527.404 177.472 525.397C183.731 520.829 192.395 519.623 199.39 525.178C205.461 529.999 206.564 535.328 205.684 542.976C205.589 543.802 204.14 549.848 198.449 552.966C192.759 556.084 191.548 558.732 182.923 555.446C181.606 554.945 179.908 554.869 179.049 553.752C178.719 553.322 178.705 552.682 178.323 552.299" fill="#2F2F2F"/>
<path d="M181.955 553.752C181.151 553.752 179.056 552.469 178.565 552.178C173.16 548.975 171.031 541.707 171.542 535.832C171.86 532.183 174.722 527.404 177.472 525.397C183.731 520.829 192.395 519.623 199.39 525.178C205.461 529.999 206.564 535.328 205.684 542.976C205.589 543.802 204.14 549.848 198.449 552.966C192.759 556.084 191.548 558.732 182.923 555.446C181.606 554.945 179.908 554.869 179.049 553.752C178.719 553.322 178.705 552.682 178.323 552.299" stroke="#2E4166" stroke-miterlimit="10" stroke-linecap="round"/>
<path d="M181.472 553.584C179.473 551.585 172.453 551.572 169.892 551.572C157.235 551.572 146.189 555.528 142.221 568.425C141.031 572.293 139.949 579.303 144.341 581.255C145.254 581.661 147.271 582.536 148.31 582.016" fill="#2F2F2F"/>
<path d="M181.472 553.584C179.473 551.585 172.453 551.572 169.892 551.572C157.235 551.572 146.189 555.528 142.221 568.425C141.031 572.293 139.949 579.303 144.341 581.255C145.254 581.661 147.271 582.536 148.31 582.016" stroke="#2E4166" stroke-miterlimit="10" stroke-linecap="round"/>
<path d="M173.748 587.317C157.283 587.44 143.791 588.89 140.186 592.821C140.166 592.842 140.156 592.868 140.137 592.89C140.478 593.034 140.774 593.209 141.031 593.43C141.196 593.572 141.337 593.713 141.473 593.872C141.636 594.062 141.791 594.262 141.975 594.521C142.123 594.732 142.701 595.594 142.83 595.779C142.879 595.849 142.913 595.892 142.957 595.956C143.19 595.877 143.43 595.784 143.645 595.73C144.069 595.624 144.419 595.559 144.775 595.553C145.132 595.547 145.489 595.604 145.916 595.75C147.321 596.231 148.129 597.253 148.716 598.639C149.028 599.374 149.256 600.173 149.513 601.273C149.575 601.539 149.796 602.53 149.847 602.747C149.861 602.809 149.873 602.829 149.886 602.885C149.986 602.929 150.079 602.953 150.181 603.003C151.553 603.673 152.337 604.422 153.758 606.098C153.782 606.126 153.774 606.129 153.798 606.157C154.59 607.093 154.945 607.442 155.301 607.671C161.864 611.88 166.138 614.914 169.562 617.98C169.596 617.968 169.625 617.952 169.66 617.941C170.112 617.79 170.472 617.671 170.918 617.548C171.62 617.354 172.325 617.204 173.07 617.096C173.632 617.014 174.195 616.963 174.77 616.948C175.345 616.934 175.926 616.95 176.529 617.017C178.446 617.231 180.336 617.877 182.073 619.14C182.324 619.323 182.527 619.565 182.76 619.769C182.791 619.781 182.818 619.785 182.849 619.799C184.824 620.63 186.472 621.894 187.763 623.484C188.836 623.676 189.889 623.963 190.957 624.437C192.178 624.98 193.389 625.324 194.476 625.499C194.909 623.839 195.783 622.341 196.953 621.115C196.875 620.17 197.056 619.227 197.671 618.413C198.193 617.716 198.698 617.455 199.419 617.204C199.709 617.103 200.033 617.013 200.41 616.929C200.991 616.8 201.731 616.676 202.663 616.535C203.414 616.422 204.241 616.304 205.394 616.152C206.916 615.952 206.592 615.976 207.31 615.877C208.237 615.487 209.021 615.209 210.671 614.698C210.727 614.681 210.724 614.675 210.78 614.659C213.472 613.825 214.6 613.356 215.684 612.506C217.753 610.882 219.526 609.151 221.835 606.609C222.201 606.208 224.186 603.979 224.312 603.838C224.541 603.581 224.775 603.196 225.227 602.285C225.267 602.205 225.264 602.2 225.306 602.118C226.141 600.436 226.624 599.648 227.556 598.786C228.536 597.879 229.662 597.124 231.348 596.153C231.384 596.132 231.502 596.067 231.574 596.025C232.342 595.146 233.205 594.283 234.73 592.929C234.824 592.845 234.822 592.845 234.917 592.762C235.55 592.2 235.816 591.921 236.165 591.582C236.176 591.558 236.198 591.498 236.204 591.484C236.31 591.231 236.427 591.078 236.528 590.875C220.218 589.136 194.635 587.161 173.748 587.317Z" fill="#2F2F2F"/>
<path d="M173.753 586.911C166.687 586.963 160.156 587.261 154.716 587.894C151.09 588.315 147.935 588.888 145.419 589.643C142.918 590.393 140.992 591.335 139.886 592.542C139.831 592.602 139.792 592.669 139.738 592.729C140.046 592.811 140.298 592.927 140.525 593.063C141.485 592.037 143.216 591.151 145.655 590.419C148.107 589.684 151.213 589.118 154.815 588.699C162.017 587.862 171.161 587.613 180.967 587.746C200.212 588.006 221.863 589.717 236.327 591.255C236.456 590.963 236.601 590.721 236.741 590.488C222.26 588.94 200.385 587.193 180.976 586.93C178.522 586.897 176.108 586.893 173.753 586.911Z" fill="#2E4166"/>
<path d="M140.25 592.573C140.084 592.605 139.909 592.683 139.738 592.731C140.113 592.83 140.4 592.986 140.662 593.163C140.706 593.084 140.739 592.993 140.721 592.898C140.679 592.678 140.469 592.532 140.25 592.573Z" fill="#2E4166"/>
<path d="M205.869 549.468C200.123 549.225 195.641 549.973 192.318 551.099C190.102 551.849 188.403 552.77 187.178 553.684C185.963 554.589 185.187 555.509 184.888 556.278C184.807 556.487 184.905 556.728 185.114 556.809C185.323 556.89 185.563 556.781 185.644 556.573C185.865 556.006 186.501 555.196 187.659 554.332C188.807 553.476 190.437 552.593 192.583 551.866C196.875 550.412 203.225 549.588 211.923 550.863C220.523 552.123 226.607 557.69 230.195 564.023C231.988 567.188 233.152 570.539 233.694 573.615C234.236 576.696 234.146 579.474 233.468 581.516C233.395 581.729 233.51 581.957 233.722 582.027C233.934 582.098 234.163 581.984 234.233 581.772C234.97 579.56 235.046 576.639 234.49 573.477C233.931 570.309 232.731 566.875 230.891 563.629C227.216 557.141 220.95 551.373 212.043 550.067C209.84 549.744 207.785 549.548 205.869 549.468Z" fill="#2E4166"/>
<path d="M185.955 557.934C166.798 557.934 150.986 568.201 147.666 581.599C147.548 582.07 147.525 582.218 147.44 582.7L147.223 583.889L146.673 582.818C146.314 582.111 145.769 581.171 144.737 580.498C143.713 579.832 142.159 579.393 139.744 579.771C137.419 580.136 136.234 581.511 135.666 583.103C135.091 584.711 135.155 586.54 135.4 587.742C135.75 588.772 136.551 590.214 137.808 591.211C139.054 592.199 140.76 592.762 142.987 592.027H142.997L143.007 592.017C143.763 591.813 145.524 591.03 146.476 589.579L147.076 588.675L147.214 589.746C147.273 590.195 147.343 590.642 147.43 591.083C149.808 603.177 162.248 614.178 178.348 616.537L178.712 616.586L178.702 616.95C178.697 617.094 178.706 617.336 178.702 617.491C179.864 617.843 180.999 618.361 182.073 619.142C182.324 619.325 182.527 619.566 182.761 619.771C182.792 619.783 182.818 619.787 182.849 619.8C184.824 620.632 186.473 621.896 187.764 623.486C188.837 623.677 189.89 623.965 190.958 624.439C192.179 624.982 193.39 625.326 194.477 625.5C194.745 624.468 195.195 623.497 195.764 622.611C195.745 622.428 195.7 622.254 195.686 622.07C195.532 620.212 195.599 618.327 195.706 616.901L195.725 616.596L196.029 616.537C202.968 615.16 209.139 611.97 213.975 607.82C218.853 603.633 222.377 598.468 223.96 593.196C224.156 592.541 224.315 591.872 224.452 591.201L224.619 590.385L225.158 591.024C225.815 591.793 227.051 592.822 228.607 593.383C230.154 593.939 232.005 594.034 233.934 592.96C235.861 591.886 236.749 590.253 237.079 588.626C237.414 586.996 237.176 585.38 236.864 584.4C236.473 583.489 235.599 582.266 234.25 581.54C232.915 580.823 231.081 580.575 228.696 581.697H228.677L228.668 581.707C228.288 581.854 227.66 582.183 227.046 582.7C226.432 583.217 225.854 583.898 225.552 584.724L225.041 586.14L224.776 584.656C224.698 584.215 224.645 583.839 224.597 583.496C224.592 583.451 224.586 583.412 224.578 583.368C224.527 582.987 224.474 582.64 224.393 582.258C221.433 568.541 205.425 557.933 185.955 557.934Z" fill="#ECA991" stroke="#2E4166" stroke-miterlimit="10"/>
<path d="M201.251 551.069C195.53 551.03 190.965 552.841 185.674 555.727C180.409 551.293 162.805 549.724 150.854 562.607C148.986 564.835 145.341 572.337 145.341 580.602C145.746 581.007 146.467 582.73 146.962 583.432C148.104 582.014 151.438 580.803 152.682 580.317C154.238 579.709 180.695 582.743 185.674 564.209C187.957 570.691 198.303 583.35 221.459 582.135L224.692 585.86C225.418 583.024 228.088 580.197 233.348 580.7C233.348 574.421 231.129 559.134 213.202 553.3C208.536 551.782 204.686 551.092 201.251 551.069Z" fill="#2F2F2F" stroke="#2E4166" stroke-miterlimit="10" stroke-linecap="round"/>
<path fill-rule="evenodd" clip-rule="evenodd" d="M196.431 579.339C195.253 578.87 194.116 578.703 193.416 578.802C193.195 578.833 192.99 578.678 192.959 578.457C192.928 578.235 193.082 578.031 193.304 578C194.192 577.875 195.476 578.087 196.733 578.587C197.992 579.09 199.285 579.907 200.159 581.051C200.296 581.229 200.262 581.483 200.084 581.618C199.908 581.754 199.654 581.721 199.517 581.543C198.754 580.549 197.604 579.806 196.431 579.339ZM176.608 579.289C177.779 578.691 179.019 578.4 179.999 578.4C180.223 578.4 180.404 578.581 180.404 578.804C180.404 579.028 180.223 579.209 179.999 579.209C179.161 579.209 178.047 579.463 176.977 580.01C175.91 580.556 174.913 581.381 174.279 582.499C174.169 582.694 173.921 582.762 173.727 582.652C173.532 582.542 173.464 582.294 173.574 582.1C174.304 580.813 175.435 579.89 176.608 579.289ZM187.249 584.234C187.471 584.248 187.641 584.441 187.627 584.664C187.618 584.797 187.61 584.943 187.602 585.1C187.554 585.955 187.49 587.11 187.247 588.13C186.967 589.305 186.392 590.537 185.097 590.748C184.154 590.901 183.149 591.072 182.412 591.463C182.051 591.654 181.781 591.884 181.612 592.168C181.447 592.446 181.359 592.809 181.423 593.307C181.499 593.902 181.707 594.302 181.982 594.575C182.26 594.85 182.639 595.027 183.106 595.117C184.058 595.3 185.285 595.105 186.464 594.775C186.68 594.715 186.903 594.84 186.964 595.056C187.024 595.271 186.898 595.495 186.683 595.555C185.476 595.893 184.096 596.132 182.954 595.912C182.374 595.801 181.834 595.568 181.412 595.15C180.987 594.729 180.714 594.152 180.62 593.41C180.536 592.759 180.645 592.209 180.916 591.755C181.182 591.305 181.586 590.984 182.033 590.747C182.908 590.283 184.051 590.097 184.959 589.95L184.966 589.949C185.72 589.826 186.185 589.094 186.459 587.942C186.684 587 186.744 585.933 186.792 585.073C186.801 584.911 186.81 584.757 186.819 584.612C186.833 584.389 187.025 584.22 187.249 584.234ZM178.756 599.842C180.29 600.371 181.746 601.455 182.201 603.05C182.262 603.265 182.138 603.489 181.923 603.55C181.708 603.611 181.484 603.487 181.423 603.272C181.068 602.03 179.892 601.09 178.492 600.607C177.084 600.122 175.603 600.151 174.733 600.672C174.541 600.787 174.293 600.725 174.177 600.533C174.062 600.341 174.125 600.093 174.317 599.978C175.471 599.286 177.229 599.315 178.756 599.842Z" fill="#2E4166"/>
<path d="M194.98 586.093C194.98 587.211 195.525 588.117 196.195 588.117C196.865 588.117 197.41 587.211 197.41 586.093C197.41 584.975 196.865 584.068 196.195 584.068C195.525 584.068 194.98 584.975 194.98 586.093Z" fill="#2E4166"/>
<path d="M175.546 586.093C175.546 587.211 176.089 588.117 176.76 588.117C177.431 588.117 177.975 587.211 177.975 586.093C177.975 584.975 177.431 584.068 176.76 584.068C176.089 584.068 175.546 584.975 175.546 586.093Z" fill="#2E4166"/>
<path d="M201.458 591.76C201.458 592.878 203.452 593.785 205.912 593.785C208.372 593.785 210.365 592.878 210.365 591.76C210.365 590.643 208.372 589.736 205.912 589.736C203.452 589.736 201.458 590.643 201.458 591.76Z" fill="#FF629C"/>
<path d="M164.21 591.76C164.21 592.878 166.385 593.785 169.069 593.785C171.751 593.785 173.927 592.878 173.927 591.76C173.927 590.643 171.751 589.736 169.069 589.736C166.385 589.736 164.21 590.643 164.21 591.76Z" fill="#FF629C"/>
<path d="M141.694 582.625C139.682 582.625 138.058 584.069 138.058 585.858C138.058 587.647 139.682 589.102 141.694 589.102C143.706 589.102 145.34 587.647 145.34 585.858C145.34 584.069 143.706 582.625 141.694 582.625Z" fill="#CE8A71"/>
<path d="M141.144 582.628C140.546 582.65 139.89 582.749 139.169 582.933C138.952 582.988 138.819 583.208 138.874 583.424C138.929 583.641 139.149 583.774 139.365 583.719C139.97 583.566 140.524 583.474 141.016 583.444C140.941 583.494 140.862 583.547 140.79 583.601C140.223 584.033 139.68 584.676 139.68 585.459C139.68 585.682 139.859 585.862 140.083 585.862C140.306 585.862 140.485 585.682 140.485 585.459C140.485 585.063 140.776 584.634 141.282 584.25C141.742 583.899 142.288 583.663 142.667 583.581C144.484 584.03 145.213 585.442 145.35 586.333C145.384 586.554 145.591 586.702 145.812 586.667C146.033 586.633 146.181 586.426 146.146 586.206C145.968 585.051 145.036 583.281 142.766 582.766C142.282 582.656 141.742 582.606 141.144 582.628Z" fill="#2E4166"/>
<path d="M231.01 584.072C228.997 584.072 227.363 585.338 227.363 586.903C227.363 588.468 228.997 589.733 231.01 589.733C233.02 589.733 234.657 588.468 234.657 586.903C234.657 585.337 233.02 584.072 231.01 584.072Z" fill="#CE8A71"/>
<path d="M231.393 583.668C230.871 583.652 230.402 583.684 229.977 583.767C227.995 584.152 227.138 585.5 226.97 586.43C226.931 586.65 227.076 586.852 227.294 586.892C227.515 586.931 227.727 586.787 227.766 586.567C227.875 585.963 228.467 584.919 230.056 584.582C230.354 584.646 230.793 584.867 231.217 585.172C231.435 585.329 231.642 585.499 231.795 585.654C231.96 585.816 232.044 585.934 232.072 585.998C232.164 586.201 232.398 586.296 232.602 586.204C232.806 586.112 232.901 585.867 232.809 585.663C232.717 585.462 232.549 585.265 232.365 585.083C232.175 584.894 231.938 584.692 231.689 584.513C231.678 584.505 231.67 584.502 231.658 584.494C232.052 584.522 232.474 584.578 232.946 584.68C233.163 584.728 233.378 584.594 233.429 584.376C233.473 584.157 233.342 583.942 233.122 583.894C232.491 583.757 231.915 583.685 231.393 583.668Z" fill="#2E4166"/>
<path d="M228.336 589.91C227.219 589.91 226.312 590.817 226.312 591.935C226.312 593.053 227.219 593.959 228.336 593.959C229.456 593.959 230.36 593.053 230.36 591.935C230.36 590.817 229.456 589.91 228.336 589.91Z" fill="#FFFB90"/>
<path d="M143.315 589.91C142.197 589.91 141.291 590.817 141.291 591.935C141.291 593.053 142.197 593.959 143.315 593.959C144.434 593.959 145.34 593.053 145.34 591.935C145.34 590.817 144.434 589.91 143.315 589.91Z" fill="#FFFB90"/>
<path d="M195.538 616.635C193.378 617.04 188.34 617.685 185.425 617.038C186.504 618.927 189.952 622.55 195.133 621.903C194.81 619.311 195.268 617.31 195.538 616.635Z" fill="#E4AC98"/>
<path d="M178.61 616.953L176.561 637.979C176.561 637.979 181.927 640.38 187.002 640.479C192.077 640.577 196.862 638.373 196.862 638.373C196.862 638.373 196.102 623.061 195.949 616.828" fill="#ECA991"/>
<path d="M178.61 616.953L176.561 637.979C176.561 637.979 181.927 640.38 187.002 640.479C192.077 640.577 196.862 638.373 196.862 638.373C196.862 638.373 196.102 623.061 195.949 616.828" stroke="#2E4166" stroke-miterlimit="10" stroke-linecap="round"/>
<path d="M199.969 633.672C199.045 632.924 198.062 631.012 198.062 631.012C198.062 631.012 191.963 630.504 190.881 630.969C188.495 631.995 184.423 631.356 181.882 630.695C180.635 630.372 176.563 630.141 176.563 630.141C176.563 630.141 173.636 638.567 176.812 640.433C181.77 643.346 190.299 644.988 195.479 642.043C197.634 640.818 198.397 639.062 199.798 637.331" fill="#ECA991"/>
<path d="M199.969 633.672C199.045 632.924 198.062 631.012 198.062 631.012C198.062 631.012 191.963 630.504 190.881 630.969C188.495 631.995 184.423 631.356 181.882 630.695C180.635 630.372 176.563 630.141 176.563 630.141C176.563 630.141 173.636 638.567 176.812 640.433C181.77 643.346 190.299 644.988 195.479 642.043C197.634 640.818 198.397 639.062 199.798 637.331" stroke="#ECA991" stroke-miterlimit="10" stroke-linecap="round"/>
<path d="M183.032 747.575C181.979 746.697 181.389 744.912 182.383 743.721" stroke="#294064" stroke-miterlimit="10" stroke-linecap="round"/>
<path d="M111.982 620.428C111.093 621.471 111.042 624.073 110.796 625.235C110.069 628.669 109.44 632.037 108.937 635.503C107.505 645.366 107.627 655.484 108.233 665.408C108.48 669.455 109.519 673.407 109.841 677.431" stroke="#2E4166" stroke-miterlimit="10" stroke-linecap="round"/>
<path d="M186.283 603C184.495 602.138 183.253 599.66 181.446 599.236C178.563 598.559 175.523 599.231 172.562 599.283C170.473 599.32 171.14 603.305 171.857 604.126C174.172 606.779 183.369 609.761 186.121 606.455" fill="#ECA991"/>
<path d="M186.283 603C184.495 602.138 183.253 599.66 181.446 599.236C178.563 598.559 175.523 599.231 172.562 599.283C170.473 599.32 171.14 603.305 171.857 604.126C174.172 606.779 183.369 609.761 186.121 606.455" stroke="#ECA991" stroke-miterlimit="10" stroke-linecap="round"/>
<path d="M179.299 616.988L191.669 617.683C191.523 619.399 178.721 622.987 178.721 622.987L179.299 616.988Z" fill="#CE8A71"/>
<path d="M186.09 601.987C188.913 602.871 191.59 600.903 193.463 599.049C193.765 598.75 194.765 597.555 194.765 597.555" stroke="#294064" stroke-miterlimit="10" stroke-linecap="round"/>
<path d="M274.084 652.311C274.084 652.311 268.002 661.622 266.425 664.876C260.109 677.88 258.383 691.05 262.571 704.942" stroke="#294064" stroke-miterlimit="10" stroke-linecap="round"/>
<path d="M98.0209 618.905C97.5546 618.728 96.4047 620.055 96.1079 620.419C94.6707 622.182 94.0397 623.859 94.2639 626.06" stroke="#E14438" stroke-miterlimit="10" stroke-linecap="round"/>
<path d="M99.3035 620.268C97.1898 621.22 96.1181 623.97 96.3365 626.111" stroke="#E14438" stroke-miterlimit="10" stroke-linecap="round"/>
<path d="M107.207 621.576C106.052 622.568 105.773 625.803 106.117 627.175" stroke="#E14438" stroke-miterlimit="10" stroke-linecap="round"/>
<path d="M108.977 622.395C108.056 623.41 108.059 626.009 108.386 627.309" stroke="#E14438" stroke-miterlimit="10" stroke-linecap="round"/>
<path d="M151.641 623.422C151.641 623.422 125.222 601.173 114.423 588.336C110.097 583.194 110.465 575.443 107.571 569.379C106.105 566.308 104.194 563.232 101.468 561.195C98.7985 559.201 94.6537 558.014 91.3256 558.168C88.193 558.313 82.8288 559.809 80.7298 562.139C78.6711 564.425 80.3311 567.603 80.4662 570.676C80.6656 575.218 84.1459 579.147 84.6113 583.67C85.4683 592 83.7284 600.444 84.3877 608.792C84.5639 611.023 85.3527 613.519 87.0808 614.94C90.3299 617.612 94.4873 619.022 98.4707 620.372C102.413 621.709 106.561 622.427 110.692 622.944C124.087 624.619 151.641 623.422 151.641 623.422Z" fill="#2F2F2F" stroke="#2E4166" stroke-miterlimit="10" stroke-linecap="round"/>
<path d="M129.139 626.122C125.271 622.642 125.271 622.642 121.402 619.163C127.075 624.532 135.005 632.397 139.368 628.179C140.562 627.025 133.54 622.637 127.711 617.095C133.039 621.513 143.605 632.012 146.384 628.036C147.48 626.468 139.291 620.575 135.365 617.263C138.78 620.095 142.006 623.174 145.612 625.759C148.618 627.915 157.539 630.446 154.755 625.912C151.97 621.378 140.983 614.271 134.474 607.624C129.277 602.319 125.076 596.091 119.825 590.84C118.106 589.121 115.943 587.828 113.711 586.864C108.279 584.519 104.902 590.914 103.614 594.934C100.406 604.942 108.996 617.86 116.799 623.392C121.356 626.624 124.224 628.231 129.139 626.122Z" fill="#2F2F2F" stroke="#2E4166" stroke-miterlimit="10" stroke-linecap="round"/>
<path d="M237.919 356.672C238.26 356.843 238.603 357.014 238.944 357.185L237.919 356.672Z" fill="#2F2F2F"/>
<path d="M237.919 356.672C238.26 356.843 238.603 357.014 238.944 357.185" stroke="#2E4166" stroke-miterlimit="10" stroke-linecap="round"/>
<path d="M79.7579 562.365C79.7579 562.365 85.4072 558.78 91.1252 560.456C96.8429 562.133 100.653 566.052 102.533 570.977C105.11 577.727 104.843 585.573 102.864 592.521C101.573 597.051 100.184 601.431 93.8546 602.957C88.4385 604.262 84.4486 598.706 84.4486 598.706C84.4486 598.706 84.791 592.348 83.7573 587.818C83.16 585.201 76.3463 582.678 74.2368 576.592C71.1854 567.791 79.7579 562.365 79.7579 562.365Z" fill="white" stroke="#2E4166" stroke-miterlimit="10" stroke-linecap="round"/>
<path d="M82.1586 583.614C86.92 583.79 95.1636 575.765 94.2223 570.592C93.8973 568.806 91.8676 567.256 90.6189 566.186C86.5989 562.741 82.5026 561.142 77.268 562.165C74.2864 562.747 71.4216 564.223 68.5718 565.224C57.6532 569.058 48.4379 574.97 41.481 584.292C38.8655 587.797 36.2064 592.552 35.5765 596.965C35.4363 597.947 35.1138 601.199 36.6473 601.418C37.6366 601.559 39.5323 599.612 40.2594 599.067C42.7607 597.19 45.4457 594.899 48.1718 593.37C56.5254 588.685 65.0599 585.112 74.6807 584.116C77.1281 583.863 79.7073 583.523 82.1586 583.614Z" fill="#FFD432" stroke="#2E4166" stroke-miterlimit="10" stroke-linecap="round"/>
<path d="M41.3911 597.692C40.664 598.238 38.0922 601.118 37.1029 600.977C38.2785 595.338 46.1218 583.442 69.9119 579.197C86.1803 576.295 92.318 573.517 93.9254 571.938C93.2973 576.992 86.2467 583.396 82.1979 583.246C79.7466 583.155 77.2458 583.551 74.7984 583.805C65.1777 584.801 57.6029 587.776 49.2492 592.461C46.5232 593.989 43.8924 595.816 41.3911 597.692Z" fill="#FF8D50"/>
<path d="M51.8468 573.896C44.8332 578.19 33.536 591.723 35.2825 599.411C35.5629 600.646 36.2252 601.25 36.2252 601.25C36.2252 601.25 41.9075 593.568 46.2008 590.389C52.8126 585.494 59.3985 582.814 59.3985 582.814C59.3985 582.814 54.7404 574.684 51.8468 573.896Z" fill="#E14438" stroke="#2E4166" stroke-miterlimit="10" stroke-linecap="round"/>
<path d="M36.4209 601.187C49.1073 581.885 72.0563 578.483 93.3456 574.41" stroke="#2E4166" stroke-miterlimit="10" stroke-linecap="round"/>
<path d="M96.6826 570.372C96.6826 569.378 97.0216 568.572 97.4399 568.572C97.8579 568.572 98.1969 569.378 98.1969 570.372C98.1969 571.366 97.8579 572.172 97.4399 572.172C97.0216 572.172 96.6826 571.366 96.6826 570.372Z" fill="#294064" stroke="#2E4166" stroke-miterlimit="10"/>
<path d="M390.204 673.58C389.442 673.568 388.674 673.846 388.085 674.418C387.979 674.52 386.968 675.458 386.706 675.753C386.466 676.025 386.253 676.306 386.069 676.626C385.821 677.054 385.681 677.378 385.248 678.441C385.12 678.76 378.882 694.118 376.732 699.671C376.355 700.646 376.126 701.414 375.651 703.1C375.648 703.11 375.112 704.956 374.883 705.604C367.196 727.151 363.818 751.674 363.005 782.715C362.977 783.807 362.952 784.636 362.902 786.658C362.623 797.916 362.441 802.953 361.986 809.18C361.754 812.338 361.469 815.337 361.12 818.238C360.978 819.425 360.928 820.383 360.869 822.538C360.852 823.167 360.847 823.426 360.833 823.761C360.743 826.428 360.526 828.036 360.015 829.337C359.411 830.868 360.165 832.599 361.698 833.202C363.228 833.805 364.96 833.048 365.563 831.518C366.389 829.416 366.68 827.271 366.794 823.971C366.805 823.616 366.811 823.345 366.828 822.706C366.881 820.737 366.925 819.886 367.037 818.945C367.397 815.946 367.69 812.855 367.928 809.607C368.394 803.252 368.581 798.162 368.86 786.806C368.911 784.787 368.939 783.96 368.967 782.871C369.762 752.408 373.057 728.445 380.493 707.602C380.786 706.784 380.979 706.133 381.375 704.732C381.378 704.722 382.004 702.567 382.291 701.826C384.422 696.317 386.195 691.901 390.204 682.062C390.26 681.925 390.643 681.012 390.771 680.692C391.064 679.975 391.165 679.76 391.218 679.662C391.246 679.632 391.274 679.595 391.408 679.47C391.559 679.332 392.07 678.858 392.229 678.703C393.41 677.558 393.435 675.67 392.29 674.488C391.718 673.897 390.967 673.593 390.204 673.58Z" fill="#5C9239" stroke="#294064" stroke-miterlimit="10" stroke-linecap="round"/>
<path d="M388.085 674.418C388.674 673.846 389.442 673.568 390.204 673.58C390.966 673.593 391.717 673.897 392.29 674.488C393.435 675.67 393.409 677.558 392.228 678.703C392.069 678.858 391.558 679.332 391.407 679.47C391.273 679.595 391.245 679.632 391.218 679.662C391.164 679.76 391.064 679.975 390.771 680.692C390.642 681.012 390.26 681.925 390.204 682.062C387.144 689.571 385.387 693.921 383.779 698.009C380.33 697.897 379.297 694.891 379.212 693.402C381.843 686.825 385.154 678.673 385.248 678.441C385.68 677.378 385.82 677.054 386.069 676.626C386.253 676.306 386.465 676.025 386.705 675.753C386.968 675.458 387.979 674.52 388.085 674.418Z" fill="#3C6124"/>
<path d="M374.883 705.604C375.112 704.956 375.648 703.11 375.651 703.1C376.125 701.414 376.354 700.646 376.731 699.671C377.321 698.148 378.218 695.887 379.212 693.402M380.492 707.602C380.786 706.784 380.978 706.133 381.375 704.732C381.378 704.722 382.003 702.567 382.291 701.826C382.795 700.521 383.28 699.278 383.779 698.009M379.212 693.402C381.843 686.825 385.154 678.673 385.248 678.441C385.68 677.378 385.82 677.054 386.069 676.626C386.253 676.306 386.465 676.025 386.705 675.753C386.968 675.458 387.979 674.52 388.085 674.418C388.674 673.846 389.442 673.568 390.204 673.58C390.966 673.593 391.717 673.897 392.29 674.488C393.435 675.67 393.409 677.558 392.228 678.703C392.069 678.858 391.558 679.332 391.407 679.47C391.273 679.595 391.245 679.632 391.218 679.662C391.164 679.76 391.064 679.975 390.771 680.692C390.642 681.012 390.26 681.925 390.204 682.062C387.144 689.571 385.387 693.921 383.779 698.009M379.212 693.402C379.297 694.891 380.33 697.897 383.779 698.009" stroke="#294064" stroke-miterlimit="10" stroke-linecap="round"/>
<path d="M270.949 747.202C269.905 747.182 268.992 747.529 268.199 748.118C267.749 748.453 267.436 748.777 266.978 749.296C266.97 749.305 266.64 749.665 266.601 749.707C266.593 749.715 266.585 749.724 266.576 749.732C265.303 751.016 264.141 752.505 262.667 754.627C262.31 755.143 261.034 757.011 260.757 757.411C257.672 761.853 254.625 768.876 252.78 775.203C248.033 791.499 245.305 806.82 244.822 821.58C244.811 822.007 244.71 824.606 244.693 825.184C244.584 828.94 244.73 831.59 245.347 834.268C245.715 835.87 247.312 836.878 248.915 836.51C250.518 836.141 251.526 834.536 251.157 832.933C250.68 830.856 250.557 828.65 250.652 825.36C250.669 824.808 250.761 822.214 250.775 821.772C251.238 807.551 253.88 792.716 258.495 776.87C260.174 771.11 262.983 764.651 265.652 760.806C265.948 760.379 267.224 758.516 267.562 758.031C268.397 756.83 269.086 755.939 269.743 755.152C270.282 755.082 270.812 754.92 271.262 754.549C271.228 754.577 271.485 754.367 271.611 754.261C271.837 754.074 272.049 753.892 272.256 753.703C272.387 753.585 272.507 753.468 272.624 753.354C273.163 752.826 273.54 752.374 273.819 751.784C274.833 749.64 273.403 747.248 270.949 747.202Z" fill="#A1B700" stroke="#294064" stroke-miterlimit="10" stroke-linecap="round"/>
<path d="M268.199 748.118C268.992 747.529 269.905 747.182 270.949 747.202C273.404 747.248 274.834 749.64 273.82 751.784C273.541 752.374 273.164 752.826 272.625 753.354L272.622 753.356C272.506 753.47 272.387 753.586 272.256 753.703C272.05 753.892 271.837 754.074 271.611 754.261C271.486 754.367 271.229 754.577 271.262 754.549C270.813 754.92 270.282 755.082 269.743 755.152C269.087 755.939 268.397 756.83 267.562 758.031C267.225 758.516 265.949 760.379 265.653 760.806C264.2 762.898 262.707 765.763 261.377 768.868C259.41 763.007 260.557 758.187 261.377 756.509C261.852 755.816 262.442 754.953 262.668 754.627C264.142 752.505 265.304 751.016 266.577 749.732L266.602 749.707C266.641 749.665 266.971 749.305 266.979 749.296C267.437 748.777 267.75 748.453 268.199 748.118Z" fill="#3C6124"/>
<path d="M252.78 775.203C254.626 768.876 257.672 761.853 260.758 757.411C260.86 757.263 261.098 756.915 261.377 756.509M258.496 776.87C259.261 774.243 260.262 771.471 261.377 768.868M261.377 756.509C261.852 755.816 262.442 754.953 262.668 754.627C264.142 752.505 265.304 751.016 266.577 749.732C266.585 749.724 266.594 749.715 266.602 749.707C266.641 749.665 266.971 749.305 266.979 749.296C267.437 748.777 267.75 748.453 268.199 748.118C268.992 747.529 269.905 747.182 270.949 747.202C273.404 747.248 274.834 749.64 273.82 751.784C273.541 752.374 273.164 752.826 272.625 753.354C272.508 753.468 272.388 753.585 272.256 753.703C272.05 753.892 271.837 754.074 271.611 754.261C271.486 754.367 271.229 754.577 271.262 754.549C270.813 754.92 270.282 755.082 269.743 755.152C269.087 755.939 268.397 756.83 267.562 758.031C267.225 758.516 265.949 760.379 265.653 760.806C264.2 762.898 262.707 765.763 261.377 768.868M261.377 756.509C260.557 758.187 259.41 763.007 261.377 768.868" stroke="#294064" stroke-miterlimit="10" stroke-linecap="round"/>
<path d="M68.4922 708.631C68.1591 708.653 68.1572 708.658 67.48 708.876C65.4816 709.736 65.2083 712.039 66.302 713.448C66.5698 713.793 66.799 713.967 67.0785 714.146C67.176 714.208 67.2653 714.264 67.3577 714.312C67.6342 714.456 67.9857 714.596 68.5969 714.835C68.6243 714.846 69.1395 715.048 69.3997 715.149C70.6579 715.999 71.6997 716.725 73.9807 718.326C74.0044 718.342 74.3202 718.56 74.4344 718.64C75.3654 719.293 76.0202 719.768 76.6596 720.254C76.716 720.297 79.7406 722.667 79.635 722.584C87.1091 728.445 92.6967 734.401 102.628 746.371C114.836 761.085 124.361 778.227 134.66 802.224C135.357 803.849 135.763 804.751 137.33 808.174C139.566 813.058 140.645 815.59 141.658 818.506C142.948 822.222 143.696 825.57 143.892 828.837C143.99 830.482 145.399 831.73 147.042 831.629C148.685 831.531 149.933 830.124 149.834 828.479C149.603 824.618 148.744 820.748 147.286 816.551C146.192 813.401 145.06 810.746 142.749 805.697C141.204 802.322 140.802 801.439 140.131 799.878C129.626 775.399 119.857 757.802 107.217 742.566C97.0308 730.289 91.2176 724.094 83.3175 717.898C83.4596 718.01 80.9979 716.071 80.4554 715.656C80.392 715.607 80.3256 715.555 80.2633 715.507C79.5588 714.972 78.8448 714.456 77.855 713.762C77.741 713.682 73.8807 710.986 72.4974 710.054C72.2009 709.874 72.2087 709.87 72.1135 709.827C72.0381 709.792 72.0306 709.787 71.9826 709.766C71.9429 709.748 71.2881 709.49 70.9877 709.373C70.9846 709.372 70.9821 709.366 70.979 709.364C70.6738 709.126 70.3206 708.939 69.9233 708.832C69.4734 708.711 69.2308 708.654 68.9024 708.631C68.7472 708.622 68.7455 708.624 68.4922 708.631Z" fill="#5C9239" stroke="#294064" stroke-miterlimit="10" stroke-linecap="round"/>
<path d="M304.852 729.799C301.973 729.847 298.993 730.82 295.986 733.027C292.669 735.46 295.807 740.838 291.971 741.954C285.976 743.698 286.632 736.359 279.274 737.678C261.993 740.777 261.974 761.392 267.198 774.432C276.245 797.007 299.569 808.277 320.488 817.475C326.514 820.127 335.231 823.637 341.771 819.789C344.197 818.357 342.357 812.382 341.997 810.634C340.646 804.1 339.833 797.954 338.568 791.403C337.247 784.565 337.594 777.47 336.29 770.626C335.385 765.874 333.763 761.264 331.97 756.771C327.994 746.797 317.322 729.589 304.852 729.799ZM310.95 741.989C311.316 741.934 311.695 741.952 312.075 742.05C313.173 742.33 314.01 742.678 315.043 743.254C316.414 744.02 316.909 745.748 316.141 747.119C315.376 748.491 313.639 748.985 312.268 748.219C311.651 747.874 311.271 747.709 310.671 747.556C309.149 747.167 308.222 745.623 308.613 744.1C308.903 742.959 309.853 742.154 310.95 741.989ZM289.022 760.722C289.377 760.73 289.734 760.781 290.095 760.862C292.982 761.526 294.78 764.399 294.118 767.284C294.124 767.259 294.118 767.284 294.11 767.345C294.087 767.482 293.892 768.99 293.803 769.545C293.655 770.484 293.487 771.279 293.255 772.031C292.781 773.555 292.127 774.773 290.784 775.8C289.603 776.708 288.369 777.277 286.694 777.241C283.94 777.182 282 775.356 281.335 773.106C280.88 771.567 281.006 770.263 281.413 768.532C281.868 766.588 282.782 764.092 283.524 763.053C284.574 761.585 286.227 760.814 287.905 760.82C288.268 760.75 288.645 760.714 289.022 760.722ZM320.731 765.444C321.097 765.388 321.477 765.399 321.856 765.497C323.35 765.876 324.864 766.711 326.081 767.764C327.268 768.792 327.405 770.59 326.377 771.779C325.35 772.966 323.551 773.094 322.365 772.067C321.784 771.564 321.044 771.162 320.452 771.011C318.93 770.623 318.014 769.079 318.402 767.555C318.693 766.413 319.637 765.611 320.731 765.444Z" fill="#A1B700" stroke="#294064" stroke-miterlimit="10" stroke-linecap="round"/>
<path d="M465.509 578.363C463.493 578.429 460.154 580.062 454.698 584.681C441.895 595.521 426.594 606.149 411.663 621.434C406.232 626.991 403.055 630.279 395.974 640.631C388.893 650.982 383.33 662.838 383.33 662.838C383.33 662.838 380.452 668.107 378.949 683.518C377.927 694.003 398.802 692.92 409.491 695.883C414.534 697.28 420.786 697.703 425.153 694.818C431.053 690.92 434.459 687.312 438.531 681.529C436.101 679.454 431.463 674.118 430.076 671.241C428.227 667.415 426.379 663.707 426.934 660.508C427.487 657.31 431.229 657.63 432.29 658.449C437.039 662.116 442.099 670.779 442.099 670.779C442.099 670.779 450.964 657.87 457.359 642.943C455.119 641.859 451.375 641.346 449.437 637.777C447.499 634.209 446.561 627.302 449.839 627.263C453.115 627.223 453.827 629.903 460.894 635.334C461.592 621.523 466.344 610.513 466.068 596.688C465.998 593.191 467.961 585.676 467.961 585.676C467.961 585.676 469.943 578.219 465.509 578.363ZM456.993 605.902C457.711 606.028 458.383 606.428 458.836 607.071C459.738 608.357 459.422 610.13 458.138 611.033C455.739 612.715 453.556 613.855 451.112 614.584C449.607 615.034 448.019 614.179 447.569 612.673C447.12 611.168 447.985 609.58 449.49 609.131C451.286 608.595 452.941 607.73 454.874 606.373C455.516 605.922 456.275 605.776 456.993 605.902ZM410.066 678.178C411.275 678.149 412.582 678.215 413.688 678.309C414.456 678.228 415.159 678.187 415.774 678.204C416.636 678.229 417.379 678.355 418.069 678.658C419.289 679.197 420.174 680.275 420.258 681.721C420.331 682.996 419.747 684.057 418.826 684.801C418.275 685.247 417.619 685.563 416.854 685.822C415.746 686.196 414.344 686.45 412.744 686.598C409.756 686.877 406.579 686.778 405.213 686.223C403.758 685.631 403.06 683.97 403.652 682.515C403.683 682.44 403.747 682.394 403.784 682.323C403.697 681.226 404.127 680.197 404.945 679.496C405.484 679.032 406.096 678.757 406.81 678.562C407.696 678.321 408.782 678.209 410.066 678.178Z" fill="#5C9239" stroke="#294064" stroke-miterlimit="10" stroke-linecap="round"/>
<path d="M-29.545 654.616C-35.2493 654.53 -40.9654 654.688 -46.6565 654.8C-49.4295 654.854 -52.6859 654.791 -52.6859 654.791C-52.6859 654.791 -64.7952 653.828 -57.8516 660.437C-50.4713 667.46 -39.4274 688.928 -30.758 698.656C-9.00293 723.066 18.7521 728.978 18.7521 728.978C18.7521 728.978 19.8769 720.211 23.4119 716.133C25.099 714.187 27.4363 711.853 29.9999 712.102C32.8838 712.382 36.6279 713.171 36.8583 717.442C37.0886 721.713 29.1447 732.137 29.1447 732.137C29.1447 732.137 30.189 732.917 36.8932 733.611C42.9183 734.235 47.7126 733.567 53.3762 732.442C63.9608 730.339 76.997 728.636 84.4401 723.341C87.3183 721.293 84.9147 715.207 83.3757 711.587C81.3608 706.849 77.3254 703.257 74.1698 699.188C54.9753 674.436 34.0646 668.22 19.1537 662.88C5.05946 657.833 22.0029 665.717 19.9913 672.723C18.9018 676.517 17.3085 677.546 16.152 678.063C14.0419 679.006 12.3942 676.174 11.5361 674.773C9.54355 671.521 11.0405 665.358 7.94972 663.124C2.08402 658.884 -5.366 656.981 -12.5212 655.89C-18.1481 655.033 -23.8407 654.702 -29.545 654.616ZM-2.65221 699.554C0.723915 699.37 3.60357 701.963 3.78758 705.34C3.80042 705.576 3.82695 706.046 3.8398 706.282C4.0238 709.658 1.43957 712.546 -1.93655 712.73C-5.31268 712.914 -8.20099 710.321 -8.385 706.945C-8.39784 706.709 -8.42437 706.239 -8.43749 706.003C-8.62122 702.627 -6.02833 699.738 -2.65221 699.554Z" fill="#5C9239" stroke="#294064" stroke-miterlimit="10" stroke-linecap="round"/>
<path d="M294.448 747.266C295.39 749.592 296.406 751.883 297.467 754.151C298.388 756.119 299.342 758.071 300.312 760.015C301.174 761.741 302.047 763.46 302.92 765.181C304.061 767.43 305.201 769.681 306.312 771.947C309.206 777.854 312.051 783.679 315.132 789.334C317.048 792.851 319.055 796.302 321.221 799.665C323.887 803.806 326.794 807.814 330.069 811.65" fill="#5C9239"/>
<path d="M294.448 747.266C295.39 749.592 296.406 751.883 297.467 754.151M330.069 811.65C326.794 807.814 323.887 803.806 321.221 799.665M302.92 765.181C304.061 767.43 305.201 769.681 306.312 771.947C309.206 777.854 312.051 783.679 315.132 789.334M302.92 765.181C300.709 774.07 293.748 792.685 283.584 796.035M302.92 765.181C302.047 763.46 301.174 761.741 300.312 760.015M297.467 754.151C289.303 749.591 271.382 743.206 265.016 754.151M297.467 754.151C298.388 756.119 299.342 758.071 300.312 760.015M300.312 760.015C308.837 757.316 327.925 755.52 336.079 769.928M315.132 789.334C312.431 795.756 308.65 809.829 315.132 814.743M315.132 789.334C317.048 792.851 319.055 796.302 321.221 799.665M321.221 799.665C326.592 799.851 338.201 802.206 341.663 810.136" stroke="#294064" stroke-miterlimit="10" stroke-linecap="round"/>
<path d="M384.238 683.887C388.603 670.905 394.806 658.976 402.296 647.905C405.282 643.491 408.473 639.214 411.833 635.061C415.44 630.603 419.242 626.288 423.197 622.101C428.367 616.627 433.798 611.372 439.392 606.302C444.533 601.642 449.813 597.138 455.156 592.764" fill="#5C9239"/>
<path d="M384.238 683.887C388.603 670.905 394.806 658.976 402.296 647.905M455.156 592.764C449.813 597.138 444.533 601.642 439.392 606.302M402.296 647.905C411.497 656.515 429.898 677.392 429.898 692.023M402.296 647.905C405.282 643.491 408.473 639.214 411.833 635.061M423.197 622.101C430.922 629.772 446.82 648.185 448.607 660.471M423.197 622.101C428.367 616.627 433.798 611.372 439.392 606.302M423.197 622.101C419.242 626.288 415.44 630.603 411.833 635.061M439.392 606.302C439.578 603.554 440.369 597.529 442.045 595.411M411.833 635.061C408.035 635.712 399.854 637.518 397.508 639.529" stroke="#294064" stroke-miterlimit="10" stroke-linecap="round"/>
<path d="M77.1652 718.851C69.4834 714.102 62.4081 708.192 54.1204 704.604C53.4046 704.294 52.6876 703.987 51.9695 703.682C46.1206 701.199 40.1979 698.881 34.2386 696.645C31.0824 695.461 27.916 694.3 24.7449 693.15C14.8688 689.568 4.94695 686.094 -4.85304 682.359C-12.1093 679.593 -19.2987 676.685 -26.3534 673.486C-31.0343 671.363 -35.6559 669.111 -40.1982 666.688" fill="#5C9239"/>
<path d="M77.1652 718.851C69.4834 714.102 62.4081 708.192 54.1204 704.604C53.4046 704.294 52.6876 703.987 51.9695 703.682M-40.1982 666.688C-35.6559 669.111 -31.0343 671.363 -26.3534 673.486M24.7449 693.15C17.997 698.778 3.18867 712.212 -2.06078 720.924M24.7449 693.15C27.916 694.3 31.0824 695.461 34.2386 696.645M24.7449 693.15C14.8688 689.568 4.94695 686.094 -4.85304 682.359M51.9695 703.682C52.9468 710.872 52.0253 727.011 40.5212 734.047M51.9695 703.682C46.1206 701.199 40.1979 698.881 34.2386 696.645M34.2386 696.645C38.2408 692.359 44.6817 681.078 38.427 670.244M-4.85304 682.359C-14.9983 683.486 -34.5348 688.143 -31.5191 697.748M-4.85304 682.359C-12.1093 679.593 -19.2987 676.685 -26.3534 673.486M-26.3534 673.486C-28.0288 668.031 -28.7269 656.73 -18.1163 655.166" stroke="#294064" stroke-miterlimit="10" stroke-linecap="round"/>
</g>
<defs>
<linearGradient id="paint0_linear_19430_175712" x1="393" y1="740.019" x2="711.84" y2="-463.573" gradientUnits="userSpaceOnUse">
<stop stop-color="#FFC670"/>
<stop offset="0.536458" stop-color="#FC803B"/>
<stop offset="0.796875" stop-color="#FF7A00"/>
</linearGradient>
<linearGradient id="paint1_linear_19430_175712" x1="365.372" y1="574.205" x2="365.372" y2="728.842" gradientUnits="userSpaceOnUse">
<stop offset="0.619792" stop-color="#FFC0D7"/>
<stop offset="1" stop-color="#FE8F83"/>
</linearGradient>
<linearGradient id="paint2_linear_19430_175712" x1="369.328" y1="679.918" x2="369.328" y2="710.062" gradientUnits="userSpaceOnUse">
<stop stop-color="#FFACCA"/>
<stop offset="1" stop-color="#FFACCA"/>
</linearGradient>
<linearGradient id="paint3_linear_19430_175712" x1="396.554" y1="681.678" x2="396.554" y2="711.773" gradientUnits="userSpaceOnUse">
<stop stop-color="#FFACCA"/>
<stop offset="1" stop-color="#FFACCA"/>
</linearGradient>
<linearGradient id="paint4_linear_19430_175712" x1="402.684" y1="676.297" x2="402.684" y2="707.928" gradientUnits="userSpaceOnUse">
<stop stop-color="#FFACCA"/>
<stop offset="1" stop-color="#FFACCA"/>
</linearGradient>
<linearGradient id="paint5_linear_19430_175712" x1="408.18" y1="672.121" x2="408.18" y2="702.531" gradientUnits="userSpaceOnUse">
<stop stop-color="#FFACCA"/>
<stop offset="1" stop-color="#FFACCA"/>
</linearGradient>
<linearGradient id="paint6_linear_19430_175712" x1="336.824" y1="706.963" x2="336.824" y2="716.133" gradientUnits="userSpaceOnUse">
<stop stop-color="#FFACCA"/>
<stop offset="1" stop-color="#FFACCA"/>
</linearGradient>
<linearGradient id="paint7_linear_19430_175712" x1="347.004" y1="700.285" x2="347.004" y2="710.677" gradientUnits="userSpaceOnUse">
<stop stop-color="#FFACCA"/>
<stop offset="1" stop-color="#FFACCA"/>
</linearGradient>
<linearGradient id="paint8_linear_19430_175712" x1="356.174" y1="697.383" x2="356.174" y2="705.13" gradientUnits="userSpaceOnUse">
<stop stop-color="#FFACCA"/>
<stop offset="1" stop-color="#FFACCA"/>
</linearGradient>
<linearGradient id="paint9_linear_19430_175712" x1="371.32" y1="711.332" x2="371.32" y2="724.152" gradientUnits="userSpaceOnUse">
<stop stop-color="#FFACCA"/>
<stop offset="1" stop-color="#FFACCA"/>
</linearGradient>
<linearGradient id="paint10_linear_19430_175712" x1="378.846" y1="707.732" x2="378.846" y2="722.223" gradientUnits="userSpaceOnUse">
<stop stop-color="#FFACCA"/>
<stop offset="1" stop-color="#FFACCA"/>
</linearGradient>
<linearGradient id="paint11_linear_19430_175712" x1="386.008" y1="705.807" x2="386.008" y2="719.298" gradientUnits="userSpaceOnUse">
<stop stop-color="#FFACCA"/>
<stop offset="1" stop-color="#FFACCA"/>
</linearGradient>
<clipPath id="clip0_19430_175712">
<path d="M0 0H390V789C390 800.046 381.046 809 370 809H20C8.9543 809 0 800.046 0 789V0Z" fill="white"/>
</clipPath>
</defs>
</svg>
