<svg width="390" height="809" viewBox="0 0 390 809" fill="none" xmlns="http://www.w3.org/2000/svg">
<g clip-path="url(#clip0_19430_174529)">
<path d="M390 -9C390 -20.0457 381.046 -29 370 -29L19.9998 -28.9999C8.95416 -28.9999 -0.000151022 -20.0456 -0.000149091 -8.99993L-9.56426e-06 789C-7.63297e-06 800.046 8.95428 809 20 809L370 809C381.046 809 390 800.046 390 789L390 -9Z" fill="url(#paint0_linear_19430_174529)"/>
<path d="M390 -9C390 -20.0457 381.046 -29 370 -29L19.9998 -28.9999C8.95416 -28.9999 -0.000151022 -20.0456 -0.000149091 -8.99993L-9.56426e-06 789C-7.63297e-06 800.046 8.95428 809 20 809L370 809C381.046 809 390 800.046 390 789L390 -9Z" fill="url(#paint1_linear_19430_174529)" fill-opacity="0.2"/>
<path d="M390 -9C390 -20.0457 381.046 -29 370 -29L19.9998 -28.9999C8.95416 -28.9999 -0.000151022 -20.0456 -0.000149091 -8.99993L-9.56426e-06 789C-7.63297e-06 800.046 8.95428 809 20 809L370 809C381.046 809 390 800.046 390 789L390 -9Z" fill="url(#paint2_linear_19430_174529)" fill-opacity="0.2"/>
<path d="M197.031 533.629C197.031 533.629 189.027 554.934 172.377 549.692C151.465 543.109 133.896 515.744 105.259 511.214C76.6227 506.684 62.4975 511.475 50.0664 531.055C37.6353 550.636 34.2197 568.965 42.5938 597.559C50.9679 626.153 67.9878 631.58 83.5625 645.432C100.876 660.83 134.614 650.683 157.635 653.305C185.341 656.458 201.673 676.995 229.554 676.56C250.343 676.235 262.947 676.042 283.976 673.6C304.674 671.197 306.751 670.626 315.755 663.264C324.759 655.902 323.522 642.162 323.522 642.162C323.522 642.162 320.583 615.919 286.624 604.344C252.664 592.771 220.465 613.83 181.445 601.07C176.2 599.354 170.009 596.18 170.022 589.085C170.036 581.992 175.196 574.874 181.5 572.695C212.33 562.038 246.488 563.161 277.158 552.049C294.501 545.765 311.435 550.423 329.98 530.268C329.98 530.268 356.497 504.863 351.333 471.433C347.505 446.645 329.661 457.071 281.48 442.821C233.301 428.571 222.786 413.582 145.42 417.997C121.561 419.359 82.7371 422.535 63.1481 435.5C43.559 448.465 44.3316 462.636 47.0967 472.71C49.7905 482.523 61.6113 492.28 71.4493 494.885C102.818 503.191 119.242 476.194 167.357 487.905C210.662 498.445 197.031 533.629 197.031 533.629Z" fill="white" fill-opacity="0.4"/>
<path d="M206.689 369.202C201.963 359.607 185.199 369.651 180.608 374.957C176.175 380.081 173.995 388.461 174.408 395.11C174.634 398.755 176.913 403.751 172.018 410.195C166.088 418.002 161.175 417.408 159.093 426.04C156.534 436.646 164.35 441.435 164.35 441.435C164.35 441.435 151.037 449.803 150.234 461.772C148.841 482.525 166.323 489.38 166.323 489.38C166.323 489.38 181.208 484.734 191.546 489.888C202.204 495.202 204.804 495.951 216.519 498.535C222.605 499.878 237.603 505.782 246.797 502.435C255.992 499.088 261.287 490.503 261.287 490.503C261.287 490.503 267.713 494.576 270.293 495.242C280.287 497.82 275.084 462.583 279.002 454.517" fill="#2F2F2F"/>
<path d="M206.689 369.202C201.963 359.607 185.199 369.651 180.608 374.957C176.175 380.081 173.995 388.461 174.408 395.11C174.634 398.755 176.913 403.751 172.018 410.195C166.088 418.002 161.175 417.408 159.093 426.04C156.534 436.646 164.35 441.435 164.35 441.435C164.35 441.435 151.037 449.803 150.234 461.772C148.841 482.525 166.323 489.38 166.323 489.38C166.323 489.38 181.208 484.734 191.546 489.888C202.204 495.202 204.804 495.951 216.519 498.535C222.605 499.878 237.603 505.782 246.797 502.435C255.992 499.088 261.287 490.503 261.287 490.503C261.287 490.503 267.713 494.576 270.293 495.242C280.287 497.82 275.084 462.583 279.002 454.517" stroke="#2E4166" stroke-miterlimit="10" stroke-linecap="round"/>
<path d="M193.324 436.986C193.508 436.772 189.356 437.304 188.761 437.408C187.062 437.705 184.611 438.632 183.185 439.689C179.131 442.696 174.446 446.71 172.064 451.451C166.948 461.631 165.548 473.543 164.661 484.868C164.286 489.645 163.281 494.735 164.834 499.381C165.849 502.416 169.295 504.907 171.69 506.682" fill="#FFC6B2"/>
<path d="M193.324 436.986C193.508 436.772 189.356 437.304 188.761 437.408C187.062 437.705 184.611 438.632 183.185 439.689C179.131 442.696 174.446 446.71 172.064 451.451C166.948 461.631 165.548 473.543 164.661 484.868C164.286 489.645 163.281 494.735 164.834 499.381C165.849 502.416 169.295 504.907 171.69 506.682" stroke="#2E4166" stroke-miterlimit="10" stroke-linecap="round"/>
<path d="M194.676 436.481C194.676 436.481 187.497 436.401 179.714 441.346C172.375 446.008 166.27 456.017 163.89 463.871C161.046 473.256 158.826 477.593 159.035 487.535C159.217 496.223 161.585 504.073 164.046 512.399C165.949 518.837 167.983 525.008 170.876 531.109" fill="#B3A9EC" fill-opacity="0.558598"/>
<path d="M194.676 436.481C194.676 436.481 187.497 436.401 179.714 441.346C172.375 446.008 166.27 456.017 163.89 463.871C161.046 473.256 158.826 477.593 159.035 487.535C159.217 496.223 161.585 504.073 164.046 512.399C165.949 518.837 167.983 525.008 170.876 531.109" stroke="#2E4166" stroke-miterlimit="10" stroke-linecap="round"/>
<path d="M207.022 433.669C197.21 433.669 193.07 436.984 193.07 436.984C193.07 436.984 181.776 447.975 176.341 458.866C170.905 469.758 174.335 476.976 172.37 486.664C170.404 496.352 171.002 488.09 171.343 493.581C171.809 501.096 166.788 493.438 169.749 500.134C176.78 516.036 184.516 531.66 193.839 545.866C196.463 549.866 200.802 552.15 204.906 553.708C209.084 555.296 211.258 556.582 215.576 555.632C219.15 554.846 226.718 552.684 240.569 547.907C251.67 544.077 234.08 519.143 236.395 505.449C239.62 486.372 247.525 478.196 249.328 458.866C249.916 452.559 246.454 440.219 239.524 435.262C232.594 430.305 218.406 433.432 218.406 433.432C218.406 433.432 213.054 435.296 207.022 433.669Z" fill="#B3A9EC" stroke="#2E4166" stroke-miterlimit="10" stroke-linecap="round"/>
<path d="M179.412 535.642C179.412 535.642 119.182 522.621 98.0404 534.075C88.0284 539.5 83.3657 554.148 88.8698 562.571C114.483 601.76 111.594 599.873 111.594 599.873C111.594 599.873 120.968 622.492 121.94 625.074C127.934 640.998 126.631 635.738 127.108 646.127C127.586 656.516 118.578 667.523 123.849 666.63C136.348 664.512 137.232 646.619 145.998 638.784C154.469 631.213 138.056 625.307 138.056 625.307C138.056 625.307 140.067 599.171 137.904 590.995C130.67 563.649 119.265 558.482 119.265 558.482C119.265 558.482 167.838 576.681 195.691 580.658" fill="#FFC6B2"/>
<path d="M179.412 535.642C179.412 535.642 119.182 522.621 98.0404 534.075C88.0284 539.5 83.3657 554.148 88.8698 562.571C114.483 601.76 111.594 599.873 111.594 599.873C111.594 599.873 120.968 622.492 121.94 625.074C127.934 640.998 126.631 635.738 127.108 646.127C127.586 656.516 118.578 667.523 123.849 666.63C136.348 664.512 137.232 646.619 145.998 638.784C154.469 631.213 138.056 625.307 138.056 625.307C138.056 625.307 140.067 599.171 137.904 590.995C130.67 563.649 119.265 558.482 119.265 558.482C119.265 558.482 167.838 576.681 195.691 580.658" stroke="#2E4166" stroke-miterlimit="10" stroke-linecap="round"/>
<path d="M206.711 592.756C193.968 593.841 182.291 589.535 165.595 584.016C148.899 578.5 139.927 570.686 139.927 570.686C139.927 570.686 154.552 545.205 153.628 532.406C175.194 533.183 158.722 533.067 180.288 533.843" fill="#E3CBA0"/>
<path d="M206.711 592.756C193.968 593.841 182.291 589.535 165.595 584.016C148.899 578.5 139.927 570.686 139.927 570.686C139.927 570.686 154.552 545.205 153.628 532.406C175.194 533.183 158.722 533.067 180.288 533.843" stroke="#2E4166" stroke-miterlimit="10" stroke-linecap="round"/>
<path d="M222.435 579.132C230.835 565.717 219.072 542.672 219.072 542.672C219.072 542.672 171.736 462.944 132.222 473.904C116.483 478.269 113.114 507.331 111.935 530.324C110.819 552.079 111.92 553.063 107.292 574.145C102.664 595.224 93.8394 614.978 93.8394 614.978C99.6695 620.485 114.295 602.476 118.215 598.377C122.136 594.279 130.198 591.401 131.295 588.994C134.751 581.408 126.395 578.308 126.902 574.83C128.534 563.63 133.151 553.6 133.151 553.6C133.151 553.6 148.991 530.328 145.287 515.509L167.981 553.763C167.981 553.763 184.702 580.424 199.528 584.821C214.353 589.218 214.035 592.546 222.435 579.132Z" fill="#FFC6B2" stroke="#2E4166" stroke-miterlimit="10" stroke-linecap="round"/>
<path d="M241.679 547.587C241.679 547.587 230.144 547.416 223.312 545.956C218.07 544.834 211.051 533.747 206.086 535.559C201.209 537.34 199.094 548.011 194.944 550.819C186.668 556.422 183.334 546.731 175.204 552.483C172.927 554.094 174.817 558.902 174.45 561.395C174.105 563.732 176.169 566.879 177.439 568.976C179.495 572.367 176.151 568.425 179.602 570.872C182.759 573.109 181.416 583.72 182.443 587.562C184.37 594.764 196.109 594.58 201.419 594.153C207.612 593.654 215.864 592.448 220.934 589.393C228.184 585.021 233.193 579.792 236.722 572.869C240.621 565.221 241.679 547.587 241.679 547.587Z" fill="#F6E2BD" stroke="#2E4166" stroke-miterlimit="10" stroke-linecap="round"/>
<path d="M220.22 544.272C220.22 544.272 211.15 527.634 207.89 523.546C199.076 512.492 193.268 506.959 193.268 506.959C193.268 506.959 187.644 518.512 179.08 527.401C170.517 536.29 159.015 542.516 159.015 542.516L167.491 558.545C167.491 558.545 173.033 568.708 179.923 578.745C181.65 581.261 184.061 584.865 189.875 588.198C195.689 591.531 203.223 592.066 203.223 592.066" fill="#F6E2BD"/>
<path d="M220.22 544.272C220.22 544.272 211.15 527.634 207.89 523.546C199.076 512.492 193.268 506.959 193.268 506.959C193.268 506.959 187.644 518.512 179.08 527.401C170.517 536.29 159.015 542.516 159.015 542.516L167.491 558.545C167.491 558.545 173.033 568.708 179.923 578.745C181.65 581.261 184.061 584.865 189.875 588.198C195.689 591.531 203.223 592.066 203.223 592.066" stroke="#2E4166" stroke-miterlimit="10" stroke-linecap="round"/>
<path d="M232.646 448.437C226.852 448.965 223.197 447.904 208.393 460.813C195.241 472.28 197.556 478.322 173.902 488.491C148.467 499.427 136.281 509.214 121.932 517.934C118.286 520.149 116.375 519.922 114.486 523.45C113.295 525.677 114.62 528.369 114.686 530.828C118.586 530.961 122.429 530.44 126.092 529.246C144.358 523.294 164.533 515.982 181.568 507.659C198.918 499.182 213.163 491.197 229.253 480.969C233.041 478.561 236.59 475.574 238.85 471.973C240.939 468.645 243.733 463.956 242.857 460.237C242.178 457.352 240.973 447.678 232.646 448.437Z" fill="#FFC6B2" stroke="#2E4166" stroke-miterlimit="10" stroke-linecap="round"/>
<path d="M115.622 521.391C115.622 521.391 104.545 526.133 101.371 528.284C97.9423 530.609 93.1989 536.121 90.1435 541.39C87.3512 546.207 86.0061 551.397 86.9727 553.368C89.0292 557.564 91.777 547.294 93.0148 545.26C94.412 542.963 97.5519 539.639 99.037 537.938" fill="#FFC6B2"/>
<path d="M115.622 521.391C115.622 521.391 104.545 526.133 101.371 528.284C97.9423 530.609 93.1989 536.121 90.1435 541.39C87.3512 546.207 86.0061 551.397 86.9727 553.368C89.0292 557.564 91.777 547.294 93.0148 545.26C94.412 542.963 97.5519 539.639 99.037 537.938" stroke="#2E4166" stroke-miterlimit="10" stroke-linecap="round"/>
<path d="M99.1484 537.996C92.994 545.012 88.4232 557.82 91.3676 558.527C94.3922 559.252 97.3097 548.77 101.373 543.079" fill="#FFC6B2"/>
<path d="M99.1484 537.996C92.994 545.012 88.4232 557.82 91.3676 558.527C94.3922 559.252 97.3097 548.77 101.373 543.079" stroke="#2E4166" stroke-miterlimit="10" stroke-linecap="round"/>
<path d="M102.287 540.725C97.5539 546.432 93.2723 557.757 95.4693 559.098C98.7054 561.074 101.079 550.792 102.824 547.176" fill="#FFC6B2"/>
<path d="M102.287 540.725C97.5539 546.432 93.2723 557.757 95.4693 559.098C98.7054 561.074 101.079 550.792 102.824 547.176" stroke="#2E4166" stroke-miterlimit="10" stroke-linecap="round"/>
<path d="M105.804 542.375C102.763 546.441 97.712 555.381 101.136 557.401C102.977 558.486 103.722 555.503 103.722 555.503C103.722 555.503 107.336 547.691 110.19 544.029C113.382 539.933 114.202 540.085 118.658 537.855C121.101 536.632 126.395 530.893 126.395 530.893" fill="#FFC6B2"/>
<path d="M105.804 542.375C102.763 546.441 97.712 555.381 101.136 557.401C102.977 558.486 103.722 555.503 103.722 555.503C103.722 555.503 107.336 547.691 110.19 544.029C113.382 539.933 114.202 540.085 118.658 537.855C121.101 536.632 126.395 530.893 126.395 530.893" stroke="#2E4166" stroke-miterlimit="10" stroke-linecap="round"/>
<path d="M116.14 524.254C111.486 524.254 107.327 526.73 104.747 530.6C103.131 533.024 103.79 537.74 106.346 539.445C108.033 540.57 109.748 539.543 111.543 539.245C114.013 538.834 116.013 536.858 118.089 535.547C120.414 534.079 123.283 533.18 125.217 531.245C126.399 530.063 129.05 525.818 129.05 525.818" fill="#FFC6B2"/>
<path d="M116.14 524.254C111.486 524.254 107.327 526.73 104.747 530.6C103.131 533.024 103.79 537.74 106.346 539.445C108.033 540.57 109.748 539.543 111.543 539.245C114.013 538.834 116.013 536.858 118.089 535.547C120.414 534.079 123.283 533.18 125.217 531.245C126.399 530.063 129.05 525.818 129.05 525.818" stroke="#FFC6B2" stroke-miterlimit="10" stroke-linecap="round"/>
<path d="M150.085 578.183C149.287 575.787 147.974 573.532 146.987 571.211C144.107 564.435 140.465 556.423 134.423 551.849C123.602 543.661 116.093 555.473 116.093 565.361" stroke="#2E4166" stroke-miterlimit="10" stroke-linecap="round"/>
<path d="M170.574 569.191C171.177 565.504 165.739 559.101 163.43 556.122C158.583 549.864 148.268 542.449 141.024 539.549C138.33 538.472 135.494 537.564 132.686 536.874C131.849 536.669 130.409 536.494 129.705 535.984" stroke="#2E4166" stroke-miterlimit="10" stroke-linecap="round"/>
<path d="M202.423 488.427C202.778 487.483 201.571 490.259 201.224 491.206C200.443 493.337 199.661 495.47 198.965 497.632C197.063 503.544 195.07 509.487 193.853 515.589C190.157 534.109 188.552 553.188 190.52 571.988" stroke="#2E4166" stroke-miterlimit="10" stroke-linecap="round"/>
<path d="M185.445 524.764C186.85 525.397 191.526 531.048 191.204 533.076" stroke="#2E4166" stroke-miterlimit="10" stroke-linecap="round"/>
<path d="M190.208 543.512C191.568 540.022 194.866 537.545 197.831 535.467" stroke="#2E4166" stroke-miterlimit="10" stroke-linecap="round"/>
<path d="M192.563 524.03C193.764 520.948 198.045 519.233 200.72 517.756" stroke="#2E4166" stroke-miterlimit="10" stroke-linecap="round"/>
<path d="M193.908 514.787C193.718 512.115 191.821 508.902 190.206 506.816" stroke="#2E4166" stroke-miterlimit="10" stroke-linecap="round"/>
<path d="M196.959 504.604C196.575 504.54 197.241 503.863 198.258 502.996C199.239 502.159 200.936 500.886 202.16 500.512" stroke="#2E4166" stroke-miterlimit="10" stroke-linecap="round"/>
<path d="M198.413 498.682C198.716 496.884 198.943 493.498 197.415 492.061" stroke="#2E4166" stroke-miterlimit="10" stroke-linecap="round"/>
<path d="M215.421 517.994C215.999 517.126 217.141 516.659 218.089 516.343C221.458 515.219 221.768 519.856 221.265 522.123C220.012 527.76 217.666 533.043 216.501 538.702C214.701 547.445 214.468 556.416 214.468 565.319" stroke="#2E4166" stroke-miterlimit="10" stroke-linecap="round"/>
<path d="M226.897 517.818C226.673 517.146 225.112 517.287 224.615 517.418C222.658 517.933 222.152 519.327 221.59 521.013" stroke="#2E4166" stroke-miterlimit="10" stroke-linecap="round"/>
<path d="M226.213 526.036C226.213 525.246 226.567 524.709 226.213 523.867C224.536 519.885 219.657 521.8 218.109 524.894C215.898 529.317 216.081 534.489 215.713 539.274C215.577 541.042 215.938 543.165 215.37 544.868" stroke="#2E4166" stroke-miterlimit="10" stroke-linecap="round"/>
<path d="M249.053 547.727C249.458 546.101 247.301 549.877 246.669 550.582C244.988 552.457 242.596 554.088 240.393 555.226C231.708 559.718 222.902 564.703 216.469 572.228" stroke="#2E4166" stroke-miterlimit="10" stroke-linecap="round"/>
<path d="M232.837 572.417C232.803 572.419 232.756 572.333 232.79 572.329C233.774 572.144 234.759 571.96 235.751 571.836C238.345 571.51 238.106 571.638 240.497 571.689C244.503 571.773 248.22 571.692 252.238 572.419C266.438 574.992 277.959 580.849 288.558 590.576" stroke="#2E4166" stroke-miterlimit="10" stroke-linecap="round"/>
<path d="M211.939 561.394C210.994 560.92 208.673 562.182 207.728 562.655C202.397 565.322 199.864 569.401 198.042 574.869" stroke="#2E4166" stroke-miterlimit="10" stroke-linecap="round"/>
<path d="M238.797 573.049L142.353 573.063C142.224 573.063 142.104 573.091 141.978 573.105L139.225 573.109C136.941 573.109 135.094 575.29 135.096 577.973C135.097 580.231 136.415 582.118 138.191 582.661C136.055 588.43 135.825 598.082 136.234 611.599C137.406 650.335 167.123 683.018 181.496 696.622L181.513 723.213C181.516 727.383 184.899 730.758 189.07 730.756C192.728 730.754 195.777 728.153 196.469 724.698C196.568 724.213 196.618 723.714 196.619 723.199V723.18L196.615 696.596C210.975 682.983 240.675 650.277 241.818 611.536C242.217 598.012 241.981 588.357 239.838 582.591C241.615 582.048 242.932 580.168 242.932 577.908C242.931 575.225 241.081 573.046 238.797 573.049Z" fill="#FFAAC9" stroke="#294064" stroke-miterlimit="10" stroke-linecap="round"/>
<path d="M139.991 572.955H238.169C240.969 572.955 243.239 575.225 243.239 578.026C243.239 580.825 240.969 583.095 238.169 583.095H139.991C137.191 583.095 134.921 580.825 134.921 578.026C134.921 575.225 137.191 572.955 139.991 572.955Z" fill="#FFAAC9" stroke="#294064" stroke-miterlimit="10"/>
<path d="M214.345 663.615C217.85 667.924 229.859 638.326 229.859 638.326C229.859 638.326 235.528 620.422 234.023 611.626C232.518 602.832 220.696 600.947 215.946 605.048C211.196 609.151 217.874 615.708 217.474 630.349C217.074 644.99 210.841 659.307 214.345 663.615Z" fill="white" fill-opacity="0.500022" stroke="white" stroke-opacity="0.489288" stroke-miterlimit="10" stroke-linecap="round"/>
<path d="M125.61 514.312C125.61 514.312 120.321 517.778 117.711 519.563C114.045 522.071 121.015 527.938 122.933 529.527C122.935 529.529 125.3 531.356 126.061 531.382C127.347 531.425 128.327 530.156 129.49 529.605C130.711 529.025 134.998 527.714 134.998 527.714C134.998 527.714 131.252 524.869 128.904 521.519C126.557 518.169 125.61 514.312 125.61 514.312Z" fill="#B3A9EC" stroke="#2E4166" stroke-miterlimit="10" stroke-linecap="round"/>
<path d="M233.581 440.087C228.375 438.161 223.306 439.524 217.781 443C212.257 446.475 208.073 449.727 204.776 453.318C199.011 459.595 193.727 466.362 187.909 472.583C185.827 474.81 183.705 477.124 181.109 478.622C177.983 480.426 174.447 481.307 171.021 482.329C162.819 484.777 154.44 486.532 146.249 489.026C141.07 490.603 135.925 492.976 131.724 496.56C129.882 498.131 128.408 500.195 127.181 502.34C120.022 514.848 132.547 530.055 144.282 531.833C148.479 532.47 151.805 530.422 155.418 528.309C161.184 524.936 166.451 520.586 172.423 517.645C184.23 511.832 196.617 507.449 208.621 502.113C223.115 495.67 237.227 485.107 242.735 468.861C244.899 462.478 247.105 457.049 244.536 450.178C241.987 443.361 238.787 442.013 233.581 440.087Z" fill="#B3A9EC" fill-opacity="0.560811" stroke="#294064" stroke-miterlimit="10" stroke-linecap="round"/>
<path d="M201.023 415.145C202.192 421.112 205.263 434.87 205.263 434.87C205.263 434.87 198.297 440.153 195.018 444.033C192.795 446.665 191.516 450.156 199.557 447.411C207.598 444.667 227.871 432.367 227.871 432.367C227.871 432.367 222.546 429.056 221.167 426.416C218.54 421.39 218.119 414.772 215.939 409.537" fill="#FFC6B2"/>
<path d="M201.023 415.145C202.192 421.112 205.263 434.87 205.263 434.87C205.263 434.87 198.297 440.153 195.018 444.033C192.795 446.665 191.516 450.156 199.557 447.411C207.598 444.667 227.871 432.367 227.871 432.367C227.871 432.367 222.546 429.056 221.167 426.416C218.54 421.39 218.119 414.772 215.939 409.537" stroke="#2E4166" stroke-miterlimit="10" stroke-linecap="round"/>
<path d="M213.254 375.381C213.254 375.381 197.515 368.82 191.789 375.322C182.149 386.267 185.962 389.049 186.147 393.01C186.261 395.451 180.088 400.32 180.088 400.32C178.887 402.34 183.817 403.564 184.389 404.909C185.995 408.684 185.787 410.635 188.052 414.028C190.01 416.96 193.534 420.328 199.045 420.296C208.134 420.243 217.695 416.351 217.695 416.351C217.695 416.351 220.81 412.238 225.322 409.812C228.181 408.275 224.579 406.975 226.58 404.42C228.385 402.115 228.186 401.147 228.287 398.222C228.555 390.44 231.381 392.268 228.129 385.194C226.423 381.483 213.254 375.381 213.254 375.381Z" fill="#FFC6B2" stroke="#2E4166" stroke-miterlimit="10" stroke-linecap="round"/>
<path d="M189.686 387.542C189.923 386.763 190.817 386.242 191.679 385.949C194.787 384.893 199.048 386.803 199.048 386.803" stroke="#2E4166" stroke-miterlimit="10" stroke-linecap="round"/>
<path d="M190.264 392.072C190.264 392.072 190.972 393.078 192.585 392.87C194.199 392.663 195.522 392.119 196.718 391.242" stroke="#2E4166" stroke-miterlimit="10" stroke-linecap="round"/>
<path d="M187.466 407.396C187.466 407.396 187.913 407.828 190.225 407.544C192.537 407.259 193.304 405.984 193.304 405.984" stroke="#2E4166" stroke-miterlimit="10" stroke-linecap="round"/>
<path d="M196.584 399.586C196.388 398.772 197.943 397.7 200.057 397.191C202.171 396.681 204.043 396.928 204.239 397.742C204.435 398.556 202.88 399.629 200.767 400.138C198.653 400.647 196.78 400.4 196.584 399.586Z" fill="#FF7CAB" stroke="#FF7CAB" stroke-miterlimit="10"/>
<path d="M176.993 400.539C178.531 402.26 181.047 402.653 181.047 402.653C181.047 402.653 181.716 404.778 182.198 407.107C183.043 411.189 185.384 414.885 188.879 417.59C193.221 420.951 200.877 420.832 206.345 420.345C210.364 419.986 210.621 419.471 214.542 420.599C217.719 421.514 221.309 425.677 223.615 427.937C226.427 430.691 229.106 432.785 231.993 435.471C230.134 428.436 231.033 423.828 231.181 416.368C231.21 414.939 222.307 414.325 222.795 411.651C224.155 404.198 228.899 396.697 221.468 390.304C218.177 387.474 214.237 385.359 210.878 382.599C209.198 381.219 208.187 379.199 206.408 377.932C204.687 376.706 207.623 373.338 205.753 372.324C204.128 371.443 190.006 371.772 188.19 373.03C179.384 381.307 184.743 387.055 181.686 393.225C178.629 399.396 175.251 398.591 176.993 400.539Z" fill="#FFC6B2" stroke="#2E4166" stroke-miterlimit="10" stroke-linecap="round"/>
<path d="M189.503 392.188C189.047 392.125 188.784 391.332 188.917 390.419C189.049 389.505 189.526 388.816 189.982 388.879C190.438 388.943 190.701 389.735 190.568 390.649C190.436 391.563 189.959 392.252 189.503 392.188Z" fill="#294064" stroke="#2E4166" stroke-miterlimit="10" stroke-linecap="round"/>
<path d="M186.929 385.379C189.112 383.876 192.85 385.997 194.214 387.721" stroke="#2E4166" stroke-miterlimit="10" stroke-linecap="round"/>
<path d="M213.229 400.679C209.177 400.86 205.692 397.928 205.445 394.129C205.198 390.331 208.283 387.105 212.335 386.924C216.387 386.743 219.872 389.675 220.119 393.474C220.239 395.325 219.568 397.04 218.38 398.333C217.13 399.693 215.306 400.586 213.229 400.679Z" fill="#FFC6B2" stroke="#2E4166" stroke-miterlimit="10" stroke-linecap="round"/>
<path d="M212.581 396.598C210.828 396.677 209.313 395.305 209.198 393.535C209.083 391.766 210.411 390.267 212.164 390.189C213.917 390.11 215.431 391.482 215.546 393.252C215.661 395.022 214.333 396.52 212.581 396.598Z" fill="#E4AC98" stroke="#E4AC98" stroke-miterlimit="10"/>
<path d="M196.951 397.737C194.433 397.887 192.305 397.224 192.199 396.256C192.093 395.287 194.049 394.38 196.567 394.23C199.085 394.08 201.213 394.743 201.319 395.712C201.425 396.68 199.47 397.587 196.951 397.737Z" fill="#FF92B9"/>
<path d="M213.972 389.241C213.545 388.85 212.301 389.386 211.86 389.584C209.795 390.51 209.182 392.056 208.248 393.878" stroke="#294064" stroke-miterlimit="10" stroke-linecap="round"/>
<path d="M211.828 389.969C213.896 390.235 215.495 391.776 216.161 393.547" stroke="#294064" stroke-miterlimit="10" stroke-linecap="round"/>
<path d="M213.917 415.258C212.103 415.258 209.914 416.488 208.486 417.462C207.044 418.445 204.815 420.289 204.236 422.027C203.819 423.279 205.206 424.795 205.889 425.648C208.229 428.573 211.675 431.804 215.413 432.654C219.611 433.608 226.212 431.156 225.803 426.042C225.479 421.993 220.336 418.498 216.908 417.462C213.57 416.452 210.208 418.324 207.227 419.666C206.403 420.036 205.072 421.771 204.157 421.161" fill="#FFC6B2"/>
<path d="M213.917 415.258C212.103 415.258 209.914 416.488 208.486 417.462C207.044 418.445 204.815 420.289 204.236 422.027C203.819 423.279 205.206 424.795 205.889 425.648C208.229 428.573 211.675 431.804 215.413 432.654C219.611 433.608 226.212 431.156 225.803 426.042C225.479 421.993 220.336 418.498 216.908 417.462C213.57 416.452 210.208 418.324 207.227 419.666C206.403 420.036 205.072 421.771 204.157 421.161" stroke="#FFC6B2" stroke-miterlimit="10" stroke-linecap="round"/>
<path d="M204.34 393.738C198.236 386.874 183.852 374.907 185.406 367.858C186.959 360.808 193.385 362.908 201.858 361.031C209.33 359.375 218.109 359.366 225.937 362.89C233.766 366.413 238.671 372.695 241.99 381.055C242.795 383.083 242.666 384.857 248.412 384.519C256.552 384.04 272.66 390.18 272.407 406.233C271.731 410.457 270.277 413.533 271.9 415.02C273.522 416.507 286.685 415.949 294.627 428.369C300.981 438.305 297.951 449.717 295.303 452.956C294.768 453.885 294.205 455.879 296.233 456.42C298.767 457.096 302.316 462.996 301.049 470.107C299.781 477.218 293.952 483.71 285.841 484.048C277.729 484.386 285.841 494.53 272.998 497.452C271.265 497.85 269.32 498.214 267.136 498.544C252.803 500.712 257.644 506.76 236.666 508.148C236.666 508.148 236.264 504.782 237.98 497.707C240.63 486.78 245.196 471.059 239.749 466.245C238.36 465.017 221.377 458.223 218.076 444.771C214.776 431.32 220.541 424.28 220.541 424.28C220.541 424.28 217.059 421.249 215.57 415.653C214.081 410.058 214.136 398.418 214.136 398.418C214.136 398.418 210.444 400.601 204.34 393.738Z" fill="#2F2F2F"/>
<path d="M201.858 361.031C209.33 359.375 218.109 359.366 225.937 362.89C233.766 366.413 238.671 372.695 241.99 381.055C242.795 383.083 242.666 384.857 248.412 384.519C256.552 384.04 272.66 390.18 272.407 406.233C271.731 410.457 270.277 413.533 271.9 415.02C273.522 416.507 286.685 415.949 294.627 428.369C300.981 438.305 297.951 449.717 295.303 452.956C294.768 453.885 294.205 455.879 296.233 456.42C298.767 457.096 302.316 462.996 301.049 470.107C299.781 477.218 293.952 483.71 285.841 484.048C277.729 484.386 285.841 494.53 272.998 497.452C271.265 497.85 269.32 498.214 267.136 498.544C252.803 500.712 257.644 506.76 236.666 508.148C236.666 508.148 236.264 504.782 237.98 497.707C240.63 486.78 245.196 471.059 239.749 466.245C238.36 465.017 221.377 458.223 218.076 444.771C214.776 431.32 220.541 424.28 220.541 424.28C220.541 424.28 217.059 421.249 215.57 415.653C214.081 410.058 214.136 398.418 214.136 398.418C214.136 398.418 210.444 400.601 204.34 393.738C198.236 386.874 183.852 374.907 185.406 367.858C186.959 360.808 193.385 362.908 201.858 361.031ZM201.858 361.031C206.336 357.989 217.961 353.731 228.641 361.031C239.32 368.331 242.328 377.253 242.497 380.801" stroke="#2E4166" stroke-miterlimit="10" stroke-linecap="round"/>
<path d="M148.777 543.558C148.364 542.494 147.127 541.979 146.278 541.214C144.47 539.59 143.021 538.254 140.882 537.062C138.805 535.907 136.747 535.498 134.479 535.032C132.859 534.7 122.776 532.668 127.93 537.363C128.203 537.612 128.52 537.808 128.819 538.027C129.144 538.263 129.894 538.669 130.06 538.76C134.405 541.134 138.863 542.156 143.686 542.921C144.138 542.993 148.793 543.6 148.777 543.558Z" fill="#5D569A" stroke="#2E4166" stroke-miterlimit="10" stroke-linecap="round"/>
<path d="M152.792 546.162C152.072 546.013 152.883 544.173 152.511 543.375C152.044 542.367 151.187 541.451 150.636 540.492C148.856 537.394 148.465 533.387 148.621 529.902C148.712 527.851 149.098 525.772 149.497 523.76C149.552 523.482 149.564 522.829 149.808 522.971C150.844 523.572 151.487 525.798 151.953 526.866C153.714 530.901 154.587 535.919 154.162 540.317C154.074 541.222 153.801 546.37 152.792 546.162Z" fill="#5D569A" stroke="#2E4166" stroke-miterlimit="10" stroke-linecap="round"/>
<path d="M157.574 550.215C157.639 550.089 157.569 550.227 157.276 550.143C156.88 550.031 156.494 549.889 156.099 549.774C155.785 549.683 155.466 549.606 155.149 549.525C153.782 549.18 152.353 548.797 150.953 548.673C146.752 548.298 143.224 549.117 139.227 550.444C138.678 550.626 136.736 550.994 136.405 551.442C136.058 551.913 137.549 551.699 138.111 551.862C138.834 552.074 139.547 552.319 140.271 552.527C141.44 552.863 142.272 553.012 143.47 553.166C147.988 553.744 151.716 554.001 155.631 551.512C156.074 551.232 157.303 550.735 157.574 550.215Z" fill="#5D569A" stroke="#2E4166" stroke-miterlimit="10" stroke-linecap="round"/>
<path d="M162.339 553.946C159.582 551.39 161.419 546.345 161.612 543.394C161.617 543.319 161.786 539.762 162.036 539.667C163.64 539.06 164.579 542.878 164.811 543.695C165.476 546.039 165.736 548.95 164.921 551.301C164.728 551.859 163.15 554.7 162.339 553.946Z" fill="#5D569A" stroke="#2E4166" stroke-miterlimit="10" stroke-linecap="round"/>
<path d="M166.317 560.193C166.027 559.384 163.421 559.375 162.425 558.882C156.97 556.198 152.877 555.838 147.213 558.19C146.624 558.435 144.63 558.808 144.29 559.445C144.092 559.818 145.054 559.815 145.462 559.925C146.772 560.275 148.032 560.664 149.381 560.835C152.134 561.18 154.74 561.525 157.534 561.425C159.174 561.367 160.803 560.909 162.436 560.781C162.812 560.753 166.471 560.62 166.317 560.193Z" fill="#5D569A" stroke="#2E4166" stroke-miterlimit="10" stroke-linecap="round"/>
<path d="M167.162 565.561C164.743 563.023 158.277 565.05 155.322 565.673C155.234 565.692 150.239 567.46 151.07 567.656C155.218 568.635 159.95 570.637 164.038 568.446C164.79 568.043 167.856 566.291 167.162 565.561Z" fill="#5D569A" stroke="#2E4166" stroke-miterlimit="10" stroke-linecap="round"/>
<path d="M156.517 530.862C154.361 530.16 154.612 524.66 154.635 522.843C154.639 522.555 154.512 519.794 154.822 519.877C156.139 520.226 157.347 522.697 158.054 523.75C160.052 526.726 161.551 529.98 162.017 533.548C162.095 534.148 162.605 536.429 162.11 537.131C161.61 537.842 160.022 536.511 159.725 536.217C157.806 534.324 156.25 532.207 155.784 529.522" fill="#5D569A"/>
<path d="M156.517 530.862C154.361 530.16 154.612 524.66 154.635 522.843C154.639 522.555 154.512 519.794 154.822 519.877C156.139 520.226 157.347 522.697 158.054 523.75C160.052 526.726 161.551 529.98 162.017 533.548C162.095 534.148 162.605 536.429 162.11 537.131C161.61 537.842 160.022 536.511 159.725 536.217C157.806 534.324 156.25 532.207 155.784 529.522" stroke="#2E4166" stroke-miterlimit="10" stroke-linecap="round"/>
<path d="M206.609 559.301C205.155 558.65 203.814 558.65 202.427 557.691C196.272 553.437 200.12 545.002 200.142 538.921C200.15 536.638 199.82 534.923 199.172 532.781C199.057 532.4 198.665 531.136 199.277 531.048C200.89 530.815 202.825 532.325 204.208 533.038C212.007 537.062 213.741 542.278 214.238 550.843C214.383 553.339 213.877 558.668 211.219 559.923" fill="#5D569A"/>
<path d="M206.609 559.301C205.155 558.65 203.814 558.65 202.427 557.691C196.272 553.437 200.12 545.002 200.142 538.921C200.15 536.638 199.82 534.923 199.172 532.781C199.057 532.4 198.665 531.136 199.277 531.048C200.89 530.815 202.825 532.325 204.208 533.038C212.007 537.062 213.741 542.278 214.238 550.843C214.383 553.339 213.877 558.668 211.219 559.923" stroke="#2E4166" stroke-miterlimit="10" stroke-linecap="round"/>
<path d="M219.013 571.538C219.767 571.916 217.177 571.24 217.043 571.221C215.378 570.988 213.564 571.48 212.065 572.133C207.679 574.041 206.77 578.993 204.531 582.618C204.022 583.441 203.55 584.243 202.937 584.988C202.713 585.26 202.062 585.517 202.266 585.804C202.981 586.809 205.319 585.428 206.102 585.13C209.587 583.807 212.854 582.478 215.427 579.653C216.881 578.058 217.775 575.364 218.417 573.362C218.612 572.753 218.442 571.251 219.013 571.538Z" fill="#5D569A" stroke="#2E4166" stroke-miterlimit="10" stroke-linecap="round"/>
<path d="M224.31 580.314C223.184 579.6 220.772 580.146 219.583 580.484C217.96 580.944 215.561 581.664 214.137 582.525C212.094 583.757 210.811 586.516 209.037 588.132C207.918 589.154 206.798 590.05 205.375 590.589C205.276 590.628 205.095 590.575 205.071 590.677C204.905 591.405 206.885 591.692 208.177 591.99C210.225 592.466 212.313 592.301 214.361 591.967C222.188 590.691 224.966 586.791 226.281 579.453" fill="#5D569A"/>
<path d="M224.31 580.314C223.184 579.6 220.772 580.146 219.583 580.484C217.96 580.944 215.561 581.664 214.137 582.525C212.094 583.757 210.811 586.516 209.037 588.132C207.918 589.154 206.798 590.05 205.375 590.589C205.276 590.628 205.095 590.575 205.071 590.677C204.905 591.405 206.885 591.692 208.177 591.99C210.225 592.466 212.313 592.301 214.361 591.967C222.188 590.691 224.966 586.791 226.281 579.453" stroke="#2E4166" stroke-miterlimit="10" stroke-linecap="round"/>
<path d="M227.706 581.077C227.358 580.664 227.4 582.115 227.272 582.64C227.013 583.71 226.758 584.783 226.513 585.859C225.336 591.02 225.055 596.152 227.433 601.083C228.14 602.548 229.111 603.912 230.047 605.24C230.312 605.615 230.587 605.986 230.843 606.369C230.873 606.413 231.251 606.844 231.256 606.819C231.522 605.65 231.503 604.463 231.938 603.276C232.456 601.857 234.092 601.039 234.666 599.625C235.969 596.416 235.488 593.008 234.107 589.885C233.51 588.534 232.85 586.864 231.903 585.707C230.835 584.403 228.826 582.406 227.706 581.077Z" fill="#5D569A" stroke="#2E4166" stroke-miterlimit="10" stroke-linecap="round"/>
<path d="M231.234 584.847C232.722 584.556 235.542 587.038 236.433 587.819C239.523 590.529 240.189 594.779 243.611 597.324C245.568 598.777 247.209 599.673 249.469 600.562C250.036 600.785 250.638 600.907 251.227 601.061C251.343 601.089 251.632 601.238 251.579 601.131C251.037 600.039 249.355 599.57 248.858 597.914C248.405 596.405 248.567 594.996 248.476 593.466C248.237 589.403 245.99 584.826 242.244 583.107C240.999 582.536 239.431 581.649 237.983 581.955C235.879 582.398 233.985 582.587 231.914 583.245" fill="#5D569A"/>
<path d="M231.234 584.847C232.722 584.556 235.542 587.038 236.433 587.819C239.523 590.529 240.189 594.779 243.611 597.324C245.568 598.777 247.209 599.673 249.469 600.562C250.036 600.785 250.638 600.907 251.227 601.061C251.343 601.089 251.632 601.238 251.579 601.131C251.037 600.039 249.355 599.57 248.858 597.914C248.405 596.405 248.567 594.996 248.476 593.466C248.237 589.403 245.99 584.826 242.244 583.107C240.999 582.536 239.431 581.649 237.983 581.955C235.879 582.398 233.985 582.587 231.914 583.245" stroke="#2E4166" stroke-miterlimit="10" stroke-linecap="round"/>
<path d="M257.05 573.616C257.271 569.165 267.574 564.318 271.822 564.614C271.866 564.619 270.912 565.937 270.747 566.093C269.862 566.935 268.936 567.691 267.959 568.417C265.314 570.383 262.622 571.78 259.529 572.925C258.727 573.224 257.006 574.497 257.05 573.616Z" fill="#5D569A" stroke="#2E4166" stroke-miterlimit="10" stroke-linecap="round"/>
<path d="M269.58 577.977C268.794 578.122 270.728 576.986 271.379 576.61C272.874 575.749 274.35 574.851 275.89 574.072C277.821 573.093 280.261 572.554 282.4 572.283C285.05 571.95 286.487 571.653 289.15 572.162C289.507 572.23 290.312 572.363 290.116 572.67C289.391 573.802 286.652 574.203 285.358 574.618C283.205 575.306 281.017 576.062 278.799 576.526C275.762 577.161 272.608 577.417 269.58 577.977Z" fill="#5D569A" stroke="#2E4166" stroke-miterlimit="10" stroke-linecap="round"/>
<path d="M279.825 583.519C278.948 582.878 282.013 583.643 283.063 583.927C284.558 584.331 285.955 584.97 287.308 585.709C290.574 587.498 293.002 589.691 295.477 592.478C295.847 592.893 297.177 595.466 295.323 594.946C288.978 593.166 284.877 587.221 279.825 583.519Z" fill="#5D569A" stroke="#2E4166" stroke-miterlimit="10" stroke-linecap="round"/>
<path d="M271.271 579.043C271.869 584.774 274.25 590.001 277.166 594.962C277.497 595.525 280.749 599.861 280.723 597.05C280.665 590.437 272.75 586.113 271.703 580.032" fill="#5D569A"/>
<path d="M271.271 579.043C271.869 584.774 274.25 590.001 277.166 594.962C277.497 595.525 280.749 599.861 280.723 597.05C280.665 590.437 272.75 586.113 271.703 580.032" stroke="#2E4166" stroke-miterlimit="10" stroke-linecap="round"/>
<path d="M261.72 574.839C260.278 575.779 261.325 579.095 261.615 580.656C262.2 583.802 263.317 587.451 265.531 589.855C267.14 591.605 269.263 592.482 270.222 590.119C270.357 589.785 270.453 589.396 270.364 589.048C269.916 587.292 268.484 585.288 267.567 583.76C266.76 582.419 265.673 581.323 264.67 580.14C263.686 578.981 262.597 577.768 262.102 576.294C261.848 575.538 262.3 574.458 261.72 574.839Z" fill="#5D569A" stroke="#2E4166" stroke-miterlimit="10" stroke-linecap="round"/>
<path d="M252.839 574.797C251.848 578.317 254.086 581.405 256.113 584.029C257.269 585.524 257.453 585.692 257.995 587.68C258.017 587.764 258.01 587.91 257.926 587.927C256.312 588.204 255.022 586.928 254.084 585.786C250.857 581.853 251.131 576.976 253.096 572.383" fill="#5D569A"/>
<path d="M252.839 574.797C251.848 578.317 254.086 581.405 256.113 584.029C257.269 585.524 257.453 585.692 257.995 587.68C258.017 587.764 258.01 587.91 257.926 587.927C256.312 588.204 255.022 586.928 254.084 585.786C250.857 581.853 251.131 576.976 253.096 572.383" stroke="#2E4166" stroke-miterlimit="10" stroke-linecap="round"/>
<path d="M243.182 563.138C243.443 561.839 245.584 558.893 246.371 557.92C251.293 551.825 260.987 555.238 267.444 556.059C270.238 556.413 273.133 556.441 275.939 556.129C276.188 556.103 278.204 555.536 278.078 556.432C277.62 559.705 272.274 561.216 269.638 562.31C267.889 563.038 266.217 563.691 264.402 564.293C260.856 565.468 257.301 565.953 253.605 566.294C248.499 566.765 243.923 565.263 239.768 562.441" fill="#5D569A"/>
<path d="M243.182 563.138C243.443 561.839 245.584 558.893 246.371 557.92C251.293 551.825 260.987 555.238 267.444 556.059C270.238 556.413 273.133 556.441 275.939 556.129C276.188 556.103 278.204 555.536 278.078 556.432C277.62 559.705 272.274 561.216 269.638 562.31C267.889 563.038 266.217 563.691 264.402 564.293C260.856 565.468 257.301 565.953 253.605 566.294C248.499 566.765 243.923 565.263 239.768 562.441" stroke="#2E4166" stroke-miterlimit="10" stroke-linecap="round"/>
<path d="M227.501 561.038C226.157 558.213 227.867 555.225 229.183 552.755C231.435 548.526 234.639 544.871 236.972 540.668C237.313 540.054 240.661 534.332 241.953 535.25C242.611 535.716 241.662 536.835 241.483 537.621C241.081 539.385 240.716 541.386 240.599 543.198C240.349 547.084 241.337 550.728 241.731 554.546C242.286 559.92 240.995 564.485 237.505 568.518" fill="#5D569A"/>
<path d="M227.501 561.038C226.157 558.213 227.867 555.225 229.183 552.755C231.435 548.526 234.639 544.871 236.972 540.668C237.313 540.054 240.661 534.332 241.953 535.25C242.611 535.716 241.662 536.835 241.483 537.621C241.081 539.385 240.716 541.386 240.599 543.198C240.349 547.084 241.337 550.728 241.731 554.546C242.286 559.92 240.995 564.485 237.505 568.518" stroke="#2E4166" stroke-miterlimit="10" stroke-linecap="round"/>
<path d="M200.269 561.795C198.096 555.252 194.588 553.433 188.218 553.332C186.625 553.307 185.355 553.258 183.906 552.49C183.557 552.306 182.736 551.662 182.806 552.049C183.785 557.463 195.574 565.776 200.051 560.034" fill="#5D569A"/>
<path d="M200.269 561.795C198.096 555.252 194.588 553.433 188.218 553.332C186.625 553.307 185.355 553.258 183.906 552.49C183.557 552.306 182.736 551.662 182.806 552.049C183.785 557.463 195.574 565.776 200.051 560.034" stroke="#2E4166" stroke-miterlimit="10" stroke-linecap="round"/>
<path d="M175.789 593.06C173.301 593.44 169.063 599.294 169.171 602.142C169.26 604.473 169.815 606.607 170.278 608.879C170.592 610.425 170.882 611.638 170.578 613.178C170.552 613.311 170.033 614.414 170.367 614.444C171.839 614.58 173.545 612.1 174.484 611.256C178.788 607.386 181.252 601.993 178.839 596.327C178.262 594.972 177.271 592.833 175.789 593.06Z" fill="#5D569A" stroke="#2E4166" stroke-miterlimit="10" stroke-linecap="round"/>
<path d="M166.898 586.087C166.404 584.151 163.095 585.053 161.709 585.307C158.51 585.895 156.237 588.886 153.533 590.502C152.743 590.973 151.865 591.281 151.028 591.666C150.845 591.75 148.164 591.855 148.801 592.716C149.495 593.653 151.362 594.418 152.402 594.992C156.969 597.514 163.797 598.365 167.79 594.22C169.868 592.065 169.865 588.993 169.913 586.238" fill="#5D569A"/>
<path d="M166.898 586.087C166.404 584.151 163.095 585.053 161.709 585.307C158.51 585.895 156.237 588.886 153.533 590.502C152.743 590.973 151.865 591.281 151.028 591.666C150.845 591.75 148.164 591.855 148.801 592.716C149.495 593.653 151.362 594.418 152.402 594.992C156.969 597.514 163.797 598.365 167.79 594.22C169.868 592.065 169.865 588.993 169.913 586.238" stroke="#2E4166" stroke-miterlimit="10" stroke-linecap="round"/>
<path d="M145.428 567.581C143.864 565.879 143.036 563.059 141.214 561.207C137.448 557.381 131.697 556.588 126.937 554.68C125.073 553.932 123.152 553.239 121.305 552.537C121.213 552.502 120.865 552.509 120.804 552.67C120.31 553.969 123.027 556.801 124.152 557.423C126.259 558.59 128.772 558.746 130.647 560.346C132.501 561.927 133.787 564.118 135.43 565.904C137.252 567.885 139.499 569.464 141.802 570.842C143.684 571.969 145.62 572.627 147.779 572.923" fill="#5D569A"/>
<path d="M145.428 567.581C143.864 565.879 143.036 563.059 141.214 561.207C137.448 557.381 131.697 556.588 126.937 554.68C125.073 553.932 123.152 553.239 121.305 552.537C121.213 552.502 120.865 552.509 120.804 552.67C120.31 553.969 123.027 556.801 124.152 557.423C126.259 558.59 128.772 558.746 130.647 560.346C132.501 561.927 133.787 564.118 135.43 565.904C137.252 567.885 139.499 569.464 141.802 570.842C143.684 571.969 145.62 572.627 147.779 572.923" stroke="#2E4166" stroke-miterlimit="10" stroke-linecap="round"/>
<path d="M211.437 558.205C212.82 557.053 212.452 550.424 210.984 548.905C209.825 547.704 209.271 549.82 208.586 549.892C207.98 549.955 207.381 549.36 206.768 549.342C206.356 549.33 205.763 549.325 205.498 549.701C205.408 549.827 205.233 550.694 204.972 550.664C204.095 550.562 203.693 550.494 202.933 551.273C201.949 552.283 203.818 555.196 204.407 556.178C205.242 557.571 207.692 561.375 209.899 559.815C210.499 559.39 210.871 558.676 211.437 558.205Z" fill="#FAE9D5" stroke="#2E4166" stroke-miterlimit="10" stroke-linecap="round"/>
<path d="M150.284 565.87C151.759 564.839 151.954 558.201 150.621 556.564C149.567 555.269 148.836 557.331 148.147 557.343C147.538 557.354 146.991 556.71 146.382 556.641C145.973 556.594 145.383 556.54 145.086 556.892C144.986 557.009 144.739 557.86 144.481 557.807C143.615 557.632 143.221 557.529 142.397 558.241C141.332 559.164 142.948 562.225 143.451 563.253C144.165 564.711 146.284 568.711 148.615 567.342C149.249 566.969 149.681 566.29 150.284 565.87Z" fill="#F27E0F" stroke="#2E4166" stroke-miterlimit="10" stroke-linecap="round"/>
<path d="M207.792 560.316C207.822 559.117 202.504 558.219 201.996 558.133C201.075 557.977 197.141 557.018 197.207 559.085C197.219 559.453 198.632 560.291 198.534 560.368C197.073 561.525 196.933 561.742 198.368 562.6C198.376 562.607 196.916 563.626 197.406 564.291C199.824 567.573 207.679 564.725 207.792 560.316Z" fill="#FAE9D5" stroke="#2E4166" stroke-miterlimit="10" stroke-linecap="round"/>
<path d="M146.473 567.662C146.605 566.47 141.382 565.124 140.883 564.996C139.978 564.762 136.14 563.475 136.031 565.537C136.011 565.908 137.348 566.859 137.244 566.929C135.69 567.958 135.532 568.161 136.889 569.141C136.897 569.145 135.356 570.039 135.788 570.743C137.92 574.219 145.987 572.045 146.473 567.662Z" fill="#F27E0F" stroke="#2E4166" stroke-miterlimit="10" stroke-linecap="round"/>
<path d="M210.294 564.176C210.267 564.127 208.195 563.539 207.679 563.623C206.56 563.81 205.124 564.881 204.306 565.622C203.754 566.122 200.355 570.229 201.188 571.174C201.943 572.028 202.624 571.491 203.398 571.116C203.406 571.111 203.781 570.948 203.848 571.069C204.172 571.65 203.935 572.935 205.052 572.818C205.25 572.797 205.682 572.391 205.748 572.405C205.961 572.452 205.683 574.276 206.832 573.544C209.35 571.941 211.848 567.02 210.294 564.176Z" fill="#FAE9D5" stroke="#2E4166" stroke-miterlimit="10" stroke-linecap="round"/>
<path d="M148.639 571.721C148.616 571.67 146.602 570.907 146.08 570.949C144.95 571.038 143.428 571.985 142.55 572.654C141.957 573.107 138.223 576.911 138.973 577.921C139.653 578.838 140.377 578.359 141.181 578.049C141.189 578.047 141.576 577.916 141.633 578.042C141.906 578.649 141.561 579.908 142.685 579.887C142.883 579.885 143.348 579.514 143.413 579.535C143.621 579.6 143.189 581.392 144.397 580.76C147.041 579.376 149.947 574.683 148.639 571.721Z" fill="#F27E0F" stroke="#2E4166" stroke-miterlimit="10" stroke-linecap="round"/>
<path d="M211.115 562.827C210.911 562.568 210.721 563.028 210.658 563.228C210.538 563.609 210.619 564.029 210.656 564.425C210.73 565.234 210.867 565.612 211.225 566.3C211.795 567.397 215.597 572.545 217.134 571.185C217.476 570.882 217.548 570.009 217.421 569.596C217.347 569.358 216.881 568.836 217.119 568.911C217.642 569.076 218.441 569.309 218.675 568.509C218.805 568.064 217.776 567.264 218.233 567.191C218.99 567.07 218.607 567.866 219.604 567.32C220.888 566.615 218.142 564.257 217.619 563.816C216.39 562.785 215.016 562.202 213.433 562.246C212.768 562.265 211.441 563.245 211.115 562.827Z" fill="#FAE9D5" stroke="#2E4166" stroke-miterlimit="10" stroke-linecap="round"/>
<path d="M149.571 570.449C149.39 570.171 149.162 570.614 149.082 570.808C148.93 571.176 148.976 571.601 148.978 572C148.984 572.814 149.088 573.203 149.386 573.919C149.861 575.058 153.215 580.511 154.861 579.284C155.228 579.011 155.373 578.148 155.281 577.726C155.228 577.481 154.808 576.924 155.038 577.017C155.545 577.227 156.322 577.525 156.623 576.749C156.79 576.317 155.833 575.431 156.295 575.398C157.058 575.342 156.61 576.103 157.65 575.641C158.988 575.051 156.452 572.466 155.968 571.983C154.831 570.852 153.511 570.155 151.93 570.064C151.266 570.026 149.861 570.889 149.571 570.449Z" fill="#F27E0F" stroke="#2E4166" stroke-miterlimit="10" stroke-linecap="round"/>
<path d="M212.195 561.812C213.061 562.621 214.808 561.982 215.59 561.816C217.356 561.445 220.147 560.867 221.206 559.218C222.045 557.912 219.756 558.005 219.215 557.893C219.045 557.858 219.418 557.611 219.519 557.468C219.794 557.086 219.935 557.039 219.76 556.463C219.56 555.805 218.868 556.237 218.548 556.288C218.276 556.332 218.883 555.845 218.995 555.593C219.213 555.103 218.994 554.947 218.619 554.627C215.953 552.351 208.86 558.693 212.195 561.812Z" fill="#FAE9D5" stroke="#2E4166" stroke-miterlimit="10" stroke-linecap="round"/>
<path d="M150.733 569.524C151.527 570.404 153.322 569.914 154.116 569.818C155.906 569.597 158.736 569.256 159.931 567.703C160.878 566.471 158.589 566.373 158.059 566.215C157.893 566.163 158.285 565.951 158.398 565.818C158.705 565.461 158.848 565.426 158.723 564.838C158.58 564.164 157.854 564.535 157.53 564.561C157.256 564.582 157.902 564.146 158.034 563.905C158.293 563.434 158.088 563.259 157.742 562.909C155.278 560.418 147.674 566.135 150.733 569.524Z" fill="#F27E0F" stroke="#2E4166" stroke-miterlimit="10" stroke-linecap="round"/>
<path d="M171.191 532.165C170.66 531.324 172.047 529.826 172.041 529.195C172.022 527.095 171.149 525.586 170.053 523.865C168.415 521.292 163.303 521.42 161.526 523.826C158.746 527.589 161.726 535.886 166.363 537.037C168.437 537.552 172.198 533.762 171.191 532.165Z" fill="#FAE9D5" stroke="#2E4166" stroke-miterlimit="10" stroke-linecap="round"/>
<path d="M217.54 377.682C217.604 376.689 219.606 376.29 219.971 375.776C221.188 374.063 221.366 372.33 221.489 370.293C221.672 367.248 217.457 364.353 214.606 365.258C210.147 366.674 207.692 375.141 210.771 378.794C212.149 380.428 217.419 379.566 217.54 377.682Z" fill="#FAE9D5" stroke="#2E4166" stroke-miterlimit="10" stroke-linecap="round"/>
<path d="M177.391 536.155C176.864 536.033 176.184 536.785 175.577 536.923C173.445 537.399 171.411 536.638 170.667 534.34C169.298 530.111 171.272 525.163 175.63 523.627C176.07 523.472 178.095 522.553 178.877 522.972C182.693 525.017 182.816 529.716 180.491 533.078C179.98 533.818 178.57 536.429 177.391 536.155Z" fill="#FAE9D5" stroke="#2E4166" stroke-miterlimit="10" stroke-linecap="round"/>
<path d="M220.925 383.936C220.571 383.528 219.577 383.739 219.006 383.493C216.999 382.629 215.8 380.818 216.545 378.521C217.918 374.293 222.42 371.445 226.851 372.758C227.298 372.891 229.477 373.335 229.864 374.133C231.754 378.028 229.096 381.905 225.241 383.264C224.393 383.562 221.719 384.85 220.925 383.936Z" fill="#FAE9D5" stroke="#2E4166" stroke-miterlimit="10" stroke-linecap="round"/>
<path d="M166.6 535.684C166.577 535.16 164.883 533.84 164.537 533.403C163.559 532.168 162.264 531.417 160.842 530.765C156.802 528.915 153.225 531.26 153.324 535.554C153.505 543.448 167.031 545.226 166.6 535.684Z" fill="#FAE9D5" stroke="#2E4166" stroke-miterlimit="10" stroke-linecap="round"/>
<path d="M212.463 377.222C212.751 376.784 212.155 374.721 212.131 374.164C212.063 372.591 211.456 371.223 210.686 369.86C208.5 365.992 204.228 365.792 201.788 369.327C197.304 375.825 207.213 385.201 212.463 377.222Z" fill="#FAE9D5" stroke="#2E4166" stroke-miterlimit="10" stroke-linecap="round"/>
<path d="M164.831 546.152C165.001 546.439 163.4 546.171 162.015 545.665C159.703 544.818 155.245 541.793 158.466 539.166C161.577 536.631 164.396 539.082 167.651 539.563C168.795 539.733 170.831 539.794 171.321 541.123C172.163 543.409 169.548 545.378 167.647 545.989C167.096 546.166 164.73 545.979 164.831 546.152Z" fill="#FAE9D5" stroke="#2E4166" stroke-miterlimit="10" stroke-linecap="round"/>
<path d="M204.888 384.661C204.858 384.993 203.718 383.836 202.894 382.613C201.518 380.571 199.683 375.507 203.832 375.27C207.839 375.041 208.683 378.681 211.037 380.981C211.864 381.789 213.477 383.032 213.093 384.398C212.434 386.742 209.161 386.803 207.263 386.182C206.713 386.002 204.907 384.462 204.888 384.661Z" fill="#FAE9D5" stroke="#2E4166" stroke-miterlimit="10" stroke-linecap="round"/>
<path d="M177.569 533.082C177.438 533.139 173.731 534.299 172.983 534.687C169.226 536.632 167.51 542.084 171.488 544.768C174.961 547.11 182.185 540.204 182.538 536.733C182.882 533.346 180.372 531.859 177.569 533.082Z" fill="#FAE9D5" stroke="#2E4166" stroke-miterlimit="10" stroke-linecap="round"/>
<path d="M222.871 381.552C222.732 381.522 219.049 380.286 218.216 380.161C214.032 379.532 209.443 382.939 211.09 387.447C212.527 391.382 222.431 390.027 224.752 387.424C227.018 384.884 225.858 382.207 222.871 381.552Z" fill="#FAE9D5" stroke="#2E4166" stroke-miterlimit="10" stroke-linecap="round"/>
<path d="M224.744 526.396C224.058 526.827 223.973 527.848 223.816 528.643C223.471 530.398 224.141 532.516 224.053 534.318C223.995 535.518 223.895 536.69 223.627 537.863C223.576 538.085 223.32 538.624 223.536 538.544C224.688 538.124 226.459 535.077 226.734 535.026C227.124 534.955 228.248 537.131 229.208 537.061C230.525 536.963 230.665 533.759 230.727 533.766C232.252 533.941 233.721 535.124 235.55 534.324C235.899 534.172 236.434 534.087 236.519 533.715C236.542 533.615 235.767 533.521 235.047 533.028C234.325 532.533 234.361 532.533 233.677 531.757C231.692 529.505 229.234 524.084 225.443 525.853" fill="#FAE9D5"/>
<path d="M224.744 526.396C224.058 526.827 223.973 527.848 223.816 528.643C223.471 530.398 224.141 532.516 224.053 534.318C223.995 535.518 223.895 536.69 223.627 537.863C223.576 538.085 223.32 538.624 223.536 538.544C224.688 538.124 226.459 535.077 226.734 535.026C227.124 534.955 228.248 537.131 229.208 537.061C230.525 536.963 230.665 533.759 230.727 533.766C232.252 533.941 233.721 535.124 235.55 534.324C235.899 534.172 236.434 534.087 236.519 533.715C236.542 533.615 235.767 533.521 235.047 533.028C234.325 532.533 234.361 532.533 233.677 531.757C231.692 529.505 229.234 524.084 225.443 525.853" stroke="#2E4166" stroke-miterlimit="10" stroke-linecap="round"/>
<path d="M226.794 518.101C226.034 519.079 227.519 520.208 228.196 520.692C229.846 521.874 231.98 522.317 233.756 523.338C234.743 523.905 235.693 524.695 236.421 525.579C236.727 525.95 237.301 527.066 237.434 526.605C237.759 525.476 237.118 523.659 236.67 522.664C236.637 522.591 235.775 521.355 235.775 521.354C235.818 521.299 238.647 520.668 239.289 520.259C239.555 520.09 240.105 519.76 239.89 519.53C239.476 519.089 236.466 517.979 236.459 517.924C236.449 517.848 236.613 517.92 236.686 517.895C237.151 517.74 237.607 517.596 237.944 517.199C238.297 516.783 240.323 513.588 239.289 513.224C239.118 513.164 239.255 513.618 239.124 513.745C236.786 516.005 232.986 514.302 230.15 514.834C228.846 515.079 227.791 516.064 226.968 517.041" fill="#FAE9D5"/>
<path d="M226.794 518.101C226.034 519.079 227.519 520.208 228.196 520.692C229.846 521.874 231.98 522.317 233.756 523.338C234.743 523.905 235.693 524.695 236.421 525.579C236.727 525.95 237.301 527.066 237.434 526.605C237.759 525.476 237.118 523.659 236.67 522.664C236.637 522.591 235.775 521.355 235.775 521.354C235.818 521.299 238.647 520.668 239.289 520.259C239.555 520.09 240.105 519.76 239.89 519.53C239.476 519.089 236.466 517.979 236.459 517.924C236.449 517.848 236.613 517.92 236.686 517.895C237.151 517.74 237.607 517.596 237.944 517.199C238.297 516.783 240.323 513.588 239.289 513.224C239.118 513.164 239.255 513.618 239.124 513.745C236.786 516.005 232.986 514.302 230.15 514.834C228.846 515.079 227.791 516.064 226.968 517.041" stroke="#2E4166" stroke-miterlimit="10" stroke-linecap="round"/>
<path d="M213.618 517.463C212.86 517.477 210.336 520.252 209.717 520.756C208.681 521.6 207.549 522.308 206.373 522.935C205.9 523.187 204.565 523.484 204.6 523.695C204.77 524.717 209.003 524.23 209.514 524.303C209.96 524.366 209.253 525.171 209.21 525.62C209.155 526.201 208.851 527.895 209.362 528.407C209.704 528.749 211.511 526.734 211.845 526.279C211.93 526.163 212.048 525.873 212.149 525.975C212.305 526.13 212.144 526.42 212.199 526.633C212.443 527.566 213.243 528.726 214.125 529.166C214.55 529.379 215.041 529.421 215.493 529.572C215.686 529.636 215.959 530.008 216.05 529.825C216.091 529.742 215.14 527.341 215.29 526.684C216.01 523.532 221.103 517.331 213.618 517.463Z" fill="#FAE9D5" stroke="#2E4166" stroke-miterlimit="10" stroke-linecap="round"/>
<path d="M114.235 565.601C112.775 564.113 110.534 567.78 108.948 569.068C105.187 572.123 104.608 575.13 104.919 579.79C105.031 581.46 103.38 588.714 105.159 588.509C107.484 588.239 108.694 584.987 109.735 583.142C111.637 579.774 112.704 575.58 113.059 571.72C113.228 569.889 115.568 566.957 114.235 565.601Z" fill="#FAE9D5" stroke="#2E4166" stroke-miterlimit="10" stroke-linecap="round"/>
<path d="M115.567 565.141C112.871 564.795 112.597 572.224 112.465 574.004C111.977 580.582 111.019 586.367 115.942 591.475C117.079 592.655 118.521 594.383 120.109 594.985C120.442 595.111 120.554 593.224 120.565 593.189C120.808 592.457 121.142 591.745 121.575 591.106C122.868 589.198 124.482 587.61 125.063 585.296C126.328 580.262 123.247 579.173 120.831 575.371C120.128 574.263 119.67 572.931 119.223 571.725C118.427 569.582 118.39 565.5 115.567 565.141Z" fill="#FAE9D5" stroke="#2E4166" stroke-miterlimit="10" stroke-linecap="round"/>
<path d="M117.638 564.624C117.24 565.457 117.392 566.415 117.505 567.318C117.903 570.511 118.987 572.977 120.551 575.727C123.091 580.191 127.069 581.115 131.486 583.048C132.55 583.515 133.664 584.313 134.769 584.761C135.06 584.88 134.34 584.301 134.131 584.065C133.68 583.555 133.159 582.839 132.771 582.318C131.705 580.884 131.284 578.687 130.704 577.019C129.316 573.023 127.2 570.544 124.066 567.773C122.962 566.798 121.193 564.918 119.654 564.684C118.989 564.584 117.928 564.017 117.638 564.624Z" fill="#FAE9D5" stroke="#2E4166" stroke-miterlimit="10" stroke-linecap="round"/>
<path d="M118.762 564.688C122.047 564.182 125.135 566.29 128.051 567.951C130.662 569.437 130.412 570.967 132.029 573.255C132.776 574.312 133.466 575.324 134.489 576.136C135.404 576.861 137.115 577.183 137.453 578.473C138.032 580.68 133.352 578.905 132.736 578.417C130.645 576.756 129.303 574.156 127.768 572.021C126.715 570.559 124.901 569.246 123.477 568.21C122.206 567.286 117.213 564.926 118.762 564.688Z" fill="#FAE9D5" stroke="#2E4166" stroke-miterlimit="10" stroke-linecap="round"/>
<path d="M176.126 562.268C175.816 561.774 175.672 561.195 175.452 560.656C175.116 559.835 174.776 559.014 174.436 558.193C172.433 553.36 174.945 548.212 175.447 543.314C175.665 541.191 175.519 538.964 175.438 536.827C175.421 536.382 175.381 535.936 175.326 535.493C175.294 535.238 175.034 534.565 175.232 534.728C175.657 535.077 176.166 536.288 176.411 536.603C177.609 538.136 178.939 539.337 179.945 541.068C181.569 543.857 181.198 548.973 180.432 551.856C179.81 554.195 178.834 556.434 178.12 558.737C177.856 559.59 177.085 560.148 176.888 561.013" fill="#5D569A"/>
<path d="M176.126 562.268C175.816 561.774 175.672 561.195 175.452 560.656C175.116 559.835 174.776 559.014 174.436 558.193C172.433 553.36 174.945 548.212 175.447 543.314C175.665 541.191 175.519 538.964 175.438 536.827C175.421 536.382 175.381 535.936 175.326 535.493C175.294 535.238 175.034 534.565 175.232 534.728C175.657 535.077 176.166 536.288 176.411 536.603C177.609 538.136 178.939 539.337 179.945 541.068C181.569 543.857 181.198 548.973 180.432 551.856C179.81 554.195 178.834 556.434 178.12 558.737C177.856 559.59 177.085 560.148 176.888 561.013" stroke="#2E4166" stroke-miterlimit="10" stroke-linecap="round"/>
<path d="M167.406 557.767C166.279 552.507 168.807 548.444 170.164 543.509C170.441 542.503 170.053 541.274 170.425 540.271C170.535 539.977 170.882 540.717 171.038 540.989C171.211 541.293 171.328 541.624 171.461 541.946C172.837 545.265 171.725 551.92 170.496 555.232C169.626 557.574 168.11 561.665 167.291 556.701" fill="#5D569A"/>
<path d="M167.406 557.767C166.279 552.507 168.807 548.444 170.164 543.509C170.441 542.503 170.053 541.274 170.425 540.271C170.535 539.977 170.882 540.717 171.038 540.989C171.211 541.293 171.328 541.624 171.461 541.946C172.837 545.265 171.725 551.92 170.496 555.232C169.626 557.574 168.11 561.665 167.291 556.701" stroke="#2E4166" stroke-miterlimit="10" stroke-linecap="round"/>
<path d="M216.168 517.13C215.367 517.159 214.277 516.575 213.584 517.512C213.315 517.876 213.663 518.083 213.941 518.362C214.415 518.837 214.998 518.373 215.346 518.706C215.458 518.813 215.371 519.735 215.469 519.948C215.568 520.163 215.762 520.355 215.961 520.48C216.378 520.743 216.368 519.907 216.542 519.889C216.67 519.876 217.087 520.541 217.426 520.531C218.532 520.5 217.124 517.095 216.168 517.13Z" fill="#5D569A" stroke="#2E4166" stroke-miterlimit="10" stroke-linecap="round"/>
<path d="M226.6 517.275C226.516 517.695 226.226 518.262 226.222 518.833C226.217 519.443 226.902 522.487 228.101 521.104C228.627 520.497 228.03 519.745 227.98 519.172C227.972 519.087 228.151 519.173 228.237 519.167C228.529 519.147 228.889 518.917 228.998 518.638C229.308 517.839 228.695 518.041 228.412 517.581C228.308 517.411 228.755 517.359 228.867 517.196C229.103 516.854 229.297 516.352 229.32 515.93C229.383 514.746 228.047 515.192 227.478 515.738C226.972 516.224 226.736 516.601 226.6 517.275Z" fill="#5D569A" stroke="#2E4166" stroke-miterlimit="10" stroke-linecap="round"/>
<path d="M225.869 524.865C224.939 525.585 223.969 525.849 223.4 527.034C223.322 527.196 222.894 528.345 223.584 528.148C224.187 527.976 224.853 526.917 225.454 526.918C225.653 526.919 226.427 528.413 226.903 527.765C227.076 527.53 226.91 527.28 226.798 527.078C226.737 526.967 226.528 526.682 226.645 526.731C227.152 526.939 228.146 527.093 228.46 526.394C228.945 525.316 226.429 524.431 225.869 524.865Z" fill="#5D569A" stroke="#2E4166" stroke-miterlimit="10" stroke-linecap="round"/>
<path d="M167.602 539.226C167.168 538.923 166.368 537.614 165.998 537.313C164.938 536.457 163.504 534.999 162.356 534.356C162.039 534.179 161.517 533.969 161.273 534.238C160.457 535.138 162.798 536.404 163.186 535.464C163.539 534.609 162.145 534.192 161.692 534.162" fill="#5D569A"/>
<path d="M167.602 539.226C167.168 538.923 166.368 537.614 165.998 537.313C164.938 536.457 163.504 534.999 162.356 534.356C162.039 534.179 161.517 533.969 161.273 534.238C160.457 535.138 162.798 536.404 163.186 535.464C163.539 534.609 162.145 534.192 161.692 534.162" stroke="#2E4166" stroke-miterlimit="10" stroke-linecap="round"/>
<path d="M211.196 380.678C211.021 380.179 211.143 378.649 211.019 378.189C210.663 376.874 210.357 374.851 209.805 373.657C209.653 373.328 209.353 372.851 208.998 372.926C207.809 373.176 208.962 375.573 209.827 375.041C210.615 374.556 209.73 373.4 209.381 373.11" fill="#5D569A"/>
<path d="M211.196 380.678C211.021 380.179 211.143 378.649 211.019 378.189C210.663 376.874 210.357 374.851 209.805 373.657C209.653 373.328 209.353 372.851 208.998 372.926C207.809 373.176 208.962 375.573 209.827 375.041C210.615 374.556 209.73 373.4 209.381 373.11" stroke="#2E4166" stroke-miterlimit="10" stroke-linecap="round"/>
<path d="M168.36 539.284C168.034 538.85 168.092 538.232 167.956 537.705C167.55 536.141 167.411 536.34 167.242 534.847C167.119 533.765 167.528 532.257 166.905 531.251C166.099 529.95 165.754 532.519 167.185 532.144C168.056 531.916 167.452 530.101 166.563 530.881" fill="#5D569A"/>
<path d="M168.36 539.284C168.034 538.85 168.092 538.232 167.956 537.705C167.55 536.141 167.411 536.34 167.242 534.847C167.119 533.765 167.528 532.257 166.905 531.251C166.099 529.95 165.754 532.519 167.185 532.144C168.056 531.916 167.452 530.101 166.563 530.881" stroke="#2E4166" stroke-miterlimit="10" stroke-linecap="round"/>
<path d="M211.071 381.786C211.062 381.243 211.472 380.777 211.67 380.271C212.259 378.766 212.029 378.846 212.769 377.537C213.305 376.589 214.52 375.608 214.606 374.427C214.717 372.901 212.931 374.779 214.309 375.315C215.148 375.642 215.724 373.817 214.546 373.927" fill="#5D569A"/>
<path d="M211.071 381.786C211.062 381.243 211.472 380.777 211.67 380.271C212.259 378.766 212.029 378.846 212.769 377.537C213.305 376.589 214.52 375.608 214.606 374.427C214.717 372.901 212.931 374.779 214.309 375.315C215.148 375.642 215.724 373.817 214.546 373.927" stroke="#2E4166" stroke-miterlimit="10" stroke-linecap="round"/>
<path d="M211.775 381.171C211.767 380.628 212.176 380.161 212.374 379.656C212.963 378.151 212.733 378.23 213.473 376.921C214.009 375.974 215.225 374.992 215.31 373.812C215.421 372.286 213.635 374.163 215.013 374.699C215.852 375.026 216.428 373.202 215.251 373.311" fill="#5D569A"/>
<path d="M211.775 381.171C211.767 380.628 212.176 380.161 212.374 379.656C212.963 378.151 212.733 378.23 213.473 376.921C214.009 375.974 215.225 374.992 215.31 373.812C215.421 372.286 213.635 374.163 215.013 374.7C215.852 375.026 216.428 373.202 215.251 373.311" stroke="#2E4166" stroke-miterlimit="10" stroke-linecap="round"/>
<path d="M168.851 539.39C168.492 537.407 169.682 534.735 170.613 533.056C170.845 532.638 171.064 532.214 171.289 531.793C171.453 531.486 171.889 530.542 171.792 530.876C171.393 532.24 172.704 532.314 173.421 531.407C174.459 530.093 172.133 529.399 171.49 531.167" fill="#5D569A"/>
<path d="M168.851 539.39C168.492 537.407 169.682 534.735 170.613 533.056C170.845 532.638 171.064 532.214 171.289 531.793C171.453 531.486 171.889 530.542 171.792 530.876C171.393 532.24 172.704 532.314 173.421 531.407C174.459 530.093 172.133 529.399 171.49 531.167" stroke="#2E4166" stroke-miterlimit="10" stroke-linecap="round"/>
<path d="M212.11 381.545C212.983 379.728 215.514 378.262 217.254 377.449C217.686 377.247 218.113 377.032 218.542 376.823C218.855 376.67 219.762 376.162 219.487 376.376C218.363 377.246 219.382 378.075 220.495 377.761C222.106 377.307 220.63 375.38 219.072 376.434" fill="#5D569A"/>
<path d="M212.11 381.545C212.983 379.728 215.514 378.262 217.254 377.449C217.686 377.247 218.113 377.032 218.542 376.823C218.855 376.67 219.762 376.162 219.487 376.376C218.363 377.246 219.382 378.075 220.495 377.761C222.106 377.307 220.63 375.38 219.072 376.434" stroke="#2E4166" stroke-miterlimit="10" stroke-linecap="round"/>
<path d="M115.931 563.284C115.791 563.226 114.291 564.159 114.14 564.266C114.015 564.357 111.535 566.967 111.834 567.256C113.15 568.537 113.607 566.624 114.677 566.43C115.692 566.244 115.946 568.017 116.761 568.031C117.967 568.052 117.608 566.948 117.849 566.584C117.876 566.542 119.311 567.158 119.798 566.792C120.158 566.521 118.71 565.56 119.158 565.602C119.796 565.663 122.022 566.766 122.403 565.686C122.477 565.474 121.173 564.756 121.027 564.672C120.038 564.107 118.81 563.554 117.674 563.393C117.273 563.335 116.214 563.403 115.931 563.284Z" fill="#5D569A" stroke="#2E4166" stroke-miterlimit="10" stroke-linecap="round"/>
<path d="M177.627 573.102C178.47 571.796 177.287 569.347 176.855 567.791C176.248 565.606 175.356 564.656 173.765 562.772C171.951 560.621 168.027 563.366 166.427 564.218C164.954 565.004 162.624 565.088 161.696 566.826C161.352 567.472 161.662 568.44 161.407 569.144C160.739 570.98 158.378 572.337 159.186 574.647C161.255 580.56 169.17 580.658 173.862 578.701C176.638 577.546 176.328 575.115 177.627 573.102Z" fill="#FFC042" stroke="#2E4166" stroke-miterlimit="10" stroke-linecap="round"/>
<path d="M174.973 578.699C174.125 578.699 172.736 578.186 171.931 578.12C168.156 577.815 163.274 578.151 160.345 580.824C156.31 584.509 160.547 584.582 160.828 587.39C160.924 588.351 160.696 589.333 160.731 590.287C160.818 592.615 163.618 595.456 165.462 596.561C170.601 599.645 176.814 589.981 177.435 585.846C177.679 584.213 177.459 582.149 176.759 580.63C176.475 580.017 175.675 579.45 175.214 578.99C174.913 578.69 175.157 578.699 174.973 578.699Z" fill="#FFC042" stroke="#2E4166" stroke-miterlimit="10" stroke-linecap="round"/>
<path d="M178.69 581.645C177.653 582.674 177.582 584.257 176.952 585.554C175.263 589.034 171.998 593.382 173.38 597.527C174.157 599.86 175.889 598.01 177.338 598.493C179.644 599.262 180.168 600.718 182.938 600.52C184.588 600.403 184.117 597.987 185.449 597.721C186.741 597.462 188.093 597.735 189.407 597.431C191.541 596.939 194.179 594.777 195.49 592.99C196.707 591.33 194.368 588.244 193.462 586.811C190.385 581.939 183.934 576.441 178.69 581.645Z" fill="#FFC042" stroke="#2E4166" stroke-miterlimit="10" stroke-linecap="round"/>
<path d="M178.338 571.395C177.775 570.952 177.726 569.986 177.543 569.387C176.912 567.311 175.036 564.125 176.199 562.037C178.353 558.17 179.183 561.799 181.95 561.923C183.554 561.993 184.455 559.847 186.09 559.737C187.406 559.646 188.329 561.867 188.682 561.883C190.872 561.981 191.666 561.741 192.916 564.22C195.948 570.231 188.717 575.463 183.573 575.846C180.736 576.058 180.085 572.776 178.338 571.395Z" fill="#FFC042" stroke="#2E4166" stroke-miterlimit="10" stroke-linecap="round"/>
<path d="M183.586 576.49C183.681 576.259 187.026 574.503 187.59 574.256C189.549 573.4 191.421 572.168 193.487 571.599C193.854 571.496 194.859 571.23 195.322 571.247C197.825 571.333 198.468 572.25 198.205 574.718C198.179 574.956 198.032 575.716 198.224 575.947C198.939 576.81 200.102 576.88 200.737 577.974C201.495 579.282 200.144 580.225 199.983 581.37C199.83 582.45 200.511 583.425 199.78 584.503C196.267 589.681 189.547 585.438 185.948 582.618C184.223 581.265 182.668 578.744 183.586 576.49Z" fill="#FFC042" stroke="#2E4166" stroke-miterlimit="10" stroke-linecap="round"/>
<path d="M240.109 571.075C241.158 569.522 243.188 568.164 244.396 566.541C244.875 565.897 244.827 564.994 245.043 564.22C246.211 560.035 243.347 557.278 239.291 557.197C234.31 557.096 231.614 562.89 231.619 567.145C231.619 567.831 232.478 573.132 233.317 571.892" fill="#F27E0F"/>
<path d="M240.109 571.075C241.158 569.522 243.188 568.164 244.396 566.541C244.875 565.897 244.827 564.994 245.043 564.22C246.211 560.035 243.347 557.278 239.291 557.197C234.31 557.096 231.614 562.89 231.619 567.145C231.619 567.831 232.478 573.132 233.317 571.892" stroke="#2E4166" stroke-miterlimit="10" stroke-linecap="round"/>
<path d="M241.895 578.867C242.983 579.602 244.594 579.632 245.843 579.656C257.073 579.875 256.99 564.273 246.163 566.927C244.928 567.23 243.764 567.573 242.669 568.247C240.7 569.456 239.189 571.282 237.528 572.856" fill="#F27E0F"/>
<path d="M241.895 578.867C242.983 579.602 244.594 579.632 245.843 579.656C257.073 579.875 256.99 564.273 246.163 566.927C244.928 567.23 243.764 567.573 242.669 568.247C240.7 569.456 239.189 571.282 237.528 572.856" stroke="#2E4166" stroke-miterlimit="10" stroke-linecap="round"/>
<path d="M230.576 572.377C225.169 570.87 219.937 563.98 222.849 558.24C224.276 555.424 230.515 558.452 231.836 560.015C232.813 561.172 233.833 562.823 234.523 564.204C235.644 566.448 235.449 569.086 235.714 571.519" fill="#F27E0F"/>
<path d="M230.576 572.377C225.169 570.87 219.937 563.98 222.849 558.24C224.276 555.424 230.515 558.452 231.836 560.015C232.813 561.172 233.833 562.823 234.523 564.204C235.644 566.448 235.449 569.086 235.714 571.519" stroke="#2E4166" stroke-miterlimit="10" stroke-linecap="round"/>
<path d="M233.161 577.129C233.166 577.005 232.169 573.189 231.563 572.051C230.157 569.413 223.573 565.38 220.683 567.631C218.462 569.359 219.436 573.157 220.07 575.249C221.761 580.828 227.072 586.975 232.529 580.87C232.928 580.422 233.139 577.686 233.161 577.129Z" fill="#F27E0F" stroke="#2E4166" stroke-miterlimit="10" stroke-linecap="round"/>
<path d="M248.245 580.484C248.14 579.616 244.474 576.146 243.369 575.751C238.108 573.876 228.696 575.362 229.236 582.691C229.655 588.37 241.544 587.967 244.953 585.427C245.906 584.718 248.377 581.578 248.245 580.484Z" fill="#F27E0F" stroke="#2E4166" stroke-miterlimit="10" stroke-linecap="round"/>
<path d="M249.014 548.193C247.436 547.922 246.822 545.58 246.267 544.183C244.071 538.66 246.892 535.574 247.361 530.242C247.451 529.21 247.156 523.637 248.481 523.73C250.747 523.888 251.226 526.919 251.553 528.616C252.468 533.368 251.177 537.722 250.325 542.378C250.118 543.509 250.055 548.372 249.014 548.193Z" fill="#FFC042" stroke="#2E4166" stroke-miterlimit="10" stroke-linecap="round"/>
<path d="M249.893 548.116C248.422 544.627 252.017 540.596 253.673 537.182C254.754 534.952 256.669 533.356 258.177 531.471C259.735 529.522 261.158 527.477 262.678 525.521C263.028 525.072 263.425 523.98 263.887 524.315C265.578 525.544 265.246 527.879 265.333 529.702C265.634 536.041 262.109 540.421 257.613 544.338C255.592 546.099 251.136 551.062 249.893 548.116Z" fill="#FFC042" stroke="#2E4166" stroke-miterlimit="10" stroke-linecap="round"/>
<path d="M264.985 536.514C262.767 537.022 267.089 535.564 268.439 535.842C270.569 536.283 272.256 538.247 274.502 538.468C275.076 538.524 278.052 537.85 277.879 538.942C276.433 548.053 266.858 549.445 259.343 551.15C257.177 551.642 252.886 553.028 250.955 551.195C250.524 550.786 249.165 548.239 249.436 547.481C250.442 544.668 256.758 540.297 259.522 538.767C260.322 538.324 265.433 536.411 264.985 536.514Z" fill="#FFC042" stroke="#2E4166" stroke-miterlimit="10" stroke-linecap="round"/>
<path d="M251.538 551.706C252.695 552.39 253.153 554.202 254.644 554.711C257.506 555.683 259.944 555.756 262.888 555.152C264.854 554.748 266.641 553.988 268.691 554.151C270.753 554.314 274.947 556.917 275.887 554.032C276.711 551.51 271.157 550.337 269.855 550.106C266.886 549.581 263.725 549.941 260.751 550.356C258.578 550.659 256.389 551.496 254.166 551.312C252.97 551.214 250.18 551.384 249.986 549.621" fill="#FFC042"/>
<path d="M251.538 551.706C252.695 552.39 253.153 554.202 254.644 554.711C257.506 555.683 259.944 555.756 262.888 555.152C264.854 554.748 266.641 553.988 268.691 554.151C270.753 554.314 274.947 556.917 275.887 554.032C276.711 551.51 271.157 550.337 269.855 550.106C266.886 549.581 263.725 549.941 260.751 550.356C258.578 550.659 256.389 551.496 254.166 551.312C252.97 551.214 250.18 551.384 249.986 549.621" stroke="#2E4166" stroke-miterlimit="10" stroke-linecap="round"/>
<path d="M200.671 531.503C201.337 529.185 199.327 527.147 197.273 528.651C196.725 529.053 196.302 530.477 196.767 531.005C196.972 531.237 197.158 531.486 197.383 531.698C197.441 531.752 197.653 531.856 197.577 531.834C196.803 531.603 196.685 531.247 195.672 531.266C194.496 531.288 192.7 532.314 193.222 533.707C194.008 535.803 195.751 535.536 197.36 534.666C197.597 534.538 196.981 535.06 196.858 535.299C196.613 535.776 196.497 536.353 196.541 536.887C196.629 537.97 198.185 538.016 198.911 537.869C200.418 537.562 199.352 535.733 199.556 535.046C199.652 534.724 200.08 535.559 200.416 535.577C200.804 535.598 201.656 535.562 202.061 535.441C204.135 534.819 203.502 532.634 202.098 531.772C201.678 531.514 200.559 531.892 200.671 531.503Z" fill="#F27E0F" stroke="#2E4166" stroke-miterlimit="10" stroke-linecap="round"/>
<path d="M186.781 523.898C187.747 522.152 188.255 520.332 185.807 520.708C184.889 520.849 183.84 522.977 184.571 523.779C184.663 523.881 184.575 523.495 184.515 523.373C184.29 522.916 184.011 522.861 183.488 522.763C182.605 522.597 181.156 522.792 180.834 523.792C180.586 524.565 181.791 525.927 182.483 526.167C182.708 526.246 183.694 525.951 183.916 526.092C183.961 526.121 183.817 526.139 183.777 526.175C183.405 526.515 183.271 527.095 183.233 527.572C183.193 528.073 183.631 528.939 184.251 528.848C185.029 528.733 185.67 528.249 185.989 527.552C186.154 527.19 185.741 526.271 186.126 526.368C186.374 526.429 186.48 526.841 186.876 526.829C187.781 526.802 189.744 526.041 188.557 524.812C188.012 524.247 186.428 524.536 186.781 523.898Z" fill="#FFC042" stroke="#2E4166" stroke-miterlimit="10" stroke-linecap="round"/>
<path d="M200.823 516.002C198.031 513.47 194.813 517.051 197.667 518.702C198.162 518.988 198.709 519.238 199.278 519.292C199.611 519.324 199.9 519.043 200.219 518.943C200.433 518.876 199.983 519.339 199.95 519.561C199.887 519.987 199.818 520.423 199.869 520.85C199.962 521.62 200.255 523.306 201.481 523.187C203.401 523.001 204.081 520.48 203.093 518.997C203.046 518.927 203.16 519.16 203.227 519.212C203.509 519.432 203.784 519.812 204.14 519.776C205.196 519.668 206.57 519.241 206.718 518.003C206.927 516.267 204.213 516.57 203.281 517.036C203.148 517.102 203.579 516.953 203.683 516.848C203.913 516.619 204.098 516.349 204.301 516.096C204.713 515.585 204.713 514.197 204.247 513.759C202.729 512.333 202.025 517.092 200.823 516.002Z" fill="#FFC042" stroke="#2E4166" stroke-miterlimit="10" stroke-linecap="round"/>
<path d="M191.452 504.135C191.368 503.784 192.082 502.457 192.07 502.351C191.853 500.406 189.611 501.853 189.255 502.697C189.075 503.123 189.348 505.319 189.801 505.128C189.816 505.122 188.76 504.619 188.446 504.698C187.399 504.963 186.174 505.497 185.6 506.518C184.568 508.356 188.682 509.183 188.972 507.675C189.061 507.212 188.694 508.58 188.624 509.046C188.543 509.582 188.778 511.291 189.738 511.164C191.674 510.908 191.297 508.169 190.922 506.994C190.812 506.65 191.357 507.658 191.709 507.737C192.504 507.916 193.319 507.503 193.665 506.803C195.035 504.035 191.645 504.949 191.452 504.135Z" fill="#F27E0F" stroke="#2E4166" stroke-miterlimit="10" stroke-linecap="round"/>
<path d="M203.856 497.92C203.339 498.335 202.675 497.799 202.172 498.59C201.566 499.544 201.684 500.062 202.371 500.939C202.413 500.992 202.472 501.042 202.539 501.051C203.561 501.177 204.68 500.74 204.887 499.616C204.978 499.121 204.172 497.667 203.856 497.92Z" fill="#FFC042" stroke="#2E4166" stroke-miterlimit="10" stroke-linecap="round"/>
<path d="M197.427 489.505C195.713 489.102 195.017 492.612 196.835 492.539C198.266 492.482 199.025 490.964 198.015 489.788C197.828 489.571 197.044 489.463 196.843 489.416" fill="#F27E0F"/>
<path d="M197.427 489.505C195.713 489.102 195.017 492.612 196.835 492.539C198.266 492.482 199.025 490.964 198.015 489.788C197.828 489.571 197.044 489.463 196.843 489.416" stroke="#2E4166" stroke-miterlimit="10" stroke-linecap="round"/>
<path d="M203.75 485.34C203.619 485.344 202.933 485.088 202.273 486.113C201.673 487.046 201.717 488.206 202.96 488.501C204.996 488.986 206.013 485.282 203.75 485.34Z" fill="#F27E0F" stroke="#2E4166" stroke-miterlimit="10" stroke-linecap="round"/>
<path d="M201.583 501.525C199.928 500.986 198.769 503.487 200.611 504.086C202.201 504.603 203.122 502.025 201.583 501.525Z" fill="#FFC042" stroke="#2E4166" stroke-miterlimit="10" stroke-linecap="round"/>
<path d="M200.056 499.236C200.213 499.285 199.63 499.067 199.421 499.131C199.337 499.157 198.755 499.513 198.696 499.577C198.05 500.264 198.226 501.376 199.159 501.722C200.026 502.042 200.906 501.234 200.956 500.387C200.983 499.938 200.64 499.544 200.296 499.314C200.226 499.268 199.976 499.212 200.056 499.236Z" fill="#F27E0F" stroke="#2E4166" stroke-miterlimit="10" stroke-linecap="round"/>
<path d="M197.989 494.375C197.783 494.085 197.618 494.08 197.471 494.105C196.83 494.214 196.598 494.342 196.262 494.873C195.688 495.779 196.339 496.473 197.119 496.894C198.243 497.499 198.702 495.374 197.989 494.375Z" fill="#F27E0F" stroke="#2E4166" stroke-miterlimit="10" stroke-linecap="round"/>
<path d="M199.787 492.067C199.73 492.072 199.297 491.921 198.854 492.256C198.719 492.358 198.639 492.519 198.546 492.661C198.153 493.263 198.363 494.187 199.046 494.54C200.852 495.472 201.97 491.891 199.787 492.067Z" fill="#FFC042" stroke="#2E4166" stroke-miterlimit="10" stroke-linecap="round"/>
<path d="M203.023 488.789C202.457 488.752 202.216 489.231 202.114 489.529C201.696 490.739 202.49 491.529 203.646 491.415C205.152 491.267 204.423 488.881 203.023 488.789Z" fill="#FFC042" stroke="#2E4166" stroke-miterlimit="10" stroke-linecap="round"/>
<path d="M183.816 535.063C183.281 534.083 183.894 532.675 185.249 532.946C186.866 533.269 185.514 535.145 185.314 535.747C185.181 536.147 186.131 535.519 186.551 535.486C187.008 535.451 187.991 536.226 188.375 536.529C189.505 537.415 188.631 538.719 187.659 539.069C187.162 539.249 186.568 538.572 186.096 538.808C185.333 539.19 185.705 541.954 183.816 541.413C183.584 541.348 182.558 540.294 182.513 540.046C182.451 539.703 182.861 539.004 182.513 539.004C182.28 539.004 182.163 539.517 181.797 539.393C180.653 539.013 180.875 537.033 181.276 536.268C181.679 535.499 182.351 535.182 183.165 534.965C183.414 534.899 183.967 535.339 183.816 535.063Z" fill="#FFC042" stroke="#2E4166" stroke-miterlimit="10" stroke-linecap="round"/>
<path d="M199.366 507.433C198.54 506.86 198.332 505.688 197.642 506.772C197.228 507.422 197.386 507.661 197.781 508.339C197.914 508.566 198.546 508.662 198.374 508.861C197.529 509.836 195.671 510.974 197.747 512.066C198.636 512.534 199.888 511.278 199.593 510.394C199.522 510.182 199.558 510.881 199.697 511.056C199.791 511.174 199.972 511.182 200.115 511.23C200.817 511.464 201.653 511.089 201.926 510.394C202.125 509.888 200.881 509.14 200.881 509.14C200.881 509.14 202.347 508.109 201.996 507.573C201.371 506.616 200.125 507.96 199.366 507.433Z" fill="#FFC042" stroke="#2E4166" stroke-miterlimit="10" stroke-linecap="round"/>
<path d="M191.482 515.529C190.851 515.848 190.451 512.998 189.644 514.362C189.219 515.08 189.264 515.459 189.685 516.212C189.79 516.399 190.475 516.416 190.27 516.481C189.421 516.751 188.595 516.797 188.475 517.882C188.419 518.385 189.307 519.573 189.88 519.267C190.633 518.866 190.437 518.599 190.896 518.232C191.12 518.053 190.792 518.82 190.883 519.091C191.09 519.707 191.868 519.976 192.463 519.635C192.981 519.339 193.477 518.278 193.254 517.673C193.168 517.439 192.375 517.428 192.597 517.313C193.053 517.077 193.3 517.267 193.794 516.872C195.553 515.463 193.911 514.305 191.482 515.529Z" fill="#F27E0F" stroke="#2E4166" stroke-miterlimit="10" stroke-linecap="round"/>
<path d="M196.38 522.754C196.431 521.112 193.217 522.953 195.469 524.889C195.843 525.211 194.456 525.062 194.067 525.366C193.943 525.463 192.719 526.722 193.574 527.112C194.435 527.505 195.196 527.257 195.94 526.708C196.179 526.532 196.114 525.762 196.361 525.926C197.123 526.431 197.809 527.413 198.786 526.177C199.283 525.549 198.216 524.835 197.767 524.662C197.467 524.547 198.48 524.988 198.726 524.78C199.133 524.434 199.027 523.412 198.756 523.023C198.155 522.159 196.377 522.838 196.38 522.754Z" fill="#FFC042" stroke="#2E4166" stroke-miterlimit="10" stroke-linecap="round"/>
<path d="M191.537 543.725C192.112 543.886 192.236 541.166 193.134 541.644C193.997 542.102 193.423 543.431 193.05 543.914C192.85 544.173 192.052 544.595 192.378 544.628C193.603 544.751 195.235 545.306 194.647 546.981C194.418 547.634 193.077 547.483 192.756 547.401C192.334 547.294 192.254 546.37 191.832 546.477C191.758 546.496 191.758 546.613 191.748 546.687C191.668 547.24 191.471 549.584 190.319 549.083C189.745 548.833 187.87 547.527 188.974 546.645C189.263 546.414 189.775 546.431 189.94 546.1C189.953 546.074 189.884 546.1 189.856 546.1C189.38 546.1 189.326 546.109 188.596 545.89C188.046 545.722 187.612 545.521 187.587 544.88C187.523 543.207 190.408 543.405 191.537 543.725Z" fill="#FFC042" stroke="#2E4166" stroke-miterlimit="10" stroke-linecap="round"/>
<path d="M231.402 571.561C230.872 570.269 231.794 572.011 232.2 570.791C232.459 570.014 232.301 569.193 232.421 569.193C232.737 569.193 232.699 570.031 232.806 570.185C233.804 571.612 234.998 569.975 235.614 569.359C235.744 569.228 235.585 569.727 235.559 569.909C235.511 570.243 235.325 570.845 235.724 571.01C237.056 571.566 237.841 570.577 238.862 569.965C239.076 569.837 238.543 570.353 238.421 570.57C238.231 570.912 238.257 571.633 238.532 571.946C239.388 572.925 240.433 571.941 241.339 572.167C241.417 572.186 240.742 572.811 240.349 573.544C239.892 574.393 240.729 574.614 241.229 574.864C241.443 574.971 240.753 574.92 240.514 574.92C240.211 574.92 239.94 574.952 239.633 574.976C238.635 575.046 237.532 574.796 236.55 574.976C235.734 575.123 234.898 575.438 234.127 575.745C233.806 575.874 233.448 575.941 233.136 576.077C233.038 576.119 232.909 576.338 232.861 576.24C232.778 576.074 232.978 575.433 232.861 575.139C232.392 573.968 231.859 572.673 231.402 571.561Z" fill="#E4DBC1" stroke="#2E4166" stroke-miterlimit="10" stroke-linecap="round"/>
<path d="M177.717 569.904C177.242 569.47 177.902 570.847 177.915 571.133C177.943 571.738 177.679 572.398 177.323 572.876C176.625 573.811 175.592 574.037 174.438 574.124C174.14 574.145 173.547 574.21 173.547 574.21C173.547 574.21 173.813 574.268 173.948 574.285C174.607 574.369 176.329 574.616 176.102 575.743C175.873 576.881 174.759 577.989 173.903 578.686C173.548 578.975 173.15 579.153 172.761 579.398C172.669 579.456 172.382 579.608 172.485 579.573C174.659 578.852 176.548 579.05 175.815 582.061C175.746 582.344 175.08 583.496 175.16 583.738C175.194 583.841 175.313 583.589 175.374 583.501C175.576 583.211 175.797 582.945 176.077 582.726C176.778 582.178 177.665 581.683 178.586 581.977C180.017 582.435 180.28 583.972 181.05 585.003C181.11 585.084 181.081 584.802 181.075 584.702C181.05 584.275 180.936 583.855 180.865 583.435C180.748 582.745 180.757 581.732 181.357 581.268C182.172 580.636 183.763 580.797 184.629 581.061C184.83 581.121 185.955 581.59 186.032 581.513C186.057 581.49 184.775 580.352 184.768 580.347C184.333 579.939 183.582 579.174 183.506 578.551C183.358 577.357 186.577 576.295 187.209 575.486C187.324 575.339 186.838 575.54 186.657 575.586C186.362 575.661 186.075 575.764 185.779 575.836C184.999 576.027 184.185 576.137 183.687 575.318C183.244 574.59 183.31 574.128 183.477 573.3C183.546 572.957 183.923 572.148 183.592 572.26C182.975 572.463 182.911 574.047 182.334 574.513C180.401 576.071 178.659 570.767 177.717 569.904Z" fill="#E4DBC1" stroke="#2E4166" stroke-miterlimit="10" stroke-linecap="round"/>
<path d="M164.643 538.704C164.445 538.592 165.095 538.18 165.041 537.52C165.003 537.058 164.072 536.219 164.098 536.016C164.121 535.842 164.408 536.18 164.555 536.276C165.024 536.58 165.327 536.682 165.856 536.554C166.596 536.377 166.692 534.9 166.497 534.342C166.443 534.185 166.606 534.661 166.707 534.792C166.877 535.012 167.289 535.236 167.558 535.28C168.242 535.394 168.911 534.939 169.107 534.321C169.214 533.984 169.148 532.938 169.265 533.272C169.501 533.949 169.457 535.035 170.555 535.02C171.044 535.013 171.486 534.759 171.733 534.348C171.841 534.168 172.098 533.592 172.007 533.781C171.567 534.693 172.706 535.145 173.032 534.47C173.046 534.441 172.677 534.617 172.628 534.663C172.323 534.955 172.038 535.261 171.734 535.551C171.118 536.139 170.539 536.684 170.009 537.356C169.586 537.89 169.568 539.117 169.038 539.525C168.965 539.584 168.882 539.463 168.85 539.435C167.764 538.529 165.777 539.351 164.643 538.704Z" fill="#F27B0F" stroke="#2E4166" stroke-miterlimit="10" stroke-linecap="round"/>
<path d="M209.106 378.521C209.012 378.314 209.78 378.361 210.124 377.795C210.364 377.399 210.102 376.174 210.242 376.025C210.362 375.897 210.397 376.34 210.46 376.503C210.662 377.024 210.847 377.285 211.35 377.492C212.054 377.783 212.997 376.643 213.168 376.077C213.215 375.918 213.068 376.399 213.073 376.564C213.081 376.842 213.284 377.266 213.475 377.459C213.963 377.953 214.771 377.976 215.293 377.592C215.577 377.382 216.138 376.496 216.036 376.835C215.83 377.521 215.157 378.375 216.055 379.007C216.454 379.288 216.962 379.343 217.404 379.154C217.596 379.072 218.142 378.756 217.957 378.856C217.066 379.336 217.724 380.371 218.383 380.015C218.412 380 218.01 379.926 217.943 379.935C217.525 379.992 217.115 380.072 216.698 380.129C215.855 380.244 215.065 380.346 214.242 380.579C213.586 380.764 212.851 381.746 212.183 381.766C212.09 381.769 212.094 381.623 212.083 381.582C211.735 380.212 209.645 379.709 209.106 378.521Z" fill="#F27B0F" stroke="#2E4166" stroke-miterlimit="10" stroke-linecap="round"/>
<path d="M209.051 557.659C209.275 557.433 209.194 557.782 208.987 558.424C208.635 559.518 207.783 559.051 207.063 559.523C206.965 559.585 207.3 559.527 207.414 559.555C207.624 559.604 207.948 559.686 208.112 559.837C208.324 560.036 207.951 560.525 207.859 560.654C207.45 561.211 206.648 561.531 206.053 561.843C205.934 561.906 205.663 561.902 205.697 562.03C205.697 562.032 206.202 561.897 206.222 561.892C206.486 561.846 207.023 561.958 207.205 562.196C207.898 563.105 207.498 564.146 207.026 564.953C206.899 565.172 207.373 564.584 207.575 564.435C207.844 564.237 208.389 563.891 208.769 563.996C209.269 564.136 209.583 564.617 209.848 565.023C209.934 565.153 209.929 565.468 210.08 565.428C210.158 565.407 210.055 565.268 210.048 565.188C210.018 564.862 209.959 564.442 210.116 564.141C210.509 563.388 211.279 563.32 212.052 563.446C212.319 563.49 212.59 563.504 212.857 563.546C212.964 563.562 213.207 563.691 213.179 563.586C213.102 563.294 211.086 562.781 211.581 562.011C211.721 561.794 213.573 560.337 213.49 560.264C213.384 560.169 212.359 560.644 212.164 560.675C210.682 560.892 211.306 559.229 211.679 558.589C211.783 558.412 211.49 558.956 211.386 559.133C211.213 559.429 210.959 559.688 210.588 559.655C209.952 559.597 208.564 558.153 209.051 557.659Z" fill="#F27B0F" stroke="#2E4166" stroke-miterlimit="10" stroke-linecap="round"/>
<path d="M147.553 564.914C147.777 564.685 147.695 565.035 147.489 565.677C147.136 566.773 146.285 566.304 145.565 566.775C145.466 566.841 145.802 566.78 145.916 566.808C146.126 566.857 146.45 566.941 146.614 567.092C146.826 567.288 146.453 567.781 146.361 567.907C145.952 568.464 145.149 568.786 144.555 569.098C144.436 569.159 144.165 569.154 144.199 569.285C144.199 569.285 144.703 569.15 144.723 569.147C144.988 569.101 145.525 569.21 145.706 569.448C146.4 570.358 146 571.398 145.528 572.208C145.401 572.425 145.875 571.839 146.077 571.69C146.345 571.489 146.891 571.144 147.27 571.251C147.771 571.389 148.085 571.87 148.35 572.275C148.435 572.406 148.431 572.721 148.582 572.681C148.66 572.663 148.557 572.523 148.549 572.441C148.52 572.114 148.46 571.697 148.617 571.396C149.011 570.64 149.781 570.573 150.553 570.699C150.82 570.743 151.091 570.759 151.359 570.799C151.466 570.815 151.708 570.943 151.681 570.839C151.604 570.547 149.588 570.034 150.083 569.264C150.223 569.047 152.075 567.589 151.992 567.517C151.885 567.421 150.86 567.9 150.666 567.928C149.184 568.147 149.808 566.481 150.181 565.842C150.285 565.665 149.992 566.208 149.888 566.388C149.715 566.682 149.461 566.943 149.09 566.908C148.453 566.85 147.066 565.406 147.553 564.914Z" fill="#F9CA19" stroke="#2E4166" stroke-miterlimit="10" stroke-linecap="round"/>
<path d="M247.716 547.908C247.703 547.892 247.723 547.989 247.724 547.968C247.741 547.185 247.685 546.399 247.765 545.617C247.831 544.969 247.929 544.444 248.329 543.98C248.447 543.842 249.4 546.45 249.504 546.749C249.518 546.788 249.564 546.87 249.591 546.84C250.155 546.186 250.266 545.652 251.076 545.102C251.175 545.037 251.361 544.876 251.413 544.983C251.83 545.837 250.362 547.521 250.089 548.311C250.059 548.4 250.27 548.26 250.356 548.225C250.816 548.034 250.923 547.969 251.454 547.952C252.066 547.936 252.675 548.325 252.984 548.834C253.528 549.734 250.972 549.87 250.939 549.963C250.93 549.993 253.086 550.866 253.158 550.905C253.42 551.047 255.744 552.967 254.652 553.606C253.101 554.516 249.495 551.264 248.674 550.189C248.151 549.501 248.222 548.554 247.716 547.908Z" fill="#5D569A" stroke="#2E4166" stroke-miterlimit="10" stroke-linecap="round"/>
<path d="M233.827 575.89C233.744 573.516 233.134 571.188 232.667 568.86C232.533 568.195 232.345 567.542 232.106 566.91C231.917 566.408 231.832 565.611 231.304 565.517C230.507 565.38 229.424 566.777 230.388 567.299C231.698 568.011 232.526 567.136 231.62 566.098" fill="#5D569A"/>
<path d="M233.827 575.89C233.744 573.516 233.134 571.188 232.667 568.86C232.533 568.195 232.345 567.542 232.106 566.91C231.917 566.408 231.832 565.611 231.304 565.517C230.507 565.38 229.424 566.777 230.388 567.299C231.698 568.011 232.526 567.136 231.62 566.098" stroke="#2E4166" stroke-miterlimit="10" stroke-linecap="round"/>
<path d="M235.704 574.411C235.762 572.069 236.368 569.953 237.057 567.721C237.113 567.539 237.76 566.007 237.57 565.657C237.303 565.167 236.782 567.413 238.077 567.402C239.712 567.388 238.736 565.344 237.708 565.125" fill="#5D569A"/>
<path d="M235.704 574.411C235.762 572.069 236.368 569.953 237.057 567.721C237.113 567.539 237.76 566.007 237.57 565.657C237.303 565.167 236.782 567.413 238.077 567.402C239.712 567.388 238.736 565.344 237.708 565.125" stroke="#2E4166" stroke-miterlimit="10" stroke-linecap="round"/>
<path d="M237.055 574.943C236.956 575.412 237.861 574.418 238.213 574.092C238.734 573.611 239.226 573.1 239.767 572.641C240.638 571.904 241.814 571.57 242.834 571.076C243.063 570.964 243.517 570.733 243.517 570.733C243.517 570.733 243.111 571.757 243.425 572.079C243.879 572.545 244.743 572.503 245.029 571.885C245.767 570.285 243.762 570.614 242.832 570.854" fill="#5D569A"/>
<path d="M237.055 574.943C236.956 575.412 237.861 574.418 238.213 574.092C238.734 573.611 239.226 573.1 239.767 572.641C240.638 571.904 241.814 571.57 242.834 571.076C243.063 570.964 243.517 570.733 243.517 570.733C243.517 570.733 243.111 571.757 243.425 572.079C243.879 572.545 244.743 572.503 245.029 571.885C245.767 570.285 243.762 570.614 242.832 570.854" stroke="#2E4166" stroke-miterlimit="10" stroke-linecap="round"/>
<path d="M251.031 542.105C251.585 538.543 252.883 535.339 254.395 532.124C254.622 531.642 254.637 531.011 255.038 530.66C255.249 530.477 255.556 531.114 255.808 530.992C256.282 530.764 256.566 530.254 256.639 529.743C256.766 528.844 255.054 528.727 255.163 530.653" fill="#5D569A"/>
<path d="M251.031 542.105C251.585 538.543 252.883 535.339 254.395 532.124C254.622 531.642 254.637 531.011 255.038 530.66C255.249 530.477 255.556 531.114 255.808 530.992C256.282 530.764 256.566 530.254 256.639 529.743C256.766 528.844 255.054 528.727 255.163 530.653" stroke="#2E4166" stroke-miterlimit="10" stroke-linecap="round"/>
<path d="M176.895 574.686C176.895 574.686 176.893 575.413 177.164 575.528C177.513 575.679 177.97 575.504 178.276 575.28C178.643 575.01 178.186 573.802 176.895 574.686Z" fill="#5D569A" stroke="#2E4166" stroke-miterlimit="10" stroke-linecap="round"/>
<path d="M176.145 578.46C175.69 579.169 177.558 579.659 177.735 578.833C178.077 577.24 176.68 577.625 176.145 578.46Z" fill="#5D569A" stroke="#2E4166" stroke-miterlimit="10" stroke-linecap="round"/>
<path d="M178.453 579.881C178.307 580.165 178.851 580.627 179.155 580.529C180.462 580.111 179.762 577.352 178.453 579.881Z" fill="#5D569A" stroke="#2E4166" stroke-miterlimit="10" stroke-linecap="round"/>
<path d="M180.567 578.021C180.734 577.907 181.826 579.486 182.237 578.212C182.311 577.981 182.165 577.727 182.064 577.508C181.596 576.505 180.408 578.131 180.567 578.021Z" fill="#5D569A" stroke="#2E4166" stroke-miterlimit="10" stroke-linecap="round"/>
<path d="M179.763 574.903C179.619 575.148 179.751 575.481 179.833 575.752C179.972 576.216 181.019 575.952 181.08 575.924C182.118 575.453 180.416 573.792 179.763 574.903Z" fill="#5D569A" stroke="#2E4166" stroke-miterlimit="10" stroke-linecap="round"/>
<path d="M189.775 405.894C190.479 405.978 192.057 405.471 192.733 402.768" stroke="#2E4166" stroke-linecap="round"/>
<rect x="179.461" y="696.529" width="18.7706" height="2.21061" rx="1.10531" fill="#DC89A7" stroke="#2E4166"/>
<rect x="179.461" y="702.613" width="18.7706" height="2.21061" rx="1.10531" fill="#DC89A7" stroke="#2E4166"/>
</g>
<defs>
<linearGradient id="paint0_linear_19430_174529" x1="295" y1="-100.5" x2="636.184" y2="591.468" gradientUnits="userSpaceOnUse">
<stop stop-color="#494B94"/>
<stop offset="0.901042" stop-color="#7072DA"/>
</linearGradient>
<linearGradient id="paint1_linear_19430_174529" x1="390" y1="390" x2="195" y2="849.5" gradientUnits="userSpaceOnUse">
<stop stop-color="#D759DA"/>
<stop offset="1" stop-color="#8E35FF"/>
</linearGradient>
<linearGradient id="paint2_linear_19430_174529" x1="380.5" y1="809" x2="-53" y2="565" gradientUnits="userSpaceOnUse">
<stop stop-color="#FF005B" stop-opacity="0.39"/>
<stop offset="1" stop-color="#FF7CAB" stop-opacity="0.4"/>
</linearGradient>
<clipPath id="clip0_19430_174529">
<path d="M0 0H390V789C390 800.046 381.046 809 370 809H20C8.9543 809 0 800.046 0 789V0Z" fill="white"/>
</clipPath>
</defs>
</svg>
